<?xml version="1.0" encoding="UTF-8"?>
<svg version="1.0" id="a6d033c8-6236-4b6b-86d5-1150258abf47" xmlns="http://www.w3.org/2000/svg" x="0" y="0" viewBox="0 0 441.721 78.679" xml:space="preserve"><style>.st2{fill:#fff}</style><switch><g><path d="M371.792 24.547a4.432 4.432 0 013.032-8.33 9.256 9.256 0 10-6.332 17.397l45.483 16.554-39.151 14.25a9.256 9.256 0 11-6.332-17.396c-7.308 2.66-11.075 10.74-8.416 18.048 2.66 7.307 10.74 11.075 18.048 8.415l42.715-15.547a8.269 8.269 0 000-15.54l-49.047-17.851z" fill="#018374"/><path d="M413.975 30.468l-39.151-14.25a9.256 9.256 0 10-6.332 17.396c-7.31-2.652-11.087-10.728-8.436-18.038 2.652-7.31 10.728-11.088 18.038-8.436l.03.01 42.715 15.548a8.269 8.269 0 010 15.54l-49.047 17.851a4.432 4.432 0 003.032 8.33 9.256 9.256 0 11-6.332-17.397l45.483-16.554" fill="#02bc94"/><path class="st2" d="M64.68 56.974h-7.464V53.53h-.23a10.553 10.553 0 01-8.957 4.363c-5.34 0-12.517-4.306-12.517-14.698 0-8.842 6.086-14.468 13.091-14.468a9.665 9.665 0 018.383 4.306h.23v-3.56h7.463v27.501zm-14.24-5.798c3.675 0 6.89-3.216 6.89-7.866 0-4.823-2.985-7.98-6.832-7.98-4.823 0-7.12 3.96-7.12 7.923 0 4.018 2.24 7.923 7.063 7.923zm29.439-5.512l-1.78 1.722v9.588h-7.751V15.636h7.751v23.138l8.727-9.301h9.416L85.218 40.784l12.689 16.19h-9.358l-8.67-11.31zm66.629-9.53a19.953 19.953 0 00-3.675-.345c-4.593 0-6.89 2.87-6.89 7.808v13.377h-7.75v-27.5h7.579v4.248h.172a9.359 9.359 0 018.038-5.053c.848-.025 1.696.052 2.526.23v7.234zm36.576 4.19h-15.072v16.65h-8.21V17.818h8.21v15.387h15.072V17.818h8.21v39.156h-8.21v-16.65zm39.099 16.65h-7.694V53.53h-.173a9.191 9.191 0 01-8.037 4.363c-4.479 0-9.99-2.756-9.99-12.114V29.473h7.75v15.33c0 4.019 1.895 6.2 4.88 6.2 3.388 0 5.512-2.354 5.512-6.947V29.473h7.751v27.501zm33.17-.86c0 10.22-4.594 15.616-14.756 15.616-6.666 0-11.392-3.147-13.208-8.432l7.122-2.592c.574 2.641 2.526 4.708 6.545 4.708 4.65 0 7.062-2.928 7.062-8.267v-3.502h-.173a10.85 10.85 0 01-8.784 3.961c-7.12 0-12.975-5.57-12.975-14.468 0-8.268 5.684-14.526 13.32-14.526a9.79 9.79 0 018.325 4.191h.287v-3.33h7.234v26.64zm-14.296-5.283c3.846 0 7.004-3.158 7.004-7.693 0-4.708-3.043-7.809-6.947-7.809-4.65 0-7.062 3.904-7.062 7.751 0 3.79 2.182 7.751 7.005 7.751zm19.734-35.195h7.751v17.282h.23a9.219 9.219 0 018.096-4.306c6.143 0 10.449 4.076 10.449 12.574v15.788h-7.75v-15.33c0-4.076-1.953-6.2-5.168-6.2-3.388 0-5.856 2.354-5.856 7.004v14.526h-7.751V15.636zm58.203 27.387c.016.69-.022 1.382-.114 2.067h-20.44a7.181 7.181 0 007.12 7.062 6.282 6.282 0 005.511-2.871l6.395 2.327c-2.15 3.588-5.974 6.343-11.964 6.343-8.21 0-14.64-5.971-14.64-14.928 0-7.866 5.167-14.468 14.124-14.468 9.07 0 14.008 6.774 14.008 14.468zm-20.496-3.216h12.86a6.459 6.459 0 00-12.86 0zm36.5-2.927c-.172-1.953-1.435-3.1-3.158-3.1-1.837 0-2.813 1.205-2.813 2.41 0 1.55.861 2.527 5.512 4.134 5.799 1.895 7.923 4.823 7.923 8.785 0 5.052-3.847 8.842-10.622 8.842-7.004 0-10.334-3.675-10.621-9.014h6.947c.172 2.182 1.32 3.732 3.846 3.732a2.93 2.93 0 003.158-2.928c0-1.895-1.32-3.043-5.454-4.42-5.168-1.666-7.866-4.25-7.866-8.556 0-4.937 4.02-8.21 9.933-8.21 6.086 0 9.473 3.502 10.047 8.325h-6.832zm-210.924 6.143c.016.69-.022 1.382-.114 2.067h-20.44a7.181 7.181 0 007.12 7.062 6.282 6.282 0 005.511-2.871l6.394 2.327c-2.149 3.588-5.973 6.343-11.963 6.343-8.21 0-14.64-5.971-14.64-14.928 0-7.866 5.167-14.468 14.124-14.468 9.07 0 14.008 6.774 14.008 14.468zm-20.497-3.216h12.861a6.459 6.459 0 00-12.86 0zM3.292 17.817h13.52c8.095 0 13.55 3.273 13.55 9.876 0 4.364-3.158 7.292-7.005 8.21v.115c5.971.804 9.072 5.053 9.072 9.703 0 7.234-5.857 11.253-13.665 11.253H3.292V17.818zm13.118 6.144h-5.367v9.474h5.655c3.847 0 5.569-1.895 5.569-4.938 0-2.928-2.183-4.536-5.857-4.536zm1.206 15.502h-6.573v11.31h6.917c4.02 0 6.2-2.124 6.2-5.74 0-3.274-2.353-5.57-6.544-5.57z"/><g><path class="st2" d="M425.72 67.109h-1.807v-.652h4.393v.652h-1.811v5.284h-.775v-5.284zM434.855 69.785c-.043-.828-.094-1.822-.086-2.562h-.025a37.173 37.173 0 01-.75 2.254l-1.049 2.881h-.58l-.96-2.827a26.37 26.37 0 01-.689-2.308h-.017c-.017.74-.06 1.734-.116 2.624l-.155 2.546h-.732l.413-5.936h.977l1.016 2.87c.245.731.447 1.383.598 2h.026c.15-.6.361-1.252.623-2l1.059-2.87h.977l.37 5.936h-.749l-.15-2.608z"/></g></g></switch></svg>