<svg id="Layer_1" data-name="Layer 1" xmlns="http://www.w3.org/2000/svg" viewBox="0 0 501.3 166.5"><defs><style>.cls-1{fill:#fff;}.cls-2{fill:#939598;}.cls-3{fill:#c7c8ca;}</style></defs><title>EECS-night</title><path id="path10" class="cls-1" d="M170.2,162.2h-8.4v6.5h9.4V172H157.8V149.8h12.9v3.3h-8.9v5.7h8.4Z" transform="translate(-29.2 -45.6)"/><path id="path12" class="cls-1" d="M174.7,149.8h4.1v18.8h9.1V172H174.7V149.8Z" transform="translate(-29.2 -45.6)"/><path id="path14" class="cls-1" d="M203.4,162.2H195v6.5h9.4V172H191V149.8h12.9v3.3H195v5.7h8.4Z" transform="translate(-29.2 -45.6)"/><path id="path16" class="cls-1" d="M223.9,171.4a14,14,0,0,1-5.7,1c-7.1,0-11.4-4.4-11.4-11.2,0-7.3,5.1-11.8,11.9-11.8a12.37,12.37,0,0,1,5.4,1l-.9,3.2a11.17,11.17,0,0,0-4.4-.9c-4.5,0-7.8,2.8-7.8,8.2,0,4.9,2.9,8,7.8,8a13.17,13.17,0,0,0,4.4-.8Z" transform="translate(-29.2 -45.6)"/><path id="path18" class="cls-1" d="M232.3,153.2H226v-3.4h16.8v3.4h-6.4V172h-4.1Z" transform="translate(-29.2 -45.6)"/><path id="path20" class="cls-1" d="M245.4,150.1a41.82,41.82,0,0,1,6.1-.5c3.2,0,5.4.5,6.9,1.8a5.51,5.51,0,0,1,1.9,4.5,5.92,5.92,0,0,1-4,5.6v.1c1.6.6,2.5,2.1,3.1,4.3a33.8,33.8,0,0,0,1.8,6.2H257a46.08,46.08,0,0,1-1.5-5.3c-.6-2.9-1.7-3.8-4-3.9h-2V172h-4Zm4,9.8h2.4c2.7,0,4.5-1.5,4.5-3.7,0-2.4-1.7-3.6-4.4-3.6a10.55,10.55,0,0,0-2.5.2Z" transform="translate(-29.2 -45.6)"/><path id="path22" class="cls-1" d="M268.2,149.8V172h-4.1V149.8Z" transform="translate(-29.2 -45.6)"/><path id="path24" class="cls-1" d="M288.8,171.4a14,14,0,0,1-5.7,1c-7.1,0-11.4-4.4-11.4-11.2,0-7.3,5.1-11.8,11.9-11.8a12.37,12.37,0,0,1,5.4,1l-.9,3.2a11.17,11.17,0,0,0-4.4-.9c-4.5,0-7.8,2.8-7.8,8.2,0,4.9,2.9,8,7.8,8a13.17,13.17,0,0,0,4.4-.8Z" transform="translate(-29.2 -45.6)"/><path id="path26" class="cls-1" d="M297,165.7l-2,6.3h-4.2l7.1-22.2h5.2l7.2,22.2H306l-2-6.3Zm6.3-3-1.7-5.5c-.4-1.4-.8-2.9-1.1-4.2h-.1c-.3,1.3-.7,2.8-1.1,4.2l-1.7,5.5Z" transform="translate(-29.2 -45.6)"/><path id="path28" class="cls-1" d="M313.5,149.8h4.1v18.8h9.1V172H313.5Z" transform="translate(-29.2 -45.6)"/><path id="path30" class="cls-1" d="M349,162.2h-8.4v6.5H350V172H336.6V149.8h12.9v3.3h-8.9v5.7H349Z" transform="translate(-29.2 -45.6)"/><path id="path32" class="cls-1" d="M353.6,172V149.8h4.7l5.8,9.5a65.88,65.88,0,0,1,3.8,7.5h.1a89.11,89.11,0,0,1-.4-9.2v-7.8h3.8V172H367l-5.8-9.8a80.41,80.41,0,0,1-4-7.7h-.1c.2,2.9.2,5.8.2,9.5v8Z" transform="translate(-29.2 -45.6)"/><path id="path34" class="cls-1" d="M393.7,171a24.77,24.77,0,0,1-7.2,1.3c-3.8,0-6.6-1-8.7-3a11.23,11.23,0,0,1-3.1-8.2c0-7,5-11.6,12.4-11.6a13.46,13.46,0,0,1,5.9,1.1l-.9,3.3a12.41,12.41,0,0,0-5-1c-4.8,0-8.1,2.8-8.1,8s3.1,8,7.7,8a6.75,6.75,0,0,0,3.1-.5v-5.5h-3.9v-3.2h7.9Z" transform="translate(-29.2 -45.6)"/><path id="path36" class="cls-1" d="M401.9,149.8V172h-4.1V149.8Z" transform="translate(-29.2 -45.6)"/><path id="path38" class="cls-1" d="M406.6,172V149.8h4.7l5.7,9.5a65.88,65.88,0,0,1,3.8,7.5h.1a89.11,89.11,0,0,1-.4-9.2v-7.8h3.8V172h-4.2l-5.8-9.8a80.41,80.41,0,0,1-4-7.7h-.1c.2,2.9.2,5.8.2,9.5v8Z" transform="translate(-29.2 -45.6)"/><path id="path40" class="cls-1" d="M441.3,162.2H433v6.5h9.4V172H429V149.8h12.9v3.3H433v5.7h8.4v3.4Z" transform="translate(-29.2 -45.6)"/><path id="path42" class="cls-1" d="M458.3,162.2h-8.4v6.5h9.4V172H445.9V149.8h12.9v3.3h-8.9v5.7h8.4Z" transform="translate(-29.2 -45.6)"/><path id="path44" class="cls-1" d="M462.9,150.1a41.82,41.82,0,0,1,6.1-.5c3.2,0,5.4.5,6.9,1.8a5.51,5.51,0,0,1,1.9,4.5,5.92,5.92,0,0,1-4,5.6v.1c1.6.6,2.5,2.1,3.1,4.3a33.8,33.8,0,0,0,1.8,6.2h-4.2a46.08,46.08,0,0,1-1.5-5.3c-.6-2.9-1.7-3.8-4-3.9h-2V172h-4Zm4,9.8h2.4c2.7,0,4.5-1.5,4.5-3.7,0-2.4-1.7-3.6-4.4-3.6a10.55,10.55,0,0,0-2.5.2Z" transform="translate(-29.2 -45.6)"/><path id="path46" class="cls-1" d="M485.7,149.8V172h-4.1V149.8Z" transform="translate(-29.2 -45.6)"/><path id="path48" class="cls-1" d="M490.4,172V149.8H495l5.7,9.5a65.88,65.88,0,0,1,3.8,7.5h.1a89.11,89.11,0,0,1-.4-9.2v-7.8H508V172h-4.2l-5.8-9.8a80.41,80.41,0,0,1-4-7.7h-.1c.2,2.9.2,5.8.2,9.5v8Z" transform="translate(-29.2 -45.6)"/><path id="path50" class="cls-1" d="M530.5,171a24.77,24.77,0,0,1-7.2,1.3c-3.8,0-6.6-1-8.7-3a11.23,11.23,0,0,1-3.1-8.2c0-7,5-11.6,12.4-11.6a13.46,13.46,0,0,1,5.9,1.1l-.9,3.3a12.41,12.41,0,0,0-5-1c-4.8,0-8.1,2.8-8.1,8s3.1,8,7.7,8a6.75,6.75,0,0,0,3.1-.5v-5.5h-4v-3.2h7.8V171Z" transform="translate(-29.2 -45.6)"/><path id="path52" class="cls-1" d="M162.2,205.3l-1.9,6.3h-4.2l7.2-22.3h5.2l7.2,22.3h-4.4l-2-6.3Zm6.4-3-1.8-5.5c-.4-1.4-.8-2.9-1.1-4.2h-.1c-.3,1.3-.7,2.8-1.1,4.2l-1.7,5.5Z" transform="translate(-29.2 -45.6)"/><path id="path54" class="cls-1" d="M178.7,211.6V189.3h4.6l5.7,9.5a65.88,65.88,0,0,1,3.8,7.5h.1a89.11,89.11,0,0,1-.4-9.2v-7.8h3.8v22.3h-4.2l-5.8-9.8a80.41,80.41,0,0,1-4-7.7h-.1c.2,2.9.2,5.8.2,9.5v8Z" transform="translate(-29.2 -45.6)"/><path id="path56" class="cls-1" d="M201,189.7a46.23,46.23,0,0,1,6.5-.5c4.2,0,7,.9,9.1,2.6s3.5,4.4,3.5,8.2a11.39,11.39,0,0,1-3.5,8.8c-2.1,1.9-5.7,3-10.1,3a50.68,50.68,0,0,1-5.5-.3Zm4.1,18.8a17,17,0,0,0,2.3.1c5.3,0,8.4-2.9,8.4-8.5,0-4.9-2.8-7.7-7.9-7.7a26.35,26.35,0,0,0-2.8.2Z" transform="translate(-29.2 -45.6)"/><path id="path58" class="cls-1" d="M246.3,211a14.19,14.19,0,0,1-5.8,1c-7.1,0-11.4-4.4-11.4-11.2,0-7.3,5.1-11.8,11.9-11.8a12.37,12.37,0,0,1,5.4,1l-.9,3.2a11.17,11.17,0,0,0-4.4-.9c-4.5,0-7.8,2.8-7.8,8.2,0,4.9,2.9,8,7.8,8a13.17,13.17,0,0,0,4.4-.8Z" transform="translate(-29.2 -45.6)"/><path id="path60" class="cls-1" d="M268.7,200.3c0,7.5-4.5,11.7-10.7,11.7s-10.2-4.8-10.2-11.3c0-6.8,4.3-11.6,10.6-11.6C264.9,189,268.7,193.9,268.7,200.3Zm-16.6.3c0,4.5,2.3,8.1,6.2,8.1s6.1-3.6,6.1-8.3c0-4.2-2.1-8.1-6.1-8.1s-6.2,3.7-6.2,8.3Z" transform="translate(-29.2 -45.6)"/><path id="path62" class="cls-1" d="M291,202.5c-.1-2.9-.3-6.3-.3-9.3h-.1c-.7,2.7-1.6,5.7-2.6,8.5l-3.2,9.6h-3.1l-3-9.5c-.9-2.8-1.6-5.9-2.3-8.6h-.1c-.1,2.9-.2,6.4-.4,9.5l-.5,8.9h-3.8l1.5-22.3h5.3l2.9,9c.8,2.6,1.5,5.3,2,7.7h.1c.6-2.4,1.4-5.1,2.2-7.8l3.1-8.9H294l1.3,22.3h-4Z" transform="translate(-29.2 -45.6)"/><path id="path64" class="cls-1" d="M299.5,189.7a43.18,43.18,0,0,1,6.2-.5c3,0,5.1.6,6.6,1.8a6.44,6.44,0,0,1,2.2,4.9,6.55,6.55,0,0,1-1.9,5,9.92,9.92,0,0,1-7,2.4,13.4,13.4,0,0,1-2-.1v8.4h-4Zm4,10.3a13.55,13.55,0,0,0,2,.2c3,0,4.9-1.5,4.9-4.1s-1.7-3.8-4.5-3.8a16.41,16.41,0,0,0-2.3.2Z" transform="translate(-29.2 -45.6)"/><path id="path66" class="cls-1" d="M321.9,189.4v13c0,4.4,1.8,6.4,4.5,6.4,2.9,0,4.7-2,4.7-6.4v-13h4.1v12.7c0,6.9-3.5,9.9-8.9,9.9-5.1,0-8.5-2.9-8.5-9.9V189.4Z" transform="translate(-29.2 -45.6)"/><path id="path68" class="cls-1" d="M344.1,192.8h-6.3v-3.4h16.8v3.4h-6.4v18.9h-4.1Z" transform="translate(-29.2 -45.6)"/><path id="path70" class="cls-1" d="M369.7,201.8h-8.4v6.5h9.4v3.3H357.3V189.3h12.9v3.3h-8.9v5.7h8.4Z" transform="translate(-29.2 -45.6)"/><path id="path72" class="cls-1" d="M374.2,189.7a41.82,41.82,0,0,1,6.1-.5c3.2,0,5.4.5,6.9,1.8a5.51,5.51,0,0,1,1.9,4.5,5.92,5.92,0,0,1-4,5.6v.1c1.6.6,2.5,2.1,3.1,4.3a33.8,33.8,0,0,0,1.8,6.2h-4.2a46.08,46.08,0,0,1-1.5-5.3c-.6-2.9-1.7-3.8-4-3.9h-2.1v9.1h-4V189.7Zm4,9.8h2.4c2.7,0,4.5-1.5,4.5-3.7,0-2.4-1.7-3.6-4.4-3.6a10.55,10.55,0,0,0-2.5.2Z" transform="translate(-29.2 -45.6)"/><path id="path74" class="cls-1" d="M399.7,207.2a11.14,11.14,0,0,0,5.4,1.4c2.6,0,4.1-1.2,4.1-3s-1.1-2.7-4-3.7c-3.7-1.3-6-3.3-6-6.5,0-3.6,3-6.4,7.9-6.4a12.74,12.74,0,0,1,5.4,1.1l-1,3.3a8.61,8.61,0,0,0-4.4-1c-2.6,0-3.7,1.4-3.7,2.7,0,1.7,1.3,2.5,4.3,3.7,3.9,1.5,5.7,3.4,5.7,6.6,0,3.6-2.7,6.7-8.5,6.7a13.9,13.9,0,0,1-6-1.4Z" transform="translate(-29.2 -45.6)"/><path id="path76" class="cls-1" d="M432.9,211a14,14,0,0,1-5.7,1c-7.1,0-11.4-4.4-11.4-11.2,0-7.3,5.1-11.8,11.9-11.8a12.37,12.37,0,0,1,5.4,1l-.9,3.2a11.17,11.17,0,0,0-4.4-.9c-4.5,0-7.8,2.8-7.8,8.2,0,4.9,2.9,8,7.8,8a13.17,13.17,0,0,0,4.4-.8Z" transform="translate(-29.2 -45.6)"/><path id="path78" class="cls-1" d="M440.4,189.4v22.3h-4.1V189.4Z" transform="translate(-29.2 -45.6)"/><path id="path80" class="cls-1" d="M457.5,201.8h-8.4v6.5h9.4v3.3H445.1V189.3H458v3.3h-8.9v5.7h8.4Z" transform="translate(-29.2 -45.6)"/><path id="path82" class="cls-1" d="M462.1,211.6V189.3h4.6l5.8,9.5a65.88,65.88,0,0,1,3.8,7.5h0a89.11,89.11,0,0,1-.4-9.2v-7.8h3.8v22.3h-4.2l-5.8-9.8a80.41,80.41,0,0,1-4-7.7h-.1c.2,2.9.2,5.8.2,9.5v8Z" transform="translate(-29.2 -45.6)"/><path id="path84" class="cls-1" d="M500.3,211a14,14,0,0,1-5.7,1c-7.1,0-11.4-4.4-11.4-11.2,0-7.3,5.1-11.8,11.9-11.8a12.37,12.37,0,0,1,5.4,1l-.9,3.2a11.17,11.17,0,0,0-4.4-.9c-4.5,0-7.8,2.8-7.8,8.2,0,4.9,2.9,8,7.8,8a13.17,13.17,0,0,0,4.4-.8Z" transform="translate(-29.2 -45.6)"/><path id="path86" class="cls-1" d="M516.2,201.8h-8.4v6.5h9.4v3.3H503.7V189.3h12.9v3.3h-8.9v5.7h8.4v3.5Z" transform="translate(-29.2 -45.6)"/><path id="path4-7" class="cls-1" d="M79.5,45.6c-4,0-8,.1-12.1.4a143.62,143.62,0,0,0-37.2,7.4c-.9.3-1,.7-1,1.5V88.5a56.73,56.73,0,0,0,4,21.6,51.87,51.87,0,0,0,3.3,6.7c3.9,5.6,8.6,10.7,15.5,18.6,1.1,1,2.1,2.1,3.3,3.1A144.09,144.09,0,0,0,75,152.6a34.71,34.71,0,0,0,3.7,2.1c6.6-3.8,13.4-8,18.2-12,7.8-6,14.9-12.6,20.6-20.7,6.4-9.2,10.3-19.3,10.5-30.5.3-12.3.1-24.7.1-37.1a.81.81,0,0,0-.7-.9,133.3,133.3,0,0,0-27.9-6.6,167.87,167.87,0,0,0-20-1.3Z" transform="translate(-29.2 -45.6)"/><path id="path4" class="cls-2" d="M79.4,49.6c-3.7,0-7.4.1-11.2.4a134.54,134.54,0,0,0-34.4,6.8c-.8.3-.9.6-.9,1.4V89.3a52.58,52.58,0,0,0,3.7,20,44.82,44.82,0,0,0,3.1,6.2,14.48,14.48,0,0,1,1.7-5.2,13.35,13.35,0,0,0,1.4-9.6c-.4-2.2-.8-4.4,0-6.6,2-5.8,5.4-10.8,9.2-15.6.6-.6,1-.4,1.4.2.2.3.4.7.9.5s.2-.7.2-1c0-.1-.1-.3-.1-.4a22.78,22.78,0,0,1-.6-8.2c.3-3,2.5-4.7,4.7-6.3a2.5,2.5,0,0,1,3.4.4,24.35,24.35,0,0,1,3.4,3.8c.9,1.4,2,1.6,3.6,1.5,7.4-.1,14.7.2,21.7,3,.2.1.6.3.8.1s-.1-.5-.2-.7c-.3-.4-.3-.8.2-1a23.22,23.22,0,0,1,6.7-2.8c2-.4,2.7.1,3.7,1.8a8.81,8.81,0,0,1,.2,8.2c-.3.8-1.2,1.5-1,2.2s1,1.4,1.6,2a4,4,0,0,1,1,4.2c-.2.6-.2,1.4-1,1.3s-.6-.9-.6-1.4a4.72,4.72,0,0,0-5.4-4.5c-2.3.4-3.9,2.6-3.1,4.5.7,1.4,1.4,2.8,2.2,4.2.6,1.1,2.8,1.2,3.7.1a2.54,2.54,0,0,1-2.3-.9,16.92,16.92,0,0,1-1.7-2.9.62.62,0,0,1,.2-.7,3.35,3.35,0,0,1,3.9-.6,2.6,2.6,0,0,1,1,3.4c-.4.9,0,1.1.7,1.2a2,2,0,0,1,1.8,1.5,11,11,0,0,1,.6,8.9,10.76,10.76,0,0,0-.7,3.1,9.44,9.44,0,0,1,.6,6.8c-.7,2.2-2.3,3.7-3.6,5.5a1.79,1.79,0,0,1-1.4.4c-1.9-.2-3.5-.9-4-3a1.42,1.42,0,0,1-.2-.6c-.4-.9-.9-.9-1.5-.2-.2.2-.4.6-.6.8a4.85,4.85,0,0,1-3.2,2.2c-2,.4-4,.9-6,1.4a6.62,6.62,0,0,1-2.8.1,5,5,0,0,1-2-.4c-2.3-1.7-4.3-3.7-4.9-6.7a25.49,25.49,0,0,1-.2-3.9c-.1-.4-.3-1.1-.8-1.2s-.6.7-.7,1.1l-.6,3.3a1.44,1.44,0,0,1-1.5,1.2c-2.4-.7-5-1.6-7.4-2.4a4.46,4.46,0,0,1-3.2-2.9c-.2-.7-.6-1.4-.9-2.2-.1-.3-.2-1-.7-.9s-.7,0-.7,1c-.1,1.2-.3,2.5-.4,3.8a10.6,10.6,0,0,1-2.8,5.7,12.26,12.26,0,0,0-3.1,5.7,21.72,21.72,0,0,0-.3,4.4v.7a12.65,12.65,0,0,0,4.3,10c1,.9,2,1.9,3,2.8a144.45,144.45,0,0,0,18.2,13.1,30.11,30.11,0,0,0,3.4,2c-.1-2.9-.1-6,1-8.8a11.05,11.05,0,0,1,2.2-3.4c1.8-2,3.7-3.9,5.7-5.8a7.05,7.05,0,0,1,.9-.7c.2-.2.6-.6,1-.3s.4.6.3,1a11.14,11.14,0,0,0,.8,3,6.44,6.44,0,0,0,3.8,4.1,1.29,1.29,0,0,0,1.2-.1,86.52,86.52,0,0,0,19-19.2c6-8.5,9.5-17.9,9.7-28.3.2-11.4.1-22.9.1-34.3,0-.6-.2-.7-.7-.9A126.78,126.78,0,0,0,98,51a145.53,145.53,0,0,0-18.6-1.4ZM58.8,65.8c-.5.1-.8.2-1,.5a6.19,6.19,0,0,0-2,3.7A14.27,14.27,0,0,0,58,79c.9,1.4,1.6,1.4,2.6.2a15.85,15.85,0,0,1,3.2-2.6c1.2-.7,1.2-1,.5-2.2-1.4-2.2-2.6-4.4-3.8-6.6a3.36,3.36,0,0,0-1-1.6,1.27,1.27,0,0,0-.7-.4Zm40.8,4.5a.86.86,0,0,0-.6.3,20,20,0,0,0-3.5,4.2.67.67,0,0,0,.2,1.1,20.14,20.14,0,0,1,2.9,2.2c.4.3.6.2.7-.1a9.56,9.56,0,0,0,1.6-5,5.37,5.37,0,0,0-.5-2.1C100.1,70.5,99.9,70.3,99.6,70.3ZM77.7,80.4h-.6a10.12,10.12,0,0,0-8.8,6.9c-.4,1.5.1,2.1,1.7,1.8a1.7,1.7,0,0,1,.7-.1,1.27,1.27,0,0,1,1.5.4,5.56,5.56,0,0,0,4.3,1.3c.3,0,.7,0,.7-.4s-.4-.4-.6-.4a4.85,4.85,0,0,1-2.7-2,1.35,1.35,0,0,1,0-1.7A4.45,4.45,0,0,1,77.8,84a3.87,3.87,0,0,1,3.7,2.1c.7,1.3,0,2.2-.8,3a.52.52,0,0,0-.2.4c.1.2.3.2.5.1a1.42,1.42,0,0,0,.6-.2,5.53,5.53,0,0,0,2.7-5.2l-.2-.4a8,8,0,0,0-6.4-3.4ZM95,100.8a19.89,19.89,0,0,0-4.8.7,5.13,5.13,0,0,0-2.2,2.4c.2.6.8.4,1.4.6a18.57,18.57,0,0,1,3.4.6c1,.4,1.4.9,1.2,2-.1.6-.4,1.3-.5,1.9-.1.3-.2.7.1.9s.6,0,.9-.2a4.28,4.28,0,0,0,1.5-1.8,4,4,0,0,1,3.9-3.1,1.41,1.41,0,0,0,1.4-1.7c-.1-1.1-.3-1.5-1.4-1.8a20.4,20.4,0,0,0-4.9-.5Zm-2.4,15.9a8.33,8.33,0,0,1,2.2.3c.8.2,1.7.4,2,1.3a2,2,0,0,1-1,2,7.24,7.24,0,0,1-5.2,2H88.3a18.89,18.89,0,0,1-4.7-.3,7.84,7.84,0,0,1-1.4-.5,1.74,1.74,0,0,1-1.1-1.5c0-.7.6-1,1.1-1.3a21.41,21.41,0,0,1,6.6-1.7A24.33,24.33,0,0,1,92.6,116.7Z" transform="translate(-29.2 -45.6)"/><path id="path8" class="cls-3" d="M84.2,84.4a5.05,5.05,0,0,1-2.6,5.1,1.78,1.78,0,0,1,2,1.3,9.25,9.25,0,0,1,.5,1c1,2.8,2.2,5.5,3.1,8.3a5.34,5.34,0,0,1,.2,2.2A1.47,1.47,0,0,0,88,104a4.3,4.3,0,0,1,2.2-2.4c.6-.8,1.2-1.5.7-2.6a129.74,129.74,0,0,0-5.7-13.3c-.1-.5-.3-1.2-1-1.3ZM55.2,86H55a1.09,1.09,0,0,0-.9,1.2,6.69,6.69,0,0,0,0,2,80.6,80.6,0,0,1,.4,8.5,8,8,0,0,1-1.3,4.2c-.9,1.1-1.6,2.3-2.5,3.3a8.5,8.5,0,0,0-2.3,6.8l.9,7.8c.1.7,0,1.5.6,2.1a32.7,32.7,0,0,1,.4-4.4,16.36,16.36,0,0,1,3.3-5.7,10.31,10.31,0,0,0,2.6-5.7c.1-1.2.3-2.5.4-3.8,0-.3,0-.7.4-.8s.6.4.7.7a14.46,14.46,0,0,1,.9,2.2,4.32,4.32,0,0,0,3.1,2.9c2.3.8,4.7,1.6,7.1,2.3,1.4.4,1.9.1,2.2-1.2.3-1.1.4-2.2.6-3.3.1-.4.1-.9.7-.9s.6.6.6,1c.1,1.3,0,2.6.2,3.9.6,2.9,2.5,5,4.9,6.7a3.34,3.34,0,0,0,2.2.6,2.77,2.77,0,0,1-1.1-2.4,10.56,10.56,0,0,1,.7-4.7,5.32,5.32,0,0,0,.5-3.5,49.7,49.7,0,0,0-2.2-6.5,3.58,3.58,0,0,0-2.8-2.1c-3.8-.6-7.7-1.2-11.6-1.7-2.8-.4-4.9-1.7-5.8-4.4-.5-1.5-1-2.9-1.5-4.3a1.21,1.21,0,0,0-1.2-.8Zm47.9,5.2c.3,2.1-.7,3.3-2.6,4-.1.1-.2.1-.2.2-.9.6-1.1,1.1-.6,2.1,1,2,2.2,3.9,3.3,5.7.2-1,.4-2.1.7-3.1a11.92,11.92,0,0,0-.6-8.9ZM89,131.4a1,1,0,0,0-.7.4c-.3.2-.6.5-.9.7-1.9,2-3.8,3.9-5.7,5.8a11.05,11.05,0,0,0-2.2,3.4c-1.1,2.8-.9,6-.8,9,.3-.1.6-.3.9-.4,3.3-2,5.9-3.6,9.1-5.7.4-.2.5-1,.4-1.5-.9-3.6-.4-7.1.4-10.6a.81.81,0,0,0-.3-1C89.2,131.4,89.1,131.4,89,131.4Z" transform="translate(-29.2 -45.6)"/><path id="path6" class="cls-1" d="M271.5,83.3V80c0-.6.1-.8.8-.8,1.4.1,2.8,0,4.1,0,.5,0,.7.1.7.6a24.32,24.32,0,0,0,0,2.7c0,.4.1.7.5.8a19.63,19.63,0,0,0,6.4.6c2.5-.3,3.7-1.8,3.5-4.1a3.73,3.73,0,0,0-1.9-2.8,17.84,17.84,0,0,0-4.9-1.7c-1.3-.4-2.6-.8-3.8-1.3-4.1-1.8-5.3-4.8-5.1-8.8.3-4.7,3-7.4,8.2-8.1a27.21,27.21,0,0,1,12.3,1.1c.6.2.9.4.9,1.1a56.1,56.1,0,0,0,0,5.8c0,.6-.2.8-.8.8a28.05,28.05,0,0,0-4.1,0c-.6,0-.8-.2-.8-.8a20.83,20.83,0,0,0,0-2.5c0-.3,0-.6-.4-.6a9.57,9.57,0,0,0-5.8-.3,3.57,3.57,0,0,0-2.8,3.3,3.39,3.39,0,0,0,2.5,3.5c1.8.6,3.6,1,5.5,1.6a11.87,11.87,0,0,1,5.7,3.1c4.1,4.5,2.2,12.5-3.6,14.7a19.71,19.71,0,0,1-7.2,1.1,38.41,38.41,0,0,1-9-1.4.94.94,0,0,1-.8-1.1c0-1-.1-2.1-.1-3.2Z" transform="translate(-29.2 -45.6)"/><path id="path10-4" class="cls-1" d="M160.2,73V62.9c0-.6-.1-.9-.8-.9s-1.7.3-2.1-.1-.1-1.4-.1-2.3c0-2.1,0-2.1,2.1-2.1,4.5,0,8.9-.1,13.4.1,3.1.1,6,.9,8,3.4,4.7,5.5,1.7,13.6-5.5,15.2a37.15,37.15,0,0,1-7.4.4c-.8,0-1.1.2-1,1a54.19,54.19,0,0,1,0,5.7c0,.6.2.8.7.7h.1c2.2.1,2.2.1,2.2,2.3s0,2.3-2.3,2.3H158c-.7,0-.9-.2-.9-.9a14,14,0,0,0,0-2.9c-.1-.7.3-.8.8-.8s.9-.1,1.4,0c.7.1.8-.3.8-.9.1-3.3.1-6.7.1-10.1Zm6.5-5.9v4.3c0,.4.1.7.6.7,1.3-.1,2.6.1,3.9,0,3-.2,4.8-1.9,4.9-4.7s-1.4-4.9-4.4-5.2a33.81,33.81,0,0,0-4.5-.1c-.5,0-.4.3-.4.6-.1,1.5-.1,2.9-.1,4.4Z" transform="translate(-29.2 -45.6)"/><path id="path12-9" class="cls-1" d="M218.3,68.5c3.3-4.7,10.1-4.3,13.1-1.6a8.61,8.61,0,0,1,3,6.3c.1,3.3.1,6.6.1,9.9,0,.8.1,1.1,1,1.1,1.7-.1,1.7,0,1.7,1.7,0,.9.3,2.1-.1,2.6s-1.8.2-2.7.2h-7.7c-.6,0-.9-.1-.8-.8a15,15,0,0,0,0-3c-.1-.6.2-.8.8-.8,1.8,0,1.8-.1,1.8-1.8V75.1c0-4.4-3.5-5.5-6.4-4.7a4,4,0,0,0-2.9,3.7c-.2,3.1-.1,6.2-.1,9.3,0,.5.2.6.6.6.6,0,1.4-.3,1.9.1s.1,1.3.1,1.9c0,.8.3,1.8-.1,2.3s-1.5.2-2.3.2h-8.1c-.6,0-.8-.1-.8-.8a16.05,16.05,0,0,0,0-3.1c0-.6.2-.7.8-.7,1.8-.1,1.8-.1,1.8-1.8V70.7c0-.7-.2-.9-.9-.9-2.1,0-2.1,0-2.1-2.1,0-2.4,0-2.4,2.4-2.4h5.4c.6,0,.8.1.8.7a5.24,5.24,0,0,0-.3,2.5Z" transform="translate(-29.2 -45.6)"/><path id="path14-9" class="cls-1" d="M248.6,68.5a9.05,9.05,0,0,1,9-3.5,8.11,8.11,0,0,1,7,8.1c.1,3.3.1,6.6.1,9.9,0,.8.2,1.1,1,1.1,1.7-.1,1.7,0,1.7,1.7,0,.9.3,2.1-.2,2.6s-1.8.2-2.7.2h-7.7c-.6,0-.9-.1-.8-.8a15,15,0,0,0,0-3c-.1-.6.3-.8.8-.8,1.8,0,1.8-.1,1.8-1.8V75.1c0-3.8-2.6-5.8-6.3-4.8a3.82,3.82,0,0,0-3,3.5c-.3,3.2-.1,6.5-.1,9.7,0,.5.3.4.6.5.6.1,1.4-.3,1.9.1s.1,1.3.1,1.9c0,2.4,0,2.4-2.4,2.4h-8.1c-.7,0-.9-.2-.9-.9a14,14,0,0,0,0-2.9c0-.6.1-.8.8-.8,1.8,0,1.8-.1,1.8-1.8V70.6c0-.7-.2-.9-.9-.9-2.1,0-2.1,0-2.1-2.1,0-.8-.4-1.8.2-2.2s1.4-.1,2.3-.1h5.3c.6,0,.8.2.8.8a6.45,6.45,0,0,0,0,2.4Z" transform="translate(-29.2 -45.6)"/><path id="path16-5" class="cls-1" d="M330,85.5c-3.2,3.6-7.6,4.7-11.5,2.8a6.61,6.61,0,0,1-.7-11.4,13.5,13.5,0,0,1,6.2-1.8c1.6-.1,3.1-.1,4.7-.1.5,0,.8-.1.8-.7a9.15,9.15,0,0,1-.1-1.6,3.5,3.5,0,0,0-3-3.1,9.75,9.75,0,0,0-4.8.4c-.4.1-.6.3-.5.7v.2c-.1.8.3,1.8-.1,2.3s-1.5.1-2.3.2a12.05,12.05,0,0,1-1.9,0c-.5,0-.7-.2-.6-.7V67.9a.81.81,0,0,1,.4-.8c4.3-2.1,8.8-2.9,13.5-1.4,3.6,1.2,5.4,4,5.5,8.3v9.1c0,.8.2,1,.9.9,1.4-.1,1.4,0,1.4,1.4v2.5c0,.5-.2.6-.7.6H331c-.6,0-.7-.2-.7-.8a6.87,6.87,0,0,1-.3-2.2Zm-5.6-.9a5.23,5.23,0,0,0,5-5.4c0-.3-.1-.4-.4-.4-2.1.1-4.3-.1-6.3.7a2.54,2.54,0,0,0-.9,4.2,3.46,3.46,0,0,0,2.6.9Z" transform="translate(-29.2 -45.6)"/><path id="path18-5" class="cls-1" d="M198.9,78.4h-7.3c-.8,0-.9.3-.8.9a6.18,6.18,0,0,0,5.3,4.9,16.44,16.44,0,0,0,8.2-.9c.9-.3,1-.1,1,.7-.1,1,0,2.1,0,3.1,0,.4,0,.7-.4.8-4.7,1.5-9.4,1.9-14.1.1-4.2-1.6-6.2-5.1-6.6-9.4a13.57,13.57,0,0,1,1.6-8.4c2.4-4,6.2-5.5,10.7-5.3,6.7.3,9.7,5,10.3,10.8.1.8.6,1.9.1,2.5s-1.6.2-2.5.2Zm-3.5-4.3h4.1c.6,0,.7-.2.6-.7a4.55,4.55,0,0,0-4.7-4.3,4.63,4.63,0,0,0-4.7,4.4q-.15.6.6.6Z" transform="translate(-29.2 -45.6)"/><path id="path20-3" class="cls-1" d="M370.6,78.4h-7.3c-.6,0-.8.2-.7.8a6.06,6.06,0,0,0,5.3,5,16.65,16.65,0,0,0,8-.8c1.1-.4,1.1-.4,1.1.8v2.9c0,.4,0,.7-.4.8-4.7,1.5-9.5,1.9-14.2.1-4-1.6-5.9-4.8-6.4-8.9a13.57,13.57,0,0,1,1.9-9.4c2.5-3.8,6.2-5,10.4-4.8,6.2.3,9.2,4.4,10.1,9.7.2,1,.2,2,.3,3,.1.6-.1.8-.8.8Zm-3.4-4.3h4.1c.4,0,.8,0,.6-.6a6.42,6.42,0,0,0-1.1-3,5,5,0,0,0-5.3-1.2,4.89,4.89,0,0,0-2.9,4.2c-.1.6.3.4.6.4a26.14,26.14,0,0,0,4,.2Z" transform="translate(-29.2 -45.6)"/><path id="path22-6" class="cls-1" d="M299.9,76.7v-6c0-.6-.1-.9-.8-.8H299c-.8-.1-1.8.3-2.1-.2s-.1-1.4-.1-2.1c0-2.2,0-2.2,2.2-2.2.8,0,1-.2.9-.9-.1-1.1,0-2.2,0-3.3,0-.6.2-.7.8-.7h4.8c.5,0,.7.1.6.6-.1,1.1.1,2.2,0,3.3-.1.8.3,1,1,1,1.4-.1,2.9,0,4.3-.1.7,0,.9.2.8.9a13.1,13.1,0,0,0,0,2.8c.1.6-.1.9-.8.9-1.6-.1-3.1,0-4.7,0-.4,0-.8-.1-.8.5.1,3.6-.2,7.3.1,10.9.2,2.1,1.2,3,3.3,3a9.86,9.86,0,0,0,2.4-.3c.6-.1.7.1.6.6v3.2c0,.3.1.5-.3.6-2.9.6-5.8,1.2-8.6-.1-2.6-1.1-3.6-3.2-3.7-5.9a53.34,53.34,0,0,0,.2-5.7Z" transform="translate(-29.2 -45.6)"/><path id="path24-7" class="cls-1" d="M341.8,76.8v-6c0-.6-.1-.9-.8-.9s-1.7.3-2.1-.1-.1-1.4-.1-2.1c0-2.2,0-2.3,2.3-2.2.6,0,.9-.1.9-.8-.1-1.1,0-2.3,0-3.5,0-.4.1-.6.6-.6h5c.6,0,.6.2.6.7v3.5c0,.6.2.8.8.8,1.6-.1,3.1,0,4.7,0,.6,0,.8.1.8.7a17.1,17.1,0,0,0,0,3.2c0,.5-.2.7-.7.6H349c-.4,0-.7-.1-.7.5.1,3.6-.2,7.4.1,11,.2,1.9,1.1,2.8,3.1,2.9a7.15,7.15,0,0,0,2.5-.3c.6-.1.7.1.7.6v3.1c0,.3,0,.6-.4.7a15.47,15.47,0,0,1-7.4.3,6.08,6.08,0,0,1-4.8-5.9,43.61,43.61,0,0,1-.3-6.2Z" transform="translate(-29.2 -45.6)"/><g id="layer1"><path id="rect1072" class="cls-1" d="M179.5,102.4l-.9,2.8c-10.4-3.4-14.6,2.8-14.6,9,0,7.1,4.9,12,14.4,8.7l1.1,2.8c-5.9,1.4-12.5,1.2-16-2.6-3.9-4.3-4.4-13.1-.2-17.4C167.3,101.2,170.5,100.6,179.5,102.4Z" transform="translate(-29.2 -45.6)"/><path id="path1075" class="cls-1" d="M190,108.2c-4.8,0-8.7,4.2-8.7,9.4h0c0,5.2,3.9,9.4,8.7,9.4h0c4.8,0,8.7-4.2,8.7-9.4S194.8,108.2,190,108.2Zm.1,2.5c3,0,5.5,3.1,5.5,6.9s-2.5,6.9-5.5,6.9-5.5-3.1-5.5-6.9h0c0-3.8,2.4-6.9,5.5-6.9Z" transform="translate(-29.2 -45.6)"/><rect id="rect1080" class="cls-1" x="173.5" y="54.9" width="3.2" height="26.1"/><rect id="rect1080-4" class="cls-1" x="182.1" y="54.8" width="3.2" height="26.1"/><path id="path1097" class="cls-1" d="M226.4,108.2c-4.5,0-8.1,4.2-8.1,9.3s3.6,9.3,8.1,9.3c2.5,0,5.6-.4,6.8-1.2-.4-1.3-.4-1.3-.7-2.2a7.75,7.75,0,0,1-4.4.9c-4.7-.1-6.6-2.8-6.6-6.1h12.3c.8-8.4-4-9.9-7.4-10Zm.2,2.3a5.23,5.23,0,0,1,4.7,5.5h-9.4v-.2c-.1-3,2.1-5.4,4.7-5.3Z" transform="translate(-29.2 -45.6)"/><path id="path1122" class="cls-1" d="M244.7,108.3c-4.4,0-8,4.1-8,9.1s2.9,9.2,8,9.1a6.53,6.53,0,0,0,5.4-3.2,13.76,13.76,0,0,1-.4,4.9c-.7,2-2.5,3.4-5.7,3.4a8.91,8.91,0,0,1-5-1.4l-.7,2.5a10.63,10.63,0,0,0,5.9,1.9c4.5,0,8.3-2.8,8.6-6.3.4-6.4.2-12.8.4-19.3h-2.8v2.4A6.71,6.71,0,0,0,244.7,108.3Zm.5,2.6c3.7,0,4.8,2.9,4.8,6.5s-.9,6.4-4.8,6.4c-2.7,0-5.1-2.9-5.1-6.4S242.4,110.9,245.2,110.9Z" transform="translate(-29.2 -45.6)"/><path id="path1097-2" class="cls-1" d="M265.1,108.2c-4.5,0-8.1,4.2-8.1,9.3s3.6,9.3,8.1,9.3c2.5,0,5.6-.4,6.8-1.2-.4-1.3-.4-1.3-.7-2.2a7.75,7.75,0,0,1-4.4.9c-4.7-.1-6.6-2.8-6.6-6.1h12.3c.8-8.4-4-9.9-7.4-10Zm.2,2.3A5.23,5.23,0,0,1,270,116h-9.4v-.2c-.1-3,2.1-5.4,4.7-5.3Z" transform="translate(-29.2 -45.6)"/><path id="path1075-7" class="cls-1" d="M292,108.5c-4.8,0-8.7,4.2-8.7,9.4h0c0,5.2,3.9,9.4,8.7,9.4h0c4.8,0,8.7-4.2,8.7-9.4S296.8,108.5,292,108.5Zm.1,2.5c3,0,5.5,3.1,5.5,6.9s-2.5,6.9-5.5,6.9-5.5-3.1-5.5-6.9h0c0-3.8,2.5-6.9,5.5-6.9Z" transform="translate(-29.2 -45.6)"/><path id="path1122-8" class="cls-1" d="M494.1,108.2c-4.4,0-8,4.1-8,9.1s2.9,9.2,8,9.1a6.53,6.53,0,0,0,5.4-3.2,13.76,13.76,0,0,1-.4,4.9c-.7,2-2.5,3.4-5.7,3.4a8.91,8.91,0,0,1-5-1.4l-.7,2.5a10.63,10.63,0,0,0,5.9,1.9c4.5,0,8.3-2.8,8.6-6.3.4-6.4.2-12.8.4-19.3h-2.8v2.4A7,7,0,0,0,494.1,108.2Zm.5,2.6c3.7,0,4.8,2.9,4.8,6.5s-.9,6.4-4.8,6.4c-2.7,0-5.1-2.9-5.1-6.4S491.8,110.8,494.6,110.8Z" transform="translate(-29.2 -45.6)"/><path id="path1122-2" class="cls-1" d="M367.7,108.4c-4.4,0-8,4.1-8,9.1s2.9,9.2,8,9.1a6.53,6.53,0,0,0,5.4-3.2,13.76,13.76,0,0,1-.4,4.9c-.7,2-2.5,3.4-5.7,3.4a8.91,8.91,0,0,1-5-1.4l-.7,2.5a10.63,10.63,0,0,0,5.9,1.9c4.5,0,8.3-2.8,8.6-6.3.4-6.4.2-12.8.4-19.3h-2.8v2.4A6.71,6.71,0,0,0,367.7,108.4Zm.4,2.6c3.7,0,4.8,2.9,4.8,6.5s-.9,6.4-4.8,6.4c-2.7,0-5.1-2.9-5.1-6.4S365.4,111,368.1,111Z" transform="translate(-29.2 -45.6)"/><path id="path1097-2-0" class="cls-1" d="M416.6,108.1c-4.5,0-8.1,4.2-8.1,9.3s3.6,9.3,8.1,9.3c2.5,0,5.6-.4,6.8-1.2-.4-1.3-.4-1.3-.7-2.2a7.75,7.75,0,0,1-4.4.9c-4.7-.1-6.6-2.8-6.6-6.1H424c.7-8.4-4.1-9.9-7.4-10Zm.1,2.3a5.23,5.23,0,0,1,4.7,5.5H412v-.2c0-2.9,2.1-5.3,4.7-5.3Z" transform="translate(-29.2 -45.6)"/><path id="rect1249" class="cls-1" d="M306.3,102.3c1.7-2,4.3-2.6,7.5-1.9l-.1,2.6c-5.5-1.5-5.5,2.7-5.5,5.8h4.3v2.4h-4.3l.1,15.2h-3.5l.2-15.2h-2.4v-2.6h2.3a10.83,10.83,0,0,1,1.4-6.3Z" transform="translate(-29.2 -45.6)"/><path id="rect1252" class="cls-1" d="M322.9,101.8v24.9h13.9v-3H326.4v-8.6h9.4v-2.9h-9.6v-7.5h10.1v-2.9Z" transform="translate(-29.2 -45.6)"/><circle id="path1265" class="cls-1" cx="353.7" cy="58.2" r="2"/><rect id="rect1267" class="cls-1" x="352.1" y="63.3" width="3.3" height="17.6"/><path id="rect1269" class="cls-1" d="M397.8,108.5a6.41,6.41,0,0,0-5.1,3.1v-2.8h-2.9v17.6h3.3V115.6c0-2,2.2-4.6,4.5-4.6a3.48,3.48,0,0,1,3.7,3.6v11.7H405V114.6C404.9,112.4,403.8,108.5,397.8,108.5Z" transform="translate(-29.2 -45.6)"/><path id="rect1269-9" class="cls-1" d="M348.9,108.4a6.41,6.41,0,0,0-5.1,3.1v-2.8h-2.9v17.6h3.3V115.5c0-2,2.2-4.6,4.5-4.6a3.48,3.48,0,0,1,3.7,3.6v11.7h3.7V114.5C356,112.3,354.9,108.4,348.9,108.4Z" transform="translate(-29.2 -45.6)"/><path id="rect1269-91" class="cls-1" d="M475.2,108.3a6.41,6.41,0,0,0-5.1,3.1v-2.8h-2.9v17.6h3.3V115.4c0-2,2.2-4.6,4.5-4.6a3.48,3.48,0,0,1,3.7,3.6v11.7h3.7V114.4C482.3,112.2,481.3,108.3,475.2,108.3Z" transform="translate(-29.2 -45.6)"/><path id="rect1269-2" class="cls-1" d="M455.3,108.5c-3.6,0-4.7,1.6-5.9,3.7V109h-2.8v17.6h3.3V115.8c0-1.9,1.9-4.3,5.4-4.4v-2.9Z" transform="translate(-29.2 -45.6)"/></g><path id="path1097-2-8" class="cls-1" d="M434.9,108.1c-4.5,0-8.1,4.2-8.1,9.3s3.6,9.3,8.1,9.3c2.5,0,5.6-.4,6.8-1.2-.4-1.3-.4-1.3-.7-2.2a7.75,7.75,0,0,1-4.4.9c-4.7-.1-6.6-2.8-6.6-6.1h12.3c.7-8.4-4.1-9.8-7.4-10Zm.1,2.3a5.23,5.23,0,0,1,4.7,5.5h-9.4v-.2c0-2.9,2.1-5.3,4.7-5.3Z" transform="translate(-29.2 -45.6)"/><circle id="path1265-6" class="cls-1" cx="431.1" cy="58.1" r="2"/><rect id="rect1267-9" class="cls-1" x="429.5" y="63.3" width="3.3" height="17.6"/></svg>