<svg id="svg" version="1.1" xmlns="http://www.w3.org/2000/svg" xmlns:xlink="http://www.w3.org/1999/xlink" width="400" height="149.7716894977169" viewBox="0, 0, 400,149.7716894977169"><g id="svgg"><path id="path0" d="M29.380 45.888 C 28.553 46.189,28.118 46.631,28.231 47.054 C 28.285 47.253,28.330 47.659,28.331 47.955 C 28.335 48.844,29.189 49.167,31.542 49.167 C 33.706 49.167,35.262 49.489,35.716 50.031 C 36.041 50.420,36.041 52.125,35.704 91.333 L 35.583 105.417 35.192 106.046 C 34.647 106.923,34.162 107.113,32.248 107.202 C 29.784 107.316,29.038 107.922,29.608 109.346 C 30.105 110.589,30.018 110.576,38.754 110.634 L 46.424 110.685 46.995 110.300 C 49.576 108.561,48.199 107.167,43.898 107.167 C 40.663 107.167,40.782 107.213,40.406 105.801 C 40.121 104.729,40.054 64.076,40.334 62.139 C 40.732 59.389,41.248 59.520,42.090 62.583 C 42.242 63.133,42.614 64.033,42.917 64.583 C 43.220 65.133,43.629 66.177,43.825 66.903 C 44.021 67.629,44.437 68.642,44.749 69.153 C 45.062 69.665,45.443 70.608,45.596 71.250 C 45.749 71.892,46.122 72.878,46.425 73.442 C 46.728 74.006,47.204 75.206,47.484 76.108 C 47.763 77.011,48.177 78.022,48.404 78.354 C 48.631 78.685,49.012 79.660,49.252 80.520 C 49.492 81.380,49.858 82.346,50.066 82.667 C 50.484 83.310,50.839 84.231,51.257 85.750 C 51.408 86.300,51.782 87.200,52.087 87.750 C 52.392 88.300,52.766 89.237,52.918 89.833 C 53.070 90.429,53.481 91.442,53.832 92.083 C 54.183 92.725,54.597 93.775,54.752 94.417 C 54.908 95.058,55.281 96.033,55.581 96.583 C 55.882 97.133,56.327 98.242,56.571 99.047 C 56.815 99.852,57.228 100.848,57.490 101.262 C 57.753 101.675,58.129 102.615,58.328 103.350 C 58.526 104.085,59.059 105.407,59.511 106.288 C 59.963 107.168,60.333 107.978,60.333 108.087 C 60.333 108.923,62.544 109.671,63.384 109.119 C 64.158 108.610,65.341 106.598,65.817 104.981 C 66.070 104.121,66.508 103.004,66.790 102.500 C 67.072 101.996,67.463 100.990,67.658 100.265 C 67.854 99.540,68.266 98.490,68.574 97.931 C 68.883 97.373,69.295 96.323,69.491 95.598 C 69.687 94.873,70.099 93.823,70.408 93.265 C 70.716 92.707,71.130 91.650,71.327 90.917 C 71.524 90.183,71.908 89.188,72.179 88.706 C 72.450 88.223,72.867 87.136,73.106 86.289 C 73.344 85.443,73.751 84.412,74.009 84.000 C 74.268 83.587,74.641 82.650,74.838 81.917 C 75.036 81.183,75.452 80.114,75.763 79.539 C 76.075 78.965,76.523 77.803,76.760 76.956 C 76.997 76.109,77.405 75.079,77.667 74.667 C 77.928 74.254,78.341 73.206,78.585 72.337 C 78.828 71.467,79.276 70.305,79.581 69.753 C 79.886 69.201,80.290 68.175,80.480 67.472 C 80.670 66.769,81.083 65.719,81.398 65.138 C 81.714 64.558,82.135 63.469,82.335 62.719 C 82.927 60.493,83.438 60.257,84.049 61.931 C 84.472 63.092,84.346 104.777,83.915 106.012 C 83.539 107.091,83.365 107.167,81.255 107.167 C 79.217 107.167,78.869 107.292,78.402 108.194 C 78.086 108.806,78.620 110.090,79.343 110.456 C 79.852 110.714,102.394 110.762,103.066 110.507 C 104.069 110.125,104.428 108.482,103.683 107.684 L 103.200 107.167 101.387 107.167 C 97.798 107.167,98.175 110.611,98.170 77.737 L 98.167 50.225 98.542 49.887 C 99.206 49.289,99.379 49.251,101.833 49.164 C 104.987 49.052,105.231 48.942,105.301 47.605 C 105.403 45.621,105.449 45.629,94.045 45.696 L 85.007 45.750 84.606 46.167 C 84.385 46.396,84.037 47.100,83.831 47.732 C 83.626 48.363,83.243 49.226,82.980 49.648 C 82.718 50.071,82.309 51.092,82.072 51.917 C 81.834 52.742,81.426 53.754,81.164 54.167 C 80.902 54.579,80.525 55.517,80.328 56.250 C 80.130 56.983,79.712 58.047,79.398 58.615 C 79.085 59.182,78.637 60.307,78.404 61.115 C 78.170 61.922,77.766 62.921,77.505 63.333 C 77.244 63.746,76.866 64.683,76.664 65.417 C 76.462 66.150,76.050 67.200,75.748 67.750 C 75.447 68.300,75.003 69.404,74.763 70.204 C 74.522 71.003,74.108 72.015,73.841 72.454 C 73.575 72.892,73.194 73.850,72.994 74.583 C 72.794 75.317,72.383 76.367,72.080 76.917 C 71.777 77.467,71.366 78.479,71.167 79.167 C 70.967 79.854,70.553 80.871,70.245 81.426 C 69.938 81.981,69.559 82.956,69.402 83.592 C 69.005 85.208,68.553 86.011,67.183 87.540 C 66.624 88.164,66.282 87.844,65.818 86.265 C 65.627 85.615,65.218 84.627,64.909 84.069 C 64.600 83.510,64.186 82.460,63.988 81.735 C 63.791 81.010,63.383 79.967,63.081 79.417 C 62.780 78.867,62.336 77.763,62.096 76.963 C 61.856 76.164,61.439 75.151,61.170 74.713 C 60.901 74.275,60.531 73.367,60.348 72.695 C 60.164 72.023,59.752 71.006,59.433 70.434 C 59.113 69.863,58.694 68.800,58.502 68.072 C 58.310 67.345,57.927 66.383,57.652 65.935 C 57.377 65.487,56.966 64.479,56.738 63.694 C 56.511 62.909,56.067 61.806,55.753 61.244 C 55.438 60.681,55.020 59.627,54.824 58.902 C 54.628 58.177,54.240 57.224,53.963 56.786 C 53.685 56.347,53.280 55.377,53.063 54.629 C 52.845 53.882,52.430 52.816,52.139 52.260 C 51.849 51.705,51.409 50.602,51.161 49.810 C 50.686 48.288,49.564 46.356,48.904 45.924 C 48.394 45.590,30.289 45.556,29.380 45.888 M155.250 45.917 C 153.837 46.420,153.784 46.790,153.863 55.583 C 153.925 62.502,153.960 62.681,155.350 63.237 C 157.343 64.035,158.381 62.953,158.967 59.465 C 159.176 58.217,159.422 57.316,159.648 56.965 C 159.842 56.664,160.305 55.797,160.676 55.040 C 161.069 54.239,161.555 53.513,161.840 53.302 C 162.109 53.103,162.534 52.645,162.784 52.285 C 163.086 51.848,163.566 51.471,164.222 51.153 C 164.763 50.891,165.553 50.454,165.978 50.181 C 167.764 49.036,174.246 48.902,174.832 49.998 C 175.172 50.634,174.973 105.647,174.628 106.277 C 174.034 107.362,168.057 107.557,166.782 106.532 C 166.673 106.444,166.038 106.177,165.371 105.938 C 163.841 105.390,163.334 105.128,162.916 104.666 C 162.733 104.464,162.283 104.146,161.917 103.960 C 161.550 103.774,160.950 103.328,160.583 102.969 C 158.789 101.212,155.980 98.537,155.534 98.159 C 154.426 97.222,154.668 95.604,156.269 93.245 C 156.582 92.784,156.996 91.846,157.189 91.162 C 157.382 90.477,157.755 89.491,158.017 88.970 C 158.328 88.351,158.613 87.342,158.838 86.053 C 159.282 83.524,159.399 83.174,160.091 82.304 C 160.406 81.908,160.664 81.503,160.665 81.404 C 160.668 81.040,161.470 80.511,163.543 79.507 C 166.110 78.264,166.341 77.987,165.870 76.716 C 165.369 75.367,165.728 75.417,156.417 75.417 C 147.125 75.417,147.135 75.416,146.666 76.334 C 145.929 77.780,146.738 78.991,148.446 78.999 C 149.006 79.002,152.052 80.758,152.594 81.391 C 154.227 83.298,154.150 89.089,152.464 91.191 C 150.550 93.579,150.896 93.674,146.726 89.614 C 144.906 87.843,141.411 84.448,138.960 82.071 C 136.372 79.562,134.503 77.623,134.502 77.447 C 134.498 76.800,136.165 75.429,137.445 75.027 C 138.102 74.821,138.889 74.471,139.195 74.249 C 139.500 74.027,140.200 73.608,140.750 73.317 C 143.084 72.082,145.539 69.515,146.794 67.000 L 147.750 65.083 147.750 62.250 L 147.750 59.417 147.055 57.917 C 146.673 57.092,146.240 56.122,146.093 55.763 C 145.946 55.403,145.547 54.833,145.205 54.496 C 144.863 54.159,144.388 53.666,144.150 53.400 C 143.249 52.395,141.821 51.356,140.963 51.081 C 140.479 50.926,139.483 50.509,138.750 50.155 C 135.836 48.750,126.404 48.668,123.500 50.024 C 122.904 50.302,121.892 50.719,121.250 50.950 C 120.608 51.181,119.832 51.568,119.524 51.810 C 119.217 52.052,118.642 52.478,118.247 52.756 C 117.096 53.567,115.341 55.582,114.728 56.796 C 114.418 57.413,114.012 58.152,113.827 58.440 C 112.588 60.368,112.602 69.377,113.847 71.721 C 114.051 72.103,114.498 72.982,114.841 73.673 C 115.184 74.365,115.579 75.025,115.719 75.141 C 116.286 75.612,117.361 77.483,117.256 77.816 C 117.058 78.438,115.442 79.733,114.398 80.106 C 112.604 80.747,108.762 83.566,107.661 85.050 C 107.403 85.398,107.007 85.828,106.781 86.005 C 106.556 86.183,106.170 86.835,105.923 87.456 C 105.677 88.076,105.259 88.971,104.994 89.446 C 103.802 91.577,103.840 98.162,105.057 100.333 C 105.288 100.746,105.644 101.533,105.848 102.083 C 106.200 103.036,107.028 104.154,108.333 105.442 C 109.990 107.075,110.339 107.354,111.256 107.772 C 111.803 108.021,112.604 108.467,113.037 108.763 C 113.570 109.128,114.311 109.413,115.334 109.649 C 116.164 109.840,117.075 110.117,117.360 110.264 C 120.271 111.769,131.046 111.870,135.045 110.429 C 135.891 110.124,137.195 109.744,137.942 109.583 C 138.689 109.423,139.589 109.115,139.942 108.899 C 140.556 108.522,141.138 108.237,142.875 107.463 C 143.310 107.269,143.798 106.965,143.958 106.788 C 144.800 105.858,146.403 105.924,147.341 106.927 C 147.566 107.168,148.087 107.559,148.500 107.797 C 148.912 108.034,149.518 108.435,149.846 108.689 C 150.174 108.942,150.887 109.265,151.430 109.406 C 151.973 109.547,153.354 109.905,154.500 110.202 L 156.583 110.743 175.565 110.793 C 196.873 110.849,194.896 110.971,195.431 109.570 C 196.104 107.807,195.361 107.217,192.368 107.138 C 189.825 107.072,189.247 106.899,188.835 106.082 C 188.583 105.583,188.336 51.222,188.581 50.213 C 188.859 49.065,194.975 48.838,197.000 49.901 C 197.412 50.117,198.271 50.568,198.908 50.903 C 200.383 51.680,202.067 53.367,202.913 54.917 C 204.228 57.325,204.331 57.597,204.637 59.436 C 205.184 62.732,206.444 64.041,208.236 63.174 C 209.562 62.532,209.583 62.393,209.583 54.417 C 209.583 46.588,209.576 46.521,208.706 46.072 C 207.868 45.639,156.448 45.490,155.250 45.917 M215.250 45.852 C 214.295 46.069,214.000 46.502,214.000 47.681 C 214.000 49.347,213.282 49.236,224.750 49.333 C 234.939 49.420,234.947 49.420,235.536 50.046 C 235.555 50.066,235.611 63.484,235.661 79.863 L 235.750 109.642 236.099 110.113 C 236.936 111.241,238.686 111.045,239.333 109.750 L 239.750 108.917 239.793 79.545 L 239.836 50.173 240.210 49.936 C 241.054 49.402,242.329 49.333,251.402 49.333 C 260.308 49.333,260.462 49.328,260.894 48.988 C 261.532 48.486,261.537 46.934,260.902 46.179 L 260.470 45.667 238.194 45.683 C 225.469 45.693,215.631 45.765,215.250 45.852 M335.003 45.881 C 334.126 46.325,334.167 44.662,334.210 78.167 C 334.256 114.453,334.032 110.583,336.093 110.583 L 337.250 110.583 337.667 109.750 L 338.083 108.917 338.190 96.667 C 338.299 84.027,338.317 83.705,339.046 81.583 C 339.266 80.942,339.585 79.823,339.754 79.098 C 339.955 78.239,340.258 77.495,340.626 76.961 C 340.935 76.511,341.333 75.807,341.508 75.398 C 341.684 74.988,342.190 74.262,342.632 73.785 C 343.075 73.307,343.595 72.709,343.787 72.456 C 344.575 71.415,347.223 69.614,348.541 69.222 C 349.008 69.084,349.883 68.737,350.487 68.452 C 351.577 67.936,351.600 67.933,354.417 67.925 L 357.250 67.917 358.750 68.602 C 359.575 68.980,360.488 69.380,360.779 69.492 C 361.461 69.756,363.274 71.675,363.917 72.815 C 365.637 75.864,365.552 74.865,365.659 93.417 C 365.762 111.159,365.646 109.804,367.126 110.521 C 368.296 111.087,369.569 110.356,370.005 108.868 C 370.281 107.925,370.147 78.119,369.864 77.333 C 369.748 77.012,369.472 75.874,369.250 74.803 C 368.816 72.706,368.494 71.781,368.012 71.252 C 367.843 71.068,367.574 70.654,367.413 70.333 C 367.047 69.605,365.307 67.716,364.512 67.185 C 364.185 66.966,363.719 66.604,363.478 66.381 C 363.216 66.138,362.410 65.790,361.478 65.516 C 360.619 65.263,359.654 64.913,359.333 64.737 C 358.389 64.218,352.051 64.256,351.061 64.785 C 350.681 64.988,349.723 65.317,348.931 65.515 C 347.975 65.755,347.255 66.053,346.787 66.403 C 346.400 66.692,345.661 67.180,345.144 67.488 C 344.628 67.795,343.847 68.411,343.410 68.857 C 342.973 69.302,342.558 69.667,342.489 69.667 C 342.419 69.667,342.026 70.135,341.615 70.708 C 341.204 71.281,340.628 71.975,340.335 72.250 C 340.042 72.525,339.618 73.111,339.393 73.553 C 339.167 73.994,338.893 74.326,338.783 74.290 C 338.228 74.109,338.186 73.197,338.168 60.917 C 338.147 47.299,338.115 46.642,337.438 46.059 C 336.917 45.611,335.710 45.523,335.003 45.881 M133.369 53.195 C 134.054 53.441,134.447 53.706,134.769 54.143 C 135.016 54.477,135.469 55.016,135.776 55.341 C 137.382 57.040,137.654 63.692,136.229 66.417 C 135.989 66.875,135.583 67.668,135.326 68.179 C 134.830 69.167,132.285 71.896,131.303 72.495 C 130.195 73.170,129.032 72.694,127.994 71.141 C 127.605 70.559,127.106 69.888,126.886 69.650 C 126.216 68.925,124.534 65.432,124.308 64.296 C 123.955 62.521,124.039 58.117,124.449 56.886 C 125.586 53.468,129.550 51.828,133.369 53.195 M263.833 64.904 C 262.871 65.214,261.607 65.602,261.025 65.765 C 260.443 65.929,259.697 66.277,259.368 66.539 C 259.038 66.801,258.401 67.200,257.951 67.426 C 256.140 68.335,252.784 71.878,251.839 73.878 C 251.561 74.466,251.182 75.086,250.996 75.254 C 250.805 75.426,250.433 76.291,250.143 77.238 C 249.860 78.161,249.419 79.404,249.163 80.000 C 247.834 83.094,247.922 92.856,249.312 96.542 C 249.667 97.481,250.050 98.648,250.164 99.133 C 250.277 99.619,250.633 100.398,250.953 100.864 C 251.273 101.329,251.700 102.066,251.902 102.500 C 252.432 103.646,256.164 107.833,256.654 107.833 C 256.757 107.833,257.169 108.136,257.570 108.505 C 258.067 108.963,258.738 109.338,259.677 109.680 C 260.435 109.957,261.251 110.323,261.490 110.493 C 263.416 111.865,273.346 111.858,275.517 110.483 C 275.939 110.216,276.836 109.809,277.510 109.580 C 278.184 109.351,278.926 108.985,279.159 108.768 C 279.393 108.551,279.921 108.165,280.333 107.909 C 281.284 107.320,284.718 103.877,285.090 103.140 C 285.244 102.834,285.592 102.350,285.862 102.065 C 286.811 101.064,287.032 99.247,286.266 98.745 C 284.968 97.895,283.530 98.129,282.873 99.299 C 282.676 99.648,282.353 100.080,282.155 100.259 C 281.956 100.437,281.552 100.958,281.258 101.417 C 280.517 102.569,277.600 105.416,276.752 105.815 C 276.368 105.995,275.823 106.337,275.542 106.574 C 273.025 108.692,264.555 108.631,261.515 106.473 C 261.018 106.121,260.507 105.833,260.378 105.833 C 259.867 105.833,255.833 101.653,255.833 101.123 C 255.833 101.009,255.460 100.281,255.004 99.506 C 254.430 98.531,254.089 97.709,253.898 96.840 C 253.746 96.149,253.406 94.878,253.142 94.016 C 252.311 91.294,252.191 88.468,252.879 87.796 C 252.900 87.776,260.417 87.720,269.583 87.671 L 286.250 87.583 286.956 87.206 C 288.101 86.594,288.172 85.513,287.352 81.167 C 287.050 79.563,286.733 77.875,286.648 77.417 C 286.563 76.958,286.253 76.171,285.960 75.667 C 285.667 75.162,285.231 74.300,284.992 73.750 C 284.047 71.577,281.148 68.260,279.428 67.383 C 278.975 67.152,278.249 66.718,277.814 66.419 C 277.340 66.093,276.535 65.757,275.803 65.581 C 275.132 65.420,274.096 65.096,273.500 64.863 C 272.483 64.464,272.206 64.435,269.000 64.389 L 265.583 64.341 263.833 64.904 M308.083 64.492 C 307.808 64.561,307.283 64.745,306.917 64.902 C 306.550 65.059,305.627 65.333,304.865 65.511 C 303.497 65.831,302.654 66.168,302.167 66.590 C 302.029 66.709,301.442 67.074,300.862 67.401 C 300.283 67.728,299.570 68.223,299.279 68.501 C 298.988 68.779,298.142 69.588,297.399 70.298 C 296.656 71.009,295.921 71.837,295.765 72.138 C 295.609 72.440,295.236 72.963,294.935 73.302 C 294.635 73.640,294.184 74.438,293.932 75.076 C 293.680 75.713,293.328 76.440,293.149 76.691 C 292.622 77.432,292.370 78.179,292.087 79.845 C 291.940 80.709,291.676 81.867,291.500 82.417 C 290.760 84.726,290.604 90.871,291.240 92.650 C 291.385 93.053,291.722 94.464,291.990 95.785 C 292.259 97.107,292.634 98.464,292.825 98.802 C 293.015 99.140,293.360 99.829,293.592 100.333 C 294.944 103.280,297.507 106.496,299.500 107.748 C 299.912 108.006,300.542 108.467,300.898 108.770 C 301.255 109.074,301.930 109.447,302.398 109.599 C 302.867 109.752,303.717 110.135,304.287 110.450 C 307.073 111.990,315.818 111.940,318.702 110.368 C 319.370 110.004,320.198 109.616,320.542 109.507 C 320.886 109.397,321.373 109.104,321.625 108.856 C 321.877 108.608,322.346 108.224,322.667 108.002 C 323.409 107.490,324.790 106.113,325.425 105.251 C 325.696 104.884,326.046 104.472,326.204 104.334 C 326.475 104.098,327.316 102.678,328.345 100.718 C 329.792 97.963,329.183 96.328,326.762 96.474 C 325.670 96.541,325.382 96.849,324.916 98.447 C 324.777 98.922,324.487 99.522,324.271 99.781 C 324.054 100.039,323.650 100.700,323.373 101.250 C 321.819 104.330,318.261 107.119,315.046 107.779 C 311.611 108.483,306.759 108.039,305.090 106.867 C 304.720 106.607,303.978 106.150,303.442 105.853 C 302.375 105.261,300.332 103.321,299.655 102.257 C 299.419 101.886,298.922 101.183,298.551 100.693 C 298.180 100.203,297.786 99.491,297.675 99.110 C 297.563 98.729,297.210 97.934,296.889 97.344 C 295.060 93.980,295.074 81.482,296.910 78.707 C 297.139 78.360,297.515 77.525,297.744 76.852 C 298.027 76.018,298.374 75.396,298.830 74.901 C 299.199 74.501,299.500 74.094,299.500 73.995 C 299.500 73.476,303.667 69.796,304.583 69.507 C 304.950 69.391,305.863 69.003,306.611 68.644 C 309.159 67.422,313.888 67.343,315.898 68.487 C 316.367 68.754,317.252 69.172,317.866 69.417 C 318.622 69.718,319.118 70.040,319.404 70.415 C 319.636 70.719,320.092 71.133,320.417 71.334 C 320.742 71.534,321.129 71.935,321.276 72.224 C 321.424 72.513,321.818 73.050,322.153 73.417 C 322.488 73.783,322.981 74.608,323.250 75.250 C 324.128 77.348,325.322 78.833,326.131 78.833 C 328.423 78.833,329.252 77.091,327.824 75.276 C 327.632 75.032,327.296 74.375,327.077 73.817 C 325.949 70.938,321.369 66.568,318.610 65.738 C 318.137 65.596,317.188 65.294,316.500 65.068 C 315.813 64.842,314.987 64.586,314.667 64.499 C 313.985 64.315,308.816 64.309,308.083 64.492 M272.167 68.005 C 272.671 68.114,273.308 68.339,273.583 68.505 C 273.858 68.670,274.678 69.042,275.404 69.330 C 276.315 69.690,277.004 70.109,277.626 70.676 C 278.121 71.129,278.594 71.500,278.675 71.500 C 278.756 71.500,279.077 71.894,279.387 72.375 C 279.697 72.856,280.109 73.390,280.301 73.561 C 280.494 73.731,280.888 74.440,281.177 75.135 C 281.467 75.830,281.924 76.820,282.194 77.335 C 282.676 78.254,283.036 79.902,283.228 82.068 C 283.311 83.012,283.292 83.075,282.757 83.609 L 282.200 84.167 268.475 84.163 C 251.538 84.158,252.597 84.360,253.415 81.292 C 254.283 78.034,254.498 77.376,254.762 77.157 C 254.908 77.035,255.289 76.418,255.607 75.786 C 256.196 74.617,258.331 71.925,259.035 71.463 C 259.248 71.324,259.826 70.865,260.321 70.443 C 260.816 70.020,261.490 69.590,261.819 69.487 C 262.148 69.383,263.065 69.005,263.857 68.646 C 265.992 67.677,269.427 67.412,272.167 68.005 M122.276 82.644 C 123.161 83.286,124.885 84.929,131.319 91.265 C 134.306 94.206,137.856 97.697,139.208 99.021 C 142.330 102.079,142.548 103.200,140.145 103.833 C 139.745 103.939,138.742 104.248,137.917 104.522 C 133.825 105.877,128.345 106.069,126.167 104.934 C 125.754 104.719,124.858 104.342,124.175 104.096 C 123.008 103.676,122.751 103.499,120.980 101.889 C 119.221 100.290,117.469 97.173,117.137 95.053 C 116.712 92.342,117.162 87.269,117.918 86.248 C 118.123 85.972,118.454 85.364,118.655 84.898 C 119.042 83.999,120.088 82.856,120.917 82.427 C 121.559 82.095,121.506 82.086,122.276 82.644 " stroke="none" fill="#37372c" fill-rule="evenodd"></path><path id="path1" d="M0.000 74.833 L 0.000 149.667 200.000 149.667 L 400.000 149.667 400.000 74.833 L 400.000 0.000 200.000 0.000 L 0.000 0.000 0.000 74.833 M48.904 45.924 C 49.564 46.356,50.686 48.288,51.161 49.810 C 51.409 50.602,51.849 51.705,52.139 52.260 C 52.430 52.816,52.845 53.882,53.063 54.629 C 53.280 55.377,53.685 56.347,53.963 56.786 C 54.240 57.224,54.628 58.177,54.824 58.902 C 55.020 59.627,55.438 60.681,55.753 61.244 C 56.067 61.806,56.511 62.909,56.738 63.694 C 56.966 64.479,57.377 65.487,57.652 65.935 C 57.927 66.383,58.310 67.345,58.502 68.072 C 58.694 68.800,59.113 69.863,59.433 70.434 C 59.752 71.006,60.164 72.023,60.348 72.695 C 60.531 73.367,60.901 74.275,61.170 74.713 C 61.439 75.151,61.856 76.164,62.096 76.963 C 62.336 77.763,62.780 78.867,63.081 79.417 C 63.383 79.967,63.791 81.010,63.988 81.735 C 64.186 82.460,64.600 83.510,64.909 84.069 C 65.218 84.627,65.627 85.615,65.818 86.265 C 66.282 87.844,66.624 88.164,67.183 87.540 C 68.553 86.011,69.005 85.208,69.402 83.592 C 69.559 82.956,69.938 81.981,70.245 81.426 C 70.553 80.871,70.967 79.854,71.167 79.167 C 71.366 78.479,71.777 77.467,72.080 76.917 C 72.383 76.367,72.794 75.317,72.994 74.583 C 73.194 73.850,73.575 72.892,73.841 72.454 C 74.108 72.015,74.522 71.003,74.763 70.204 C 75.003 69.404,75.447 68.300,75.748 67.750 C 76.050 67.200,76.462 66.150,76.664 65.417 C 76.866 64.683,77.244 63.746,77.505 63.333 C 77.766 62.921,78.170 61.922,78.404 61.115 C 78.637 60.307,79.085 59.182,79.398 58.615 C 79.712 58.047,80.130 56.983,80.328 56.250 C 80.525 55.517,80.902 54.579,81.164 54.167 C 81.426 53.754,81.834 52.742,82.072 51.917 C 82.309 51.092,82.718 50.071,82.980 49.648 C 83.243 49.226,83.626 48.363,83.831 47.732 C 84.037 47.100,84.385 46.396,84.606 46.167 L 85.007 45.750 94.045 45.696 C 105.449 45.629,105.403 45.621,105.301 47.605 C 105.231 48.942,104.987 49.052,101.833 49.164 C 99.379 49.251,99.206 49.289,98.542 49.887 L 98.167 50.225 98.170 77.737 C 98.175 110.611,97.798 107.167,101.387 107.167 L 103.200 107.167 103.683 107.684 C 104.428 108.482,104.069 110.125,103.066 110.507 C 102.394 110.762,79.852 110.714,79.343 110.456 C 78.620 110.090,78.086 108.806,78.402 108.194 C 78.869 107.292,79.217 107.167,81.255 107.167 C 83.365 107.167,83.539 107.091,83.915 106.012 C 84.346 104.777,84.472 63.092,84.049 61.931 C 83.438 60.257,82.927 60.493,82.335 62.719 C 82.135 63.469,81.714 64.558,81.398 65.138 C 81.083 65.719,80.670 66.769,80.480 67.472 C 80.290 68.175,79.886 69.201,79.581 69.753 C 79.276 70.305,78.828 71.467,78.585 72.337 C 78.341 73.206,77.928 74.254,77.667 74.667 C 77.405 75.079,76.997 76.109,76.760 76.956 C 76.523 77.803,76.075 78.965,75.763 79.539 C 75.452 80.114,75.036 81.183,74.838 81.917 C 74.641 82.650,74.268 83.587,74.009 84.000 C 73.751 84.412,73.344 85.443,73.106 86.289 C 72.867 87.136,72.450 88.223,72.179 88.706 C 71.908 89.188,71.524 90.183,71.327 90.917 C 71.130 91.650,70.716 92.707,70.408 93.265 C 70.099 93.823,69.687 94.873,69.491 95.598 C 69.295 96.323,68.883 97.373,68.574 97.931 C 68.266 98.490,67.854 99.540,67.658 100.265 C 67.463 100.990,67.072 101.996,66.790 102.500 C 66.508 103.004,66.070 104.121,65.817 104.981 C 65.341 106.598,64.158 108.610,63.384 109.119 C 62.544 109.671,60.333 108.923,60.333 108.087 C 60.333 107.978,59.963 107.168,59.511 106.288 C 59.059 105.407,58.526 104.085,58.328 103.350 C 58.129 102.615,57.753 101.675,57.490 101.262 C 57.228 100.848,56.815 99.852,56.571 99.047 C 56.327 98.242,55.882 97.133,55.581 96.583 C 55.281 96.033,54.908 95.058,54.752 94.417 C 54.597 93.775,54.183 92.725,53.832 92.083 C 53.481 91.442,53.070 90.429,52.918 89.833 C 52.766 89.237,52.392 88.300,52.087 87.750 C 51.782 87.200,51.408 86.300,51.257 85.750 C 50.839 84.231,50.484 83.310,50.066 82.667 C 49.858 82.346,49.492 81.380,49.252 80.520 C 49.012 79.660,48.631 78.685,48.404 78.354 C 48.177 78.022,47.763 77.011,47.484 76.108 C 47.204 75.206,46.728 74.006,46.425 73.442 C 46.122 72.878,45.749 71.892,45.596 71.250 C 45.443 70.608,45.062 69.665,44.749 69.153 C 44.437 68.642,44.021 67.629,43.825 66.903 C 43.629 66.177,43.220 65.133,42.917 64.583 C 42.614 64.033,42.242 63.133,42.090 62.583 C 41.248 59.520,40.732 59.389,40.334 62.139 C 40.054 64.076,40.121 104.729,40.406 105.801 C 40.782 107.213,40.663 107.167,43.898 107.167 C 48.199 107.167,49.576 108.561,46.995 110.300 L 46.424 110.685 38.754 110.634 C 30.018 110.576,30.105 110.589,29.608 109.346 C 29.038 107.922,29.784 107.316,32.248 107.202 C 34.162 107.113,34.647 106.923,35.192 106.046 L 35.583 105.417 35.704 91.333 C 36.041 52.125,36.041 50.420,35.716 50.031 C 35.262 49.489,33.706 49.167,31.542 49.167 C 29.189 49.167,28.335 48.844,28.331 47.955 C 28.330 47.659,28.285 47.253,28.231 47.054 C 28.118 46.631,28.553 46.189,29.380 45.888 C 30.289 45.556,48.394 45.590,48.904 45.924 M208.706 46.072 C 209.576 46.521,209.583 46.588,209.583 54.417 C 209.583 62.393,209.562 62.532,208.236 63.174 C 206.444 64.041,205.184 62.732,204.637 59.436 C 204.331 57.597,204.228 57.325,202.913 54.917 C 202.067 53.367,200.383 51.680,198.908 50.903 C 198.271 50.568,197.412 50.117,197.000 49.901 C 194.975 48.838,188.859 49.065,188.581 50.213 C 188.336 51.222,188.583 105.583,188.835 106.082 C 189.247 106.899,189.825 107.072,192.368 107.138 C 195.361 107.217,196.104 107.807,195.431 109.570 C 194.896 110.971,196.873 110.849,175.565 110.793 L 156.583 110.743 154.500 110.202 C 153.354 109.905,151.973 109.547,151.430 109.406 C 150.887 109.265,150.174 108.942,149.846 108.689 C 149.518 108.435,148.912 108.034,148.500 107.797 C 148.087 107.559,147.566 107.168,147.341 106.927 C 146.403 105.924,144.800 105.858,143.958 106.788 C 143.798 106.965,143.310 107.269,142.875 107.463 C 141.138 108.237,140.556 108.522,139.942 108.899 C 139.589 109.115,138.689 109.423,137.942 109.583 C 137.195 109.744,135.891 110.124,135.045 110.429 C 131.046 111.870,120.271 111.769,117.360 110.264 C 117.075 110.117,116.164 109.840,115.334 109.649 C 114.311 109.413,113.570 109.128,113.037 108.763 C 112.604 108.467,111.803 108.021,111.256 107.772 C 110.339 107.354,109.990 107.075,108.333 105.442 C 107.028 104.154,106.200 103.036,105.848 102.083 C 105.644 101.533,105.288 100.746,105.057 100.333 C 103.840 98.162,103.802 91.577,104.994 89.446 C 105.259 88.971,105.677 88.076,105.923 87.456 C 106.170 86.835,106.556 86.183,106.781 86.005 C 107.007 85.828,107.403 85.398,107.661 85.050 C 108.762 83.566,112.604 80.747,114.398 80.106 C 115.442 79.733,117.058 78.438,117.256 77.816 C 117.361 77.483,116.286 75.612,115.719 75.141 C 115.579 75.025,115.184 74.365,114.841 73.673 C 114.498 72.982,114.051 72.103,113.847 71.721 C 112.602 69.377,112.588 60.368,113.827 58.440 C 114.012 58.152,114.418 57.413,114.728 56.796 C 115.341 55.582,117.096 53.567,118.247 52.756 C 118.642 52.478,119.217 52.052,119.524 51.810 C 119.832 51.568,120.608 51.181,121.250 50.950 C 121.892 50.719,122.904 50.302,123.500 50.024 C 126.404 48.668,135.836 48.750,138.750 50.155 C 139.483 50.509,140.479 50.926,140.963 51.081 C 141.821 51.356,143.249 52.395,144.150 53.400 C 144.388 53.666,144.863 54.159,145.205 54.496 C 145.547 54.833,145.946 55.403,146.093 55.763 C 146.240 56.122,146.673 57.092,147.055 57.917 L 147.750 59.417 147.750 62.250 L 147.750 65.083 146.794 67.000 C 145.539 69.515,143.084 72.082,140.750 73.317 C 140.200 73.608,139.500 74.027,139.195 74.249 C 138.889 74.471,138.102 74.821,137.445 75.027 C 136.165 75.429,134.498 76.800,134.502 77.447 C 134.503 77.623,136.372 79.562,138.960 82.071 C 141.411 84.448,144.906 87.843,146.726 89.614 C 150.896 93.674,150.550 93.579,152.464 91.191 C 154.150 89.089,154.227 83.298,152.594 81.391 C 152.052 80.758,149.006 79.002,148.446 78.999 C 146.738 78.991,145.929 77.780,146.666 76.334 C 147.135 75.416,147.125 75.417,156.417 75.417 C 165.728 75.417,165.369 75.367,165.870 76.716 C 166.341 77.987,166.110 78.264,163.543 79.507 C 161.470 80.511,160.668 81.040,160.665 81.404 C 160.664 81.503,160.406 81.908,160.091 82.304 C 159.399 83.174,159.282 83.524,158.838 86.053 C 158.613 87.342,158.328 88.351,158.017 88.970 C 157.755 89.491,157.382 90.477,157.189 91.162 C 156.996 91.846,156.582 92.784,156.269 93.245 C 154.668 95.604,154.426 97.222,155.534 98.159 C 155.980 98.537,158.789 101.212,160.583 102.969 C 160.950 103.328,161.550 103.774,161.917 103.960 C 162.283 104.146,162.733 104.464,162.916 104.666 C 163.334 105.128,163.841 105.390,165.371 105.938 C 166.038 106.177,166.673 106.444,166.782 106.532 C 168.057 107.557,174.034 107.362,174.628 106.277 C 174.973 105.647,175.172 50.634,174.832 49.998 C 174.246 48.902,167.764 49.036,165.978 50.181 C 165.553 50.454,164.763 50.891,164.222 51.153 C 163.566 51.471,163.086 51.848,162.784 52.285 C 162.534 52.645,162.109 53.103,161.840 53.302 C 161.555 53.513,161.069 54.239,160.676 55.040 C 160.305 55.797,159.842 56.664,159.648 56.965 C 159.422 57.316,159.176 58.217,158.967 59.465 C 158.381 62.953,157.343 64.035,155.350 63.237 C 153.960 62.681,153.925 62.502,153.863 55.583 C 153.784 46.790,153.837 46.420,155.250 45.917 C 156.448 45.490,207.868 45.639,208.706 46.072 M260.902 46.179 C 261.537 46.934,261.532 48.486,260.894 48.988 C 260.462 49.328,260.308 49.333,251.402 49.333 C 242.329 49.333,241.054 49.402,240.210 49.936 L 239.836 50.173 239.793 79.545 L 239.750 108.917 239.333 109.750 C 238.686 111.045,236.936 111.241,236.099 110.113 L 235.750 109.642 235.661 79.863 C 235.611 63.484,235.555 50.066,235.536 50.046 C 234.947 49.420,234.939 49.420,224.750 49.333 C 213.282 49.236,214.000 49.347,214.000 47.681 C 214.000 45.554,212.192 45.703,238.194 45.683 L 260.470 45.667 260.902 46.179 M337.438 46.059 C 338.115 46.642,338.147 47.299,338.168 60.917 C 338.186 73.197,338.228 74.109,338.783 74.290 C 338.893 74.326,339.167 73.994,339.393 73.553 C 339.618 73.111,340.042 72.525,340.335 72.250 C 340.628 71.975,341.204 71.281,341.615 70.708 C 342.026 70.135,342.419 69.667,342.489 69.667 C 342.558 69.667,342.973 69.302,343.410 68.857 C 343.847 68.411,344.628 67.795,345.144 67.488 C 345.661 67.180,346.400 66.692,346.787 66.403 C 347.255 66.053,347.975 65.755,348.931 65.515 C 349.723 65.317,350.681 64.988,351.061 64.785 C 352.051 64.256,358.389 64.218,359.333 64.737 C 359.654 64.913,360.619 65.263,361.478 65.516 C 362.410 65.790,363.216 66.138,363.478 66.381 C 363.719 66.604,364.185 66.966,364.512 67.185 C 365.307 67.716,367.047 69.605,367.413 70.333 C 367.574 70.654,367.843 71.068,368.012 71.252 C 368.494 71.781,368.816 72.706,369.250 74.803 C 369.472 75.874,369.748 77.012,369.864 77.333 C 370.147 78.119,370.281 107.925,370.005 108.868 C 369.569 110.356,368.296 111.087,367.126 110.521 C 365.646 109.804,365.762 111.159,365.659 93.417 C 365.563 76.702,365.514 75.724,364.701 74.226 C 363.717 72.412,363.305 71.810,362.362 70.813 C 361.782 70.199,361.069 69.605,360.779 69.492 C 360.488 69.380,359.575 68.980,358.750 68.602 L 357.250 67.917 354.417 67.925 C 351.600 67.933,351.577 67.936,350.487 68.452 C 349.883 68.737,349.008 69.084,348.541 69.222 C 347.223 69.614,344.575 71.415,343.787 72.456 C 343.595 72.709,343.075 73.307,342.632 73.785 C 342.190 74.262,341.684 74.988,341.508 75.398 C 341.333 75.807,340.935 76.511,340.626 76.961 C 340.258 77.495,339.955 78.239,339.754 79.098 C 339.585 79.823,339.266 80.942,339.046 81.583 C 338.317 83.705,338.299 84.027,338.190 96.667 L 338.083 108.917 337.667 109.750 L 337.250 110.583 336.093 110.583 C 334.032 110.583,334.256 114.453,334.210 78.167 C 334.178 53.292,334.213 46.832,334.380 46.503 C 334.839 45.600,336.606 45.344,337.438 46.059 M129.321 52.826 C 125.754 53.302,124.108 55.750,124.103 60.583 C 124.099 64.357,125.146 67.767,126.886 69.650 C 127.106 69.888,127.605 70.559,127.994 71.141 C 129.032 72.694,130.195 73.170,131.303 72.495 C 132.285 71.896,134.830 69.167,135.326 68.179 C 135.583 67.668,135.989 66.875,136.229 66.417 C 137.654 63.692,137.382 57.040,135.776 55.341 C 135.469 55.016,135.016 54.477,134.769 54.143 C 133.994 53.093,131.619 52.519,129.321 52.826 M273.500 64.863 C 274.096 65.096,275.132 65.420,275.803 65.581 C 276.535 65.757,277.340 66.093,277.814 66.419 C 278.249 66.718,278.975 67.152,279.428 67.383 C 281.148 68.260,284.047 71.577,284.992 73.750 C 285.231 74.300,285.667 75.162,285.960 75.667 C 286.253 76.171,286.563 76.958,286.648 77.417 C 286.733 77.875,287.050 79.563,287.352 81.167 C 288.172 85.513,288.101 86.594,286.956 87.206 L 286.250 87.583 269.583 87.671 C 260.417 87.720,252.900 87.776,252.879 87.796 C 252.191 88.468,252.311 91.294,253.142 94.016 C 253.406 94.878,253.746 96.149,253.898 96.840 C 254.089 97.709,254.430 98.531,255.004 99.506 C 255.460 100.281,255.833 101.009,255.833 101.123 C 255.833 101.653,259.867 105.833,260.378 105.833 C 260.507 105.833,261.018 106.121,261.515 106.473 C 264.555 108.631,273.025 108.692,275.542 106.574 C 275.823 106.337,276.368 105.995,276.752 105.815 C 277.600 105.416,280.517 102.569,281.258 101.417 C 281.552 100.958,281.956 100.437,282.155 100.259 C 282.353 100.080,282.676 99.648,282.873 99.299 C 283.530 98.129,284.968 97.895,286.266 98.745 C 287.032 99.247,286.811 101.064,285.862 102.065 C 285.592 102.350,285.244 102.834,285.090 103.140 C 284.718 103.877,281.284 107.320,280.333 107.909 C 279.921 108.165,279.393 108.551,279.159 108.768 C 278.926 108.985,278.184 109.351,277.510 109.580 C 276.836 109.809,275.939 110.216,275.517 110.483 C 273.346 111.858,263.416 111.865,261.490 110.493 C 261.251 110.323,260.435 109.957,259.677 109.680 C 258.738 109.338,258.067 108.963,257.570 108.505 C 257.169 108.136,256.757 107.833,256.654 107.833 C 256.164 107.833,252.432 103.646,251.902 102.500 C 251.700 102.066,251.273 101.329,250.953 100.864 C 250.633 100.398,250.277 99.619,250.164 99.133 C 250.050 98.648,249.667 97.481,249.312 96.542 C 247.922 92.856,247.834 83.094,249.163 80.000 C 249.419 79.404,249.860 78.161,250.143 77.238 C 250.433 76.291,250.805 75.426,250.996 75.254 C 251.182 75.086,251.561 74.466,251.839 73.878 C 252.784 71.878,256.140 68.335,257.951 67.426 C 258.401 67.200,259.038 66.801,259.368 66.539 C 259.697 66.277,260.443 65.929,261.025 65.765 C 261.607 65.602,262.871 65.214,263.833 64.904 L 265.583 64.341 269.000 64.389 C 272.206 64.435,272.483 64.464,273.500 64.863 M314.667 64.499 C 314.987 64.586,315.813 64.842,316.500 65.068 C 317.188 65.294,318.137 65.596,318.610 65.738 C 321.369 66.568,325.949 70.938,327.077 73.817 C 327.296 74.375,327.632 75.032,327.824 75.276 C 329.252 77.091,328.423 78.833,326.131 78.833 C 325.322 78.833,324.128 77.348,323.250 75.250 C 322.981 74.608,322.488 73.783,322.153 73.417 C 321.818 73.050,321.424 72.513,321.276 72.224 C 321.129 71.935,320.742 71.534,320.417 71.334 C 320.092 71.133,319.636 70.719,319.404 70.415 C 319.118 70.040,318.622 69.718,317.866 69.417 C 317.252 69.172,316.367 68.754,315.898 68.487 C 313.888 67.343,309.159 67.422,306.611 68.644 C 305.863 69.003,304.950 69.391,304.583 69.507 C 303.667 69.796,299.500 73.476,299.500 73.995 C 299.500 74.094,299.199 74.501,298.830 74.901 C 298.374 75.396,298.027 76.018,297.744 76.852 C 297.515 77.525,297.139 78.360,296.910 78.707 C 295.074 81.482,295.060 93.980,296.889 97.344 C 297.210 97.934,297.563 98.729,297.675 99.110 C 297.786 99.491,298.180 100.203,298.551 100.693 C 298.922 101.183,299.419 101.886,299.655 102.257 C 300.332 103.321,302.375 105.261,303.442 105.853 C 303.978 106.150,304.720 106.607,305.090 106.867 C 306.759 108.039,311.611 108.483,315.046 107.779 C 318.261 107.119,321.819 104.330,323.373 101.250 C 323.650 100.700,324.054 100.039,324.271 99.781 C 324.487 99.522,324.777 98.922,324.916 98.447 C 325.382 96.849,325.670 96.541,326.762 96.474 C 329.183 96.328,329.792 97.963,328.345 100.718 C 327.316 102.678,326.475 104.098,326.204 104.334 C 326.046 104.472,325.696 104.884,325.425 105.251 C 324.790 106.113,323.409 107.490,322.667 108.002 C 322.346 108.224,321.877 108.608,321.625 108.856 C 321.373 109.104,320.886 109.397,320.542 109.507 C 320.198 109.616,319.370 110.004,318.702 110.368 C 315.818 111.940,307.073 111.990,304.287 110.450 C 303.717 110.135,302.867 109.752,302.398 109.599 C 301.930 109.447,301.255 109.074,300.898 108.770 C 300.542 108.467,299.912 108.006,299.500 107.748 C 297.507 106.496,294.944 103.280,293.592 100.333 C 293.360 99.829,293.015 99.140,292.825 98.802 C 292.634 98.464,292.259 97.107,291.990 95.785 C 291.722 94.464,291.385 93.053,291.240 92.650 C 290.604 90.871,290.760 84.726,291.500 82.417 C 291.676 81.867,291.940 80.709,292.087 79.845 C 292.370 78.179,292.622 77.432,293.149 76.691 C 293.328 76.440,293.680 75.713,293.932 75.076 C 294.184 74.438,294.635 73.640,294.935 73.302 C 295.236 72.963,295.609 72.440,295.765 72.138 C 295.921 71.837,296.656 71.009,297.399 70.298 C 298.142 69.588,298.988 68.779,299.279 68.501 C 299.570 68.223,300.283 67.728,300.862 67.401 C 301.442 67.074,302.029 66.709,302.167 66.590 C 302.654 66.168,303.497 65.831,304.865 65.511 C 305.627 65.333,306.550 65.059,306.917 64.902 C 307.283 64.745,307.808 64.561,308.083 64.492 C 308.816 64.309,313.985 64.315,314.667 64.499 M266.273 67.839 C 265.736 67.923,264.649 68.286,263.857 68.646 C 263.065 69.005,262.148 69.383,261.819 69.487 C 261.490 69.590,260.816 70.020,260.321 70.443 C 259.826 70.865,259.248 71.324,259.035 71.463 C 258.331 71.925,256.196 74.617,255.607 75.786 C 255.289 76.418,254.908 77.035,254.762 77.157 C 254.498 77.376,254.283 78.034,253.415 81.292 C 252.597 84.360,251.538 84.158,268.475 84.163 L 282.200 84.167 282.757 83.609 C 283.292 83.075,283.311 83.012,283.228 82.068 C 283.036 79.902,282.676 78.254,282.194 77.335 C 281.924 76.820,281.467 75.830,281.177 75.135 C 280.888 74.440,280.494 73.731,280.301 73.561 C 280.109 73.390,279.697 72.856,279.387 72.375 C 279.077 71.894,278.756 71.500,278.675 71.500 C 278.594 71.500,278.121 71.129,277.626 70.676 C 277.004 70.109,276.315 69.690,275.404 69.330 C 274.678 69.042,273.858 68.670,273.583 68.505 C 272.516 67.861,268.470 67.492,266.273 67.839 M120.917 82.427 C 120.088 82.856,119.042 83.999,118.655 84.898 C 118.454 85.364,118.123 85.972,117.918 86.248 C 117.162 87.269,116.712 92.342,117.137 95.053 C 117.469 97.173,119.221 100.290,120.980 101.889 C 122.751 103.499,123.008 103.676,124.175 104.096 C 124.858 104.342,125.754 104.719,126.167 104.934 C 128.345 106.069,133.825 105.877,137.917 104.522 C 138.742 104.248,139.745 103.939,140.145 103.833 C 142.548 103.200,142.330 102.079,139.208 99.021 C 137.856 97.697,134.306 94.206,131.319 91.265 C 124.885 84.929,123.161 83.286,122.276 82.644 C 121.506 82.086,121.559 82.095,120.917 82.427 " stroke="none" fill="#dbe333" fill-rule="evenodd"></path></g></svg>