<svg id="Layer_1" data-name="Layer 1" xmlns="http://www.w3.org/2000/svg" xmlns:xlink="http://www.w3.org/1999/xlink" viewBox="0 0 613.95 297.65"><defs><style>.cls-1{fill:#fff;stroke:#231f20;}.cls-1,.cls-2,.cls-3{stroke-miterlimit:10;}.cls-2{fill:#603913;stroke:#754c29;}.cls-3{fill:#754c29;stroke:url(#linear-gradient);}</style><linearGradient id="linear-gradient" x1="-0.5" y1="198.94" x2="613.45" y2="198.94" gradientUnits="userSpaceOnUse"><stop offset="0" stop-color="#8b5e3c"/><stop offset="0.22" stop-color="#724b2f"/><stop offset="0.54" stop-color="#543621"/><stop offset="0.81" stop-color="#422918"/><stop offset="1" stop-color="#3c2415"/><stop offset="1" stop-color="#382113"/><stop offset="1"/></linearGradient></defs><title>background</title><path class="cls-1" d="M390.25,339" transform="translate(0.5 -84.83)"/><polygon class="cls-2" points="612.5 230.99 612.5 295.17 0.5 297.15 0.5 206.26 0.76 132.35 611.94 71.82 612.5 230.99"/><path class="cls-1" d="M0,275.83" transform="translate(0.5 -84.83)"/><path class="cls-3" d="M612,313.05V187.34s-53.92-1.38-52.61,3-13,10.41-13,10.41-8.67,1.73-8.67,4.34S522.52,212,522.52,212l-3.91,6.07-3.9,63.76L503,290.49h-5.2l-6.94-6.07h-6.51V264.47l-8.68-6.08c-5.56,30.81.21,26.35-27.32,44.25-7.86-.94-37.56-4-44.68-6.08l-7.37-7.37-9.11-.87s0-25.15-1.73-29.06-11.71-9.11-11.71-9.11l-23,.44v-4.77h-3.9v3.47l-4.34-.87v-6.07l-3-4.77H328.64v5.2h-3.91v-5.2H310v11.71H204.16l2.17,3.9-8.25.43s-2.6-7.8-28.19-7.37-50.75,7.81-50.75,7.81S68,252.32,61.46,251.89s-6.07,3.9-6.07,3.9l-2.61,11.33h-5.2v7.76l-3.91-.44v-7.32l-8.24-1.79v19.52H28.06v3.47H17.65l-3,3.47H2l-2-3.47L.65,150.46H3.39l10,4.78,16.48.57,2.46-1.59V151l1.59.15s.15-4.63,0-6.94,8.24-7.66,12.44-6.94,4.48,2.6,4.48,2.6l-.58,6.62.58,1.48.72,5.35,1.59,1,6.07.14,12.15-5.78v-2.2h1.3v-7.2s-2.16-6.8,1.88-9.83c1.15-.87,3.76-3.18,3.76-3.18l.72-2.17h1v-2.46h5.21l2.17-.86,39.18-1.16,1.3-9.83.86-5.93,1.88-6.22,4.2-1,4.05-.87L143.19,97v7.37a13.14,13.14,0,0,1,.87,3.33c.14,1.59-.72,1.16-1,3a78.91,78.91,0,0,0,.14,8.81l4.05.15v-8.53l1-2.17v-7.23l1.88-.43.73,2.17,1,1.15V109l1.3.87v3.47l.72-6.36v-1.16s.87-3.33,2.17-2.6,0,3.9,0,3.9l.58,15.76s1.59-6.22,1.16-7.81-1-8.53.07-9.11,2.09-1.15,2.09-1.15l1.31-2.75V100.3h1.87v1.59l.87,4.33.72-4.62,1.31-.44.86,1.3.87-2.45,5.64-1.3v-2.9h3.18l1.16,2,3.18,1.3s-.73-1.45,0-1.45,4.62.29,4.62.29l1,2.89,3.18-.14h4.62l.73.72,1.73-1.88,5.64-.86a10.75,10.75,0,0,1,2.17,4.62c.43,2.6,0,18.51,0,18.51l2.6.58,2.6,3.39H212l2.6,1.23,1,1.59h2.45l6.51,1.88,2.75,4.34s-1.3,1.16,3.32,2.6,5.21-1.15,5.21-1.15l3,.43,1.59-.87,2.17,1.16,6.07-.29,9.55-.87,5.2-.72,1-3.62a30.3,30.3,0,0,0,4.78-1.73c4.33-1.73,17.06-1.3,17.06-1.3s5.63,0,5.78-3.47-1.16,3.9,5.35-2.89,3-8.24,3-8.24L303.1,112l.72-2.75v-1.45s0-5.78,2.18-4.48,1.58,4.92,1.58,4.92l1,3.47,1.88-4v-3.76h1.59s2.17,10.12,1,10.84.34,3.33.34,3.33l9.78,6.07,4.34.58,4.19,1.08,1.59,1.67s15.62,5.2,16.2,3.61,15.61-3.47,15.61-3.47l.87-1.81,6.07-3.25,3.18-2.46,3.76.15V105.93s1.3-6.36,2.31-5.2,2.17-6.51,2.17-6.51h4.92s8.38-3.47,10.12-1.73,6.21-4.34,6.21-4.34h9.4s2.46,4.19,10.12,3.33a27.82,27.82,0,0,1,13.59,1.88s6.08.72,8.82-1.45,7.52-2.75,7.52-2.75,3.47.15,4.34-2.45S475,86,475,86l13.45.87s7.66.87,7.66,2.31,6.65,3.62,6.65,3.62,4.91,3,4.19,4.34-.43,7.95,4.19,9.25,3.47-1.3,3.47-1.3,2.61-.87,1.74,1.59,6.22,5.35,6.22,5.35l1.73,2.89,1.74-2.17s3.18,10.84,1.73,11.42,5.35,5.06,5.35,4.63,4.77,4.05,8.1,3.9,18.21,9.54,18.21,9.54S613,153.14,613,149.38Z" transform="translate(0.5 -84.83)"/></svg>