<?xml version="1.0" encoding="utf-8"?>
<!-- Generator: Adobe Illustrator 21.1.0, SVG Export Plug-In . SVG Version: 6.00 Build 0)  -->
<svg version="1.0" id="Layer_1" xmlns="http://www.w3.org/2000/svg" xmlns:xlink="http://www.w3.org/1999/xlink" x="0px" y="0px"
	 viewBox="0 0 1920 540" style="enable-background:new 0 0 1920 540;" xml:space="preserve">
<style type="text/css">
	.st0{fill:#103147;}
	.st1{fill:#12394F;}
	.st2{fill:#124054;}
	.st3{fill:#16485E;}
	.st4{fill:#194E6B;}
</style>
<rect y="0" transform="matrix(-1 -4.489488e-11 4.489488e-11 -1 1920 540)" class="st0" width="1920" height="540"/>
<path class="st1" d="M516.8,262c66.5,13.7,304.3,120.5,682.8,129.3s686.6-34.9,688.1-97.6c0.6-25.6-459.2-124.1-682.8-129.3
	c-182.6-4.2-356,62.6-472,20.2C612.1,140.4,407.4,239.4,516.8,262z"/>
<path class="st2" d="M0,482h1920V211.8c-86.5,30.5-158.1,46.8-204.3,55.8c-590.2,115.2-926.4-204-1527.4-100.7
	c-83.5,14.4-149.7,33-188.3,44.9C0,301.9,0,391.9,0,482z"/>
<path class="st3" d="M1920,540H0l0-218.7c86.5,24.7,158.1,37.9,204.3,45.2c590.2,93.2,926.4-165.1,1527.4-81.5
	c83.5,11.6,149.7,26.7,188.3,36.3C1920,394.2,1920,467.1,1920,540z"/>
<path class="st4" d="M1920,540H0l0-165.7C86.5,393,158.1,403,204.3,408.6c590.2,70.6,1677.1-41.5,1715.7-34.2
	C1920,429.6,1920,484.8,1920,540z"/>
</svg>
