<?xml version="1.0" encoding="utf-8"?>
<!-- Generator: Adobe Illustrator 21.1.0, SVG Export Plug-In . SVG Version: 6.00 Build 0)  -->
<svg version="1.0" id="Layer_1" xmlns="http://www.w3.org/2000/svg" xmlns:xlink="http://www.w3.org/1999/xlink" x="0px" y="0px"
	 viewBox="0 0 1920 540" style="enable-background:new 0 0 1920 540;" xml:space="preserve">
<style type="text/css">
	.st0{fill:#FFFFFF;}
	.st1{fill:#CCCCCC;}
	.st2{fill:#B3B3B3;}
	.st3{fill:#808080;}
	.st4{fill:#4D4D4D;}
</style>
<g>
	<rect class="st0" width="1920" height="540"/>
</g>
<g>
	<path class="st1" d="M1403.2,262c-66.5,13.7-304.3,120.5-682.8,129.3S33.8,356.4,32.3,293.7c-0.6-25.6,459.2-124.1,682.8-129.3
		c182.6-4.2,356,62.6,472,20.2C1307.9,140.4,1512.6,239.4,1403.2,262z"/>
</g>
<g>
	<path class="st2" d="M1920,482H0V211.8c86.5,30.5,158.1,46.8,204.3,55.8c590.2,115.2,926.4-204,1527.4-100.7
		c83.5,14.4,149.7,33,188.3,44.9C1920,301.9,1920,391.9,1920,482z"/>
</g>
<g>
	<path class="st3" d="M0,540h1920V321.3c-86.5,24.7-158.1,37.9-204.3,45.2C1125.4,459.7,789.3,201.3,188.3,285
		C104.8,296.6,38.6,311.7,0,321.3C0,394.2,0,467.1,0,540z"/>
</g>
<g>
	<path class="st4" d="M0,540h1920V374.3c-86.5,18.7-158.1,28.7-204.3,34.2C1125.4,479.2,38.6,367.1,0,374.3C0,429.6,0,484.8,0,540z"
		/>
</g>
</svg>
