<?xml version="1.0" encoding="utf-8"?>
<!-- Generator: Adobe Illustrator 25.4.1, SVG Export Plug-In . SVG Version: 6.00 Build 0)  -->
<svg version="1.1" id="Layer_1" xmlns="http://www.w3.org/2000/svg" xmlns:xlink="http://www.w3.org/1999/xlink" x="0px" y="0px"
	 viewBox="0 0 595.28 841.89" style="enable-background:new 0 0 595.28 841.89;" xml:space="preserve">
<style type="text/css">
	.st0{fill:#425F3A;}
	.st1{fill:none;stroke:#39B54A;stroke-width:3;stroke-miterlimit:10;}
	.st2{fill:#8DC63F;}
	.st3{fill:#009444;}
	.st4{fill:#627E3E;}
</style>
<g>
	<path class="st0" d="M117.58,364.09c1.44-22.74,0.04-24.07,0.45-32.23c1.31-26.17,0.63-40.49-1.04-66.64
		c-0.11-1.75,2.39-22.74,1.51-24.26c-1.77-3.07-1.09-3.29-16.49-3.74c-7.34-0.21-7.15-0.04-13.32-2.39
		c-10.55-4.02-5.62-3.22-16.92-14.3c-1.88-1.84-5.79-5.72-10.09-16.77c-4.03-10.38-7.36-20.34-7.76-31.47
		c-0.28-7.81-2.82-15.26-3.55-23.05c-1.64-17.73-2.69-28.42,1.99-42.77c2.2-6.73,5.26-16.59,11.08-20.61
		c11.74-8.11,19.98,0.6,25.71,10.64c9.72,17.05,7.52,40.24,6.43,59.83c-0.53,9.52-1.29,18.01,2.88,26.59
		c4.17,8.58,11.29,31.36,19.28,26.15c-4.66-22.02,0.88-44.46-2.86-66.61c-0.73-4.34,0.33-8.81-0.3-13.08
		c-1.95-13.3,0.43-27.53,2.44-39.18c2.26-13.06-4.17-27.53,4.97-39.47c8.97-11.72,21.01-25.76,34.32-19.38
		c7.34,3.52,8.29,13.52,14.23,19.09c6.96,6.53,3.71,25.34,6.68,48.58c-0.95,17.92-5.63,41.39-5.03,60.48
		c2.72,9.62-1.86,22.57-2.42,33.67c2.48,17.1-0.98,37.52,1.13,53.21c6.13,3.19,13.3-15.89,17.6-21.3s2.16-21.39,3.1-28.24
		c1.84-13.34,3.26-20.83,2.22-34.26c-0.22-2.79,4.98-16.21,6.68-18.43c5.1-6.64,4.74-9.28,9.97-12.22
		c12.97-7.29,26.63,1.44,28.99,9.38c6.99,23.5-1.33,40.78-2.22,62.94c-0.68,16.89,0.22,19.04-8.86,37.23
		c-5.76,11.53-4.06,6.17-23.93,26.15c-5.16,5.19-13.64,15.94-23.05,17.29c-5.03,0.72-2.76,11.33-3.1,16.4
		c-1.45,21.27,0.23,41.51-1.22,62.78"/>
	<g>
		<path d="M118.83,364.09c0.47-7.42,0.84-14.86,0.59-22.3c-0.15-4.53-0.18-8.95,0.03-13.48c0.9-20.11,0.24-40.09-1.03-60.17
			c-0.33-5.25,0.45-10.43,0.9-15.66c0.25-2.87,0.51-5.74,0.59-8.62c0.04-1.56,0.05-2.88-0.75-4.24c-1.98-3.38-6.08-3.19-9.58-3.37
			c-4.39-0.22-8.82-0.12-13.19-0.49c-3.3-0.28-6.5-1.75-9.54-2.98c-1.95-0.79-3.9-1.62-5.34-3.2c-1.76-1.91-3.26-4.04-5.01-5.96
			c-2.01-2.2-4.28-4.18-6.18-6.48c-2.24-2.72-3.97-5.88-5.46-9.06c-2.38-5.08-4.29-10.46-5.97-15.81
			c-1.64-5.21-2.92-10.56-3.46-16.01c-0.27-2.75-0.29-5.51-0.63-8.26c-0.33-2.65-0.83-5.27-1.35-7.88c-1.13-5.66-1.89-11.25-2.39-17
			c-0.8-9.1-1.45-18.34,0.22-27.39c0.81-4.4,2.16-8.65,3.59-12.88c1.39-4.1,2.95-8.22,5.38-11.83c2.45-3.64,6.42-6.52,10.87-7.04
			c4.15-0.49,7.81,1.64,10.65,4.48c6.49,6.5,10.18,15.61,11.93,24.48c1.94,9.78,1.82,19.89,1.37,29.81
			c-0.22,4.83-0.53,9.66-0.81,14.49c-0.3,5.26-0.66,10.56,0.02,15.8c0.57,4.43,2.12,8.29,3.92,12.33c1.33,3,2.55,6.06,3.86,9.08
			c1.41,3.23,2.88,6.45,4.71,9.46c1.41,2.33,3.11,4.84,5.5,6.26c1.95,1.16,4.15,1.18,6.08-0.02c0.5-0.31,0.69-0.85,0.57-1.41
			c-3.71-17.89-0.75-36.15-1.58-54.23c-0.21-4.48-0.94-8.85-1.4-13.29c-0.44-4.35,0.26-8.69-0.3-13.05
			c-1.1-8.57-0.48-17.31,0.68-25.84c0.54-3.95,1.24-7.86,1.88-11.79c0.59-3.6,0.63-7.22,0.47-10.85c-0.34-7.29-1.46-14.9,0.95-21.97
			c1.27-3.72,3.66-6.72,6.08-9.75c2.3-2.87,4.7-5.67,7.32-8.25c4.62-4.53,10.61-9.14,17.45-8.68c3.22,0.22,6.38,1.57,8.6,3.94
			c2.08,2.22,3.41,5.06,4.78,7.74c1.38,2.7,2.81,5.41,4.86,7.67c1.53,1.69,2.77,3.06,3.52,5.26c1.86,5.41,1.84,11.46,2.04,17.11
			c0.28,7.93,0.49,15.85,1.37,23.74c0.42,3.8-0.02,7.55-0.39,11.35c-0.38,3.91-0.84,7.81-1.31,11.71
			c-0.97,8.11-1.99,16.23-2.59,24.38c-0.3,4.01-0.49,8.04-0.49,12.06c0,1.83,0.08,3.46,0.44,5.24c0.39,1.89,0.49,3.82,0.46,5.74
			c-0.1,7.91-2.29,15.62-3.06,23.46c-0.39,3.89,0.43,7.8,0.6,11.7c0.18,4.09,0.15,8.18,0.06,12.26c-0.18,8.04-0.67,16.09-0.37,24.13
			c0.06,1.77,0.17,3.54,0.34,5.3c0.14,1.41-0.1,3.22,1.41,3.84c1.63,0.67,3.39,0.12,4.76-0.86c3.97-2.8,6.4-7.89,8.68-12.02
			c1.22-2.22,2.39-4.46,3.7-6.63c1.04-1.73,2.35-3.23,3.07-5.13c1.98-5.29,1.62-11.49,1.59-17.04c-0.01-2.66-0.08-5.34,0.14-7.99
			c0.31-3.7,1.02-7.38,1.51-11.07c1-7.58,1.45-15.13,0.95-22.77c-0.31-4.72,1.9-9.46,3.66-13.75c1.93-4.72,4.85-8.72,7.59-12.99
			c3.62-5.64,11.23-7.83,17.61-6.69c5.7,1.02,12.15,4.82,14.13,10.58c5.32,15.48,1.88,31.76-0.52,47.39
			c-1.14,7.43-1.62,14.82-1.88,22.33c-0.18,4.95-0.46,9.84-1.91,14.61c-1.82,6.01-4.73,11.72-7.6,17.28
			c-1.15,2.21-2.33,4.38-4.02,6.18c-2.11,2.25-4.56,4.21-6.85,6.28c-4.77,4.33-9.46,8.79-13.87,13.49
			c-4.46,4.75-8.98,9.84-14.82,12.92c-1.44,0.76-2.95,1.36-4.54,1.71c-1.18,0.26-2.23,0.36-3.17,1.2c-1.64,1.48-1.97,3.93-2.1,6.01
			c-0.17,2.77,0.12,5.55,0.19,8.32c0.1,3.79-0.35,7.62-0.47,11.41c-0.29,9.02-0.17,18.04-0.14,27.05
			c0.03,8.86-0.04,17.73-0.63,26.57c-0.11,1.61,2.39,1.6,2.5,0c1.35-20.25-0.11-40.56,1.09-60.81c0.19-3.11,0.03-6.14-0.07-9.25
			c-0.06-1.97-0.52-6.24,1.44-7.59c1.03-0.71,2.76-0.66,3.94-1.07c1.7-0.59,3.32-1.4,4.84-2.35c3.23-2.01,6.11-4.57,8.8-7.25
			c5.18-5.16,10.11-10.53,15.44-15.54c3.09-2.9,6.37-5.6,9.4-8.57c1.95-1.91,3.41-4.13,4.69-6.53c3.1-5.81,6.12-11.85,8.14-18.13
			c1.66-5.19,2.02-10.55,2.21-15.96c0.31-8.58,1.01-16.96,2.4-25.44c1.35-8.28,2.83-16.59,2.84-25.02c0-4.33-0.39-8.66-1.19-12.91
			c-0.71-3.74-1.45-7.72-3.74-10.85c-4.12-5.62-11.23-8.97-18.16-8.87c-3.97,0.05-7.95,1.24-11.32,3.35
			c-2.34,1.46-3.95,3.44-5.37,5.77c-0.93,1.53-1.85,3.06-2.87,4.53c-0.75,1.07-1.57,2.05-2.18,3.21c-1.2,2.28-2.15,4.7-3.07,7.1
			c-1.02,2.65-2.01,5.35-2.66,8.12c-0.7,3.01-0.08,6.15-0.02,9.21c0.17,8.54-1.06,16.94-2.24,25.38c-0.89,6.34-0.38,12.7-0.68,19.08
			c-0.14,2.97-0.33,6.21-1.52,8.98c-0.86,2-2.44,3.75-3.52,5.65c-2.85,4.99-5.23,10.63-9.14,14.91c-0.96,1.06-2.65,2.84-4.26,2.07
			c0.21,0.36,0.41,0.72,0.62,1.08c-1.92-14.75,0.35-29.71-0.34-44.52c-0.17-3.6-0.96-7.28-0.64-10.86c0.34-3.76,1.03-7.48,1.65-11.2
			c0.59-3.53,1.16-7.09,1.39-10.67c0.21-3.41-0.27-6.49-0.74-9.83c-0.48-3.48-0.06-7.3,0.12-10.79c0.2-3.85,0.52-7.68,0.9-11.52
			c0.74-7.52,1.73-15.02,2.59-22.53c0.39-3.44,0.76-6.88,1.04-10.33c0.14-1.68,0.4-3.43,0.35-5.11c-0.06-2.06-0.49-4.17-0.67-6.22
			c-0.63-7.16-0.77-14.33-1.05-21.51c-0.2-5.16-0.33-10.57-1.83-15.55c-0.55-1.83-1.33-3.61-2.53-5.11
			c-0.66-0.83-1.48-1.52-2.17-2.33c-0.97-1.14-1.78-2.41-2.52-3.71c-2.69-4.71-4.59-10.29-9.28-13.47
			c-4.82-3.26-11.06-3.23-16.26-0.98c-5.89,2.54-10.67,7.27-14.84,12.02c-4.38,5-9.02,10.28-10.68,16.87
			c-1.64,6.51-0.84,13.27-0.49,19.88c0.18,3.48,0.28,7.01-0.25,10.46c-0.56,3.62-1.24,7.21-1.76,10.83
			c-1.12,7.74-1.86,15.57-1.4,23.39c0.24,4.04,0.88,7.93,0.71,12c-0.08,1.98-0.17,3.97,0.05,5.95c0.23,2.11,0.64,4.2,0.86,6.32
			c1.77,16.59-0.78,33.26,0.53,49.87c0.31,3.93,0.84,7.83,1.64,11.69c0.19-0.47,0.38-0.94,0.57-1.41
			c-4.77,2.96-9.03-6.68-10.52-9.71c-1.58-3.2-2.96-6.5-4.34-9.8c-1.39-3.31-3.13-6.58-4.22-10c-1.61-5.06-1.75-10.36-1.54-15.62
			c0.19-4.99,0.55-9.98,0.83-14.97c0.56-9.98,0.96-20.06-0.3-30.01c-1.18-9.3-3.93-18.21-9.26-26c-4.43-6.47-11.22-12.47-19.59-9.8
			c-8.7,2.77-12.52,11-15.32,19c-2.91,8.31-4.94,16.65-5.1,25.5c-0.08,4.75,0.23,9.5,0.62,14.23c0.45,5.48,0.91,10.95,1.96,16.35
			c0.52,2.71,1.11,5.41,1.57,8.13c0.5,2.94,0.67,5.86,0.86,8.83c0.35,5.3,1.35,10.54,2.78,15.65c1.5,5.36,3.41,10.64,5.52,15.79
			c1.6,3.9,3.43,7.75,5.87,11.21c1.31,1.85,2.8,3.49,4.41,5.09c2.6,2.58,5.01,5.3,7.29,8.15c3.31,4.14,8.55,5.79,13.45,7.37
			c3.32,1.07,6.79,0.98,10.24,1.08c3.79,0.11,7.67,0.06,11.43,0.59c0.66,0.09,1.65,0.31,2.08,0.5c0.5,0.23,0.62,0.42,0.84,0.73
			c0.15,0.22,0.27,0.45,0.4,0.67c0.17,0.29,0.34,0.7,0.29,0.51c0.09,0.34,0.08,1.36,0.06,2.01c-0.12,5.86-0.86,11.71-1.39,17.54
			c-0.68,7.5,0.41,15.11,0.79,22.62c0.48,9.54,0.73,19.1,0.61,28.65c-0.11,8-0.89,16.02-0.71,24.01c0.1,4.6,0.34,9.17,0.25,13.78
			c-0.09,4.66-0.34,9.32-0.63,13.98C116.23,365.69,118.73,365.69,118.83,364.09L118.83,364.09z"/>
	</g>
</g>
<path class="st1" d="M144.17,37.18c0-0.65,0.51,9.7,0.47,15.74c-0.09,12.84-0.19,25.83-3.34,38.27c-2.6,10.29-7.28,20.85-4.54,31.1
	c1.14,4.23,3.48,8.04,5.02,12.14c2.98,7.93,2.88,16.64,2.62,25.11c-1.09,36.05-4.18,72.16-1.53,108.13
	c0.94,12.8,2.62,25.6,2.13,38.42c-0.34,9-1.44,19.17-2.19,27.91c-0.78,9.02-0.06,27.62-0.06,31.11"/>
<path class="st1" d="M144.45,35.89c8.22-0.24,11.27,12.01,12.38,19.77s0.39,15.66,0.38,23.5c-0.02,15.92,2.9,31.78,2.34,47.69
	c-0.5,14.18-3.77,28.21-3.63,42.4c0.13,13.47,3.34,26.81,2.94,40.28c-0.33,10.96-3.05,21.86-2.13,32.79c0.34,4.01,1.16,8.11,0.12,12
	c-0.76,2.85-2.48,5.92-1.1,8.53c1.67,3.14,6.32,2.74,9.6,1.36c9.45-4,16.48-12.19,22.02-20.83c13.12-20.47,19.71-45.06,18.58-69.35
	c-0.23-4.85-0.75-9.73-0.13-14.55c0.62-4.82,2.53-9.69,6.32-12.73c1.9-1.53,4.37-2.75,5.1-5.08c0.38-1.2,0.21-2.5,0.51-3.72
	c0.29-1.22,2.07-4.84,3.3-4.58"/>
<path class="st1" d="M221.03,133.37c6.85,1.23,2.2,17.74,1.03,25.41c-1.17,7.67-3.5,15.13-4.74,22.79
	c-2.14,13.24-0.99,26.77-1.45,40.17c-0.09,2.67-0.26,5.4-1.33,7.85c-2.02,4.61-6.88,7.46-9.02,12.02
	c-1.77,3.76-1.55,8.43-4.15,11.67c-1.68,2.09-4.29,3.24-6.13,5.19c-1.45,1.53-2.36,3.49-3.55,5.23
	c-6.34,9.29-19.44,11.36-27.21,19.5c-5.42,5.68-7.65,13.77-7.99,21.61c-0.34,7.84,0.99,15.65,1.73,23.46
	c1.1,11.54,2.95,24.61,2.52,35.82"/>
<path class="st1" d="M67.99,88.82c-12.83,4.14-7.26,33.42-7.21,50.56c0.01,4.43,0.03,8.86,0.04,13.29
	c0.03,10.13,0.22,20.87,5.61,29.45c2.52,4.01,6.14,7.5,7.3,12.1c1.1,4.37-0.06,9.57,2.85,13.02c1.94,2.29,5.19,3.08,7.28,5.24
	c1.6,1.64,2.36,3.91,3.69,5.77c1.29,1.81,3.08,3.21,4.84,4.57c6.94,5.38,14.47,10.99,23.24,11.48c1.65,0.09,3.45,0.04,4.77,1.05
	c0.84,0.64,1.33,1.62,1.8,2.56c3.55,7.1,7.14,14.34,8.31,22.19c0.91,6.13,0.31,12.37-0.37,18.52c-1.21,10.97-2.65,21.92-4.32,32.83
	c-0.56,3.63-1.14,7.34-0.53,10.97c0.46,2.77,1.6,5.39,2.14,8.15c2.04,10.4-1.04,23.82-1.38,34.57"/>
<path class="st1" d="M144.45,35.89c-3.97,0-3.73,2.34-4.9,4.7c-0.45,0.91-1.52,1.4-1.96,2.32c-0.47,0.96-0.53,2.07-0.76,3.11
	c-1,4.57-5.05,7.8-7.07,12.02c-1.96,4.1-1.89,8.84-1.86,13.39c0.08,11.6-0.39,23.35-3.61,34.5c-1.51,5.24-3.65,10.64-2.55,15.98
	c0.8,3.86,3.22,7.17,4.61,10.86c1.53,4.05,1.78,8.45,1.96,12.77c0.29,7.03,0.41,14.06,0.53,21.09c0.19,11.11,0.38,22.22,0.58,33.33
	c0.07,3.79,0.12,7.65-0.92,11.3c-1.05,3.65-3.38,7.11-6.87,8.6c-6.23,2.65-13.1-1.74-18.13-6.27c-5.01-4.52-9.66-9.43-13.91-14.67
	c-1.83-2.26-3.6-4.61-4.77-7.27c-1.47-3.36-1.91-7.06-2.34-10.7c-1.95-16.63-3.9-33.3-3.93-50.04c-0.01-4.26,0.1-8.6-1.08-12.69
	c-1.3-4.49-4.14-8.64-4.12-13.31c0.02-2.9,1.16-5.72,1.04-8.61c-0.12-2.89-4.41-8.53-7.8-6.89"/>
<g>
	<g>
		<path class="st2" d="M56.31,104.56c0.16,0.17,0.32,0.35,0.47,0.53c0.08,0.09,0.15,0.18,0.22,0.27c0.05,0.06,0.31,0.34,0.08,0.09
			c0.31,0.32,0.56,0.78,0.8,1.16c0.25,0.4,0.47,0.81,0.68,1.23c0.1,0.21,0.2,0.42,0.3,0.64c0.05,0.13,0.05,0.11-0.02-0.06
			c0.02,0.05,0.04,0.11,0.07,0.16c0.04,0.11,0.09,0.22,0.13,0.33c0.18,0.48,0.51,0.82,1.04,0.9c0.51,0.07,0.96-0.17,1.25-0.6
			c1.2-1.78,1.57-3.98,1.19-6.08c-0.12-0.64-0.94-1.07-1.54-0.87c-0.69,0.22-1,0.85-0.87,1.54c0.01,0.06,0.02,0.11,0.03,0.17
			c0.02,0.14,0.02,0.11-0.01-0.08c0.04,0.02,0.03,0.29,0.03,0.34c0.01,0.2,0.02,0.4,0.02,0.59c0,0.23-0.02,0.45-0.04,0.68
			c-0.02,0.26,0.05-0.27,0,0c-0.02,0.11-0.04,0.22-0.06,0.33c-0.04,0.19-0.09,0.39-0.15,0.58c-0.03,0.11-0.07,0.22-0.11,0.32
			c-0.02,0.05-0.04,0.11-0.06,0.16c-0.05,0.13-0.04,0.11,0.03-0.06c-0.04,0.18-0.17,0.38-0.26,0.54c-0.11,0.2-0.23,0.39-0.35,0.58
			c0.76,0.1,1.52,0.2,2.28,0.3c-0.76-2.03-1.88-3.87-3.36-5.46c-0.45-0.48-1.32-0.49-1.77,0C55.83,103.31,55.83,104.05,56.31,104.56
			L56.31,104.56z"/>
	</g>
</g>
<g>
	<g>
		<path class="st2" d="M57.43,135.9c0.14,0.04,0.29,0.08,0.43,0.13c0.01,0,0.19,0.07,0.19,0.07c-0.16-0.07-0.2-0.08-0.11-0.05
			c0.04,0.02,0.07,0.03,0.11,0.05c0.27,0.13,0.52,0.29,0.76,0.46c0.18,0.13-0.14-0.12-0.03-0.02c0.05,0.05,0.1,0.09,0.15,0.13
			c0.12,0.11,0.24,0.22,0.34,0.34c0.05,0.05,0.09,0.1,0.13,0.15c0.12,0.15,0.02,0.07-0.02-0.03c0.06,0.14,0.19,0.27,0.27,0.41
			c0.36-0.63,0.72-1.25,1.08-1.88c-0.32,0.02-0.63,0.03-0.95,0.05c0.42,0.42,0.83,0.83,1.25,1.25c-0.01-0.45,0.01-0.89,0.05-1.34
			c0.01-0.09,0.01-0.2,0.03-0.29c-0.09,0.34,0.01-0.07,0.02-0.14c0.03-0.21,0.07-0.41,0.12-0.61c0.09-0.42,0.21-0.84,0.34-1.25
			c0.07-0.21,0.15-0.42,0.23-0.63c0.12-0.3-0.11,0.24,0.02-0.05c0.05-0.12,0.11-0.23,0.16-0.35c0.28-0.59,0.18-1.38-0.45-1.71
			c-0.56-0.29-1.41-0.18-1.71,0.45c-0.88,1.85-1.35,3.86-1.33,5.92c0.01,0.65,0.57,1.29,1.25,1.25c0.32-0.02,0.63-0.03,0.95-0.05
			c0.92-0.05,1.59-1.03,1.08-1.88c-0.82-1.37-2.17-2.39-3.72-2.79c-0.63-0.16-1.39,0.21-1.54,0.87
			C56.41,135.01,56.75,135.72,57.43,135.9L57.43,135.9z"/>
	</g>
</g>
<g>
	<g>
		<path class="st2" d="M57.38,157.8c0.13,0.07,0.25,0.14,0.37,0.22c0.07,0.05,0.14,0.09,0.2,0.14c0.19,0.13-0.22-0.18-0.06-0.04
			c0.23,0.19,0.45,0.39,0.65,0.62c0.05,0.05,0.1,0.11,0.14,0.16c0.03,0.03,0.05,0.06,0.08,0.1c-0.13-0.16-0.16-0.21-0.1-0.13
			c0.08,0.12,0.17,0.24,0.25,0.36c0.16,0.25,0.3,0.52,0.41,0.8c-0.04-0.1-0.08-0.2-0.13-0.3c0.17,0.42,0.3,0.86,0.36,1.31
			c-0.01-0.11-0.03-0.22-0.04-0.33c0.01,0.06,0.02,0.12,0.02,0.18c0.04,0.34,0.12,0.63,0.37,0.88c0.22,0.22,0.57,0.38,0.88,0.37
			c0.32-0.01,0.66-0.12,0.88-0.37c0.21-0.23,0.4-0.56,0.37-0.88c-0.12-1.09-0.44-2.14-1.05-3.06c-0.6-0.9-1.39-1.67-2.35-2.19
			c-0.57-0.31-1.39-0.16-1.71,0.45C56.62,156.68,56.76,157.47,57.38,157.8L57.38,157.8z"/>
	</g>
</g>
<g>
	<g>
		<path class="st2" d="M67.55,185.29c0.02-0.23,0.04-0.47,0.08-0.69c-0.05,0.31,0,0.01,0.01-0.06c0.02-0.13,0.04-0.26,0.06-0.39
			c0.07-0.43,0.15-0.85,0.25-1.27c0.2-0.88,0.46-1.74,0.76-2.58c0.22-0.62-0.25-1.4-0.87-1.54c-0.7-0.16-1.3,0.21-1.54,0.87
			c-0.66,1.83-1.06,3.74-1.25,5.67c-0.06,0.65,0.62,1.28,1.25,1.25C67.03,186.51,67.48,185.99,67.55,185.29L67.55,185.29z"/>
	</g>
</g>
<g>
	<g>
		<path class="st2" d="M73.64,210.64c0.95,0.27,1.88,0.58,2.79,0.95c0.11,0.04,0.21,0.08,0.32,0.13c0.06,0.02,0.32,0.13,0.12,0.05
			c0.24,0.1,0.49,0.21,0.73,0.32c0.45,0.2,0.89,0.42,1.33,0.65c0.8,0.41,1.92-0.08,1.88-1.08c-0.04-0.87-0.02-1.74,0.06-2.61
			c0.02-0.21,0.04-0.42,0.07-0.63c-0.03,0.23,0.01-0.06,0.02-0.13c0.01-0.1,0.03-0.19,0.05-0.29c0.07-0.44,0.16-0.87,0.27-1.31
			c0.15-0.63-0.2-1.38-0.87-1.54c-0.64-0.15-1.38,0.19-1.54,0.87c-0.44,1.84-0.63,3.74-0.55,5.63c0.63-0.36,1.25-0.72,1.88-1.08
			c-1.88-0.97-3.85-1.76-5.88-2.34c-0.63-0.18-1.39,0.22-1.54,0.87C72.62,209.77,72.97,210.45,73.64,210.64L73.64,210.64z"/>
	</g>
</g>
<g>
	<g>
		<path class="st2" d="M72.99,123.94c1.33,2.11,2.95,4.04,4.83,5.68c0.31,0.27,0.64,0.4,1.05,0.34c0.36-0.05,0.75-0.25,0.91-0.6
			c0.77-1.64,1.14-3.44,0.96-5.25c-0.06-0.65-0.53-1.28-1.25-1.25c-0.62,0.03-1.32,0.55-1.25,1.25c0.04,0.39,0.05,0.77,0.04,1.16
			c-0.01,0.18-0.02,0.35-0.03,0.53c0,0.04-0.04,0.36-0.02,0.17c0.02-0.19-0.02,0.13-0.03,0.17c-0.06,0.37-0.15,0.73-0.26,1.08
			c-0.06,0.18-0.12,0.37-0.19,0.55c-0.01,0.03-0.12,0.29-0.05,0.12c0.07-0.17-0.08,0.17-0.09,0.2c0.65-0.08,1.31-0.17,1.96-0.25
			c-0.89-0.77-1.72-1.61-2.49-2.5c-0.19-0.22-0.37-0.44-0.55-0.66c-0.04-0.05-0.08-0.1-0.12-0.15c-0.19-0.24,0.1,0.13-0.01-0.01
			c-0.09-0.11-0.17-0.23-0.26-0.34c-0.36-0.49-0.7-0.99-1.02-1.5c-0.35-0.55-1.13-0.82-1.71-0.45
			C72.89,122.59,72.62,123.35,72.99,123.94L72.99,123.94z"/>
	</g>
</g>
<g>
	<g>
		<path class="st2" d="M76.33,167.69c0.77,1.43,1.54,2.87,2.31,4.3c0.24,0.44,0.77,0.66,1.25,0.6c0.45-0.06,0.96-0.41,1.04-0.9
			c0.09-0.55,0.24-1.09,0.44-1.61c0.01-0.02,0.05-0.17,0.07-0.17c-0.04,0.01-0.1,0.24,0,0c0.06-0.13,0.12-0.25,0.18-0.38
			c0.13-0.25,0.27-0.49,0.42-0.72c0.07-0.1,0.14-0.21,0.21-0.31c0-0.01,0.18-0.25,0.07-0.1c-0.1,0.13,0.03-0.03,0.05-0.06
			c0.18-0.22,0.36-0.42,0.56-0.62c0.2-0.2,0.4-0.39,0.62-0.56c0.02-0.02,0.05-0.04,0.07-0.06c0.07-0.06,0.05-0.04-0.07,0.05
			c0.01-0.03,0.12-0.09,0.15-0.11c0.13-0.09,0.25-0.18,0.39-0.26c0.55-0.35,0.82-1.13,0.45-1.71c-0.35-0.55-1.12-0.83-1.71-0.45
			c-2.23,1.43-3.87,3.78-4.31,6.4c0.76-0.1,1.52-0.2,2.28-0.3c-0.77-1.43-1.54-2.87-2.31-4.3c-0.31-0.58-1.16-0.81-1.71-0.45
			C76.19,166.35,75.99,167.07,76.33,167.69L76.33,167.69z"/>
	</g>
</g>
<g>
	<g>
		<path class="st2" d="M91.82,208.21c0.86,0.16,1.72,0.38,2.56,0.65c0.42,0.14,0.83,0.29,1.24,0.45c0.06,0.02,0.22,0.06,0.26,0.11
			c-0.15-0.07-0.17-0.07-0.04-0.02c0.06,0.02,0.12,0.05,0.17,0.08c0.2,0.09,0.4,0.18,0.6,0.28c-0.19-0.47-0.38-0.94-0.57-1.41
			c0.03-0.08,0.07-0.15,0.1-0.23c0.15-0.15,0.3-0.3,0.45-0.45c-0.01,0-0.02,0.01-0.03,0.01c0.21-0.06,0.42-0.11,0.63-0.17
			c0.31-0.01,0.66,0.16,0.82,0.43c0.05,0.09,0.09,0.18,0.1,0.29c0.02,0.12,0.02,0.12,0.01-0.01c0-0.17-0.02-0.33-0.03-0.5
			c-0.02-0.38-0.05-0.76-0.07-1.15c-0.05-0.75-0.1-1.49-0.14-2.24c-0.04-0.65-0.55-1.28-1.25-1.25c-0.64,0.03-1.29,0.55-1.25,1.25
			c0.07,1.08,0.14,2.16,0.21,3.24c0.04,0.7,0.01,1.41,0.53,1.95c0.27,0.29,0.67,0.48,1.08,0.48c0.58,0,1.16-0.42,1.28-1.01
			c0.1-0.51-0.06-1.16-0.57-1.41c-1.72-0.82-3.52-1.44-5.39-1.8c-0.64-0.12-1.38,0.18-1.54,0.87
			C90.8,207.29,91.13,208.08,91.82,208.21L91.82,208.21z"/>
	</g>
</g>
<g>
	<g>
		<path class="st2" d="M99.9,231.84c0.87-0.06,1.75-0.07,2.62,0c0.2,0.01,0.4,0.03,0.6,0.05c0.12,0.01,0.23,0.03,0.35,0.04
			c0.09,0.01,0.07,0.01-0.08-0.01c0.07,0.01,0.13,0.02,0.2,0.03c0.43,0.07,0.86,0.15,1.29,0.25c0.64,0.15,1.38-0.2,1.54-0.87
			c0.15-0.64-0.19-1.38-0.87-1.54c-1.85-0.42-3.76-0.59-5.65-0.45c-0.65,0.05-1.28,0.54-1.25,1.25
			C98.67,231.22,99.2,231.89,99.9,231.84L99.9,231.84z"/>
	</g>
</g>
<g>
	<g>
		<path class="st2" d="M130.74,48.96c0.16,0.15,0.31,0.31,0.44,0.48c-0.07-0.08-0.13-0.17-0.2-0.25c0.2,0.27,0.37,0.56,0.5,0.87
			c-0.04-0.1-0.08-0.2-0.13-0.3c0.13,0.31,0.21,0.64,0.26,0.97c-0.01-0.11-0.03-0.22-0.04-0.33c0.04,0.33,0.04,0.67,0,1
			c0.01-0.11,0.03-0.22,0.04-0.33c-0.01,0.08-0.02,0.16-0.04,0.23c-0.12,0.62,0.13,1.22,0.72,1.47c0.55,0.23,1.27,0.04,1.56-0.51
			c0.15-0.29,0.32-0.56,0.52-0.81c-0.07,0.08-0.13,0.17-0.2,0.25c0.27-0.35,0.59-0.66,0.94-0.94c-0.08,0.07-0.17,0.13-0.25,0.2
			c0.37-0.28,0.77-0.52,1.19-0.7c-0.1,0.04-0.2,0.08-0.3,0.13c0.04-0.02,0.07-0.03,0.11-0.05c0.31-0.12,0.57-0.27,0.75-0.57
			c0.16-0.27,0.22-0.66,0.13-0.96c-0.1-0.3-0.29-0.59-0.57-0.75c-0.28-0.15-0.66-0.25-0.96-0.13c-0.8,0.32-1.49,0.73-2.13,1.3
			c-0.55,0.5-1.03,1.11-1.37,1.77c0.76,0.32,1.52,0.64,2.28,0.96c0.34-1.72-0.18-3.57-1.49-4.77c-0.48-0.44-1.3-0.51-1.77,0
			C130.3,47.67,130.22,48.49,130.74,48.96L130.74,48.96z"/>
	</g>
</g>
<g>
	<g>
		<path class="st2" d="M123.65,76.97c-0.39-0.16-0.11-0.04-0.02,0c0.07,0.04,0.14,0.08,0.21,0.12c0.07,0.04,0.14,0.09,0.2,0.13
			c0.19,0.13-0.22-0.19-0.06-0.05c0.12,0.11,0.24,0.21,0.36,0.33c0.06,0.06,0.11,0.12,0.16,0.18c0.15,0.17-0.19-0.26-0.03-0.03
			c0.09,0.12,0.17,0.25,0.25,0.39c0.04,0.07,0.08,0.14,0.11,0.22c0.02,0.04,0.03,0.07,0.05,0.11c-0.08-0.2-0.1-0.25-0.07-0.16
			c0.11,0.3,0.2,0.6,0.25,0.92c-0.01-0.11-0.03-0.22-0.04-0.33c0.04,0.32,0.05,0.65,0.01,0.97c0.01-0.11,0.03-0.22,0.04-0.33
			c-0.02,0.16-0.05,0.32-0.1,0.48c-0.16,0.6,0.16,1.23,0.72,1.47c0.55,0.23,1.27,0.04,1.56-0.51c0.74-1.42,1.48-2.85,2.23-4.27
			c0.3-0.58,0.17-1.38-0.45-1.71c-0.58-0.3-1.39-0.17-1.71,0.45c-0.74,1.42-1.48,2.85-2.23,4.27c0.76,0.32,1.52,0.64,2.28,0.96
			c0.33-1.22,0.14-2.49-0.41-3.61c-0.25-0.5-0.6-0.98-1-1.36c-0.49-0.48-1.04-0.79-1.67-1.05c-0.28-0.12-0.72-0.02-0.96,0.13
			c-0.26,0.15-0.51,0.45-0.57,0.75c-0.07,0.32-0.06,0.68,0.13,0.96C123.1,76.69,123.34,76.84,123.65,76.97L123.65,76.97z"/>
	</g>
</g>
<g>
	<g>
		<path class="st2" d="M123.83,109.51c-0.06-0.12-0.12-0.24-0.17-0.36c-0.02-0.04-0.15-0.35-0.03-0.07
			c-0.09-0.22-0.18-0.44-0.26-0.66c-0.15-0.43-0.29-0.86-0.4-1.3s-0.21-0.88-0.28-1.33c-0.02-0.12-0.05-0.29-0.01-0.07
			c-0.02-0.13-0.03-0.27-0.05-0.4c-0.02-0.23-0.04-0.47-0.05-0.7c-0.04-0.65-0.55-1.28-1.25-1.25c-0.65,0.03-1.29,0.55-1.25,1.25
			c0.12,2.15,0.66,4.22,1.59,6.16c0.28,0.59,1.17,0.79,1.71,0.45C123.99,110.83,124.14,110.15,123.83,109.51L123.83,109.51z"/>
	</g>
</g>
<g>
	<g>
		<path class="st2" d="M122.05,139.04c0.22,0.11,0.42,0.24,0.63,0.38c0.11,0.08,0.1,0.07-0.03-0.03c0.05,0.04,0.1,0.08,0.14,0.12
			c0.07,0.06,0.14,0.12,0.2,0.18c0.17,0.16,0.36,0.34,0.5,0.54c-0.18-0.28,0.04,0.07,0.07,0.12c0.06,0.09,0.12,0.18,0.17,0.27
			c0.05,0.09,0.1,0.19,0.15,0.28c0.04,0.07,0.25,0.39,0.06,0.12c0.12,0.17,0.16,0.46,0.21,0.66c0.03,0.1,0.05,0.21,0.07,0.31
			c0.01,0.06,0.02,0.12,0.03,0.18c-0.02-0.18-0.03-0.2-0.01-0.06c0.01,0.25,0.02,0.49,0.01,0.74c-0.06,1.07,1.42,1.67,2.13,0.88
			c1.39-1.53,2.61-3.22,3.58-5.05c0.31-0.58,0.16-1.39-0.45-1.71c-0.58-0.31-1.38-0.17-1.71,0.45c-0.46,0.85-0.96,1.67-1.51,2.46
			c-0.13,0.18-0.26,0.36-0.39,0.54c-0.04,0.06-0.09,0.12-0.13,0.18c0.07-0.09,0.08-0.1,0.03-0.03c-0.08,0.1-0.16,0.2-0.24,0.3
			c-0.3,0.37-0.62,0.74-0.94,1.09c0.71,0.29,1.42,0.59,2.13,0.88c0.13-2.42-1.28-4.88-3.45-5.98c-0.58-0.3-1.38-0.17-1.71,0.45
			C121.3,137.9,121.43,138.72,122.05,139.04L122.05,139.04z"/>
	</g>
</g>
<g>
	<g>
		<path class="st2" d="M124.07,164.95c0.31,0.77,0.62,1.54,0.93,2.31c0.16,0.38,0.31,0.77,0.47,1.15c0.2,0.49,0.35,1.04,0.72,1.43
			c0.51,0.54,1.33,0.66,1.98,0.29c0.42-0.24,0.71-0.63,0.92-1.05c0.38-0.75,0.76-1.49,1.14-2.24c0.3-0.58,0.17-1.38-0.45-1.71
			c-0.57-0.3-1.39-0.17-1.71,0.45c-0.27,0.52-0.54,1.05-0.8,1.57c-0.13,0.25-0.25,0.5-0.38,0.75c-0.03,0.05-0.05,0.1-0.08,0.15
			c-0.02,0.03-0.15,0.21-0.01,0.03c0.15-0.2,0,0.01-0.03,0.01c0.05-0.04,0.11-0.08,0.16-0.13c0.22-0.08,0.27-0.1,0.15-0.07
			c0.11-0.01,0.22-0.03,0.33-0.04c-0.04,0.01-0.07,0-0.11,0c0.11,0.01,0.22,0.03,0.33,0.04c0.13,0.04,0.25,0.11,0.34,0.21
			c0.13,0.18,0.15,0.21,0.09,0.1c-0.12-0.21,0.13,0.33,0.01,0.04c-0.08-0.19-0.16-0.38-0.23-0.58c-0.15-0.37-0.3-0.74-0.45-1.11
			c-0.31-0.76-0.61-1.51-0.92-2.27c-0.13-0.31-0.27-0.57-0.57-0.75c-0.27-0.16-0.66-0.22-0.96-0.13c-0.3,0.1-0.59,0.29-0.75,0.57
			C124.05,164.27,123.95,164.65,124.07,164.95L124.07,164.95z"/>
	</g>
</g>
<g>
	<g>
		<path class="st2" d="M141.35,65.99c0.17-0.01,0.33-0.01,0.5,0.01c-0.11-0.01-0.22-0.03-0.33-0.04c0.21,0.03,0.41,0.09,0.6,0.16
			c-0.1-0.04-0.2-0.08-0.3-0.13c0.2,0.08,0.38,0.18,0.56,0.31c0.09,0.06,0.2,0.2-0.05-0.04c0.03,0.03,0.07,0.06,0.1,0.08
			c0.09,0.08,0.17,0.16,0.25,0.25c0.04,0.04,0.07,0.08,0.11,0.12c0.14,0.16-0.14-0.2-0.06-0.08c0.07,0.09,0.13,0.19,0.19,0.29
			c0.13,0.21,0.24,0.43,0.34,0.66c-0.04-0.1-0.08-0.2-0.13-0.3c0.26,0.62,0.41,1.27,0.55,1.92c0.13,0.61,0.79,0.97,1.37,0.9
			c0.59-0.08,1.1-0.6,1.08-1.23c-0.03-1.02,0-2.04,0.1-3.05c0.03-0.3-0.16-0.68-0.37-0.88c-0.22-0.22-0.57-0.38-0.88-0.37
			c-0.32,0.01-0.66,0.12-0.88,0.37c-0.24,0.26-0.33,0.54-0.37,0.88c-0.1,1.01-0.13,2.03-0.1,3.05c0.82-0.11,1.64-0.22,2.46-0.33
			c-0.27-1.25-0.65-2.48-1.46-3.49c-0.77-0.96-2.03-1.66-3.28-1.55c-0.34,0.03-0.64,0.12-0.88,0.37c-0.22,0.22-0.38,0.57-0.37,0.88
			C140.12,65.37,140.65,66.05,141.35,65.99L141.35,65.99z"/>
	</g>
</g>
<g>
	<g>
		<path class="st2" d="M137.73,90.32c0.17,0.49,0.31,0.99,0.39,1.5c0.01,0.05,0.01,0.12,0.03,0.17c-0.02-0.06-0.03-0.25-0.01-0.08
			c0.01,0.13,0.03,0.26,0.04,0.39c0.02,0.27,0.03,0.55,0.02,0.82c-0.01,0.53,0.39,1.09,0.92,1.21c0.22,0.05,0.44,0.05,0.66,0
			c0.27-0.06,0.63-0.32,0.75-0.57c0.09-0.2,0.19-0.39,0.3-0.57c0.05-0.09,0.11-0.17,0.17-0.26c0.03-0.05,0.07-0.09,0.1-0.14
			c0.09-0.12-0.19,0.23-0.05,0.06c0.14-0.17,0.28-0.33,0.44-0.48c0.07-0.07,0.15-0.14,0.23-0.21c0.08-0.07,0.39-0.28,0.06-0.06
			c0.35-0.24,0.7-0.46,1.09-0.64c0.14-0.06-0.28,0.11-0.08,0.03c0.05-0.02,0.11-0.04,0.16-0.06c0.1-0.03,0.19-0.07,0.29-0.09
			c0.22-0.06,0.44-0.11,0.67-0.15c0.29-0.05,0.61-0.33,0.75-0.57c0.16-0.27,0.22-0.66,0.13-0.96c-0.1-0.3-0.29-0.59-0.57-0.75
			c-0.32-0.17-0.61-0.18-0.96-0.13c-2.07,0.32-4,1.8-4.86,3.71c0.78,0.21,1.55,0.42,2.33,0.63c0.02-1.17-0.17-2.36-0.56-3.47
			c-0.22-0.61-0.86-1.09-1.54-0.87C137.99,88.97,137.49,89.66,137.73,90.32L137.73,90.32z"/>
	</g>
</g>
<g>
	<g>
		<path class="st2" d="M136.9,126.77c0.3-0.18,0.59-0.36,0.89-0.54c0.46-0.28,0.74-0.88,0.57-1.41c-0.48-1.51-1.59-2.86-3.06-3.49
			c-0.32-0.14-0.61-0.22-0.96-0.13c-0.29,0.08-0.6,0.3-0.75,0.57c-0.15,0.29-0.23,0.64-0.13,0.96c0.09,0.29,0.28,0.62,0.57,0.75
			c0.35,0.15,0.67,0.34,0.97,0.57c-0.08-0.07-0.17-0.13-0.25-0.2c0.3,0.23,0.56,0.5,0.8,0.79c-0.07-0.08-0.13-0.17-0.2-0.25
			c0.24,0.31,0.44,0.65,0.59,1.01c-0.04-0.1-0.08-0.2-0.13-0.3c0.05,0.12,0.09,0.24,0.13,0.37c0.19-0.47,0.38-0.94,0.57-1.41
			c-0.3,0.18-0.59,0.36-0.89,0.54c-0.27,0.16-0.49,0.44-0.57,0.75c-0.08,0.3-0.05,0.7,0.13,0.96
			C135.55,126.89,136.3,127.14,136.9,126.77L136.9,126.77z"/>
	</g>
</g>
<g>
	<g>
		<path class="st2" d="M144.46,158.26c1.76-1.41,3.22-3.21,4.27-5.21c0.3-0.58,0.17-1.39-0.45-1.71c-0.58-0.3-1.39-0.17-1.71,0.45
			c-0.25,0.47-0.52,0.93-0.81,1.37c-0.15,0.22-0.3,0.44-0.46,0.65c-0.04,0.06-0.08,0.11-0.13,0.17c-0.1,0.13,0.01,0.01,0.04-0.05
			c-0.06,0.12-0.18,0.23-0.26,0.33c-0.68,0.82-1.44,1.57-2.27,2.23c-0.23,0.19-0.37,0.6-0.37,0.88c0,0.31,0.14,0.67,0.37,0.88
			c0.24,0.22,0.55,0.38,0.88,0.37C143.93,158.61,144.19,158.48,144.46,158.26L144.46,158.26z"/>
	</g>
</g>
<g>
	<g>
		<path class="st2" d="M124.84,195.59c0.14,0.15,0.27,0.3,0.4,0.46c-0.14-0.17-0.01-0.01,0.05,0.07c0.05,0.07,0.1,0.14,0.14,0.21
			c0.21,0.33,0.4,0.67,0.58,1.01c0.08,0.17,0.16,0.34,0.24,0.51c0.05,0.11,0.08,0.19,0.02,0.03c0.04,0.09,0.08,0.19,0.12,0.29
			c0.15,0.38,0.29,0.76,0.44,1.15c0.18,0.48,0.52,0.82,1.04,0.9c0.5,0.07,0.98-0.17,1.25-0.6c0.13-0.2,0.25-0.4,0.39-0.6
			c0.06-0.08,0.12-0.17,0.18-0.25c0.2-0.28-0.16,0.19,0.05-0.07c0.28-0.34,0.57-0.68,0.88-0.99c0.31-0.31,0.65-0.6,0.98-0.89
			c0.2-0.17-0.16,0.12,0.07-0.05c0.08-0.06,0.16-0.12,0.25-0.18c0.19-0.14,0.39-0.27,0.59-0.39c0.55-0.35,0.82-1.13,0.45-1.71
			c-0.36-0.55-1.12-0.82-1.71-0.45c-1.74,1.09-3.21,2.57-4.3,4.32c0.76,0.1,1.52,0.2,2.28,0.3c-0.64-1.73-1.32-3.47-2.62-4.83
			c-0.45-0.47-1.32-0.49-1.77,0C124.37,194.33,124.35,195.08,124.84,195.59L124.84,195.59z"/>
	</g>
</g>
<g>
	<g>
		<path class="st2" d="M120.92,215.43c0.89,1.39,2.14,2.55,3.62,3.28c0.3,0.15,0.63,0.22,0.96,0.13c0.29-0.08,0.6-0.3,0.75-0.57
			c0.15-0.29,0.23-0.64,0.13-0.96c-0.1-0.3-0.28-0.6-0.57-0.75c-0.48-0.23-0.93-0.51-1.35-0.84c0.08,0.07,0.17,0.13,0.25,0.2
			c-0.53-0.41-1-0.88-1.41-1.41c0.07,0.08,0.13,0.17,0.2,0.25c-0.15-0.19-0.28-0.39-0.41-0.59c-0.17-0.27-0.43-0.49-0.75-0.57
			c-0.3-0.08-0.7-0.05-0.96,0.13C120.82,214.07,120.54,214.84,120.92,215.43L120.92,215.43z"/>
	</g>
</g>
<g>
	<g>
		<path class="st2" d="M140.27,182.36c0.93,0.92,1.97,1.74,3.06,2.45c0.52,0.34,1.44,0.15,1.71-0.45c0.35-0.77,0.65-1.55,0.88-2.36
			c0.23-0.81,0.37-1.64,0.48-2.48c0.04-0.3-0.17-0.68-0.37-0.88c-0.22-0.22-0.57-0.38-0.88-0.37c-0.32,0.01-0.66,0.12-0.88,0.37
			c-0.24,0.26-0.32,0.54-0.37,0.88c-0.01,0.05-0.01,0.1-0.02,0.15c0.01-0.11,0.03-0.22,0.04-0.33c-0.17,1.28-0.51,2.52-1.01,3.71
			c0.04-0.1,0.08-0.2,0.13-0.3c-0.05,0.12-0.1,0.24-0.16,0.35c0.57-0.15,1.14-0.3,1.71-0.45c-0.25-0.16-0.49-0.33-0.73-0.5
			c-0.11-0.08-0.23-0.17-0.34-0.25c-0.22-0.16,0.23,0.18,0.01,0.01c-0.06-0.05-0.12-0.1-0.18-0.14c-0.46-0.37-0.9-0.76-1.32-1.17
			c-0.47-0.46-1.31-0.5-1.77,0C139.82,181.09,139.77,181.87,140.27,182.36L140.27,182.36z"/>
	</g>
</g>
<g>
	<g>
		<path class="st2" d="M137.51,215.28c0.74,1.85,1.64,3.63,2.79,5.25c0.41,0.58,0.91,1.08,1.68,1.05c0.8-0.02,1.28-0.6,1.67-1.22
			c0.58-0.91,1.15-1.81,1.73-2.72c0.35-0.55,0.13-1.4-0.45-1.71c-0.62-0.33-1.34-0.14-1.71,0.45c-0.48,0.75-0.95,1.5-1.43,2.25
			c-0.12,0.19-0.24,0.38-0.36,0.56c-0.05,0.07-0.23,0.28-0.01,0.04c-0.08,0.08-0.08,0.08,0.01,0.01c0.2-0.16,0.44-0.21,0.73-0.13
			c0.35,0.25,0.46,0.31,0.33,0.19c-0.03-0.03-0.06-0.05-0.08-0.09c0.11,0.14,0.13,0.17,0.07,0.09c-0.03-0.04-0.06-0.08-0.09-0.12
			c-0.11-0.17-0.23-0.33-0.34-0.5c-0.44-0.67-0.85-1.37-1.22-2.08c-0.18-0.34-0.35-0.69-0.51-1.04c-0.08-0.18-0.16-0.37-0.25-0.55
			c-0.04-0.08-0.03-0.06,0.03,0.07c-0.02-0.05-0.04-0.09-0.06-0.14c-0.04-0.11-0.09-0.22-0.13-0.33c-0.12-0.31-0.27-0.57-0.57-0.75
			c-0.27-0.16-0.66-0.22-0.96-0.13C137.8,213.93,137.25,214.63,137.51,215.28L137.51,215.28z"/>
	</g>
</g>
<g>
	<g>
		<path class="st2" d="M138.19,243.24c0.66,1.41,1.58,2.69,2.67,3.8c0.28,0.28,0.66,0.4,1.05,0.34c0.42-0.06,0.67-0.27,0.91-0.6
			c1.09-1.43,1.92-3.01,2.54-4.69c0.23-0.61-0.25-1.4-0.87-1.54c-0.71-0.16-1.29,0.22-1.54,0.87c-0.07,0.19-0.15,0.38-0.22,0.57
			c-0.05,0.13-0.04,0.11,0.03-0.06c-0.02,0.05-0.05,0.11-0.07,0.16c-0.04,0.08-0.07,0.16-0.11,0.24c-0.18,0.38-0.37,0.75-0.57,1.12
			c-0.4,0.72-0.85,1.41-1.35,2.07c0.65-0.08,1.31-0.17,1.96-0.25c-0.25-0.25-0.49-0.51-0.72-0.79c-0.06-0.08-0.13-0.15-0.19-0.23
			c-0.16-0.19,0.15,0.2-0.01-0.02c-0.1-0.14-0.2-0.27-0.3-0.41c-0.4-0.58-0.76-1.2-1.06-1.85c-0.28-0.59-1.18-0.79-1.71-0.45
			C138.03,241.92,137.9,242.61,138.19,243.24L138.19,243.24z"/>
	</g>
</g>
<g>
	<g>
		<path class="st2" d="M143.65,270.7c0.63-1.93-0.27-4.18-2-5.22c-0.56-0.34-1.4-0.14-1.71,0.45c-0.32,0.6-0.15,1.35,0.45,1.71
			c0.11,0.06,0.21,0.13,0.31,0.21c-0.08-0.07-0.17-0.13-0.25-0.2c0.21,0.16,0.39,0.35,0.56,0.56c-0.07-0.08-0.13-0.17-0.2-0.25
			c0.18,0.24,0.33,0.5,0.45,0.77c-0.04-0.1-0.08-0.2-0.13-0.3c0.11,0.28,0.19,0.57,0.24,0.86c-0.01-0.11-0.03-0.22-0.04-0.33
			c0.04,0.28,0.04,0.56,0,0.84c0.01-0.11,0.03-0.22,0.04-0.33c-0.03,0.19-0.07,0.38-0.13,0.56c-0.2,0.62,0.24,1.39,0.87,1.54
			C142.8,271.73,143.43,271.37,143.65,270.7L143.65,270.7z"/>
	</g>
</g>
<g>
	<g>
		<path class="st2" d="M123.16,250.03c0.06,0.01,0.13,0.01,0.19,0.02c-0.11-0.01-0.22-0.03-0.33-0.04c0.37,0.05,0.73,0.15,1.08,0.28
			c0.23,0.09-0.09-0.02-0.09-0.04c0,0.01,0.1,0.05,0.12,0.05c0.09,0.04,0.17,0.08,0.26,0.13c0.17,0.09,0.33,0.19,0.49,0.3
			c0.03,0.02,0.07,0.05,0.1,0.08c0.12,0.09-0.22-0.18-0.1-0.08c0.07,0.06,0.15,0.12,0.22,0.19c0.14,0.13,0.28,0.27,0.41,0.41
			c0.03,0.03,0.06,0.06,0.08,0.1c0.03,0.04,0.16,0.2,0.02,0.02c-0.14-0.18,0.04,0.06,0.07,0.11c0.11,0.17,0.22,0.34,0.31,0.52
			c0.24,0.47,0.91,0.74,1.41,0.57c0.56-0.18,0.86-0.63,0.92-1.21c0.14-1.3,0.28-2.61,0.41-3.91c0.03-0.3-0.16-0.68-0.37-0.88
			c-0.22-0.22-0.57-0.38-0.88-0.37c-0.32,0.01-0.66,0.12-0.88,0.37c-0.24,0.26-0.33,0.54-0.37,0.88c-0.14,1.3-0.28,2.61-0.41,3.91
			c0.78-0.21,1.55-0.42,2.33-0.63c-0.47-0.93-1.21-1.69-2.06-2.28c-0.87-0.6-1.88-0.91-2.92-1.01c-0.3-0.03-0.68,0.16-0.88,0.37
			c-0.22,0.22-0.38,0.57-0.37,0.88c0.01,0.32,0.12,0.66,0.37,0.88C122.54,249.9,122.81,250,123.16,250.03L123.16,250.03z"/>
	</g>
</g>
<g>
	<g>
		<path class="st2" d="M125.17,292c0.2,0.01,0.41,0.03,0.61,0.04c-0.4-0.31-0.8-0.61-1.21-0.92c0.49,1.43,1.18,2.79,2.1,3.99
			c0.28,0.36,0.6,0.62,1.08,0.62c0.4,0,0.91-0.23,1.08-0.62c0.17-0.39,0.37-0.76,0.61-1.11c0.03-0.05,0.29-0.39,0.09-0.14
			c0.06-0.08,0.12-0.15,0.19-0.23c0.14-0.16,0.28-0.31,0.44-0.46c0.15-0.15,0.31-0.29,0.47-0.42c0.25-0.21-0.21,0.14,0.06-0.04
			c0.09-0.06,0.19-0.13,0.28-0.19c0.18-0.11,0.36-0.22,0.55-0.32c0.09-0.05,0.18-0.08,0.26-0.13c0.13-0.06,0.12-0.05-0.03,0.01
			c0.06-0.02,0.12-0.05,0.18-0.07c0.61-0.24,1.1-0.85,0.87-1.54c-0.19-0.59-0.88-1.13-1.54-0.87c-2.01,0.78-3.72,2.26-4.59,4.26
			c0.72,0,1.44,0,2.16,0c-0.42-0.54-0.79-1.11-1.12-1.71c-0.15-0.28-0.3-0.57-0.43-0.87c-0.04-0.08-0.1-0.23-0.03-0.07
			c-0.03-0.07-0.06-0.14-0.08-0.21c-0.07-0.18-0.13-0.36-0.19-0.53c-0.19-0.56-0.63-0.88-1.21-0.92c-0.2-0.01-0.41-0.03-0.61-0.04
			c-0.65-0.04-1.28,0.61-1.25,1.25C123.95,291.46,124.47,291.95,125.17,292L125.17,292z"/>
	</g>
</g>
<g>
	<g>
		<path class="st2" d="M142.76,313.07c0.04-0.03,0.08-0.05,0.12-0.07c-0.1,0.04-0.2,0.08-0.3,0.13c0.07-0.03,0.13-0.05,0.2-0.06
			c-0.11,0.01-0.22,0.03-0.33,0.04c0.06,0,0.11-0.01,0.16,0c-0.11-0.01-0.22-0.03-0.33-0.04c0.08,0.01,0.16,0.03,0.24,0.07
			c-0.1-0.04-0.2-0.08-0.3-0.13c0.1,0.04,0.18,0.1,0.27,0.16c-0.08-0.07-0.17-0.13-0.25-0.2c0.1,0.08,0.19,0.17,0.27,0.27
			c-0.07-0.08-0.13-0.17-0.2-0.25c0.09,0.12,0.16,0.24,0.22,0.38c-0.04-0.1-0.08-0.2-0.13-0.3c0.05,0.12,0.08,0.24,0.1,0.37
			c-0.01-0.11-0.03-0.22-0.04-0.33c0.05,0.41-0.01,0.83-0.06,1.24c-0.06,0.51-0.05,1,0.06,1.51c0.11,0.48,0.58,0.83,1.04,0.9
			c0.23,0.03,0.44,0,0.65-0.09c0.23-0.1,0.49-0.28,0.6-0.51c0.18-0.4,0.4-0.77,0.66-1.11c-0.07,0.08-0.13,0.17-0.2,0.25
			c0.3-0.39,0.65-0.73,1.04-1.04c-0.08,0.07-0.17,0.13-0.25,0.2c0.08-0.06,0.15-0.11,0.23-0.17c0.27-0.19,0.48-0.42,0.57-0.75
			c0.08-0.3,0.05-0.7-0.13-0.96c-0.34-0.53-1.14-0.85-1.71-0.45c-1.01,0.7-1.87,1.63-2.38,2.76c0.76,0.1,1.52,0.2,2.28,0.3
			c-0.01-0.06-0.03-0.13-0.04-0.19c0.01,0.11,0.03,0.22,0.04,0.33c-0.06-0.49,0.03-0.98,0.07-1.48c0.02-0.25,0.03-0.5,0-0.75
			c-0.05-0.4-0.13-0.7-0.3-1.07c-0.54-1.13-2.02-1.87-3.16-1.13c-0.27,0.18-0.49,0.43-0.57,0.75c-0.08,0.3-0.05,0.7,0.13,0.96
			C141.4,313.17,142.18,313.46,142.76,313.07L142.76,313.07z"/>
	</g>
</g>
<g>
	<g>
		<path class="st2" d="M123.07,333.24c0.44,0.89,0.88,1.79,1.32,2.68c0.22,0.44,0.43,0.88,0.65,1.32c0.29,0.58,0.59,1.13,1.28,1.3
			c0.78,0.19,1.39-0.28,1.85-0.85c0.31-0.39,0.62-0.78,0.93-1.17c0.64-0.81,1.28-1.62,1.93-2.43c0.21-0.27,0.37-0.52,0.37-0.88
			c0-0.31-0.14-0.67-0.37-0.88c-0.45-0.42-1.33-0.55-1.77,0c-0.54,0.68-1.09,1.37-1.63,2.05c-0.27,0.34-0.54,0.68-0.82,1.03
			c-0.14,0.17-0.27,0.34-0.41,0.51c-0.06,0.08-0.12,0.16-0.19,0.23c-0.03,0.04-0.06,0.07-0.1,0.11c-0.37,0.36,0.09,0.45,1.36,0.28
			c-0.15-0.37-0.36-0.72-0.54-1.08c-0.19-0.39-0.38-0.77-0.57-1.16c-0.38-0.77-0.76-1.54-1.14-2.31c-0.29-0.59-1.17-0.8-1.71-0.45
			C122.91,331.92,122.76,332.61,123.07,333.24L123.07,333.24z"/>
	</g>
</g>
<g>
	<g>
		<path class="st2" d="M139.1,349.71c0.27,0.44,0.5,0.9,0.7,1.38c-0.04-0.1-0.08-0.2-0.13-0.3c0.34,0.83,0.58,1.69,0.69,2.58
			c0.04,0.29,0.34,0.61,0.57,0.75c0.27,0.16,0.66,0.22,0.96,0.13c0.3-0.1,0.59-0.29,0.75-0.57c0.04-0.1,0.08-0.2,0.13-0.3
			c0.06-0.22,0.06-0.44,0-0.66c-0.2-1.5-0.74-2.96-1.53-4.25c-0.34-0.56-1.14-0.82-1.71-0.45
			C138.99,348.36,138.74,349.11,139.1,349.71L139.1,349.71z"/>
	</g>
</g>
<g>
	<g>
		<path class="st2" d="M153.98,330.21c0.05,0,0.11,0.01,0.16,0.01c0.16,0.01-0.32-0.05-0.11-0.01c0.11,0.02,0.21,0.04,0.32,0.07
			c0.12,0.03,0.23,0.07,0.34,0.11c0.13,0.05-0.3-0.15-0.09-0.04c0.05,0.03,0.1,0.05,0.15,0.07c0.1,0.05,0.19,0.11,0.28,0.16
			c0.05,0.03,0.09,0.06,0.14,0.09c0.2,0.13-0.18-0.15-0.07-0.06c0.18,0.15,0.34,0.3,0.5,0.48c0.04,0.04,0.07,0.08,0.11,0.13
			c0.09,0.11-0.19-0.27-0.06-0.07c0.06,0.09,0.12,0.18,0.18,0.27c0.06,0.09,0.11,0.19,0.16,0.29c0.02,0.03,0.11,0.24,0.02,0.03
			c-0.09-0.2-0.01-0.02,0.01,0.03c0.04,0.1,0.07,0.21,0.1,0.31c0.02,0.06,0.03,0.13,0.04,0.19c0.01,0.05,0.04,0.26,0.01,0.03
			c-0.03-0.24,0-0.01,0,0.03c0,0.05,0.01,0.11,0.01,0.16c0,0.12,0,0.24-0.01,0.36c0.83,0,1.67,0,2.5,0
			c0.01-0.08,0.01-0.16,0.02-0.23c0-0.05,0.02-0.28,0.01-0.07c-0.01,0.21,0.01-0.02,0.01-0.07c0.01-0.08,0.03-0.15,0.05-0.23
			c0.06-0.28,0.14-0.55,0.24-0.82c0.02-0.06,0.05-0.12,0.07-0.18c0.06-0.15-0.12,0.25-0.02,0.05c0.07-0.14,0.14-0.28,0.21-0.42
			c0.14-0.25,0.3-0.49,0.47-0.72c0.18-0.24,0.2-0.68,0.13-0.96c-0.08-0.29-0.3-0.6-0.57-0.75c-0.29-0.15-0.64-0.23-0.96-0.13
			c-0.33,0.11-0.54,0.3-0.75,0.57c-0.85,1.14-1.3,2.54-1.4,3.95c-0.04,0.65,0.61,1.28,1.25,1.25c0.72-0.03,1.2-0.55,1.25-1.25
			c0.1-1.3-0.45-2.56-1.29-3.52c-0.85-0.98-2.09-1.55-3.38-1.63c-0.65-0.04-1.28,0.6-1.25,1.25
			C152.76,329.67,153.28,330.17,153.98,330.21L153.98,330.21z"/>
	</g>
</g>
<g>
	<g>
		<path class="st2" d="M156.88,289.12c0.24,1.7,0.48,3.41,0.72,5.11c0.04,0.28,0.34,0.62,0.57,0.75c0.31,0.16,0.62,0.19,0.96,0.13
			c1.93-0.35,3.73-1.32,5.13-2.68c0.47-0.46,0.49-1.32,0-1.77c-0.51-0.46-1.27-0.49-1.77,0c-0.16,0.15-0.32,0.3-0.48,0.44
			c-0.08,0.06-0.15,0.14-0.24,0.19c0.29-0.19-0.04,0.02-0.1,0.06c-0.33,0.23-0.68,0.45-1.04,0.63c-0.17,0.09-0.37,0.21-0.55,0.26
			c0.34-0.1-0.03,0.01-0.11,0.04c-0.08,0.03-0.16,0.06-0.25,0.09c-0.41,0.14-0.83,0.25-1.26,0.33c0.51,0.29,1.03,0.58,1.54,0.87
			c-0.24-1.7-0.48-3.41-0.72-5.11c-0.04-0.29-0.34-0.61-0.57-0.75c-0.27-0.16-0.66-0.22-0.96-0.13c-0.3,0.1-0.59,0.29-0.75,0.57
			C156.84,288.47,156.83,288.76,156.88,289.12L156.88,289.12z"/>
	</g>
</g>
<g>
	<g>
		<path class="st2" d="M179.2,270.39c0.15,0.55,0.26,1.1,0.34,1.66c-0.01-0.11-0.03-0.22-0.04-0.33c0.11,0.86,0.13,1.72,0.06,2.58
			c-0.07,0.9,1.13,1.62,1.88,1.08c1.23-0.89,2.47-1.78,3.7-2.67c0.27-0.2,0.48-0.41,0.57-0.75c0.08-0.3,0.05-0.7-0.13-0.96
			c-0.34-0.52-1.14-0.86-1.71-0.45c-1.23,0.89-2.47,1.78-3.7,2.67c0.63,0.36,1.25,0.72,1.88,1.08c0.12-1.53-0.04-3.1-0.45-4.58
			c-0.17-0.63-0.9-1.08-1.54-0.87C179.43,269.06,179.02,269.72,179.2,270.39L179.2,270.39z"/>
	</g>
</g>
<g>
	<g>
		<path class="st2" d="M200.15,247.93c0.19,0.31,0.36,0.63,0.5,0.97c-0.04-0.1-0.08-0.2-0.13-0.3c0.25,0.6,0.43,1.23,0.52,1.88
			c-0.01-0.11-0.03-0.22-0.04-0.33c0.01,0.07,0.02,0.14,0.03,0.22c0.04,0.41,0.16,0.72,0.49,0.98c0.29,0.22,0.73,0.36,1.09,0.22
			c0.65-0.25,1.29-0.54,1.9-0.89c0.61-0.35,1.17-0.75,1.72-1.19c0.23-0.18,0.37-0.6,0.37-0.88c0-0.31-0.14-0.67-0.37-0.88
			c-0.24-0.22-0.55-0.38-0.88-0.37c-0.35,0.02-0.61,0.15-0.88,0.37c-0.21,0.16,0.24-0.18,0.02-0.02c-0.05,0.04-0.1,0.07-0.15,0.11
			c-0.11,0.08-0.22,0.15-0.33,0.23c-0.21,0.14-0.42,0.28-0.64,0.41c-0.45,0.26-0.91,0.49-1.39,0.7c0.1-0.04,0.2-0.08,0.3-0.13
			c-0.11,0.05-0.22,0.09-0.34,0.14c0.53,0.4,1.05,0.8,1.58,1.21c-0.14-1.31-0.52-2.56-1.21-3.7c-0.34-0.56-1.14-0.82-1.71-0.45
			C200.04,246.58,199.79,247.33,200.15,247.93L200.15,247.93z"/>
	</g>
</g>
<g>
	<g>
		<path class="st2" d="M211.48,222.19c1.14,1.51,2.39,2.93,3.78,4.21c0.3,0.27,0.65,0.4,1.05,0.34c0.41-0.06,0.67-0.27,0.91-0.6
			c0.81-1.1,1.37-2.41,1.61-3.75c0.06-0.34,0.05-0.66-0.13-0.96c-0.15-0.26-0.45-0.51-0.75-0.57c-0.61-0.14-1.42,0.18-1.54,0.87
			c-0.06,0.31-0.13,0.62-0.22,0.92c-0.04,0.14-0.09,0.27-0.13,0.41c-0.03,0.08-0.06,0.16-0.09,0.24c-0.08,0.22,0.08-0.16,0.01-0.02
			c-0.26,0.56-0.56,1.1-0.93,1.6c0.65-0.08,1.31-0.17,1.96-0.25c-0.64-0.59-1.26-1.21-1.85-1.86c-0.29-0.32-0.57-0.64-0.85-0.97
			c-0.14-0.17-0.27-0.33-0.41-0.5c-0.04-0.05-0.26-0.33-0.06-0.07c-0.08-0.1-0.15-0.2-0.22-0.29c-0.2-0.27-0.41-0.48-0.75-0.57
			c-0.3-0.08-0.7-0.05-0.96,0.13C211.42,220.82,211.06,221.64,211.48,222.19L211.48,222.19z"/>
	</g>
</g>
<g>
	<g>
		<path class="st2" d="M213.24,190.24c0.16,0.09,0.31,0.2,0.46,0.3c0.07,0.05,0.19,0.18-0.07-0.06c0.03,0.03,0.07,0.05,0.1,0.08
			c0.07,0.06,0.13,0.11,0.2,0.17c0.14,0.12,0.27,0.26,0.39,0.39c0.07,0.07,0.13,0.15,0.19,0.22c0.11,0.13-0.05-0.08-0.07-0.1
			c0.04,0.04,0.07,0.09,0.1,0.13c0.21,0.3,0.4,0.62,0.56,0.95c0.11,0.24-0.1-0.25,0,0c0.04,0.09,0.07,0.18,0.1,0.27
			c0.06,0.19,0.11,0.37,0.16,0.56c0.11,0.48,0.57,0.83,1.04,0.9c0.51,0.07,0.96-0.17,1.25-0.6c0.98-1.46,1.53-3.13,1.73-4.87
			c0.03-0.3-0.16-0.68-0.37-0.88c-0.22-0.22-0.57-0.38-0.88-0.37c-0.32,0.01-0.66,0.12-0.88,0.37c-0.24,0.26-0.32,0.54-0.37,0.88
			c-0.01,0.07-0.02,0.15-0.03,0.22c0.01-0.11,0.03-0.22,0.04-0.33c-0.1,0.71-0.27,1.4-0.53,2.06c-0.03,0.08-0.06,0.16-0.09,0.24
			c-0.04,0.09-0.02,0.05,0.05-0.13c-0.02,0.05-0.04,0.09-0.06,0.13c-0.07,0.16-0.14,0.31-0.22,0.46c-0.17,0.33-0.36,0.64-0.56,0.95
			c0.76,0.1,1.52,0.2,2.28,0.3c-0.42-1.84-1.64-3.47-3.25-4.44c-0.56-0.34-1.4-0.14-1.71,0.45
			C212.48,189.14,212.64,189.88,213.24,190.24L213.24,190.24z"/>
	</g>
</g>
<g>
	<g>
		<path class="st2" d="M217.15,162.43c0.46,0.81,1,1.56,1.58,2.28c0.26,0.32,0.52,0.64,0.82,0.93c0.58,0.56,1.34,0.75,2.08,0.39
			c0.47-0.23,0.78-0.66,1.05-1.1c0.24-0.39,0.48-0.78,0.72-1.17c0.5-0.81,1-1.62,1.51-2.42c0.35-0.56,0.14-1.4-0.45-1.71
			c-0.61-0.32-1.34-0.15-1.71,0.45c-0.42,0.67-0.83,1.34-1.25,2c-0.2,0.33-0.41,0.65-0.61,0.98c-0.11,0.17-0.21,0.34-0.32,0.51
			c-0.05,0.08-0.1,0.16-0.14,0.23c-0.04,0.07-0.21,0.26,0,0.02c-0.15,0.17,0.16-0.07,0.04-0.01c-0.16,0.09-0.03,0.06,0.38-0.09
			c0.13,0.04,0.27,0.07,0.4,0.11c0.23,0.12,0.09,0.07,0-0.02c-0.06-0.06-0.11-0.12-0.17-0.18c-0.24-0.26-0.46-0.53-0.68-0.8
			c-0.21-0.26,0.15,0.21-0.05-0.06c-0.05-0.07-0.1-0.13-0.15-0.2c-0.11-0.15-0.21-0.3-0.32-0.45c-0.2-0.31-0.4-0.62-0.58-0.94
			c-0.33-0.57-1.15-0.81-1.71-0.45C217.02,161.09,216.8,161.82,217.15,162.43L217.15,162.43z"/>
	</g>
</g>
<g>
	<g>
		<path class="st2" d="M222.01,145.83c0.04,0,0.07,0,0.11,0.01c-0.11-0.01-0.22-0.03-0.33-0.04c0.03,0,0.07,0.01,0.1,0.02
			c0.12,0.04,0.07,0.02-0.16-0.07c0.02,0.01,0.04,0.02,0.07,0.04c0.08,0.05,0.03,0.01-0.15-0.12c0.04,0.04,0.09,0.09,0.13,0.13
			c0.06,0.07,0.02,0.03-0.11-0.15c0.02,0.03,0.04,0.06,0.06,0.09c0.03,0.05,0.05,0.1,0.08,0.15c-0.09-0.21-0.11-0.26-0.06-0.14
			c0.01,0.04,0.03,0.07,0.04,0.11c0.04,0.13,0.07,0.26,0.09,0.4c-0.01-0.11-0.03-0.22-0.04-0.33c0.07,0.51,0.06,1.03,0.14,1.54
			c0.09,0.56,0.37,1.15,0.82,1.52c0.36,0.29,0.75,0.45,1.22,0.32c0.42-0.12,0.75-0.45,0.87-0.87c0.11-0.39,0.24-0.77,0.39-1.14
			c0.02-0.05,0.04-0.09,0.06-0.14c-0.02,0.05-0.11,0.24-0.04,0.09c0.04-0.09,0.08-0.18,0.13-0.27c0.09-0.19,0.19-0.38,0.29-0.57
			c0.19-0.35,0.4-0.7,0.63-1.03c0.06-0.08,0.12-0.16,0.17-0.25c0.03-0.04,0.06-0.08,0.09-0.12c0.02-0.03,0.13-0.18,0.02-0.02
			c-0.12,0.15-0.01,0.01,0.02-0.02c0.03-0.04,0.06-0.08,0.1-0.12c0.07-0.09,0.15-0.17,0.22-0.26c0.43-0.49,0.52-1.29,0-1.77
			c-0.47-0.43-1.31-0.53-1.77,0c-1.25,1.44-2.19,3.12-2.71,4.96c0.7-0.18,1.39-0.37,2.09-0.55c-0.03-0.03-0.06-0.05-0.09-0.08
			c-0.03-0.03-0.16-0.19-0.02-0.01c0.13,0.16,0.04,0.05,0.02,0c-0.06-0.09-0.07-0.22,0.04,0.11c-0.05-0.18-0.1-0.35-0.13-0.54
			c0.01,0.11,0.03,0.22,0.04,0.33c-0.08-0.67-0.03-1.36-0.27-2.01c-0.36-0.94-1.05-1.65-2.11-1.7c-0.65-0.03-1.28,0.59-1.25,1.25
			C220.79,145.28,221.31,145.8,222.01,145.83L222.01,145.83z"/>
	</g>
</g>
<g>
	<g>
		<path class="st2" d="M203.28,172.09c0.13-0.03,0.09-0.03-0.13,0.01c0.1,0,0.09,0-0.04-0.01c-0.12-0.02-0.14-0.02-0.04,0.01
			c-0.19-0.09-0.24-0.1-0.15-0.05c0.08,0.05,0.04,0.02-0.11-0.1c0.04,0.03,0.07,0.06,0.1,0.1c0.02,0.02,0.03,0.04,0.05,0.05
			c0.08,0.1,0.07,0.07-0.06-0.08c0.05,0.14,0.17,0.27,0.23,0.41c0.12,0.23-0.08-0.24-0.01-0.02c0.04,0.11,0.08,0.22,0.12,0.33
			c0.32,0.9,0.63,1.8,0.95,2.69c0.18,0.5,0.63,0.94,1.21,0.92c0.59-0.03,1-0.38,1.21-0.92c0.05-0.12,0.09-0.25,0.14-0.37
			c0.02-0.06,0.05-0.12,0.07-0.18c-0.06,0.15-0.07,0.15-0.01,0.03c0.11-0.24,0.21-0.48,0.33-0.72c0.22-0.45,0.45-0.88,0.7-1.31
			c0.25-0.43,0.52-0.85,0.8-1.25c0.15-0.22,0.31-0.43,0.46-0.64c0.08-0.11,0.08-0.11-0.01,0.02c0.04-0.05,0.08-0.1,0.12-0.16
			c0.08-0.1,0.17-0.21,0.25-0.31c0.42-0.5,0.53-1.28,0-1.77c-0.46-0.42-1.32-0.54-1.77,0c-1.5,1.81-2.66,3.81-3.5,6
			c0.8,0,1.61,0,2.41,0c-0.39-1.1-0.73-2.24-1.18-3.32c-0.48-1.13-1.48-2.14-2.81-1.78c-0.63,0.17-1.08,0.9-0.87,1.54
			C201.95,171.86,202.6,172.27,203.28,172.09L203.28,172.09z"/>
	</g>
</g>
<g>
	<g>
		<path class="st2" d="M203.66,205.18c0.5-1.44,0.5-3.09,0.01-4.53c0,0.22,0,0.44,0,0.66c-0.1,0.21-0.12,0.25-0.06,0.14
			c-0.05,0.1-0.12,0.17-0.21,0.23c-0.1,0.07-0.11,0.08-0.03,0.03c-0.22,0.08-0.26,0.1-0.14,0.07c-0.11,0.01-0.22,0.03-0.33,0.04
			c0.02,0,0.04,0,0.06-0.01c0.34-0.03,0.64-0.12,0.88-0.37c0.22-0.22,0.38-0.57,0.37-0.88c-0.03-0.62-0.55-1.32-1.25-1.25
			c-0.41,0.04-0.74,0.14-1.07,0.39c-0.3,0.23-0.54,0.56-0.63,0.93c-0.1,0.4,0.04,0.73,0.13,1.1c0.06,0.22,0.1,0.44,0.13,0.67
			c-0.01-0.11-0.03-0.22-0.04-0.33c0.07,0.53,0.07,1.06,0.01,1.59c0.01-0.11,0.03-0.22,0.04-0.33c-0.05,0.4-0.15,0.79-0.28,1.18
			c-0.21,0.62,0.24,1.39,0.87,1.54C202.82,206.21,203.43,205.84,203.66,205.18L203.66,205.18z"/>
	</g>
</g>
<g>
	<g>
		<path class="st2" d="M195.47,229.72c-0.38-1.7-0.76-3.39-1.13-5.09c-0.14-0.64-0.92-1.07-1.54-0.87
			c-0.67,0.22-1.03,0.85-0.87,1.54c0.38,1.7,0.76,3.39,1.13,5.09c0.14,0.64,0.92,1.07,1.54,0.87
			C195.27,231.04,195.62,230.41,195.47,229.72L195.47,229.72z"/>
	</g>
</g>
<g>
	<g>
		<path class="st2" d="M183.17,248.98c-0.02-0.1-0.04-0.2-0.06-0.3c-0.02-0.14-0.02-0.1,0.01,0.1c-0.01-0.05-0.01-0.1-0.02-0.15
			c-0.02-0.18-0.03-0.36-0.03-0.54c0-0.21,0.01-0.41,0.03-0.62c0-0.05,0.01-0.1,0.02-0.15c-0.03,0.2-0.03,0.24-0.01,0.1
			c0.02-0.09,0.03-0.18,0.05-0.27c0.04-0.19,0.09-0.38,0.14-0.56c0.03-0.1,0.06-0.2,0.1-0.29c0.01-0.04,0.14-0.34,0.05-0.14
			c-0.09,0.21,0.05-0.1,0.06-0.13c0.04-0.09,0.09-0.18,0.14-0.27c0.1-0.18,0.21-0.35,0.33-0.52c0.37-0.54,0.12-1.41-0.45-1.71
			c-0.64-0.34-1.31-0.13-1.71,0.45c-1.14,1.64-1.48,3.74-1.06,5.67c0.14,0.64,0.92,1.07,1.54,0.87
			C182.98,250.3,183.32,249.66,183.17,248.98L183.17,248.98z"/>
	</g>
</g>
<g>
	<g>
		<path class="st2" d="M152,255.07c0.52,0.77,1.09,1.5,1.73,2.18c0.75,0.81,1.67,1.76,2.89,1.41c1.14-0.33,1.38-1.5,1.62-2.5
			c0.22-0.91,0.44-1.82,0.66-2.74c0.15-0.63-0.2-1.38-0.87-1.54c-0.64-0.15-1.37,0.19-1.54,0.87c-0.19,0.79-0.38,1.59-0.57,2.38
			c-0.09,0.37-0.17,0.75-0.27,1.12c-0.02,0.06-0.03,0.12-0.05,0.18c-0.01,0.04-0.03,0.08-0.04,0.12c0.03-0.06,0.05-0.12,0.08-0.18
			c0,0.15-0.28,0.24,0.04,0c-0.01,0.01-0.03,0.03-0.04,0.04c-0.09,0.09-0.05,0.06,0.12-0.09c0.21-0.08,0.26-0.1,0.17-0.07
			c-0.09,0.03-0.04,0.02,0.16-0.02c0.21,0.04,0.25,0.04,0.12,0.01c0.17,0.08,0.21,0.09,0.13,0.05c-0.25-0.19,0.16,0.16-0.03-0.01
			c-0.06-0.05-0.12-0.11-0.17-0.16c-0.26-0.24-0.51-0.5-0.75-0.76c-0.24-0.26-0.47-0.54-0.69-0.81c-0.08-0.11-0.07-0.09,0.04,0.06
			c-0.03-0.04-0.07-0.09-0.1-0.13c-0.05-0.07-0.1-0.13-0.15-0.2c-0.11-0.16-0.22-0.31-0.33-0.47c-0.36-0.54-1.12-0.83-1.71-0.45
			C151.91,253.7,151.61,254.49,152,255.07L152,255.07z"/>
	</g>
</g>
<g>
	<g>
		<path class="st2" d="M153.52,226.25c0.23,0.1,0.46,0.22,0.68,0.35c0.12,0.07,0.23,0.14,0.34,0.22c0.05,0.04,0.11,0.08,0.16,0.12
			c-0.05-0.03-0.19-0.15-0.07-0.05c0.2,0.18,0.39,0.36,0.56,0.56c0.11,0.13-0.03-0.01-0.05-0.07c0.02,0.05,0.08,0.11,0.11,0.16
			c0.07,0.11,0.14,0.23,0.2,0.34c0.02,0.04,0.09,0.21,0.02,0.03c-0.08-0.19,0.01,0.02,0.02,0.06c0.04,0.12,0.08,0.24,0.1,0.37
			c0.01,0.05,0.01,0.1,0.03,0.15c-0.09-0.29-0.02-0.18-0.01-0.07c0.01,0.13,0.01,0.25,0,0.38c0,0.06-0.02,0.13-0.02,0.19
			c0-0.05,0.05-0.28,0.01-0.11c-0.03,0.12-0.06,0.24-0.1,0.36c-0.06,0.21,0.1-0.19,0.03-0.06c-0.03,0.05-0.06,0.11-0.09,0.17
			c-0.03,0.04-0.05,0.08-0.08,0.13c-0.14,0.23,0.18-0.22,0.01-0.01c-0.43,0.5-0.52,1.29,0,1.77c0.47,0.43,1.31,0.53,1.77,0
			c1.03-1.21,1.23-2.85,0.61-4.3c-0.55-1.31-1.7-2.29-2.98-2.86c-0.32-0.14-0.62-0.22-0.96-0.13c-0.29,0.08-0.6,0.3-0.75,0.57
			C152.78,225.09,152.88,225.97,153.52,226.25L153.52,226.25z"/>
	</g>
</g>
<g>
	<g>
		<path class="st2" d="M154.21,191.92c0.76,0.92,1.51,1.85,2.27,2.77c0.51,0.63,1.6,0.4,1.96-0.25c0.4-0.72,0.71-1.49,1-2.25
			c0.3-0.78,0.45-1.24,0.84-1.94c0.15-0.27,0.32-0.53,0.5-0.79c-0.1,0.14-0.02,0.02,0.04-0.05c0.05-0.06,0.09-0.11,0.14-0.16
			c0.11-0.12,0.22-0.24,0.34-0.35c0.05-0.05,0.11-0.09,0.16-0.14c-0.13,0.11-0.04,0.03,0.05-0.03c0.12-0.08,0.24-0.15,0.36-0.22
			c0.08-0.04,0.16-0.08,0.24-0.12c-0.11,0.05-0.12,0.05,0,0.01c0.08-0.02,0.17-0.05,0.25-0.07c0.06-0.01,0.31-0.06,0.04-0.02
			c0.65-0.08,1.28-0.52,1.25-1.25c-0.03-0.61-0.56-1.34-1.25-1.25c-1.78,0.23-3.12,1.3-4.06,2.8c-0.46,0.74-0.78,1.56-1.1,2.37
			c-0.16,0.4-0.31,0.81-0.48,1.21c0.05-0.12-0.01,0.01-0.03,0.06c-0.04,0.1-0.09,0.2-0.13,0.3c-0.1,0.22-0.21,0.43-0.33,0.63
			c0.65-0.08,1.31-0.17,1.96-0.25c-0.76-0.92-1.51-1.85-2.27-2.77c-0.42-0.51-1.34-0.46-1.77,0
			C153.72,190.69,153.77,191.37,154.21,191.92L154.21,191.92z"/>
	</g>
</g>
<g>
	<g>
		<path class="st2" d="M153.98,139.77c1.61,0,1.61-2.5,0-2.5C152.37,137.27,152.37,139.77,153.98,139.77L153.98,139.77z"/>
	</g>
</g>
<g>
	<g>
		<path class="st2" d="M154.08,140.43c0.16,0.04,0.31,0.1,0.46,0.15c-0.37-0.12-0.08-0.03,0.01,0.02c0.06,0.03,0.12,0.06,0.18,0.1
			c0.08,0.05,0.16,0.1,0.23,0.15c0.09,0.06,0.18,0.21-0.03-0.03c0.1,0.12,0.25,0.21,0.36,0.33c0.05,0.05,0.09,0.1,0.14,0.15
			c0.22,0.25-0.1-0.16,0.02,0.02c0.09,0.13,0.18,0.27,0.26,0.41c0.03,0.06,0.06,0.12,0.09,0.18c0.1,0.19-0.11-0.3,0.01,0.02
			c0.06,0.15,0.1,0.31,0.13,0.46c0.14,0.61,0.79,0.97,1.37,0.9c0.6-0.08,1.1-0.6,1.08-1.23c0-0.21,0-0.42,0.01-0.64
			c0.01-0.11,0.02-0.21,0.03-0.32c0.02-0.14,0.01-0.11-0.01,0.1c0.01-0.05,0.02-0.1,0.02-0.16c0.07-0.41,0.17-0.8,0.31-1.19
			c0.03-0.09,0.06-0.17,0.1-0.26c0.05-0.12,0.04-0.1-0.03,0.08c0.02-0.05,0.04-0.1,0.06-0.15c0.09-0.19,0.19-0.38,0.29-0.57
			c0.11-0.18,0.22-0.36,0.34-0.54c0.03-0.04,0.06-0.09,0.09-0.13c0.08-0.11,0.06-0.09-0.05,0.06c0.01,0,0.18-0.22,0.2-0.25
			c0.43-0.5,0.52-1.29,0-1.77c-0.47-0.43-1.31-0.53-1.77,0c-1.36,1.59-2.14,3.61-2.09,5.72c0.82-0.11,1.64-0.22,2.46-0.33
			c-0.4-1.77-1.86-3.25-3.61-3.7c-0.63-0.16-1.39,0.21-1.54,0.87C153.06,139.54,153.4,140.25,154.08,140.43L154.08,140.43z"/>
	</g>
</g>
<g>
	<g>
		<path class="st2" d="M158.35,107.4c0.13-0.76,0.31-1.51,0.55-2.24c0.12-0.36,0.25-0.71,0.4-1.06c0.04-0.09,0.02-0.05-0.05,0.11
			c0.02-0.05,0.04-0.1,0.07-0.15c0.04-0.09,0.08-0.17,0.12-0.26c0.09-0.18,0.18-0.37,0.27-0.55c0.3-0.58,0.17-1.38-0.45-1.71
			c-0.57-0.3-1.39-0.17-1.71,0.45c-0.77,1.49-1.33,3.09-1.61,4.75c-0.06,0.34-0.05,0.66,0.13,0.96c0.15,0.26,0.45,0.51,0.75,0.57
			C157.41,108.41,158.23,108.09,158.35,107.4L158.35,107.4z"/>
	</g>
</g>
<g>
	<g>
		<path class="st2" d="M152.41,76.54c0.39,0.21,0.77,0.45,1.13,0.7c0.09,0.06,0.18,0.13,0.27,0.2c0.15,0.12,0.03,0.03-0.05-0.04
			c0.04,0.03,0.08,0.06,0.12,0.09c0.18,0.15,0.36,0.3,0.53,0.46c0.33,0.3,0.64,0.62,0.93,0.96c0.07,0.08,0.14,0.17,0.21,0.26
			c0.03,0.04,0.06,0.08,0.09,0.12c0.16,0.2-0.13-0.17-0.04-0.05c0.14,0.19,0.28,0.38,0.41,0.57c-0.06-0.21-0.11-0.42-0.17-0.63
			c0.01-0.08,0.02-0.17,0.03-0.25c0.11-0.18,0.21-0.37,0.32-0.55c-0.19,0.23,0.04,0.14,0.7-0.27c0.46,0.02,0.77,0.26,0.95,0.71
			c-0.02-0.09-0.02-0.08,0,0.04c0.01,0.12,0.02,0.14,0.02,0.04c0.02-0.18,0.02-0.37,0.03-0.55c0.01-0.08,0.02-0.16,0.03-0.24
			c0.02-0.14,0.01-0.11-0.01,0.09c0.01-0.05,0.02-0.11,0.02-0.16c0.03-0.18,0.06-0.35,0.1-0.52c0.08-0.36,0.17-0.72,0.29-1.07
			c0.06-0.18,0.13-0.36,0.2-0.54c0.1-0.27-0.12,0.26,0,0c0.05-0.1,0.09-0.2,0.14-0.3c0.15-0.31,0.22-0.62,0.13-0.96
			c-0.08-0.29-0.3-0.6-0.57-0.75c-0.56-0.29-1.41-0.18-1.71,0.45c-0.41,0.85-0.73,1.74-0.91,2.67c-0.1,0.5-0.17,1-0.2,1.51
			c-0.05,0.71,0.06,1.46,0.72,1.87c0.74,0.46,1.78,0.18,2.12-0.63c0.19-0.45,0.15-0.91-0.13-1.31c-0.11-0.16-0.23-0.32-0.35-0.48
			c-0.52-0.69-1.08-1.33-1.73-1.9c-0.72-0.63-1.5-1.2-2.34-1.66c-0.57-0.31-1.39-0.16-1.71,0.45
			C151.65,75.41,151.8,76.2,152.41,76.54L152.41,76.54z"/>
	</g>
</g>
<g>
	<g>
		<path class="st2" d="M150.86,47.69c1.56,1.57,3.42,2.87,5.44,3.78c0.42,0.19,0.84,0.24,1.26,0c0.41-0.24,0.57-0.63,0.62-1.08
			c0.2-1.82-0.07-3.72-0.76-5.42c-0.13-0.31-0.27-0.57-0.57-0.75c-0.27-0.16-0.66-0.22-0.96-0.13c-0.58,0.19-1.14,0.89-0.87,1.54
			c0.17,0.41,0.31,0.82,0.42,1.25c0.1,0.38,0.24,0.81,0.25,1.2c-0.01-0.33,0-0.02,0,0.04c0.01,0.11,0.02,0.22,0.03,0.33
			c0.02,0.2,0.02,0.41,0.03,0.61c0.01,0.44-0.02,0.88-0.06,1.32c0.63-0.36,1.25-0.72,1.88-1.08c-0.95-0.43-1.86-0.94-2.72-1.53
			c-0.21-0.14-0.41-0.29-0.62-0.44c-0.03-0.02-0.19-0.14-0.05-0.04c0.15,0.12-0.07-0.06-0.08-0.07c-0.09-0.07-0.19-0.15-0.28-0.23
			c-0.41-0.34-0.81-0.71-1.18-1.09c-0.46-0.46-1.31-0.5-1.77,0C150.4,46.42,150.37,47.19,150.86,47.69L150.86,47.69z"/>
	</g>
</g>
<g>
	<path class="st3" d="M117.23,365c18.95,0,40.9,0,59.85,0"/>
	<g>
		<path d="M117.23,366.25c15.59,0,31.17,0,46.76,0c4.36,0,8.72,0,13.09,0c1.61,0,1.61-2.5,0-2.5c-15.59,0-31.17,0-46.76,0
			c-4.36,0-8.72,0-13.09,0C115.63,363.75,115.62,366.25,117.23,366.25L117.23,366.25z"/>
	</g>
</g>
<g>
	<g>
		<path class="st4" d="M495.68,524.92c-4.62-3.9-8.32-8.89-10.7-14.45c-2.49-5.81-3.52-12.44-1.76-18.52
			c0.88-3.03,2.42-5.83,4.26-8.39c3.13-4.35,7.23-8.1,12.16-10.2c4.93-2.11,10.71-2.45,15.63-0.33c6.13,2.64,10.28,8.87,11.46,15.44
			c1.18,6.57-0.31,13.41-3.08,19.48c-2.38,5.23-5.87,15.23-6.28,20.96"/>
		<g>
			<path d="M496.56,524.04c-6.94-5.92-12.26-14.58-12.9-23.83c-0.66-9.39,4.87-18.44,12.57-23.57c7.67-5.12,18.08-5.31,24.47,1.93
				c6.22,7.05,6.14,17.09,3.16,25.53c-1.48,4.17-3.43,8.15-4.83,12.36c-1.34,4.02-2.58,8.2-2.91,12.44c-0.12,1.6,2.38,1.6,2.5,0
				c0.32-4.13,1.63-8.23,2.94-12.14c1.35-4.02,3.21-7.81,4.64-11.79c3.27-9.11,3.16-19.67-3.14-27.47
				c-2.86-3.54-6.89-6.06-11.4-6.84c-4.95-0.85-10.05,0.13-14.47,2.48c-8.34,4.43-15.21,13.61-16.02,23.12
				c-0.96,11.2,5.29,22.45,13.61,29.54C496.01,526.84,497.79,525.08,496.56,524.04L496.56,524.04z"/>
		</g>
	</g>
	<g>
		<path class="st4" d="M386.8,486.34c5.1-0.48,6.3-9.34,8.73-13.85c5.52-10.23,16.39-17.38,27.97-18.4
			c5.51-0.49,11.78,0.73,14.89,5.31c2.16,3.18,2.32,7.39,1.31,11.1c-1.01,3.71-3.05,7.04-5.06,10.31c-1.8,2.92-3.67,5.92-6.49,7.87
			c-2.04,1.41-4.43,2.18-6.79,2.93c-8.85,2.81-22.75,7.26-32.02,6.64"/>
		<g>
			<path d="M386.8,487.59c3.59-0.44,5.41-3.55,6.69-6.61c1.45-3.44,2.41-6.95,4.46-10.12c5.02-7.77,13.31-13.28,22.36-15.07
				c4.23-0.83,9.04-0.96,13.02,0.95c4.52,2.18,6.31,6.83,5.55,11.65c-0.82,5.17-4.02,9.94-6.86,14.22c-1.4,2.11-3.03,4.13-5.23,5.45
				c-2.2,1.32-4.73,2-7.16,2.78c-4.97,1.58-9.96,3.11-15.04,4.3c-4.97,1.17-10.12,2.16-15.25,1.85c-1.61-0.1-1.6,2.4,0,2.5
				c4.74,0.29,9.53-0.53,14.15-1.54c4.95-1.08,9.83-2.52,14.66-4.03c4.92-1.54,10.06-2.81,13.6-6.83c1.77-2.01,3.16-4.33,4.55-6.61
				c1.48-2.43,2.91-4.9,3.92-7.57c1.8-4.74,2.05-10.51-1.17-14.73c-2.82-3.69-7.5-5.17-11.98-5.42
				c-9.51-0.53-19.22,3.87-25.98,10.38c-3.6,3.47-6.44,7.6-8.19,12.29c-0.77,2.07-1.43,4.2-2.45,6.17
				c-0.75,1.45-1.86,3.25-3.66,3.47C385.22,485.29,385.2,487.79,386.8,487.59L386.8,487.59z"/>
		</g>
	</g>
	<g>
		<path class="st4" d="M328.54,472.65c-10.39-2.62-20.57-6.09-30.4-10.37c-4.27-1.86-8.65-4.01-11.4-7.77
			c-3.41-4.65-3.66-10.82-3.79-16.59c-0.06-2.63-0.09-5.36,0.97-7.77c0.89-2.01,2.48-3.62,4.16-5.04
			c5.58-4.74,13.52-7.93,20.23-4.99c5.2,2.28,8.3,7.57,11.05,12.54c4.87,8.79,12.43,20.63,17.3,29.42"/>
		<g>
			<path d="M328.87,471.44c-10.47-2.65-20.76-6.12-30.65-10.49c-4.18-1.85-8.59-4.05-11.07-8.08c-2.44-3.96-2.77-8.81-2.91-13.35
				c-0.07-2.44-0.28-5.02,0.33-7.41c0.61-2.43,2.24-4.26,4.09-5.87c3.43-2.99,7.77-5.41,12.35-5.93c4.6-0.52,8.67,1.26,11.76,4.63
				c2.92,3.19,4.82,7.16,6.95,10.87c5.16,9.02,10.81,17.77,15.86,26.86c0.78,1.41,2.94,0.15,2.16-1.26
				c-4.89-8.81-10.35-17.3-15.38-26.03c-4.51-7.82-9.15-17.69-19.63-17.67c-4.82,0.01-9.54,2.05-13.4,4.83
				c-1.98,1.43-3.88,3.04-5.34,5.02c-1.56,2.13-2.16,4.64-2.28,7.25c-0.23,4.9-0.06,10.34,1.4,15.05c1.48,4.79,4.7,8.33,8.99,10.82
				c5.32,3.1,11.36,5.24,17.13,7.34c6.22,2.26,12.56,4.19,18.98,5.82C329.77,474.25,330.43,471.84,328.87,471.44L328.87,471.44z"/>
		</g>
	</g>
	<g>
		<path class="st4" d="M382.5,588.84c4.41-1.49,4.37-11.99,5.08-16.59c5.09-33.4,9.56-70.05-8.19-98.8
			c-5.9-9.56-15.41-18.27-26.64-18.03c-4.94,0.11-9.74,1.98-13.77,4.83c-8.27,5.85-13.17,15.38-16.32,25.01
			c-9.28,28.41-5.35,60.84,10.45,86.2c4.08,6.56,8.89,12.63,13.69,18.68c4.38,5.53,6.47,9.3,12.21,13.39"/>
		<g>
			<path d="M382.84,590.04c3.54-1.32,4.46-5.72,4.98-9.04c0.66-4.15,0.97-8.36,1.59-12.52c1.71-11.49,3.22-23.03,3.75-34.64
				c1.02-22.05-1.59-46.18-15.03-64.51c-6.01-8.2-15.07-15.6-25.79-15.15c-11.5,0.48-20.55,9.15-25.8,18.75
				c-5.34,9.78-8.15,21.05-9.4,32.06c-1.29,11.33-0.69,22.86,1.67,34.01c2.36,11.13,6.52,21.92,12.38,31.69
				c3.26,5.43,7.05,10.52,10.94,15.51c1.95,2.51,3.96,4.98,5.87,7.52c1.51,2,2.99,4.02,4.67,5.87c1.72,1.89,3.65,3.54,5.73,5.03
				c1.31,0.94,2.56-1.23,1.26-2.16c-4.16-3-7.14-6.91-10.22-10.94c-3.66-4.81-7.52-9.47-11.03-14.39
				c-6.54-9.18-11.65-19.19-14.93-29.99c-6.29-20.72-6.13-43.54,1.23-63.97c3.53-9.81,9.35-19.66,19.11-24.3
				c4.88-2.32,10.37-2.85,15.54-1.25c4.72,1.46,8.85,4.44,12.3,7.92c7.38,7.47,12.1,17.54,15.04,27.51
				c3.05,10.38,4.14,21.22,4.16,32.01c0.02,11.09-1.05,22.15-2.5,33.13c-0.67,5.05-1.58,10.09-2.17,15.15
				c-0.43,3.7-0.52,7.53-1.73,11.1c-0.39,1.17-1.03,2.73-2.29,3.2C380.68,588.19,381.32,590.61,382.84,590.04L382.84,590.04z"/>
		</g>
	</g>
	<g>
		<path class="st4" d="M430,613.28c5.6-5.02,6.57-13.23,8.61-20.47c2.91-10.32,8.55-19.62,14.13-28.78
			c5.89-9.66,12.02-19.58,21.2-26.19c4.32-3.11,9.17-5.37,14.01-7.59c6.31-2.89,13.04-5.79,19.93-5.01
			c10.57,1.2,18.42,10.85,21.71,20.97c6.32,19.43-0.37,41.39-13.22,57.28c-12.84,15.89-31.06,26.53-49.74,34.82
			c-10.1,4.48-31.12,8.49-42.16,8.01"/>
		<g>
			<path d="M430.88,614.16c3.6-3.31,5.44-7.88,6.73-12.51c1.44-5.17,2.53-10.36,4.54-15.35c2.22-5.5,5.12-10.72,8.14-15.82
				c2.81-4.75,5.67-9.5,8.71-14.12c2.97-4.52,6.2-8.89,10.03-12.72c4.03-4.01,8.69-7.06,13.76-9.6c9.66-4.84,21.61-11.14,32.15-5.21
				c8.51,4.79,13.21,14.39,14.97,23.67c1.93,10.18,0.44,20.78-3.16,30.42c-7.61,20.37-24.57,35.04-43.07,45.49
				c-8.33,4.7-17.04,9.15-26.26,11.77c-8.91,2.53-18.22,4.29-27.48,4.8c-1.82,0.1-3.64,0.14-5.46,0.07c-1.61-0.06-1.61,2.44,0,2.5
				c9.14,0.37,18.53-1.33,27.4-3.37c4.34-1,8.66-2.16,12.82-3.75c4.8-1.83,9.45-4.16,14.01-6.51c19.47-9.99,38.07-23.94,47.79-44.1
				c4.59-9.54,7.23-20.17,6.68-30.79c-0.52-10.1-3.84-20.5-11.09-27.81c-3.31-3.34-7.47-5.95-12.11-6.92
				c-5.96-1.24-11.94,0.32-17.46,2.57c-5.65,2.3-11.38,4.87-16.57,8.1c-4.74,2.95-8.85,6.73-12.42,11
				c-3.53,4.23-6.58,8.84-9.48,13.51c-3.16,5.08-6.31,10.19-9.18,15.44c-2.9,5.31-5.49,10.84-7.22,16.66
				c-1.46,4.9-2.2,10.09-4.31,14.78c-1.03,2.27-2.38,4.32-4.23,6.01C427.93,613.48,429.7,615.25,430.88,614.16L430.88,614.16z"/>
		</g>
	</g>
	<g>
		<path class="st4" d="M364.24,716.47c-7.89-9.17-13.64-20.17-16.66-31.89c-4.53-17.61-2.87-36.24,0.57-54.09
			c1.65-8.52,3.79-17.2,8.8-24.3c6.49-9.2,17.08-14.69,27.81-18.11c8.28-2.64,17.58-4.17,25.44-0.47c3.84,1.81,7.06,4.75,9.74,8.04
			c9.66,11.82,12.69,28.74,7.73,43.18c-2.41,7.02-6.51,13.32-9.65,20.05c-8.87,19.02-10.45,42.07-24.9,57.3"/>
		<g>
			<path d="M365.12,715.59c-6.85-8-12.07-17.38-15.22-27.44c-3.42-10.92-4.27-22.43-3.63-33.81c0.33-5.78,1.03-11.54,1.97-17.25
				c0.88-5.33,1.86-10.67,3.33-15.88c1.43-5.09,3.41-10.05,6.47-14.39c2.76-3.91,6.39-7.18,10.36-9.81
				c4.13-2.74,8.65-4.87,13.3-6.56c4.85-1.76,9.92-3.24,15.09-3.66c5.2-0.42,10.45,0.31,14.95,3.08c4.28,2.63,7.68,6.65,10.31,10.87
				c5.06,8.13,7.35,17.87,6.58,27.41c-0.41,5.1-1.8,10.03-3.89,14.69c-2.27,5.05-5.13,9.81-7.51,14.8
				c-8.06,16.92-9.81,36.72-20.65,52.33c-1.31,1.89-2.76,3.66-4.34,5.34c-1.1,1.17,0.66,2.94,1.77,1.77
				c13.8-14.68,16.1-35.62,23.38-53.62c4.11-10.16,10.94-19.21,13.04-30.14c1.89-9.83,0.53-20.15-3.71-29.21
				c-4.27-9.1-11.83-17.84-22.21-19.54c-5.39-0.88-10.9-0.17-16.15,1.18c-5.03,1.29-9.98,3.1-14.65,5.37
				c-9.37,4.55-17.28,11.47-21.59,21.1c-2.2,4.93-3.58,10.16-4.68,15.43c-1.2,5.8-2.17,11.65-2.87,17.53
				c-1.4,11.83-1.53,23.91,0.85,35.63c2.19,10.83,6.65,21.2,13.01,30.24c1.53,2.18,3.18,4.29,4.92,6.31
				C364.4,718.58,366.17,716.81,365.12,715.59L365.12,715.59z"/>
		</g>
	</g>
	<g>
		<g>
			<path d="M364.4,717.87c9.58,0,19.15-0.29,28.73-0.3c1.61,0,1.61-2.5,0-2.5c-9.58,0-19.15,0.29-28.73,0.3
				C362.8,715.37,362.79,717.87,364.4,717.87L364.4,717.87z"/>
		</g>
	</g>
	<g>
		<g>
			<path d="M296.16,447.2c1.61,0,1.61-2.5,0-2.5C294.55,444.7,294.55,447.2,296.16,447.2L296.16,447.2z"/>
		</g>
	</g>
	<g>
		<g>
			<path d="M309.45,433.12c1.61,0,1.61-2.5,0-2.5C307.85,430.62,307.84,433.12,309.45,433.12L309.45,433.12z"/>
		</g>
	</g>
	<g>
		<g>
			<path d="M323.53,465.19c1.61,0,1.61-2.5,0-2.5C321.92,462.69,321.92,465.19,323.53,465.19L323.53,465.19z"/>
		</g>
	</g>
	<g>
		<g>
			<path d="M308.67,455.81c1.61,0,1.61-2.5,0-2.5C307.06,453.31,307.06,455.81,308.67,455.81L308.67,455.81z"/>
		</g>
	</g>
	<g>
		<g>
			<path d="M291.47,435.47c1.61,0,1.61-2.5,0-2.5C289.86,432.97,289.85,435.47,291.47,435.47L291.47,435.47z"/>
		</g>
	</g>
	<g>
		<g>
			<path d="M318.06,457.37c1.61,0,1.61-2.5,0-2.5C316.45,454.87,316.45,457.37,318.06,457.37L318.06,457.37z"/>
		</g>
	</g>
	<g>
		<g>
			<path d="M350.91,501.95c1.61,0,1.61-2.5,0-2.5C349.3,499.45,349.3,501.95,350.91,501.95L350.91,501.95z"/>
		</g>
	</g>
	<g>
		<g>
			<path d="M366.55,490.22c1.61,0,1.61-2.5,0-2.5C364.94,487.72,364.94,490.22,366.55,490.22L366.55,490.22z"/>
		</g>
	</g>
	<g>
		<g>
			<path d="M331.35,537.93c1.61,0,1.61-2.5,0-2.5C329.75,535.43,329.74,537.93,331.35,537.93L331.35,537.93z"/>
		</g>
	</g>
	<g>
		<g>
			<path d="M357.95,578.6c1.61,0,1.61-2.5,0-2.5C356.34,576.1,356.33,578.6,357.95,578.6L357.95,578.6z"/>
		</g>
	</g>
	<g>
		<g>
			<path d="M381.41,564.52c1.61,0,1.61-2.5,0-2.5C379.8,562.02,379.8,564.52,381.41,564.52L381.41,564.52z"/>
		</g>
	</g>
	<g>
		<g>
			<path d="M348.56,562.17c1.61,0,1.61-2.5,0-2.5C346.95,559.67,346.95,562.17,348.56,562.17L348.56,562.17z"/>
		</g>
	</g>
	<g>
		<g>
			<path d="M373.59,534.8c1.61,0,1.61-2.5,0-2.5C371.98,532.3,371.98,534.8,373.59,534.8L373.59,534.8z"/>
		</g>
	</g>
	<g>
		<g>
			<path d="M370.46,576.25c1.61,0,1.61-2.5,0-2.5C368.85,573.75,368.85,576.25,370.46,576.25L370.46,576.25z"/>
		</g>
	</g>
	<g>
		<g>
			<path d="M357.95,534.8c1.61,0,1.61-2.5,0-2.5C356.34,532.3,356.33,534.8,357.95,534.8L357.95,534.8z"/>
		</g>
	</g>
	<g>
		<g>
			<path d="M375.93,519.16c1.61,0,1.61-2.5,0-2.5C374.33,516.66,374.32,519.16,375.93,519.16L375.93,519.16z"/>
		</g>
	</g>
	<g>
		<g>
			<path d="M358.73,557.48c1.61,0,1.61-2.5,0-2.5C357.12,554.98,357.12,557.48,358.73,557.48L358.73,557.48z"/>
		</g>
	</g>
	<g>
		<g>
			<path d="M362.64,519.16c1.61,0,1.61-2.5,0-2.5C361.03,516.66,361.03,519.16,362.64,519.16L362.64,519.16z"/>
		</g>
	</g>
	<g>
		<g>
			<path d="M338.39,510.55c1.61,0,1.61-2.5,0-2.5C336.78,508.05,336.78,510.55,338.39,510.55L338.39,510.55z"/>
		</g>
	</g>
	<g>
		<g>
			<path d="M343.09,533.24c1.61,0,1.61-2.5,0-2.5C341.48,530.74,341.47,533.24,343.09,533.24L343.09,533.24z"/>
		</g>
	</g>
	<g>
		<g>
			<path d="M339.18,483.18c1.61,0,1.61-2.5,0-2.5C337.57,480.68,337.56,483.18,339.18,483.18L339.18,483.18z"/>
		</g>
	</g>
	<g>
		<g>
			<path d="M378.28,505.86c1.61,0,1.61-2.5,0-2.5C376.67,503.36,376.67,505.86,378.28,505.86L378.28,505.86z"/>
		</g>
	</g>
	<g>
		<g>
			<path d="M354.04,474.58c1.61,0,1.61-2.5,0-2.5C352.43,472.08,352.42,474.58,354.04,474.58L354.04,474.58z"/>
		</g>
	</g>
	<g>
		<g>
			<path d="M332.92,502.73c1.61,0,1.61-2.5,0-2.5C331.31,500.23,331.31,502.73,332.92,502.73L332.92,502.73z"/>
		</g>
	</g>
	<g>
		<g>
			<path d="M368.11,509.77c1.61,0,1.61-2.5,0-2.5C366.51,507.27,366.5,509.77,368.11,509.77L368.11,509.77z"/>
		</g>
	</g>
	<g>
		<g>
			<path d="M339.96,553.57c1.61,0,1.61-2.5,0-2.5C338.35,551.07,338.35,553.57,339.96,553.57L339.96,553.57z"/>
		</g>
	</g>
	<g>
		<g>
			<path d="M378.28,553.57c1.61,0,1.61-2.5,0-2.5C376.67,551.07,376.67,553.57,378.28,553.57L378.28,553.57z"/>
		</g>
	</g>
	<g>
		<g>
			<path d="M382.19,699.83c1.61,0,1.61-2.5,0-2.5C380.58,697.33,380.58,699.83,382.19,699.83L382.19,699.83z"/>
		</g>
	</g>
	<g>
		<g>
			<path d="M360.29,666.2c1.61,0,1.61-2.5,0-2.5C358.68,663.7,358.68,666.2,360.29,666.2L360.29,666.2z"/>
		</g>
	</g>
	<g>
		<g>
			<path d="M366.55,695.92c1.61,0,1.61-2.5,0-2.5C364.94,693.42,364.94,695.92,366.55,695.92L366.55,695.92z"/>
		</g>
	</g>
	<g>
		<g>
			<path d="M399.4,676.36c1.61,0,1.61-2.5,0-2.5C397.79,673.86,397.79,676.36,399.4,676.36L399.4,676.36z"/>
		</g>
	</g>
	<g>
		<g>
			<path d="M375.15,680.28c1.61,0,1.61-2.5,0-2.5C373.54,677.78,373.54,680.28,375.15,680.28L375.15,680.28z"/>
		</g>
	</g>
	<g>
		<g>
			<path d="M392.36,628.66c1.61,0,1.61-2.5,0-2.5C390.75,626.16,390.75,628.66,392.36,628.66L392.36,628.66z"/>
		</g>
	</g>
	<g>
		<g>
			<path d="M390.01,688.1c1.61,0,1.61-2.5,0-2.5C388.4,685.6,388.4,688.1,390.01,688.1L390.01,688.1z"/>
		</g>
	</g>
	<g>
		<g>
			<path d="M382.19,652.9c1.61,0,1.61-2.5,0-2.5C380.58,650.4,380.58,652.9,382.19,652.9L382.19,652.9z"/>
		</g>
	</g>
	<g>
		<g>
			<path d="M378.28,670.89c1.61,0,1.61-2.5,0-2.5C376.67,668.39,376.67,670.89,378.28,670.89L378.28,670.89z"/>
		</g>
	</g>
	<g>
		<g>
			<path d="M400.18,663.07c1.61,0,1.61-2.5,0-2.5C398.57,660.57,398.57,663.07,400.18,663.07L400.18,663.07z"/>
		</g>
	</g>
	<g>
		<g>
			<path d="M369.68,635.69c1.61,0,1.61-2.5,0-2.5C368.07,633.19,368.07,635.69,369.68,635.69L369.68,635.69z"/>
		</g>
	</g>
	<g>
		<g>
			<path d="M366.55,654.47c1.61,0,1.61-2.5,0-2.5C364.94,651.97,364.94,654.47,366.55,654.47L366.55,654.47z"/>
		</g>
	</g>
	<g>
		<g>
			<path d="M368.11,616.14c1.61,0,1.61-2.5,0-2.5C366.51,613.64,366.5,616.14,368.11,616.14L368.11,616.14z"/>
		</g>
	</g>
	<g>
		<g>
			<path d="M383.76,642.73c1.61,0,1.61-2.5,0-2.5C382.15,640.23,382.14,642.73,383.76,642.73L383.76,642.73z"/>
		</g>
	</g>
	<g>
		<g>
			<path d="M400.96,649.77c1.61,0,1.61-2.5,0-2.5C399.35,647.27,399.35,649.77,400.96,649.77L400.96,649.77z"/>
		</g>
	</g>
	<g>
		<g>
			<path d="M420.52,633.35c1.61,0,1.61-2.5,0-2.5C418.91,630.85,418.9,633.35,420.52,633.35L420.52,633.35z"/>
		</g>
	</g>
	<g>
		<g>
			<path d="M397.05,605.19c1.61,0,1.61-2.5,0-2.5C395.44,602.69,395.44,605.19,397.05,605.19L397.05,605.19z"/>
		</g>
	</g>
	<g>
		<g>
			<path d="M412.69,641.95c1.61,0,1.61-2.5,0-2.5C411.09,639.45,411.08,641.95,412.69,641.95L412.69,641.95z"/>
		</g>
	</g>
	<g>
		<g>
			<path d="M408,621.62c1.61,0,1.61-2.5,0-2.5C406.39,619.12,406.39,621.62,408,621.62L408,621.62z"/>
		</g>
	</g>
	<g>
		<g>
			<path d="M385.32,612.23c1.61,0,1.61-2.5,0-2.5C383.71,609.73,383.71,612.23,385.32,612.23L385.32,612.23z"/>
		</g>
	</g>
	<g>
		<g>
			<path d="M411.13,605.19c1.61,0,1.61-2.5,0-2.5C409.52,602.69,409.52,605.19,411.13,605.19L411.13,605.19z"/>
		</g>
	</g>
	<g>
		<g>
			<path d="M357.95,631c1.61,0,1.61-2.5,0-2.5C356.34,628.5,356.33,631,357.95,631L357.95,631z"/>
		</g>
	</g>
	<g>
		<g>
			<path d="M438.5,633.35c1.61,0,1.61-2.5,0-2.5C436.9,630.85,436.89,633.35,438.5,633.35L438.5,633.35z"/>
		</g>
	</g>
	<g>
		<g>
			<path d="M457.28,598.15c1.61,0,1.61-2.5,0-2.5C455.67,595.65,455.66,598.15,457.28,598.15L457.28,598.15z"/>
		</g>
	</g>
	<g>
		<g>
			<path d="M444.76,619.27c1.61,0,1.61-2.5,0-2.5C443.15,616.77,443.15,619.27,444.76,619.27L444.76,619.27z"/>
		</g>
	</g>
	<g>
		<g>
			<path d="M462.75,627.87c1.61,0,1.61-2.5,0-2.5C461.14,625.37,461.14,627.87,462.75,627.87L462.75,627.87z"/>
		</g>
	</g>
	<g>
		<g>
			<path d="M493.25,607.54c1.61,0,1.61-2.5,0-2.5C491.64,605.04,491.64,607.54,493.25,607.54L493.25,607.54z"/>
		</g>
	</g>
	<g>
		<g>
			<path d="M465.1,610.67c1.61,0,1.61-2.5,0-2.5C463.49,608.17,463.49,610.67,465.1,610.67L465.1,610.67z"/>
		</g>
	</g>
	<g>
		<g>
			<path d="M481.52,620.05c1.61,0,1.61-2.5,0-2.5C479.91,617.55,479.91,620.05,481.52,620.05L481.52,620.05z"/>
		</g>
	</g>
	<g>
		<g>
			<path d="M472.14,562.17c1.61,0,1.61-2.5,0-2.5C470.53,559.67,470.52,562.17,472.14,562.17L472.14,562.17z"/>
		</g>
	</g>
	<g>
		<g>
			<path d="M454.15,574.69c1.61,0,1.61-2.5,0-2.5C452.54,572.19,452.54,574.69,454.15,574.69L454.15,574.69z"/>
		</g>
	</g>
	<g>
		<g>
			<path d="M487,580.95c1.61,0,1.61-2.5,0-2.5C485.39,578.45,485.39,580.95,487,580.95L487,580.95z"/>
		</g>
	</g>
	<g>
		<g>
			<path d="M471.35,598.15c1.61,0,1.61-2.5,0-2.5C469.75,595.65,469.74,598.15,471.35,598.15L471.35,598.15z"/>
		</g>
	</g>
	<g>
		<g>
			<path d="M482.3,605.97c1.61,0,1.61-2.5,0-2.5C480.7,603.47,480.69,605.97,482.3,605.97L482.3,605.97z"/>
		</g>
	</g>
	<g>
		<g>
			<path d="M472.92,577.04c1.61,0,1.61-2.5,0-2.5C471.31,574.54,471.31,577.04,472.92,577.04L472.92,577.04z"/>
		</g>
	</g>
	<g>
		<g>
			<path d="M504.99,598.15c1.61,0,1.61-2.5,0-2.5C503.38,595.65,503.37,598.15,504.99,598.15L504.99,598.15z"/>
		</g>
	</g>
	<g>
		<g>
			<path d="M488.56,568.43c1.61,0,1.61-2.5,0-2.5C486.95,565.93,486.95,568.43,488.56,568.43L488.56,568.43z"/>
		</g>
	</g>
	<g>
		<g>
			<path d="M514.37,584.86c1.61,0,1.61-2.5,0-2.5C512.76,582.36,512.76,584.86,514.37,584.86L514.37,584.86z"/>
		</g>
	</g>
	<g>
		<g>
			<path d="M507.33,554.35c1.61,0,1.61-2.5,0-2.5C505.72,551.85,505.72,554.35,507.33,554.35L507.33,554.35z"/>
		</g>
	</g>
	<g>
		<g>
			<path d="M487,594.24c1.61,0,1.61-2.5,0-2.5C485.39,591.74,485.39,594.24,487,594.24L487,594.24z"/>
		</g>
	</g>
	<g>
		<g>
			<path d="M501.07,577.82c1.61,0,1.61-2.5,0-2.5C499.47,575.32,499.46,577.82,501.07,577.82L501.07,577.82z"/>
		</g>
	</g>
	<g>
		<g>
			<path d="M479.18,547.31c1.61,0,1.61-2.5,0-2.5C477.57,544.81,477.56,547.31,479.18,547.31L479.18,547.31z"/>
		</g>
	</g>
	<g>
		<g>
			<path d="M493.25,548.88c1.61,0,1.61-2.5,0-2.5C491.64,546.38,491.64,548.88,493.25,548.88L493.25,548.88z"/>
		</g>
	</g>
	<g>
		<g>
			<path d="M510.46,537.15c1.61,0,1.61-2.5,0-2.5C508.85,534.65,508.85,537.15,510.46,537.15L510.46,537.15z"/>
		</g>
	</g>
	<g>
		<g>
			<path d="M518.28,569.21c1.61,0,1.61-2.5,0-2.5C516.67,566.71,516.67,569.21,518.28,569.21L518.28,569.21z"/>
		</g>
	</g>
	<g>
		<g>
			<path d="M516.72,547.31c1.61,0,1.61-2.5,0-2.5C515.11,544.81,515.11,547.31,516.72,547.31L516.72,547.31z"/>
		</g>
	</g>
	<g>
		<g>
			<path d="M502.64,491c1.61,0,1.61-2.5,0-2.5C501.03,488.5,501.03,491,502.64,491L502.64,491z"/>
		</g>
	</g>
	<g>
		<g>
			<path d="M498.73,506.64c1.61,0,1.61-2.5,0-2.5C497.12,504.14,497.12,506.64,498.73,506.64L498.73,506.64z"/>
		</g>
	</g>
	<g>
		<g>
			<path d="M508.9,517.59c1.61,0,1.61-2.5,0-2.5C507.29,515.09,507.28,517.59,508.9,517.59L508.9,517.59z"/>
		</g>
	</g>
	<g>
		<g>
			<path d="M520.63,500.39c1.61,0,1.61-2.5,0-2.5C519.02,497.89,519.02,500.39,520.63,500.39L520.63,500.39z"/>
		</g>
	</g>
	<g>
		<g>
			<path d="M498.73,519.94c1.61,0,1.61-2.5,0-2.5C497.12,517.44,497.12,519.94,498.73,519.94L498.73,519.94z"/>
		</g>
	</g>
	<g>
		<g>
			<path d="M493.25,498.04c1.61,0,1.61-2.5,0-2.5C491.64,495.54,491.64,498.04,493.25,498.04L493.25,498.04z"/>
		</g>
	</g>
	<g>
		<g>
			<path d="M511.24,509.77c1.61,0,1.61-2.5,0-2.5C509.63,507.27,509.63,509.77,511.24,509.77L511.24,509.77z"/>
		</g>
	</g>
	<g>
		<g>
			<path d="M512.81,491.78c1.61,0,1.61-2.5,0-2.5C511.2,489.28,511.2,491.78,512.81,491.78L512.81,491.78z"/>
		</g>
	</g>
	<g>
		<g>
			<path d="M503.42,501.95c1.61,0,1.61-2.5,0-2.5C501.81,499.45,501.81,501.95,503.42,501.95L503.42,501.95z"/>
		</g>
	</g>
	<g>
		<g>
			<path d="M425.99,474.58c1.61,0,1.61-2.5,0-2.5C424.38,472.08,424.38,474.58,425.99,474.58L425.99,474.58z"/>
		</g>
	</g>
	<g>
		<g>
			<path d="M399.4,482.4c1.61,0,1.61-2.5,0-2.5C397.79,479.9,397.79,482.4,399.4,482.4L399.4,482.4z"/>
		</g>
	</g>
	<g>
		<g>
			<path d="M416.61,465.19c1.61,0,1.61-2.5,0-2.5C415,462.69,414.99,465.19,416.61,465.19L416.61,465.19z"/>
		</g>
	</g>
	<g>
		<g>
			<path d="M403.31,490.22c1.61,0,1.61-2.5,0-2.5C401.7,487.72,401.7,490.22,403.31,490.22L403.31,490.22z"/>
		</g>
	</g>
	<g>
		<g>
			<path d="M412.69,476.92c1.61,0,1.61-2.5,0-2.5C411.09,474.42,411.08,476.92,412.69,476.92L412.69,476.92z"/>
		</g>
	</g>
	<g>
		<g>
			<path d="M418.17,486.31c1.61,0,1.61-2.5,0-2.5C416.56,483.81,416.56,486.31,418.17,486.31L418.17,486.31z"/>
		</g>
	</g>
</g>
</svg>
