<svg id="Layer_1" data-name="Layer 1" xmlns="http://www.w3.org/2000/svg" viewBox="0 0 1920.5165 3246.2123">
  <defs>
    <style>
      .cls-1, .cls-4 {
        fill: #5f2112;
      }

      .cls-1, .cls-2 {
        stroke: #000;
        stroke-miterlimit: 10;
        stroke-width: 0.75px;
      }

      .cls-3 {
        fill: #617387;
      }
    </style>
  </defs>
  <g>
    <rect class="cls-1" x="0.375" y="2160" width="1919.7465" height="1085.8373"/>
    <g>
      <g>
        <ellipse class="cls-2" cx="608.9043" cy="2519.6078" rx="8.0578" ry="3.3147"/>
        <g>
          <path class="cls-3" d="M612.1955,348.85c-2.2566-2.73-8.3174-2.4141-10.612.2973s-.8385,6.6836,2.5924,8.5547c3.1748,1.7315,8.0018,1.6961,10.6969-.4636a4.4088,4.4088,0,0,0-1.29-7.6689" transform="translate(0.5165 2162.9187)"/>
          <path d="M612.991,348.0543c-2.0124-2.3475-5.7673-2.63-8.5667-1.8453a7.2948,7.2948,0,0,0-3.7479,2.2792,5.8809,5.8809,0,0,0-1.2209,4.7607c.5927,3.5214,3.9384,5.87,7.2419,6.5392,3.3163.6714,7.6333.1959,9.8493-2.6691a5.5127,5.5127,0,0,0,.9712-4.8117,5.8845,5.8845,0,0,0-3.6362-3.8228,1.1321,1.1321,0,0,0-1.3839.7857,1.153,1.153,0,0,0,.7857,1.3839,3.32,3.32,0,0,1,1.6309,4.9c-1.4175,2.1367-4.735,2.4863-7.0465,2.1648-2.5019-.3479-5.2232-1.7157-6.05-4.2785a3.85,3.85,0,0,1,2.67-4.8938c2.18-.7688,5.2909-.7929,6.9124,1.0986.9439,1.1011,2.5291-.4966,1.591-1.591Z" transform="translate(0.5165 2162.9187)"/>
        </g>
      </g>
      <g>
        <ellipse class="cls-2" cx="1072.5012" cy="2756.9302" rx="8.2205" ry="5.0968"/>
        <g>
          <path class="cls-3" d="M1075.8693,581.9573c-2.3021-4.1982-8.4853-3.7121-10.8262.4572s-.8555,10.277,2.6448,13.1543a7.7668,7.7668,0,0,0,10.9128-.7129c2.75-3.3208,2.2238-9.7082-1.3163-11.7923" transform="translate(0.5165 2162.9187)"/>
          <path d="M1076.8407,581.39a7.1731,7.1731,0,0,0-9.5577-2.615c-3.8568,1.9255-4.9695,6.5845-4.2826,10.5358.7087,4.0772,3.4684,7.9072,7.6011,8.977a8.53,8.53,0,0,0,10.0991-4.8034c1.57-3.7555.8574-9.1311-2.8483-11.3917-1.2395-.756-2.3713,1.1891-1.1357,1.9428,2.3956,1.4614,2.8926,4.9277,2.2819,7.449a6.22,6.22,0,0,1-6.7537,4.8256c-3.3293-.3166-5.7361-2.9791-6.6956-6.0351-.916-2.9172-.7652-6.7582,1.7648-8.8551a5.0187,5.0187,0,0,1,7.5839,1.1057,1.1258,1.1258,0,0,0,1.9428-1.1356Z" transform="translate(0.5165 2162.9187)"/>
        </g>
      </g>
      <g>
        <ellipse class="cls-2" cx="1072.926" cy="2427.7576" rx="8.5442" ry="4.369"/>
        <g>
          <path class="cls-3" d="M1076.447,254.5061c-2.3927-3.5987-8.8194-3.182-11.2524.3919s-.8892,8.8094,2.7488,11.2758c3.3664,2.2822,8.4847,2.2355,11.3425-.6111s2.3114-8.3219-1.368-10.1083" transform="translate(0.5165 2162.9187)"/>
          <path d="M1077.4184,253.9383c-2.0538-2.9824-6.151-3.7377-9.4248-2.4841a7.9472,7.9472,0,0,0-4.9436,9.0628,10.2418,10.2418,0,0,0,7.7193,8.0938c3.7774.8924,8.4163-.1722,10.4524-3.7492,1.9832-3.484.9767-8.5015-2.736-10.3786-1.2892-.6518-2.4295,1.2886-1.1356,1.9428a5.27,5.27,0,0,1,2.2675,6.5852c-1.0714,2.8849-4.4651,3.9352-7.286,3.606a8.0754,8.0754,0,0,1-6.7339-5.2431c-.9429-2.6809-.3987-5.8624,2.21-7.3646,2.3074-1.3286,6.0209-1.3266,7.6677,1.0646.816,1.1849,2.7669.061,1.9428-1.1356Z" transform="translate(0.5165 2162.9187)"/>
        </g>
      </g>
    </g>
  </g>
  <rect class="cls-4" x="0.2482" y="1080" width="1920" height="1080"/>
  <rect class="cls-4" x="0.5165" width="1920" height="1080"/>
</svg>
