<svg id="Layer_1" data-name="Layer 1" xmlns="http://www.w3.org/2000/svg" xmlns:xlink="http://www.w3.org/1999/xlink" viewBox="0 0 1927.55 1124.49"><defs><style>.cls-1{fill:none;}.cls-2{fill:#5f2112;}.cls-3{clip-path:url(#clip-path);}.cls-4,.cls-5{fill:#9e4328;}.cls-4,.cls-5,.cls-6,.cls-8{stroke:#000;stroke-miterlimit:10;}.cls-4{stroke-width:2px;}.cls-5{stroke-width:3px;}.cls-6{stroke-width:0.75px;}.cls-7{fill:#617387;}</style><clipPath id="clip-path" transform="translate(1.5 42.99)"><path class="cls-1" d="M940.85-2.42C957.32-1,961.07-3.92,965.93-1c9.2,5.6,6.91,23.08,7.05,26.87,4.83,132.8,6.71,265.7,4.85,398.56-1.22,87.39-4.06,174.9,1.82,262.12,2.63,38.91,7,77.83,5.71,116.8-4.41,133.56-15.86,119-8.94,198.28,2.77,31.63,8.43,67.18-8.22,76-8.72,4.6-22.87,1.51-31.38-5.51-10.93-9-11.52-23.95-12.08-29.49-9.91-98-9.67-196.61-9.42-295,0,0,40.14-211.24,1.81-725.74-.28-3.74-1.78-20.53,6.6-25C927.21-5.09,929.68-3.38,940.85-2.42Z"/></clipPath></defs><rect class="cls-2" x="1.5" y="42.99" width="1920" height="1080"/><path d="M940.85-.92a117.81,117.81,0,0,0,14.43.27c2.62-.12,5.6-.63,8.15.19,8.16,2.61,8.32,14.4,8.19,21.35-.47,23.86,1.35,47.92,2,71.78q2.39,82.92,3.11,165.88t-.44,165.91c-.77,55.16-2.19,110.33-1.65,165.51.28,27.92,1.05,55.85,2.67,83.74,1.56,27,4.21,53.84,5.69,80.8,2.45,44.37,0,89.13-4.15,133.35-1.9,20.43-5.1,40.81-5.92,61.32-1.2,29.76,3.72,59.07,5,88.72.41,9.51.73,20-2.8,29-4,10.15-13.76,12.92-23.87,10.54a30.4,30.4,0,0,1-22.94-21.79c-2.66-9.25-2.77-19.51-3.63-29-4.93-54.7-6.87-109.63-7.58-164.54-.36-27.47-.41-55-.38-82.42,0-10.65-1-21.88.15-32.45.44-4.08,1.35-8.16,1.94-12.22,3.46-23.69,5.85-47.54,7.85-71.39,3.87-46.16,6-92.46,7.28-138.76,1.89-70.57,1.52-141.19-.3-211.75-2.5-96.84-7.81-193.59-15-290.19-.46-6.3-1-13.13,1.33-19.14,3.65-9.51,13-5.44,20.81-4.7,1.93.18,1.91-2.83,0-3-5.67-.54-13.9-3.61-19.08.2-5.48,4-6.32,12.13-6.41,18.41-.16,10.18,1.26,20.47,2,30.62q1.49,20.77,2.83,41.57,4.91,75.29,8,150.68c3.22,80,4.77,160.1,3.74,240.16-.69,53.53-2.49,107.08-6.26,160.49-2.06,29.27-4.64,58.55-8.53,87.65-.81,6.06-1.67,12.11-2.68,18.14-.17,1-.42,2-.53,3-.64,5.76-.11,11.86-.12,17.67q0,21.4,0,42.81c.1,56.35.88,112.73,4.23,169q1.28,21.36,3.08,42.68c.88,10.36,1.41,20.9,3.06,31.17,2.89,18.12,17.39,32.56,36.69,30.83,17.18-1.55,20.05-19.6,20.3-33.73.35-20.38-3-40.74-4.37-61.05A352.7,352.7,0,0,1,978,924c3.34-30.36,6.18-60.67,7.65-91.19,1.3-26.85,1.8-53.55.26-80.4-1.63-28.4-4.43-56.71-5.94-85.12-6.07-113.81,0-228,0-341.93q0-85.11-1.82-170.2Q977.31,112,975.94,69c-.44-14-1.15-28-1.42-42-.13-6.55.63-13.14-1.21-19.54-1.47-5.13-4.76-10-10.32-11.08a30.7,30.7,0,0,0-7.17,0,120.62,120.62,0,0,1-15-.25C938.93-4.07,938.94-1.07,940.85-.92Z" transform="translate(1.5 42.99)"/><rect class="cls-4" x="1155.55" y="42.99" width="771" height="1080"/><rect class="cls-5" x="1.5" y="42.99" width="950.41" height="1080"/><path class="cls-2" d="M730.9-40a1.5,1.5,0,0,0,0-3,1.5,1.5,0,0,0,0,3Z" transform="translate(1.5 42.99)"/><ellipse class="cls-6" cx="804.38" cy="220.2" rx="11.46" ry="6.13"/><path class="cls-7" d="M808.3,162.72c-3.21-5.05-11.83-4.46-15.09.55s-1.19,12.36,3.69,15.81c4.51,3.21,11.37,3.14,15.21-.85s3.1-11.67-1.84-14.18" transform="translate(1.5 42.99)"/><path d="M809.27,162.15c-2.63-4-8-5-12.27-3.25-4.94,2-7.13,7.06-6.29,12.16a13.68,13.68,0,0,0,10.13,11c5,1.2,11-.35,13.56-5.11s1.31-11.32-3.56-13.89c-1.28-.68-2.42,1.26-1.14,1.94,3.41,1.8,4.41,6.15,3.26,9.63-1.37,4.16-5.93,5.95-10,5.53a11.36,11.36,0,0,1-9.53-7.61c-1.31-3.82-.68-8.57,3-10.85,3.35-2.1,8.61-2,11,1.57.79,1.2,2.74.08,1.94-1.14Z" transform="translate(1.5 42.99)"/><ellipse class="cls-8" cx="69.9" cy="155.57" rx="42.57" ry="12.66"/><path class="cls-7" d="M55.68,45c-4.38-.87-8.83,1.61-11.8,4.94-9.78,11-6.5,28.34-12.59,41.71C28.84,97,24.76,102.34,26,108.11c1.62,7.45,10.74,10.11,18.32,11a249.23,249.23,0,0,0,40.14,1.51c3.29-.14,6.65-.36,9.66-1.7,3.93-1.74,6.81-5.18,9.55-8.51,3.94-4.79,8.12-10.4,7.21-16.53-.67-4.45-3.9-8-7-11.29C94.45,72.56,85,62.51,74.74,53.27c-6.41-5.78-14.88-11.6-23-8.7" transform="translate(1.5 42.99)"/><path d="M56.08,43.5C47.48,42,40.92,49.57,38,56.76c-3.05,7.38-3.42,15.5-4.85,23.27A45.83,45.83,0,0,1,29.73,91.4c-1.87,3.95-4.5,7.77-5.23,12.15a12.12,12.12,0,0,0,2.88,10.3A19.78,19.78,0,0,0,36.23,119,59.11,59.11,0,0,0,48,121q7.82.81,15.66,1.13c5.22.22,10.46.26,15.69.15,4.85-.11,10.2.09,14.78-1.75,4.08-1.63,7.1-4.82,9.86-8.13s5.68-6.9,7.36-11A14.5,14.5,0,0,0,110.76,89c-2.12-4-5.64-7.26-8.73-10.53-7-7.38-14-14.72-21.34-21.7-6.41-6.07-13.76-13.46-23-14.36a15.41,15.41,0,0,0-6.32.75c-1.82.62-1,3.52.79,2.9C60.34,43.23,68.3,49.46,74,54.65,81,60.93,87.55,67.58,94,74.34c3.19,3.34,6.38,6.69,9.53,10.07,2.67,2.87,5.59,6.2,5.93,10.29s-1.8,7.91-4.12,11.14a53.68,53.68,0,0,1-8,9.19c-3.39,3-7.41,3.82-11.8,4-4.78.25-9.58.32-14.37.27a204.9,204.9,0,0,1-28.12-1.9c-5.55-.83-13.46-2.7-15.41-8.82-1.25-4,.61-7.92,2.41-11.39a57.86,57.86,0,0,0,4.51-10.42c2.07-7.14,2.43-14.62,4-21.86,1.47-6.83,4.44-14.58,11.21-17.74a9.16,9.16,0,0,1,5.45-.82c1.89.33,2.7-2.56.8-2.9Z" transform="translate(1.5 42.99)"/><path d="M56.26,62.14c1.05,5.61,2.28,11.09,5.23,16,2.69,4.5,6.78,9.58,4.94,15.15-.61,1.83,2.28,2.62,2.89.79C71.23,88.36,68,82.92,65,78.19a34.25,34.25,0,0,1-3.79-7.85,74.7,74.7,0,0,1-2.06-9c-.36-1.89-3.25-1.09-2.9.8Z" transform="translate(1.5 42.99)"/><ellipse class="cls-6" cx="59.11" cy="349.09" rx="11.46" ry="6.13"/><path class="cls-7" d="M63,291.61c-3.21-5.05-11.83-4.46-15.09.55S46.74,304.52,51.62,308c4.51,3.2,11.38,3.13,15.21-.86s3.1-11.67-1.83-14.18" transform="translate(1.5 42.99)"/><path d="M64,291c-2.62-4-8-5-12.27-3.25-4.93,2-7.13,7.06-6.29,12.16a13.69,13.69,0,0,0,10.14,11c5,1.21,11-.35,13.55-5.11s1.32-11.32-3.56-13.89c-1.28-.68-2.41,1.27-1.13,1.94,3.41,1.8,4.41,6.15,3.25,9.63-1.37,4.16-5.93,5.95-10,5.53a11.36,11.36,0,0,1-9.53-7.61c-1.31-3.82-.68-8.57,3-10.85,3.35-2.1,8.6-2,10.94,1.57.79,1.2,2.74.08,1.94-1.14Z" transform="translate(1.5 42.99)"/><ellipse class="cls-6" cx="123.97" cy="251.53" rx="11.46" ry="6.13"/><path class="cls-7" d="M127.89,194.05c-3.21-5.05-11.83-4.46-15.09.55s-1.2,12.36,3.68,15.81c4.52,3.21,11.38,3.14,15.22-.85s3.1-11.67-1.84-14.18" transform="translate(1.5 42.99)"/><path d="M128.86,193.48c-2.63-4-8-5-12.27-3.25-4.94,2-7.14,7.06-6.3,12.16a13.69,13.69,0,0,0,10.14,11c5,1.2,11-.35,13.56-5.11s1.31-11.32-3.56-13.89c-1.28-.68-2.42,1.26-1.14,1.94,3.41,1.8,4.41,6.15,3.26,9.63-1.37,4.16-5.93,6-10,5.53A11.35,11.35,0,0,1,113,203.9c-1.32-3.82-.68-8.57,3-10.85,3.35-2.1,8.6-2,11,1.57.79,1.2,2.74.08,1.94-1.14Z" transform="translate(1.5 42.99)"/><ellipse class="cls-6" cx="875.22" cy="85.68" rx="11.46" ry="6.13"/><path class="cls-7" d="M879.14,28.2c-3.21-5.05-11.83-4.47-15.09.55s-1.2,12.35,3.68,15.81c4.52,3.2,11.38,3.14,15.22-.86s3.1-11.67-1.84-14.17" transform="translate(1.5 42.99)"/><path d="M880.11,27.63c-2.63-4-8-5-12.27-3.25-4.94,2-7.14,7.06-6.29,12.16a13.69,13.69,0,0,0,10.13,11c5,1.2,11-.35,13.56-5.11s1.31-11.32-3.56-13.89c-1.28-.68-2.42,1.26-1.14,1.94,3.41,1.8,4.41,6.14,3.26,9.63-1.37,4.16-5.93,5.95-10,5.52A11.32,11.32,0,0,1,864.25,38c-1.32-3.82-.68-8.56,3-10.85,3.35-2.09,8.61-2,10.95,1.57.79,1.21,2.74.08,1.94-1.13Z" transform="translate(1.5 42.99)"/><ellipse class="cls-6" cx="827.51" cy="502.73" rx="11.46" ry="6.13"/><path class="cls-7" d="M831.42,445.25c-3.21-5.05-11.83-4.46-15.09.55s-1.19,12.36,3.69,15.81c4.51,3.21,11.38,3.14,15.21-.85s3.1-11.67-1.83-14.18" transform="translate(1.5 42.99)"/><path d="M832.39,444.68c-2.62-4-8-5-12.27-3.25-4.93,2-7.13,7.06-6.29,12.16a13.69,13.69,0,0,0,10.14,11c5,1.2,11-.35,13.55-5.11s1.32-11.32-3.56-13.89c-1.28-.68-2.41,1.26-1.13,1.94,3.41,1.8,4.41,6.15,3.26,9.63-1.38,4.16-5.94,5.95-10,5.53a11.36,11.36,0,0,1-9.53-7.61c-1.31-3.82-.68-8.57,3-10.85,3.35-2.1,8.6-2,10.94,1.57.79,1.2,2.74.08,1.94-1.14Z" transform="translate(1.5 42.99)"/><ellipse class="cls-8" cx="881.75" cy="399.87" rx="42.57" ry="12.66"/><path class="cls-7" d="M867.53,289.25c-4.38-.87-8.83,1.6-11.8,4.94-9.78,11-6.5,28.34-12.59,41.71-2.45,5.37-6.53,10.74-5.28,16.51,1.62,7.45,10.74,10.11,18.32,11a249.23,249.23,0,0,0,40.14,1.51c3.29-.14,6.65-.36,9.65-1.7,3.94-1.74,6.82-5.18,9.56-8.51,3.94-4.79,8.12-10.4,7.2-16.53-.66-4.45-3.89-8-7-11.29-9.46-10-18.92-20.09-29.17-29.33-6.41-5.78-14.88-11.6-23-8.7" transform="translate(1.5 42.99)"/><path d="M867.93,287.8c-8.61-1.51-15.16,6.07-18.12,13.25-3,7.39-3.42,15.51-4.85,23.28a45.83,45.83,0,0,1-3.38,11.37c-1.87,3.95-4.5,7.77-5.23,12.15a12.12,12.12,0,0,0,2.88,10.3,19.73,19.73,0,0,0,8.85,5.13,59.11,59.11,0,0,0,11.75,2q7.81.81,15.65,1.13c5.23.22,10.47.26,15.7.15,4.85-.11,10.19.09,14.78-1.75,4.07-1.63,7.1-4.82,9.85-8.13s5.69-6.9,7.37-11a14.5,14.5,0,0,0-.57-12.42c-2.12-4-5.64-7.26-8.73-10.53-7-7.38-14-14.72-21.34-21.7-6.41-6.07-13.76-13.46-23-14.36a15.48,15.48,0,0,0-6.33.75c-1.81.62-1,3.52.8,2.9,8.22-2.79,16.18,3.44,21.92,8.63,6.93,6.28,13.51,12.93,20,19.69,3.19,3.34,6.38,6.69,9.53,10.07,2.67,2.87,5.59,6.2,5.93,10.29s-1.81,7.9-4.12,11.14a53.68,53.68,0,0,1-8,9.19c-3.39,3-7.41,3.82-11.8,4.05-4.78.25-9.58.32-14.37.27a204.9,204.9,0,0,1-28.12-1.9c-5.55-.83-13.47-2.7-15.41-8.82-1.25-4,.61-7.92,2.41-11.39a57.65,57.65,0,0,0,4.51-10.43c2.07-7.13,2.43-14.61,4-21.85,1.48-6.83,4.45-14.58,11.22-17.74a9.16,9.16,0,0,1,5.45-.82c1.89.33,2.7-2.56.8-2.9Z" transform="translate(1.5 42.99)"/><path d="M868.11,306.44c1,5.61,2.28,11.09,5.23,16.05,2.68,4.5,6.78,9.58,4.93,15.15-.6,1.83,2.29,2.62,2.9.79,1.91-5.77-1.35-11.21-4.31-15.94a34.25,34.25,0,0,1-3.79-7.85,74.7,74.7,0,0,1-2.06-9c-.36-1.89-3.25-1.09-2.9.8Z" transform="translate(1.5 42.99)"/><ellipse class="cls-8" cx="461.63" cy="665.17" rx="166.98" ry="40.4"/><path class="cls-7" d="M335.19,627.93c-29.16-6.33-49.05-34-59-62.09-5.53-15.63-8.78-33.33-2-48.47,7.59-17.05,26-26.95,35.08-43.28,9.87-17.85,7.33-41.25,19.69-57.48,12-15.7,33.74-19.46,53.43-21,59.2-4.51,119.18.62,177.73-9.28,16.57-2.8,36-6,48.13,5.68,9.85,9.49,10.31,25.09,7.95,38.57s-6.85,27.07-4.49,40.55c2.32,13.27,11,24.42,16.8,36.57,20.79,43.17.45,101.37-42.71,122.18-18.71,9-39.83,11.42-60.48,13.68-65.69,7.19-135.36,13.76-195-14.68" transform="translate(1.5 42.99)"/><path d="M335.59,626.48c-32-7.09-52-39.14-60.41-68.7-2.54-8.93-4.05-18.32-3-27.6a44.87,44.87,0,0,1,10.16-23.11c9.9-12.18,23.53-21.39,30.07-36.09,6.72-15.11,6.28-32.5,13.82-47.27s22.62-21.35,38.11-24.32a204.63,204.63,0,0,1,25.56-2.77c10.34-.65,20.7-1.05,31.06-1.31,20.73-.52,41.48-.51,62.21-1,20.9-.53,41.81-1.59,62.55-4.28,9-1.17,18-3,27-4.05,7.76-.92,15.9-1.33,23.47.92a26,26,0,0,1,16.68,14.65c3.15,7.28,3.37,15.59,2.56,23.37-1,9.65-3.89,19-5.21,28.6s-.78,18.73,2.75,27.68c3.27,8.28,8.15,15.76,12.29,23.6a84,84,0,0,1,7.75,20.67,91.86,91.86,0,0,1-.56,41.75C625.78,595,607,619.76,580.15,630.79c-17.88,7.36-37.35,9.39-56.4,11.47-18.83,2-37.67,4-56.58,5.11-37.05,2.16-75,1.19-110.69-9.86a191.6,191.6,0,0,1-25.44-9.9c-1.74-.82-3.26,1.76-1.52,2.59,34.68,16.47,73.24,21.37,111.29,21.08,19.4-.15,38.75-1.57,58.05-3.43,9.66-.93,19.31-2,29-3s19.31-2.2,28.84-4.08c16.86-3.32,33.15-9.25,46.55-20.26a95.07,95.07,0,0,0,25.71-33.85A101.22,101.22,0,0,0,638.19,545a89,89,0,0,0-10.58-42.28c-4.32-8.09-9.48-15.85-12.53-24.56-3.5-10-2.79-20.27-.82-30.54,3.12-16.25,8.71-34.77-.1-50.33a29.17,29.17,0,0,0-18.09-13.59c-7.75-2.06-16-1.66-23.84-.69-9.31,1.14-18.52,3-27.83,4.16-10.71,1.35-21.47,2.27-32.24,2.92-42.54,2.56-85.22.82-127.74,3.9-15.91,1.16-33.14,3.11-46.67,12.33a43,43,0,0,0-15,17.79c-3.44,7.53-5.09,15.67-6.78,23.73-1.75,8.36-3.52,16.91-7.52,24.54-3.78,7.22-9.44,13.15-15.16,18.85S281.8,502.4,277.22,509a46.8,46.8,0,0,0-8.29,24.83c-.44,9.4,1.45,18.82,4.25,27.75a137,137,0,0,0,9.51,22.93c7.43,14.13,17.69,27.27,31.19,36a63.65,63.65,0,0,0,20.91,8.84c1.88.42,2.69-2.47.8-2.89Z" transform="translate(1.5 42.99)"/><path d="M559.43,444.78c-1.66,6-1.07,12.19-.26,18.25.78,5.8,2,11.78,1.21,17.65a18.44,18.44,0,0,1-2.72,7.7,20.94,20.94,0,0,1-7,6.33c-3,1.78-6.1,3.23-9.2,4.72Q536.24,502,531,504.37q-12.19,5.56-24.63,10.53c-1.77.71-1,3.62.8,2.9q11.22-4.49,22.25-9.43c7.08-3.18,14.27-6.33,21.08-10.06,5.67-3.12,10.43-7.44,12.22-13.84,1.64-5.89.79-12.12,0-18.06-.94-6.86-2.21-14-.32-20.83a1.5,1.5,0,0,0-2.89-.8Z" transform="translate(1.5 42.99)"/><path d="M443.28,562.28c10.06-4.68,20.29-9.39,31.27-11.43,11.26-2.1,22.51-.36,33.34,3s21.18,7.76,31.53,12.08c5.36,2.24,10.67,4.6,15.86,7.19,4.87,2.44,9.55,5.19,14.28,7.88,9.8,5.57,21.29,11.36,32.77,7.63,1.83-.59,1-3.49-.8-2.89-10.24,3.32-20.51-1.75-29.3-6.68-4.86-2.72-9.63-5.59-14.6-8.11s-10.29-4.91-15.54-7.12c-10.46-4.43-21-8.87-31.84-12.37s-21.91-5.55-33.17-4c-12.46,1.68-24,7-35.31,12.27-1.75.81-.23,3.4,1.51,2.59Z" transform="translate(1.5 42.99)"/><path d="M329.88,546c17.35-7.88,24.88-26.88,36.29-40.85a57.3,57.3,0,0,1,10-9.89,64.82,64.82,0,0,1,15.13-8.1c5.53-2.15,11.23-3.8,16.93-5.41q9.59-2.7,19.26-5.1,21.71-5.4,43.73-9.27c1.9-.33,1.1-3.23-.79-2.89q-19.64,3.45-39,8.11c-12.43,3-25,6.06-37.09,10.27-10.4,3.62-20,8.74-27.54,16.94-6.36,6.95-11.22,15.07-16.55,22.78-5.8,8.38-12.42,16.51-21.9,20.82-1.76.8-.23,3.39,1.51,2.59Z" transform="translate(1.5 42.99)"/><ellipse class="cls-8" cx="742.27" cy="615.71" rx="42.57" ry="12.66"/><path class="cls-7" d="M728.06,505.08c-4.38-.87-8.83,1.61-11.8,4.94-9.78,11-6.5,28.34-12.59,41.71-2.45,5.37-6.53,10.74-5.28,16.51,1.62,7.45,10.74,10.11,18.32,11a249.23,249.23,0,0,0,40.14,1.51c3.29-.14,6.65-.36,9.65-1.69,3.94-1.75,6.82-5.19,9.56-8.51,3.94-4.79,8.12-10.4,7.2-16.54-.66-4.44-3.89-8-7-11.28-9.45-10-18.92-20.1-29.16-29.33-6.41-5.79-14.88-11.6-23-8.71" transform="translate(1.5 42.99)"/><path d="M728.46,503.64c-8.61-1.52-15.16,6.06-18.13,13.25-3,7.38-3.41,15.5-4.84,23.27a46,46,0,0,1-3.38,11.38c-1.87,3.94-4.5,7.76-5.23,12.14a12.07,12.07,0,0,0,2.88,10.3,19.69,19.69,0,0,0,8.85,5.14,59.11,59.11,0,0,0,11.75,2q7.82.81,15.65,1.13t15.69.14c4.86-.11,10.2.1,14.79-1.74,4.07-1.64,7.1-4.83,9.85-8.14s5.69-6.9,7.36-11a14.46,14.46,0,0,0-.56-12.42c-2.12-4-5.64-7.26-8.73-10.53-7-7.38-14-14.72-21.34-21.7-6.41-6.07-13.76-13.45-23-14.35a15.11,15.11,0,0,0-6.33.75c-1.82.61-1,3.51.8,2.89,8.22-2.78,16.18,3.45,21.91,8.64,6.94,6.27,13.52,12.92,20,19.68,3.19,3.34,6.38,6.69,9.53,10.08,2.67,2.87,5.58,6.2,5.93,10.29s-1.81,7.9-4.12,11.13a53.3,53.3,0,0,1-8,9.19c-3.39,3-7.42,3.82-11.81,4.05-4.78.25-9.57.32-14.36.27a205.14,205.14,0,0,1-28.13-1.89c-5.54-.83-13.46-2.71-15.4-8.83-1.26-4,.61-7.91,2.41-11.39A57.56,57.56,0,0,0,707,547c2.06-7.14,2.42-14.62,4-21.86,1.48-6.82,4.45-14.57,11.22-17.73a9.17,9.17,0,0,1,5.45-.83c1.89.33,2.7-2.56.8-2.89Z" transform="translate(1.5 42.99)"/><path d="M728.64,522.27c1.05,5.61,2.28,11.1,5.23,16.05,2.68,4.51,6.78,9.58,4.93,15.15-.61,1.84,2.29,2.62,2.9.8,1.91-5.78-1.35-11.21-4.31-15.95a34.25,34.25,0,0,1-3.79-7.85,77,77,0,0,1-2.07-9c-.35-1.9-3.24-1.1-2.89.79Z" transform="translate(1.5 42.99)"/><ellipse class="cls-8" cx="87.02" cy="624.92" rx="42.57" ry="12.66"/><path class="cls-7" d="M72.8,514.29c-4.38-.86-8.83,1.61-11.8,4.94-9.78,11-6.5,28.34-12.59,41.71-2.45,5.37-6.53,10.75-5.28,16.51,1.62,7.46,10.75,10.11,18.32,11A250.39,250.39,0,0,0,101.59,590c3.29-.14,6.65-.37,9.66-1.7,3.93-1.75,6.81-5.19,9.55-8.51,3.94-4.79,8.12-10.4,7.21-16.53-.67-4.45-3.9-8-7-11.29-9.46-10-18.92-20.1-29.16-29.33-6.42-5.78-14.89-11.6-23-8.7" transform="translate(1.5 42.99)"/><path d="M73.2,512.85c-8.6-1.52-15.16,6.07-18.12,13.25-3,7.38-3.42,15.51-4.85,23.28a46,46,0,0,1-3.38,11.37c-1.87,3.94-4.49,7.76-5.23,12.15a12.12,12.12,0,0,0,2.88,10.3,19.78,19.78,0,0,0,8.85,5.13,59.11,59.11,0,0,0,11.75,2q7.82.81,15.66,1.13c5.22.21,10.46.26,15.69.14,4.85-.1,10.2.1,14.78-1.74,4.08-1.63,7.1-4.83,9.86-8.13s5.69-6.91,7.36-11a14.5,14.5,0,0,0-.57-12.42c-2.12-4-5.64-7.26-8.73-10.53-7-7.38-14-14.72-21.34-21.69-6.41-6.08-13.76-13.46-23-14.36a15.08,15.08,0,0,0-6.32.75c-1.82.61-1,3.51.79,2.89,8.22-2.78,16.18,3.45,21.92,8.64,6.93,6.27,13.52,12.93,20,19.68,3.19,3.34,6.38,6.69,9.53,10.08,2.67,2.87,5.59,6.2,5.93,10.29s-1.8,7.9-4.12,11.13a53.3,53.3,0,0,1-8,9.19c-3.39,3-7.41,3.82-11.8,4-4.78.26-9.58.32-14.36.27a203.47,203.47,0,0,1-28.13-1.89c-5.55-.83-13.46-2.71-15.4-8.83-1.26-4,.6-7.91,2.4-11.39a58,58,0,0,0,4.52-10.42c2.06-7.14,2.42-14.62,4-21.86,1.47-6.82,4.44-14.57,11.21-17.73a9.24,9.24,0,0,1,5.45-.83c1.89.33,2.7-2.56.8-2.89Z" transform="translate(1.5 42.99)"/><path d="M73.38,531.49c1.06,5.61,2.28,11.09,5.23,16,2.69,4.5,6.78,9.57,4.94,15.14-.61,1.84,2.28,2.63,2.89.8,1.91-5.78-1.35-11.21-4.31-16a34.25,34.25,0,0,1-3.79-7.85,75,75,0,0,1-2.06-9c-.36-1.9-3.25-1.09-2.9.8Z" transform="translate(1.5 42.99)"/><ellipse class="cls-6" cx="898.14" cy="617.29" rx="11.46" ry="6.13"/><path class="cls-7" d="M902.06,559.81c-3.21-5-11.83-4.47-15.09.55s-1.2,12.35,3.68,15.81c4.52,3.2,11.38,3.14,15.21-.86s3.1-11.67-1.83-14.17" transform="translate(1.5 42.99)"/><path d="M903,559.24c-2.63-4-8-5-12.27-3.25-4.94,2-7.14,7.06-6.3,12.16a13.7,13.7,0,0,0,10.14,11c5,1.2,11-.35,13.56-5.11s1.31-11.32-3.56-13.9c-1.28-.67-2.42,1.27-1.14,2,3.41,1.8,4.41,6.14,3.26,9.63-1.37,4.16-5.93,5.94-10,5.52a11.32,11.32,0,0,1-9.53-7.61c-1.32-3.82-.68-8.56,3-10.85,3.35-2.09,8.6-2,11,1.57.79,1.21,2.74.08,1.94-1.13Z" transform="translate(1.5 42.99)"/><ellipse class="cls-6" cx="166.55" cy="471.04" rx="11.46" ry="6.13"/><path class="cls-7" d="M170.46,413.56c-3.21-5.05-11.82-4.46-15.09.55s-1.19,12.36,3.69,15.82c4.51,3.2,11.38,3.13,15.21-.86s3.1-11.67-1.83-14.18" transform="translate(1.5 42.99)"/><path d="M171.44,413c-2.63-4-8-5-12.27-3.25-4.94,2-7.14,7.06-6.3,12.16a13.69,13.69,0,0,0,10.14,11c5,1.21,11-.35,13.55-5.11s1.32-11.31-3.56-13.89c-1.28-.67-2.41,1.27-1.13,1.94,3.41,1.8,4.41,6.15,3.26,9.63-1.38,4.16-5.94,5.95-10,5.53a11.36,11.36,0,0,1-9.53-7.61c-1.31-3.82-.68-8.57,3-10.85,3.35-2.1,8.6-2,10.94,1.57.8,1.2,2.74.08,1.95-1.14Z" transform="translate(1.5 42.99)"/><ellipse class="cls-8" cx="87.02" cy="848.37" rx="42.57" ry="12.66"/><path class="cls-7" d="M72.8,737.74c-4.38-.87-8.83,1.61-11.8,4.94-9.78,11-6.5,28.34-12.59,41.71-2.45,5.37-6.53,10.75-5.28,16.51,1.62,7.46,10.75,10.11,18.32,11a250.39,250.39,0,0,0,40.14,1.52c3.29-.14,6.65-.37,9.66-1.7,3.93-1.75,6.81-5.19,9.55-8.51,3.94-4.79,8.12-10.4,7.21-16.54-.67-4.44-3.9-8-7-11.28-9.46-10-18.92-20.1-29.16-29.33-6.42-5.79-14.89-11.6-23-8.71" transform="translate(1.5 42.99)"/><path d="M73.2,736.3c-8.6-1.52-15.16,6.07-18.12,13.25-3,7.38-3.42,15.51-4.85,23.28a46,46,0,0,1-3.38,11.37c-1.87,3.94-4.49,7.76-5.23,12.15a12.12,12.12,0,0,0,2.88,10.3,19.78,19.78,0,0,0,8.85,5.13,59.11,59.11,0,0,0,11.75,2q7.82.81,15.66,1.13c5.22.21,10.46.26,15.69.14,4.85-.1,10.2.1,14.78-1.74,4.08-1.63,7.1-4.83,9.86-8.14s5.69-6.9,7.36-11a14.5,14.5,0,0,0-.57-12.42c-2.12-4-5.64-7.26-8.73-10.53-7-7.38-14-14.72-21.34-21.69-6.41-6.08-13.76-13.46-23-14.36a15.08,15.08,0,0,0-6.32.75c-1.82.61-1,3.51.79,2.89,8.22-2.78,16.18,3.45,21.92,8.64,6.93,6.27,13.52,12.92,20,19.68,3.19,3.34,6.38,6.69,9.53,10.08,2.67,2.87,5.59,6.2,5.93,10.29s-1.8,7.9-4.12,11.13a53.3,53.3,0,0,1-8,9.19c-3.39,3-7.41,3.82-11.8,4-4.78.26-9.58.32-14.36.27a203.47,203.47,0,0,1-28.13-1.89c-5.55-.83-13.46-2.71-15.4-8.83-1.26-4,.6-7.91,2.4-11.39a58,58,0,0,0,4.52-10.42c2.06-7.14,2.42-14.62,4-21.86C57.21,750.93,60.18,743.18,67,740a9.17,9.17,0,0,1,5.45-.83c1.89.33,2.7-2.56.8-2.89Z" transform="translate(1.5 42.99)"/><path d="M73.38,754.93c1.06,5.62,2.28,11.1,5.23,16.05,2.69,4.51,6.78,9.58,4.94,15.15-.61,1.84,2.28,2.63,2.89.8,1.91-5.78-1.35-11.21-4.31-15.95a34.25,34.25,0,0,1-3.79-7.85,75,75,0,0,1-2.06-9c-.36-1.9-3.25-1.1-2.9.79Z" transform="translate(1.5 42.99)"/><ellipse class="cls-6" cx="76.23" cy="1052.75" rx="11.46" ry="6.13"/><path class="cls-7" d="M80.14,995.27c-3.21-5-11.83-4.46-15.09.55s-1.19,12.35,3.69,15.81c4.51,3.2,11.38,3.14,15.21-.85s3.1-11.67-1.83-14.18" transform="translate(1.5 42.99)"/><path d="M81.11,994.7c-2.62-4-8-5-12.27-3.25-4.93,2-7.13,7.06-6.29,12.16a13.69,13.69,0,0,0,10.14,11c5,1.2,11-.35,13.55-5.11s1.32-11.32-3.56-13.89c-1.28-.68-2.41,1.26-1.13,1.94,3.41,1.8,4.41,6.15,3.26,9.63-1.38,4.16-5.94,5.95-10,5.53a11.36,11.36,0,0,1-9.53-7.61c-1.31-3.82-.68-8.57,3-10.85,3.35-2.1,8.6-2,10.94,1.57.79,1.2,2.74.08,1.94-1.14Z" transform="translate(1.5 42.99)"/><ellipse class="cls-6" cx="135.33" cy="954.06" rx="11.46" ry="6.13"/><path class="cls-7" d="M139.25,896.58c-3.21-5.05-11.83-4.46-15.1.55s-1.19,12.35,3.69,15.81c4.52,3.2,11.38,3.14,15.21-.85s3.1-11.68-1.83-14.18" transform="translate(1.5 42.99)"/><path d="M140.22,896c-2.63-4-8-5-12.27-3.25-4.94,2-7.14,7.06-6.3,12.16a13.69,13.69,0,0,0,10.14,11c5,1.2,11-.35,13.55-5.11s1.32-11.32-3.55-13.89c-1.28-.68-2.42,1.26-1.14,1.94,3.41,1.8,4.41,6.15,3.26,9.63-1.38,4.16-5.94,6-10,5.52a11.32,11.32,0,0,1-9.53-7.61c-1.32-3.81-.69-8.56,3-10.85,3.35-2.09,8.6-2,10.94,1.58.8,1.2,2.75.07,1.95-1.14Z" transform="translate(1.5 42.99)"/><ellipse class="cls-6" cx="767.08" cy="754.14" rx="11.46" ry="6.13"/><path class="cls-7" d="M771,696.66c-3.21-5-11.83-4.46-15.09.55s-1.2,12.36,3.68,15.82c4.52,3.2,11.38,3.13,15.21-.86S777.9,700.5,773,698" transform="translate(1.5 42.99)"/><path d="M772,696.1c-2.63-4-8-5-12.27-3.25-4.94,2-7.14,7.06-6.3,12.15a13.69,13.69,0,0,0,10.14,11c5,1.21,11-.34,13.56-5.11s1.31-11.31-3.56-13.89c-1.28-.67-2.42,1.27-1.14,1.94,3.41,1.81,4.41,6.15,3.26,9.63-1.37,4.17-5.93,5.95-10,5.53a11.35,11.35,0,0,1-9.53-7.61c-1.32-3.82-.68-8.56,3-10.85,3.35-2.1,8.6-2,10.95,1.57.79,1.21,2.74.08,1.94-1.13Z" transform="translate(1.5 42.99)"/><ellipse class="cls-8" cx="881.75" cy="1097.25" rx="42.57" ry="12.66"/><path class="cls-7" d="M867.53,986.63c-4.38-.87-8.83,1.61-11.8,4.94-9.78,11-6.5,28.34-12.59,41.71-2.45,5.37-6.53,10.74-5.28,16.51,1.62,7.45,10.74,10.11,18.32,11a249.23,249.23,0,0,0,40.14,1.51c3.29-.14,6.65-.36,9.65-1.7,3.94-1.74,6.82-5.18,9.56-8.51,3.94-4.79,8.12-10.4,7.2-16.53-.66-4.45-3.89-8-7-11.29-9.46-10-18.92-20.09-29.17-29.33-6.41-5.78-14.88-11.6-23-8.7" transform="translate(1.5 42.99)"/><path d="M867.93,985.18c-8.61-1.51-15.16,6.07-18.12,13.26-3,7.38-3.42,15.5-4.85,23.27a45.83,45.83,0,0,1-3.38,11.37c-1.87,4-4.5,7.77-5.23,12.15a12.12,12.12,0,0,0,2.88,10.3,19.73,19.73,0,0,0,8.85,5.13,59.11,59.11,0,0,0,11.75,2q7.81.83,15.65,1.13c5.23.22,10.47.26,15.7.15,4.85-.11,10.19.09,14.78-1.74,4.07-1.64,7.1-4.83,9.85-8.14s5.69-6.9,7.37-11a14.5,14.5,0,0,0-.57-12.42c-2.12-4-5.64-7.26-8.73-10.53-7-7.38-14-14.72-21.34-21.7-6.41-6.07-13.76-13.46-23-14.36a15.48,15.48,0,0,0-6.33.75c-1.81.62-1,3.52.8,2.9,8.22-2.79,16.18,3.44,21.92,8.63,6.93,6.28,13.51,12.93,20,19.69,3.19,3.34,6.38,6.69,9.53,10.07,2.67,2.87,5.59,6.2,5.93,10.29s-1.81,7.91-4.12,11.14a53.68,53.68,0,0,1-8,9.19c-3.39,3-7.41,3.82-11.8,4-4.78.25-9.58.32-14.37.27a203.33,203.33,0,0,1-28.12-1.9c-5.55-.83-13.47-2.7-15.41-8.82-1.25-4,.61-7.92,2.41-11.39a57.86,57.86,0,0,0,4.51-10.42c2.07-7.14,2.43-14.62,4-21.86,1.48-6.83,4.45-14.58,11.22-17.74a9.16,9.16,0,0,1,5.45-.82c1.89.33,2.7-2.56.8-2.9Z" transform="translate(1.5 42.99)"/><path d="M868.11,1003.82c1,5.61,2.28,11.09,5.23,16,2.68,4.5,6.78,9.58,4.93,15.15-.6,1.83,2.29,2.62,2.9.8,1.91-5.78-1.35-11.22-4.31-15.95a34.25,34.25,0,0,1-3.79-7.85,74.7,74.7,0,0,1-2.06-9c-.36-1.89-3.25-1.09-2.9.8Z" transform="translate(1.5 42.99)"/><ellipse class="cls-6" cx="816.15" cy="953.07" rx="11.46" ry="6.13"/><path class="cls-7" d="M820.07,895.59c-3.21-5.05-11.83-4.46-15.1.55s-1.19,12.36,3.69,15.82c4.52,3.2,11.38,3.13,15.21-.86s3.1-11.67-1.83-14.18" transform="translate(1.5 42.99)"/><path d="M821,895c-2.63-4-8-5-12.27-3.25-4.94,2-7.14,7.06-6.3,12.16a13.69,13.69,0,0,0,10.14,11c5,1.21,11-.35,13.55-5.11s1.32-11.32-3.55-13.89c-1.28-.68-2.42,1.26-1.14,1.94,3.41,1.8,4.41,6.15,3.26,9.63-1.38,4.16-5.93,6-10,5.53a11.35,11.35,0,0,1-9.53-7.61c-1.32-3.82-.69-8.57,3-10.85,3.35-2.1,8.6-2,10.94,1.57.8,1.2,2.75.08,1.95-1.14Z" transform="translate(1.5 42.99)"/><ellipse class="cls-6" cx="863.87" cy="835.46" rx="11.46" ry="6.13"/><path class="cls-7" d="M867.78,778c-3.21-5.05-11.83-4.47-15.09.55s-1.19,12.35,3.69,15.81c4.51,3.2,11.38,3.14,15.21-.86s3.1-11.67-1.84-14.17" transform="translate(1.5 42.99)"/><path d="M868.75,777.41c-2.63-4-8-5-12.27-3.25-4.94,2-7.13,7.06-6.29,12.16a13.69,13.69,0,0,0,10.13,11c5,1.2,11-.35,13.56-5.11s1.32-11.32-3.56-13.9c-1.28-.67-2.42,1.27-1.13,1.95,3.41,1.8,4.4,6.14,3.25,9.63-1.37,4.16-5.93,5.94-10,5.52a11.33,11.33,0,0,1-9.53-7.61c-1.31-3.82-.68-8.56,3-10.85,3.34-2.09,8.6-2,10.94,1.57.79,1.21,2.74.08,1.94-1.13Z" transform="translate(1.5 42.99)"/><ellipse class="cls-8" cx="1223.89" cy="136.46" rx="42.57" ry="12.66"/><path class="cls-7" d="M1209.67,25.83c-4.38-.87-8.83,1.61-11.79,4.94-9.78,11-6.5,28.34-12.6,41.71-2.45,5.37-6.53,10.75-5.27,16.51,1.61,7.46,10.74,10.11,18.31,11a250.47,250.47,0,0,0,40.15,1.52c3.28-.14,6.64-.37,9.65-1.7,3.93-1.75,6.82-5.19,9.55-8.51,3.94-4.79,8.13-10.4,7.21-16.54-.67-4.44-3.9-8-7-11.28-9.45-10-18.92-20.1-29.16-29.33-6.41-5.79-14.89-11.6-23-8.71" transform="translate(1.5 42.99)"/><path d="M1210.07,24.39c-8.6-1.52-15.16,6.07-18.12,13.25-3,7.38-3.42,15.51-4.85,23.28a45.12,45.12,0,0,1-3.38,11.37c-1.87,3.94-4.49,7.76-5.22,12.15a12.05,12.05,0,0,0,2.88,10.3,19.7,19.7,0,0,0,8.84,5.13,59.21,59.21,0,0,0,11.76,2q7.8.81,15.65,1.13t15.69.14c4.86-.1,10.2.1,14.78-1.74,4.08-1.63,7.1-4.83,9.86-8.14s5.69-6.9,7.36-11a14.5,14.5,0,0,0-.57-12.42c-2.11-4-5.64-7.26-8.72-10.53-7-7.38-14-14.72-21.34-21.69-6.42-6.08-13.76-13.46-23-14.36a15.11,15.11,0,0,0-6.33.75c-1.82.61-1,3.51.8,2.89,8.22-2.78,16.17,3.45,21.91,8.64,6.94,6.27,13.52,12.92,20,19.68q4.8,5,9.53,10.08c2.67,2.87,5.59,6.2,5.93,10.29s-1.8,7.9-4.11,11.13a53.36,53.36,0,0,1-8,9.19c-3.39,3-7.41,3.82-11.8,4-4.78.26-9.58.32-14.36.27a203.57,203.57,0,0,1-28.13-1.89c-5.54-.83-13.46-2.71-15.4-8.83-1.26-4,.61-7.91,2.4-11.39a57.29,57.29,0,0,0,4.52-10.42c2.06-7.14,2.42-14.62,4-21.86,1.48-6.82,4.45-14.57,11.21-17.73a9.18,9.18,0,0,1,5.45-.83c1.89.33,2.7-2.56.8-2.89Z" transform="translate(1.5 42.99)"/><path d="M1210.26,43c1,5.62,2.27,11.1,5.23,16,2.68,4.51,6.77,9.58,4.93,15.15-.61,1.84,2.29,2.63,2.89.8,1.92-5.78-1.35-11.21-4.31-15.95a34.25,34.25,0,0,1-3.79-7.85,77,77,0,0,1-2.06-9c-.36-1.9-3.25-1.1-2.89.79Z" transform="translate(1.5 42.99)"/><ellipse class="cls-8" cx="1857.41" cy="134.26" rx="42.57" ry="12.66"/><path class="cls-7" d="M1843.2,23.64c-4.38-.87-8.83,1.61-11.8,4.94-9.78,11-6.5,28.34-12.6,41.71-2.44,5.37-6.52,10.74-5.27,16.51,1.62,7.45,10.74,10.11,18.31,11A249.4,249.4,0,0,0,1872,99.32c3.28-.14,6.65-.36,9.65-1.69,3.94-1.75,6.82-5.19,9.56-8.52,3.94-4.79,8.12-10.39,7.2-16.53-.66-4.45-3.89-8-7-11.29-9.45-10-18.92-20.09-29.16-29.32-6.41-5.79-14.88-11.6-23-8.71" transform="translate(1.5 42.99)"/><path d="M1843.6,22.2c-8.61-1.52-15.16,6.06-18.13,13.25-3,7.38-3.41,15.5-4.84,23.27a46,46,0,0,1-3.38,11.38c-1.88,3.94-4.5,7.76-5.23,12.14a12.08,12.08,0,0,0,2.88,10.3,19.71,19.71,0,0,0,8.84,5.14,59.34,59.34,0,0,0,11.76,2q7.8.81,15.65,1.13t15.69.14c4.86-.11,10.2.1,14.79-1.74,4.07-1.64,7.1-4.83,9.85-8.14s5.69-6.9,7.36-11a14.5,14.5,0,0,0-.56-12.42c-2.12-4-5.65-7.26-8.73-10.53-7-7.38-14-14.72-21.34-21.7-6.42-6.07-13.76-13.45-23-14.35a15.11,15.11,0,0,0-6.33.75c-1.82.61-1,3.51.8,2.89,8.22-2.78,16.18,3.44,21.91,8.63,6.94,6.28,13.52,12.93,20,19.69,3.2,3.34,6.39,6.69,9.53,10.07,2.67,2.88,5.59,6.21,5.93,10.3s-1.8,7.9-4.11,11.13a53.68,53.68,0,0,1-8,9.19c-3.39,3-7.42,3.82-11.81,4-4.78.25-9.57.32-14.36.27a205.14,205.14,0,0,1-28.13-1.89c-5.54-.84-13.46-2.71-15.4-8.83-1.26-4,.61-7.91,2.41-11.39a57.56,57.56,0,0,0,4.51-10.42c2.06-7.14,2.42-14.62,4-21.86,1.48-6.82,4.45-14.57,11.22-17.74a9.16,9.16,0,0,1,5.45-.82c1.89.33,2.7-2.56.8-2.89Z" transform="translate(1.5 42.99)"/><path d="M1843.78,40.83c1,5.61,2.28,11.09,5.23,16.05,2.68,4.5,6.78,9.58,4.93,15.15-.61,1.84,2.29,2.62,2.89.8,1.92-5.78-1.34-11.22-4.3-15.95a34.25,34.25,0,0,1-3.79-7.85,76.69,76.69,0,0,1-2.07-9c-.35-1.89-3.24-1.09-2.89.8Z" transform="translate(1.5 42.99)"/><ellipse class="cls-8" cx="1213.2" cy="564.59" rx="42.57" ry="12.66"/><path class="cls-7" d="M1199,454c-4.38-.86-8.83,1.61-11.8,4.94-9.78,11-6.5,28.34-12.6,41.71-2.44,5.37-6.52,10.75-5.27,16.51,1.62,7.46,10.74,10.11,18.31,11a250.56,250.56,0,0,0,40.15,1.52c3.28-.14,6.65-.37,9.65-1.7,3.94-1.75,6.82-5.19,9.55-8.51,3.94-4.79,8.13-10.4,7.21-16.53-.66-4.45-3.89-8-7-11.29-9.45-10-18.92-20.1-29.16-29.33-6.41-5.78-14.89-11.6-23-8.7" transform="translate(1.5 42.99)"/><path d="M1199.38,452.52c-8.6-1.52-15.15,6.07-18.12,13.25-3,7.38-3.41,15.51-4.84,23.28a46,46,0,0,1-3.38,11.37c-1.88,3.94-4.5,7.76-5.23,12.15a12.08,12.08,0,0,0,2.88,10.3,19.7,19.7,0,0,0,8.84,5.13,59.34,59.34,0,0,0,11.76,2q7.8.81,15.65,1.13t15.69.14c4.86-.1,10.2.1,14.79-1.74,4.07-1.63,7.1-4.83,9.85-8.13s5.69-6.91,7.36-11.05a14.5,14.5,0,0,0-.56-12.42c-2.12-4-5.65-7.26-8.73-10.53-7-7.38-14-14.72-21.34-21.69-6.42-6.08-13.76-13.46-23-14.36a15.11,15.11,0,0,0-6.33.75c-1.82.61-1,3.51.8,2.89,8.22-2.78,16.18,3.45,21.91,8.64,6.94,6.27,13.52,12.93,20,19.68,3.2,3.34,6.39,6.69,9.53,10.08,2.67,2.87,5.59,6.2,5.93,10.29s-1.8,7.9-4.11,11.13a53.3,53.3,0,0,1-8,9.19c-3.39,3-7.42,3.82-11.81,4.05-4.78.26-9.57.32-14.36.27a203.57,203.57,0,0,1-28.13-1.89c-5.54-.83-13.46-2.71-15.4-8.83-1.26-4,.61-7.91,2.4-11.39a56.61,56.61,0,0,0,4.52-10.42c2.06-7.14,2.42-14.62,4-21.86,1.48-6.82,4.45-14.57,11.22-17.73a9.17,9.17,0,0,1,5.45-.83c1.88.33,2.7-2.56.79-2.89Z" transform="translate(1.5 42.99)"/><path d="M1199.57,471.16c1,5.61,2.28,11.09,5.23,16,2.68,4.5,6.78,9.57,4.93,15.14-.61,1.84,2.29,2.63,2.89.8,1.92-5.78-1.34-11.21-4.3-15.95a33.88,33.88,0,0,1-3.8-7.85,79,79,0,0,1-2.06-9c-.35-1.9-3.25-1.09-2.89.8Z" transform="translate(1.5 42.99)"/><ellipse class="cls-8" cx="1873.27" cy="775.28" rx="42.57" ry="12.66"/><path class="cls-7" d="M1859.05,664.66c-4.38-.87-8.83,1.6-11.8,4.93-9.78,11-6.5,28.34-12.59,41.72-2.45,5.37-6.53,10.74-5.28,16.51,1.62,7.45,10.74,10.11,18.32,11a250.39,250.39,0,0,0,40.14,1.51c3.29-.14,6.65-.37,9.66-1.7,3.93-1.75,6.81-5.18,9.55-8.51,3.94-4.79,8.12-10.4,7.21-16.53-.67-4.45-3.9-8-7-11.29-9.46-10-18.92-20.09-29.17-29.33-6.41-5.78-14.88-11.6-23-8.7" transform="translate(1.5 42.99)"/><path d="M1859.45,663.21c-8.6-1.52-15.16,6.07-18.12,13.25-3,7.38-3.42,15.51-4.85,23.28a46,46,0,0,1-3.38,11.37c-1.87,3.95-4.5,7.76-5.23,12.15a12.12,12.12,0,0,0,2.88,10.3,19.78,19.78,0,0,0,8.85,5.13,59.11,59.11,0,0,0,11.75,2q7.82.81,15.66,1.13c5.22.21,10.46.26,15.69.15,4.85-.11,10.2.09,14.78-1.75,4.08-1.63,7.1-4.83,9.86-8.13s5.68-6.9,7.36-11a14.52,14.52,0,0,0-.57-12.43c-2.12-4-5.64-7.26-8.73-10.53-7-7.38-14-14.72-21.34-21.69-6.41-6.07-13.76-13.46-23-14.36a15.08,15.08,0,0,0-6.32.75c-1.82.62-1,3.52.79,2.89,8.22-2.78,16.18,3.45,21.92,8.64,6.93,6.27,13.52,12.93,20,19.68,3.19,3.34,6.38,6.69,9.53,10.08,2.67,2.87,5.59,6.2,5.93,10.29s-1.8,7.9-4.12,11.13a53.3,53.3,0,0,1-8,9.19c-3.39,3-7.41,3.82-11.8,4.06-4.78.25-9.58.31-14.37.26a203.32,203.32,0,0,1-28.12-1.89c-5.55-.83-13.46-2.71-15.41-8.82-1.25-4,.61-7.92,2.41-11.4a58,58,0,0,0,4.52-10.42c2.06-7.14,2.42-14.61,4-21.86,1.47-6.82,4.44-14.57,11.21-17.73a9.24,9.24,0,0,1,5.45-.83c1.89.34,2.7-2.55.8-2.89Z" transform="translate(1.5 42.99)"/><path d="M1859.63,681.85c1,5.61,2.28,11.09,5.23,16,2.69,4.5,6.78,9.57,4.94,15.14-.61,1.84,2.28,2.63,2.89.8,1.91-5.77-1.35-11.21-4.31-16a34.25,34.25,0,0,1-3.79-7.85,74.54,74.54,0,0,1-2.06-9c-.36-1.9-3.25-1.09-2.9.8Z" transform="translate(1.5 42.99)"/><ellipse class="cls-8" cx="1213.2" cy="1095.06" rx="42.57" ry="12.66"/><path class="cls-7" d="M1199,984.44c-4.38-.87-8.83,1.6-11.8,4.93-9.78,11-6.5,28.34-12.6,41.72-2.44,5.37-6.52,10.74-5.27,16.51,1.62,7.45,10.74,10.11,18.31,11a250.55,250.55,0,0,0,40.15,1.51c3.28-.14,6.65-.37,9.65-1.7,3.94-1.74,6.82-5.18,9.55-8.51,3.94-4.79,8.13-10.4,7.21-16.53-.66-4.45-3.89-8-7-11.29-9.45-10-18.92-20.09-29.16-29.33-6.41-5.78-14.89-11.6-23-8.7" transform="translate(1.5 42.99)"/><path d="M1199.38,983c-8.6-1.52-15.15,6.07-18.12,13.25-3,7.38-3.41,15.51-4.84,23.28a46,46,0,0,1-3.38,11.37c-1.88,3.95-4.5,7.76-5.23,12.15a12.08,12.08,0,0,0,2.88,10.3,19.7,19.7,0,0,0,8.84,5.13,59.34,59.34,0,0,0,11.76,2q7.8.81,15.65,1.13t15.69.15c4.86-.11,10.2.09,14.79-1.75,4.07-1.63,7.1-4.83,9.85-8.13s5.69-6.9,7.36-11a14.52,14.52,0,0,0-.56-12.43c-2.12-4-5.65-7.26-8.73-10.53-7-7.38-14-14.72-21.34-21.69-6.42-6.07-13.76-13.46-23-14.36a15.11,15.11,0,0,0-6.33.75c-1.82.62-1,3.52.8,2.89,8.22-2.78,16.18,3.45,21.91,8.64,6.94,6.27,13.52,12.93,20,19.68,3.2,3.34,6.39,6.69,9.53,10.08,2.67,2.87,5.59,6.2,5.93,10.29s-1.8,7.9-4.11,11.13a53.74,53.74,0,0,1-8,9.2c-3.39,3-7.42,3.81-11.81,4-4.78.25-9.57.31-14.36.26a203.57,203.57,0,0,1-28.13-1.89c-5.54-.83-13.46-2.71-15.4-8.82-1.26-4,.61-7.92,2.4-11.4a56.61,56.61,0,0,0,4.52-10.42c2.06-7.14,2.42-14.61,4-21.85,1.48-6.83,4.45-14.58,11.22-17.74a9.24,9.24,0,0,1,5.45-.83c1.88.34,2.7-2.55.79-2.89Z" transform="translate(1.5 42.99)"/><path d="M1199.57,1001.63c1,5.61,2.28,11.09,5.23,16,2.68,4.5,6.78,9.57,4.93,15.14-.61,1.84,2.29,2.63,2.89.8,1.92-5.77-1.34-11.21-4.3-15.95a33.88,33.88,0,0,1-3.8-7.85,78.56,78.56,0,0,1-2.06-9c-.35-1.9-3.25-1.09-2.89.8Z" transform="translate(1.5 42.99)"/><ellipse class="cls-6" cx="1235.35" cy="208.14" rx="11.46" ry="6.13"/><path class="cls-7" d="M1239.26,150.66c-3.21-5-11.82-4.47-15.09.54s-1.19,12.36,3.69,15.82c4.51,3.2,11.38,3.13,15.21-.86s3.1-11.67-1.83-14.17" transform="translate(1.5 42.99)"/><path d="M1240.24,150.09c-2.63-4-8-5-12.27-3.25-4.94,2-7.14,7.06-6.3,12.15a13.7,13.7,0,0,0,10.14,11c5,1.2,11-.35,13.55-5.12s1.32-11.31-3.56-13.89c-1.27-.67-2.41,1.27-1.13,2,3.41,1.8,4.41,6.14,3.26,9.63-1.38,4.16-5.94,5.94-10,5.52a11.32,11.32,0,0,1-9.52-7.61c-1.32-3.82-.69-8.56,3-10.85,3.35-2.09,8.6-2,10.94,1.57.8,1.21,2.74.08,2-1.13Z" transform="translate(1.5 42.99)"/><ellipse class="cls-6" cx="1267.28" cy="452.75" rx="11.46" ry="6.13"/><path class="cls-7" d="M1271.19,395.27c-3.21-5-11.83-4.46-15.09.55s-1.19,12.35,3.69,15.81c4.51,3.2,11.38,3.14,15.21-.85s3.1-11.67-1.83-14.18" transform="translate(1.5 42.99)"/><path d="M1272.16,394.7c-2.62-4-8-5-12.27-3.25-4.93,2-7.13,7.06-6.29,12.16a13.69,13.69,0,0,0,10.14,11c5,1.2,11-.35,13.55-5.11s1.32-11.32-3.56-13.89c-1.28-.68-2.41,1.26-1.13,1.94,3.41,1.8,4.41,6.15,3.26,9.63-1.38,4.16-5.94,5.95-10,5.53a11.36,11.36,0,0,1-9.53-7.61c-1.31-3.82-.68-8.57,3-10.85,3.35-2.1,8.6-2,10.94,1.57.79,1.2,2.74.08,1.94-1.14Z" transform="translate(1.5 42.99)"/><ellipse class="cls-6" cx="1207.76" cy="683.17" rx="11.46" ry="6.13"/><path class="cls-7" d="M1211.67,625.69c-3.21-5-11.83-4.46-15.09.55s-1.19,12.36,3.69,15.82c4.51,3.2,11.38,3.13,15.21-.86s3.1-11.67-1.84-14.18" transform="translate(1.5 42.99)"/><path d="M1212.64,625.13c-2.63-4-8-5-12.27-3.26-4.93,2-7.13,7.06-6.29,12.16a13.69,13.69,0,0,0,10.14,11c5,1.21,11-.34,13.55-5.11s1.32-11.31-3.56-13.89c-1.28-.67-2.42,1.27-1.13,1.94,3.41,1.8,4.4,6.15,3.25,9.63-1.37,4.16-5.93,6-10,5.53a11.36,11.36,0,0,1-9.53-7.61c-1.31-3.82-.68-8.56,3-10.85,3.35-2.1,8.6-2,10.94,1.57.79,1.21,2.74.08,1.94-1.13Z" transform="translate(1.5 42.99)"/><ellipse class="cls-6" cx="1255.68" cy="879.03" rx="11.46" ry="6.13"/><path class="cls-7" d="M1259.59,821.55c-3.21-5-11.83-4.46-15.09.55s-1.19,12.36,3.69,15.81c4.51,3.21,11.37,3.14,15.21-.85s3.1-11.67-1.84-14.18" transform="translate(1.5 42.99)"/><path d="M1260.56,821c-2.63-4-8-5-12.27-3.25-4.94,2-7.13,7.06-6.29,12.16a13.68,13.68,0,0,0,10.13,11c5,1.2,11-.35,13.56-5.11s1.32-11.32-3.56-13.89c-1.28-.68-2.42,1.26-1.13,1.94,3.4,1.8,4.4,6.15,3.25,9.63-1.37,4.16-5.93,5.95-10,5.53a11.36,11.36,0,0,1-9.53-7.61c-1.31-3.82-.68-8.57,3-10.85,3.35-2.1,8.61-2,10.95,1.57.79,1.2,2.74.08,1.94-1.14Z" transform="translate(1.5 42.99)"/><ellipse class="cls-6" cx="1290.4" cy="311.95" rx="11.46" ry="6.13"/><path class="cls-7" d="M1294.32,254.47c-3.21-5.05-11.83-4.46-15.1.55s-1.19,12.36,3.69,15.82c4.52,3.2,11.38,3.13,15.21-.86s3.1-11.67-1.83-14.18" transform="translate(1.5 42.99)"/><path d="M1295.29,253.9c-2.63-4-8-5-12.27-3.25-4.94,2-7.14,7.06-6.3,12.16a13.69,13.69,0,0,0,10.14,11c5,1.21,11-.35,13.55-5.11s1.32-11.32-3.55-13.89c-1.28-.68-2.42,1.27-1.14,1.94,3.41,1.8,4.41,6.15,3.26,9.63-1.38,4.16-5.93,6-10,5.53a11.35,11.35,0,0,1-9.53-7.61c-1.32-3.82-.69-8.57,3-10.85,3.35-2.1,8.6-2,10.94,1.57.8,1.2,2.75.08,2-1.14Z" transform="translate(1.5 42.99)"/><ellipse class="cls-6" cx="1890.93" cy="595.05" rx="11.46" ry="6.13"/><path class="cls-7" d="M1894.85,537.57c-3.21-5-11.83-4.46-15.09.55s-1.19,12.36,3.68,15.82c4.52,3.2,11.38,3.13,15.22-.86s3.1-11.67-1.84-14.18" transform="translate(1.5 42.99)"/><path d="M1895.82,537c-2.63-4-8-5-12.27-3.26-4.94,2-7.13,7.06-6.29,12.16a13.68,13.68,0,0,0,10.13,11c5,1.21,11-.34,13.56-5.11s1.31-11.31-3.56-13.89c-1.28-.67-2.42,1.27-1.14,1.94,3.41,1.81,4.41,6.15,3.26,9.63-1.37,4.16-5.93,6-10,5.53a11.36,11.36,0,0,1-9.53-7.61c-1.32-3.82-.68-8.56,3-10.85,3.35-2.1,8.61-2,11,1.57.79,1.21,2.74.08,1.94-1.13Z" transform="translate(1.5 42.99)"/><ellipse class="cls-6" cx="1822.66" cy="192.26" rx="11.46" ry="6.13"/><path class="cls-7" d="M1826.58,134.78c-3.21-5.05-11.83-4.46-15.09.55s-1.19,12.35,3.69,15.81c4.51,3.2,11.37,3.14,15.21-.85s3.1-11.68-1.84-14.18" transform="translate(1.5 42.99)"/><path d="M1827.55,134.21c-2.63-4-8-5-12.27-3.25-4.94,2-7.13,7.06-6.29,12.16a13.68,13.68,0,0,0,10.13,11c5,1.2,11-.35,13.56-5.11s1.31-11.32-3.56-13.89c-1.28-.68-2.42,1.26-1.14,1.94,3.41,1.8,4.41,6.15,3.26,9.63-1.37,4.16-5.93,5.95-10,5.52a11.33,11.33,0,0,1-9.53-7.61c-1.31-3.81-.68-8.56,3-10.85,3.35-2.09,8.61-2,10.95,1.58.79,1.2,2.74.07,1.94-1.14Z" transform="translate(1.5 42.99)"/><ellipse class="cls-6" cx="1870.58" cy="388.12" rx="11.46" ry="6.13"/><path class="cls-7" d="M1874.5,330.64c-3.21-5.05-11.83-4.47-15.09.55s-1.2,12.35,3.68,15.81c4.52,3.2,11.38,3.14,15.22-.86s3.1-11.67-1.84-14.17" transform="translate(1.5 42.99)"/><path d="M1875.47,330.07c-2.63-4-8-5-12.27-3.25-4.94,2-7.14,7.06-6.29,12.16A13.69,13.69,0,0,0,1867,350c5,1.2,11-.35,13.56-5.11s1.31-11.32-3.56-13.9c-1.28-.67-2.42,1.27-1.14,1.95,3.41,1.8,4.41,6.14,3.26,9.63-1.37,4.16-5.93,5.94-10,5.52a11.32,11.32,0,0,1-9.53-7.61c-1.32-3.82-.68-8.56,3-10.85,3.35-2.09,8.61-2,11,1.57.79,1.21,2.74.08,1.94-1.13Z" transform="translate(1.5 42.99)"/><ellipse class="cls-6" cx="1207.86" cy="983.24" rx="11.46" ry="6.13"/><path class="cls-7" d="M1211.77,925.76c-3.21-5-11.82-4.47-15.09.55s-1.19,12.35,3.69,15.81c4.51,3.2,11.38,3.14,15.21-.86s3.1-11.67-1.83-14.17" transform="translate(1.5 42.99)"/><path d="M1212.75,925.19c-2.63-4-8-5-12.27-3.25-4.94,2-7.14,7.06-6.3,12.16a13.7,13.7,0,0,0,10.14,11c5,1.2,11-.35,13.55-5.11s1.32-11.32-3.56-13.89c-1.28-.68-2.41,1.26-1.13,1.94,3.41,1.8,4.41,6.15,3.26,9.63-1.38,4.16-5.94,5.95-10,5.52a11.31,11.31,0,0,1-9.52-7.61c-1.32-3.81-.69-8.56,3-10.85,3.35-2.09,8.6-2,10.94,1.58.8,1.2,2.74.07,2-1.14Z" transform="translate(1.5 42.99)"/><ellipse class="cls-6" cx="1830.59" cy="841.64" rx="11.46" ry="6.13"/><path class="cls-7" d="M1834.51,784.16c-3.21-5-11.83-4.46-15.1.55s-1.19,12.36,3.69,15.82c4.52,3.2,11.38,3.13,15.21-.86s3.1-11.67-1.83-14.18" transform="translate(1.5 42.99)"/><path d="M1835.48,783.6c-2.63-4-8-5-12.27-3.26-4.94,2-7.14,7.07-6.3,12.16a13.69,13.69,0,0,0,10.14,11c5,1.21,11-.34,13.55-5.11s1.32-11.31-3.55-13.89c-1.28-.67-2.42,1.27-1.14,1.94,3.41,1.81,4.41,6.15,3.26,9.63-1.38,4.16-5.94,5.95-10,5.53a11.35,11.35,0,0,1-9.53-7.61c-1.32-3.82-.69-8.56,3-10.85,3.35-2.1,8.6-2,10.94,1.57.8,1.21,2.75.08,2-1.13Z" transform="translate(1.5 42.99)"/><ellipse class="cls-6" cx="1890.83" cy="995.3" rx="11.46" ry="6.13"/><path class="cls-7" d="M1894.75,937.82c-3.21-5.05-11.83-4.46-15.09.55s-1.2,12.36,3.68,15.82c4.52,3.2,11.38,3.13,15.22-.86s3.1-11.67-1.84-14.18" transform="translate(1.5 42.99)"/><path d="M1895.72,937.25c-2.63-4-8-5-12.27-3.25-4.94,2-7.14,7.06-6.3,12.16a13.69,13.69,0,0,0,10.14,11c5,1.21,11-.35,13.56-5.11s1.31-11.31-3.56-13.89c-1.28-.67-2.42,1.27-1.14,1.94,3.41,1.8,4.41,6.15,3.26,9.63-1.37,4.16-5.93,6-10,5.53a11.35,11.35,0,0,1-9.53-7.61c-1.32-3.82-.68-8.57,3-10.85,3.35-2.1,8.6-2,11,1.57.79,1.2,2.74.08,1.94-1.14Z" transform="translate(1.5 42.99)"/><ellipse class="cls-6" cx="1846.62" cy="1090.53" rx="11.46" ry="6.13"/><path class="cls-7" d="M1850.54,1033.05c-3.21-5-11.83-4.46-15.09.55s-1.2,12.35,3.68,15.81c4.52,3.2,11.38,3.14,15.22-.85s3.1-11.68-1.84-14.18" transform="translate(1.5 42.99)"/><path d="M1851.51,1032.48c-2.63-4-8-5-12.27-3.25-4.94,2-7.14,7.06-6.29,12.16a13.68,13.68,0,0,0,10.13,11c5,1.2,11-.35,13.56-5.11s1.31-11.32-3.56-13.89c-1.28-.68-2.42,1.26-1.14,1.94,3.41,1.8,4.41,6.15,3.26,9.63-1.37,4.16-5.93,6-10,5.52a11.33,11.33,0,0,1-9.53-7.61c-1.32-3.81-.68-8.56,3-10.85,3.35-2.09,8.61-2,11,1.58.79,1.2,2.74.07,1.94-1.14Z" transform="translate(1.5 42.99)"/></svg>