<?xml version="1.0" encoding="utf-8"?>
<!-- Generator: Adobe Illustrator 21.1.0, SVG Export Plug-In . SVG Version: 6.00 Build 0)  -->
<svg version="1.1" id="Layer_1" xmlns="http://www.w3.org/2000/svg" xmlns:xlink="http://www.w3.org/1999/xlink" x="0px" y="0px"
	 viewBox="0 0 1000 482" style="enable-background:new 0 0 1000 482;" xml:space="preserve">
<style type="text/css">
	.st0{fill:#FFFFFF;}
</style>
<path class="st0" d="M916,294.5c1.8-7.2,2.8-14.8,2.8-22.5c0-51.9-42.1-94-94-94c-5.1,0-10,0.5-14.9,1.3
	c-3.7-66.1-58.4-118.6-125.5-118.6c-40.3,0-76.1,19-99.1,48.4C566.9,46,508.6,0,439.6,0C374.2,0,318.5,41.3,297,99.1
	C282.3,89.6,264.8,84,246,84c-51.9,0-94,42.1-94,94c-84,0-152,68-152,152c0,80.6,62.7,146.5,142,151.6v0.4h764c51.9,0,94-42.1,94-94
	C1000,339.5,963.2,299.5,916,294.5z"/>
</svg>
