<?xml version="1.0" encoding="utf-8"?>
<!-- Generator: Adobe Illustrator 21.1.0, SVG Export Plug-In . SVG Version: 6.00 Build 0)  -->
<svg version="1.1" id="Layer_1" xmlns="http://www.w3.org/2000/svg" xmlns:xlink="http://www.w3.org/1999/xlink" x="0px" y="0px"
	 viewBox="0 0 1000 321.2" style="enable-background:new 0 0 1000 321.2;" xml:space="preserve">
<style type="text/css">
	.st0{fill:#FFFFFF;}
</style>
<path class="st0" d="M929.5,180.3c-20,0-38,8.3-50.8,21.7c-9.4-10.6-23.1-17.3-38.4-17.3c-7.9,0-15.4,1.8-22.1,5
	c-12.1-18.4-31.1-31.8-53.3-36.5c1.7-8.3,2.6-17,2.6-25.8C767.5,57,710.4,0,640.1,0c-53.7,0-99.6,33.2-118.3,80.3
	c-5.9-1.2-12-1.9-18.2-1.9c-43.1,0-79.1,30.4-87.8,70.9c-11.1-4.9-23.4-7.7-36.4-7.7c-8.3,0-16.3,1.2-24,3.3
	C352.1,96.7,312,58.7,263,58.7c-25.7,0-48.9,10.5-65.7,27.4c-20.1-13.2-44.1-21-70-21C57,65.1,0,122.1,0,192.4
	c0,70.3,57,127.3,127.3,127.3c2.4,0,802.2,1.4,802.2,1.4c38.9,0,70.5-31.5,70.5-70.5C1000,211.8,968.5,180.3,929.5,180.3z"/>
</svg>
