<?xml version="1.0" encoding="utf-8"?>
<!-- Generator: Adobe Illustrator 21.1.0, SVG Export Plug-In . SVG Version: 6.00 Build 0)  -->
<svg version="1.1" id="Layer_1" xmlns="http://www.w3.org/2000/svg" xmlns:xlink="http://www.w3.org/1999/xlink" x="0px" y="0px"
	 viewBox="0 0 1000 303.6" style="enable-background:new 0 0 1000 303.6;" xml:space="preserve">
<style type="text/css">
	.st0{fill:#FFFFFF;}
</style>
<path class="st0" d="M1000,192.7c0-61.2-49.6-110.9-110.9-110.9c-54.9,0-100.4,39.9-109.3,92.3c-8.9-6.6-19.8-10.5-31.7-10.5
	c-5,0-9.8,0.7-14.4,2c-6-22.7-26.7-39.5-51.4-39.5c-9.6,0-18.5,2.5-26.3,7C645,112.2,623.1,98,597.9,98c-30.1,0-55.4,20.2-63.2,47.8
	c-13.6-12.2-31.6-19.6-51.3-19.6c-18.3,0-35.1,6.4-48.4,17.1c0.1-1.4,0.1-2.8,0.1-4.2c0-42.6-34.5-77.1-77.2-77.1
	c-14.7,0-28.5,4.1-40.2,11.3C297.7,30,254,0,203.3,0c-67.1,0-122,52.4-125.9,118.5C33.5,126.1,0,164.3,0,210.4
	c0,51.5,41.7,93.2,93.2,93.2c0.8,0,804.8,0,804.8,0v-0.4C955.1,298.7,1000,251,1000,192.7z"/>
</svg>
