<?xml version="1.0" encoding="utf-8"?>
<!-- Generator: Adobe Illustrator 21.1.0, SVG Export Plug-In . SVG Version: 6.00 Build 0)  -->
<svg version="1.1" id="Layer_1" xmlns="http://www.w3.org/2000/svg" xmlns:xlink="http://www.w3.org/1999/xlink" x="0px" y="0px"
	 viewBox="0 0 1000 483.6" style="enable-background:new 0 0 1000 483.6;" xml:space="preserve">
<style type="text/css">
	.st0{fill:#FFFFFF;}
</style>
<path class="st0" d="M1000,369.6c0-62.6-50.8-113.4-113.4-113.4c-6.9,0-13.6,0.7-20.2,1.8c0-0.6,0-1.2,0-1.8c0-41.4-33.6-75-75-75
	c-34.6,0-63.6,23.4-72.3,55.2c-11.7-12.6-27.6-21.1-45.5-23.3c2.9-12.5,4.4-25.6,4.4-39C678,77.9,600.1,0,504,0
	S329.9,77.9,329.9,174.1c0,1.7,0.1,3.3,0.1,4.9c-10.5-3.2-21.6-4.9-33.1-4.9c-58,0-105.9,43.6-112.6,99.9c-3.5-0.5-7.2-0.8-10.8-0.8
	c-37.8,0-69.1,28-74.3,64.5c-7.6-2.6-15.8-4-24.2-4c-41.4,0-75,33.6-75,75s33.6,75,75,75h820.6v-1C954,478,1000,429.2,1000,369.6z"
	/>
</svg>
