<?xml version="1.0" encoding="utf-8"?>
<!-- Generator: Adobe Illustrator 21.1.0, SVG Export Plug-In . SVG Version: 6.00 Build 0)  -->
<svg version="1.1" id="Layer_1" xmlns="http://www.w3.org/2000/svg" xmlns:xlink="http://www.w3.org/1999/xlink" x="0px" y="0px"
	 viewBox="0 0 1000 360.5" style="enable-background:new 0 0 1000 360.5;" xml:space="preserve">
<style type="text/css">
	.st0{opacity:0.85;fill:#FFFFFF;enable-background:new    ;}
</style>
<path class="st0" d="M903,136.8C889.1,61,822.8,3.6,743,3.6c-89.3,0-161.7,71.9-162.7,160.9c-4.7-1.1-9.6-1.7-14.7-1.7
	c-16.3,0-31.2,6-42.7,15.8c-5.2-39.3-38.9-69.7-79.7-69.7c-6.1,0-12.1,0.7-17.9,2C403.7,46.5,342.8,0,271,0
	c-80.9,0-147.9,59-160.6,136.3c-0.7,0-1.4-0.1-2.2-0.1C48.5,136.2,0,184.7,0,244.5s48.5,108.3,108.3,108.3v0.6h783.5v-0.6
	c59.8,0,108.3-48.5,108.3-108.3C1000,188.5,957.5,142.5,903,136.8z M502,244.5h-0.4c0.1-0.1,0.2-0.2,0.3-0.3
	C502,244.3,502,244.4,502,244.5z"/>
</svg>
