<?xml version="1.0" encoding="utf-8"?>
<!-- Generator: Adobe Illustrator 21.1.0, SVG Export Plug-In . SVG Version: 6.00 Build 0)  -->
<svg version="1.0" id="Layer_1" xmlns="http://www.w3.org/2000/svg" xmlns:xlink="http://www.w3.org/1999/xlink" x="0px" y="0px"
	 viewBox="0 0 845 152" enable-background="new 0 0 845 152" xml:space="preserve">
<g>
	<g>
		<path fill="none" stroke="#E5704C" stroke-width="2.7" stroke-miterlimit="10" d="M152.5,148.1h-23.1c-2.6,0-4.7-0.7-6.4-2
			c-1.7-1.3-2.8-3-3.5-5.1l-7.6-24.6H63.2L55.7,141c-0.6,1.8-1.7,3.4-3.4,4.9c-1.7,1.4-3.8,2.2-6.3,2.2H22.7L72.4,7.3h30.5
			L152.5,148.1z M70.1,94.3h35L93.4,55.7c-0.8-2.4-1.7-5.3-2.7-8.7c-1-3.3-2-6.9-3-10.8c-0.9,3.9-1.9,7.6-2.9,10.9
			c-1,3.4-1.9,6.3-2.8,8.7L70.1,94.3z"/>
		<path fill="none" stroke="#E5704C" stroke-width="2.7" stroke-miterlimit="10" d="M192.7,101v47.1h-29.8V7.3h45.3
			c9,0,16.8,1.2,23.3,3.5c6.5,2.4,11.8,5.6,16,9.7c4.2,4.1,7.3,9,9.3,14.6c2,5.6,3,11.7,3,18.2c0,7-1,13.5-3.1,19.3
			c-2.1,5.9-5.2,10.9-9.4,15.1c-4.2,4.2-9.6,7.5-16.1,9.8c-6.5,2.4-14.2,3.5-23,3.5H192.7z M192.7,76.4h15.5c7.7,0,13.3-2,16.7-6.1
			c3.4-4.1,5.1-9.7,5.1-17c0-3.2-0.4-6.2-1.3-8.8c-0.9-2.6-2.2-4.9-4-6.8c-1.8-1.9-4-3.4-6.8-4.4c-2.7-1-6-1.5-9.7-1.5h-15.5V76.4z"
			/>
		<path fill="none" stroke="#E5704C" stroke-width="2.7" stroke-miterlimit="10" d="M305,96v52.1h-29.8V7.3H317
			c9.3,0,17.2,1,23.7,3.1c6.5,2.1,11.9,5,16,8.7c4.1,3.7,7.1,8.2,9,13.2c1.9,5.1,2.8,10.6,2.8,16.6c0,4.6-0.6,8.9-1.7,13
			c-1.1,4.1-2.8,7.8-5,11.3c-2.2,3.4-4.9,6.5-8.1,9.2c-3.2,2.7-6.9,4.9-11,6.7c2,1.1,3.9,2.4,5.6,4.1c1.7,1.6,3.2,3.6,4.5,5.9
			l27.3,49h-26.9c-5,0-8.6-2.1-10.7-6.2L321.2,101c-0.9-1.8-2-3.1-3.3-3.9c-1.3-0.8-3-1.2-5.3-1.2H305z M305,73.5h12
			c4.1,0,7.5-0.6,10.3-1.7c2.8-1.1,5.2-2.7,7-4.7c1.8-2,3.1-4.3,4-7c0.8-2.7,1.2-5.6,1.2-8.7c0-6.2-1.8-11-5.5-14.5
			c-3.7-3.5-9.3-5.2-17-5.2h-12V73.5z"/>
		<path fill="none" stroke="#E5704C" stroke-width="2.7" stroke-miterlimit="10" d="M424.9,148.1H395V7.3h29.9V148.1z"/>
		<path fill="none" stroke="#E5704C" stroke-width="2.7" stroke-miterlimit="10" d="M478.4,122H526v26.1h-77.3V7.3h29.8V122z"/>
		<path fill="none" stroke="#E5704C" stroke-width="2.7" stroke-miterlimit="10" d="M660.9,7.3v12.6c0,3.5-0.4,6.4-1.1,8.6
			c-0.7,2.2-1.4,4.1-2,5.6L613,138.2c-1.2,2.8-2.9,5.1-5.2,7c-2.3,1.9-5.3,2.9-9.1,2.9h-19.9l45.8-100.8c1.2-2.8,2.6-5.3,4-7.4
			c1.4-2.2,3-4.3,4.7-6.3h-56.4c-0.8,0-1.6-0.2-2.3-0.5c-0.7-0.4-1.4-0.8-1.9-1.4c-0.6-0.6-1-1.3-1.4-2.1c-0.4-0.8-0.5-1.6-0.5-2.5
			V7.3H660.9z"/>
		<path fill="none" stroke="#E5704C" stroke-width="2.7" stroke-miterlimit="10" d="M674.4,77.3H722v24.2h-47.5V77.3z"/>
		<path fill="none" stroke="#E5704C" stroke-width="2.7" stroke-miterlimit="10" d="M781.8,149.7c-6.8,0-13-1-18.7-3
			c-5.6-2-10.5-4.8-14.5-8.5c-4-3.6-7.1-8-9.3-13.2c-2.2-5.2-3.3-10.9-3.3-17.2c0-3.8,0.4-7.4,1.2-10.8c0.8-3.4,2.1-6.5,3.8-9.3
			c1.7-2.8,4-5.3,6.7-7.5c2.7-2.2,6-4,9.9-5.5c-5.9-2.9-10.2-6.9-13.1-12.1c-2.8-5.2-4.3-11.3-4.3-18.6c0-5.5,1-10.6,3.1-15.2
			c2.1-4.7,4.9-8.7,8.6-12.1c3.7-3.4,8.1-6.1,13.2-8.1c5.1-2,10.6-2.9,16.7-2.9c6,0,11.6,1,16.7,2.9c5.1,2,9.5,4.7,13.2,8.1
			c3.7,3.4,6.6,7.5,8.6,12.1c2.1,4.7,3.1,9.7,3.1,15.2c0,7.2-1.4,13.4-4.3,18.6c-2.9,5.2-7.2,9.2-13,12.1c3.8,1.5,7.1,3.3,9.8,5.5
			c2.7,2.2,5,4.7,6.7,7.5c1.7,2.8,3,5.9,3.8,9.3c0.8,3.4,1.2,7,1.2,10.8c0,6.3-1.1,12.1-3.3,17.2c-2.2,5.2-5.3,9.6-9.3,13.2
			c-4,3.6-8.8,6.5-14.5,8.5C794.9,148.7,788.6,149.7,781.8,149.7z M781.8,127c3.1,0,5.7-0.5,7.9-1.5c2.2-1,4.1-2.4,5.5-4.2
			c1.4-1.8,2.5-3.9,3.2-6.3c0.7-2.4,1-5,1-7.8c0-3-0.3-5.8-0.9-8.3c-0.6-2.5-1.6-4.7-2.9-6.4c-1.4-1.8-3.2-3.2-5.4-4.2
			c-2.3-1-5.1-1.5-8.4-1.5s-6.1,0.5-8.4,1.5c-2.3,1-4.1,2.4-5.4,4.2c-1.4,1.8-2.3,3.9-2.9,6.4c-0.6,2.5-0.9,5.3-0.9,8.3
			c0,2.8,0.3,5.4,1,7.8c0.7,2.4,1.7,4.5,3.2,6.3c1.4,1.8,3.3,3.2,5.5,4.2C776.1,126.5,778.7,127,781.8,127z M781.8,64
			c3.1,0,5.5-0.5,7.5-1.6c1.9-1.1,3.5-2.5,4.6-4.3c1.1-1.8,1.9-3.9,2.3-6.2c0.4-2.3,0.6-4.7,0.6-7.2c0-2.2-0.3-4.3-0.8-6.4
			c-0.5-2.1-1.4-3.9-2.6-5.5c-1.2-1.6-2.8-2.9-4.7-3.8c-1.9-1-4.2-1.4-6.9-1.4c-2.8,0-5.1,0.5-7,1.4c-1.9,1-3.4,2.2-4.6,3.8
			c-1.2,1.6-2.1,3.4-2.6,5.5c-0.5,2.1-0.8,4.2-0.8,6.4c0,2.4,0.2,4.8,0.6,7.2c0.4,2.3,1.2,4.4,2.3,6.2c1.1,1.8,2.6,3.3,4.6,4.3
			C776.3,63.5,778.8,64,781.8,64z"/>
	</g>
	<g>
		<defs>
			<path id="SVGID_1_" d="M158.3,139.8h-22.7c-2.5,0-4.6-0.6-6.3-1.8c-1.6-1.2-2.8-2.7-3.4-4.5l-7.4-22H70.6l-7.4,22
				c-0.6,1.6-1.7,3.1-3.4,4.4c-1.7,1.3-3.7,1.9-6.1,1.9H30.8L79.6,13.7h29.9L158.3,139.8z M77.3,91.6h34.4L100.2,57
				c-0.8-2.2-1.6-4.8-2.6-7.7c-1-3-2-6.2-3-9.6c-0.9,3.5-1.9,6.8-2.9,9.8c-1,3-1.9,5.6-2.8,7.8L77.3,91.6z M197.8,97.6v42.1h-29.3
				V13.7H213c8.9,0,16.5,1.1,22.9,3.2c6.4,2.1,11.6,5,15.8,8.7c4.1,3.7,7.2,8,9.1,13.1c2,5,2.9,10.4,2.9,16.3c0,6.3-1,12.1-3,17.3
				c-2,5.3-5.1,9.8-9.3,13.5c-4.2,3.8-9.4,6.7-15.8,8.8c-6.4,2.1-13.9,3.2-22.6,3.2H197.8z M197.8,75.6H213c7.6,0,13.1-1.8,16.4-5.5
				c3.3-3.6,5-8.7,5-15.2c0-2.9-0.4-5.5-1.3-7.9c-0.9-2.4-2.2-4.4-3.9-6.1c-1.8-1.7-4-3-6.7-3.9c-2.7-0.9-5.9-1.4-9.6-1.4h-15.2
				V75.6z M308.2,93.1v46.6H279V13.7h41c9.1,0,16.9,0.9,23.3,2.8c6.4,1.9,11.7,4.5,15.8,7.8c4.1,3.3,7,7.3,8.9,11.9
				c1.8,4.6,2.8,9.5,2.8,14.9c0,4.1-0.5,8-1.6,11.6c-1.1,3.6-2.7,7-4.9,10.1c-2.2,3.1-4.8,5.8-8,8.3c-3.1,2.4-6.8,4.4-10.9,6
				c2,1,3.8,2.2,5.5,3.6c1.7,1.4,3.2,3.2,4.5,5.3l26.8,43.9h-26.5c-4.9,0-8.4-1.8-10.6-5.5l-20.9-36.6c-0.9-1.6-2-2.8-3.2-3.5
				c-1.2-0.7-3-1-5.2-1H308.2z M308.2,73H320c4,0,7.4-0.5,10.2-1.5c2.8-1,5.1-2.4,6.9-4.2c1.8-1.8,3.1-3.9,3.9-6.3
				c0.8-2.4,1.2-5,1.2-7.7c0-5.5-1.8-9.9-5.4-13c-3.6-3.1-9.2-4.7-16.7-4.7h-11.8V73z M426.1,139.8h-29.4V13.7h29.4V139.8z
				 M478.7,116.4h46.7v23.4h-76V13.7h29.3V116.4z M658,13.7v11.2c0,3.2-0.3,5.7-1,7.7c-0.7,2-1.4,3.6-2,5l-44,93.3
				c-1.2,2.5-2.9,4.6-5.1,6.3c-2.2,1.7-5.2,2.6-8.9,2.6h-19.6l45-90.3c1.2-2.5,2.5-4.7,3.9-6.7c1.4-2,3-3.8,4.6-5.6h-55.5
				c-0.8,0-1.6-0.2-2.3-0.5c-0.7-0.3-1.4-0.7-1.9-1.3c-0.5-0.5-1-1.2-1.3-1.9c-0.3-0.7-0.5-1.5-0.5-2.2V13.7H658z M671.3,76.3h46.7
				V98h-46.7V76.3z M776.9,141.2c-6.7,0-12.8-0.9-18.3-2.7c-5.5-1.8-10.3-4.3-14.2-7.6c-4-3.3-7-7.2-9.2-11.8
				c-2.2-4.6-3.2-9.7-3.2-15.4c0-3.4,0.4-6.6,1.2-9.6c0.8-3,2-5.8,3.7-8.3c1.7-2.5,3.9-4.7,6.6-6.7c2.7-2,5.9-3.6,9.7-4.9
				c-5.8-2.6-10.1-6.2-12.9-10.8c-2.8-4.6-4.2-10.2-4.2-16.6c0-4.9,1-9.4,3-13.6c2-4.2,4.8-7.8,8.5-10.9c3.6-3.1,7.9-5.5,12.9-7.2
				c5-1.8,10.5-2.6,16.4-2.6c5.9,0,11.4,0.9,16.4,2.6c5,1.8,9.3,4.2,12.9,7.2c3.6,3.1,6.5,6.7,8.5,10.9c2,4.2,3,8.7,3,13.6
				c0,6.5-1.4,12-4.2,16.6c-2.8,4.6-7.1,8.2-12.8,10.8c3.7,1.3,7,3,9.6,4.9c2.7,2,4.9,4.2,6.6,6.7c1.7,2.5,3,5.3,3.8,8.3
				c0.8,3,1.2,6.2,1.2,9.6c0,5.7-1.1,10.8-3.2,15.4c-2.2,4.6-5.2,8.6-9.2,11.8c-4,3.3-8.7,5.8-14.2,7.6
				C789.7,140.3,783.6,141.2,776.9,141.2z M776.9,120.9c3,0,5.6-0.5,7.8-1.4c2.2-0.9,4-2.2,5.4-3.8c1.4-1.6,2.5-3.5,3.1-5.6
				c0.7-2.2,1-4.5,1-7c0-2.7-0.3-5.2-0.9-7.4c-0.6-2.2-1.5-4.2-2.9-5.8c-1.3-1.6-3.1-2.8-5.3-3.7c-2.2-0.9-5-1.3-8.3-1.3
				c-3.3,0-6,0.4-8.3,1.3c-2.2,0.9-4,2.1-5.3,3.7c-1.3,1.6-2.3,3.5-2.9,5.8c-0.6,2.3-0.9,4.7-0.9,7.4c0,2.5,0.3,4.8,1,7
				c0.7,2.2,1.7,4,3.1,5.6c1.4,1.6,3.2,2.8,5.4,3.8C771.3,120.4,773.9,120.9,776.9,120.9z M776.9,64.5c3,0,5.5-0.5,7.4-1.5
				c1.9-1,3.4-2.3,4.5-3.9c1.1-1.6,1.8-3.5,2.2-5.5c0.4-2.1,0.6-4.2,0.6-6.4c0-2-0.3-3.9-0.8-5.7c-0.5-1.8-1.4-3.5-2.6-4.9
				c-1.2-1.4-2.7-2.6-4.6-3.4c-1.9-0.9-4.1-1.3-6.8-1.3c-2.7,0-5,0.4-6.8,1.3c-1.8,0.9-3.4,2-4.5,3.4c-1.2,1.4-2,3-2.6,4.9
				c-0.5,1.8-0.8,3.8-0.8,5.7c0,2.2,0.2,4.3,0.6,6.4c0.4,2.1,1.2,3.9,2.2,5.5c1.1,1.6,2.6,2.9,4.5,3.9
				C771.5,64,773.9,64.5,776.9,64.5z"/>
		</defs>
		<clipPath id="SVGID_2_">
			<use xlink:href="#SVGID_1_"  overflow="visible"/>
		</clipPath>
		<g clip-path="url(#SVGID_2_)">
			<path fill="#8DD7F8" d="M232.2,165.3c-18.9,0-37.8,0-56.7,0c-1.1-1.4-2.2-2.9-3.1-4.4c-1.6-2.6-3.5-5-5.2-7.5
				c-2.7-4-5.5-7.9-8.2-11.8c-3.5-4.9-7-9.8-10.4-14.7c-0.8-1.1-1.4-2.3-2.5-3.1c0-0.3-0.2-0.5-0.5-0.7c-2.8-2.4-5.9-4.6-8.8-6.9
				c-1.8-1.4-3.6-2.9-5.5-4.3c-2.3-1.6-4.4-3.5-6.6-5.2c-1.7-1.3-3.4-2.6-5.1-3.9c-3.2-2.5-6.4-4.9-9.5-7.4
				c-1.7-1.3-3.4-2.6-5.1-3.9c-1.4-1.1-2.8-2.4-4.5-3.2c0-0.1,0-0.1,0-0.2c0-0.4,0-0.8,0-1.2c0.1,0,0.2,0,0.3,0c0.2,0,0.5,0,0.5-0.3
				l0,0c0.3,0.1,0.5,0,0.7-0.1c2-1.1,4-2.1,6-3.2c2.2-1.2,4.2-2.5,6.4-3.6c2.7-1.4,5.2-2.9,7.9-4.3c2.6-1.3,5.1-2.8,7.6-4.2
				c2.2-1.2,4.3-2.4,6.5-3.6c2.6-1.5,5.3-2.8,7.9-4.4c3-1.8,6.1-3.4,9.1-5c0.5-0.3,0.6-0.6,0.3-1c-0.1-0.2-0.2-0.4-0.3-0.6
				c-3.2-5.3-6.3-10.6-9.5-15.9c-3-5-6-10-9-15c0.1-0.3,0.2-0.6,0.3-0.9c3,0.4,5.8,1.6,8.7,2.3c2.2,0.6,4.4,1.4,6.7,2
				c3.4,0.9,6.7,1.9,10,2.9c3.5,1,7,2,10.4,3.1c3.5,1.1,7,2.1,10.6,3.1c1.3,0.3,2.5,1.1,3.9,1c0,0.3,0,0.6,0,0.9
				c-0.4,0.4-0.9,0.7-1.4,1c-1.8,1-3.6,2-5.5,3c-2.4,1.3-4.6,2.8-7,4c-4.2,2.2-8.2,4.7-12.5,6.9c-1.4,0.7-2.7,1.6-4,2.4
				c-1,0.6-0.9,0.6-0.3,1.6c-0.5,0.1-0.5,0.4-0.6,0.8c-0.2,1.7-0.7,3.3-0.8,5c-0.1,1.9-0.6,3.7-0.7,5.6c-0.1,1.1-0.1,2.2-0.4,3.3
				c-0.5,1.8-0.4,3.7-0.7,5.5c-0.3,1.9-0.4,3.7-0.8,5.6c-0.3,1.6-0.5,3.3-0.6,4.9c-0.1,1.9-0.7,3.7-0.7,5.6c-0.1,1.7-0.6,3.3-0.7,5
				c-0.3,3.5-0.9,7-1.3,10.5c-0.3,2.8-0.6,5.7-1.1,8.5c-0.1,0.7-0.3,1.4-0.3,2.2c0,0.4,0.2,0.6,0.6,0.7c0.2,0.2,0.4,0.3,0.6,0.3
				c3.2-0.1,6.4,0.6,9.5,0.9c3,0.3,6,0.8,9.1,1.1c2.9,0.3,5.9,0.7,8.8,1c3.2,0.3,6.4,0.8,9.7,1.1c2.9,0.3,5.9,0.8,8.8,1.1
				c3.4,0.4,6.8,0.7,10.2,1.2c1.7,0.3,3.4,0.2,5.1,0.5c1.4,0.2,2.8,0.7,4.2,0.6c2.3-0.1,4.5,0.6,6.8,0.7c2.2,0.1,4.3,0.5,6.5,0.8
				c1.2,0.2,2.3,0.1,3.5,0.3c2.2,0.4,4.4,0.5,6.6,0.8c1.9,0.3,3.8,0.6,5.8,0.7c2,0.1,4,0.6,6,0.7c1,0.1,2,0.3,3,0.2
				c0.1-0.5-0.2-0.7-0.5-0.9c-1.6-1.4-3.2-2.7-4.7-4.1c-1.8-1.7-3.7-3.3-5.6-4.9c-1.9-1.6-3.7-3.4-5.6-4.9c-2.7-2.2-5.1-4.6-7.8-6.8
				c-2.1-1.7-4-3.7-6.1-5.4c-1-0.8-1.8-1.8-2.8-2.5c-2.8-2.2-5.4-4.7-8.1-7c-1.2-1.1-2.6-2.1-3.7-3.2c-1.2-1.1-2.7-2-3.6-3.4
				c0-0.4-0.1-0.8,0.3-1.2c0.4,0.1,0.9,0.3,1.3,0.3c1.9-0.1,3.7,0.5,5.5,0.3c0.3,0,0.6,0,0.9,0.1c1.7,0.3,3.3,0.5,5.1,0.5
				c1.6,0,3.3,0.1,4.9,0.4c3.4,0.5,6.7,0.6,10.1,1c2.8,0.4,5.6,0.2,8.4,0.7c1.5,0.2,2.9,0.1,4.3,0.3c1.9,0.3,3.9,0.1,5.8,0.5
				c1.4,0.3,2.9,0.2,4.3,0.4c2.6,0.3,5.2,0.5,7.8,0.7c2.7,0.3,5.5,0.4,8.3,0.7c1.8,0.2,3.7,0.1,5.2,1.4c0,0.1,0,0.2,0,0.3
				c-1.8,3.1-3.6,6.2-5.4,9.3c-1.9,3.3-3.7,6.7-5.6,10c-1.7,3-3.4,6-5.1,9c-1.2,2.1-2.5,4.2-3.7,6.4c-0.6,1.1-1.4,2.2-1.5,3.6
				c-0.6,0.1-0.9,0.5-1.2,0.9c-1.3,2-2.6,3.9-4,5.9c-1.9,2.7-3.8,5.4-5.7,8.1c-1.1,1.6-2,3.3-3.2,4.8c-2.1,2.7-3.9,5.7-5.9,8.4
				C232.6,164.3,232.2,164.7,232.2,165.3z"/>
			<path fill="#92D9F7" d="M274.3,97.2c-1.5-1.3-3.4-1.2-5.2-1.4c-2.7-0.3-5.5-0.4-8.3-0.7c-2.6-0.3-5.2-0.4-7.8-0.7
				c-1.4-0.2-2.9-0.1-4.3-0.4c-1.9-0.4-3.9-0.1-5.8-0.5c-1.4-0.3-2.9-0.1-4.3-0.3c-2.8-0.4-5.6-0.3-8.4-0.7c-3.4-0.5-6.8-0.5-10.1-1
				c-1.6-0.3-3.3-0.4-4.9-0.4c-1.7,0-3.4-0.2-5.1-0.5c-0.3-0.1-0.6-0.1-0.9-0.1c-1.9,0.1-3.7-0.4-5.5-0.3c-0.4,0-0.8-0.2-1.3-0.3
				c0-0.5,0.4-0.9,0.7-1.3c2.8-4.1,5.6-8.2,8.3-12.2c1.9-2.8,3.7-5.5,5.6-8.3c0.4-0.6,1.1-1,1-1.9c0.6,0,0.5-0.5,0.6-0.9
				c0.6,0,0.9-0.4,1.2-0.8c1.5-2.1,3.4-4,5.2-5.9c2.4-2.7,4.8-5.4,7.2-8.1c2.4-2.6,4.7-5.3,7-7.9c2.4-2.7,4.8-5.4,7.3-8.1
				c2.5-2.8,5-5.6,7.5-8.5c1.7-2,3.5-3.9,5.2-5.9c0.5-0.5,1.2-0.9,1.1-1.8c0.1-0.1,0.2-0.2,0.3-0.3c0.3,0,0.5-0.2,0.8-0.3
				c1.3-0.8,2.2-2,3.3-3.1c4.9-4.7,9.5-9.8,14.6-14.3c1.6-1.4,2.9-3,4.5-4.5c2.9-2.8,5.7-5.7,8.6-8.5c0.3-0.3,0.8-0.6,0.8-1.2
				c1.8,0,3.5,0,5.3,0c0.4,0.4,0.9,0.6,1.4,0.8c2.2,0.8,4.4,1.6,6.6,2.5c3,1.2,6,2.3,9.1,3.5c4.9,1.9,9.8,3.7,14.7,5.6
				c0.8,0.3,1.5,1,2.4,0.8c0,0.1,0.1,0.2,0.1,0.4c0,0.1,0,0.1,0,0.2c0,0.1-0.1,0.2-0.1,0.3c-0.4,0-0.8,0-1.2,0.1
				c-1,0.3-2,0.7-3.1,0.9c-2.2,0.4-4.3,1.1-6.4,1.7c-2.6,0.8-5.3,1.4-8,2.2c-3.4,1-6.8,1.9-10.2,2.8c-2.7,0.7-5.3,1.6-8,2.2
				c-3.2,0.8-6.4,1.8-9.7,2.6c-2.9,0.8-5.8,1.6-8.7,2.4c-2.6,0.8-5.3,1.5-7.9,2.2c-2.4,0.7-4.8,1.5-7.3,2c-0.3,0.1-0.5,0.3-0.6,0.6
				c-0.3,0-0.6,0-0.9,0c0-0.1-0.1-0.2-0.1-0.1c0,0,0.1,0,0.1,0.1c-0.1,2,0.7,3.9,1,5.8c0.7,3.7,1.4,7.3,2.2,10.9
				c0.6,2.5,1,5.1,1.6,7.7c0.3,1.1,0.5,2.2,0.7,3.2c0.8,3.9,1.5,7.8,2.3,11.7c0.7,3.3,1.4,6.6,2,9.9c0.6,3.3,1.4,6.5,1.9,9.8
				c0.7,3.9,1.6,7.9,2.4,11.8c0.1,0.6-0.2,1.4,0.4,2C274.8,94.2,275,95.8,274.3,97.2z"/>
			<path fill="#7AC9F0" d="M427.2-13.9c11.5,0,23,0,34.5,0c-0.2,0.9-0.3,1.7-0.5,2.6c-0.5,1.9-0.7,3.9-1.2,5.8
				c-0.5,1.9-0.7,3.8-1.1,5.7c-0.4,1.9-0.8,3.7-1.2,5.5c-0.3,1.5-0.4,3-0.9,4.4c-0.1,0.3-0.1,0.6,0,0.9c0,0.8,0.3,1,1,0.6
				c3.4-2,6.9-3.9,10.3-5.9c1.7-1,3.4-2,5.1-3c3.6-2.1,7.1-4.1,10.7-6.2c1.3-0.8,2.7-1.6,4-2.4c0.6-0.4,0.9-0.2,1.2,0.3
				c0.1,0.3,0.3,0.5,0.4,0.8c0.7,1.8,1.3,3.6,2,5.4c2.4,6.4,4.8,12.7,7.2,19.1c1.7,4.5,3.5,9.1,5.2,13.6c0.1,0.8,0.8,1.2,1.3,1.7
				c0.8,0.8,1.7,1.5,2.6,2.3c2.6,2.4,5.2,4.8,7.8,7.2c2.7,2.5,5.4,5,8.1,7.6c1.9,1.8,3.7,3.7,5.8,5.3c0.4,0.3,0.6,0.7,0.6,1.3
				c-0.7,0.2-1.5,0.3-2.3,0.3c-5.1,0-10.2,0-15.2,0c-0.2-0.2-0.4-0.3-0.6-0.3c-1.1,0.2-2.1,0-3.2,0c-12,0-24.1,0-36.1,0
				c-0.8,0-1.6,0-2.4-0.3c0-0.8,0.1-1.5-0.9-1.9c-2-0.8-3.9-1.7-5.9-2.5c-2.8-1.2-5.6-2.4-8.4-3.6c-3.4-1.5-6.8-3.1-10.2-4.5
				c-1.8-0.7-3.5-1.7-5.3-2.3c0-0.4,0.1-0.7,0.3-1.1c1-1.4,1.7-3,2.6-4.5c2.5-4.6,5.1-9.1,7.8-13.7c1.1-1.8,1.9-3.8,3.1-5.6
				c1-1.6,1.8-3.3,2.8-4.9c0.7-1.2,0.5-1.5-0.9-1.7c-0.1,0-0.3,0-0.4,0c0-0.6-0.4-0.8-0.8-1.2c-0.7-0.9-1.7-1.4-2.5-2.2
				c-1.9-2-4.1-3.7-6-5.7c-1.1-1.1-2.3-2.2-3.5-3.3c-2.6-2.4-5.3-4.7-7.9-7.1c-1.9-1.8-3.9-3.6-5.9-5.4
				C427.4-13.2,427.2-13.5,427.2-13.9z"/>
			<path fill="#6ABCE9" d="M845.5,15.3c0,20.6,0,41.1,0,61.7c-1.3-0.3-2.2-1.2-3.2-2c-3.4-2.5-7-4.7-10.4-7.1
				c-5.7-4-11.5-7.8-17.3-11.8c-3.2-2.2-6.4-4.4-9.6-6.6c-1.9-1.3-3.8-2.6-5.6-3.8c0-1.4-0.3-2.8-0.6-4.2c-0.6-2.6-1.3-5.3-1.7-8
				c-0.6-3.8-1.5-7.5-2.2-11.3c-0.7-3.8-1.5-7.6-2.3-11.4c-0.8-3.9-1.6-7.8-2.4-11.7c-0.2-1.2-0.8-2.3-0.7-3.6
				c1.9,0.6,3.6,1.3,5.4,2.1c4.6,1.9,9.2,3.7,13.8,5.5c0.2,0.1,0.4,0.1,0.6-0.2c-0.1-0.9-0.7-1.6-1.1-2.4c-2-3.8-4.1-7.6-6.1-11.4
				c-0.5-1-1.3-1.9-1.5-3.1c13.3,0,26.5,0,39.8,0c-0.7,2-1.4,4-2.1,6c-1,2.9-2.1,5.8-3.1,8.8c-0.7,1.9-1.4,3.8-2,5.8
				c-0.4,1.1-0.2,1.3,0.8,1.9c2.6,1.5,5.1,3.1,7.7,4.6C842.9,13.9,844,14.9,845.5,15.3z"/>
			<path fill="#83D3F6" d="M459.9,165.3c-22.8,0-45.6,0-68.4,0c0.1-1.9-0.8-3.6-1.3-5.3c-1-3.3-2-6.6-3.1-9.8
				c-0.2-0.7-0.7-1.3-0.6-2.1c-0.2-0.2-0.4-0.4-0.6-0.5c0.2-0.1,0.4-0.1,0.6-0.4c0.4,0,0.8,0,1.1-0.2c2.5-1,4.9-2.1,7.4-3.1
				c3-1.2,6-2.3,8.9-3.6c1.9-0.8,3.8-1.6,5.6-2.3c1.4-0.6,2.9-1.2,4.3-1.7c2.5-0.9,4.9-2.1,7.4-3.1c2.2-0.9,4.5-1.8,6.7-2.7
				c1.8-0.7,3.5-1.5,5.3-2.3c2.7-1.1,5.4-2.2,8.1-3.3c2.7-1.1,5.4-2.3,8.1-3.3c1.4-0.6,2.9-1.1,4.3-1.8c1.9-0.8,3.8-1.5,5.6-2.3
				c2.5-1.1,5.1-2.1,7.6-3.3c1.1,0.2,1.6,0.7,1.8,1.9c0.2,1.4,0.7,2.8,1.1,4.2c0.5,1.7,0.9,3.4,1.4,5c0.9,3.5,1.8,6.9,2.7,10.4
				c1,4,2.1,8.1,3.1,12.1c0.4,1.6,0.8,3.2,1.2,4.8c0.3,1,0.5,2,0.7,3.1c-2,1.1-4,2.1-6.1,3.1c-4,1.9-7.9,4-11.8,5.9
				C460.6,164.8,460.2,164.9,459.9,165.3z"/>
			<path fill="#B2E1EE" d="M686.8-13.9c6,0,12.1,0,18.1,0c0.2,1.3,0.6,2.6,0.8,3.8c0.6,3.3,1.4,6.5,2.1,9.8c0.7,3.1,1.4,6.1,2,9.2
				c0.7,3.2,1.4,6.3,2,9.5c0.7,3.7,1.6,7.4,2.4,11.1c0.6,2.6,1.1,5.2,1.6,7.8c0.4,2,0.9,4.1,1.3,6.1c0.4,1.9,0.7,3.9,1.3,5.8
				c0.5,1.6,0.6,3.3,1.1,5c0.5,2,0.8,4,1.3,6c0.6,2.4,1.2,4.9,1.6,7.4c0.2,1.4,0.9,2.8,0.7,4.3c-0.4,0.2-0.7,0.3-1.2,0.2
				c0-0.4-0.2-0.6-0.5-0.8c-1.8-1-3.3-2.3-5-3.5c-1.6-1.1-3.2-2.3-4.7-3.4c-3.6-2.5-7.1-5.1-10.7-7.6c-2.8-2-5.7-4.1-8.5-6.1
				c-1.9-1.3-3.7-2.7-5.6-4c-2.6-1.9-5.3-3.8-7.9-5.7c-1.6-1.2-3.2-2.4-4.9-3.5c-1.3-0.8-2.5-1.7-3.7-2.6c-3.4-2.4-6.7-4.8-10-7.2
				c-2-1.4-4-2.8-6-4.2c-0.4-0.3-0.5-0.7-0.9-0.9c0.1-0.4-0.1-0.8,0.3-1.1c0.4-0.3,0.6-0.9,1.1-1.2c0.5,0,0.7-0.4,1-0.7
				c1.4-1.5,2.8-3.1,4.3-4.6c2.5-2.6,5-5.3,7.5-7.9c3.7-4,7.5-8,11.2-12c2.5-2.7,5-5.4,7.5-8.1C686.6-13.3,686.8-13.6,686.8-13.9z"
				/>
			<path fill="#6ABCE9" d="M653.7,21.4c-0.4,0.3-0.2,0.8-0.3,1.1c-0.6-0.4-1.2-0.3-1.7,0c-1.5-0.2-2.8,0.5-4.2,0.8
				c-2.4,0.5-4.7,1.3-7.1,1.7c-2.3,0.5-4.6,1.2-6.9,1.7c-1.9,0.4-3.8,0.9-5.6,1.4c-1.7,0.4-3.4,0.8-5.1,1.2
				c-2.4,0.6-4.8,1.3-7.3,1.9c-1.8,0.4-3.6,1-5.5,1.4c-1.8,0.3-3.5,0.9-5.3,1.3c-2,0.5-4,1-6,1.5c-2.2,0.6-4.5,1.1-6.7,1.7
				c-2.2,0.6-4.3,1.1-6.5,1.7c-0.4,0.1-0.6,0.3-0.7,0.7c-0.4,0.2-0.6,0.5-0.8,0.8c-2.1,3.3-4.2,6.5-6.3,9.8
				c-0.4,0.6-0.7,1.3-1.4,1.6c-0.5-0.1-0.5-0.4-0.6-0.9c-0.1-1.1-0.2-2.2-0.5-3.3c-0.6-2.4-0.7-4.9-1.3-7.3c-0.1-0.5-0.2-1-0.3-1.6
				c-0.4-2.5-0.8-4.9-1.2-7.4c-0.1-0.7-0.3-1.4-0.2-2.2c0-0.3,0.1-0.6,0.4-0.8c1.3-1.1,2.8-2.1,4.1-3.2c2.3-1.9,4.8-3.7,7.1-5.5
				c2.8-2.2,5.6-4.3,8.4-6.5c2.9-2.2,5.8-4.4,8.7-6.6c4.2-3.2,8.4-6.5,12.5-9.7c2.9-2.3,5.8-4.6,8.8-6.7c0.3-0.2,0.5-0.4,0.5-0.8
				c0.2,0,0.5-0.1,0.6-0.3c1.4-0.6,2.4-1.7,3.3-2.8c0.1-0.1,0.1-0.3,0.1-0.4c10.7,0,21.4,0,32.2,0c-0.2,1.7-0.6,3.3-0.8,5
				c-0.3,2.5-0.8,5-1.1,7.5c-0.1,0.8-0.1,1.5-0.3,2.3c-0.4,1.9-0.7,3.9-1,5.9c-0.5,3.4-1,6.7-1.5,10.1
				C654,18.4,653.7,19.9,653.7,21.4z"/>
			<path fill="#6ABCE9" d="M503.8,33.1c-1.7-4.5-3.5-9.1-5.2-13.6c-2.4-6.4-4.8-12.7-7.2-19.1c-0.7-1.8-1.3-3.6-2-5.4
				c-0.1-0.3-0.2-0.5-0.4-0.8c-0.3-0.6-0.6-0.7-1.2-0.3c-1.3,0.8-2.7,1.6-4,2.4c-3.6,2.1-7.1,4.1-10.7,6.2c-1.7,1-3.4,2.1-5.1,3
				c-3.4,2-6.9,4-10.3,5.9c-0.7,0.4-0.9,0.3-1-0.6c0-0.3,0-0.6,0-0.9c0.4-1.4,0.6-2.9,0.9-4.4c0.4-1.8,0.9-3.7,1.2-5.5
				c0.4-1.9,0.6-3.8,1.1-5.7c0.5-1.9,0.7-3.9,1.2-5.8c0.2-0.8,0.4-1.7,0.5-2.6c8.7,0,17.3,0,26,0c0.1,2.5,0.7,4.8,1.2,7.3
				c3.3-1.4,6.4-2.7,9.5-4.1c2.4-1.1,4.9-1.9,7.1-3.2c12.1,0,24.2,0,36.3,0c0.8,3,1.6,6.1,2.4,9.1c0.4,1.3,0.6,2.5,1,3.8
				c0.7,2.6,1.4,5.1,2.1,7.7c0.7,2.7,1.4,5.4,2.1,8.1c0.3,0.9,0.6,1.9,0.5,2.8c-0.9-0.2-1.6,0.4-2.4,0.6c-3,1-6,2-9,2.9
				c-3.6,1.1-7.1,2.6-10.7,3.7c-2.8,0.8-5.5,1.8-8.3,2.7c-2.6,0.8-5.3,1.6-7.9,2.6c-1.7,0.6-3.4,1.1-5.1,1.7
				C505.8,32.2,504.6,32.3,503.8,33.1z"/>
			<path fill="#BAE4EF" d="M827.4,165.3c-31.7,0-63.3,0-95,0c0-0.4-0.4-0.5-0.6-0.7c-1.2-0.7-2.5-1.2-3.4-2.3
				c2.2-0.8,4.3-2.1,6.4-3.1c6.2-3.1,12.4-6.3,18.5-9.5c3.2-1.6,6.4-3.3,9.6-4.9c3.2-1.6,6.4-3.3,9.6-4.9c2.5-1.2,4.9-2.5,7.4-3.7
				c2.2-1.1,4.4-2.1,6.4-3.4c0.4-0.2,0.7-0.2,1.1-0.2c1.8,0.3,3.6,0.4,5.4,0.5c2.4,0.2,4.8,0.2,7.3,0.5c1.2,0.2,2.4,0.4,3.6,0.4
				c2.4-0.1,4.7,0.4,7.1,0.3c0.2,0,0.4,0,0.6,0.1c1.5,0.2,3.1,0.5,4.6,0.5c1.9,0,3.8,0.2,5.7,0.4c3.5,0.4,7.1,0.4,10.6,0.8
				c0,0.2,0,0.4,0,0.6c-0.5,3.4-1.1,6.7-1.6,10.1c-0.4,2.9-0.8,5.7-1.4,8.6C828.4,158.6,828.2,162,827.4,165.3z"/>
			<path fill="#DAF0F7" d="M25.5,34.3c0-14.3,0-28.7,0-43l0.1,0l0.1,0c0.2,0.8,0.7,0.6,1.2,0.4c3.1-1.3,6.1-2.6,9.2-4
				c1.1-0.5,2.4-0.8,3.4-1.6c1.8,0,3.5,0,5.3,0c-2,1.4-4,2.5-6.1,3.7c-4,2.3-7.9,4.8-11.9,7.1c-0.8,0.5-1,1-1,1.9
				c0,11.4,0,22.8,0,34.2c0,0.3-0.2,0.7,0.3,0.9c0.1-0.1,0.2-0.2,0.3-0.3c2.1-4,4.3-8,6.4-11.9c0.6-1,0.9-2.3,2-3
				c2.9-1.8,5.8-3.5,8.7-5.2C47.3,11.2,51,9,54.8,6.7c2.5-1.5,5.1-3,7.6-4.6c0.2,0.3,0.3,0.7,0.5,1c3.3,5.5,6.6,10.9,10,16.4
				c2.6,4.3,5.2,8.6,7.9,12.9c1,1.6,1.8,3.3,3,4.8c0,0.2,0,0.4,0,0.5c-0.4,0-0.8,0-1.3,0c-0.4-0.5-0.8-0.1-1.2,0.1
				c-3.3,1.5-6.6,2.9-9.9,4.4c-3,1.3-6,2.7-9,4c-3.7,1.7-7.3,3.3-11,4.9c-4.2,1.8-8.3,3.7-12.5,5.4c-3.8,1.6-7.6,3.4-11.4,5
				c-1.7,0.7-1.7,0.7-1.7-1.2c0-8.2,0-16.4,0-24.5C25.8,35.4,26,34.8,25.5,34.3z"/>
			<path fill="#BFE6F0" d="M723,71.7c0.2-1.5-0.5-2.8-0.7-4.3c-0.4-2.5-1-4.9-1.6-7.4c-0.5-2-0.8-4-1.3-6c-0.4-1.6-0.6-3.3-1.1-5
				c-0.5-1.9-0.8-3.9-1.3-5.8c-0.5-2-0.9-4.1-1.3-6.1c-0.5-2.6-1.1-5.2-1.6-7.8c-0.8-3.7-1.7-7.4-2.4-11.1c-0.6-3.2-1.3-6.3-2-9.5
				c-0.6-3.1-1.3-6.1-2-9.2c-0.7-3.3-1.5-6.5-2.1-9.8c-0.2-1.3-0.6-2.5-0.8-3.8c15,0,30,0,45,0c-0.5,2.7-1.5,5.2-2.3,7.8
				c-1.2,3.8-2.4,7.6-3.6,11.4c-1.2,4-2.4,8-3.6,12c-1.2,3.8-2.5,7.6-3.6,11.3c-1.5,4.9-3,9.7-4.5,14.6c-0.9,3-1.8,5.9-2.7,8.9
				c-1,3.3-2,6.6-3.1,9.8c-0.8,2.4-1.4,5-2.4,7.3c-0.2,0.4-0.2,0.9-0.2,1.3c-0.4,0.3-0.5,0.7-0.6,1.2
				C723.2,71.7,723.1,71.7,723,71.7z"/>
			<path fill="#75C5EE" d="M845.5,79c0,4.9,0,9.7,0,14.6c-0.8,2.6-1.6,5.3-2.3,7.9c-1.8,6.3-3.5,12.6-5.3,18.9
				c-1.4,4.8-2.7,9.6-4.1,14.4c-0.6-0.2-1.2-0.2-1.7,0.3c-1.3-0.8-2-2.1-2.9-3.2c-1.5-1.7-2.8-3.5-4.2-5.2c-1.4-1.7-2.7-3.3-4.1-4.9
				c-1.3-1.6-2.5-3.2-3.8-4.7c-2.8-3.3-5.5-6.7-8.3-10.1c-1.4-1.7-2.8-3.4-4.3-5.1c-1-1.2-1.9-2.3-2.9-3.5c-1.2-1.5-2.5-3-3.7-4.5
				c-2.2-2.7-4.3-5.5-6.6-8.1c-2.2-2.6-4.2-5.2-6.4-7.7c-0.9-1.1-1.6-2.4-2.9-3.1c0-0.1,0-0.2,0-0.3c0.5,0,1.1,0,1.6,0.1
				c1.6,0.3,3.2,0.4,4.8,0.4c2.3,0.1,4.6,0.6,7,0.4c0.1,0,0.3,0,0.4,0c2.1,0.3,4.1,0.6,6.2,0.5c2.1,0,4.2,0.5,6.4,0.3
				c0.1,0,0.3,0,0.4,0.1c1.6,0.2,3.2,0.5,4.8,0.5c2.5-0.1,5,0.5,7.6,0.3c0.1,0,0.2,0,0.3,0c2.4,0.4,4.9,0.6,7.4,0.6
				c0.4,0,0.8,0,1.2,0c2.2,0.3,4.3,0.6,6.5,0.5c0.3,0,0.7,0,1,0C840.1,78.9,842.8,78.8,845.5,79z"/>
			<path fill="#AFE1EF" d="M64.4,165.3c-2.3,0-4.7,0-7,0c0-0.5-0.4-0.9-0.7-1.3c-1.6-2.2-3.2-4.5-4.8-6.7c-1.2-1.7-2.3-3.3-3.5-4.9
				c-2.4-3.1-4.6-6.4-6.9-9.5c-1.3-1.8-2.7-3.7-4-5.5c-2.7-3.9-5.5-7.7-8.3-11.5c-0.8-1.1-1.5-2.1-2.3-3.2c-0.2-0.3-0.5-0.6-1-0.6
				c0-2-0.1-4,0.1-6c1.6,0.2,3.3,0.3,4.9,0.5c2.6,0.3,5.1,0.5,7.7,0.8c1.6,0.2,3.3,0.2,4.9,0.5c2,0.3,3.9,0.5,5.9,0.7
				c2.4,0.3,4.8,0.6,7.2,0.7c2.4,0.1,4.7,0.6,7.1,0.8c1.5,0.1,2.9,0.1,4.3,0.4c2.9,0.5,5.9,0.7,8.8,1c3.8,0.5,7.7,0.7,11.6,1.2
				c0,0.5,0,1,0,1.4c-0.1,0-0.2,0-0.3,0c-0.4,0.2-0.5,0.5-0.7,0.9c-2,3.5-4,7.1-6.1,10.6c-2.3,4-4.7,8-7,12.1
				c-2.5,4.3-4.9,8.6-7.3,12.9C66,162.1,64.9,163.5,64.4,165.3z"/>
			<path fill="#AFE1EF" d="M185.4,39c-1.4,0.1-2.6-0.6-3.9-1c-3.5-0.9-7.1-2-10.6-3.1c-3.5-1.1-7-2-10.4-3.1c-3.3-1-6.7-2-10-2.9
				c-2.2-0.6-4.4-1.4-6.7-2c-2.9-0.7-5.7-2-8.7-2.3c0.7-2,1.4-3.9,2.1-5.9c0.7-1.9,1.5-3.9,2.3-5.8c1.2-3.1,2.2-6.2,3.4-9.3
				c0.8-2,1.5-4,2.3-5.9c1-2.6,2-5.3,3-7.9c0.5-1.2,1.2-2.4,1.3-3.8c5.9,0,11.9,0,17.8,0c-0.1,0.6,0.2,1.1,0.4,1.5
				c0.5,1.5,1.1,3,1.6,4.5c1,2.9,2,5.8,3,8.7c0.6,1.8,1.2,3.6,1.8,5.4c0.7,2.1,1.5,4.2,2.2,6.3c0.6,1.7,1.2,3.5,1.8,5.2
				c1,2.8,1.9,5.7,2.9,8.5c1,2.9,2,5.9,3,8.8C184.5,36.3,184.7,37.7,185.4,39z"/>
			<path fill="#AFE1EF" d="M107.9-13.9c3.1,0,6.2,0,9.4,0c0.1,0.2,0.1,0.5,0.2,0.7c1.2,2.6,2.5,5.2,3.5,7.8c0.9,2.2,1.9,4.3,2.8,6.5
				c1.7,4.2,3.7,8.2,5.5,12.3c1.7,3.7,3.4,7.4,4.9,11.2c0,0.1,0,0.2,0,0.4c-0.2,0-0.5,0-0.7,0.1c-3,0.7-6,1.5-9,2.2
				c-5.1,1.2-10.3,2.4-15.4,3.6c-2.7,0.6-5.4,1.2-8.1,1.9c-2.5,0.6-5,1.2-7.5,1.8c-1.3,0.3-2.6,0.6-4,0.9c-1.8,0.4-3.5,1-5.4,1.2
				c0.1-0.4,0-0.9,0.2-1.3c1-2.3,1.5-4.7,2.3-7c2-5.5,3.7-11.1,5.6-16.7c1.2-3.5,2.4-7.1,3.5-10.6c1.1-3.3,2.2-6.5,3.3-9.8
				c0.4-0.7,1.1-1.1,1.8-1.4c1.4-0.7,2.9-1.2,4.2-1.9C106-12.8,107.2-13,107.9-13.9z"/>
			<path fill="#83D3F6" d="M185.4,39c-0.7-1.2-0.9-2.6-1.4-4c-1.1-2.9-2-5.8-3-8.8c-1-2.8-1.9-5.7-2.9-8.5c-0.6-1.7-1.2-3.5-1.8-5.2
				c-0.7-2.1-1.5-4.2-2.2-6.3c-0.6-1.8-1.2-3.6-1.8-5.4c-1-2.9-2-5.8-3-8.7c-0.5-1.5-1.1-3-1.6-4.5c-0.2-0.5-0.4-1-0.4-1.5
				c7.2,0,14.4,0,21.6,0c0.2,0.3,0.4,0.6,0.7,0.8c2.7,2.2,5.3,4.3,8,6.5c2.8,2.2,5.5,4.4,8.3,6.6c2.9,2.3,5.8,4.6,8.7,7
				c0.9,0.8,2.2,1.3,2.8,2.5c-1.9,1.8-3.8,3.6-5.6,5.4c-4.4,4.3-8.9,8.5-13.3,12.8c-3.2,3.1-6.4,6.1-9.5,9.2
				c-0.7,0.6-1.4,1.2-1.8,2.1c-0.7,0-0.8,0.7-1.3,0.9c-0.1,0-0.2,0-0.3,0C185.4,39.6,185.4,39.3,185.4,39z"/>
			<path fill="#B2E1EE" d="M550,17.6c0-1-0.3-1.9-0.5-2.8c-0.7-2.7-1.4-5.4-2.1-8.1c-0.7-2.6-1.4-5.1-2.1-7.7
				c-0.3-1.3-0.6-2.5-1-3.8c-0.9-3-1.6-6.1-2.4-9.1c21.3,0,42.7,0,64,0c0.1,0.1,0.1,0.2,0.2,0.2c3.2,0.8,6.4,1.3,9.7,1.9
				c2,0.4,4,0.7,5.9,1.4c-0.6,0.7-1.6,0.7-2.4,1.1c-5.2,2.1-10.5,4.2-15.7,6.2c-4.3,1.7-8.7,3.3-13,5c-4.3,1.7-8.6,3.3-12.9,5
				c-3.9,1.5-7.9,3-11.8,4.5c-3.4,1.3-6.8,2.6-10.2,4c-1.8,0.7-3.7,1.1-5.3,2.3C550.2,17.6,550.1,17.6,550,17.6z"/>
			<path fill="#8DD7F8" d="M88,124.1c0.1,0,0.2,0,0.3,0c5-0.1,10,0,15-0.2c8.8-0.4,17.7,0.2,26.5-0.3c4.7-0.3,9.3,0,14,0
				c0,0.2-0.1,0.5-0.3,0.6c-1.2,0.9-2.4,2-3.6,2.9c-1,0.7-1.6,1.8-2.8,2.2c-0.1,0.1-0.2,0.2-0.3,0.3l0,0c-0.5,0.1-1,0.2-1.2,0.8
				c-0.1,0.1-0.2,0.3-0.3,0.4c0,0,0,0,0,0c-1,0-1.6,0.7-2.3,1.1c-4.3,2.7-8.5,5.4-12.8,8.1c-4.7,2.9-9.4,5.9-14.1,8.8
				c-4.6,2.9-9.1,5.7-13.7,8.6c-3.9,2.4-7.7,4.8-11.6,7.3c-0.3,0.2-0.5,0.3-0.5,0.7c-2,0-4.1,0-6.1,0c0.8-1.9,1.4-3.9,2-5.9
				c1-3,2-6.1,3-9.1c1.2-3.6,2.5-7.1,3.7-10.7c1.3-4.1,2.7-8.1,4-12.1C87.4,126.3,87.7,125.2,88,124.1z"/>
			<path fill="#83D3F6" d="M137.2,129.3c1.2-0.4,1.9-1.5,2.8-2.2c1.2-0.9,2.3-2,3.6-2.9c0.2-0.2,0.3-0.4,0.3-0.6
				c0.6,0.1,1.2-0.2,1.8,0.3c0.1,0.3,0.2,0.5,0.3,0.8c0.5,3,1,5.9,1.5,8.9c0.4,2.3,0.7,4.7,1.1,7c0.5,3.3,1.1,6.6,1.6,9.9
				c0.5,3.4,1.2,6.9,1.6,10.3c0.2,1.5,0.6,3,0.7,4.6c-19.2,0-38.4,0-57.6,0c0.2-0.6,0.7-0.9,1.2-1.3c2.2-1.9,4.5-3.7,6.7-5.6
				c3-2.6,6.1-5.1,9.2-7.7c3.2-2.7,6.4-5.3,9.6-8c3.5-2.9,7-5.8,10.5-8.8c1.2-1,2.6-1.9,3.5-3.2c0,0,0,0,0,0c0.1,0,0.2,0,0.3,0
				c0.4-0.4,1.1-0.5,1.2-1.2c0,0,0,0,0,0C137,129.5,137.1,129.4,137.2,129.3z"/>
			<path fill="#DAF0F7" d="M769.8-13.9c3.1,0,6.2,0,9.4,0c0.9,1.4,2.6,2.2,3.6,3.5c0.4,0.5,1,0.9,1.5,1.3c1.5,1.4,3.3,2.5,4.5,4.2
				c-1.7,2-3.3,4-5,6c-1.9,2.3-4,4.5-5.9,6.8c-2.1,2.6-4.4,5.1-6.5,7.6c-1.3,1.6-2.7,3.2-4.1,4.8c-2.5,2.8-4.8,5.7-7.2,8.6
				c-1.5,1.7-3,3.4-4.5,5.2c-1.4,1.6-2.7,3.2-4,4.8c-2,2.3-3.9,4.5-5.9,6.8c-2,2.4-4.1,4.7-6,7.1c-1,1.2-2.1,2.3-3.1,3.5
				c-1.6,2-3.3,4-4.9,5.9c-1.5,1.7-2.9,3.5-4.4,5.2c-0.7,0.8-1.2,1.8-2.3,2.2c-0.1-0.5,0.2-0.9,0.4-1.4c2.7-5,5.5-10.1,8.2-15.1
				c2.6-4.9,5.3-9.7,7.9-14.6c2.1-3.8,4.2-7.7,6.3-11.5c1.4-2.6,2.8-5.1,4.2-7.7c1.3-2.4,2.6-4.9,3.9-7.3c1.7-3.1,3.4-6.1,5.1-9.2
				c2.4-4.6,4.9-9.1,7.4-13.7C769-11.8,769.8-12.7,769.8-13.9z"/>
			<path fill="#83D3F6" d="M845.5,79c-2.7-0.2-5.4-0.2-8.1-0.6c-0.3,0-0.7,0-1,0c-2.2,0-4.3-0.2-6.5-0.5c-0.4-0.1-0.8,0-1.2,0
				c-2.5,0-4.9-0.2-7.4-0.6c-0.1,0-0.2,0-0.3,0c-2.5,0.2-5-0.4-7.6-0.3c-1.6,0-3.2-0.3-4.8-0.5c-0.1,0-0.3-0.1-0.4-0.1
				c-2.1,0.2-4.2-0.4-6.4-0.3c-2.1,0-4.1-0.2-6.2-0.5c-0.1,0-0.3,0-0.4,0c-2.3,0.2-4.6-0.3-7-0.4c-1.6-0.1-3.2-0.1-4.8-0.4
				c-0.5-0.1-1.1-0.1-1.6-0.1c-0.1-0.1-0.1-0.2-0.2-0.3c0.1-0.5,0.3-0.9,0.6-1.3c0.9-1.4,1.8-2.9,2.7-4.3
				c3.6-5.8,7.3-11.7,10.9-17.5c0.6-1,1.3-2,1.7-3.2l0,0c1-0.5,1.2-1.5,1.8-2.3c1.9,1.3,3.8,2.5,5.6,3.8c3.2,2.2,6.4,4.4,9.6,6.6
				c5.8,3.9,11.6,7.8,17.3,11.8c3.4,2.4,7.1,4.6,10.4,7.1c1,0.7,1.9,1.7,3.2,2C845.5,77.7,845.5,78.4,845.5,79z"/>
			<path fill="#75C5EE" d="M357.3-13.9c8.9,0,17.7,0,26.6,0c0.1,0.2,0.1,0.5,0.3,0.7c1.5,2,2.9,4.1,4.3,6.2c3,4.4,5.9,9,9,13.4
				c0.5,0.8,1.2,1.5,1.3,2.5c-2.2,0.4-4.4,0.8-6.6,1.2c-3.3,0.6-6.7,1.2-10,1.9c-2.1,0.5-4.2,0.7-6.3,1.2c-2,0.5-4.1,0.7-6.1,1.1
				c-2.6,0.5-5.1,1-7.7,1.5c-2.6,0.5-5.2,0.9-7.7,1.5c0.1-1.4,0.2-2.9,0.4-4.3c0.1-1.4,0.1-2.7,0.3-4c0.5-2.9,0.8-5.7,0.8-8.6
				c0-0.2,0-0.5,0-0.7c0.3-1.6,0.5-3.2,0.6-4.9c0.1-1.4,0.2-2.8,0.4-4.2C357-11,357.3-12.4,357.3-13.9z"/>
			<path fill="#92D9F7" d="M427.2-13.9c0,0.4,0.3,0.7,0.6,1c2,1.7,4,3.5,5.9,5.4c2.6,2.4,5.3,4.7,7.9,7.1c1.2,1.1,2.4,2.2,3.5,3.3
				c2,1.9,4.1,3.7,6,5.7c0.8,0.8,1.8,1.3,2.5,2.2c0.3,0.4,0.7,0.6,0.8,1.2c-1.1,0-2.2,0.1-3.2-0.1c-1.8-0.3-3.7-0.4-5.5-0.4
				c-3-0.1-5.9-0.4-8.9-0.4c-1.2,0-2.5-0.1-3.8-0.3c-3.4-0.3-6.8-0.6-10.2-0.6c-0.5,0-1.1,0-1.6-0.1c-1.7-0.2-3.5-0.5-5.2-0.5
				c-2.8,0-5.5-0.5-8.3-0.3c-0.1,0-0.2,0-0.3,0c-2.6-0.4-5.2-0.6-7.8-0.6c0-1.3-0.1-2.5,0.1-3.8c0.2-1.4,0.3-2.9,0.5-4.3
				c0.2-1.9,0.2-3.8,0.3-5.6c0.1-2.9,0.3-5.9,0.7-8.8C409.8-13.9,418.5-13.9,427.2-13.9z"/>
			<path fill="#FEFFFF" d="M99.1-8.9c-1,3.3-2.2,6.5-3.3,9.8c-1.2,3.6-2.3,7.1-3.5,10.6c-1.9,5.6-3.6,11.2-5.6,16.7
				c-0.8,2.3-1.4,4.7-2.3,7c-0.2,0.4-0.1,0.9-0.2,1.3c-0.1,0.2-0.3,0.5-0.4,0.7c-1.3-1.4-2-3.2-3-4.8c-2.6-4.3-5.2-8.6-7.9-12.9
				c-3.3-5.5-6.6-10.9-10-16.4c-0.2-0.3-0.3-0.7-0.5-1c-0.5-1.2-1.1-2.5-1.6-3.7c-1.3-3-2.6-6-3.8-9.1c-0.4-1.1-1.2-2-1.1-3.3
				c5.7,0,11.5,0,17.2,0c0,0.5-0.4,0.9-0.7,1.3c-1.7,2.3-3.2,4.8-4.8,7.1c-1.5,2.2-2.9,4.3-4.3,6.5c-0.1,0.1,0,0.3,0,0.4
				c0.2,0.2,0.4,0.1,0.6,0.1c2.4-0.7,4.8-1.5,7.2-2.2C75-2,78.9-3.4,82.8-4.5c5-1.4,9.8-3.2,14.9-4.5c0.4-0.1,0.7-0.2,0.9-0.6
				C98.8-9.4,98.9-9.2,99.1-8.9z"/>
			<path fill="#6ABCE9" d="M55.9-13.9c-0.1,1.2,0.7,2.2,1.1,3.3c1.2,3.1,2.5,6.1,3.8,9.1c0.5,1.2,1.1,2.5,1.6,3.7
				c-2.5,1.5-5.1,3.1-7.6,4.6C51,9,47.3,11.2,43.5,13.4c-2.9,1.7-5.8,3.5-8.7,5.2c-1.1,0.7-1.4,1.9-2,3c-2.2,4-4.3,7.9-6.4,11.9
				c-0.1,0.1-0.2,0.2-0.3,0.3c-0.4-0.2-0.3-0.6-0.3-0.9c0-11.4,0-22.8,0-34.2c0-0.9,0.2-1.4,1-1.9c4-2.3,7.9-4.8,11.9-7.1
				c2.1-1.2,4.1-2.3,6.1-3.7C48.5-13.9,52.2-13.9,55.9-13.9z"/>
			<path fill="#6ABCE9" d="M769.8-13.9c0,1.2-0.8,2.2-1.4,3.2c-2.5,4.6-5,9.1-7.4,13.7c-1.6,3.1-3.4,6.1-5.1,9.2
				c-1.3,2.4-2.6,4.9-3.9,7.3c-1.4,2.6-2.8,5.1-4.2,7.7c-2.1,3.8-4.2,7.7-6.3,11.5c-2.6,4.9-5.3,9.7-7.9,14.6
				c-2.7,5-5.5,10.1-8.2,15.1c-0.2,0.4-0.5,0.8-0.4,1.4c0,0,0,0,0,0c-0.4,0-0.5,0.2-0.6,0.6l0,0c-0.2,0-0.3,0.2-0.3,0.3
				c-0.1,0-0.2,0-0.3,0c0-0.4,0-0.9,0.2-1.3c1-2.4,1.6-4.9,2.4-7.3c1.1-3.3,2.1-6.6,3.1-9.8c0.9-3,1.8-5.9,2.7-8.9
				c1.5-4.9,3-9.7,4.5-14.6c1.2-3.8,2.5-7.6,3.6-11.3c1.2-4,2.4-8,3.6-12c1.2-3.8,2.4-7.6,3.6-11.4c0.8-2.6,1.8-5.1,2.3-7.8
				C756.6-13.9,763.2-13.9,769.8-13.9z"/>
			<path fill="#BAE4EF" d="M260.5,17.9c-0.1,0.1-0.2,0.2-0.3,0.3c-0.6,0-1.1-0.5-1.6-0.5c-1.8-0.2-3.6-0.8-5.4-1.2
				c-3.1-0.7-6.2-1.4-9.3-2.1c-1.9-0.4-3.8-0.9-5.6-1.3c-3-0.7-6-1.4-9-2.1c-1.9-0.5-3.9-0.9-5.8-1.3c-1.6-0.3-3.1-0.7-4.7-1
				c0.4-0.4,0.8-0.7,1.3-1c4.1-2.7,8.3-5.2,12.5-7.8c6.5-4,13-8.1,19.5-12.2c0.8-0.5,1.7-0.7,2.2-1.6c3.3,0,6.6,0,9.9,0
				c0.1,1.5-0.1,3-0.5,4.5c-0.1,0.4-0.1,0.8-0.1,1.2c-0.1,2-0.2,4-0.6,5.9c-0.3,1.4-0.3,2.9-0.5,4.3c-0.3,2.9-0.7,5.8-1,8.6
				C261.1,13,260.8,15.5,260.5,17.9z"/>
			<path fill="#8DD7F8" d="M337.7,165.3c-0.5,0-1,0-1.5,0c-0.2-0.3-0.5-0.4-0.8-0.5c-5.5-2.1-11-4.2-16.5-6.4
				c-3.8-1.5-7.7-2.9-11.5-4.5c-2.6-1.1-5.2-1.9-7.7-3c-1-0.4-2-1-3.2-1.1c-0.1,0-0.2,0-0.3,0c0-0.6,0-1.1,0-1.7
				c0.6,0.1,0.9-0.3,1.2-0.7c1.3-1.8,2.5-3.7,3.8-5.5c2.7-3.9,5.2-8,7.8-11.9c1.9-2.8,3.8-5.6,5.7-8.4c0.2-0.4,0.5-0.7,0.5-1.2
				c0.3-0.1,0.5-0.2,0.8-0.3c0.1,0.6,0.3,1.1,0.6,1.6c1.2,2.4,2.3,4.8,3.5,7.2c1.9,3.7,3.4,7.6,5.3,11.3c1.6,3.2,3,6.5,4.7,9.7
				c1.1,2.2,2.3,4.4,3.2,6.6c0.8,2,1.9,3.8,2.8,5.8c0.4,0.9,0.6,2.1,1.7,2.6C337.7,164.9,337.7,165.1,337.7,165.3z"/>
			<path fill="#9CDCF4" d="M25.8,122c0.4,0,0.7,0.3,1,0.6c0.8,1.1,1.5,2.1,2.3,3.2c2.8,3.8,5.6,7.7,8.3,11.5c1.3,1.9,2.6,3.7,4,5.5
				c2.3,3.2,4.5,6.4,6.9,9.5c1.2,1.6,2.4,3.3,3.5,4.9c1.6,2.2,3.3,4.5,4.8,6.7c0.3,0.4,0.7,0.7,0.7,1.3c-10.5,0-21,0-31.6,0
				c0-8.6,0-17.1,0-25.7C25.8,133.7,25.8,127.9,25.8,122z"/>
			<path fill="#FEFFFF" d="M25.5,34.3c0.5,0.5,0.3,1.1,0.3,1.7c0,8.2,0,16.4,0,24.5c0,1.9,0,1.9,1.7,1.2c3.8-1.6,7.6-3.5,11.4-5
				c4.2-1.7,8.3-3.7,12.5-5.4c3.7-1.5,7.4-3.2,11-4.9c3-1.4,6-2.7,9-4c3.3-1.5,6.6-2.9,9.9-4.4c0.4-0.2,0.7-0.6,1.2-0.1
				c-1.2,1.5-2.9,2.4-4.3,3.7c-2.5,2.1-5.1,4-7.6,6.1c-3.3,2.6-6.5,5.3-9.7,7.9c-3.4,2.7-6.7,5.4-10.1,8.1c-4.2,3.3-8.3,6.8-12.5,10
				c-4.1,3.2-8.2,6.6-12.2,9.8c-0.2,0-0.4,0-0.6,0C25.5,67,25.5,50.7,25.5,34.3z"/>
			<path fill="#AFE1EF" d="M621,165.3c-4.4,0-8.8,0-13.2,0c0.2-0.2,0.3-0.4,0.5-0.5c3.2-1.8,6.1-4.1,9.3-6c0.4-0.2,0.8-0.4,1.1-0.9
				c-3.2-0.7-6.4-0.4-9.6-0.7c-2-0.2-4-0.1-6-0.3c-3.4-0.3-6.9-0.4-10.3-0.6c-3.2-0.2-6.4-0.5-9.6-0.6c-3.2-0.1-6.4-0.3-9.6-0.4
				c-2,0-4-0.3-5.9-0.4c-0.1-0.1-0.2-0.1-0.2-0.1c-0.2-0.8,0.7-1.1,0.8-1.7c2.2-1.7,4.2-3.5,6.4-5.3c4.4-3.6,8.6-7.3,13-11
				c0.6-0.5,1.2-1.2,2-1.4c0.3,0.5,0.7,0.8,1.2,1c2.6,1.7,5,3.6,7.6,5.3c2.9,1.9,5.6,4,8.4,6c3.9,2.8,7.8,5.5,11.7,8.3
				c0.4,0.3,0.7,0.5,1.2,0.4l0,0c0.1,0.1,0.2,0.2,0.3,0.3c0.1,0.2,0.3,0.2,0.6,0.2c0,0.1,0,0.3,0,0.4
				C620.6,160.1,621,162.7,621,165.3z"/>
			<path fill="#A1DDF3" d="M620.7,157.5c0-0.1,0-0.3,0-0.4c0-0.2,0-0.4,0-0.6c0.1,0,0.2,0,0.3,0c2.4-0.4,4.8-0.8,7.2-1.2
				c2.3-0.4,4.7-0.7,7-1.1c2.5-0.4,5.1-0.8,7.6-1.3c2.4-0.4,4.8-0.7,7.2-1.1c2.3-0.4,4.7-0.8,7-1.1c3-0.4,6-1,9-1.3
				c3.1-0.4,6.1-1.1,9.2-1.4c1-0.1,2-0.3,2.9-0.9c0.2,0.1,0.4,0.2,0.6,0.3c-0.1,0.2-0.2,0.4-0.3,0.5c-0.8,0.3-1.3,1-1.9,1.5
				c-3.2,2.6-6.5,5.3-9.7,7.9c-3,2.4-5.9,4.8-8.9,7.2c-0.2,0.2-0.5,0.4-0.5,0.7c-10.2,0-20.5,0-30.7,0c-0.4-1.3-1.5-2.2-2.3-3.3
				C623.1,160.5,622.1,158.8,620.7,157.5z"/>
			<path fill="#83D3F6" d="M288.3,165.3c-7.3,0-14.6,0-21.9,0c-0.1-5.3,0.2-10.6-0.2-15.8c-0.2-2.9-0.1-5.8-0.1-8.7
				c0.5,0,1,0,1.6,0.2c1.4,0.5,2.8,0.9,4.1,1.3c3.4,1.1,6.7,2,10.1,3.1c3.4,1.1,6.8,1.9,10.1,3c1.3,0.4,2.8,0.4,3.9,1.5
				c-0.5,1-1,2-1.5,3c-1.5,3-3.1,5.9-4.6,8.9C289.3,162.9,288.5,163.9,288.3,165.3z"/>
			<path fill="#BFE6F0" d="M152.4,165.3c-0.1-1.5-0.5-3-0.7-4.6c-0.4-3.5-1.1-6.9-1.6-10.3c-0.5-3.3-1.1-6.6-1.6-9.9
				c-0.4-2.3-0.7-4.7-1.1-7c-0.5-3-1-5.9-1.5-8.9c0-0.3-0.2-0.6-0.3-0.8c0.1,0,0.2,0,0.3,0c1.1,0.8,1.8,2,2.5,3.1
				c3.4,4.9,6.9,9.8,10.4,14.7c2.8,3.9,5.5,7.8,8.2,11.8c1.7,2.5,3.6,4.9,5.2,7.5c0.9,1.5,2,3,3.1,4.4
				C167.8,165.3,160.1,165.3,152.4,165.3z"/>
			<path fill="#83D3F6" d="M260.5,17.9c0.3-2.4,0.6-4.9,0.8-7.4c0.3-2.9,0.8-5.8,1-8.6c0.1-1.4,0.2-2.9,0.5-4.3
				c0.4-1.9,0.6-3.9,0.6-5.9c0-0.4,0-0.8,0.1-1.2c0.4-1.5,0.5-3,0.5-4.5c9.6,0,19.3,0,28.9,0c0,0.6-0.4,0.9-0.8,1.2
				c-2.9,2.9-5.6,5.8-8.6,8.5c-1.5,1.5-2.9,3.1-4.5,4.5c-5.1,4.5-9.6,9.6-14.6,14.3c-1.1,1-1.9,2.3-3.3,3.1
				C261,17.8,260.8,17.9,260.5,17.9z"/>
			<path fill="#DAF0F7" d="M519.3,165.3c-8.3,0-16.6,0-24.9,0c0.2-1-0.3-1.9-0.5-2.8c-0.5-2.1-1-4.1-1.6-6.1c-0.2-0.5-0.2-1-0.2-1.6
				c0.6,0,1.2,0,1.7-0.2c2.8-0.9,5.6-1.8,8.4-2.8c4.4-1.5,8.8-3,13.2-4.5c3.4-1.1,6.8-2.3,10.2-3.4c0.1,0.4-0.1,0.8-0.2,1.1
				c-0.7,2.1-1.4,4.1-2,6.2c-1,3.2-2.1,6.4-3,9.7C520,162.4,519.2,163.7,519.3,165.3z"/>
			<path fill="#DAF0F7" d="M567.5,154.8c0.1,0,0.2,0.1,0.2,0.1c0,2.7,0.4,5.4,0.7,8.1c0.1,0.8,0.2,1.5,0.2,2.3c-7,0-14,0-21,0
				c-2-2.5-4.3-4.7-6.6-7c-4.4-4.5-8.8-9-13.2-13.5c-0.4-0.4-0.7-0.8-1.1-1.2c1.3,0.1,2.5,0.6,3.8,0.9c3.5,0.9,6.9,1.9,10.4,2.9
				c2.6,0.7,5.2,1.5,7.8,2.2c3.9,1.1,7.7,2.2,11.6,3.2C562.8,153.4,565.1,154.3,567.5,154.8z"/>
			<path fill="#6ABCE9" d="M254.1-13.9c-0.4,0.9-1.4,1.2-2.2,1.6c-6.5,4.1-12.9,8.2-19.5,12.2c-4.2,2.6-8.4,5.1-12.5,7.8
				c-0.4,0.3-0.9,0.5-1.3,1c-0.3,0-0.6,0-0.9,0c-0.1-1.4-0.2-2.7-0.3-4.1c-0.1-2-0.1-4.1-0.3-6.1c-0.3-4.1-0.4-8.2-0.6-12.3
				C229.1-13.9,241.6-13.9,254.1-13.9z"/>
			<path fill="#BFE6F0" d="M134.2,25c0-0.1,0-0.2,0-0.4c0.4-0.3,0.3-0.7,0.2-1.1c-0.1-0.9-0.3-1.7-0.5-2.6c-0.4-2.4-0.9-4.8-1.2-7.2
				c-0.3-2-0.6-4-1.1-6c-0.5-2.2-0.7-4.4-1.2-6.6c-0.4-2.1-0.8-4.3-1.1-6.4c-0.5-2.9-1-5.8-1.6-8.7c7.2,0,14.4,0,21.6,0
				c-0.1,1.4-0.8,2.6-1.3,3.8c-1,2.6-2,5.3-3,7.9c-0.8,2-1.5,4-2.3,5.9c-1.2,3.1-2.3,6.2-3.4,9.3c-0.7,1.9-1.5,3.9-2.3,5.8
				c-0.7,2-1.4,3.9-2.1,5.9c-0.1,0.3-0.2,0.6-0.3,0.9c-0.1,0-0.2,0-0.2,0C134.4,25.4,134.3,25.2,134.2,25z"/>
			<path fill="#6ABCE9" d="M568.7,165.3c0-0.8-0.1-1.5-0.2-2.3c-0.4-2.7-0.7-5.3-0.7-8.1c2,0.1,4,0.4,5.9,0.4
				c3.2,0.1,6.4,0.3,9.6,0.4c3.2,0.1,6.4,0.4,9.6,0.6c3.4,0.2,6.9,0.3,10.3,0.6c2,0.2,4,0,6,0.3c3.2,0.4,6.4,0,9.6,0.7
				c-0.3,0.5-0.7,0.7-1.1,0.9c-3.1,1.9-6.1,4.2-9.3,6c-0.2,0.1-0.3,0.3-0.5,0.5C594.8,165.3,581.7,165.3,568.7,165.3z"/>
			<path fill="#BAE4EF" d="M232.2,165.3c0-0.6,0.4-1,0.7-1.4c2-2.8,3.9-5.7,5.9-8.4c1.2-1.5,2.1-3.3,3.2-4.8
				c1.9-2.7,3.8-5.4,5.7-8.1c1.4-1.9,2.7-3.9,4-5.9c0.3-0.5,0.6-0.9,1.2-0.9c0.1,0.1,0.2,0.2,0.3,0.3c-0.4,1.3,0.1,2.5,0.4,3.6
				c0.7,2.9,1.1,5.9,1.8,8.8c0.8,3.4,1.4,6.8,2,10.2c0.4,2.2,0.8,4.4,1.3,6.6C249.9,165.3,241,165.3,232.2,165.3z"/>
			<path fill="#7AC9F0" d="M723.3,165.3c-12.3,0-24.6,0-36.8,0c-0.2-0.8-0.5-1.5-0.8-2.2c-1.5-3.3-3-6.7-4.6-10
				c-0.6-1.1-0.8-2.5-1.9-3.4c0,0,0,0,0,0c0-0.3,0-0.6-0.1-0.9c0.5,0,1-0.1,1.4,0.1c2.5,0.9,5.2,1.4,7.8,2.2c2.3,0.7,4.7,1.3,7,1.9
				c3.4,1,6.8,2.1,10.2,3c5.1,1.3,10.1,2.8,15.1,4.2c1.9,0.6,3.9,0.9,5.7,1.7c-0.5,0.5-1.1,1.1-1.6,1.6
				C724.2,164.2,723.5,164.5,723.3,165.3z"/>
			<path fill="#9CDCF4" d="M832.1,135.2c0.5-0.5,1.1-0.5,1.7-0.3c0.2,0.9,0.9,1.5,1.4,2.1c3.4,4.1,6.8,8.1,10.3,12.2
				c0,5.4,0,10.7,0,16.1c-6,0-12.1,0-18.1,0c0.8-3.3,1-6.7,1.7-10c0.6-2.8,0.9-5.7,1.4-8.6c0.5-3.4,1.1-6.7,1.6-10.1
				c0-0.2,0-0.4,0-0.6C832.1,135.7,832.1,135.5,832.1,135.2z"/>
			<path fill="#DAF0F7" d="M216.7-13.9c0.2,4.1,0.3,8.2,0.6,12.3c0.2,2,0.2,4.1,0.3,6.1c0.1,1.4,0.2,2.7,0.3,4.1
				c0,0.2,0,0.4-0.1,0.6c-0.2,0.1-0.3,0.2-0.5,0.3c-0.6-1.2-1.8-1.7-2.8-2.5c-2.8-2.4-5.8-4.7-8.7-7c-2.8-2.2-5.5-4.4-8.3-6.6
				c-2.7-2.2-5.4-4.3-8-6.5c-0.3-0.2-0.4-0.5-0.7-0.8C198.2-13.9,207.4-13.9,216.7-13.9z"/>
			<path fill="#FEFFFF" d="M845.5,149.2c-3.4-4.1-6.9-8.1-10.3-12.2c-0.5-0.7-1.3-1.2-1.4-2.1c1.4-4.8,2.7-9.6,4.1-14.4
				c1.8-6.3,3.5-12.6,5.3-18.9c0.7-2.6,1.5-5.3,2.3-7.9C845.5,112.2,845.5,130.7,845.5,149.2z"/>
			<path fill="#BAE4EF" d="M332.5-0.4c0-0.1-0.1-0.2-0.1-0.4c0.5-2.4,1.1-4.8,1.5-7.2c0.4-2,1.2-3.9,1.1-6c3.3,0,6.6,0,9.9,0
				c0,0.5-0.1,1,0.1,1.4c0.6,1.4,0.8,2.9,1.3,4.3c1.3,4.2,2.5,8.4,3.8,12.6c1.3,4.3,2.6,8.6,3.9,12.9c-0.1,0.1-0.2,0.2-0.3,0.3
				c-2.3-1.8-4.4-3.8-6.6-5.7c-2.1-1.8-4.1-3.5-6.2-5.3c-2.5-2.2-5-4.3-7.5-6.5C333.2-0.1,333-0.5,332.5-0.4z"/>
			<path fill="#7AC9F0" d="M385.9,147.5c0.2,0.2,0.4,0.4,0.6,0.5c-0.6,0-1,0.5-1.3,0.9c-1.4,1.8-3.1,3.4-4.7,5.2
				c-2.4,2.7-4.9,5.5-7.5,8.1c-0.9,0.9-1.9,1.8-2.4,3.1c-6.9,0-13.8,0-20.8,0c0-0.1-0.1-0.3-0.1-0.4c-1.6-0.7-3-1.8-4.5-2.6
				c-0.7-0.3-1.2-0.7-1.5-1.4c0.8-0.7,1.9-0.8,2.8-1.1c3-1,6.1-1.8,9.1-2.8c3.8-1.3,7.7-2.3,11.5-3.6c2.5-0.9,5-1.4,7.5-2.3
				c3.3-1.1,6.6-2.1,10-3.1c0.4-0.1,0.6-0.3,0.7-0.7C385.6,147.4,385.8,147.5,385.9,147.5z"/>
			<path fill="#7AC9F0" d="M526.8,143.6c0.4,0.4,0.7,0.8,1.1,1.2c4.4,4.5,8.8,9,13.2,13.5c2.2,2.3,4.5,4.5,6.6,7
				c-9.5,0-18.9,0-28.4,0c-0.1-1.6,0.7-2.9,1.2-4.3c0.9-3.2,2-6.5,3-9.7c0.7-2.1,1.3-4.1,2-6.2c0.1-0.4,0.3-0.7,0.2-1.1
				c0.2-0.2,0.4-0.4,0.6-0.6C526.5,143.4,526.6,143.5,526.8,143.6z"/>
			<path fill="#DAF0F7" d="M653.7,21.4c0-1.6,0.3-3.1,0.5-4.6c0.5-3.4,1-6.7,1.5-10.1c0.3-2,0.6-3.9,1-5.9c0.2-0.8,0.2-1.5,0.3-2.3
				c0.3-2.5,0.9-5,1.1-7.5c0.2-1.7,0.5-3.3,0.8-5c5.7,0,11.5,0,17.2,0c0.1,0.5-0.2,0.9-0.5,1.3c-3.4,5.3-6.8,10.5-10.1,15.8
				c-2.4,3.8-4.9,7.5-7.2,11.3c-1.2,1.9-2.5,3.8-3.6,5.8C654.3,20.5,654.1,21.1,653.7,21.4z"/>
			<path fill="#BFE6F0" d="M296.5,149.8c1.1,0.1,2.2,0.6,3.2,1.1c2.5,1.1,5.2,2,7.7,3c3.8,1.6,7.7,2.9,11.5,4.5
				c5.5,2.2,11,4.4,16.5,6.4c0.3,0.1,0.6,0.2,0.8,0.5c-12,0-24,0-36,0c-0.3-1.1-0.5-2.3-0.8-3.4c-0.6-1.9-1-3.9-1.5-5.9
				C297.6,153.9,297.1,151.9,296.5,149.8z"/>
			<path fill="#C9E9F4" d="M98.6-9.6C98.4-9.2,98-9.1,97.6-9c-5,1.3-9.9,3.1-14.9,4.5C78.9-3.4,75-2,71.1-0.8
				c-2.4,0.8-4.8,1.5-7.2,2.2c-0.2,0.1-0.4,0.1-0.6-0.1c0-0.1,0-0.3,0-0.4c1.4-2.2,2.8-4.4,4.3-6.5c1.6-2.4,3.1-4.8,4.8-7.1
				c0.3-0.4,0.7-0.7,0.7-1.3c7.8,0,15.6,0,23.4,0c-0.1,0.4,0.1,0.7,0.3,1.1C97.4-11.8,98.3-10.9,98.6-9.6z"/>
			<path fill="#DAF0F7" d="M258.8,165.3c-0.4-2.2-0.8-4.4-1.3-6.6c-0.7-3.4-1.2-6.9-2-10.2c-0.7-2.9-1.1-5.9-1.8-8.8
				c-0.3-1.1-0.8-2.4-0.4-3.6c1.1,0.4,2.2,0.8,3.3,1.1c3.2,1.1,6.4,2.2,9.6,3.3c0,0.1,0,0.1,0,0.2c0,2.9-0.1,5.8,0.1,8.7
				c0.4,5.3,0.1,10.6,0.2,15.8C263.8,165.3,261.3,165.3,258.8,165.3z"/>
			<path fill="#FEFFFF" d="M135.4,130.8c-0.9,1.3-2.3,2.2-3.5,3.2c-3.4,3-7,5.9-10.5,8.8c-3.2,2.7-6.4,5.3-9.6,8
				c-3.1,2.5-6.1,5.1-9.2,7.7c-2.2,1.9-4.5,3.7-6.7,5.6c-0.4,0.4-1,0.7-1.2,1.3c-4.8,0-9.6,0-14.3,0c0-0.3,0.2-0.5,0.5-0.7
				c3.9-2.4,7.7-4.8,11.6-7.3c4.6-2.9,9.1-5.7,13.7-8.6c4.7-2.9,9.4-5.9,14.1-8.8c4.3-2.7,8.5-5.4,12.8-8.1
				C133.8,131.4,134.4,130.8,135.4,130.8z"/>
			<path fill="#A1DDF3" d="M335.1-13.9c0.1,2.1-0.7,4-1.1,6c-0.4,2.4-1,4.8-1.5,7.2c-1,0.2-1.6-0.5-2.4-0.8
				c-4.9-1.8-9.8-3.7-14.7-5.6c-3-1.2-6-2.3-9.1-3.5c-2.2-0.8-4.4-1.6-6.6-2.5c-0.5-0.2-1-0.4-1.4-0.8
				C310.5-13.9,322.8-13.9,335.1-13.9z"/>
			<path fill="#FEFFFF" d="M845.5,15.3c-1.5-0.4-2.6-1.4-3.9-2.2c-2.6-1.5-5.2-3.1-7.7-4.6c-1-0.6-1.1-0.7-0.8-1.9
				c0.6-1.9,1.3-3.9,2-5.8c1-2.9,2.1-5.9,3.1-8.8c0.7-2,1.4-4,2.1-6c1.8,0,3.5,0,5.3,0C845.5-4.2,845.5,5.6,845.5,15.3z"/>
			<path fill="#6ABCE9" d="M657.3,165.3c0-0.3,0.2-0.5,0.5-0.7c3-2.4,5.9-4.8,8.9-7.2c3.2-2.6,6.5-5.2,9.7-7.9
				c0.6-0.5,1.2-1.2,1.9-1.5c0.3,0.2,0.4,0.6,0.6,0.9c0,0.3,0,0.6,0.3,0.9c0,0,0,0,0,0c0.5,3.3,1.7,6.4,2.4,9.6
				c0.4,2,1.2,3.9,1.4,5.9C674.4,165.3,665.8,165.3,657.3,165.3z"/>
			<path fill="#FEFFFF" d="M88,124.1c-0.3,1.1-0.6,2.2-1,3.3c-1.4,4-2.7,8.1-4,12.1c-1.2,3.6-2.5,7.1-3.7,10.7c-1,3-1.9,6.1-3,9.1
				c-0.7,2-1.2,4-2,5.9c-3.3,0-6.6,0-9.9,0c0.5-1.7,1.7-3.2,2.5-4.7c2.4-4.3,4.9-8.6,7.3-12.9c2.3-4,4.7-8,7-12.1
				c2-3.5,4-7.1,6.1-10.6C87.5,124.6,87.6,124.2,88,124.1z"/>
			<path fill="#FEFFFF" d="M127.8-13.9c0.5,2.9,1.1,5.8,1.6,8.7c0.3,2.2,0.7,4.3,1.1,6.4c0.4,2.2,0.7,4.4,1.2,6.6c0.4,2,0.8,4,1.1,6
				c0.4,2.4,0.8,4.8,1.2,7.2c0.2,0.9,0.3,1.7,0.5,2.6c0.1,0.4,0.1,0.8-0.2,1.1c-1.5-3.8-3.2-7.5-4.9-11.2c-1.8-4.1-3.8-8.2-5.5-12.3
				c-0.9-2.2-2-4.3-2.8-6.5c-1.1-2.6-2.3-5.2-3.5-7.8c-0.1-0.2-0.1-0.5-0.2-0.7C120.8-13.9,124.3-13.9,127.8-13.9z"/>
			<path fill="#BAE4EF" d="M401.2-13.9c-0.4,2.9-0.5,5.9-0.7,8.8c-0.1,1.9-0.1,3.8-0.3,5.6c-0.2,1.4-0.2,2.9-0.5,4.3
				c-0.2,1.2-0.1,2.5-0.1,3.8c-0.1,0.1-0.2,0.2-0.3,0.3c-0.2,0-0.4,0-0.6,0c-0.1-1-0.8-1.8-1.3-2.5c-3.1-4.4-6-8.9-9-13.4
				c-1.4-2.1-2.8-4.2-4.3-6.2c-0.1-0.2-0.2-0.4-0.3-0.7C389.7-13.9,395.4-13.9,401.2-13.9z"/>
			<path fill="#6ABCE9" d="M354.1,17.4c-1.3-4.3-2.6-8.6-3.9-12.9c-1.3-4.2-2.4-8.4-3.8-12.6c-0.5-1.4-0.7-2.9-1.3-4.3
				c-0.2-0.5-0.2-0.9-0.1-1.4c4.1,0,8.2,0,12.3,0c0,1.5-0.3,3-0.5,4.5c-0.2,1.4-0.3,2.8-0.4,4.2c-0.1,1.6-0.3,3.3-0.6,4.9
				c0,0.2,0,0.5,0,0.7c0,2.9-0.4,5.8-0.8,8.6c-0.2,1.3-0.1,2.7-0.3,4c-0.2,1.4-0.3,2.9-0.4,4.3C354.3,17.3,354.2,17.4,354.1,17.4z"
				/>
			<path fill="#6ABCE9" d="M654.8,20.3c1-2,2.4-3.9,3.6-5.8c2.4-3.8,4.8-7.5,7.2-11.3c3.4-5.3,6.8-10.5,10.1-15.8
				c0.3-0.4,0.6-0.8,0.5-1.3c3.5,0,7,0,10.5,0c0,0.4-0.2,0.6-0.4,0.9c-2.5,2.7-5,5.4-7.5,8.1c-3.7,4-7.4,8-11.2,12
				c-2.5,2.7-5,5.3-7.5,7.9c-1.4,1.5-2.9,3-4.3,4.6C655.6,19.9,655.3,20.3,654.8,20.3z"/>
			<path fill="#6ABCE9" d="M370.7,165.3c0.5-1.2,1.5-2.1,2.4-3.1c2.6-2.6,5-5.4,7.5-8.1c1.5-1.7,3.2-3.3,4.7-5.2
				c0.3-0.4,0.7-0.9,1.3-0.9c-0.1,0.8,0.3,1.4,0.6,2.1c1.1,3.3,2.1,6.5,3.1,9.8c0.5,1.7,1.4,3.4,1.3,5.3
				C384.6,165.3,377.7,165.3,370.7,165.3z"/>
			<path fill="#DAF0F7" d="M800.5-13.9c0.2,1.2,0.9,2.1,1.5,3.1c2,3.8,4.1,7.6,6.1,11.4c0.4,0.8,1,1.5,1.1,2.4
				c-0.2,0.2-0.4,0.2-0.6,0.2c-4.6-1.8-9.2-3.6-13.8-5.5c-1.8-0.7-3.6-1.5-5.4-2.1c0-0.1,0-0.1,0-0.2c-0.1-0.6,0.1-1.1,0.5-1.6
				c1.4-1.8,2.5-3.8,4-5.6c0.5-0.6,1.2-1.3,1.3-2.2C797-13.9,798.8-13.9,800.5-13.9z"/>
			<path fill="#FEFFFF" d="M492.1,154.8c0,0.5,0.1,1,0.2,1.6c0.6,2,1.1,4.1,1.6,6.1c0.2,0.9,0.7,1.8,0.5,2.8c-3.6,0-7.2,0-10.8,0
				c0-0.2,0-0.4-0.1-0.6c-0.9-1.7-1.7-3.5-2.6-5.2c-0.5-1-0.9-2.2-1.7-3c0-0.3,0-0.6,0-0.9c0.3-0.2,0.6-0.3,0.9-0.4
				c1.6-0.4,3.3-0.6,5-0.7c1.7-0.1,3.3-0.6,5-0.7C491.1,153.8,491.7,154,492.1,154.8z"/>
			<path fill="#C9E9F4" d="M296.5,149.8c0.6,2.1,1.1,4.2,1.5,6.3c0.5,2,0.9,3.9,1.5,5.9c0.3,1.1,0.5,2.2,0.8,3.4c-4,0-8,0-12,0
				c0.2-1.3,1-2.4,1.5-3.6c1.5-3,3-5.9,4.6-8.9c0.5-1,1-2,1.5-3c0.1,0,0.2,0,0.3,0C296.3,149.8,296.4,149.8,296.5,149.8z"/>
			<path fill="#AFE1EF" d="M479.2,155.6c0,0.3,0,0.6,0,0.9c-0.4,0.4-0.3,0.9-0.3,1.4c0,0.5,0,1.1-0.1,1.6c-0.3,1.9-0.4,3.9-0.5,5.8
				c-6.1,0-12.3,0-18.4,0c0.3-0.4,0.7-0.5,1.1-0.7c4-1.9,7.9-4,11.8-5.9c2-1,4.1-2,6.1-3.1C479,155.6,479.1,155.6,479.2,155.6z"/>
			<path fill="#BAE4EF" d="M795.2-13.9c-0.2,0.9-0.8,1.6-1.3,2.2c-1.5,1.7-2.5,3.8-4,5.6c-0.4,0.5-0.6,1-0.5,1.6
				c-0.2-0.1-0.4-0.2-0.6-0.3c-1.2-1.7-3-2.8-4.5-4.2c-0.5-0.5-1.1-0.8-1.5-1.3c-1.1-1.3-2.7-2-3.6-3.5
				C784.5-13.9,789.9-13.9,795.2-13.9z"/>
			<path fill="#C9E9F4" d="M505.5-13.9c-2.3,1.3-4.8,2.2-7.1,3.2c-3.1,1.4-6.2,2.7-9.5,4.1c-0.5-2.5-1.1-4.8-1.2-7.3
				C493.6-13.9,499.6-13.9,505.5-13.9z"/>
			<path fill="#BFE6F0" d="M683,165.3c-0.3-2-1-3.9-1.4-5.9c-0.7-3.2-1.9-6.3-2.4-9.6c1.1,0.9,1.3,2.2,1.9,3.4
				c1.6,3.3,3.1,6.7,4.6,10c0.3,0.7,0.6,1.4,0.8,2.2C685.3,165.3,684.1,165.3,683,165.3z"/>
			<path fill="#BFE6F0" d="M343.9,160.9c0.3,0.7,0.8,1.1,1.5,1.4c1.5,0.8,2.9,1.8,4.5,2.6c0.1,0,0.1,0.3,0.1,0.4
				c-4.1,0-8.2,0-12.3,0c0-0.2,0-0.4,0-0.6C339.7,163.4,341.7,162,343.9,160.9z"/>
			<path fill="#6ABCE9" d="M98.6-9.6c-0.3-1.2-1.2-2.2-1.7-3.2c-0.2-0.3-0.4-0.6-0.3-1.1c3.8,0,7.6,0,11.4,0
				c-0.7,0.9-1.9,1.1-2.9,1.6c-1.3,0.8-2.8,1.3-4.2,1.9c-0.7,0.3-1.3,0.8-1.8,1.4C98.9-9.2,98.8-9.4,98.6-9.6z"/>
			<path fill="#DAF0F7" d="M25.5,83.4c0.2,0,0.4,0,0.6,0c0,3.4,0,6.8,0,10.2c-0.3,1-0.3,2.1-0.3,3.2c0,5.6,0,11.2,0,16.8
				c0,0.6,0.1,1.2,0.1,1.7c-0.1,0.2-0.1,0.5,0,0.7c-0.2,2-0.1,4-0.1,6c0,5.8,0,11.7,0,17.5c0,8.6,0,17.1,0,25.7
				c-0.1-0.1-0.3,0.1-0.3-0.1c0-0.4,0-0.8,0-1.2C25.5,137.1,25.5,110.3,25.5,83.4z"/>
			<path fill="#DAF0F7" d="M478.3,165.3c0.1-1.9,0.2-3.9,0.5-5.8c0.1-0.5,0-1.1,0.1-1.6c0-0.5-0.1-1,0.3-1.4c0.8,0.9,1.2,2,1.7,3
				c0.9,1.7,1.8,3.4,2.6,5.2c0.1,0.2,0,0.4,0.1,0.6C481.8,165.3,480.1,165.3,478.3,165.3z"/>
			<path fill="#6ABCE9" d="M39.5-13.9c-1,0.9-2.2,1.1-3.4,1.6c-3,1.4-6.1,2.6-9.2,4c-0.5,0.2-1,0.4-1.2-0.4c0.9-0.7,1.8-1.3,2.6-2
				c1.3-1.1,2.8-1.9,3.9-3.2C34.6-13.9,37.1-13.9,39.5-13.9z"/>
			<path fill="#DAF0F7" d="M621.6-10.4c-1.9-0.7-3.9-1-5.9-1.4c-3.2-0.6-6.5-1.1-9.7-1.9c-0.1,0-0.1-0.1-0.2-0.2c4.2,0,8.4,0,12.6,0
				c0.4,0.4,0.9,0.7,1.4,1c1.2,0.8,2.5,1.3,3.6,2.2c-0.1,0.2-0.4,0.3-0.6,0.3C622.4-10.4,622-10.4,621.6-10.4z"/>
			<path fill="#FEFFFF" d="M620.7,157.5c1.4,1.4,2.4,3,3.5,4.5c0.8,1,1.9,2,2.3,3.3c-1.9,0-3.7,0-5.6,0
				C621,162.7,620.6,160.1,620.7,157.5z"/>
			<path fill="#FEFFFF" d="M32.2-13.9c-1.1,1.3-2.6,2.1-3.9,3.2c-0.8,0.7-1.7,1.4-2.6,2c0,0-0.1,0-0.1,0l-0.1,0c0-1.7,0-3.5,0-5.3
				C27.7-13.9,30-13.9,32.2-13.9z"/>
			<path fill="#83D3F6" d="M623.4-10.7c-1.1-0.9-2.4-1.5-3.6-2.2c-0.5-0.3-1-0.6-1.4-1c2.8,0,5.7,0,8.5,0c0,0.1,0,0.3-0.1,0.4
				C625.8-12.4,624.8-11.3,623.4-10.7z"/>
			<path fill="#DAF0F7" d="M723.3,165.3c0.2-0.7,0.9-1.1,1.4-1.6c0.5-0.5,1.1-1.1,1.6-1.6c0.3-0.1,0.5-0.2,0.5-0.6
				c0.6,0,0.6,0.4,0.6,0.8c0,1,0,2-0.1,3C726.1,165.3,724.7,165.3,723.3,165.3z"/>
			<path fill="#8DD7F8" d="M727.4,165.3c0-1,0-2,0.1-3c0.3,0,0.5,0,0.8,0c0.9,1.1,2.3,1.6,3.4,2.3c0.3,0.2,0.6,0.2,0.6,0.7
				C730.7,165.3,729.1,165.3,727.4,165.3z"/>
			<path fill="#6ABCE9" d="M343.9,160.9c-2.1,1.1-4.1,2.5-6.1,3.8c-1.1-0.5-1.3-1.7-1.7-2.6c-0.8-2-1.9-3.8-2.8-5.8
				c-0.9-2.3-2.1-4.5-3.2-6.6c-1.6-3.2-3.1-6.5-4.7-9.7c-1.9-3.7-3.5-7.6-5.3-11.3c-1.2-2.4-2.3-4.8-3.5-7.2c-0.3-0.5-0.5-1-0.6-1.6
				c0.4-1.3,1-2.5,1.5-3.8c1.6-4.1,3.4-8.1,5.1-12.2c0.3-0.6,0.5-1.3,0.7-1.9c-0.3-0.2-0.5-0.1-0.7,0c-2.7,1.1-5.4,2.3-8,3.4
				c-3.6,1.5-7.1,3.1-10.7,4.6c-2.9,1.2-5.7,2.4-8.6,3.7c-0.5,0.2-1.1,0.3-1.2,1c-0.3,0-0.5,0.2-0.8,0.4c-2,1.9-4.1,3.7-6.1,5.6
				c-1.2,1.1-2.4,2.2-3.6,3.2c-2.1,1.9-4.3,3.8-6.4,5.7c-1.7,1.5-3.3,3.1-5.1,4.6c-1.9,1.6-3.7,3.3-5.5,5c-0.4,0.4-0.7,0.8-0.6,1.4
				c-3.2-1.1-6.4-2.2-9.6-3.3c-1.1-0.4-2.2-0.8-3.3-1.1c-0.1-0.1-0.2-0.2-0.3-0.3c0.1-1.4,0.9-2.4,1.5-3.6c1.2-2.2,2.5-4.3,3.7-6.4
				c1.7-3,3.4-6,5.1-9c1.9-3.3,3.7-6.7,5.6-10c1.8-3.1,3.6-6.2,5.4-9.3c0.5,0,0.8,0.3,1.1,0.6c2.4,2.2,4.9,4.3,7.2,6.5
				c2.7,2.7,5.7,5,8.4,7.7c0.4,0.4,0.7,0.9,1.4,1c0,0.1,0.1,0.1,0.1,0.1c0,0-0.1,0-0.1-0.1c0-0.6-0.5-0.9-0.9-1.3
				c-0.8-0.9-1.7-1.9-2.5-2.8c-2-2.3-3.9-4.7-5.9-7c-1.5-1.7-2.9-3.5-4.4-5.2c-1.2-1.4-2.2-2.9-3.6-4.1c-0.5-0.6-0.2-1.3-0.4-2
				c-0.9-3.9-1.8-7.8-2.4-11.8c-0.5-3.3-1.3-6.5-1.9-9.8c-0.6-3.3-1.3-6.6-2-9.9c-0.8-3.9-1.5-7.8-2.3-11.7
				c-0.2-1.1-0.5-2.2-0.7-3.2c-0.6-2.5-1-5.1-1.6-7.7c-0.8-3.6-1.6-7.3-2.2-10.9c-0.4-1.9-1.2-3.8-1-5.8l0,0c0.3,0,0.6,0,0.9,0
				c2.3,1.4,4.5,2.8,6.8,4.1c5.1,2.9,10.2,5.8,15.3,8.8c3.7,2.1,7.4,4.3,11.1,6.4c4.4,2.5,8.7,5.1,13.1,7.6
				c4.2,2.4,8.5,4.9,12.7,7.4c3.2,1.8,6.3,3.6,9.4,5.5c2.4,1.4,4.9,2.6,7.2,4.2c0.4,0.3,1,0.4,1.1,1.1
				c-20.6,8.8-41.2,17.6-61.7,26.6c1.1,0.2,2.1,0.6,3.1,0.8c4.3,0.8,8.6,1.8,13,2.6c1.8,0.3,3.6,0.9,5.4,1.1c1.6,0.2,3.2,0.6,4.8,1
				c1.9,0.5,3.9,0.8,5.8,1.2c2.7,0.6,5.5,1.2,8.3,1.7c2.3,0.4,4.6,1.1,7,1.3c0.7,0.1,1.2-0.3,1.8-0.5c2.3-1,4.6-2,6.9-3.1
				c1.6-0.8,3.3-1.3,4.8-2.4c0.6-0.1,1-0.5,1.5-0.8c2.2-1.6,4.3-3.2,6.4-4.8c3.1-2.3,6.2-4.7,9.3-7c0.2,0.1,0.4,0.2,0.6-0.1
				c0.2-0.5,0.7-0.7,1.2-1c2.1-1.1,4.2-2.2,6.3-3.3c2.7-1.4,5.4-2.9,8-4.4c0.8-0.4,1.8-0.6,2.1-1.6c0.7,0,1.4-0.1,2-0.6
				c0.1,0,0.2,0,0.3,0c0,0.1,0,0.2,0.1,0.3c2.1,4,4.6,7.7,6.9,11.6c2,3.5,4.2,6.9,6.3,10.4c0.5,0.8,0.7,1.7,1.6,2.2
				c0,0.2,0,0.4,0,0.6c0,0.2,0,0.4,0,0.6c-3.1-0.1-6.2-0.1-9.3-0.2c-11-0.2-22.1,0.1-33.1-0.3c-2.7-0.1-5.4-0.1-8-0.1
				c-0.4,0-0.9-0.1-1.3,0.1c-0.1,0.3,0.2,0.5,0.3,0.6c2.4,2.6,4.8,5.2,7.3,7.8c2.2,2.4,4.5,4.7,6.7,7c3.9,4.1,7.8,8.3,11.7,12.4
				c4.2,4.4,8.3,8.8,12.5,13.3c3,3.2,6.1,6.2,9,9.6c-0.1,0.4-0.3,0.6-0.7,0.7c-3.4,0.9-6.7,2-10,3.1c-2.5,0.8-5,1.4-7.5,2.3
				c-3.8,1.3-7.7,2.3-11.5,3.6c-3,1-6.1,1.8-9.1,2.8C345.7,160.1,344.6,160.2,343.9,160.9z"/>
			<path fill="#AFE1EF" d="M202.1,91c0.9,1.4,2.4,2.2,3.6,3.4c1.2,1.1,2.5,2.2,3.7,3.2c2.7,2.4,5.3,4.8,8.1,7c1,0.8,1.8,1.7,2.8,2.5
				c2.1,1.7,4,3.7,6.1,5.4c2.7,2.2,5.1,4.6,7.8,6.8c1.9,1.6,3.7,3.3,5.6,4.9c1.9,1.6,3.7,3.3,5.6,4.9c1.5,1.4,3.1,2.7,4.7,4.1
				c0.3,0.2,0.6,0.4,0.5,0.9c-1,0-2-0.2-3-0.2c-2-0.1-4-0.6-6-0.7c-1.9-0.1-3.8-0.5-5.8-0.7c-2.2-0.3-4.4-0.4-6.6-0.8
				c-1.1-0.2-2.3-0.2-3.5-0.3c-2.1-0.3-4.3-0.7-6.5-0.8c-2.3-0.1-4.5-0.8-6.8-0.7c-1.4,0.1-2.8-0.4-4.2-0.6
				c-1.7-0.2-3.4-0.2-5.1-0.5c-3.4-0.5-6.8-0.8-10.2-1.2c-2.9-0.4-5.8-0.8-8.8-1.1c-3.2-0.3-6.4-0.9-9.7-1.1c-2.9-0.3-5.9-0.7-8.8-1
				c-3-0.3-6-0.8-9.1-1.1c-3.2-0.3-6.3-1-9.5-0.9c-0.3,0-0.5-0.1-0.6-0.3c0.9-0.8,1.9-1.3,2.9-1.9c2.3-1.2,4.5-2.5,6.7-3.8
				c2-1.1,3.9-2.3,5.9-3.4c4.3-2.4,8.5-5,12.9-7.3c4-2.2,7.9-4.5,11.8-6.8c4.2-2.4,8.3-4.9,12.6-7.2c0.5-0.3,1.2-0.5,1.2-1.3
				C201.2,90.4,201.5,91.1,202.1,91z"/>
			<path fill="#92D9F7" d="M200.6,90.4c0,0.8-0.7,1-1.2,1.3c-4.3,2.3-8.4,4.7-12.6,7.2c-3.9,2.3-7.8,4.6-11.8,6.8
				c-4.4,2.3-8.6,4.9-12.9,7.3c-2,1.1-3.9,2.3-5.9,3.4c-2.2,1.3-4.5,2.5-6.7,3.8c-1,0.5-2,1.1-2.9,1.9c-0.4-0.1-0.6-0.3-0.6-0.7
				c-0.1-0.7,0.1-1.4,0.3-2.2c0.5-2.8,0.8-5.7,1.1-8.5c0.4-3.5,1.1-7,1.3-10.5c0.1-1.7,0.6-3.3,0.7-5c0.1-1.9,0.6-3.7,0.7-5.6
				c0.1-1.6,0.3-3.3,0.6-4.9c0.4-1.8,0.5-3.7,0.8-5.6c0.3-1.8,0.2-3.7,0.7-5.5c0.3-1.1,0.3-2.2,0.4-3.3c0.1-1.9,0.6-3.7,0.7-5.6
				c0.1-1.7,0.5-3.3,0.8-5c0.1-0.4,0.1-0.8,0.6-0.8c1.1,0.7,2.2,1.3,3.2,2c2.6,1.8,5.3,3.7,7.9,5.5c4,2.7,7.9,5.5,11.9,8.2
				c1.8,1.2,3.7,2.4,5.4,3.7c2.4,1.8,4.9,3.4,7.3,5.1c3.2,2.2,6.4,4.4,9.6,6.5C200.3,89.9,200.4,90.2,200.6,90.4z"/>
			<path fill="#6ABCE9" d="M200.6,90.4c-0.2-0.2-0.3-0.5-0.6-0.7c-3.2-2.2-6.5-4.3-9.6-6.5c-2.4-1.7-4.9-3.3-7.3-5.1
				c-1.7-1.3-3.6-2.4-5.4-3.7c-4-2.7-7.9-5.4-11.9-8.2c-2.6-1.8-5.2-3.7-7.9-5.5c-1-0.7-2.1-1.3-3.2-2c-0.6-1-0.6-1.1,0.3-1.6
				c1.3-0.8,2.6-1.7,4-2.4c4.2-2.2,8.2-4.7,12.5-6.9c2.4-1.3,4.7-2.7,7-4c1.8-1,3.6-2,5.5-3c0.5-0.3,1-0.6,1.4-1c0.1,0,0.2,0,0.3,0
				c-0.1,0.7,0.4,0.9,0.8,1.3c2.7,2.1,5.3,4.2,8,6.3c3,2.4,6.1,4.8,9.1,7.2c3.6,2.8,7.2,5.6,10.7,8.5c1.2,1,2.6,1.7,3.5,3
				c0.1,0.8-0.6,1.3-1,1.9c-1.8,2.8-3.7,5.6-5.6,8.3c-2.8,4.1-5.6,8.2-8.3,12.2c-0.3,0.4-0.7,0.7-0.7,1.3c-0.4,0.3-0.3,0.8-0.3,1.2
				C201.5,91.1,201.2,90.4,200.6,90.4z"/>
			<path fill="#6ABCE9" d="M134.2,25c0.1,0.2,0.2,0.4,0.3,0.6c-0.9,1.6-1.8,3.2-2.7,4.8c-2.4,4.4-4.8,8.7-7.2,13.1
				c-2.5,4.5-5,9.1-7.5,13.6c-2.7,4.8-5.3,9.7-8,14.5c-2.5,4.6-5.1,9.3-7.7,13.9c-0.2,0.3-0.4,0.7-0.3,1.1c0,0,0,0,0,0
				c-0.3-0.1-0.5,0-0.5,0.3c-0.1,0-0.2,0-0.3,0c-0.1,0-0.2,0-0.3,0c-0.3-1-0.6-2-1-3.1c-0.9-2.8-1.9-5.6-2.8-8.4
				c-0.9-2.7-1.7-5.3-2.6-8c-1-3-2-6.1-3-9.1c-0.6-2-1.2-4-1.9-5.9c-1.2-3.3-2.3-6.7-3.3-10.1c-0.5-1.5-1.1-3-1.6-4.5
				c0-0.2,0-0.4,0-0.5c0.1-0.2,0.3-0.5,0.4-0.7c1.8-0.2,3.6-0.7,5.4-1.2c1.3-0.3,2.6-0.6,4-0.9c2.5-0.7,5-1.2,7.5-1.8
				c2.7-0.6,5.4-1.2,8.1-1.9c5.1-1.2,10.3-2.4,15.4-3.6c3-0.7,6-1.5,9-2.2C133.7,25,134,25,134.2,25z"/>
			<path fill="#FEFFFF" d="M101.2,86.6c-0.1-0.4,0.1-0.8,0.3-1.1c2.5-4.6,5.1-9.3,7.7-13.9c2.7-4.8,5.3-9.7,8-14.5
				c2.5-4.5,5-9.1,7.5-13.6c2.4-4.4,4.8-8.7,7.2-13.1c0.9-1.6,1.8-3.2,2.7-4.8c0.1,0,0.2,0,0.2,0c3,5,6,10,9,15
				c3.2,5.3,6.3,10.6,9.5,15.9c0.1,0.2,0.2,0.4,0.3,0.6c0.3,0.5,0.2,0.8-0.3,1c-3.1,1.7-6.1,3.3-9.1,5c-2.6,1.5-5.3,2.8-7.9,4.4
				c-2.1,1.2-4.3,2.4-6.5,3.6c-2.5,1.4-5,2.9-7.6,4.2c-2.7,1.4-5.2,3-7.9,4.3c-2.2,1.1-4.3,2.4-6.4,3.6c-2,1.1-4,2.1-6,3.2
				C101.7,86.6,101.4,86.7,101.2,86.6z"/>
			<path fill="#A1DDF3" d="M145.9,123.8c-0.1,0-0.2,0-0.3,0c-0.5-0.5-1.2-0.2-1.8-0.3c-4.7,0-9.4-0.2-14,0
				c-8.8,0.5-17.7-0.1-26.5,0.3c-5,0.2-10,0.1-15,0.2c0-0.5,0-1,0-1.4c0.4-0.2,0.5-0.5,0.6-0.9c0.4-1.3,0.8-2.5,1.2-3.7
				c1-2.9,2-5.8,3-8.6c1.2-3.5,2.3-7,3.5-10.5c1.2-3.5,2.4-6.9,3.5-10.4l0,0c0.1,0,0.2,0,0.3,0c1.7,0.8,3.1,2.1,4.5,3.2
				c1.7,1.3,3.4,2.6,5.1,3.9c3.2,2.5,6.3,4.9,9.5,7.4c1.7,1.3,3.4,2.6,5.1,3.9c2.2,1.7,4.4,3.6,6.6,5.2c1.9,1.4,3.7,2.8,5.5,4.3
				c2.9,2.3,6,4.4,8.8,6.9C145.7,123.3,145.9,123.4,145.9,123.8z"/>
			<path fill="#83D3F6" d="M100,86.9c0.1,0,0.2,0,0.3,0c0,0.4,0,0.8,0,1.2c-0.1,0.1-0.2,0.2-0.3,0.3c0,0,0,0,0,0
				c-1.2-0.1-2.2,0.6-3.3,1c-3.5,1.3-7,2.6-10.5,3.9c-2.4,0.9-4.7,1.8-7.1,2.6c-4.3,1.5-8.6,3-12.8,4.7c-2.6,1-5.2,1.9-7.8,2.9
				c-2.6,0.9-5.2,1.8-7.8,2.8c-2.7,1.1-5.5,2-8.3,3.1c-3.4,1.3-6.8,2.5-10.2,3.8c-2.1,0.8-4.2,1.5-6.3,2.2c0-0.6-0.1-1.2-0.1-1.7
				c0-5.6,0-11.2,0-16.8c0-1.1,0-2.1,0.3-3.2c2.2,0.1,4.4-0.3,6.5-0.4c2-0.1,3.9-0.4,5.9-0.6c1.4-0.1,2.7-0.1,4.1-0.3
				c3.3-0.6,6.8-0.5,10.1-1.1c2.4-0.4,4.9-0.3,7.4-0.6c1-0.1,2-0.4,3-0.4c1.7,0,3.4-0.2,5.1-0.4c3.2-0.4,6.4-0.7,9.7-0.8
				c0.2,0,0.4,0,0.6-0.1c1.7-0.4,3.3-0.5,5-0.5c1.5-0.1,3.1-0.2,4.6-0.4c1.6-0.2,3.3-0.5,4.9-0.5c1.4,0,2.7-0.1,4-0.4
				C98.1,87.2,99.1,87.5,100,86.9z"/>
			<path fill="#83D3F6" d="M275.1,92.8c1.4,1.2,2.4,2.8,3.6,4.1c1.5,1.7,2.9,3.5,4.4,5.2c2,2.3,3.9,4.7,5.9,7c0.8,1,1.7,1.9,2.5,2.8
				c0.3,0.4,0.8,0.7,0.9,1.3l0,0c-0.7,0-1-0.6-1.4-1c-2.6-2.7-5.7-5-8.4-7.7c-2.3-2.3-4.8-4.4-7.2-6.5c-0.3-0.3-0.7-0.5-1.1-0.6
				c0-0.1,0-0.2,0-0.3C275,95.8,274.8,94.2,275.1,92.8z"/>
			<path fill="#FEFFFF" d="M100.7,86.9c0.1-0.3,0.3-0.4,0.5-0.3C101.1,86.9,100.9,86.9,100.7,86.9z"/>
			<path fill="#4BBBEB" d="M100,88.4c0.1-0.1,0.2-0.2,0.3-0.3c0,0.1,0,0.1,0,0.2C100.2,88.4,100.1,88.4,100,88.4z"/>
			<path fill="#A1DDF3" d="M338,65c-0.1-0.7-0.6-0.8-1.1-1.1c-2.3-1.6-4.8-2.7-7.2-4.2c-3.1-1.9-6.3-3.7-9.4-5.5
				c-4.2-2.4-8.5-4.9-12.7-7.4c-4.4-2.5-8.7-5.1-13.1-7.6c-3.7-2.1-7.4-4.3-11.1-6.4c-5.1-2.9-10.2-5.8-15.3-8.8
				c-2.3-1.3-4.6-2.7-6.8-4.1c0.1-0.3,0.3-0.5,0.6-0.6c2.5-0.5,4.9-1.3,7.3-2c2.7-0.7,5.3-1.5,7.9-2.2c2.9-0.8,5.8-1.7,8.7-2.4
				c3.2-0.9,6.4-1.8,9.7-2.6c2.7-0.7,5.3-1.5,8-2.2c3.4-1,6.8-1.8,10.2-2.8c2.6-0.8,5.3-1.5,8-2.2c2.1-0.6,4.2-1.3,6.4-1.7
				c1-0.2,2-0.6,3.1-0.9c0.4-0.1,0.8-0.1,1.2-0.1c0.1,0,0.2,0,0.2,0c0,0.8,0,1.7,0.1,2.5c0.6,3.3,0.6,6.8,1.1,10.1
				c0.3,1.7,0.3,3.4,0.5,5.1c0.2,1.9,0.6,3.7,0.6,5.6c0,2.4,0.6,4.7,0.7,7.1c0.1,2.6,0.5,5.1,0.8,7.7c0.2,1.4,0.1,2.9,0.4,4.3
				c0.6,3.1,0.5,6.3,1.1,9.4c0.2,1.4,0.2,2.9,0.4,4.4c0.3,2.6,0.8,5.2,0.8,7.8C339.1,64.8,338.4,64.7,338,65z"/>
			<path fill="#6ABCE9" d="M259.1,20c-1.7,2-3.4,3.9-5.2,5.9c-2.5,2.8-5,5.7-7.5,8.5c-2.4,2.7-4.9,5.4-7.3,8.1
				c-2.3,2.7-4.7,5.3-7,7.9c-2.4,2.7-4.8,5.4-7.2,8.1c-1.7,1.9-3.6,3.8-5.2,5.9c-0.3,0.4-0.6,0.8-1.2,0.8c0.3-3.1,0.5-6.2,0.8-9.3
				c0.4-3.8,0.5-7.5,0.9-11.3c0.3-3.5,0.3-7,0.7-10.5c0.2-1.7,0.2-3.3,0.3-4.9c0.3-3.3,0.6-6.6,0.8-9.9c0.6,0.4,1.3,0.3,2,0.3
				c11.2,0,22.3,0,33.5,0C258,19.7,258.6,19.5,259.1,20z"/>
			<path fill="#C9E9F4" d="M221.9,19.4c-0.3,3.3-0.6,6.6-0.8,9.9c-0.1,1.6-0.1,3.3-0.3,4.9c-0.4,3.5-0.4,7-0.7,10.5
				c-0.3,3.8-0.5,7.6-0.9,11.3c-0.3,3.1-0.4,6.2-0.8,9.3c-0.1,0.4,0,0.8-0.6,0.9c-1-1.2-2.3-2-3.5-3c-3.6-2.9-7.2-5.7-10.7-8.5
				c-3-2.4-6.1-4.8-9.1-7.2c-2.7-2.1-5.3-4.2-8-6.3c-0.4-0.3-0.9-0.6-0.8-1.3c0.5-0.2,0.7-0.9,1.3-0.9c1-0.1,1.6-0.9,2.4-1.3
				c3.3-1.9,6.6-3.8,9.9-5.8c3.7-2.2,7.3-4.4,11-6.5c3.8-2.1,7.5-4.5,11.3-6.6C221.8,18.9,221.9,19.2,221.9,19.4z"/>
			<path fill="#FEFFFF" d="M339.2,64.1c0-2.6-0.6-5.2-0.8-7.8c-0.1-1.4-0.1-2.9-0.4-4.4c-0.5-3.1-0.5-6.3-1.1-9.4
				c-0.3-1.4-0.2-2.9-0.4-4.3c-0.3-2.5-0.7-5.1-0.8-7.7c-0.1-2.4-0.7-4.7-0.7-7.1c0-1.9-0.4-3.8-0.6-5.6c-0.2-1.7-0.2-3.4-0.5-5.1
				c-0.6-3.3-0.5-6.8-1.1-10.1c-0.1-0.8-0.1-1.6-0.1-2.5c-0.1-0.1-0.1-0.2-0.2-0.4c0-0.1,0-0.1,0-0.2c0.5-0.1,0.7,0.3,1,0.5
				c2.5,2.2,5,4.4,7.5,6.5c2,1.8,4.1,3.6,6.2,5.3c2.2,1.9,4.3,3.9,6.6,5.7c0.1,0.3,0.2,0.6,0.3,0.8c-0.7,2.2-1.4,4.3-2.1,6.5
				c-1.2,3.7-2.4,7.4-3.5,11.1c-1.1,3.4-2.2,6.7-3.2,10.1c-0.6,2-1.3,4.1-1.9,6.1c-0.7,2.2-1.5,4.4-2.1,6.7
				c-0.5,1.7-1.3,3.4-1.5,5.2l0,0c-0.1,0-0.2,0-0.3,0C339.4,64.1,339.3,64.1,339.2,64.1z"/>
			<path fill="#83D3F6" d="M221.9,19.4c0-0.2-0.1-0.5-0.3-0.6c0-0.2-0.1-0.4-0.1-0.6c-1.2-3-2.5-6-3.7-9.1c0-0.2,0-0.4,0.1-0.6
				c0.3,0,0.6,0,0.9,0c1.6,0.3,3.1,0.7,4.7,1c1.9,0.4,3.9,0.9,5.8,1.3c3,0.7,6,1.4,9,2.1c1.9,0.4,3.8,0.9,5.6,1.3
				c3.1,0.7,6.2,1.4,9.3,2.1c1.8,0.4,3.5,1,5.4,1.2c0.6,0.1,1,0.6,1.6,0.5c0.1,0.9-0.6,1.3-1.1,1.8c-0.5-0.5-1.1-0.3-1.7-0.3
				c-11.2,0-22.3,0-33.5,0C223.2,19.7,222.6,19.8,221.9,19.4z"/>
			<path fill="#BAE4EF" d="M332.5-0.2c0.1,0.1,0.1,0.2,0.2,0.4c-0.1,0-0.2,0-0.2,0C332.4,0,332.5-0.1,332.5-0.2z"/>
			<path fill="#6ABCE9" d="M260.5,20c0,0-0.1-0.1-0.1-0.1C260.4,19.8,260.5,19.9,260.5,20C260.5,20,260.5,20,260.5,20z"/>
			<path fill="#C9E9F4" d="M512.2,58.9c5.1,0,10.2,0,15.2,0c0.8,0,1.5,0,2.3-0.3c0.2-0.1,0.4-0.2,0.6-0.3c0.1,0.2,0.4,0.3,0.6,0.4
				c0.1,0.4,0.4,0.7,0.6,1c0.6,0.7,1.4,1.2,2.1,1.8c3.5,3.5,7.2,6.8,10.8,10.2c3.4,3.2,6.8,6.5,10.3,9.7c3.6,3.4,7.3,6.8,10.9,10.3
				c3,2.9,6.2,5.7,9,8.7c0.4,0.4,0.9,0.7,1.3,1.1c1.6,1.5,3.2,3.1,4.8,4.7c0.1,0.1,0.1,0.4,0.2,0.5c-2.6,0.2-5.1,0.4-7.7,0.6
				c-4.3,0.3-8.5,0.5-12.8,0.9c-4.2,0.4-8.3,0.5-12.5,0.9c-3.2,0.3-6.5,0.3-9.7,0.7c-1.9,0.2-3.8,0.2-5.7,0.3
				c-3,0.3-6.1,0.5-9.1,0.7c-4.5,0.3-8.9,0.7-13.4,0.9c-0.6,0-1,0.2-1.1,0.9c-0.1,0-0.2,0-0.3,0c-0.2-0.3-0.4-0.7-0.6-1
				c-2.3-2.7-4.6-5.4-6.9-8.1c-3.9-4.6-7.8-9.3-11.8-13.9c-3.4-4-6.7-8-10.1-12c-3.2-3.7-6.4-7.5-9.5-11.2c-0.2-0.3-0.4-0.5-0.8-0.5
				c-0.1-0.4-0.3-0.7-0.7-0.7c0.1-0.4-0.1-0.7-0.3-0.9c-0.3-0.5-0.2-0.9,0.1-1.3c1.1,0,2.2,0.1,3.2-0.1c2.4-0.5,4.9-0.6,7.4-0.7
				c2.7-0.2,5.3-0.7,7.9-0.7c3-0.1,6-0.7,9.1-0.8c1.2-0.1,2.5-0.2,3.8-0.3c1.6-0.1,3.2-0.4,4.8-0.5c1.8-0.1,3.6-0.3,5.4-0.4
				C510.4,59.3,511.4,59.4,512.2,58.9z"/>
			<path fill="#83D3F6" d="M399.4,8.9c0.1-0.1,0.2-0.2,0.3-0.3c2.6-0.1,5.2,0.2,7.8,0.6c0.1,0,0.2,0,0.3,0c2.8-0.2,5.5,0.3,8.3,0.3
				c1.7,0,3.5,0.3,5.2,0.5c0.5,0,1.1,0.1,1.6,0.1c3.4,0,6.8,0.2,10.2,0.6c1.3,0.1,2.5,0.3,3.8,0.3c3,0,5.9,0.3,8.9,0.4
				c1.8,0.1,3.7,0.1,5.5,0.4c1,0.2,2.1,0.1,3.2,0.1c0.1,0,0.3,0,0.4,0c1.3,0.2,1.6,0.5,0.9,1.7c-1,1.6-1.8,3.3-2.8,4.9
				c-1.1,1.8-2,3.8-3.1,5.6c-2.6,4.5-5.2,9.1-7.8,13.7c-0.8,1.5-1.6,3.1-2.6,4.5c-0.2,0.3-0.4,0.7-0.3,1.1c-0.4,0.2-0.6,0.5-0.6,0.9
				c-0.2-0.1-0.5-0.1-0.6-0.3c-2.9-2.6-5.8-5.2-8.7-7.7c-1.4-1.2-2.7-2.5-4.1-3.7c-2.3-2.1-4.7-4.2-7.1-6.3
				c-1.2-1.1-2.4-2.3-3.7-3.3c-1.1-0.8-2-1.9-3-2.7c-2.3-2-4.5-3.9-6.8-5.9c-1.4-1.2-2.7-2.5-4.1-3.8c-0.3-0.3-0.7-0.5-1.2-0.5
				c0-0.2,0-0.4,0-0.6C399.4,9.3,399.4,9.1,399.4,8.9z"/>
			<path fill="#8DD7F8" d="M530.4,58.3c-0.2,0.1-0.4,0.2-0.6,0.3c0-0.5-0.1-0.9-0.6-1.3c-2.1-1.6-3.9-3.5-5.8-5.3
				c-2.7-2.5-5.4-5-8.1-7.6c-2.6-2.4-5.2-4.8-7.8-7.2c-0.8-0.8-1.8-1.5-2.6-2.3c-0.5-0.5-1.2-0.9-1.3-1.7c0.8-0.9,2-0.9,3-1.3
				c1.7-0.6,3.4-1.1,5.1-1.7c2.6-0.9,5.2-1.7,7.9-2.6c2.8-0.9,5.5-1.9,8.3-2.7c3.6-1.1,7.1-2.5,10.7-3.7c3-0.9,6-1.9,9-2.9
				c0.8-0.2,1.5-0.8,2.4-0.6c0.1,0,0.2,0,0.3,0c-0.1,0.2-0.2,0.4-0.3,0.6c-1.1,2.2-2.2,4.4-3.3,6.6c-1.5,3-3,6.1-4.5,9.1
				c-1.5,3-3.1,6-4.6,9c-1.9,3.9-3.8,7.7-5.8,11.6c-0.3,0.6-0.9,1.1-0.9,1.9C530.4,57,530.4,57.6,530.4,58.3z"/>
			<path fill="#6ABCE9" d="M438.5,44.3c0-0.4,0.2-0.7,0.6-0.9c1.8,0.7,3.5,1.6,5.3,2.3c3.4,1.4,6.8,3,10.2,4.5
				c2.8,1.2,5.6,2.4,8.4,3.6c2,0.8,3.9,1.7,5.9,2.5c1,0.4,0.9,1.1,0.9,1.9c-0.6,1.5-1.3,3.1-1.7,4.7c-0.3,0.4-0.4,0.9-0.1,1.3
				c0.2,0.3,0.3,0.6,0.3,0.9c-0.4,0.4-0.7,0.8-1.1,1.2c-2.4,2.9-4.8,5.9-7.1,8.8c-0.4,0.5-0.8,0.7-1.4,0.5c-0.7-0.9-1.4-1.8-2.1-2.6
				c-0.7-0.8-1.2-1.8-1.8-2.7c-2-2.9-3.8-6-5.7-9c-2.5-4-5-8.1-7.5-12.1c-1-1.5-1.7-3.3-3-4.6C438.6,44.7,438.5,44.5,438.5,44.3z"/>
			<path fill="#8DD7F8" d="M468.1,63c0.5-1.6,1.1-3.1,1.7-4.7c0.8,0.3,1.6,0.3,2.4,0.3c12,0,24.1,0,36.1,0c1.1,0,2.1,0.2,3.2,0
				c0.3,0,0.5,0.1,0.6,0.3c-0.8,0.5-1.8,0.4-2.7,0.5c-1.8,0.1-3.6,0.3-5.4,0.4c-1.6,0.1-3.2,0.3-4.8,0.5c-1.3,0.1-2.5,0.3-3.8,0.3
				c-3,0.1-6.1,0.7-9.1,0.8c-2.7,0.1-5.3,0.6-7.9,0.7c-2.4,0.1-4.9,0.2-7.4,0.7C470.3,63.1,469.2,62.9,468.1,63z"/>
			<path fill="#B2E1EE" d="M788.8-4.9c0.2,0.1,0.4,0.2,0.6,0.3c0,0.1,0,0.2,0,0.2c0,1.2,0.5,2.4,0.7,3.6c0.8,3.9,1.5,7.8,2.4,11.7
				c0.8,3.8,1.7,7.6,2.3,11.4c0.7,3.8,1.6,7.5,2.2,11.3c0.4,2.7,1.1,5.3,1.7,8c0.3,1.4,0.6,2.8,0.6,4.2c-0.6,0.8-0.8,1.8-1.8,2.3
				c-0.1-0.4,0-1-0.7-0.7c-0.3,0.1-0.6,0.2-0.8,0.3c-4.6,1.6-9.2,3.3-13.9,4.9c-3.2,1.1-6.3,2.2-9.5,3.3c-3.5,1.2-7,2.5-10.5,3.8
				c-2.8,1-5.7,2-8.5,3c-4.1,1.5-8.1,3-12.2,4.4c-3,1-6.1,2.1-9.1,3.2c-2.7,1-5.3,1.9-8.2,1.6c-0.3,0-0.6,0-0.9,0
				c0.1-0.5,0.2-0.9,0.6-1.2c0.1,0,0.2,0,0.3,0c0.1-0.1,0.2-0.2,0.3-0.3c0,0,0,0,0,0c0.4,0,0.6-0.2,0.6-0.6c0,0,0,0,0,0
				c1-0.4,1.6-1.4,2.3-2.2c1.5-1.7,3-3.5,4.4-5.2c1.7-2,3.3-3.9,4.9-5.9c1-1.2,2.1-2.3,3.1-3.5c1.9-2.4,4-4.8,6-7.1
				c2-2.3,3.9-4.5,5.9-6.8c1.4-1.6,2.7-3.2,4-4.8c1.5-1.7,3-3.4,4.5-5.2c2.4-2.8,4.7-5.8,7.2-8.6c1.4-1.6,2.7-3.2,4.1-4.8
				c2.1-2.6,4.4-5,6.5-7.6c1.9-2.3,3.9-4.5,5.9-6.8C785.5-0.8,787.1-2.9,788.8-4.9z"/>
			<path fill="#6ABCE9" d="M509,112.6c0-0.7,0.5-0.9,1.1-0.9c4.5-0.2,8.9-0.7,13.4-0.9c3-0.2,6.1-0.4,9.1-0.7
				c1.9-0.2,3.8-0.1,5.7-0.3c3.2-0.4,6.5-0.4,9.7-0.7c4.2-0.4,8.3-0.5,12.5-0.9c4.3-0.4,8.5-0.6,12.8-0.9c2.6-0.2,5.1-0.4,7.7-0.6
				c0.4,0.1,0.9,0,0.8,0.6c-1.9,0.9-3.6,2.2-5.3,3.3c-4.5,2.8-8.9,5.6-13.3,8.4c-5.5,3.5-11.1,7-16.7,10.5c-5,3.2-10,6.3-15,9.5
				c-1.1,0.7-2.3,1.2-3.2,2.2l0,0c-0.3,0-0.5,0.1-0.7,0.3c-0.9,0.3-1.4,0.8-1.4,1.8c-0.2,0.2-0.4,0.4-0.6,0.6
				c-3.4,1.1-6.8,2.3-10.2,3.4c-4.4,1.5-8.8,3-13.2,4.5c-2.8,0.9-5.6,1.9-8.4,2.8c-0.6,0.2-1.2,0.2-1.7,0.2c-0.4-0.8-1-1-1.9-1
				c-1.7,0.1-3.3,0.6-5,0.7c-1.7,0.1-3.4,0.3-5,0.7c-0.3,0.1-0.6,0.2-0.9,0.4c-0.1,0-0.2,0-0.3,0c-0.1-1.1-0.3-2.1-0.7-3.1
				c-0.5-1.6-0.8-3.2-1.2-4.8c-1-4-2.1-8-3.1-12.1c-0.8-3.5-1.8-6.9-2.7-10.4c-0.4-1.7-0.8-3.4-1.4-5c-0.4-1.4-0.9-2.8-1.1-4.2
				c-0.2-1.2-0.8-1.7-1.8-1.9c-0.4-0.4-0.9-0.5-1.5-0.6c-0.8-0.8-1.9-1.1-2.9-1.6c-3.4-1.7-6.8-3.2-10.2-4.9
				c-3.5-1.7-7.1-3.4-10.6-5.1c-4.3-2.1-8.7-4-13-6.1c-4.8-2.3-9.6-4.7-14.4-7c-3.7-1.8-7.5-3.5-11.2-5.2c-0.4-0.2-0.7-0.4-0.9-0.9
				c1.4-0.4,2.7-0.6,4.1-0.9c5.3-1.2,10.6-2.3,15.9-3.5c3.6-0.8,7.3-1.7,10.9-2.5c1.2-0.3,2.5-0.5,3.7-0.8c2-0.4,4-0.9,5.9-1.4
				c0.9,1,1.5,2.1,2.2,3.2c3.8,6.1,7.6,12.1,11.4,18.2c3.2,5.1,6.3,10.1,9.5,15.2c0.7,1.1,1.3,2.4,2.3,3.3c0,0,0,0.1,0,0.1
				c1.3-0.1,1.7-0.5,1.7-1.7c0-2.4-0.1-4.8-0.2-7.1c-0.1-9.7,0-19.3-0.3-29c-0.1-3.3,0.2-6.7-0.3-10c0.4-0.1,0.6,0.2,0.8,0.5
				c3.2,3.7,6.4,7.5,9.5,11.2c3.4,4,6.8,8,10.1,12c3.9,4.6,7.8,9.3,11.8,13.9c2.3,2.7,4.6,5.4,6.9,8.1c0.2,0.3,0.4,0.7,0.6,1
				c-1.6,3.9-3.1,7.8-4.7,11.6c-1.5,3.6-3,7.3-4.5,10.9c-2.2,5.2-4.2,10.5-6.5,15.7c-0.4,0.8-0.6,1.7-0.9,2.6
				c0.3-0.1,0.4-0.1,0.4-0.1c4.5-2.4,9-4.7,13.5-7.1c4.6-2.4,9.1-4.8,13.7-7.2c1-0.5,1.1-0.6,0.6-1.7c-1.6-3.4-3.1-6.8-4.6-10.2
				C513.5,122.3,511.3,117.5,509,112.6z"/>
			<path fill="#9CDCF4" d="M465.5,113.5c0.5,0.1,1,0.2,1.5,0.6c-2.5,1.2-5,2.2-7.6,3.3c-1.9,0.8-3.8,1.5-5.6,2.3
				c-1.4,0.6-2.9,1.2-4.3,1.8c-2.7,1.1-5.4,2.2-8.1,3.3c-2.7,1.1-5.4,2.2-8.1,3.3c-1.8,0.7-3.5,1.6-5.3,2.3
				c-2.2,0.9-4.5,1.8-6.7,2.7c-2.5,1-4.9,2.1-7.4,3.1c-1.5,0.5-2.9,1.1-4.3,1.7c-1.9,0.8-3.8,1.5-5.6,2.3c-2.9,1.3-5.9,2.4-8.9,3.6
				c-2.5,1-4.9,2.1-7.4,3.1c-0.4,0.2-0.8,0.1-1.1,0.2c0-1.2-0.2-2.4,0.1-3.5c0.6-3.2,0.5-6.5,0.8-9.7c0.2-2.6,0.5-5.3,0.6-8
				c0.1-3.1,0.4-6.3,0.6-9.4c0.1-2.4,0.4-4.8,0.4-7.3c0-1.5,0.1-3,0.3-4.5c0.2-2.6,0.5-5.1,0.5-7.7c0-0.2,0-0.4,0-0.6
				c0.9,0.2,1.5,0.8,2.4,0.9c2.2,0.3,4.4,0.9,6.5,1.4c1.6,0.4,3.1,0.9,4.7,1.1c3.1,0.5,6.1,1.3,9.1,2c4.2,1,8.5,1.9,12.7,3
				c3.2,0.8,6.4,1.4,9.6,2.1c5.2,1.2,10.5,2.3,15.7,3.5c4.5,1,9,2,13.5,3.1C464.5,113.8,465,114,465.5,113.5z"/>
			<path fill="#DAF0F7" d="M389.7,97.1c0,2.6-0.3,5.1-0.5,7.7c-0.1,1.5-0.3,3-0.3,4.5c0,2.4-0.3,4.8-0.4,7.3
				c-0.2,3.1-0.5,6.3-0.6,9.4c-0.1,2.7-0.3,5.3-0.6,8c-0.3,3.2-0.2,6.5-0.8,9.7c-0.2,1.1,0,2.3-0.1,3.5c-0.1,0.2-0.4,0.3-0.6,0.4
				c-0.2,0-0.4-0.1-0.5-0.1c-2.8-3.3-6-6.4-9-9.6c-4.1-4.4-8.3-8.8-12.5-13.3c-3.9-4.1-7.8-8.3-11.7-12.4c-2.2-2.4-4.5-4.7-6.7-7
				c-2.4-2.6-4.9-5.2-7.3-7.8c-0.2-0.2-0.4-0.3-0.3-0.6c0.4-0.2,0.8-0.1,1.3-0.1c2.7,0,5.4-0.1,8,0.1c11,0.4,22.1,0.1,33.1,0.3
				C383.5,97,386.6,97.1,389.7,97.1z"/>
			<path fill="#6ABCE9" d="M723.3,71.7c0.3,0,0.6,0,0.9,0c2.9,0.4,5.5-0.6,8.2-1.6c3-1.1,6-2.2,9.1-3.2c4.1-1.4,8.1-2.9,12.2-4.4
				c2.8-1,5.7-2,8.5-3c3.5-1.2,7-2.5,10.5-3.8c3.2-1.1,6.3-2.2,9.5-3.3c4.6-1.6,9.2-3.3,13.9-4.9c0.3-0.1,0.6-0.2,0.8-0.3
				c0.7-0.3,0.7,0.2,0.7,0.7c0,0,0,0,0,0c-0.3,0-0.5,0-0.6,0.3c-1.6,2.1-3.3,4.2-4.9,6.3c-3.5,4.5-7.1,8.9-10.6,13.4
				c-1.1,1.4-2.2,2.8-3.3,4.2c-0.5,0.7-0.4,1.3,0.4,1.5c1,0.2,1.9,0.7,2.9,0.8c0.1,1.2-0.6,2-1.4,2.7c-3.5,2.9-6.9,5.8-10.4,8.7
				c-2.7,2.2-5.3,4.6-8.2,6.7c-0.3,0.2-0.4,0.4-0.3,0.7c0.1,0.3,0.2,0.5,0.4,0.8c2.4,4.9,4.7,9.9,7,14.8c0.3,0.7,0.9,1.4,0.6,2.3
				c-1,0.3-1.9,0.8-2.8,1.2c-3.6,1.6-7.3,3.2-10.9,4.8c-3.3,1.5-6.5,3-9.8,4.4c-4.1,1.8-8.2,3.7-12.4,5.5c-1.8,0.8-3.5,1.7-5.3,2.3
				c0-0.1,0-0.2,0.1-0.3c1.9-2.2,3.8-4.3,5.6-6.5c2.2-2.5,4.4-5,6.6-7.6c3.6-4.1,7.1-8.2,10.6-12.4c2.6-3.1,5.3-6.1,7.9-9.1
				c1.3-1.5,1.2-1.6-0.6-2.5c-2.9-1.4-5.7-2.9-8.5-4.4c-2.8-1.5-5.6-3.1-8.5-4.5c-5.3-2.7-10.6-5.5-15.9-8.3
				c-0.6-0.3-1.1-0.7-1.9-0.8c-0.2,0.8-0.1,1.5,0,2.2c0.1,1.2,0.3,2.4,0.4,3.6c0.2,2.6,0.2,5.2,0.4,7.9c0,0.3,0,0.6,0.1,0.9
				c0.2,2.1,0.5,4.2,0.5,6.4c0,1.7,0.2,3.4,0.3,5.1c0.2,2.7,0.5,5.4,0.5,8.1c0,0.4,0,0.8,0.1,1.2c0.3,3.1,0.6,6.2,0.7,9.3
				c0.1,3.6,0.6,7.3,0.7,10.9c0,0.3,0.1,0.6,0.2,0.8c0,1.3,0,1.3,1.3,1.5c0.5,0.1,1,0.2,1.6,0.2c2.7,0.1,5.3,0,8,0.3
				c3.5,0.3,7.1,0,10.6,0.3c3.6,0.3,7.2,0,10.8,0.3c3,0.3,6,0.1,9,0.3c3.7,0.2,7.4,0.1,11.1,0.3c1.7,0.1,3.4,0,5.1,0
				c0.6,0,1.1-0.1,0.9-0.9c0-0.2,0-0.4,0-0.6c-0.6-3.6-0.5-7.3-0.8-11c-0.1-1.9-0.3-3.8-0.4-5.7c-0.2-3.1-0.3-6.3-0.7-9.4
				c-0.3-2.6-0.3-5.2-0.4-7.8c0-0.2,0-0.5,0-0.7c-0.3-2.2-0.5-4.3-0.6-6.5c-0.1-2-0.1-4.1-0.3-6.1c-0.3-2.9-0.6-5.9-0.6-8.9
				c1.3,0.7,2,2,2.9,3.1c2.1,2.6,4.2,5.2,6.4,7.7c2.3,2.7,4.4,5.4,6.6,8.1c1.2,1.5,2.5,3,3.7,4.5c1,1.2,1.9,2.3,2.9,3.5
				c1.4,1.7,2.9,3.4,4.3,5.1c2.8,3.4,5.5,6.8,8.3,10.1c1.3,1.5,2.5,3.2,3.8,4.7c1.4,1.6,2.8,3.3,4.1,4.9c1.4,1.7,2.7,3.5,4.2,5.2
				c0.9,1.1,1.6,2.4,2.9,3.2c0,0.3,0,0.6,0,0.9c-3.5-0.4-7.1-0.4-10.6-0.8c-1.9-0.2-3.8-0.4-5.7-0.4c-1.6,0-3.1-0.2-4.6-0.5
				c-0.2,0-0.4-0.1-0.6-0.1c-2.4,0.1-4.7-0.4-7.1-0.3c-1.2,0-2.4-0.2-3.6-0.4c-2.4-0.3-4.8-0.3-7.3-0.5c-1.8-0.1-3.6-0.3-5.4-0.5
				c-0.4-0.1-0.7-0.1-1.1,0.2c-2,1.3-4.2,2.3-6.4,3.4c-2.5,1.2-4.9,2.5-7.4,3.7c-3.2,1.6-6.4,3.3-9.6,4.9c-3.2,1.6-6.4,3.3-9.6,4.9
				c-6.2,3.2-12.3,6.4-18.5,9.5c-2.1,1.1-4.1,2.3-6.4,3.1c-0.3,0-0.5,0-0.8,0c-0.1-0.4-0.1-0.8-0.6-0.8c0-0.5-0.3-0.9-0.6-1.3
				c-1.5-2.5-3.1-5.1-4.6-7.6c-2.5-4-5-8.1-7.5-12.1c-1.4-2.3-2.8-4.5-4.2-6.8c-1.9-3-3.7-6.1-5.5-9.1c-0.3-0.5-0.6-1-1.3-1.1
				c-1.7-0.9-3.4-1.7-5-2.6c-3.7-1.9-7.4-3.7-11.2-5.6c-0.5-0.3-1.1-0.5-1.7-0.5c0.2-0.7-0.4-0.8-0.7-1.1c-3-2.7-6-5.4-9-8.1
				c-3.3-2.9-6.6-5.9-9.9-8.8c-2.5-2.3-5.1-4.5-7.6-6.8c-1.4-1.3-2.9-2.4-4.1-3.9c0.4-0.1,0.7,0,1,0.2c2.4,1.2,4.8,2.5,7.2,3.7
				c2.4,1.2,4.7,2.5,7.1,3.7c2.9,1.5,5.9,3,8.8,4.6c2.2,1.2,4.5,2.3,6.7,3.5c0.5,0.2,0.7,0.1,0.7-0.5c-0.3-2.6-0.6-5.1-0.9-7.7
				c-0.3-2.3-0.5-4.6-0.8-6.9c-0.2-1.4-0.1-2.9-0.5-4.3c0-0.6-0.1-1.1,0.6-1.5c2-0.5,4.1-1,6.1-1.4c1.7-0.4,3.5-0.7,5.2-1.1
				c2.5-0.6,5.1-1.2,7.6-1.8c2.1-0.5,4.2-0.8,6.2-1.4c2.7-0.7,5.4-1.3,8-1.9c1.6-0.4,3.2-0.6,4.8-1.2c0.4,0.1,0.8,0,1.2-0.2
				C723.1,71.7,723.2,71.7,723.3,71.7z"/>
			<path fill="#9CDCF4" d="M721.9,72c-1.6,0.5-3.2,0.8-4.8,1.2c-2.7,0.6-5.4,1.2-8,1.9c-2.1,0.5-4.2,0.9-6.2,1.4
				c-2.6,0.6-5.1,1.2-7.6,1.8c-1.7,0.4-3.5,0.7-5.2,1.1c-2,0.5-4.1,0.9-6.1,1.4c-1.6-0.9-3.4-1.3-5.1-2c-3.9-1.6-7.9-3.1-11.9-4.6
				c-3-1.1-6-2.3-8.9-3.4c-0.5-0.2-1-0.3-1.5,0.1c-0.9-0.1-1.7,0.8-2.6,0.5c-0.8-0.6-1.7-0.7-2.6-0.8c-3.1-0.5-6.2-1.3-9.2-2
				c-1.6-0.4-3.3-0.8-5-1.1c-4.8-0.9-9.5-2.1-14.2-3c-3.2-0.6-6.4-1.5-9.6-2.2c-2.3-0.5-4.6-1-6.9-1.5c-4.9-1.1-9.7-2.1-14.6-3.2
				c-1.5-0.3-3-0.8-4.6-0.9c-0.3,0-0.5,0-0.8,0c0-0.1,0-0.2-0.1-0.3c0.5-0.4-0.1-0.8,0-1.2c1.7-0.4,3.2-1.4,4.8-2.1
				c6.3-3.1,12.5-6.2,18.8-9.3c2.4-1.2,4.8-2.3,7.1-3.6c3.1-1.6,6.3-3,9.4-4.6c3-1.5,5.9-3.2,8.9-4.5c4.7-2.1,9.2-4.7,14-6.8
				c0.8-0.4,1.9-0.5,2.5-1.5c0.6-0.3,1.1-0.4,1.7,0c0.4,0.2,0.5,0.7,0.9,0.9c2,1.4,4,2.7,6,4.2c3.3,2.4,6.7,4.9,10,7.2
				c1.2,0.9,2.4,1.8,3.7,2.6c1.7,1.1,3.2,2.3,4.9,3.5c2.6,1.9,5.3,3.8,7.9,5.7c1.9,1.3,3.7,2.7,5.6,4c2.9,2,5.7,4,8.5,6.1
				c3.6,2.5,7.1,5.1,10.7,7.6c1.6,1.1,3.1,2.3,4.7,3.4c1.7,1.2,3.2,2.5,5,3.5C721.7,71.4,721.8,71.6,721.9,72z"/>
			<path fill="#7AC9F0" d="M550,18.2c0.1-0.2,0.2-0.4,0.3-0.6c1.6-1.2,3.5-1.6,5.3-2.3c3.4-1.4,6.8-2.7,10.2-4
				c3.9-1.5,7.9-3,11.8-4.5c4.3-1.7,8.6-3.3,12.9-5c4.3-1.7,8.7-3.3,13-5c5.3-2,10.5-4.1,15.7-6.2c0.8-0.3,1.7-0.3,2.4-1.1
				c0.4,0,0.8,0,1.2,0.1c0,0.4-0.2,0.6-0.5,0.8c-3,2.1-5.9,4.4-8.8,6.7c-4.2,3.2-8.3,6.5-12.5,9.7c-2.9,2.2-5.8,4.4-8.7,6.6
				c-2.8,2.1-5.6,4.3-8.4,6.5c-2.4,1.8-4.8,3.6-7.1,5.5c-1.3,1.1-2.8,2.1-4.1,3.2c-0.2,0.2-0.4,0.4-0.4,0.8c-0.4,0-0.8,0-1.2,0
				c-0.2-0.3-0.5-0.4-0.8-0.6c-3-1.6-6-3.1-9-4.7c-3.1-1.6-6.2-3.3-9.2-4.9C551.3,18.9,550.7,18.3,550,18.2z"/>
			<path fill="#75C5EE" d="M571,29.3c0.4,0,0.8,0,1.2,0c0,0.7,0.1,1.4,0.2,2.2c0.5,2.5,0.8,4.9,1.2,7.4c0.1,0.5,0.2,1.1,0.3,1.6
				c0.6,2.4,0.7,4.9,1.3,7.3c0.3,1.1,0.3,2.2,0.5,3.3c0,0.4,0.1,0.8,0.6,0.9c0,0.6-0.1,1.1-0.1,1.7c-0.6,0.3-1.3,0.3-2,0.3
				c-1.5,0.1-3,0.1-4.5,0.4c-2.9,0.5-5.9,0.6-8.8,1c-2,0.3-4,0.4-5.9,0.7c-0.8,0.1-1.5,0.2-2.3,0.2c-1.4,0.1-2.7,0.1-4,0.4
				c-2.9,0.6-5.8,0.6-8.6,1.1c-3,0.4-6.1,0.7-9.1,1c-0.2-0.1-0.5-0.2-0.6-0.4c0-0.7,0-1.3,0.6-1.8c0.2,0.2,0.4,0.3,0.6,0.1
				c2-1.3,4-2.5,6-3.9c3.3-2.5,6.8-4.8,10.3-7.1c3.3-2.2,6.6-4.6,10-6.8c3.7-2.5,7.4-5.1,11.2-7.6C569.7,30.6,570.6,30.2,571,29.3z"
				/>
			<path fill="#7AC9F0" d="M651.7,22.6c-0.5,0.9-1.6,1.1-2.5,1.5c-4.7,2.2-9.2,4.7-14,6.8c-3,1.4-5.9,3-8.9,4.5
				c-3.1,1.6-6.3,3-9.4,4.6c-2.4,1.2-4.8,2.4-7.1,3.6c-6.3,3.1-12.5,6.3-18.8,9.3c-1.6,0.8-3,1.7-4.8,2.1c-0.2-4.1-0.8-8.2-1.3-12.2
				c-0.1-1.1-0.3-2.1-0.3-3.2c0-0.4,0.3-0.6,0.7-0.7c2.2-0.6,4.3-1.1,6.5-1.7c2.2-0.6,4.5-1.1,6.7-1.7c2-0.5,4-1,6-1.5
				c1.8-0.4,3.5-1,5.3-1.3c1.9-0.4,3.6-1,5.5-1.4c2.5-0.5,4.9-1.3,7.3-1.9c1.7-0.4,3.4-0.8,5.1-1.2c1.9-0.5,3.7-1,5.6-1.4
				c2.3-0.5,4.6-1.3,6.9-1.7c2.4-0.5,4.7-1.2,7.1-1.7C648.9,23.1,650.2,22.4,651.7,22.6z"/>
			<path fill="#DAF0F7" d="M584.7,39.6c0,1.1,0.1,2.1,0.3,3.2c0.5,4.1,1.1,8.1,1.3,12.2c-0.2,0.4,0.4,0.8,0,1.2
				c-1.3-0.5-2.6-0.6-3.9-1.1c-2-0.7-4-1.3-6-1.5l-0.1,0c0-0.6,0.1-1.1,0.1-1.7c0.7-0.4,1-1,1.4-1.6c2.1-3.3,4.2-6.5,6.3-9.8
				C584.1,40.1,584.4,39.8,584.7,39.6z"/>
			<path fill="#BAE4EF" d="M100,86.9c-0.9,0.6-2,0.2-3,0.5c-1.3,0.3-2.7,0.3-4,0.4c-1.7,0-3.3,0.3-4.9,0.5c-1.5,0.2-3.1,0.3-4.6,0.4
				c-1.7,0.1-3.4,0.2-5,0.5c-0.2,0-0.4,0.1-0.6,0.1c-3.2,0.1-6.5,0.4-9.7,0.8c-1.7,0.2-3.4,0.4-5.1,0.4c-1,0-2,0.2-3,0.4
				c-2.5,0.3-5,0.2-7.4,0.6c-3.4,0.5-6.8,0.4-10.1,1.1c-1.3,0.3-2.7,0.2-4.1,0.3c-2,0.1-4,0.5-5.9,0.6c-2.2,0.1-4.3,0.5-6.5,0.4
				c0-3.4,0-6.8,0-10.2c4.1-3.3,8.1-6.6,12.2-9.8c4.2-3.3,8.3-6.7,12.5-10c3.4-2.7,6.7-5.4,10.1-8.1c3.2-2.6,6.5-5.3,9.7-7.9
				c2.5-2,5.2-3.9,7.6-6.1c1.4-1.2,3.1-2.1,4.3-3.7c0.4,0,0.8,0,1.3,0c0.5,1.5,1.1,3,1.6,4.5c1.1,3.4,2.2,6.7,3.3,10.1
				c0.7,2,1.3,4,1.9,5.9c1,3,2,6.1,3,9.1c0.9,2.7,1.7,5.3,2.6,8c0.9,2.8,1.9,5.6,2.8,8.4C99.4,84.9,99.7,85.9,100,86.9z"/>
			<path fill="#C9E9F4" d="M782,74.9c0,3,0.2,5.9,0.6,8.9c0.2,2,0.2,4.1,0.3,6.1c0.1,2.2,0.3,4.4,0.6,6.5c0,0.2,0,0.5,0,0.7
				c0.1,2.6,0.1,5.3,0.4,7.8c0.4,3.1,0.5,6.3,0.7,9.4c0.1,1.9,0.3,3.8,0.4,5.7c0.3,3.7,0.2,7.4,0.8,11c0,0.2,0,0.4,0,0.6
				c-0.7-0.1-1-0.6-1.3-1c-0.3-0.5-0.6-1-1-1.4c-2.1-2.6-4.2-5.2-6.3-7.8c-2.1-2.7-4.1-5.5-6.3-8.2c-0.6-0.7-0.9-1.6-1.8-2
				c0.2-0.9-0.3-1.6-0.6-2.3c-2.3-5-4.7-9.9-7-14.8c-0.1-0.3-0.3-0.5-0.4-0.8c-0.1-0.3,0-0.5,0.3-0.7c2.9-2.1,5.5-4.5,8.2-6.7
				c3.5-2.9,6.9-5.8,10.4-8.7c0.9-0.7,1.5-1.5,1.4-2.7c0.1,0,0.2-0.1,0.3-0.1c0.1,0.1,0.1,0.2,0.2,0.3C782,74.7,782,74.8,782,74.9z"
				/>
			<path fill="#4BBBEB" d="M25.9,115.3c2.1-0.7,4.2-1.5,6.3-2.2c3.4-1.3,6.8-2.5,10.2-3.8c2.8-1.1,5.6-2,8.3-3.1
				c2.6-1,5.2-1.8,7.8-2.8c2.6-0.9,5.2-1.9,7.8-2.9c4.3-1.6,8.5-3.2,12.8-4.7c2.4-0.8,4.7-1.8,7.1-2.6c3.5-1.3,7-2.6,10.5-3.9
				c1.1-0.4,2.1-1.1,3.3-1c-1,3.5-2.3,7-3.5,10.4c-1.2,3.5-2.3,7-3.5,10.5c-1,2.9-2,5.8-3,8.6c-0.4,1.2-0.8,2.5-1.2,3.7
				c-0.1,0.4-0.2,0.7-0.6,0.9c-3.8-0.5-7.7-0.8-11.6-1.2c-2.9-0.3-5.9-0.5-8.8-1c-1.4-0.3-2.9-0.3-4.3-0.4c-2.4-0.1-4.7-0.6-7.1-0.8
				c-2.4-0.1-4.8-0.5-7.2-0.7c-2-0.2-4-0.3-5.9-0.7c-1.6-0.3-3.3-0.2-4.9-0.5c-2.5-0.4-5.1-0.6-7.7-0.8c-1.6-0.2-3.3-0.3-4.9-0.5
				C25.8,115.8,25.8,115.6,25.9,115.3z"/>
			<path fill="#FEFFFF" d="M217.8,9.2c1.2,3,2.5,6,3.7,9.1c0.1,0.2,0.1,0.4,0.1,0.6c-3.8,2.1-7.5,4.5-11.3,6.6
				c-3.7,2.1-7.3,4.3-11,6.5c-3.3,1.9-6.6,3.9-9.9,5.8c-0.8,0.5-1.4,1.2-2.4,1.3c0.3-0.9,1.1-1.4,1.8-2.1c3.2-3.1,6.3-6.1,9.5-9.2
				c4.4-4.3,8.9-8.5,13.3-12.8c1.9-1.8,3.8-3.6,5.6-5.4C217.5,9.4,217.6,9.3,217.8,9.2z"/>
			<path fill="#AFE1EF" d="M136.9,129.6c-0.1,0.7-0.7,0.8-1.2,1.2c0-0.1,0-0.3,0-0.4C135.8,129.8,136.4,129.7,136.9,129.6z"/>
			<path fill="#FEFFFF" d="M135.7,130.4c0,0.1,0,0.3,0,0.4c-0.1,0-0.2,0-0.3,0C135.5,130.7,135.6,130.5,135.7,130.4z"/>
			<path fill="#AFE1EF" d="M137.2,129.3c-0.1,0.1-0.2,0.2-0.3,0.3C137,129.5,137.1,129.4,137.2,129.3z"/>
			<path fill="#FEFFFF" d="M781.8,74.3c-0.1,0-0.2,0.1-0.3,0.1c-1-0.1-1.9-0.6-3-0.8c-0.8-0.1-0.9-0.8-0.4-1.5
				c1.1-1.4,2.2-2.8,3.3-4.2c3.5-4.5,7.1-8.9,10.6-13.4c1.7-2.1,3.3-4.2,4.9-6.3c0.2-0.2,0.4-0.3,0.6-0.3c-0.4,1.1-1,2.2-1.7,3.2
				c-3.6,5.8-7.3,11.7-10.9,17.5c-0.9,1.4-1.8,2.9-2.7,4.3C782.1,73.4,781.9,73.9,781.8,74.3z"/>
			<path fill="#C9E9F4" d="M399.4,8.9c0,0.2,0,0.4,0,0.6c-0.7,0-1,0.6-1.4,1c-2.3,2.4-4.8,4.6-7.2,6.8c-2.2,2-4.3,4.2-6.6,6.2
				c-3.2,2.8-6.3,5.8-9.4,8.8c-4.3,4.1-8.7,8-12.9,12.2c-0.4,0.4-0.7,0.9-1.4,1c-0.6-2.3-1-4.7-1.6-7.1c-0.8-3.1-1.4-6.3-2.2-9.5
				c-0.8-3.2-1.4-6.4-2.1-9.6c-0.1-0.4-0.2-0.7-0.6-0.7c-0.1-0.3-0.2-0.6-0.3-0.8c0.1-0.1,0.2-0.2,0.3-0.3c0.1,0,0.2,0,0.3,0
				c2.5-0.7,5.1-1,7.7-1.5c2.6-0.5,5.2-0.9,7.7-1.5c2-0.4,4.1-0.6,6.1-1.1c2.1-0.5,4.2-0.8,6.3-1.2c3.3-0.8,6.7-1.3,10-1.9
				c2.2-0.4,4.4-0.8,6.6-1.2C399,8.9,399.2,8.9,399.4,8.9z"/>
			<path fill="#DAF0F7" d="M725.1,69.7c0,0.4-0.2,0.6-0.6,0.6C724.5,69.9,724.7,69.6,725.1,69.7z"/>
			<path fill="#DAF0F7" d="M724.5,70.2c-0.1,0.1-0.2,0.2-0.3,0.3C724.2,70.4,724.3,70.3,724.5,70.2z"/>
			<path fill="#92D9F7" d="M266.1,140.5c-0.1-0.6,0.2-1,0.6-1.4c1.8-1.7,3.6-3.3,5.5-5c1.7-1.5,3.4-3.1,5.1-4.6
				c2.1-1.9,4.3-3.8,6.4-5.7c1.2-1.1,2.4-2.2,3.6-3.2c2-1.9,4.1-3.7,6.1-5.6c0.2-0.2,0.5-0.3,0.8-0.4c0.1,0.2,0.2,0.4,0.3,0.6
				c-0.5,0.6-0.3,1.3-0.2,1.9c0.1,0.5,0.2,1,0.2,1.4c-0.1,2.4,0.5,4.8,0.3,7.3c0,0.2,0,0.4,0.1,0.6c0.2,1.6,0.5,3.2,0.5,4.7
				c0,2.6,0.5,5.2,0.3,7.8c0,0.1,0,0.2,0,0.3c0.5,2.9,0.6,5.8,0.6,8.7c0,0.6,0,1.1,0,1.7c-0.1,0-0.2,0-0.3,0c-1.1-1.1-2.6-1-3.9-1.5
				c-3.4-1.1-6.8-1.9-10.1-3c-3.4-1.1-6.7-2-10.1-3.1c-1.4-0.4-2.8-0.8-4.1-1.3c-0.5-0.2-1-0.2-1.6-0.2
				C266.1,140.6,266.1,140.6,266.1,140.5z"/>
			<path fill="#83D3F6" d="M296.2,148c0.1-2.9-0.1-5.8-0.6-8.7c0-0.1,0-0.2,0-0.3c0.2-2.6-0.4-5.2-0.3-7.8c0-1.6-0.3-3.2-0.5-4.7
				c0-0.2-0.1-0.4-0.1-0.6c0.2-2.4-0.4-4.8-0.3-7.3c0-0.5,0-1-0.2-1.4c-0.2-0.6-0.3-1.3,0.2-1.9c2.6,1,5.4,1.3,8.1,2
				c1.9,0.5,3.9,0.8,5.8,1.3c2.3,0.6,4.6,1.1,6.9,1.6c0,0.5-0.2,0.8-0.5,1.2c-1.9,2.8-3.8,5.6-5.7,8.4c-2.7,3.9-5.2,8-7.8,11.9
				c-1.3,1.8-2.5,3.7-3.8,5.5C297.1,147.7,296.8,148.1,296.2,148z"/>
			<path fill="#BAE4EF" d="M315.2,120.3c-2.3-0.5-4.6-1-6.9-1.6c-1.9-0.5-3.9-0.8-5.8-1.3c-2.7-0.7-5.5-1-8.1-2
				c-0.1-0.2-0.2-0.4-0.3-0.6c0.1-0.7,0.7-0.8,1.2-1c2.8-1.2,5.7-2.4,8.6-3.7c3.6-1.5,7.1-3.1,10.7-4.6c2.7-1.2,5.4-2.3,8-3.4
				c0.2-0.1,0.4-0.1,0.7,0c-0.2,0.6-0.5,1.3-0.7,1.9c-1.7,4.1-3.4,8.1-5.1,12.2c-0.5,1.3-1.1,2.5-1.5,3.8
				C315.7,120,315.5,120.1,315.2,120.3z"/>
			<path fill="#6ABCE9" d="M586.3,56.6c0.3,0,0.5,0,0.8,0c0,0.2,0.1,0.5,0.3,0.7c1.2,1.4,2.3,2.7,3.5,4.1c1.7,2,3.5,4.1,5.2,6.1
				c1.9,2.3,3.8,4.6,5.8,6.9c1.7,2,3.3,4.1,5,6c1.5,1.6,2.8,3.3,4.2,5c0.7,0.9,1.6,1.7,2.1,2.8c-1.4,3-2.9,6-4.3,9
				c-2,4.3-4,8.6-6,12.9c-1.4,3.1-2.9,6.2-4.4,9.3c-1.1,2.5-2.3,4.9-3.4,7.4c-0.5,0.4-0.6,1-0.9,1.4c-1.5,2.4-2.9,4.9-4.4,7.3
				c-0.8,0.2-1.4,0.8-2,1.4c-4.3,3.6-8.6,7.3-13,11c-2.1,1.8-4.2,3.6-6.4,5.3c-0.1-0.7,0.3-1.3,0.7-1.9c2.7-4.9,5.4-9.7,8.1-14.6
				c1.3-2.4,2.7-4.7,4-7.1c1.2-2.2,2.4-4.4,3.6-6.6c0-0.1,0.1-0.1,0.1-0.2c0.3-0.1,0.7-0.1,1,0c1,0.3,2,0.8,3,1
				c1.6,0.4,3.1,1.2,4.7,1.4c0.2-0.3,0-0.5-0.1-0.7c-1.6-2.5-3.3-5-4.9-7.5c-1.8-2.8-3.7-5.6-5.5-8.3c-0.2-0.4-0.4-0.8-0.6-1.2
				c0-0.4,0-0.8,0-1.2c0.4-1.3,0.2-2.7,0.4-4.1c0.3-3.1,0.4-6.3,0.8-9.4c0.3-2.6,0.3-5.2,0.6-7.8c0.5-4.6,0.7-9.2,1.1-13.8
				C585.6,66.2,586.2,61.4,586.3,56.6z"/>
			<path fill="#92D9F7" d="M595,126.7c1.1-2.5,2.3-4.9,3.4-7.4c1.5-3.1,3-6.2,4.4-9.3c2-4.3,4.1-8.6,6-12.9c1.4-3,2.9-6,4.3-9
				c0.1,0,0.2,0,0.3,0c0,0.1,0,0.2,0,0.3c0.3,1.8,0.3,3.7,0.6,5.5c0.4,2.9,0.6,5.8,0.9,8.7c0.3,2.7,0.5,5.4,0.9,8.1
				c0.2,1.3,0.1,2.6,0.3,3.9c0.6,3,0.6,6.1,1.1,9.1c0.1,1,0.3,2.1,0.4,3.2c0,1.5,0.3,3,0.5,4.5c0.2,2,0.5,4,0.6,6.1
				c0.1,2.3,0.5,4.6,0.8,6.9c0.4,3.2,0.6,6.4,1,9.5c0.1,0.9,0.5,1.8,0.3,2.7c0,0.2,0,0.4,0,0.6c-0.2,0-0.4-0.1-0.6-0.2
				c-0.1-0.1-0.2-0.2-0.3-0.3c0,0,0,0,0,0c-1.3-2-2.9-3.6-4.4-5.4c-3-3.6-6.1-7-9.1-10.6c-3.1-3.8-6.3-7.4-9.4-11.1
				C596.3,128.5,595.3,127.8,595,126.7z"/>
			<path fill="#9CDCF4" d="M584.8,122.9c-1.2,2.2-2.4,4.4-3.6,6.6c-1.3,2.4-2.6,4.7-4,7.1c-2.7,4.9-5.4,9.7-8.1,14.6
				c-0.3,0.6-0.7,1.2-0.7,1.9c-0.2,0.6-1,0.9-0.8,1.7c-2.4-0.5-4.7-1.4-7.1-2c-3.9-1-7.8-2.1-11.6-3.2c-2.6-0.7-5.2-1.5-7.8-2.2
				c-3.5-1-6.9-1.9-10.4-2.9c-1.3-0.3-2.5-0.9-3.8-0.9c-0.2-0.1-0.4-0.2-0.5-0.3c0-1,0.5-1.5,1.4-1.8c0.3,0,0.5,0,0.7-0.3
				c0,0,0,0,0,0c0.4,0,0.8,0.1,1.2-0.1c1.7-0.5,3.3-1.1,5-1.7c2.3-0.8,4.6-1.6,6.9-2.3c2.7-0.9,5.3-1.8,8-2.6c2.3-0.8,4.7-1.6,7-2.4
				c2-0.7,4-1.3,5.9-1.9c3-1,6.1-2,9.1-3c1.8-0.6,3.6-1.3,5.4-1.8C579.4,124.6,582,123.5,584.8,122.9z"/>
			<path fill="#FEFFFF" d="M595,126.7c0.3,1.1,1.3,1.8,2,2.7c3.1,3.8,6.3,7.4,9.4,11.1c3,3.6,6.1,7.1,9.1,10.6
				c1.5,1.8,3.2,3.4,4.4,5.4c-0.5,0-0.8-0.2-1.2-0.4c-3.9-2.8-7.8-5.5-11.7-8.3c-2.8-2-5.5-4.1-8.4-6c-2.6-1.7-5-3.6-7.6-5.3
				c-0.5-0.3-0.9-0.6-1.2-1c1.4-2.4,2.9-4.9,4.4-7.3C594.4,127.7,594.5,127.1,595,126.7z"/>
			<path fill="#FEFFFF" d="M619.8,156.5c0.1,0.1,0.2,0.2,0.3,0.3C620,156.7,619.9,156.6,619.8,156.5z"/>
			<path fill="#8DD7F8" d="M678,147.1c-0.9,0.6-1.9,0.8-2.9,0.9c-3.1,0.3-6.1,1-9.2,1.4c-3,0.4-6,0.9-9,1.3c-2.3,0.3-4.7,0.7-7,1.1
				c-2.4,0.4-4.8,0.7-7.2,1.1c-2.5,0.4-5.1,0.8-7.6,1.3c-2.3,0.4-4.7,0.7-7,1.1c-2.4,0.4-4.8,0.8-7.2,1.2c0.5-1,0.9-2.1,1.4-3.2
				c2-4.4,3.8-8.9,5.7-13.4c1.6-3.8,3.3-7.6,4.9-11.3c0.8-1.8,1.6-3.6,2.4-5.5c1.1-2.6,2.3-5.2,3.4-7.9c1-2.4,1.9-4.9,3.1-7.2
				c1.4-2.9,2.5-5.9,3.8-8.8c1.5-3.4,3-6.8,4.4-10.2c0.5-1.3,1.4-2.5,1.5-3.9c0.3,0,0.6,0,0.9,0c0.1,0.1,0.2,0.2,0.3,0.3
				c0,0.7,0.3,1.3,0.6,1.9c1.8,4.2,3.6,8.4,5.3,12.6c2,4.9,4,9.9,6.1,14.8c2.7,6.4,5.3,12.8,8,19.2c1.3,3.1,2.7,6.2,3.9,9.4
				C677.2,144.7,677.9,145.8,678,147.1z"/>
			<path fill="#BFE6F0" d="M651.7,85.2c-0.1,1.4-1,2.6-1.5,3.9c-1.4,3.4-2.8,6.8-4.4,10.2c-1.3,2.9-2.5,5.9-3.8,8.8
				c-1.1,2.4-2,4.8-3.1,7.2c-1.1,2.6-2.3,5.2-3.4,7.9c-0.8,1.8-1.6,3.6-2.4,5.5c-1.6,3.8-3.3,7.6-4.9,11.3
				c-1.9,4.5-3.8,8.9-5.7,13.4c-0.5,1.1-0.9,2.1-1.4,3.2c-0.1,0-0.2,0-0.3,0c0.1-0.9-0.2-1.8-0.3-2.7c-0.4-3.2-0.6-6.4-1-9.5
				c-0.3-2.3-0.6-4.6-0.8-6.9c-0.1-2-0.4-4-0.6-6.1c-0.2-1.5-0.4-3-0.5-4.5c0-1.1-0.2-2.1-0.4-3.2c-0.4-3-0.5-6.1-1.1-9.1
				c-0.2-1.3-0.2-2.6-0.3-3.9c-0.4-2.7-0.6-5.4-0.9-8.1c-0.3-2.9-0.5-5.8-0.9-8.7c-0.2-1.8-0.3-3.7-0.6-5.5c1.3,0.2,2.6,0,3.9-0.1
				c1.6-0.2,3.3-0.4,4.9-0.5c2.7-0.1,5.4-0.7,8.1-0.7c3,0,6-0.6,9-0.8c1.7-0.1,3.5-0.1,5.2-0.4C646.8,85.5,649.3,85.5,651.7,85.2z"
				/>
			<path fill="#8DD7F8" d="M703.2,123.5c0.7,0.1,1,0.6,1.3,1.1c1.8,3,3.7,6.1,5.5,9.1c1.4,2.3,2.8,4.5,4.2,6.8c2.5,4,5,8.1,7.5,12.1
				c1.6,2.5,3.1,5.1,4.6,7.6c0.3,0.4,0.5,0.8,0.6,1.3c0,0.3-0.2,0.5-0.5,0.6c-1.8-0.8-3.8-1.2-5.7-1.7c-5-1.5-10-2.9-15.1-4.2
				c-3.4-0.9-6.8-2-10.2-3c-2.3-0.7-4.7-1.2-7-1.9c-2.6-0.8-5.3-1.3-7.8-2.2c-0.5-0.2-1-0.1-1.4-0.1c-0.1,0-0.1,0-0.2,0
				c-0.2-0.3-0.3-0.7-0.6-0.9c0.1-0.2,0.2-0.4,0.3-0.5c0.1-0.1,0.2-0.2,0.3-0.3c0.6-0.2,0.9-0.7,1.3-1.1c3.2-3.1,6.3-6.3,9.5-9.4
				c3.5-3.4,7-6.8,10.5-10.2C701.3,125.5,702.4,124.6,703.2,123.5z"/>
			<path fill="#DAF0F7" d="M678.9,147.2c-0.1,0.1-0.2,0.2-0.3,0.3c-0.2-0.1-0.4-0.2-0.6-0.3c-0.1-1.3-0.9-2.5-1.3-3.7
				c-1.2-3.2-2.6-6.3-3.9-9.4c-2.7-6.4-5.4-12.8-8-19.2c-2-4.9-4-9.9-6.1-14.8c-1.7-4.2-3.5-8.4-5.3-12.6c-0.3-0.6-0.5-1.2-0.6-1.9
				c0.3,0,0.6,0,0.9,0.1l0,0.1c0,0.2,0.1,0.4,0.3,0.5l0,0c1.2,1.5,2.7,2.6,4.1,3.9c2.5,2.3,5,4.6,7.6,6.8c3.3,2.9,6.6,5.9,9.9,8.8
				c3,2.7,6,5.4,9,8.1c0.3,0.3,0.9,0.5,0.7,1.1c0,0.9-0.5,1.7-0.6,2.5c-0.2,2.4-1,4.7-1.3,7.1c-0.4,2.3-0.9,4.6-1.4,7
				c-0.8,3.9-1.7,7.8-2.4,11.8C679.4,144.5,678.7,145.8,678.9,147.2z"/>
			<path fill="#BFE6F0" d="M678.9,148.9c0.1,0,0.1,0,0.2,0c0,0.3,0,0.6,0.1,0.9C678.9,149.6,678.9,149.3,678.9,148.9z"/>
			<path fill="#A1DDF3" d="M465.5,113.5c-0.5,0.5-1,0.3-1.5,0.2c-4.5-1-9-2.1-13.5-3.1c-5.2-1.2-10.5-2.3-15.7-3.5
				c-3.2-0.7-6.5-1.3-9.6-2.1c-4.2-1.1-8.5-2-12.7-3c-3-0.7-6-1.5-9.1-2c-1.6-0.2-3.1-0.8-4.7-1.1c-2.2-0.5-4.3-1.1-6.5-1.4
				c-0.9-0.1-1.6-0.8-2.4-0.9c0-0.2,0-0.4,0-0.6c1.2-1.1,2.1-2.4,3.1-3.6c2.6-3.4,5.3-6.6,8-9.9c0.2-0.3,0.4-0.6,0.6-0.8
				c0.4-0.4-0.1-0.6-0.2-0.8c-0.1-3.6,0.2-7.3-0.2-10.9c-0.3-2.7-0.1-5.5-0.3-8.3c-0.2-5.5,0-11-0.3-16.5c-0.3-4.3,0.1-8.6-0.3-13
				c-0.3-4.1,0-8.2-0.3-12.2c-0.2-2.5,0-5.1,0-7.6c0-0.7,0-1.3-0.9-1.4c0-0.4,0.2-0.7,0.6-0.9c0.5,0,0.8,0.1,1.2,0.5
				c1.3,1.3,2.7,2.5,4.1,3.8c2.2,2,4.5,4,6.8,5.9c1,0.9,1.9,1.9,3,2.7c1.3,1,2.4,2.2,3.7,3.3c2.4,2.1,4.8,4.1,7.1,6.3
				c1.4,1.2,2.7,2.5,4.1,3.7c2.9,2.6,5.8,5.2,8.7,7.7c0.2,0.2,0.4,0.2,0.6,0.3c0,0.2,0,0.4,0,0.6c0,0.6,0.1,1.2,0.2,1.9
				c0.4,1.9,0.8,3.8,0.9,5.7c0.2,2.8,0.8,5.5,1.1,8.2c0.2,1.6,0.5,3.3,0.7,4.9c0.2,1.5,0.2,3,0.6,4.4c0.4,1.2,0,2.5,0.6,3.7
				c-2,0.5-4,0.9-5.9,1.4c-1.2,0.3-2.5,0.5-3.7,0.8c-3.7,0.8-7.3,1.7-10.9,2.5c-5.3,1.1-10.6,2.3-15.9,3.5c-1.3,0.3-2.7,0.5-4.1,0.9
				c0.2,0.5,0.6,0.7,0.9,0.9c3.7,1.8,7.5,3.4,11.2,5.2c4.8,2.3,9.6,4.7,14.4,7c4.3,2.1,8.7,4.1,13,6.1c3.5,1.7,7.1,3.4,10.6,5.1
				c3.4,1.6,6.8,3.2,10.2,4.9C463.5,112.5,464.6,112.7,465.5,113.5z"/>
			<path fill="#C9E9F4" d="M339.2,64.1c0.1,0,0.2,0,0.3,0c0.1,0.1,0.2,0.1,0.3,0c0,0,0,0,0,0c2.6-2.1,5-4.4,7.6-6.6
				c4.3-3.8,8.6-7.7,12.9-11.5c0.6,0.3,0.8,0.8,1.1,1.3c0.6,1.5,1.6,2.9,2.4,4.3c1.3,2.3,2.6,4.6,3.9,7c1.5,2.7,3,5.4,4.5,8.1
				c0.9,1.6,1.8,3.1,2.5,4.7c-0.6,0.5-1.3,0.7-2,0.6c-0.5-0.3-1.1-0.5-1.6-0.6c-3.5-0.4-6.9-1.4-10.4-1.9c-0.7-0.1-1.3-0.1-2-0.3
				c-3-0.9-6.1-1.2-9.1-1.8c-2-0.4-3.9-0.9-6-1.1c-1.2-0.1-2.2-0.6-3.4-0.7c-0.3,0-0.5,0-0.8,0c-0.5,0.3-0.6,0.8-0.9,1.3
				c-0.4,0.9-0.7,1.8-1.1,2.7c-1,2.4-2.1,4.8-3.1,7.2c-1,2.3-2,4.7-3,7.1c-0.6,1.4-1.2,2.7-1.8,4.1c-1,2.4-2.1,4.8-3.1,7.2
				c-0.9,2-1.9,4-2.6,6.2c-2.4-0.2-4.7-0.9-7-1.3c-2.8-0.5-5.5-1.1-8.3-1.7c-1.9-0.4-3.9-0.7-5.8-1.2c-1.6-0.4-3.2-0.8-4.8-1
				c-1.8-0.2-3.6-0.7-5.4-1.1c-4.3-0.8-8.6-1.8-13-2.6c-1-0.2-2-0.6-3.1-0.8c20.6-9,41.1-17.8,61.7-26.6
				C338.4,64.7,339.1,64.8,339.2,64.1z"/>
			<path fill="#B2E1EE" d="M374.6,71.5c-0.7-1.7-1.7-3.2-2.5-4.7c-1.5-2.7-3-5.4-4.5-8.1c-1.3-2.3-2.6-4.6-3.9-7
				c-0.8-1.4-1.7-2.8-2.4-4.3c-0.2-0.5-0.5-1.1-1.1-1.3c0.1-0.2,0.2-0.4,0.3-0.6c0.7,0,1-0.6,1.4-1c4.2-4.2,8.6-8.1,12.9-12.2
				c3.1-3,6.2-6,9.4-8.8c2.3-2,4.4-4.1,6.6-6.2c2.4-2.2,4.9-4.4,7.2-6.8c0.4-0.4,0.7-0.9,1.4-1c0,0.2,0,0.4,0,0.6
				c-0.4,0.2-0.6,0.5-0.6,0.9c-1.1,2.7-2.1,5.5-3.2,8.2c-1.3,3-2.4,6-3.5,9.1c-1.6,4.2-3.3,8.4-5,12.6c-1.6,4.1-3.2,8.1-4.8,12.2
				c-1.5,3.7-2.9,7.5-4.4,11.2c-0.4,0.9-0.8,1.8-1.1,2.7c-0.5,1.5-1.3,2.8-1.7,4.3c-0.1,0.1-0.2,0.2-0.3,0.3
				C374.7,71.5,374.6,71.5,374.6,71.5z"/>
			<path fill="#8DD7F8" d="M374.8,71.5c0.1-0.1,0.2-0.2,0.3-0.3c0.6-0.1,1.2,0.1,1.7,0.3c2.3,0.9,4.6,1.8,6.9,2.7
				c2.7,1.1,5.4,2.1,8.1,3.2c1.7,0.7,3.4,1.4,5.1,2c1.4,0.5,2.7,1.3,4.2,1.5c0.1,0.3,0.6,0.4,0.2,0.8c-0.2,0.2-0.4,0.6-0.6,0.8
				c-2.7,3.3-5.4,6.6-8,9.9c-1,1.2-1.9,2.5-3.1,3.6c-0.9-0.5-1.2-1.4-1.6-2.2c-2.1-3.5-4.3-6.9-6.3-10.4c-2.2-3.9-4.7-7.6-6.9-11.6
				C374.8,71.7,374.8,71.6,374.8,71.5z"/>
			<path fill="#75C5EE" d="M339.3,65.6c0.3,0,0.5,0,0.8,0c0.1,0.2,0.2,0.5,0.3,0.6c2.8,3.2,5.7,6.5,8.5,9.7c1.9,2.1,3.8,4.2,5.5,6.5
				c-3.1,2.3-6.2,4.7-9.3,7c-2.1,1.6-4.3,3.2-6.4,4.8c-0.5,0.3-0.9,0.8-1.5,0.8c0.5-4.3,0.7-8.7,1-13
				C338.5,76.6,339.2,71.1,339.3,65.6z"/>
			<path fill="#9CDCF4" d="M354.4,82.5c-1.7-2.3-3.7-4.4-5.5-6.5c-2.8-3.2-5.7-6.5-8.5-9.7c-0.2-0.2-0.2-0.4-0.3-0.6
				c1.2,0,2.3,0.6,3.4,0.7c2,0.2,4,0.7,6,1.1c3,0.6,6.1,0.9,9.1,1.8c0.7,0.2,1.3,0.2,2,0.3c3.5,0.5,6.9,1.5,10.4,1.9
				c0.6,0.1,1.1,0.3,1.6,0.6c-0.3,1.1-1.3,1.2-2.1,1.6c-2.6,1.5-5.3,3-8,4.4c-2.1,1.1-4.2,2.2-6.3,3.3c-0.5,0.2-1,0.5-1.2,1
				C354.8,82.7,354.6,82.6,354.4,82.5z"/>
			<path fill="#FEFFFF" d="M339.3,65.6c-0.1,5.5-0.8,11-1.1,16.5c-0.3,4.3-0.5,8.7-1,13c-1.4,1.1-3.2,1.6-4.8,2.4
				c-2.3,1.1-4.6,2.1-6.9,3.1c-0.6,0.3-1.1,0.6-1.8,0.5c0.7-2.1,1.7-4.1,2.6-6.2c1-2.4,2.1-4.8,3.1-7.2c0.6-1.4,1.2-2.7,1.8-4.1
				c1-2.4,2-4.7,3-7.1c1-2.4,2.1-4.8,3.1-7.2c0.4-0.9,0.7-1.8,1.1-2.7C338.6,66.4,338.7,65.9,339.3,65.6z"/>
			<path fill="#83D3F6" d="M292.4,113.2c0,0,0.1,0,0.1,0.1C292.5,113.4,292.4,113.4,292.4,113.2
				C292.4,113.2,292.4,113.2,292.4,113.2z"/>
			<path fill="#6ABCE9" d="M360.5,45.4c-0.1,0.2-0.2,0.4-0.3,0.6c-4.3,3.9-8.6,7.7-12.9,11.5c-2.5,2.2-4.9,4.5-7.6,6.6
				c0.2-1.8,1-3.4,1.5-5.2c0.6-2.2,1.4-4.4,2.1-6.7c0.6-2,1.3-4.1,1.9-6.1c1.1-3.4,2.1-6.7,3.2-10.1c1.2-3.7,2.4-7.4,3.5-11.1
				c0.7-2.2,1.4-4.3,2.1-6.5c0.4,0.1,0.5,0.3,0.6,0.7c0.7,3.2,1.3,6.5,2.1,9.6c0.8,3.1,1.3,6.3,2.2,9.5
				C359.5,40.7,359.9,43.1,360.5,45.4z"/>
			<path fill="#6ABCE9" d="M339.8,64.1c-0.1,0.1-0.2,0.1-0.3,0C339.6,64.1,339.7,64.1,339.8,64.1z"/>
			<path fill="#BFE6F0" d="M582.4,106.2c0,0.4,0,0.8,0,1.2c-0.2,0-0.4,0-0.6-0.1c0-0.6-0.5-0.5-0.8-0.6c-0.1-0.2-0.1-0.4-0.2-0.5
				c-1.6-1.6-3.1-3.2-4.8-4.7c-0.4-0.4-0.9-0.7-1.3-1.1c-2.9-3-6-5.8-9-8.7c-3.6-3.5-7.3-6.9-10.9-10.3c-3.4-3.2-6.8-6.5-10.3-9.7
				c-3.6-3.4-7.3-6.7-10.8-10.2c-0.7-0.6-1.5-1.1-2.1-1.8c-0.3-0.3-0.6-0.5-0.6-1c3-0.3,6.1-0.6,9.1-1c2.9-0.4,5.8-0.5,8.6-1.1
				c1.3-0.3,2.7-0.3,4-0.4c0.8-0.1,1.5-0.1,2.3-0.2c2-0.3,3.9-0.4,5.9-0.7c2.9-0.4,5.9-0.5,8.8-1c1.5-0.3,3-0.3,4.5-0.4
				c0.7,0,1.4-0.1,2-0.3c0,0,0.1,0,0.1,0c-0.1,1.5,0.1,2.9,0.4,4.3c0.1,0.3,0.1,0.7,0.2,1c0.1,1.9,0.3,3.9,0.6,5.8
				c0.1,0.8,0.2,1.5,0.3,2.3c0.2,2,0.3,4,0.6,5.9c0.1,0.6,0.2,1.1,0.3,1.7c0.1,2.1,0.3,4.2,0.7,6.3c0.1,0.5,0.1,1,0.2,1.4
				c0.1,1.4,0.1,2.7,0.4,4c0.5,2,0.5,4.1,0.8,6.2c0.4,2.5,0.6,5,0.9,7.5c0.1,1,0.3,1.9,0.3,2.9C581.9,104.1,582,105.2,582.4,106.2z"
				/>
			<path fill="#FEFFFF" d="M509,112.6c2.2,4.8,4.5,9.7,6.7,14.5c1.6,3.4,3.1,6.8,4.6,10.2c0.5,1.1,0.4,1.1-0.6,1.7
				c-4.5,2.4-9.1,4.8-13.7,7.2c-4.5,2.4-9,4.7-13.5,7.1c-0.1,0-0.2,0.1-0.4,0.1c0.3-0.9,0.5-1.8,0.9-2.6c2.3-5.2,4.3-10.5,6.5-15.7
				c1.5-3.6,3-7.3,4.5-10.9c1.6-3.9,3.1-7.7,4.7-11.6C508.9,112.7,509,112.7,509,112.6z"/>
			<path fill="#DAF0F7" d="M469,66c0.4,3.3,0.1,6.7,0.3,10c0.3,9.7,0.2,19.3,0.3,29c0,2.4,0.2,4.8,0.2,7.1c0,1.2-0.3,1.5-1.7,1.7
				c0,0,0-0.1,0-0.1c0-0.3-0.1-0.7-0.1-1c-0.5-2.1-1-4.1-1.6-6.2c-0.4-1.8-0.9-3.6-1.3-5.3c-0.9-3.4-1.7-6.9-2.6-10.3
				c-0.5-1.9-0.9-3.8-1.4-5.6c-0.8-3.1-1.7-6.3-2.3-9.4c0.6,0.2,1,0,1.4-0.5c2.4-3,4.7-5.9,7.1-8.8c0.3-0.4,0.7-0.8,1.1-1.2
				C468.7,65.3,469,65.5,469,66z"/>
			<path fill="#6ABCE9" d="M571,29.3c-0.5,0.9-1.3,1.3-2.1,1.8c-3.7,2.5-7.4,5.1-11.2,7.6c-3.4,2.2-6.6,4.5-10,6.8
				c-3.5,2.3-6.9,4.7-10.3,7.1c-1.9,1.4-4,2.6-6,3.9c-0.2,0.2-0.4,0.1-0.6-0.1c0-0.8,0.6-1.3,0.9-1.9c2-3.8,3.8-7.7,5.8-11.6
				c1.5-3,3.1-6,4.6-9c1.5-3,3-6.1,4.5-9.1c1.1-2.2,2.2-4.4,3.3-6.6c0.8,0,1.3,0.6,1.9,1c3.1,1.6,6.2,3.3,9.2,4.9c3,1.6,6,3.1,9,4.7
				C570.5,28.9,570.8,29,571,29.3z"/>
			<path fill="#FEFFFF" d="M458.8,75.8c0.6,3.2,1.5,6.3,2.3,9.4c0.5,1.9,0.9,3.8,1.4,5.6c0.9,3.4,1.7,6.9,2.6,10.3
				c0.4,1.8,0.9,3.6,1.3,5.3c0.5,2.1,1,4.1,1.6,6.2c0.1,0.3,0.1,0.7,0.1,1c-1-0.9-1.6-2.2-2.3-3.3c-3.2-5-6.3-10.1-9.5-15.2
				c-3.8-6.1-7.6-12.2-11.4-18.2c-0.7-1.1-1.3-2.3-2.2-3.2c-0.6-1.2-0.2-2.5-0.6-3.7c-0.4-1.4-0.4-3-0.6-4.4
				c-0.2-1.6-0.5-3.3-0.7-4.9c-0.3-2.7-0.9-5.4-1.1-8.2c-0.2-1.9-0.6-3.8-0.9-5.7c-0.1-0.6-0.2-1.2-0.2-1.9c1.3,1.3,2.1,3,3,4.6
				c2.6,4,5,8.1,7.5,12.1c1.9,3,3.7,6,5.7,9c0.6,0.9,1.1,1.9,1.8,2.7C457.4,74,458.1,74.9,458.8,75.8z"/>
			<path fill="#DAF0F7" d="M581.8,107.4c0.2,0,0.4,0,0.6,0.1c0.2,0.4,0.4,0.8,0.6,1.2c-0.5,0.7-0.3,1.5-0.2,2.2
				c0.2,1.6,0.5,3.1,0.7,4.7c0.2,1.7,0.5,3.4,0.8,5.1c0.1,0.7-0.1,1.5,0.5,2c0,0.1,0,0.1-0.1,0.2c-2.7,0.6-5.4,1.7-8,2.5
				c-1.8,0.6-3.6,1.2-5.4,1.8c-3,1-6.1,2-9.1,3c-2,0.7-4,1.3-5.9,1.9c-2.3,0.8-4.7,1.6-7,2.4c-2.7,0.9-5.3,1.8-8,2.6
				c-2.3,0.8-4.6,1.5-6.9,2.3c-1.7,0.6-3.3,1.1-5,1.7c-0.4,0.1-0.8,0-1.2,0.1c0.9-1,2.1-1.5,3.2-2.2c5-3.2,10-6.4,15-9.5
				c5.5-3.5,11.1-7,16.7-10.5c4.4-2.8,8.8-5.7,13.3-8.4C578.2,109.5,579.9,108.2,581.8,107.4z"/>
			<path fill="#DAF0F7" d="M528.3,141.3c-0.1,0.3-0.4,0.3-0.7,0.3C527.8,141.4,528,141.3,528.3,141.3z"/>
			<path fill="#DAF0F7" d="M727.4,129.3c-0.1-0.3-0.2-0.6-0.2-0.8c-0.1-3.6-0.6-7.3-0.7-10.9c-0.1-3.1-0.5-6.2-0.7-9.3
				c0-0.4-0.1-0.8-0.1-1.2c0-2.7-0.3-5.4-0.5-8.1c-0.2-1.7-0.3-3.4-0.3-5.1c0-2.1-0.3-4.3-0.5-6.4c0-0.3,0-0.6-0.1-0.9
				c-0.1-2.6-0.2-5.2-0.4-7.9c-0.1-1.2-0.3-2.4-0.4-3.6c-0.1-0.7-0.2-1.4,0-2.2c0.8,0.1,1.3,0.5,1.9,0.8c5.3,2.8,10.6,5.6,15.9,8.3
				c2.9,1.5,5.6,3,8.5,4.5c2.8,1.5,5.7,3,8.5,4.4c1.8,0.9,1.9,0.9,0.6,2.5c-2.6,3.1-5.3,6.1-7.9,9.1c-3.6,4.1-7.1,8.2-10.6,12.4
				c-2.2,2.5-4.4,5-6.6,7.6c-1.9,2.2-3.8,4.3-5.6,6.5c-0.1,0.1-0.1,0.2-0.1,0.3C727.8,129.3,727.6,129.3,727.4,129.3z"/>
			<path fill="#BAE4EF" d="M727.4,129.3c0.2,0,0.4,0,0.6,0c1.9-0.5,3.6-1.5,5.3-2.3c4.1-1.8,8.2-3.6,12.4-5.5c3.3-1.5,6.5-3,9.8-4.4
				c3.6-1.6,7.3-3.2,10.9-4.8c0.9-0.4,1.8-0.9,2.8-1.2c0.9,0.4,1.3,1.3,1.8,2c2.1,2.7,4.1,5.5,6.3,8.2c2.1,2.6,4.2,5.2,6.3,7.8
				c0.4,0.5,0.6,1,1,1.4c0.3,0.5,0.7,1,1.3,1c0.1,0.8-0.3,0.9-0.9,0.9c-1.7,0-3.4,0.1-5.1,0c-3.7-0.2-7.4-0.1-11.1-0.3
				c-3-0.2-6,0-9-0.3c-3.6-0.3-7.2,0-10.8-0.3c-3.5-0.3-7.1,0-10.6-0.3c-2.7-0.2-5.3-0.2-8-0.3c-0.5,0-1.1-0.1-1.6-0.2
				C727.5,130.6,727.5,130.6,727.4,129.3z"/>
			<path fill="#FEFFFF" d="M678.9,147.2c-0.2-1.4,0.5-2.7,0.7-4c0.7-3.9,1.6-7.8,2.4-11.8c0.5-2.3,1-4.6,1.4-7
				c0.4-2.4,1.2-4.7,1.3-7.1c0.1-0.9,0.6-1.6,0.6-2.5c0.6,0,1.1,0.2,1.7,0.5c3.7,1.9,7.4,3.7,11.2,5.6c1.7,0.8,3.4,1.7,5,2.6
				c-0.8,1.1-1.9,2.1-2.9,3.1c-3.5,3.4-7,6.8-10.5,10.2c-3.2,3.1-6.3,6.3-9.5,9.4C679.8,146.5,679.5,147,678.9,147.2z"/>
			<path fill="#FEFFFF" d="M653.7,85.6C653.7,85.6,653.8,85.5,653.7,85.6c0-0.6,0.4-0.6,0.8-0.7c1.4-0.3,2.9-0.2,4.3-0.3
				c2.3-0.3,4.7-0.5,7.1-0.7c2.6-0.3,5.3-0.3,7.9-0.7c1.5-0.2,3-0.1,4.5-0.3c1.6-0.2,3.3-0.5,4.9-0.5c0.5,1.4,0.3,2.9,0.5,4.3
				c0.3,2.3,0.5,4.6,0.8,6.9c0.3,2.6,0.6,5.1,0.9,7.7c0.1,0.6-0.2,0.8-0.7,0.5c-2.2-1.1-4.5-2.3-6.7-3.5c-2.9-1.5-5.9-3-8.8-4.6
				c-2.4-1.2-4.7-2.5-7.1-3.7c-2.4-1.2-4.8-2.5-7.2-3.7c-0.3-0.2-0.6-0.3-1-0.2c0,0,0,0,0,0C654,85.8,653.9,85.7,653.7,85.6z"/>
			<path fill="#BAE4EF" d="M683.3,82.2c-1.6,0-3.3,0.3-4.9,0.5c-1.5,0.2-3,0.1-4.5,0.3c-2.6,0.4-5.3,0.4-7.9,0.7
				c-2.4,0.3-4.7,0.4-7.1,0.7c-1.4,0.2-2.9,0-4.3,0.3c-0.4,0.1-0.8,0.1-0.8,0.7c-0.3,0-0.6,0-0.9-0.1c-0.1-0.1-0.2-0.2-0.3-0.3
				c-0.3-0.5-0.3-1.1-0.1-1.7c0.9-2.7,1.7-5.5,2.5-8.2c0.4-1.5,0.7-3,1.4-4.4c0.5-0.5,1-0.3,1.5-0.1c3,1.1,6,2.3,8.9,3.4
				c4,1.5,8,3,11.9,4.6c1.7,0.7,3.5,1.1,5.1,2C683.2,81.1,683.3,81.7,683.3,82.2z"/>
			<path fill="#75C5EE" d="M613.4,88.1c-0.1,0-0.2,0-0.3,0c-0.5-1.1-1.4-1.9-2.1-2.8c-1.4-1.7-2.7-3.4-4.2-5c-1.8-1.9-3.4-4-5-6
				c-1.9-2.3-3.9-4.6-5.8-6.9c-1.7-2-3.4-4.1-5.2-6.1c-1.2-1.4-2.3-2.7-3.5-4.1c-0.2-0.2-0.2-0.4-0.3-0.7c1.6,0.1,3,0.6,4.6,0.9
				c4.9,1.1,9.7,2.2,14.6,3.2c2.3,0.5,4.6,1.1,6.9,1.5c3.2,0.7,6.4,1.5,9.6,2.2c4.7,1,9.4,2.2,14.2,3c1.6,0.3,3.3,0.8,5,1.1
				c3.1,0.7,6.1,1.5,9.2,2c0.9,0.2,1.8,0.3,2.6,0.8c-0.2,0.1-0.4,0.3-0.6,0.4c-2.3,0.9-4.7,1.9-7,2.8c-2.4,0.9-4.9,1.8-7.3,2.8
				c-1.8,0.8-3.7,1.5-5.5,2.2c-3.7,1.4-7.5,2.7-11.1,4.2c-2.6,1.1-5.3,2-8,3.1C613.6,87.2,613.4,87.5,613.4,88.1z"/>
			<path fill="#6ABCE9" d="M613.4,88.1c0-0.6,0.2-0.9,0.8-1.2c2.6-1.1,5.3-2,8-3.1c3.7-1.5,7.4-2.8,11.1-4.2
				c1.9-0.7,3.7-1.5,5.5-2.2c2.4-1,4.9-1.8,7.3-2.8c2.3-0.9,4.7-1.8,7-2.8c0.2-0.1,0.4-0.3,0.6-0.4c1,0.2,1.7-0.6,2.6-0.5
				c-0.7,1.4-0.9,3-1.4,4.4c-0.8,2.7-1.6,5.5-2.5,8.2c-0.2,0.6-0.2,1.1,0.1,1.7c-0.3,0-0.6,0-0.9,0c-2.4,0.3-4.8,0.3-7.2,0.7
				c-1.7,0.3-3.5,0.3-5.2,0.4c-3,0.2-6,0.8-9,0.8c-2.7,0-5.4,0.6-8.1,0.7c-1.6,0-3.3,0.3-4.9,0.5c-1.3,0.2-2.6,0.3-3.9,0.1
				C613.4,88.3,613.4,88.2,613.4,88.1z"/>
			<path fill="#FEFFFF" d="M582.4,106.2c-0.4-1-0.5-2.1-0.5-3.1c-0.1-1-0.2-1.9-0.3-2.9c-0.3-2.5-0.5-5-0.9-7.5
				c-0.3-2.1-0.3-4.1-0.8-6.2c-0.3-1.3-0.3-2.7-0.4-4c0-0.5-0.1-1-0.2-1.4c-0.4-2.1-0.6-4.2-0.7-6.3c0-0.6-0.2-1.1-0.3-1.7
				c-0.4-2-0.4-3.9-0.6-5.9c-0.1-0.8-0.2-1.5-0.3-2.3c-0.3-1.9-0.5-3.8-0.6-5.8c0-0.3-0.1-0.7-0.2-1c-0.3-1.4-0.5-2.9-0.4-4.3
				c2.1,0.3,4.1,0.9,6,1.5c1.3,0.4,2.6,0.6,3.9,1.1c0,0.1,0,0.2,0.1,0.3c-0.1,4.9-0.7,9.7-1.1,14.5c-0.4,4.6-0.6,9.2-1.1,13.8
				c-0.3,2.6-0.3,5.2-0.6,7.8c-0.4,3.1-0.5,6.3-0.8,9.4C582.6,103.5,582.8,104.9,582.4,106.2z"/>
			<path fill="#FEFFFF" d="M584.8,122.7c-0.6-0.6-0.4-1.4-0.5-2c-0.3-1.7-0.5-3.4-0.8-5.1c-0.2-1.6-0.5-3.1-0.7-4.7
				c-0.1-0.8-0.3-1.5,0.2-2.2c1.8,2.8,3.7,5.6,5.5,8.3c1.6,2.5,3.3,5,4.9,7.5c0.1,0.2,0.3,0.4,0.1,0.7c-1.6-0.3-3.1-1-4.7-1.4
				c-1-0.3-2-0.7-3-1C585.5,122.6,585.2,122.6,584.8,122.7z"/>
			<path fill="#6ABCE9" d="M653.7,85.6c0.2,0.1,0.3,0.2,0.3,0.5C653.8,86,653.8,85.8,653.7,85.6z"/>
			<path fill="#9CDCF4" d="M401.1,80.8c-1.5-0.2-2.8-1-4.2-1.5c-1.7-0.6-3.4-1.3-5.1-2c-2.7-1.1-5.4-2.1-8.1-3.2
				c-2.3-0.9-4.6-1.8-6.9-2.7c-0.5-0.2-1.1-0.4-1.7-0.3c0.3-1.5,1.2-2.8,1.7-4.3c0.3-0.9,0.7-1.8,1.1-2.7c1.5-3.7,2.9-7.5,4.4-11.2
				c1.6-4.1,3.2-8.1,4.8-12.2c1.7-4.2,3.3-8.4,5-12.6c1.2-3,2.3-6.1,3.5-9.1c1.2-2.7,2.1-5.5,3.2-8.2c0.9,0.1,0.9,0.7,0.9,1.4
				c0,2.5-0.2,5.1,0,7.6c0.3,4.1,0,8.2,0.3,12.2c0.3,4.3,0,8.7,0.3,13c0.3,5.5,0.1,11,0.3,16.5c0.1,2.8,0,5.5,0.3,8.3
				C401.3,73.5,401,77.2,401.1,80.8z"/>
		</g>
	</g>
	<g>
		<path fill="none" stroke="#FFFFFF" stroke-width="1.3625" stroke-miterlimit="10" d="M148,142h-23.2c-2.6,0-4.7-0.6-6.4-1.9
			c-1.7-1.3-2.9-3-3.5-5l-7.6-24.1H58.1l-7.6,24.1c-0.6,1.8-1.7,3.4-3.5,4.8c-1.7,1.4-3.8,2.1-6.3,2.1H17.4l50-138.2H98L148,142z
			 M65.1,89.2h35.3L88.5,51.4c-0.8-2.4-1.7-5.2-2.7-8.5c-1-3.3-2.1-6.8-3.1-10.6c-0.9,3.9-1.9,7.4-2.9,10.7c-1,3.3-1.9,6.1-2.8,8.5
			L65.1,89.2z"/>
		<path fill="none" stroke="#FFFFFF" stroke-width="1.3625" stroke-miterlimit="10" d="M188.4,95.9V142h-30V3.9H204
			c9.1,0,16.9,1.2,23.4,3.5c6.5,2.3,11.9,5.5,16.1,9.5c4.2,4,7.3,8.8,9.4,14.3c2,5.5,3,11.4,3,17.8c0,6.9-1,13.2-3.1,19
			c-2.1,5.8-5.2,10.7-9.5,14.8c-4.3,4.1-9.6,7.3-16.2,9.6c-6.5,2.3-14.3,3.5-23.2,3.5H188.4z M188.4,71.7H204c7.8,0,13.4-2,16.8-6
			c3.4-4,5.1-9.5,5.1-16.7c0-3.2-0.4-6-1.3-8.6c-0.9-2.6-2.2-4.8-4-6.7c-1.8-1.9-4.1-3.3-6.8-4.3c-2.7-1-6-1.5-9.8-1.5h-15.6V71.7z"
			/>
		<path fill="none" stroke="#FFFFFF" stroke-width="1.3625" stroke-miterlimit="10" d="M301.5,90.9V142h-30V3.9h42
			c9.3,0,17.3,1,23.9,3.1c6.6,2.1,12,4.9,16.1,8.6c4.2,3.7,7.2,8,9.1,13c1.9,5,2.8,10.4,2.8,16.3c0,4.5-0.6,8.7-1.7,12.7
			c-1.1,4-2.8,7.7-5,11c-2.2,3.4-4.9,6.4-8.2,9.1c-3.2,2.7-6.9,4.8-11.1,6.5c2,1.1,3.9,2.4,5.6,4c1.7,1.6,3.3,3.5,4.6,5.8l27.5,48.1
			h-27.1c-5,0-8.6-2-10.8-6.1l-21.4-40.1c-0.9-1.8-2.1-3-3.3-3.8c-1.3-0.8-3.1-1.1-5.4-1.1H301.5z M301.5,68.8h12.1
			c4.1,0,7.5-0.6,10.4-1.7c2.9-1.1,5.2-2.6,7-4.6c1.8-2,3.2-4.3,4-6.9c0.8-2.6,1.2-5.5,1.2-8.5c0-6.1-1.8-10.8-5.5-14.2
			c-3.7-3.4-9.4-5.1-17.1-5.1h-12.1V68.8z"/>
		<path fill="none" stroke="#FFFFFF" stroke-width="1.3625" stroke-miterlimit="10" d="M422.2,142h-30.1V3.9h30.1V142z"/>
		<path fill="none" stroke="#FFFFFF" stroke-width="1.3625" stroke-miterlimit="10" d="M476.1,116.4H524V142h-77.8V3.9h30V116.4z"/>
		<path fill="none" stroke="#FFFFFF" stroke-width="1.3625" stroke-miterlimit="10" d="M659.7,3.9v12.3c0,3.5-0.4,6.3-1.1,8.4
			c-0.7,2.2-1.4,4-2,5.5l-45.1,102.2c-1.2,2.7-2.9,5-5.2,6.9c-2.3,1.9-5.3,2.8-9.1,2.8h-20l46.1-98.9c1.2-2.7,2.6-5.2,4-7.3
			c1.4-2.1,3-4.2,4.7-6.2h-56.8c-0.8,0-1.6-0.2-2.3-0.5c-0.7-0.3-1.4-0.8-2-1.4c-0.6-0.6-1-1.3-1.4-2.1c-0.4-0.8-0.5-1.6-0.5-2.4
			V3.9H659.7z"/>
		<path fill="none" stroke="#FFFFFF" stroke-width="1.3625" stroke-miterlimit="10" d="M673.4,72.5h47.9v23.7h-47.9V72.5z"/>
		<path fill="none" stroke="#FFFFFF" stroke-width="1.3625" stroke-miterlimit="10" d="M781.5,143.6c-6.9,0-13.1-1-18.8-2.9
			c-5.7-2-10.5-4.7-14.6-8.3c-4-3.6-7.2-7.9-9.4-12.9c-2.2-5.1-3.3-10.7-3.3-16.9c0-3.7,0.4-7.3,1.2-10.6c0.8-3.3,2.1-6.4,3.8-9.1
			c1.7-2.8,4-5.2,6.7-7.3c2.7-2.1,6.1-4,10-5.4c-5.9-2.8-10.3-6.8-13.2-11.9c-2.9-5.1-4.3-11.1-4.3-18.2c0-5.4,1-10.4,3.1-14.9
			c2.1-4.6,5-8.6,8.7-11.9c3.7-3.4,8.1-6,13.2-7.9c5.1-1.9,10.7-2.9,16.8-2.9c6.1,0,11.7,1,16.8,2.9c5.1,1.9,9.5,4.6,13.2,7.9
			c3.7,3.4,6.6,7.3,8.7,11.9c2.1,4.6,3.1,9.6,3.1,14.9c0,7.1-1.4,13.2-4.3,18.2c-2.9,5.1-7.3,9-13.1,11.9c3.8,1.5,7.1,3.3,9.9,5.4
			c2.7,2.1,5,4.6,6.7,7.3c1.7,2.8,3,5.8,3.9,9.1c0.8,3.3,1.2,6.8,1.2,10.6c0,6.2-1.1,11.8-3.3,16.9c-2.2,5.1-5.3,9.4-9.4,12.9
			c-4,3.6-8.9,6.3-14.6,8.3C794.6,142.6,788.4,143.6,781.5,143.6z M781.5,121.4c3.1,0,5.7-0.5,8-1.5c2.2-1,4.1-2.4,5.5-4.1
			c1.4-1.7,2.5-3.8,3.2-6.2c0.7-2.4,1-4.9,1-7.6c0-3-0.3-5.7-0.9-8.2c-0.6-2.5-1.6-4.6-2.9-6.3c-1.4-1.7-3.2-3.1-5.5-4.1
			c-2.3-1-5.1-1.5-8.5-1.5c-3.4,0-6.2,0.5-8.5,1.5c-2.3,1-4.1,2.3-5.5,4.1c-1.4,1.7-2.3,3.8-2.9,6.3c-0.6,2.5-0.9,5.2-0.9,8.2
			c0,2.7,0.3,5.3,1,7.6c0.7,2.4,1.7,4.4,3.2,6.2c1.4,1.7,3.3,3.1,5.5,4.1C775.7,120.9,778.4,121.4,781.5,121.4z M781.5,59.5
			c3.1,0,5.6-0.5,7.5-1.6c1.9-1.1,3.5-2.5,4.6-4.3c1.1-1.8,1.9-3.8,2.3-6.1c0.4-2.3,0.6-4.6,0.6-7c0-2.1-0.3-4.2-0.8-6.3
			c-0.5-2-1.4-3.8-2.6-5.4c-1.2-1.5-2.8-2.8-4.7-3.7c-1.9-0.9-4.2-1.4-7-1.4c-2.8,0-5.1,0.5-7,1.4c-1.9,0.9-3.4,2.2-4.7,3.7
			c-1.2,1.5-2.1,3.3-2.6,5.4c-0.5,2-0.8,4.1-0.8,6.3c0,2.4,0.2,4.7,0.6,7c0.4,2.3,1.2,4.3,2.3,6.1c1.1,1.8,2.7,3.2,4.6,4.3
			C775.9,59,778.4,59.5,781.5,59.5z"/>
	</g>
</g>
</svg>
