<?xml version="1.0" encoding="utf-8"?>
<!-- Generator: Adobe Illustrator 21.1.0, SVG Export Plug-In . SVG Version: 6.00 Build 0)  -->
<svg version="1.1" id="Layer_1" xmlns="http://www.w3.org/2000/svg" xmlns:xlink="http://www.w3.org/1999/xlink" x="0px" y="0px"
	 viewBox="0 0 500 500" style="enable-background:new 0 0 500 500;" xml:space="preserve">
<style type="text/css">
	.st0{fill:none;stroke:#F5F5F5;stroke-width:20;stroke-miterlimit:10;}
</style>
<g>
	<path class="st0" d="M129.3,84.8c7.1,17.1-1,36.7-18.1,43.8c-17.1,7.1-36.7-1-43.8-18.1L36.5,36.1c0-0.1,0.1-0.2,0.2-0.2l73.2,30.3
		C118.4,69.3,125.6,75.8,129.3,84.8z"/>
	<path class="st0" d="M166.4,134.8c1.1,14.3-5.9,26.2-19.3,29.9c-4,1.1-8.2,1.4-12.5,1c-7.1-0.7-9,7.7-2.9,13.3c0,0,0.1,0.1,0.1,0.1
		l224.1,205.6c0.3,0.3,0.6,0.5,0.8,0.7l78.1,71.7c19.4,17.8,39.5-2.2,21.7-21.7L385,357.5c-0.3-0.3-0.5-0.6-0.8-0.9L178.6,132.4
		c0,0-0.1-0.1-0.1-0.1C173.4,126.9,165.9,128.5,166.4,134.8z"/>
</g>
<g>
	<path class="st0" d="M415.2,129.3c-17.1,7.1-36.7-1-43.8-18.1c-7.1-17.1,1-36.7,18.1-43.8l74.4-30.8c0.1,0,0.2,0.1,0.2,0.2
		l-30.3,73.2C430.7,118.4,424.2,125.6,415.2,129.3z"/>
	<g>
		<path class="st0" d="M287.9,251.6l79.6-73.1c0,0,0.1-0.1,0.1-0.1c5.4-5,3.8-12.5-2.5-12c-14.3,1.1-26.2-5.9-29.9-19.3
			c-1.1-4-1.4-8.2-1-12.5c0.7-7.1-7.7-9-13.3-2.9c0,0-0.1,0.1-0.1,0.1l-71.4,77.8L287.9,251.6z"/>
		<path class="st0" d="M210.8,251.7l-95.6,104.2c-0.3,0.3-0.5,0.6-0.7,0.8l-71.7,78.1c-17.8,19.5,2.2,39.5,21.7,21.7l78.1-71.6
			c0.3-0.3,0.6-0.5,0.9-0.8L249.3,287L210.8,251.7z"/>
	</g>
</g>
</svg>
