<svg id="Layer_1" data-name="Layer 1" xmlns="http://www.w3.org/2000/svg" viewBox="0 0 285.04 529.96"><defs><style>.cls-1{fill:#603913;}.cls-2{fill:#231f20;}.cls-3{fill:#8b5e3c;}.cls-4{fill:#a97c50;}</style></defs><title>FAQ</title><path class="cls-1" d="M260,170.44c5.19,53,.47,112.53,1.52,165.88.27,14,1,27.94,1.53,41.91,1.35,38.14.68,76.36-1.12,114.48C261.85,494.59,259,569,260,570.4c1.21,1.76-2.08,122-.21,121.85,11.15-.64,39,.63,50.14,0,.81,0-7.71-110.31-7-110.78,1.63-1.08,2.78-87.87,2.85-90.13l3.42-107.48c.59-18.37,1.17-36.76.3-55.11-.35-7.46-.94-14.89-1.45-22.34a999,999,0,0,1,.21-139.06c-5-4.08-11,4.29-17,4.1-3.73-.12-7-3.62-10.71-3.66-2.18,0-4.23,1.14-6.3,2a21.6,21.6,0,0,1-14.23.68" transform="translate(-143.87 -164.37)"/><path class="cls-2" d="M258.14,170.44c5.89,60.91-.35,122.22,2.05,183.26,1.28,32.48,2.08,64.89,1.35,97.39-.41,18.23-1.3,36.44-2,54.66-.57,15.69-1.11,31.38-1.47,47.08-.12,5.23-.33,10.49-.14,15.72a12,12,0,0,0,.08,1.47c.05.32.38,1.93.2,1,.08.43,0-.52,0-.08,0,.18,0,.39.05.58,0,.57,0,1.15.06,1.72.3,11.18-.05,22.4-.2,33.58-.22,16.13-.49,32.26-.67,48.39-.13,11.3-.5,22.68,0,34a13.9,13.9,0,0,0,.31,3.22c.74,2.43,3.52,1.64,5.52,1.6,10.52-.24,21.06.16,31.58.27,4.7.06,9.45.18,14.15-.1,1.95-.12,2.74-.78,2.79-2.64.09-3.42-.3-6.9-.51-10.31-.88-14.3-1.91-28.6-2.92-42.89-1-14.64-2.08-29.28-3-43.92-.24-3.86-.56-7.73-.64-11.6a3.29,3.29,0,0,0,0-1c-.24-.49.58.47,0,.22s-.61,1.67-.16.41c.06-.17.21-.44.25-.55a12.41,12.41,0,0,0,.48-3.33c1.18-13,1.16-26.21,1.46-39.28q.5-21.19.81-42.41c.36-22.35,1.34-44.71,2.05-67.06l1.56-49c.51-16.28,1-32.59.33-48.87-.62-16.1-2.15-32.16-2.88-48.26s-1.07-32.19-1-48.29q.08-24.42,1.34-48.8.32-6,.69-11.92c.11-1.72.23-3.45.35-5.18s.4-3-1.29-4c-4.24-2.62-8.69.58-12.43,2.58-3,1.59-5.22,2-8.38.55-2.36-1.11-4.64-2.56-7.35-2.58-3.06,0-5.69,1.78-8.53,2.65a20.36,20.36,0,0,1-11.5.08,1.87,1.87,0,0,0-1,3.61,23.94,23.94,0,0,0,14.36-.36c2.29-.81,4.64-2.44,7.15-2.17,2.27.24,4.31,1.78,6.38,2.65,3.46,1.46,6.58.89,9.87-.73,2.89-1.43,6.84-5,10-2.68l-.93-1.62q-3.3,46.64-2.27,93.42c.68,30.66,4.14,61.22,3.95,91.89-.32,49.07-3.49,98.11-4.29,147.18q-.34,21.17-.83,42.32c-.29,12.16-.27,24.45-1.41,36.57,0,.3,0,.61-.09.91a2.77,2.77,0,0,0,0,.37c-.08.76,0,1,.21.13a10.09,10.09,0,0,0-.58,2.55c.06,3.56.35,7.13.58,10.68.85,13.6,1.83,27.19,2.79,40.77,1,14.16,2,28.32,2.92,42.48.27,4.28.57,8.56.74,12.84a10.08,10.08,0,0,0,.05,2.58c-.26-.63,2.19-1.15,1-1.62a8.24,8.24,0,0,0-2.42.08c-2.24.06-4.48.07-6.72.06-10.36,0-20.72-.36-31.09-.36-2.09,0-4.18,0-6.27.07a10.22,10.22,0,0,0-2.35.09c-1.42.44,1.68,1,1.24,1.16,0,0-.05-.24-.08-.54q-.08-.9-.12-1.8c-.5-10.49-.18-21.06-.07-31.56.28-27.06,1.16-54.15.95-81.23a33.86,33.86,0,0,0-.51-6.91c.06.27.16.81.12,0,0-.64-.06-1.28-.07-1.92,0-2.28,0-4.56,0-6.84.19-14.64.72-29.29,1.22-43.93,1.47-42.72,3.42-85.39,2.32-128.16-.4-15.39-1.26-30.77-1.71-46.17-.41-14.32-.35-28.65-.16-43,.4-29.34,1.41-58.69.78-88-.3-13.69-1-27.38-2.28-41-.23-2.38-4-2.4-3.75,0Z" transform="translate(-143.87 -164.37)"/><path class="cls-3" d="M187.67,287.68q87.92-2.15,175.87-.27a14.46,14.46,0,0,1,6,1c2.6,1.27,4.16,3.93,5.68,6.4a105.39,105.39,0,0,0,17.39,21.36L374.25,333a20.08,20.08,0,0,1-4.38,3.32,19.7,19.7,0,0,1-7.23,1.53c-20.62,1.72-41.36,3.44-62,1.6-9-.8-17.95-2.28-26.91-3.5a459.29,459.29,0,0,0-79.32-3.79c-1.56.06-3.26.09-4.53-.83s-1.85-2.85-2.18-4.54a128.31,128.31,0,0,1-1.42-39.11" transform="translate(-143.87 -164.37)"/><path class="cls-2" d="M187.67,289.55q43.71-1.05,87.43-1.13t87.44.85a19,19,0,0,1,5.31.49,7.32,7.32,0,0,1,3.52,2.59c2.15,2.66,3.72,5.82,5.69,8.62a108.54,108.54,0,0,0,14.25,16.54v-2.65q-9.27,8.49-18.54,17a14.94,14.94,0,0,1-4.4,3.12,18.34,18.34,0,0,1-5.29,1q-6.29.54-12.58,1c-16.64,1.27-33.41,2.1-50.07.59-8.27-.75-16.47-2.07-24.69-3.2s-16.67-2.1-25-2.8a457.84,457.84,0,0,0-49.83-1.47c-2.06.05-4.12.12-6.17.19-1.46.06-3.33.31-4.24-1.08s-1-3.28-1.26-4.81c-.35-2-.66-4-.9-6a128.25,128.25,0,0,1-.67-24.7c.14-2,.33-4,.56-6a1.88,1.88,0,0,0-1.87-1.88,1.92,1.92,0,0,0-1.88,1.88,130.07,130.07,0,0,0-.44,25.42c.34,4.19.89,8.38,1.62,12.52.63,3.49,1.51,7.43,5.57,8.24a25,25,0,0,0,5.73.08q3.21-.11,6.42-.17,6.42-.12,12.84-.07,13,.12,25.9,1t25.81,2.41c8.58,1.05,17.1,2.45,25.68,3.49,17.2,2.1,34.47,1.73,51.73.53,4.38-.3,8.76-.65,13.13-1,3.89-.32,8.13-.27,11.76-1.86s6.41-4.84,9.25-7.43l9.74-8.94,4.78-4.38a1.9,1.9,0,0,0,0-2.65,105.15,105.15,0,0,1-13.15-15.05c-1.83-2.56-3.43-5.25-5.15-7.88-1.61-2.45-3.56-4.67-6.4-5.66-3.18-1.1-6.9-.76-10.22-.82q-5.49-.12-11-.21-11-.19-22-.32-44.22-.51-88.44,0-25,.29-50,.89c-2.41.06-2.41,3.81,0,3.75Z" transform="translate(-143.87 -164.37)"/><path class="cls-4" d="M343.76,408.14l-3,31.77a2.39,2.39,0,0,1-2.87,2.71L272,444.46c-7.53.21-15.07.42-22.6.34-9.39-.1-18.76-.65-28.14-1.2l-54.56-3.2a10.59,10.59,0,0,1-4.23-.85c-1.78-.93-2.85-2.78-3.81-4.54q-5.91-10.74-11.36-21.71a12.73,12.73,0,0,1-1.57-4.58c-.16-2.15.76-4.21,1.67-6.17l5.67-12.27c.55-1.18,1.25-2.49,2.51-2.82a4.53,4.53,0,0,1,2.27.21c11.53,3,23.56,3.25,35.47,3.49l127.34,2.55c4.59.09,9.3.2,13.57,1.89s8.1,5.29,8.69,9.85" transform="translate(-143.87 -164.37)"/><path class="cls-2" d="M341.88,408.14l-2.15,23.08-.5,5.46c-.09.91-.18,1.82-.26,2.73-.05.62.07,1.14-.53,1.31a11.65,11.65,0,0,1-2.51.09l-3,.08-5.75.16L281,442.34c-15.15.42-30.27.87-45.42.17s-30.37-1.73-45.56-2.62l-22.82-1.34c-1.48-.09-3.17-.06-4.41-1a10.69,10.69,0,0,1-2.51-3.47c-1.81-3.29-3.58-6.61-5.33-9.93s-3.46-6.67-5.14-10a23.2,23.2,0,0,1-2-4.59,7.62,7.62,0,0,1,.72-4.84c1.41-3.36,3.06-6.64,4.59-9.95.69-1.48,1.3-3.05,2.11-4.48.33-.58.59-1,1.3-1a14.38,14.38,0,0,1,2.72.66c14.39,3.37,29.42,3,44.11,3.3l45.94.92,45.94.92,23,.46c6.28.13,13.59-.28,18.87,3.76a10.3,10.3,0,0,1,4.09,6.66,1.88,1.88,0,0,0,2.3,1.31,1.93,1.93,0,0,0,1.31-2.31c-1-6.45-7-10.66-12.95-12.08a51,51,0,0,0-10.68-1l-11.93-.24-48.44-1-47.93-1c-8-.16-16-.29-24-.49a163.86,163.86,0,0,1-23-1.75c-1.72-.29-3.43-.62-5.13-1-1.89-.43-4-1.32-5.91-.65a5.87,5.87,0,0,0-3.14,3.24c-.84,1.69-1.59,3.43-2.39,5.14-1.57,3.4-3.38,6.78-4.65,10.3a10.42,10.42,0,0,0-.6,5.21,17.63,17.63,0,0,0,1.93,5c3.57,7.17,7.26,14.28,11.14,21.28,1.6,2.89,3.54,5.42,7,6,3.77.67,7.79.57,11.6.8q24.06,1.41,48.11,2.82c7.89.46,15.79.89,23.69,1s15.73-.07,23.6-.29L319.45,445l12-.33,5.49-.15c1.81,0,3.86-.06,4.95-1.77.9-1.4.83-3.25,1-4.84l.55-6,1.11-11.91,1.11-11.91c.22-2.4-3.53-2.39-3.75,0Z" transform="translate(-143.87 -164.37)"/><path class="cls-4" d="M406.62,462.07l-3,31.77a2.39,2.39,0,0,1-2.87,2.72l-65.92,1.84c-7.53.21-15.07.42-22.6.34-9.39-.1-18.76-.65-28.13-1.2l-54.57-3.21a10.29,10.29,0,0,1-4.23-.85c-1.78-.92-2.85-2.77-3.81-4.53q-5.91-10.74-11.36-21.72a12.62,12.62,0,0,1-1.57-4.57c-.16-2.15.77-4.22,1.67-6.17L216,444.22c.54-1.18,1.24-2.5,2.5-2.82a4.53,4.53,0,0,1,2.27.2c11.53,3,23.57,3.25,35.47,3.49l127.34,2.55c4.59.09,9.3.21,13.58,1.89s8.09,5.3,8.69,9.86" transform="translate(-143.87 -164.37)"/><path class="cls-2" d="M404.74,462.07l-2.14,23.09-.51,5.46c-.09.91-.17,1.82-.26,2.73-.05.62.07,1.14-.53,1.31a11,11,0,0,1-2.5.08l-3,.09-5.74.16-46.2,1.28c-15.15.42-30.27.87-45.42.17s-30.37-1.72-45.56-2.61l-22.82-1.34c-1.48-.09-3.17-.07-4.41-1a10.41,10.41,0,0,1-2.5-3.47c-1.82-3.28-3.59-6.6-5.34-9.93s-3.46-6.67-5.14-10a22.87,22.87,0,0,1-2-4.58,7.61,7.61,0,0,1,.72-4.84c1.41-3.36,3.06-6.64,4.59-9.95.69-1.49,1.31-3.05,2.11-4.48.33-.58.59-1,1.31-1a14.47,14.47,0,0,1,2.71.66c14.39,3.37,29.43,3,44.11,3.3l45.94.92,45.94.92,23,.46c6.28.12,13.59-.29,18.87,3.76a10.27,10.27,0,0,1,4.09,6.66,1.88,1.88,0,0,0,2.3,1.31,1.92,1.92,0,0,0,1.31-2.31c-1-6.46-7-10.67-13-12.08a50.36,50.36,0,0,0-10.68-1c-4-.09-8-.16-11.93-.24l-48.43-1-47.94-1c-8-.16-16-.3-24-.49a162.49,162.49,0,0,1-23-1.76q-2.58-.42-5.13-1c-1.89-.43-4-1.32-5.91-.66a5.92,5.92,0,0,0-3.14,3.25c-.84,1.69-1.59,3.43-2.38,5.14-1.57,3.4-3.39,6.77-4.66,10.3a10.37,10.37,0,0,0-.6,5.2,17.88,17.88,0,0,0,1.93,5c3.57,7.17,7.26,14.27,11.14,21.28,1.6,2.89,3.54,5.42,7,6,3.76.67,7.78.57,11.6.79l48.1,2.83c7.89.46,15.79.89,23.69,1s15.74-.06,23.6-.28L382.32,499l12-.33,5.5-.16c1.8,0,3.85-.06,4.94-1.76.9-1.4.83-3.25,1-4.84l.56-6,1.1-11.91,1.11-11.92c.23-2.4-3.53-2.38-3.75,0Z" transform="translate(-143.87 -164.37)"/><path class="cls-3" d="M222.07,236.38q87.92-2.13,175.87-.26a14.3,14.3,0,0,1,6,1c2.6,1.27,4.16,3.94,5.68,6.4A105.73,105.73,0,0,0,427,264.89l-18.39,16.85a19.47,19.47,0,0,1-4.38,3.32A19.71,19.71,0,0,1,397,286.6c-20.62,1.71-41.36,3.43-62,1.59-9-.8-17.95-2.28-26.91-3.49a458.3,458.3,0,0,0-79.32-3.8c-1.56.06-3.26.09-4.53-.82s-1.86-2.86-2.18-4.55a128.3,128.3,0,0,1-1.42-39.11" transform="translate(-143.87 -164.37)"/><path class="cls-2" d="M222.07,238.25q43.71-1,87.43-1.13t87.44.85a19.73,19.73,0,0,1,5.31.49,7.32,7.32,0,0,1,3.52,2.59c2.15,2.66,3.72,5.82,5.69,8.63a108.94,108.94,0,0,0,14.25,16.53v-2.65q-9.27,8.51-18.55,17a14.62,14.62,0,0,1-4.39,3.13,19,19,0,0,1-5.3,1q-6.27.54-12.57,1c-16.64,1.28-33.41,2.1-50.07.59-8.27-.74-16.47-2.06-24.69-3.2s-16.67-2.09-25-2.8a460.38,460.38,0,0,0-49.83-1.47q-3.09.07-6.17.2c-1.46.05-3.33.3-4.24-1.09s-1-3.28-1.26-4.8c-.35-2-.66-4-.91-6a129,129,0,0,1-.66-24.69q.21-3,.56-6a1.88,1.88,0,0,0-1.87-1.88,1.93,1.93,0,0,0-1.88,1.88,130.08,130.08,0,0,0-.44,25.42c.34,4.2.89,8.38,1.62,12.52.63,3.5,1.51,7.44,5.57,8.24a25,25,0,0,0,5.73.09c2.14-.08,4.28-.13,6.42-.17q6.4-.13,12.83-.07,13,.1,25.91.95t25.81,2.42c8.58,1,17.1,2.44,25.68,3.49,17.2,2.09,34.47,1.73,51.73.53,4.38-.31,8.75-.66,13.13-1,3.89-.32,8.13-.27,11.76-1.86s6.41-4.83,9.24-7.43l9.75-8.94,4.78-4.38a1.9,1.9,0,0,0,0-2.65,104.08,104.08,0,0,1-13.15-15.05c-1.83-2.56-3.43-5.25-5.16-7.88-1.6-2.45-3.55-4.66-6.39-5.65-3.18-1.11-6.9-.76-10.22-.83-3.66-.08-7.32-.14-11-.21q-11-.18-22-.31-44.22-.52-88.44,0-25,.28-50,.89c-2.41.06-2.42,3.81,0,3.75Z" transform="translate(-143.87 -164.37)"/><path class="cls-4" d="M361.78,514.76l-2.95,31.77a2.4,2.4,0,0,1-2.87,2.72L290,551.09c-7.53.2-15.06.41-22.59.33-9.39-.1-18.77-.65-28.14-1.2L184.73,547a10.24,10.24,0,0,1-4.22-.85c-1.78-.93-2.85-2.77-3.82-4.53q-5.9-10.74-11.35-21.72a12.87,12.87,0,0,1-1.58-4.58c-.16-2.15.77-4.21,1.67-6.17l5.68-12.27c.55-1.18,1.24-2.49,2.5-2.82a4.69,4.69,0,0,1,2.28.21c11.52,3,23.56,3.25,35.47,3.49l127.33,2.55c4.6.09,9.3.21,13.58,1.89s8.1,5.3,8.69,9.86" transform="translate(-143.87 -164.37)"/><path class="cls-2" d="M359.91,514.76l-2.15,23.08-.51,5.46c-.08.91-.17,1.82-.25,2.73-.06.63.07,1.14-.54,1.32a11,11,0,0,1-2.5.08l-3,.08-5.74.16L299,549c-15.15.42-30.26.87-45.41.17s-30.38-1.72-45.56-2.61l-22.82-1.34c-1.48-.09-3.17-.07-4.41-1a10.69,10.69,0,0,1-2.51-3.47q-2.73-4.94-5.33-9.93t-5.15-10a23.45,23.45,0,0,1-2-4.58,7.68,7.68,0,0,1,.73-4.84c1.41-3.37,3.06-6.64,4.59-9.95.69-1.49,1.3-3.05,2.11-4.48.33-.59.59-1,1.3-1a16.09,16.09,0,0,1,2.72.66c14.39,3.37,29.42,3,44.11,3.3l45.94.92,45.94.93,23,.46c6.28.12,13.59-.29,18.86,3.75a10.24,10.24,0,0,1,4.09,6.66,1.89,1.89,0,0,0,2.31,1.31,1.92,1.92,0,0,0,1.31-2.3c-1-6.46-7-10.67-13-12.09a50.93,50.93,0,0,0-10.67-1l-11.93-.23-48.44-1-47.94-1c-8-.16-16-.29-24-.48a163.87,163.87,0,0,1-23-1.76c-1.72-.28-3.43-.62-5.13-1-1.9-.44-4-1.32-5.92-.66a6,6,0,0,0-3.14,3.24c-.83,1.7-1.59,3.43-2.38,5.15-1.57,3.4-3.38,6.77-4.66,10.29a10.53,10.53,0,0,0-.6,5.21,18,18,0,0,0,1.94,5c3.56,7.16,7.26,14.27,11.13,21.27,1.6,2.9,3.54,5.43,7,6,3.77.68,7.79.58,11.6.8q24.06,1.41,48.11,2.82c7.89.46,15.78.9,23.69,1s15.73-.06,23.59-.28l48.43-1.35,12-.34,5.49-.15c1.81,0,3.85-.06,5-1.77.9-1.39.83-3.24,1-4.84l.55-5.95,1.11-11.92,1.11-11.91c.22-2.4-3.53-2.38-3.75,0Z" transform="translate(-143.87 -164.37)"/><path class="cls-4" d="M361.78,357.19,358.83,389a2.39,2.39,0,0,1-2.87,2.71L290,393.51c-7.53.21-15.06.42-22.59.34-9.39-.1-18.77-.65-28.14-1.2l-54.57-3.2a10.4,10.4,0,0,1-4.22-.85c-1.78-.93-2.85-2.78-3.82-4.54q-5.9-10.74-11.35-21.71a12.94,12.94,0,0,1-1.58-4.58c-.16-2.15.77-4.21,1.67-6.17l5.68-12.27c.55-1.18,1.24-2.49,2.5-2.82a4.57,4.57,0,0,1,2.28.21c11.52,3,23.56,3.25,35.47,3.49l127.33,2.55c4.6.09,9.3.2,13.58,1.89s8.1,5.29,8.69,9.85" transform="translate(-143.87 -164.37)"/><path class="cls-2" d="M359.91,357.19l-2.15,23.08-.51,5.46c-.08.91-.17,1.82-.25,2.73-.06.62.07,1.14-.54,1.31a11.56,11.56,0,0,1-2.5.09l-3,.08-5.74.16L299,391.39c-15.15.42-30.26.87-45.41.17s-30.38-1.73-45.56-2.62l-22.82-1.34c-1.48-.09-3.17-.06-4.41-1a10.69,10.69,0,0,1-2.51-3.47c-1.82-3.29-3.59-6.61-5.33-9.93s-3.46-6.67-5.15-10a23.8,23.8,0,0,1-2-4.59,7.69,7.69,0,0,1,.73-4.84c1.41-3.36,3.06-6.64,4.59-10,.69-1.48,1.3-3,2.11-4.48.33-.58.59-1,1.3-1a14.38,14.38,0,0,1,2.72.66c14.39,3.37,29.42,3,44.11,3.3l45.94.92,45.94.92,23,.46c6.28.13,13.59-.28,18.86,3.76a10.22,10.22,0,0,1,4.09,6.66,1.89,1.89,0,0,0,2.31,1.31,1.93,1.93,0,0,0,1.31-2.31c-1-6.45-7-10.66-13-12.08a50.93,50.93,0,0,0-10.67-1l-11.93-.24-48.44-1-47.94-1c-8-.16-16-.29-24-.49a163.86,163.86,0,0,1-23-1.75c-1.72-.29-3.43-.62-5.13-1-1.9-.43-4-1.32-5.92-.65a5.94,5.94,0,0,0-3.14,3.24c-.83,1.69-1.59,3.43-2.38,5.15-1.57,3.39-3.38,6.77-4.66,10.29a10.53,10.53,0,0,0-.6,5.21,18,18,0,0,0,1.94,5q5.34,10.75,11.13,21.28c1.6,2.89,3.54,5.42,7,6,3.77.67,7.79.57,11.6.8q24.06,1.41,48.11,2.82c7.89.46,15.78.89,23.69,1s15.73-.07,23.59-.29q24.22-.66,48.43-1.35l12-.33,5.49-.15c1.81-.05,3.85-.06,5-1.77.9-1.4.83-3.25,1-4.84l.55-6,1.11-11.91,1.11-11.91c.22-2.4-3.53-2.39-3.75,0Z" transform="translate(-143.87 -164.37)"/><path class="cls-4" d="M371.8,202.75l-2.95,31.77a2.4,2.4,0,0,1-2.87,2.72l-65.92,1.84c-7.53.21-15.07.42-22.6.34-9.39-.1-18.77-.65-28.14-1.2L194.75,235a10.24,10.24,0,0,1-4.22-.85c-1.78-.92-2.85-2.77-3.82-4.53q-5.9-10.74-11.35-21.72a12.62,12.62,0,0,1-1.57-4.57c-.16-2.15.76-4.22,1.67-6.17l5.67-12.27c.55-1.18,1.24-2.5,2.5-2.82a4.57,4.57,0,0,1,2.28.2c11.53,3,23.56,3.25,35.47,3.49l127.33,2.55c4.6.1,9.31.21,13.58,1.89s8.1,5.3,8.69,9.86" transform="translate(-143.87 -164.37)"/><path class="cls-2" d="M369.93,202.75l-2.15,23.09-.51,5.46c-.08.91-.17,1.82-.25,2.73-.06.62.07,1.14-.54,1.31a10.94,10.94,0,0,1-2.5.08l-3,.09-5.75.16L309.05,237c-15.15.42-30.27.87-45.42.17s-30.38-1.72-45.56-2.61l-22.82-1.34c-1.48-.09-3.17-.07-4.41-1a10.62,10.62,0,0,1-2.51-3.48c-1.82-3.28-3.58-6.6-5.33-9.93s-3.46-6.67-5.15-10a23.41,23.41,0,0,1-2-4.58,7.61,7.61,0,0,1,.72-4.84c1.41-3.36,3.06-6.64,4.59-10,.69-1.49,1.3-3,2.11-4.48.33-.58.59-1,1.3-1a14.38,14.38,0,0,1,2.72.66c14.39,3.37,29.42,3,44.11,3.3l45.94.92,45.94.92,23,.46c6.28.12,13.59-.29,18.86,3.76a10.19,10.19,0,0,1,4.09,6.66,1.89,1.89,0,0,0,2.31,1.31,1.93,1.93,0,0,0,1.31-2.31c-1-6.46-7-10.67-13-12.08a50.2,50.2,0,0,0-10.67-1l-11.93-.24-48.44-1-47.93-1c-8-.16-16-.3-24-.49a162.38,162.38,0,0,1-23-1.76q-2.58-.42-5.13-1c-1.89-.43-4-1.32-5.91-.66a5.92,5.92,0,0,0-3.14,3.25c-.84,1.69-1.59,3.43-2.39,5.14-1.57,3.4-3.38,6.77-4.66,10.3a10.47,10.47,0,0,0-.59,5.2,17.58,17.58,0,0,0,1.93,5q5.34,10.75,11.14,21.28c1.59,2.89,3.53,5.42,7,6,3.77.67,7.79.57,11.6.79l48.11,2.83c7.89.46,15.79.89,23.69,1s15.73-.06,23.59-.28l48.43-1.35,12-.33,5.49-.16c1.81,0,3.85-.06,4.95-1.76.9-1.4.83-3.25,1-4.84l.55-6,1.11-11.91,1.11-11.92c.22-2.4-3.53-2.38-3.75,0Z" transform="translate(-143.87 -164.37)"/></svg>