<?xml version="1.0" encoding="utf-8"?>
<!-- Generator: Adobe Illustrator 21.1.0, SVG Export Plug-In . SVG Version: 6.00 Build 0)  -->
<svg version="1.1" id="Layer_1" xmlns="http://www.w3.org/2000/svg" xmlns:xlink="http://www.w3.org/1999/xlink" x="0px" y="0px"
	 viewBox="0 0 1000 737.2" style="enable-background:new 0 0 1000 737.2;" xml:space="preserve">
<style type="text/css">
	.st0{fill:#136D3B;}
	.st1{fill:#3BAABC;}
	.st2{fill:#297284;}
	.st3{fill:#236577;}
	.st4{fill:#074A66;}
	.st5{fill:#05334B;}
	.st6{fill:#2B1B0E;}
	.st7{fill:#60C9D9;}
</style>
<path class="st0" d="M967.9,475H32.1C14.4,475,0,460.6,0,442.9l0-3.7c0-17.7,14.4-32.1,32.1-32.1h935.8c17.7,0,32.1,14.4,32.1,32.1
	v3.7C1000,460.6,985.6,475,967.9,475z"/>
<path class="st1" d="M482,447.4H207.9c-8.9,0-16-7.2-16-16v-1.8c0-8.9,7.2-16,16-16H482c8.9,0,16,7.2,16,16v1.8
	C498.1,440.2,490.9,447.4,482,447.4z"/>
<g>
	<g>
		<g>
			<path class="st2" d="M599.4,12c-5-6.6-13.1-6.6-18,0L276.8,417.2c-5,6.6-2.3,12,6,12H898c8.2,0,10.9-5.4,6-12L599.4,12z"/>
		</g>
		<g>
			<path class="st3" d="M364.2,171.9c-5.3-6.3-13-5.6-17.2,1.5L206.8,416.3c-4.1,7.1-0.8,13,7.5,13h351.5c8.2,0,10.7-5.2,5.3-11.5
				L364.2,171.9z"/>
		</g>
		<g>
			<g>
				<path class="st4" d="M606.1,216c-4.5-6.9-12.5-7.4-17.7-1L420,418.5c-5.3,6.4-2.8,11.6,5.4,11.6h304.4c8.2,0,11.3-5.7,6.8-12.6
					L606.1,216z"/>
			</g>
			<g>
				<path class="st4" d="M398.4,331.9c-5.9-5.8-15.5-5.8-21.4,0l-89,87.6c-5.9,5.8-3.9,10.5,4.3,10.5h190.8c8.2,0,10.2-4.7,4.3-10.5
					L398.4,331.9z"/>
			</g>
		</g>
		<g>
			<path class="st5" d="M220.5,311.3c-6.9-4.5-17.3-3.2-23,2.7L97.4,419.2c-5.7,6-3.6,10.9,4.7,10.9h287.8c8.2,0,9.3-3.7,2.4-8.1
				L220.5,311.3z"/>
		</g>
	</g>
</g>
<path class="st6" d="M995.4,458.1c-5.9,10.1-16.9,16.9-29.3,16.9H33.9c-12.5,0-23.5-6.8-29.3-16.9"/>
<path class="st6" d="M1000,441.1"/>
<path class="st1" d="M313.5,447v274.1c0,8.9-7.2,16-16,16h-40.2c-8.9,0-16-7.2-16-16V447c0-8.9,7.2-16,16-16h40.2
	C306.3,431,313.5,438.1,313.5,447z"/>
<path class="st7" d="M258.9,553.7v145.9c0,2,1.6,3.5,3.5,3.5h0.4c2,0,3.5-1.6,3.5-3.5V553.7c0-2-1.6-3.5-3.5-3.5h-0.4
	C260.5,550.1,258.9,551.7,258.9,553.7z"/>
<path class="st7" d="M291.1,591.4l0.2,65.8c0,2.1,1.7,3.8,3.8,3.8l0,0c2.1,0,3.8-1.7,3.8-3.8l-0.2-65.8c0-2.1-1.7-3.8-3.8-3.8l0,0
	C292.8,587.7,291.1,589.4,291.1,591.4z"/>
<path class="st7" d="M275.3,459.1l0.2,65.8c0,2.1,1.7,3.8,3.8,3.8l0,0c2.1,0,3.8-1.7,3.8-3.8l-0.2-65.8c0-2.1-1.7-3.8-3.8-3.8l0,0
	C277,455.4,275.3,457.1,275.3,459.1z"/>
<g>
	<path class="st7" d="M313.5,722.2L313.5,722.2C313.5,722.2,313.5,722.2,313.5,722.2L313.5,722.2c0,8.3-6.7,15-15,15h-6.1
		c-8.2,0-21.8,0-30,0h-6.1c-8.3,0-15-6.7-15-15l0,0c0,0,0,0,0,0l0,0"/>
</g>
</svg>
