<?xml version="1.0" encoding="utf-8"?>
<!-- Generator: Adobe Illustrator 21.1.0, SVG Export Plug-In . SVG Version: 6.00 Build 0)  -->
<svg version="1.1" id="Layer_1" xmlns="http://www.w3.org/2000/svg" xmlns:xlink="http://www.w3.org/1999/xlink" x="0px" y="0px"
	 viewBox="0 0 500 500" style="enable-background:new 0 0 500 500;" xml:space="preserve">
<style type="text/css">
	.st0{fill:#FDE160;}
	.st1{fill:#F7BE5B;}
</style>
<circle class="st0" cx="250" cy="250" r="135"/>
<g>
	<path class="st1" d="M129.2,354.6l-15.7,70.9c-1.4,6.5,5.6,11.6,11.3,8.2l62.5-36.8c5.3-3.1,4.9-10.8-0.6-13.4
		c-16.8-8-31.8-19-44.4-32.4C138,346.6,130.5,348.6,129.2,354.6z"/>
	<path class="st1" d="M250,102.2c9.5,0,18.8,0.9,27.8,2.6c6,1.2,10.9-4.9,8.5-10.5l-29-66.6c-2.7-6.1-11.3-6.1-14,0l-28.9,66.4
		c-2.4,5.6,2.3,11.7,8.3,10.6C231.6,103.1,240.7,102.2,250,102.2z"/>
	<path class="st1" d="M250,397.8c-9.5,0-18.8-0.9-27.8-2.6c-6-1.2-10.9,4.9-8.5,10.5l29,66.6c2.7,6.1,11.3,6.1,14,0l28.9-66.4
		c2.4-5.6-2.3-11.7-8.3-10.6C268.4,396.9,259.3,397.8,250,397.8z"/>
	<path class="st1" d="M396.5,269c-2.4,18.8-8.4,36.5-17.1,52.4c-2.9,5.3,1.4,11.8,7.4,11.2l72.3-7c6.6-0.6,9.3-8.9,4.3-13.3
		l-54.3-48C404.6,260.2,397.3,262.9,396.5,269z"/>
	<path class="st1" d="M312.2,397.2l62.6,36.9c5.7,3.4,12.7-1.7,11.3-8.2l-15.7-70.8c-1.3-6-8.8-8-13-3.5
		c-12.6,13.3-27.7,24.3-44.5,32.2C307.3,386.4,306.9,394.1,312.2,397.2z"/>
	<path class="st1" d="M90.8,263.6l-54.4,48.1c-5,4.4-2.3,12.6,4.3,13.3l72.1,6.9c6.1,0.6,10.4-5.9,7.5-11.2
		c-8.7-15.9-14.6-33.6-16.9-52.4C102.6,262.3,95.4,259.6,90.8,263.6z"/>
	<path class="st1" d="M113.2,167.4l-72.3,7c-6.6,0.6-9.3,8.9-4.3,13.3l54.3,48c4.6,4,11.8,1.3,12.6-4.7c2.4-18.8,8.4-36.5,17.1-52.4
		C123.5,173.3,119.2,166.9,113.2,167.4z"/>
	<path class="st1" d="M187.8,102.8l-62.6-36.9c-5.7-3.4-12.7,1.7-11.3,8.2l15.7,70.8c1.3,6,8.8,8,13,3.5
		c12.6-13.3,27.7-24.3,44.5-32.2C192.7,113.6,193.1,105.9,187.8,102.8z"/>
	<path class="st1" d="M370.8,145.4l15.7-70.9c1.4-6.5-5.6-11.6-11.3-8.2l-62.5,36.8c-5.3,3.1-4.9,10.8,0.6,13.4
		c16.8,8,31.8,19,44.4,32.4C362,153.4,369.5,151.4,370.8,145.4z"/>
	<path class="st1" d="M379.7,179.2c8.7,15.9,14.6,33.6,16.9,52.4c0.8,6.1,8,8.8,12.6,4.8l54.4-48.1c5-4.4,2.3-12.6-4.3-13.3
		l-72.1-6.9C381.1,167.4,376.8,173.9,379.7,179.2z"/>
</g>
</svg>
