<svg id="Layer_1" data-name="Layer 1" xmlns="http://www.w3.org/2000/svg" viewBox="0 0 244 78.6"><defs><style>.cls-1{fill:#8a4d2f;}.cls-2{fill:#bc6a45;}.cls-3{isolation:isolate;font-size:52px;font-family:CarnivaleeFreakshow, Carnivalee Freakshow;}</style></defs><title>log</title><path class="cls-1" d="M380.8,435.9h-220a12,12,0,0,1-12-12V369.3a12,12,0,0,1,12-12h220a12,12,0,0,1,12,12v54.6A12,12,0,0,1,380.8,435.9Z" transform="translate(-148.8 -357.3)"/><path class="cls-2" d="M376.5,433.5H165.1a11.46,11.46,0,0,1-11.5-11.3V370.9a11.46,11.46,0,0,1,11.5-11.3H376.5A11.46,11.46,0,0,1,388,370.9v51.3A11.46,11.46,0,0,1,376.5,433.5Z" transform="translate(-148.8 -357.3)"/><text class="cls-3" transform="translate(74.57 55.17)">Login</text></svg>