<svg id="Layer_1" data-name="Layer 1" xmlns="http://www.w3.org/2000/svg" viewBox="0 0 619.95 229.56"><defs><style>.cls-1{fill:#fff;}.cls-2{font-size:35.23px;font-family:Cornerstone;}.cls-3{fill:#86b506;}.cls-4{fill:#5f9905;}</style></defs><title>Panels</title><rect class="cls-1" x="114.02" y="47.62" width="435.07" height="134.32" rx="50.68"/><text class="cls-2" transform="translate(338.23 128.14)">Login</text><path class="cls-3" d="M232.83,131.56a0,0,0,0,0,0,0A80.27,80.27,0,0,1,227.1,149s0,0,0,0c-.31.68-.62,1.35-1,2a0,0,0,0,1,0,0,81.94,81.94,0,0,1-6.35,10.69l0,0-.66.92,0,0c-1.34,1.85-2.76,3.66-4.28,5.43A81.74,81.74,0,0,1,201,180.89h0s0,0,0,0a81.77,81.77,0,0,1-99.28-2.17c-.77-.6-1.54-1.23-2.29-1.88A81.91,81.91,0,0,1,83.56,158.6c-.33-.52-.65-1-1-1.57a81.72,81.72,0,0,1-8-17.95,81.15,81.15,0,0,1-2.13-8.39l0-.19a81.93,81.93,0,0,1,4.09-45.58,80.33,80.33,0,0,1,10.27-18.6c.24-.34.51-.68.76-1q1.48-2,3.11-3.85a81.73,81.73,0,0,1,90-23.63h0a81.87,81.87,0,0,1,52.2,93.74Z"/><path class="cls-4" d="M140.34,82.58a11.45,11.45,0,0,1-6.43,2l-56.76.33a80.34,80.34,0,0,1,10.28-18.6c.24-.34.51-.68.76-1L134.67,65a11.17,11.17,0,0,1,4.7,1l.49.23C144.54,68.61,152.24,74.32,140.34,82.58Z"/><path class="cls-4" d="M183,101.88a23.33,23.33,0,0,1-9.59,2.05l-101.24.58a81.3,81.3,0,0,1,5-19.6l97.47-.56a24,24,0,0,1,7.75,1.21C189.34,87.92,200.8,93.6,183,101.88Z"/><path class="cls-4" d="M133.18,192.62a81.49,81.49,0,0,1-31.51-15.53l22.66-.13a13.21,13.21,0,0,1,5.69,1.22C134.73,180.36,142.25,185.38,133.18,192.62Z"/><path class="cls-4" d="M233.5,129.92a80.5,80.5,0,0,1-5.74,17.38c-.3.69-.63,1.37-1,2l-26.3-.53L159.9,148a13.27,13.27,0,0,1-5.64-1.36c-5.06-2.5-13.31-8.42-.09-16.33a13.38,13.38,0,0,1,7.08-1.84Z"/><path class="cls-4" d="M220.43,160.06c-.22.32-.45.64-.68.95-1.33,1.85-2.76,3.67-4.28,5.43a81.85,81.85,0,0,1-13.85,12.81l-41.54-.84a13.35,13.35,0,0,1-5.65-1.36c-5.06-2.5-13.31-8.42-.08-16.33a13.42,13.42,0,0,1,7.07-1.85l37.84.77Z"/><path class="cls-4" d="M227.76,147.3c-.3.69-.63,1.37-1,2a82.41,82.41,0,0,1-6.37,10.72c-.22.32-.45.64-.68.95L198,160.42c.45-.26.86-.52,1.24-.78,5.68-3.95,3.51-8.26,1.24-10.83a15.54,15.54,0,0,0-2.56-2.32Z"/><path class="cls-4" d="M117.66,140.69c-.65,3,.64,6.08-7.23,6.6-8.6.56-7.23,4.91-10.33,5.38-3.76.57-1.37-1-12.53-4a28.68,28.68,0,0,0-9.82-1,79.3,79.3,0,0,1-3.2-8.59,81.15,81.15,0,0,1-2.13-8.39l0-.19,1-.12c7.53-.8,6.85-1.18,13.74-.73,6.5.42,9.55-2.91,15.26-1.48L111,131a5,5,0,0,1,.71.28l6.36,3C120.8,137,118.18,138.22,117.66,140.69Z"/><path class="cls-4" d="M221.86,71c-.61,5.55.49,9.5-1.74,10-3.76.9-8.19-10-19.36-14.92-9-4-11.52.75-20.62-3.14-8.21-3.51-16.51-11.77-18.37-18.35a91.78,91.78,0,0,1,18.6-6.71l.25-.06h0A82.26,82.26,0,0,1,221.86,71Z"/></svg>