<?xml version="1.0" encoding="UTF-8" standalone="no"?>
<!-- Created with Inkscape (http://www.inkscape.org/) -->

<svg
   version="1.1"
   id="svg2"
   xml:space="preserve"
   width="666.66669"
   height="666.66669"
   viewBox="0 0 666.66669 666.66669"
   sodipodi:docname="FinalScheme.ai"
   xmlns:inkscape="http://www.inkscape.org/namespaces/inkscape"
   xmlns:sodipodi="http://sodipodi.sourceforge.net/DTD/sodipodi-0.dtd"
   xmlns="http://www.w3.org/2000/svg"
   xmlns:svg="http://www.w3.org/2000/svg"><defs
     id="defs6"><clipPath
       clipPathUnits="userSpaceOnUse"
       id="clipPath16"><path
         d="M 0,500 H 500 V 0 H 0 Z"
         id="path14" /></clipPath></defs><sodipodi:namedview
     id="namedview4"
     pagecolor="#ffffff"
     bordercolor="#666666"
     borderopacity="1.0"
     inkscape:pageshadow="2"
     inkscape:pageopacity="0.0"
     inkscape:pagecheckerboard="0" /><g
     id="g8"
     inkscape:groupmode="layer"
     inkscape:label="FinalScheme"
     transform="matrix(1.3333333,0,0,-1.3333333,0,666.66667)"><g
       id="g10"><g
         id="g12"
         clip-path="url(#clipPath16)"><g
           id="g18"
           transform="translate(228.7549,466.7134)"><path
             d="m 0,0 -155.812,-89.958 c -13.146,-7.59 -21.245,-21.617 -21.245,-36.797 v -179.916 c 0,-15.181 8.099,-29.207 21.245,-36.798 L 0,-433.427 c 13.146,-7.59 29.344,-7.59 42.49,0 l 155.812,89.958 c 13.146,7.591 21.245,21.617 21.245,36.798 v 179.916 c 0,15.18 -8.099,29.207 -21.245,36.797 L 42.49,0 C 29.344,7.59 13.146,7.59 0,0"
             style="fill:#e5704c;fill-opacity:1;fill-rule:nonzero;stroke:none"
             id="path20" /></g><g
           id="g22"
           transform="translate(409.7842,348.9639)"><path
             d="M 0,0 C -53.262,28.041 -106.522,56.082 -159.784,84.123 V -282.05 c 52.485,25.503 104.971,51.007 157.457,76.511 C -1.552,-137.026 -0.775,-68.513 0,0"
             style="fill:#ffffff;fill-opacity:1;fill-rule:nonzero;stroke:none"
             id="path24" /></g><g
           id="g26"
           transform="translate(90.2158,151.0361)"><path
             d="M 0,0 C 53.262,-28.041 106.523,-56.081 159.784,-84.122 V 282.05 C 106.798,252.417 53.812,222.783 0.826,193.15 0.55,128.767 0.275,64.384 0,0"
             style="fill:#6c88b7;fill-opacity:1;fill-rule:nonzero;stroke:none"
             id="path28" /></g><g
           id="g30"
           transform="translate(154.8428,199.3838)"><path
             d="m 0,0 c 0.056,10.549 0.111,21.098 0.167,31.646 0.016,3.039 -3.229,4.985 -5.902,3.54 -6.361,-3.439 -12.722,-6.877 -19.082,-10.316 0.016,-5.285 0.02,-6.391 0.036,-11.675 z"
             style="fill:#133753;fill-opacity:1;fill-rule:nonzero;stroke:none"
             id="path32" /></g><g
           id="g34"
           transform="translate(216.7153,365.2935)"><path
             d="M 0,0 C 1.995,1.027 3.249,3.081 3.252,5.324 L 3.296,32.168 C -0.666,30.074 -4.628,27.98 -8.59,25.886 c -1.971,-1.041 -3.202,-3.09 -3.197,-5.319 0.021,-8.868 0.042,-17.737 0.063,-26.606 C -7.816,-4.026 -3.908,-2.013 0,0"
             style="fill:#133753;fill-opacity:1;fill-rule:nonzero;stroke:none"
             id="path36" /></g><g
           id="g38"
           transform="translate(396.2842,295.1113)"><path
             d="m 0,0 c 2.233,-1.227 3.623,-3.57 3.629,-6.118 l 0.099,-40.654 c 0.004,-2.265 -2.406,-3.719 -4.407,-2.658 -8.514,4.518 -17.029,9.035 -25.544,13.552 l 0.312,44.711 c -2.044,1.113 -4.089,2.226 -6.133,3.339 -1.999,1.089 -4.435,-0.359 -4.435,-2.634 v -35.129 c 0,-2.271 -2.424,-3.718 -4.422,-2.641 -8.557,4.612 -17.114,9.224 -25.669,13.836 0.077,33.308 0.154,66.616 0.232,99.924 0.005,2.264 2.421,3.706 4.417,2.637 8.561,-4.587 17.121,-9.175 25.683,-13.762 l -0.075,-44.819 5.726,-3.177 c 2.004,-1.111 4.464,0.343 4.455,2.635 -0.041,11.681 -0.083,23.363 -0.125,35.044 -0.008,2.272 2.413,3.728 4.416,2.656 C -13.325,62.184 -4.81,57.625 3.707,53.067 3.725,35.226 3.728,31.495 3.745,13.654 L -10.707,5.881 Z m 3.705,-137.271 c 0,-2.588 -1.429,-4.965 -3.715,-6.18 -25.465,-13.535 -50.929,-27.07 -76.393,-40.605 0.091,52.339 0.183,104.679 0.275,157.018 0.007,3.772 4.029,6.179 7.357,4.401 l 27.552,-14.721 -0.077,-92.81 c 4.989,2.663 9.978,5.326 14.967,7.989 -0.007,23.335 -0.014,46.67 -0.02,70.005 -0.001,3.02 3.217,4.951 5.882,3.531 8.061,-4.298 16.122,-8.596 24.184,-12.894 -0.004,-25.244 -0.008,-50.489 -0.012,-75.734 M -80.716,-6.823 c -20.145,10.85 -40.292,21.7 -60.437,32.551 -0.048,33.297 -0.097,66.594 -0.145,99.891 -0.004,2.265 2.408,3.717 4.408,2.653 20.162,-10.725 40.325,-21.45 60.487,-32.175 V 61.034 l -25.089,13.552 c 0.075,4.922 0.151,9.845 0.226,14.767 -3.537,1.824 -7.074,3.648 -10.61,5.472 -1.998,1.03 -4.378,-0.422 -4.375,-2.67 l 0.07,-57.596 c 0.002,-1.485 0.827,-2.847 2.142,-3.537 4.249,-2.229 8.497,-4.458 12.746,-6.687 -0.035,4.996 -0.07,9.991 -0.105,14.987 8.354,-4.421 16.71,-8.842 25.064,-13.263 0.014,-10.079 0.027,-20.158 0.041,-30.237 0.003,-2.272 -2.423,-3.722 -4.423,-2.645 m -14.183,-187.642 -48.112,-25.764 c -2.074,-1.111 -4.567,-1.105 -6.636,0.015 l -47.965,25.963 c -2.258,1.222 -3.665,3.576 -3.668,6.144 -0.025,24.253 -0.068,65.727 -0.068,65.727 l 31.556,-16.958 c 2.267,-1.218 3.682,-3.58 3.687,-6.153 l 0.052,-30.402 19.72,-10.82 20.119,10.957 -0.18,38.207 c 0,0 -45.293,24.279 -71.135,38.132 -2.267,1.215 -3.679,3.573 -3.687,6.145 l -0.224,72.687 c -0.008,2.572 1.396,4.941 3.655,6.17 l 48.108,26.17 c 2.074,1.128 4.577,1.135 6.656,0.017 l 47.798,-25.668 c 2.272,-1.22 3.689,-3.59 3.689,-6.169 -0.006,-20.44 -0.012,-40.88 -0.018,-61.321 -10.406,5.601 -20.811,11.201 -31.218,16.802 -2.256,1.215 -3.668,3.566 -3.682,6.129 l -0.156,30.853 c -8.726,5.045 -10.971,6.343 -19.697,11.388 -6.687,-3.894 -13.375,-7.787 -20.063,-11.681 l 0.188,-48.304 c 23.708,-12.592 47.417,-25.185 71.126,-37.778 2.283,-1.212 3.711,-3.584 3.717,-6.169 0.044,-22.71 0.088,-45.422 0.133,-68.134 0.005,-2.585 -1.416,-4.964 -3.695,-6.185 m -121.434,75.159 c -3.891,-2.326 -4.951,-2.96 -8.843,-5.285 -13.757,7.359 -27.514,14.716 -41.271,22.074 0.005,-16.691 0.009,-33.383 0.013,-50.075 0,-2.273 -2.429,-3.721 -4.428,-2.639 -8.469,4.585 -16.937,9.169 -25.406,13.753 -0.015,23.54 -0.03,47.081 -0.046,70.62 -10e-4,2.587 1.424,4.965 3.708,6.182 25.495,13.587 50.99,27.174 76.484,40.76 -0.07,-31.796 -0.14,-63.593 -0.211,-95.39 m -76.793,174.232 c 8.957,4.763 17.915,9.527 26.873,14.29 -0.019,-15.008 -0.037,-30.016 -0.056,-45.024 l 6.624,3.479 c 1.976,1.038 3.212,3.086 3.21,5.318 -0.012,12.611 -0.024,25.221 -0.036,37.833 -0.002,2.216 1.218,4.252 3.172,5.297 l 26.88,14.366 c 0.083,-33.742 0.166,-67.485 0.249,-101.227 0.005,-2.22 -1.216,-4.262 -3.175,-5.308 -9.013,-4.81 -18.026,-9.621 -27.039,-14.431 l -0.056,44.942 -6.75,-3.622 c -1.949,-1.046 -3.164,-3.077 -3.164,-5.288 0.002,-12.588 0.004,-25.176 0.006,-37.764 0,-2.222 -1.227,-4.262 -3.19,-5.302 -8.88,-4.707 -17.759,-9.414 -26.639,-14.121 l -0.093,101.259 c -0.002,2.22 1.223,4.26 3.184,5.303 m 76.49,37.24 c 0.007,2.202 1.219,4.224 3.16,5.267 l 62.153,33.402 c 0.02,-33.894 0.04,-67.788 0.06,-101.682 0.001,-2.219 -1.223,-4.258 -3.182,-5.3 -7.31,-3.889 -14.62,-7.777 -21.93,-11.666 -0.007,14.751 -0.014,29.503 -0.021,44.255 -3.947,-2.149 -7.893,-4.297 -11.839,-6.446 -1.933,-1.052 -3.135,-3.078 -3.131,-5.279 0.019,-12.269 0.039,-24.537 0.058,-36.806 0.004,-2.217 -1.215,-4.255 -3.17,-5.301 -7.485,-4.004 -14.972,-8.008 -22.458,-12.013 0.1,33.856 0.2,67.712 0.3,101.569 M 9.515,66.426 -127.59,145.583 c -11.568,6.679 -25.82,6.679 -37.389,0 L -302.083,66.426 c -11.568,-6.679 -18.694,-19.022 -18.694,-32.38 v -158.315 c 0,-13.357 7.126,-25.701 18.694,-32.379 l 137.104,-79.158 c 11.569,-6.678 25.821,-6.678 37.389,0 l 137.105,79.158 c 11.568,6.678 18.694,19.022 18.694,32.379 V 34.046 c 0,13.358 -7.126,25.701 -18.694,32.38"
             style="fill:#133753;fill-opacity:1;fill-rule:nonzero;stroke:none"
             id="path40" /></g></g></g></g></svg>
