<?xml version="1.0" encoding="utf-8"?>
<!-- Generator: Adobe Illustrator 21.1.0, SVG Export Plug-In . SVG Version: 6.00 Build 0)  -->
<svg version="1.1" id="Layer_1" xmlns="http://www.w3.org/2000/svg" xmlns:xlink="http://www.w3.org/1999/xlink" x="0px" y="0px"
	 viewBox="0 0 396.6 444.8" style="enable-background:new 0 0 396.6 444.8;" xml:space="preserve">
<style type="text/css">
	.st0{fill:#297284;}
	.st1{fill:#FFFFFF;}
</style>
<title>FinalScheme1</title>
<path class="st0" d="M177.1,5.7l-155.8,90C8.1,103.3,0,117.3,0,132.4v180c0,15.2,8.1,29.2,21.2,36.8l155.8,90
	c13.1,7.6,29.3,7.6,42.5,0l155.8-90c13.1-7.6,21.2-21.6,21.2-36.8v-180c0-15.2-8.1-29.2-21.2-36.8l-155.8-90
	C206.4-1.9,190.2-1.9,177.1,5.7z"/>
<path class="st0" d="M358.1,123.4L198.3,39.3v366.2L355.8,329L358.1,123.4z"/>
<path class="st0" d="M38.5,321.4l159.8,84.1V39.3l-159,88.9L38.5,321.4z"/>
<path class="st1" d="M103.1,273l0.2-31.6c0-2.2-1.8-4-4-4c-0.7,0-1.3,0.2-1.9,0.5l-19.1,10.3v11.7L103.1,273z"/>
<path class="st1" d="M165,107.1c2-1,3.2-3.1,3.2-5.3V75l-11.9,6.3c-2,1-3.2,3.1-3.2,5.3l0.1,26.6L165,107.1z"/>
<path class="st1" d="M350.7,109.9L219.6,34.1c-13.1-7.6-29.3-7.6-42.5,0L45.9,109.9c-13.1,7.6-21.2,21.6-21.2,36.8v151.5
	c0,15.2,8.1,29.2,21.2,36.8l131.2,75.7c13.1,7.6,29.3,7.6,42.5,0l131.2-75.7c13.1-7.6,21.2-21.6,21.2-36.8V146.7
	C372,131.5,363.9,117.5,350.7,109.9z M127.9,85.1c0-2.2,1.2-4.2,3.2-5.3l62.2-33.4c0,33.9,0,67.8,0.1,101.7c0,2.2-1.2,4.3-3.2,5.3
	l-22,11.7v-44.2l-11.9,6.4c-1.9,1.1-3.1,3.1-3.1,5.3c0,12.3,0,24.5,0.1,36.8c0,2.2-1.2,4.3-3.2,5.3l-22.5,12
	C127.7,152.8,127.9,119,127.9,85.1z M51.5,122.4l26.8-14.3c0,15,0,30-0.1,45l6.6-3.5c2-1,3.2-3.1,3.2-5.3c0-12.6,0-25.2,0-37.8
	c0-2.2,1.2-4.3,3.2-5.3l26.9-14.4c0.1,33.7,0.2,67.5,0.2,101.2c0,2.2-1.2,4.3-3.2,5.3l-27,14.4l-0.1-44.9l-6.8,3.6
	c-1.9,1-3.2,3.1-3.2,5.3c0,12.6,0,25.2,0,37.8c0,2.2-1.2,4.3-3.2,5.3l-26.6,14.1l-0.1-101.2C48.3,125.5,49.5,123.5,51.5,122.4z
	 M128.3,296.6l-8.8,5.3l-41.3-22.1c0,16.7,0,33.4,0,50.1c0,1.7-1.3,3-3,3c-0.5,0-1-0.1-1.4-0.4l-25.4-13.8c0-23.5,0-47.1,0-70.6
	c0-2.6,1.4-5,3.7-6.2l76.5-40.8C128.4,233,128.3,264.8,128.3,296.6z M249.7,371.8l-48.1,25.8c-2.1,1.1-4.6,1.1-6.6,0l-48-26
	c-2.3-1.2-3.7-3.6-3.7-6.1l-0.1-65.7l31.6,17c2.3,1.2,3.7,3.6,3.7,6.1l0.1,30.4l19.8,10.8l20.1-11l-0.2-38.2l-71.1-38.1
	c-2.3-1.2-3.7-3.6-3.7-6.1l-0.2-72.7c0-2.6,1.4-4.9,3.7-6.2l48.1-26.2c2.1-1.1,4.6-1.1,6.7,0l47.8,25.7c2.3,1.2,3.7,3.6,3.7,6.2
	c0,20.4,0,40.9,0,61.3l-31.2-16.8c-2.3-1.2-3.7-3.6-3.7-6.1l-0.2-30.9l-19.8-11.4l-20.1,11.7l0.2,48.3l71.1,37.8
	c2.3,1.2,3.7,3.6,3.7,6.2l0.1,68.1C253.4,368.2,252,370.5,249.7,371.8L249.7,371.8z M263.9,184.1l-60.4-32.6
	c0-33.3-0.1-66.6-0.1-99.9c0-1.7,1.3-3,3-3c0.5,0,1,0.1,1.4,0.4l60.5,32.2v35.1l-25.1-13.6l0.2-14.8l-10.6-5.5
	c-1.5-0.8-3.3-0.2-4,1.3c-0.2,0.4-0.3,0.9-0.3,1.4l0.1,57.6c0,1.5,0.8,2.8,2.1,3.5l12.8,6.7l-0.1-15l25.1,13.3v30.2c0,1.7-1.3,3-3,3
	C264.8,184.5,264.3,184.4,263.9,184.1L263.9,184.1z M348.3,319.9c0,2.6-1.4,5-3.7,6.2l-76.4,40.6l0.3-157c0-2.8,2.2-5,5-5
	c0.8,0,1.6,0.2,2.4,0.6l27.5,14.7l-0.1,92.8l15-8c0-23.3,0-46.7,0-70c0-2.2,1.8-4,4-4c0.7,0,1.3,0.2,1.9,0.5l24.1,12.9
	C348.3,269.4,348.3,294.7,348.3,319.9z M344.6,177.3c2.2,1.2,3.6,3.6,3.6,6.1l0.1,40.7c0,1.7-1.3,3-3,3c-0.5,0-1-0.1-1.4-0.4
	l-25.5-13.6l0.3-44.7l-6.1-3.3c-1.5-0.8-3.3-0.2-4.1,1.2c-0.2,0.4-0.4,0.9-0.4,1.4v35.1c0,1.7-1.3,3-3,3c-0.5,0-1-0.1-1.4-0.4
	L278,191.7c0.1-33.3,0.2-66.6,0.2-99.9c0-1.7,1.3-3,3-3c0.5,0,1,0.1,1.4,0.4l25.6,13.8v44.8l5.7,3.2c1.4,0.8,3.3,0.3,4.1-1.2
	c0.3-0.4,0.4-1,0.4-1.5l-0.1-35c0-1.7,1.3-3,3-3c0.5,0,1,0.1,1.4,0.4l25.5,13.6c0,17.8,0,21.6,0,39.4l-14.4,7.8L344.6,177.3z"/>
</svg>
