<svg id="Layer_1" data-name="Layer 1" xmlns="http://www.w3.org/2000/svg" xmlns:xlink="http://www.w3.org/1999/xlink" viewBox="0 0 285 285"><defs><style>.cls-1{fill:#754c29;}.cls-1,.cls-2{stroke:#231f20;stroke-miterlimit:10;}.cls-2{fill:url(#linear-gradient);}.cls-3{font-size:27px;fill:#231f20;font-family:MyriadPro-Regular, Myriad Pro;}.cls-4{letter-spacing:-0.01em;}</style><linearGradient id="linear-gradient" x1="176.98" y1="365.36" x2="435.84" y2="365.36" gradientUnits="userSpaceOnUse"><stop offset="0" stop-color="#ffd568"/><stop offset="0.52" stop-color="#fbb040"/><stop offset="0.52" stop-color="#fbb040"/><stop offset="0.82" stop-color="#f89b26"/><stop offset="1" stop-color="#f7941d"/></linearGradient></defs><title>Logo(needs textures and font)</title><circle class="cls-1" cx="142.5" cy="142.5" r="142"/><circle class="cls-1" cx="143.1" cy="142.5" r="137.84"/><path class="cls-2" d="M424.78,326.9a11.06,11.06,0,0,0-10.89,9.22l-66.31-10.45-4.34-3.75-31.88-58.74a11.07,11.07,0,1,0-13.38,0l-30.21,59.29L263.14,326,197.8,336.37h0c-1.1-2.78-5.56-5.65-9.76-5.65a11.06,11.06,0,1,0,7,19.64L241,394l2.46,4.83-11,65.46a11.09,11.09,0,1,0,11.26,8.31c11-5.31,57.2-27.72,57.54-28.35,1,.09,10.29.09,10.29.09l56.17,31.33c0,.22,0,.44,0,.66a11.06,11.06,0,1,0,11.06-11.06c-.36,0-.71,0-1.05.05L367.1,400.27l1.59-4.27,49.77-49a11.06,11.06,0,1,0,6.32-20.13Z" transform="translate(-163.5 -234.01)"/><text class="cls-3" transform="translate(88.52 120.09)">H<tspan class="cls-4" x="17.6" y="0">A</tspan><tspan x="33.72" y="0">CKPSU</tspan><tspan x="12.65" y="32.4">SPRING </tspan><tspan x="26.88" y="64.8">2022</tspan></text></svg>