<?xml version="1.0" encoding="utf-8"?>
<!-- Generator: Adobe Illustrator 21.1.0, SVG Export Plug-In . SVG Version: 6.00 Build 0)  -->
<svg version="1.0" id="Layer_1" xmlns="http://www.w3.org/2000/svg" xmlns:xlink="http://www.w3.org/1999/xlink" x="0px" y="0px"
	 viewBox="0 0 500 500" style="enable-background:new 0 0 500 500;" xml:space="preserve">
<style type="text/css">
	.st0{fill:#FFFFFF;}
</style>
<g>
	<path class="st0" d="M301.2,318.9c-23.7-12.6-47.4-25.2-71.1-37.8c-0.1-16.1-0.1-32.2-0.2-48.3c6.7-3.9,13.4-7.8,20.1-11.7
		c8.7,5,11,6.3,19.7,11.4l0.2,30.9c0,2.6,1.4,4.9,3.7,6.1c10.4,5.6,20.8,11.2,31.2,16.8c0-20.4,0-40.9,0-61.3c0-2.6-1.4-4.9-3.7-6.2
		l-47.8-25.7c-2.1-1.1-4.6-1.1-6.7,0c-16,8.7-32.1,17.4-48.1,26.2c-2.3,1.2-3.7,3.6-3.7,6.2l0.2,72.7c0,2.6,1.4,4.9,3.7,6.1
		c25.8,13.9,71.1,38.1,71.1,38.1l0.2,38.2l-20.1,11l-19.7-10.8l-0.1-30.4c0-2.6-1.4-4.9-3.7-6.2l-31.6-17c0,0,0,41.5,0.1,65.7
		c0,2.6,1.4,4.9,3.7,6.1c16,8.7,32,17.3,48,26c2.1,1.1,4.6,1.1,6.6,0c16-8.6,32.1-17.2,48.1-25.8c2.3-1.2,3.7-3.6,3.7-6.2
		c0-22.7-0.1-45.4-0.1-68.1C304.9,322.4,303.5,320.1,301.2,318.9z"/>
	<path class="st0" d="M100,275.7c0,23.5,0,47.1,0,70.6c8.5,4.6,16.9,9.2,25.4,13.8c2,1.1,4.4-0.4,4.4-2.6c0-16.7,0-33.4,0-50.1
		c13.8,7.4,27.5,14.7,41.3,22.1c3.9-2.3,5-3,8.8-5.3c0.1-31.8,0.1-63.6,0.2-95.4c-25.5,13.6-51,27.2-76.5,40.8
		C101.4,270.8,100,273.2,100,275.7z M149.1,265.4c2.7-1.4,5.9,0.5,5.9,3.5c-0.1,10.5-0.1,21.1-0.2,31.6c-8.3-4.4-16.5-8.8-24.8-13.2
		c0-5.3,0-6.4,0-11.7C136.4,272.3,142.7,268.9,149.1,265.4z"/>
	<path class="st0" d="M126.7,242.4c2-1,3.2-3.1,3.2-5.3c0-12.6,0-25.2,0-37.8c0-2.2,1.2-4.2,3.2-5.3l6.8-3.6l0.1,44.9
		c9-4.8,18-9.6,27-14.4c2-1,3.2-3.1,3.2-5.3c-0.1-33.7-0.2-67.5-0.2-101.2c-9,4.8-17.9,9.6-26.9,14.4c-2,1-3.2,3.1-3.2,5.3
		c0,12.6,0,25.2,0,37.8c0,2.2-1.2,4.3-3.2,5.3l-6.6,3.5c0-15,0-30,0.1-45c-9,4.8-17.9,9.5-26.9,14.3c-2,1-3.2,3.1-3.2,5.3l0.1,101.3
		C108.9,251.8,117.8,247.1,126.7,242.4z"/>
	<path class="st0" d="M205,197c0-12.3,0-24.5-0.1-36.8c0-2.2,1.2-4.2,3.1-5.3c3.9-2.1,7.9-4.3,11.8-6.4c0,14.8,0,29.5,0,44.3
		c7.3-3.9,14.6-7.8,21.9-11.7c2-1,3.2-3.1,3.2-5.3c0-33.9,0-67.8-0.1-101.7l-62.2,33.4c-1.9,1-3.2,3.1-3.2,5.3
		c-0.1,33.9-0.2,67.7-0.3,101.6c7.5-4,15-8,22.5-12C203.8,201.2,205,199.2,205,197z M208.1,108.8c4-2.1,7.9-4.2,11.9-6.3l0,26.8
		c0,2.2-1.3,4.3-3.3,5.3c-3.9,2-7.8,4-11.7,6c0-8.9,0-17.7-0.1-26.6C204.9,111.9,206.2,109.9,208.1,108.8z"/>
	<path class="st0" d="M400,151.8c-8.5-4.6-17-9.1-25.5-13.7c-2-1.1-4.4,0.4-4.4,2.7c0,11.7,0.1,23.4,0.1,35c0,2.3-2.5,3.7-4.5,2.6
		l-5.7-3.2l0.1-44.8c-8.6-4.6-17.1-9.2-25.7-13.8c-2-1.1-4.4,0.4-4.4,2.6c-0.1,33.3-0.2,66.6-0.2,99.9c8.6,4.6,17.1,9.2,25.7,13.8
		c2,1.1,4.4-0.4,4.4-2.6v-35.1c0-2.3,2.4-3.7,4.4-2.6c2,1.1,4.1,2.2,6.1,3.3l-0.3,44.7c8.5,4.5,17,9,25.5,13.6
		c2,1.1,4.4-0.4,4.4-2.7l-0.1-40.7c0-2.5-1.4-4.9-3.6-6.1l-10.7-5.9l14.5-7.8C400,173.4,400,169.7,400,151.8z"/>
	<path class="st0" d="M320,178.8c-8.4-4.4-16.7-8.8-25.1-13.3c0,5,0.1,10,0.1,15c-4.2-2.2-8.5-4.5-12.7-6.7
		c-1.3-0.7-2.1-2.1-2.1-3.5l-0.1-57.6c0-2.2,2.4-3.7,4.4-2.7c3.5,1.8,7.1,3.6,10.6,5.5c-0.1,4.9-0.2,9.8-0.2,14.8l25.1,13.6v-35.1
		c-20.2-10.7-40.3-21.5-60.5-32.2c-2-1.1-4.4,0.4-4.4,2.7c0,33.3,0.1,66.6,0.1,99.9c20.1,10.9,40.3,21.7,60.4,32.6
		c2,1.1,4.4-0.4,4.4-2.6C320,199,320,188.9,320,178.8z"/>
	<path class="st0" d="M369.9,257.1c0,23.3,0,46.7,0,70c-5,2.7-10,5.3-15,8l0.1-92.8l-27.6-14.7c-3.3-1.8-7.3,0.6-7.4,4.4
		c-0.1,52.3-0.2,104.7-0.3,157c25.5-13.5,50.9-27.1,76.4-40.6c2.3-1.2,3.7-3.6,3.7-6.2c0-25.2,0-50.5,0-75.7
		c-8.1-4.3-16.1-8.6-24.2-12.9C373.2,252.1,369.9,254,369.9,257.1z"/>
	<path class="st0" d="M427.1,123.2l-155.8-90c-13.1-7.6-29.3-7.6-42.5,0l-155.8,90c-13.1,7.6-21.2,21.6-21.2,36.8V340
		c0,15.2,8.1,29.2,21.2,36.8l155.8,90c13.1,7.6,29.3,7.6,42.5,0l155.8-90c13.1-7.6,21.2-21.6,21.2-36.8V160
		C448.3,144.9,440.2,130.8,427.1,123.2z M424.5,329.2c0,13.4-7.1,25.7-18.7,32.4l-137.1,79.2c-11.6,6.7-25.8,6.7-37.4,0L94.2,361.5
		c-11.6-6.7-18.7-19-18.7-32.4V170.8c0-13.4,7.1-25.7,18.7-32.4l137.1-79.2c11.6-6.7,25.8-6.7,37.4,0l137.1,79.2
		c11.6,6.7,18.7,19,18.7,32.4V329.2z"/>
</g>
</svg>
