<?xml version="1.0" encoding="utf-8"?>
<!-- Generator: Adobe Illustrator 21.1.0, SVG Export Plug-In . SVG Version: 6.00 Build 0)  -->
<svg version="1.1" id="Layer_1" xmlns="http://www.w3.org/2000/svg" xmlns:xlink="http://www.w3.org/1999/xlink" x="0px" y="0px"
	 viewBox="0 0 743.6 647.2" style="enable-background:new 0 0 743.6 647.2;" xml:space="preserve">
<style type="text/css">
	.st0{fill:#D1DEDF;}
	.st1{fill:#FFFFFF;}
</style>
<path class="st0" d="M546.6,183.9L377.4,86.2c-14.2-8.3-31.8-8.3-46.1,0l-169.2,97.7c-14.2,8.3-23,23.5-23,40v195.4
	c0,16.5,8.8,31.7,23,40L331.3,557c14.2,8.3,31.8,8.3,46.1,0l169.2-97.7c14.2-8.3,23-23.5,23-40V223.9
	C569.6,207.5,560.8,192.2,546.6,183.9z M543.8,407.6c0,14.5-7.7,27.9-20.3,35.2l-148.9,86c-12.6,7.3-28,7.3-40.6,0l-148.9-86.1
	c-12.6-7.3-20.3-20.6-20.3-35.2V235.6c0-14.5,7.7-27.9,20.3-35.2l148.9-86c12.6-7.3,28-7.3,40.6,0l148.9,86
	c12.6,7.3,20.3,20.6,20.3,35.2V407.6L543.8,407.6z"/>
<g>
	<path class="st1" d="M405.5,389.5c-23.7-12.6-47.4-25.2-71.1-37.8c-0.1-16.1-0.1-32.2-0.2-48.3c6.7-3.9,13.4-7.8,20.1-11.7
		c8.7,5,11,6.3,19.7,11.4l0.2,30.9c0,2.6,1.4,4.9,3.7,6.1c10.4,5.6,20.8,11.2,31.2,16.8c0-20.4,0-40.9,0-61.3c0-2.6-1.4-4.9-3.7-6.2
		l-47.8-25.7c-2.1-1.1-4.6-1.1-6.7,0c-16,8.7-32.1,17.4-48.1,26.2c-2.3,1.2-3.7,3.6-3.7,6.2l0.2,72.7c0,2.6,1.4,4.9,3.7,6.1
		c25.8,13.9,71.1,38.1,71.1,38.1l0.2,38.2l-20.1,11l-19.7-10.8l-0.1-30.4c0-2.6-1.4-4.9-3.7-6.2l-31.6-17c0,0,0,41.5,0.1,65.7
		c0,2.6,1.4,4.9,3.7,6.1c16,8.7,32,17.3,48,26c2.1,1.1,4.6,1.1,6.6,0c16-8.6,32.1-17.2,48.1-25.8c2.3-1.2,3.7-3.6,3.7-6.2
		c0-22.7-0.1-45.4-0.1-68.1C409.2,393,407.8,390.7,405.5,389.5z"/>
	<path class="st1" d="M204.3,346.3c0,23.5,0,47.1,0,70.6c8.5,4.6,16.9,9.2,25.4,13.8c2,1.1,4.4-0.4,4.4-2.6c0-16.7,0-33.4,0-50.1
		c13.8,7.4,27.5,14.7,41.3,22.1c3.9-2.3,5-3,8.8-5.3c0.1-31.8,0.1-63.6,0.2-95.4c-25.5,13.6-51,27.2-76.5,40.8
		C205.7,341.4,204.3,343.8,204.3,346.3z M253.4,336c2.7-1.4,5.9,0.5,5.9,3.5c-0.1,10.5-0.1,21.1-0.2,31.6
		c-8.3-4.4-16.5-8.8-24.8-13.2c0-5.3,0-6.4,0-11.7C240.7,342.9,247,339.5,253.4,336z"/>
	<path class="st1" d="M231,313c2-1,3.2-3.1,3.2-5.3c0-12.6,0-25.2,0-37.8c0-2.2,1.2-4.2,3.2-5.3l6.8-3.6l0.1,44.9
		c9-4.8,18-9.6,27-14.4c2-1,3.2-3.1,3.2-5.3c-0.1-33.7-0.2-67.5-0.2-101.2c-9,4.8-17.9,9.6-26.9,14.4c-2,1-3.2,3.1-3.2,5.3
		c0,12.6,0,25.2,0,37.8c0,2.2-1.2,4.3-3.2,5.3l-6.6,3.5c0-15,0-30,0.1-45c-9,4.8-17.9,9.5-26.9,14.3c-2,1-3.2,3.1-3.2,5.3l0.1,101.3
		C213.2,322.4,222.1,317.7,231,313z"/>
	<path class="st1" d="M309.3,267.6c0-12.3,0-24.5-0.1-36.8c0-2.2,1.2-4.2,3.1-5.3c3.9-2.1,7.9-4.3,11.8-6.4c0,14.8,0,29.5,0,44.3
		c7.3-3.9,14.6-7.8,21.9-11.7c2-1,3.2-3.1,3.2-5.3c0-33.9,0-67.8-0.1-101.7l-62.2,33.4c-1.9,1-3.2,3.1-3.2,5.3
		c-0.1,33.9-0.2,67.7-0.3,101.6c7.5-4,15-8,22.5-12C308.1,271.8,309.3,269.8,309.3,267.6z M312.4,179.4c4-2.1,7.9-4.2,11.9-6.3v26.8
		c0,2.2-1.3,4.3-3.3,5.3c-3.9,2-7.8,4-11.7,6c0-8.9,0-17.7-0.1-26.6C309.2,182.5,310.5,180.5,312.4,179.4z"/>
	<path class="st1" d="M504.3,222.4c-8.5-4.6-17-9.1-25.5-13.7c-2-1.1-4.4,0.4-4.4,2.7c0,11.7,0.1,23.4,0.1,35c0,2.3-2.5,3.7-4.5,2.6
		l-5.7-3.2l0.1-44.8c-8.6-4.6-17.1-9.2-25.7-13.8c-2-1.1-4.4,0.4-4.4,2.6c-0.1,33.3-0.2,66.6-0.2,99.9c8.6,4.6,17.1,9.2,25.7,13.8
		c2,1.1,4.4-0.4,4.4-2.6v-35.1c0-2.3,2.4-3.7,4.4-2.6s4.1,2.2,6.1,3.3l-0.3,44.7c8.5,4.5,17,9,25.5,13.6c2,1.1,4.4-0.4,4.4-2.7
		l-0.1-40.7c0-2.5-1.4-4.9-3.6-6.1l-10.7-5.9l14.5-7.8C504.3,244,504.3,240.3,504.3,222.4z"/>
	<path class="st1" d="M424.3,249.4c-8.4-4.4-16.7-8.8-25.1-13.3c0,5,0.1,10,0.1,15c-4.2-2.2-8.5-4.5-12.7-6.7
		c-1.3-0.7-2.1-2.1-2.1-3.5l-0.1-57.6c0-2.2,2.4-3.7,4.4-2.7c3.5,1.8,7.1,3.6,10.6,5.5c-0.1,4.9-0.2,9.8-0.2,14.8l25.1,13.6v-35.1
		c-20.2-10.7-40.3-21.5-60.5-32.2c-2-1.1-4.4,0.4-4.4,2.7c0,33.3,0.1,66.6,0.1,99.9c20.1,10.9,40.3,21.7,60.4,32.6
		c2,1.1,4.4-0.4,4.4-2.6C424.3,269.6,424.3,259.5,424.3,249.4z"/>
	<path class="st1" d="M474.2,327.7c0,23.3,0,46.7,0,70c-5,2.7-10,5.3-15,8l0.1-92.8l-27.6-14.7c-3.3-1.8-7.3,0.6-7.4,4.4
		c-0.1,52.3-0.2,104.7-0.3,157c25.5-13.5,50.9-27.1,76.4-40.6c2.3-1.2,3.7-3.6,3.7-6.2c0-25.2,0-50.5,0-75.7
		c-8.1-4.3-16.1-8.6-24.2-12.9C477.5,322.7,474.2,324.6,474.2,327.7z"/>
	<path class="st1" d="M531.4,193.8l-155.8-90c-13.1-7.6-29.3-7.6-42.5,0l-155.8,90c-13.1,7.6-21.2,21.6-21.2,36.8v180
		c0,15.2,8.1,29.2,21.2,36.8l155.8,90c13.1,7.6,29.3,7.6,42.5,0l155.8-90c13.1-7.6,21.2-21.6,21.2-36.8v-180
		C552.6,215.5,544.5,201.4,531.4,193.8z M528.8,399.8c0,13.4-7.1,25.7-18.7,32.4L373,511.4c-11.6,6.7-25.8,6.7-37.4,0l-137.1-79.3
		c-11.6-6.7-18.7-19-18.7-32.4V241.4c0-13.4,7.1-25.7,18.7-32.4l137.1-79.2c11.6-6.7,25.8-6.7,37.4,0L510.1,209
		c11.6,6.7,18.7,19,18.7,32.4V399.8L528.8,399.8z"/>
</g>
<g id="Layer_2">
</g>
</svg>
