<?xml version="1.0" encoding="utf-8"?>
<!-- Generator: Adobe Illustrator 23.0.2, SVG Export Plug-In . SVG Version: 6.00 Build 0)  -->
<svg version="1.1" id="Layer_1" xmlns="http://www.w3.org/2000/svg" xmlns:xlink="http://www.w3.org/1999/xlink" x="0px" y="0px"
	 viewBox="0 0 700 500" style="enable-background:new 0 0 700 500;" xml:space="preserve">
<style type="text/css">
	.st0{display:none;clip-path:url(#SVGID_2_);fill:#262526;}
	.st1{display:none;clip-path:url(#SVGID_2_);}
	.st2{display:inline;}
	.st3{display:inline;clip-path:url(#SVGID_4_);fill:none;stroke:#000000;stroke-miterlimit:10;}
	.st4{display:inline;clip-path:url(#SVGID_6_);fill:none;stroke:#000000;stroke-miterlimit:10;}
	.st5{display:inline;clip-path:url(#SVGID_8_);fill:#FFFFFF;}
	.st6{display:inline;clip-path:url(#SVGID_8_);fill:#4B5078;}
	.st7{display:inline;clip-path:url(#SVGID_8_);fill:#3E4264;}
	.st8{display:inline;clip-path:url(#SVGID_8_);fill:#333149;}
	.st9{display:inline;clip-path:url(#SVGID_8_);fill:#45496F;}
	.st10{display:inline;clip-path:url(#SVGID_8_);fill:#B3B3B3;}
	.st11{display:inline;clip-path:url(#SVGID_8_);fill:#3DB6F9;}
	.st12{display:inline;clip-path:url(#SVGID_8_);}
	.st13{filter:url(#Adobe_OpacityMaskFilter);}
	.st14{enable-background:new    ;}
	.st15{clip-path:url(#SVGID_10_);}
	.st16{clip-path:url(#SVGID_10_);mask:url(#SVGID_11_);}
	.st17{clip-path:url(#SVGID_15_);}
	.st18{filter:url(#Adobe_OpacityMaskFilter_1_);}
	.st19{clip-path:url(#SVGID_17_);fill:url(#SVGID_18_);}
	.st20{clip-path:url(#SVGID_17_);fill:url(#SVGID_19_);}
	.st21{display:inline;clip-path:url(#SVGID_8_);fill:#CACACA;}
	.st22{display:inline;clip-path:url(#SVGID_8_);fill:#333333;}
	.st23{display:inline;clip-path:url(#SVGID_8_);fill:#E4704C;}
	.st24{display:inline;clip-path:url(#SVGID_8_);fill:#E4E4E4;}
	.st25{display:inline;clip-path:url(#SVGID_8_);fill:#C8C8C8;}
	.st26{clip-path:url(#SVGID_21_);}
	.st27{filter:url(#Adobe_OpacityMaskFilter_2_);}
	.st28{clip-path:url(#SVGID_23_);fill:url(#SVGID_25_);}
	.st29{clip-path:url(#SVGID_23_);mask:url(#SVGID_24_);fill:url(#SVGID_26_);}
	.st30{display:inline;clip-path:url(#SVGID_8_);fill:#0071BA;}
	.st31{display:inline;clip-path:url(#SVGID_8_);fill:#4D4D4D;}
	.st32{fill:#FFFFFF;}
	.st33{font-family:'MyriadPro-Regular';}
	.st34{font-size:40.9334px;}
	.st35{clip-path:url(#SVGID_2_);}
	.st36{clip-path:url(#SVGID_28_);fill:#F7931E;}
	.st37{clip-path:url(#SVGID_28_);fill:#FBB03B;}
	.st38{clip-path:url(#SVGID_28_);}
	.st39{clip-path:url(#SVGID_28_);fill:#86F2EF;}
	.st40{clip-path:url(#SVGID_28_);fill:#3DB6F9;}
	.st41{clip-path:url(#SVGID_28_);fill:#FFFFFF;}
</style>
<g>
	<defs>
		<polyline id="SVGID_1_" points="-610,790 1310,790 1284,-27 -636,-27 		"/>
	</defs>
	<clipPath id="SVGID_2_">
		<use xlink:href="#SVGID_1_"  style="overflow:visible;"/>
	</clipPath>
	<rect x="-610" y="-290" class="st0" width="1920" height="1080"/>
	<g class="st1">
		<defs>
			<rect id="SVGID_3_" x="-610" y="-290" width="1920" height="1080"/>
		</defs>
		<clipPath id="SVGID_4_" class="st2">
			<use xlink:href="#SVGID_3_"  style="overflow:visible;"/>
		</clipPath>
		<rect x="-610" y="-290" class="st3" width="1920" height="1080"/>
	</g>
	<rect x="-610" y="725" class="st0" width="1920" height="65"/>
	<g class="st1">
		<defs>
			<rect id="SVGID_5_" x="-610" y="-290" width="1920" height="1080"/>
		</defs>
		<clipPath id="SVGID_6_" class="st2">
			<use xlink:href="#SVGID_5_"  style="overflow:visible;"/>
		</clipPath>
		<rect x="-610" y="725" class="st4" width="1922.7" height="1989.4"/>
	</g>
	<g class="st1">
		<defs>
			<rect id="SVGID_7_" x="-610" y="-290" width="1920" height="1080"/>
		</defs>
		<clipPath id="SVGID_8_" class="st2">
			<use xlink:href="#SVGID_7_"  style="overflow:visible;"/>
		</clipPath>
		<path class="st5" d="M-495.1-90.8c0,3.4-2.8,6.2-6.2,6.2c-3.4,0-6.2-2.8-6.2-6.2c0-3.4,2.8-6.2,6.2-6.2
			C-497.9-97-495.1-94.3-495.1-90.8"/>
		<path class="st5" d="M-421.7,68c0,3.4-2.8,6.2-6.2,6.2s-6.2-2.8-6.2-6.2c0-3.4,2.8-6.2,6.2-6.2S-421.7,64.5-421.7,68"/>
		<path class="st5" d="M-371.2-174.9c0,3.4-2.8,6.2-6.2,6.2c-3.4,0-6.2-2.8-6.2-6.2c0-3.4,2.8-6.2,6.2-6.2
			C-374-181.1-371.2-178.3-371.2-174.9"/>
		<path class="st5" d="M75.8-241.5c0,3.4-2.8,6.2-6.2,6.2c-3.4,0-6.2-2.8-6.2-6.2c0-3.4,2.8-6.2,6.2-6.2
			C73-247.7,75.8-244.9,75.8-241.5"/>
		<path class="st5" d="M-115,52.8c0,3.4-2.8,6.2-6.2,6.2c-3.4,0-6.2-2.8-6.2-6.2c0-3.4,2.8-6.2,6.2-6.2
			C-117.8,46.6-115,49.4-115,52.8"/>
		<path class="st5" d="M-249.2,263c0,3.4-2.8,6.2-6.2,6.2c-3.4,0-6.2-2.8-6.2-6.2c0-3.4,2.8-6.2,6.2-6.2
			C-252,256.8-249.2,259.6-249.2,263"/>
		<path class="st5" d="M904.8-103.2c3.4,0.3,6,3.3,5.6,6.8c-0.3,3.4-3.3,6-6.8,5.7c-3.4-0.3-6-3.3-5.6-6.8
			C898.4-101,901.4-103.5,904.8-103.2"/>
		<path class="st5" d="M1069.5-162.6c3.4,0.3,6,3.3,5.6,6.8c-0.3,3.4-3.3,6-6.8,5.7c-3.4-0.3-6-3.3-5.6-6.8
			C1063-160.4,1066.1-162.9,1069.5-162.6"/>
		<path class="st5" d="M832.1-234.6c3.4,0.3,6,3.3,5.6,6.8c-0.3,3.4-3.3,6-6.8,5.7c-3.4-0.3-6-3.3-5.6-6.8
			C825.7-232.4,828.7-234.9,832.1-234.6"/>
		<path class="st5" d="M979.4,427.9c3.4,0.3,6,3.3,5.6,6.8c-0.3,3.4-3.3,6-6.8,5.7c-3.4-0.3-6-3.3-5.6-6.8
			C972.9,430.1,976,427.6,979.4,427.9"/>
		<path class="st5" d="M1015.1,704c3.4,0.3,6,3.3,5.6,6.8c-0.3,3.4-3.3,6-6.8,5.7c-3.4-0.3-6-3.3-5.6-6.8
			C1008.7,706.2,1011.7,703.6,1015.1,704"/>
		<path class="st5" d="M1135.5,523.9c3.4,0.3,6,3.3,5.6,6.8c-0.3,3.4-3.3,6-6.8,5.7c-3.4-0.3-6-3.3-5.6-6.8
			C1129.1,526.1,1132.1,523.6,1135.5,523.9"/>
		<path class="st5" d="M1207,675.8c2.4,0.2,4.2,2.3,4,4.7c-0.2,2.4-2.3,4.2-4.7,4c-2.4-0.2-4.2-2.3-4-4.7
			C1202.5,677.4,1204.6,675.6,1207,675.8"/>
		<path class="st5" d="M-502.7,578.5c3.4,0.3,6,3.3,5.6,6.8c-0.3,3.4-3.3,6-6.8,5.7c-3.4-0.3-6-3.3-5.6-6.8
			C-509.1,580.8-506.1,578.2-502.7,578.5"/>
		<path class="st5" d="M-382.2,398.4c3.4,0.3,6,3.3,5.6,6.8c-0.3,3.4-3.3,6-6.8,5.7c-3.4-0.3-6-3.3-5.6-6.8
			C-388.7,400.7-385.7,398.1-382.2,398.4"/>
		<path class="st5" d="M-310.7,550.4c2.4,0.2,4.2,2.3,4,4.7c-0.2,2.4-2.3,4.2-4.7,4c-2.4-0.2-4.2-2.3-4-4.7
			C-315.3,552-313.1,550.2-310.7,550.4"/>
		<path class="st5" d="M16.5,413.4c3.4,0.3,6,3.3,5.6,6.8c-0.3,3.4-3.3,6-6.8,5.7c-3.4-0.3-6-3.3-5.6-6.8
			C10.1,415.6,13.1,413.1,16.5,413.4"/>
		<path class="st5" d="M137,233.3c3.4,0.3,6,3.3,5.6,6.8c-0.3,3.4-3.3,6-6.8,5.7c-3.4-0.3-6-3.3-5.6-6.8
			C130.5,235.5,133.5,233,137,233.3"/>
		<path class="st5" d="M208.4,385.3c2.4,0.2,4.2,2.3,4,4.7c-0.2,2.4-2.3,4.2-4.7,4c-2.4-0.2-4.2-2.3-4-4.7
			C203.9,386.8,206,385,208.4,385.3"/>
		<path class="st5" d="M559.2,365.9c3.4,0.3,6,3.3,5.6,6.8c-0.3,3.4-3.3,6-6.8,5.7c-3.4-0.3-6-3.3-5.6-6.8
			C552.7,368.1,555.7,365.6,559.2,365.9"/>
		<path class="st5" d="M679.6,185.8c3.4,0.3,6,3.3,5.6,6.8c-0.3,3.4-3.3,6-6.8,5.7c-3.4-0.3-6-3.3-5.6-6.8
			C673.1,188,676.2,185.5,679.6,185.8"/>
		<path class="st5" d="M751.1,337.8c2.4,0.2,4.2,2.3,4,4.7c-0.2,2.4-2.3,4.2-4.7,4c-2.4-0.2-4.2-2.3-4-4.7
			C746.6,339.3,748.7,337.6,751.1,337.8"/>
		<path class="st6" d="M130.2,512.5l-230.3,57.1c-17.6,4.4-35.5-6.5-39.9-24l-11.9-48.2c-4.4-17.6,6.5-35.5,24-39.9l230.3-57.1
			c17.6-4.4,35.5,6.5,39.9,24l11.9,48.2C158.6,490.2,147.8,508.1,130.2,512.5"/>
		<path class="st7" d="M922.6,898.9v424.2c0,196.3-165.2,355.5-368.9,355.5H113.4c-203.8,0-368.9-159.2-368.9-355.5V898.9
			c0-3.4,0-6.9,0.2-10.3c0-0.3,0-0.6,0-1c1.3-41.6,10.1-81.3,25-118.1c8.2-20.3,18.3-39.6,30.1-57.9c2.2-3.5,4.5-6.9,6.9-10.3
			c5.4-7.8,11.2-15.5,17.3-22.9c7.3-8.9,15-17.4,23.1-25.6l0.9-0.9c0.8-0.8,1.6-1.6,2.4-2.4c0.7-0.7,1.4-1.4,2.2-2.1
			c0.9-0.9,1.9-1.8,2.8-2.7c0.9-0.9,1.8-1.7,2.8-2.6c1.1-1,2.2-2,3.3-3c0.9-0.8,1.8-1.6,2.8-2.5c1.8-1.6,3.7-3.2,5.6-4.8
			c0.3-0.3,0.6-0.5,0.9-0.7c0.1-0.1,0.2-0.2,0.3-0.3c4.4-3.8,9-7.4,13.6-11c0,0,0,0,0,0c2.9-2,11.9-3.9,22.8-5.9c0,0,17.6-3,17.6-3
			c14.1-2.5,19.7,6.9,34.7,5.5c14.6-1.3,24.7-17,39.1-19.4c14.3-2.4,28.3-5.6,41.9-9.8c15-4.7,30.5-7.7,46.5-8.9
			c10.7-0.8,21.3-1.5,32.1-1.4c14.9,0.1,29.7,1.5,44.3,3.5c17,2.3,33.8,5.8,50.8,8.4c15.6,2.4,31.4,3.5,47.3,2.6
			c14.8-0.8,29.5-3.2,44-5.8c23.4-4.2,46.8-8.6,70.5-11.5c2.2-0.3,74.3-5.3,76.6-5.3c10,0,62.8,6.2,72.5,7.8c20,3.4,39.6,8,59.1,13
			c13.4,3.4,26.6,7.4,40,10.7c1.8,0.5,12,4.2,14,4.2c1.2,0.2,2.3,0.5,3.4,0.8c1.5,0.3,2.9,0.7,4.4,1.1c0.8,0.2,1.5,0.4,2.2,0.6
			c1.3,0.3,2.7,0.7,4,1.1c1.3,0.3,2.6,0.7,3.9,1.1c5.2,0,10.5-0.1,15.8,0c1,0,1.9,0,2.9,0c3.8,0,7.5,0.1,11.3,0.1c1,0,1.9,0,2.9,0
			c2.6,0,5.2,0.1,7.8,0.2c1.1,0,2.2,0,3.3,0.1c0.1,0,0.1,0,0.2,0c1.2,0,2.4,0.1,3.6,0.1c2.3,0.1,4.6,0.1,6.9,0.2
			c1.2,0,2.4,0.1,3.6,0.1c2.2,0.1,4.4,0.2,6.6,0.3c1.9,0.1,3.8,0.2,5.7,0.3c0.7,0,1.3,0.1,2,0.1c0.2,0,0.4,0,0.6,0
			c2.3,0.1,4.7,0.3,7,0.4l2.1,0.1c0.9,0.1,1.8,0.1,2.7,0.2c0.4,0,0.8,0,1.2,0.1c0.9,0.1,1.7,0.1,2.5,0.2c0.5,0,1.1,0.1,1.6,0.1
			c0.7,0.1,1.5,0.1,2.2,0.2c0.8,0.1,1.6,0.1,2.4,0.2c0.2,0,0.3,0,0.5,0c2.4,0.2,4.7,0.4,7,0.7c1.2,0.1,2.3,0.2,3.5,0.4
			c1.1,0.1,2.3,0.3,3.4,0.4c7,1.9,13.8,4.7,20,8.3c0,0,0,0,0,0c0.9,0.7,1.8,1.4,2.7,2.1c0.6,0.5,1.2,1,1.8,1.4
			c0.6,0.5,1.2,1,1.8,1.4c1.4,1.2,2.9,2.4,4.3,3.5c0,0,0.1,0.1,0.1,0.1l0.2,0.2c14.3,12,27.7,25.1,39.9,39.1c0.4,0.5,0.9,1,1.3,1.5
			c2.2,2.5,4.4,5.1,6.5,7.7c1.2,1.5,2.4,2.9,3.5,4.4c1.1,1.4,2.2,2.7,3.2,4.1c0.8,1.1,1.7,2.2,2.5,3.3c0.3,0.3,0.5,0.7,0.8,1
			c1,1.4,2,2.7,3,4.1c1,1.4,2,2.8,3,4.3c1,1.4,2,2.9,3,4.3c0.2,0.3,0.4,0.6,0.7,1c3,4.5,5.9,9,8.7,13.6c1.8,2.9,3.5,5.8,5.1,8.7
			c12.1,21.3,22.1,43.9,29.5,67.6c0.2,0.6,0.4,1.2,0.6,1.8c5.7,18.3,9.8,37.3,12.4,56.8c0,0.3,0.1,0.7,0.1,1
			c1.3,10.3,2.2,20.9,2.5,31.5C922.5,890.7,922.6,894.8,922.6,898.9"/>
		<path class="st6" d="M-174.5,788.3L-174.5,788.3c-1.8-0.4-3.7-0.7-5.5-1.1c-4.1-0.8-8.2-1.7-12.3-2.5c-8.2-1.7-16.4-3.4-24.6-5
			c-1.5-0.3-2.9-0.6-4.4-0.9c-3-0.6-6-1.1-9-1.7c8.2-21,18.3-41.1,30.1-60.1c1,0.1,2.1,0.1,3.1,0.2c0.8,0,1.6,0.1,2.4,0.1
			c2.3,0.1,4.6,0.2,6.8,0.2c4.4,0.1,8.9,0.2,13.3,0.2v17.5c0,16.7,0,33.5,0,50.2C-174.7,786.5-174.6,787.4-174.5,788.3"/>
		<path class="st7" d="M922.3,898.7c-0.4-11-1.2-21.9-2.5-32.7c0-0.3-0.1-0.7-0.1-1c-2.5-20.2-6.7-39.9-12.4-58.9
			c-1.4,0.5-2.8,1-4.3,1.4c-0.6,0.2-1.1,0.3-1.7,0.5c-1.5,0.5-3,0.9-4.6,1.4c-0.5,0.1-1,0.3-1.5,0.4c-1.6,0.4-3.2,0.9-4.8,1.3
			c-1.1,0.3-2.2,0.6-3.3,0.8c-0.6,0.1-1.2,0.3-1.8,0.4c-0.2,0-0.3,0.1-0.5,0.1c-1.3,0.3-2.6,0.6-4,0.9c-0.6,0.1-1.1,0.2-1.7,0.3
			c-0.2,0-0.5,0.1-0.7,0.2c-0.6,0.1-1.2,0.2-1.8,0.3c-0.7,0.1-1.4,0.3-2.1,0.4c-11.7,2.2-23.5,3.8-35.4,5c-10.6,1-21.2,2.3-32,2.3
			c-11.8-0.1-23.7,0.2-35.5-0.6c-11.5-0.8-22.9-2-34.2-3.7c-24.5-3.6-48.3-9.2-72-15.5c-9.1-2.4-18.1-5.3-27.4-7.3
			c-2,0-12.2-3.9-14-4.3c-4.1-1.1-8.3-2.2-12.4-3.4c8.3,0.4,16.6,1.2,24.9,2c19.1,1.8,38,4.4,56.7,8.2c17.3,3.5,34.5,7.2,51.7,10.7
			c13.5,2.7,27.2,4.9,41.1,5.8c9.7,0.7,19.4,1.6,29.2,1.4c9.6-0.2,19.1-0.8,28.7-1.4c10.7-0.6,21.3-2,31.8-3.3
			c1.1-0.1,2.2-0.3,3.2-0.5c0.9-0.1,1.8-0.2,2.6-0.4h0c0.9-0.1,1.7-0.3,2.6-0.4c1.7-0.3,3.5-0.6,5.2-0.9c0.5-0.1,1-0.2,1.5-0.3
			c0.8-0.2,1.6-0.3,2.3-0.5c0.9-0.2,1.8-0.4,2.8-0.6c1.6-0.4,3.3-0.8,4.9-1.1c0.6-0.1,1.2-0.3,1.9-0.5c1.3-0.3,2.5-0.6,3.8-1
			c-7.5-24.6-17.4-48-29.5-70.1l-5.1-9.1c-2.8-4.8-5.7-9.5-8.7-14.1c-0.2-0.3-0.4-0.7-0.7-1c-1-1.5-2-3-3-4.5c-1-1.5-2-3-3-4.4
			c-1-1.4-2-2.8-3-4.2c-0.3-0.4-0.5-0.7-0.8-1.1c-0.8-1.1-1.6-2.3-2.5-3.4c-1.1-1.4-2.1-2.9-3.2-4.3c-1.2-1.5-2.3-3-3.5-4.5
			c-2.1-2.7-4.3-5.4-6.5-8c-3.2,0-6.4-0.1-9.6-0.1c2.8-0.5,5.6-1,8.3-1.5c-12.2-14.5-25.6-28.1-39.9-40.6l-0.2-0.2
			c0,0-0.1-0.1-0.1-0.1c-1.4-1.2-2.9-2.5-4.3-3.7c-0.6-0.5-1.2-1-1.8-1.5c-0.6-0.5-1.2-1-1.8-1.5c-0.9-0.7-1.8-1.4-2.6-2.2
			c0,0,0,0,0,0c-6.2-3.8-13-6.7-20-8.7c-1.1-0.1-2.3-0.3-3.4-0.4c-1.1-0.1-2.3-0.2-3.5-0.4c-2.3-0.2-4.7-0.5-7-0.7
			c-0.2,0-0.3,0-0.5,0c-0.8-0.1-1.6-0.1-2.4-0.2c-0.7-0.1-1.4-0.1-2.2-0.2c-0.6,0-1.1-0.1-1.6-0.1c-0.8-0.1-1.7-0.1-2.5-0.2
			c-0.4,0-0.8-0.1-1.2-0.1c-0.9-0.1-1.8-0.1-2.7-0.2l-2.1-0.1c-2.3-0.1-4.6-0.3-7-0.4c-0.2,0-0.4,0-0.6,0c-0.7,0-1.3-0.1-2-0.1
			c-1.9-0.1-3.8-0.2-5.7-0.3c-2.2-0.1-4.4-0.2-6.6-0.3c-1.2,0-2.4-0.1-3.6-0.1c-2.3-0.1-4.6-0.2-6.9-0.2c-1.2,0-2.4-0.1-3.6-0.1
			c0,0-0.1,0-0.2,0c-1.1,0-2.2,0-3.3-0.1c-2.6-0.1-5.2-0.1-7.8-0.2c-0.9,0-1.9,0-2.9,0c-3.8,0-7.5-0.1-11.3-0.1c-1,0-1.9,0-2.9,0
			c-5.3,0-10.5,0-15.8,0c-1.3-0.4-2.6-0.7-3.9-1.1c-1.3-0.4-2.7-0.8-4-1.1c-0.8-0.2-1.5-0.4-2.2-0.6c-1.5-0.4-2.9-0.8-4.4-1.1
			c-1.1-0.3-2.3-0.5-3.4-0.8c-2,0-12.2-3.9-14-4.3c-13.4-3.5-26.6-7.6-40-11.2c-19.5-5.2-39.1-10-59.1-13.5
			c-9.7-1.7-62.5-8.1-72.5-8.1c-2.2,0.1-74.4,5.3-76.6,5.5c-23.7,3-47.1,7.5-70.5,12c-14.5,2.7-29.1,5.2-44,6
			c-15.9,0.9-31.6-0.3-47.3-2.7c-17-2.6-33.7-6.3-50.8-8.7c-14.7-2-29.4-3.5-44.3-3.6c-10.7,0-21.4,0.7-32.1,1.5
			c-16.1,1.2-31.5,4.3-46.5,9.2c-13.6,4.4-27.5,7.8-41.9,10.2c-14.4,2.5-24.5,18.7-39.1,20.1c-14.9,1.4-20.6-8.3-34.7-5.7
			c0,0-17.6,3.1-17.6,3.1c-10.9,2.1-19.9,4.1-22.8,6.1c0,0,0,0,0,0c-4.7,3.7-9.2,7.5-13.7,11.4c-0.1,0.1-0.2,0.2-0.3,0.3
			c-0.3,0.2-0.6,0.5-0.9,0.8c-1.9,1.7-3.8,3.3-5.6,5c-0.9,0.8-1.9,1.7-2.8,2.5c-1.1,1-2.2,2-3.3,3.1c-0.9,0.9-1.9,1.8-2.8,2.7
			c-0.9,0.9-1.9,1.8-2.8,2.8c-0.7,0.7-1.4,1.4-2.2,2.2c-0.8,0.8-1.6,1.6-2.4,2.5l-0.9,1c-8.1,8.5-15.9,17.3-23.1,26.6
			c-6.1,7.7-11.9,15.6-17.3,23.7c-2.4,3.5-4.6,7.1-6.9,10.7c1,0.1,2.1,0.1,3.1,0.2c0.8,0,1.6,0.1,2.4,0.1c2.3,0.1,4.6,0.2,6.9,0.2
			c4.4,0.1,8.9,0.2,13.3,0.2v17.5c0,16.8,0,33.5,0,50.2c0,0.9,0.1,1.8,0.2,2.7v0c-1.8-0.4-3.6-0.7-5.5-1.1
			c-4.1-0.8-8.2-1.7-12.3-2.5c-8.2-1.7-16.4-3.3-24.6-4.9c-1.5-0.3-3-0.6-4.4-0.9c-3-0.6-6-1.1-9-1.7c-14.9,38.2-23.7,79.4-25,122.6
			c0,0.3,0,0.7,0,1c-0.1,3.5-0.2,7.1-0.2,10.7v151.1H922.6V911.4C922.6,907.1,922.5,902.9,922.3,898.7 M-8.5,680.9
			c-11.2-1-22,0-32.7,2.4c-8.4,1.9-16,5.4-23.5,8.9c-2.1,1-4.1,2-6.2,3c6.9,0.1,13.8-0.3,20.6-0.9c8.4-0.8,16.6-2.8,24.7-5
			c11.4-3.1,23.1-5.2,34.9-6.6C3.4,681.9-2.5,681.4-8.5,680.9 M254.8,765.4c-13.7-1.2-27.4-1.9-41-2.8c-11.2-0.7-22.4,0.5-33.6-0.8
			c-4.3-0.5-8.6,0.5-12.9,0.6c-10.4,0.4-20.8,0-31.2,0.7c-6,0.5-12.1,0.9-18.2,1.2c-3.6,0.1-7.3,0.4-11,0.8c-8.9,1-17.7,2-26.6,2.9
			c-10.8,1.2-21.5,2.3-32.3,3.5c-8.1,0.9-16.1,2.1-24.2,2.8c-12.1,1.1-24.1,2.5-36.2,3.4c-11.9,1-23.8,2.2-35.7,3.1
			c-3.8,0.3-7.6,0.6-11.4,0.9c-5.2,0.5-10.5,1.2-15.7,1.3c-5.6,0.1-11.1,0.8-16.7,1.1c-4.1,0.2-8.3,0.2-12.4,0.8
			c-6,0.9-12.1,0.8-18.1,1.2c-6.4,0.4-12.8,0.8-19.1,1.1c-10.2,0.5-20.4,1.4-30.7,1.4c13.1,2.5,26.4,4.4,39.8,5.8
			c14.2,1.4,28.5,1,42.7,1c15.1,0,30-1.5,44.9-3c14.6-1.4,29.1-3.2,43.6-5.6c14.3-2.4,28.3-5.8,41.9-10.2c15-4.9,30.5-8,46.5-9.2
			c10.7-0.8,21.3-1.6,32.1-1.5c14.9,0.1,29.7,1.5,44.3,3.6c17,2.4,33.8,6.1,50.8,8.7c15.6,2.5,31.4,3.6,47.3,2.7
			c14.8-0.8,29.5-3.3,44-6c2-0.4,4-0.8,6.1-1.1C292.9,770.2,274.1,767.1,254.8,765.4"/>
		<path class="st7" d="M907.3,806.1c-1.4,0.5-2.8,1-4.3,1.4c-0.6,0.2-1.1,0.4-1.7,0.5c-4.7,1.5-9.4,2.7-14.2,3.9
			c-0.6,0.1-1.2,0.3-1.8,0.4c-1.5,0.3-2.9,0.7-4.4,1c-0.6,0.1-1.1,0.2-1.7,0.4c-0.2,0-0.5,0.1-0.7,0.1c-0.6,0.1-1.2,0.2-1.7,0.3
			c-0.7,0.1-1.4,0.3-2.1,0.4c-11.7,2.2-23.5,3.8-35.5,4.9c-10.6,1-21.2,2.3-32,2.3c-11.8-0.1-23.7,0.3-35.5-0.6
			c-11.5-0.8-22.9-2-34.2-3.7c-24.5-3.6-48.3-9.2-72-15.5c-9.1-2.4-18.1-5.3-27.4-7.3c-2,0-12.2-3.9-14-4.3
			c-4.1-1.1-8.3-2.2-12.4-3.4c8.3,0.4,16.6,1.2,24.9,2c19.1,1.8,38,4.4,56.7,8.2c17.3,3.5,34.5,7.2,51.7,10.7
			c13.5,2.7,27.2,4.9,41.1,5.9c9.7,0.7,19.4,1.6,29.2,1.4c9.6-0.2,19.1-0.8,28.7-1.4c10.7-0.7,21.3-2,31.8-3.3
			c1.1-0.1,2.2-0.3,3.3-0.4c0.9-0.1,1.7-0.3,2.6-0.4h0c0.9-0.1,1.7-0.3,2.6-0.4c1.7-0.3,3.5-0.6,5.2-0.9c0.5-0.1,1-0.2,1.5-0.3
			c0.8-0.2,1.6-0.3,2.3-0.5c0.9-0.2,1.8-0.4,2.8-0.6c1.7-0.4,3.3-0.7,4.9-1.1c0.6-0.2,1.2-0.3,1.9-0.5c1.3-0.3,2.5-0.6,3.8-1
			C906.9,804.8,907.1,805.5,907.3,806.1"/>
		<path class="st7" d="M311.7,773.8c-2,0.4-4.1,0.8-6.1,1.1c-14.5,2.7-29.1,5.2-44,6c-15.9,0.9-31.6-0.3-47.3-2.7
			c-17-2.7-33.7-6.3-50.8-8.7c-14.7-2.1-29.4-3.5-44.3-3.6c-10.7-0.1-21.4,0.7-32.1,1.5c-16.1,1.2-31.5,4.3-46.5,9.2
			c-13.6,4.4-27.6,7.8-41.9,10.2c-14.4,2.5-29,4.3-43.6,5.7c-14.9,1.4-29.8,2.9-44.9,3c-14.2,0-28.5,0.4-42.7-1
			c-13.4-1.3-26.7-3.3-39.8-5.8c10.3,0,20.5-0.9,30.7-1.4c6.4-0.3,12.8-0.7,19.1-1.1c6-0.4,12.1-0.3,18.1-1.2
			c4.1-0.6,8.3-0.5,12.4-0.8c5.6-0.3,11.1-1,16.7-1.1c5.2-0.1,10.5-0.8,15.7-1.3c3.8-0.4,7.6-0.6,11.4-0.9
			c11.9-0.9,23.8-2.2,35.7-3.1c12.1-1,24.1-2.4,36.2-3.4c8.1-0.7,16.1-1.9,24.2-2.8c10.8-1.2,21.5-2.3,32.3-3.5
			c8.9-1,17.7-1.9,26.6-2.9c3.6-0.4,7.3-0.7,11-0.8c6.1-0.2,12.1-0.7,18.2-1.2c10.4-0.8,20.8-0.3,31.2-0.7c4.3-0.2,8.6-1.1,12.9-0.6
			c11.2,1.3,22.4,0.1,33.6,0.8c13.7,0.9,27.4,1.6,41,2.8C274.1,767.1,292.9,770.2,311.7,773.8"/>
		<path class="st7" d="M9.3,682.7c-11.8,1.4-23.4,3.5-34.9,6.6c-8.1,2.2-16.2,4.3-24.7,5c-6.8,0.6-13.7,1-20.6,0.9
			c2-1,4.1-2.1,6.2-3c7.5-3.6,15.1-7,23.5-8.9c10.7-2.4,21.5-3.5,32.7-2.4C-2.5,681.4,3.4,682,9.3,682.7"/>
		<path class="st8" d="M922.6,911.4v151.1H-255.5V911.4c0-3.6,0-7.1,0.2-10.7c0-0.3,0-0.7,0-1c1.3-43.1,10.1-84.4,25-122.6
			c3,0.6,6,1.1,9,1.7c1.5,0.3,3,0.6,4.4,0.9c8.2,1.6,16.4,3.3,24.6,5c4.1,0.8,8.2,1.7,12.3,2.5c1.8,0.4,3.7,0.7,5.5,1.1
			c0.8,0.2,1.6,0.3,2.3,0.4c13.1,2.5,26.4,4.4,39.8,5.8c14.2,1.4,28.5,1,42.7,1c15.1,0,30-1.5,44.9-3c14.6-1.4,29.1-3.2,43.6-5.7
			c14.3-2.4,28.3-5.8,41.9-10.2c15-4.9,30.4-8,46.5-9.2c10.7-0.8,21.3-1.6,32.1-1.5c14.9,0.1,29.7,1.5,44.3,3.6
			c17,2.4,33.8,6.1,50.8,8.7c15.6,2.5,31.4,3.6,47.3,2.7c14.9-0.8,29.5-3.3,44-6c2-0.4,4.1-0.8,6.1-1.1c21.4-4,42.8-8,64.4-10.8
			c2.2-0.3,74.3-5.5,76.6-5.5c10,0,62.8,6.4,72.5,8.1c20,3.5,39.6,8.3,59.1,13.5c9.2,2.5,18.4,5.2,27.6,7.8
			c4.1,1.2,8.2,2.3,12.4,3.4c1.8,0.5,12,4.3,14,4.3c9.3,2,18.3,4.9,27.4,7.3c23.6,6.3,47.5,11.9,72,15.5c11.3,1.7,22.7,2.8,34.2,3.7
			c11.9,0.9,23.7,0.6,35.5,0.6c10.7,0.1,21.3-1.3,32-2.3c11.9-1.1,23.7-2.7,35.4-4.9c11.2-2.1,22.1-4.8,32.6-8.4
			c5.7,19,9.8,38.7,12.4,58.9c0,0.3,0.1,0.7,0.1,1c1.3,10.7,2.2,21.6,2.5,32.7C922.5,902.9,922.6,907.1,922.6,911.4"/>
		<path class="st9" d="M-132.3,885.4c-5.1,3.2-11.1,4.8-17.1,6.2c-14.5,3.4-29.3,4-44.2,3.4c-6.2-0.3-12.4-1-18.3-3
			c-2.2-0.8-4.5-1.4-6.3-2.8c-3.4-2.6-3.5-5.2-0.1-7.8c2.9-2.2,6.2-3.6,9.9-4.7c13.9-4.1,28.2-5.9,42.7-5.3
			c8.1-0.2,15.9-0.1,23.6,1.5c3.3,0.7,6.4,1.7,9.3,3.1C-127.5,878.4-127.4,882.3-132.3,885.4 M28.3,856.2c-1.4,1.2-3.1,1.9-5,2.3
			c-4.3,1-8.7,1.8-13.4,1.4c-3.3,0.4-6.5-0.3-9.8-0.8c-0.9-0.2-1.9-0.4-2.7-0.8c-1.4-0.6-2.9-1.4-2.7-3c0.2-1.3,1.4-2,2.8-2.5
			c7.3-2.3,14.8-3.2,22.6-2.1c2.7,0.4,5.4,0.6,7.7,2C29.9,853.9,30,854.7,28.3,856.2 M919.7,865c-2.5-20.2-6.7-39.9-12.4-58.9
			c-1.4,0.5-2.8,1-4.3,1.4c-0.6,0.2-1.1,0.4-1.7,0.5c-1.5,0.5-3,0.9-4.6,1.4c-0.5,0.1-1,0.3-1.5,0.4c-1.6,0.4-3.2,0.9-4.8,1.3
			c-1.1,0.3-2.2,0.6-3.3,0.8c-0.6,0.1-1.2,0.3-1.8,0.4c-0.2,0-0.3,0.1-0.5,0.1c-1.3,0.3-2.6,0.6-4,0.9c-0.6,0.1-1.1,0.2-1.7,0.4
			c-0.2,0-0.5,0.1-0.7,0.1c-0.6,0.1-1.2,0.2-1.7,0.3c-0.7,0.1-1.4,0.3-2.1,0.4c-11.7,2.2-23.5,3.8-35.4,4.9c-10.6,1-21.2,2.3-32,2.3
			c-11.8-0.1-23.7,0.3-35.5-0.6c-11.5-0.8-22.9-2-34.2-3.7c-24.5-3.6-48.3-9.2-72-15.5c-9.1-2.4-18.1-5.3-27.4-7.3
			c-2,0-12.2-3.9-14-4.3c-4.1-1.1-8.3-2.2-12.4-3.4c-9.2-2.6-18.3-5.3-27.6-7.8c-19.5-5.2-39-10-59.1-13.5
			c-9.7-1.7-62.5-8.1-72.5-8.1c-2.2,0.1-74.4,5.3-76.6,5.5c-21.7,2.8-43.1,6.8-64.4,10.8c-2,0.4-4.1,0.8-6.1,1.1
			c-14.5,2.7-29.1,5.2-44,6c-15.9,0.9-31.6-0.3-47.3-2.7c-17-2.7-33.7-6.3-50.8-8.7c-14.7-2.1-29.4-3.5-44.3-3.6
			c-10.7-0.1-21.4,0.7-32.1,1.5c-16.1,1.2-31.5,4.3-46.5,9.2c-13.6,4.4-27.6,7.8-41.9,10.2c-14.4,2.5-29,4.3-43.6,5.7
			c-14.9,1.4-29.8,2.9-44.9,3c-14.2,0-28.5,0.4-42.7-1c-13.4-1.3-26.7-3.3-39.8-5.8c-0.8-0.1-1.6-0.3-2.3-0.4
			c-1.8-0.4-3.7-0.7-5.5-1.1c-4.1-0.8-8.2-1.7-12.3-2.5c-8.2-1.7-16.4-3.4-24.6-5c-1.5-0.3-2.9-0.6-4.4-0.9c-3-0.6-6-1.1-9-1.7
			c-14.9,38.2-23.7,79.4-25,122.6c0,0.3,0,0.7,0,1c0.5,0,1.1,0.1,1.6,0.1c7.5,0.6,14.9,1.5,22.4,2.2c7.1,0.7,14.3,1.1,21.4,1.8
			c7.3,0.7,14.7,1,22,1.2c20.1,0.6,40.3,0.2,60.2-3c13.9-2.2,27.4-5.6,40-11.1c7.9-3.4,15.4-7.6,23.2-11.3c7.5-3.6,15.1-7,23.5-8.9
			c10.7-2.4,21.5-3.5,32.7-2.4c7.9,0.7,15.9,1.4,23.7,2.6c16.8,2.5,33,6.6,48.7,12.1c16.1,5.6,31.5,12.4,47.9,17.4
			c14.9,4.5,30.1,8.3,45.8,10.4c10.6,1.3,21.1,2.6,31.8,3.3c9.6,0.6,19.1,1.1,28.7,1.4c9.7,0.2,19.4-0.7,29.2-1.4
			c13.9-1,27.6-3.1,41.1-5.9c17.3-3.5,34.5-7.2,51.7-10.7c18.7-3.8,37.6-6.4,56.7-8.2c12-1.1,24.2-2.2,36.3-2.3
			c13.6-0.1,27.1-0.8,40.7-0.3c14.7,0.5,29.4,0,44.2,0.8c6.8,0.4,13.7,0.8,20.6,1.1c4.4,0.2,9,0.1,13.4,0.8c6.8,1,13.7,1.2,20.5,1.2
			c17.4,0.1,34.9,0.8,52.3-0.5c7.2-0.5,14.3-1.1,21.4-2c16-2,31.8-4.8,47.5-8.1c28.1-5.9,56.2-11.6,85.1-14.2
			c13.7-1.2,27.4-1.9,41-2.8c11.1-0.7,22.4,0.5,33.6-0.8c4.3-0.5,8.6,0.5,12.9,0.6c10.4,0.4,20.8,0,31.2,0.7
			c6,0.5,12.1,0.9,18.2,1.2c1.4,0.1,2.8,0.1,4.3,0.2C919.8,865.7,919.7,865.3,919.7,865 M614.1,825.6c5.1-1.1,18.7-0.9,24-0.6
			c5.7-0.3,11.1,0.5,16.2,2.5c1.4,0.5,3.4,0.9,3,2.6c-0.3,1.5-2,1.9-3.6,2.3c-5.2,1.1-10.6,1.6-16,1.4c-2.7-0.2-5.5,0.5-8-0.8
			c-5.7,0.2-11.1-0.5-16.3-2.5c-1.4-0.5-3.4-0.9-3.1-2.6C610.8,826.4,612.5,825.9,614.1,825.6 M140.7,829c4.3-1.4,8.9-2.2,13.5-2.4
			c3.2-0.1,6.4,0,10.8,0c4.1,0.1,9.3-0.3,14.6,0.7c1.9,0.4,3.7,0.9,5.3,1.7c1.8,1,1.8,2.1,0.1,3.1c-0.8,0.5-1.7,0.7-2.6,1
			c-4.4,1.3-8.9,1.8-13.6,2.2c-6.1,0.6-12.1,0.2-18.1-0.1c-3.4-0.2-6.6-0.8-9.8-1.7c-1.4-0.4-2.8-1-2.7-2.4
			C138.3,830,139.5,829.3,140.7,829"/>
		<path class="st6" d="M-174.5,682c0,0.2,0,0.4-0.1,0.7c1.3,0,2.5-0.1,3.8-0.1C-172,682.4-173.3,682.2-174.5,682 M-174.5,682
			c0,0.2,0,0.4-0.1,0.7c1.3,0,2.5-0.1,3.8-0.1C-172,682.4-173.3,682.2-174.5,682 M-174.5,682c0,0.2,0,0.4-0.1,0.7
			c1.3,0,2.5-0.1,3.8-0.1C-172,682.4-173.3,682.2-174.5,682 M-174.5,682c0,0.2,0,0.4-0.1,0.7c1.3,0,2.5-0.1,3.8-0.1
			C-172,682.4-173.3,682.2-174.5,682 M-174.5,682c0,0.2,0,0.4-0.1,0.7c1.3,0,2.5-0.1,3.8-0.1C-172,682.4-173.3,682.2-174.5,682
			 M-174.5,682c0,0.2,0,0.4-0.1,0.7c1.3,0,2.5-0.1,3.8-0.1C-172,682.4-173.3,682.2-174.5,682 M-174.5,682c0,0.2,0,0.4-0.1,0.7
			c1.3,0,2.5-0.1,3.8-0.1C-172,682.4-173.3,682.2-174.5,682 M-174.5,682c0,0.2,0,0.4-0.1,0.7c1.3,0,2.5-0.1,3.8-0.1
			C-172,682.4-173.3,682.2-174.5,682 M-41.7,765.2c-1,0.4-2.1,0.7-3.2,0.9c-13.5,3.2-27.3,3.8-41.2,2.6c-1.9-0.2-4.8-0.1-5-2.2
			c-0.2-1.9,2.5-2.1,4.2-2.6c10.2-3.1,20.9-3.4,31.6-3.8c1.8,0,3.5,0.1,5.3,0c2.8-0.1,5.4,0.7,8,1c1.2,0.2,2.6,0.6,2.7,1.9
			C-39.3,764.2-40.6,764.7-41.7,765.2 M-174.5,682c0,0.2,0,0.4-0.1,0.7c1.3,0,2.5-0.1,3.8-0.1C-172,682.4-173.3,682.2-174.5,682
			 M-174.5,682c0,0.2,0,0.4-0.1,0.7c1.3,0,2.5-0.1,3.8-0.1C-172,682.4-173.3,682.2-174.5,682 M-174.5,682c0,0.2,0,0.4-0.1,0.7
			c1.3,0,2.5-0.1,3.8-0.1C-172,682.4-173.3,682.2-174.5,682 M-174.5,682c0,0.2,0,0.4-0.1,0.7c1.3,0,2.5-0.1,3.8-0.1
			C-172,682.4-173.3,682.2-174.5,682 M-174.5,682c0,0.2,0,0.4-0.1,0.7c1.3,0,2.5-0.1,3.8-0.1C-172,682.4-173.3,682.2-174.5,682
			 M-174.5,682c0,0.2,0,0.4-0.1,0.7c1.3,0,2.5-0.1,3.8-0.1C-172,682.4-173.3,682.2-174.5,682 M877.2,734.1
			c-4.2,0.2-8.3,0.2-12.5-0.2c-4.6-0.4-9.2-0.9-13.6-2.2c-0.9-0.3-1.8-0.5-2.6-1c-1.7-1-1.7-2.2,0.1-3.1c1.6-0.9,3.4-1.3,5.3-1.7
			c5.2-1.1,10.5-0.7,14.6-0.7c1.3,0,2.5,0,3.6,0c-2.8-4.8-5.7-9.5-8.7-14.1c-8-12.4-16.7-24.2-26.1-35.5c-3.2,0-6.4-0.1-9.6-0.1
			c-2.8,0.5-5.6,1-8.4,1.4c-15.6,2.5-31.4,3.6-47.3,2.7c-0.7,0-1.4-0.1-2.1-0.1c-14.1-0.9-28-3.3-41.9-5.9
			c-23.4-4.4-46.8-8.9-70.5-11.9c-0.8-0.1-11.5-0.9-24.7-1.9c-21.9-1.6-50.5-3.6-51.9-3.7c-5.7,0-25.4,2.1-43.1,4.2
			c-13.2,1.6-25.3,3.2-29.4,3.9c-20,3.5-39.6,8.3-59.1,13.5c-4.1,1.1-8.1,2.2-12.1,3.4c-9.3,2.6-18.5,5.4-27.8,7.8
			c-1.8,0.5-12,4.3-14,4.3c-9.3,2-18.3,4.9-27.4,7.3c-23.6,6.3-47.5,11.9-72,15.5c-11.3,1.7-22.7,2.8-34.2,3.7
			c-11.9,0.9-23.7,0.6-35.5,0.6c-10.7,0.1-21.3-1.3-32-2.3c-11.9-1.1-23.7-2.7-35.5-4.9c-15.1-2.8-29.7-6.7-43.4-12.6
			c-7.5-3.2-14.7-7-22.1-10.4c-11-5.2-22.8-8.2-35.5-8.8c-5.1-0.3-10.2-0.8-15.3-0.7c-11.1,0.3-22.2,1-33.1,2.3
			c-11.8,1.4-23.4,3.5-34.9,6.6c-8.1,2.2-16.2,4.3-24.7,5c-6.8,0.6-13.6,1-20.6,0.9c-1.7,0-3.5-0.1-5.2-0.2
			c-18.3-1.1-36.4-3.7-54.5-6.2c2.9,2.4,2.3,5.5-1.8,8.1c-5.1,3.2-11.1,4.8-17.1,6.2c-8.3,2-16.8,3-25.3,3.4c0,3.8,0,7.6,0,11.4
			v17.5c0,16.7,0,33.5,0,50.2c0,0.9,0.1,1.8,0.2,2.7v0c0,0.2,0,0.3,0,0.4c0.8,0,1.5,0,2.3,0c10.3,0,20.5-0.9,30.7-1.4
			c6.4-0.3,12.8-0.7,19.1-1.1c6-0.4,12.1-0.3,18.1-1.2c4.1-0.6,8.3-0.5,12.4-0.8c5.6-0.3,11.1-1,16.7-1.1c5.2-0.1,10.5-0.8,15.7-1.3
			c3.8-0.4,7.6-0.6,11.4-0.9c11.9-0.9,23.8-2.2,35.7-3.1c12.1-1,24.1-2.4,36.2-3.4c8.1-0.7,16.1-1.9,24.2-2.8
			c10.8-1.2,21.5-2.3,32.3-3.5c8.9-1,17.7-1.9,26.6-2.9c3.6-0.4,7.3-0.7,11-0.8c6.1-0.2,12.1-0.7,18.2-1.2
			c10.4-0.8,20.8-0.3,31.2-0.7c4.3-0.2,8.6-1.1,12.9-0.6c11.2,1.3,22.4,0.1,33.6,0.8c13.7,0.9,27.4,1.6,41,2.8
			c19.2,1.7,38.1,4.8,56.9,8.4c9.4,1.8,18.8,3.8,28.2,5.8c15.7,3.3,31.5,6.1,47.5,8.1c7.1,0.9,14.3,1.4,21.4,2
			c17.5,1.3,34.9,0.6,52.3,0.5c6.8,0,13.7-0.2,20.5-1.2c4.4-0.6,8.9-0.6,13.4-0.8c6.9-0.3,13.7-0.7,20.6-1.1
			c14.7-0.8,29.5-0.3,44.2-0.8c13.6-0.5,27.1,0.2,40.7,0.3c3.8,0,7.6,0.2,11.4,0.4c8.3,0.4,16.6,1.2,24.9,2
			c19.1,1.8,38,4.4,56.7,8.2c17.3,3.5,34.5,7.2,51.7,10.7c13.5,2.7,27.2,4.9,41.1,5.9c9.7,0.7,19.4,1.6,29.2,1.4
			c9.6-0.2,19.1-0.8,28.7-1.4c10.7-0.7,21.3-2,31.8-3.3c1.1-0.1,2.2-0.3,3.3-0.4c0.9-0.1,1.7-0.3,2.6-0.4h0c0.9-0.1,1.7-0.3,2.6-0.4
			c1.7-0.3,3.5-0.6,5.2-0.9c0.5-0.1,1-0.2,1.5-0.3c0.8-0.2,1.6-0.3,2.3-0.5c0.9-0.2,1.8-0.4,2.8-0.6c1.7-0.4,3.3-0.7,4.9-1.1
			c0.6-0.2,1.2-0.3,1.9-0.5c1.3-0.3,2.5-0.6,3.8-1C899.3,779.6,889.4,756.2,877.2,734.1 M379.2,725.9c5.1-2,10.5-2.8,16.2-2.5
			c5.3-0.3,18.9-0.5,24,0.6c1.6,0.3,3.3,0.8,3.6,2.3c0.3,1.7-1.7,2.1-3.1,2.6c-5.2,2-10.6,2.7-16.3,2.5c-2.5,1.3-5.3,0.6-8,0.8
			c-5.4,0.2-10.8-0.3-16-1.4c-1.6-0.3-3.3-0.8-3.6-2.3C375.8,726.8,377.8,726.4,379.2,725.9"/>
		<path class="st6" d="M907.3,806.1c-1.4,0.5-2.8,1-4.3,1.4c-0.6,0.2-1.1,0.4-1.7,0.5c-4.7,1.5-9.4,2.7-14.2,3.9
			c-0.6,0.1-1.2,0.3-1.8,0.4c-1.5,0.3-2.9,0.7-4.4,1c-0.6,0.1-1.1,0.2-1.7,0.4c-0.2,0-0.5,0.1-0.7,0.1c-0.6,0.1-1.2,0.2-1.7,0.3
			c-0.7,0.1-1.4,0.3-2.1,0.4c-11.7,2.2-23.5,3.8-35.5,4.9c-10.6,1-21.2,2.3-32,2.3c-11.8-0.1-23.7,0.3-35.5-0.6
			c-11.5-0.8-22.9-2-34.2-3.7c-24.5-3.6-48.3-9.2-72-15.5c-9.1-2.4-18.1-5.3-27.4-7.3c-2,0-12.2-3.9-14-4.3
			c-4.1-1.1-8.3-2.2-12.4-3.4c8.3,0.4,16.6,1.2,24.9,2c19.1,1.8,38,4.4,56.7,8.2c17.3,3.5,34.5,7.2,51.7,10.7
			c13.5,2.7,27.2,4.9,41.1,5.9c9.7,0.7,19.4,1.6,29.2,1.4c9.6-0.2,19.1-0.8,28.7-1.4c10.7-0.7,21.3-2,31.8-3.3
			c1.1-0.1,2.2-0.3,3.3-0.4c0.9-0.1,1.7-0.3,2.6-0.4h0c0.9-0.1,1.7-0.3,2.6-0.4c1.7-0.3,3.5-0.6,5.2-0.9c0.5-0.1,1-0.2,1.5-0.3
			c0.8-0.2,1.6-0.3,2.3-0.5c0.9-0.2,1.8-0.4,2.8-0.6c1.7-0.4,3.3-0.7,4.9-1.1c0.6-0.2,1.2-0.3,1.9-0.5c1.3-0.3,2.5-0.6,3.8-1
			C906.9,804.8,907.1,805.5,907.3,806.1"/>
		<path class="st6" d="M311.7,773.8c-2,0.4-4.1,0.8-6.1,1.1c-14.5,2.7-29.1,5.2-44,6c-15.9,0.9-31.6-0.3-47.3-2.7
			c-17-2.7-33.7-6.3-50.8-8.7c-14.7-2.1-29.4-3.5-44.3-3.6c-10.7-0.1-21.4,0.7-32.1,1.5c-16.1,1.2-31.5,4.3-46.5,9.2
			c-13.6,4.4-27.6,7.8-41.9,10.2c-14.4,2.5-29,4.3-43.6,5.7c-14.9,1.4-29.8,2.9-44.9,3c-14.2,0-28.5,0.4-42.7-1
			c-13.4-1.3-26.7-3.3-39.8-5.8c10.3,0,20.5-0.9,30.7-1.4c6.4-0.3,12.8-0.7,19.1-1.1c6-0.4,12.1-0.3,18.1-1.2
			c4.1-0.6,8.3-0.5,12.4-0.8c5.6-0.3,11.1-1,16.7-1.1c5.2-0.1,10.5-0.8,15.7-1.3c3.8-0.4,7.6-0.6,11.4-0.9
			c11.9-0.9,23.8-2.2,35.7-3.1c12.1-1,24.1-2.4,36.2-3.4c8.1-0.7,16.1-1.9,24.2-2.8c10.8-1.2,21.5-2.3,32.3-3.5
			c8.9-1,17.7-1.9,26.6-2.9c3.6-0.4,7.3-0.7,11-0.8c6.1-0.2,12.1-0.7,18.2-1.2c10.4-0.8,20.8-0.3,31.2-0.7c4.3-0.2,8.6-1.1,12.9-0.6
			c11.2,1.3,22.4,0.1,33.6,0.8c13.7,0.9,27.4,1.6,41,2.8C274.1,767.1,292.9,770.2,311.7,773.8"/>
		<path class="st6" d="M796,633.2c-8.1,0-16.1,0-24.2-0.6c-11.5-0.8-22.9-2-34.2-3.7c-24.5-3.6-48.3-9.2-72-15.5
			c-3.2-0.8-6.3-1.7-9.5-2.6c-5.9-1.7-11.9-3.4-17.9-4.7c-2,0-12.2-3.9-14-4.3c-13.4-3.5-26.6-7.6-40-11.1
			c-19.5-5.2-39.1-10-59.1-13.5c-9.7-1.7-62.5-8.1-72.5-8.1c-2.2,0.1-74.4,5.3-76.6,5.5c-23.7,3-47.1,7.5-70.5,11.9
			c-14.5,2.7-29.1,5.2-44,6c-15.9,0.9-31.6-0.3-47.3-2.7c-17-2.7-33.7-6.3-50.8-8.7c-14.7-2.1-29.4-3.5-44.3-3.6
			c-10.7-0.1-21.4,0.7-32.1,1.5c-16.1,1.2-31.5,4.3-46.5,9.2c-13.6,4.4-27.6,7.8-41.9,10.2c-14.4,2.5-24.5,18.7-39.1,20.1
			c-14.9,1.4-20.6-8.3-34.7-5.7c0,0-17.6,3.1-17.6,3.1c-10.9,2.1-19.9,4.1-22.8,6.1c0,0,0,0,0,0c-10.3,7.3-5.4,4-13.9,11.6
			c-0.3,0.2-0.6,0.5-0.9,0.8c-7.9,6.9-15.4,14.2-22.7,21.7c-8.1,8.5-15.9,17.3-23.1,26.6c0.5,0,1,0,1.6-0.1c1.3,0,2.5-0.1,3.8-0.1
			c1.7,0,3.4,0,5.2,0.1c8.1-0.2,15.9-0.1,23.6,1.5c3.3,0.7,6.4,1.7,9.3,3.1c0.9,0.4,1.7,0.9,2.2,1.4c2.9,2.4,2.3,5.5-1.8,8.1
			c-5.1,3.2-11.1,4.8-17.1,6.2c-8.3,2-16.8,3-25.3,3.4c-6.2,0.3-12.4,0.2-18.7,0c-2.4,3.5-4.6,7.1-6.9,10.7c1,0.1,2.1,0.1,3.1,0.2
			c0.8,0,1.6,0.1,2.4,0.1c2.3,0.1,4.6,0.2,6.8,0.2c4.4,0.1,8.9,0.2,13.3,0.2c15.7,0.1,31.4-0.8,46.9-3.3c13.9-2.2,27.4-5.6,40-11.1
			c5.8-2.5,11.4-5.4,17-8.2c2-1,4.1-2.1,6.2-3c7.5-3.6,15.1-7,23.5-8.9c10.7-2.4,21.5-3.5,32.7-2.4c5.9,0.6,11.9,1.1,17.7,1.8
			c2,0.2,4,0.5,6,0.8c16.8,2.5,33,6.6,48.7,12.1C80,701.2,95.5,708,111.9,713c14.9,4.5,30.1,8.3,45.8,10.4
			c10.6,1.3,21.1,2.6,31.8,3.3c9.6,0.6,19.1,1.1,28.7,1.4c9.7,0.2,19.4-0.7,29.2-1.4c13.9-1,27.6-3.2,41.1-5.9
			c17.3-3.5,34.5-7.2,51.7-10.7c18.7-3.8,37.6-6.4,56.7-8.2c12-1.1,24.2-2.2,36.3-2.3c13.6-0.1,27.1-0.8,40.7-0.3
			c14.7,0.5,29.4,0,44.2,0.8c6.8,0.4,13.7,0.8,20.6,1.1c4.4,0.2,9,0.1,13.4,0.8c6.8,1,13.7,1.2,20.5,1.2c5.9,0,11.8,0.2,17.7,0.2
			c11.5,0.1,23.1,0.2,34.7-0.7c7.2-0.5,14.3-1.1,21.4-2c16-2,31.8-4.8,47.5-8.1c25.2-5.3,50.4-10.4,76.2-13.3c3-0.3,5.9-0.6,8.9-0.9
			c13.7-1.2,27.4-1.9,41-2.8c2.6-0.2,5.2-0.2,7.9-0.2c2.8-0.5,5.6-1,8.3-1.5C823.7,659.3,810.3,645.7,796,633.2 M28.3,667.7
			c-1.4,1.2-3.1,1.9-5,2.3c-4.3,1-8.7,1.8-13.4,1.4c-3.3,0.4-6.5-0.3-9.8-0.8c-0.9-0.2-1.9-0.4-2.7-0.8c-1.4-0.6-2.9-1.4-2.7-3
			c0.2-1.3,1.4-2,2.8-2.5c7.3-2.3,14.8-3.2,22.6-2.1c2.7,0.4,5.4,0.6,7.7,2C29.9,665.4,30,666.2,28.3,667.7 M168.8,646.9
			c-6.1,0.6-12.1,0.2-18.1-0.1c-2.5-0.1-4.8-0.5-7.1-1c-0.9-0.2-1.8-0.4-2.7-0.7c-1.4-0.4-2.8-1-2.7-2.4c0.1-1.2,1.3-1.9,2.5-2.2
			c4.3-1.4,8.9-2.2,13.5-2.4c3.2-0.1,6.4,0,10.8,0c4.1,0.1,9.3-0.3,14.6,0.7c1.9,0.4,3.7,0.9,5.3,1.7c1.8,1,1.8,2.1,0.1,3.1
			c-0.8,0.5-1.7,0.7-2.6,1c-0.3,0.1-0.7,0.2-1,0.3C177.3,646,173.1,646.5,168.8,646.9 M657.4,641.5c-0.3,1.5-2,1.9-3.6,2.3
			c-5.2,1.1-10.6,1.6-16,1.4c-2.7-0.2-5.5,0.5-8-0.8c-5.7,0.2-11.1-0.5-16.3-2.5c-1.4-0.5-3.4-0.9-3.1-2.6c0.3-1.5,2-1.9,3.6-2.3
			c5.1-1,18.7-0.9,24-0.6c5.7-0.3,11.1,0.5,16.2,2.5C655.7,639.5,657.7,639.8,657.4,641.5"/>
		<path class="st6" d="M827.6,675.3c-2.8,0.5-5.6,1-8.4,1.4c-15.6,2.5-31.4,3.6-47.3,2.7c-0.7,0-1.4-0.1-2.1-0.1
			c3-0.3,5.9-0.6,8.9-0.9c13.7-1.2,27.4-1.9,41-2.8C822.3,675.4,825,675.4,827.6,675.3"/>
		<path class="st6" d="M835.9,673.9c0.4,0.5,0.9,1,1.3,1.5c-3.2,0-6.4-0.1-9.6-0.1C830.4,674.9,833.1,674.4,835.9,673.9"/>
		<path class="st6" d="M9.3,682.7c-11.8,1.4-23.4,3.5-34.9,6.6c-8.1,2.2-16.2,4.3-24.7,5c-6.8,0.6-13.7,1-20.6,0.9
			c2-1,4.1-2.1,6.2-3c7.5-3.6,15.1-7,23.5-8.9c10.7-2.4,21.5-3.5,32.7-2.4C-2.5,681.4,3.4,682,9.3,682.7"/>
		<path class="st6" d="M835.9,673.9c0.4,0.5,0.9,1,1.3,1.5c-3.2,0-6.4-0.1-9.6-0.1C830.4,674.9,833.1,674.4,835.9,673.9"/>
		<path class="st6" d="M837.2,674.3c-0.4-0.5-0.9-1-1.3-1.5c-12.2-14.5-25.6-28.1-39.9-40.6l-0.2-0.2c0,0-0.1-0.1-0.1-0.1
			c-3.3-2.9-6.8-5.4-10.5-7.7c0,0,0,0,0,0c-6.2-3.8-13-6.7-20-8.7c-4.5-1.2-9.2-2.1-13.9-2.6c-0.2,0-0.3,0-0.5,0
			c-0.8-0.1-1.6-0.1-2.4-0.2c-0.7-0.1-1.5-0.1-2.2-0.2c-0.6,0-1.1-0.1-1.6-0.1c-0.8-0.1-1.7-0.1-2.5-0.2c-0.4,0-0.8,0-1.2-0.1
			c-0.9-0.1-1.8-0.1-2.7-0.2l-2.1-0.1c-2.3-0.2-4.6-0.3-7-0.4c-0.2,0-0.4,0-0.6,0c-0.7,0-1.3-0.1-2-0.1c-1.9-0.1-3.8-0.2-5.7-0.3
			c-2.2-0.1-4.4-0.2-6.6-0.3c-1.2,0-2.4-0.1-3.5-0.1c-2.3-0.1-4.6-0.2-6.9-0.2c-1.2,0-2.4-0.1-3.6-0.1c0,0-0.1,0-0.2,0
			c-1.1,0-2.2-0.1-3.3-0.1c-2.6-0.1-5.2-0.1-7.8-0.2c-0.9,0-1.9,0-2.9,0c-3.8-0.1-7.5-0.1-11.3-0.1c-1,0-1.9,0-2.9,0
			c-5.3,0-10.5,0-15.8,0.1c-1.3,0-2.6,0-3.9,0c-32.2,0.4-62.5,1.9-85.3,4c-70,6.2-151.8,8.3-311.7-7.1
			C112,592.7,10.3,646.7-129.1,633.4c-0.4,0-0.8-0.1-1.2-0.1c-7.9,6.9-15.4,14.2-22.7,21.7l0.9,0.2c34.9,6.6,69.1,12.9,72.4,12.7
			c5.5-0.4,160.7-16.6,223.2-23.2c-0.9-0.2-1.8-0.4-2.7-0.7c-1.4-0.4-2.8-1-2.7-2.4c0.1-1.2,1.3-1.9,2.5-2.2
			c4.3-1.4,8.9-2.2,13.5-2.4c3.2-0.2,6.4,0,10.8,0c4.1,0.1,9.3-0.3,14.6,0.8c1.9,0.4,3.7,0.9,5.3,1.7c1.8,1,1.8,2.1,0.1,3.1
			c-0.8,0.5-1.7,0.7-2.6,1c-0.3,0.1-0.7,0.2-1,0.3c44.2,6.7,197.8,29.8,255.8,36c11.5,1.2,19.3,1.8,21.6,1.4
			c9-1.4,74.3,10.3,131.3,21c46.6,8.8,87.6,17.1,87.6,17.1l173.7-7.3l11.3-2.2l0.7-0.1C855.3,697.4,846.6,685.5,837.2,674.3"/>
		<path class="st7" d="M633.9,657.6c0,5-22,9.1-49.1,9.1c-27.1,0-49.1-4.1-49.1-9.1c0-5,22-9.1,49.1-9.1
			C611.9,648.5,633.9,652.6,633.9,657.6"/>
		<path class="st7" d="M769.8,741.6c0,6.7-26.7,12.1-59.6,12.1c-32.9,0-59.6-5.4-59.6-12.1s26.7-12.1,59.6-12.1
			C743.1,729.6,769.8,735,769.8,741.6"/>
		<polygon class="st10" points="676,701.7 688,698.2 718.1,523.1 707.8,519.1 674.1,561.5 674,561.6 663.5,694.1 663,700.3 
			663.4,700.5 673.1,705.4 673.1,705.4 		"/>
		<polyline class="st10" points="9.1,673.3 19.7,672.6 25,490.5 14.1,488 -3.1,531.4 -8.8,537.6 -0.9,665.7 1.8,673.8 		"/>
		<path class="st11" d="M118.5,508.7l-210.1,52.1c-17.6,4.4-35.5-6.5-39.9-24l-8.8-35.7c-4.4-17.6,6.5-35.5,24-39.9l210.1-52.1
			c17.6-4.4,35.5,6.5,39.9,24l8.8,35.7C146.9,486.4,136.1,504.4,118.5,508.7"/>
		<path class="st6" d="M812.9,602.4L577.7,571c-17.9-2.4-30.7-19-28.3-37l6.6-49.2c2.4-17.9,19-30.7,37-28.3l235.2,31.4
			c17.9,2.4,30.7,19,28.3,37l-6.6,49.2C847.5,592,830.9,604.8,812.9,602.4"/>
		<path class="st11" d="M803.4,594.6L588.9,566c-17.9-2.4-30.7-19-28.3-37l4.9-36.4c2.4-17.9,19-30.7,37-28.3L817,492.9
			c17.9,2.4,30.7,19,28.3,37l-4.9,36.4C838,584.3,821.4,597,803.4,594.6"/>
		<g class="st12">
			<defs>
				<rect id="SVGID_9_" x="61.6" y="537.1" width="45.8" height="76.7"/>
			</defs>
			<clipPath id="SVGID_10_">
				<use xlink:href="#SVGID_9_"  style="overflow:visible;"/>
			</clipPath>
			<defs>
				<filter id="Adobe_OpacityMaskFilter" filterUnits="userSpaceOnUse" x="22.8" y="527.9" width="123.4" height="95.1">
					<feFlood  style="flood-color:white;flood-opacity:1" result="back"/>
					<feBlend  in="SourceGraphic" in2="back" mode="normal"/>
				</filter>
			</defs>
			<mask maskUnits="userSpaceOnUse" x="22.8" y="527.9" width="123.4" height="95.1" id="SVGID_11_">
				<g class="st13">
					<g class="st14">
						<g>
							<defs>
								<rect id="SVGID_12_" x="59.4" y="534.4" width="51" height="82"/>
							</defs>
							<clipPath id="SVGID_13_" class="st15">
								<use xlink:href="#SVGID_12_"  style="overflow:visible;"/>
							</clipPath>
							<g style="clip-path:url(#SVGID_13_);">
								
									<image style="overflow:visible;" width="51" height="82" xlink:href="F287A8386FA29CC1.jpg"  transform="matrix(1 0 0 1 59.373 534.4189)">
								</image>
							</g>
						</g>
					</g>
				</g>
			</mask>
			<g class="st16">
				<g>
					<defs>
						<rect id="SVGID_14_" x="61.6" y="537.1" width="45.8" height="76.7"/>
					</defs>
					<clipPath id="SVGID_15_">
						<use xlink:href="#SVGID_14_"  style="overflow:visible;"/>
					</clipPath>
					<g class="st17">
						<defs>
							<polygon id="SVGID_16_" points="107.4,573.8 97.8,607.8 61.6,613.8 79.9,537.1 							"/>
						</defs>
						<clipPath id="SVGID_17_">
							<use xlink:href="#SVGID_16_"  style="overflow:visible;"/>
						</clipPath>
						<defs>
							<filter id="Adobe_OpacityMaskFilter_1_" filterUnits="userSpaceOnUse" x="22.8" y="527.9" width="123.4" height="95.1">
								<feColorMatrix  type="matrix" values="1 0 0 0 0  0 1 0 0 0  0 0 1 0 0  0 0 0 1 0"/>
							</filter>
						</defs>
						<mask maskUnits="userSpaceOnUse" x="22.8" y="527.9" width="123.4" height="95.1" id="SVGID_11_">
							<g class="st18">
								
									<linearGradient id="SVGID_18_" gradientUnits="userSpaceOnUse" x1="-610" y1="790.0966" x2="-609" y2="790.0966" gradientTransform="matrix(38.1012 8.6435 16.3731 -28.656 10375.4678 28485.6719)">
									<stop  offset="0" style="stop-color:#000000"/>
									<stop  offset="3.832010e-02" style="stop-color:#000000"/>
									<stop  offset="0.2338" style="stop-color:#3F3F3F"/>
									<stop  offset="0.4132" style="stop-color:#717171"/>
									<stop  offset="0.5693" style="stop-color:#949494"/>
									<stop  offset="0.696" style="stop-color:#AAAAAA"/>
									<stop  offset="0.7775" style="stop-color:#B3B3B3"/>
									<stop  offset="1" style="stop-color:#B3B3B3"/>
								</linearGradient>
								<polygon class="st19" points="66.9,527.9 146.2,545.9 102.2,623 22.8,605 								"/>
							</g>
						</mask>
						
							<linearGradient id="SVGID_19_" gradientUnits="userSpaceOnUse" x1="-610" y1="790.0966" x2="-609" y2="790.0966" gradientTransform="matrix(38.1012 8.6435 16.3731 -28.656 10375.4678 28485.668)">
							<stop  offset="0" style="stop-color:#2E3190"/>
							<stop  offset="3.832010e-02" style="stop-color:#2E3190"/>
							<stop  offset="0.16" style="stop-color:#3952A4"/>
							<stop  offset="0.3627" style="stop-color:#4A84C3"/>
							<stop  offset="0.5405" style="stop-color:#56A8D9"/>
							<stop  offset="0.6848" style="stop-color:#5DBEE6"/>
							<stop  offset="0.7775" style="stop-color:#60C6EB"/>
							<stop  offset="0.818" style="stop-color:#55BDE6"/>
							<stop  offset="0.8885" style="stop-color:#39A3D7"/>
							<stop  offset="0.9798" style="stop-color:#0B7BC0"/>
							<stop  offset="1" style="stop-color:#0071BA"/>
						</linearGradient>
						<polygon class="st20" points="66.9,527.9 146.2,545.9 102.2,623 22.8,605 						"/>
					</g>
				</g>
			</g>
		</g>
		<path class="st21" d="M69.2,592.3L68,603.4c0,0.3,0.2,0.5,0.5,0.5l6.2,0.6c3.6,0.4,6.7-1.7,7-4.6l0.1-1.4c0.3-2.9-2.3-5.6-5.9-6
			l-6.2-0.6C69.5,591.9,69.2,592.1,69.2,592.3"/>
		<path class="st5" d="M70.5,592.5c-14.4-2.3-17.3-10.7-18.1-16.5l-11.5,0.2c0,0.5,0,1.1,0,1.7c0.3,17.2,18,22.9,28.6,24.7"/>
		<path class="st5" d="M69.5,592.4l-1.1,11l6.4,0.7c3.3,0.3,6.1-1.7,6.4-4.5l0.1-0.9c0.3-2.8-2.1-5.3-5.4-5.7L69.5,592.4z"/>
		<path class="st22" d="M68.6,603.7l0.1-0.5l1.2-10.4l0.1-0.5c0-0.4,0-0.7-0.2-0.7l-0.5-0.1c-0.1,0-0.3,0.3-0.3,0.7l-0.1,0.5
			L67.6,603l-0.1,0.5c0,0.4,0,0.7,0.2,0.7l0.5,0.1C68.4,604.4,68.6,604.1,68.6,603.7"/>
		<path class="st5" d="M49.3,568.2L26.5,571c-2.2,0.3-3.7,2.8-3.3,5.7l0.5,3.8l1.2,10.1l4.2,33.8c0.4,2.9,2.4,5,4.6,4.7l22.7-2.8
			c2.2-0.3,3.7-2.8,3.3-5.7l-4.1-33l-1.3-10.5l-0.5-4.2C53.5,570.1,51.5,568,49.3,568.2"/>
		<path class="st5" d="M58.5,653.5l-2.4,0.5c-2.9,0.6-5.8-1.2-6.5-4.1L44.7,628c-0.6-2.9,1.2-5.8,4.1-6.5l2.4-0.5
			c2.9-0.6,5.8,1.2,6.5,4.1l4.9,21.9C63.2,649.9,61.4,652.8,58.5,653.5"/>
		<path class="st5" d="M58,673.5l-2.4-0.1c-3-0.1-5.3-2.6-5.3-5.6l0.4-14.6c0.1-2.4,2.1-4.3,4.5-4.2l4.5,0.1
			c2.4,0.1,4.3,2.1,4.2,4.5l-0.4,14.6C63.5,671.2,61,673.5,58,673.5"/>
		<path class="st23" d="M61.5,644l-12.2,2.7c-0.5,0.1-1-0.2-1.1-0.7l-0.1-0.4c-0.1-0.5,0.2-1,0.7-1.1l12.2-2.7
			c0.5-0.1,1,0.2,1.1,0.7l0.1,0.4C62.3,643.4,62,643.9,61.5,644"/>
		<path class="st24" d="M63.5,654.5l-3.5,0.8c-1.8,0.4-3.6-0.7-4-2.5l-0.3-1.5c-0.4-1.8,0.7-3.6,2.5-4l3.5-0.8
			c1.2-0.3,2.5,0.5,2.8,1.8l0.8,3.4C65.5,652.9,64.7,654.2,63.5,654.5"/>
		<path class="st22" d="M64.2,649.1l-5.7,1.3c-0.2,0-0.4-0.1-0.5-0.3l0-0.2c0-0.2,0.1-0.4,0.3-0.5l5.7-1.3c0.2,0,0.4,0.1,0.5,0.3
			l0,0.2C64.6,648.8,64.5,649,64.2,649.1"/>
		<path class="st22" d="M64.6,650.7l-5.7,1.3c-0.2,0-0.4-0.1-0.5-0.3l0-0.2c0-0.2,0.1-0.4,0.3-0.5l5.7-1.3c0.2,0,0.4,0.1,0.5,0.3
			l0,0.2C65,650.4,64.8,650.6,64.6,650.7"/>
		<path class="st22" d="M65,652.3l-5.7,1.3c-0.2,0-0.4-0.1-0.5-0.3l0-0.2c0-0.2,0.1-0.4,0.3-0.5l5.7-1.3c0.2,0,0.4,0.1,0.5,0.3
			l0,0.2C65.3,652,65.2,652.2,65,652.3"/>
		<path class="st5" d="M38.4,652.4l-2.4-0.3c-2.9-0.4-5-3.1-4.7-6.1l3-22.3c0.4-3,3.1-5,6.1-4.7l2.4,0.3c2.9,0.4,5,3.1,4.7,6.1
			l-3,22.3C44,650.7,41.3,652.8,38.4,652.4"/>
		<path class="st5" d="M31.7,672.6l-2.3-0.8c-2.8-0.9-4.4-4-3.4-6.8l5.2-15.6c0.8-2.3,3.3-3.5,5.5-2.8l4.3,1.4
			c2.3,0.8,3.5,3.2,2.8,5.5l-5.2,15.6C37.6,672,34.5,673.5,31.7,672.6"/>
		<path class="st23" d="M44.7,643.3l-12.5,0.9c-0.5,0-1-0.4-1-0.9l0-0.4c0-0.5,0.4-1,0.9-1l12.5-0.9c0.5,0,1,0.4,1,0.9l0,0.4
			C45.7,642.8,45.3,643.3,44.7,643.3"/>
		<path class="st24" d="M21.1,627.9l-4.6,0.6c-5.6,0.7-10.8-3.3-11.5-9l-4.5-36.3c-0.7-5.6,3.3-10.8,9-11.5l4.6-0.6
			c5.6-0.7,10.8,3.3,11.5,9l4.5,36.3C30.8,622,26.7,627.2,21.1,627.9"/>
		<path class="st22" d="M30.1,613.4l-0.5,0.1l-10,1.2l-0.5,0.1c-0.4,0-0.7,0.2-0.6,0.4l0.1,0.7c0,0.2,0.3,0.3,0.7,0.2l0.5-0.1
			l10-1.2l0.5-0.1c0.4,0,0.7-0.2,0.6-0.4l-0.1-0.7C30.8,613.5,30.5,613.4,30.1,613.4"/>
		<path class="st22" d="M29.6,609.5l-0.5,0.1l-10,1.2l-0.5,0.1c-0.4,0-0.7,0.2-0.6,0.4L18,612c0,0.2,0.3,0.3,0.7,0.2l0.5-0.1l10-1.2
			l0.5-0.1c0.4,0,0.7-0.2,0.6-0.4l-0.1-0.7C30.3,609.6,30,609.5,29.6,609.5"/>
		<path class="st22" d="M29.2,605.7l-0.5,0.1l-10,1.2l-0.5,0.1c-0.4,0-0.7,0.2-0.6,0.4l0.1,0.7c0,0.2,0.3,0.3,0.7,0.2l0.5-0.1
			l10-1.2l0.5-0.1c0.4,0,0.7-0.2,0.6-0.4l-0.1-0.7C29.9,605.7,29.5,605.6,29.2,605.7"/>
		<path class="st22" d="M58.2,621.8l-1.2,0.1l-21.9,2.7l-1.2,0.1c-0.8,0.1-1.5,0.3-1.5,0.4l0.1,0.5c0,0.1,0.7,0.2,1.5,0.1l1.2-0.1
			l21.9-2.7l1.2-0.1c0.8-0.1,1.5-0.3,1.5-0.4l-0.1-0.5C59.7,621.7,59.1,621.7,58.2,621.8"/>
		<path class="st22" d="M55,601.6l-0.4,0.1c-0.2,0-0.3,0.1-0.3,0.3l0.1,0.7l0.3,2.8l0.1,0.7c0,0.1,0.2,0.2,0.3,0.2l0.4-0.1
			c0.2,0,0.3-0.1,0.3-0.3l-0.1-0.7l-0.3-2.8l-0.1-0.7C55.4,601.7,55.2,601.6,55,601.6"/>
		<path class="st22" d="M7.4,590.3L7,590.4c-0.2,0-0.3,0.1-0.3,0.3l0.1,0.7l0.3,2.8l0.1,0.7c0,0.1,0.2,0.2,0.3,0.2l0.4-0.1
			c0.2,0,0.3-0.1,0.3-0.3L8.1,594l-0.3-2.8l-0.1-0.7C7.7,590.4,7.5,590.3,7.4,590.3"/>
		<path class="st22" d="M56.7,603.8L56.7,603.8l-1.4,0.2l-0.1,0c0,0-0.1,0.1-0.1,0.3l0.1,0.5c0,0.1,0.1,0.3,0.1,0.2l0.1,0l1.3-0.2
			l0.1,0c0,0,0.1-0.1,0.1-0.3l-0.1-0.5C56.8,603.9,56.7,603.8,56.7,603.8"/>
		<path class="st25" d="M52.8,599.6l0.2,1.9c0.1,0.8,0.5,1.4,0.9,1.3l0.5-0.1l0.9-0.1l0.5-0.1c0.4,0,0.6-0.7,0.5-1.5l-0.2-1.9
			c-0.1-0.8-0.5-1.4-0.9-1.3l-0.5,0.1l-0.9,0.1l-0.5,0.1C53,598.2,52.7,598.9,52.8,599.6"/>
		<path class="st25" d="M50.3,586.9l-1.3,0.2c-0.5,0.1-0.9,0.4-0.8,0.8l0.1,0.5l0.1,0.9l0.1,0.5c0,0.4,0.5,0.7,1,0.6l1.3-0.2
			c0.5-0.1,0.9-0.4,0.8-0.8l-0.1-0.5l-0.1-0.9l-0.1-0.5C51.3,587.1,50.8,586.9,50.3,586.9"/>
		<path class="st23" d="M53.8,586.5l-1.1,0.1c-0.5,0.1-0.8,0.4-0.7,0.8L52,588l0.1,0.9l0.1,0.5c0,0.4,0.5,0.7,0.9,0.6l1.1-0.1
			c0.5-0.1,0.8-0.4,0.7-0.8l-0.1-0.5l-0.1-0.9l-0.1-0.5C54.7,586.7,54.2,586.4,53.8,586.5"/>
		<path class="st23" d="M7.3,586.9L6.2,587c-0.5,0.1-0.8,0.4-0.7,0.8l0.1,0.5l0.1,0.9l0.1,0.5c0,0.4,0.5,0.7,0.9,0.6l1.1-0.1
			c0.5-0.1,0.8-0.4,0.7-0.8L8.4,589L8.3,588l-0.1-0.5C8.2,587.1,7.8,586.8,7.3,586.9"/>
		<path class="st22" d="M60.4,552c-1.3,8.1-5.7,14.9-11.6,19.2c-5.4,3.9-12,5.7-18.9,4.6C15.6,573.5,6,559.1,8.5,543.6
			c2.5-15.5,16.1-26.1,30.5-23.8c6.8,1.1,12.6,4.9,16.4,10.3C59.7,536,61.7,543.9,60.4,552"/>
		<path class="st5" d="M62.4,550.8c-1.3,8-5.8,14.6-12.1,18.8c-5.7,3.8-12.7,5.5-19.9,4.3c-15.2-2.5-25.6-16.8-23.2-32
			c2.4-15.2,16.8-25.5,32-23.1c7.2,1.2,13.4,5,17.6,10.4C61.5,535.1,63.7,542.8,62.4,550.8"/>
		<path class="st24" d="M42.9,655.7l-3.6,0c-1.8,0-3.3-1.5-3.3-3.3l0-1.5c0-1.8,1.5-3.3,3.3-3.3l3.6,0c1.3,0,2.3,1,2.3,2.3l0,3.5
			C45.2,654.6,44.1,655.7,42.9,655.7"/>
		<path class="st22" d="M44.8,650.6l-5.8,0c-0.2,0-0.4-0.2-0.4-0.4l0-0.2c0-0.2,0.2-0.4,0.4-0.4l5.8,0c0.2,0,0.4,0.2,0.4,0.4v0.2
			C45.2,650.4,45,650.6,44.8,650.6"/>
		<path class="st22" d="M44.8,652.2l-5.9,0c-0.2,0-0.4-0.2-0.4-0.4v-0.2c0-0.2,0.2-0.4,0.4-0.4l5.9,0c0.2,0,0.4,0.2,0.4,0.4v0.2
			C45.2,652.1,45,652.2,44.8,652.2"/>
		<path class="st22" d="M44.8,653.9l-5.8,0c-0.2,0-0.4-0.2-0.4-0.4l0-0.2c0-0.2,0.2-0.4,0.4-0.4l5.8,0c0.2,0,0.4,0.2,0.4,0.4l0,0.2
			C45.2,653.7,45,653.9,44.8,653.9"/>
		<path class="st22" d="M62.6,550.9c-1.3,8-5.9,14.6-12.1,18.8c-0.1,0-0.3,0-0.4-0.1c-11.2-1.8-18.8-12.3-17-23.5
			c1.8-11.1,12.3-18.7,23.5-16.9c0.1,0,0.3,0,0.4,0.1C61.6,535.2,63.9,542.9,62.6,550.9"/>
		<g class="st12">
			<defs>
				<rect id="SVGID_20_" x="47.6" y="531.2" width="13.6" height="35.1"/>
			</defs>
			<clipPath id="SVGID_21_">
				<use xlink:href="#SVGID_20_"  style="overflow:visible;"/>
			</clipPath>
			<g class="st26">
				<defs>
					<path id="SVGID_22_" d="M56.8,549.9c-1.6,7.5-5.2,13.6-9.2,16.4c5.7-0.7,11.2-7,13-15.6c1.8-8.5-0.7-16.5-5.7-19.5
						C57.5,535.4,58.4,542.4,56.8,549.9"/>
				</defs>
				<clipPath id="SVGID_23_">
					<use xlink:href="#SVGID_22_"  style="overflow:visible;"/>
				</clipPath>
				<defs>
					<filter id="Adobe_OpacityMaskFilter_2_" filterUnits="userSpaceOnUse" x="43.4" y="529.4" width="23.3" height="38.7">
						<feColorMatrix  type="matrix" values="1 0 0 0 0  0 1 0 0 0  0 0 1 0 0  0 0 0 1 0"/>
					</filter>
				</defs>
				<mask maskUnits="userSpaceOnUse" x="43.4" y="529.4" width="23.3" height="38.7" id="SVGID_24_">
					<g class="st27">
						
							<linearGradient id="SVGID_25_" gradientUnits="userSpaceOnUse" x1="-610" y1="789.972" x2="-609" y2="789.972" gradientTransform="matrix(16.1261 -1.9811 -1.9811 -16.1261 11447.5703 12080.6338)">
							<stop  offset="0" style="stop-color:#000000"/>
							<stop  offset="3.832010e-02" style="stop-color:#000000"/>
							<stop  offset="0.2338" style="stop-color:#3F3F3F"/>
							<stop  offset="0.4132" style="stop-color:#717171"/>
							<stop  offset="0.5693" style="stop-color:#949494"/>
							<stop  offset="0.696" style="stop-color:#AAAAAA"/>
							<stop  offset="0.7775" style="stop-color:#B3B3B3"/>
							<stop  offset="1" style="stop-color:#B3B3B3"/>
						</linearGradient>
						<polygon class="st28" points="43.4,531.7 62.2,529.4 66.7,565.8 47.8,568.1 						"/>
					</g>
				</mask>
				
					<linearGradient id="SVGID_26_" gradientUnits="userSpaceOnUse" x1="-610" y1="789.972" x2="-609" y2="789.972" gradientTransform="matrix(16.1261 -1.9811 -1.9811 -16.1261 11447.5703 12080.6338)">
					<stop  offset="0" style="stop-color:#2E3190"/>
					<stop  offset="3.832010e-02" style="stop-color:#2E3190"/>
					<stop  offset="0.16" style="stop-color:#3952A4"/>
					<stop  offset="0.3627" style="stop-color:#4A84C3"/>
					<stop  offset="0.5405" style="stop-color:#56A8D9"/>
					<stop  offset="0.6848" style="stop-color:#5DBEE6"/>
					<stop  offset="0.7775" style="stop-color:#60C6EB"/>
					<stop  offset="0.818" style="stop-color:#55BDE6"/>
					<stop  offset="0.8885" style="stop-color:#39A3D7"/>
					<stop  offset="0.9798" style="stop-color:#0B7BC0"/>
					<stop  offset="1" style="stop-color:#0071BA"/>
				</linearGradient>
				<polygon class="st29" points="43.4,531.7 62.2,529.4 66.7,565.8 47.8,568.1 				"/>
			</g>
		</g>
		<path class="st24" d="M22.4,554l-2.5-0.4c-2.3-0.4-4-2.6-3.6-4.9l1.6-10.3c0.4-2.3,2.6-4,4.9-3.6l2.5,0.4c2.3,0.4,4,2.6,3.6,4.9
			l-1.6,10.3C26.9,552.8,24.7,554.4,22.4,554"/>
		<path class="st5" d="M20.6,553l-1.4-0.3c-1.8-0.3-2.9-2-2.6-3.8l2.2-11.6c0.3-1.8,2-2.9,3.8-2.6l1.4,0.3c1.8,0.3,2.9,2,2.6,3.8
			l-2.2,11.6C24.1,552.2,22.4,553.3,20.6,553"/>
		<path class="st22" d="M22.4,542.1l-0.8-0.2c-1-0.2-1.7-1.2-1.5-2.2l0.2-1c0.2-1,1.2-1.7,2.2-1.5l0.8,0.2c1,0.2,1.7,1.2,1.5,2.2
			l-0.2,1C24.4,541.7,23.4,542.3,22.4,542.1"/>
		<path class="st22" d="M20.9,549.8l-0.8-0.2c-1-0.2-1.7-1.2-1.5-2.2l0.2-1c0.2-1,1.2-1.7,2.2-1.5l0.8,0.2c1,0.2,1.7,1.2,1.5,2.2
			l-0.2,1C22.9,549.4,21.9,550,20.9,549.8"/>
		<path class="st22" d="M47.2,583.7c0.4,3.5-2,6.7-5.3,7.1c-3.4,0.4-6.4-2.1-6.9-5.6c-0.4-3.5,2-6.7,5.3-7.1
			C43.7,577.7,46.7,580.2,47.2,583.7"/>
		<path class="st5" d="M65.4,595.9c-13.4,0.3-17.6-7.4-19.3-13l-10.3,2.2c0.1,0.5,0.2,1.1,0.3,1.7c3.3,16.9,20.3,19.3,30.2,19.2"/>
		<path class="st5" d="M46.4,584c0.4,3-1.7,5.8-4.6,6.1c-2.9,0.4-5.6-1.8-6-4.8c-0.4-3,1.7-5.8,4.6-6.1C43.3,578.8,46,581,46.4,584"
			/>
		<path class="st21" d="M62.5,595.3l1.3,11.1c0,0.3,0.3,0.4,0.6,0.4l6.1-0.7c3.5-0.4,6.1-3.1,5.7-6l-0.2-1.4c-0.3-2.9-3.5-5-7-4.6
			l-6.1,0.7C62.7,594.8,62.4,595.1,62.5,595.3"/>
		<path class="st5" d="M62.5,595.2l1.3,11l6.4-0.8c3.3-0.4,5.6-3,5.3-5.7l-0.1-0.9c-0.3-2.8-3.2-4.7-6.5-4.4L62.5,595.2z"/>
		<path class="st22" d="M64.1,606.2l-0.1-0.5l-1-9.8l-0.1-0.5c0-0.4-0.2-0.6-0.3-0.6l-0.5,0.1c-0.1,0-0.2,0.3-0.2,0.7L62,596l1,9.8
			l0.1,0.5c0,0.4,0.2,0.7,0.3,0.6l0.5-0.1C64.1,606.9,64.1,606.5,64.1,606.2"/>
		<path class="st23" d="M54.2,593.1l-3.3,9.9c-0.2,0.5-0.7,0.8-1.2,0.6l-0.4-0.1c-0.5-0.2-0.8-0.7-0.6-1.2l3.3-9.9
			c0.2-0.5,0.7-0.8,1.2-0.6l0.4,0.1C54.1,592.1,54.3,592.6,54.2,593.1"/>
		<path class="st24" d="M97.2,607.1L60,611.6c-0.8,0.1-1.5-0.5-1.6-1.2l-0.1-0.6c-0.1-0.8,0.5-1.5,1.2-1.6l37.1-4.6
			c0.8-0.1,1.5,0.5,1.6,1.2l0.1,0.6C98.5,606.3,97.9,607,97.2,607.1"/>
		<path class="st24" d="M94.7,605.7l13-36.5c0.2-0.5,0.7-0.7,1.1-0.5l0.4,0.1c0.5,0.2,0.7,0.7,0.5,1.1l-13,36.5
			c-0.2,0.5-0.7,0.7-1.1,0.5l-0.4-0.1C94.8,606.6,94.5,606.1,94.7,605.7"/>
		<path class="st22" d="M93.5,604l-32,3.9c-0.2,0-0.3-0.1-0.3-0.3l0-0.1c0-0.2,0.1-0.3,0.3-0.3l32-3.9c0.2,0,0.3,0.1,0.3,0.3l0,0.1
			C93.8,603.8,93.7,604,93.5,604"/>
		<path class="st22" d="M90.6,606.8l-10.8,1.3c-0.3,0-0.6-0.2-0.7-0.5l0-0.3c0-0.3,0.2-0.6,0.5-0.7l10.8-1.3c0.3,0,0.6,0.2,0.7,0.5
			l0,0.3C91.1,606.5,90.9,606.8,90.6,606.8"/>
		<path class="st22" d="M66.5,609.3l-1.1,0.1c-0.1,0-0.3-0.1-0.3-0.2l0-0.2c0-0.1,0.1-0.3,0.2-0.3l1.1-0.1c0.1,0,0.3,0.1,0.3,0.2
			l0,0.2C66.8,609.2,66.7,609.3,66.5,609.3"/>
		
			<rect x="65.2" y="608.9" transform="matrix(0.9925 -0.1224 0.1224 0.9925 -74.0311 12.6425)" class="st30" width="1.4" height="0.1"/>
		
			<rect x="65.3" y="609.1" transform="matrix(0.9926 -0.1218 0.1218 0.9926 -73.7215 12.5687)" class="st31" width="1.2" height="0.1"/>
		<path class="st22" d="M68.4,609.1l-1.1,0.1c-0.1,0-0.3-0.1-0.3-0.2l0-0.2c0-0.1,0.1-0.3,0.2-0.3l1.1-0.1c0.1,0,0.3,0.1,0.3,0.2
			l0,0.2C68.6,608.9,68.5,609.1,68.4,609.1"/>
		
			<rect x="67.1" y="608.7" transform="matrix(0.9925 -0.1224 0.1224 0.9925 -73.9887 12.8711)" class="st30" width="1.4" height="0.1"/>
		<polygon class="st31" points="68.4,608.9 67.2,609.1 67.2,609 68.4,608.8 		"/>
	</g>
	<g class="st1">
		<text transform="matrix(0.9804 -0.1968 0.1968 0.9804 -43.8012 513.4453)" class="st2"><tspan x="0" y="0" class="st32 st33 st34">L</tspan><tspan x="18.8" y="0" class="st32 st33 st34">o</tspan><tspan x="41.3" y="0" class="st32 st33 st34">g</tspan><tspan x="63.9" y="0" class="st32 st33 st34">in</tspan></text>
	</g>
	<g class="st35">
		<defs>
			<polygon id="SVGID_27_" points="-636,-27 1284,-27 1310,790 -610,790 			"/>
		</defs>
		<clipPath id="SVGID_28_">
			<use xlink:href="#SVGID_27_"  style="overflow:visible;"/>
		</clipPath>
		<path class="st36" d="M-822.1,553.2"/>
		<path class="st36" d="M-822.1,553.2"/>
		<path class="st37" d="M-822.1,553.2"/>
		<path class="st36" d="M-761,657.4c3.3,3,6.6,6,10.1,8.6c27.3,22.4,58.9,37,91.8,43.9"/>
		<path class="st36" d="M-659,709.9"/>
		<path class="st37" d="M-791.2,621.7c3.7,5.8,7.9,11.4,12.6,16.8c1.6,2.1,3.5,4.4,5.4,6.7c1.2,1.1,2.1,1.9,3.3,3
			c3.1,3.3,5.9,6.5,8.9,9.3"/>
		<path class="st36" d="M-659,709.9"/>
		<path class="st36" d="M-659,709.9"/>
		<g class="st38">
			<defs>
				<polygon id="SVGID_29_" points="-906.3,721.4 -341.2,721.4 -367.2,528 -906.3,265 				"/>
			</defs>
			<clipPath id="SVGID_30_">
				<use xlink:href="#SVGID_29_"  style="overflow:visible;"/>
			</clipPath>
		</g>
		<path class="st37" d="M-791.1,621.6"/>
		<path class="st37" d="M-791.1,621.6"/>
		<path class="st39" d="M1522.6,90.4c-1.9,16-5.2,31.9-9.8,47.6"/>
		<path class="st39" d="M1503.6,164.3c-3.7,9.4-8,18.7-12.8,27.8c-3.2,6.2-6.7,12.3-10.4,18.1"/>
		<path class="st39" d="M538.6,263.9l0,94.7c0,3.2-1.8,6.2-4.6,7.7c-7.2,3.8-14.3,7.6-21.5,11.4c-24.7,13.1-49.4,26.3-74,39.4
			c0.1-53.7,0.2-107.4,0.3-161.2c0-11.7,0-23.4,0.1-35.1c0-4.7,5-7.7,9.2-5.5l34.5,18.4l0.8,63.8l0,51.8c5.9-3.2,11.8-6.3,17.7-9.5
			v-6.6c0-27,0-54.1,0-81.1c0-3.8,4-6.2,7.4-4.5C518.4,253.2,528.5,258.5,538.6,263.9"/>
		<path class="st39" d="M420.8,337.1c0-3.2-1.8-6.2-4.6-7.7c-29.5-15.7-59-31.4-88.5-47c0-7.3-0.1-14.6-0.1-21.9
			c0-12.7-0.1-25.4-0.1-38.2c8.3-4.9,16.6-9.7,25-14.5c10.9,6.3,13.7,7.9,24.5,14.1l0.1,29.4l-0.8,8.9c0,3.2,1.8,6.2,4.6,7.7
			c13.1,7.1,26.2,14.1,39.2,21.1c0-13.2,0-26.3,0-39.5l0-37.1c0-3.2-1.8-6.1-4.6-7.6L356.3,173c-2.6-1.4-5.7-1.4-8.2,0
			c-19.9,10.8-39.8,21.7-59.7,32.5c-2.8,1.5-4.5,4.4-4.5,7.6l0.2,59l-0.8,31.4c0,3.2,1.8,6.2,4.6,7.7c32.3,17.3,89,47.7,89,47.7
			l0.2,47.4L363,414l-11.1,6.1l-24.7-13.6l0-19.1h0l0-17.9c0-3.1-1.7-6-4.5-7.6L284,341c0,0,0,17.7,0,38.4c0,0,0,0,0,0
			c0,14.2,0,30.1,0,42.3c0,3.2,1.8,6.1,4.6,7.7c19.9,10.8,39.8,21.5,59.7,32.3c2.6,1.4,5.7,1.4,8.2,0c8.2-4.4,16.4-8.8,24.5-13.1
			c11.8-6.3,23.6-12.6,35.3-18.9c2.8-1.5,4.6-4.5,4.6-7.7C420.9,393.6,420.9,365.4,420.8,337.1"/>
		<path class="st39" d="M165.4,274.2c-0.1,0.5-0.2,1-0.2,1.6c0,29.3,0.1,58.6,0.1,87.9c10.5,5.7,21.1,11.4,31.6,17.1
			c2.5,1.3,5.5-0.5,5.5-3.3c0-20.8,0-41.5,0-62.3c17.1,9.1,34.2,18.3,51.4,27.5c4.8-2.9,6.1-3.7,11-6.6c0-19.4,0.1-38.9,0.1-58.3
			c0.1-20.1,0.1-40.3,0.1-60.5c-31.7,16.9-63.5,33.8-95.2,50.8C167.5,269.4,165.9,271.6,165.4,274.2 M202.5,275.8l23.7-12.9
			c3.3-1.8,7.4,0.6,7.3,4.4c0,5.6,0,11.3-0.1,16.9c-0.1,7.5-0.1,15-0.1,22.5c-10.3-5.5-20.6-11-30.8-16.4c0-3.1,0-5,0-6.9V275.8z"/>
		<path class="st40" d="M165.5,166l-0.1-40c0-2.8,1.5-5.3,3.9-6.6c11.1-5.9,22.1-11.8,33.2-17.6c0,18.5-0.1,37.1-0.1,55.6l8.2-4.3
			c2.4-1.3,4-3.8,4-6.6c0-15.6,0-31.1,0-46.8c0-2.7,1.5-5.2,3.9-6.5c11.1-5.9,22.2-11.8,33.2-17.7c0.1,34.6,0.2,69.1,0.3,103.7
			c0,7.1,0,14.2,0.1,21.4c0,2.8-1.5,5.3-3.9,6.6c-11.1,5.9-22.3,11.9-33.4,17.8l0.8-43.8l0-12.6l-8.6,4.6c-2,1.1-3.4,2.9-3.8,5
			c-0.1,0.6-0.2,1.2-0.2,1.8c0,16.1,0,32.2,0,48.2c0,2.9-1.6,5.4-4.1,6.8c-11.3,6-22.7,12-34,18L165.5,166z"/>
		<path class="st40" d="M438.8,192.1c0,2.8-3,4.6-5.5,3.3c-24.9-13.4-49.8-26.8-74.6-40.2c-0.1-26.7-0.1-53.4-0.1-80.1
			c0-14.4,0-28.8-0.1-43.3c0-2.8,3-4.6,5.4-3.3c24.9,13.2,49.8,26.5,74.7,39.7l0,43.3l-31-16.7c0.1-6.1,0.2-12.2,0.3-18.2
			c-4.4-2.3-8.7-4.5-13.1-6.8c-2.5-1.3-5.4,0.5-5.4,3.3l0.1,71.1c0,1.8,1,3.5,2.7,4.4c5.2,2.8,10.5,5.5,15.7,8.3
			c0-6.2-0.1-12.3-0.1-18.5c10.3,5.5,20.6,10.9,31,16.4C438.7,167.3,438.8,179.7,438.8,192.1"/>
		<path class="st40" d="M538.6,195.5l0.1,50.2c0,2.8-3,4.6-5.4,3.3c-10.5-5.6-21.1-11.2-31.6-16.8l0.4-55.6
			c-2.6-1.4-5.2-2.8-7.8-4.3c-2.6-1.4-5.7,0.4-5.7,3.4l0,43.7c0,0-2.8,4.6-5.3,3.3c-10.6-5.7-21.3-11.5-31.9-17.2
			c0.1-41.5,0.2-82.9,0.3-124.4c0-2.8,3-4.6,5.5-3.3c10.7,5.7,31.5,17.1,31.5,17.1l-0.1,55.8l7.2,4c2.5,1.4,5.6-0.4,5.6-3.3
			c-0.1-14.6-0.1-29.3-0.2-44c0-2.9,3-4.7,5.5-3.3c10.7,5.7,21.4,11.4,32,17.1c0,22.4,0,27.1,0.1,49.4l-18.1,9.8l13.4,7.4
			C536.9,189.4,538.6,192.3,538.6,195.5"/>
		<path class="st40" d="M296.4,177.3c0-9.1,0-18.2-0.1-27.4c0-6,0-12.1,0-18.1c0-2.7,1.5-5.2,3.9-6.5c4.9-2.6,9.8-5.3,14.6-8v2.3
			c0,17.5,0,35,0,52.4c9-4.8,18.1-9.6,27.1-14.4c2.4-1.3,3.9-3.8,3.9-6.5c0-22.9,0-45.7,0-68.6c0-19,0-38.1,0-57.1l-76.8,41.3
			c-2.4,1.3-3.9,3.8-3.9,6.5c-0.1,34-0.2,67.9-0.3,101.9c0,7.9,0,15.7,0,23.6c9.2-4.9,18.5-9.9,27.8-14.8
			C294.9,182.5,296.4,180,296.4,177.3 M300,68c4.9-2.6,9.9-5.2,14.8-7.8l-0.1,33.4c0,2.8-1.6,5.4-4,6.6c-4.9,2.5-9.7,5-14.6,7.5
			c0-11.1-0.1-22.1-0.1-33.1C296,71.8,297.5,69.3,300,68"/>
		<path class="st41" d="M196.3,105.1c0.1,0,0.1,0,0.2,0c-9,4.8-18,9.6-27,14.4c-2.4,1.3-3.9,3.8-3.9,6.6l0,4.1
			c-0.2,0.1-0.3,0.1-0.5,0.1c-0.2,0.1-0.5,0.1-0.7,0.2c-0.2,0.1-0.5,0.1-0.7,0.2c-0.2,0.1-0.5,0.1-0.7,0.2c-0.2,0.1-0.5,0.1-0.7,0.2
			c-0.2,0.1-0.5,0.1-0.7,0.2c-0.2,0.1-0.5,0.1-0.7,0.2c-0.2,0.1-0.5,0.1-0.7,0.2c-0.2,0.1-0.5,0.1-0.7,0.2c-0.2,0.1-0.5,0.1-0.7,0.2
			c-0.2,0.1-0.5,0.1-0.7,0.2c-0.2,0.1-0.5,0.2-0.7,0.2c-0.2,0.1-0.5,0.2-0.7,0.2c-0.2,0.1-0.4,0.1-0.7,0.2c-0.2,0.1-0.5,0.2-0.7,0.2
			c-0.2,0.1-0.5,0.1-0.7,0.2c-0.2,0.1-0.4,0.2-0.7,0.2c-0.2,0.1-0.4,0.2-0.7,0.2c-0.2,0.1-0.4,0.2-0.7,0.2c-0.2,0.1-0.4,0.2-0.7,0.2
			c-0.2,0.1-0.4,0.2-0.7,0.2c-0.2,0.1-0.4,0.2-0.6,0.2c-0.2,0.1-0.4,0.2-0.7,0.2c-0.1,0-0.2,0.1-0.3,0.1c-0.2,0.1-0.4,0.2-0.6,0.2
			c-0.2,0.1-0.4,0.2-0.6,0.2c-0.2,0.1-0.4,0.2-0.6,0.2c-0.2,0.1-0.4,0.2-0.6,0.2c-0.2,0.1-0.4,0.2-0.6,0.2c-0.2,0.1-0.4,0.2-0.6,0.2
			c-0.2,0.1-0.4,0.2-0.6,0.2c-0.2,0.1-0.4,0.2-0.6,0.2c-0.2,0.1-0.4,0.2-0.6,0.2c-0.2,0.1-0.4,0.2-0.6,0.2c-0.2,0.1-0.4,0.2-0.6,0.3
			c-0.2,0.1-0.4,0.2-0.6,0.2c-0.2,0.1-0.4,0.2-0.6,0.3c-0.2,0.1-0.4,0.2-0.6,0.2c-0.2,0.1-0.4,0.2-0.6,0.3c-0.2,0.1-0.4,0.2-0.6,0.3
			c-0.2,0.1-0.4,0.2-0.6,0.3c-0.2,0.1-0.4,0.2-0.6,0.3c-0.2,0.1-0.4,0.2-0.6,0.3c-0.1,0-0.1,0.1-0.2,0.1c-0.2,0.1-0.4,0.2-0.6,0.3
			c-0.2,0.1-0.4,0.2-0.6,0.3c-0.2,0.1-0.4,0.2-0.6,0.3c-0.2,0.1-0.4,0.2-0.5,0.3c-0.2,0.1-0.4,0.2-0.5,0.3c-0.2,0.1-0.4,0.2-0.5,0.3
			c-0.2,0.1-0.4,0.2-0.5,0.3c-0.2,0.1-0.3,0.2-0.5,0.3c-0.2,0.1-0.4,0.2-0.5,0.3c-0.2,0.1-0.3,0.2-0.5,0.3c-0.2,0.1-0.3,0.2-0.5,0.3
			c-0.2,0.1-0.3,0.2-0.5,0.3c-0.2,0.1-0.3,0.2-0.5,0.3c-0.2,0.1-0.3,0.2-0.5,0.3c-0.2,0.1-0.3,0.2-0.5,0.3c-0.2,0.1-0.3,0.2-0.5,0.3
			c-0.2,0.1-0.3,0.2-0.5,0.3c0,0-0.1,0-0.1,0.1c-0.2,0.1-0.3,0.2-0.5,0.3c-0.1,0.1-0.3,0.2-0.5,0.3c-0.2,0.1-0.3,0.2-0.5,0.3
			c-0.2,0.1-0.3,0.2-0.5,0.3c-0.2,0.1-0.3,0.2-0.5,0.3c-0.2,0.1-0.3,0.2-0.5,0.3c-0.1,0.1-0.3,0.2-0.5,0.3c-0.2,0.1-0.3,0.2-0.5,0.3
			c-0.2,0.1-0.3,0.2-0.5,0.3c-0.1,0.1-0.3,0.2-0.4,0.3c-0.1,0.1-0.3,0.2-0.4,0.3c-0.2,0.1-0.3,0.2-0.5,0.3c-0.1,0.1-0.3,0.2-0.4,0.3
			c0,0,0,0,0,0c-0.1,0.1-0.3,0.2-0.4,0.3c-0.1,0.1-0.3,0.2-0.4,0.3s-0.3,0.2-0.4,0.3c-0.1,0.1-0.3,0.2-0.4,0.3
			c-0.1,0.1-0.3,0.2-0.4,0.3c-0.1,0.1-0.3,0.2-0.4,0.3c-0.1,0.1-0.3,0.2-0.4,0.3c-0.1,0.1-0.3,0.2-0.4,0.3c-0.1,0.1-0.3,0.2-0.4,0.3
			c-0.1,0.1-0.2,0.2-0.4,0.3c-0.1,0.1-0.2,0.2-0.4,0.3c-0.1,0.1-0.2,0.2-0.4,0.3c-0.1,0.1-0.2,0.2-0.4,0.3c-0.1,0.1-0.2,0.2-0.4,0.3
			c-0.1,0.1-0.2,0.2-0.4,0.3c-0.1,0.1-0.2,0.2-0.3,0.3c-0.1,0.1-0.2,0.2-0.4,0.3c-0.1,0.1-0.2,0.2-0.4,0.4c-0.1,0.1-0.2,0.2-0.3,0.4
			c-0.1,0.1-0.2,0.2-0.3,0.3c-0.1,0.1-0.2,0.2-0.3,0.4c-0.1,0.1-0.2,0.2-0.3,0.4c-0.1,0.1-0.2,0.2-0.3,0.3c-0.1,0.1-0.2,0.2-0.3,0.4
			c-0.1,0.1-0.2,0.2-0.3,0.4c-0.1,0.1-0.2,0.2-0.3,0.4c-0.1,0.1-0.2,0.2-0.3,0.4c-0.1,0.1-0.2,0.2-0.3,0.4c-0.1,0.1-0.2,0.2-0.3,0.4
			c-0.1,0.1-0.2,0.2-0.3,0.4c-0.1,0.1-0.2,0.2-0.3,0.4c-0.1,0.1-0.2,0.2-0.3,0.4c-0.1,0.1-0.1,0.2-0.2,0.3c-0.1,0.1-0.2,0.2-0.3,0.4
			c-0.1,0.1-0.2,0.2-0.3,0.4c-0.1,0.1-0.2,0.3-0.3,0.4c-0.1,0.1-0.2,0.3-0.3,0.4c-0.1,0.1-0.2,0.3-0.2,0.4c-0.1,0.1-0.2,0.2-0.2,0.4
			c-0.1,0.1-0.2,0.3-0.2,0.4c-0.1,0.1-0.1,0.2-0.2,0.3c-0.1,0.1-0.1,0.2-0.2,0.4c-0.1,0.1-0.2,0.3-0.2,0.4c-0.1,0.1-0.1,0.3-0.2,0.4
			c-0.1,0.1-0.1,0.3-0.2,0.4l-0.2,0.4c-0.1,0.1-0.1,0.3-0.2,0.4c-0.1,0.1-0.1,0.3-0.2,0.4c-0.1,0.1-0.1,0.3-0.2,0.4
			c0,0.1-0.1,0.2-0.1,0.2c0,0.1-0.1,0.3-0.2,0.4c-0.1,0.1-0.1,0.3-0.2,0.4c0,0.1-0.1,0.3-0.2,0.4c-0.1,0.1-0.1,0.3-0.2,0.4
			c-0.1,0.1-0.1,0.3-0.2,0.4c-0.1,0.1-0.1,0.3-0.2,0.4c-0.1,0.1-0.1,0.3-0.2,0.4c0,0.1,0,0.1-0.1,0.2c0,0.1-0.1,0.3-0.2,0.4
			c0,0.1-0.1,0.3-0.1,0.4c0,0.1-0.1,0.3-0.1,0.4c0,0.1-0.1,0.3-0.1,0.4c0,0.1-0.1,0.3-0.1,0.4c0,0.1-0.1,0.3-0.1,0.4
			c0,0.1-0.1,0.3-0.1,0.4c0,0.1,0,0.1-0.1,0.2c0,0.2-0.1,0.3-0.1,0.4c0,0.1-0.1,0.3-0.1,0.4c0,0.1-0.1,0.3-0.1,0.4
			c0,0.1-0.1,0.3-0.1,0.4c0,0.1,0,0.3-0.1,0.4c0,0.1,0,0.3-0.1,0.4c0,0.1,0,0.3-0.1,0.4c0,0.1,0,0.1,0,0.2c0,0.1,0,0.3-0.1,0.4
			l-0.1,0.5c0,0.2,0,0.3-0.1,0.5c0,0.1,0,0.3,0,0.5c0,0.1,0,0.3,0,0.4c0,0.2,0,0.3,0,0.5c0,0.2,0,0.3,0,0.5c0,0.1,0,0.3,0,0.4
			c0,0.1,0,0.2,0,0.2c0,0.2,0,0.3,0,0.5c0,0.2,0,0.3,0,0.5c0,0.2,0,0.3,0,0.5v0.9c0,0.1,0,0.3,0,0.5c0,0.2,0,0.3,0,0.5
			c0,0.1,0,0.3,0,0.4c0,0.2,0,0.4,0,0.7c0,0.2,0,0.4,0,0.6c0,0.2,0,0.4,0.1,0.7c0,0.2,0,0.4,0.1,0.7c0,0.2,0,0.4,0.1,0.7
			c0,0.2,0.1,0.4,0.1,0.7c0,0.2,0.1,0.4,0.1,0.7c0,0.1,0,0.1,0,0.2c0,0,0,0,0,0.1c0,0.2,0,0.4,0.1,0.6c0,0.1,0,0.1,0,0.2
			c0,0.2,0,0.3,0.1,0.5c0,0.1,0,0.2,0.1,0.3c0,0.1,0,0.3,0.1,0.4c0,0.1,0.1,0.2,0.1,0.4c0,0.1,0,0.2,0,0.3c0,0.2,0.1,0.3,0.1,0.5
			c0,0.1,0,0.1,0,0.2c0,0.2,0.1,0.4,0.1,0.6c0,0,0,0.1,0,0.1c0,0.2,0.1,0.5,0.2,0.7c0,0.1,0,0.2,0.1,0.2c0.1,0.2,0.1,0.5,0.2,0.7
			c0.1,0.2,0.1,0.5,0.2,0.7c0.1,0.2,0.1,0.5,0.2,0.7c0.1,0.2,0.2,0.5,0.2,0.7c0.1,0.2,0.2,0.5,0.2,0.7c0.1,0.2,0.2,0.5,0.2,0.7
			c0.1,0.2,0.2,0.5,0.2,0.7c0,0.1,0.1,0.2,0.1,0.3c0.1,0.2,0.2,0.5,0.2,0.7c0.1,0.2,0.2,0.5,0.3,0.7c0.1,0.2,0.2,0.5,0.3,0.7
			c0.1,0.2,0.2,0.5,0.3,0.7c0.1,0.2,0.2,0.5,0.3,0.7c0.1,0.2,0.2,0.5,0.3,0.7c0.1,0.2,0.2,0.5,0.3,0.7c0.1,0.2,0.2,0.5,0.3,0.7
			c0.1,0.2,0.2,0.5,0.3,0.7l0.2,0.4c0.6,1.1,1.1,2.4,1.3,3.7c1.4,6.9-3.2,13.6-10.1,15c-6.1,1.2-12-2.2-14.3-7.8
			c-0.1-0.3-0.3-0.6-0.4-0.9c-0.1-0.3-0.3-0.6-0.4-0.9c-0.1-0.3-0.3-0.6-0.4-0.9c-0.1-0.3-0.2-0.6-0.4-0.9c-0.1-0.3-0.2-0.6-0.3-0.9
			c-0.1-0.3-0.2-0.6-0.4-0.9c-0.1-0.3-0.2-0.6-0.3-0.9c-0.2-0.4-0.3-0.8-0.5-1.3c-0.1-0.3-0.2-0.6-0.3-0.9c-0.1-0.3-0.2-0.6-0.3-0.9
			c-0.1-0.3-0.2-0.6-0.3-0.9c-0.1-0.3-0.2-0.6-0.3-0.9c-0.1-0.3-0.2-0.6-0.3-0.9c-0.1-0.3-0.2-0.6-0.2-0.9c-0.1-0.3-0.2-0.6-0.2-0.9
			c-0.1-0.3-0.2-0.6-0.2-0.9c-0.1-0.4-0.2-0.8-0.3-1.3c0,0,0,0,0,0c-0.1-0.2-0.1-0.5-0.2-0.7c0-0.1,0-0.1,0-0.2
			c-0.1-0.2-0.1-0.4-0.2-0.6c0-0.1,0-0.2,0-0.2c0-0.2-0.1-0.3-0.1-0.5c0-0.1,0-0.2,0-0.3c0-0.2-0.1-0.3-0.1-0.4c0-0.2,0-0.3-0.1-0.4
			c0-0.1-0.1-0.2-0.1-0.3c0-0.2,0-0.4-0.1-0.5c0-0.1,0-0.2-0.1-0.2c0-0.2-0.1-0.4-0.1-0.6c0,0,0-0.1,0-0.2c0-0.2-0.1-0.5-0.1-0.7
			c0,0,0,0,0,0c-0.1-0.4-0.1-0.9-0.2-1.3c0-0.3-0.1-0.6-0.1-0.9c0-0.3-0.1-0.6-0.1-0.9c0-0.3-0.1-0.6-0.1-0.9c0-0.3-0.1-0.6-0.1-0.9
			c0-0.3,0-0.6-0.1-0.9c0-0.3,0-0.6-0.1-0.9c0-0.5-0.1-0.9-0.1-1.4c0-0.3,0-0.6,0-0.9c0-0.3,0-0.6,0-0.8c0-0.2,0-0.5,0-0.7
			c0-0.2,0-0.4,0-0.6c0-0.2,0-0.4,0-0.6c0-0.2,0-0.4,0-0.6c0-0.2,0-0.4,0-0.6c0-0.4,0-0.9,0.1-1.3c0-0.2,0-0.4,0-0.6s0-0.4,0-0.6
			c0-0.2,0-0.4,0-0.6c0-0.2,0-0.4,0.1-0.6c0-0.2,0-0.4,0.1-0.6c0-0.2,0-0.4,0.1-0.6c0-0.2,0-0.4,0.1-0.6c0-0.2,0.1-0.4,0.1-0.6
			c0-0.2,0.1-0.4,0.1-0.5c0-0.4,0.1-0.8,0.2-1.2c0-0.2,0.1-0.4,0.1-0.5c0-0.2,0.1-0.4,0.1-0.5c0-0.2,0.1-0.4,0.1-0.6
			c0-0.2,0.1-0.4,0.1-0.5c0-0.2,0.1-0.4,0.1-0.5c0-0.2,0.1-0.4,0.1-0.5c0-0.2,0.1-0.4,0.1-0.5c0-0.2,0.1-0.4,0.1-0.5
			c0.1-0.4,0.2-0.8,0.3-1.2c0-0.2,0.1-0.4,0.2-0.5c0-0.2,0.1-0.4,0.1-0.5c0-0.2,0.1-0.4,0.2-0.5c0-0.2,0.1-0.4,0.2-0.5
			c0-0.2,0.1-0.4,0.2-0.5c0.1-0.2,0.1-0.3,0.2-0.5c0.1-0.2,0.1-0.3,0.2-0.5c0-0.2,0.1-0.4,0.2-0.5c0.1-0.4,0.3-0.8,0.4-1.1
			c0.1-0.2,0.1-0.3,0.2-0.5c0.1-0.2,0.1-0.3,0.2-0.5c0.1-0.2,0.1-0.3,0.2-0.5c0.1-0.2,0.1-0.3,0.2-0.5s0.1-0.3,0.2-0.5
			c0.1-0.2,0.1-0.3,0.2-0.5c0.1-0.2,0.2-0.3,0.2-0.5c0.1-0.2,0.2-0.3,0.2-0.5c0.1-0.4,0.3-0.7,0.5-1.1c0.1-0.2,0.2-0.3,0.2-0.5
			c0.1-0.2,0.2-0.3,0.2-0.5c0.1-0.2,0.2-0.3,0.3-0.5c0.1-0.2,0.2-0.3,0.3-0.5c0.1-0.2,0.2-0.3,0.3-0.5c0.1-0.2,0.2-0.3,0.3-0.5
			c0.1-0.2,0.2-0.3,0.3-0.5c0.1-0.2,0.2-0.3,0.3-0.5c0.2-0.3,0.4-0.7,0.6-1c0.1-0.2,0.2-0.3,0.3-0.5c0.1-0.1,0.2-0.3,0.3-0.5
			c0.1-0.2,0.2-0.3,0.3-0.5c0.1-0.2,0.2-0.3,0.3-0.5c0.1-0.2,0.2-0.3,0.3-0.5c0.1-0.2,0.2-0.3,0.3-0.5c0.1-0.2,0.2-0.3,0.3-0.5
			c0.1-0.2,0.2-0.3,0.3-0.5c0.1-0.2,0.2-0.3,0.3-0.5c0.2-0.3,0.4-0.6,0.7-0.9c0.1-0.1,0.2-0.3,0.3-0.5c0.1-0.1,0.2-0.3,0.3-0.4
			c0.1-0.1,0.2-0.3,0.4-0.4c0.1-0.1,0.2-0.3,0.4-0.4c0.1-0.1,0.2-0.3,0.4-0.4c0.1-0.1,0.2-0.3,0.4-0.4c0.1-0.2,0.2-0.3,0.4-0.4
			c0.1-0.1,0.2-0.3,0.4-0.4c0.1-0.1,0.2-0.3,0.4-0.4c0.2-0.3,0.5-0.6,0.8-0.8c0.1-0.1,0.3-0.3,0.4-0.4c0.1-0.1,0.3-0.3,0.4-0.4
			c0.1-0.1,0.3-0.3,0.4-0.4s0.3-0.3,0.4-0.4c0.1-0.1,0.3-0.3,0.4-0.4c0.1-0.1,0.3-0.3,0.4-0.4c0.1-0.1,0.3-0.3,0.4-0.4
			c0.1-0.1,0.3-0.3,0.4-0.4c0.1-0.1,0.3-0.3,0.4-0.4c0.1-0.1,0.3-0.3,0.4-0.4c0.3-0.3,0.5-0.5,0.8-0.8c0.2-0.1,0.3-0.3,0.4-0.4
			c0.2-0.1,0.3-0.3,0.4-0.4c0.2-0.1,0.3-0.3,0.5-0.4c0.1-0.1,0.3-0.3,0.5-0.4c0.1-0.1,0.3-0.3,0.5-0.4c0.2-0.1,0.3-0.3,0.5-0.4
			c0.2-0.1,0.3-0.2,0.5-0.4c0.1-0.1,0.3-0.2,0.5-0.4c0.2-0.1,0.3-0.2,0.5-0.4c0.2-0.1,0.3-0.2,0.5-0.4c0.1-0.1,0.3-0.2,0.5-0.4
			c0.2-0.1,0.3-0.2,0.5-0.4c0.3-0.2,0.6-0.5,0.9-0.7c0.2-0.1,0.3-0.2,0.5-0.4s0.3-0.2,0.5-0.4s0.3-0.2,0.5-0.4
			c0.2-0.1,0.3-0.2,0.5-0.4s0.3-0.2,0.5-0.3c0.2-0.1,0.3-0.2,0.5-0.4c0.2-0.1,0.3-0.2,0.5-0.3c0.2-0.1,0.4-0.2,0.5-0.3
			c0.2-0.1,0.3-0.2,0.5-0.3c0.2-0.1,0.4-0.2,0.5-0.3c0.2-0.1,0.3-0.2,0.5-0.3c0.2-0.1,0.4-0.2,0.5-0.3c0.2-0.1,0.4-0.2,0.5-0.3
			c0.3-0.2,0.6-0.4,1-0.6c0.2-0.1,0.4-0.2,0.5-0.3c0.2-0.1,0.4-0.2,0.6-0.3c0.2-0.1,0.4-0.2,0.6-0.3c0.2-0.1,0.4-0.2,0.6-0.3
			c0.2-0.1,0.4-0.2,0.6-0.3c0.2-0.1,0.4-0.2,0.6-0.3c0.2-0.1,0.4-0.2,0.6-0.3c0.2-0.1,0.4-0.2,0.6-0.3c0.2-0.1,0.4-0.2,0.6-0.3
			c0.2-0.1,0.4-0.2,0.6-0.3c0.2-0.1,0.4-0.2,0.6-0.3c0.2-0.1,0.4-0.2,0.6-0.3c0.2-0.1,0.4-0.2,0.6-0.3c0.2-0.1,0.4-0.2,0.6-0.3
			c0.2-0.1,0.4-0.2,0.6-0.3c0.2-0.1,0.4-0.2,0.6-0.3c0.3-0.2,0.7-0.3,1-0.5c0.2-0.1,0.4-0.2,0.6-0.3c0.2-0.1,0.4-0.2,0.6-0.3
			c0.2-0.1,0.4-0.2,0.6-0.3c0.2-0.1,0.4-0.2,0.6-0.3c0.2-0.1,0.4-0.2,0.6-0.3c0.2-0.1,0.4-0.2,0.6-0.3c0.2-0.1,0.4-0.2,0.6-0.3
			c0.2-0.1,0.4-0.2,0.6-0.3c0.2-0.1,0.4-0.2,0.7-0.3c0.2-0.1,0.4-0.2,0.6-0.3c0.2-0.1,0.4-0.2,0.7-0.3c0.2-0.1,0.4-0.2,0.7-0.3
			c0.2-0.1,0.4-0.2,0.7-0.3c0.2-0.1,0.4-0.2,0.7-0.3c0.2-0.1,0.5-0.2,0.7-0.3c0.2-0.1,0.5-0.2,0.7-0.3c0.2-0.1,0.4-0.2,0.7-0.2
			c0.2-0.1,0.5-0.2,0.7-0.2c0.3-0.1,0.7-0.3,1-0.4c0.2-0.1,0.5-0.2,0.7-0.2c0.2-0.1,0.5-0.2,0.7-0.2c0.2-0.1,0.5-0.2,0.7-0.2
			c0.2-0.1,0.5-0.2,0.7-0.2c0.2-0.1,0.5-0.2,0.7-0.2c0.2-0.1,0.5-0.2,0.7-0.2c0.2-0.1,0.5-0.2,0.7-0.2c0.2-0.1,0.5-0.2,0.7-0.2
			c0.2-0.1,0.5-0.2,0.7-0.2c0.2-0.1,0.5-0.2,0.7-0.2c0.2-0.1,0.5-0.2,0.7-0.2c0.2-0.1,0.5-0.2,0.7-0.2c0.2-0.1,0.5-0.1,0.7-0.2
			c0.2-0.1,0.5-0.2,0.7-0.2c0.2-0.1,0.5-0.2,0.7-0.2c0.2-0.1,0.5-0.1,0.7-0.2c0.2-0.1,0.5-0.2,0.7-0.2c0.2-0.1,0.5-0.2,0.8-0.2
			c0.2-0.1,0.5-0.1,0.8-0.2c0.2-0.1,0.5-0.1,0.8-0.2c0.2-0.1,0.5-0.1,0.8-0.2c0.2-0.1,0.5-0.1,0.8-0.2c0.2-0.1,0.5-0.1,0.8-0.2
			c0.3-0.1,0.7-0.2,1-0.2c0,0,0,0,0,0c0.2-0.1,0.5-0.1,0.7-0.2h0c0.2-0.1,0.5-0.1,0.7-0.2c0,0,0,0,0.1,0c0.2-0.1,0.5-0.1,0.7-0.2
			c0,0,0.1,0,0.1,0c0.2-0.1,0.4-0.1,0.7-0.2c0,0,0.1,0,0.1,0c0.2-0.1,0.4-0.1,0.6-0.2c0.1,0,0.1,0,0.2,0c0.2,0,0.4-0.1,0.6-0.1
			c0.1,0,0.1,0,0.2,0c0.2,0,0.4-0.1,0.6-0.1c0.1,0,0.1,0,0.2,0c0.2,0,0.4-0.1,0.5-0.1c0.1,0,0.2,0,0.2,0c0.2,0,0.4-0.1,0.5-0.1
			c0.1,0,0.2,0,0.3,0c0.2,0,0.3-0.1,0.5-0.1c0.1,0,0.2,0,0.3,0c0.2,0,0.3-0.1,0.5-0.1c0.1,0,0.2,0,0.3-0.1c0.2,0,0.3-0.1,0.5-0.1
			c0.1,0,0.2,0,0.4,0c0.1,0,0.3-0.1,0.4-0.1c0.1,0,0.3,0,0.4-0.1c0.1,0,0.3-0.1,0.4-0.1c0.1,0,0.3,0,0.4-0.1c0.1,0,0.2-0.1,0.4-0.1
			l0.5-0.1c0.1,0,0.2-0.1,0.3-0.1c0.2,0,0.3,0,0.5-0.1c0.1,0,0.2-0.1,0.3-0.1c0.2,0,0.3,0,0.5-0.1c0.1,0,0.2-0.1,0.3-0.1
			c0.2,0,0.3,0,0.5-0.1c0.1,0,0.2,0,0.3-0.1c0.2,0,0.4-0.1,0.6-0.1c0.1,0,0.2,0,0.2-0.1c0.2,0,0.4-0.1,0.6-0.1c0.1,0,0.1,0,0.2,0
			c0.2,0,0.4-0.1,0.6-0.1c0.1,0,0.1,0,0.2,0c0.2,0,0.4-0.1,0.7-0.1c0,0,0.1,0,0.2,0c0.2,0,0.5-0.1,0.7-0.1c0,0,0.1,0,0.1,0
			c0.2,0,0.5-0.1,0.7-0.1c0,0,0.1,0,0.1,0c0.2,0,0.5-0.1,0.7-0.1c0,0,0.1,0,0.1,0c0.3,0,0.5-0.1,0.8-0.1c0,0,0,0,0.1,0
			c0.3,0,0.5-0.1,0.8-0.1c0,0,0,0,0,0c0.3,0,0.5-0.1,0.8-0.1c0.4-0.1,0.7-0.1,1-0.1c0.3-0.1,0.6-0.1,0.9-0.1c0.3,0,0.6-0.1,0.9-0.1
			c0.3,0,0.6-0.1,0.9-0.1c0.3,0,0.6-0.1,0.9-0.1c0.3,0,0.6-0.1,0.9-0.1c0.3-0.1,0.6-0.1,0.9-0.1c0.3,0,0.6-0.1,0.9-0.1
			c0.3,0,0.6-0.1,0.9-0.1c0.3,0,0.6-0.1,0.9-0.1c0.3,0,0.6-0.1,0.9-0.1c0.3,0,0.6-0.1,0.9-0.1c0.3,0,0.6-0.1,0.9-0.1
			c0.3,0,0.6-0.1,0.9-0.1c0.3,0,0.6-0.1,0.9-0.1c0.3,0,0.6-0.1,0.9-0.1c0.3,0,0.6-0.1,0.9-0.1c0.3,0,0.6-0.1,0.9-0.1
			c0.3,0,0.6-0.1,0.9-0.1C195.7,105.1,196,105.1,196.3,105.1"/>
		<path class="st41" d="M214.7,122.9c-0.2,0-0.3,0-0.5,0c-0.3,0-0.6,0-0.9,0.1c-0.3,0-0.6,0-0.9,0.1c-0.3,0-0.6,0-0.9,0.1
			c-0.3,0-0.6,0-0.9,0.1c-0.3,0-0.6,0.1-0.9,0.1c-0.3,0-0.6,0.1-0.9,0.1c-0.3,0-0.6,0.1-0.9,0.1c-0.3,0-0.6,0.1-0.9,0.1
			c-0.3,0-0.6,0.1-0.9,0.1c-0.3,0-0.6,0.1-0.9,0.1c-0.3,0-0.6,0.1-0.9,0.1c-0.3,0-0.6,0.1-0.9,0.1c-0.3,0-0.5,0.1-0.8,0.1
			c0-6.4,0-12.8,0-19.2c0.1,0,0.1,0,0.1,0c0.3,0,0.6-0.1,0.9-0.1c0.3,0,0.6-0.1,0.9-0.1c0.3,0,0.6-0.1,1-0.1c0.3,0,0.6,0,1,0
			c0.3,0,0.6,0,0.9,0c0.3,0,0.6,0,1,0c0.3,0,0.6,0,1,0c0.3,0,0.6,0,1,0c0.3,0,0.7,0,1,0c0.3,0,0.6,0,1,0c0.3,0,0.6,0,1,0
			c0.3,0,0.7,0,1,0c0.1,0,0.3,0,0.4,0C214.7,110.3,214.7,116.6,214.7,122.9"/>
		<path class="st41" d="M264.9,105.4c0,5.9,0,11.8-0.1,17.7c-0.1,0-0.3,0-0.4,0c-0.3,0-0.7,0-1-0.1c-0.4,0-0.7,0-1.1-0.1
			c-0.3,0-0.7,0-1-0.1c-0.4,0-0.7,0-1-0.1c-0.4,0-0.7,0-1,0c-0.3,0-0.7,0-1,0c-0.3,0-0.7,0-1,0c-0.4,0-0.7,0-1,0c-0.3,0-0.7,0-1,0
			c-0.3,0-0.7,0-1,0c-0.3,0-0.7,0-1,0c-0.3,0-0.7,0-1,0h-0.1c0-6,0-12,0-18c0.3,0,0.7,0,1,0.1c0.3,0,0.7,0,1,0.1c0.3,0,0.7,0,1,0.1
			c0.4,0,0.7,0,1.1,0.1c0.4,0,0.7,0,1.1,0.1c0.4,0,0.7,0,1.1,0.1c0.4,0,0.7,0,1.1,0.1c0.4,0,0.7,0,1.1,0.1c0.4,0,0.7,0,1.1,0.1
			c0.4,0,0.7,0,1.1,0.1c0.4,0,0.7,0,1.1,0.1c0.4,0,0.7,0,1.1,0.1C264.7,105.4,264.8,105.4,264.9,105.4"/>
		<path class="st41" d="M300.2,125.2c4.9-2.6,9.8-5.3,14.6-8v11.3c-0.3,0-0.7-0.1-1-0.2c-0.4,0-0.8-0.1-1.1-0.2
			c-0.4,0-0.8-0.1-1.1-0.2c-0.4,0-0.8-0.1-1.1-0.2c-0.4,0-0.8-0.1-1.1-0.2c-0.4,0-0.8-0.1-1.1-0.2c-0.4,0-0.8-0.1-1.1-0.2
			c-0.4,0-0.8-0.1-1.1-0.2c-0.4,0-0.8-0.1-1.1-0.2c-0.4,0-0.8-0.1-1.1-0.2c-0.4,0-0.8-0.1-1.1-0.2c-0.4,0-0.8-0.1-1.1-0.1
			c-0.4,0-0.8-0.1-1.1-0.2c-0.4,0-0.8-0.1-1.1-0.1c-0.1,0-0.3,0-0.4,0C299.1,125.9,299.6,125.5,300.2,125.2"/>
		<path class="st41" d="M358.6,137c-0.1,0-0.2-0.1-0.4-0.1c-0.3,0-0.7-0.1-1-0.2c-0.4-0.1-0.7-0.1-1-0.2c-0.4-0.1-0.7-0.1-1-0.2
			c-0.4,0-0.7-0.1-1-0.2c-0.4,0-0.7-0.1-1-0.2c-0.3-0.1-0.7-0.1-1-0.2c-0.4-0.1-0.7-0.1-1-0.2c-0.4-0.1-0.8-0.1-1.1-0.2
			c-0.4-0.1-0.8-0.1-1.2-0.3c-0.4,0-0.8-0.1-1.2-0.2c-0.4,0-0.8-0.1-1.2-0.2c-0.2,0-0.4-0.1-0.5-0.1c0-5.4,0-10.9,0-16.3
			c0.1,0,0.2,0.1,0.4,0.1c0.4,0.1,0.8,0.2,1.2,0.3c0.4,0.1,0.8,0.2,1.2,0.3c0.4,0.1,0.8,0.1,1.2,0.3c0.4,0.1,0.8,0.2,1.2,0.3
			c0.4,0.1,0.8,0.1,1.2,0.3c0.4,0.1,0.8,0.2,1.2,0.3c0.4,0.1,0.8,0.2,1.1,0.3c0.4,0.1,0.7,0.1,1.1,0.3c0.4,0.1,0.7,0.1,1.1,0.2
			c0.4,0.1,0.7,0.2,1.1,0.3c0.3,0.1,0.6,0.1,0.8,0.2C358.6,126.3,358.6,131.7,358.6,137"/>
		<path class="st41" d="M451.5,151.2c0,4.8,0,9.6,0,14.4c-0.2-0.1-0.4-0.1-0.5-0.2c-0.3-0.1-0.6-0.2-0.9-0.4
			c-0.3-0.1-0.6-0.2-0.9-0.4c-0.3-0.1-0.6-0.2-0.9-0.4c-0.3-0.1-0.6-0.2-0.9-0.4c-0.3-0.1-0.6-0.2-0.9-0.3c-0.3-0.1-0.6-0.2-0.9-0.4
			c-0.3-0.1-0.6-0.2-0.9-0.4c-0.3-0.1-0.6-0.2-0.9-0.4c-0.3-0.1-0.6-0.2-0.9-0.3c-0.3-0.1-0.6-0.2-0.9-0.4c-0.3-0.1-0.6-0.2-0.9-0.3
			c-0.3-0.1-0.6-0.2-0.9-0.3c-0.3-0.1-0.6-0.2-0.9-0.4c0,0-0.1,0-0.1,0c0,0-0.1,0-0.1,0v-0.1c0-2,0-4,0-6
			c-10.3-5.5-20.6-10.9-31-16.4c0,4,0.1,7.9,0.1,11.9v0.1c-0.2-0.1-0.4-0.1-0.7-0.2c-0.3-0.1-0.7-0.2-1-0.3c-0.3-0.1-0.7-0.2-1-0.3
			c-0.3-0.1-0.7-0.2-1-0.3c-0.3-0.1-0.7-0.2-1-0.3c-0.3-0.1-0.7-0.2-1-0.3c-0.3-0.1-0.7-0.2-1-0.3c-0.3-0.1-0.7-0.2-1-0.3
			c-0.3-0.1-0.7-0.2-1-0.3c-0.3-0.1-0.7-0.2-1-0.3c-0.3-0.1-0.7-0.2-1-0.3c-0.3-0.1-0.7-0.2-1-0.3c-0.3-0.1-0.7-0.2-1-0.3
			c-0.3-0.1-0.7-0.2-1-0.3c-0.3-0.1-0.7-0.2-1-0.3c-0.4-0.1-0.7-0.2-1-0.3c-0.3-0.1-0.7-0.2-1-0.3c-0.3-0.1-0.7-0.2-1-0.3
			c-0.2,0-0.4-0.1-0.6-0.2c0-0.2,0-0.4,0-0.6l0-15c0.2,0,0.4,0.1,0.7,0.2c0.3,0.1,0.7,0.2,1,0.3c0.4,0.1,0.7,0.2,1,0.3
			c0.4,0.1,0.7,0.2,1,0.3c0.3,0.1,0.7,0.2,1,0.3c0.3,0.1,0.7,0.2,1,0.3c0.4,0.1,0.7,0.2,1,0.3c0.3,0.1,0.7,0.2,1,0.3
			c0.3,0.1,0.7,0.2,1,0.3c0.4,0.1,0.7,0.2,1,0.3c0.3,0.1,0.7,0.2,1,0.3c0.4,0.1,0.7,0.2,1,0.3c0.3,0.1,0.7,0.2,1,0.3
			c0.4,0.1,0.7,0.2,1,0.3c0.3,0.1,0.7,0.2,1,0.3c0.3,0.1,0.7,0.2,1,0.3c0.4,0.1,0.7,0.2,1,0.3c0.3,0.1,0.7,0.2,1,0.3
			c0.3,0.1,0.7,0.2,1,0.3c0.3,0.1,0.7,0.2,1,0.3c0.3,0.1,0.7,0.2,1,0.3c0.4,0.1,0.7,0.2,1,0.3c0.3,0.1,0.7,0.2,1,0.3
			c0.3,0.1,0.7,0.2,1,0.3c0.3,0.1,0.7,0.2,1,0.3c0.3,0.1,0.7,0.2,1,0.3c0.3,0.1,0.7,0.2,1,0.3c0.3,0.1,0.7,0.2,1,0.3
			c0.3,0.1,0.7,0.2,1,0.3c0.3,0.1,0.7,0.2,1,0.3c0.3,0.1,0.7,0.2,1,0.3c0.3,0.1,0.7,0.2,1,0.3c0.3,0.1,0.7,0.2,1,0.3
			c0.3,0.1,0.7,0.2,1,0.4c0.3,0.1,0.7,0.2,1,0.4c0.3,0.1,0.7,0.2,1,0.3c0.3,0.1,0.7,0.2,1,0.3c0.3,0.1,0.7,0.2,1,0.4
			c0.3,0.1,0.7,0.2,1,0.4c0.3,0.1,0.7,0.2,1,0.3c0.3,0.1,0.7,0.2,1,0.4c0.3,0.1,0.7,0.2,1,0.4c0.3,0.1,0.7,0.2,1,0.4
			c0.3,0.1,0.6,0.2,1,0.4c0.3,0.1,0.7,0.2,1,0.4c0.3,0.1,0.7,0.2,1,0.4c0.3,0.1,0.7,0.2,1,0.4c0.3,0.1,0.7,0.2,1,0.4
			c0.3,0.1,0.7,0.2,1,0.4c0.3,0.1,0.6,0.2,0.9,0.4c0.3,0.1,0.7,0.2,1,0.4c0.3,0.1,0.6,0.2,1,0.4c0.3,0.1,0.7,0.2,0.9,0.4
			c0.3,0.1,0.6,0.2,1,0.4c0.3,0.1,0.6,0.2,0.9,0.4c0.3,0.1,0.7,0.2,0.9,0.4c0.3,0.1,0.6,0.2,1,0.4c0.3,0.1,0.6,0.2,0.9,0.4
			c0.3,0.1,0.6,0.2,0.9,0.4c0.3,0.1,0.6,0.2,0.9,0.4c0.3,0.1,0.6,0.2,0.9,0.4c0.3,0.1,0.6,0.2,0.9,0.4c0.3,0.1,0.6,0.2,0.9,0.4
			C451.3,151.2,451.4,151.2,451.5,151.2"/>
		<path class="st41" d="M496.9,186c-0.3-0.1-0.6-0.3-0.8-0.4c-0.3-0.1-0.6-0.3-0.8-0.4c-0.3-0.1-0.6-0.3-0.8-0.4
			c-0.3-0.1-0.6-0.3-0.8-0.4c-0.3-0.1-0.6-0.3-0.8-0.4c-0.3-0.1-0.6-0.2-0.8-0.4c-0.3-0.1-0.6-0.2-0.8-0.4c-0.3-0.1-0.6-0.2-0.8-0.4
			c-0.3-0.1-0.6-0.2-0.8-0.4c-0.3-0.1-0.6-0.2-0.8-0.4c0,0,0,0,0,0v-6.2c0-2.9,3.1-4.7,5.7-3.4c2.6,1.4,5.2,2.8,7.8,4.2l-0.1,12
			c-0.1,0-0.1-0.1-0.2-0.1c-0.3-0.1-0.6-0.3-0.8-0.4c-0.3-0.1-0.5-0.3-0.8-0.4c-0.3-0.1-0.5-0.3-0.8-0.4c-0.3-0.1-0.6-0.3-0.8-0.4
			c-0.3-0.1-0.6-0.3-0.8-0.4C497.5,186.3,497.2,186.1,496.9,186"/>
		<path class="st41" d="M621.2,304.6c0,0.2,0,0.5,0,0.7c0,0.2,0,0.5,0,0.7c0,0.2,0,0.5,0,0.7c0,0.2,0,0.5,0,0.7c0,0.2,0,0.5,0,0.7
			c0,0.2,0,0.5-0.1,0.7c0,0.2,0,0.5-0.1,0.7c0,0.2,0,0.5-0.1,0.7c0,0.2,0,0.5-0.1,0.7c0,0.2,0,0.5-0.1,0.7c0,0.2,0,0.5-0.1,0.7
			c0,0.2,0,0.5-0.1,0.7c0,0.2-0.1,0.4-0.1,0.7c0,0.2-0.1,0.5-0.1,0.7c0,0.2-0.1,0.5-0.1,0.7c0,0.2-0.1,0.5-0.2,0.7
			c0,0.2-0.1,0.4-0.2,0.7c0,0.2-0.1,0.5-0.2,0.7c0,0.2-0.1,0.4-0.2,0.6c0,0.2-0.1,0.4-0.2,0.6c0,0.2-0.1,0.4-0.2,0.6
			c0,0.2-0.1,0.4-0.2,0.6c0,0.2-0.1,0.4-0.2,0.6c-0.1,0.2-0.1,0.4-0.2,0.6c-0.1,0.2-0.1,0.4-0.2,0.6c-0.1,0.2-0.1,0.4-0.2,0.6
			c0,0.2-0.1,0.4-0.2,0.6c-0.1,0.2-0.1,0.4-0.2,0.6c-0.1,0.2-0.2,0.4-0.3,0.6c-0.1,0.2-0.2,0.4-0.3,0.6c-0.1,0.2-0.1,0.4-0.3,0.6
			c-0.1,0.2-0.2,0.4-0.3,0.6c-0.1,0.2-0.2,0.4-0.3,0.6c-0.1,0.2-0.2,0.4-0.3,0.6c-0.1,0.2-0.2,0.4-0.3,0.6c-0.1,0.2-0.2,0.4-0.3,0.6
			c-0.1,0.2-0.2,0.4-0.3,0.6c-0.1,0.2-0.2,0.4-0.3,0.6c-0.1,0.2-0.2,0.4-0.3,0.6c-0.1,0.2-0.2,0.4-0.3,0.6c-0.1,0.2-0.2,0.4-0.4,0.6
			c-0.1,0.2-0.2,0.4-0.4,0.6c-0.1,0.2-0.2,0.4-0.4,0.6c-0.1,0.2-0.2,0.4-0.4,0.6c-0.1,0.2-0.2,0.4-0.4,0.5c-0.1,0.2-0.2,0.4-0.4,0.6
			c-0.1,0.2-0.2,0.4-0.4,0.5c-0.1,0.2-0.2,0.4-0.4,0.5c-0.1,0.2-0.2,0.4-0.4,0.5c-0.1,0.2-0.2,0.4-0.4,0.5c-0.1,0.2-0.2,0.4-0.4,0.5
			c-0.1,0.2-0.3,0.4-0.4,0.5c-0.1,0.2-0.3,0.4-0.4,0.5c-0.1,0.2-0.3,0.4-0.4,0.5c-0.1,0.2-0.3,0.4-0.5,0.5c-0.1,0.2-0.3,0.4-0.4,0.5
			c-0.1,0.2-0.3,0.3-0.5,0.5c-0.1,0.2-0.3,0.3-0.5,0.5c-0.1,0.2-0.3,0.4-0.5,0.5c-0.1,0.2-0.3,0.4-0.5,0.5c-0.1,0.2-0.3,0.4-0.5,0.5
			c-0.1,0.2-0.3,0.4-0.5,0.5c-0.1,0.2-0.3,0.3-0.5,0.5c-0.1,0.2-0.3,0.4-0.5,0.5c-0.1,0.2-0.3,0.3-0.5,0.5c-0.1,0.2-0.3,0.3-0.5,0.5
			c-0.2,0.2-0.3,0.3-0.5,0.5c-0.2,0.2-0.3,0.3-0.5,0.5c-0.2,0.2-0.3,0.3-0.6,0.5c-0.2,0.2-0.3,0.3-0.5,0.5c-0.2,0.2-0.3,0.3-0.6,0.5
			c-0.2,0.2-0.3,0.3-0.6,0.5c-0.2,0.2-0.4,0.3-0.6,0.4c-0.2,0.2-0.4,0.3-0.6,0.5c-0.2,0.2-0.4,0.3-0.6,0.4c-0.2,0.2-0.4,0.3-0.6,0.4
			c-0.2,0.2-0.4,0.3-0.6,0.4c-0.2,0.2-0.4,0.3-0.6,0.4c-0.2,0.2-0.4,0.3-0.6,0.4c-0.2,0.2-0.4,0.3-0.6,0.4c-0.2,0.2-0.4,0.3-0.6,0.4
			c-0.2,0.2-0.4,0.3-0.6,0.4c-0.2,0.2-0.4,0.3-0.6,0.4c-0.2,0.2-0.4,0.3-0.6,0.4c-0.2,0.2-0.4,0.3-0.7,0.4c-0.2,0.2-0.4,0.3-0.7,0.4
			c-0.2,0.2-0.4,0.3-0.7,0.4c-0.2,0.2-0.4,0.3-0.7,0.4c-0.2,0.2-0.4,0.3-0.7,0.4c-0.2,0.2-0.4,0.3-0.7,0.4c-0.2,0.2-0.4,0.3-0.7,0.4
			c-0.2,0.2-0.4,0.3-0.7,0.4c-0.2,0.2-0.4,0.3-0.7,0.4c-0.2,0.2-0.4,0.3-0.7,0.4c-0.2,0.2-0.4,0.3-0.7,0.4c-0.2,0.2-0.4,0.3-0.7,0.4
			c-0.2,0.2-0.5,0.3-0.7,0.4c-0.2,0.2-0.4,0.3-0.7,0.4c-0.2,0.2-0.5,0.3-0.7,0.4c-0.2,0.2-0.4,0.3-0.7,0.3h0
			c-0.2,0.2-0.4,0.3-0.7,0.3h0c-0.2,0.2-0.4,0.3-0.7,0.3h0c-0.2,0.2-0.4,0.3-0.7,0.3h-0.1c-0.2,0.2-0.4,0.3-0.7,0.3c0,0-0.1,0-0.1,0
			c-0.2,0.2-0.4,0.3-0.7,0.3c0,0,0,0-0.1,0c-0.2,0.1-0.4,0.3-0.7,0.3c0,0-0.1,0-0.1,0c-0.2,0.1-0.4,0.3-0.7,0.3c0,0-0.1,0-0.1,0
			c-0.2,0.2-0.4,0.3-0.7,0.3c0,0-0.1,0-0.1,0c-0.2,0.2-0.4,0.3-0.7,0.3c-0.1,0-0.1,0-0.1,0c-0.2,0.1-0.4,0.2-0.7,0.3
			c0,0-0.1,0-0.2,0c-0.2,0.1-0.4,0.2-0.6,0.3c-0.1,0-0.1,0-0.2,0c-0.2,0.1-0.4,0.2-0.6,0.3c-0.1,0-0.1,0-0.2,0
			c-0.2,0.1-0.4,0.2-0.6,0.3c-0.1,0-0.1,0-0.2,0c-0.2,0.1-0.4,0.2-0.6,0.3c-0.1,0-0.1,0-0.2,0c-0.2,0.1-0.4,0.2-0.6,0.3
			c-0.1,0-0.2,0-0.2,0c-0.2,0.1-0.4,0.2-0.6,0.3c-0.1,0-0.2,0-0.2,0c-0.2,0.1-0.4,0.2-0.6,0.3c-0.1,0-0.2,0-0.2,0
			c-0.2,0.1-0.4,0.2-0.6,0.3c-0.1,0-0.2,0-0.3,0c-0.2,0.1-0.4,0.2-0.6,0.3c-0.1,0-0.2,0-0.3,0c-0.2,0.1-0.4,0.2-0.6,0.3
			c-0.1,0-0.2,0-0.3,0c-0.2,0.1-0.3,0.2-0.6,0.2c-0.1,0-0.2,0-0.3,0c-0.2,0.1-0.3,0.2-0.6,0.2c-0.1,0-0.2,0-0.3,0
			c-0.2,0.1-0.3,0.2-0.6,0.2c-0.1,0-0.2,0-0.3,0c-0.2,0.1-0.3,0.2-0.5,0.2c-0.1,0-0.2,0-0.3,0c-0.2,0.1-0.3,0.2-0.5,0.2
			c-0.1,0-0.2,0-0.3,0c-0.2,0.1-0.3,0.2-0.5,0.2c-0.1,0-0.2,0-0.4,0c-0.2,0.1-0.3,0.2-0.5,0.2c-0.1,0-0.2,0-0.4,0
			c-0.2,0.1-0.3,0.2-0.5,0.2c-0.1,0-0.3,0-0.4,0c-0.2,0.1-0.3,0.2-0.5,0.2c-0.1,0-0.2,0-0.4,0c-0.1,0.1-0.3,0.2-0.5,0.2
			c-0.1,0-0.3,0-0.4,0c-0.2,0.1-0.3,0.2-0.5,0.2c-0.1,0-0.3,0-0.4,0c-0.2,0.1-0.3,0.2-0.5,0.2c-0.1,0-0.3,0-0.4,0
			c-0.1,0.1-0.3,0.2-0.5,0.2c-0.2,0-0.3,0-0.4,0c-0.1,0.1-0.3,0.2-0.5,0.2c-0.2,0-0.3,0-0.4,0c-0.1,0.1-0.3,0.2-0.5,0.2
			c-0.2,0-0.3,0-0.4,0c-0.1,0.1-0.3,0.2-0.5,0.2c-0.2,0-0.3,0-0.5,0c-0.1,0.1-0.3,0.2-0.5,0.2c-0.2,0-0.3,0-0.5,0
			c-0.1,0.1-0.3,0.2-0.5,0.2c-0.2,0-0.3,0-0.5,0c-0.1,0.1-0.3,0.2-0.5,0.2c-0.2,0-0.3,0-0.5,0c-0.1,0.1-0.3,0.2-0.5,0.2
			c-0.2,0-0.3,0-0.5,0c-0.1,0.1-0.3,0.2-0.5,0.2c-0.2,0-0.3,0-0.5,0c-0.1,0.1-0.3,0.2-0.5,0.2c-0.2,0-0.3,0-0.5,0
			c-0.1,0.1-0.3,0.2-0.5,0.2c-0.2,0-0.3,0-0.5,0c-0.1,0.1-0.3,0.2-0.5,0.2c-0.2,0-0.3,0-0.5,0c-0.1,0.1-0.3,0.2-0.5,0.2
			c-0.2,0-0.4,0-0.5,0c-0.1,0.1-0.3,0.2-0.5,0.2c-0.2,0-0.4,0-0.5,0c-0.1,0.1-0.3,0.2-0.5,0.2c-0.2,0-0.4,0-0.5-0.1
			c-0.1,0.1-0.3,0.2-0.5,0.2c-0.2,0-0.4,0-0.5,0c-0.1,0.1-0.3,0.2-0.5,0.2c-0.2,0-0.4,0-0.6,0c-0.1,0.1-0.3,0.2-0.5,0.2
			c-0.2,0-0.4,0-0.5-0.1c-0.1,0.1-0.3,0.2-0.5,0.2c-0.2,0-0.4,0-0.6-0.1c-0.1,0.1-0.3,0.2-0.5,0.2c-0.2,0-0.4,0-0.6-0.1
			c-0.1,0.1-0.3,0.2-0.4,0.2c-0.2,0-0.4,0-0.6-0.1c-0.1,0.1-0.3,0.2-0.5,0.2c-0.2,0-0.4,0-0.6-0.1c-0.1,0.1-0.3,0.2-0.4,0.2
			c-0.2,0-0.4,0-0.6-0.1c-0.1,0.1-0.3,0.2-0.5,0.2c-0.2,0-0.4,0-0.6-0.1c-0.1,0.1-0.3,0.2-0.4,0.2c-0.2,0-0.4,0-0.6-0.1
			c-0.1,0.1-0.3,0.2-0.4,0.2c-0.2,0-0.4,0-0.6-0.1c-0.1,0.1-0.3,0.2-0.5,0.2c-0.2,0-0.4,0-0.6-0.1c-0.1,0.1-0.3,0.2-0.5,0.2
			c-0.2,0-0.4,0-0.6-0.1c-0.1,0.1-0.3,0.2-0.4,0.2c-0.2,0-0.4,0-0.6-0.1c-0.1,0.1-0.3,0.2-0.4,0.2c-0.2,0-0.5,0-0.6-0.1
			c-0.1,0.1-0.3,0.2-0.4,0.2c-0.2,0-0.5,0-0.6-0.1c-0.1,0.1-0.3,0.2-0.4,0.2c-0.2,0-0.5,0-0.6-0.1c-0.1,0.1-0.3,0.2-0.4,0.3
			c-0.2,0-0.5,0-0.7-0.1c-0.1,0.1-0.3,0.2-0.4,0.3c-0.2,0-0.5,0-0.7-0.1c-0.1,0.1-0.3,0.2-0.4,0.3c-0.2,0-0.5,0-0.7-0.2
			c-0.1,0.1-0.3,0.2-0.4,0.3c-0.2,0-0.5,0-0.7-0.2c-0.1,0.1-0.3,0.2-0.4,0.3c-0.2,0.1-0.5,0-0.7-0.2c-0.1,0.1-0.3,0.2-0.4,0.3
			c-0.2,0-0.5,0-0.7-0.2c-0.1,0.1-0.3,0.2-0.5,0.3c-0.2,0-0.5,0-0.7-0.2c-0.1,0.1-0.3,0.2-0.5,0.3c-0.3,0.1-0.5,0-0.7-0.2
			c-0.1,0.1-0.3,0.2-0.5,0.3c-0.2,0-0.5,0-0.7-0.2c-0.1,0.2-0.3,0.3-0.5,0.3c-0.2,0.1-0.5,0-0.7-0.2c-0.1,0.1-0.3,0.3-0.5,0.3
			c-0.3,0-0.5,0-0.7-0.2c-0.1,0.1-0.3,0.3-0.5,0.3c-0.3,0-0.5-0.1-0.7-0.2c-0.1,0.2-0.3,0.3-0.5,0.3c-0.3,0-0.5-0.1-0.7-0.2
			c-0.1,0.2-0.3,0.3-0.5,0.3c-0.2,0-0.5,0-0.7-0.2c-0.1,0.1-0.2,0.3-0.4,0.3c-0.2,0-0.4,0-0.5-0.1c-0.1,0.1-0.2,0.1-0.3,0.2
			c-0.2,0-0.4,0-0.5-0.1c-0.1,0.1-0.2,0.1-0.3,0.1c-0.2,0-0.4,0-0.5-0.1c-0.1,0.1-0.2,0.1-0.3,0.2c-0.2,0-0.4,0-0.5-0.1
			c-0.1,0.1-0.2,0.1-0.3,0.2c-0.2,0-0.4,0-0.5-0.1c-0.1,0.1-0.2,0.1-0.3,0.2c-0.2,0-0.4,0-0.5-0.1c-0.1,0.1-0.2,0.1-0.3,0.2
			c-0.2,0-0.4,0-0.5-0.1c-0.1,0.1-0.2,0.1-0.3,0.2c-0.2,0-0.4,0-0.5-0.1c-0.1,0.1-0.2,0.2-0.3,0.2c-0.2,0-0.4,0-0.5-0.2
			c-0.1,0.1-0.2,0.2-0.3,0.2c-0.2,0-0.4,0-0.5-0.2c-0.1,0.1-0.2,0.2-0.3,0.2c-0.3,0.1-0.6-0.1-0.7-0.5c-0.1-0.3,0.1-0.6,0.5-0.7
			c0.2,0,0.4,0,0.5,0.2c0.1-0.1,0.2-0.2,0.3-0.2c0.2,0,0.4,0,0.5,0.1c0.1-0.1,0.2-0.2,0.3-0.2c0.2,0,0.4,0,0.5,0.1
			c0.1-0.1,0.2-0.2,0.3-0.2c0.2,0,0.3,0,0.5,0.1c0.1-0.1,0.2-0.2,0.3-0.2c0.2,0,0.3,0,0.5,0.1c0.1-0.1,0.2-0.2,0.3-0.2
			c0.2,0,0.3,0,0.5,0.1c0.1-0.1,0.2-0.1,0.3-0.2c0.2,0,0.4,0,0.5,0.1c0.1-0.1,0.2-0.1,0.3-0.2c0.2,0,0.3,0,0.5,0.1
			c0.1-0.1,0.2-0.1,0.3-0.2c0.2,0,0.3,0,0.5,0.1c0.1-0.1,0.2-0.1,0.3-0.2c0.2,0,0.3,0,0.5,0.1c0.1-0.1,0.2-0.1,0.3-0.2
			c0.2,0,0.5,0,0.6,0.2c0.1-0.2,0.3-0.3,0.5-0.3c0.2,0,0.5,0.1,0.7,0.2c0.1-0.2,0.3-0.3,0.5-0.3c0.2,0,0.5,0,0.7,0.2
			c0.1-0.2,0.3-0.3,0.5-0.3c0.2,0,0.5,0,0.7,0.2c0.1-0.2,0.3-0.3,0.5-0.3c0.2-0.1,0.5,0,0.7,0.2c0.1-0.1,0.3-0.3,0.5-0.3
			c0.2,0,0.5,0,0.7,0.2c0.1-0.1,0.3-0.3,0.5-0.3c0.2,0,0.5,0,0.7,0.2c0.1-0.2,0.3-0.3,0.5-0.3c0.2,0,0.5,0,0.7,0.2
			c0.1-0.1,0.3-0.3,0.5-0.3c0.2,0,0.5,0,0.6,0.2c0.1-0.1,0.3-0.2,0.5-0.3c0.2,0,0.5,0,0.6,0.2c0.1-0.1,0.3-0.2,0.5-0.3
			c0.2,0,0.5,0,0.6,0.2c0.1-0.1,0.3-0.2,0.5-0.3c0.2,0,0.5,0,0.6,0.1c0.1-0.1,0.3-0.2,0.5-0.3c0.2-0.1,0.5,0,0.6,0.1
			c0.1-0.1,0.3-0.2,0.5-0.3c0.2,0,0.4,0,0.6,0.1c0.1-0.1,0.3-0.2,0.4-0.3c0.2,0,0.5,0,0.6,0.1c0.1-0.1,0.3-0.2,0.5-0.3
			c0.2-0.1,0.4,0,0.6,0.1c0.1-0.1,0.3-0.2,0.5-0.3c0.2,0,0.4,0,0.6,0.1c0.1-0.1,0.3-0.2,0.5-0.3c0.2,0,0.4,0,0.6,0.1
			c0.1-0.1,0.3-0.2,0.5-0.3c0.2,0,0.4,0,0.6,0.1c0.1-0.1,0.3-0.2,0.5-0.3c0.2-0.1,0.4,0,0.6,0.1c0.1-0.1,0.3-0.2,0.5-0.3
			c0.2,0,0.4,0,0.6,0.1c0.1-0.1,0.3-0.2,0.5-0.3c0.2,0,0.4,0,0.6,0.1c0.1-0.1,0.3-0.2,0.5-0.3c0.2,0,0.4,0,0.6,0.1
			c0.1-0.1,0.3-0.2,0.5-0.3c0.2,0,0.4,0,0.6,0.1c0.1-0.1,0.3-0.2,0.5-0.2c0.2,0,0.4,0,0.6,0.1c0.1-0.1,0.3-0.2,0.5-0.3
			c0.2,0,0.4,0,0.6,0.1c0.1-0.1,0.3-0.2,0.5-0.3c0.2,0,0.4,0,0.5,0.1c0.1-0.1,0.3-0.2,0.5-0.3c0.2,0,0.4,0,0.5,0.1
			c0.1-0.1,0.3-0.2,0.5-0.2c0.2,0,0.4,0,0.5,0c0.1-0.1,0.3-0.2,0.5-0.2c0.2,0,0.4,0,0.5,0c0.1-0.1,0.3-0.2,0.5-0.3
			c0.2,0,0.3,0,0.5,0.1c0.1-0.1,0.3-0.2,0.5-0.2c0.2,0,0.3,0,0.5,0c0.1-0.1,0.3-0.2,0.5-0.2c0.2,0,0.3,0,0.5,0
			c0.1-0.1,0.3-0.2,0.5-0.2c0.2,0,0.3,0,0.5,0c0.1-0.1,0.3-0.2,0.5-0.2c0.2,0,0.3,0,0.5,0c0.1-0.1,0.3-0.2,0.5-0.2
			c0.2,0,0.3,0,0.5,0c0.1-0.1,0.3-0.2,0.5-0.2c0.2,0,0.3,0,0.5,0c0.2-0.1,0.3-0.2,0.5-0.2c0.2,0,0.3,0,0.5,0
			c0.1-0.1,0.3-0.2,0.5-0.2c0.2,0,0.3,0,0.5,0c0.1-0.1,0.3-0.2,0.5-0.2c0.2,0,0.3,0,0.5,0c0.1-0.1,0.3-0.2,0.5-0.2
			c0.2,0,0.3,0,0.4,0c0.2-0.1,0.3-0.2,0.5-0.2c0.1,0,0.3,0,0.4,0c0.2-0.1,0.3-0.2,0.5-0.2c0.1,0,0.3,0,0.4,0
			c0.1-0.1,0.3-0.2,0.5-0.2c0.1,0,0.3,0,0.4,0c0.2-0.1,0.3-0.2,0.5-0.3c0.1,0,0.3,0,0.4,0c0.2-0.1,0.3-0.2,0.5-0.3
			c0.1,0,0.3,0,0.4,0c0.2-0.1,0.3-0.2,0.5-0.3c0.1,0,0.3,0,0.4,0c0.2-0.1,0.3-0.2,0.5-0.3c0.1,0,0.2,0,0.4,0
			c0.2-0.1,0.3-0.2,0.5-0.3c0.1,0,0.2,0,0.4,0c0.2-0.1,0.3-0.2,0.5-0.3c0.1,0,0.2,0,0.3,0c0.2-0.1,0.3-0.2,0.6-0.3
			c0.1,0,0.2,0,0.3,0c0.2-0.1,0.3-0.2,0.6-0.3c0.1,0,0.2,0,0.3,0c0.2-0.1,0.3-0.2,0.6-0.3c0.1,0,0.2,0,0.3,0
			c0.2-0.1,0.3-0.2,0.6-0.3c0.1,0,0.2,0,0.3,0c0.2-0.1,0.4-0.2,0.6-0.3c0.1,0,0.2,0,0.3,0c0.2-0.1,0.4-0.2,0.6-0.3
			c0.1,0,0.2,0,0.3,0c0.2-0.1,0.4-0.2,0.6-0.3c0.1,0,0.2,0,0.3,0c0.2-0.1,0.4-0.2,0.6-0.3c0.1,0,0.2,0,0.3,0
			c0.2-0.1,0.4-0.2,0.6-0.3c0.1,0,0.2,0,0.2,0c0.2-0.1,0.4-0.2,0.6-0.3c0.1,0,0.2,0,0.2,0c0.2-0.1,0.4-0.2,0.6-0.3
			c0.1,0,0.2,0,0.2,0c0.2-0.1,0.4-0.2,0.6-0.3c0.1,0,0.1,0,0.2,0c0.2-0.1,0.4-0.2,0.6-0.3c0.1,0,0.1,0,0.2,0
			c0.2-0.1,0.4-0.2,0.6-0.3c0.1,0,0.1,0,0.2,0c0.2-0.1,0.4-0.3,0.6-0.3c0.1,0,0.1,0,0.2,0c0.2-0.2,0.4-0.3,0.6-0.3c0,0,0.1,0,0.2,0
			c0.2-0.2,0.4-0.3,0.7-0.3c0.1,0,0.1,0,0.1,0c0.2-0.2,0.4-0.3,0.7-0.3c0,0,0.1,0,0.1,0c0.2-0.2,0.4-0.3,0.7-0.3c0,0,0.1,0,0.1,0
			c0.2-0.2,0.4-0.3,0.7-0.3c0,0,0.1,0,0.1,0c0.2-0.2,0.4-0.3,0.7-0.3c0,0,0.1,0,0.1,0c0.2-0.2,0.4-0.3,0.7-0.3c0,0,0.1,0,0.1,0
			c0.2-0.2,0.4-0.3,0.7-0.3h0.1c0.2-0.2,0.4-0.3,0.7-0.3h0c0.2-0.2,0.4-0.3,0.7-0.4h0c0.2-0.2,0.4-0.3,0.7-0.3c0,0,0,0,0,0
			c0.2-0.2,0.4-0.3,0.7-0.3c0.2-0.2,0.4-0.3,0.7-0.4c0.2-0.2,0.4-0.3,0.7-0.4c0.2-0.2,0.4-0.3,0.7-0.4c0.2-0.2,0.4-0.3,0.7-0.4
			c0.2-0.2,0.4-0.3,0.7-0.4c0.2-0.2,0.4-0.3,0.7-0.4c0.2-0.2,0.4-0.3,0.7-0.4c0.2-0.2,0.4-0.3,0.7-0.4c0.2-0.2,0.4-0.3,0.7-0.4
			c0.2-0.2,0.4-0.3,0.7-0.4c0.2-0.2,0.4-0.3,0.7-0.4c0.2-0.2,0.4-0.3,0.7-0.4c0.2-0.2,0.4-0.3,0.6-0.4c0.2-0.2,0.4-0.3,0.6-0.4
			c0.2-0.2,0.4-0.3,0.6-0.4c0.2-0.2,0.4-0.3,0.6-0.4c0.2-0.2,0.4-0.3,0.6-0.4c0.2-0.2,0.4-0.3,0.6-0.4c0.2-0.2,0.4-0.3,0.6-0.4
			c0.2-0.2,0.4-0.3,0.6-0.4c0.2-0.2,0.4-0.3,0.6-0.4c0.2-0.2,0.4-0.3,0.6-0.4c0.2-0.2,0.3-0.3,0.6-0.4c0.2-0.2,0.3-0.3,0.6-0.4
			c0.1-0.2,0.3-0.3,0.6-0.4c0.2-0.2,0.3-0.3,0.6-0.4c0.2-0.2,0.3-0.3,0.6-0.4c0.2-0.2,0.3-0.3,0.6-0.4c0.1-0.2,0.3-0.3,0.5-0.4
			c0.1-0.2,0.3-0.3,0.5-0.4c0.2-0.2,0.3-0.3,0.5-0.5c0.1-0.2,0.3-0.3,0.5-0.4c0.2-0.2,0.3-0.3,0.5-0.5c0.2-0.2,0.3-0.3,0.5-0.5
			c0.1-0.2,0.3-0.3,0.5-0.5c0.1-0.2,0.3-0.3,0.5-0.5c0.1-0.2,0.3-0.3,0.5-0.5c0.1-0.2,0.3-0.3,0.5-0.4c0.1-0.2,0.3-0.3,0.5-0.5
			c0.1-0.2,0.3-0.3,0.4-0.5c0.1-0.2,0.3-0.3,0.4-0.5c0.1-0.2,0.3-0.3,0.4-0.5c0.1-0.2,0.3-0.3,0.4-0.5c0.1-0.2,0.3-0.3,0.4-0.5
			c0.1-0.2,0.3-0.3,0.4-0.5c0.1-0.2,0.3-0.3,0.4-0.5c0.1-0.2,0.2-0.3,0.4-0.5c0.1-0.2,0.2-0.3,0.4-0.5c0.1-0.2,0.2-0.3,0.4-0.5
			c0.1-0.2,0.2-0.4,0.4-0.5c0.1-0.2,0.2-0.4,0.4-0.5c0.1-0.2,0.2-0.3,0.4-0.5c0.1-0.2,0.2-0.4,0.4-0.5c0.1-0.2,0.2-0.3,0.3-0.5
			c0.1-0.2,0.2-0.3,0.3-0.5c0.1-0.2,0.2-0.3,0.3-0.5c0.1-0.2,0.2-0.3,0.3-0.5c0.1-0.2,0.2-0.3,0.3-0.5c0.1-0.2,0.2-0.3,0.3-0.5
			c0.1-0.2,0.2-0.4,0.3-0.5c0.1-0.2,0.2-0.4,0.3-0.5c0.1-0.2,0.2-0.4,0.3-0.5c0.1-0.2,0.2-0.4,0.3-0.5c0.1-0.2,0.2-0.4,0.3-0.5
			c0.1-0.2,0.2-0.4,0.3-0.5c0.1-0.2,0.2-0.4,0.3-0.5c0.1-0.2,0.2-0.4,0.3-0.5c0.1-0.2,0.1-0.4,0.2-0.5c0.1-0.2,0.1-0.4,0.2-0.5
			c0.1-0.2,0.1-0.4,0.2-0.5c0.1-0.2,0.1-0.4,0.2-0.5c0-0.2,0.1-0.4,0.2-0.5c0-0.2,0.1-0.4,0.2-0.5c0-0.2,0.1-0.4,0.2-0.5
			c0-0.2,0.1-0.4,0.2-0.6c0-0.2,0.1-0.4,0.2-0.6c0-0.2,0.1-0.4,0.2-0.6c0-0.2,0.1-0.4,0.2-0.6c0-0.2,0.1-0.4,0.2-0.6
			c0-0.2,0.1-0.4,0.2-0.6c0-0.2,0.1-0.4,0.2-0.6c0-0.2,0.1-0.4,0.1-0.6c0-0.2,0.1-0.4,0.1-0.6c0-0.2,0.1-0.4,0.1-0.6
			c0-0.2,0.1-0.4,0.1-0.6c0-0.2,0.1-0.4,0.1-0.6c0-0.2,0.1-0.4,0.1-0.6c0-0.2,0.1-0.4,0.1-0.6c0-0.2,0-0.4,0.1-0.6
			c0-0.2,0-0.4,0.1-0.6c0-0.2,0-0.4,0.1-0.6c0-0.2,0-0.4,0.1-0.6c0-0.2,0-0.4,0.1-0.6c0-0.2,0-0.4,0-0.6c0-0.2,0-0.4,0.1-0.6
			c0-0.2,0-0.4,0-0.6c0-0.2,0-0.4,0-0.6c0-0.2,0-0.4,0-0.6c0-0.2,0-0.4,0-0.6c0-0.2,0-0.4,0-0.6c0-0.2,0-0.4,0-0.6
			c0-0.2,0-0.4,0-0.6c0-0.2,0-0.4,0-0.6c0-0.2,0-0.4,0-0.6c0-0.2,0-0.3,0-0.5c0-0.2,0-0.3,0-0.4c0-0.2,0-0.3,0-0.5
			c0-0.2,0-0.3,0-0.5c0-0.1,0-0.2,0-0.3v0c0-0.1,0-0.3,0-0.4c0,0,0,0,0,0c0-0.1,0-0.3,0-0.4c0,0,0,0,0,0c0-0.1,0-0.3,0-0.4
			c0,0,0,0,0-0.1c0-0.1,0-0.2,0-0.4c0,0,0-0.1,0-0.1c0-0.1,0-0.2,0-0.4c0,0,0-0.1,0-0.1c0-0.1,0-0.2,0-0.4c0,0,0-0.1,0-0.1
			c0-0.1,0-0.2,0-0.3c0,0,0-0.1,0-0.1c0-0.1,0-0.2,0-0.3c0-0.1,0-0.1,0-0.2c0-0.1,0-0.2,0-0.3c0-0.1-0.1-0.1-0.1-0.2
			c0-0.1,0-0.2,0-0.3c0-0.1-0.1-0.1-0.1-0.2c0-0.1,0-0.2,0-0.2c0-0.1-0.1-0.1-0.1-0.2c0-0.1,0-0.2,0-0.2c0-0.1-0.1-0.2-0.1-0.2
			c0-0.1,0-0.1,0-0.2c0-0.1-0.1-0.2-0.1-0.2c0-0.1,0-0.1,0-0.2c0-0.1-0.1-0.2-0.1-0.3c0-0.1,0-0.1,0-0.2c0-0.1-0.1-0.2-0.1-0.3
			c0,0,0-0.1,0-0.2c0-0.1-0.1-0.2-0.1-0.3c0-0.1,0-0.1,0-0.1c0-0.1-0.1-0.2-0.1-0.3c0,0,0-0.1,0-0.1c0-0.1-0.1-0.2-0.1-0.3
			c0,0,0-0.1,0-0.1c0-0.1-0.1-0.2-0.1-0.4c0,0,0-0.1,0-0.1c0-0.1-0.1-0.2-0.1-0.4c0,0,0,0,0-0.1c0-0.1-0.1-0.3-0.1-0.4v-0.1
			c0-0.1-0.1-0.3-0.1-0.4c0,0,0,0,0,0c-0.1-0.2-0.1-0.3-0.1-0.5v0c0-0.1-0.1-0.2-0.1-0.3c-0.1-0.2-0.1-0.3-0.1-0.5
			c-0.1-0.1-0.1-0.3-0.1-0.5c-0.1-0.2-0.1-0.3-0.1-0.5c-0.1-0.2-0.1-0.3-0.1-0.5c-0.1-0.1-0.1-0.3-0.2-0.5c-0.1-0.2-0.1-0.3-0.2-0.5
			c-0.1-0.2-0.1-0.3-0.2-0.5c-0.1-0.1-0.1-0.3-0.2-0.5c-0.1-0.1-0.1-0.3-0.2-0.5c-0.1-0.1-0.1-0.3-0.2-0.5c-0.1-0.2-0.1-0.3-0.2-0.5
			c-0.1-0.2-0.1-0.3-0.2-0.5c-0.1-0.1-0.1-0.3-0.2-0.5c-0.1-0.2-0.1-0.3-0.2-0.5c-0.1-0.1-0.1-0.3-0.2-0.5c-0.1-0.1-0.2-0.3-0.2-0.5
			c-0.1-0.2-0.2-0.3-0.2-0.5c-0.1-0.1-0.2-0.3-0.2-0.5c-0.1-0.2-0.2-0.3-0.2-0.5c-0.1-0.1-0.2-0.3-0.2-0.5c-0.1-0.2-0.2-0.3-0.2-0.5
			c-0.1-0.1-0.2-0.3-0.2-0.5c-0.1-0.2-0.2-0.3-0.2-0.5c-0.1-0.1-0.2-0.3-0.2-0.5c-0.1-0.2-0.2-0.3-0.2-0.5c-0.1-0.2-0.2-0.3-0.2-0.5
			c-0.1-0.2-0.2-0.3-0.2-0.5c-0.1-0.2-0.2-0.3-0.2-0.5c-0.1-0.1-0.2-0.3-0.2-0.5c-0.1-0.2-0.2-0.3-0.2-0.5c-0.1-0.1-0.1-0.2-0.2-0.3
			c-0.1-0.1-0.2-0.3-0.3-0.5c-0.1-0.1-0.2-0.3-0.2-0.5c-0.1-0.1-0.2-0.3-0.3-0.5c-0.1-0.1-0.2-0.3-0.3-0.5c-0.1-0.1-0.2-0.3-0.3-0.5
			c-0.1-0.2-0.2-0.3-0.3-0.5c-0.1-0.1-0.2-0.3-0.3-0.5c-0.1-0.1-0.2-0.3-0.3-0.5c-0.1-0.1-0.2-0.3-0.3-0.5c-0.1-0.1-0.2-0.3-0.3-0.5
			c-0.1-0.1-0.2-0.3-0.3-0.5c-0.1-0.1-0.2-0.3-0.3-0.5c-0.1-0.2-0.2-0.3-0.3-0.5c-0.1-0.1-0.2-0.3-0.3-0.5c-0.1-0.2-0.2-0.3-0.3-0.5
			c-0.1-0.1-0.2-0.3-0.3-0.5c-0.1-0.2-0.2-0.3-0.3-0.5c-0.1-0.1-0.2-0.3-0.3-0.5c-0.1-0.1-0.2-0.3-0.3-0.5c-0.1-0.2-0.2-0.3-0.3-0.5
			c-0.1-0.1-0.2-0.3-0.3-0.5c-0.1-0.2-0.2-0.3-0.3-0.5c-0.1-0.1-0.2-0.3-0.3-0.5c-0.1-0.2-0.2-0.3-0.3-0.5c-0.1-0.1-0.2-0.3-0.3-0.5
			c-0.1-0.2-0.2-0.3-0.3-0.5c-0.1-0.2-0.2-0.3-0.3-0.5c-0.1-0.1-0.2-0.3-0.4-0.5c-0.1-0.2-0.2-0.3-0.3-0.5c-0.1-0.1-0.2-0.3-0.4-0.5
			c-0.1-0.2-0.2-0.3-0.4-0.5c-0.1-0.1-0.2-0.3-0.4-0.5c-0.1-0.2-0.3-0.3-0.4-0.5c-0.1-0.2-0.3-0.3-0.4-0.5c-0.1-0.1-0.3-0.3-0.4-0.5
			c-0.1-0.2-0.3-0.3-0.4-0.5c-0.1-0.1-0.3-0.3-0.4-0.5c-0.1-0.2-0.3-0.3-0.4-0.5c-0.1-0.1-0.3-0.3-0.4-0.5c-0.1-0.1-0.2-0.2-0.3-0.3
			c-0.1-0.1-0.3-0.3-0.4-0.5c-0.1-0.2-0.3-0.3-0.4-0.5c-0.1-0.1-0.3-0.3-0.4-0.5c-0.1-0.1-0.3-0.3-0.4-0.5c-0.2-0.1-0.3-0.3-0.4-0.5
			c-0.2-0.1-0.3-0.3-0.4-0.5c-0.2-0.1-0.3-0.3-0.4-0.5c-0.2-0.2-0.3-0.3-0.4-0.5c-0.1-0.1-0.3-0.3-0.4-0.5c-0.2-0.1-0.3-0.3-0.4-0.5
			c-0.2-0.1-0.3-0.3-0.4-0.5c-0.2-0.1-0.3-0.3-0.4-0.5c-0.2-0.2-0.3-0.3-0.4-0.5c-0.2-0.1-0.3-0.3-0.4-0.5c-0.2-0.2-0.3-0.3-0.4-0.5
			c-0.2-0.1-0.3-0.3-0.4-0.5c-0.2-0.1-0.3-0.3-0.5-0.5c-0.2-0.1-0.3-0.3-0.4-0.5c-0.2-0.1-0.3-0.3-0.5-0.5c-0.2-0.2-0.3-0.3-0.4-0.5
			c-0.2-0.1-0.3-0.3-0.5-0.5c-0.2-0.1-0.3-0.3-0.5-0.5c-0.2-0.1-0.3-0.3-0.5-0.5c-0.2-0.2-0.3-0.3-0.5-0.5c-0.2-0.1-0.3-0.3-0.5-0.5
			c-0.2-0.2-0.3-0.3-0.5-0.5c-0.2-0.2-0.3-0.3-0.5-0.5c-0.2-0.1-0.3-0.3-0.5-0.5c-0.2-0.1-0.3-0.3-0.5-0.5c-0.2-0.1-0.3-0.3-0.5-0.5
			c-0.2-0.2-0.3-0.3-0.5-0.5c-0.2-0.1-0.3-0.3-0.5-0.5c-0.2-0.1-0.3-0.3-0.5-0.5c-0.2-0.1-0.4-0.3-0.5-0.5c-0.2-0.2-0.4-0.3-0.5-0.5
			c-0.2-0.2-0.4-0.3-0.5-0.5c-0.2-0.2-0.3-0.3-0.5-0.5c-0.2-0.2-0.3-0.3-0.5-0.5c-0.2-0.1-0.3-0.3-0.5-0.5c-0.2-0.1-0.4-0.3-0.5-0.5
			c-0.2-0.1-0.4-0.3-0.5-0.5c-0.2-0.1-0.4-0.3-0.5-0.5c-0.2-0.1-0.4-0.3-0.5-0.5c-0.2-0.1-0.4-0.3-0.5-0.5c-0.2-0.1-0.4-0.3-0.5-0.5
			c-0.2-0.1-0.4-0.3-0.5-0.5c-0.2-0.1-0.4-0.3-0.5-0.5c-0.2-0.2-0.4-0.3-0.6-0.5c-0.2-0.1-0.4-0.3-0.5-0.5c-0.2-0.2-0.4-0.3-0.5-0.5
			c-0.2-0.1-0.4-0.3-0.6-0.5c-0.2-0.1-0.4-0.3-0.5-0.5c-0.2-0.1-0.4-0.3-0.6-0.5c-0.2-0.2-0.4-0.3-0.6-0.5c-0.2-0.1-0.4-0.3-0.6-0.5
			c-0.2-0.1-0.4-0.3-0.6-0.5c-0.2-0.1-0.3-0.2-0.4-0.4c-0.2-0.1-0.4-0.3-0.6-0.5c-0.2-0.1-0.4-0.3-0.6-0.5c-0.2-0.1-0.4-0.3-0.6-0.5
			c-0.2-0.1-0.4-0.3-0.6-0.5c-0.2-0.1-0.4-0.3-0.6-0.5c-0.2-0.1-0.4-0.3-0.6-0.5c-0.2-0.1-0.4-0.3-0.6-0.5c-0.2-0.1-0.4-0.3-0.6-0.5
			c-0.2-0.1-0.4-0.3-0.6-0.5c-0.2-0.1-0.4-0.3-0.6-0.5c-0.2-0.1-0.4-0.3-0.6-0.5c-0.2-0.1-0.4-0.3-0.6-0.5c-0.2-0.1-0.4-0.3-0.6-0.5
			c-0.2-0.1-0.4-0.3-0.6-0.5c-0.2-0.1-0.4-0.3-0.6-0.5c-0.2-0.1-0.4-0.3-0.6-0.5c-0.2-0.1-0.4-0.3-0.6-0.5c-0.2-0.1-0.4-0.3-0.6-0.5
			c-0.2-0.1-0.4-0.3-0.6-0.5c-0.2-0.1-0.4-0.3-0.6-0.5c-0.2-0.1-0.4-0.3-0.6-0.5c-0.2-0.1-0.4-0.3-0.6-0.5c-0.2-0.1-0.4-0.3-0.6-0.5
			c-0.2-0.1-0.4-0.3-0.6-0.5c-0.2-0.1-0.4-0.3-0.6-0.5c-0.2-0.1-0.4-0.3-0.6-0.5c-0.2-0.1-0.4-0.3-0.6-0.5c-0.2-0.1-0.4-0.3-0.7-0.5
			c-0.2-0.1-0.4-0.3-0.6-0.5c-0.2-0.1-0.5-0.3-0.7-0.4c-0.2-0.1-0.4-0.3-0.7-0.5c-0.2-0.1-0.4-0.3-0.6-0.5c-0.2-0.1-0.4-0.3-0.7-0.5
			c-0.2-0.1-0.4-0.3-0.7-0.5c-0.2-0.1-0.5-0.3-0.7-0.5c-0.2-0.1-0.4-0.3-0.7-0.5c-0.2-0.1-0.4-0.2-0.6-0.4c-0.3-0.1-0.5-0.3-0.8-0.5
			c-0.2-0.1-0.5-0.3-0.7-0.5c-0.2-0.1-0.5-0.3-0.7-0.4c-0.2-0.1-0.5-0.3-0.7-0.5c-0.2-0.1-0.5-0.3-0.7-0.4c-0.2-0.1-0.5-0.3-0.7-0.5
			c-0.2-0.1-0.5-0.3-0.7-0.5c-0.2-0.1-0.3-0.2-0.5-0.3l0-12.9c0,0,0.1,0,0.1,0.1c0.2,0.1,0.5,0.3,0.7,0.5c0.2,0.1,0.5,0.3,0.7,0.5
			c0.2,0.1,0.5,0.3,0.7,0.5c0.2,0.1,0.5,0.3,0.7,0.5c0.2,0.1,0.5,0.3,0.7,0.5c0.2,0.1,0.5,0.3,0.7,0.5c0.2,0.2,0.5,0.3,0.7,0.5
			c0.2,0.1,0.5,0.3,0.7,0.5c0.2,0.1,0.5,0.3,0.7,0.5c0.2,0.1,0.5,0.3,0.7,0.5c0.2,0.1,0.5,0.3,0.7,0.5c0.2,0.1,0.5,0.3,0.7,0.5
			c0.2,0.1,0.5,0.3,0.7,0.5c0.2,0.2,0.5,0.3,0.7,0.5c0.2,0.1,0.5,0.3,0.7,0.5c0.2,0.1,0.5,0.3,0.7,0.5c0.2,0.1,0.4,0.3,0.6,0.4
			c0.2,0.2,0.4,0.3,0.7,0.5c0.2,0.1,0.5,0.3,0.7,0.5c0.2,0.2,0.4,0.3,0.7,0.5c0.2,0.1,0.5,0.3,0.7,0.5c0.2,0.2,0.4,0.3,0.7,0.5
			c0.2,0.1,0.4,0.3,0.7,0.5c0.2,0.1,0.4,0.3,0.7,0.5c0.2,0.2,0.4,0.3,0.7,0.5c0.2,0.2,0.4,0.3,0.6,0.5c0.2,0.1,0.4,0.3,0.7,0.5
			c0.2,0.1,0.4,0.3,0.6,0.5c0.2,0.1,0.4,0.3,0.6,0.5c0.2,0.1,0.4,0.3,0.6,0.5c0.2,0.1,0.4,0.3,0.6,0.5c0.2,0.1,0.4,0.3,0.6,0.5
			c0.2,0.1,0.4,0.3,0.6,0.5c0.2,0.1,0.4,0.3,0.6,0.5c0.2,0.1,0.4,0.3,0.6,0.5c0.2,0.1,0.4,0.3,0.6,0.5c0.2,0.1,0.4,0.3,0.6,0.5
			c0.2,0.1,0.4,0.3,0.6,0.5c0.2,0.2,0.4,0.3,0.6,0.5c0.2,0.1,0.4,0.3,0.6,0.5c0.2,0.1,0.4,0.3,0.6,0.5c0.3,0.2,0.5,0.4,0.7,0.6
			c0.2,0.2,0.4,0.3,0.6,0.5c0.2,0.1,0.4,0.3,0.6,0.5c0.2,0.1,0.4,0.3,0.6,0.5c0.2,0.2,0.4,0.3,0.6,0.5c0.2,0.2,0.4,0.3,0.6,0.5
			c0.2,0.1,0.4,0.3,0.6,0.5c0.2,0.1,0.4,0.3,0.6,0.5c0.2,0.1,0.4,0.3,0.6,0.5c0.2,0.2,0.4,0.3,0.6,0.5c0.2,0.2,0.4,0.3,0.6,0.5
			c0.2,0.2,0.4,0.3,0.6,0.5c0.2,0.2,0.4,0.3,0.6,0.5c0.2,0.2,0.4,0.3,0.6,0.5c0.2,0.2,0.4,0.3,0.6,0.5c0.2,0.2,0.4,0.3,0.6,0.5
			c0.2,0.2,0.4,0.3,0.5,0.5c0.2,0.1,0.4,0.3,0.5,0.5c0.2,0.1,0.4,0.3,0.6,0.5c0.2,0.1,0.4,0.3,0.5,0.5c0.2,0.1,0.4,0.3,0.6,0.5
			c0.2,0.2,0.4,0.3,0.5,0.5c0.2,0.1,0.4,0.3,0.5,0.5c0.2,0.1,0.4,0.3,0.5,0.5c0.2,0.2,0.4,0.3,0.5,0.5c0.2,0.2,0.4,0.3,0.5,0.5
			c0.2,0.1,0.4,0.3,0.5,0.5c0.2,0.2,0.4,0.3,0.5,0.5c0.2,0.2,0.4,0.3,0.5,0.5c0.2,0.2,0.4,0.3,0.5,0.5c0.2,0.2,0.3,0.3,0.5,0.5
			c0.2,0.2,0.4,0.3,0.5,0.5c0.2,0.2,0.3,0.3,0.5,0.5c0.2,0.2,0.3,0.3,0.5,0.5c0.2,0.2,0.3,0.3,0.5,0.5c0.2,0.2,0.3,0.3,0.5,0.5
			c0.2,0.2,0.3,0.3,0.5,0.5c0.2,0.2,0.3,0.3,0.5,0.5c0.2,0.1,0.3,0.3,0.5,0.5c0.2,0.2,0.3,0.3,0.5,0.5c0.2,0.2,0.3,0.3,0.5,0.5
			c0.2,0.2,0.3,0.3,0.5,0.5c0.2,0.2,0.3,0.3,0.5,0.5c0.2,0.2,0.3,0.3,0.5,0.5c0.2,0.2,0.3,0.3,0.5,0.5c0.2,0.2,0.3,0.3,0.5,0.5
			c0.2,0.2,0.3,0.3,0.5,0.5c0.2,0.1,0.3,0.3,0.5,0.5c0.2,0.1,0.3,0.3,0.5,0.5c0.2,0.2,0.3,0.3,0.4,0.5c0.2,0.2,0.3,0.3,0.5,0.5
			c0.2,0.2,0.3,0.3,0.4,0.5c0.2,0.2,0.3,0.3,0.5,0.5c0.2,0.2,0.3,0.3,0.4,0.5c0.2,0.2,0.3,0.3,0.4,0.5c0.2,0.2,0.3,0.3,0.4,0.5
			c0.2,0.1,0.3,0.3,0.4,0.5c0.2,0.2,0.3,0.3,0.4,0.5c0.2,0.2,0.3,0.3,0.4,0.5c0.2,0.2,0.4,0.4,0.5,0.7c0.2,0.2,0.3,0.3,0.4,0.5
			c0.1,0.2,0.3,0.3,0.4,0.5c0.2,0.2,0.3,0.3,0.4,0.5c0.2,0.2,0.3,0.3,0.4,0.5c0.1,0.2,0.3,0.3,0.4,0.5c0.1,0.2,0.3,0.3,0.4,0.5
			c0.1,0.2,0.3,0.3,0.4,0.5c0.1,0.2,0.3,0.3,0.4,0.5c0.1,0.2,0.3,0.3,0.4,0.5c0.1,0.2,0.3,0.3,0.4,0.5c0.1,0.2,0.3,0.3,0.4,0.5
			c0.1,0.2,0.3,0.3,0.4,0.5c0.1,0.2,0.3,0.3,0.4,0.5c0.1,0.2,0.3,0.3,0.4,0.5c0.1,0.2,0.3,0.3,0.4,0.5c0.1,0.2,0.3,0.3,0.4,0.5
			c0.1,0.2,0.3,0.3,0.4,0.5c0.1,0.2,0.3,0.3,0.4,0.5c0.1,0.2,0.3,0.3,0.4,0.5c0.1,0.2,0.2,0.3,0.3,0.5c0.1,0.2,0.2,0.3,0.3,0.5
			c0.1,0.2,0.2,0.3,0.3,0.5c0.1,0.2,0.2,0.3,0.3,0.5c0.1,0.2,0.2,0.3,0.3,0.5c0.1,0.2,0.2,0.3,0.3,0.5c0.1,0.2,0.2,0.3,0.3,0.5
			c0.1,0.2,0.2,0.3,0.3,0.5c0.1,0.2,0.2,0.3,0.3,0.5c0.1,0.2,0.2,0.3,0.3,0.5c0.1,0.2,0.2,0.3,0.3,0.5c0.1,0.2,0.2,0.3,0.3,0.5
			c0.1,0.2,0.2,0.3,0.3,0.5c0.1,0.2,0.2,0.3,0.3,0.5c0.1,0.2,0.2,0.3,0.3,0.5c0.1,0.2,0.2,0.3,0.3,0.5c0.1,0.2,0.2,0.3,0.3,0.5
			c0.1,0.2,0.2,0.3,0.3,0.5c0.1,0.2,0.2,0.3,0.3,0.5c0.1,0.2,0.2,0.3,0.3,0.5c0.1,0.2,0.2,0.3,0.3,0.5c0.1,0.2,0.2,0.3,0.3,0.5
			c0.1,0.2,0.3,0.4,0.3,0.7c0.1,0.2,0.2,0.3,0.3,0.5c0.1,0.2,0.2,0.3,0.3,0.5c0.1,0.2,0.2,0.3,0.3,0.5c0.1,0.2,0.2,0.3,0.3,0.5
			c0.1,0.2,0.2,0.3,0.2,0.5c0.1,0.2,0.2,0.3,0.2,0.5c0.1,0.2,0.2,0.3,0.2,0.5c0.1,0.2,0.2,0.3,0.2,0.5c0.1,0.2,0.2,0.3,0.2,0.5
			c0.1,0.2,0.2,0.3,0.2,0.5c0.1,0.2,0.2,0.3,0.2,0.5c0.1,0.2,0.2,0.3,0.2,0.5c0.1,0.2,0.2,0.3,0.2,0.5c0.1,0.2,0.2,0.3,0.2,0.5
			c0.1,0.2,0.2,0.3,0.2,0.5c0.1,0.2,0.2,0.3,0.2,0.5c0.1,0.2,0.2,0.3,0.2,0.5c0.1,0.2,0.2,0.3,0.2,0.5c0.1,0.2,0.2,0.3,0.2,0.5
			c0.1,0.2,0.2,0.3,0.2,0.5c0.1,0.2,0.2,0.3,0.2,0.5c0.1,0.2,0.1,0.3,0.2,0.5c0.1,0.2,0.1,0.3,0.2,0.5c0.1,0.2,0.1,0.3,0.2,0.5
			c0.1,0.2,0.1,0.3,0.2,0.5c0.1,0.2,0.1,0.3,0.2,0.5c0.1,0.2,0.1,0.3,0.2,0.5c0.1,0.2,0.1,0.3,0.2,0.5c0.1,0.2,0.1,0.3,0.2,0.5
			c0.1,0.2,0.1,0.3,0.2,0.5c0.1,0.2,0.1,0.3,0.2,0.5c0.1,0.2,0.1,0.4,0.2,0.7v0c0.1,0.2,0.1,0.3,0.1,0.5v0c0.1,0.2,0.1,0.3,0.1,0.5
			c0,0,0,0,0,0c0.1,0.1,0.1,0.3,0.1,0.4v0.1c0.1,0.1,0.1,0.3,0.1,0.4c0,0,0,0,0,0.1c0,0.1,0.1,0.3,0.1,0.4c0,0,0,0.1,0,0.1
			c0,0.1,0.1,0.2,0.1,0.4c0,0,0,0.1,0,0.1c0,0.1,0.1,0.2,0.1,0.4c0,0,0,0.1,0,0.1c0,0.1,0.1,0.2,0.1,0.4c0,0,0,0.1,0,0.1
			c0,0.1,0.1,0.2,0.1,0.3c0,0.1,0,0.1,0,0.2c0,0.1,0.1,0.2,0.1,0.3c0,0.1,0,0.1,0,0.2c0,0.1,0.1,0.2,0.1,0.3c0,0.1,0,0.1,0,0.2
			c0,0.1,0.1,0.2,0.1,0.3c0,0.1,0,0.2,0,0.2c0,0.1,0.1,0.2,0.1,0.2c0,0.1,0,0.2,0,0.2c0,0.1,0.1,0.2,0.1,0.2c0,0.1,0,0.2,0,0.3
			c0,0.1,0,0.1,0.1,0.2c0,0.1,0,0.2,0,0.3c0,0.1,0,0.1,0.1,0.2c0,0.1,0,0.2,0,0.3c0,0.1,0,0.1,0.1,0.2c0,0.1,0,0.2,0,0.3
			c0,0,0,0.1,0.1,0.2c0,0.1,0,0.2,0,0.3c0,0,0,0.1,0,0.1c0,0.1,0,0.2,0,0.4c0,0,0,0.1,0,0.1c0,0.1,0,0.2,0,0.4c0,0,0,0.1,0,0.1
			c0,0.1,0,0.3,0,0.4c0,0,0,0.1,0,0.1c0,0.1,0,0.3,0,0.4c0,0,0,0,0,0.1c0,0.1,0,0.3,0,0.4c0,0,0,0,0,0c0,0.2,0,0.3,0,0.4
			c0,0,0,0,0,0c0,0.2,0,0.3,0,0.5c0,0.2,0.1,0.4,0.1,0.6c0,0.2,0,0.3,0,0.5c0,0.2,0,0.3,0,0.5c0,0.2,0,0.3,0,0.5c0,0.2,0,0.3,0,0.5
			c0,0.2,0,0.3,0,0.5c0,0.2,0,0.3,0,0.5c0,0.2,0,0.3,0,0.5c0,0.2,0,0.3,0,0.5c0,0.2,0,0.3,0,0.5c0,0.2,0,0.3,0,0.5
			c0,0.2,0,0.4,0,0.6C621.2,304.1,621.2,304.3,621.2,304.6"/>
	</g>
</g>
</svg>
