<?xml version="1.0" encoding="utf-8"?>
<!-- Generator: Adobe Illustrator 24.1.3, SVG Export Plug-In . SVG Version: 6.00 Build 0)  -->
<svg version="1.1" id="Layer_1" xmlns="http://www.w3.org/2000/svg" xmlns:xlink="http://www.w3.org/1999/xlink" x="0px" y="0px"
	 viewBox="0 0 2160 2033" style="enable-background:new 0 0 2160 2033;" xml:space="preserve">
<style type="text/css">
	.st0{fill:#3E4264;}
	.st1{fill:#4B5078;}
	.st2{fill:#333149;}
	.st3{fill:#45496F;}
</style>
<path class="st0" d="M396.5,354.2c0.1,2.3-2.3,3.2-4.4,4c-1.9,0.7-3.8,1.3-5.8,1.7c-24.8,5.8-50,7-75.5,4.9
	c-3.5-0.3-8.8-0.3-9.3-4.1c-0.4-3.5,4.6-3.8,7.7-4.7c18.7-5.6,38.3-6.2,57.9-7c3.2,0,6.4,0.1,9.7,0c5.1-0.2,9.9,1.3,14.7,1.8
	C393.9,351,396.4,351.8,396.5,354.2z"/>
<path class="st0" d="M1238.5,291.8c-9.5,3.6-19.7,5.2-29.8,4.6c-4.6,2.3-9.7,1-14.6,1.4c-9.8,0.4-19.7-0.5-29.3-2.5
	c-2.9-0.6-6-1.5-6.6-4.2c-0.6-3.1,3.1-3.8,5.6-4.7c9.5-3.6,19.6-5.2,29.7-4.6c9.7-0.5,34.6-0.8,44.1,1.1c2.9,0.6,6.1,1.5,6.6,4.2
	C1244.8,290.1,1241.1,290.8,1238.5,291.8z"/>
<path class="st0" d="M519.7,173.3c-4.3-2.4-9.3-2.9-14.2-3.6c-13.9-1.8-28.1-0.5-41.4,3.9c-2.6,0.8-4.9,2.1-5.2,4.5
	c-0.4,2.9,2.2,4.3,4.9,5.5c1.6,0.7,3.2,1.1,5,1.4c6.1,1,12.1,2.2,18.1,1.5c8.6,0.6,16.6-0.8,24.5-2.6c3.3-0.6,6.5-2,9.1-4.2
	C523.6,176.9,523.4,175.4,519.7,173.3z M807.6,129.8c-3.1-1.5-6.4-2.6-9.7-3.2c-9.6-2-19.3-1.2-26.7-1.4c-8.1,0-13.9-0.2-19.8,0
	c-8.4,0.3-16.8,1.8-24.8,4.4c-1.9,0.6-3.8,1.6-4.4,3.3c0.6,1.8,2.7,2.7,4.8,3.3c1.6,0.4,3.3,0.9,4.9,1.2l-5.7,0.6l0.7,0.2
	c1.6,0.4,3.3,0.9,4.9,1.3c4.3,1,8.7,1.6,13.1,1.9c11.1,0.5,22,1.2,33.2,0.1c7.8-0.8,15.5-1.6,23-3.6c0.6-0.2,1.2-0.3,1.9-0.5
	c0.9-0.2,1.8-0.5,2.7-0.8l-4.5-0.7c0.6-0.2,1.2-0.3,1.9-0.5c1.7-0.4,3.2-1,4.7-1.8c0.8-0.4,1.5-1.1,2-1.8
	C809.2,130.8,808.5,130.2,807.6,129.8L807.6,129.8z M519.7,173.3c-4.3-2.4-9.3-2.9-14.2-3.6c-13.9-1.8-28.1-0.5-41.4,3.9
	c-2.6,0.8-4.9,2.1-5.2,4.5c-0.4,2.9,2.2,4.3,4.9,5.5c1.6,0.7,3.2,1.1,5,1.4c6.1,1,12.1,2.2,18.1,1.5c8.6,0.6,16.6-0.8,24.5-2.6
	c3.3-0.6,6.5-2,9.1-4.2C523.6,176.9,523.4,175.4,519.7,173.3z M519.7,173.3c-4.3-2.4-9.3-2.9-14.2-3.6c-13.9-1.8-28.1-0.5-41.4,3.9
	c-2.6,0.8-4.9,2.1-5.2,4.5c-0.4,2.9,2.2,4.3,4.9,5.5c1.6,0.7,3.2,1.1,5,1.4c6.1,1,12.1,2.2,18.1,1.5c8.6,0.6,16.6-0.8,24.5-2.6
	c3.3-0.6,6.5-2,9.1-4.2C523.6,176.9,523.4,175.4,519.7,173.3z M809.8,131.6c0.7-1.3,0-2.7-2.2-3.9c-3.1-1.5-6.3-2.6-9.7-3.2
	c-9.6-2-19.3-1.2-26.7-1.4c-8.1,0-13.9-0.2-19.7,0.1c-8.4,0.3-16.8,1.8-24.8,4.4c-2.2,0.7-4.4,1.9-4.5,4.1c0,0.4,0.1,0.8,0.2,1.2
	c-0.1,0.3-0.1,0.6-0.2,0.8c-0.1,2.3,1.9,3.5,4.2,4.2l0.7,0.2c1.6,0.4,3.3,0.9,4.9,1.3c4.3,1,8.7,1.6,13.1,1.9
	c11.1,0.5,22,1.2,33.2,0.1c7.8-0.8,15.5-1.6,23-3.6c0.6-0.2,1.2-0.3,1.9-0.5c0.9-0.2,1.8-0.5,2.7-0.8c0.7-0.3,1.4-0.6,2.1-1
	C809.8,134.3,810.5,132.9,809.8,131.6L809.8,131.6z M1294.2-1.1h-0.5l1.7-0.1L1294.2-1.1z M1668.2,126.9c-9.5-3.6-19.6-5.2-29.7-4.5
	c-9.7-0.5-34.7-0.8-44.1,1.1c-2.9,0.6-6.1,1.5-6.6,4.2c-0.6,3.1,3.1,3.8,5.6,4.7c9.5,3.6,19.7,5.2,29.8,4.6
	c4.6,2.3,9.7,1.1,14.6,1.4c9.8,0.3,19.7-0.5,29.3-2.6c2.9-0.6,6-1.5,6.5-4.2C1674.4,128.5,1670.7,127.8,1668.2,126.9L1668.2,126.9z
	 M229.4,218.3c-1.3-1-2.6-1.9-4.1-2.6c-5.4-2.6-11.2-4.5-17.1-5.7c-14.1-3.1-28.4-3.3-43.2-2.8c-3.1-0.1-6.3-0.2-9.5-0.2
	c-2.3,0-4.6,0-6.9,0.1c-1,0-1.9,0-2.9,0.1l0,0c-11.1,14.1-21.7,28.6-31.7,43.5c11.5,0.5,22.9,0.5,34.3,0c15.6-0.6,31.2-2.7,46.4-6.2
	c11-2.6,21.9-5.5,31.3-11.3C233.5,228.5,234.6,222.8,229.4,218.3L229.4,218.3z M918.2,42.1c10,0.3,20,0.2,30-0.4
	C938.2,42.3,928.2,42.3,918.2,42.1z M1028.9,30.7c-3.3,0.6-6.7,1.3-10,1.9L1028.9,30.7l29.6-5.5C1048.6,27,1038.7,28.8,1028.9,30.7
	L1028.9,30.7z M1279.5-0.1l-1.8,0.2c1.2-0.1,2.4-0.2,3.6-0.3C1280.6-0.2,1280.1-0.1,1279.5-0.1L1279.5-0.1z M1286.4-0.6L1286.4-0.6
	l-0.8,0.1c0.5,0,1.1-0.1,1.6-0.1L1286.4-0.6z M1016.2,369.8c-0.2,0-0.4-0.1-0.6-0.1l0.7,0.1l0.4,0.1c0.1,0,0.2,0,0.3,0h0.1
	c0.1,0,0.2,0,0.3,0C1017,369.9,1016.6,369.8,1016.2,369.8z M1033,372.8c0.3,0,0.6,0.1,0.9,0.2c0.2,0,0.5,0.1,0.7,0.1
	C1034.1,373,1033.6,373,1033,372.8L1033,372.8z M2159.8,614.7c-0.1-3.9-0.2-7.8-0.3-11.6l0,0c-0.6-20.2-2.2-40.1-4.6-59.8l0,0
	c-0.1-0.6-0.2-1.2-0.2-1.9c-0.6-4.6-1.2-9.3-1.9-13.8c-0.7-4.6-1.4-9.2-2.2-13.7c-0.6-3.4-1.2-6.8-1.8-10.2c-0.6-3.4-1.3-6.8-2-10.2
	c-0.9-4.5-1.9-9-2.8-13.5c-2-9-4.2-17.9-6.5-26.7c-0.7-2.7-1.4-5.3-2.2-8c-0.4-1.5-0.8-2.9-1.2-4.4c-0.7-2.4-1.4-4.9-2.1-7.3
	c-0.9,0.3-1.9,0.6-2.8,0.9c-0.9,0.3-1.9,0.6-2.8,0.9c-0.1,0-0.3,0.1-0.4,0.1c-0.1,0-0.3,0.1-0.4,0.1c-0.5,0.2-1,0.3-1.5,0.5
	l-0.3,0.1c-0.1,0-0.2,0.1-0.3,0.1c-0.4,0.1-0.7,0.2-1.1,0.3l-1.4,0.4c-0.1,0-0.1,0-0.2,0l0,0c0,0,0,0-0.1,0l0,0l0,0c0,0,0,0-0.1,0
	l-0.5,0.2h-0.1c-1,0.3-2.1,0.6-3.1,0.9l-1.8,0.5c-0.8,0.2-1.6,0.5-2.4,0.7s-1.8,0.5-2.7,0.8l-0.7,0.2h-0.2h-0.1
	c-0.1,0.1-0.2,0.1-0.4,0.1l-2.7,0.7l-2.8,0.7c-0.5,0.1-1,0.2-1.6,0.4c-0.2,0-0.4,0.1-0.5,0.1c-2,0.5-4.1,1-6.1,1.5
	c-1.1,0.3-2.2,0.5-3.2,0.8c-0.3,0.1-0.6,0.1-0.9,0.2h-0.1c-0.2,0.1-0.4,0.1-0.6,0.1c-0.1,0-0.1,0-0.2,0l-0.4,0.1l-0.4,0.1
	c-1.8,0.4-3.7,0.8-5.5,1.2l-3.1,0.6c-0.5,0.1-0.9,0.2-1.4,0.3c-1.1,0.2-2.2,0.4-3.2,0.6c-1.3,0.3-2.5,0.5-3.8,0.7
	c-2.7,0.5-5.4,1-8.1,1.5l-6.1,1l-0.7,0.1c-0.1,0-0.2,0-0.3,0.1c-1.2,0.2-2.4,0.4-3.7,0.6c-3.8,0.6-7.7,1.2-11.5,1.7
	c-2,0.3-4.1,0.6-6.1,0.8c-2,0.3-4.1,0.5-6.1,0.8l-6.1,0.7c-5.4,0.6-10.9,1.2-16.4,1.7c-2.2,0.2-4.4,0.4-6.6,0.6
	c-0.5,0-0.9,0.1-1.3,0.1c-1.8,0.2-3.7,0.3-5.5,0.5l-2.2,0.2c-2,0.2-3.9,0.4-5.9,0.6c-2.4,0.2-4.8,0.4-7.2,0.6
	c-3.6,0.3-7.2,0.6-10.8,0.8c-1.2,0.1-2.4,0.1-3.6,0.2c-1.2,0.1-2.6,0.1-3.8,0.2c-1.3,0-2.6,0.1-3.8,0.1h-0.9h-0.2
	c-0.1,0-0.2,0-0.4,0h-0.3h-1.4h-0.2c-0.2,0-0.3,0-0.5,0c-1.4,0-2.8,0-4.2,0c-5.1,0-10.3,0-15.4,0c-16.6,0-33.1,0.1-49.7-1.2
	l-7.9-0.6c-0.4,0-0.9,0-1.3-0.1c-1-0.1-2.1-0.2-3.1-0.3h-0.3c-0.7,0-1.3-0.1-2-0.2c-3-0.2-6.1-0.5-9.1-0.8c-5.2-0.5-10.5-1-15.7-1.7
	c-5.2-0.6-10.4-1.3-15.6-2c-1.3-0.2-2.6-0.3-3.9-0.5l-3.9-0.5c-2.8-0.4-5.6-0.9-8.4-1.3c-2.8-0.4-5.6-0.9-8.4-1.4
	c-2.8-0.5-5.6-0.9-8.4-1.4l0,0c-5.5-1-11.1-2-16.6-3.1c-3.8-0.7-7.6-1.5-11.4-2.3c-3.8-0.8-7.4-1.5-11.1-2.3
	c-0.8-0.2-1.5-0.3-2.3-0.5l-9.3-2.1l-11.3-2.6c-3.8-0.9-7.5-1.8-11.3-2.7s-7.5-1.9-11.2-2.8l-11.2-2.9c-3.7-1-7.4-1.9-11.2-2.9
	c-4.2-1.1-8.3-2.3-12.5-3.5c-4.2-1.2-8.3-2.4-12.5-3.5c-8.3-2.3-16.7-4.6-25.2-6.4c-3.6,0-22.3-7.1-25.6-8c-7.6-2-15.2-4.1-22.7-6.2
	c-7-0.3-13.9-0.6-20.9-0.6c-24.9-0.2-49.7-1.4-74.6-0.5c-27,0.9-54,0-80.9,1.5c-12.6,0.7-25.1,1.6-37.7,2.1
	c-8.1,0.4-16.4,0.2-24.5,1.4c-12.5,1.8-25.2,2.1-37.6,2.2c-32,0.2-63.9,1.5-95.9-0.9c-13.1-1-26.3-1.9-39.3-3.6
	c-29.3-3.7-58.3-8.8-87-14.9c-17.2-3.7-34.4-7.3-51.7-10.6h-0.1l-2.3-0.5c0.1,0.1,0.3,0.1,0.4,0.1l1.9,0.4l-11,2.1l-10,1.9
	c-6.2,1.2-12.4,2.2-18.6,3.2c-1.5,0.3-3,0.5-4.5,0.7c-2.5,0.4-5,0.8-7.6,1.2l-1.7,0.2c-0.9,0.1-1.8,0.3-2.7,0.4l-2.9,0.4
	c-0.7,0.1-1.5,0.2-2.2,0.3c-1.7,0.2-3.4,0.4-5,0.6l0,0c-2.6,0.3-5.2,0.6-7.8,0.8l-0.9,0.1c-0.2,0-0.3,0-0.5,0c-0.1,0-0.3,0-0.4,0
	c-0.1,0-0.3,0-0.4,0c-0.3,0-0.6,0.1-0.9,0.1L959,386c-0.3,0-0.5,0-0.8,0c-3.2,0.3-6.3,0.5-9.5,0.6c-0.1,0-0.2,0-0.3,0
	c-29,1.6-58.1,0.1-86.8-4.4c-3.9-0.6-7.8-1.2-11.6-1.9s-7.8-1.3-11.6-2s-7.7-1.4-11.6-2.1l-17.4-3.2c-3-0.5-6-1.1-8.9-1.6
	c-0.3,0-0.7-0.1-1-0.2h-0.2l-0.6-0.1c-1.4-0.2-2.7-0.5-4.1-0.7l-4.7-0.8c-2.2-0.4-4.3-0.7-6.5-1.1c-0.7-0.1-1.5-0.2-2.2-0.3
	l-0.5-0.1l-1.5-0.2c-1-0.2-1.9-0.3-2.9-0.4l-2.6-0.4c-1.7-0.3-3.3-0.5-5-0.7c-3.3-0.5-6.7-0.9-10.1-1.4c-0.3,0-0.6-0.1-0.9-0.1
	c-0.1,0-0.2,0-0.3,0h-0.1l-3.1-0.4c-1.9-0.2-3.8-0.5-5.8-0.7l0,0l-3.8-0.4l-2.7-0.3h-0.5l-0.6-0.1h-0.1h-0.5
	c-2.7-0.3-5.5-0.5-8.2-0.8c-0.5-0.1-1-0.1-1.6-0.2h-0.1c-0.5-0.1-0.9-0.1-1.4-0.1c-0.2,0-0.4,0-0.6,0h-0.6c-0.2,0-0.3,0-0.5,0h-0.1
	H727c-0.1,0-0.2,0-0.3,0c-0.1,0-0.2,0-0.2,0h-0.3c-0.4,0-0.8-0.1-1.2-0.1h-0.3l-1.2-0.1c-0.5,0-1-0.1-1.4-0.1
	c-2.4-0.2-4.9-0.4-7.3-0.5c-2.4-0.1-4.9-0.3-7.3-0.4l-4-0.2h-0.7c-2.1-0.1-4.2-0.2-6.3-0.2c-3-0.1-6-0.1-9.1-0.2
	c-19.7-0.1-39.2,1.3-58.8,2.7c-2,0.2-4,0.3-6,0.5c-3.3,0.3-6.6,0.6-9.8,1l-0.6,0.1c-2.1,0.3-4.1,0.5-6.2,0.8
	c-3.1,0.4-6.1,0.9-9.2,1.4c-2.3,0.4-4.5,0.8-6.8,1.2c-2.3,0.4-4.6,0.5-6.9,0.9c-2.3,0.4-4.2,0.9-6.3,1.4c-1.2,0.2-2.4,0.5-3.6,0.8
	c-2.4,0.6-4.9,1.2-7.3,1.8c-2.4,0.6-5.1,1.3-7.7,2.1l-3.6,1l-2,0.6c-1.4,0.4-2.7,0.8-4.1,1.3c-1.7,0.5-3.5,1.1-5.2,1.6
	c-25.1,8.1-50.7,14.4-76.8,18.7c-3.3,0.6-6.6,1.2-9.9,1.6l-1.5,0.2c-0.8,0.1-1.7,0.3-2.5,0.4c-1.9,0.3-3.9,0.6-5.9,0.9
	c-2,0.3-3.9,0.6-5.8,0.8c-0.9,0.2-1.8,0.3-2.7,0.4l-2.7,0.4c-2.3,0.3-4.6,0.6-6.9,0.9c-2.3,0.3-4.6,0.6-6.9,0.9
	c-1.6,0.2-3.3,0.4-4.9,0.6c-0.6,0.1-1.3,0.2-2,0.2l-6.9,0.8c-0.4,0-0.8,0.1-1.2,0.1c-6.6,0.7-13.4,1.4-20.1,2.1l0,0
	c-27.4,2.6-54.7,5.4-82.3,5.5c-26.1,0.1-52.3,0.8-78.3-1.8l-6.5-0.7l-0.6-0.1c-0.3,0-0.5-0.1-0.8-0.1c-2.6-0.3-5.1-0.6-7.7-0.9h-0.2
	c0,0-0.1,0-0.1,0c-1.6-0.2-3.2-0.4-4.7-0.6c-4.5-0.6-9-1.2-13.5-1.8c-1.7-0.3-3.5-0.5-5.2-0.7h-0.2l-1.7-0.3l-2-0.3L178,406
	c-2.3-0.4-4.6-0.7-7-1.2c-6-1-12.1-2.1-18.1-3.2c-1.4,0-2.8,0-4.2,0c0-0.3-0.1-0.5-0.1-0.8c-0.1-0.8-0.2-1.7-0.2-2.5
	c0,0.8,0.1,1.6,0.2,2.5c-3.4-0.6-6.7-1.3-10-2c-7.5-1.5-15-3.1-22.5-4.6c-15-3.1-30-6.1-45.1-9.1c-2.7-0.5-5.4-1.1-8.1-1.6
	c-5.5-1.1-11-2.1-16.5-3.1C18.3,452.1,2.8,528,0.5,605c0,0.6,0,1.2,0,1.8c-0.1,3.2-0.2,6.5-0.2,9.7s-0.1,6.6-0.1,9.9v754.8
	c0,360,302.8,651.8,676.4,651.8h807c373.6,0,676.4-291.8,676.4-651.8V626.4C2159.9,622.4,2159.9,618.6,2159.8,614.7z M2067.3,284.6
	c-2.1,0-4.2,0-6.5,0c-7.5,0.2-17.1-0.6-26.7,1.4c-3.4,0.6-6.7,1.7-9.7,3.2c-3.2,1.7-3.3,3.9-0.2,5.7c1.5,0.8,3.1,1.4,4.7,1.8
	c8.1,2.4,16.4,3.3,24.9,4.1c7.6,0.7,15.3,0.8,23,0.3L2067.3,284.6z M1834.5,436.3l-4.9-1C1831.3,435.6,1832.9,436,1834.5,436.3
	c3.1,0.6,6.2,1.3,9.3,1.8C1840.7,437.5,1837.7,436.9,1834.5,436.3L1834.5,436.3z M1431.4,13.5l-1-0.2
	C1430.7,13.4,1431,13.5,1431.4,13.5c10.3,1.8,20.6,3.8,30.8,5.9C1451.9,17.3,1441.7,15.3,1431.4,13.5z M519.7,173.3
	c-4.3-2.4-9.3-2.9-14.2-3.6c-13.9-1.8-28.1-0.5-41.4,3.9c-2.6,0.8-4.9,2.1-5.2,4.5c-0.4,2.9,2.2,4.3,4.9,5.5c1.6,0.7,3.2,1.1,5,1.4
	c6.1,1,12.1,2.2,18.1,1.5c8.6,0.6,16.6-0.8,24.5-2.6c3.3-0.6,6.5-2,9.1-4.2C523.6,176.9,523.4,175.4,519.7,173.3z M809.8,131.6
	c0.7-1.3,0-2.7-2.2-3.9c-3.1-1.5-6.3-2.6-9.7-3.2c-9.6-2-19.3-1.2-26.7-1.4c-8.1,0-13.9-0.2-19.7,0.1c-8.4,0.3-16.8,1.8-24.8,4.4
	c-2.2,0.7-4.4,1.9-4.5,4.1c0,0.4,0.1,0.8,0.2,1.2c-0.1,0.3-0.1,0.6-0.2,0.8c-0.1,2.3,1.9,3.5,4.2,4.2l0.7,0.2
	c1.6,0.4,3.3,0.9,4.9,1.3c4.3,1,8.7,1.6,13.1,1.9c11.1,0.5,22,1.2,33.2,0.1c7.8-0.8,15.5-1.6,23-3.6c0.6-0.2,1.2-0.3,1.9-0.5
	c0.9-0.2,1.8-0.5,2.7-0.8c0.7-0.3,1.4-0.6,2.1-1C809.8,134.3,810.5,132.9,809.8,131.6L809.8,131.6z M1668.2,126.9
	c-9.5-3.6-19.6-5.2-29.7-4.5c-9.7-0.5-34.7-0.8-44.1,1.1c-2.9,0.6-6.1,1.5-6.6,4.2c-0.6,3.1,3.1,3.8,5.6,4.7
	c9.5,3.6,19.7,5.2,29.8,4.6c4.6,2.3,9.7,1.1,14.6,1.4c9.8,0.3,19.7-0.5,29.3-2.6c2.9-0.6,6-1.5,6.5-4.2
	C1674.4,128.5,1670.7,127.8,1668.2,126.9L1668.2,126.9z M1668.2,126.9c-9.5-3.6-19.6-5.2-29.7-4.5c-9.7-0.5-34.7-0.8-44.1,1.1
	c-2.9,0.6-6.1,1.5-6.6,4.2c-0.6,3.1,3.1,3.8,5.6,4.7c9.5,3.6,19.7,5.2,29.8,4.6c4.6,2.3,9.7,1.1,14.6,1.4c9.8,0.3,19.7-0.5,29.3-2.6
	c2.9-0.6,6-1.5,6.5-4.2C1674.4,128.5,1670.7,127.8,1668.2,126.9L1668.2,126.9z M809.8,131.6c0.7-1.3,0-2.7-2.2-3.9
	c-3.1-1.5-6.3-2.6-9.7-3.2c-9.6-2-19.3-1.2-26.7-1.4c-8.1,0-13.9-0.2-19.7,0.1c-8.4,0.3-16.8,1.8-24.8,4.4c-2.2,0.7-4.4,1.9-4.5,4.1
	c0,0.4,0.1,0.8,0.2,1.2c-0.1,0.3-0.1,0.6-0.2,0.8c-0.1,2.3,1.9,3.5,4.2,4.2l0.7,0.2c1.6,0.4,3.3,0.9,4.9,1.3c4.3,1,8.7,1.6,13.1,1.9
	c11.1,0.5,22,1.2,33.2,0.1c7.8-0.8,15.5-1.6,23-3.6c0.6-0.2,1.2-0.3,1.9-0.5c0.9-0.2,1.8-0.5,2.7-0.8c0.7-0.3,1.4-0.6,2.1-1
	C809.8,134.3,810.5,132.9,809.8,131.6z M519.7,173.3c-4.3-2.4-9.3-2.9-14.2-3.6c-13.9-1.8-28.1-0.5-41.4,3.9
	c-2.6,0.8-4.9,2.1-5.2,4.5c-0.4,2.9,2.2,4.3,4.9,5.5c1.6,0.7,3.2,1.1,5,1.4c6.1,1,12.1,2.2,18.1,1.5c8.6,0.6,16.6-0.8,24.5-2.6
	c3.3-0.6,6.5-2,9.1-4.2C523.6,176.9,523.4,175.4,519.7,173.3L519.7,173.3z"/>
<path class="st1" d="M148.6,400.7L148.6,400.7c-0.1-0.8-0.2-1.7-0.2-2.5C148.5,399.1,148.6,399.9,148.6,400.7z"/>
<rect x="0.1" y="903.3" class="st1" width="2159.8" height="126.6"/>
<path class="st0" d="M1016.2,369.8c-0.2,0-0.4-0.1-0.6-0.1l0.7,0.1l0.4,0.1c0.1,0,0.2,0,0.3,0h0.1c0.1,0,0.2,0,0.3,0
	C1017,369.9,1016.6,369.8,1016.2,369.8z M1033,372.8c0.3,0,0.6,0.1,0.9,0.2c0.2,0,0.5,0.1,0.7,0.1C1034.1,373,1033.6,373,1033,372.8
	L1033,372.8z M2159.8,614.7c-0.1-3.9-0.2-7.8-0.3-11.6l0,0c-0.6-20.2-2.2-40.1-4.6-59.8l0,0c-0.1-0.6-0.2-1.2-0.2-1.9
	c-0.6-4.6-1.2-9.3-1.9-13.8c-0.7-4.6-1.4-9.2-2.2-13.7c-0.6-3.4-1.2-6.8-1.8-10.2c-0.6-3.4-1.3-6.8-2-10.2c-0.9-4.5-1.9-9-2.8-13.5
	c-2-9-4.2-17.9-6.5-26.7c-0.7-2.7-1.4-5.3-2.2-8c-0.4-1.5-0.8-2.9-1.2-4.4c-0.7-2.4-1.4-4.9-2.1-7.3c-0.9,0.3-1.9,0.6-2.8,0.9
	c-0.9,0.3-1.9,0.6-2.8,0.9c-0.1,0-0.3,0.1-0.4,0.1c-0.1,0-0.3,0.1-0.4,0.1c-0.5,0.2-1,0.3-1.5,0.5l-0.3,0.1c-0.1,0-0.2,0.1-0.3,0.1
	c-0.4,0.1-0.7,0.2-1.1,0.3l-1.4,0.4c-0.1,0-0.1,0-0.2,0l0,0c0,0,0,0-0.1,0l0,0l0,0c0,0,0,0-0.1,0l-0.5,0.2h-0.1
	c-1,0.3-2.1,0.6-3.1,0.9l-1.8,0.5c-0.8,0.2-1.6,0.5-2.4,0.7s-1.8,0.5-2.7,0.8l-0.7,0.2h-0.2h-0.1c-0.1,0.1-0.2,0.1-0.4,0.1l-2.7,0.7
	l-2.8,0.7c-0.5,0.1-1,0.2-1.6,0.4c-0.2,0-0.4,0.1-0.5,0.1c-2,0.5-4.1,1-6.1,1.5c-1.1,0.3-2.2,0.5-3.2,0.8c-0.3,0.1-0.6,0.1-0.9,0.2
	h-0.1c-0.2,0.1-0.4,0.1-0.6,0.1c-0.1,0-0.1,0-0.2,0l-0.4,0.1l-0.4,0.1c-1.8,0.4-3.7,0.8-5.5,1.2l-3.1,0.6c-0.5,0.1-0.9,0.2-1.4,0.3
	c-1.1,0.2-2.2,0.4-3.2,0.6c-1.3,0.3-2.5,0.5-3.8,0.7c-2.7,0.5-5.4,1-8.1,1.5l-6.1,1l-0.7,0.1c-0.1,0-0.2,0-0.3,0.1
	c-1.2,0.2-2.4,0.4-3.7,0.6c-3.8,0.6-7.7,1.2-11.5,1.7c-2,0.3-4.1,0.6-6.1,0.8c-2,0.3-4.1,0.5-6.1,0.8l-6.1,0.7
	c-5.4,0.6-10.9,1.2-16.4,1.7c-2.2,0.2-4.4,0.4-6.6,0.6c-0.5,0-0.9,0.1-1.3,0.1c-1.8,0.2-3.7,0.3-5.5,0.5l-2.2,0.2
	c-2,0.2-3.9,0.4-5.9,0.6c-2.4,0.2-4.8,0.4-7.2,0.6c-3.6,0.3-7.2,0.6-10.8,0.8c-1.2,0.1-2.4,0.1-3.6,0.2c-1.2,0.1-2.6,0.1-3.8,0.2
	c-1.3,0-2.6,0.1-3.8,0.1h-0.9h-0.2c-0.1,0-0.2,0-0.4,0h-0.3h-1.4h-0.2c-0.2,0-0.3,0-0.5,0c-1.4,0-2.8,0-4.2,0c-5.1,0-10.3,0-15.4,0
	c-16.6,0-33.1,0.1-49.7-1.2l-7.9-0.6c-0.4,0-0.9,0-1.3-0.1c-1-0.1-2.1-0.2-3.1-0.3h-0.3c-0.7,0-1.3-0.1-2-0.2
	c-3-0.2-6.1-0.5-9.1-0.8c-5.2-0.5-10.5-1-15.7-1.7c-5.2-0.6-10.4-1.3-15.6-2c-1.3-0.2-2.6-0.3-3.9-0.5l-3.9-0.5
	c-2.8-0.4-5.6-0.9-8.4-1.3c-2.8-0.4-5.6-0.9-8.4-1.4c-2.8-0.5-5.6-0.9-8.4-1.4l0,0c-5.5-1-11.1-2-16.6-3.1
	c-3.8-0.7-7.6-1.5-11.4-2.3c-3.8-0.8-7.4-1.5-11.1-2.3c-0.8-0.2-1.5-0.3-2.3-0.5l-9.3-2.1l-11.3-2.6c-3.8-0.9-7.5-1.8-11.3-2.7
	s-7.5-1.9-11.2-2.8l-11.2-2.9c-3.7-1-7.4-1.9-11.2-2.9c-4.2-1.1-8.3-2.3-12.5-3.5c-4.2-1.2-8.3-2.4-12.5-3.5
	c-8.3-2.3-16.7-4.6-25.2-6.4c-3.6,0-22.3-7.1-25.6-8c-7.6-2-15.2-4.1-22.7-6.2c-7-0.3-13.9-0.6-20.9-0.6
	c-24.9-0.2-49.7-1.4-74.6-0.5c-27,0.9-54,0-80.9,1.5c-12.6,0.7-25.1,1.6-37.7,2.1c-8.1,0.4-16.4,0.2-24.5,1.4
	c-12.5,1.8-25.2,2.1-37.6,2.2c-32,0.2-63.9,1.5-95.9-0.9c-13.1-1-26.3-1.9-39.3-3.6c-29.3-3.7-58.3-8.8-87-14.9
	c-17.2-3.7-34.4-7.3-51.7-10.6h-0.1l-2.3-0.5c0.1,0.1,0.3,0.1,0.4,0.1l1.9,0.4l-11,2.1l-10,1.9c-6.2,1.2-12.4,2.2-18.6,3.2
	c-1.5,0.3-3,0.5-4.5,0.7c-2.5,0.4-5,0.8-7.6,1.2l-1.7,0.2c-0.9,0.1-1.8,0.3-2.7,0.4l-2.9,0.4c-0.7,0.1-1.5,0.2-2.2,0.3
	c-1.7,0.2-3.4,0.4-5,0.6l0,0c-2.6,0.3-5.2,0.6-7.8,0.8l-0.9,0.1c-0.2,0-0.3,0-0.5,0c-0.1,0-0.3,0-0.4,0c-0.1,0-0.3,0-0.4,0
	c-0.3,0-0.6,0.1-0.9,0.1L959,386c-0.3,0-0.5,0-0.8,0c-3.2,0.3-6.3,0.5-9.5,0.6c-0.1,0-0.2,0-0.3,0c-29,1.6-58.1,0.1-86.8-4.4
	c-3.9-0.6-7.8-1.2-11.6-1.9s-7.8-1.3-11.6-2s-7.7-1.4-11.6-2.1l-17.4-3.2c-3-0.5-6-1.1-8.9-1.6c-0.3,0-0.7-0.1-1-0.2h-0.2l-0.6-0.1
	c-1.4-0.2-2.7-0.5-4.1-0.7l-4.7-0.8c-2.2-0.4-4.3-0.7-6.5-1.1c-0.7-0.1-1.5-0.2-2.2-0.3l-0.5-0.1l-1.5-0.2c-1-0.2-1.9-0.3-2.9-0.4
	l-2.6-0.4c-1.7-0.3-3.3-0.5-5-0.7c-3.3-0.5-6.7-0.9-10.1-1.4c-0.3,0-0.6-0.1-0.9-0.1c-0.1,0-0.2,0-0.3,0h-0.1l-3.1-0.4
	c-1.9-0.2-3.8-0.5-5.8-0.7l0,0l-3.8-0.4l-2.7-0.3h-0.5l-0.6-0.1h-0.1h-0.5c-2.7-0.3-5.5-0.5-8.2-0.8c-0.5-0.1-1-0.1-1.6-0.2h-0.1
	c-0.5-0.1-0.9-0.1-1.4-0.1c-0.2,0-0.4,0-0.6,0h-0.6c-0.2,0-0.3,0-0.5,0h-0.1H727c-0.1,0-0.2,0-0.3,0c-0.1,0-0.2,0-0.2,0h-0.3
	c-0.4,0-0.8-0.1-1.2-0.1h-0.3l-1.2-0.1c-0.5,0-1-0.1-1.4-0.1c-2.4-0.2-4.9-0.4-7.3-0.5c-2.4-0.1-4.9-0.3-7.3-0.4l-4-0.2h-0.7
	c-2.1-0.1-4.2-0.2-6.3-0.2c-3-0.1-6-0.1-9.1-0.2c-19.7-0.1-39.2,1.3-58.8,2.7c-2,0.2-4,0.3-6,0.5c-3.3,0.3-6.6,0.6-9.8,1l-0.6,0.1
	c-2.1,0.3-4.1,0.5-6.2,0.8c-3.1,0.4-6.1,0.9-9.2,1.4c-2.3,0.4-4.5,0.8-6.8,1.2c-2.3,0.4-4.6,0.5-6.9,0.9c-2.3,0.4-4.2,0.9-6.3,1.4
	c-1.2,0.2-2.4,0.5-3.6,0.8c-2.4,0.6-4.9,1.2-7.3,1.8c-2.4,0.6-5.1,1.3-7.7,2.1l-3.6,1l-2,0.6c-1.4,0.4-2.7,0.8-4.1,1.3
	c-1.7,0.5-3.5,1.1-5.2,1.6c-25.1,8.1-50.7,14.4-76.8,18.7c-3.3,0.6-6.6,1.2-9.9,1.6l-1.5,0.2c-0.8,0.1-1.7,0.3-2.5,0.4
	c-1.9,0.3-3.9,0.6-5.9,0.9c-2,0.3-3.9,0.6-5.8,0.8c-0.9,0.2-1.8,0.3-2.7,0.4l-2.7,0.4c-2.3,0.3-4.6,0.6-6.9,0.9
	c-2.3,0.3-4.6,0.6-6.9,0.9c-1.6,0.2-3.3,0.4-4.9,0.6c-0.6,0.1-1.3,0.2-2,0.2l-6.9,0.8c-0.4,0-0.8,0.1-1.2,0.1
	c-6.6,0.7-13.4,1.4-20.1,2.1l0,0c-27.4,2.6-54.7,5.4-82.3,5.5c-26.1,0.1-52.3,0.8-78.3-1.8l-6.5-0.7l-0.6-0.1
	c-0.3,0-0.5-0.1-0.8-0.1c-2.6-0.3-5.1-0.6-7.7-0.9h-0.2c0,0-0.1,0-0.1,0c-1.6-0.2-3.2-0.4-4.7-0.6c-4.5-0.6-9-1.2-13.5-1.8
	c-1.7-0.3-3.5-0.5-5.2-0.7h-0.2l-1.7-0.3l-2-0.3L178,406c-2.3-0.4-4.6-0.7-7-1.2c-6-1-12.1-2.1-18.1-3.2c-1.4,0-2.8,0-4.2,0
	c0-0.3-0.1-0.5-0.1-0.8c-0.1-0.8-0.2-1.7-0.2-2.5c0,0.8,0.1,1.6,0.2,2.5c-3.4-0.6-6.7-1.3-10-2c-7.5-1.5-15-3.1-22.5-4.6
	c-15-3.1-30-6.1-45.1-9.1c-2.7-0.5-5.4-1.1-8.1-1.6c-5.5-1.1-11-2.1-16.5-3.1C18.3,452.1,2.8,528,0.5,605c0,0.6,0,1.2,0,1.8
	c-0.1,3.2-0.2,6.5-0.2,9.7s-0.1,6.6-0.1,9.9v277h2159.8v-277C2159.9,622.4,2159.9,618.6,2159.8,614.7z M2067.3,284.6
	c-2.1,0-4.2,0-6.5,0c-7.5,0.2-17.1-0.6-26.7,1.4c-3.4,0.6-6.7,1.7-9.7,3.2c-3.2,1.7-3.3,3.9-0.2,5.7c1.5,0.8,3.1,1.4,4.7,1.8
	c8.1,2.4,16.4,3.3,24.9,4.1c7.6,0.7,15.3,0.8,23,0.3L2067.3,284.6z M1834.5,436.3l-4.9-1C1831.3,435.6,1832.9,436,1834.5,436.3
	c3.1,0.6,6.2,1.3,9.3,1.8C1840.7,437.5,1837.7,436.9,1834.5,436.3L1834.5,436.3z M1244.1,287c-0.5-2.7-3.7-3.6-6.6-4.2
	c-9.4-1.9-34.4-1.6-44.1-1.1c-10.1-0.6-20.3,0.9-29.7,4.6c-2.5,0.9-6.2,1.6-5.6,4.7c0.5,2.7,3.7,3.6,6.6,4.2
	c9.6,2.1,19.5,2.9,29.3,2.6c4.9-0.3,10,0.9,14.6-1.4c10.2,0.5,20.3-1.1,29.8-4.6C1241.1,290.8,1244.8,290.1,1244.1,287z
	 M391.6,350.7c-4.9-0.6-9.6-2.1-14.7-1.8c-3.2,0.1-6.4,0-9.7,0c-19.6,0.8-39.2,1.4-57.9,7c-3.1,0.9-8.1,1.2-7.7,4.7
	c0.5,3.8,5.7,3.8,9.3,4.1c25.5,2,50.7,0.9,75.5-4.9c2-0.4,3.9-1,5.8-1.7c2.1-0.8,4.5-1.7,4.4-4C396.5,351.9,393.9,351,391.6,350.7z
	 M229.3,218.3c-1.3-1-2.6-1.9-4.1-2.6c-5.4-2.6-11.1-4.5-17-5.7c-14.1-3.1-28.4-3.3-43.2-2.8c-3.1-0.1-6.3-0.2-9.5-0.2
	c-2.3,0-4.6,0-6.9,0.1c-1,0-1.9,0-2.9,0.1l0,0c-11.1,14.1-21.7,28.6-31.7,43.5c11.5,0.5,22.9,0.5,34.3,0c15.6-0.6,31.2-2.7,46.4-6.2
	c11-2.6,21.9-5.5,31.3-11.3C233.5,228.5,234.6,222.8,229.3,218.3z M519.7,173.3c-4.3-2.4-9.3-2.9-14.2-3.6
	c-13.9-1.8-28.1-0.5-41.4,3.9c-2.6,0.8-4.9,2.1-5.2,4.5c-0.4,2.9,2.2,4.3,4.9,5.5c1.6,0.7,3.2,1.1,5,1.4c6.1,1,12.1,2.2,18.1,1.5
	c8.6,0.6,16.6-0.8,24.5-2.6c3.3-0.6,6.5-2,9.1-4.2C523.6,176.9,523.4,175.4,519.7,173.3z M1668.2,126.9c-9.5-3.6-19.6-5.2-29.7-4.5
	c-9.7-0.5-34.7-0.8-44.1,1.1c-2.9,0.6-6.1,1.5-6.6,4.2c-0.6,3.1,3.1,3.8,5.6,4.7c9.5,3.6,19.7,5.2,29.8,4.6
	c4.6,2.3,9.7,1.1,14.6,1.4c9.8,0.3,19.7-0.5,29.3-2.6c2.9-0.6,6-1.5,6.5-4.2C1674.4,128.5,1670.7,127.8,1668.2,126.9z M809.8,131.6
	c0.7-1.3,0-2.7-2.2-3.9c-3.1-1.5-6.3-2.6-9.7-3.2c-9.6-2-19.3-1.2-26.7-1.4c-8.1,0-13.9-0.2-19.7,0.1c-8.4,0.3-16.8,1.8-24.8,4.4
	c-2.2,0.7-4.4,1.9-4.5,4.1c0,0.4,0.1,0.8,0.2,1.2c-0.1,0.3-0.1,0.6-0.2,0.8c-0.1,2.3,1.9,3.5,4.2,4.2l0.7,0.2
	c1.6,0.4,3.3,0.9,4.9,1.3c4.3,1,8.7,1.6,13.1,1.9c11.1,0.5,22,1.2,33.2,0.1c7.8-0.8,15.5-1.6,23-3.6c0.6-0.2,1.2-0.3,1.9-0.5
	c0.9-0.2,1.8-0.5,2.7-0.8c0.7-0.3,1.4-0.6,2.1-1C809.8,134.3,810.5,132.9,809.8,131.6z"/>
<path class="st0" d="M2132,433.3c-0.9,0.3-1.9,0.6-2.8,0.9c-0.9,0.3-1.9,0.6-2.8,0.9c-0.1,0-0.3,0.1-0.4,0.1c-0.1,0-0.3,0.1-0.4,0.1
	c-0.5,0.2-1,0.3-1.5,0.5l-0.3,0.1c-0.1,0-0.2,0.1-0.3,0.1c-0.4,0.1-0.7,0.2-1.1,0.3c-0.4,0.1-0.9,0.3-1.4,0.4
	c-0.1,0-0.1,0.1-0.2,0.1l0,0c0,0,0,0-0.1,0l0,0l0,0c0,0,0,0-0.1,0l-0.5,0.2c-1.8,0.6-3.7,1.1-5.5,1.6c-1.8,0.5-3.6,1-5.3,1.5h-0.2
	h-0.1c-0.1,0.1-0.2,0.1-0.4,0.1l-2.7,0.7l-2.7,0.7c-0.5,0.1-1,0.2-1.6,0.4c-0.2,0-0.4,0.1-0.5,0.1c-2,0.5-4.1,1-6.1,1.5
	c-1.1,0.3-2.2,0.5-3.2,0.8c-0.3,0.1-0.6,0.1-0.9,0.2h-0.1c-0.2,0.1-0.4,0.1-0.6,0.1c-0.1,0-0.1,0-0.2,0l-0.4,0.1l-0.4,0.1
	c-1.8,0.4-3.7,0.8-5.5,1.2l-3.1,0.6c-0.5,0.1-0.9,0.2-1.4,0.3c-1.1,0.2-2.2,0.4-3.2,0.6c-1.3,0.3-2.5,0.5-3.8,0.7
	c-2.7,0.5-5.4,1-8.1,1.5l-6.1,1l-0.7,0.1c-0.1,0-0.2,0-0.3,0.1c-1.2,0.2-2.4,0.4-3.7,0.6c-3.8,0.6-7.7,1.2-11.5,1.7
	c-2,0.3-4.1,0.6-6.1,0.8s-4.1,0.5-6.1,0.8l-6.1,0.7c-5.4,0.6-10.9,1.2-16.4,1.7c-2.2,0.2-4.4,0.4-6.6,0.7c-0.5,0-0.9,0.1-1.3,0.1
	c-1.8,0.2-3.7,0.3-5.5,0.5l-2.2,0.2c-2,0.2-3.9,0.4-5.9,0.6c-2.4,0.2-4.8,0.4-7.2,0.6c-3.6,0.3-7.2,0.6-10.8,0.8
	c-1.2,0.1-2.4,0.1-3.6,0.2c-1.2,0.1-2.6,0.1-3.8,0.2c-1.3,0-2.6,0.1-3.8,0.1h-0.9h-0.2c-0.1,0-0.2,0-0.4,0h-0.3h-1.4h-0.2
	c-1.6,0-3.1,0-4.6,0c-5.2,0-10.3,0-15.4,0c-16.6,0-33.1,0.1-49.7-1.2l-7.9-0.6c-0.4,0-0.9,0-1.3-0.1c-1-0.1-2.1-0.2-3.1-0.3h-0.3
	c-0.7,0-1.3-0.1-2-0.2c-3-0.2-6.1-0.5-9.1-0.8c-5.2-0.5-10.5-1-15.7-1.7c-5.2-0.6-10.4-1.3-15.6-2c-1.3-0.2-2.6-0.3-3.9-0.5
	l-3.9-0.6c-2.8-0.4-5.6-0.8-8.4-1.3c-2.8-0.5-5.6-0.9-8.4-1.4c-2.8-0.5-5.6-0.9-8.4-1.4l0,0c-5.5-1-11.1-2-16.6-3.1
	c-3.8-0.7-7.6-1.5-11.4-2.3c-3.8-0.8-7.4-1.5-11.1-2.3c-0.8-0.2-1.5-0.3-2.3-0.5l-9.3-2.1l-11.3-2.6c-3.8-0.9-7.5-1.8-11.3-2.7
	c-3.8-0.9-7.5-1.9-11.2-2.8l-11.2-2.9c-3.7-1-7.4-1.9-11.2-2.9c-4.2-1.1-8.3-2.3-12.5-3.5c-4.2-1.2-8.3-2.4-12.5-3.5
	c-8.3-2.3-16.7-4.6-25.2-6.4c-3.6,0-22.3-7.1-25.6-8c-7.6-2-15.2-4.1-22.7-6.2c15.2,0.8,30.4,2.2,45.6,3.6
	c34.9,3.3,69.5,8.4,103.9,15.3c31.7,6.4,63.2,13.3,94.8,19.6c3.1,0.6,6.2,1.2,9.3,1.8c21.8,4.3,43.9,7.2,66,8.9
	c17.8,1.2,35.6,3,53.5,2.6c17.6-0.4,35.1-1.4,52.6-2.5c19.6-1.2,39-3.6,58.4-6c2-0.3,4-0.5,6-0.8c1.6-0.2,3.2-0.5,4.8-0.7l0,0
	l4.8-0.8c3.2-0.5,6.3-1.2,9.5-1.7c0.9-0.2,1.9-0.3,2.8-0.5c1.4-0.3,2.9-0.6,4.3-0.9c1.7-0.3,3.4-0.7,5-1.1c3-0.6,6.1-1.4,9.1-2.1
	c1.2-0.3,2.3-0.5,3.4-0.8c2.3-0.6,4.6-1.2,7-1.8C2131.3,431,2131.6,432.2,2132,433.3z"/>
<path class="st0" d="M1040,374.1l-11.2,2.1l-10,1.9c-6.2,1.2-12.4,2.2-18.6,3.2c-1.5,0.3-3,0.5-4.5,0.7c-2.5,0.4-5,0.8-7.6,1.2
	l-1.7,0.2c-0.9,0.1-1.8,0.3-2.7,0.4l-2.9,0.4c-0.7,0.1-1.5,0.2-2.2,0.3c-1.7,0.2-3.4,0.5-5,0.6c-2.6,0.3-5.2,0.6-7.8,0.8l-0.9,0.1
	c-0.2,0-0.3,0-0.5,0c-0.3,0-0.6,0.1-0.8,0.1c-0.3,0-0.6,0.1-0.9,0.1l-3.9,0.3c-0.3,0-0.5,0-0.8,0c-3.2,0.3-6.3,0.5-9.5,0.6
	c-0.1,0-0.2,0-0.3,0c-29,1.4-58.1-0.2-86.7-4.8c-3.9-0.6-7.8-1.2-11.6-1.9s-7.8-1.3-11.6-2s-7.7-1.4-11.6-2.1l-17.4-3.2
	c-3-0.5-6-1.1-8.9-1.6c-0.3,0-0.7-0.1-1-0.2h-0.2l-0.6-0.1l-0.8-0.2c-1.9-0.3-3.9-0.7-5.8-1c-1-0.2-1.9-0.3-2.9-0.5
	c-1.7-0.3-3.4-0.6-5.1-0.8c-1.7-0.3-3.2-0.5-4.8-0.7c-2.3-0.4-4.5-0.7-6.7-1c-1.3-0.2-2.5-0.4-3.8-0.6c-2.2-0.3-4.4-0.6-6.7-0.9
	c-1.2-0.2-2.3-0.3-3.5-0.5l-0.9-0.1c-0.1,0-0.2,0-0.3,0h-0.1l-3.1-0.4c-1.9-0.2-3.8-0.5-5.8-0.7l0,0l-3.8-0.4l-2.7-0.3h-0.5
	c-0.1,0-0.2,0-0.3,0h-0.3h-0.1h-0.5c-0.3,0-0.5-0.1-0.8-0.1c-3-0.3-6-0.6-9-0.9h-0.1c-0.5-0.1-0.9-0.1-1.4-0.1c-0.2,0-0.4,0-0.6,0
	h-0.6c-0.2,0-0.3,0-0.5,0h-0.1H727c-0.1,0-0.2,0-0.3,0c-0.1,0-0.2,0-0.2,0h-0.3c-0.4,0-0.8-0.1-1.2-0.1h-0.3l-1.2-0.1
	c-0.5,0-1-0.1-1.4-0.1c-2.4-0.2-4.9-0.4-7.3-0.5c-2.4-0.1-4.9-0.3-7.3-0.4l-4-0.2h-0.7c-2.1-0.1-4.2-0.2-6.3-0.2
	c-3-0.1-6-0.1-9.1-0.2c-19.7-0.1-39.2,1.3-58.8,2.7c-2,0.2-4,0.3-6,0.5c-3.3,0.3-6.6,0.6-9.8,1l-0.6,0.1c-2.1,0.3-4.1,0.5-6.2,0.8
	c-3.1,0.4-6.1,0.9-9.2,1.4c-2.3,0.3-4.5,0.8-6.8,1.2c-2.3,0.4-4.6,0.4-6.9,0.8c-2.3,0.4-4.2,0.9-6.3,1.4c-1.2,0.2-2.4,0.5-3.6,0.8
	c-2.4,0.6-4.9,1.2-7.3,1.8c-2.4,0.6-5.1,1.3-7.7,2.1l-3.6,1l-2,0.6c-1.4,0.4-2.7,0.8-4.1,1.3c-1.7,0.5-3.5,1.1-5.2,1.6
	c-25.1,8.1-50.7,14.4-76.8,18.7c-3.3,0.6-6.6,1.2-9.9,1.6l-1.5,0.2c-0.8,0.1-1.7,0.3-2.5,0.4c-1.9,0.3-3.9,0.6-5.9,0.9
	c-2,0.3-3.9,0.6-5.8,0.8c-0.9,0.2-1.8,0.3-2.7,0.4l-2.7,0.4c-2.3,0.3-4.6,0.6-6.9,0.9c-2.3,0.3-4.6,0.6-6.9,0.9
	c-1.6,0.2-3.3,0.4-4.9,0.6c-0.6,0.1-1.3,0.2-2,0.2l-6.9,0.8c-0.4,0-0.8,0.1-1.2,0.1c-6.6,0.7-13.4,1.4-20.1,2.1l0,0
	c-27.4,2.6-54.7,5.4-82.3,5.5c-26.1,0.1-52.3,0.8-78.3-1.8l-6.5-0.7l-0.6-0.1c-0.3,0-0.5-0.1-0.8-0.1c-2.6-0.3-5.1-0.6-7.7-0.9h-0.2
	c0,0-0.1,0-0.1,0c-1.6-0.2-3.2-0.4-4.7-0.6c-4.5-0.6-9-1.2-13.5-1.8c-1.7-0.3-3.5-0.5-5.2-0.7h-0.2l-1.7-0.3l-2-0.3L178,406
	c-2.3-0.4-4.6-0.7-7-1.2c-6-1-12.1-2.1-18.1-3.2c18.8,0,37.5-1.6,56.3-2.6c11.7-0.6,23.4-1.3,35.1-2c11.1-0.7,22.3-0.6,33.2-2.3
	c7.5-1.2,15.2-1,22.7-1.4c10.2-0.6,20.4-1.8,30.6-2.1c9.6-0.2,19.2-1.4,28.8-2.3c7-0.6,14-1.2,21-1.7c21.9-1.7,43.6-4,65.5-5.8
	c22.2-1.8,44.2-4.3,66.3-6.3c14.9-1.3,29.6-3.5,44.4-5.2c19.7-2.2,39.5-4.3,59.2-6.5c16.2-1.8,32.5-3.6,48.7-5.3
	c6.7-0.7,13.4-1.3,20.1-1.5c11.1-0.4,22.3-1.3,33.3-2.1c19.1-1.4,38.1-0.6,57.2-1.3c7.8-0.3,15.8-2.1,23.6-1.2
	c20.5,2.4,41.1,0.2,61.5,1.5c25.1,1.6,50.2,2.9,75.2,5.2c26.8,2.4,53.1,6.3,79.3,10.9c0.1,0,0.3,0,0.4,0.1h0.1c0.2,0,0.4,0,0.6,0.1
	h0.2l0.4,0.1c0.1,0,0.2,0,0.3,0h0.1c5.1,0.9,10.1,1.8,15.1,2.7c0.2,0,0.4,0.1,0.6,0.1c0.1,0,0.1,0,0.2,0c0.3,0,0.6,0.1,0.9,0.2
	c0.2,0,0.5,0.1,0.7,0.1c0.9,0.2,1.8,0.3,2.6,0.5c0.1,0,0.2,0,0.3,0l2.3,0.5c0,0.1,0,0.2,0.1,0.2C1039.9,374.2,1040,374.2,1040,374.1
	L1040,374.1z"/>
<path class="st0" d="M424.1,218.6l-2.4,0.7c-3.7,1-7.4,2-11.1,2.9c3.7-0.9,7.4-2,11.1-3C422.5,219,423.3,218.8,424.1,218.6z"/>
<path class="st0" d="M481.6,207.6c-4,0.5-8.1,1.1-12.1,1.7C473.5,208.6,477.5,208,481.6,207.6z"/>
<path class="st2" d="M2159.9,626.4v277H0.1v-277c0-3.3,0-6.6,0.1-9.9s0.1-6.5,0.2-9.7c0-0.6,0-1.2,0-1.8c2.3-77,17.8-153,45.8-224.7
	l0,0c5.5,1,11,2.1,16.5,3.1c2.7,0.5,5.4,1,8.1,1.6c15,2.9,30.1,6,45.1,9.1c7.5,1.6,15,3.1,22.5,4.6c3.4,0.7,6.7,1.4,10,2l0,0
	c1.4,0.3,2.8,0.6,4.3,0.8l0,0c6,1.2,12.1,2.2,18.1,3.2c2.3,0.4,4.6,0.8,7,1.2l4.7,0.7l2,0.3l1.7,0.3h0.2c1.7,0.3,3.5,0.5,5.2,0.7
	c4.5,0.6,9,1.2,13.5,1.8c1.6,0.2,3.1,0.4,4.7,0.6c0,0,0.1,0,0.1,0h0.2c2.6,0.3,5.1,0.6,7.7,0.9c0.3,0,0.5,0,0.8,0.1l0.6,0.1l6.5,0.7
	c26,2.6,52.2,1.8,78.3,1.8c27.6-0.1,54.9-2.8,82.3-5.5l0,0c6.7-0.6,13.4-1.3,20.1-2.1c0.4,0,0.8-0.1,1.2-0.1c3-0.3,5.9-0.7,8.9-1
	c1.6-0.2,3.3-0.4,4.9-0.6c2.3-0.3,4.6-0.6,6.9-0.9c2.3-0.3,4.6-0.6,6.9-0.9l2.7-0.4c0.9-0.1,1.8-0.2,2.7-0.4
	c3.9-0.5,7.8-1.2,11.7-1.7c0.8-0.1,1.7-0.3,2.5-0.4l1.7-0.2c3.3-0.5,6.6-1.1,9.9-1.6c26-4.3,51.7-10.6,76.8-18.7
	c1.7-0.6,3.5-1.2,5.2-1.6c1.4-0.5,2.7-0.9,4.1-1.3l2-0.6l3.6-1c2.6-0.7,5.1-1.4,7.7-2.1c2.6-0.7,4.9-1.2,7.3-1.8
	c1.2-0.3,2.3-0.6,3.6-0.8c2.1-0.5,4.2-0.9,6.3-1.4s4.5-0.9,6.8-1.3s4.5-0.8,6.8-1.2c3.1-0.5,6.1-1,9.2-1.4c2.1-0.3,4.2-0.6,6.2-0.8
	l0.6-0.1c3.3-0.4,6.5-0.7,9.8-1c2-0.2,4-0.3,6-0.5c19.6-1.4,39.1-2.8,58.8-2.7c3,0,6,0.1,9.1,0.2c2.1,0,4.2,0.1,6.3,0.2h0.7l4,0.2
	c2.5,0.1,4.9,0.2,7.3,0.4s4.9,0.3,7.3,0.5c0.5,0,1,0,1.4,0.1l1.2,0.1h0.3c0.4,0,0.8,0.1,1.2,0.1h0.3c0.1,0,0.2,0,0.2,0
	c0.1,0,0.2,0,0.3,0h0.1h0.1c0.2,0,0.3,0,0.5,0h0.6c0.2,0,0.4,0,0.6,0c0.5,0,0.9,0.1,1.4,0.1h0.1c3,0.2,6,0.5,9,0.9
	c0.3,0,0.5,0.1,0.8,0.1h0.5h0.1h0.3c0.1,0,0.2,0,0.3,0h0.5c0.5,0,1,0.1,1.5,0.2c0.4,0,0.8,0.1,1.2,0.1l3.8,0.4l0,0
	c0.3,0,0.5,0,0.7,0.1c1.7,0.2,3.3,0.4,5,0.6l3.1,0.4h0.1c0.1,0,0.2,0,0.3,0l0.9,0.1c1.2,0.2,2.3,0.3,3.5,0.5
	c2.2,0.3,4.4,0.6,6.7,0.9c1.3,0.2,2.5,0.3,3.8,0.6c1.3,0.2,2.5,0.4,3.8,0.6c1,0.2,1.9,0.3,2.9,0.4l1.5,0.2l0.5,0.1l2.8,0.4
	c1.7,0.3,3.4,0.5,5.1,0.8c1,0.2,1.9,0.3,2.9,0.5c2,0.3,3.9,0.7,5.8,1l0.8,0.2l0.6,0.1h0.2c0.3,0.1,0.7,0.1,1,0.2
	c3,0.5,6,1.1,8.9,1.6l17.4,3.2c3.9,0.7,7.7,1.4,11.6,2.1c3.9,0.7,7.8,1.4,11.6,2c3.9,0.7,7.8,1.3,11.6,1.9c28.6,4.7,57.7,6.3,86.7,5
	c0.1,0,0.2,0,0.3,0c3.2-0.2,6.3-0.4,9.5-0.6c0.3,0,0.5,0,0.8,0l3.9-0.3c0.3,0,0.6,0,0.9-0.1c0.1,0,0.3,0,0.4,0c0.1,0,0.3,0,0.4,0
	c0.2,0,0.3,0,0.5,0c2.9-0.3,5.8-0.6,8.6-0.9c1.7-0.2,3.4-0.4,5-0.6c1.7-0.2,3.4-0.4,5.1-0.7c0.9-0.1,1.8-0.2,2.7-0.4l1.7-0.2
	c2.5-0.4,5.1-0.7,7.6-1.2c1.5-0.2,3-0.5,4.5-0.7c6.2-1,12.4-2.1,18.6-3.2l10-1.9l11-2.1l0,0l0,0h0.1c39.2-7.4,78.4-14.7,118.1-19.7
	c4-0.5,136.3-10,140.4-10.2c18.3,0,115.1,11.8,132.8,14.9c36.7,6.4,72.6,15.3,108.3,24.8c17,4.5,33.7,9.5,50.6,14.2
	c7.5,2.1,15.1,4.2,22.7,6.2c3.3,0.9,22,7.9,25.6,8c8.5,1.9,16.9,4.1,25.2,6.4c4.2,1.2,8.3,2.3,12.5,3.5c4.2,1.2,8.3,2.3,12.5,3.5
	c3.7,1,7.4,2,11.2,2.9l11.2,2.9c3.7,0.9,7.5,1.9,11.2,2.8c3.7,0.9,7.5,1.8,11.3,2.7c3.8,0.9,7.5,1.8,11.3,2.6l9.3,2.1
	c0.8,0.2,1.6,0.3,2.3,0.5c3.7,0.8,7.4,1.6,11.1,2.3c3.7,0.7,7.6,1.6,11.4,2.3c5.5,1.1,11.1,2.1,16.6,3.1l0,0c2.8,0.5,5.6,1,8.4,1.4
	s5.6,0.9,8.4,1.4s5.6,0.9,8.4,1.3l3.9,0.6c1.3,0.2,2.6,0.4,3.9,0.5c5.2,0.7,10.4,1.4,15.6,2c5.2,0.6,10.4,1.2,15.7,1.7
	c3,0.3,6.1,0.6,9.1,0.8c0.7,0.1,1.3,0.1,2,0.2h0.3c1,0.1,2.1,0.2,3.1,0.3c0.4,0,0.9,0.1,1.3,0.1l7.9,0.6c16.6,1.2,33.2,1.2,49.7,1.2
	c5.1,0,10.3,0,15.4,0c1.6,0,3.1,0,4.6,0h0.1h1.4h0.3c0.1,0,0.2,0,0.4,0h0.2h0.9c1.3,0,2.5-0.1,3.8-0.1c1.3-0.1,2.6-0.1,3.8-0.2
	c1.3-0.1,2.4-0.1,3.6-0.2c3.6-0.2,7.2-0.5,10.8-0.8c2.4-0.2,4.8-0.4,7.2-0.6c2-0.2,3.9-0.4,5.9-0.6l2.2-0.2c1.8-0.2,3.7-0.4,5.5-0.5
	c0.4,0,0.9-0.1,1.3-0.1c2.2-0.3,4.4-0.5,6.6-0.7c5.5-0.5,10.9-1.1,16.4-1.7l6.1-0.7c2.1-0.2,4.1-0.5,6.1-0.8c2-0.3,4.1-0.5,6.1-0.8
	c3.9-0.5,7.7-1.2,11.5-1.7c1.2-0.2,2.4-0.4,3.7-0.6c0.1,0,0.2,0,0.3-0.1l0.7-0.1l6.1-1c2.7-0.5,5.4-1,8.1-1.5
	c1.3-0.2,2.6-0.5,3.8-0.7c1.1-0.2,2.1-0.4,3.2-0.6c0.4-0.1,0.9-0.2,1.4-0.3l3.1-0.6c1.8-0.4,3.7-0.8,5.5-1.2l0.4-0.1l0.4-0.1
	c0.1,0,0.1,0,0.2,0c0.2,0,0.4-0.1,0.6-0.1h0.1c0.3-0.1,0.6-0.1,0.9-0.2c1.1-0.3,2.1-0.5,3.2-0.8c2-0.5,4-1,6.1-1.5
	c0.2,0,0.3-0.1,0.5-0.1c0.5-0.2,1-0.3,1.6-0.4l2.8-0.7l2.7-0.7c0.1,0,0.3-0.1,0.4-0.1h0.1h0.2l0.7-0.2c0.9-0.2,1.8-0.5,2.7-0.8
	c0.6-0.2,1.3-0.4,1.9-0.6c0.2,0,0.3-0.1,0.5-0.1l1.8-0.5c1-0.3,2.1-0.6,3.1-0.9h0.1l0.5-0.2c0,0,0,0,0.1,0l0,0l0,0c0,0,0,0,0.1,0
	l0,0c0.1,0,0.1,0,0.2,0l1.4-0.4c0.4-0.1,0.7-0.2,1.1-0.3c0.1,0,0.2-0.1,0.3-0.1l0.3-0.1c0.5-0.2,1-0.3,1.5-0.5
	c0.1,0,0.3-0.1,0.4-0.1c0.1,0,0.3-0.1,0.4-0.1c0.9-0.3,1.9-0.6,2.8-0.9c0.9-0.3,1.9-0.6,2.8-0.9c0.7,2.4,1.4,4.9,2.1,7.3
	c0.4,1.5,0.8,2.9,1.2,4.4c0.7,2.7,1.5,5.3,2.2,8c2.3,8.8,4.5,17.7,6.5,26.7c1,4.5,1.9,9,2.8,13.5c0.7,3.4,1.3,6.8,2,10.2
	s1.2,6.8,1.8,10.2c0.8,4.6,1.5,9.1,2.2,13.7c0.7,4.6,1.3,9.2,1.9,13.8c0.1,0.6,0.2,1.2,0.2,1.9l0,0c2.4,19.7,4,39.6,4.6,59.8l0,0
	c0.2,3.9,0.3,7.8,0.3,11.6C2159.5,618.7,2159.9,622.4,2159.9,626.4z"/>
<path class="st0" d="M2159.9,788.5V1039c-720,0-1439.9,0-2159.8,0V789.8c9.5-1.7,19-3.4,28.5-5c25.3-4.2,50.7-8,76.1-11.8
	c16.4-2.4,32.9-4.6,49.5-6.3c12.2-1.2,24.4-2.1,36.7-3.1c14.9-1.3,29.8-2,44.7-2.3c21.7-0.6,43.4-0.2,65.1,1c12,0.6,24,1.4,36,2.1
	c17.8,1,35.4,3.7,53.2,5.3c25.4,2.2,50.5,5.8,75.6,9.4c47.9,7,95.7,14.5,143.6,22c48.9,7.6,97.6,16.8,147.1,21.8
	c19.8,2,39.6,3.1,59.5,3.8c12,0.3,24,0,36-1c13.1-1,26.3-1.7,39.3-3.3c28-3.5,55.5-9.6,82.4-18.1c31.9-10.2,62.2-23,92.7-35.6
	c29.4-12.2,59.4-23.3,91.1-30.9c22.3-5.4,45.2-9.3,68.2-10c40.1-1.3,80.3-0.6,120.1,5.3c37.3,5.5,74.2,12.5,110.6,20.9
	c28.8,6.6,57.5,13.8,86.1,21.2c38.7,10.1,77.4,19.8,116.3,29.3c19.7,4.8,39.5,9.3,59.5,13.3c29,5.8,58.3,11,88,14.3
	c21.5,2.4,42.9,4.8,64.7,4.9c17.9,0.1,35.7,0.3,53.6-1c18.1-1.3,36.2-2.8,54.1-5.2c38-5.3,75.7-12.9,112.8-22.7
	C2114.1,802.1,2137.1,795.5,2159.9,788.5z"/>
<path class="st3" d="M2129.6,640.1c-30.7-0.5-55.2-3.2-79-10.2c-7.6-2-14.7-5.6-20.9-10.4c-5.2-4.2-5.2-10.1,0.4-14
	c4-2.8,8.4-4.7,13.1-5.8c22.8-5.1,46.3-6.5,69.6-4.1c12,1.2,23.8,2.5,35.5,4.6c3.8,0.7,7.5,1.6,11.1,2.7
	c-0.6-20.2-2.2-40.1-4.6-59.8l0,0c-0.1-0.6-0.2-1.2-0.2-1.9c-2.6-0.2-5.1-0.3-7.6-0.4c-11.1-0.4-22.3-1.3-33.3-2.1
	c-19.1-1.4-38.1-0.6-57.2-1.4c-7.8-0.3-15.8-2.1-23.6-1.2c-20.5,2.3-41.1,0.2-61.6,1.5c-25.1,1.7-50.2,2.9-75.2,5.2
	c-53,4.9-104.5,15.2-156,26.1c-28.7,6.1-57.7,11.2-87,14.9c-13,1.6-26.1,2.6-39.3,3.6c-32,2.4-64,1.2-96,0.9
	c-12.4-0.1-25.2-0.4-37.6-2.2c-8.1-1.2-16.4-1-24.5-1.4c-12.6-0.5-25.1-1.4-37.7-2.1c-27-1.5-54-0.6-80.9-1.5
	c-24.9-0.8-49.7,0.3-74.6,0.5c-22.2,0.2-44.4,2.2-66.5,4.3c-34.9,3.2-69.5,8.2-103.9,15c-31.7,6.4-63.2,13.3-94.8,19.6
	c-24.8,5-49.8,9-75.3,10.7c-17.8,1.2-35.6,3-53.5,2.6c-17.6-0.4-35.1-1.4-52.6-2.5c-19.6-1.2-39-3.6-58.4-6.1
	c-28.8-3.7-56.6-10.6-83.9-19c-30.1-9.2-58.4-21.7-87.8-32c-29-10.1-58.9-17.5-89.2-22.1c-14.4-2.2-28.9-3.5-43.5-4.8
	c-20.6-1.9-40.3,0.1-60,4.4c-15.5,3.4-29.4,9.8-43.1,16.3c-14.2,6.8-27.9,14.4-42.5,20.7c-23.1,9.9-47.8,16.2-73.3,20.3
	c-36.5,5.8-73.5,6.7-110.4,5.6c-13.4-0.4-26.9-0.9-40.3-2.3c-13-1.3-26.2-2.1-39.3-3.3c-13.7-1.3-27.3-2.8-41-4L0.4,605
	c0,0.6,0,1.2,0,1.8c-0.1,3.2-0.2,6.5-0.2,9.7s-0.1,6.6-0.1,9.9v102.9c6.8,0.5,13.7,1.4,20.4,2.8c6.4,1.3,12.6,3.7,18.2,7.1
	c9.2,5.5,9.6,14.2,1,20.3c-6.1,4.4-13.5,7-21.1,8.7c-6.1,1.4-12.3,2.7-18.5,3.5v38.5c9.5-1.7,19-3.4,28.5-4.9
	c25.3-4.2,50.7-8,76.1-11.8c16.4-2.4,32.9-4.6,49.5-6.3c12.2-1.2,24.4-2.1,36.7-3.1c14.9-1.3,29.8-2,44.7-2.4
	c21.7-0.6,43.4-0.2,65.1,1c12,0.6,24,1.4,36,2.1c17.8,1,35.4,3.7,53.1,5.3c25.4,2.2,50.5,5.8,75.6,9.4c48,7,95.8,14.5,143.6,22
	c49,7.6,97.6,16.8,147.1,21.8c19.7,2,39.6,3.1,59.5,3.8c12,0.3,24,0,36-1c13.1-1,26.3-1.7,39.3-3.3c28-3.5,55.5-9.5,82.4-18
	c31.9-10.2,62.2-23,92.7-35.6c29.4-12.3,59.4-23.3,91.1-30.9c22.3-5.4,45.2-9.3,68.3-10c40.1-1.3,80.3-0.6,120.1,5.3
	c37.3,5.5,74.2,12.5,110.6,20.9c28.8,6.6,57.5,13.8,86.1,21.2c38.7,10.1,77.4,19.8,116.3,29.3c19.7,4.8,39.5,9.3,59.5,13.3
	c29.1,5.8,58.3,11,88,14.3c21.5,2.4,43,4.8,64.7,4.9c17.8,0.1,35.7,0.3,53.6-1c18.1-1.3,36.2-2.8,54.1-5.2
	c38-5.3,75.7-12.9,112.8-22.7c23.2-6,46.2-12.6,69-19.6V637.3C2148.1,639.2,2136.6,640.6,2129.6,640.1z M1788.5,786.2
	c-3.8,2-7.9,3.4-12.1,4.3c-16.3,3.2-32.9,4.3-49.4,3.1c-13.7-0.8-27.3-2.5-40.7-5c-8-1.6-15.7-4.1-21.7-9.1
	c-4.6-3.9-4.5-6.1,0.5-9.6c2.1-1.4,4.5-2.4,7-3.1c9.5-2.8,19.3-4.3,29.2-4.4c5.3,0,10.5,0,18.3,0c18-1,37.8,1.7,57.2,7
	c4.6,1.2,9,3.3,12.9,6C1794.6,778.9,1794,783.5,1788.5,786.2z M1498,669.5c-16.1-1.7-31.7-4.5-46.1-10.9c-3.8-1.6-7.2-3.9-10.2-6.8
	c-4.5-4.3-4-10.6,1.3-14.2c3.5-2.3,7.4-4.1,11.4-5.3c13.2-4.2,26.9-4.5,40.6-4c20.7-1,41.4,1.9,61,8.7c6.3,2.2,12,5.1,16.4,9.5
	c5.5,5.4,4.5,11.1-2.6,14.9c-5.6,2.9-11.5,5-17.7,6.2C1534.2,670.9,1516,671.5,1498,669.5L1498,669.5z M963.7,718.5
	c-4.4,3.5-9.3,6.2-14.7,8c-17.6,6.5-36.2,9.5-55.2,11.5c-11.7,1.2-23.4,1.2-35.1,1.2c-16.6,0-33.2-2.5-49.1-7.4
	c-3.5-1-6.7-2.8-9.5-5.1c-6.9-5.8-6.9-12.2,0.5-17.6c5.8-4,12.2-7.1,19-9.1c22.4-7.3,45.8-10.5,81-10.5c14.9-0.7,32.9,0.5,50.3,5.8
	c4.6,1.3,9,3.3,12.9,6.2C970.1,706.3,971.7,711.8,963.7,718.5L963.7,718.5z M581.4,744.3c-10.9,3.9-22.6,5.5-34.1,6.3
	c-11.9,0.8-24,1.2-35.9-1.2c-4-0.8-8.1-1.5-11.5-3.4c-5-2.7-5.3-5.5-1.1-8.8c3.9-3.1,8.9-4.6,13.9-5.9c13-3.1,26.4-4.4,36.4-3.9
	c12.9,0.2,22.3-0.6,31.4,2c4.5,1.2,10.3,2.2,10.5,6.5C591.3,740.2,586,742.7,581.4,744.3L581.4,744.3z"/>
<path class="st3" d="M2154.6,541.3c-0.6-4.6-1.2-9.3-1.9-13.8c-0.7-4.6-1.4-9.2-2.2-13.7c-0.6-3.4-1.2-6.8-1.8-10.2s-1.3-6.8-2-10.2
	c-0.9-4.5-1.9-9-2.8-13.5c-2-9-4.1-17.9-6.5-26.7c-0.7-2.7-1.4-5.3-2.2-8c-0.4-1.5-0.8-2.9-1.2-4.4c-0.7-2.4-1.4-4.9-2.1-7.3
	c-0.9,0.3-1.9,0.6-2.8,0.9s-1.9,0.6-2.8,0.9c-0.1,0-0.3,0.1-0.4,0.1c-0.1,0-0.3,0.1-0.4,0.1c-0.5,0.2-1,0.3-1.5,0.5l-0.3,0.1
	c-0.1,0-0.2,0.1-0.3,0.1c-0.4,0.1-0.7,0.2-1.1,0.3c-0.4,0.1-0.9,0.3-1.4,0.4c-0.1,0-0.1,0.1-0.2,0.1l0,0c0,0,0,0-0.1,0l0,0l0,0
	c0,0,0,0-0.1,0l-0.5,0.2h-0.1c-1,0.3-2.1,0.6-3.1,0.9l-1.8,0.5c-0.8,0.2-1.6,0.5-2.4,0.7s-1.8,0.5-2.7,0.8l-0.7,0.2h-0.2h-0.1
	c-0.1,0.1-0.2,0.1-0.4,0.1l-2.7,0.7l-2.8,0.7c-0.5,0.1-1,0.2-1.6,0.4c-0.2,0-0.4,0.1-0.5,0.1c-2,0.5-4.1,1-6.1,1.5
	c-1.1,0.3-2.2,0.5-3.2,0.8c-0.3,0.1-0.6,0.1-0.9,0.2h-0.1c-0.2,0.1-0.4,0.1-0.6,0.1c-0.1,0-0.1,0-0.2,0l-0.4,0.1l-0.4,0.1
	c-1.8,0.4-3.7,0.8-5.5,1.2l-3.1,0.6c-0.5,0.1-0.9,0.2-1.4,0.3c-1.1,0.2-2.2,0.4-3.2,0.6c-1.3,0.3-2.5,0.5-3.8,0.7
	c-2.7,0.5-5.4,1-8.1,1.5l-6.1,1l-0.7,0.1c-0.1,0-0.2,0-0.3,0.1c-1.2,0.2-2.4,0.4-3.7,0.6c-3.8,0.6-7.7,1.2-11.5,1.7
	c-2,0.3-4.1,0.6-6.1,0.8c-2,0.3-4.1,0.5-6.1,0.8l-6.1,0.7c-5.4,0.6-10.9,1.2-16.4,1.7c-2.2,0.2-4.4,0.4-6.6,0.7
	c-0.5,0-0.9,0.1-1.3,0.1c-1.8,0.2-3.7,0.3-5.5,0.5l-2.2,0.2c-2,0.2-3.9,0.4-5.9,0.6c-2.4,0.2-4.8,0.4-7.2,0.6
	c-3.6,0.3-7.2,0.6-10.8,0.8c-1.2,0.1-2.4,0.1-3.6,0.2c-1.2,0.1-2.6,0.1-3.8,0.2c-1.3,0-2.6,0.1-3.8,0.1h-0.9h-0.2
	c-0.1,0-0.2,0-0.4,0h-0.3h-1.4h-0.2c-1.6,0-3.1,0-4.6,0c-5.2,0-10.3,0-15.4,0c-16.6,0-33.1,0.1-49.7-1.2l-7.9-0.6
	c-0.4,0-0.9,0-1.3-0.1c-1-0.1-2.1-0.2-3.1-0.3h-0.3c-0.7,0-1.3-0.1-2-0.2c-3-0.2-6.1-0.5-9.1-0.8c-5.2-0.5-10.5-1-15.7-1.7
	c-5.2-0.6-10.4-1.3-15.6-2c-1.3-0.2-2.6-0.3-3.9-0.5l-3.9-0.6c-2.8-0.4-5.6-0.8-8.4-1.3c-2.8-0.5-5.6-0.9-8.4-1.4
	c-2.8-0.5-5.6-0.9-8.4-1.4l0,0c-5.5-1-11.1-2-16.6-3.1c-3.8-0.7-7.6-1.5-11.4-2.3c-3.8-0.8-7.4-1.5-11.1-2.3
	c-0.8-0.2-1.5-0.3-2.3-0.5l-9.3-2.1l-11.3-2.6c-3.8-0.9-7.5-1.8-11.3-2.7s-7.5-1.9-11.2-2.8l-11.2-2.9c-3.7-1-7.4-1.9-11.2-2.9
	c-4.2-1.1-8.3-2.3-12.5-3.5c-4.2-1.2-8.3-2.4-12.5-3.5c-8.3-2.3-16.7-4.6-25.2-6.4c-3.6,0-22.3-7.1-25.6-8c-7.6-2-15.2-4.1-22.7-6.2
	c-16.9-4.7-33.6-9.7-50.6-14.2c-35.7-9.5-71.6-18.4-108.3-24.8c-17.7-3.1-114.5-14.8-132.8-14.9c-4.1,0.1-136.3,9.7-140.4,10.2
	c-39.8,5.1-78.9,12.4-118.1,19.7h-0.1l0,0l0,0l-3.2,0.6l-7.8,1.5l-10,1.9c-6.2,1.2-12.4,2.2-18.6,3.2c-1.5,0.3-3,0.5-4.5,0.7
	c-1.9,0.3-3.9,0.6-5.8,0.9l-1.7,0.2l-1.7,0.2c-0.9,0.1-1.8,0.3-2.7,0.4l-2.9,0.4c-0.7,0.1-1.5,0.2-2.2,0.3c-1.7,0.2-3.4,0.4-5,0.6
	l0,0c-2.6,0.3-5.2,0.6-7.8,0.8l-0.9,0.1c-0.2,0-0.3,0-0.5,0c-0.1,0-0.3,0-0.4,0c-0.1,0-0.3,0-0.4,0c-0.3,0-0.6,0.1-0.9,0.1l-3.9,0.3
	c-0.3,0-0.5,0-0.8,0c-3.2,0.3-6.3,0.5-9.5,0.6c-0.1,0-0.2,0-0.3,0c-20.3,1-40.6,0.5-60.8-1.6c-8.6-0.9-17.3-2-25.9-3.3
	c-3.9-0.6-7.8-1.2-11.6-1.9c-3.8-0.7-7.8-1.3-11.6-2c-3.9-0.7-7.7-1.4-11.6-2.1l-17.4-3.2c-3-0.5-6-1.1-8.9-1.6
	c-0.3,0-0.7-0.1-1-0.2h-0.2l-0.6-0.1l-0.8-0.2c-1.9-0.3-3.9-0.7-5.8-1c-1-0.2-1.9-0.3-2.9-0.5c-1.7-0.3-3.4-0.6-5.1-0.8l-2.8-0.4
	l-0.5-0.1l-1.5-0.2c-1-0.2-1.9-0.3-2.9-0.4c-1.3-0.2-2.5-0.4-3.8-0.6s-2.5-0.4-3.8-0.6c-2.2-0.3-4.4-0.6-6.7-0.9
	c-1.1-0.2-2.3-0.3-3.4-0.5l0,0l-0.9-0.1c-0.1,0-0.2,0-0.3,0h-0.1l-3.1-0.4c-1.7-0.2-3.3-0.4-5-0.6c-0.2,0-0.5-0.1-0.7-0.1l0,0
	l-3.8-0.4c-0.4-0.1-0.8-0.1-1.2-0.1c-0.5-0.1-1-0.1-1.5-0.2c-0.3,0-0.6-0.1-0.8-0.1h-0.3H741h-0.5c-0.3,0-0.5-0.1-0.8-0.1
	c-3-0.3-6-0.6-9-0.9h-0.1c-0.5-0.1-0.9-0.1-1.4-0.1c-0.2,0-0.4,0-0.6,0h-0.6c-0.2,0-0.3,0-0.5,0h-0.1h-0.1c-0.1,0-0.2,0-0.3,0
	c-0.1,0-0.2,0-0.2,0h-0.3c-0.4,0-0.8-0.1-1.2-0.1H725l-1.2-0.1c-0.5,0-1-0.1-1.4-0.1c-2.4-0.2-4.9-0.4-7.3-0.5
	c-2.4-0.1-4.9-0.3-7.3-0.4l-4-0.2h-0.7c-2.1-0.1-4.2-0.2-6.3-0.2c-3-0.1-6-0.1-9.1-0.2c-7.4,0-14.7,0.2-22,0.5
	c-12,0.5-23.9,1.4-35.9,2.2l-0.9,0.1c-2,0.2-4,0.3-6,0.5c-3.3,0.3-6.6,0.6-9.8,1l-0.6,0.1c-2.1,0.3-4.1,0.5-6.2,0.8
	c-3.1,0.4-6.1,0.9-9.2,1.4c-2.3,0.4-4.5,0.8-6.8,1.2s-5,1.1-7.3,1.6c-2.3,0.4-4.2,0.9-6.3,1.4c-1.2,0.2-2.4,0.5-3.6,0.8
	c-2.4,0.6-4.9,1.2-7.3,1.8c-2.4,0.6-5.1,1.3-7.7,2.1c-0.2,0.1-0.5,0.1-0.7,0.2l-3,0.8l-2,0.6c-1.4,0.4-2.7,0.8-4.1,1.3
	c-1.7,0.5-3.5,1.1-5.2,1.6c-25.1,8.1-50.7,14.4-76.8,18.7c-3.3,0.6-6.6,1.2-9.9,1.6l-1.5,0.2c-0.8,0.1-1.7,0.3-2.5,0.4
	c-3.9,0.6-7.8,1.2-11.7,1.7c-0.9,0.2-1.8,0.3-2.7,0.4l-2.7,0.4c-2.3,0.3-4.6,0.6-6.9,0.9c-2.3,0.3-4.6,0.6-6.9,0.9
	c-1.6,0.2-3.3,0.4-4.9,0.6c-0.6,0.1-1.3,0.2-2,0.2l-6.9,0.8c-0.4,0-0.8,0.1-1.2,0.1c-6.6,0.7-13.4,1.4-20.1,2.1l0,0
	c-27.4,2.6-54.7,5.4-82.3,5.5c-26.1,0.1-52.3,0.8-78.3-1.8l-6.5-0.7l-0.6-0.1c-0.3,0-0.5-0.1-0.8-0.1c-2.6-0.3-5.1-0.6-7.7-0.9H210
	c0,0-0.1,0-0.1,0c-1.6-0.2-3.2-0.4-4.7-0.6c-4.5-0.6-9-1.2-13.5-1.8c-1.7-0.3-3.5-0.5-5.2-0.7h-0.2l-1.7-0.3l-2-0.3l-4.7-0.7
	c-2.3-0.4-4.6-0.7-7-1.2c-6-1-12.1-2.1-18.1-3.2l0,0c-1.4-0.2-2.8-0.5-4.3-0.8l0,0c-3.4-0.7-6.7-1.3-10-2c-7.5-1.5-15-3.1-22.5-4.6
	c-15-3.1-30-6.1-45.1-9.1c-2.7-0.5-5.4-1.1-8.1-1.6c-5.5-1.1-11-2.1-16.5-3.1l0,0C18.3,452,2.8,528,0.5,605c0,0.6,0,1.2,0,1.8
	c1,0.1,2,0.2,3,0.3c13.7,1.2,27.3,2.7,41,4c13.1,1.3,26.3,2,39.3,3.3c13.4,1.3,26.9,1.8,40.3,2.3c36.9,1.2,73.9,0.3,110.4-5.6
	c25.5-4.1,50.2-10.3,73.3-20.3c14.6-6.3,28.2-13.9,42.5-20.7c13.7-6.5,27.6-12.9,43.1-16.3c19.7-4.4,39.3-6.4,60-4.5
	c14.6,1.4,29.1,2.6,43.5,4.8c30.4,4.6,60.2,12,89.2,22.1c29.5,10.2,57.8,22.8,87.8,32c27.3,8.3,55.1,15.3,84,19
	c19.4,2.5,38.7,4.9,58.4,6c17.5,1.1,35,2.1,52.6,2.5c17.8,0.4,35.6-1.3,53.5-2.6c25.5-1.8,50.5-5.8,75.3-10.7
	c31.7-6.3,63.2-13.2,94.8-19.6c34.3-6.8,69-11.8,103.9-15c22-2.1,44.3-4.1,66.5-4.3c24.9-0.2,49.7-1.4,74.6-0.5
	c26.9,0.9,54,0,80.9,1.5c12.6,0.7,25.1,1.6,37.7,2.1c8.1,0.3,16.5,0.2,24.5,1.4c12.5,1.8,25.2,2.1,37.6,2.2c32,0.2,64,1.5,96-0.9
	c13.1-1,26.3-1.9,39.3-3.6c29.3-3.7,58.3-8.8,87-14.9c51.4-10.9,103-21.2,156-26c25-2.3,50.1-3.5,75.2-5.2
	c20.5-1.3,41.1,0.9,61.6-1.5c7.8-0.9,15.8,0.9,23.6,1.2c19,0.7,38.1-0.1,57.2,1.3c11,0.8,22.2,1.7,33.3,2.1c2.6,0.1,5.2,0.2,7.8,0.4
	C2154.8,542.5,2154.7,542,2154.6,541.3z M226,578.7c-9.4,5.8-20.2,8.7-31.3,11.3c-26.5,6.2-53.7,7.3-81,6.1
	c-11.3-0.5-22.7-1.8-33.5-5.5c-4.1-1.4-8.2-2.6-11.5-5.2c-6.3-4.9-6.5-9.5-0.2-14.3c5.5-4,11.7-6.9,18.2-8.7
	c25.4-7.5,51.8-10.8,78.2-9.8c14.8-0.4,29.1-0.2,43.2,2.8c5.9,1.2,11.6,3.2,17.1,5.8C234.9,565.9,235.1,573.1,226,578.7z
	 M520.4,525.2c-2.6,2.1-5.8,3.6-9.1,4.2c-7.9,1.8-15.9,3.2-24.5,2.6c-6,0.7-12-0.5-18-1.5c-1.7-0.3-3.4-0.7-5-1.4
	c-2.6-1.2-5.2-2.6-4.9-5.5c0.3-2.4,2.6-3.7,5.2-4.5c13.3-4.4,27.5-5.7,41.4-3.9c4.9,0.7,9.9,1.2,14.2,3.6
	C523.4,521,523.6,522.4,520.4,525.2z M807.8,481.2c-1.5,0.8-3.1,1.4-4.7,1.8c-8.1,2.4-16.4,3.3-24.9,4.1
	c-11.1,1.1-22.1,0.3-33.2-0.1c-6.1-0.4-12.1-1.4-18-3.1c-2.6-0.7-5.1-1.9-5-4.5c0.1-2.2,2.3-3.4,4.5-4.1c5.2-1.7,10.6-2.9,16-3.7
	c2.9-0.4,5.8-0.6,8.8-0.8c5.8-0.2,11.7,0,19.7,0c7.4,0.2,17.1-0.6,26.7,1.4c2.9,0.5,5.8,1.4,8.5,2.6c0.4,0.2,0.8,0.4,1.2,0.6
	C810.8,477.1,810.9,479.3,807.8,481.2L807.8,481.2z M1673.7,477.2c-0.5,2.7-3.7,3.6-6.5,4.2c-9.6,2.1-19.5,2.9-29.3,2.6
	c-4.9-0.3-10,0.9-14.6-1.4c-10.2,0.5-20.3-1.1-29.8-4.6c-2.5-1-6.2-1.6-5.6-4.7c0.5-2.7,3.7-3.6,6.6-4.2c9.4-1.9,34.4-1.6,44.1-1.1
	c10.1-0.7,20.2,0.9,29.7,4.5C1670.7,473.4,1674.4,474.1,1673.7,477.2L1673.7,477.2z"/>
<path class="st1" d="M426.8,217.8l-0.5,0.2l0.7-0.2H426.8z"/>
<path class="st1" d="M2132,433.3c-0.9,0.3-1.9,0.6-2.8,0.9c-0.9,0.3-1.9,0.6-2.8,0.9c-0.1,0-0.3,0.1-0.4,0.1c-0.1,0-0.3,0.1-0.4,0.1
	c-0.5,0.2-1,0.3-1.5,0.5l-0.3,0.1c-0.1,0-0.2,0.1-0.3,0.1c-0.4,0.1-0.7,0.2-1.1,0.3c-0.4,0.1-0.9,0.3-1.4,0.4
	c-0.1,0-0.1,0.1-0.2,0.1l0,0c0,0,0,0-0.1,0l0,0l0,0c0,0,0,0-0.1,0l-0.5,0.2c-1.8,0.6-3.7,1.1-5.5,1.6c-1.8,0.5-3.6,1-5.3,1.5h-0.2
	h-0.1c-0.1,0.1-0.2,0.1-0.4,0.1l-2.7,0.7l-2.7,0.7c-0.5,0.1-1,0.2-1.6,0.4c-0.2,0-0.4,0.1-0.5,0.1c-2,0.5-4.1,1-6.1,1.5
	c-1.1,0.3-2.2,0.5-3.2,0.8c-0.3,0.1-0.6,0.1-0.9,0.2h-0.1c-0.2,0.1-0.4,0.1-0.6,0.1c-0.1,0-0.1,0-0.2,0l-0.4,0.1l-0.4,0.1
	c-1.8,0.4-3.7,0.8-5.5,1.2l-3.1,0.6c-0.5,0.1-0.9,0.2-1.4,0.3c-1.1,0.2-2.2,0.4-3.2,0.6c-1.3,0.3-2.5,0.5-3.8,0.7
	c-2.7,0.5-5.4,1-8.1,1.5l-6.1,1l-0.7,0.1c-0.1,0-0.2,0-0.3,0.1c-1.2,0.2-2.4,0.4-3.7,0.6c-3.8,0.6-7.7,1.2-11.5,1.7
	c-2,0.3-4.1,0.6-6.1,0.8s-4.1,0.5-6.1,0.8l-6.1,0.7c-5.4,0.6-10.9,1.2-16.4,1.7c-2.2,0.2-4.4,0.4-6.6,0.7c-0.5,0-0.9,0.1-1.3,0.1
	c-1.8,0.2-3.7,0.3-5.5,0.5l-2.2,0.2c-2,0.2-3.9,0.4-5.9,0.6c-2.4,0.2-4.8,0.4-7.2,0.6c-3.6,0.3-7.2,0.6-10.8,0.8
	c-1.2,0.1-2.4,0.1-3.6,0.2c-1.2,0.1-2.6,0.1-3.8,0.2c-1.3,0-2.6,0.1-3.8,0.1h-0.9h-0.2c-0.1,0-0.2,0-0.4,0h-0.3h-1.4h-0.2
	c-1.6,0-3.1,0-4.6,0c-5.2,0-10.3,0-15.4,0c-16.6,0-33.1,0.1-49.7-1.2l-7.9-0.6c-0.4,0-0.9,0-1.3-0.1c-1-0.1-2.1-0.2-3.1-0.3h-0.3
	c-0.7,0-1.3-0.1-2-0.2c-3-0.2-6.1-0.5-9.1-0.8c-5.2-0.5-10.5-1-15.7-1.7c-5.2-0.6-10.4-1.3-15.6-2c-1.3-0.2-2.6-0.3-3.9-0.5
	l-3.9-0.6c-2.8-0.4-5.6-0.8-8.4-1.3c-2.8-0.5-5.6-0.9-8.4-1.4c-2.8-0.5-5.6-0.9-8.4-1.4l0,0c-5.5-1-11.1-2-16.6-3.1
	c-3.8-0.7-7.6-1.5-11.4-2.3c-3.8-0.8-7.4-1.5-11.1-2.3c-0.8-0.2-1.5-0.3-2.3-0.5l-9.3-2.1l-11.3-2.6c-3.8-0.9-7.5-1.8-11.3-2.7
	c-3.8-0.9-7.5-1.9-11.2-2.8l-11.2-2.9c-3.7-1-7.4-1.9-11.2-2.9c-4.2-1.1-8.3-2.3-12.5-3.5c-4.2-1.2-8.3-2.4-12.5-3.5
	c-8.3-2.3-16.7-4.6-25.2-6.4c-3.6,0-22.3-7.1-25.6-8c-7.6-2-15.2-4.1-22.7-6.2c15.2,0.8,30.4,2.2,45.6,3.6
	c34.9,3.3,69.5,8.4,103.9,15.3c31.7,6.4,63.2,13.3,94.8,19.6c3.1,0.6,6.2,1.2,9.3,1.8c21.8,4.3,43.9,7.2,66,8.9
	c17.8,1.2,35.6,3,53.5,2.6c17.6-0.4,35.1-1.4,52.6-2.5c19.6-1.2,39-3.6,58.4-6c2-0.3,4-0.5,6-0.8c1.6-0.2,3.2-0.5,4.8-0.7l0,0
	l4.8-0.8c3.2-0.5,6.3-1.2,9.5-1.7c0.9-0.2,1.9-0.3,2.8-0.5c1.4-0.3,2.9-0.6,4.3-0.9c1.7-0.3,3.4-0.7,5-1.1c3-0.6,6.1-1.4,9.1-2.1
	c1.2-0.3,2.3-0.5,3.4-0.8c2.3-0.6,4.6-1.2,7-1.8C2131.3,431,2131.6,432.2,2132,433.3z"/>
<path class="st1" d="M1040,374.1l-11.2,2.1l-10,1.9c-6.2,1.2-12.4,2.2-18.6,3.2c-1.5,0.3-3,0.5-4.5,0.7c-2.5,0.4-5,0.8-7.6,1.2
	l-1.7,0.2c-0.9,0.1-1.8,0.3-2.7,0.4l-2.9,0.4c-0.7,0.1-1.5,0.2-2.2,0.3c-1.7,0.2-3.4,0.5-5,0.6c-2.6,0.3-5.2,0.6-7.8,0.8l-0.9,0.1
	c-0.2,0-0.3,0-0.5,0c-0.3,0-0.6,0.1-0.8,0.1c-0.3,0-0.6,0.1-0.9,0.1l-3.9,0.3c-0.3,0-0.5,0-0.8,0c-3.2,0.3-6.3,0.5-9.5,0.6
	c-0.1,0-0.2,0-0.3,0c-29,1.4-58.1-0.2-86.7-4.8c-3.9-0.6-7.8-1.2-11.6-1.9s-7.8-1.3-11.6-2s-7.7-1.4-11.6-2.1l-17.4-3.2
	c-3-0.5-6-1.1-8.9-1.6c-0.3,0-0.7-0.1-1-0.2h-0.2l-0.6-0.1l-0.8-0.2c-1.9-0.3-3.9-0.7-5.8-1c-1-0.2-1.9-0.3-2.9-0.5
	c-1.7-0.3-3.4-0.6-5.1-0.8c-1.7-0.3-3.2-0.5-4.8-0.7c-2.3-0.4-4.5-0.7-6.7-1c-1.3-0.2-2.5-0.4-3.8-0.6c-2.2-0.3-4.4-0.6-6.7-0.9
	c-1.2-0.2-2.3-0.3-3.5-0.5l-0.9-0.1c-0.1,0-0.2,0-0.3,0h-0.1l-3.1-0.4c-1.9-0.2-3.8-0.5-5.8-0.7l0,0l-3.8-0.4l-2.7-0.3h-0.5
	c-0.1,0-0.2,0-0.3,0h-0.3h-0.1h-0.5c-0.3,0-0.5-0.1-0.8-0.1c-3-0.3-6-0.6-9-0.9h-0.1c-0.5-0.1-0.9-0.1-1.4-0.1c-0.2,0-0.4,0-0.6,0
	h-0.6c-0.2,0-0.3,0-0.5,0h-0.1H727c-0.1,0-0.2,0-0.3,0c-0.1,0-0.2,0-0.2,0h-0.3c-0.4,0-0.8-0.1-1.2-0.1h-0.3l-1.2-0.1
	c-0.5,0-1-0.1-1.4-0.1c-2.4-0.2-4.9-0.4-7.3-0.5c-2.4-0.1-4.9-0.3-7.3-0.4l-4-0.2h-0.7c-2.1-0.1-4.2-0.2-6.3-0.2
	c-3-0.1-6-0.1-9.1-0.2c-19.7-0.1-39.2,1.3-58.8,2.7c-2,0.2-4,0.3-6,0.5c-3.3,0.3-6.6,0.6-9.8,1l-0.6,0.1c-2.1,0.3-4.1,0.5-6.2,0.8
	c-3.1,0.4-6.1,0.9-9.2,1.4c-2.3,0.3-4.5,0.8-6.8,1.2c-2.3,0.4-4.6,0.4-6.9,0.8c-2.3,0.4-4.2,0.9-6.3,1.4c-1.2,0.2-2.4,0.5-3.6,0.8
	c-2.4,0.6-4.9,1.2-7.3,1.8c-2.4,0.6-5.1,1.3-7.7,2.1l-3.6,1l-2,0.6c-1.4,0.4-2.7,0.8-4.1,1.3c-1.7,0.5-3.5,1.1-5.2,1.6
	c-25.1,8.1-50.7,14.4-76.8,18.7c-3.3,0.6-6.6,1.2-9.9,1.6l-1.5,0.2c-0.8,0.1-1.7,0.3-2.5,0.4c-1.9,0.3-3.9,0.6-5.9,0.9
	c-2,0.3-3.9,0.6-5.8,0.8c-0.9,0.2-1.8,0.3-2.7,0.4l-2.7,0.4c-2.3,0.3-4.6,0.6-6.9,0.9c-2.3,0.3-4.6,0.6-6.9,0.9
	c-1.6,0.2-3.3,0.4-4.9,0.6c-0.6,0.1-1.3,0.2-2,0.2l-6.9,0.8c-0.4,0-0.8,0.1-1.2,0.1c-6.6,0.7-13.4,1.4-20.1,2.1l0,0
	c-27.4,2.6-54.7,5.4-82.3,5.5c-26.1,0.1-52.3,0.8-78.3-1.8l-6.5-0.7l-0.6-0.1c-0.3,0-0.5-0.1-0.8-0.1c-2.6-0.3-5.1-0.6-7.7-0.9h-0.2
	c0,0-0.1,0-0.1,0c-1.6-0.2-3.2-0.4-4.7-0.6c-4.5-0.6-9-1.2-13.5-1.8c-1.7-0.3-3.5-0.5-5.2-0.7h-0.2l-1.7-0.3l-2-0.3L178,406
	c-2.3-0.4-4.6-0.7-7-1.2c-6-1-12.1-2.1-18.1-3.2c18.8,0,37.5-1.6,56.3-2.6c11.7-0.6,23.4-1.3,35.1-2c11.1-0.7,22.3-0.6,33.2-2.3
	c7.5-1.2,15.2-1,22.7-1.4c10.2-0.6,20.4-1.8,30.6-2.1c9.6-0.2,19.2-1.4,28.8-2.3c7-0.6,14-1.2,21-1.7c21.9-1.7,43.6-4,65.5-5.8
	c22.2-1.8,44.2-4.3,66.3-6.3c14.9-1.3,29.6-3.5,44.4-5.2c19.7-2.2,39.5-4.3,59.2-6.5c16.2-1.8,32.5-3.6,48.7-5.3
	c6.7-0.7,13.4-1.3,20.1-1.5c11.1-0.4,22.3-1.3,33.3-2.1c19.1-1.4,38.1-0.6,57.2-1.3c7.8-0.3,15.8-2.1,23.6-1.2
	c20.5,2.4,41.1,0.2,61.5,1.5c25.1,1.6,50.2,2.9,75.2,5.2c26.8,2.4,53.1,6.3,79.3,10.9c0.1,0,0.3,0,0.4,0.1h0.1c0.2,0,0.4,0,0.6,0.1
	h0.2l0.4,0.1c0.1,0,0.2,0,0.3,0h0.1c5.1,0.9,10.1,1.8,15.1,2.7c0.2,0,0.4,0.1,0.6,0.1c0.1,0,0.1,0,0.2,0c0.3,0,0.6,0.1,0.9,0.2
	c0.2,0,0.5,0.1,0.7,0.1c0.9,0.2,1.8,0.3,2.6,0.5c0.1,0,0.2,0,0.3,0l2.3,0.5c0,0.1,0,0.2,0.1,0.2C1039.9,374.2,1040,374.2,1040,374.1
	L1040,374.1z"/>
<path class="st1" d="M918.2,42.1c10,0.3,20,0.2,30-0.4C938.2,42.3,928.2,42.3,918.2,42.1z M1028.9,30.7c-3.3,0.6-6.7,1.3-10,1.9
	L1028.9,30.7l29.6-5.5C1048.6,27,1038.7,28.8,1028.9,30.7L1028.9,30.7z M1279.5-0.1l-1.8,0.2c1.2-0.1,2.4-0.2,3.6-0.3
	C1280.6-0.2,1280.1-0.1,1279.5-0.1L1279.5-0.1z M1286.4-0.6L1286.4-0.6l-0.8,0.1c0.5,0,1.1-0.1,1.6-0.1L1286.4-0.6z M1294.2-1.1
	h-0.5l1.7-0.1L1294.2-1.1z M1298.5-1.4h-0.3H1298.5c0.8,0,1.9,0,3.1,0.1C1300.4-1.4,1299.4-1.4,1298.5-1.4L1298.5-1.4z M1431.4,13.5
	l-1-0.2C1430.8,13.4,1431.1,13.5,1431.4,13.5c10.3,1.8,20.6,3.8,30.8,5.9C1451.9,17.3,1441.7,15.3,1431.4,13.5L1431.4,13.5z
	 M807.6,127.7c-3.1-1.5-6.3-2.6-9.7-3.2c-9.6-2-19.3-1.2-26.7-1.4c-8.1,0-13.9-0.2-19.7,0.1c-8.4,0.3-16.8,1.8-24.8,4.4
	c-2.2,0.7-4.4,1.9-4.5,4.1c0,0.4,0.1,0.8,0.2,1.2c0.6-1.7,2.5-2.6,4.4-3.3c8-2.5,16.4-4,24.8-4.4c5.8-0.3,11.7,0,19.8,0
	c7.4,0.1,17.1-0.6,26.7,1.4c3.4,0.6,6.7,1.7,9.7,3.2c0.9,0.4,1.6,1,2.2,1.9C810.5,130.3,809.8,128.9,807.6,127.7z"/>
<path class="st1" d="M1985.8,193.6c-5.1,0.9-10.3,1.8-15.4,2.6c-28.6,4.7-57.7,6.3-86.7,5c-1.3-0.1-2.6-0.1-3.9-0.2
	c5.4-0.6,10.9-1.2,16.3-1.7c25-2.3,50.1-3.5,75.2-5.2C1976.2,193.7,1981,193.6,1985.8,193.6z"/>
<path class="st1" d="M2003.4,193.7c-5.9,0-11.8-0.2-17.6-0.1c5.1-0.9,10.2-1.8,15.3-2.7C2001.9,191.8,2002.7,192.7,2003.4,193.7z"/>
<path class="st1" d="M424.1,218.6l-2.4,0.7c-3.7,1-7.4,2-11.1,2.9c3.7-0.9,7.4-2,11.1-3C422.5,219,423.3,218.8,424.1,218.6z"/>
<path class="st1" d="M481.6,207.6c-4,0.5-8.1,1.1-12.1,1.7C473.5,208.6,477.5,208,481.6,207.6z"/>
<path class="st1" d="M2003.4,193.7c-5.9,0-11.8-0.2-17.6-0.1c5.1-0.9,10.2-1.8,15.3-2.7C2001.9,191.8,2002.7,192.7,2003.4,193.7z"/>
<path class="st1" d="M1668.2,126.9c-9.5-3.6-19.6-5.2-29.7-4.5c-9.7-0.5-34.7-0.8-44.1,1.1c-2.9,0.6-6.1,1.5-6.6,4.2
	c-0.6,3.1,3.1,3.8,5.6,4.7c9.5,3.6,19.7,5.2,29.8,4.6c4.6,2.3,9.7,1.1,14.6,1.4c9.8,0.3,19.7-0.5,29.3-2.6c2.9-0.6,6-1.5,6.5-4.2
	C1674.4,128.5,1670.7,127.8,1668.2,126.9z M809.8,131.6c-0.5,0.8-1.2,1.4-2,1.8c-1.5,0.8-3.1,1.4-4.7,1.8c-0.6,0.2-1.2,0.4-1.9,0.5
	l4.5,0.7c0.7-0.3,1.4-0.6,2.1-1C809.8,134.3,810.5,132.9,809.8,131.6z M727,136.2c-2.1-0.6-4.2-1.5-4.8-3.3
	c-0.1,0.3-0.1,0.6-0.2,0.8c-0.1,2.3,1.9,3.5,4.2,4.2l5.7-0.6C730.2,137,728.6,136.6,727,136.2z"/>
<path class="st1" d="M46.3,380.3L46.3,380.3c5.5,1,11,2.1,16.5,3.1C57.3,382.3,51.8,381.3,46.3,380.3z M70.9,385
	c15.1,2.9,30.1,6,45.1,9.1C101,390.9,86,387.9,70.9,385z M421.7,219.2c-3.7,1-7.4,2-11.1,3C414.3,221.2,418,220.2,421.7,219.2
	l2.4-0.6C423.3,218.8,422.5,219,421.7,219.2z M426.8,217.8l-0.5,0.2l0.7-0.2H426.8z M1038,373.8c-0.1,0-0.3-0.1-0.4-0.1
	c-0.1,0-0.2,0-0.3,0c-0.9-0.2-1.8-0.3-2.6-0.5c-0.5-0.1-1.1-0.2-1.6-0.3c0.3,0,0.6,0.1,0.9,0.2l-1.2-0.2c-0.2-0.1-0.4-0.1-0.6-0.1
	c-5-0.9-10-1.9-15.1-2.7h-0.1c-0.1,0-0.2,0-0.3,0l-0.4-0.1l-0.7-0.1h-0.1c-0.1-0.1-0.3-0.1-0.4-0.1c-26.2-4.6-52.6-8.5-79.3-10.9
	c-25.1-2.3-50.1-3.6-75.2-5.2c-20.4-1.3-41.1,0.9-61.5-1.5c-7.8-0.9-15.8,0.9-23.6,1.2c-19,0.7-38.1-0.1-57.2,1.3
	c-11,0.8-22.2,1.7-33.3,2.1c-6.6,0.3-13.4,0.8-20.1,1.5c-16.2,1.8-32.5,3.6-48.7,5.3c-19.7,2.2-39.5,4.2-59.2,6.5
	c-14.8,1.7-29.5,3.8-44.4,5.2c-22,2-44.1,4.5-66.3,6.3c-21.8,1.8-43.6,4.1-65.5,5.8c-7,0.5-13.9,1-21,1.7
	c-9.6,0.9-19.2,2.1-28.8,2.3c-10.3,0.3-20.4,1.5-30.6,2.1c-7.5,0.5-15.3,0.3-22.7,1.4c-11,1.7-22.2,1.6-33.2,2.3
	c-11.6,0.7-23.4,1.5-35.1,2c-18.8,1-37.5,2.6-56.3,2.6l0,0c-1.4-0.2-2.8-0.5-4.3-0.8c0,0.3,0,0.5,0.1,0.8c1.4,0,2.8,0,4.2,0
	c6,1.2,12.1,2.2,18.1,3.2c2.3,0.4,4.6,0.8,7,1.2l4.7,0.7l2,0.3l1.7,0.3h0.2c1.7,0.3,3.5,0.5,5.2,0.7c4.5,0.6,9,1.2,13.5,1.8
	c1.6,0.2,3.1,0.4,4.7,0.6c0,0,0.1,0,0.1,0h0.2c2.6,0.3,5.1,0.6,7.7,0.9c0.3,0,0.5,0,0.8,0.1l0.6,0.1l6.5,0.7
	c26,2.6,52.2,1.8,78.3,1.8c27.6-0.1,54.9-2.8,82.3-5.5l0,0c6.7-0.7,13.4-1.3,20.1-2.1c0.4,0,0.8-0.1,1.2-0.1l6.9-0.8
	c0.7-0.1,1.3-0.2,2-0.2c1.6-0.2,3.3-0.4,4.9-0.6c2.3-0.3,4.6-0.6,6.9-0.9c2.3-0.3,4.6-0.6,6.9-0.9l2.7-0.4c0.9-0.1,1.8-0.2,2.7-0.4
	c1.9-0.3,3.9-0.5,5.8-0.8s3.9-0.6,5.9-0.9c0.8-0.1,1.7-0.3,2.5-0.4l1.5-0.3c3.3-0.5,6.6-1.1,9.9-1.6c26-4.3,51.7-10.6,76.8-18.7
	c1.7-0.6,3.5-1.2,5.2-1.6c1.4-0.5,2.7-0.9,4.1-1.3l2-0.6l3.6-1c2.6-0.7,5.1-1.4,7.7-2.1c2.6-0.7,4.9-1.2,7.3-1.8
	c1.2-0.3,2.3-0.6,3.6-0.8c2.1-0.5,4.2-0.9,6.3-1.4s4.5-0.9,6.8-1.3s4.5-0.8,6.8-1.2c3.1-0.5,6.1-1,9.2-1.4c2.1-0.3,4.2-0.6,6.2-0.8
	l0.6-0.1c3.3-0.4,6.5-0.7,9.8-1c2-0.2,4-0.3,6-0.5c19.6-1.4,39.1-2.8,58.8-2.7c3,0,6,0.1,9.1,0.2c2.1,0,4.2,0.1,6.3,0.2h0.7l4,0.2
	c2.5,0.1,4.9,0.2,7.3,0.4s4.9,0.3,7.3,0.5c0.5,0,1,0,1.4,0.1l1.2,0.1h0.3c0.4,0,0.8,0.1,1.2,0.1h0.3c0.1,0,0.2,0,0.2,0
	c0.1,0,0.2,0,0.3,0h0.1h0.1c0.2,0,0.3,0,0.5,0h0.6c0.2,0,0.4,0,0.6,0l3.1,0.3c2.7,0.2,5.5,0.5,8.2,0.8h0.5h0.1h0.3
	c0.1,0,0.2,0,0.3,0h0.5l2.7,0.3l3.8,0.4l0,0c1.9,0.2,3.8,0.4,5.8,0.7l3.1,0.4h0.1c0.1,0,0.2,0,0.3,0c0.3,0,0.6,0.1,0.9,0.1
	c3.4,0.5,6.7,0.9,10.1,1.4c1.7,0.2,3.3,0.5,5,0.7l2.4,0.3c1.1,0.2,2.1,0.3,3.1,0.5l1.5,0.2l0.5,0.1c0.7,0.1,1.4,0.2,2.2,0.3
	c2.1,0.3,4.3,0.7,6.5,1.1l4.7,0.8l3.3,0.5l0.8,0.2l0.6,0.1h0.2c0.3,0.1,0.7,0.1,1,0.2c3,0.5,6,1.1,8.9,1.6l17.4,3.2
	c3.9,0.7,7.7,1.4,11.6,2.1c3.9,0.7,7.8,1.4,11.6,2c3.9,0.7,7.8,1.3,11.6,1.9c28.6,4.7,57.7,6.3,86.7,5c0.1,0,0.2,0,0.3,0
	c3.2-0.2,6.3-0.4,9.5-0.6c0.3,0,0.5,0,0.8,0l3.9-0.3c0.3,0,0.6,0,0.9-0.1c0.1,0,0.3,0,0.4,0c0.1,0,0.3,0,0.4,0c0.2,0,0.3,0,0.5,0
	l0.9-0.1c2.6-0.2,5.2-0.5,7.8-0.8l0,0c1.7-0.2,3.4-0.4,5-0.6c0.7-0.1,1.5-0.2,2.2-0.3l2.9-0.4c0.9-0.1,1.8-0.2,2.7-0.4l1.7-0.2
	c2.5-0.4,5.1-0.7,7.6-1.2c1.5-0.2,3-0.5,4.5-0.7c6.2-1,12.4-2.1,18.6-3.2l10-1.9l11-2.1L1038,373.8z M1271,120.2
	c-4.6-0.2-9.3-0.3-14.1-0.3c-1.4,0-2.7,0-4.1,0c-2,0-4,0-6,0c-4.6,0-9.2,0.2-13.6,0.3l0,0c-40.2,1.7-70.3,8.3-70.3,16.2
	c0,7.7,27.8,14.1,65.9,16.1c4.1,0.2,8.4,0.3,12.8,0.4c3.7,0.1,7.5,0.2,11.4,0.2c4.2,0,8.4,0,12.5-0.2c4.4-0.1,8.6-0.3,12.8-0.5
	c37.4-2,64.8-8.4,64.8-16C1342.8,128.5,1312,121.7,1271,120.2z M1539.6,383.9c-35.7-9.5-71.6-18.4-108.3-24.8
	c-17.7-3.1-114.5-14.8-132.8-14.9c-4.1,0.1-136.3,9.7-140.4,10.2c-39.8,5.1-78.9,12.4-118.1,19.7c17.3,3.3,34.5,7,51.7,10.6
	c28.7,6.1,57.7,11.2,87,14.9c13,1.6,26.1,2.6,39.3,3.6c32,2.3,64,1.2,95.9,0.9c12.5-0.1,25.2-0.4,37.6-2.2c8.1-1.2,16.4-1,24.5-1.4
	c12.6-0.5,25.2-1.3,37.7-2.1c27-1.5,54-0.5,80.9-1.5c24.9-0.9,49.8,0.3,74.6,0.5c7,0.1,13.9,0.3,20.9,0.6
	C1573.4,393.4,1556.6,388.4,1539.6,383.9L1539.6,383.9z M1770.5,293c-60.3,0-109.3,9.9-109.3,22.1s48.9,22.1,109.3,22.1
	s109.3-9.9,109.3-22.1S1830.9,293,1770.5,293L1770.5,293z M1971.4,194.1c-25,1.7-50.2,2.9-75.2,5.2c-5.5,0.5-10.9,1.1-16.3,1.7
	c1.3,0.1,2.6,0.2,3.9,0.2c29,1.4,58-0.3,86.7-5c5.2-0.8,10.3-1.7,15.4-2.6C1981,193.6,1976.2,193.7,1971.4,194.1z M2001.1,190.9
	c-5.1,0.9-10.2,1.8-15.3,2.7c5.9,0,11.7,0,17.6,0.1C2002.7,192.7,2001.9,191.8,2001.1,190.9z M2130.9,429.9c-2.3,0.6-4.6,1.2-7,1.8
	c-1.2,0.3-2.3,0.6-3.4,0.8c-3,0.7-6,1.4-9.1,2.1c-1.7,0.4-3.4,0.7-5,1.1c-1.4,0.3-2.9,0.6-4.3,0.9c-0.9,0.2-1.9,0.4-2.8,0.5
	c-3.1,0.6-6.3,1.2-9.5,1.7l-4.8,0.8l0,0c-1.6,0.2-3.2,0.5-4.8,0.7c-2,0.3-4,0.6-6,0.8c-19.4,2.4-38.7,4.8-58.4,6
	c-17.5,1.1-35,2.1-52.6,2.5c-17.8,0.4-35.6-1.3-53.5-2.6c-22.2-1.7-44.2-4.6-66-8.9c-3.1-0.6-6.2-1.2-9.3-1.8
	c-1.6-0.3-3.2-0.7-4.9-1l4.9,1c-31.7-6.3-63.2-13.2-94.8-19.6c-34.3-6.8-69-11.8-103.9-15c-15.1-1.4-30.4-2.8-45.6-3.6
	c7.5,2.1,15.1,4.2,22.7,6.2c3.3,0.9,22,7.9,25.6,8c8.5,1.9,16.9,4.1,25.2,6.4c4.2,1.2,8.3,2.3,12.5,3.5c4.2,1.2,8.3,2.3,12.5,3.5
	c3.7,1,7.4,2,11.2,2.9l11.2,2.9c3.7,0.9,7.5,1.9,11.2,2.8c3.8,0.9,7.5,1.8,11.3,2.7l11.3,2.6l9.3,2.1c0.8,0.2,1.6,0.3,2.3,0.5
	c3.7,0.8,7.4,1.6,11.1,2.3c3.7,0.7,7.6,1.6,11.4,2.3c5.5,1.1,11.1,2.1,16.6,3.1l0,0c2.8,0.5,5.6,1,8.4,1.4c2.8,0.5,5.6,0.9,8.4,1.4
	c2.8,0.4,5.6,0.9,8.4,1.3l3.9,0.5c1.3,0.2,2.6,0.4,3.9,0.5c5.2,0.7,10.4,1.4,15.6,2c5.2,0.6,10.4,1.2,15.7,1.7
	c3,0.3,6.1,0.6,9.1,0.8c0.7,0.1,1.3,0.1,2,0.2h0.3c1,0.1,2.1,0.2,3.1,0.3c0.4,0,0.9,0.1,1.3,0.1l7.9,0.6c16.6,1.2,33.2,1.2,49.7,1.2
	c5.1,0,10.3,0,15.4,0c1.4,0,2.8,0,4.2,0c0.2,0,0.3,0,0.5,0h0.1h1.4h0.3c0.1,0,0.2,0,0.4,0h0.2h0.9c1.3,0,2.5-0.1,3.8-0.1
	c1.3-0.1,2.6-0.1,3.8-0.2c1.3-0.1,2.4-0.1,3.6-0.2c3.6-0.2,7.2-0.5,10.8-0.8c2.4-0.2,4.8-0.4,7.2-0.6c2-0.2,3.9-0.4,5.9-0.6l2.2-0.2
	c1.8-0.2,3.7-0.4,5.5-0.5c0.4,0,0.9-0.1,1.3-0.1c2.2-0.2,4.4-0.5,6.6-0.6c5.5-0.5,10.9-1.1,16.4-1.7l6.1-0.7
	c2.1-0.2,4.1-0.5,6.1-0.8s4.1-0.5,6.1-0.8c3.9-0.5,7.7-1.2,11.5-1.7c1.2-0.2,2.4-0.4,3.7-0.6c0.1,0,0.2,0,0.3-0.1l0.7-0.1l6.1-1
	c2.7-0.5,5.4-1,8.1-1.5c1.3-0.2,2.6-0.5,3.8-0.7c1.1-0.2,2.1-0.4,3.2-0.6c0.4-0.1,0.9-0.2,1.4-0.3l3.1-0.6c1.8-0.4,3.7-0.8,5.5-1.2
	l0.4-0.1l0.4-0.1c0.1,0,0.1,0,0.2,0c0.2,0,0.4-0.1,0.6-0.1h0.1c0.3-0.1,0.6-0.1,0.9-0.2c1.1-0.3,2.1-0.5,3.2-0.8c2-0.5,4-1,6.1-1.5
	c0.2,0,0.3-0.1,0.5-0.1c0.5-0.2,1-0.3,1.6-0.4l2.8-0.7l2.7-0.7c0.1,0,0.3-0.1,0.4-0.1h0.1h0.2l0.7-0.2c0.9-0.2,1.8-0.5,2.7-0.8
	c0.9-0.3,1.6-0.5,2.4-0.7l1.8-0.5c1-0.3,2.1-0.6,3.1-0.9h0.1l0.5-0.2c0,0,0,0,0.1,0l0,0l0,0c0,0,0,0,0.1,0l0,0c0.1,0,0.1,0,0.2,0
	l1.4-0.4c0.4-0.1,0.7-0.2,1.1-0.3c0.1,0,0.2-0.1,0.3-0.1l0.3-0.1c0.5-0.2,1-0.3,1.5-0.5c0.1,0,0.3-0.1,0.4-0.1
	c0.1,0,0.3-0.1,0.4-0.1c0.9-0.3,1.9-0.6,2.8-0.9c0.9-0.3,1.9-0.6,2.8-0.9C2131.6,432.3,2131.3,431,2130.9,429.9L2130.9,429.9z
	 M2137.5,453.1c2.3,8.8,4.5,17.7,6.5,26.7C2142,470.8,2139.8,461.9,2137.5,453.1L2137.5,453.1z"/>
<path class="st1" d="M2159.5,581c-0.6-19.4-2.2-38.7-4.6-57.7c-0.1-0.6-0.2-1.2-0.2-1.8c-4.6-35.3-12.2-70.1-22.7-104.1
	c-0.3-1.1-0.7-2.2-1-3.3c-13.6-43.1-31.7-84.7-54.1-123.9c-3.1-5.4-6.2-10.7-9.4-16c-5.1-8.4-10.4-16.8-16-25
	c-0.4-0.6-0.8-1.2-1.2-1.8c-1.8-2.6-3.6-5.3-5.5-7.9c-1.9-2.6-3.7-5.2-5.5-7.8c-1.9-2.6-3.6-5-5.5-7.5c-0.5-0.6-1-1.3-1.5-1.9
	c-1.5-2-3-4-4.5-6c-1.9-2.5-3.9-5.1-5.9-7.6c-2.1-2.7-4.3-5.4-6.5-8.1c-3.9-4.7-7.9-9.5-11.9-14.1c-0.8-0.9-1.5-1.8-2.3-2.7
	c-22.5-25.8-47-49.8-73.2-71.8l-0.4-0.3c-0.1-0.1-0.1-0.1-0.2-0.1c-2.6-2.2-5.2-4.4-7.9-6.5l-3.3-2.7l-3.3-2.6l-4.9-3.8l0,0
	c-11.5-6.7-23.8-11.9-36.7-15.3l-6.2-0.7l-6.3-0.7c-4.2-0.4-8.5-0.8-12.9-1.2c-0.3,0-0.6-0.1-0.9-0.1c-1.5-0.1-2.9-0.2-4.4-0.3
	c-1.3-0.1-2.7-0.2-4-0.3c-1-0.1-2-0.2-3-0.2c-1.5-0.1-3.1-0.2-4.6-0.3c-0.7-0.1-1.5-0.1-2.2-0.2c-1.6-0.1-3.2-0.2-4.9-0.4l-3.8-0.2
	c-4.2-0.3-8.5-0.5-12.8-0.8h-1.1c-1.2-0.1-2.4-0.2-3.7-0.2c-3.5-0.2-7-0.4-10.4-0.5c-4-0.2-8.1-0.4-12.1-0.5
	c-2.2-0.1-4.3-0.2-6.5-0.2c-4.2-0.2-8.4-0.3-12.6-0.4l-6.6-0.2c-0.1,0-0.2,0-0.3,0l-6.1-0.2c-4.7-0.1-9.5-0.2-14.3-0.3
	c-1.8,0-3.5,0-5.3-0.1c-6.9-0.1-13.8-0.2-20.7-0.2h-5.4c-9.7,0-19.3,0-28.9,0.1l-7.1-1.9c-2.4-0.6-4.9-1.3-7.3-1.9l-4.1-1
	c-2.7-0.7-5.4-1.3-8.1-1.9c-2.1-0.5-4.2-1-6.3-1.4c-3.6,0-22.3-6.8-25.6-7.6c-24.6-6.2-48.7-13.4-73.3-19.7
	c-35.7-9.2-71.6-17.7-108.3-23.9c-16-2.7-96.9-12.3-125.7-14.1c-1.5-0.1-2.9-0.2-4.1-0.2l0,0c-1.2,0-2.2-0.1-3.1-0.1h-0.5
	c-0.1,0-0.2,0-0.2,0c-0.1,0-0.2,0-0.3,0c-0.2,0-0.3,0-0.5,0h-0.2c-0.1,0-0.2,0-0.4,0c-0.1,0-0.2,0-0.4,0h-0.1h-0.5l-1.7,0.1
	c-0.2,0-0.5,0-0.7,0h-0.1c-0.4,0-0.9,0.1-1.3,0.1c0,0-0.1,0-0.1,0c-0.5,0-1.1,0.1-1.6,0.1c-0.6,0-1,0-1.6,0.1
	c-0.3,0-0.6,0.1-0.9,0.1c-0.1,0-0.1,0-0.2,0c-0.5,0-1,0.1-1.6,0.1l-4.2,0.3h-0.1c-1.2,0.1-2.3,0.2-3.6,0.3l1.8-0.2
	c-37.7,2.5-118.2,8.1-121.3,8.5c-43.5,5.4-86.4,13.4-129.3,21.1c-26.7,4.8-53.4,9.2-80.7,10.6c-29,1.4-58-0.1-86.7-4.6
	c-31.1-4.6-61.8-11.2-93-15.4c-26.9-3.6-53.9-6.2-81.2-6.4c-19.7-0.1-39.2,1.3-58.8,2.6c-29,2.1-57.6,7.5-85.3,16.2
	c-25.1,7.8-50.8,13.8-76.8,18c-26.4,4.3-45,33.1-71.8,35.6C367.3,88.6,357,71.4,331.1,76c0,0-32.3,5.4-32.3,5.5
	c-20,3.7-36.5,7.2-41.9,10.9l0,0c-8.5,6.5-16.9,13.2-25,20.1c-0.2,0.2-0.4,0.3-0.6,0.5c-0.5,0.4-1,0.9-1.6,1.4
	c-3.5,2.9-6.9,5.9-10.2,8.9c-1.7,1.5-3.4,3-5.1,4.5c-2,1.8-4,3.6-6,5.5c-1.7,1.5-3.4,3.1-5.1,4.7c-1.7,1.6-3.5,3.2-5.1,4.9l-4,3.8
	l-4.4,4.4l-1.7,1.6c-14.9,15-29.1,30.6-42.4,47C134.6,213,124,227,114,241.4c-4.3,6.2-8.5,12.5-12.6,18.8
	c-21.7,33.6-40.1,69.1-55.1,106.1c-28,68.9-43.5,142.2-45.8,216.6c0,0.6,0,1.2,0,1.8c-0.2,6.3-0.3,12.6-0.3,18.9v22.8
	c0-3.3,0-6.6,0.1-9.9s0.1-6.5,0.2-9.7c0-0.6,0-1.2,0-1.8c2.3-77,17.8-153,45.8-224.7l0,0c5.5,1,11,2.1,16.5,3.1
	c2.7,0.5,5.4,1,8.1,1.6c15,2.9,30.1,6,45.1,9.1c7.5,1.6,15,3.1,22.5,4.6c3.4,0.7,6.7,1.4,10,2c-0.1-0.8-0.2-1.7-0.2-2.5
	c0.1,0.8,0.1,1.6,0.2,2.5c1.4,0.3,2.8,0.6,4.3,0.8l0,0c18.8,0,37.5-1.6,56.3-2.6c11.7-0.6,23.4-1.3,35.1-2
	c11.1-0.7,22.3-0.6,33.2-2.3c7.5-1.2,15.2-1,22.7-1.4c10.2-0.6,20.4-1.8,30.6-2.1c9.6-0.2,19.2-1.4,28.8-2.3c7-0.6,14-1.2,21-1.7
	c21.9-1.7,43.6-4,65.5-5.8c22.2-1.8,44.2-4.3,66.3-6.3c14.9-1.3,29.6-3.5,44.4-5.2c19.7-2.2,39.5-4.3,59.2-6.5
	c16.2-1.8,32.5-3.6,48.7-5.3c6.7-0.7,13.4-1.3,20.1-1.5c11.1-0.4,22.3-1.3,33.3-2.1c19.1-1.4,38.1-0.6,57.2-1.3
	c7.8-0.3,15.8-2.1,23.6-1.2c20.5,2.4,41.1,0.2,61.5,1.5c25.1,1.6,50.2,2.9,75.2,5.2c26.8,2.4,53.1,6.3,79.3,10.9
	c0.1,0,0.3,0,0.4,0.1h0.1c0.2,0,0.4,0,0.6,0.1c0.4,0.1,0.8,0.1,1.3,0.2c-0.1,0-0.2,0-0.3,0c5.1,0.9,10.1,1.8,15.1,2.7
	c0.2,0,0.4,0.1,0.6,0.1c0.1,0,0.1,0,0.2,0c0.5,0.1,1.1,0.2,1.6,0.3c0.9,0.2,1.8,0.3,2.6,0.5c0.1,0,0.2,0,0.3,0l2.3,0.5h0.1
	c39.2-7.4,78.4-14.7,118.1-19.7c4-0.5,136.3-10,140.4-10.2c18.3,0,115.1,11.8,132.8,14.9c36.7,6.4,72.6,15.3,108.3,24.8
	c17,4.5,33.7,9.5,50.6,14.2c15.2,0.8,30.4,2.2,45.6,3.6c34.9,3.2,69.7,8.2,104.1,15c31.7,6.4,63.2,13.3,94.8,19.6
	c3.1,0.6,6.2,1.2,9.3,1.8c21.8,4.3,43.9,7.2,66,8.9c17.8,1.2,35.6,3,53.5,2.6c17.6-0.4,35.1-1.4,52.6-2.5c19.6-1.2,39-3.6,58.4-6
	c2-0.3,4-0.5,6-0.8c1.6-0.2,3.2-0.5,4.8-0.7l0,0l4.8-0.8c3.2-0.5,6.3-1.2,9.5-1.7c0.9-0.2,1.9-0.3,2.8-0.5c1.4-0.3,2.9-0.6,4.3-0.9
	c1.7-0.3,3.4-0.7,5-1.1c3-0.6,6.1-1.4,9.1-2.1c1.2-0.3,2.3-0.5,3.4-0.8c2.3-0.6,4.6-1.2,7-1.8c0.4,1.2,0.7,2.3,1,3.5
	c0.7,2.4,1.4,4.9,2.1,7.3c0.4,1.5,0.8,2.9,1.2,4.4c0.7,2.7,1.5,5.3,2.2,8c2.3,8.8,4.5,17.7,6.5,26.7c1,4.5,1.9,9,2.8,13.5
	c0.7,3.4,1.3,6.8,2,10.2s1.2,6.8,1.8,10.2c0.8,4.6,1.5,9.1,2.2,13.7c0.7,4.6,1.3,9.2,1.9,13.8c0.1,0.6,0.2,1.2,0.2,1.9l0,0
	c2.4,19.7,4,39.6,4.6,59.8l0,0c0.2,3.9,0.3,7.8,0.3,11.6s0.1,7.8,0.1,11.7v-22.7C2159.9,596,2159.8,588.5,2159.5,581z M226.1,233.1
	c-9.4,5.8-20.3,8.7-31.3,11.3c-15.2,3.5-30.8,5.6-46.4,6.2c-11.4,0.5-22.8,0.4-34.3,0c10-14.9,20.5-29.4,31.7-43.5l0,0
	c0.9,0,1.9-0.1,2.9-0.1c2.3-0.1,4.6-0.1,6.9-0.1c3.1,0,6.3,0.1,9.5,0.2c14.8-0.4,29.1-0.2,43.2,2.8c5.9,1.2,11.6,3.1,17,5.7
	c1.5,0.7,2.9,1.6,4.1,2.6C234.6,222.8,233.5,228.5,226.1,233.1z M392.1,358.2c-1.9,0.7-3.8,1.3-5.8,1.7c-24.8,5.8-50,7-75.5,4.9
	c-3.5-0.3-8.8-0.3-9.3-4.1c-0.4-3.5,4.6-3.8,7.7-4.7c18.7-5.6,38.3-6.2,57.9-7c3.2,0,6.4,0.1,9.7,0c5.1-0.2,9.9,1.3,14.7,1.8
	c2.3,0.3,4.8,1.1,4.9,3.5C396.6,356.6,394.2,357.5,392.1,358.2z M421.7,219.2c-3.7,1-7.4,2-11.1,2.9
	C414.3,221.2,418,220.2,421.7,219.2c0.8-0.3,1.6-0.5,2.4-0.7L421.7,219.2z M426.3,218l0.5-0.2h0.1L426.3,218z M520.4,179.7
	c-2.6,2.1-5.8,3.6-9.1,4.2c-7.9,1.8-15.9,3.2-24.5,2.6c-6,0.7-12-0.5-18.1-1.5c-1.7-0.3-3.4-0.7-5-1.4c-2.6-1.2-5.2-2.6-4.9-5.5
	c0.3-2.5,2.6-3.7,5.2-4.5c13.3-4.4,27.5-5.7,41.4-3.9c4.9,0.7,9.9,1.2,14.2,3.6C523.4,175.4,523.6,176.9,520.4,179.7L520.4,179.7z
	 M807.8,135.6c-0.7,0.4-1.4,0.7-2.1,1c-0.9,0.3-1.8,0.6-2.7,0.8c-0.6,0.2-1.2,0.4-1.9,0.5c-7.5,2-15.2,2.8-23,3.6
	c-11.1,1.1-22.1,0.4-33.2-0.1c-4.4-0.2-8.8-0.9-13.1-1.9c-1.7-0.4-3.3-0.8-4.9-1.3l-0.7-0.2c-2.3-0.7-4.3-1.9-4.2-4.2
	c0-0.3,0.1-0.6,0.2-0.8c-0.1-0.4-0.2-0.8-0.2-1.2c0.1-2.2,2.3-3.4,4.5-4.1c8-2.6,16.4-4,24.8-4.4c5.8-0.3,11.7-0.1,19.7-0.1
	c7.4,0.2,17.1-0.6,26.7,1.4c3.4,0.6,6.7,1.7,9.7,3.2c2.2,1.2,2.9,2.6,2.2,3.9C810.5,132.9,809.8,134.3,807.8,135.6L807.8,135.6z
	 M918.2,42.1c10,0.3,20,0.2,30-0.4C938.2,42.3,928.2,42.4,918.2,42.1L918.2,42.1z M1028.9,30.8l-10,1.8
	C1022.2,32,1025.5,31.4,1028.9,30.8c9.9-1.9,19.8-3.7,29.6-5.6L1028.9,30.8z M1238.5,291.8c-9.5,3.6-19.7,5.2-29.8,4.6
	c-4.6,2.3-9.7,1-14.6,1.4c-9.8,0.4-19.7-0.5-29.3-2.5c-2.9-0.6-6-1.5-6.6-4.2c-0.6-3.1,3.1-3.8,5.6-4.7c9.5-3.6,19.6-5.2,29.7-4.6
	c9.7-0.5,34.6-0.8,44.1,1.1c2.9,0.6,6.1,1.5,6.6,4.2C1244.8,290.1,1241.1,290.8,1238.5,291.8z M1278,152.5
	c-4.1,0.2-8.4,0.4-12.8,0.5c-4.1,0.1-8.3,0.2-12.5,0.2c-3.9,0-7.7-0.1-11.4-0.2c-4.4-0.1-8.6-0.2-12.8-0.4c-38-2-65.9-8.4-65.9-16.1
	c0-7.9,30.1-14.6,70.3-16.2l0,0c4.4-0.2,9-0.3,13.6-0.3c2,0,4,0,6,0c1.4,0,2.7,0,4.1,0c4.8,0,9.5,0.2,14.1,0.3
	c41,1.6,71.8,8.3,71.8,16.3C1342.8,144.1,1315.5,150.5,1278,152.5L1278,152.5z M1431.4,13.5c-0.3,0-0.6-0.1-1-0.2L1431.4,13.5
	c10.3,1.8,20.6,3.8,30.8,5.9C1451.9,17.3,1441.7,15.3,1431.4,13.5z M1637.9,138.4c-4.9-0.3-10,1-14.6-1.4
	c-10.2,0.5-20.3-1.1-29.8-4.6c-2.5-1-6.2-1.6-5.6-4.7c0.5-2.7,3.7-3.6,6.6-4.2c9.4-1.9,34.4-1.6,44.1-1.1
	c10.1-0.6,20.2,0.9,29.7,4.5c2.5,1,6.2,1.6,5.6,4.8c-0.5,2.7-3.7,3.6-6.5,4.2C1657.6,137.9,1647.7,138.7,1637.9,138.4L1637.9,138.4z
	 M1770.5,337.2c-60.3,0-109.3-9.9-109.3-22.1s48.9-22.1,109.3-22.1s109.3,9.9,109.3,22.1S1830.9,337.2,1770.5,337.2L1770.5,337.2z
	 M1985.8,193.6c-5.1,0.9-10.3,1.8-15.4,2.6c-28.6,4.7-57.7,6.3-86.7,5c-1.3-0.1-2.6-0.1-3.9-0.2c5.4-0.6,10.9-1.2,16.3-1.7
	c25-2.3,50.1-3.5,75.2-5.2C1976.1,193.7,1981,193.6,1985.8,193.6c5.1-0.9,10.2-1.8,15.3-2.7c0.8,0.9,1.6,1.9,2.3,2.8
	C1997.5,193.6,1991.7,193.5,1985.8,193.6z M2053.8,300.9c-8.5-0.8-16.8-1.7-24.9-4.1c-1.7-0.4-3.2-1-4.7-1.8c-3.1-1.8-3.1-4,0.2-5.7
	c3.1-1.5,6.4-2.6,9.7-3.2c9.6-1.9,19.2-1.2,26.7-1.4c2.3,0,4.5,0,6.5,0l9.4,16.6C2069.1,301.7,2061.4,301.5,2053.8,300.9
	L2053.8,300.9z"/>
<path class="st0" d="M1673.7,131.6c-0.5,2.7-3.7,3.6-6.5,4.2c-9.6,2.1-19.5,2.9-29.3,2.6c-4.9-0.3-10,1-14.6-1.4
	c-10.2,0.5-20.3-1.1-29.8-4.6c-2.5-1-6.2-1.6-5.6-4.7c0.5-2.7,3.7-3.6,6.6-4.2c9.4-1.9,34.4-1.6,44.1-1.1
	c10.1-0.6,20.2,0.9,29.7,4.5C1670.7,127.8,1674.4,128.5,1673.7,131.6z"/>
<path class="st0" d="M1238.5,291.8c-9.5,3.6-19.7,5.2-29.8,4.6c-4.6,2.3-9.7,1-14.6,1.4c-9.8,0.4-19.7-0.5-29.3-2.5
	c-2.9-0.6-6-1.5-6.6-4.2c-0.6-3.1,3.1-3.8,5.6-4.7c9.5-3.6,19.6-5.2,29.7-4.6c9.7-0.5,34.6-0.8,44.1,1.1c2.9,0.6,6.1,1.5,6.6,4.2
	C1244.8,290.1,1241.1,290.8,1238.5,291.8z"/>
<path class="st0" d="M1342.8,136.5c0,7.6-27.4,14-64.8,16c-4.1,0.2-8.4,0.4-12.8,0.5c-4.1,0.1-8.3,0.2-12.5,0.2
	c-3.9,0-7.7-0.1-11.4-0.2c-4.4-0.1-8.6-0.2-12.8-0.4c-38-2-65.9-8.4-65.9-16.1c0-7.9,30.1-14.6,70.3-16.2l0,0
	c4.4-0.2,9-0.3,13.6-0.3c2,0,4,0,6,0c1.4,0,2.7,0,4.1,0c4.8,0,9.5,0.2,14.1,0.3C1312,121.7,1342.8,128.5,1342.8,136.5z"/>
<ellipse class="st2" cx="1289.6" cy="470.5" rx="103.7" ry="19.5"/>
<path class="st0" d="M1879.9,315.1c0,12.2-48.9,22.1-109.3,22.1c-60.4,0-109.3-9.9-109.3-22.1s48.9-22.1,109.3-22.1
	S1879.9,302.9,1879.9,315.1z"/>
<path class="st2" d="M478.8,979.1c0,0,13.5-97,200.8-61.1s217.4,56.4,345.6,26.6c128.3-29.8,267.4-61.6,360.3-13.5
	c92.9,48.1,387.8-125.7,366.1-3.3s-58.3,323.1-53.4,442.2c4.9,119.1,78,197.5,35.7,381.9s-299.7,148.5-348.5,106.1
	s-388.6-35.9-431.9,1.6c-43.3,37.5-299.9,73.4-328.2,14.7c-28.3-58.7-151.5-3.3-146.6-117.5s63.3-297,38.3-388.4
	s-43.6-241.5-38.5-274.2C483.8,1061.6,478.8,979.1,478.8,979.1z"/>
</svg>
