<svg id="Layer_1" data-name="Layer 1" xmlns="http://www.w3.org/2000/svg" viewBox="0 0 1006.33 842.78"><defs><style>.cls-1{fill:#86f2ef;}.cls-2{fill:#3db6f9;}.cls-3{fill:#fff;}</style></defs><title>Panels</title><path class="cls-1" d="M831.82,456.14V621.29a15.3,15.3,0,0,1-8.09,13.44c-12.51,6.62-24.94,13.25-37.45,19.88L657.17,723.3q.18-140.58.5-281.08,0-30.62.09-61.28a10.9,10.9,0,0,1,16-9.63l60.1,32.14,1.35,111.29-.08,90.36c10.3-5.51,20.65-11,30.94-16.48V577.06q-.08-70.75-.06-141.4a8.77,8.77,0,0,1,12.88-7.77C796.53,437.34,814.2,446.71,831.82,456.14Z"/><path class="cls-1" d="M626.36,583.78a15,15,0,0,0-8.07-13.38q-77.14-41-154.33-82c0-12.72-.1-25.48-.15-38.2q-.12-33.33-.25-66.59,21.72-12.69,43.53-25.34C526,369.18,530.91,372,549.85,382.93l.25,51.3-1.34,15.48a15.38,15.38,0,0,0,8,13.43Q591,481.58,625.16,500c.07-23,.07-45.92.06-68.93V366.41a15.17,15.17,0,0,0-8-13.34l-103.4-55.55a15.07,15.07,0,0,0-14.38.05q-52,28.33-104.09,56.64a15.09,15.09,0,0,0-7.91,13.34l.34,102.92-1.34,54.72a15.3,15.3,0,0,0,8.07,13.42c56.41,30.2,155.18,83.17,155.18,83.17l.43,82.6-24.58,13.39-19.43,10.57L463,704.68l-.05-33.37h0l-.05-31.16A15.14,15.14,0,0,0,455,627L387.7,590.6s0,30.88.05,66.9h0c0,24.72.05,52.44.05,73.74a15.3,15.3,0,0,0,8,13.35q52.05,28.17,104.08,56.31a15.18,15.18,0,0,0,14.38.05Q535.67,789.51,557,778q30.84-16.51,61.6-33a15.18,15.18,0,0,0,8-13.43Q626.52,657.66,626.36,583.78Z"/><path class="cls-1" d="M181,474.05a13.77,13.77,0,0,0-.28,2.74q.06,76.65.16,153.31L236,660a6.54,6.54,0,0,0,9.64-5.73q0-54.35-.06-108.69,44.78,23.93,89.59,47.91c8.44-5,10.72-6.46,19.18-11.49q.06-50.76.23-101.6.15-52.69.22-105.46-83,44.25-166,88.52A15,15,0,0,0,181,474.05Zm64.62,2.74L287,454.38a8.69,8.69,0,0,1,12.8,7.68q0,14.74-.13,29.45c-.09,13.11-.14,26.2-.24,39.26l-53.79-28.64c0-5.39,0-8.76,0-12Z"/><path class="cls-2" d="M181.18,285.38l-.1-69.76A13.07,13.07,0,0,1,188,204.16l57.93-30.77q-.1,48.48-.16,97l14.29-7.5a12.93,12.93,0,0,0,6.91-11.44c0-27.2,0-54.32-.09-81.53a13,13,0,0,1,6.83-11.41q29-15.47,57.91-30.95.23,90.4.44,180.8c.05,12.43.05,24.84.1,37.27a12.76,12.76,0,0,1-6.84,11.46c-19.36,10.37-38.82,20.73-58.23,31.1l1.34-76.46,0-22-15,8.09a13.25,13.25,0,0,0-6.68,8.71,13.81,13.81,0,0,0-.39,3.07q0,42,.07,84.11a13.43,13.43,0,0,1-7.13,11.85Q209.53,421.25,179.85,437Z"/><path class="cls-2" d="M657.65,330.93a6.46,6.46,0,0,1-9.53,5.7Q583,301.58,518,266.54q-.15-69.81-.24-139.74-.08-37.72-.11-75.42a6.44,6.44,0,0,1,9.48-5.71Q592.22,80.31,657.4,115v75.52l-54-29.2c.16-10.61.35-21.21.48-31.8-7.63-4-15.22-7.88-22.87-11.79a6.47,6.47,0,0,0-9.42,5.75l.16,124.05a8.67,8.67,0,0,0,4.63,7.63c9.13,4.82,18.31,9.62,27.46,14.41,0-10.78-.15-21.51-.25-32.26l54,28.54Q657.62,298.42,657.65,330.93Z"/><path class="cls-2" d="M831.81,336.84l.21,87.58a6.46,6.46,0,0,1-9.48,5.75Q795,415.53,767.42,400.94l.69-97c-4.54-2.46-9.1-5-13.64-7.41a6.66,6.66,0,0,0-9.86,5.84V378.5s-5,8.07-9.29,5.73q-27.83-15-55.72-30,.27-108.46.52-216.91a6.49,6.49,0,0,1,9.56-5.72c18.58,9.94,54.92,29.86,54.92,29.86l-.16,97.33L757,265.69a6.54,6.54,0,0,0,9.74-5.74q-.15-38.31-.28-76.66a6.56,6.56,0,0,1,9.65-5.81L832,207.38c0,39,0,47.21.11,86.22l-31.61,17,23.41,12.87A15.24,15.24,0,0,1,831.81,336.84Z"/><path class="cls-2" d="M409.33,305c-.05-15.94-.05-31.83-.1-47.77,0-10.52,0-21.07,0-31.58a12.9,12.9,0,0,1,6.73-11.42q12.79-6.93,25.49-13.87v4c0,30.44.06,61,.06,91.4q23.64-12.5,47.3-25.12a13,13,0,0,0,6.84-11.42q-.08-59.84-.06-119.66-.07-49.79-.05-99.54l-134,72a12.83,12.83,0,0,0-6.83,11.35q-.21,88.85-.51,177.77c0,13.71-.05,27.43-.08,41.16q24.17-12.94,48.42-25.9A13,13,0,0,0,409.33,305Zm6.3-190.59q12.92-6.86,25.79-13.63l-.1,58.25a13.13,13.13,0,0,1-7.05,11.59c-8.46,4.36-17,8.69-25.46,13.1q-.07-28.92-.13-57.77A12.92,12.92,0,0,1,415.63,114.45Z"/><path class="cls-3" d="M234.8,179.1a2.07,2.07,0,0,1,.35,0q-23.6,12.56-47.17,25.06a13,13,0,0,0-6.87,11.45v7.12a7.38,7.38,0,0,1-.87.21c-.4.12-.83.22-1.25.33s-.84.23-1.26.31a10.05,10.05,0,0,1-1.25.33,12.6,12.6,0,0,1-1.24.35c-.42.12-.82.23-1.24.33s-.82.25-1.24.35-.82.25-1.22.35-.82.25-1.22.35l-1.22.35c-.4.14-.8.24-1.2.35s-.81.26-1.21.36-.8.27-1.2.37-.79.26-1.19.37-.78.26-1.18.38-.79.26-1.19.37a11.41,11.41,0,0,1-1.17.38,11.24,11.24,0,0,1-1.16.38,12.13,12.13,0,0,1-1.16.39c-.38.14-.75.28-1.15.4a11.06,11.06,0,0,1-1.15.38,10.8,10.8,0,0,1-1.13.4c-.39.14-.75.3-1.13.4l-.58.21c-.37.16-.75.28-1.12.4s-.73.28-1.11.41-.74.29-1.1.41-.73.28-1.1.42-.72.28-1.08.42l-1.08.42c-.35.16-.72.28-1.08.42s-.72.29-1.07.43-.71.3-1.06.42a10.77,10.77,0,0,1-1.06.44l-1,.45c-.35.16-.7.3-1.05.44s-.68.31-1,.45-.68.3-1,.44-.67.31-1,.45-.68.33-1,.47-.67.32-1,.46-.65.33-1,.47l-1,.47-.37.15a9.85,9.85,0,0,1-1,.47c-.31.18-.64.32-1,.48s-.65.33-1,.47l-1,.48c-.31.18-.63.32-1,.48s-.63.33-.94.48-.63.34-.94.49-.61.33-.93.49-.61.35-.92.51-.61.33-.93.48-.59.35-.9.51-.6.35-.91.51l-.89.52c-.3.17-.57.35-.89.51l-.87.52c-.3.17-.58.35-.89.52l-.85.52-.2.11c-.28.19-.55.35-.85.52s-.56.35-.84.53-.56.34-.83.52-.55.37-.82.54l-.84.54c-.26.17-.52.35-.8.52s-.54.39-.82.56l-.79.54c-.26.19-.52.37-.8.54s-.51.39-.79.56-.5.38-.76.56-.51.38-.79.56l-.75.57-.07,0a6.55,6.55,0,0,1-.75.55,8.45,8.45,0,0,1-.73.58l-.73.56c-.23.21-.47.38-.72.57s-.48.39-.73.58l-.7.58c-.22.2-.47.4-.69.59s-.47.38-.7.57-.46.4-.7.6-.44.4-.68.59l-.66.59c-.21.19-.42.4-.65.6l-.63.57c-.2.21-.43.4-.64.59s-.42.4-.65.61-.4.4-.61.6-.41.42-.62.61-.4.42-.61.61-.39.42-.6.63-.38.41-.59.61-.38.41-.59.62-.37.42-.58.63l-.47.52-.56.63c-.17.21-.36.42-.56.63s-.34.42-.54.63-.34.43-.52.64l-.52.63c-.18.23-.35.44-.53.65s-.33.43-.5.64-.33.44-.51.65a5.61,5.61,0,0,1-.47.62,4.67,4.67,0,0,1-.36.51l-.47.66c-.16.23-.32.44-.48.65a7.66,7.66,0,0,1-.45.66c-.14.23-.3.45-.45.66s-.28.46-.44.68-.28.44-.42.67l-.43.68-.28.47c-.12.21-.26.42-.39.63s-.26.45-.4.68-.26.45-.38.68a7.62,7.62,0,0,1-.38.69l-.37.68c-.12.23-.23.47-.37.7a7.61,7.61,0,0,1-.35.7,7.06,7.06,0,0,1-.33.68l-.21.42c-.08.22-.21.45-.31.69a6.47,6.47,0,0,1-.33.7c-.09.25-.19.47-.3.72l-.29.71c-.11.23-.2.47-.3.7s-.18.49-.28.73-.17.47-.28.72-.09.24-.14.38-.17.47-.26.72-.16.48-.24.73-.16.49-.25.73-.14.49-.22.73-.14.49-.23.74-.12.5-.21.73-.12.5-.19.75-.07.24-.11.36a7.46,7.46,0,0,1-.19.75,7.54,7.54,0,0,1-.17.75c-.06.27-.11.51-.16.77s-.11.51-.17.75-.09.51-.14.77-.09.5-.14.77-.09.5-.14.76,0,.25-.06.39-.08.5-.12.75-.07.52-.1.78-.07.52-.11.79-.05.52-.08.78,0,.52-.07.79,0,.52-.07.78,0,.54-.07.8,0,.51,0,.75,0,.3,0,.44,0,.54,0,.8,0,.54,0,.82,0,.54,0,.8v1.64c0,.26,0,.54,0,.82s0,.54,0,.82,0,.45,0,.68,0,.77,0,1.15,0,.75.07,1.14,0,.76.09,1.15.07.76.1,1.15.09.76.12,1.15.11.77.14,1.15.12.77.16,1.15c0,.11,0,.21,0,.31a.33.33,0,0,0,0,.14c.07.35.08.68.14,1a1.87,1.87,0,0,1,.08.32c.06.28.07.55.13.85s.08.32.12.49,0,.45.1.68.11.44.16.66,0,.35.07.51.16.56.21.84c0,.12,0,.22,0,.34.09.34.17.67.24,1,0,.07,0,.12,0,.17.09.4.21.79.28,1.19l.1.38c.12.39.21.79.32,1.19s.22.8.33,1.2.24.79.35,1.2a11.34,11.34,0,0,1,.36,1.21c.14.38.28.78.39,1.18s.29.81.42,1.22.29.79.41,1.21c.06.15.13.33.18.49.16.4.29.82.43,1.22s.32.82.48,1.22.33.82.47,1.22.34.82.5,1.24.35.8.51,1.22.36.8.54,1.22.38.82.54,1.24.4.8.57,1.22.41.82.58,1.23l.31.63a22.52,22.52,0,0,1,2.31,6.4A22.24,22.24,0,0,1,44,372.05c-.25-.51-.47-1-.68-1.54a14.7,14.7,0,0,1-.66-1.53,13.16,13.16,0,0,1-.65-1.54c-.23-.49-.44-1-.63-1.51s-.43-1-.61-1.54-.42-1-.61-1.53-.38-1-.57-1.52c-.3-.73-.58-1.47-.81-2.23-.19-.51-.38-1-.52-1.54s-.36-1-.52-1.53-.35-1-.49-1.54-.33-1-.47-1.53-.33-1-.47-1.54-.32-1-.44-1.53-.29-1-.42-1.52-.29-1-.42-1.53a21.7,21.7,0,0,1-.55-2.25.16.16,0,0,1,0-.09c-.11-.42-.23-.84-.31-1.27,0-.09,0-.18,0-.26-.1-.37-.21-.74-.28-1.1,0-.16,0-.3-.07-.44-.07-.31-.16-.61-.22-.92s-.06-.4-.09-.6-.14-.5-.19-.76-.07-.51-.11-.77-.1-.4-.16-.59-.08-.63-.12-.95c0-.14-.08-.27-.1-.41a10.8,10.8,0,0,1-.16-1.1c0-.09-.05-.18-.07-.26-.09-.42-.12-.84-.19-1.26a.15.15,0,0,0,0-.09c-.14-.76-.24-1.53-.31-2.3-.07-.51-.16-1-.19-1.52s-.14-1-.18-1.53-.12-1-.16-1.52-.1-1-.13-1.52-.09-1-.11-1.51-.09-1-.1-1.52a20.75,20.75,0,0,1-.11-2.35c0-.51,0-1,0-1.52s0-1,0-1.48,0-.82,0-1.22,0-.68,0-1,0-.68,0-1,0-.66,0-1,0-.66.06-1a18.13,18.13,0,0,1,.12-2.22c0-.33,0-.66.05-1s.05-.66.09-1,.05-.66.09-1,.05-.66.08-1,.07-.66.11-1,.07-.65.12-1,.07-.64.12-1,.09-.65.12-1,.11-.65.16-1a20.77,20.77,0,0,1,.33-2.14c0-.34.11-.65.18-1s.1-.65.17-1,.12-.65.19-1,.12-.65.19-1,.13-.63.21-.94.14-.65.21-1,.14-.63.23-.94a8.2,8.2,0,0,1,.23-.95c.14-.69.33-1.37.54-2.05a9.07,9.07,0,0,1,.26-.93c.09-.31.15-.63.26-.92s.17-.63.28-.93.17-.62.28-.92.19-.61.29-.92.2-.61.3-.91l.31-.91c.09-.31.21-.61.32-.9a17.19,17.19,0,0,1,.73-2,8.83,8.83,0,0,1,.35-.9c.1-.3.23-.6.35-.89s.23-.59.36-.89.25-.59.37-.89.25-.59.38-.87.25-.6.39-.89.26-.58.4-.87.26-.58.4-.88c.26-.62.58-1.25.91-1.86.14-.3.26-.58.42-.86s.27-.57.43-.85.3-.58.46-.86.29-.57.45-.85.29-.56.45-.84l.47-.85.49-.84c.16-.28.31-.56.49-.84A18.37,18.37,0,0,1,46.3,262c.16-.28.32-.56.51-.84s.33-.54.52-.8a7.16,7.16,0,0,1,.53-.82c.17-.28.34-.54.52-.82s.36-.54.56-.8.35-.54.54-.8a8.83,8.83,0,0,1,.56-.8c.17-.27.38-.53.57-.81s.38-.52.58-.78a15.4,15.4,0,0,1,1.2-1.62c.19-.27.38-.53.59-.79s.4-.52.61-.77.4-.52.61-.76.4-.53.63-.77a8.85,8.85,0,0,1,.63-.77c.19-.26.42-.52.63-.76s.42-.51.64-.75.44-.51.65-.75.43-.51.66-.77c.42-.51.87-1,1.34-1.48l.68-.74.7-.73.68-.73q.35-.37.72-.72c.22-.24.45-.48.69-.71s.47-.49.72-.72l.73-.71c.23-.25.49-.49.73-.72s.49-.47.74-.69.5-.48.75-.72c.47-.47,1-.91,1.46-1.34.26-.23.51-.47.77-.68s.5-.47.76-.68.53-.47.79-.68l.78-.68c.27-.23.53-.46.81-.67l.8-.68.8-.66c.26-.22.54-.43.82-.66s.54-.44.82-.65l.84-.66c.26-.23.56-.43.83-.64s.56-.44.86-.65a17.87,17.87,0,0,1,1.57-1.18l.85-.63.87-.63c.3-.21.58-.42.88-.61l.89-.63c.29-.21.59-.42.89-.61s.59-.42.9-.61.6-.42.89-.61.61-.42.93-.61.61-.4.92-.59.61-.4.92-.61.61-.4.93-.6.63-.38.94-.57.63-.4,1-.59a17.11,17.11,0,0,1,1.66-1c.31-.19.62-.4,1-.57s.64-.39,1-.56l1-.58c.31-.19.64-.38,1-.55a9.33,9.33,0,0,1,1-.54,9.42,9.42,0,0,1,1-.56c.32-.19.67-.39,1-.56s.66-.37,1-.54.68-.37,1-.54.68-.37,1-.54.68-.37,1-.53l1-.54c.34-.19.68-.34,1-.52a10.24,10.24,0,0,1,1-.52c.35-.19.69-.35,1.06-.53s.7-.34,1.06-.52c.56-.29,1.14-.57,1.75-.82.35-.17.7-.35,1.06-.5s.72-.34,1.08-.49a11.91,11.91,0,0,1,1.1-.49c.35-.17.72-.35,1.1-.49s.72-.35,1.1-.49l1.1-.49c.36-.17.75-.33,1.11-.47s.75-.33,1.14-.48l1.13-.48c.37-.15.75-.31,1.13-.45s.75-.33,1.14-.47.77-.31,1.15-.45a11.84,11.84,0,0,1,1.17-.46c.36-.17.77-.31,1.15-.45s.78-.31,1.17-.45a12,12,0,0,1,1.18-.46l1.19-.43c.38-.16.78-.3,1.18-.44a14.72,14.72,0,0,1,1.8-.64,12.08,12.08,0,0,1,1.19-.44c.4-.14.8-.3,1.2-.42s.8-.28,1.22-.4.8-.3,1.2-.42.82-.29,1.23-.4.81-.3,1.23-.42.82-.28,1.24-.4a12.72,12.72,0,0,1,1.24-.38,11.6,11.6,0,0,1,1.26-.4q.6-.21,1.23-.39c.42-.14.84-.28,1.28-.38s.83-.28,1.25-.38.86-.27,1.29-.39a12,12,0,0,1,1.28-.36,12.86,12.86,0,0,1,1.29-.37c.41-.14.85-.26,1.29-.37s.85-.26,1.29-.36.87-.26,1.31-.37.87-.24,1.3-.35.87-.24,1.33-.35.87-.24,1.32-.35a13.61,13.61,0,0,1,1.33-.34c.44-.14.87-.25,1.32-.35a15.58,15.58,0,0,1,1.82-.44,0,0,0,0,1,0,0c.41-.1.83-.22,1.27-.31h.07a12.1,12.1,0,0,1,1.22-.31.22.22,0,0,0,.12,0c.4-.11.79-.21,1.19-.3a.5.5,0,0,0,.17,0c.39-.1.75-.2,1.14-.27l.22,0,1.08-.28.28,0c.35-.09.7-.2,1-.27a1.32,1.32,0,0,0,.33-.05c.33-.07.66-.17,1-.24l.39,0c.31-.09.63-.18,1-.25l.41-.05c.32-.07.62-.17.93-.23.16,0,.31,0,.47-.07l.87-.21.53-.08.81-.2c.2-.05.39-.05.58-.08s.52-.14.79-.19a3.2,3.2,0,0,1,.62-.09c.25-.07.49-.14.74-.19s.45-.06.68-.11.45-.12.68-.15.48-.07.73-.11l.64-.17.79-.11.59-.14a6.07,6.07,0,0,1,.84-.12l.56-.14c.29-.07.57-.09.87-.14l.52-.12q.45-.07.93-.12l.47-.13c.31-.06.64-.1,1-.13a3.25,3.25,0,0,1,.42-.11c.35-.07.7-.1,1-.16.14,0,.26-.07.38-.08.37-.07.72-.11,1.09-.16l.33-.09c.38-.07.75-.1,1.13-.15a2.86,2.86,0,0,1,.28-.07c.4-.09.8-.13,1.19-.18l.24,0c.42-.09.82-.14,1.24-.19.07,0,.12,0,.19,0,.44-.08.85-.14,1.29-.19a.7.7,0,0,0,.14,0c.45-.09.91-.14,1.34-.2a.23.23,0,0,0,.11,0c.47-.09.92-.14,1.39-.19l0,0c.49-.09,1-.16,1.45-.21a16.16,16.16,0,0,1,1.8-.24,9.34,9.34,0,0,1,1.5-.21,13.19,13.19,0,0,1,1.5-.21c.5-.09,1-.16,1.51-.21a13.43,13.43,0,0,1,1.52-.19c.51-.09,1-.16,1.54-.2s1-.15,1.51-.19,1-.14,1.54-.17a13.66,13.66,0,0,1,1.55-.19c.51-.07,1-.14,1.53-.18s1-.14,1.56-.17,1-.14,1.55-.16a14,14,0,0,1,1.57-.17c.52-.07,1-.14,1.57-.16a11.76,11.76,0,0,1,1.57-.16c.52-.07,1.06-.12,1.58-.15a14.08,14.08,0,0,1,1.57-.14,14.76,14.76,0,0,1,1.59-.16c.54-.07,1.06-.12,1.61-.14S234.28,179.12,234.8,179.1Z"/><path class="cls-3" d="M266.91,210.21c-.3,0-.6,0-.91,0-.52.05-1.06.08-1.59.1s-1.06.09-1.6.11-1.05.08-1.57.1-1.06.09-1.59.1-1.06.11-1.58.13-1.05.1-1.57.12-1.05.1-1.56.12-1,.11-1.56.12-1,.11-1.56.13a13.69,13.69,0,0,1-1.55.13,13.94,13.94,0,0,1-1.55.14,13.55,13.55,0,0,1-1.54.14c-.45.07-.89.11-1.34.14,0-11.19,0-22.37,0-33.55a1.06,1.06,0,0,1,.25,0,270.62,270.62,0,0,0,3.28-.21c.55-.07,1.11-.08,1.65-.1s1.1-.09,1.66-.09,1.1-.09,1.66-.09,1.11-.08,1.65-.08,1.12-.09,1.68-.09,1.11-.07,1.67-.07,1.14-.07,1.71-.07,1.12-.07,1.67-.07a13.47,13.47,0,0,1,1.68,0,13.69,13.69,0,0,1,1.69-.05c.24,0,.49,0,.73,0Q266.9,193.77,266.91,210.21Z"/><path class="cls-3" d="M354.54,179.68q0,15.45-.09,30.9l-.75-.07a302.7,302.7,0,0,0-3.68-.23,336.25,336.25,0,0,1-3.66-.19,15.45,15.45,0,0,1-1.81-.09c-.61,0-1.22,0-1.83-.08a15.62,15.62,0,0,1-1.82-.09,15.45,15.45,0,0,1-1.81-.09,12,12,0,0,1-1.8-.07,15.22,15.22,0,0,1-1.78-.07,11.83,11.83,0,0,1-1.78-.07,15,15,0,0,1-1.77-.05h-.14q-.06-15.67-.09-31.36a14.85,14.85,0,0,1,1.76.11,16,16,0,0,1,1.83.1,15.78,15.78,0,0,1,1.83.11,16.11,16.11,0,0,1,1.85.12,12.59,12.59,0,0,1,1.85.12,14.14,14.14,0,0,1,1.85.12,16.28,16.28,0,0,1,1.86.13,12.59,12.59,0,0,1,1.85.14,14.44,14.44,0,0,1,1.87.13,14.73,14.73,0,0,1,1.88.14,188.71,188.71,0,0,1,3.79.3A5.85,5.85,0,0,1,354.54,179.68Z"/><path class="cls-3" d="M416,214.24c8.53-4.62,17-9.24,25.5-13.88V220.1c-.58-.07-1.16-.16-1.71-.28a13.55,13.55,0,0,1-2-.31,13.08,13.08,0,0,1-2-.3,11.67,11.67,0,0,1-2-.3,12.89,12.89,0,0,1-2-.29,16.71,16.71,0,0,1-2-.28,14.38,14.38,0,0,1-2-.28,1427.89,1427.89,0,0,0-4-.56,14.35,14.35,0,0,1-2-.26,13.67,13.67,0,0,1-1.95-.26,14,14,0,0,1-2-.26,15.93,15.93,0,0,1-2-.27,13.39,13.39,0,0,1-1.93-.24c-.25,0-.47,0-.72-.07A12.66,12.66,0,0,1,416,214.24Z"/><path class="cls-3" d="M517.93,234.85a5.43,5.43,0,0,1-.61-.17,14.43,14.43,0,0,1-1.82-.4,16.68,16.68,0,0,1-1.79-.4,13.75,13.75,0,0,1-1.82-.42,13.91,13.91,0,0,1-1.81-.4,13.91,13.91,0,0,1-1.81-.4,12.27,12.27,0,0,1-1.82-.39,13.91,13.91,0,0,1-1.81-.4,14.22,14.22,0,0,1-2-.42,13.42,13.42,0,0,1-2.05-.45,11.57,11.57,0,0,1-2-.44,11.76,11.76,0,0,1-2.06-.42,6.64,6.64,0,0,1-.91-.15q0-14.24,0-28.45l.63.18a13.45,13.45,0,0,1,2.09.47,11.35,11.35,0,0,1,2.09.49,13.32,13.32,0,0,1,2.1.47,13.75,13.75,0,0,1,2.11.49,11.54,11.54,0,0,1,2.09.49,16.17,16.17,0,0,1,2.11.48,19,19,0,0,1,2,.47,14.14,14.14,0,0,1,1.84.46,12.45,12.45,0,0,1,1.85.43,17.86,17.86,0,0,1,1.85.46c.51.1,1,.21,1.48.35Q517.87,220.82,517.93,234.85Z"/><path class="cls-3" d="M679.86,259.62q0,12.58-.06,25.15c-.31-.11-.62-.25-.94-.4a11.55,11.55,0,0,1-1.6-.63,11.68,11.68,0,0,1-1.61-.63,11.07,11.07,0,0,1-1.62-.63,9.84,9.84,0,0,1-1.6-.63,9.3,9.3,0,0,1-1.62-.61,13.34,13.34,0,0,1-1.63-.62,12.21,12.21,0,0,1-1.62-.61,14.31,14.31,0,0,1-1.62-.63,11.24,11.24,0,0,1-1.62-.61,16.16,16.16,0,0,1-1.64-.61,14.23,14.23,0,0,1-1.62-.61,13.24,13.24,0,0,1-1.64-.61,14.55,14.55,0,0,1-1.64-.61l-.18-.06-.22-.07v-.1c0-3.49,0-7,0-10.48l-54-28.55q.1,10.37.18,20.72v.1a8.15,8.15,0,0,1-1.15-.38,10.6,10.6,0,0,1-1.71-.52,13.89,13.89,0,0,1-1.73-.53,14.64,14.64,0,0,1-1.71-.52,14.39,14.39,0,0,1-1.73-.52,14.54,14.54,0,0,1-1.7-.53,11.15,11.15,0,0,1-1.73-.52,11.45,11.45,0,0,1-1.73-.51,12.23,12.23,0,0,1-1.72-.52,11.1,11.1,0,0,1-1.73-.5,14.73,14.73,0,0,1-1.74-.51,15,15,0,0,1-1.77-.52,13.79,13.79,0,0,1-1.74-.51,12.44,12.44,0,0,1-1.74-.5,13.29,13.29,0,0,1-1.77-.51,11.82,11.82,0,0,1-1.76-.51,13.91,13.91,0,0,1-1.76-.48,14.07,14.07,0,0,1-1.76-.51c-.35-.07-.7-.16-1.05-.26,0-.35-.07-.7-.07-1.07l0-26.07a8.7,8.7,0,0,1,1.13.35,16.19,16.19,0,0,1,1.8.54,12.51,12.51,0,0,1,1.8.56,10,10,0,0,1,1.79.54,13.83,13.83,0,0,1,1.8.54,12,12,0,0,1,1.79.56,16.19,16.19,0,0,1,1.8.54,15.33,15.33,0,0,1,1.78.56,13.34,13.34,0,0,1,1.8.56,13,13,0,0,1,1.77.55,13.22,13.22,0,0,1,1.78.58,11.88,11.88,0,0,1,1.78.56,11.88,11.88,0,0,1,1.78.56,13.66,13.66,0,0,1,1.78.57,11.34,11.34,0,0,1,1.76.58,11.17,11.17,0,0,1,1.78.57,9.55,9.55,0,0,1,1.76.58,13.66,13.66,0,0,1,1.78.57,15.75,15.75,0,0,1,1.76.58,14,14,0,0,1,1.76.59,11.34,11.34,0,0,1,1.73.58,10.79,10.79,0,0,1,1.74.59,11.58,11.58,0,0,1,1.75.58,11.15,11.15,0,0,1,1.74.59,13.06,13.06,0,0,1,1.73.59,12.45,12.45,0,0,1,1.72.59,11.41,11.41,0,0,1,1.73.6,11.76,11.76,0,0,1,1.73.59,150.43,150.43,0,0,0,3.45,1.2,13.15,13.15,0,0,1,1.73.61,14,14,0,0,1,1.71.61,10.69,10.69,0,0,1,1.7.6,176,176,0,0,0,3.42,1.24,9.63,9.63,0,0,1,1.71.61,10.56,10.56,0,0,1,1.71.61,15.2,15.2,0,0,1,1.71.62,11.17,11.17,0,0,1,1.69.63,12.13,12.13,0,0,1,1.69.61,14.06,14.06,0,0,1,1.69.63,11.45,11.45,0,0,1,1.7.63,11.75,11.75,0,0,1,1.69.63,12.43,12.43,0,0,1,1.69.64,11.22,11.22,0,0,1,1.67.63,11.5,11.5,0,0,1,1.69.64,12.08,12.08,0,0,1,1.68.63,14.08,14.08,0,0,1,1.67.65,11,11,0,0,1,1.68.64,12.29,12.29,0,0,1,1.65.65,11,11,0,0,1,1.68.64,13.79,13.79,0,0,1,1.65.65,10.07,10.07,0,0,1,1.66.66,11.43,11.43,0,0,1,1.68.65,10.91,10.91,0,0,1,1.63.66,12.16,12.16,0,0,1,1.66.64,12,12,0,0,1,1.66.67,11,11,0,0,1,1.64.66,11.13,11.13,0,0,1,1.65.66,12.77,12.77,0,0,1,1.64.66,14.86,14.86,0,0,1,1.64.68,11,11,0,0,1,1.66.69,10.6,10.6,0,0,1,1.64.66A4.14,4.14,0,0,1,679.86,259.62Z"/><path class="cls-3" d="M759.13,320.18a285.79,285.79,0,0,1-2.86-1.43,13.59,13.59,0,0,1-1.43-.71,14,14,0,0,1-1.45-.72c-.49-.21-1-.45-1.45-.71a13,13,0,0,1-1.45-.72,10.11,10.11,0,0,1-1.44-.71,10.76,10.76,0,0,1-1.45-.7,11.76,11.76,0,0,1-1.47-.72,11.44,11.44,0,0,1-1.46-.69l0,0V302.29a6.67,6.67,0,0,1,9.88-5.84l13.63,7.41L768,324.73l-.35-.21a10,10,0,0,1-1.42-.73,11.63,11.63,0,0,1-1.41-.71,10.51,10.51,0,0,1-1.41-.74,11.62,11.62,0,0,1-1.41-.71,288.2,288.2,0,0,0-2.86-1.45Z"/><path class="cls-3" d="M975.76,527a5,5,0,0,1,0,1.22,5.54,5.54,0,0,1,0,1.22,4.46,4.46,0,0,1-.07,1.21,3.67,3.67,0,0,1-.07,1.2,5.24,5.24,0,0,1-.07,1.2,6.34,6.34,0,0,1-.1,1.16,67.4,67.4,0,0,1-.26,2.3,4.83,4.83,0,0,1-.14,1.15,4.26,4.26,0,0,1-.18,1.17,36.8,36.8,0,0,1-.38,2.33,4.33,4.33,0,0,1-.21,1.15,4.42,4.42,0,0,1-.23,1.16,4.9,4.9,0,0,1-.24,1.15,4.47,4.47,0,0,1-.26,1.15,4.51,4.51,0,0,1-.26,1.13,4.09,4.09,0,0,1-.3,1.13,4,4,0,0,1-.3,1.14,3.9,3.9,0,0,1-.31,1.08,4.16,4.16,0,0,1-.31,1.08,4.24,4.24,0,0,1-.34,1.06,4.94,4.94,0,0,1-.34,1.09,134.1,134.1,0,0,1-.75,2.12,5.21,5.21,0,0,1-.42,1.1,60.16,60.16,0,0,1-.86,2.15,4.48,4.48,0,0,1-.45,1.08,4.35,4.35,0,0,1-.47,1.06,4.41,4.41,0,0,1-.47,1.07,4.69,4.69,0,0,1-.49,1,3.54,3.54,0,0,1-.51,1,4,4,0,0,1-.5,1,4.49,4.49,0,0,1-.51,1,4.34,4.34,0,0,1-.54,1,4.34,4.34,0,0,1-.54,1,147.71,147.71,0,0,1-1.13,2,3.78,3.78,0,0,1-.58,1,4.12,4.12,0,0,1-.63,1,3.51,3.51,0,0,1-.62,1,3.8,3.8,0,0,1-.65,1,4.17,4.17,0,0,1-.66,1,4.3,4.3,0,0,1-.66,1,4.14,4.14,0,0,1-.7,1,3.7,3.7,0,0,1-.68.94,3.93,3.93,0,0,1-.7.92,4.2,4.2,0,0,1-.7.93,4.14,4.14,0,0,1-.71.91,3.7,3.7,0,0,1-.73.9,4.09,4.09,0,0,1-.75.91,4,4,0,0,1-.75.89,4.36,4.36,0,0,1-.77.89,3.69,3.69,0,0,1-.79.89,3.87,3.87,0,0,1-.78.89,4.4,4.4,0,0,1-.8.87,4.5,4.5,0,0,1-.82.87,3.74,3.74,0,0,1-.86.87,3.68,3.68,0,0,1-.87.89,4,4,0,0,1-.87.87,3.46,3.46,0,0,1-.89.86,3.4,3.4,0,0,1-.89.84,3.32,3.32,0,0,1-.89.82,95.07,95.07,0,0,1-1.81,1.63,3.29,3.29,0,0,1-.93.82,3.34,3.34,0,0,1-.94.81,3.56,3.56,0,0,1-1,.8,3.56,3.56,0,0,1-1,.8,3.73,3.73,0,0,1-1,.79,3.69,3.69,0,0,1-1,.78,3.39,3.39,0,0,1-1,.77,3.51,3.51,0,0,1-1,.78,3.17,3.17,0,0,1-1,.77,3,3,0,0,1-1,.75,3.65,3.65,0,0,1-1,.77,3.69,3.69,0,0,1-1.06.75,3.33,3.33,0,0,1-1.07.73,3.43,3.43,0,0,1-1.08.75,3.31,3.31,0,0,1-1.1.73,3.45,3.45,0,0,1-1.09.72,3.57,3.57,0,0,1-1.12.71,3.32,3.32,0,0,1-1.12.7,3.1,3.1,0,0,1-1.13.71,3.45,3.45,0,0,1-1.15.7,3.11,3.11,0,0,1-1.17.68A2.68,2.68,0,0,1,920,611a2.93,2.93,0,0,1-1.17.68,3,3,0,0,1-1.2.68,2193.24,2193.24,0,0,1-2.42,1.33,2.79,2.79,0,0,1-1.22.66,3,3,0,0,1-1.24.66,3.08,3.08,0,0,1-1.24.65,3.23,3.23,0,0,1-1.27.63A2.77,2.77,0,0,1,909,617a2.92,2.92,0,0,1-1.27.63,233.66,233.66,0,0,0-2.56,1.22h0a2.75,2.75,0,0,1-1.26.61h-.05a3,3,0,0,1-1.24.59h-.07a3.08,3.08,0,0,1-1.23.6h-.09a2.75,2.75,0,0,1-1.22.57s-.09,0-.12,0a2.93,2.93,0,0,1-1.21.56h-.14a2.69,2.69,0,0,1-1.18.56.62.62,0,0,1-.18,0,2.83,2.83,0,0,1-1.17.56.75.75,0,0,0-.21,0,2.72,2.72,0,0,1-1.15.54h-.22a2.42,2.42,0,0,1-1.14.54,1,1,0,0,1-.24,0,2.78,2.78,0,0,1-1.13.52l-.28,0a2.51,2.51,0,0,1-1.12.51,1,1,0,0,1-.3,0,2.49,2.49,0,0,1-1.09.51c-.11,0-.21,0-.32,0a2.76,2.76,0,0,1-1.08.51c-.12,0-.24,0-.35,0a2.74,2.74,0,0,1-1.08.49,2.22,2.22,0,0,1-.37,0,2.53,2.53,0,0,1-1.06.49,2.45,2.45,0,0,1-.38,0,2.51,2.51,0,0,1-1,.47c-.14,0-.28,0-.42,0a2.86,2.86,0,0,1-1,.47,3.28,3.28,0,0,1-.43,0,2.52,2.52,0,0,1-1,.45,2.58,2.58,0,0,1-.46,0,2.46,2.46,0,0,1-1,.46,2.63,2.63,0,0,1-.49,0,2.1,2.1,0,0,1-1,.45,2.14,2.14,0,0,1-.5.06,2.41,2.41,0,0,1-1,.43,1.86,1.86,0,0,1-.52,0,2.54,2.54,0,0,1-1,.43,2.62,2.62,0,0,1-.54.06,2.81,2.81,0,0,1-1,.43,2.59,2.59,0,0,1-.56,0,2.37,2.37,0,0,1-1,.41,1.38,1.38,0,0,1-.57,0,2.29,2.29,0,0,1-1,.44,3.89,3.89,0,0,1-.59,0,2.38,2.38,0,0,1-.94.42,4.29,4.29,0,0,1-.62,0,2.24,2.24,0,0,1-.94.42,2.16,2.16,0,0,1-.62,0,2.19,2.19,0,0,1-.93.42,2.12,2.12,0,0,1-.66,0,1.93,1.93,0,0,1-.91.4,1.83,1.83,0,0,1-.66,0,2.09,2.09,0,0,1-.91.44,2.21,2.21,0,0,1-.68,0,2.38,2.38,0,0,1-.92.44,2.75,2.75,0,0,1-.7,0,2,2,0,0,1-.89.44,2.79,2.79,0,0,1-.71,0,2,2,0,0,1-.89.42,2.36,2.36,0,0,1-.75,0,2.17,2.17,0,0,1-.88.41,1.89,1.89,0,0,1-.75,0,2.12,2.12,0,0,1-.87.41,2.55,2.55,0,0,1-.78,0,2.43,2.43,0,0,1-.86.4,2.14,2.14,0,0,1-.8,0,2,2,0,0,1-.85.4,2.21,2.21,0,0,1-.81,0,2.34,2.34,0,0,1-.83.38,2,2,0,0,1-.84,0,2.17,2.17,0,0,1-.84.39,2.31,2.31,0,0,1-.83,0,2.14,2.14,0,0,1-.84.38,2.26,2.26,0,0,1-.86,0,1.94,1.94,0,0,1-.82.38,2.11,2.11,0,0,1-.87,0,2,2,0,0,1-.82.4,1.9,1.9,0,0,1-.89-.06,1.87,1.87,0,0,1-.82.41,1.9,1.9,0,0,1-.89-.06,2,2,0,0,1-.82.4,1.8,1.8,0,0,0-1.72.35,1.74,1.74,0,0,0-1.73.33,1.91,1.91,0,0,1-.92-.07,2,2,0,0,1-.82.41,2,2,0,0,1-.93-.09,1.75,1.75,0,0,1-.82.4,1.67,1.67,0,0,1-.94-.09,1.64,1.64,0,0,1-.8.4,1.91,1.91,0,0,1-1-.08,1.6,1.6,0,0,1-.8.4,1.66,1.66,0,0,1-1-.11,1.86,1.86,0,0,1-.8.42,1.75,1.75,0,0,1-1-.12,1.9,1.9,0,0,1-.81.42,1.76,1.76,0,0,1-1-.12,1.83,1.83,0,0,1-.78.41,1.68,1.68,0,0,1-1-.14,1.55,1.55,0,0,1-.8.42,1.66,1.66,0,0,1-1-.14,1.57,1.57,0,0,1-.78.42,1.62,1.62,0,0,0-1.84.28,1.56,1.56,0,0,1-1-.16,1.65,1.65,0,0,1-.79.42,1.61,1.61,0,0,1-1.06-.15,1.54,1.54,0,0,1-.79.41,1.61,1.61,0,0,1-1.06-.15,1.63,1.63,0,0,1-.79.42,1.66,1.66,0,0,1-1.06-.18,4,4,0,0,0-2.65.66,1.45,1.45,0,0,1-1.08-.19,1.48,1.48,0,0,1-1.89.23,1.54,1.54,0,0,1-.76.44,1.64,1.64,0,0,1-1.14-.21,1.38,1.38,0,0,1-.76.43,1.49,1.49,0,0,1-1.12-.22,1.71,1.71,0,0,1-.77.45,1.54,1.54,0,0,1-1.15-.25,1.47,1.47,0,0,1-.77.46,1.49,1.49,0,0,1-1.13-.25,1.55,1.55,0,0,1-.77.46,1.58,1.58,0,0,1-1.15-.26,1.53,1.53,0,0,1-.76.45,1.42,1.42,0,0,1-1.16-.28,3.11,3.11,0,0,0-2.72.66,1.36,1.36,0,0,1-1.15-.31,1.33,1.33,0,0,1-2,.17,1.2,1.2,0,0,1-.79.49,1.36,1.36,0,0,1-1.16-.33,1.44,1.44,0,0,1-.81.51,1.28,1.28,0,0,0-2,.15,1.29,1.29,0,0,1-1.16-.36,1.39,1.39,0,0,1-.81.52,1.31,1.31,0,0,1-1.17-.38,1.35,1.35,0,0,1-.82.54,1.33,1.33,0,0,1-1.18-.42,1.23,1.23,0,0,1-.8.56,1.33,1.33,0,0,1-1.21-.44,1.23,1.23,0,0,1-.8.58,1.17,1.17,0,0,0-1.9.12,1.31,1.31,0,0,1-.89-.18,1,1,0,0,1-.5.26,1.25,1.25,0,0,1-.89-.17,1.3,1.3,0,0,1-.51.26,1.22,1.22,0,0,1-.89-.19,1.11,1.11,0,0,1-.52.26,1.08,1.08,0,0,1-.89-.21,1,1,0,0,1-.53.28,1.1,1.1,0,0,1-.88-.21,1.09,1.09,0,0,1-.53.28,1.05,1.05,0,0,1-.89-.23.92.92,0,0,1-.52.28,1.07,1.07,0,0,1-.89-.22,1.24,1.24,0,0,1-.54.29,1,1,0,0,1-.89-.26.91.91,0,0,1-.54.32,1,1,0,0,1-.89-.27.91.91,0,0,1-.54.32,1,1,0,0,1-.89-.28,1,1,0,0,1-.54.33,1,1,0,0,1-1.19-.8,1,1,0,0,1,1.66-.93,1,1,0,0,1,.58-.34,1,1,0,0,1,.85.24.92.92,0,0,1,.56-.33,1,1,0,0,1,.87.22,1.16,1.16,0,0,1,.56-.33,1,1,0,0,1,.85.23,1.11,1.11,0,0,1,.56-.33,1.13,1.13,0,0,1,.86.21,1.31,1.31,0,0,1,.55-.32,1.13,1.13,0,0,1,.86.2,1.25,1.25,0,0,1,.54-.3,1.29,1.29,0,0,1,.87.17,1.11,1.11,0,0,1,.54-.28,1.13,1.13,0,0,1,.86.16,1.21,1.21,0,0,1,.54-.28,1.06,1.06,0,0,1,.83.16,1.15,1.15,0,0,1,.56-.28,1.09,1.09,0,0,1,.84.16,1.15,1.15,0,0,1,.54-.3,1.26,1.26,0,0,1,1.1.37,1.24,1.24,0,0,1,.8-.53,1.22,1.22,0,0,1,1.15.42,1.27,1.27,0,0,1,.84-.59,1.29,1.29,0,0,1,1.15.38,1.25,1.25,0,0,1,.84-.57,1.3,1.3,0,0,1,1.13.36,1.37,1.37,0,0,1,.84-.55,1.29,1.29,0,0,1,1.13.34,1.39,1.39,0,0,1,.84-.54,1.27,1.27,0,0,0,2-.21,1.27,1.27,0,0,1,1.13.34,1.32,1.32,0,0,1,.82-.54,1.35,1.35,0,0,1,1.14.31,1.32,1.32,0,0,1,.82-.52,1.28,1.28,0,0,1,1.11.28,1.41,1.41,0,0,1,.82-.51,1.31,1.31,0,0,1,1.12.28,1.41,1.41,0,0,1,.82-.51,1.37,1.37,0,0,0,1.92-.24,1.49,1.49,0,0,1,1.1.24,1.39,1.39,0,0,1,.8-.47,1.42,1.42,0,0,1,1.11.21,1.47,1.47,0,0,1,.81-.47,1.49,1.49,0,0,1,1.09.23,1.41,1.41,0,0,1,.79-.47,1.41,1.41,0,0,0,1.88-.27,1.53,1.53,0,0,1,1.08.2,1.56,1.56,0,0,1,.81-.46,1.4,1.4,0,0,1,1.06.2,1.66,1.66,0,0,1,.8-.48,1.58,1.58,0,0,1,1.07.2,1.48,1.48,0,0,1,.8-.47,1.51,1.51,0,0,0,1.85-.28,1.53,1.53,0,0,1,1,.15,1.58,1.58,0,0,1,.81-.45,1.56,1.56,0,0,1,1,.16,1.75,1.75,0,0,1,.82-.46,1.5,1.5,0,0,1,1,.16,1.61,1.61,0,0,1,.82-.47,1.66,1.66,0,0,1,1,.16,1.53,1.53,0,0,1,.82-.46,1.63,1.63,0,0,1,1,.13,1.57,1.57,0,0,1,.82-.44,1.67,1.67,0,0,1,1,.12,1.91,1.91,0,0,1,.84-.45,1.66,1.66,0,0,1,1,.12,1.73,1.73,0,0,1,.83-.45,1.62,1.62,0,0,1,.95.12,1.73,1.73,0,0,1,.83-.45,1.79,1.79,0,0,1,1,.1,1.63,1.63,0,0,1,.83-.44,1.63,1.63,0,0,0,1.76-.35,1.84,1.84,0,0,1,.93.09,1.71,1.71,0,0,1,.84-.45,2,2,0,0,1,.9.09,1.79,1.79,0,0,1,.84-.44,1.67,1.67,0,0,1,.89.07,1.71,1.71,0,0,1,1.73-.38,1.75,1.75,0,0,1,.85-.42,1.6,1.6,0,0,1,.87.05,1.91,1.91,0,0,1,.86-.44,1.82,1.82,0,0,0,1.71-.38,2.21,2.21,0,0,1,.85,0,1.79,1.79,0,0,1,.84-.41,1.66,1.66,0,0,1,.83,0,2.28,2.28,0,0,1,.86-.41,2.15,2.15,0,0,1,.84,0,2.06,2.06,0,0,1,.85-.42,2.26,2.26,0,0,1,.82,0,1.91,1.91,0,0,1,.85-.4,1.84,1.84,0,0,1,.81,0,2,2,0,0,1,.87-.42,2,2,0,0,1,.77,0,2.23,2.23,0,0,1,.88-.41,1.58,1.58,0,0,1,.75,0,2.13,2.13,0,0,1,.89-.44,1.89,1.89,0,0,1,.75,0,1.78,1.78,0,0,1,.89-.44,2.17,2.17,0,0,1,.72,0,2.11,2.11,0,0,1,.91-.45,2,2,0,0,1,.69,0,2.32,2.32,0,0,1,.93-.46,2.21,2.21,0,0,1,.68,0,2.15,2.15,0,0,1,.92-.45,2.43,2.43,0,0,1,.66,0,2.26,2.26,0,0,1,.95-.45,2.29,2.29,0,0,1,.64,0,2.18,2.18,0,0,1,.94-.46,1.9,1.9,0,0,1,.63,0,2.16,2.16,0,0,1,1-.47,1.67,1.67,0,0,1,.59,0,2.13,2.13,0,0,1,1-.47,1.51,1.51,0,0,1,.56,0,2.1,2.1,0,0,1,1-.49,3.76,3.76,0,0,1,.58,0,2.42,2.42,0,0,1,1-.46,3.7,3.7,0,0,1,.56,0,2.35,2.35,0,0,1,1.52-.49,2.66,2.66,0,0,1,1-.47,4.73,4.73,0,0,1,.53,0,2.33,2.33,0,0,1,1-.45,2.63,2.63,0,0,1,.49-.05,2.48,2.48,0,0,1,1-.47,4.22,4.22,0,0,1,.49,0,2.35,2.35,0,0,1,1-.47,2.42,2.42,0,0,1,.47-.05,2.27,2.27,0,0,1,1-.47,1.57,1.57,0,0,1,.43,0,2.3,2.3,0,0,1,1.05-.48,1.5,1.5,0,0,1,.42,0,2.35,2.35,0,0,1,1-.5,2.85,2.85,0,0,1,.41,0,2.44,2.44,0,0,1,1.06-.51l.37,0a2.64,2.64,0,0,1,1.08-.51l.35,0a2.63,2.63,0,0,1,1.09-.52,1.72,1.72,0,0,1,.32,0,2.29,2.29,0,0,1,1.11-.52.75.75,0,0,1,.3,0,2.5,2.5,0,0,1,1.12-.54,1.19,1.19,0,0,1,.28,0,2.53,2.53,0,0,1,1.13-.54l.24,0a2.66,2.66,0,0,1,1.15-.54.9.9,0,0,1,.23,0,2.55,2.55,0,0,1,1.17-.56.62.62,0,0,1,.19,0,2.59,2.59,0,0,1,1.19-.57s.1,0,.17,0a2.5,2.5,0,0,1,1.19-.57.39.39,0,0,0,.15,0,2.68,2.68,0,0,1,1.21-.58s.08,0,.12,0a3.15,3.15,0,0,1,1.22-.59h.1a3,3,0,0,1,1.24-.61h.07a2.86,2.86,0,0,1,1.26-.61h.05a2.66,2.66,0,0,1,1.26-.61l0,0a2.84,2.84,0,0,1,1.27-.61,3.06,3.06,0,0,1,1.28-.62,2.76,2.76,0,0,1,1.24-.63,2.73,2.73,0,0,1,1.23-.63,3.08,3.08,0,0,1,1.24-.65,3,3,0,0,1,1.21-.64,3,3,0,0,1,1.2-.65,3.51,3.51,0,0,1,1.2-.66,3.08,3.08,0,0,1,1.19-.66,2.86,2.86,0,0,1,1.17-.66,2.94,2.94,0,0,1,1.15-.67,3,3,0,0,1,1.15-.68,2.84,2.84,0,0,1,1.15-.68,3.05,3.05,0,0,1,1.11-.69,161.42,161.42,0,0,0,2.22-1.4,3.26,3.26,0,0,1,1.1-.71,3.09,3.09,0,0,1,1.1-.7,3,3,0,0,1,1.06-.73,3.37,3.37,0,0,1,1.06-.72,3.2,3.2,0,0,1,1-.73,3.68,3.68,0,0,1,1-.72,3.44,3.44,0,0,1,1-.73,3,3,0,0,1,1-.73,3.17,3.17,0,0,1,1-.75,3.07,3.07,0,0,1,1-.73,3.31,3.31,0,0,1,1-.77,3.23,3.23,0,0,1,1-.75,3.29,3.29,0,0,1,1-.77,3.81,3.81,0,0,1,.92-.77,3.34,3.34,0,0,1,.92-.76,3.68,3.68,0,0,1,.93-.79,3.19,3.19,0,0,1,.89-.78,3.69,3.69,0,0,1,.89-.79,3.57,3.57,0,0,1,.89-.8,3.4,3.4,0,0,1,.85-.8,3.11,3.11,0,0,1,.86-.8,3.79,3.79,0,0,1,.83-.82,4.1,4.1,0,0,1,.82-.79,3.74,3.74,0,0,1,.79-.8,4.54,4.54,0,0,1,.78-.8,3.79,3.79,0,0,1,.79-.81,4,4,0,0,1,.76-.83,3.62,3.62,0,0,1,.77-.84,4.07,4.07,0,0,1,.77-.84,3.6,3.6,0,0,1,.73-.83,3.37,3.37,0,0,1,.73-.86,3.49,3.49,0,0,1,.72-.85,3.67,3.67,0,0,1,.7-.87,3.39,3.39,0,0,1,.69-.86,3.45,3.45,0,0,1,.68-.87,3.65,3.65,0,0,1,.67-.89,3.83,3.83,0,0,1,.64-.87,4.07,4.07,0,0,1,.65-.89,3.56,3.56,0,0,1,.61-.86,3.5,3.5,0,0,1,.59-.85,4,4,0,0,1,.58-.87,3.9,3.9,0,0,1,.57-.88,3.74,3.74,0,0,1,.56-.88,4.5,4.5,0,0,1,.54-.89,3.54,3.54,0,0,1,.56-.91,4.52,4.52,0,0,1,.54-.93A4.37,4.37,0,0,1,956,567a5,5,0,0,1,.51-.94,4.37,4.37,0,0,1,.5-.93,4,4,0,0,1,.49-.94,5,5,0,0,1,.47-1,4.31,4.31,0,0,1,.46-.94,4.14,4.14,0,0,1,.43-.9,4.39,4.39,0,0,1,.42-.93,6,6,0,0,1,.4-.94,5.34,5.34,0,0,1,.4-.92,3.59,3.59,0,0,1,.39-1,4,4,0,0,1,.36-.94,3.55,3.55,0,0,1,.35-.94,3.82,3.82,0,0,1,.35-1,10199085768983.46,10199085768983.46,0,0,0,.66-2,4.86,4.86,0,0,1,.32-1,115.34,115.34,0,0,1,.59-2,5.47,5.47,0,0,1,.26-1,4.63,4.63,0,0,1,.26-1,4.86,4.86,0,0,1,.25-1,3.57,3.57,0,0,1,.22-1,5.38,5.38,0,0,1,.21-1,5.66,5.66,0,0,1,.21-1,4.45,4.45,0,0,1,.18-1,4.1,4.1,0,0,1,.17-1,5,5,0,0,1,.16-1,3.79,3.79,0,0,1,.14-1,4.24,4.24,0,0,1,.14-1.07,5.38,5.38,0,0,1,.12-1.06,4.31,4.31,0,0,1,.12-1.08,4.22,4.22,0,0,1,.09-1.07,5.36,5.36,0,0,1,.09-1.06,4,4,0,0,1,.07-1.05,5.35,5.35,0,0,1,0-1.06,4.11,4.11,0,0,1,.05-1.05,3.76,3.76,0,0,1,0-1.06,4.16,4.16,0,0,1,0-1.06,6.61,6.61,0,0,1,0-1.09,4.18,4.18,0,0,1,0-1.06,4.38,4.38,0,0,1,0-1.08,5.08,5.08,0,0,1-.05-1,4.91,4.91,0,0,1,0-.85,3.43,3.43,0,0,1-.05-.77,699.28,699.28,0,0,0-.14-1.57l-.06-.56v0a6.13,6.13,0,0,1-.07-.76.1.1,0,0,1,0,0,3.61,3.61,0,0,1-.07-.73s0-.05,0-.09a5.72,5.72,0,0,1-.07-.7.41.41,0,0,0,0-.12c0-.22-.05-.43-.07-.66a.45.45,0,0,0,0-.16,4.46,4.46,0,0,1-.05-.63,1.47,1.47,0,0,0-.07-.17,4.42,4.42,0,0,1-.05-.61,1.72,1.72,0,0,1-.07-.21,5.42,5.42,0,0,1-.06-.58c0-.08,0-.15-.07-.24s0-.37-.05-.54-.07-.19-.09-.28,0-.35,0-.5a3.07,3.07,0,0,1-.11-.32c0-.17,0-.33,0-.49a1.2,1.2,0,0,1-.1-.35,2.79,2.79,0,0,1-.06-.43,3.69,3.69,0,0,1-.1-.39,1.75,1.75,0,0,1,0-.4c0-.14-.09-.28-.13-.41s0-.25,0-.39a2.11,2.11,0,0,1-.12-.43,2.21,2.21,0,0,1,0-.35c0-.16-.12-.32-.15-.47s0-.21,0-.32-.12-.33-.16-.52a2.4,2.4,0,0,1,0-.28,3.08,3.08,0,0,1-.16-.54,1.14,1.14,0,0,1,0-.25,5.09,5.09,0,0,1-.19-.59.75.75,0,0,0,0-.21c0-.21-.14-.4-.17-.61a.62.62,0,0,1,0-.19,3.78,3.78,0,0,1-.19-.63.39.39,0,0,1,0-.15c-.07-.23-.16-.44-.21-.68a.3.3,0,0,0,0-.13,6,6,0,0,1-.2-.71v-.09a4.43,4.43,0,0,1-.23-.73s0,0,0-.05a6.57,6.57,0,0,1-.23-.79v0a2.38,2.38,0,0,1-.15-.52,6.14,6.14,0,0,1-.25-.8c-.1-.26-.17-.54-.26-.8a7.53,7.53,0,0,1-.24-.81,4.4,4.4,0,0,1-.26-.8,3.8,3.8,0,0,1-.28-.8,5.08,5.08,0,0,1-.28-.8,5.08,5.08,0,0,1-.28-.8,8,8,0,0,1-.3-.82,5.17,5.17,0,0,1-.29-.81,78.45,78.45,0,0,0-.61-1.6,5.81,5.81,0,0,1-.32-.82,4.07,4.07,0,0,1-.33-.8,7.92,7.92,0,0,1-.33-.8,4.14,4.14,0,0,1-.33-.82,4.5,4.5,0,0,1-.35-.81,4.73,4.73,0,0,1-.35-.8,7.59,7.59,0,0,1-.37-.82,5.75,5.75,0,0,1-.36-.8,7.59,7.59,0,0,1-.37-.82,5.75,5.75,0,0,1-.36-.8,5.12,5.12,0,0,1-.39-.82,3.9,3.9,0,0,1-.4-.82c-.14-.26-.28-.52-.4-.8s-.28-.54-.4-.82a5.66,5.66,0,0,1-.4-.82,4.45,4.45,0,0,1-.42-.81,4.81,4.81,0,0,1-.42-.81,97.54,97.54,0,0,1-.87-1.64,6,6,0,0,1-.3-.56,7.17,7.17,0,0,1-.45-.82,3.79,3.79,0,0,1-.44-.82,4.38,4.38,0,0,1-.47-.82,5.8,5.8,0,0,1-.45-.82,5.25,5.25,0,0,1-.47-.8,5.68,5.68,0,0,1-.47-.84,4.14,4.14,0,0,1-.49-.82,6.35,6.35,0,0,1-.49-.82,7.72,7.72,0,0,1-.49-.82,108.92,108.92,0,0,0-1-1.64,110.72,110.72,0,0,0-1-1.64,7.07,7.07,0,0,1-.52-.82,8.82,8.82,0,0,1-.53-.82,7.24,7.24,0,0,1-.54-.82,5.62,5.62,0,0,1-.54-.83,4.52,4.52,0,0,1-.55-.82,6403943409790.22,6403943409790.22,0,0,1-1.12-1.64,9.34,9.34,0,0,1-.58-.82,6.19,6.19,0,0,1-.57-.84,7.07,7.07,0,0,1-.58-.82,6.1,6.1,0,0,1-.59-.82c-.21-.26-.4-.54-.59-.82a8.35,8.35,0,0,1-.6-.83c-.21-.27-.41-.53-.61-.82s-.42-.53-.61-.82-.42-.54-.61-.82-.43-.54-.63-.84a7.34,7.34,0,0,1-.62-.82,6.37,6.37,0,0,1-.63-.82,7.81,7.81,0,0,1-.65-.84,138.48,138.48,0,0,0-1.29-1.64,6.49,6.49,0,0,1-.66-.83,7.18,7.18,0,0,1-.66-.82,7.58,7.58,0,0,1-.68-.82,6.24,6.24,0,0,1-.68-.84,4.8,4.8,0,0,1-.49-.59,9,9,0,0,1-.68-.82,8.2,8.2,0,0,1-.7-.84c-.24-.24-.47-.54-.7-.82a9.65,9.65,0,0,1-.69-.84,6.07,6.07,0,0,1-.7-.82,7,7,0,0,1-.72-.83,8.21,8.21,0,0,1-.73-.82,7.16,7.16,0,0,1-.71-.84,6.52,6.52,0,0,1-.74-.82,8.21,8.21,0,0,1-.73-.82,93.33,93.33,0,0,0-1.5-1.66c-.26-.26-.5-.54-.75-.83a6.45,6.45,0,0,1-.75-.82,7.24,7.24,0,0,1-.76-.82,6.09,6.09,0,0,1-.77-.84,5.58,5.58,0,0,1-.79-.82,7.76,7.76,0,0,1-.78-.84,6.84,6.84,0,0,1-.79-.82,7.56,7.56,0,0,1-.78-.82,94,94,0,0,0-1.61-1.65c-.29-.26-.55-.53-.82-.82a10.67,10.67,0,0,1-.8-.84,6.35,6.35,0,0,1-.82-.82,9.17,9.17,0,0,1-.83-.82,7.31,7.31,0,0,1-.84-.83,8.13,8.13,0,0,1-.84-.82,10.79,10.79,0,0,1-.84-.82c-.29-.27-.57-.53-.85-.82a10.88,10.88,0,0,1-.84-.82,11.5,11.5,0,0,1-.87-.84,6.57,6.57,0,0,1-.85-.82,6.2,6.2,0,0,1-.88-.82,7.53,7.53,0,0,1-.87-.82,11592208321606.11,11592208321606.11,0,0,0-1.78-1.64,9.82,9.82,0,0,1-.89-.82,7.78,7.78,0,0,1-.89-.84,5.34,5.34,0,0,1-.9-.82,6.29,6.29,0,0,1-.91-.81,7.75,7.75,0,0,1-.91-.82,6.5,6.5,0,0,1-.92-.82,6.5,6.5,0,0,1-.92-.82,6.07,6.07,0,0,1-.93-.82,8.94,8.94,0,0,1-.94-.81,7.27,7.27,0,0,1-.92-.82,8.54,8.54,0,0,1-1-.81c-.33-.27-.65-.53-1-.82s-.66-.53-.95-.82a6.82,6.82,0,0,1-1-.82,8.23,8.23,0,0,1-1-.81,8.68,8.68,0,0,1-1-.82,10.91,10.91,0,0,1-1-.82,6.72,6.72,0,0,1-1-.81,7.67,7.67,0,0,1-1-.81c-.26-.19-.52-.4-.77-.62a8.33,8.33,0,0,1-1-.81,7.87,7.87,0,0,1-1-.82,8.53,8.53,0,0,1-1-.82,7.1,7.1,0,0,1-1-.8,6.7,6.7,0,0,1-1-.82,6.7,6.7,0,0,1-1-.82,6.48,6.48,0,0,1-1-.8,8.05,8.05,0,0,1-1-.82,7.9,7.9,0,0,1-1-.8,10.23,10.23,0,0,1-1-.82,8.73,8.73,0,0,1-1-.8,12.17,12.17,0,0,1-1-.81,8.91,8.91,0,0,1-1-.82,6.78,6.78,0,0,1-1.07-.8,10.91,10.91,0,0,1-1.06-.8c-.37-.24-.72-.52-1.07-.8a9.63,9.63,0,0,1-1.06-.82,9.13,9.13,0,0,1-1.08-.8,8.22,8.22,0,0,1-1.08-.81,6,6,0,0,1-1.08-.8,6.57,6.57,0,0,1-1.1-.8,9.65,9.65,0,0,1-1.1-.8,9.33,9.33,0,0,1-1.1-.8,8.4,8.4,0,0,1-1.1-.81,6.26,6.26,0,0,1-1.11-.8,9.26,9.26,0,0,1-1.12-.78,9.13,9.13,0,0,1-1.12-.81,9.65,9.65,0,0,1-1.13-.8,7.36,7.36,0,0,1-1.12-.8,8.7,8.7,0,0,1-1.15-.79,9.65,9.65,0,0,1-1.13-.8,7.54,7.54,0,0,1-1.13-.78,10.8,10.8,0,0,1-1.16-.8,11.16,11.16,0,0,1-1.15-.79,9.53,9.53,0,0,1-1.16-.8,8.18,8.18,0,0,1-1.16-.79c-.34-.21-.68-.41-1-.66a874.29,874.29,0,0,1-2.51-1.67,11.24,11.24,0,0,1-1.17-.77,100.71,100.71,0,0,0-2.33-1.55,147.62,147.62,0,0,0-2.39-1.57,6.5,6.5,0,0,1-.86-.54l0-22.57a1.77,1.77,0,0,1,.17.12,10.61,10.61,0,0,1,1.26.84,9.2,9.2,0,0,1,1.26.84,10,10,0,0,1,1.25.83,9,9,0,0,1,1.24.84,9.77,9.77,0,0,1,1.24.86,9.24,9.24,0,0,1,1.24.83,12.27,12.27,0,0,1,1.22.86,9,9,0,0,1,1.22.83,9.93,9.93,0,0,1,1.2.84,8.92,8.92,0,0,1,1.2.84,8.75,8.75,0,0,1,1.21.84,7.58,7.58,0,0,1,1.18.83,9.1,9.1,0,0,1,1.19.84,9.33,9.33,0,0,1,1.18.85,9.1,9.1,0,0,1,1.19.84,9.7,9.7,0,0,1,1.24.89c.35.23.7.51,1,.77a11.76,11.76,0,0,1,1.15.85,9.92,9.92,0,0,1,1.17.84,9.76,9.76,0,0,1,1.15.85,11.23,11.23,0,0,1,1.17.84,10.21,10.21,0,0,1,1.13.86,7.43,7.43,0,0,1,1.15.85,7.89,7.89,0,0,1,1.13.84,8.89,8.89,0,0,1,1.14.85,8.63,8.63,0,0,1,1.13.86,9.12,9.12,0,0,1,1.14.85,140.81,140.81,0,0,0,2.23,1.71,8.75,8.75,0,0,1,1.1.85,8.43,8.43,0,0,1,1.11.86,8.08,8.08,0,0,1,1.1.85,8.84,8.84,0,0,1,1.1.86,7.34,7.34,0,0,1,1.08.85,10.44,10.44,0,0,1,1.1.86,11.11,11.11,0,0,1,1.08.87,7.18,7.18,0,0,1,1.06.85,8.07,8.07,0,0,1,1.09.86,8.92,8.92,0,0,1,1.06.87,7.18,7.18,0,0,1,1.06.85,9.82,9.82,0,0,1,1.07.86,10.84,10.84,0,0,1,1.29,1.06,12.4,12.4,0,0,1,1,.88,7.82,7.82,0,0,1,1,.87,9.3,9.3,0,0,1,1,.85,11,11,0,0,1,1,.87,10.86,10.86,0,0,1,1,.88,8.17,8.17,0,0,1,1,.87,6.93,6.93,0,0,1,1,.87,7.57,7.57,0,0,1,1,.85,8.61,8.61,0,0,1,1,.88,8.32,8.32,0,0,1,1,.87,10.43,10.43,0,0,1,1,.87,10.57,10.57,0,0,1,1,.87c.34.28.68.56,1,.87s.66.56,1,.88a11.2,11.2,0,0,1,1,.87,10,10,0,0,1,1,.89,6.56,6.56,0,0,1,1,.87,5.68,5.68,0,0,1,1,.87,12635817100632.21,12635817100632.21,0,0,0,1.92,1.74,9.82,9.82,0,0,1,.94.89,7.06,7.06,0,0,1,.94.88,7,7,0,0,1,.93.87,9.53,9.53,0,0,1,.92.87,76.24,76.24,0,0,0,1.85,1.76,9.53,9.53,0,0,1,.91.89,7.4,7.4,0,0,1,.9.87,7.49,7.49,0,0,1,.91.87,12.45,12.45,0,0,1,.89.89,6.18,6.18,0,0,1,.89.88,8.31,8.31,0,0,1,.89.89,8.09,8.09,0,0,1,.89.87,10.46,10.46,0,0,1,.87.89,7.94,7.94,0,0,1,.87.87,9,9,0,0,1,.86.89,7.16,7.16,0,0,1,.85.89,7,7,0,0,1,.85.87,7.21,7.21,0,0,1,.86.89,6.49,6.49,0,0,1,.84.89,5.67,5.67,0,0,1,.83.87,7.78,7.78,0,0,1,.84.89,5.35,5.35,0,0,1,.82.89,5.61,5.61,0,0,1,.82.87,8.56,8.56,0,0,1,.82.89,9.82,9.82,0,0,1,.82.89,7.75,7.75,0,0,1,.8.89,9.59,9.59,0,0,1,.8.87,11.15,11.15,0,0,1,.79.89,8.15,8.15,0,0,1,.78.89,6.7,6.7,0,0,1,.79.89,7.22,7.22,0,0,1,.78.87,9.27,9.27,0,0,1,.77.89,10.92,10.92,0,0,1,.77.89,7.85,7.85,0,0,1,.75.89,8753795799019.21,8753795799019.21,0,0,1,1.5,1.78,6.89,6.89,0,0,1,.75.87,8.4,8.4,0,0,1,.92,1.13A170,170,0,0,1,935,429a6.16,6.16,0,0,1,.71.89,6.23,6.23,0,0,1,.72.89,161.79,161.79,0,0,1,1.39,1.78,6.87,6.87,0,0,1,.7.89,6,6,0,0,1,.68.89,6,6,0,0,1,.68.89,7.72,7.72,0,0,1,.68.89,154.08,154.08,0,0,0,1.33,1.78,6.41,6.41,0,0,1,.66.89,5.75,5.75,0,0,1,.64.89,5.55,5.55,0,0,1,.65.88,6.9,6.9,0,0,1,.64.89,6,6,0,0,1,.63.89,4.81,4.81,0,0,1,.63.89,6,6,0,0,1,.63.89,7.78,7.78,0,0,1,.61.89,6.68,6.68,0,0,1,.61.89,6.68,6.68,0,0,1,.61.89,5.72,5.72,0,0,1,.59.89,5.72,5.72,0,0,1,.59.89,6,6,0,0,1,.6.89,6.75,6.75,0,0,1,.57.89,8,8,0,0,1,.58.89,393.57,393.57,0,0,1,1.69,2.67,5.6,5.6,0,0,1,.54.88,6.21,6.21,0,0,1,.54.89,5.42,5.42,0,0,1,.54.89,7.27,7.27,0,0,1,.54.89,8.7,8.7,0,0,1,.53.89,8.2,8.2,0,0,1,.5.87,7.45,7.45,0,0,1,.53.89c.19.28.34.6.5.89a5.92,5.92,0,0,1,.49.89,7,7,0,0,1,.5.89,5.92,5.92,0,0,1,.49.89,4.69,4.69,0,0,1,.61,1.15,5,5,0,0,1,.47.89,6.66,6.66,0,0,1,.48.87,166.18,166.18,0,0,1,1.34,2.67,4.29,4.29,0,0,1,.43.89,4.91,4.91,0,0,1,.44.89,7.87,7.87,0,0,1,.44.87c.15.3.29.58.41.89a5.53,5.53,0,0,1,.41.89,6.51,6.51,0,0,1,.4.89,6.26,6.26,0,0,1,.4.87,6.51,6.51,0,0,1,.4.89,4.67,4.67,0,0,1,.38.89,6.1,6.1,0,0,1,.39.87,6.37,6.37,0,0,1,.36.89,4.37,4.37,0,0,1,.37.87,5.19,5.19,0,0,1,.36.89,4.58,4.58,0,0,1,.35.89,4.25,4.25,0,0,1,.35.88,4.71,4.71,0,0,1,.35.89,4.34,4.34,0,0,1,.33.87,4.58,4.58,0,0,1,.33.87,6.72,6.72,0,0,1,.32.89,5.29,5.29,0,0,1,.31.87,5.22,5.22,0,0,1,.32.89,89.11,89.11,0,0,0,.59,1.74,6.18,6.18,0,0,1,.29.89,5.3,5.3,0,0,1,.28.88,4.91,4.91,0,0,1,.28.87,8.11,8.11,0,0,1,.35,1.15v0a6.07,6.07,0,0,1,.25.82v0a4.15,4.15,0,0,1,.24.78s0,.05,0,.09a5.37,5.37,0,0,1,.22.77v.1a4.75,4.75,0,0,1,.23.73c0,.06,0,.09,0,.14.07.23.16.46.21.7,0,.07,0,.12,0,.18.06.22.15.43.2.66a.75.75,0,0,0,0,.21c.07.21.14.42.19.64s0,.16,0,.23a4.69,4.69,0,0,1,.18.61,2.3,2.3,0,0,0,0,.26,4.91,4.91,0,0,1,.17.58,1.42,1.42,0,0,1,0,.29c.05.18.14.35.18.54s0,.21,0,.33a3.72,3.72,0,0,1,.16.51,2.21,2.21,0,0,1,0,.37,2.15,2.15,0,0,1,.14.47c0,.12,0,.26,0,.4s.08.28.12.43a2,2,0,0,1,0,.42,2.3,2.3,0,0,1,.14.42c0,.16,0,.3,0,.46s.09.24.12.38,0,.31,0,.49a3.18,3.18,0,0,1,.1.33,3.26,3.26,0,0,1,0,.52c0,.11.07.21.09.32s0,.36,0,.55a1.31,1.31,0,0,1,.09.28c0,.19,0,.39,0,.6s.05.15.07.24a4.22,4.22,0,0,1,.07.61.8.8,0,0,1,0,.21,3,3,0,0,1,.07.66,1.89,1.89,0,0,1,.06.18,5.05,5.05,0,0,1,.07.68c0,.05,0,.1,0,.15a5.49,5.49,0,0,1,.07.72.21.21,0,0,0,0,.1,4.84,4.84,0,0,1,.06.75s0,.06,0,.09a4,4,0,0,1,.07.77.06.06,0,0,1,0,.05,7.61,7.61,0,0,1,.09.82,4.53,4.53,0,0,1,.08,1.1,3.06,3.06,0,0,1,.07.85,4.16,4.16,0,0,1,.07.86,6.07,6.07,0,0,1,.06.85,8.27,8.27,0,0,1,0,.86,4.84,4.84,0,0,1,0,.85,4.07,4.07,0,0,1,0,.86,7.61,7.61,0,0,1,0,.83,5,5,0,0,1,0,.86,4,4,0,0,1,0,.85,6.61,6.61,0,0,1,0,.89,106.48,106.48,0,0,0,0,2.3Z"/></svg>