<?xml version="1.0" encoding="utf-8"?>
<!-- Generator: Adobe Illustrator 24.2.3, SVG Export Plug-In . SVG Version: 6.00 Build 0)  -->
<svg version="1.1" id="Layer_1" xmlns="http://www.w3.org/2000/svg" xmlns:xlink="http://www.w3.org/1999/xlink" x="0px" y="0px"
	 viewBox="0 0 200 200" style="enable-background:new 0 0 200 200;" xml:space="preserve">
<style type="text/css">
	.st0{fill:#B74D04;}
	.st1{fill:#9B4104;}
</style>
<path class="st0" d="M197.7,121.1L197.7,121.1c-1.6,7.3-3.9,14.4-7.1,21.2l0,0c-0.4,0.8-0.8,1.6-1.2,2.4l0,0
	c-2.3,4.5-4.9,8.9-7.8,13l0,0c-0.3,0.4-0.5,0.8-0.8,1.1l0,0c-1.6,2.3-3.4,4.5-5.3,6.6c-5,5.8-10.7,11-17,15.5l0,0l0,0
	c-36.5,26.5-86.3,25.2-121.4-3.1c-1-0.7-1.9-1.5-2.8-2.3c-7.5-6.5-13.9-14-19.2-22.4c-0.4-0.6-0.8-1.3-1.2-1.9
	c-4.1-6.9-7.4-14.3-9.7-22c-1-3.4-1.9-6.8-2.5-10.3v-0.2C-1.8,100,0.1,80.7,7.1,63c3.2-8.1,7.5-15.7,12.7-22.6
	c0.3-0.4,0.6-0.8,1-1.2c1.1-1.6,2.4-3.1,3.8-4.7C51.7,3,95.6-8.2,134.6,6.2l0,0C181.3,23.5,208.2,72.4,197.7,121.1L197.7,121.1z"/>
<path class="st1" d="M85,60.6c-2.3,1.6-5.1,2.4-7.9,2.4H7.8C11,55,15.3,47.4,20.5,40.4l1-1.2h56.8c2,0,3.9,0.4,5.7,1.2
	c0.2,0.1,0.4,0.2,0.6,0.3C90.3,43.6,99.6,50.6,85,60.6z"/>
<path class="st1" d="M137,84.5c-3.7,1.6-7.7,2.5-11.7,2.4H1.6C2.7,78.8,4.8,70.7,7.8,63h119.1c3.2,0,6.4,0.5,9.5,1.5
	C144.9,67.5,158.8,74.5,137,84.5z"/>
<path class="st1" d="M75.5,197c-14-3.5-27.1-10.1-38.4-19.2h27.6c2.4,0,4.8,0.5,6.9,1.5C77.5,182.1,86.6,188.2,75.5,197z"/>
<path class="st1" d="M198.5,121.2c-1.6,7.3-4,14.4-7.1,21.2c-0.4,0.8-0.8,1.7-1.2,2.5l-32.1-0.8l-49.6-1.3c-2.4-0.1-4.7-0.6-6.9-1.7
	c-6.2-3.1-16.2-10.4,0-19.9c2.6-1.5,5.7-2.3,8.7-2.2L198.5,121.2z"/>
<path class="st1" d="M182.3,157.9c-0.3,0.4-0.6,0.8-0.8,1.2c-1.6,2.3-3.4,4.5-5.3,6.6c-5.1,5.8-10.8,11-17,15.6l-50.7-1.3
	c-2.4-0.1-4.7-0.6-6.9-1.7c-6.2-3.1-16.2-10.4,0-19.9c2.6-1.5,5.6-2.3,8.7-2.2l46.2,1.2L182.3,157.9z"/>
<path class="st1" d="M191.4,142.3c-0.4,0.8-0.8,1.7-1.2,2.5c-2.3,4.5-4.9,8.9-7.9,13c-0.3,0.4-0.6,0.8-0.8,1.2l-26.5-0.9
	c0.6-0.3,1.1-0.6,1.5-1c7-4.8,4.3-10.1,1.6-13.2c-0.9-1.1-2-2-3.1-2.9L191.4,142.3z"/>
<path class="st1" d="M56.9,131.5c-0.8,3.6,0.7,7.4-8.9,8c-10.5,0.6-8.9,5.9-12.7,6.5c-4.6,0.7-1.7-1.2-15.3-5c-3.9-1.1-8-1.5-12-1.3
	c-1.5-3.4-2.8-6.9-3.8-10.5c-1-3.4-1.9-6.8-2.5-10.3v-0.2c0.4-0.1,0.8-0.1,1.2-0.1c9.2-1,8.4-1.4,16.8-0.8
	c7.9,0.6,11.7-3.5,18.7-1.7l10.5,3.5c0.3,0.1,0.6,0.2,0.9,0.4l7.7,3.8C60.8,127,57.6,128.4,56.9,131.5z"/>
<path class="st1" d="M184.7,47c-0.8,6.8,0.5,11.6-2.2,12.2c-4.6,1.1-9.9-12.3-23.5-18.4c-11-4.9-14.1,0.8-25.2-4
	c-10-4.3-20.1-14.5-22.3-22.5c7.3-3.5,14.9-6.2,22.8-8.1l0.3-0.1l0,0C155.3,13.9,173,28.3,184.7,47L184.7,47z"/>
</svg>
