<svg id="Layer_1" data-name="Layer 1" xmlns="http://www.w3.org/2000/svg" viewBox="0 0 250.67 227.41"><defs><style>.cls-1{fill:#0180db;}.cls-2{fill:#0160cf;}</style></defs><title>Panels</title><path class="cls-1" d="M218.48,126.53a93.94,93.94,0,0,1-2.82,10.29,97.5,97.5,0,0,1-4,9.91c-.36.8-.74,1.58-1.14,2.36a95.61,95.61,0,0,1-7.48,12.44c-.26.37-.53.74-.8,1.1-1.48,2-3.06,4-4.73,6l-.28.34a94.88,94.88,0,0,1-16.14,14.75.21.21,0,0,1-.08.06,95.27,95.27,0,0,1-117.57-4.87l-.62-.52A95.81,95.81,0,0,1,44.56,157l-.55-.89a95,95,0,0,1-6.41-12.49,91.78,91.78,0,0,1-3.4-9.4,97.15,97.15,0,0,1-4.12-26,95.69,95.69,0,0,1,.8-14.25A94.08,94.08,0,0,1,35.25,75.4c.47-1.42,1-2.83,1.55-4.24.77-1.9,1.58-3.78,2.46-5.64a94.36,94.36,0,0,1,9.62-15.94c.29-.4.6-.79.9-1.18,1.16-1.52,2.38-3,3.64-4.47A95.23,95.23,0,0,1,150,14.39a95.53,95.53,0,0,1,37.79,20.12q3.12,2.72,5.94,5.63a94.83,94.83,0,0,1,24.49,45.29A95.59,95.59,0,0,1,218.48,126.53Z"/><path class="cls-2" d="M125.63,60.73a16.3,16.3,0,0,1-11.18,4.79H39.26a94.36,94.36,0,0,1,9.62-15.94c.29-.4.6-.79.9-1.18,1.16-1.52,2.38-3,3.64-4.47a94.56,94.56,0,0,1,35.3-25.48H116a15.48,15.48,0,0,1,9,3C133.09,27.23,146.39,41,125.63,60.73Z"/><path class="cls-2" d="M71.76,176.54a15.45,15.45,0,0,1-8.19,2.32h-.1l-.62-.52A95.81,95.81,0,0,1,44.56,157l-.55-.89H64.68a15.45,15.45,0,0,1,6.61,1.46C77.22,160.33,87,167,71.76,176.54Z"/><path class="cls-2" d="M197.54,168.58l-.28.34a94.88,94.88,0,0,1-16.14,14.75.2.2,0,0,1-.09.05l-48.34-.85a21.59,21.59,0,0,1-6.57-1.08c-5.87-2-15.44-6.71,0-12.9a21.56,21.56,0,0,1,8.25-1.42l44,.78Z"/><path class="cls-2" d="M218.48,126.53a93.94,93.94,0,0,1-2.82,10.29l-67-1.73a11.5,11.5,0,0,1-7.61-3.48c-6.76-6.48-17.72-21.89.56-42.94,2.9-3.34,6.29-5.06,9.69-5l66.92,1.73A95.59,95.59,0,0,1,218.48,126.53Z"/><path class="cls-2" d="M210.31,63.33l-48.49-1.25a15.47,15.47,0,0,1-6.56-1.63c-5.86-2.93-15.42-9.88,0-19a15.5,15.5,0,0,1,8.25-2.1l30.23.79A93.63,93.63,0,0,1,210.31,63.33Z"/><path class="cls-2" d="M111.15,143.18a15.62,15.62,0,0,1-8.25,2.1l-65.3-1.69a91.78,91.78,0,0,1-3.4-9.4,94,94,0,0,1-3.05-13.54l73.46,1.9a15.42,15.42,0,0,1,6.55,1.63C117,127.11,126.6,134.06,111.15,143.18Z"/><path class="cls-2" d="M73.07,106a12.18,12.18,0,0,1-8.27,3.13l-34.72-.9a95.69,95.69,0,0,1,.8-14.25A94.08,94.08,0,0,1,35.25,75.4l31.51.81a11.79,11.79,0,0,1,6.55,2.27C79.13,82.67,88.62,92.6,73.07,106Z"/><circle class="cls-2" cx="113.15" cy="86.64" r="10.96"/><circle class="cls-2" cx="138.07" cy="156.84" r="6.35"/><circle class="cls-2" cx="98.25" cy="182.79" r="3.94"/><path class="cls-2" d="M174.25,24.67A13.16,13.16,0,0,1,150,14.39,94,94,0,0,1,174.25,24.67Z"/></svg>