<?xml version="1.0" encoding="utf-8"?>
<!-- Generator: Adobe Illustrator 24.2.3, SVG Export Plug-In . SVG Version: 6.00 Build 0)  -->
<svg version="1.1" id="Layer_1" xmlns="http://www.w3.org/2000/svg" xmlns:xlink="http://www.w3.org/1999/xlink" x="0px" y="0px"
	 viewBox="0 0 200 200" style="enable-background:new 0 0 200 200;" xml:space="preserve">
<style type="text/css">
	.st0{fill:#0180DB;}
	.st1{fill:#0160CF;}
</style>
<path class="st0" d="M197.8,121.1c-0.8,3.7-1.8,7.3-3,10.8c-1.2,3.5-2.6,7-4.2,10.4c-0.4,0.8-0.8,1.7-1.2,2.5
	c-2.3,4.5-4.9,8.9-7.9,13.1c-0.3,0.4-0.6,0.8-0.8,1.2c-1.6,2.1-3.2,4.2-5,6.3l-0.3,0.4c-5,5.8-10.7,11-16.9,15.5c0,0-0.1,0-0.1,0.1
	C121.1,208.1,70.1,206,35,176l-0.7-0.5c-7.5-6.5-13.9-14.1-19.2-22.4l-0.6-0.9c-2.6-4.2-4.8-8.6-6.7-13.1c-1.4-3.2-2.6-6.5-3.6-9.9
	c-2.7-8.9-4.1-18-4.3-27.3c-0.1-5,0.2-10,0.8-15c0.9-6.6,2.4-13.2,4.6-19.5c0.5-1.5,1-3,1.6-4.4c0.8-2,1.7-4,2.6-5.9
	c2.8-5.9,6.2-11.5,10.1-16.7c0.3-0.4,0.6-0.8,0.9-1.2c1.2-1.6,2.5-3.1,3.8-4.7C49.6,5.5,89-6.5,125.9,3.4
	c14.7,3.9,28.2,11.2,39.7,21.1c2.2,1.9,4.3,3.9,6.2,5.9C184.6,43.6,193.5,60,197.5,78C200.7,92.1,200.8,106.9,197.8,121.1z"/>
<path class="st1" d="M100.3,52c-3.1,3.1-7.3,4.9-11.7,5H9.7c2.8-5.9,6.2-11.5,10.1-16.7c0.3-0.4,0.6-0.8,0.9-1.2
	c1.2-1.6,2.5-3.1,3.8-4.7C34.6,22.7,47.3,13.6,61.6,7.7h28.6c3.4,0,6.7,1.1,9.4,3.1C108.1,16.9,122.1,31.3,100.3,52z"/>
<path class="st1" d="M43.8,173.6c-2.6,1.6-5.6,2.4-8.6,2.4h-0.1l-0.7-0.5c-7.5-6.5-13.9-14-19.2-22.4l-0.6-0.9h21.7
	c2.4,0,4.8,0.5,6.9,1.5C49.5,156.5,59.8,163.5,43.8,173.6z"/>
<path class="st1" d="M175.8,165.2l-0.3,0.4c-5,5.8-10.7,11-16.9,15.5c0,0-0.1,0-0.1,0.1l-50.7-0.9c-2.3,0-4.7-0.4-6.9-1.1
	c-6.2-2.1-16.2-7,0-13.5c2.8-1.1,5.7-1.6,8.7-1.5l46.2,0.8L175.8,165.2z"/>
<path class="st1" d="M197.8,121.1c-0.8,3.7-1.8,7.3-3,10.8l-70.3-1.8c-3-0.2-5.9-1.5-8-3.7c-7.1-6.8-18.6-23,0.6-45.1
	c3-3.5,6.6-5.3,10.2-5.2l70.2,1.8C200.7,92.1,200.8,106.8,197.8,121.1z"/>
<path class="st1" d="M189.2,54.8l-50.9-1.3c-2.4-0.1-4.7-0.6-6.9-1.7c-6.2-3.1-16.2-10.4,0-19.9c2.6-1.5,5.6-2.3,8.7-2.2l31.7,0.8
	C178.8,37.6,184.7,45.8,189.2,54.8z"/>
<path class="st1" d="M85.1,138.5c-2.6,1.5-5.6,2.3-8.7,2.2L7.9,139c-1.4-3.2-2.6-6.5-3.6-9.9c-1.4-4.7-2.5-9.4-3.2-14.2l77.1,2
	c2.4,0.1,4.7,0.6,6.9,1.7C91.3,121.7,101.3,129,85.1,138.5z"/>
<path class="st1" d="M45.1,99.5c-2.4,2.1-5.5,3.3-8.7,3.3L0,101.9c-0.1-5,0.2-10,0.8-15c0.9-6.6,2.4-13.2,4.6-19.5l33.1,0.8
	c2.5,0.1,4.9,0.9,6.9,2.4C51.5,75.1,61.5,85.5,45.1,99.5z"/>
<ellipse class="st1" cx="87.2" cy="79.2" rx="11.5" ry="11.5"/>
<ellipse class="st1" cx="113.4" cy="152.9" rx="6.7" ry="6.7"/>
<circle class="st1" cx="71.6" cy="180.1" r="4.1"/>
<path class="st1" d="M151.4,14.2c-3,7-11.1,10.3-18.1,7.3c-7-3-10.3-11.1-7.3-18.1C134.8,5.8,143.4,9.4,151.4,14.2z"/>
</svg>
