<svg id="Layer_1" data-name="Layer 1" xmlns="http://www.w3.org/2000/svg" viewBox="0 0 250.67 227.41"><defs><style>.cls-1{fill:#b74d04;}.cls-2{fill:#9b4104;}</style></defs><title>Panels</title><path class="cls-1" d="M219.63,135.31a0,0,0,0,0,0,0,100.71,100.71,0,0,1-7.3,21.71s0,0,0,0c-.39.85-.78,1.69-1.21,2.51a.06.06,0,0,1,0,0,102,102,0,0,1-8,13.35s0,0,0,0c-.27.38-.55.77-.83,1.14,0,0,0,0,0,0q-2.52,3.47-5.4,6.77a101.67,101.67,0,0,1-17.39,15.91h0l0,0A102.46,102.46,0,0,1,55,193.49c-1-.76-1.92-1.56-2.85-2.38a102.5,102.5,0,0,1-19.69-23c-.41-.66-.81-1.32-1.21-2a101.74,101.74,0,0,1-9.94-22.54,100.54,100.54,0,0,1-2.61-10.53l0-.23a102.88,102.88,0,0,1,5.45-57.08,100.68,100.68,0,0,1,13-23.23c.31-.43.64-.85,1-1.27C39.28,49.61,40.59,48,42,46.44a102.42,102.42,0,0,1,112.94-29h0a102.6,102.6,0,0,1,64.73,117.83Z"/><path class="cls-2" d="M104.09,73.27A14.38,14.38,0,0,1,96,75.75H24.92a100.74,100.74,0,0,1,13-23.24l1-1.27H97.12A14.17,14.17,0,0,1,103,52.51c.21.09.41.2.62.3C109.46,55.8,119.06,63,104.09,73.27Z"/><path class="cls-2" d="M157.43,97.76a29.3,29.3,0,0,1-12,2.5H18.54a102.07,102.07,0,0,1,6.37-24.52H147a29.84,29.84,0,0,1,9.7,1.57C165.46,80.32,179.77,87.51,157.43,97.76Z"/><path class="cls-2" d="M94.33,213.17A102,102,0,0,1,55,193.49H83.35a16.69,16.69,0,0,1,7.12,1.56C96.36,197.83,105.74,204.16,94.33,213.17Z"/><path class="cls-2" d="M220.46,135.34a101.17,101.17,0,0,1-7.31,21.74c-.38.86-.79,1.71-1.22,2.54L179,158.77l-50.86-1.32a16.81,16.81,0,0,1-7.07-1.75c-6.32-3.16-16.61-10.64,0-20.45A16.73,16.73,0,0,1,130,133Z"/><path class="cls-2" d="M203.88,173c-.29.4-.57.8-.87,1.18-1.68,2.31-3.48,4.58-5.39,6.77a102.24,102.24,0,0,1-17.45,15.95l-52-1.35a16.8,16.8,0,0,1-7.07-1.74c-6.32-3.17-16.61-10.65,0-20.46a16.73,16.73,0,0,1,8.87-2.27l47.41,1.24Z"/><path class="cls-2" d="M213.15,157.08c-.38.86-.79,1.71-1.22,2.54A103.3,103.3,0,0,1,203.88,173c-.29.4-.57.8-.87,1.18l-27.21-.9c.57-.32,1.08-.64,1.56-1,7.14-4.91,4.45-10.32,1.63-13.56a19.78,19.78,0,0,0-3.19-2.93Z"/><path class="cls-2" d="M75.27,145.92c-.83,3.7.76,7.62-9.11,8.21-10.78.64-9.09,6.1-13,6.67-4.71.68-1.7-1.26-15.67-5.13a35.84,35.84,0,0,0-12.3-1.3,98.74,98.74,0,0,1-3.94-10.78,100.54,100.54,0,0,1-2.61-10.53l0-.23q.6-.09,1.2-.15c9.43-1,8.58-1.43,17.21-.82,8.15.58,12-3.57,19.14-1.75L67,133.7a6.37,6.37,0,0,1,.89.36l7.94,3.85C79.23,141.32,75.94,142.82,75.27,145.92Z"/><path class="cls-2" d="M206.32,59.32c-.81,6.93.54,11.89-2.26,12.55C199.34,73,193.87,59.28,179.92,53c-11.29-5-14.45.86-25.82-4.08-10.25-4.46-20.6-14.87-22.88-23.12a113.85,113.85,0,0,1,23.36-8.27l.31-.08h0a103.05,103.05,0,0,1,51.42,41.84Z"/></svg>