<svg id="Layer_1" data-name="Layer 1" xmlns="http://www.w3.org/2000/svg" viewBox="0 0 619.95 229.56"><defs><style>.cls-1{fill:#fff;}.cls-2{font-size:35.23px;font-family:Cornerstone;}.cls-3{fill:#0180db;}.cls-4{fill:#0160cf;}</style></defs><title>Panels</title><rect class="cls-1" x="100.66" y="50.42" width="435.07" height="134.32" rx="50.68"/><text class="cls-2" transform="translate(249.71 129.58)">Register Here</text><path class="cls-3" d="M62.28,130.35a0,0,0,0,1,0,0A80.77,80.77,0,0,0,68,147.73s0,0,0,0c.3.67.62,1.34,1,2a0,0,0,0,0,0,0,81.94,81.94,0,0,0,6.35,10.69l0,0,.66.92,0,0c1.34,1.86,2.76,3.67,4.28,5.43a81.4,81.4,0,0,0,13.81,12.78h0l0,0a81.77,81.77,0,0,0,99.28-2.17c.77-.6,1.54-1.23,2.29-1.89a81.86,81.86,0,0,0,15.82-18.26c.33-.52.65-1.06,1-1.58a78.12,78.12,0,0,0,4.84-9.35,82.4,82.4,0,0,0,5.33-17l0-.18a81.93,81.93,0,0,0-4.09-45.58,80.13,80.13,0,0,0-10.27-18.6c-.24-.34-.51-.68-.76-1-1-1.31-2-2.6-3.11-3.85a81.69,81.69,0,0,0-90-23.64h0a81.91,81.91,0,0,0-52.21,93.75Z"/><path class="cls-4" d="M154.78,81.36a11.54,11.54,0,0,0,6.43,2L218,83.7a80.75,80.75,0,0,0-10.28-18.6c-.24-.34-.51-.68-.76-1l-46.48-.26a11.32,11.32,0,0,0-4.7,1l-.49.24C150.58,67.4,142.88,73.11,154.78,81.36Z"/><path class="cls-4" d="M112.11,100.67a23.33,23.33,0,0,0,9.59,2l101.24.57a81.11,81.11,0,0,0-5-19.59l-97.47-.56a24,24,0,0,0-7.75,1.21C105.78,86.71,94.32,92.38,112.11,100.67Z"/><path class="cls-4" d="M161.94,191.4a81.21,81.21,0,0,0,31.51-15.53l-22.66-.13A13.35,13.35,0,0,0,165.1,177C160.39,179.15,152.87,184.16,161.94,191.4Z"/><path class="cls-4" d="M61.62,128.7a80.4,80.4,0,0,0,5.74,17.39c.3.69.63,1.37,1,2l26.3-.53,40.59-.82a13.32,13.32,0,0,0,5.65-1.37c5.06-2.49,13.31-8.41.09-16.32a13.3,13.3,0,0,0-7.08-1.85Z"/><path class="cls-4" d="M74.69,158.85c.22.32.45.64.68,1q2,2.77,4.28,5.43A81.79,81.79,0,0,0,93.5,178l41.54-.84a13.49,13.49,0,0,0,5.65-1.35c5.06-2.5,13.31-8.43.08-16.34a13.32,13.32,0,0,0-7.07-1.84l-37.84.77Z"/><path class="cls-4" d="M67.36,146.09c.3.69.63,1.37,1,2a81.31,81.31,0,0,0,6.37,10.72c.22.32.45.64.68,1l21.73-.6c-.45-.26-.86-.52-1.24-.77-5.68-4-3.51-8.26-1.24-10.83a15.73,15.73,0,0,1,2.55-2.32Z"/><path class="cls-4" d="M177.45,139.48c.65,3-.64,6.08,7.24,6.59,8.6.57,7.23,4.92,10.33,5.39,3.76.56,1.37-1,12.53-4a28.43,28.43,0,0,1,9.82-1,82.4,82.4,0,0,0,5.33-17l0-.18c-.32,0-.63-.09-.95-.12-7.53-.8-6.85-1.19-13.74-.73-6.51.42-9.55-2.91-15.26-1.49l-8.64,2.81a6.57,6.57,0,0,0-.71.29l-6.36,3C174.32,135.79,176.94,137,177.45,139.48Z"/><path class="cls-4" d="M73.26,69.76c.61,5.54-.49,9.49,1.74,10,3.76.89,8.19-10,19.36-14.92,9-4,11.52.75,20.62-3.15,8.21-3.51,16.51-11.77,18.37-18.34a90.59,90.59,0,0,0-18.6-6.71l-.25-.07h0A82.2,82.2,0,0,0,73.26,69.76Z"/><circle class="cls-4" cx="77.77" cy="102.16" r="12.63"/><circle class="cls-4" cx="157.68" cy="46.41" r="8.14"/><circle class="cls-4" cx="166.59" cy="120.96" r="5.64"/><circle class="cls-4" cx="133.35" cy="190.49" r="2.93"/></svg>