<svg id="Layer_1" data-name="Layer 1" xmlns="http://www.w3.org/2000/svg" viewBox="0 0 532.68 436.03"><defs><style>.cls-1{fill:#754c29;stroke-width:4px;}.cls-1,.cls-3{stroke:#231f20;stroke-miterlimit:10;}.cls-2{fill:#726658;}.cls-3{fill:#c49a6c;stroke-width:3px;}</style></defs><title>signboards</title><rect class="cls-1" x="286.05" y="-47.29" width="22.77" height="527.22" transform="translate(482.46 -284.05) rotate(90)"/><rect class="cls-1" x="2" y="24.38" width="22.77" height="409.65"/><rect class="cls-1" x="507.91" y="24.38" width="22.77" height="409.65"/><path class="cls-2" d="M239.29,228.27a294.26,294.26,0,0,1,2.54,46.81c-.08,3.22,4.92,3.22,5,0a294.26,294.26,0,0,0-2.54-46.81,2.58,2.58,0,0,0-2.5-2.5c-1.21,0-2.68,1.16-2.5,2.5Z" transform="translate(-31.3 -202.93)"/><path class="cls-2" d="M352.08,228.24c-.23,15.2-.54,30.4-.66,45.6,0,3.22,5,3.22,5,0,.12-15.2.43-30.4.66-45.6.05-3.22-4.95-3.22-5,0Z" transform="translate(-31.3 -202.93)"/><path class="cls-3" d="M405.1,324.53c0,.23-.17,2.26-.5,0-.33-.64-.82,1.76-1.46,0-.64-.41-1.43,1.73-2.36,0-.47-1.39-1-4.1-1.5.12-.54.42-1.11.11-1.71-.12-.6-1.33-1.24-.42-1.9-.46-.67.41-1.37-2.9-2.1.46H353.85c-2.32-1.93-4.68-.8-7.09,0s-4.86-1.16-7.35,0h-3.76a28.35,28.35,0,0,1-3.8,0c-1.77.21-3.56,1.9-5.36,0-1.8-.23-3.61.61-5.43,0-1.82-1.52-3.66-2.09-5.5,0-1.83-2.09-3.68-.19-5.53,0H293.25c-1.86.8-3.73,2.63-5.59,0-1.87.09-3.73.86-5.58,0-1.86-.11-3.71.06-5.55,0-1.85-1.28-3.68-.08-5.51,0a35.41,35.41,0,0,1-5.45,0h-8c-2.65,0-5.27-.16-7.84,0-2.57-1.19-5.11.28-7.59,0-2.49-1-4.92,4.53-7.31,0-2.38.34-4.7-1.95-7,0-2.26-1-4.46,1.3-6.59,0-2.13,2-4.19,1.85-6.18,0-2,.47-3.88,1.09-5.71,0-1.82,1.6-3.55,2.37-5.2,0-1.64-1.72-3.2.32-4.65,0-1.45,1.21-2.81.73-4.06,0-1.25-.5-2.39,1.22-3.41,0-1,2.08-1.95-.37-2.74,0-.79-.75-1.46-.29-2,0h-1.65V275.08c0,.09.13,1,.39,0,.25-1.54.64.24,1.14,0,.5,1,1.12-.57,1.85,0,.73.95,1.58.61,2.53,0,1,1.81,2-.49,3.17,0,1.15,2,2.41.38,3.76,0a4.47,4.47,0,0,0,2.09.19c.72-1.38,1.47.74,2.23-.19,1.33,1.7,2.73.58,4.19,0,1.46-.4,3,1.56,4.56,0,1.57-.83,3.21,1.38,4.9,0,1.68,1.13,3.42-1.92,5.21,0,1.79.68,3.63,0,5.51,0h13.63c1.34.17,2.69-1.1,4.06,0,1.36,2.87,2.74-1.87,4.14,0,.93,2.41,1.86-.16,2.8,0,.94-1.73,1.88.36,2.83,0,.95,2.56,1.9-1.93,2.86-.3,1-1.57,1.92-1.78,2.89.3,1,.61,1.93-2.64,2.91,0a5.5,5.5,0,0,1,2.93,0,5.39,5.39,0,0,0,3,.1,7.09,7.09,0,0,1,3-.1c2,4.65,4-1.9,6,0,2-1.4,4,0,6,0h6.06c2.25,0,4.51.09,6.76,0a25.85,25.85,0,0,0,6.75,0c2.25-.43,4.49.27,6.72,0,2.23,2,4.46-2.08,6.67,0h13.69c2.33,0,4.65-1,6.94,0,2.28-1.12,4.54,2.81,6.76,0,2.23-2,4.42,1.75,6.57,0,2.15-2,4.26-1.27,6.33,0,2.07,1.51,4.09,0,6.07,0h30.09c1.46-.51,2.8,3.5,4,0a7.86,7.86,0,0,0,1.71.61c.53-.7,1,.42,1.5-.61.46-.57.89.67,1.29.9a7.84,7.84,0,0,0,1.07-.9c.64-.51,1.13-1.6,1.46,0,.33-1.47.5-1.14.5,0v49.45Z" transform="translate(-31.3 -202.93)"/></svg>