<?xml version="1.0" encoding="utf-8"?>
<!-- Generator: Adobe Illustrator 25.4.1, SVG Export Plug-In . SVG Version: 6.00 Build 0)  -->
<svg version="1.1" id="Layer_1" xmlns="http://www.w3.org/2000/svg" xmlns:xlink="http://www.w3.org/1999/xlink" x="0px" y="0px"
	 viewBox="0 0 595.28 841.89" style="enable-background:new 0 0 595.28 841.89;" xml:space="preserve">
<style type="text/css">
	.st0{fill:#603913;}
	.st1{fill:#8B5E3C;}
	.st2{fill:#A97C50;}
	.st3{fill:#C49A6C;}
	.st4{fill:url(#SVGID_1_);stroke:#221F1F;stroke-miterlimit:10;}
	.st5{fill:url(#SVGID_00000083771786103654176540000002515136248455298974_);stroke:#221F1F;stroke-miterlimit:10;}
	.st6{fill:url(#SVGID_00000153697942259113543080000001911551342626297259_);stroke:#221F1F;stroke-miterlimit:10;}
	.st7{fill:url(#SVGID_00000049906183036532920700000001499830133223675545_);stroke:#221F1F;stroke-miterlimit:10;}
	.st8{fill:url(#SVGID_00000027565874252221131650000011902354208967475361_);stroke:#221F1F;stroke-miterlimit:10;}
	.st9{fill:url(#SVGID_00000001630724933669664910000002023775698476030345_);stroke:#221F1F;stroke-miterlimit:10;}
</style>
<g>
	<path class="st0" d="M276.94,106.51c5.19,77.43,0.46,164.42,1.51,242.39c0.28,20.43,1.04,40.82,1.54,61.23
		c1.35,55.74,0.68,111.59-1.12,167.28c-0.09,2.76-0.13,5.81,0.86,7.93c1.21,2.57,3.37,2.63,5.24,2.47
		c11.14-0.93,22.28-1.86,33.43-2.8c0.8-0.07,1.64-0.15,2.35-0.84c1.62-1.58,1.89-5.47,1.96-8.78c1.14-52.35,2.28-104.71,3.42-157.06
		c0.58-26.83,1.17-53.71,0.3-80.52c-0.35-10.9-0.94-21.77-1.45-32.65c-3.16-67.58-3.09-135.64,0.21-203.19
		c-4.99-5.96-11.01,6.27-17.01,5.98c-3.73-0.18-6.98-5.28-10.71-5.34c-2.18-0.03-4.23,1.67-6.3,2.88
		C286.6,108.18,281.62,108.53,276.94,106.51"/>
	<g>
		<path d="M275.07,106.51c2.27,34.18,2.62,68.46,2.45,102.71c-0.17,34.83-0.93,69.66-1.07,104.5c-0.14,35.87,1.22,71.68,1.92,107.53
			c0.72,37.07,0.57,74.16-0.18,111.23c-0.19,9.18-0.41,18.37-0.66,27.55c-0.13,4.67-0.27,9.34-0.42,14.01
			c-0.12,3.81-0.72,8.19,0.82,11.8c1.14,2.67,3.43,3.92,6.27,3.89c4.22-0.04,8.51-0.69,12.72-1.04c4.62-0.39,9.23-0.77,13.85-1.16
			c2.23-0.19,4.46-0.36,6.69-0.56c1.62-0.14,3.15-0.21,4.44-1.32c2.19-1.88,2.45-5.4,2.62-8.07c0.27-4.27,0.22-8.57,0.32-12.84
			c0.2-9.37,0.41-18.74,0.61-28.12c0.4-18.58,0.81-37.16,1.21-55.75c0.8-36.97,2.02-73.97,2.1-110.95
			c0.08-37.01-2.62-73.94-3.55-110.93c-0.92-36.94-0.88-73.9,0.11-110.84c0.25-9.14,0.55-18.29,0.92-27.43
			c0.19-4.65,0.39-9.29,0.6-13.94c0.08-1.63,0.76-4.25-0.03-5.75c-0.49-0.94-1.72-1.76-2.68-2.16c-4.4-1.81-8.35,2.77-11.48,5.14
			c-2.14,1.62-3.98,2.7-6.51,1.26c-2.56-1.45-4.59-3.88-7.61-4.42c-3.34-0.61-5.96,1.74-8.69,3.24c-3.97,2.19-8.24,2.28-12.4,0.6
			c-2.24-0.9-3.21,2.72-1,3.62c5.54,2.24,11.31,1.47,16.36-1.61c1.28-0.78,2.66-1.96,4.2-2.13c1.27-0.15,2.28,0.48,3.3,1.16
			c1.89,1.25,3.56,2.88,5.73,3.66c3.7,1.34,6.93-0.85,9.71-3.07c2.07-1.65,5.59-5.81,8.11-3.02c-0.18-0.44-0.37-0.88-0.55-1.33
			c-1.61,33.2-2.46,66.43-2.52,99.66c-0.06,33.24,0.65,66.48,2.14,99.69c0.74,16.47,1.67,32.93,1.94,49.42
			c0.27,16.62,0.08,33.24-0.24,49.86c-0.64,33.38-1.44,66.76-2.16,100.14c-0.36,16.64-0.72,33.29-1.09,49.93
			c-0.18,8.36-0.31,16.72-0.55,25.08c-0.04,1.51-0.09,3.03-0.39,4.51c-0.13,0.68-0.25,1.6-0.69,2.15c-0.7,0.87-1.75,0.75-2.78,0.84
			c-4.14,0.35-8.28,0.69-12.42,1.04c-4.14,0.35-8.28,0.69-12.42,1.04c-1.91,0.16-3.82,0.32-5.73,0.48c-1.2,0.1-2.98,0.51-4.09-0.18
			c-2.74-1.7-1.56-8.47-1.48-11.12c0.13-4.19,0.26-8.37,0.38-12.56c0.48-16.76,0.84-33.51,1.07-50.27
			c0.46-33.37,0.4-66.74-0.39-100.1c-0.75-31.89-1.82-63.74-1.72-95.64c0.1-31.31,0.72-62.62,0.99-93.93
			c0.27-31.11,0.22-62.24-1.14-93.33c-0.32-7.4-0.73-14.79-1.22-22.18C278.66,104.11,274.91,104.09,275.07,106.51L275.07,106.51z"/>
	</g>
</g>
<g>
	<path class="st1" d="M155.4,134.48c89.86-0.92,179.74-0.98,269.6-0.2c3.31,0.03,6.79,0.09,9.67,1.19c1.9,0.73,3.38,1.85,4.83,2.96
		c6.44,4.92,12.88,9.85,19.32,14.77c1.64,1.26,3.38,2.66,3.47,4.33c0.07,1.31-0.89,2.53-1.82,3.67
		c-5.99,7.39-11.99,14.78-17.99,22.17c-0.74,0.91-1.52,1.85-2.76,2.47c-2.52,1.24-6.01,0.79-9.07,0.37
		c-13.56-1.85-27.5-1.9-41.33-1.94c-53.58-0.16-107.17-0.32-160.75-0.48c-27.13-0.08-52.14-3.74-81.01-3.98
		c-1.6-0.01-3.23-0.5-4.32-1.28c-1.26-0.91-2.04-2.3-1.53-3.49C147.78,160.85,151.29,147.05,155.4,134.48"/>
	<g>
		<path d="M155.4,136.35c23.05-0.23,46.1-0.41,69.16-0.54c23.05-0.12,46.11-0.19,69.16-0.2c22.95-0.01,45.89,0.03,68.84,0.13
			c11.53,0.05,23.05,0.11,34.58,0.19c5.76,0.04,11.53,0.08,17.29,0.13c5.4,0.04,11.04-0.37,16.4,0.38
			c5.18,0.73,9.06,4.62,13.05,7.68c4.57,3.5,9.17,6.98,13.72,10.5c0.84,0.65,1.9,1.36,2.48,2.27c0.71,1.12-0.25,2.09-0.95,2.99
			c-1.76,2.24-3.6,4.43-5.4,6.65c-3.6,4.43-7.19,8.87-10.79,13.3c-1.42,1.75-2.76,4.09-5.07,4.69c-2.26,0.6-4.78,0.15-7.05-0.16
			c-5.43-0.73-10.89-1.2-16.36-1.49c-11.36-0.59-22.76-0.48-34.13-0.51c-23.06-0.07-46.11-0.14-69.17-0.21
			c-23.06-0.07-46.11-0.14-69.17-0.21c-10.93-0.03-21.85-0.05-32.77-0.62c-10.45-0.55-20.89-1.41-31.33-2.11
			c-5.27-0.35-10.54-0.67-15.81-0.9c-2.76-0.12-5.52-0.22-8.28-0.29c-2.58-0.06-5.63,0.37-8.11-0.39c-0.77-0.24-2.16-0.83-2.29-1.8
			c-0.06-0.49,0.51-1.3,0.71-1.77c0.28-0.68,0.56-1.35,0.83-2.03c1.04-2.57,2.01-5.17,2.94-7.78c1.78-5.01,3.37-10.07,4.93-15.15
			c1.45-4.72,2.86-9.44,4.39-14.14c0.75-2.3-2.87-3.29-3.62-1c-3.33,10.22-6.17,20.6-9.84,30.72c-0.99,2.72-2.03,5.42-3.14,8.09
			c-0.45,1.07-1,2.08-0.94,3.27c0.06,1.18,0.66,2.28,1.45,3.12c1.57,1.67,3.91,2.37,6.14,2.49c2.89,0.15,5.8,0.09,8.69,0.17
			c21.87,0.66,43.63,3.18,65.5,3.72c11.75,0.29,23.51,0.15,35.26,0.18c11.95,0.04,23.91,0.07,35.86,0.11
			c23.8,0.07,47.61,0.14,71.41,0.21c11.79,0.04,23.58,0,35.37,0.13c5.87,0.06,11.74,0.21,17.59,0.57c5.64,0.35,11.2,1.26,16.82,1.68
			c2.3,0.17,4.77,0.08,6.86-0.99c2.2-1.14,3.62-3.36,5.14-5.23c3.66-4.52,7.33-9.03,10.99-13.55c1.83-2.26,3.7-4.49,5.49-6.78
			c1.46-1.87,2.48-4.02,1.36-6.33c-1.05-2.16-3.3-3.55-5.15-4.96c-2.37-1.81-4.74-3.63-7.12-5.44s-4.74-3.63-7.12-5.44
			c-2.12-1.62-4.2-3.42-6.49-4.81c-4.42-2.67-9.7-2.48-14.68-2.52c-11.95-0.1-23.91-0.19-35.86-0.26c-23.8-0.14-47.6-0.23-71.4-0.25
			c-23.8-0.02-47.6,0.01-71.4,0.1c-23.91,0.09-47.81,0.25-71.72,0.46c-5.76,0.05-11.53,0.11-17.29,0.17
			C152.99,132.63,152.98,136.38,155.4,136.35L155.4,136.35z"/>
	</g>
</g>
<g>
	<path class="st1" d="M158.2,313.04c89.86-0.92,179.74-0.98,269.6-0.2c3.31,0.03,6.79,0.09,9.67,1.19c1.9,0.73,3.38,1.85,4.83,2.96
		c6.44,4.92,12.88,9.85,19.32,14.77c1.64,1.26,3.38,2.66,3.47,4.33c0.07,1.31-0.89,2.53-1.82,3.67
		c-5.99,7.39-11.99,14.78-17.98,22.17c-0.74,0.91-1.52,1.85-2.76,2.47c-2.52,1.24-6.01,0.79-9.07,0.37
		c-13.56-1.85-27.5-1.9-41.33-1.94c-53.58-0.16-107.17-0.32-160.75-0.48c-27.13-0.08-52.14-3.74-81.01-3.98
		c-1.6-0.01-3.23-0.5-4.32-1.28c-1.26-0.91-2.04-2.3-1.53-3.49C150.57,339.41,154.09,325.6,158.2,313.04"/>
	<g>
		<path d="M158.2,314.91c23.05-0.23,46.1-0.41,69.16-0.54c23.05-0.12,46.11-0.19,69.16-0.2c22.95-0.01,45.89,0.03,68.84,0.13
			c11.53,0.05,23.05,0.11,34.58,0.19c5.76,0.04,11.53,0.08,17.29,0.13c5.4,0.04,11.04-0.37,16.4,0.38
			c5.18,0.73,9.06,4.62,13.05,7.68c4.57,3.5,9.17,6.98,13.72,10.5c0.84,0.65,1.9,1.36,2.48,2.27c0.71,1.12-0.25,2.09-0.95,2.99
			c-1.76,2.24-3.6,4.43-5.4,6.65c-3.6,4.43-7.19,8.87-10.79,13.3c-1.42,1.75-2.76,4.09-5.07,4.69c-2.26,0.6-4.78,0.15-7.05-0.16
			c-5.43-0.73-10.89-1.2-16.36-1.49c-11.36-0.59-22.76-0.48-34.13-0.51c-23.06-0.07-46.11-0.14-69.17-0.21
			c-23.06-0.07-46.11-0.14-69.17-0.21c-10.93-0.03-21.85-0.05-32.77-0.62c-10.45-0.55-20.89-1.41-31.33-2.11
			c-5.27-0.35-10.54-0.67-15.81-0.9c-2.76-0.12-5.52-0.22-8.28-0.29c-2.58-0.06-5.63,0.37-8.11-0.39c-0.77-0.24-2.16-0.83-2.29-1.8
			c-0.06-0.49,0.51-1.3,0.71-1.77c0.28-0.68,0.56-1.35,0.83-2.03c1.04-2.57,2.01-5.17,2.94-7.78c1.78-5.01,3.37-10.07,4.93-15.15
			c1.45-4.72,2.86-9.44,4.39-14.14c0.75-2.3-2.87-3.29-3.62-1c-3.33,10.22-6.17,20.6-9.84,30.72c-0.99,2.72-2.03,5.42-3.14,8.09
			c-0.45,1.07-1,2.08-0.94,3.27c0.06,1.18,0.66,2.28,1.45,3.12c1.57,1.67,3.91,2.37,6.14,2.49c2.89,0.15,5.8,0.09,8.69,0.17
			c21.86,0.66,43.63,3.18,65.5,3.72c11.75,0.29,23.51,0.15,35.26,0.18c11.95,0.04,23.91,0.07,35.86,0.11
			c23.8,0.07,47.61,0.14,71.41,0.21c11.79,0.04,23.58,0,35.37,0.13c5.87,0.06,11.74,0.21,17.59,0.57c5.64,0.35,11.2,1.26,16.82,1.68
			c2.3,0.17,4.77,0.08,6.86-0.99c2.2-1.14,3.62-3.36,5.14-5.23c3.66-4.52,7.33-9.03,10.99-13.55c1.83-2.26,3.7-4.49,5.49-6.78
			c1.46-1.87,2.48-4.02,1.36-6.33c-1.05-2.16-3.3-3.55-5.15-4.96c-2.37-1.81-4.74-3.63-7.12-5.44s-4.74-3.63-7.12-5.44
			c-2.12-1.62-4.2-3.42-6.49-4.81c-4.42-2.67-9.7-2.48-14.68-2.52c-11.95-0.1-23.91-0.19-35.86-0.26c-23.8-0.14-47.6-0.23-71.4-0.25
			c-23.8-0.02-47.6,0.01-71.4,0.1c-23.91,0.09-47.81,0.25-71.72,0.46c-5.76,0.05-11.53,0.11-17.29,0.17
			C155.79,311.18,155.78,314.93,158.2,314.91L158.2,314.91z"/>
	</g>
</g>
<g>
	<path class="st1" d="M155.4,256.66c89.86-0.92,179.74-0.98,269.6-0.2c3.31,0.03,6.79,0.09,9.67,1.19c1.9,0.73,3.38,1.85,4.83,2.96
		c6.44,4.92,12.88,9.85,19.32,14.77c1.64,1.26,3.38,2.66,3.47,4.33c0.07,1.31-0.89,2.53-1.82,3.67
		c-5.99,7.39-11.99,14.78-17.99,22.17c-0.74,0.91-1.52,1.85-2.76,2.47c-2.52,1.24-6.01,0.79-9.07,0.37
		c-13.56-1.85-27.5-1.9-41.33-1.94c-53.58-0.16-107.17-0.32-160.75-0.48c-27.13-0.08-52.14-3.74-81.01-3.98
		c-1.6-0.01-3.23-0.5-4.32-1.28c-1.26-0.91-2.04-2.3-1.53-3.49C147.78,283.04,151.29,269.23,155.4,256.66"/>
	<g>
		<path d="M155.4,258.54c23.05-0.23,46.1-0.41,69.16-0.54c23.05-0.12,46.11-0.19,69.16-0.2c22.95-0.01,45.89,0.03,68.84,0.13
			c11.53,0.05,23.05,0.11,34.58,0.19c5.76,0.04,11.53,0.08,17.29,0.13c5.4,0.04,11.04-0.37,16.4,0.38
			c5.18,0.73,9.06,4.62,13.05,7.68c4.57,3.5,9.17,6.98,13.72,10.5c0.84,0.65,1.9,1.36,2.48,2.27c0.71,1.12-0.25,2.09-0.95,2.99
			c-1.76,2.24-3.6,4.43-5.4,6.65c-3.6,4.43-7.19,8.87-10.79,13.3c-1.42,1.75-2.76,4.09-5.07,4.69c-2.26,0.6-4.78,0.15-7.05-0.16
			c-5.43-0.73-10.89-1.2-16.36-1.49c-11.36-0.59-22.76-0.48-34.13-0.51c-23.06-0.07-46.11-0.14-69.17-0.21
			c-23.06-0.07-46.11-0.14-69.17-0.21c-10.93-0.03-21.85-0.05-32.77-0.62c-10.45-0.55-20.89-1.41-31.33-2.11
			c-5.27-0.35-10.54-0.67-15.81-0.9c-2.76-0.12-5.52-0.22-8.28-0.29c-2.58-0.06-5.63,0.37-8.11-0.39c-0.77-0.24-2.16-0.83-2.29-1.8
			c-0.06-0.49,0.51-1.3,0.71-1.77c0.28-0.68,0.56-1.35,0.83-2.03c1.04-2.57,2.01-5.17,2.94-7.78c1.78-5.01,3.37-10.07,4.93-15.15
			c1.45-4.72,2.86-9.44,4.39-14.14c0.75-2.3-2.87-3.29-3.62-1c-3.33,10.22-6.17,20.6-9.84,30.72c-0.99,2.72-2.03,5.42-3.14,8.09
			c-0.45,1.07-1,2.08-0.94,3.27c0.06,1.18,0.66,2.28,1.45,3.12c1.57,1.67,3.91,2.37,6.14,2.49c2.89,0.15,5.8,0.09,8.69,0.17
			c21.87,0.66,43.63,3.18,65.5,3.72c11.75,0.29,23.51,0.15,35.26,0.18c11.95,0.04,23.91,0.07,35.86,0.11
			c23.8,0.07,47.61,0.14,71.41,0.21c11.79,0.04,23.58,0,35.37,0.13c5.87,0.06,11.74,0.21,17.59,0.57c5.64,0.35,11.2,1.26,16.82,1.68
			c2.3,0.17,4.77,0.08,6.86-0.99c2.2-1.14,3.62-3.36,5.14-5.23c3.66-4.52,7.33-9.03,10.99-13.55c1.83-2.26,3.7-4.49,5.49-6.78
			c1.46-1.87,2.48-4.02,1.36-6.33c-1.05-2.16-3.3-3.55-5.15-4.96c-2.37-1.81-4.74-3.63-7.12-5.44c-2.37-1.81-4.74-3.63-7.12-5.44
			c-2.12-1.62-4.2-3.42-6.49-4.81c-4.42-2.67-9.7-2.48-14.68-2.52c-11.95-0.1-23.91-0.19-35.86-0.26c-23.8-0.14-47.6-0.23-71.4-0.25
			c-23.8-0.02-47.6,0.01-71.4,0.1c-23.91,0.09-47.81,0.25-71.72,0.46c-5.76,0.05-11.53,0.11-17.29,0.17
			C152.99,254.81,152.98,258.56,155.4,258.54L155.4,258.54z"/>
	</g>
</g>
<g>
	<path class="st2" d="M155.4,430.02c89.86-0.92,179.74-0.98,269.6-0.2c3.31,0.03,6.79,0.09,9.67,1.19c1.9,0.73,3.38,1.85,4.83,2.96
		c6.44,4.92,12.88,9.85,19.32,14.77c1.64,1.26,3.38,2.66,3.47,4.33c0.07,1.31-0.89,2.53-1.82,3.67
		c-5.99,7.39-11.99,14.78-17.99,22.17c-0.74,0.91-1.52,1.85-2.76,2.47c-2.52,1.24-6.01,0.79-9.07,0.37
		c-13.56-1.85-27.5-1.9-41.33-1.94c-53.58-0.16-107.17-0.32-160.75-0.48c-27.13-0.08-52.14-3.74-81.01-3.98
		c-1.6-0.01-3.23-0.5-4.32-1.28c-1.26-0.91-2.04-2.3-1.53-3.49C147.78,456.39,151.29,442.59,155.4,430.02"/>
	<g>
		<path d="M155.4,431.89c23.05-0.23,46.1-0.41,69.16-0.54c23.05-0.12,46.11-0.19,69.16-0.2c22.95-0.01,45.89,0.03,68.84,0.13
			c11.53,0.05,23.05,0.11,34.58,0.19c5.76,0.04,11.53,0.08,17.29,0.13c5.4,0.04,11.04-0.37,16.4,0.38
			c5.18,0.73,9.06,4.62,13.05,7.68c4.57,3.5,9.17,6.98,13.72,10.5c0.84,0.65,1.9,1.36,2.48,2.27c0.71,1.12-0.25,2.09-0.95,2.99
			c-1.76,2.24-3.6,4.43-5.4,6.65c-3.6,4.43-7.19,8.87-10.79,13.3c-1.42,1.75-2.76,4.09-5.07,4.69c-2.26,0.6-4.78,0.15-7.05-0.16
			c-5.43-0.73-10.89-1.2-16.36-1.49c-11.36-0.59-22.76-0.48-34.13-0.51c-23.06-0.07-46.11-0.14-69.17-0.21
			c-23.06-0.07-46.11-0.14-69.17-0.21c-10.93-0.03-21.85-0.05-32.77-0.62c-10.45-0.55-20.89-1.41-31.33-2.11
			c-5.27-0.35-10.54-0.67-15.81-0.9c-2.76-0.12-5.52-0.22-8.28-0.29c-2.58-0.06-5.63,0.37-8.11-0.39c-0.77-0.24-2.16-0.83-2.29-1.8
			c-0.06-0.49,0.51-1.3,0.71-1.77c0.28-0.68,0.56-1.35,0.83-2.03c1.04-2.57,2.01-5.17,2.94-7.78c1.78-5.01,3.37-10.07,4.93-15.15
			c1.45-4.72,2.86-9.44,4.39-14.14c0.75-2.3-2.87-3.29-3.62-1c-3.33,10.22-6.17,20.6-9.84,30.72c-0.99,2.72-2.03,5.42-3.14,8.09
			c-0.45,1.07-1,2.08-0.94,3.27c0.06,1.18,0.66,2.28,1.45,3.12c1.57,1.67,3.91,2.37,6.14,2.49c2.89,0.15,5.8,0.09,8.69,0.17
			c21.87,0.66,43.63,3.18,65.5,3.72c11.75,0.29,23.51,0.15,35.26,0.18c11.95,0.04,23.91,0.07,35.86,0.11
			c23.8,0.07,47.61,0.14,71.41,0.21c11.79,0.04,23.58,0,35.37,0.13c5.87,0.06,11.74,0.21,17.59,0.57c5.64,0.35,11.2,1.26,16.82,1.68
			c2.3,0.17,4.77,0.08,6.86-0.99c2.2-1.14,3.62-3.36,5.14-5.23c3.66-4.52,7.33-9.03,10.99-13.55c1.83-2.26,3.7-4.49,5.49-6.78
			c1.46-1.87,2.48-4.02,1.36-6.33c-1.05-2.16-3.3-3.55-5.15-4.96c-2.37-1.81-4.74-3.63-7.12-5.44s-4.74-3.63-7.12-5.44
			c-2.12-1.62-4.2-3.42-6.49-4.81c-4.42-2.67-9.7-2.48-14.68-2.52c-11.95-0.1-23.91-0.19-35.86-0.26c-23.8-0.14-47.6-0.23-71.4-0.25
			c-23.8-0.02-47.6,0.01-71.4,0.1c-23.91,0.09-47.81,0.25-71.72,0.46c-5.76,0.05-11.53,0.11-17.29,0.17
			C152.99,428.17,152.98,431.92,155.4,431.89L155.4,431.89z"/>
	</g>
</g>
<g>
	<path class="st3" d="M450.3,193.51c-39.76-0.25-79.52-0.5-119.28-0.75c-12.39-0.08-24.8-0.16-37.16,0.71
		c-9.91,0.69-19.77,1.99-29.69,2.6c-8.21,0.51-16.44,0.54-24.66,0.5c-19.71-0.09-39.42-0.59-59.12-1.51
		c-2.49-0.12-5.11-0.21-7.34,0.9c-1.95,0.97-3.36,2.75-4.7,4.47c-4.2,5.4-8.41,10.8-12.61,16.2c-0.88,1.13-1.78,2.3-2.17,3.67
		c-0.71,2.47,0.32,5.06,1.33,7.42c2.61,6.11,5.22,12.22,7.83,18.33c0.55,1.28,1.18,2.66,2.41,3.32c0.96,0.52,2.11,0.5,3.2,0.46
		c93.29-2.93,186.58-5.85,279.86-8.78c3.02-15.7,3.03-31.98,0.02-47.68"/>
	<g>
		<path d="M450.3,191.63c-20.77-0.13-41.53-0.26-62.3-0.39c-20.76-0.13-41.53-0.29-62.29-0.39c-10.42-0.05-20.86,0-31.26,0.7
			c-10.21,0.69-20.36,2.04-30.57,2.66c-10.37,0.63-20.78,0.54-31.17,0.44c-10.35-0.1-20.7-0.31-31.04-0.63
			c-5.22-0.16-10.44-0.36-15.66-0.58c-4.44-0.19-9.76-1.2-13.9,0.91c-1.82,0.93-3.24,2.45-4.5,4.02c-1.54,1.92-3.03,3.89-4.54,5.83
			c-3.13,4.02-6.31,7.99-9.38,12.06c-1.34,1.78-2.3,3.76-2.22,6.04c0.08,2.25,0.94,4.33,1.81,6.38c2.03,4.77,4.07,9.52,6.1,14.29
			c0.86,2.01,1.55,4.29,2.79,6.11c1.25,1.82,3.04,2.61,5.21,2.66c5.03,0.12,10.14-0.3,15.17-0.46c20.85-0.65,41.7-1.31,62.55-1.96
			c20.85-0.65,41.7-1.31,62.55-1.96c20.85-0.65,41.7-1.31,62.55-1.96c20.85-0.65,41.7-1.31,62.55-1.96
			c5.14-0.16,10.28-0.32,15.42-0.48c0.77-0.02,1.65-0.56,1.81-1.38c3.06-16.09,3.06-32.59,0.02-48.68c-0.45-2.37-4.06-1.37-3.62,1
			c2.91,15.39,2.91,31.29-0.02,46.68c0.6-0.46,1.21-0.92,1.81-1.38c-20.36,0.64-40.71,1.28-61.07,1.92
			c-20.46,0.64-40.91,1.28-61.37,1.92c-20.36,0.64-40.71,1.28-61.07,1.92c-20.36,0.64-40.71,1.28-61.07,1.92
			c-10.28,0.32-20.56,0.64-30.83,0.97c-1.19,0.04-2.37,0.07-3.56,0.11c-0.95,0.03-2.25,0.26-3.14-0.18
			c-0.76-0.38-1.14-1.34-1.48-2.07c-0.49-1.08-0.94-2.18-1.41-3.28c-2-4.67-3.99-9.34-5.99-14.02c-0.86-2.01-2.13-4.34-1.99-6.6
			c0.13-2.13,1.87-3.86,3.12-5.46c3.12-4.01,6.24-8.02,9.37-12.04c1.37-1.76,2.67-3.65,4.27-5.23c1.52-1.5,3.3-2.11,5.41-2.19
			c4.91-0.19,9.92,0.37,14.83,0.55c20.24,0.77,40.55,1.34,60.81,0.94c10.16-0.2,20.24-1.15,30.36-2.13
			c10.06-0.98,20.12-1.52,30.23-1.62c20.27-0.21,40.55,0.16,60.81,0.29c20.27,0.13,40.55,0.26,60.82,0.38
			c5.02,0.03,10.04,0.06,15.06,0.1C452.71,195.4,452.71,191.65,450.3,191.63L450.3,191.63z"/>
	</g>
</g>
<g>
	<path class="st3" d="M450.3,369.47c-39.76-0.25-79.52-0.5-119.28-0.75c-12.39-0.08-24.8-0.16-37.16,0.71
		c-9.91,0.69-19.77,1.99-29.69,2.6c-8.21,0.51-16.44,0.54-24.66,0.5c-19.71-0.09-39.42-0.59-59.12-1.51
		c-2.49-0.12-5.11-0.21-7.34,0.9c-1.95,0.97-3.36,2.75-4.7,4.47c-4.2,5.4-8.41,10.8-12.61,16.2c-0.88,1.13-1.78,2.3-2.17,3.67
		c-0.71,2.47,0.32,5.06,1.33,7.42c2.61,6.11,5.22,12.22,7.83,18.33c0.55,1.28,1.18,2.66,2.41,3.32c0.96,0.52,2.11,0.5,3.2,0.46
		c93.29-2.93,186.58-5.85,279.86-8.78c3.02-15.7,3.03-31.98,0.02-47.68"/>
	<g>
		<path d="M450.3,367.59c-20.77-0.13-41.53-0.26-62.3-0.39c-20.76-0.13-41.53-0.29-62.29-0.39c-10.42-0.05-20.86,0-31.26,0.7
			c-10.21,0.69-20.36,2.04-30.57,2.66c-10.37,0.63-20.78,0.54-31.17,0.44c-10.35-0.1-20.7-0.31-31.04-0.63
			c-5.22-0.16-10.44-0.36-15.66-0.58c-4.44-0.19-9.76-1.2-13.9,0.91c-1.82,0.93-3.24,2.45-4.5,4.02c-1.54,1.92-3.03,3.89-4.54,5.83
			c-3.13,4.02-6.31,7.99-9.38,12.06c-1.34,1.78-2.3,3.76-2.22,6.04c0.08,2.25,0.94,4.33,1.81,6.38c2.03,4.77,4.07,9.52,6.1,14.29
			c0.86,2.01,1.55,4.29,2.79,6.11c1.25,1.82,3.04,2.61,5.21,2.66c5.03,0.12,10.14-0.3,15.17-0.46c20.85-0.65,41.7-1.31,62.55-1.96
			c20.85-0.65,41.7-1.31,62.55-1.96s41.7-1.31,62.55-1.96s41.7-1.31,62.55-1.96c5.14-0.16,10.28-0.32,15.42-0.48
			c0.77-0.02,1.65-0.56,1.81-1.38c3.06-16.09,3.06-32.59,0.02-48.68c-0.45-2.37-4.06-1.37-3.62,1c2.91,15.39,2.91,31.29-0.02,46.68
			c0.6-0.46,1.21-0.92,1.81-1.38c-20.36,0.64-40.71,1.28-61.07,1.92c-20.46,0.64-40.91,1.28-61.37,1.92
			c-20.36,0.64-40.71,1.28-61.07,1.92s-40.71,1.28-61.07,1.92c-10.28,0.32-20.56,0.64-30.83,0.97c-1.19,0.04-2.37,0.07-3.56,0.11
			c-0.95,0.03-2.25,0.26-3.14-0.18c-0.76-0.38-1.14-1.34-1.48-2.07c-0.49-1.08-0.94-2.18-1.41-3.28c-2-4.67-3.99-9.34-5.99-14.02
			c-0.86-2.01-2.13-4.34-1.99-6.6c0.13-2.13,1.87-3.86,3.12-5.46c3.12-4.01,6.24-8.02,9.37-12.04c1.37-1.76,2.67-3.65,4.27-5.23
			c1.52-1.5,3.3-2.11,5.41-2.19c4.91-0.19,9.92,0.37,14.83,0.55c20.24,0.77,40.55,1.34,60.81,0.94c10.16-0.2,20.24-1.15,30.36-2.13
			c10.06-0.98,20.12-1.52,30.23-1.62c20.27-0.21,40.55,0.16,60.81,0.29c20.27,0.13,40.55,0.26,60.82,0.38
			c5.02,0.03,10.04,0.06,15.06,0.1C452.71,371.36,452.71,367.61,450.3,367.59L450.3,367.59z"/>
	</g>
</g>
<linearGradient id="SVGID_1_" gradientUnits="userSpaceOnUse" x1="334.5116" y1="452.6785" x2="369.927" y2="452.6785" gradientTransform="matrix(1 0 0 -1 -163.5 608.1002)">
	<stop  offset="0" style="stop-color:#FFD46A"/>
	<stop  offset="0.52" style="stop-color:#FAAF43"/>
	<stop  offset="0.52" style="stop-color:#FAAF43"/>
	<stop  offset="0.82" style="stop-color:#F99C27"/>
	<stop  offset="1" style="stop-color:#F89522"/>
</linearGradient>
<path class="st4" d="M204.91,150.16c-0.74,0-1.37,0.53-1.49,1.26l-9.07-1.43l-0.59-0.51l-4.36-8.04c0.67-0.51,0.8-1.46,0.29-2.12
	c-0.51-0.67-1.46-0.8-2.12-0.29c-0.67,0.51-0.8,1.46-0.29,2.12c0.08,0.11,0.18,0.21,0.29,0.29l-4.13,8.11l-0.63,0.48l-8.94,1.42l0,0
	c-0.15-0.38-0.76-0.77-1.34-0.77c-0.84,0-1.51,0.68-1.51,1.52c0,0.84,0.68,1.51,1.52,1.51c0.35,0,0.68-0.12,0.95-0.34l6.29,5.97
	l0.34,0.66l-1.51,8.96c-0.84,0.04-1.48,0.75-1.44,1.59s0.75,1.48,1.59,1.44c0.84-0.04,1.48-0.75,1.44-1.59
	c0-0.1-0.02-0.21-0.05-0.31c1.51-0.73,7.83-3.79,7.87-3.88c0.14,0.01,1.41,0.01,1.41,0.01l7.69,4.29c0,0.03,0,0.06,0,0.09
	c0,0.84,0.68,1.51,1.51,1.51c0.84,0,1.51-0.68,1.51-1.51s-0.68-1.51-1.51-1.51l0,0c-0.05,0-0.1,0-0.14,0.01l-1.45-8.9l0.22-0.58
	l6.81-6.7c0.69,0.48,1.63,0.31,2.11-0.38c0.48-0.69,0.31-1.63-0.38-2.11C205.53,150.25,205.22,150.16,204.91,150.16L204.91,150.16z"
	/>
<linearGradient id="SVGID_00000092431399525604820130000015242487856156203167_" gradientUnits="userSpaceOnUse" x1="321.5927" y1="329.2534" x2="357.0081" y2="329.2534" gradientTransform="matrix(1 0 0 -1 -163.5 608.1002)">
	<stop  offset="0" style="stop-color:#FFD46A"/>
	<stop  offset="0.52" style="stop-color:#FAAF43"/>
	<stop  offset="0.52" style="stop-color:#FAAF43"/>
	<stop  offset="0.82" style="stop-color:#F99C27"/>
	<stop  offset="1" style="stop-color:#F89522"/>
</linearGradient>
<path style="fill:url(#SVGID_00000092431399525604820130000015242487856156203167_);stroke:#221F1F;stroke-miterlimit:10;" d="
	M191.99,273.59c-0.74,0-1.37,0.53-1.49,1.26l-9.07-1.43l-0.59-0.51l-4.36-8.04c0.67-0.51,0.8-1.46,0.29-2.12
	c-0.51-0.67-1.46-0.8-2.12-0.29c-0.67,0.51-0.8,1.46-0.29,2.12c0.08,0.11,0.18,0.21,0.29,0.29l-4.13,8.11l-0.63,0.48l-8.94,1.42l0,0
	c-0.15-0.38-0.76-0.77-1.34-0.77c-0.84,0-1.51,0.68-1.51,1.52c0,0.84,0.68,1.51,1.52,1.51c0.35,0,0.68-0.12,0.95-0.34l6.29,5.97
	l0.34,0.66l-1.51,8.96c-0.84,0.04-1.48,0.75-1.44,1.59s0.75,1.48,1.59,1.44s1.48-0.75,1.44-1.59c0-0.1-0.02-0.21-0.05-0.31
	c1.51-0.73,7.83-3.79,7.87-3.88c0.14,0.01,1.41,0.01,1.41,0.01l7.69,4.29c0,0.03,0,0.06,0,0.09c0,0.84,0.68,1.51,1.51,1.51
	c0.84,0,1.51-0.68,1.51-1.51c0-0.84-0.68-1.51-1.51-1.51l0,0c-0.05,0-0.1,0-0.14,0.01l-1.45-8.9l0.22-0.58l6.81-6.7
	c0.69,0.48,1.63,0.31,2.11-0.38c0.48-0.69,0.31-1.63-0.38-2.11C192.61,273.68,192.3,273.58,191.99,273.59L191.99,273.59z"/>
<linearGradient id="SVGID_00000041997687092534547750000007902926025107085463_" gradientUnits="userSpaceOnUse" x1="321.5927" y1="274.4724" x2="357.0081" y2="274.4724" gradientTransform="matrix(1 0 0 -1 -163.5 608.1002)">
	<stop  offset="0" style="stop-color:#FFD46A"/>
	<stop  offset="0.52" style="stop-color:#FAAF43"/>
	<stop  offset="0.52" style="stop-color:#FAAF43"/>
	<stop  offset="0.82" style="stop-color:#F99C27"/>
	<stop  offset="1" style="stop-color:#F89522"/>
</linearGradient>
<path style="fill:url(#SVGID_00000041997687092534547750000007902926025107085463_);stroke:#221F1F;stroke-miterlimit:10;" d="
	M191.99,328.37c-0.74,0-1.37,0.53-1.49,1.26l-9.07-1.43l-0.59-0.51l-4.36-8.04c0.67-0.51,0.8-1.46,0.29-2.12
	c-0.51-0.67-1.46-0.8-2.12-0.29c-0.67,0.51-0.8,1.46-0.29,2.12c0.08,0.11,0.18,0.21,0.29,0.29l-4.13,8.11l-0.63,0.48l-8.94,1.42l0,0
	c-0.15-0.38-0.76-0.77-1.34-0.77c-0.84,0-1.51,0.68-1.51,1.52c0,0.84,0.68,1.51,1.52,1.51c0.35,0,0.68-0.12,0.95-0.34l6.29,5.97
	l0.34,0.66l-1.51,8.96c-0.84,0.04-1.48,0.75-1.44,1.59s0.75,1.48,1.59,1.44s1.48-0.75,1.44-1.59c0-0.1-0.02-0.21-0.05-0.31
	c1.51-0.73,7.83-3.79,7.87-3.88c0.14,0.01,1.41,0.01,1.41,0.01l7.69,4.29c0,0.03,0,0.06,0,0.09c0,0.84,0.68,1.51,1.51,1.51
	c0.84,0,1.51-0.68,1.51-1.51s-0.68-1.51-1.51-1.51l0,0c-0.05,0-0.1,0-0.14,0.01l-1.45-8.9l0.22-0.58l6.81-6.7
	c0.69,0.48,1.63,0.31,2.11-0.38c0.48-0.69,0.31-1.63-0.38-2.11C192.61,328.46,192.3,328.36,191.99,328.37L191.99,328.37z"/>
<linearGradient id="SVGID_00000067925776688351779220000007057351580201902771_" gradientUnits="userSpaceOnUse" x1="327.4481" y1="209.45" x2="362.8635" y2="209.45" gradientTransform="matrix(1 0 0 -1 -163.5 608.1002)">
	<stop  offset="0" style="stop-color:#FFD46A"/>
	<stop  offset="0.52" style="stop-color:#FAAF43"/>
	<stop  offset="0.52" style="stop-color:#FAAF43"/>
	<stop  offset="0.82" style="stop-color:#F99C27"/>
	<stop  offset="1" style="stop-color:#F89522"/>
</linearGradient>
<path style="fill:url(#SVGID_00000067925776688351779220000007057351580201902771_);stroke:#221F1F;stroke-miterlimit:10;" d="
	M197.85,393.39c-0.74,0-1.37,0.53-1.49,1.26l-9.07-1.43l-0.59-0.51l-4.36-8.04c0.67-0.51,0.8-1.46,0.29-2.12
	c-0.51-0.67-1.46-0.8-2.12-0.29c-0.67,0.51-0.8,1.46-0.29,2.12c0.08,0.11,0.18,0.21,0.29,0.29l-4.13,8.11l-0.63,0.48l-8.94,1.42l0,0
	c-0.15-0.38-0.76-0.77-1.34-0.77c-0.84,0-1.51,0.68-1.51,1.52c0,0.84,0.68,1.51,1.52,1.51c0.35,0,0.68-0.12,0.95-0.34l6.29,5.97
	l0.34,0.66l-1.51,8.96c-0.84,0.04-1.48,0.75-1.44,1.59s0.75,1.48,1.59,1.44c0.84-0.04,1.48-0.75,1.44-1.59
	c0-0.1-0.02-0.21-0.05-0.31c1.51-0.73,7.83-3.79,7.87-3.88c0.14,0.01,1.41,0.01,1.41,0.01l7.69,4.29c0,0.03,0,0.06,0,0.09
	c0,0.84,0.68,1.51,1.51,1.51c0.84,0,1.51-0.68,1.51-1.51s-0.68-1.51-1.51-1.51l0,0c-0.05,0-0.1,0-0.14,0.01l-1.45-8.9l0.22-0.58
	l6.81-6.7c0.69,0.48,1.63,0.31,2.11-0.38c0.48-0.69,0.31-1.63-0.37-2.11C198.46,393.48,198.16,393.39,197.85,393.39L197.85,393.39z"
	/>
<linearGradient id="SVGID_00000056396618263860970210000000901902539352001439_" gradientUnits="userSpaceOnUse" x1="316.8038" y1="152.3711" x2="352.2193" y2="152.3711" gradientTransform="matrix(1 0 0 -1 -163.5 608.1002)">
	<stop  offset="0" style="stop-color:#FFD46A"/>
	<stop  offset="0.52" style="stop-color:#FAAF43"/>
	<stop  offset="0.52" style="stop-color:#FAAF43"/>
	<stop  offset="0.82" style="stop-color:#F99C27"/>
	<stop  offset="1" style="stop-color:#F89522"/>
</linearGradient>
<path style="fill:url(#SVGID_00000056396618263860970210000000901902539352001439_);stroke:#221F1F;stroke-miterlimit:10;" d="
	M187.2,450.47c-0.74,0-1.37,0.53-1.49,1.26l-9.07-1.43l-0.59-0.51l-4.36-8.04c0.67-0.51,0.8-1.46,0.29-2.12s-1.46-0.8-2.12-0.29
	c-0.67,0.51-0.8,1.46-0.29,2.12c0.08,0.11,0.18,0.21,0.29,0.29l-4.13,8.11l-0.63,0.48l-8.94,1.42l0,0
	c-0.15-0.38-0.76-0.77-1.34-0.77c-0.84,0-1.51,0.68-1.51,1.52s0.68,1.51,1.52,1.51c0.35,0,0.68-0.12,0.95-0.34l6.29,5.97l0.34,0.66
	l-1.51,8.96c-0.84,0.04-1.48,0.75-1.44,1.59c0.04,0.84,0.75,1.48,1.59,1.44c0.84-0.04,1.48-0.75,1.44-1.59
	c0-0.1-0.02-0.21-0.05-0.31c1.51-0.73,7.83-3.79,7.87-3.88c0.14,0.01,1.41,0.01,1.41,0.01l7.69,4.29c0,0.03,0,0.06,0,0.09
	c0,0.84,0.68,1.51,1.51,1.51c0.84,0,1.51-0.68,1.51-1.51c0-0.84-0.68-1.51-1.51-1.51l0,0c-0.05,0-0.1,0-0.14,0.01l-1.45-8.9
	l0.22-0.58l6.81-6.7c0.69,0.48,1.63,0.31,2.11-0.38c0.48-0.69,0.31-1.63-0.38-2.11C187.82,450.56,187.51,450.47,187.2,450.47
	L187.2,450.47z"/>
<linearGradient id="SVGID_00000017476857133151534910000007999200326111406512_" gradientUnits="userSpaceOnUse" x1="334.5116" y1="386.8177" x2="369.927" y2="386.8177" gradientTransform="matrix(1 0 0 -1 -163.5 608.1002)">
	<stop  offset="0" style="stop-color:#FFD46A"/>
	<stop  offset="0.52" style="stop-color:#FAAF43"/>
	<stop  offset="0.52" style="stop-color:#FAAF43"/>
	<stop  offset="0.82" style="stop-color:#F99C27"/>
	<stop  offset="1" style="stop-color:#F89522"/>
</linearGradient>
<path style="fill:url(#SVGID_00000017476857133151534910000007999200326111406512_);stroke:#221F1F;stroke-miterlimit:10;" d="
	M204.91,216.02c-0.74,0-1.37,0.53-1.49,1.26l-9.07-1.43l-0.59-0.51l-4.36-8.04c0.67-0.51,0.8-1.46,0.29-2.12
	c-0.51-0.67-1.46-0.8-2.12-0.29c-0.67,0.51-0.8,1.46-0.29,2.12c0.08,0.11,0.18,0.21,0.29,0.29l-4.13,8.11l-0.63,0.48l-8.94,1.42l0,0
	c-0.15-0.38-0.76-0.77-1.34-0.77c-0.84,0-1.51,0.68-1.51,1.52c0,0.84,0.68,1.51,1.52,1.51c0.35,0,0.68-0.12,0.95-0.34l6.29,5.97
	l0.34,0.66l-1.51,8.96c-0.84,0.04-1.48,0.75-1.44,1.59s0.75,1.48,1.59,1.44c0.84-0.04,1.48-0.75,1.44-1.59
	c0-0.1-0.02-0.21-0.05-0.31c1.51-0.73,7.83-3.79,7.87-3.88c0.14,0.01,1.41,0.01,1.41,0.01l7.69,4.29c0,0.03,0,0.06,0,0.09
	c0,0.84,0.68,1.51,1.51,1.51c0.84,0,1.51-0.68,1.51-1.51s-0.68-1.51-1.51-1.51l0,0c-0.05,0-0.1,0-0.14,0.01l-1.45-8.9l0.22-0.58
	l6.81-6.7c0.69,0.48,1.63,0.31,2.11-0.37c0.48-0.69,0.31-1.63-0.38-2.11C205.53,216.11,205.22,216.02,204.91,216.02L204.91,216.02z"
	/>
</svg>
