<svg id="Layer_1" data-name="Layer 1" xmlns="http://www.w3.org/2000/svg" viewBox="0 0 244 78.6"><defs><style>.cls-1{fill:#8a4d2f;}.cls-2{fill:#bc6a45;}.cls-3{isolation:isolate;font-size:52px;font-family:CarnivaleeFreakshow, Carnivalee Freakshow;}</style></defs><title>sign</title><path class="cls-1" d="M406.5,456.2h-220a12,12,0,0,1-12-12V389.6a12,12,0,0,1,12-12h220a12,12,0,0,1,12,12v54.6A12,12,0,0,1,406.5,456.2Z" transform="translate(-174.5 -377.6)"/><path class="cls-2" d="M402.2,453.9H190.8a11.46,11.46,0,0,1-11.5-11.3V391.3A11.46,11.46,0,0,1,190.8,380H402.2a11.46,11.46,0,0,1,11.5,11.3v51.3A11.33,11.33,0,0,1,402.2,453.9Z" transform="translate(-174.5 -377.6)"/><text class="cls-3" transform="translate(55.12 55.24)">Sign Up</text></svg>