<?xml version="1.0" encoding="utf-8"?>
<!-- Generator: Adobe Illustrator 22.1.0, SVG Export Plug-In . SVG Version: 6.00 Build 0)  -->
<svg version="1.1" id="Layer_1" xmlns="http://www.w3.org/2000/svg" xmlns:xlink="http://www.w3.org/1999/xlink" x="0px" y="0px"
	 viewBox="0 0 500 500" style="enable-background:new 0 0 500 500;" xml:space="preserve">
<style type="text/css">
	.st0{fill:#F6F6F6;}
	.st1{fill:#FDE160;}
	.st2{fill:#DCDDDE;}
	.st3{fill:#F7BE5B;}
</style>
<circle class="st1" cx="247.6" cy="250.6" r="143.9"/>
<path class="st3" d="M314.7,116.2c14.6,4.4,40.2,14.7,54.6,39.3c1.6,2.7,3,5.5,4.1,8.2l31.7-92.1L314.7,116.2z"/>
<path class="st3" d="M200.4,396.2c-14.9-3-41.4-11-57.9-34.2c-1.8-2.6-3.4-5.2-4.8-7.8l-23.2,94.7L200.4,396.2z"/>
<path class="st3" d="M374.1,338.4c-7.6,13.2-23.7,35.7-51,43.9c-3,0.9-6,1.6-8.9,2.1l82.2,52.3L374.1,338.4z"/>
<path class="st3" d="M132.3,151.8c8.4-12.7,25.6-34.3,53.3-41c3.1-0.7,6.1-1.3,9.1-1.6l-79.2-56.8L132.3,151.8z"/>
<path class="st3" d="M216.6,103.7c14.4-4.9,41.3-11.4,67.3,0.2c2.9,1.3,5.6,2.7,8.1,4.3l-27.8-93.4L216.6,103.7z"/>
<path class="st3" d="M292,392.7c-13.9,6.1-40.2,14.8-67.1,5.2c-3-1.1-5.8-2.3-8.4-3.6l35.3,90.8L292,392.7z"/>
<path class="st3" d="M377.8,170.8c9.7,11.7,25.3,34.6,23.6,63c-0.2,3.2-0.6,6.2-1.1,9.1l77.5-59L377.8,170.8z"/>
<path class="st3" d="M397,256.9c2.7,15,5.2,42.5-10.2,66.5c-1.7,2.7-3.5,5.1-5.5,7.4l96.5-13.6L397,256.9z"/>
<path class="st3" d="M122.5,338.4c-10-11.5-26.2-33.9-25.2-62.4c0.1-3.2,0.4-6.2,0.9-9.1l-76,61L122.5,338.4z"/>
<path class="st3" d="M94,242.9c-0.4-15.2,1.5-42.8,20.5-64.1c2.1-2.4,4.3-4.5,6.5-6.4l-97.4-1.7L94,242.9z"/>
</svg>
