<?xml version="1.0" encoding="utf-8"?>
<!-- Generator: Adobe Illustrator 25.4.1, SVG Export Plug-In . SVG Version: 6.00 Build 0)  -->
<svg version="1.1" id="Layer_1" xmlns="http://www.w3.org/2000/svg" xmlns:xlink="http://www.w3.org/1999/xlink" x="0px" y="0px"
	 viewBox="0 0 595.28 841.89" style="enable-background:new 0 0 595.28 841.89;" xml:space="preserve">
<style type="text/css">
	.st0{fill:#C49A6C;}
	.st1{fill:#A97C50;}
	.st2{fill:#754C29;}
	.st3{fill:#8B5E3C;}
	.st4{fill:#603913;}
</style>
<g>
	<g>
		<g>
			<path class="st0" d="M235.27,478.33c-5.16,3.22-6.5,10.34-3.79,15.59c0.4,0.78,2.4,3.07,3.27,1.48
				c2.24-4.06,4.47-8.13,6.71-12.19c0.8-1.46-1.38-4.9-3.12-3.82c-4.26,2.66-8.71,4.99-13.32,6.98c0.95,1.37,1.89,2.74,2.84,4.12
				c1.92-1.21,3.83-2.42,5.75-3.64c1.61-1.02-0.84-4.83-2.46-4.27c-3.27,1.13-6.34,2.75-9.03,4.93c-1.35,1.09-2.59,2.31-3.74,3.61
				c-1.09,1.23-2.35,2.65-2.58,4.35c-0.48,3.62,3.11,6.95,6.64,6.68c3.45-0.26,5.96-4,8-6.39c2.93-3.43,5.7-7,8.31-10.68
				c0.9-1.27-1.17-4.51-2.74-3.97c-5.45,1.88-10.48,4.73-14.82,8.53c-1.43,1.25,0.71,4.71,2.46,4.27c6.27-1.58,12.11-4.6,16.97-8.87
				c0.86-0.75,0.37-2.11-0.18-2.91c-0.42-0.61-1.81-1.95-2.66-1.2c-4.67,4.1-10.19,7.04-16.21,8.56c0.82,1.42,1.64,2.85,2.46,4.27
				c4.12-3.61,8.88-6.44,14.06-8.22c-0.91-1.32-1.82-2.65-2.74-3.97c-2.37,3.35-4.88,6.6-7.51,9.74c-1.24,1.48-2.48,3.02-3.86,4.37
				c-1.06,1.03-2.56,2.32-4.16,1.98c-0.14-0.03-0.67-0.29-0.72-0.26c0.09-0.04,0.59,0.65,0.4,0.59c-0.14-0.05,0.82-1.55,0.93-1.7
				c1.04-1.41,2.25-2.69,3.57-3.85c2.69-2.37,5.83-4.25,9.22-5.42c-0.82-1.42-1.64-2.85-2.46-4.27c-1.92,1.21-3.83,2.42-5.75,3.64
				c-1.78,1.13,1,4.91,2.84,4.12c4.61-1.99,9.06-4.32,13.32-6.98c-1.04-1.27-2.08-2.54-3.12-3.82c-2.24,4.06-4.47,8.13-6.71,12.19
				c1.09,0.49,2.18,0.99,3.27,1.48c-1.93-3.74-0.08-8.69,3.48-10.91C239.83,481.37,237.04,477.23,235.27,478.33L235.27,478.33z"/>
		</g>
	</g>
	<g>
		<g>
			<path class="st0" d="M236.78,479.03c-13.97-7.31-23.27-20.73-29.97-34.61c-3.73-7.73-6.87-15.79-9.59-23.93
				c-2.9-8.68-5.13-17.59-6.08-26.71c-1.74-16.78,0.54-33.99,6.86-49.65c6.06-15.03,15.91-28.44,28.78-38.34
				c12.17-9.36,26.6-15.25,41.92-16.65c1.93-0.18,3.86-0.28,5.79-0.32c1.06-0.02,2.3-0.74,3.18-1.27c0.31-0.19,1.54-0.97,0.55-0.95
				c-16.6,0.34-32.97,5.85-47.02,14.6c-14.11,8.78-25.78,21.04-33.55,35.76c-8.04,15.25-11.91,32.62-11.62,49.83
				c0.32,18.54,6.04,36.43,13.31,53.33c6.27,14.59,14.75,29.26,28.26,38.26c1.57,1.05,3.2,2,4.87,2.87
				c0.65,0.34,2.36-0.69,2.93-0.98C235.67,480.15,237.29,479.29,236.78,479.03L236.78,479.03z"/>
		</g>
	</g>
	<g>
		<g>
			<path class="st0" d="M232.95,487.79c22.09,4.4,44.43,8.6,67.03,8.85c21.65,0.24,43.65-3.57,62.54-14.62
				c17.11-10.01,30.75-25.2,40.66-42.23c4.98-8.55,9.06-17.62,12.27-26.97c3.86-11.24,6.7-23.03,6.87-34.96
				c0.16-10.73-1.89-21.47-6.94-30.99c-4.56-8.6-11.25-16.34-19.92-20.97c-2.05-1.1-4.18-2.02-6.39-2.75
				c-1.06-0.35-1.05,0.9-0.84,1.58c0.29,0.98,1.11,2.34,2.15,2.69c8.49,2.78,15.58,8.66,20.43,16.11c5.44,8.36,7.9,18.11,8.23,28.01
				c0.39,11.74-2.1,23.48-5.69,34.6c-2.95,9.17-6.73,18.07-11.35,26.53c-9.19,16.81-21.83,31.94-37.93,42.51
				c-17.68,11.6-38.53,16.44-59.48,17.01c-21.87,0.59-43.64-2.97-65.04-7.1c-2.64-0.51-5.28-1.03-7.92-1.56
				C229.53,483.1,231.51,487.5,232.95,487.79L232.95,487.79z"/>
		</g>
	</g>
	<g>
		<g>
			<path class="st0" d="M235.91,489.64c-7.76-13.46-14.08-27.71-18.85-42.49c-2.39-7.39-4.4-14.91-5.98-22.52
				c-1.61-7.74-2.98-15.63-3.48-23.53c-0.51-7.97,0.28-15.88,3.51-23.26c2.96-6.75,7.5-12.7,12.35-18.2
				c9.23-10.46,20.13-19.42,32.15-26.49c12.01-7.06,25.11-12.28,38.72-15.31c1.7-0.38,3.41-0.72,5.12-1.03
				c1.13-0.21,0.17-1.98-0.18-2.41c-0.71-0.86-1.78-1.56-2.92-1.35c-13.98,2.55-27.51,7.37-39.99,14.17
				c-12.46,6.79-23.89,15.51-33.63,25.82c-5.07,5.36-9.86,11.14-13.44,17.62c-3.86,7-5.79,14.47-5.95,22.46
				c-0.17,8.16,1.13,16.36,2.59,24.36c1.43,7.81,3.27,15.54,5.51,23.16c4.49,15.24,10.6,30.01,18.19,43.97
				c0.93,1.71,1.88,3.4,2.85,5.09c0.52,0.9,1.74,2.02,2.87,1.93C236.48,491.53,236.35,490.4,235.91,489.64L235.91,489.64z"/>
		</g>
	</g>
	<g>
		<g>
			<path class="st0" d="M238.46,482.57c17.43,1.18,35.01,2.07,52.43,0.21c16.75-1.79,33.53-6.33,47.47-16.12
				c14.73-10.34,24.61-25.77,31.51-42.13c3.65-8.67,6.67-17.66,9.04-26.76c2.61-10.03,4.28-20.43,3.61-30.82
				c-1.09-16.86-9.4-33.95-24.02-43.11c-1.72-1.08-3.51-2.03-5.38-2.84c-0.97-0.42-0.2,0.94-0.01,1.22
				c0.58,0.86,1.47,1.96,2.46,2.39c14.88,6.43,22.11,22.4,23.38,37.82c0.83,10.05-0.6,20.16-3,29.91
				c-2.24,9.11-5.19,18.1-8.74,26.78c-6.49,15.9-15.67,31.14-29.42,41.78c-13.11,10.14-29.17,15.32-45.43,17.55
				c-16.77,2.3-33.79,1.77-50.63,0.74c-2.09-0.13-4.19-0.26-6.28-0.41c-0.75-0.05,0.52,1.66,0.62,1.79
				C236.57,481.19,237.56,482.51,238.46,482.57L238.46,482.57z"/>
		</g>
	</g>
	<g>
		<g>
			<path class="st0" d="M239.85,484.47c1.41-14.07,8.27-26.74,17.38-37.34c9.57-11.13,21.36-19.87,33.59-27.84
				c12.88-8.4,26.23-16.16,38.27-25.79c11.38-9.1,21.21-19.94,27.27-33.32c5.57-12.28,7.96-26.47,3.62-39.52
				c-0.54-1.62-1.17-3.19-1.89-4.73c-0.49-1.06-5.12,0.34-4.95,0.69c5.86,12.56,4.97,26.87,0.19,39.63
				c-5.12,13.65-14.31,25.1-25.3,34.52c-11.77,10.09-25.14,18.02-38.15,26.36c-12.32,7.9-24.39,16.3-34.45,27.02
				c-9.43,10.05-17.14,22.18-19.79,35.87c-0.33,1.7-0.57,3.42-0.74,5.15C234.85,485.62,239.74,485.58,239.85,484.47L239.85,484.47z"
				/>
		</g>
	</g>
	<g>
		<g>
			<path class="st0" d="M234.44,483.93c-1.44-26,5.64-52.22,19.58-74.19c6.9-10.88,15.54-20.34,25.26-28.75
				c9.59-8.29,19.94-15.64,29.87-23.51c11.22-8.88,21.93-18.46,30.17-30.27c0.73-1.04-0.19-2.34-1.2-2.7
				c-1.26-0.45-2.58,0.05-3.32,1.11c-14.73,21.13-37.54,34.51-56.94,50.8c-10.02,8.42-19.03,17.81-26.37,28.68
				c-7.37,10.91-13.01,22.97-16.8,35.57c-4.25,14.16-6.05,29.05-5.23,43.81C229.62,487.17,234.59,486.65,234.44,483.93
				L234.44,483.93z"/>
		</g>
	</g>
	<g>
		<g>
			<path class="st0" d="M236.8,485.36c17.32,3.33,34.83,6.38,52.53,6.18c17.32-0.2,35-3.44,49.77-12.92
				c7.47-4.79,14.01-10.87,19.98-17.4c5.83-6.38,11.24-13.17,16.26-20.2c10.22-14.3,18.83-29.86,24.74-46.44
				c5.78-16.23,8.9-33.48,8.08-50.74c-0.1-2.17-0.27-4.35-0.5-6.51c-0.05-0.5-5.03-0.02-4.98,0.47c1.73,16.71-0.29,33.59-5.09,49.65
				c-4.87,16.28-12.46,31.69-21.7,45.93c-4.6,7.08-9.61,13.89-14.98,20.41c-5.52,6.7-11.4,13.17-18.06,18.76
				c-6.53,5.48-13.82,9.99-21.81,13.01c-7.49,2.83-15.4,4.44-23.38,4.95c-16.87,1.08-33.83-1.65-50.37-4.72
				c-2.08-0.39-4.16-0.78-6.24-1.18c-1.08-0.21-2.35,0.01-3.42,0.2C237.37,484.87,235.86,485.18,236.8,485.36L236.8,485.36z"/>
		</g>
	</g>
	<g>
		<g>
			<path class="st0" d="M233.77,480.47c27.31-12.12,54.6-24.36,81.56-37.23c10.36-4.95,20.75-10.36,29.4-18.01
				c4.19-3.71,7.92-7.95,10.81-12.75c3.42-5.67,5.42-12.01,6.61-18.5c1.44-7.89,1.98-15.99,2.13-23.99
				c0.16-8.55-0.29-17.1-1.33-25.58c-0.14-1.12-0.73-2.24-1.4-3.13c-0.2-0.27-1.32-1.46-1.19-0.38c1.81,14.74,1.92,29.8-0.06,44.53
				c-0.91,6.77-2.45,13.55-5.52,19.69c-2.5,5.03-5.95,9.51-9.95,13.43c-8.23,8.07-18.48,13.75-28.75,18.79
				c-12.77,6.26-25.77,12.09-38.69,18.01c-15.28,7-30.6,13.9-45.95,20.71C230.67,476.39,232.83,480.89,233.77,480.47L233.77,480.47z
				"/>
		</g>
	</g>
	<g>
		<g>
			<path class="st0" d="M234.77,483.18c-2.65-16.74-5.31-33.47-7.96-50.21c-2.61-16.44-5.28-33.12-4.17-49.82
				c0.9-13.55,4.5-27.28,12.01-38.72c3.61-5.5,8.12-10.42,13.43-14.31c5.46-4,11.66-6.88,18.13-8.81
				c13.24-3.95,27.27-4.29,40.98-4.16c1.75,0.02,3.51,0.04,5.26,0.07c1.01,0.02,0.02-1.83-0.17-2.13c-0.52-0.79-1.46-1.91-2.5-1.92
				c-13.89-0.23-28.03-0.32-41.64,2.86c-13.3,3.11-25.41,9.72-33.89,20.62c-8.23,10.58-12.81,23.69-14.51,36.89
				c-2.14,16.65-0.08,33.47,2.45,49.95c2.6,16.88,5.34,33.73,8.01,50.59c0.34,2.13,0.68,4.27,1.01,6.4
				c0.18,1.13,1.01,2.19,1.91,2.86C233.58,483.68,234.95,484.32,234.77,483.18L234.77,483.18z"/>
		</g>
	</g>
	<g>
		<g>
			<path class="st0" d="M234.2,480.38c3.33-15.98,7.16-31.86,11.48-47.6c3.93-14.32,7.92-28.8,13.53-42.58
				c5.1-12.5,11.97-24.58,22.26-33.55c10.72-9.34,23.99-15.02,37.3-19.61c13.83-4.78,29.26-9.51,43.99-6.45
				c1.85,0.38,3.66,0.89,5.44,1.5c1.16,0.4,2.71-0.13,3.16-1.32c0.48-1.25-0.44-2.38-1.58-2.77c-15.29-5.22-31.66-1.79-46.61,2.93
				c-14.02,4.43-28.14,9.79-40.11,18.52c-11.61,8.46-19.89,20.18-25.9,33.11c-6.3,13.55-10.4,28.09-14.46,42.44
				c-4.58,16.16-8.63,32.46-12.18,48.88c-0.45,2.07-0.89,4.14-1.32,6.21c-0.27,1.27,1.29,2.25,2.36,2.32
				C232.93,482.48,233.94,481.67,234.2,480.38L234.2,480.38z"/>
		</g>
	</g>
	<g>
		<g>
			<path class="st0" d="M231.83,466.99c27.3-6.53,53.69-17.7,77.02-33.37c11.04-7.41,21.43-16.25,28.23-27.84
				c6.45-11,9.63-24.69,5.79-37.15c-3.83-12.43-14.29-23.28-27.46-25.29c-1.09-0.17-1.82,0.64-1.55,1.71
				c0.29,1.14,1.45,2.2,2.62,2.38c10.22,1.56,18.39,9.62,21.77,19.18c4.13,11.65,1.34,24.57-4.49,35.13
				c-6.1,11.04-15.87,19.72-26.13,26.81c-10.98,7.59-22.79,14.07-34.93,19.58c-13.81,6.27-28.21,11.23-42.96,14.76
				C227.1,463.5,229.84,467.46,231.83,466.99L231.83,466.99z"/>
		</g>
	</g>
	<g>
		<g>
			<path class="st0" d="M236.67,481.2c-0.62-19.33-1.24-38.67-1.86-58c-0.31-9.63-0.62-19.25-0.93-28.88
				c-0.15-4.75-0.33-9.49-0.45-14.24c-0.12-4.43-0.14-8.93,0.7-13.3c1.55-8.05,6.29-14.64,12.04-20.29
				c6.06-5.94,12.96-11.09,19.77-16.13c7.27-5.38,14.76-10.46,22.44-15.23c7.31-4.54,14.89-9.29,23.37-11.25
				c7.53-1.74,14.94-0.42,21.47,3.69c6.17,3.88,11.15,9.47,15.72,15.07c1.17,1.44,2.33,2.9,3.47,4.37c0.67,0.86,2.19,1.52,3.2,0.89
				c1.08-0.68,0.6-2.03-0.02-2.83c-9.25-11.87-20.73-25.31-36.95-26.15c-9-0.46-17.57,3.26-25.25,7.57
				c-8.08,4.54-15.88,9.66-23.47,14.97c-7.45,5.21-14.76,10.69-21.71,16.56c-6.24,5.26-12.17,11.08-15.8,18.5
				c-4.07,8.31-3.67,17.64-3.39,26.64c0.32,9.96,0.64,19.91,0.96,29.87c0.64,19.83,1.28,39.66,1.91,59.49
				c0.08,2.49,0.16,4.98,0.24,7.47c0.04,1.23,1.16,2.31,2.31,2.61C235.46,482.87,236.71,482.43,236.67,481.2L236.67,481.2z"/>
		</g>
	</g>
	<g>
		<g>
			<path class="st0" d="M238.77,470.79c-7.13-23.85-12.4-48.25-15.7-72.93c-1.66-12.39-2.82-24.84-3.5-37.31
				c-0.33-6.08-0.63-12.2-0.57-18.29c0.06-5.85,0.61-11.77,2.6-17.32c6.63-18.53,26.84-28.81,45.05-32.29
				c19.31-3.69,41.81-0.9,56.96,12.62c12.93,11.54,18.54,31.7,12.88,48.15c-0.73,2.12-1.66,4.16-2.76,6.11
				c-0.64,1.14,3.08,4.18,3.32,3.74c9.43-16.88,4.72-37.94-6.71-52.6c-6.33-8.11-14.7-14.39-24.23-18.27
				c-9.67-3.94-20.22-5.46-30.62-4.98c-10.21,0.47-20.45,2.8-29.78,7.01c-8.94,4.04-17.34,9.99-22.96,18.14
				c-2.88,4.18-4.92,8.88-6,13.85c-1.34,6.16-1.32,12.5-1.14,18.77c0.36,12.81,1.25,25.6,2.65,38.33
				c2.8,25.42,7.64,50.61,14.47,75.25c0.86,3.09,1.75,6.17,2.66,9.24c0.31,1.05,1.27,2.04,2.1,2.71
				C237.81,470.97,239.08,471.82,238.77,470.79L238.77,470.79z"/>
		</g>
	</g>
	<g>
		<g>
			<path class="st0" d="M233.42,476.51c26.25-3.1,52.25-8.35,77.65-15.66c12.67-3.65,25.19-7.82,37.51-12.49
				c11.28-4.28,22.59-8.8,33.1-14.76c9.96-5.65,19.16-12.83,25.93-22.15c6.19-8.52,10.11-18.73,11.53-29.15
				c1.43-10.54,0.51-21.38-3.11-31.41c-3.75-10.39-10.37-20.51-20.52-25.52c-10.04-4.94-22.53-4.36-32.55,0.32
				c-10.08,4.71-17.98,13.08-23.23,22.8c-1.33,2.46-2.47,5.01-3.49,7.6c-0.47,1.2,0.73,2.37,1.83,2.53
				c1.38,0.19,2.49-0.65,2.97-1.87c3.73-9.46,9.91-18.31,18.4-24.05c8.36-5.65,19.25-8.03,29.06-5.07
				c10.34,3.12,17.25,11.85,21.43,21.44c4.02,9.24,5.53,19.4,4.74,29.43c-0.77,9.8-3.9,19.46-9.11,27.8
				c-5.67,9.07-13.95,16.12-22.99,21.68c-9.56,5.88-19.96,10.22-30.39,14.31c-11.76,4.61-23.71,8.76-35.79,12.44
				c-24.12,7.33-48.8,12.75-73.77,16.18c-3.11,0.43-6.22,0.82-9.34,1.19c-1.22,0.14-2.44,1.14-2.4,2.46
				C230.93,475.83,232.22,476.65,233.42,476.51L233.42,476.51z"/>
		</g>
	</g>
	<g>
		<g>
			<path class="st0" d="M236.18,484.86c-16.51-14.66-30.77-31.73-42.29-50.57c-5.76-9.42-10.83-19.27-15.07-29.46
				c-4.55-10.94-7.74-22.41-7.13-34.35c1.17-23.04,13.54-43.61,28.46-60.49c7.82-8.84,16.42-16.94,25.07-24.96
				c8.14-7.54,16.25-15.28,25.53-21.43c8.45-5.6,17.87-9.83,28.09-10.51c8.59-0.57,18,1.29,24.84,6.78c1.62,1.3,3.09,2.75,4.36,4.38
				c0.72,0.91,2.05,1.69,3.2,1.06c1.07-0.59,1.05-2.1,0.37-2.98c-6.09-7.78-15.18-12.14-24.87-13.4
				c-10.09-1.32-20.2,0.83-29.31,5.19c-10.42,4.98-19.42,12.49-27.92,20.19c-8.87,8.03-17.71,16.17-26.05,24.76
				c-16.47,16.99-30.95,37.01-35.24,60.77c-2.17,12.04-1.03,24.04,2.66,35.66c3.57,11.24,8.84,22.01,14.54,32.31
				c11.11,20.05,25.28,38.4,41.84,54.25c2.04,1.95,4.11,3.86,6.22,5.73c0.84,0.74,2.32,1.17,3.18,0.23
				C237.53,487.08,237.01,485.6,236.18,484.86L236.18,484.86z"/>
		</g>
	</g>
	<g>
		<g>
			<path class="st0" d="M233.11,487.86c12.68,5.1,25.81,9.12,39.2,11.9c13.42,2.79,27.09,4.31,40.8,4.38
				c13.58,0.07,27.2-1.35,40.41-4.52c13.27-3.18,26.07-8.14,37.94-14.88c12.23-6.94,23.67-15.84,31.96-27.3
				c8.84-12.23,13-27.13,16.21-41.68c3.53-16,5.6-32.32,6.17-48.7c0.28-7.98,0.24-16-0.25-23.97c-0.45-7.29-1.37-14.64-3.61-21.62
				c-2.15-6.69-5.63-12.78-10.25-18.06c-4.45-5.09-9.7-9.41-15.23-13.26c-5.98-4.17-12.28-7.87-18.62-11.45
				c-6.97-3.94-14.07-7.66-21.28-11.16c-3.57-1.73-7.16-3.4-10.78-5.02c-0.96-0.43-2.27,0.19-3.08,0.71
				c-0.31,0.2-1.94,1.48-1.02,1.89c14.24,6.37,28.12,13.58,41.46,21.67c11.3,6.85,22.65,14.81,29.58,26.36
				c7.62,12.69,8.43,28.04,8.64,42.46c0.22,15.82-0.96,31.65-3.52,47.27c-1.29,7.87-2.92,15.69-4.92,23.42
				c-1.83,7.05-4.03,14.04-7.13,20.64c-6,12.76-15.67,22.96-27.22,30.89c-21.54,14.8-47.31,22-73.25,23.25
				c-26.78,1.29-53.83-3.44-79.04-12.39c-3.05-1.08-6.07-2.23-9.08-3.44c-0.99-0.4-2.24,0.18-3.08,0.71
				C233.84,486.16,232.17,487.49,233.11,487.86L233.11,487.86z"/>
		</g>
	</g>
	<g>
		<g>
			<path class="st0" d="M308.7,286.76c-16.39-9.19-34.96-18.91-54.37-16.95c-18.61,1.88-32.81,16.47-41.36,32.16
				c-8.51,15.62-12.23,33.55-12.19,51.26c0.04,20.33,4.89,40.39,11.32,59.56c3.15,9.37,6.58,18.67,10.44,27.77
				c3.76,8.88,8.06,17.59,13.75,25.41c1.4,1.93,2.88,3.79,4.43,5.6c1.94,2.26,5.66-0.46,3.55-2.92
				c-12.12-14.15-18.72-32.32-24.91-49.62c-6.63-18.52-12.09-37.71-13.35-57.43c-1.09-17.13,1.14-34.58,7.98-50.42
				c3.33-7.71,7.84-14.93,13.4-21.22c5.65-6.38,12.72-11.94,21-14.36c17.72-5.17,36.22,3.22,51.59,11.45
				c2.07,1.11,4.12,2.25,6.17,3.39c1.09,0.61,2.64,0.54,3.4-0.57C310.28,288.83,309.78,287.36,308.7,286.76L308.7,286.76z"/>
		</g>
	</g>
	<g>
		<g>
			<path class="st0" d="M225.55,492.3c13.69-1.23,26.52-6.24,38.75-12.27c12.41-6.12,24.37-13.1,36.93-18.92
				c12.98-6.01,26.35-11.18,40-15.46c13.37-4.2,26.96-7.35,40.71-10.01c10.64-2.05,21.79-4.37,30.98-10.42
				c4.29-2.82,8.04-6.58,10.5-11.11c3.32-6.12,4.25-13.08,4.33-19.96c0.26-22.74-7.3-45.36-20.03-64.09
				c-12.72-18.72-30.65-34.04-51.66-42.69c-2.56-1.05-5.16-2-7.8-2.85c-1.04-0.33-2.44-0.32-2.82,0.95
				c-0.33,1.13,0.64,2.55,1.71,2.9c20.88,6.7,39.04,20.09,52.46,37.35c13.33,17.15,21.86,38.28,23.26,60.01
				c0.75,11.57,0.06,24.33-9.11,32.64c-7.77,7.05-18.45,9.87-28.46,12.01c-5.96,1.27-11.96,2.29-17.92,3.59
				c-6.91,1.51-13.78,3.23-20.58,5.18c-13.46,3.85-26.67,8.56-39.52,14.09c-12.63,5.43-24.69,11.88-36.83,18.3
				c-11.74,6.21-23.85,12.16-36.9,15.04c-3.06,0.68-6.16,1.15-9.28,1.43C221.15,488.27,223.03,492.52,225.55,492.3L225.55,492.3z"/>
		</g>
	</g>
	<g>
		<g>
			<path class="st0" d="M327.39,292.19c-20.28,16.24-33.92,38.92-44.17,62.46c-10.95,25.14-18.28,51.64-28.51,77.07
				c-5.86,14.57-12.77,28.77-21.67,41.75c-1.26,1.84,2.16,5.44,3.61,3.33c15.93-23.23,25.25-50.06,34.36-76.49
				c8.53-24.75,17.19-49.75,31.29-72c7.65-12.08,16.87-23.13,28.05-32.09C332.2,294.74,329.22,290.73,327.39,292.19L327.39,292.19z"
				/>
		</g>
	</g>
	<g>
		<g>
			<path class="st0" d="M232.01,478.69c12.65-9.03,25.29-18.08,37.51-27.7c12.15-9.57,23.89-19.72,34.6-30.91
				c10.5-10.97,20.03-22.88,27.74-35.98c7.53-12.8,13.44-26.67,16.92-41.12c3.42-14.22,4.43-29.13,2.22-43.62
				c-0.28-1.85-0.62-3.68-1-5.51c-0.47-2.26-5.44-2.57-4.92-0.05c2.96,14.23,2.72,28.87-0.1,43.1c-2.85,14.4-8.2,28.22-15.26,41.07
				c-7.17,13.04-16.12,25.02-26.19,35.96c-10.38,11.28-21.84,21.51-33.76,31.12c-11.99,9.66-24.47,18.71-36.99,27.67
				c-1.54,1.1-3.08,2.2-4.62,3.3c-0.99,0.71-0.45,2.03,0.37,2.61C229.53,479.33,230.99,479.41,232.01,478.69L232.01,478.69z"/>
		</g>
	</g>
	<g>
		<g>
			<path class="st0" d="M244.31,478.24c26.82-10.48,52.4-24.09,76.05-40.52c11.07-7.69,22.22-15.83,31-26.16
				c8.74-10.28,13.91-22.61,16.12-35.86c2.5-15.01,1.66-30.35,0.73-45.47c-0.06-0.99-0.79-2-1.36-2.78
				c-0.11-0.16-1.52-1.66-1.49-1.12c1.63,26.33,2.86,55.22-13.84,77.44c-8.09,10.77-18.94,19.11-29.81,26.88
				c-11.65,8.33-23.79,15.97-36.33,22.89c-14.13,7.79-28.77,14.63-43.79,20.5C241.15,474.21,243.34,478.62,244.31,478.24
				L244.31,478.24z"/>
		</g>
	</g>
	<g>
		<g>
			<path class="st0" d="M249.55,488.18c23.85-6.39,47.7-12.78,71.55-19.18c19.98-5.36,40.52-10.14,58.89-19.96
				c8.71-4.65,16.83-10.58,23.44-17.95c6.55-7.31,11.57-15.77,15.43-24.77c3.93-9.19,6.64-18.86,8.79-28.6
				c2.22-10.02,4.01-20.18,5.53-30.33c1.6-10.76,2.48-22.62-2.21-32.78c-3.76-8.15-11.18-15.47-20.29-17.01
				c-2.28-0.39-4.54-0.42-6.83-0.14c-1.07,0.13-2.43,1.1-2.41,2.28c0.02,1.27,1.44,1.55,2.43,1.43c8.52-1.05,16.24,4.97,20.58,11.8
				c5.66,8.89,5.73,20.03,4.58,30.16c-1.14,10.09-3.08,20.18-5.12,30.13c-1.93,9.42-4.28,18.79-7.66,27.81
				c-3.28,8.77-7.6,17.17-13.37,24.57c-5.77,7.39-13.04,13.42-21.07,18.22c-16.68,9.98-35.87,14.77-54.47,19.76
				c-23.05,6.18-46.1,12.36-69.15,18.53c-2.88,0.77-5.76,1.54-8.64,2.32c-1.06,0.28-2.43,0.99-2.41,2.28
				C247.14,487.92,248.57,488.44,249.55,488.18L249.55,488.18z"/>
		</g>
	</g>
	<g>
		<g>
			<path class="st0" d="M256.37,495.22c19.13-6.24,38.26-12.48,57.39-18.73c9.64-3.15,19.29-6.29,28.93-9.44
				c8.41-2.74,16.86-5.38,25.13-8.53c7.79-2.96,15.45-6.42,22.46-10.95c6.95-4.49,13.07-10.06,18.07-16.65
				c10.1-13.32,15.59-29.53,19.62-45.57c4.67-18.57,7.4-37.88,5.65-57.04c-0.22-2.37-0.51-4.72-0.86-7.07
				c-0.09-0.61-1.43-1.34-1.89-1.66c-0.48-0.34-0.97-0.68-1.49-0.96c-0.06-0.03-0.71-0.33-0.7-0.27
				c2.86,19.05,0.99,38.44-3.15,57.15c-3.64,16.48-8.58,33.26-17.79,47.56c-4.45,6.91-9.96,13.08-16.5,18.08
				c-6.61,5.06-14.04,8.94-21.69,12.17c-7.77,3.28-15.8,5.91-23.82,8.53c-9.64,3.15-19.29,6.29-28.93,9.44
				c-19.13,6.24-38.26,12.48-57.39,18.73c-2.37,0.77-4.74,1.55-7.11,2.32c-0.05,0.02,1.72,1.54,1.89,1.66
				C254.59,494.27,255.82,495.4,256.37,495.22L256.37,495.22z"/>
		</g>
	</g>
	<g>
		<g>
			<path class="st0" d="M244.25,487.11c4.3-28.74,2.66-58.32-4.89-86.38c-3.66-13.61-8.91-27.3-7.32-41.64
				c1.42-12.8,7.57-24.69,15.57-34.61c9.71-12.04,22.15-21.45,34.41-30.72c0.5-0.37-1.32-0.97-1.52-1.03
				c-0.55-0.19-2.47-0.96-3.05-0.51c-20.78,15.72-43.82,33.58-49.43,60.6c-1.38,6.67-1.35,13.46-0.27,20.17
				c1.14,7.12,3.27,14.04,5.27,20.95c4.04,13.96,6.82,28.22,8.03,42.71c1.37,16.37,0.82,32.87-1.61,49.11
				C239.31,486.61,244.17,487.63,244.25,487.11L244.25,487.11z"/>
		</g>
	</g>
	<g>
		<g>
			<path class="st0" d="M248.28,451.25c5.61-22.36,11.2-44.73,16.83-67.08c4.81-19.09,9.9-38.27,18.15-56.21
				c4.58-9.95,10.15-19.41,17.07-27.92c1.78-2.2-2.33-4.95-3.97-2.94c-12.59,15.49-20.76,33.89-26.85,52.76
				c-6.55,20.31-11.23,41.23-16.42,61.92c-3.22,12.84-6.44,25.67-9.66,38.51c-0.31,1.22,1.22,2.34,2.24,2.54
				C246.94,453.08,247.97,452.48,248.28,451.25L248.28,451.25z"/>
		</g>
	</g>
	<g>
		<g>
			<path class="st0" d="M245.38,476.99c16.05-14.22,30.11-30.6,41.85-48.54c11.69-17.86,21.03-37.27,27.61-57.59
				c1.9-5.87,3.69-11.83,4.92-17.89c1.31-6.46,1.64-13.16-0.68-19.44c-0.66-1.78-5.59-1.27-4.81,0.84
				c2.03,5.48,1.8,11.42,0.79,17.09c-0.97,5.46-2.59,10.83-4.24,16.12c-3.11,10-6.9,19.79-11.3,29.29
				c-8.86,19.12-20.22,37.07-33.75,53.23c-7.6,9.07-15.86,17.57-24.72,25.42c-0.89,0.78,0.14,1.76,0.92,2.02
				C243.09,477.94,244.49,477.78,245.38,476.99L245.38,476.99z"/>
		</g>
	</g>
	<g>
		<g>
			<path class="st0" d="M255.24,453.05c-2.04-23.72-3.56-47.5-3.97-71.31c-0.2-11.37-0.21-22.76,0.26-34.13
				c0.41-9.82,1.28-19.69,3.46-29.29c2.39-10.51,6.51-20.78,13.14-29.35c1.65-2.13-3.04-3.33-4.28-1.73
				c-12.29,15.89-15.95,36.16-17.1,55.74c-0.65,11.04-0.67,22.13-0.56,33.18c0.12,12.07,0.54,24.13,1.17,36.19
				c0.71,13.54,1.71,27.07,2.87,40.58C250.43,455.15,255.42,455.18,255.24,453.05L255.24,453.05z"/>
		</g>
	</g>
	<g>
		<g>
			<path class="st0" d="M238.73,489.22c-10.58-25.68-21.17-51.37-31.75-77.05c-5.25-12.75-10.64-25.45-15.73-38.26
				c-4.49-11.31-8.57-23.35-7.74-35.69c0.75-11.17,5.7-22.65,15.44-28.76c1.6-1-0.84-5.36-2.38-4.4
				c-8.94,5.61-14.1,15.52-15.81,25.73c-2.05,12.28,0.82,24.66,4.94,36.22c2.28,6.4,4.95,12.66,7.53,18.94
				c2.69,6.54,5.39,13.07,8.08,19.61c5.42,13.15,10.84,26.3,16.25,39.45c6.08,14.76,12.17,29.53,18.25,44.29
				c0.35,0.85,1.17,2.35,2.29,2.26C239.2,491.45,239.01,489.9,238.73,489.22L238.73,489.22z"/>
		</g>
	</g>
	<g>
		<g>
			<path class="st0" d="M259.6,481.07c21.07-14.92,47.64-17.79,72.76-16.82c7.05,0.27,14.08,0.84,21.1,1.48
				c6.99,0.63,13.98,1.5,20.99,1.91c3.54,0.2,7.05,0.17,10.53-0.61c2.99-0.67,5.84-1.99,8.41-3.65c4.94-3.2,9.12-7.65,12.56-12.38
				c7.94-10.93,12.18-24.13,12.01-37.64c-0.02-1.3-1.65-2.12-2.78-2.04c-1.35,0.1-2.19,1.09-2.17,2.4
				c0.15,11.49-3.37,22.9-9.65,32.48c-3.06,4.67-6.91,9.15-11.43,12.46c-2.29,1.68-4.77,3.06-7.51,3.84
				c-2.98,0.86-6.15,0.93-9.23,0.76c-6.84-0.36-13.67-1.24-20.49-1.86c-7.14-0.65-14.29-1.21-21.45-1.53
				c-12.99-0.57-26.05-0.21-38.85,2.24c-13.44,2.57-26.54,7.33-37.76,15.28C254.03,479.24,257.25,482.73,259.6,481.07L259.6,481.07z
				"/>
		</g>
	</g>
	<g>
		<g>
			<path class="st0" d="M243.77,481.39c28.33-14.67,56.67-29.34,85-44.01c6.76-3.5,13.54-6.95,20.27-10.52
				c5.9-3.13,11.76-6.46,17.09-10.51c5.21-3.97,9.9-8.63,13.43-14.18c3.32-5.22,5.62-11.06,7.08-17.06
				c3.41-14.01,2.61-28.68,1.68-42.94c-0.07-1.05-4.75,0.21-4.64,1.86c0.82,12.55,1.45,25.32-0.75,37.77
				c-1.06,5.99-2.81,11.92-5.62,17.33c-2.91,5.61-6.91,10.46-11.7,14.56c-4.85,4.14-10.37,7.44-15.95,10.48
				c-6.37,3.47-12.85,6.73-19.29,10.06c-13.87,7.18-27.74,14.37-41.61,21.55c-15.64,8.1-31.28,16.2-46.93,24.3
				c-0.52,0.27-1.86,1.12-1.16,1.8C241.32,482.53,243.17,481.7,243.77,481.39L243.77,481.39z"/>
		</g>
	</g>
	<g>
		<g>
			<path class="st0" d="M240.07,475.12c14.49-20.94,28.97-41.88,43.46-62.82c7.05-10.19,14.23-20.31,21.12-30.62
				c6.22-9.32,12.05-19.18,14.92-30.1c2.98-11.35,2.75-23.93-3.28-34.28c-0.6-1.02-5.09,0.83-4.84,1.26
				c5.3,9.1,6.14,20.03,4.2,30.23c-2.11,11.08-7.59,21.2-13.65,30.59c-6.6,10.23-13.74,20.12-20.67,30.12
				c-7.2,10.4-14.39,20.8-21.59,31.21c-8.14,11.77-16.29,23.54-24.43,35.31c-0.42,0.61,1.73,0.3,1.88,0.27
				C238.01,476.15,239.54,475.88,240.07,475.12L240.07,475.12z"/>
		</g>
	</g>
	<g>
		<g>
			<path class="st0" d="M258.23,439.61c18.05-20.54,36.63-41.9,46.76-67.66c2.8-7.11,4.86-14.5,6.03-22.06
				c0.04-0.23-4.88-0.69-5,0.05c-4.26,27.43-20.24,50.97-37.55,71.96c-4.96,6.02-10.09,11.9-15.24,17.76
				c-0.06,0.07,2.3,0.31,2.5,0.31C256.34,439.97,257.78,440.13,258.23,439.61L258.23,439.61z"/>
		</g>
	</g>
	<g>
		<g>
			<path class="st1" d="M226.52,498.32c0.3,0.15-0.14-0.11-0.2-0.16c-0.06-0.05-0.37-0.42-0.19-0.15c-0.18-0.26-0.29-0.54-0.36-0.85
				c0.07,0.31,0-0.16,0-0.24c0-0.17,0.01-0.34,0.04-0.5c0.01-0.07,0.13-0.6,0.04-0.26c0.05-0.18,0.11-0.35,0.18-0.53
				c0.07-0.18,0.15-0.35,0.24-0.52c0.04-0.08,0.38-0.6,0.12-0.23c0.2-0.29,0.42-0.56,0.65-0.83c0.16-0.17,0.14-0.15-0.07,0.07
				c0.07-0.07,0.14-0.14,0.22-0.2c0.07-0.07,0.15-0.13,0.23-0.19c0.2-0.16,0.15-0.12-0.14,0.09c0.08,0,0.43-0.25,0.49-0.31
				c-0.38,0.19-0.45,0.23-0.21,0.12c0.1-0.04,0.2-0.08,0.3-0.13c0.4-0.17,0.81-0.32,1.23-0.47c0.1-0.04,0.21-0.07,0.31-0.11
				c-0.37,0.13-0.42,0.15-0.16,0.05c0.37-0.13,0.74-0.26,1.1-0.39c0.77-0.27,1.55-0.56,2.29-0.92c1.97-0.96,3.86-2.27,4.77-4.34
				c0.29-0.66-0.12-1.14-0.77-1.28c-0.87-0.19-1.86,0.16-2.6,0.61c-3.67,2.22-7.35,4.44-11.02,6.65c-0.62,0.37-1.79,1.47-0.95,2.2
				c0.85,0.73,2.4,0.07,3.19-0.37c2.73-1.49,5.47-2.98,8.2-4.47c0.89-0.49,1.85-1.76,0.59-2.39c-1.86-0.93-4.07-1.18-6.11-0.79
				c-1.08,0.2-2.48,0.68-2.95,1.8c-0.43,1.01,0.71,1.47,1.55,1.32c0.41-0.08,0.83-0.14,1.25-0.15c-0.29,0,0.08,0.01,0.19,0.02
				c0.21,0.01,0.42,0.03,0.63,0.06c0.57,0.08,1.36,0.36,2.02,0.69c0.2-0.8,0.4-1.59,0.59-2.39c-2.73,1.49-5.47,2.98-8.2,4.47
				c0.75,0.61,1.49,1.22,2.24,1.83c3.67-2.22,7.35-4.44,11.02-6.65c-1.12-0.22-2.25-0.45-3.37-0.67c-0.06,0.14-0.14,0.28-0.2,0.42
				c-0.01,0.03-0.15,0.24-0.03,0.06c0.13-0.2-0.05,0.07-0.09,0.11c-0.09,0.12-0.2,0.23-0.29,0.35c-0.15,0.2,0.12-0.14,0.12-0.13
				c-0.01,0.05-0.18,0.17-0.22,0.2c-0.06,0.05-0.12,0.09-0.18,0.14c-0.19,0.18,0.18-0.15,0.19-0.13c0,0-0.4,0.26-0.45,0.29
				c-0.08,0.05-0.55,0.3-0.19,0.11c0.37-0.19-0.18,0.08-0.28,0.13c-0.65,0.3-1.33,0.52-2,0.78c-0.01,0,0.51-0.18,0.23-0.08
				c-0.08,0.03-0.16,0.06-0.24,0.08c-0.34,0.12-0.68,0.24-1.02,0.36c-0.34,0.12-0.67,0.24-1.01,0.37c-2.9,1.12-5.76,3.6-6.16,6.87
				c-0.19,1.61,0.6,2.82,2.01,3.52C224.58,502.01,228.68,499.39,226.52,498.32L226.52,498.32z"/>
		</g>
	</g>
	<g>
		<g>
			<path class="st1" d="M237.07,488.04c19.18-0.5,38.4-1.28,57.44-3.75c18.67-2.42,37.3-6.42,54.73-13.69
				c17.4-7.26,33.35-17.77,46.06-31.78c12.85-14.17,22.28-31.55,27.07-50.07c4.69-18.18,5.39-38.66-4.2-55.44
				c-1.13-1.97-2.4-3.85-3.81-5.63c-0.76-0.97-2.13-1.56-3.25-0.78c-1.03,0.72-1.15,2.35-0.39,3.32
				c11.43,14.52,12.04,34.39,8.39,51.78c-3.79,18.04-12.16,35.09-23.86,49.31c-11.65,14.15-26.69,25.14-43.33,32.73
				c-16.59,7.56-34.47,11.99-52.45,14.66c-18.62,2.76-37.45,3.76-56.25,4.33c-2.26,0.07-4.51,0.13-6.77,0.19
				C233.35,483.29,234.24,488.11,237.07,488.04L237.07,488.04z"/>
		</g>
	</g>
	<g>
		<g>
			<path class="st1" d="M246.57,489.78c27,2.95,54.01,5.91,81.01,8.86c22.2,2.43,47.28,5.16,66.44-8.91
				c18.32-13.45,25.8-36.44,28.5-58.07c1.61-12.91,1.98-25.96,2.64-38.93c0.68-13.33,1.5-26.65,1.99-39.99
				c0.44-12.04,0.1-24.55-5.03-35.69c-4.2-9.13-11.72-17.84-21.39-21.32c-2.24-0.8-4.57-1.31-6.94-1.49
				c-0.92-0.07,0.09,1.77,0.24,2.01c0.45,0.73,1.35,2.02,2.33,2.09c9.41,0.74,17.34,6.94,21.82,15.04
				c5.61,10.12,6.08,22.4,5.77,33.7c-0.36,12.95-1.24,25.9-1.9,38.84c-0.64,12.65-1.02,25.36-2.32,37.96
				c-2.22,21.53-8.31,44.21-25.19,59.01c-8.19,7.18-18.32,11.24-29.04,12.75c-11.21,1.59-22.61,0.75-33.82-0.4
				c-26.01-2.67-52-5.67-77.99-8.52c-3.23-0.35-6.46-0.71-9.69-1.06c-0.92-0.1,0.1,1.79,0.24,2.01
				C244.71,488.44,245.58,489.67,246.57,489.78L246.57,489.78z"/>
		</g>
	</g>
	<g>
		<g>
			<path class="st1" d="M257.26,488.06c-1.12-10.3-4.14-20.33-8.81-29.59c-4.81-9.56-11.42-17.95-19.23-25.24
				c-8.03-7.5-16.89-14.15-23.86-22.72c-6.47-7.94-11.59-16.99-15.07-26.63c-6.9-19.15-7.24-40.1-0.73-59.4
				c6.6-19.58,19.62-36.13,36.77-47.57c4.74-3.16,9.7-5.99,14.74-8.64c4.6-2.42,9.25-4.76,14.07-6.7c8.63-3.48,18.9-6.41,28.1-3.48
				c2.08,0.66,3.99,1.7,5.76,2.95c0.84,0.59,2.47,1.03,3.42,0.49c1-0.58,0.32-1.48-0.37-1.96c-18.25-12.88-42.26-0.76-59.13,8.62
				c-9.76,5.42-19.09,11.78-26.88,19.83c-7.1,7.34-12.92,15.9-17.27,25.13c-8.81,18.7-11.09,40.03-6.27,60.14
				c2.43,10.15,6.56,19.93,12.16,28.74c5.9,9.27,13.51,16.89,21.74,24.09c4.4,3.85,8.86,7.65,12.94,11.85
				c3.68,3.79,6.97,7.92,9.85,12.34c5.81,8.92,9.92,18.9,12.04,29.33c0.52,2.57,0.92,5.16,1.2,7.77
				C252.61,489.1,257.47,490.05,257.26,488.06L257.26,488.06z"/>
		</g>
	</g>
	<g>
		<g>
			<path class="st1" d="M242.1,485.04c-10.32-27.55-4.53-57.58,1.85-85.32c3.39-14.73,7.05-29.44,8.89-44.46
				c0.92-7.49,1.16-14.98,1.36-22.52c0.2-7.21,0.53-14.49,2.29-21.52c2.98-11.9,12.85-24.83,26.42-23.74
				c1.27,0.1,2.12-1.16,2.01-2.32c-0.12-1.29-1.18-2.38-2.47-2.49c-12.56-1.02-23.05,8.77-27.88,19.57
				c-6.14,13.74-4.3,29.45-5.42,44.05c-2.36,30.69-13.65,59.85-16.5,90.47c-1.54,16.59-0.66,33.62,5.23,49.35
				c0.43,1.14,1.63,2.14,2.91,1.8C242.02,487.61,242.52,486.16,242.1,485.04L242.1,485.04z"/>
		</g>
	</g>
	<g>
		<g>
			<path class="st1" d="M243.9,492.86c-0.23-8.38-0.17-16.82,1.17-25.12c1.26-7.8,3.67-15.68,8.53-22.04
				c11.51-15.05,31.73-14.88,48.87-13.91c11.28,0.64,22.56,1.31,33.84,1.96c10.34,0.6,20.79,1.67,31.16,1.26
				c9.02-0.36,18.25-2.41,25.25-8.44c6.39-5.51,9.86-13.5,11.73-21.57c1.96-8.44,2.47-17.25,2.79-25.89
				c0.33-8.97-0.09-18.35-4.27-26.49c-1.03-2-2.31-3.84-3.76-5.56c-0.74-0.88-2.32-1.24-3.22-0.39c-0.97,0.93-0.51,2.35,0.23,3.23
				c5.58,6.64,6.55,15.76,6.55,24.12c0,8.53-0.56,17.27-2.07,25.67c-1.4,7.78-4,15.77-9.63,21.56c-6.3,6.48-15.12,8.67-23.88,9.15
				c-4.53,0.25-9.06,0.06-13.58-0.19c-5.55-0.31-11.1-0.64-16.65-0.96c-11.35-0.66-22.69-1.32-34.04-1.97
				c-17.4-1-37.72-1.48-50.66,12.31c-11.53,12.29-13.08,30.52-13.03,46.55c0.01,2.06,0.04,4.12,0.1,6.18
				C239.43,494.98,243.99,496.03,243.9,492.86L243.9,492.86z"/>
		</g>
	</g>
	<g>
		<g>
			<path class="st1" d="M244.96,478.91c-8.79-4.64-17.57-9.27-26.36-13.91c-8.19-4.32-16.58-8.41-24.56-13.1
				c-3.29-1.93-6.52-4.09-9.22-6.8c-2.88-2.9-5.02-6.35-6.53-10.14c-3.1-7.79-4.21-16.39-5.63-24.61
				c-2.88-16.8-5.02-34.43-0.99-51.24c2-8.32,5.72-16.03,10.77-22.91c5.13-6.99,11.34-13.1,17.64-19.03
				c13.53-12.73,27.78-24.69,42.65-35.82c1.88-1.4,3.76-2.79,5.66-4.17c1.6-1.17-2.39-4.08-3.79-3.06
				c-15.41,11.19-30.17,23.26-44.19,36.16c-12.96,11.92-26.25,24.53-31.78,41.76c-5.39,16.78-3.93,34.73-1.25,51.86
				c0.68,4.37,1.46,8.73,2.26,13.08c0.78,4.22,1.55,8.45,2.76,12.57c1.2,4.06,2.84,8.07,5.25,11.57c2.4,3.5,5.47,6.47,8.87,8.99
				c7.29,5.39,15.72,9.24,23.71,13.45c8.93,4.71,17.87,9.42,26.8,14.14c2.2,1.16,4.39,2.32,6.59,3.48c0.7,0.37,2.24,1.07,2.82,0.15
				C246.99,480.44,245.57,479.23,244.96,478.91L244.96,478.91z"/>
		</g>
	</g>
	<g>
		<g>
			<path class="st1" d="M244.03,495.89c-12.68-25.81-25.6-52.18-31.08-80.63c-2.7-14.01-3.68-28.64-1.31-42.78
				c1.17-6.97,3.27-13.75,6.54-20.02c3.05-5.86,7.01-11.17,11.37-16.11c4.98-5.63,10.47-10.78,15.98-15.88
				c2.7-2.5,5.45-5.32,9.05-6.43c1.94-0.6,5.52-0.59,6.42,1.38c0.47,1.02,1.49,2.18,2.73,2.14c1.14-0.04,1.47-1.24,1.05-2.16
				c-1.35-2.95-3.97-5.09-7.17-5.76c-3.21-0.67-6.24,0.15-9,1.84c-2.98,1.82-5.46,4.37-8,6.74c-2.6,2.42-5.18,4.85-7.7,7.35
				c-10.07,10.01-19,21.27-23.13,35.07c-4.36,14.53-4.33,30.2-2.31,45.12c2.01,14.86,6.29,29.36,11.62,43.35
				c6.1,16.02,13.6,31.45,21.15,46.82c0.5,1.02,1.47,2.19,2.73,2.14C244.1,498.01,244.48,496.8,244.03,495.89L244.03,495.89z"/>
		</g>
	</g>
	<g>
		<g>
			<path class="st1" d="M247.39,494.47c-0.5-17.48,0.66-35.35,7.12-51.78c5.25-13.35,14.44-25.67,26.94-33
				c7.02-4.12,14.75-6,22.69-7.49c8.17-1.53,16.47-2.94,23.98-6.69c12.81-6.4,22.34-18.32,27.28-31.61c5.95-16,5.01-33.91,0.2-50.07
				c-0.63-2.1-1.33-4.18-2.08-6.24c-0.41-1.12-1.57-2.09-2.79-2.17c-1.08-0.07-1.82,0.78-1.43,1.84c5.92,16.09,8,34.05,3.01,50.67
				c-4.03,13.43-12.88,25.72-25.17,32.71c-14.35,8.17-31.87,6.48-46.49,14.04c-12.94,6.7-22.64,18.5-28.69,31.57
				c-7.26,15.69-9.15,33.35-9.1,50.46c0.01,2.14,0.05,4.28,0.11,6.42C243.02,495.18,247.47,497.18,247.39,494.47L247.39,494.47z"/>
		</g>
	</g>
	<g>
		<g>
			<path class="st1" d="M256.32,480.37c6.16-14.48,22.09-21.56,37.01-22.59c10.26-0.71,20.53,0.94,30.62,2.65
				c10.37,1.76,20.72,3.38,31.21,4.18c10.4,0.79,20.84,0.91,31.27,0.43c8.76-0.41,17.7-1.2,25.87-4.61
				c3.88-1.62,7.53-3.93,10.47-6.96c3.14-3.23,5.51-7.11,7.44-11.16c4.11-8.63,6.97-17.96,8.79-27.34
				c1.84-9.47,2.54-19.17,2.06-28.81c-0.39-7.9-1.18-16.75-6.24-23.2c-1.19-1.52-2.64-2.79-4.25-3.86
				c-0.95-0.62-2.54-0.68-3.53-0.14c-0.94,0.51-0.96,1.38-0.08,1.96c6.45,4.26,8.09,12.89,8.75,20.04
				c0.89,9.61,0.59,19.33-0.85,28.87c-1.44,9.5-4.02,18.8-7.72,27.67c-1.7,4.09-3.65,8.13-6.31,11.69
				c-2.52,3.37-5.77,6.08-9.51,7.99c-7.49,3.83-16.13,4.59-24.4,5.03c-10.21,0.55-20.47,0.42-30.67-0.32
				c-10.22-0.74-20.29-2.31-30.38-4.02c-10.12-1.72-20.36-3.33-30.66-2.98c-15.41,0.52-32.33,6.16-41.1,19.69
				c-1,1.54-1.85,3.16-2.56,4.85C250.7,481.39,255.61,482.03,256.32,480.37L256.32,480.37z"/>
		</g>
	</g>
	<g>
		<g>
			<path class="st2" d="M247.3,487.79c4.64-14.5,15.77-25.27,28.64-32.82c13.72-8.04,28.98-12.43,44.31-16.22
				c16.45-4.07,33.21-7.86,48.41-15.61c7.45-3.8,14.41-8.61,20.26-14.63c6.28-6.47,11.25-14.17,14.92-22.39
				c7.83-17.53,10.12-37.53,6.73-56.41c-0.43-2.37-0.95-4.72-1.55-7.05c-0.27-1.06-1.54-1.69-2.51-1.95
				c-0.45-0.12-2.44-0.39-2.17,0.66c4.86,18.87,3.91,39.08-2.88,57.35c-3.13,8.42-7.48,16.51-13.23,23.43
				c-5.41,6.52-12.04,11.89-19.36,16.14c-14.7,8.54-31.51,12.6-47.87,16.63c-15.46,3.81-30.83,7.8-45.02,15.24
				c-13.06,6.85-25.17,16.74-31.31,30.46c-0.76,1.7-1.41,3.44-1.98,5.21C242.17,487.47,246.81,489.3,247.3,487.79L247.3,487.79z"/>
		</g>
	</g>
	<g>
		<g>
			<path class="st2" d="M254.36,471c-7.1-13.15-12.84-27.01-17.13-41.33c-4.29-14.31-7.13-29.06-8.45-43.94
				c-0.66-7.44-0.94-14.91-0.83-22.38c0.11-7.36,0.35-15.08,3.37-21.92c2.74-6.19,7.69-10.93,13.09-14.85
				c5.71-4.15,11.85-7.78,17.98-11.26c12.35-7.01,25.76-13.25,40.11-14.32c1.82-0.14,3.66-0.2,5.49-0.18
				c1.14,0.01,2.3-0.26,3.35-0.7c0.26-0.11,1.74-0.93,0.68-0.94c-15.56-0.19-30.62,4.75-44.43,11.61
				c-6.87,3.42-13.48,7.33-19.98,11.39c-5.8,3.63-11.64,7.48-16.17,12.69c-4.85,5.58-7.08,12.4-7.83,19.66
				c-0.8,7.64-0.64,15.45-0.3,23.11c0.71,15.52,3.07,30.97,7.01,45.99c3.94,15.03,9.47,29.64,16.49,43.5
				c0.88,1.73,1.78,3.45,2.7,5.16C250.03,473.24,254.57,471.4,254.36,471L254.36,471z"/>
		</g>
	</g>
	<g>
		<g>
			<path class="st2" d="M249.11,486.98c-2.8-14.47-1.88-29.46,2.25-43.58c4.12-14.1,11.33-27.29,21.16-38.22
				c4.9-5.46,10.44-10.32,16.53-14.41c7.14-4.8,15.01-8.43,22.95-11.69c15.93-6.54,32.88-11.83,46.69-22.46
				c11.81-9.09,22.11-22.18,22.87-37.61c0.09-1.85,0.03-3.71-0.16-5.55c-0.14-1.36-5.05-0.5-4.88,1.08
				c1.61,15.49-7.47,29.57-18.9,39.21c-13.12,11.08-29.63,16.48-45.32,22.81c-8.35,3.37-16.61,7.01-24.28,11.76
				c-6.28,3.88-12.07,8.58-17.23,13.86c-10.26,10.48-18.07,23.37-22.84,37.23c-4.75,13.82-6.5,28.77-4.6,43.29
				c0.24,1.8,0.53,3.59,0.87,5.37C244.5,489.49,249.4,488.48,249.11,486.98L249.11,486.98z"/>
		</g>
	</g>
	<g>
		<g>
			<path class="st2" d="M245.56,476.04c-11.72-16.13-23.43-32.26-35.15-48.39c-10.42-14.35-21.36-28.91-27.3-45.81
				c-2.78-7.9-4.34-16.28-3.66-24.66c0.65-8.04,3.33-15.65,7.43-22.56c4.09-6.92,9.39-13.03,15.02-18.73
				c5.8-5.86,11.9-11.65,18.31-16.85c3.37-2.74,6.98-5.16,11.05-6.73c3.72-1.44,7.69-2.17,11.66-2.46
				c8.46-0.63,16.99,0.8,25.24,2.52c2.1,0.44,4.19,0.9,6.29,1.37c1.12,0.25,2.6-0.14,3.39-0.99c0.7-0.76,0.5-1.66-0.56-1.9
				c-16.94-3.82-36.17-7.58-52.27,1.21c-7.88,4.3-14.45,10.91-20.95,17c-6.15,5.75-12.06,11.78-17.11,18.54
				c-4.86,6.5-8.8,13.74-10.87,21.62c-2.19,8.34-2.05,17.13-0.2,25.53c3.87,17.56,14.32,33.08,24.67,47.46
				c11.95,16.6,24.04,33.1,36.06,49.65c1.51,2.08,3.03,4.17,4.54,6.25C242.2,479.56,246.83,477.78,245.56,476.04L245.56,476.04z"/>
		</g>
	</g>
	<g>
		<g>
			<path class="st2" d="M241.78,482.73c12.85-9.7,28.13-15.5,43.94-18.19c16.15-2.74,32.75-2.42,48.97-0.37
				c8.14,1.03,16.16,2.82,24.31,3.78c7.76,0.92,16.05,1.06,23.35-2.1c7.71-3.34,12.51-10.22,16.33-17.41
				c4.3-8.08,7.84-16.57,10.59-25.29c2.74-8.68,4.7-17.6,5.83-26.62c0.92-7.27,2.55-16.3-2.94-22.27c-1.07-1.16-2.33-2.01-3.87-2.37
				c-0.9-0.21-0.07,1.8,0.04,2.02c0.4,0.81,1.13,2.09,2.1,2.32c0.63,0.15,1.05,0.45,1.61,0.73c0.05,0.03,0.31,0.32,0.15,0.13
				c-0.19-0.22,0.13,0.27,0.18,0.39c0.52,1.31,0.64,2.79,0.69,4.18c0.14,4.09-0.49,8.3-1.03,12.34c-1.18,8.72-3.12,17.33-5.79,25.71
				c-2.67,8.38-6.07,16.53-10.17,24.32c-3.73,7.09-8.31,13.89-15.82,17.34c-7.04,3.23-15.04,3.18-22.59,2.35
				c-7.89-0.87-15.65-2.61-23.51-3.66c-15.6-2.08-31.53-2.58-47.14-0.37c-15.24,2.16-30.2,6.97-43.13,15.47
				c-1.61,1.06-3.17,2.17-4.71,3.33C238.13,479.24,240.9,483.39,241.78,482.73L241.78,482.73z"/>
		</g>
	</g>
	<g>
		<g>
			<path class="st2" d="M246.83,488.2c18.06,4.58,36.53,7.53,55.13,8.78c18.33,1.23,36.86,0.89,55.1-1.33
				c7.94-0.97,15.97-2.49,23.3-5.81c6.96-3.16,12.83-8.09,17.18-14.37c4.29-6.19,7.07-13.31,9.09-20.53
				c2.31-8.24,3.73-16.76,4.73-25.25c2.2-18.57,1.93-37.45-0.86-55.95c-0.35-2.32-0.74-4.64-1.17-6.95
				c-0.18-0.98-1.11-2.44-2.14-2.7c-1.13-0.29-1.14,0.85-1,1.65c3.29,18.07,4.12,36.61,2.49,54.91c-0.78,8.71-2.05,17.43-4.01,25.95
				c-1.66,7.23-3.95,14.38-7.58,20.89c-3.61,6.47-8.57,12.02-14.98,15.82c-6.78,4.01-14.51,6-22.23,7.21
				c-8.55,1.34-17.24,1.97-25.88,2.35c-9.16,0.41-18.34,0.41-27.51-0.01c-18.28-0.83-36.47-3.31-54.3-7.43
				c-2.18-0.5-4.35-1.03-6.51-1.58c-1.07-0.27-1.2,0.85-1,1.65C244.93,486.46,245.76,487.93,246.83,488.2L246.83,488.2z"/>
		</g>
	</g>
	<g>
		<g>
			<path class="st2" d="M254.92,483.56c-6.18-15.25-12.37-30.5-18.55-45.74c-3.06-7.55-6.12-15.09-9.18-22.64
				c-2.96-7.3-6.13-14.55-8.63-22.03c-2.32-6.96-3.75-14.1-3.49-21.46c0.23-6.53,1.62-13,3.98-19.09
				c4.78-12.35,13.28-22.92,23.97-30.66c12.37-8.96,27.26-14.08,42.32-16.03c0.97-0.13-0.49-1.78-0.7-1.97
				c-0.71-0.67-1.8-1.48-2.84-1.35c-26.8,3.47-53.21,17.65-65.01,42.93c-5.71,12.24-7.4,25.83-4.21,38.99
				c1.86,7.69,5.01,15,7.98,22.32c3.12,7.7,6.25,15.4,9.37,23.1c6.99,17.25,13.99,34.5,20.98,51.75c0.42,1.04,1.52,1.88,2.52,2.34
				C253.91,484.24,255.34,484.61,254.92,483.56L254.92,483.56z"/>
		</g>
	</g>
	<g>
		<g>
			<path class="st2" d="M251.73,467.8c-2.35-25.53-4.74-51.71,1.41-76.91c2.74-11.26,7.18-22.19,13.76-31.76
				c6.34-9.22,14.68-16.81,23.83-23.18c10.48-7.29,21.91-13.05,33.3-18.75c0.39-0.2-2.14-4.43-3.01-4
				C301,323.23,280,333.84,266.12,352.06c-14.47,18.99-19.44,43.4-19.93,66.81c-0.32,15.11,1.06,30.19,2.45,45.22
				c0.09,0.95,0.99,1.96,1.58,2.66C250.34,466.91,251.78,468.31,251.73,467.8L251.73,467.8z"/>
		</g>
	</g>
	<g>
		<g>
			<path class="st2" d="M248.33,469.34c5.63-14.14,13.69-27.21,23.68-38.69c9.95-11.44,21.78-21.23,34.86-28.91
				c12.87-7.56,27.05-13.03,41.72-15.83c15.38-2.93,33.43-3.98,43.64-17.65c9.27-12.43,7.62-29.33,5.03-43.67
				c-0.34-1.88-0.71-3.76-1.1-5.63c-0.31-1.52-4.93,0.23-4.55,2.07c1.57,7.6,2.88,15.31,2.98,23.09c0.09,7.26-0.9,14.73-4.48,21.16
				c-7.95,14.25-25.7,14.88-39.94,17.57c-15.14,2.86-29.69,8.31-43.12,15.85c-13.36,7.5-25.49,17.15-35.91,28.37
				c-10.33,11.13-18.92,23.94-25.11,37.81c-0.75,1.68-1.46,3.38-2.15,5.1c-0.41,1.04,0.73,1.31,1.54,1.21
				C246.42,471.04,247.92,470.38,248.33,469.34L248.33,469.34z"/>
		</g>
	</g>
	<g>
		<g>
			<path class="st2" d="M266,471.86c19.4,5.44,39.57,8,59.72,7.66c20.12-0.34,40.16-3.57,59.36-9.61
				c9.37-2.94,18.91-6.28,27.26-11.54c4.06-2.56,7.85-5.55,10.73-9.42c2.67-3.6,4.52-7.72,5.92-11.96
				c1.47-4.46,2.42-9.08,3.27-13.69c1-5.4,1.8-10.84,2.4-16.3c1.2-10.84,1.62-21.77,1.25-32.67c-0.33-9.84-1.08-19.81-3.2-29.45
				c-1.83-8.33-4.85-16.62-10.21-23.35c-1.35-1.69-2.83-3.26-4.44-4.7c-0.62-0.55-4.22,2.65-4.26,2.62
				c13.13,11.81,15.98,30.65,17.29,47.34c1.64,20.88,0.4,42.02-3.75,62.55c-1.75,8.65-4.27,17.68-10.37,24.34
				c-2.93,3.2-6.48,5.33-10.4,7.1c-4.38,1.98-8.94,3.63-13.49,5.18c-18.45,6.27-37.82,9.84-57.28,10.73
				c-19.67,0.9-39.46-0.96-58.6-5.62c-2.32-0.57-4.64-1.18-6.94-1.82c-0.59-0.17-1.8,0.79-2.27,1.08c-0.5,0.31-1.01,0.63-1.46,1
				C266.46,471.35,265.93,471.84,266,471.86L266,471.86z"/>
		</g>
	</g>
	<g>
		<g>
			<path class="st2" d="M240.98,267.99c10.38-6.73,22.59-10.41,34.92-11.08c12.38-0.67,24.93,1.7,36.16,6.94
				c6.2,2.89,11.92,6.76,16.94,11.41c0.57,0.53,1.9,1.19,2.38,0.23c0.49-0.98-0.72-2.35-1.33-2.92
				c-9.59-8.89-21.55-14.9-34.26-17.85c-12.52-2.91-25.84-2.74-38.24,0.64c-7.03,1.92-13.76,4.91-19.88,8.88
				C236.23,265.17,239.36,269.04,240.98,267.99L240.98,267.99z"/>
		</g>
	</g>
	<g>
		<g>
			<path class="st2" d="M380.77,307.02c13.8,5.71,28.72,12.35,36.06,26.22c1.87,3.54,3.07,7.37,3.43,11.36
				c0.03,0.37,4.94-0.35,4.86-1.16c-1.37-15.31-14.28-25.79-27.11-32.17c-4.12-2.05-8.36-3.83-12.6-5.58
				c-0.81-0.33-2.27,0.21-3.06,0.44C382.14,306.19,380.35,306.85,380.77,307.02L380.77,307.02z"/>
		</g>
	</g>
	<g>
		<g>
			<path class="st3" d="M251.36,487.39c0.69-16.24,1.2-32.6-0.92-48.77c-1.04-7.94-2.77-15.79-5.4-23.36
				c-2.59-7.47-6.28-14.42-10-21.37c-3.53-6.59-7.15-13.29-9.17-20.53c-2-7.21-2.07-14.73,0.72-21.75
				c2.79-7.04,7.84-13.16,13.24-18.38c5.34-5.16,11.49-9.54,18.24-12.67c13.49-6.25,29.73-7.09,43.19-0.25
				c1.62,0.82,3.18,1.75,4.68,2.79c0.72,0.5,1.06,0.28,0.74-0.57c-0.37-1-1.26-2.2-2.14-2.81c-12.42-8.65-28.43-10.31-42.72-5.78
				c-7.15,2.27-13.79,5.98-19.66,10.62c-5.92,4.68-11.33,10.35-15.35,16.76c-4.05,6.45-6.16,13.7-5.48,21.34
				c0.66,7.5,3.54,14.56,6.81,21.27c3.4,6.98,7.42,13.64,10.67,20.7c3.41,7.43,5.75,15.29,7.28,23.31
				c3.11,16.31,2.95,33.04,2.34,49.57c-0.08,2.08-0.16,4.16-0.25,6.24c-0.04,0.97,0.9,2.05,1.5,2.73
				C249.79,486.64,251.33,488.13,251.36,487.39L251.36,487.39z"/>
		</g>
	</g>
	<g>
		<g>
			<path class="st3" d="M246.5,487.89c-2.85-17.92-7.01-35.63-12.46-52.94c-5.45-17.31-12.3-34.05-20.03-50.46
				c-7.13-15.11-14.48-31.49-11.43-48.61c1.39-7.83,5.12-14.73,10.97-20.13c6.08-5.61,13.4-10.03,20.44-14.32
				c12.64-7.7,29.62-15.03,43.94-7.1c1.55,0.86,2.98,1.87,4.31,3.05c0.89,0.79,2.36,1.12,3.48,0.64c0.99-0.42,1.26-1.51,0.42-2.25
				c-6.05-5.38-14.02-7.86-22.02-8.06c-8.54-0.22-16.85,2.28-24.47,6c-7.86,3.84-15.34,8.7-22.51,13.7
				c-6.83,4.76-13.16,10.45-16.6,18.19c-7.19,16.17-2.43,34.05,4.25,49.49c3.69,8.53,7.91,16.83,11.58,25.38
				c3.68,8.55,7.01,17.25,10.02,26.05c6.06,17.76,10.77,35.98,14.06,54.46c0.41,2.29,0.79,4.58,1.16,6.88
				C241.93,489.9,246.88,490.27,246.5,487.89L246.5,487.89z"/>
		</g>
	</g>
	<g>
		<g>
			<path class="st3" d="M244.48,492.62c-0.07-27.5-0.13-55.19,4.63-82.37c4.08-23.26,11.83-46.3,25.37-65.83
				c3.65-5.27,7.66-10.73,12.51-14.97c3.34-2.92,10.15-6.42,13.64-1.75c0.71,0.96,1.98,1.46,3.17,1.39
				c0.75-0.04,2.09-0.65,1.37-1.62c-3.44-4.61-10.08-6.05-15.42-4.31c-5.77,1.88-9.9,6.68-13.63,11.22
				c-7.84,9.51-14.15,20.24-19.12,31.51c-10.75,24.39-14.99,50.99-16.5,77.43c-0.93,16.23-0.9,32.49-0.85,48.75
				C239.63,493.83,244.48,494.81,244.48,492.62L244.48,492.62z"/>
		</g>
	</g>
	<g>
		<g>
			<path class="st3" d="M249.19,479.7c-1.94-17.64-1.43-35.52,1.53-53.01c1.49-8.85,3.61-17.59,6.34-26.13
				c2.5-7.83,5.45-15.59,9.64-22.69c4.02-6.83,9.25-13.11,15.99-17.4c6.35-4.04,13.48-5.5,20.91-4.16
				c7.75,1.4,14.86,5.01,22.52,6.73c7.67,1.72,15.34,0.63,22.19-3.28c6.03-3.43,10.59-9.11,13.07-15.54
				c3.06-7.92,3.04-16.69,1.84-24.98c-0.31-2.14-0.7-4.26-1.14-6.37c-0.1-0.46-4.87,0.85-4.69,1.73c1.78,8.52,2.77,17.44,0.88,26.03
				c-1.55,7.05-5.33,13.79-11.14,18.18c-2.55,1.92-5.16,2.94-8.35,3.12c-3.86,0.22-7.68-0.56-11.37-1.62
				c-7.51-2.17-14.74-5.69-22.62-6.36c-7.89-0.67-15.87,1.68-22.77,5.41c-6.93,3.75-12.69,9.17-17.19,15.62
				c-4.66,6.68-7.97,14.21-10.67,21.86c-2.89,8.2-5.21,16.62-6.94,25.14c-3.55,17.38-4.69,35.25-3.34,52.93
				c0.17,2.17,0.37,4.34,0.61,6.51C244.54,481.75,249.31,480.72,249.19,479.7L249.19,479.7z"/>
		</g>
	</g>
	<g>
		<g>
			<path class="st3" d="M251.21,505.45c-1.8-19.09,1.83-38.6,10.47-55.72c3.9-7.74,8.88-15.39,15.99-20.54
				c7.58-5.49,16.85-6.92,26.01-6.9c10.22,0.03,20.48,1.02,30.67,1.64c5.37,0.33,10.73,0.65,16.1,0.98
				c5.08,0.31,10.16,0.69,15.25,0.68c8.99-0.01,17.98-1.45,25.62-6.44c6.52-4.25,11.76-10.43,14.82-17.6
				c6.37-14.89,1.78-32.66-10.15-43.39c-1.48-1.33-3.08-2.54-4.74-3.63c-0.95-0.62-2.16-1.13-3.3-1.28
				c-0.82-0.1-1.08,0.19-0.28,0.72c13.44,8.83,19.89,26.68,15.17,42.04c-2.28,7.44-6.91,14.13-12.98,19
				c-6.97,5.59-15.48,8.01-24.31,8.42c-4.92,0.23-9.84-0.05-14.75-0.35c-5.27-0.32-10.54-0.64-15.81-0.96
				c-10.25-0.62-20.51-1.43-30.77-1.82c-9.09-0.34-18.67,0.05-26.89,4.36c-7.6,3.98-13.22,10.83-17.51,18.11
				c-9.49,16.13-14.18,35.13-13.7,53.81c0.06,2.36,0.21,4.71,0.43,7.06c0.07,0.71,1.58,1.2,2.14,1.41
				C248.84,505.12,251.25,505.86,251.21,505.45L251.21,505.45z"/>
		</g>
	</g>
	<g>
		<g>
			<path class="st3" d="M259.84,483.87c9.44-12.53,26.46-15.32,41.01-17.41c20.76-2.98,41.54-5.78,62.3-8.67
				c9.46-1.32,19-2.38,28.4-4.1c7.93-1.46,15.86-3.68,22.74-8.02c7.13-4.5,12.09-11.31,14.11-19.5c1.9-7.7,2.05-16.25,0.5-24.03
				c-1.29-6.49-3.95-13.44-9.67-17.28c-7.53-5.06-16.78-1.94-23.84,2.39c-2.07,1.27-4.05,2.65-6.01,4.08
				c-0.56,0.41-1.67,1.45-0.85,2.12c0.78,0.63,2.49-0.26,3.11-0.71c6.3-4.58,14.3-10.02,22.22-5.9c5.87,3.06,8.79,9.7,10.23,15.84
				c1.73,7.38,1.7,15.6,0.24,23.01c-1.52,7.68-5.57,14.44-12.32,18.57c-6.28,3.83-13.69,5.48-20.86,6.71
				c-9.28,1.59-18.65,2.69-27.98,3.98c-20.23,2.82-40.48,5.57-60.7,8.45c-15,2.14-31.48,5.27-42.74,16.29
				c-1.38,1.35-2.65,2.81-3.81,4.35c-0.61,0.82-0.17,1.5,0.8,1.5C257.85,485.53,259.17,484.77,259.84,483.87L259.84,483.87z"/>
		</g>
	</g>
	<g>
		<g>
			<path class="st3" d="M251.48,495.38c28.04-2.1,56.07-4.2,84.11-6.3c6.64-0.5,13.29-0.89,19.92-1.54
				c6.12-0.6,12.21-1.57,17.99-3.72c10.43-3.89,18.27-12.36,22.46-22.56c5.49-13.37,4.46-28.26,1.04-42.01
				c-0.48-1.92-5.44-1.95-4.88,0.3c3.01,12.11,4.17,25.11,0.32,37.18c-3.17,9.91-9.88,18.94-19.45,23.39
				c-5.25,2.44-11.02,3.51-16.74,4.14c-6.37,0.71-12.78,1.06-19.16,1.54c-13.6,1.02-27.21,2.04-40.81,3.05
				c-15.26,1.14-30.53,2.28-45.79,3.43c-0.9,0.07-2.23,0.57-1.94,1.7C248.82,495.07,250.56,495.45,251.48,495.38L251.48,495.38z"/>
		</g>
	</g>
	<g>
		<g>
			<path class="st3" d="M289.41,482.84c15.76-5.46,30.17-14.21,42.47-25.45c12.23-11.18,22.26-24.8,29.27-39.82
				c3.95-8.46,6.85-17.34,8.73-26.48c0.49-2.4-3.96-4.22-4.56-1.33c-3.22,15.64-9.88,30.58-19.03,43.64
				c-9.25,13.19-21.02,24.61-34.6,33.29c-7.6,4.86-15.75,8.88-24.28,11.84C284.63,479.5,287.08,483.65,289.41,482.84L289.41,482.84z
				"/>
		</g>
	</g>
	<g>
		<g>
			<path class="st3" d="M286.45,459.16c1.03-9.05,9.53-14.56,17.04-18.21c10.33-5.01,21.26-8.79,31.81-13.32
				c19.6-8.42,39.36-19.4,51.44-37.62c3.13-4.72,5.7-9.79,7.39-15.2c1.58-5.06,2.54-11.53-1.78-15.58c-0.95-0.89-2.44-1.01-3.5-0.21
				c-0.93,0.7-1.33,2.23-0.38,3.12c3.28,3.08,1.98,8.37,0.74,12.12c-1.53,4.62-3.68,9.05-6.36,13.11
				c-5.41,8.21-12.6,15.06-20.58,20.76c-9.08,6.48-19.18,11.34-29.41,15.72c-10.41,4.46-21.19,8.19-31.38,13.14
				c-8.98,4.36-18.75,11.06-19.98,21.82C281.16,461.76,286.13,461.96,286.45,459.16L286.45,459.16z"/>
		</g>
	</g>
	<g>
		<g>
			<path class="st3" d="M275.22,484.31c-13.31-15.19-24.61-32.15-33.47-50.3c-4.31-8.83-8.14-18.53-7.73-28.53
				c0.2-4.82,1.52-9.44,3.97-13.6c2.32-3.94,5.5-7.3,8.91-10.32c8.55-7.58,18.37-13.95,28.24-19.65c0.9-0.52,0.86-1.4-0.03-1.9
				c-0.98-0.55-2.57-0.51-3.54,0.05c-9.25,5.34-18.26,11.31-26.53,18.09c-7.34,6.02-13.77,13.34-15.54,22.95
				c-1.85,10.04,1.41,20.38,5.45,29.48c4.19,9.43,9.33,18.5,14.89,27.18c6.3,9.84,13.36,19.18,21.06,27.97
				C272.03,487,276.82,486.14,275.22,484.31L275.22,484.31z"/>
		</g>
	</g>
	<g>
		<g>
			<path class="st3" d="M248.68,458.74c-4.4-5.74-9.8-10.65-13.91-16.62c-3.24-4.69-5.72-10.03-7.33-15.49
				c-3.35-11.39-3.36-23.64-0.02-35.03c1.85-6.31,4.86-12.36,8.82-17.6c1.85-2.45-2.27-5.02-3.95-2.81
				c-7.59,10.03-11.8,22.34-12.3,34.9c-0.49,12.5,2.44,25.24,9.08,35.91c4.41,7.09,10.6,12.67,15.65,19.26
				C246.45,463.5,250.62,461.27,248.68,458.74L248.68,458.74z"/>
		</g>
	</g>
	<g>
		<g>
			<path class="st3" d="M225.16,455.29c-0.3,0.42-0.03,0.16-0.25,0.15c-0.3-0.01-0.74-0.2-1.07-0.37c-1.17-0.6-2.27-1.58-3.29-2.41
				c-2.44-1.99-4.73-4.17-6.91-6.45c-4.27-4.46-8.14-9.3-11.97-14.14c-7.09-8.98-14.19-19.26-13.96-31.2
				c0.11-5.8,1.98-11.42,6.06-15.63c0.9-0.92,0.08-2.44-0.81-3c-1.12-0.7-2.48-0.57-3.38,0.36c-8.92,9.2-7.97,23.51-3.02,34.39
				c2.87,6.3,7.01,11.89,11.27,17.3c4.27,5.42,8.6,10.85,13.47,15.74c2.73,2.75,5.65,5.33,8.79,7.6c2.54,1.84,7.02,3.44,9.26,0.27
				C231.01,455.57,226.7,453.11,225.16,455.29L225.16,455.29z"/>
		</g>
	</g>
	<g>
		<g>
			<path class="st3" d="M235.7,488.44c4.09-8.4,8.46-17.05,15.01-23.83c2.86-2.96,6.16-5.54,10.03-7.05
				c5.23-2.03,11.02-1.99,16.49-1.11c5.96,0.96,11.71,2.98,17.35,5.1c5.83,2.19,11.64,4.45,17.46,6.68
				c2.94,1.12,5.87,2.25,8.81,3.37c2.64,1.01,5.3,2.18,8.14,2.48c2.88,0.31,5.77-0.63,8.11-2.3c2.24-1.61,3.56-3.89,4.74-6.32
				c5.65-11.63,8.59-24.44,8.51-37.38c-0.01-1.18-4.51,0.52-4.5,1.79c0.06,11.52-2.23,23.01-6.78,33.6
				c-1.04,2.42-2.08,5.13-3.77,7.18c-0.72,0.88-0.96,0.85-2.22,0.79c-1.38-0.07-2.72-0.43-4.02-0.87
				c-5.92-1.98-11.72-4.45-17.55-6.68c-5.73-2.19-11.43-4.48-17.22-6.5c-5.49-1.92-11.16-3.55-16.98-4.05
				c-10.64-0.92-20.7,2.91-28.5,10.09c-7.78,7.17-12.76,16.84-17.34,26.23c-0.45,0.93,0.74,0.76,1.31,0.6
				C233.67,490,235.26,489.36,235.7,488.44L235.7,488.44z"/>
		</g>
	</g>
	<g>
		<g>
			<path class="st3" d="M256.42,489c19.07,0.48,37.43,8.13,56.66,6.03c8.57-0.94,16.9-3.88,23.53-9.5
				c6.28-5.32,10.94-12.29,14.17-19.82c4.28-9.96,6.12-20.76,7.82-31.4c0.44-2.75-4.44-3.66-4.91-0.73
				c-2.66,16.72-6.07,34.74-18.81,46.98c-12.69,12.19-31.09,11.37-47.21,8.59c-10.7-1.85-21.29-4.31-32.19-4.59
				c-1.24-0.03-2.19,1.28-1.95,2.43C253.83,488.38,255.16,488.97,256.42,489L256.42,489z"/>
		</g>
	</g>
	<g>
		<g>
			<path class="st3" d="M262.67,468.37c16.07,0.5,32.57,0.61,47.95-4.74c6.56-2.28,12.89-5.54,18.29-9.93
				c5.63-4.57,10.1-10.24,13.44-16.67c3.83-7.37,6.26-15.38,8.43-23.37c0.8-2.95-4.09-3.19-4.81-0.54c-3.57,13.13-8,26.64-18.42,36
				c-10.07,9.04-23.71,13-36.9,14.38c-8.94,0.93-17.94,0.78-26.91,0.5c-1.26-0.04-2.62,0.59-2.94,1.92
				C260.52,467.08,261.44,468.33,262.67,468.37L262.67,468.37z"/>
		</g>
	</g>
	<g>
		<g>
			<path class="st3" d="M271.23,460.43c17.85,9.1,38,15.48,58.23,12.8c9.09-1.2,18.03-4.18,25.8-9.11
				c7.82-4.96,14.05-11.93,18.62-19.95c5.22-9.16,8.45-19.27,11.35-29.35c0.87-3.03-3.8-3.02-4.53-0.5
				c-4.74,16.48-10.63,34.27-25.18,44.72c-14.57,10.46-33.37,12.24-50.56,8.78c-10.9-2.2-21.32-6.43-31.2-11.46
				C271.46,455.2,268.56,459.07,271.23,460.43L271.23,460.43z"/>
		</g>
	</g>
	<g>
		<g>
			<path class="st3" d="M276,470.01c-2.85-16.02-5.11-32.18-6.59-48.39c-0.71-7.72-0.8-15.42,2.12-22.74
				c2.71-6.81,6.92-13.1,11.19-19.01c2.43-3.36,4.91-6.9,7.85-9.83c1.82-1.82,5.24-4.7,7.84-2.82c0.9,0.66,2.45,0.48,2.93-0.6
				c0.55-1.24-0.38-2.42-1.32-3.1c-6.67-4.85-13.48,3.25-17.19,7.94c-5,6.34-9.73,13.11-13.44,20.3c-1.77,3.44-3.19,7.04-4.04,10.82
				c-0.92,4.11-1.03,8.33-0.87,12.53c0.32,8.51,1.49,17.04,2.57,25.48c1.24,9.72,2.73,19.41,4.45,29.07
				c0.22,1.23,1.33,2.31,2.59,2.4C275.27,472.15,276.21,471.2,276,470.01L276,470.01z"/>
		</g>
	</g>
	<g>
		<g>
			<path class="st3" d="M279.49,431.24c22.54,0.45,45.88,4.31,67.71-3.27c8.99-3.12,17.5-8.12,23.71-15.42
				c6.82-8.02,10.53-18.14,12.26-28.43c2.19-13.02,1.3-26.47-2.43-39.13c-0.32-1.07-1.41-2.28-2.6-2.3
				c-1.2-0.02-1.51,1.15-1.22,2.13c3.17,10.76,4.14,22.13,2.78,33.27c-1.24,10.16-4.27,20.36-10.43,28.67
				c-11.75,15.86-32.73,20.88-51.45,21.39c-13.26,0.36-26.47-1.07-39.72-1.33C275.4,426.76,277.4,431.2,279.49,431.24L279.49,431.24
				z"/>
		</g>
	</g>
	<g>
		<g>
			<path class="st3" d="M258.48,465.29c2.34-9.9,5.66-19.89,11.73-28.18c5.79-7.91,13.97-13.33,22.55-17.83
				c9.12-4.79,18.62-8.79,27.57-13.92c9.12-5.23,17.84-11.55,24.47-19.79c6.91-8.59,11.58-19.37,10.98-30.54
				c-0.08-1.43-4.49,0.59-4.41,2.01c0.53,9.96-3.15,19.6-9.06,27.52c-6.13,8.22-14.53,14.31-23.37,19.34
				c-17.42,9.91-38.24,15.94-51.21,32.16c-7.21,9.02-11.05,20.14-13.67,31.25c-0.23,0.98,1.83,0.28,2.12,0.15
				C257.08,467.04,258.23,466.32,258.48,465.29L258.48,465.29z"/>
		</g>
	</g>
	<g>
		<g>
			<path class="st3" d="M270.56,465.83c-1.89-25.28,1.43-52.15,15.55-73.78c1.9-2.91,3.91-5.77,6.5-8.11c2.21-2,5.14-3.76,8.22-2.98
				c1.21,0.31,2.65-0.13,3.31-1.25c0.58-0.98,0.19-2.31-0.99-2.61c-7.19-1.82-13.48,3.1-17.67,8.44
				c-4.23,5.39-7.67,11.44-10.45,17.7c-5.63,12.66-8.52,26.33-9.47,40.12c-0.53,7.72-0.44,15.48,0.13,23.2
				C265.89,469.32,270.75,468.35,270.56,465.83L270.56,465.83z"/>
		</g>
	</g>
	<g>
		<g>
			<path class="st3" d="M232.03,433.09c-5.72-12.32-10.54-25.04-14.36-38.07c-1.9-6.46-3.6-13-4.96-19.59
				c-1.38-6.68-2.35-13.53-1.9-20.36c0.43-6.43,2.23-12.5,5.28-18.16c2.88-5.33,6.59-10.14,10.58-14.68
				c8.49-9.67,17.91-18.58,27.9-26.7c5.54-4.5,11.26-8.96,17.33-12.73c2.42-1.5,5.38-3.12,8.32-2.72c2.25,0.31,4.36,1.7,4.82,4.05
				c0.49,2.48,5.46,2.39,4.92-0.33c-1.19-6.09-8.19-8.51-13.67-7.47c-3.24,0.62-6.18,2.28-8.9,4.09c-2.84,1.9-5.62,3.9-8.36,5.94
				c-11.09,8.25-21.49,17.41-31.01,27.44c-8.86,9.34-17.66,19.66-20.89,32.42c-3.57,14.09,0.18,29.11,3.85,42.79
				c4.17,15.57,9.7,30.78,16.49,45.41C228.52,436.71,233.28,435.79,232.03,433.09L232.03,433.09z"/>
		</g>
	</g>
	<g>
		<g>
			<path class="st3" d="M258.74,424.49c21.03-8.54,42.06-17.07,63.09-25.61c10.39-4.22,20.81-8.39,31.18-12.66
				c8.53-3.51,17.15-7.55,22.95-15.01c6.38-8.21,8.43-18.8,10.32-28.77c0.32-1.71-4.32-3.37-4.58-2c-1.67,8.8-3.43,17.94-8.18,25.68
				c-4.96,8.09-13.19,12.73-21.7,16.35c-10.01,4.26-20.16,8.22-30.24,12.31c-10.4,4.22-20.8,8.44-31.2,12.66
				c-11.71,4.75-23.42,9.51-35.13,14.26C253.26,422.51,257.37,425.05,258.74,424.49L258.74,424.49z"/>
		</g>
	</g>
	<g>
		<g>
			<path class="st3" d="M265.11,461.18c7.31,6.31,17.09,8,26.41,8.93c11.23,1.12,22.49,2.08,33.73,3.12
				c11.53,1.06,23.06,2.13,34.6,3.19c10.44,0.96,21.03,2.02,31.43,0.14c9.06-1.63,17.19-5.93,23.75-12.36
				c6.15-6.04,10.73-13.56,14.28-21.37c4.03-8.87,6.8-18.32,8.91-27.81c2.37-10.7,3.77-21.63,4.15-32.59
				c0.34-9.61,0.12-19.41-1.81-28.86c-1.71-8.38-4.81-16.73-10.57-23.2c-1.42-1.6-2.96-3.08-4.64-4.41
				c-0.89-0.7-2.38-1.19-3.43-0.54c-0.99,0.61-0.71,1.83,0.1,2.47c13.64,10.82,15.5,30.32,15.61,46.47
				c0.14,20.42-3.14,41.26-10.37,60.4c-5.71,15.11-15.31,30.8-31.3,36.49c-9.34,3.32-19.46,3.07-29.2,2.28
				c-10.92-0.88-21.82-1.99-32.73-2.99c-11.12-1.03-22.23-2.05-33.35-3.08c-4.97-0.46-9.96-0.81-14.9-1.53
				c-4.15-0.6-8.37-1.48-12.16-3.33c-1.86-0.91-3.58-2.02-5.15-3.37c-0.85-0.74-2.41-1.17-3.43-0.54
				C263.99,459.34,264.33,460.51,265.11,461.18L265.11,461.18z"/>
		</g>
	</g>
	<g>
		<g>
			<path class="st3" d="M235.88,446.33c9.6-27.86,22.64-54.64,38.77-79.3c13.68-20.91,31.91-42.06,57.94-46.2
				c12.55-2,26.23,0.44,35.99,8.98c0.92,0.81,2.36,1.14,3.49,0.55c0.97-0.5,1.29-1.75,0.4-2.53c-9.55-8.37-22.27-11.84-34.82-11.25
				c-13.03,0.62-25.22,5.45-35.76,13.02c-11.16,8.02-20.14,18.71-27.95,29.92c-8.49,12.19-15.99,25.12-22.75,38.33
				c-7,13.68-13.13,27.8-18.34,42.25c-0.65,1.81-1.29,3.62-1.92,5.44c-0.4,1.15,1.32,2.04,2.19,2.18
				C234.32,447.91,235.48,447.5,235.88,446.33L235.88,446.33z"/>
		</g>
	</g>
	<g>
		<g>
			<path class="st3" d="M273.09,458.13c10.94-21.62,29.02-38.2,45.26-55.75c8.12-8.78,15.92-17.94,22.22-28.14
				c6.8-11.02,11.79-23.12,14.89-35.69c3.49-14.18,4.5-28.93,2.9-43.44c-0.11-0.97-1.23-1.88-1.95-2.43
				c-0.17-0.13-1.97-1.3-1.88-0.52c2.85,25.84-2.62,52.43-15.47,75.04c-11.96,21.03-30.19,37.27-46.24,55.05
				c-8.98,9.94-17.35,20.53-23.43,32.53C268.79,455.95,272.78,458.75,273.09,458.13L273.09,458.13z"/>
		</g>
	</g>
	<g>
		<g>
			<path class="st3" d="M262.13,465.31c5.75-21.01,14.35-41.1,24.59-60.3c4.98-9.34,10.22-18.61,16.03-27.45
				c5.42-8.25,11.84-15.75,20.82-20.19c5.2-2.57,10.79-4.21,16.34-5.85c6.47-1.91,12.93-3.82,19.4-5.74
				c3.11-0.92,1.2-5.11-1.64-4.27c-5.83,1.73-11.67,3.45-17.5,5.18c-5.25,1.55-10.51,3.08-15.58,5.16c-4.88,2-9.42,4.65-13.42,8.1
				c-3.88,3.35-7.18,7.33-10.17,11.48c-6.21,8.64-11.46,18.07-16.57,27.39c-5.35,9.77-10.3,19.76-14.69,29.99
				c-4.94,11.51-9.18,23.33-12.49,35.42C256.49,467,261.37,468.1,262.13,465.31L262.13,465.31z"/>
		</g>
	</g>
	<g>
		<g>
			<path class="st3" d="M276.93,459.73c10.96-8.93,24.28-14.09,37.33-19.15c12.64-4.9,25.26-9.94,36.26-18.03
				c9.96-7.32,18.46-16.57,25.12-26.97c6.62-10.33,11.48-21.81,14.26-33.75c2.79-12.03,3.45-24.57,1.64-36.8
				c-0.23-1.54-0.5-3.07-0.8-4.6c-0.24-1.18-5.15-0.68-5,0.1c2.4,12.08,2.37,24.56,0.15,36.66c-2.24,12.17-6.64,23.93-12.91,34.6
				c-6.23,10.6-14.3,20.14-23.88,27.86c-10.49,8.46-22.69,13.87-35.15,18.74c-12.94,5.06-26.2,9.81-37.65,17.87
				c-1.44,1.01-2.84,2.08-4.2,3.19c-0.64,0.52,1.62,0.82,1.76,0.83C274.8,460.34,276.15,460.37,276.93,459.73L276.93,459.73z"/>
		</g>
	</g>
	<g>
		<g>
			<path class="st3" d="M277.56,454.81c9.06-10.14,18.72-19.75,28.91-28.75c10.07-8.89,20.69-17.05,31.62-24.84
				c20.17-14.36,41.84-29.24,51.86-52.85c5.18-12.2,6.85-26.07,2.11-38.68c-0.28-0.74-1.74-0.86-2.4-0.94
				c-0.17-0.02-2.73-0.15-2.56,0.31c4.2,11.17,3.39,23.43-0.52,34.57c-4.07,11.6-11.21,21.68-19.88,30.31
				c-9.05,9-19.46,16.47-29.84,23.85c-10.82,7.69-21.47,15.56-31.55,24.22c-11.52,9.89-22.38,20.55-32.5,31.87
				c-0.51,0.57,1.36,0.93,1.63,0.99C275.07,454.98,277.02,455.41,277.56,454.81L277.56,454.81z"/>
		</g>
	</g>
	<g>
		<g>
			<path class="st3" d="M247.36,496.84c4.8-30.85,9.61-61.77,17.19-92.09c6.64-26.57,15.99-53.39,35.03-73.76
				c5.18-5.54,10.93-10.53,17.15-14.87c1.51-1.05,3.05-2.07,4.61-3.05c1.67-1.05,3.41-2.16,5.35-2.65c0.87-0.22,1.83-0.3,2.72-0.1
				c1.66,0.37-0.56,0.51-1.08-1.25c0.09,0.3,0.34,0.58,0.45,0.89c0.42,1.25,0.19,2.52-0.94,3.28c-0.17,0.11,2.97,3.81,3.8,3.25
				c2.15-1.45,0.92-4.24-0.42-5.79c-2.3-2.65-5.17-4.5-8.73-3.42c-3.31,1-6.39,3.39-9.2,5.34c-2.91,2.02-5.72,4.18-8.42,6.47
				c-10.93,9.27-19.76,20.65-26.49,33.28c-6.81,12.78-11.54,26.56-15.36,40.5c-4.21,15.33-7.5,30.91-10.43,46.52
				c-3.38,18-6.19,36.1-9.01,54.19c-0.1,0.65,1.21,1.58,1.63,1.94C245.32,495.65,247.32,497.07,247.36,496.84L247.36,496.84z"/>
		</g>
	</g>
	<g>
		<g>
			<path class="st3" d="M253,386.23c-1.53-10.89-2.77-21.81-3.71-32.77c-0.45-5.25-0.81-10.58,0.08-15.8
				c0.75-4.4,2.51-8.58,4.77-12.41c4.6-7.79,11.33-14.28,17.96-20.34c6.77-6.17,14.02-11.91,22.1-16.28
				c4.4-2.38,9.01-4.31,13.83-5.64c3.65-1.01,9.04-2.55,12.03,0.7c1.44,1.57,5.94-0.55,4.32-2.32c-3.08-3.35-8.04-3.48-12.23-2.74
				c-4.92,0.87-9.69,2.49-14.27,4.47c-9.09,3.93-17.31,9.71-24.82,16.1c-7.39,6.29-14.76,13.16-20.46,21.05
				c-2.83,3.91-5.27,8.18-6.77,12.78c-1.65,5.07-2.02,10.31-1.77,15.61c0.31,6.5,1.05,13.01,1.75,19.48
				c0.71,6.55,1.53,13.09,2.44,19.62c0.16,1.17,2.12,1.06,2.89,0.82C252.19,388.23,253.17,387.42,253,386.23L253,386.23z"/>
		</g>
	</g>
	<g>
		<g>
			<path class="st3" d="M267.9,440.21c11.81-4.91,23.83-9.32,36.01-13.22c10.89-3.48,22.18-6.31,32.25-11.87
				c9.45-5.22,16.97-12.94,22.24-22.35c5.41-9.65,8.52-20.33,10.28-31.2c2.29-14.13,2.54-28.48,4-42.71
				c0.12-1.15-0.93-1.64-1.96-1.7c-0.81-0.05-2.81,0.32-2.93,1.44c-2.4,23.39-1.59,47.97-12.06,69.64
				c-4.46,9.24-11.07,17.54-19.84,23c-9.46,5.89-20.38,8.75-30.91,12.04c-13.52,4.23-26.84,9.1-39.92,14.54
				c-0.91,0.38-1.45,1.48-0.64,2.23C265.35,440.89,266.89,440.63,267.9,440.21L267.9,440.21z"/>
		</g>
	</g>
	<g>
		<g>
			<path class="st4" d="M241.38,494.03c2.2-8.65,1.27-17.96-2.24-26.14c-1.8-4.21-4.27-8.05-7.27-11.5c-2.77-3.19-5.93-6-8.93-8.96
				c-3.11-3.06-6.16-6.32-7.89-10.38c-0.33-0.76-1.19-2.35-2.21-2.28c-1.04,0.07-0.59,1.67-0.36,2.21
				c3.32,7.76,9.68,13.14,15.52,18.96c2.81,2.79,5.38,5.74,7.29,9.23c1.92,3.51,3.18,7.42,3.74,11.39
				c0.68,4.78,0.41,9.61-0.79,14.29C237.89,492.26,240.86,496.09,241.38,494.03L241.38,494.03z"/>
		</g>
	</g>
	<g>
		<g>
			<path class="st4" d="M245.6,491.44c-2.81-28.31,9.33-54.96,20.56-80.16c3.23-7.25,6.42-14.51,9.27-21.91
				c0.04-0.1-4.59-1.11-5-0.05c-10.05,26.11-24.69,50.86-29.05,78.85c-1.2,7.68-1.55,15.48-0.78,23.22
				C240.67,492.19,245.65,491.94,245.6,491.44L245.6,491.44z"/>
		</g>
	</g>
	<g>
		<g>
			<path class="st4" d="M247.63,486.42c2.13-3.57,7.04-2.98,10.62-2.98c5.08,0,10.16,0.47,15.2,1.09
				c10.15,1.24,20.23,3.17,30.45,3.84c10.08,0.65,20.42,0.03,30.01-3.34c7.98-2.8,15.19-7.52,20.95-13.71
				c6.39-6.87,10.88-15.44,12.7-24.65c0.07-0.38-4.69-0.49-4.94,0.78c-3.24,16.38-15.29,30.94-31,36.79
				c-8.96,3.33-18.7,3.3-28.09,2.43c-10.14-0.94-20.15-2.89-30.28-3.94c-5.6-0.58-11.25-0.89-16.87-0.62
				c-4.4,0.21-11.01,0.46-13.57,4.75c-0.39,0.65,1.62,0.49,1.84,0.47C245.35,487.26,247.19,487.15,247.63,486.42L247.63,486.42z"/>
		</g>
	</g>
	<g>
		<g>
			<path class="st4" d="M246.68,473.14c-2.15-15.67-10.86-29.12-16.48-43.63c-2.79-7.19-4.92-14.83-4.99-22.59
				c-0.07-7.56,2.07-14.73,6.56-20.84c2.43-3.3,5.31-6.34,8.47-8.95c3.03-2.5,6.5-4.75,10.42-5.49c3.19-0.6,1.58-4.69-1.16-4.17
				c-7.75,1.45-14.01,6.79-19.12,12.54c-5.33,5.99-8.86,13.12-9.8,21.13c-1.94,16.54,6.07,32,12.77,46.53
				c3.82,8.29,7.33,16.81,8.58,25.92C242.27,476.15,247.09,476.12,246.68,473.14L246.68,473.14z"/>
		</g>
	</g>
	<g>
		<g>
			<path class="st4" d="M241.55,484.65c11.08-15.02,30.66-19.1,47.99-21.95c10.3-1.69,20.69-3.23,30.58-6.7
				c8.79-3.09,16.83-7.91,23.09-14.88c6.62-7.38,10.65-16.95,9.48-26.95c-0.33-2.82-5.25-2.2-4.9,0.77
				c0.97,8.26-2.48,16.21-7.7,22.45c-5.73,6.85-13.39,11.44-21.73,14.42c-18.44,6.59-38.6,6.08-56.95,13.13
				c-9.28,3.56-18,9.02-23.97,17.11C235.59,484.54,239.86,486.94,241.55,484.65L241.55,484.65z"/>
		</g>
	</g>
	<g>
		<g>
			<path class="st4" d="M262.76,449.38c7.83-9.01,16.6-17.17,26.15-24.34c4.63-3.48,9.44-6.7,14.41-9.67
				c5.06-3.02,10.39-5.84,14.64-10c4.39-4.3,7.62-10.05,7.03-16.36c-0.16-1.7-5.07-0.82-4.89,1.05
				c1.14,12.13-11.35,18.62-20.08,23.87c-10.02,6.02-19.44,13.04-28.04,20.95c-4.83,4.45-9.41,9.17-13.71,14.13
				c-0.77,0.88,0.54,1.49,1.25,1.55C260.66,450.66,261.99,450.27,262.76,449.38L262.76,449.38z"/>
		</g>
	</g>
	<g>
		<g>
			<path class="st4" d="M242.79,483.05c18.76-5.69,37.73-10.68,56.87-14.91c9-1.99,18.17-3.49,27.02-6.13
				c8.11-2.42,16.1-6.07,22.13-12.16c6.11-6.18,10.26-14.63,9.12-23.48c-0.3-2.36-5.26-1.71-4.96,0.67
				c0.94,7.32-2.18,14.46-7.07,19.8c-5.46,5.95-12.75,9.42-20.37,11.75c-8.38,2.56-17.08,3.98-25.63,5.85
				c-9.34,2.05-18.65,4.27-27.91,6.66c-10.38,2.68-20.71,5.59-30.97,8.7c-0.99,0.3-1.97,1.34-1.44,2.41
				C240.12,483.34,241.79,483.35,242.79,483.05L242.79,483.05z"/>
		</g>
	</g>
	<g>
		<g>
			<path class="st4" d="M247.99,469.17c10.31-14.07,25.25-23.68,39.73-32.94c14.23-9.09,28.73-18.36,39.74-31.38
				c6.01-7.1,10.75-15.17,13.28-24.16c0.31-1.1-1.54-1.2-2.17-1.11c-1.04,0.15-2.35,0.72-2.66,1.83
				c-4.48,15.98-16.34,28.44-29.2,38.31c-13.6,10.45-28.88,18.47-42.52,28.87c-7.78,5.93-14.94,12.61-20.74,20.52
				c-0.7,0.95,0.68,1.52,1.41,1.54C246.06,470.68,247.28,470.14,247.99,469.17L247.99,469.17z"/>
		</g>
	</g>
</g>
</svg>
