<?xml version="1.0" encoding="utf-8"?>
<!-- Generator: Adobe Illustrator 16.0.0, SVG Export Plug-In . SVG Version: 6.00 Build 0)  -->
<!DOCTYPE svg PUBLIC "-//W3C//DTD SVG 1.1//EN" "http://www.w3.org/Graphics/SVG/1.1/DTD/svg11.dtd">
<svg version="1.1" id="Layer_1" xmlns="http://www.w3.org/2000/svg" xmlns:xlink="http://www.w3.org/1999/xlink" x="0px" y="0px"
	 width="1000px" height="1000px" viewBox="0 0 1000 1000" style="enable-background:new 0 0 1000 1000;" xml:space="preserve">
<g>
	<g>
		<path style="fill:none;stroke:#173753;stroke-width:2.8346;stroke-miterlimit:10;" d="M184.175,834.27
			c-4.752-1.386-9.603-6.453-10.778-11.262l-47.04-192.331c-1.177-4.81,0.788-11.545,4.364-14.967l143.043-136.903
			c3.576-3.423,10.389-5.091,15.142-3.704l190.083,55.427c4.752,1.385,9.602,6.453,10.778,11.262l47.041,192.33
			c1.177,4.809-0.787,11.544-4.363,14.968L389.401,885.992c-3.576,3.425-10.39,5.09-15.142,3.705L184.175,834.27z"/>
	</g>
	<path style="fill:none;stroke:#173753;stroke-width:2.8347;stroke-miterlimit:10;" d="M435.265,712.632
		c-2.088,7.158-4.849,13.936-8.198,20.281c-3.35,6.348-7.286,12.264-11.716,17.701c-4.432,5.438-9.36,10.396-14.694,14.823
		c-5.336,4.431-11.078,8.33-17.136,11.653c-6.06,3.324-12.435,6.069-19.036,8.188c-6.604,2.119-13.433,3.608-20.401,4.423
		c-6.967,0.813-14.072,0.953-21.223,0.366c-7.151-0.586-14.352-1.898-21.511-3.987c-7.157-2.086-13.933-4.849-20.281-8.199
		c-6.345-3.349-12.263-7.284-17.699-11.716c-5.437-4.432-10.396-9.358-14.825-14.694c-4.43-5.335-8.33-11.075-11.653-17.136
		c-3.322-6.06-6.07-12.434-8.186-19.036c-2.118-6.602-3.609-13.431-4.424-20.399c-0.814-6.968-0.954-14.07-0.366-21.225
		c0.586-7.149,1.899-14.351,3.987-21.509c2.087-7.157,4.85-13.934,8.2-20.282c3.348-6.345,7.285-12.262,11.717-17.7
		c4.431-5.436,9.36-10.396,14.694-14.822c5.334-4.432,11.077-8.332,17.135-11.654c6.06-3.323,12.434-6.069,19.037-8.188
		c6.604-2.118,13.433-3.608,20.4-4.423c6.966-0.813,14.072-0.953,21.223-0.367c7.153,0.589,14.353,1.9,21.51,3.987
		c7.159,2.088,13.935,4.85,20.282,8.199c6.347,3.349,12.262,7.285,17.701,11.717c5.438,4.431,10.396,9.359,14.825,14.694
		s8.331,11.077,11.653,17.136c3.322,6.059,6.067,12.434,8.187,19.037c2.118,6.6,3.609,13.433,4.424,20.397
		c0.813,6.967,0.952,14.073,0.367,21.224C438.666,698.275,437.351,705.475,435.265,712.632z"/>
	<path style="fill:none;stroke:#173753;stroke-width:2.8347;stroke-miterlimit:10;" d="M331.583,682.398"/>
	
		<line style="fill:none;stroke:#173753;stroke-width:2.8347;stroke-miterlimit:10;" x1="256.735" y1="495.108" x2="525.888" y2="689.463"/>
	
		<line style="fill:none;stroke:#173753;stroke-width:2.8347;stroke-miterlimit:10;" x1="167.796" y1="800.11" x2="499.227" y2="780.879"/>
	
		<line style="fill:none;stroke:#173753;stroke-width:2.8347;stroke-miterlimit:10;" x1="154.018" y1="743.775" x2="337.745" y2="489.345"/>
	
		<line style="fill:none;stroke:#173753;stroke-width:2.8347;stroke-miterlimit:10;" x1="448.328" y1="829.593" x2="430.152" y2="516.292"/>
	
		<line style="fill:none;stroke:#173753;stroke-width:2.8347;stroke-miterlimit:10;" x1="406.434" y1="869.693" x2="137.276" y2="675.334"/>
	
		<line style="fill:none;stroke:#173753;stroke-width:2.8347;stroke-miterlimit:10;" x1="495.369" y1="564.69" x2="163.936" y2="583.92"/>
	
		<line style="fill:none;stroke:#173753;stroke-width:2.8347;stroke-miterlimit:10;" x1="509.145" y1="621.023" x2="325.422" y2="875.454"/>
	
		<line style="fill:none;stroke:#173753;stroke-width:2.8347;stroke-miterlimit:10;" x1="214.836" y1="535.199" x2="233.014" y2="848.511"/>
</g>
<g>
	<g>
		<path style="fill:none;stroke:#e5704c;stroke-width:2.8347;stroke-miterlimit:10;" d="M502.448,498.309
			c-3.576,3.423-10.39,5.09-15.142,3.704l-190.084-55.428c-4.753-1.386-9.603-6.453-10.779-11.262l-47.041-192.331
			c-1.176-4.808,0.787-11.542,4.364-14.965L386.81,91.122c3.576-3.423,10.39-5.089,15.142-3.703l190.083,55.425
			c4.752,1.387,9.603,6.454,10.777,11.264l47.042,192.333c1.177,4.808-0.786,11.542-4.362,14.963L502.448,498.309z"/>
	</g>
	<path style="fill:none;stroke:#e5704c;stroke-width:2.8347;stroke-miterlimit:10;" d="M522.651,220.041
		c5.155,5.386,9.645,11.167,13.464,17.242c3.821,6.073,6.98,12.439,9.474,18.997c2.492,6.556,4.32,13.304,5.489,20.137
		c1.168,6.835,1.675,13.758,1.524,20.666c-0.151,6.909-0.961,13.804-2.429,20.58c-1.469,6.778-3.592,13.436-6.369,19.877
		c-2.777,6.44-6.21,12.663-10.295,18.563c-4.085,5.901-8.819,11.479-14.207,16.635c-5.385,5.155-11.166,9.642-17.242,13.464
		c-6.071,3.822-12.44,6.978-18.996,9.47c-6.557,2.493-13.302,4.322-20.138,5.491c-6.833,1.169-13.757,1.677-20.666,1.525
		c-6.908-0.154-13.803-0.963-20.581-2.429c-6.773-1.466-13.435-3.591-19.877-6.367c-6.44-2.779-12.663-6.21-18.563-10.296
		c-5.902-4.085-11.479-8.82-16.635-14.206c-5.155-5.387-9.642-11.169-13.463-17.242c-3.822-6.074-6.979-12.441-9.471-18.998
		c-2.492-6.558-4.322-13.305-5.492-20.139c-1.168-6.835-1.675-13.758-1.523-20.665c0.151-6.909,0.962-13.803,2.429-20.581
		c1.465-6.778,3.59-13.436,6.367-19.878c2.778-6.439,6.211-12.662,10.295-18.562c4.086-5.901,8.822-11.479,14.206-16.634
		c5.387-5.156,11.169-9.643,17.242-13.465c6.073-3.821,12.44-6.978,18.998-9.471c6.558-2.493,13.304-4.322,20.139-5.49
		c6.834-1.168,13.757-1.676,20.666-1.524c6.907,0.151,13.8,0.963,20.579,2.428c6.777,1.467,13.437,3.59,19.877,6.369
		c6.442,2.777,12.664,6.21,18.564,10.296C511.917,209.917,517.496,214.654,522.651,220.041z"/>
	<path style="fill:none;stroke:#e5704c;stroke-width:2.8347;stroke-miterlimit:10;" d="M444.628,294.716"/>
	
		<line style="fill:none;stroke:#e5704c;stroke-width:2.8347;stroke-miterlimit:10;" x1="245.005" y1="265.889" x2="547.897" y2="129.975"/>
	
		<line style="fill:none;stroke:#e5704c;stroke-width:2.8347;stroke-miterlimit:10;" x1="464.675" y1="495.414" x2="613.736" y2="198.771"/>
	
		<line style="fill:none;stroke:#e5704c;stroke-width:2.8347;stroke-miterlimit:10;" x1="408.999" y1="479.179" x2="280.519" y2="192.852"/>
	
		<line style="fill:none;stroke:#e5704c;stroke-width:2.8347;stroke-miterlimit:10;" x1="630.476" y1="267.208" x2="350.059" y2="126.299"/>
	
		<line style="fill:none;stroke:#e5704c;stroke-width:2.8347;stroke-miterlimit:10;" x1="644.255" y1="323.539" x2="341.356" y2="459.458"/>
	
		<line style="fill:none;stroke:#e5704c;stroke-width:2.8347;stroke-miterlimit:10;" x1="424.582" y1="94.02" x2="275.52" y2="390.663"/>
	
		<line style="fill:none;stroke:#e5704c;stroke-width:2.8347;stroke-miterlimit:10;" x1="480.256" y1="110.252" x2="608.738" y2="396.578"/>
	
		<line style="fill:none;stroke:#e5704c;stroke-width:2.8347;stroke-miterlimit:10;" x1="258.777" y1="322.222" x2="539.199" y2="463.134"/>
</g>
<g>
	<g>
		<path style="fill:none;stroke:#6c88b7;stroke-width:2.8346;stroke-miterlimit:10;" d="M580.95,737.912
			c-4.753-1.386-9.604-6.453-10.78-11.263l-47.039-192.332c-1.176-4.808,0.788-11.543,4.364-14.965l143.042-136.904
			c3.576-3.423,10.391-5.089,15.144-3.704l190.083,55.428c4.753,1.385,9.603,6.453,10.778,11.261l47.041,192.332
			c1.176,4.808-0.789,11.542-4.364,14.966L786.176,789.636c-3.577,3.423-10.39,5.089-15.142,3.702L580.95,737.912L580.95,737.912z"
			/>
	</g>
	<path style="fill:none;stroke:#6c88b7;stroke-width:2.8346;stroke-miterlimit:10;" d="M832.039,616.275
		c-2.087,7.159-4.849,13.935-8.199,20.279c-3.348,6.347-7.284,12.264-11.716,17.702c-4.432,5.438-9.36,10.396-14.693,14.824
		c-5.337,4.429-11.078,8.329-17.137,11.652s-12.433,6.069-19.036,8.187c-6.604,2.119-13.433,3.61-20.399,4.423
		c-6.968,0.815-14.072,0.954-21.225,0.366c-7.152-0.586-14.352-1.896-21.51-3.984c-7.157-2.087-13.934-4.851-20.282-8.202
		c-6.345-3.347-12.263-7.285-17.696-11.715c-5.44-4.431-10.398-9.359-14.827-14.695c-4.43-5.333-8.33-11.075-11.653-17.135
		c-3.321-6.06-6.068-12.433-8.186-19.036c-2.119-6.603-3.61-13.432-4.425-20.398c-0.813-6.967-0.953-14.073-0.364-21.226
		c0.584-7.15,1.897-14.35,3.983-21.509c2.088-7.158,4.852-13.935,8.202-20.282c3.347-6.345,7.284-12.262,11.716-17.699
		c4.43-5.438,9.358-10.395,14.694-14.825c5.334-4.43,11.078-8.33,17.136-11.652c6.058-3.323,12.433-6.069,19.036-8.186
		c6.603-2.118,13.433-3.61,20.399-4.425c6.966-0.814,14.072-0.953,21.221-0.367c7.153,0.588,14.354,1.9,21.512,3.987
		c7.158,2.087,13.935,4.851,20.282,8.199c6.347,3.35,12.263,7.286,17.7,11.717c5.438,4.432,10.395,9.359,14.824,14.695
		c4.431,5.335,8.33,11.076,11.653,17.135s6.067,12.434,8.187,19.037c2.117,6.602,3.609,13.432,4.424,20.398
		s0.952,14.073,0.365,21.223C835.44,601.916,834.126,609.116,832.039,616.275z"/>
	<path style="fill:none;stroke:#6c88b7;stroke-width:2.8346;stroke-miterlimit:10;" d="M728.357,586.042"/>
	
		<line style="fill:none;stroke:#6c88b7;stroke-width:2.8346;stroke-miterlimit:10;" x1="653.511" y1="398.75" x2="922.662" y2="593.104"/>
	
		<line style="fill:none;stroke:#6c88b7;stroke-width:2.8346;stroke-miterlimit:10;" x1="564.57" y1="703.752" x2="896.001" y2="684.521"/>
	
		<line style="fill:none;stroke:#6c88b7;stroke-width:2.8346;stroke-miterlimit:10;" x1="550.793" y1="647.418" x2="734.52" y2="392.985"/>
	
		<line style="fill:none;stroke:#6c88b7;stroke-width:2.8346;stroke-miterlimit:10;" x1="845.104" y1="733.235" x2="826.926" y2="419.934"/>
	
		<line style="fill:none;stroke:#6c88b7;stroke-width:2.8346;stroke-miterlimit:10;" x1="803.21" y1="773.336" x2="534.05" y2="578.977"/>
	
		<line style="fill:none;stroke:#6c88b7;stroke-width:2.8346;stroke-miterlimit:10;" x1="892.143" y1="468.333" x2="560.711" y2="487.562"/>
	
		<line style="fill:none;stroke:#6c88b7;stroke-width:2.8346;stroke-miterlimit:10;" x1="905.921" y1="524.666" x2="722.197" y2="779.097"/>
	
		<line style="fill:none;stroke:#6c88b7;stroke-width:2.8346;stroke-miterlimit:10;" x1="611.61" y1="438.842" x2="629.79" y2="752.153"/>
</g>
</svg>
