<?xml version="1.0" encoding="utf-8"?>
<!-- Generator: Adobe Illustrator 16.0.0, SVG Export Plug-In . SVG Version: 6.00 Build 0)  -->
<!DOCTYPE svg PUBLIC "-//W3C//DTD SVG 1.1//EN" "http://www.w3.org/Graphics/SVG/1.1/DTD/svg11.dtd">
<svg version="1.1" id="Layer_1" xmlns="http://www.w3.org/2000/svg" xmlns:xlink="http://www.w3.org/1999/xlink" x="0px" y="0px"
	 width="1000px" height="1000px" viewBox="0 0 1000 1000" style="enable-background:new 0 0 1000 1000;" xml:space="preserve">
<g>
	<g>
		<path style="fill:none;stroke:#173753;stroke-width:2.8346;stroke-miterlimit:10;" d="M633.731,88.332
			c4.771-1.323,11.562,0.435,15.091,3.906l141.199,138.807c3.53,3.47,5.403,10.231,4.163,15.022l-49.61,191.685
			c-1.24,4.793-6.158,9.795-10.928,11.117l-190.808,52.878c-4.771,1.321-11.562-0.436-15.092-3.906L386.548,359.035
			c-3.53-3.469-5.403-10.231-4.162-15.024l49.609-191.685c1.24-4.793,6.157-9.795,10.929-11.117L633.731,88.332z"/>
	</g>
	<path style="fill:none;stroke:#173753;stroke-width:2.8347;stroke-miterlimit:10;" d="M484.208,323.882
		c-1.992-7.186-3.208-14.4-3.7-21.561c-0.491-7.162-0.257-14.261,0.649-21.219c0.909-6.954,2.491-13.766,4.696-20.337
		c2.208-6.574,5.039-12.912,8.442-18.924c3.403-6.016,7.38-11.705,11.88-16.978c4.5-5.276,9.524-10.137,15.021-14.496
		s11.464-8.215,17.856-11.478c6.389-3.265,13.202-5.939,20.389-7.93c7.185-1.99,14.399-3.207,21.562-3.697
		c7.157-0.491,14.262-0.257,21.215,0.651c6.956,0.909,13.765,2.489,20.339,4.696c6.574,2.206,12.912,5.035,18.926,8.441
		c6.013,3.404,11.703,7.378,16.978,11.881c5.274,4.499,10.137,9.521,14.494,15.019c4.359,5.497,8.216,11.464,11.479,17.856
		c3.264,6.389,5.936,13.204,7.928,20.39c1.991,7.184,3.207,14.4,3.698,21.562c0.491,7.158,0.257,14.259-0.65,21.216
		c-0.908,6.955-2.491,13.766-4.696,20.336c-2.205,6.574-5.038,12.914-8.44,18.926c-3.404,6.014-7.381,11.703-11.882,16.979
		c-4.5,5.276-9.523,10.135-15.021,14.494c-5.494,4.356-11.464,8.215-17.854,11.478c-6.392,3.264-13.205,5.937-20.39,7.928
		c-7.186,1.991-14.402,3.208-21.562,3.699c-7.158,0.492-14.26,0.255-21.216-0.651c-6.956-0.909-13.766-2.488-20.34-4.694
		c-6.574-2.207-12.912-5.038-18.925-8.443c-6.013-3.404-11.701-7.38-16.979-11.881c-5.273-4.497-10.135-9.523-14.494-15.017
		c-4.358-5.499-8.214-11.467-11.479-17.856C488.869,337.88,486.199,331.066,484.208,323.882z"/>
	<path style="fill:none;stroke:#173753;stroke-width:2.8347;stroke-miterlimit:10;" d="M588.286,295.039"/>
	
		<line style="fill:none;stroke:#173753;stroke-width:2.8347;stroke-miterlimit:10;" x1="750.478" y1="414.929" x2="419.335" y2="391.267"/>
	
		<line style="fill:none;stroke:#173753;stroke-width:2.8347;stroke-miterlimit:10;" x1="665.633" y1="108.763" x2="393.906" y2="299.5"/>
	
		<line style="fill:none;stroke:#173753;stroke-width:2.8347;stroke-miterlimit:10;" x1="706.99" y1="149.418" x2="684.621" y2="462.453"/>
	
		<line style="fill:none;stroke:#173753;stroke-width:2.8347;stroke-miterlimit:10;" x1="411.559" y1="231.293" x2="591.861" y2="488.157"/>
	
		<line style="fill:none;stroke:#173753;stroke-width:2.8347;stroke-miterlimit:10;" x1="426.087" y1="175.149" x2="757.238" y2="198.812"/>
	
		<line style="fill:none;stroke:#173753;stroke-width:2.8347;stroke-miterlimit:10;" x1="510.936" y1="481.314" x2="782.665" y2="290.576"/>
	
		<line style="fill:none;stroke:#173753;stroke-width:2.8347;stroke-miterlimit:10;" x1="469.579" y1="440.657" x2="491.947" y2="127.625"/>
	
		<line style="fill:none;stroke:#173753;stroke-width:2.8347;stroke-miterlimit:10;" x1="765.015" y1="358.79" x2="584.706" y2="101.917"/>
</g>
<g>
	<g>
		<path style="fill:none;stroke:#e5704c;stroke-width:2.8347;stroke-miterlimit:10;" d="M539.841,541.488
			c1.24-4.791,6.158-9.793,10.929-11.116l190.811-52.877c4.77-1.323,11.561,0.435,15.091,3.906l141.198,138.804
			c3.53,3.471,5.403,10.23,4.163,15.022l-49.61,191.685c-1.24,4.793-6.157,9.795-10.928,11.117l-190.809,52.878
			c-4.771,1.322-11.562-0.436-15.091-3.906L494.394,748.194c-3.529-3.47-5.403-10.229-4.163-15.022L539.841,541.488z"/>
	</g>
	<path style="fill:none;stroke:#e5704c;stroke-width:2.8347;stroke-miterlimit:10;" d="M669.073,788.754
		c-7.219-1.868-14.078-4.42-20.522-7.576c-6.444-3.154-12.48-6.906-18.05-11.171c-5.571-4.263-10.676-9.04-15.265-14.235
		c-4.59-5.199-8.663-10.819-12.169-16.772c-3.507-5.956-6.445-12.244-8.764-18.779c-2.318-6.536-4.016-13.315-5.042-20.255
		c-1.027-6.938-1.382-14.036-1.012-21.204c0.368-7.166,1.459-14.401,3.327-21.621c1.868-7.217,4.424-14.075,7.579-20.521
		c3.152-6.445,6.907-12.479,11.171-18.047c4.265-5.57,9.037-10.676,14.236-15.266c5.196-4.591,10.816-8.665,16.771-12.17
		s12.244-6.444,18.779-8.763c6.533-2.317,13.316-4.016,20.255-5.044c6.938-1.026,14.036-1.382,21.202-1.012
		c7.168,0.368,14.403,1.46,21.621,3.328c7.219,1.868,14.076,4.424,20.521,7.578s12.479,6.908,18.049,11.173
		s10.677,9.039,15.267,14.235c4.59,5.197,8.663,10.818,12.169,16.772c3.506,5.955,6.443,12.243,8.762,18.778
		c2.32,6.536,4.017,13.315,5.044,20.256c1.026,6.938,1.382,14.036,1.013,21.201c-0.37,7.168-1.462,14.404-3.329,21.62
		c-1.868,7.22-4.424,14.077-7.577,20.522c-3.155,6.445-6.907,12.479-11.173,18.05c-4.264,5.571-9.039,10.676-14.237,15.266
		c-5.195,4.589-10.816,8.663-16.771,12.17c-5.954,3.505-12.242,6.442-18.778,8.763c-6.534,2.317-13.314,4.017-20.254,5.043
		s-14.036,1.381-21.204,1.011C683.527,791.718,676.291,790.624,669.073,788.754z"/>
	<path style="fill:none;stroke:#FFC96B;stroke-width:2.8347;stroke-miterlimit:10;" d="M696.133,684.2"/>
	
		<line style="fill:none;stroke:#e5704c;stroke-width:2.8347;stroke-miterlimit:10;" x1="881.057" y1="603.682" x2="694.991" y2="878.63"/>
	
		<line style="fill:none;stroke:#e5704c;stroke-width:2.8347;stroke-miterlimit:10;" x1="573.487" y1="524.076" x2="602.806" y2="854.767"/>
	
		<line style="fill:none;stroke:#e5704c;stroke-width:2.8347;stroke-miterlimit:10;" x1="629.375" y1="508.588" x2="889.286" y2="684.477"/>
	
		<line style="fill:none;stroke:#e5704c;stroke-width:2.8347;stroke-miterlimit:10;" x1="552.563" y1="805.376" x2="865.166" y2="777.662"/>
	
		<line style="fill:none;stroke:#e5704c;stroke-width:2.8347;stroke-miterlimit:10;" x1="511.206" y1="764.724" x2="697.274" y2="489.767"/>
	
		<line style="fill:none;stroke:#e5704c;stroke-width:2.8347;stroke-miterlimit:10;" x1="818.776" y1="844.323" x2="789.459" y2="513.631"/>
	
		<line style="fill:none;stroke:#e5704c;stroke-width:2.8347;stroke-miterlimit:10;" x1="762.89" y1="859.812" x2="502.979" y2="683.925"/>
	
		<line style="fill:none;stroke:#e5704c;stroke-width:2.8347;stroke-miterlimit:10;" x1="839.706" y1="563.023" x2="527.096" y2="590.738"/>
</g>
<g>
	<g>
		<path style="fill:none;stroke:#6c88b7;stroke-width:2.8346;stroke-miterlimit:10;" d="M347.017,379.038
			c4.771-1.324,11.562,0.434,15.092,3.904l141.199,138.808c3.53,3.471,5.404,10.23,4.162,15.022L457.86,728.456
			c-1.24,4.793-6.158,9.795-10.929,11.116l-190.808,52.879c-4.771,1.322-11.56-0.436-15.092-3.906L99.834,649.739
			c-3.53-3.47-5.403-10.23-4.164-15.022l49.609-191.685c1.241-4.793,6.158-9.796,10.928-11.117L347.017,379.038L347.017,379.038z"/>
	</g>
	<path style="fill:none;stroke:#6c88b7;stroke-width:2.8346;stroke-miterlimit:10;" d="M197.492,614.587
		c-1.99-7.187-3.208-14.402-3.698-21.56c-0.492-7.161-0.258-14.262,0.65-21.219c0.907-6.955,2.489-13.766,4.695-20.337
		c2.208-6.574,5.038-12.912,8.44-18.925c3.406-6.016,7.382-11.704,11.883-16.979c4.5-5.276,9.523-10.137,15.021-14.496
		c5.496-4.357,11.463-8.214,17.856-11.478c6.389-3.265,13.202-5.937,20.388-7.928c7.185-1.992,14.401-3.206,21.563-3.698
		c7.156-0.492,14.261-0.257,21.214,0.651c6.956,0.907,13.764,2.488,20.339,4.696c6.573,2.205,12.912,5.035,18.925,8.439
		c6.013,3.405,11.703,7.38,16.978,11.881c5.274,4.5,10.136,9.523,14.495,15.021c4.358,5.496,8.214,11.464,11.478,17.856
		c3.265,6.389,5.937,13.201,7.929,20.388c1.99,7.185,3.206,14.402,3.696,21.562c0.493,7.158,0.258,14.262-0.65,21.217
		c-0.907,6.955-2.49,13.766-4.697,20.338c-2.205,6.574-5.037,12.913-8.439,18.925c-3.404,6.014-7.381,11.703-11.882,16.978
		c-4.5,5.277-9.523,10.138-15.019,14.496c-5.495,4.357-11.465,8.215-17.854,11.479c-6.392,3.264-13.206,5.937-20.39,7.927
		c-7.186,1.991-14.402,3.206-21.561,3.698c-7.16,0.492-14.262,0.257-21.217-0.65c-6.956-0.906-13.765-2.489-20.338-4.696
		c-6.574-2.205-12.913-5.036-18.927-8.439c-6.012-3.404-11.701-7.381-16.978-11.882c-5.273-4.5-10.136-9.523-14.494-15.019
		c-4.358-5.497-8.214-11.466-11.478-17.856C202.155,628.586,199.484,621.771,197.492,614.587z"/>
	<path style="fill:none;stroke:#392C3F;stroke-width:2.8346;stroke-miterlimit:10;" d="M301.571,585.744"/>
	
		<line style="fill:none;stroke:#6c88b7;stroke-width:2.8346;stroke-miterlimit:10;" x1="463.764" y1="705.634" x2="132.619" y2="681.972"/>
	
		<line style="fill:none;stroke:#6c88b7;stroke-width:2.8346;stroke-miterlimit:10;" x1="378.919" y1="399.468" x2="107.191" y2="590.205"/>
	
		<line style="fill:none;stroke:#6c88b7;stroke-width:2.8346;stroke-miterlimit:10;" x1="420.275" y1="440.124" x2="397.907" y2="753.158"/>
	
		<line style="fill:none;stroke:#6c88b7;stroke-width:2.8346;stroke-miterlimit:10;" x1="124.844" y1="521.999" x2="305.146" y2="778.862"/>
	
		<line style="fill:none;stroke:#6c88b7;stroke-width:2.8346;stroke-miterlimit:10;" x1="139.372" y1="465.854" x2="470.524" y2="489.518"/>
	
		<line style="fill:none;stroke:#6c88b7;stroke-width:2.8346;stroke-miterlimit:10;" x1="224.221" y1="772.019" x2="495.951" y2="581.283"/>
	
		<line style="fill:none;stroke:#6c88b7;stroke-width:2.8346;stroke-miterlimit:10;" x1="182.865" y1="731.362" x2="205.232" y2="418.331"/>
	
		<line style="fill:none;stroke:#6c88b7;stroke-width:2.8346;stroke-miterlimit:10;" x1="478.3" y1="649.494" x2="297.992" y2="392.624"/>
</g>
</svg>
