<svg id="Layer_1" data-name="Layer 1" xmlns="http://www.w3.org/2000/svg" viewBox="0 0 396.6 444.81"><defs><style>.cls-1{fill:#e5704c;}.cls-2{fill:#fff;}.cls-3{fill:#6c88b7;}.cls-4{fill:#173753;}</style></defs><title>FinalScheme1</title><path class="cls-1" d="M228.76,33.29l-155.81,90A42.49,42.49,0,0,0,51.7,160V340a42.49,42.49,0,0,0,21.25,36.8l155.81,90a42.49,42.49,0,0,0,42.49,0l155.81-90A42.49,42.49,0,0,0,448.3,340V160a42.49,42.49,0,0,0-21.25-36.8l-155.81-90A42.49,42.49,0,0,0,228.76,33.29Z" transform="translate(-51.7 -27.59)"/><path class="cls-2" d="M409.78,151,250,66.91V433.09l157.46-76.51Z" transform="translate(-51.7 -27.59)"/><path class="cls-3" d="M90.22,349,250,433.09V66.91L91,155.81Z" transform="translate(-51.7 -27.59)"/><path class="cls-4" d="M154.84,300.62,155,269a4,4,0,0,0-5.9-3.54L130,275.75l0,11.67Z" transform="translate(-51.7 -27.59)"/><path class="cls-4" d="M216.72,134.71a6,6,0,0,0,3.25-5.32l0-26.84-11.89,6.28a6,6,0,0,0-3.2,5.32l.06,26.61Z" transform="translate(-51.7 -27.59)"/><path class="cls-4" d="M402.44,137.46,271.25,61.72a42.49,42.49,0,0,0-42.49,0L97.56,137.46a42.49,42.49,0,0,0-21.25,36.8V325.74a42.49,42.49,0,0,0,21.25,36.8l131.19,75.74a42.49,42.49,0,0,0,42.49,0l131.19-75.74a42.49,42.49,0,0,0,21.25-36.8V174.26A42.49,42.49,0,0,0,402.44,137.46ZM179.65,112.72a6,6,0,0,1,3.16-5.27L245,74.05q0,50.84.06,101.68a6,6,0,0,1-3.18,5.3L219.91,192.7l0-44.25L208,154.89a6,6,0,0,0-3.13,5.28q0,18.4.06,36.81a6,6,0,0,1-3.17,5.3l-22.46,12Q179.5,163.51,179.65,112.72ZM103.16,150,130,135.67q0,22.51-.06,45l6.62-3.48a6,6,0,0,0,3.21-5.32q0-18.92,0-37.83a6,6,0,0,1,3.17-5.3l26.88-14.37q.12,50.61.25,101.23a6,6,0,0,1-3.17,5.31l-27,14.43-.06-44.94L133.05,194a6,6,0,0,0-3.16,5.29q0,18.88,0,37.76a6,6,0,0,1-3.19,5.3l-26.64,14.12L100,155.27A6,6,0,0,1,103.16,150ZM180,324.19l-8.84,5.29L129.84,307.4q0,25,0,50.08a3,3,0,0,1-4.43,2.64L100,346.37q0-35.31,0-70.62a7,7,0,0,1,3.71-6.18l76.48-40.76Q180.06,276.5,180,324.19Zm121.43,75.16-48.11,25.76a7,7,0,0,1-6.64,0l-48-26A7,7,0,0,1,195,393l-.07-65.73,31.56,17a7,7,0,0,1,3.69,6.15l.05,30.4L250,391.6l20.12-11-.18-38.21-71.14-38.13a7,7,0,0,1-3.69-6.15l-.22-72.69a7,7,0,0,1,3.66-6.17l48.11-26.17a7,7,0,0,1,6.66,0l47.8,25.67a7,7,0,0,1,3.69,6.17q0,30.66,0,61.32l-31.22-16.8a7,7,0,0,1-3.68-6.13l-.16-30.85L250,221.1l-20.06,11.68.19,48.3,71.13,37.78a7,7,0,0,1,3.72,6.17l.13,68.13A7,7,0,0,1,301.38,399.35Zm14.18-187.64-60.44-32.55q-.07-49.95-.15-99.89a3,3,0,0,1,4.41-2.65l60.49,32.18v35.06L294.79,130.3l.23-14.77-10.61-5.47a3,3,0,0,0-4.38,2.67l.07,57.6a4,4,0,0,0,2.14,3.54L295,180.55l-.11-15L320,178.83l0,30.24A3,3,0,0,1,315.57,211.71ZM400,347.5a7,7,0,0,1-3.71,6.18l-76.39,40.6.28-157a5,5,0,0,1,7.36-4.4l27.55,14.72L355,340.4l15-8q0-35,0-70a4,4,0,0,1,5.88-3.53L400,271.77Q400,309.63,400,347.5Zm-3.71-142.61a7,7,0,0,1,3.63,6.12l.1,40.65a3,3,0,0,1-4.41,2.66l-25.54-13.55.31-44.71-6.13-3.34a3,3,0,0,0-4.43,2.63v35.13a3,3,0,0,1-4.42,2.64l-25.67-13.84q.12-50,.23-99.92a3,3,0,0,1,4.42-2.64L360,130.49,360,175.3l5.73,3.18a3,3,0,0,0,4.46-2.63l-.12-35a3,3,0,0,1,4.42-2.66L400,151.82c0,17.84,0,21.57,0,39.41L385.58,199Z" transform="translate(-51.7 -27.59)"/></svg>