<?xml version="1.0" encoding="utf-8"?>
<!-- Generator: Adobe Illustrator 16.0.0, SVG Export Plug-In . SVG Version: 6.00 Build 0)  -->
<!DOCTYPE svg PUBLIC "-//W3C//DTD SVG 1.1//EN" "http://www.w3.org/Graphics/SVG/1.1/DTD/svg11.dtd">
<svg version="1.1" id="Capa_1" xmlns="http://www.w3.org/2000/svg" xmlns:xlink="http://www.w3.org/1999/xlink" x="0px" y="0px"
	 width="792px" height="792px" viewBox="0 0 792 792" enable-background="new 0 0 792 792" xml:space="preserve">
<g>
	<path fill="#fff" d="M78.828,306.656c0-0.129,0-0.261,0-0.392c0.344-0.539,0.71-1.066,1.03-1.62
		c18.306-31.684,36.609-63.372,54.913-95.058c33.872-58.638,67.747-117.272,101.592-175.924c0.678-1.174,1.331-1.759,2.813-1.758
		c104.541,0.042,209.082,0.041,313.623,0.009c1.33,0,2.063,0.381,2.731,1.557c4.24,7.476,8.569,14.9,12.869,22.343
		c42.825,74.142,85.648,148.285,128.482,222.424c5.404,9.356,10.857,18.686,16.288,28.027c0,0.131,0,0.263,0,0.392
		c-0.401,0.649-0.821,1.286-1.202,1.945c-16.163,27.961-32.321,55.924-48.479,83.889c-35.994,62.3-71.988,124.6-107.962,186.915
		c-0.595,1.027-1.125,1.614-2.496,1.614c-104.676-0.045-209.351-0.044-314.024-0.013c-1.197,0-1.843-0.35-2.442-1.388
		C190.015,498.98,143.44,418.354,96.859,337.733C90.869,327.363,84.839,317.015,78.828,306.656z M279.581,306.381
		c0,54.916,0.006,109.833-0.032,164.748c-0.001,1.537,0.25,2.091,1.971,2.087c31.437-0.061,62.873-0.043,94.309-0.052
		c9.001-0.004,17.983-0.312,26.946-1.296c20.006-2.19,39.297-7.053,57.641-15.387c26.251-11.929,47.824-29.457,63.58-53.789
		c17.01-26.268,24.249-55.471,25.572-86.381c0.532-12.456,0.143-24.901-1.087-37.318c-1.643-16.584-4.869-32.817-10.637-48.487
		c-12.55-34.109-34.933-59.258-68.148-74.424c-23.903-10.913-49.266-15.5-75.318-16.043c-37.494-0.782-75-0.164-112.501-0.327
		c-1.869-0.008-2.345,0.407-2.343,2.313C279.592,196.81,279.581,251.596,279.581,306.381z"/>
	<path fill="#fff" d="M346.344,306.367c0-33.193,0.02-66.388-0.049-99.581c-0.003-1.932,0.52-2.316,2.361-2.302
		c11.934,0.095,23.87-0.055,35.802,0.088c15.647,0.187,31.066,1.984,45.834,7.54c24.176,9.096,38.822,26.751,45.663,51.272
		c4.797,17.193,5.792,34.776,4.898,52.508c-0.654,12.954-2.972,25.594-7.794,37.689c-10.932,27.412-31.369,43.731-59.596,50.891
		c-10.666,2.704-21.541,3.815-32.52,3.891c-10.892,0.075-21.783-0.021-32.673,0.075c-1.743,0.016-1.968-0.584-1.965-2.098
		c0.039-33.324,0.029-66.649,0.029-99.973C346.339,306.367,346.342,306.367,346.344,306.367z"/>
</g>
</svg>
