<?xml version="1.0" encoding="utf-8"?>
<!-- Generator: Adobe Illustrator 21.1.0, SVG Export Plug-In . SVG Version: 6.00 Build 0)  -->
<svg version="1.1" id="Layer_1" xmlns="http://www.w3.org/2000/svg" xmlns:xlink="http://www.w3.org/1999/xlink" x="0px" y="0px"
	 viewBox="0 0 126.5 50.2" style="enable-background:new 0 0 126.5 50.2;" xml:space="preserve">
<style type="text/css">
	.st0{fill:#FFFFFF;}
</style>
<title>edtechnetwork</title>
<path class="st0" d="M47.1,17.3l0.6-4.5h4.4l0.8-6.2h5.3l-0.8,6.2h5.8l-0.6,4.5h-5.8l-1.3,9.3c-0.2,0.8-0.1,1.7,0.2,2.5
	c0.3,0.6,1,0.9,2.2,0.9c0.5,0,1.1-0.1,1.6-0.1c0.5-0.1,1-0.2,1.4-0.5l-0.6,4.5c-0.7,0.3-1.4,0.5-2.1,0.5c-0.7,0.1-1.4,0.1-2.2,0.2
	c-1.2,0-2.3-0.1-3.4-0.5c-0.8-0.3-1.5-0.8-1.9-1.4c-0.5-0.7-0.7-1.5-0.7-2.4c-0.1-1.1,0-2.2,0.2-3.3l1.4-9.8L47.1,17.3z"/>
<path class="st0" d="M67.7,25.3c0.1,1.4,0.8,2.8,1.8,3.7c1.1,0.9,2.4,1.4,3.8,1.3c1.2,0,2.3-0.2,3.3-0.8c0.9-0.5,1.7-1.2,2.4-2.1
	l3.8,2.9c-1.1,1.4-2.5,2.5-4.2,3.3c-1.5,0.7-3.2,1-4.8,1c-1.5,0-3.1-0.3-4.5-0.8c-2.8-1-5-3.1-6.1-5.8c-0.6-1.4-0.9-3-0.9-4.6
	c0-1.6,0.3-3.1,0.9-4.6c1.1-2.7,3.4-4.8,6.1-5.8c1.4-0.5,3-0.8,4.5-0.8c1.4,0,2.7,0.3,4,0.8c1.2,0.5,2.3,1.3,3.2,2.3
	c0.9,1.1,1.6,2.3,2,3.6c0.5,1.6,0.8,3.3,0.7,4.9v1.5L67.7,25.3z M78.6,21.3c0-1.4-0.5-2.7-1.5-3.7c-1.1-1-2.5-1.4-3.9-1.4
	c-1.4-0.1-2.8,0.4-3.8,1.4c-1,1-1.6,2.3-1.7,3.7L78.6,21.3z"/>
<path class="st0" d="M100.7,19.1c-0.6-0.6-1.2-1.1-1.9-1.6c-0.6-0.4-1.3-0.6-2.1-0.6c-1.7,0-3.4,0.7-4.5,2c-0.5,0.6-1,1.3-1.2,2
	c-0.6,1.5-0.6,3.2,0,4.8c0.3,0.7,0.7,1.4,1.2,2c1.2,1.3,2.8,2,4.6,2c0.8,0,1.6-0.2,2.3-0.5c0.7-0.3,1.3-0.9,1.8-1.5l3.5,3.8
	c-0.6,0.6-1.2,1-1.9,1.4c-0.7,0.4-1.4,0.7-2.1,0.9c-0.7,0.2-1.3,0.4-2,0.5c-0.6,0.1-1.1,0.1-1.7,0.2c-1.5,0-3.1-0.3-4.5-0.8
	c-2.8-1-5-3.1-6.2-5.8c-0.6-1.5-0.9-3-0.9-4.6c0-1.6,0.3-3.1,0.9-4.6c1.1-2.7,3.3-4.8,6.1-5.8c1.4-0.5,3-0.8,4.5-0.8
	c1.4,0,2.8,0.3,4.1,0.8c1.4,0.5,2.6,1.4,3.6,2.5L100.7,19.1z"/>
<path class="st0" d="M111.1,15.7L111.1,15.7c0.6-1,1.4-1.8,2.3-2.4c1.2-0.8,2.6-1.1,4-1.1c1.2,0,2.5,0.2,3.6,0.7
	c0.9,0.4,1.8,1.1,2.4,1.9c0.6,0.8,1.1,1.7,1.3,2.7c0.3,1,0.4,2.1,0.4,3.1V34h-5.3V23.3c0-0.6,0-1.3-0.1-2c-0.1-0.7-0.2-1.4-0.5-2
	c-0.2-0.6-0.6-1.2-1.2-1.6c-0.6-0.5-1.4-0.7-2.2-0.6c-0.8,0-1.5,0.1-2.2,0.4c-0.6,0.3-1.1,0.7-1.5,1.2c-0.4,0.5-0.7,1.1-0.9,1.7
	c-0.2,0.7-0.3,1.3-0.3,2V34h-5.3V2h5.3L111.1,15.7z"/>
<path class="st0" d="M20.4,30.2c-0.9,1.5-2.2,2.6-3.8,3.4c-1.6,0.7-3.3,1-5,1c-1.5,0-2.9-0.3-4.2-0.8c-1.2-0.5-2.3-1.3-3.3-2.2
	c-0.9-1-1.6-2.1-2.1-3.4c-0.5-1.4-0.8-2.9-0.8-4.4c0-1.5,0.2-2.9,0.8-4.2c0.5-1.3,1.2-2.4,2.1-3.4c1.9-2,4.6-3.2,7.3-3.1
	c1.4,0,2.8,0.3,4.1,0.8c1.1,0.5,2.2,1.2,3,2.2c0.8,0.9,1.4,1.9,1.8,3.1c0.4,1.1,0.6,2.3,0.6,3.5v1.9H3.8c0,0.7,0.1,1.5,0.4,2.2
	c0.2,0.9,0.6,1.8,1.2,2.5C6,30,6.8,30.8,7.7,31.3c1.2,0.6,2.5,0.9,3.8,0.9c1.4,0,2.7-0.4,3.9-1c1.2-0.6,2.2-1.5,2.9-2.7L20.4,30.2z
	 M18.4,22.1c0-0.9-0.2-1.8-0.5-2.6c-0.4-0.8-0.9-1.5-1.5-2.1c-0.7-0.6-1.5-1.1-2.3-1.4c-0.9-0.4-1.8-0.5-2.8-0.5
	c-1.3,0-2.5,0.3-3.6,0.9c-0.9,0.5-1.7,1.2-2.3,2c-0.5,0.7-0.9,1.4-1.2,2.2c-0.2,0.5-0.3,1-0.4,1.5L18.4,22.1z"/>
<path class="st0" d="M41.2,30.5L41.2,30.5c-0.5,0.7-1,1.3-1.6,1.8c-0.6,0.5-1.3,0.9-2,1.3c-0.7,0.3-1.5,0.6-2.3,0.8
	c-0.8,0.2-1.6,0.2-2.3,0.2c-1.5,0-3-0.3-4.3-0.8c-1.3-0.5-2.5-1.2-3.5-2.2c-1-1-1.7-2.1-2.2-3.4c-0.5-1.4-0.8-2.8-0.8-4.3
	c0-1.5,0.3-2.9,0.8-4.3c0.5-1.3,1.3-2.4,2.2-3.4c1-1,2.1-1.7,3.4-2.2c1.4-0.5,2.8-0.8,4.3-0.8c0.8,0,1.6,0.1,2.3,0.2
	c0.8,0.2,1.6,0.4,2.3,0.8c0.7,0.3,1.4,0.8,2,1.3c0.7,0.5,1.2,1.1,1.7,1.9h0.1V2h2.7v32h-2.7V30.5z M41.5,23.8c0-1.1-0.2-2.2-0.7-3.3
	c-0.4-1-1-1.9-1.8-2.7c-0.8-0.8-1.7-1.4-2.7-1.8c-1.1-0.4-2.2-0.7-3.4-0.7c-1.2,0-2.3,0.2-3.4,0.7c-1,0.4-1.8,1-2.6,1.8
	c-0.7,0.8-1.3,1.7-1.6,2.7c-0.7,2.1-0.7,4.4,0,6.5c0.3,1,0.9,1.9,1.6,2.7c0.7,0.8,1.6,1.4,2.6,1.8c1.1,0.5,2.2,0.7,3.4,0.7
	c1.2,0,2.3-0.2,3.4-0.7c1-0.4,1.9-1,2.7-1.8c0.8-0.8,1.4-1.7,1.8-2.7C41.3,26,41.5,24.9,41.5,23.8L41.5,23.8z"/>
<path class="st0" d="M66.9,41.4h1.3v1l0,0c0.2-0.4,0.5-0.7,0.8-0.9c0.4-0.2,0.9-0.3,1.4-0.3c0.3,0,0.6,0.1,0.9,0.2
	c0.3,0.1,0.6,0.3,0.8,0.5c0.2,0.2,0.4,0.5,0.5,0.8c0.1,0.4,0.2,0.8,0.2,1.1V48h-1.2v-3.9c0-0.3,0-0.5-0.1-0.8
	c-0.1-0.2-0.2-0.4-0.3-0.5c-0.1-0.1-0.3-0.2-0.5-0.3c-0.2-0.1-0.4-0.1-0.6-0.1c-0.2,0-0.5,0-0.7,0.1c-0.2,0.1-0.4,0.2-0.6,0.4
	c-0.2,0.2-0.3,0.4-0.4,0.7c-0.1,0.3-0.1,0.7-0.1,1V48h-1.2V41.4z"/>
<path class="st0" d="M76.9,45.2c0,0.3,0.1,0.5,0.2,0.8c0.1,0.2,0.3,0.4,0.5,0.6c0.2,0.2,0.5,0.3,0.7,0.4c0.3,0.1,0.6,0.1,0.8,0.1
	c0.4,0,0.7-0.1,1-0.3c0.3-0.2,0.6-0.4,0.8-0.7l1,0.7c-0.7,0.9-1.8,1.4-2.9,1.4c-0.5,0-1-0.1-1.4-0.3c-0.4-0.2-0.8-0.4-1.1-0.7
	c-0.3-0.3-0.5-0.7-0.7-1.1c-0.2-0.4-0.2-0.9-0.2-1.4c0-0.5,0.1-0.9,0.3-1.4c0.2-0.4,0.4-0.8,0.7-1.1c0.3-0.3,0.7-0.6,1.1-0.7
	c0.4-0.2,0.9-0.3,1.4-0.3c0.5,0,1,0.1,1.5,0.3c0.4,0.2,0.7,0.5,1,0.8c0.3,0.3,0.5,0.7,0.6,1.1c0.1,0.4,0.1,0.8,0.1,1.3v0.5
	L76.9,45.2z M80.9,44.2c0-0.3,0-0.5-0.1-0.8c-0.1-0.2-0.2-0.4-0.4-0.6c-0.2-0.2-0.4-0.3-0.6-0.4c-0.3-0.1-0.5-0.2-0.8-0.2
	c-0.3,0-0.6,0.1-0.8,0.2c-0.2,0.1-0.5,0.3-0.7,0.5c-0.2,0.2-0.3,0.4-0.4,0.6c-0.1,0.2-0.1,0.4-0.2,0.7L80.9,44.2z"/>
<path class="st0" d="M88.5,42.5h-1.8v3c0,0.2,0,0.4,0,0.5c0,0.2,0,0.3,0.1,0.5c0.1,0.1,0.2,0.3,0.3,0.3c0.2,0.1,0.4,0.1,0.6,0.1
	c0.2,0,0.3,0,0.5,0c0.2,0,0.3-0.1,0.4-0.2V48c-0.2,0.1-0.4,0.2-0.6,0.2c-0.2,0-0.4,0-0.6,0c-0.4,0-0.8,0-1.1-0.2
	c-0.2-0.1-0.4-0.3-0.6-0.5c-0.1-0.2-0.2-0.5-0.2-0.7c0-0.3,0-0.5,0-0.8v-3.4H84v-1.1h1.4v-1.9h1.3v1.9h1.8V42.5z"/>
<path class="st0" d="M90.6,41.4H92l1.5,5l0,0l1.6-5h1.3l1.7,5l0,0l1.4-5h1.3L98.7,48h-1.3l-1.8-5l0,0l-1.6,5h-1.4L90.6,41.4z"/>
<path class="st0" d="M102.9,44.7c0-0.5,0.1-0.9,0.3-1.4c0.2-0.4,0.4-0.8,0.8-1.1c1.4-1.4,3.6-1.4,5,0c0.3,0.3,0.6,0.7,0.8,1.1
	c0.2,0.4,0.3,0.9,0.3,1.4c0,0.9-0.4,1.8-1,2.5c-0.3,0.3-0.7,0.6-1.1,0.7c-0.9,0.4-1.9,0.4-2.8,0c-0.4-0.2-0.8-0.4-1.1-0.7
	C103.3,46.5,102.9,45.7,102.9,44.7L102.9,44.7z M104.2,44.7c0,0.3,0,0.6,0.2,0.9c0.1,0.3,0.2,0.5,0.4,0.7c0.2,0.2,0.4,0.4,0.7,0.5
	c0.6,0.2,1.2,0.2,1.8,0c0.3-0.1,0.5-0.3,0.7-0.5c0.2-0.2,0.3-0.5,0.4-0.7c0.2-0.6,0.2-1.3,0-1.9c-0.1-0.3-0.2-0.5-0.4-0.7
	c-0.2-0.2-0.4-0.4-0.7-0.5c-0.6-0.2-1.2-0.2-1.8,0c-0.3,0.1-0.5,0.3-0.7,0.5c-0.2,0.2-0.3,0.5-0.4,0.7
	C104.3,44.1,104.2,44.4,104.2,44.7z"/>
<path class="st0" d="M112.8,41.4h1.3v1l0,0c0.1-0.2,0.2-0.3,0.3-0.5c0.1-0.1,0.3-0.3,0.5-0.4c0.2-0.1,0.4-0.2,0.6-0.2
	c0.2-0.1,0.4-0.1,0.6-0.1c0.2,0,0.4,0,0.6,0.1l-0.1,1.4l-0.3-0.1h-0.3c-0.5,0-1,0.2-1.4,0.5c-0.4,0.5-0.5,1-0.5,1.6V48h-1.3
	L112.8,41.4z"/>
<path class="st0" d="M119.2,37.5h1.3v6.8l2.8-2.9h1.8l-3.1,3l3.4,3.6h-1.8l-3.1-3.4V48h-1.3V37.5z"/>
</svg>
