<?xml version="1.0" encoding="utf-8"?>
<!-- Generator: Adobe Illustrator 16.0.0, SVG Export Plug-In . SVG Version: 6.00 Build 0)  -->
<!DOCTYPE svg PUBLIC "-//W3C//DTD SVG 1.1//EN" "http://www.w3.org/Graphics/SVG/1.1/DTD/svg11.dtd">
<svg version="1.1" id="Layer_1" xmlns="http://www.w3.org/2000/svg" xmlns:xlink="http://www.w3.org/1999/xlink" x="0px" y="0px"
	 width="500px" height="500px" viewBox="0 0 500 500" style="enable-background:new 0 0 500 500;" xml:space="preserve">
<g>
	<path style="fill:#ffffff;" d="M237.715,14.89c7.991,0,15.984,0,23.974,0c0.377,0.919,1.197,0.505,1.816,0.545
		c10.883,0.716,21.605,2.45,32.128,5.278c43.135,11.595,77.515,35.767,102.965,72.426c16.182,23.311,26.034,49.171,29.842,77.334
		c0.552,4.078,0.407,8.258,1.67,12.237c0,8.191,0,16.383,0,24.575c-0.992,0.471-0.544,1.394-0.604,2.109
		c-0.896,10.355-2.509,20.593-5.21,30.633c-11.609,43.13-35.773,77.515-72.434,102.965c-23.31,16.182-49.17,26.039-77.336,29.841
		c-4.276,0.575-8.636,0.545-12.837,1.673c-7.99,0-15.983,0-23.974,0c-0.47-0.99-1.393-0.546-2.107-0.605
		c-7.46-0.608-14.874-1.615-22.181-3.188c-34.361-7.391-64.292-23.228-89.257-47.979c-28.962-28.711-46.355-63.352-52.002-103.833
		c-0.54-3.872-0.404-7.85-1.674-11.617c0-8.392,0-16.783,0-25.174c0.99-0.469,0.546-1.393,0.605-2.106
		c0.609-7.461,1.615-14.874,3.188-22.182c7.393-34.362,23.228-64.291,47.979-89.257c28.711-28.961,63.352-46.356,103.832-52.002
		C229.969,16.023,233.948,16.16,237.715,14.89z M250.606,118.062c0,0.046,0,0.092,0,0.138c-35.258,0-70.517-0.009-105.775,0.008
		c-7.883,0.002-11.775,3.9-11.777,11.793c-0.015,43.151-0.015,86.3,0,129.451c0.002,7.856,3.921,11.74,11.826,11.74
		c70.319,0.01,140.636,0.012,210.954,0c7.854-0.003,11.715-3.921,11.717-11.853c0.013-43.049,0.012-86.1,0.003-129.148
		c-0.003-8.175-3.971-12.13-12.069-12.129C320.524,118.063,285.564,118.062,250.606,118.062z"/>
	<path style="fill-rule:evenodd;clip-rule:evenodd;fill:#fff;" d="M158.51,130.22c60.948,0,121.896,0,183.135,0
		c-1.33,1.056-2.595,2.078-3.88,3.074c-29.013,22.525-58.042,45.029-87.013,67.607c-1.698,1.324-2.684,1.418-4.44,0.018
		c-29.266-23.339-58.603-46.591-87.923-69.862C158.429,130.778,158.469,130.499,158.51,130.22z"/>
	<path style="fill-rule:evenodd;clip-rule:evenodd;fill:#fff;" d="M155.111,259.934c11.431-8.524,22.846-17.072,34.297-25.568
		c13.141-9.751,26.344-19.423,39.445-29.229c1.8-1.346,2.968-1.591,4.778,0.005c3.288,2.904,6.818,5.532,10.293,8.217
		c3.424,2.646,5.715,2.631,9.142,0.004c3.963-3.034,7.924-6.072,11.83-9.173c0.962-0.762,1.61-1.069,2.782-0.217
		c25.382,18.532,50.799,37.016,76.207,55.514c0.153,0.111,0.253,0.298,0.379,0.451c-46.491,0.018-92.98,0.042-139.472,0.049
		C188.232,259.992,171.671,259.953,155.111,259.934z"/>
	<path style="fill-rule:evenodd;clip-rule:evenodd;fill:#fff;" d="M356.153,133.521c0,40.408,0,80.321,0,120.23
		c-0.937,0.332-1.339-0.403-1.853-0.776c-25.511-18.523-51.008-37.065-76.527-55.575c-1.416-1.027-2.246-1.532-0.267-3.063
		c25.672-19.825,51.272-39.742,76.895-59.631C354.854,134.354,355.35,134.062,356.153,133.521z"/>
	<path style="fill-rule:evenodd;clip-rule:evenodd;fill:#fff;" d="M144.388,253.553c0-39.936,0-79.167,0-119.14
		c26.077,20.69,51.78,41.085,77.742,61.685C196.22,215.246,170.538,234.227,144.388,253.553z"/>
</g>
</svg>
