<?xml version="1.0" encoding="utf-8"?>
<!-- Generator: Adobe Illustrator 21.1.0, SVG Export Plug-In . SVG Version: 6.00 Build 0)  -->
<svg version="1.1" id="Layer_1" xmlns="http://www.w3.org/2000/svg" xmlns:xlink="http://www.w3.org/1999/xlink" x="0px" y="0px"
	 viewBox="0 0 499.6 364" style="enable-background:new 0 0 499.6 364;" xml:space="preserve">
<style type="text/css">
	.st0{fill:#FCFCFC;}
	.st1{fill:#23559E;}
</style>
<title>temp</title>
<path class="st0" d="M312.6,193.3c-1.3-0.9-1.2-2-1.3-2.9c-1.3-8.3-2.5-16.5-3.7-24.8c-5.2-34.4-10.4-68.8-15.4-103.2
	c-0.4-2.6-1.3-3.3-3.9-3.3c-11.6,0.1-23.3,0.2-34.9,0c-3.2-0.1-4.1,0.7-4.1,4c0.1,29.1,0.1,58.2,0.1,87.3c0,30.8,0,61.6-0.1,92.4
	c0,2.8,0.7,3.8,3.6,3.7c6.8-0.2,13.6-0.3,20.4,0c3.4,0.1,3.9-1.1,3.9-4.1c-0.1-42.8-0.1-85.6-0.1-128.5v-4.1c1.1,1,1.1,2.1,1.3,3.2
	c2,12.3,3.9,24.7,5.9,37c5,31,10,62,14.8,93c0.5,3.1,1.6,3.9,4.6,3.8c5.7-0.2,11.4-0.2,17.1,0c2.2,0,3.2-0.5,3.5-2.9
	c6.5-39.5,13-79,19.6-118.4c0.9-5.2,1.8-10.3,2.6-15.5c0.2,0,0.5,0.1,0.7,0.1v4c0,42.9,0,85.8-0.1,128.8c0,2.9,0.6,4,3.7,3.9
	c6.9-0.2,13.8-0.2,20.7,0c2.7,0.1,3.5-0.7,3.5-3.5c-0.1-60.3-0.1-120.6,0-180.9c0-2.4-0.5-3.4-3.2-3.4c-11.9,0.1-23.8,0.1-35.7,0
	c-2.5,0-3.2,0.9-3.6,3.3c-5.5,36.1-11,72.2-16.6,108.2C315,178.1,313.8,185.6,312.6,193.3z M192.4,237.8c0,1.8,0.1,3.6,0,5.4
	c-0.2,2.5,0.6,3.4,3.2,3.3c7-0.1,14.1-0.1,21.1,0.2c2.7,0.1,3.5-0.7,3.5-3.4c-0.1-17.2-0.1-34.4-0.1-51.7v-43.3
	c0-1.8,0.2-3.3-2.5-3.3c-13.3,0.1-26.7,0.1-40,0c-1.9,0-2.5,0.6-2.5,2.5c0.1,5.8,0.1,11.6,0,17.5c0,2.2,0.9,2.7,2.8,2.6
	c3.5-0.1,7,0.1,10.5-0.1c2.4-0.1,3.1,0.7,3.1,3.1c-0.1,9.5-0.1,18.9-0.1,28.4c0.1,4.1-0.6,8.3-1.9,12.2c-2.8,7.7-8.2,11.3-16.8,11.3
	c-8.4,0-13.9-3.8-16.6-11.5c-1.5-4.5-2.1-9.3-2-14v-92.4c0-2.9,0.2-5.8,0.7-8.7c1.3-8.2,5.9-13.2,13.2-14.6c12.9-2.5,21.9,4,23,17.1
	c0.5,5.8,0.3,11.6,0.3,17.5c0,1.9,28.8,2.2,28.8,0.3c-0.1-7.5,0.2-15-0.6-22.5c-2.1-20-13.2-32.8-32.1-36.9
	c-8.9-1.9-18.1-2.1-27.1-0.4c-15.1,2.9-25.4,11.4-30.9,25.7c-2.6,6.8-3.8,14.1-3.8,21.4v101.9c-0.1,6.9,1,13.8,3,20.4
	c3,9.4,8.2,17,17.5,21.2c14.5,6.3,31.4,3.6,43.2-6.9C190,239.3,190.5,238,192.4,237.8z M250.4,268.2c-40.3,0-80.6,0-120.8-0.1
	c-3.6,0-4.4,1-4.4,4.4c0.2,10.7,0.2,21.3,0,32c-0.1,3.6,1.1,4.3,4.5,4.3c49.1-0.1,98.2-0.1,147.3-0.1c31.3,0,62.6-0.1,93.8,0.1
	c3.8,0,4.6-1.1,4.5-4.7c-0.2-10.7-0.2-21.3,0-32c0.1-3.5-1.1-4.1-4.3-4.1C330.9,268.3,290.6,268.2,250.4,268.2z"/>
<path class="st1" d="M-74.2,65"/>
</svg>
