<?xml version="1.0" encoding="UTF-8" standalone="no"?>
<svg
   xmlns:dc="http://purl.org/dc/elements/1.1/"
   xmlns:cc="http://creativecommons.org/ns#"
   xmlns:rdf="http://www.w3.org/1999/02/22-rdf-syntax-ns#"
   xmlns:svg="http://www.w3.org/2000/svg"
   xmlns="http://www.w3.org/2000/svg"
   viewBox="0 0 493.57333 114.61333"
   height="114.61333"
   width="493.57333"
   xml:space="preserve"
   id="svg2"
   version="1.1"><metadata
     id="metadata8"><rdf:RDF><cc:Work
         rdf:about=""><dc:format>image/svg+xml</dc:format><dc:type
           rdf:resource="http://purl.org/dc/dcmitype/StillImage" /></cc:Work></rdf:RDF></metadata><defs
     id="defs6" /><g
     transform="matrix(1.3333333,0,0,-1.3333333,0,114.61333)"
     id="g10"><g
       transform="scale(0.1)"
       id="g12"><path
         id="path14"
         style="fill:#ffffff;fill-opacity:1;fill-rule:nonzero;stroke:none"
         d="M 389.535,0 C 217.254,102.453 0,251.348 0,514.27 v 277.617 c 79.4688,30.058 202.254,67.683 389.52,67.683 189.425,0 319.429,-40.961 389.539,-67.683 V 514.27 C 779.059,249.133 553.387,96.3398 389.535,0" /><path
         id="path16"
         style="fill:#333333;fill-opacity:1;fill-rule:nonzero;stroke:none"
         d="m 246.137,131.418 c 45.98,-35.8985 95.23,-67.6485 143.418,-96.4375 v 0 0 c 0.437,43.3203 -0.957,68.8595 28.371,99.5315 11.867,12.414 24.09,25.058 35.144,36.504 8.325,8.625 15.063,15.058 19,15.058 2.813,0 4.067,-1.472 4.067,-5.242 0,-3.867 1.718,-18.066 10.531,-35.078 10.953,-21.133 27.145,-23.859 32.324,-25.051 125.543,94.504 230.535,218.203 230.535,394.18 0,96.621 0,256.469 0,256.469 -30.957,10.523 -158.156,59.304 -360.007,59.304 -201.848,0 -329.0356,-48.781 -359.9927,-59.304 0,0 0,-159.848 0,-256.469 0,-77.352 20.2852,-144.598 53.6915,-203.699 3.332,35.625 27.4292,52.507 27.4292,87.519 0,24.422 -6.914,39.844 -6.914,60.293 0,36.973 49.918,113.031 75.805,144.024 0.758,0.906 2.441,3.074 4.524,3.074 1.855,0 3.261,-1.293 4.394,-3.031 2.637,-4.043 3.77,-6.172 6.586,-6.172 2.848,0 3.941,1.586 3.941,4.101 0,6.449 -7.453,17.188 -7.453,59.207 0,29.387 6.828,35.617 25.098,53.496 3.34,3.27 13.555,13.094 23.309,13.094 10.847,0 16.218,-6.422 22.898,-13.211 11.293,-11.488 27.043,-31.828 29.586,-35.047 0.719,-0.906 1.355,-1.738 2.898,-1.738 5.223,0 9.586,1.578 32.262,1.578 41.211,0 103.313,-6.476 135.231,-16.922 16.433,-5.379 19.859,-9.086 24.214,-9.086 2.129,0 2.313,1.395 2.313,2.5 0,2.082 -4.332,5.422 -4.332,8.254 0,1.875 1.523,3.258 3.035,4.067 23.797,12.777 44.129,22.445 62.723,22.445 10.824,0 16.168,-9.375 20.726,-18.641 3.551,-7.226 7.371,-16.929 7.371,-26.89 0,-25.211 -9.629,-40.571 -17.304,-51.348 3.671,-3.773 8.875,-9.484 12.05,-13.277 5.649,-6.743 12.434,-15.551 12.434,-24.703 0,-3.954 -1.934,-10.165 -3.031,-15.086 -0.492,-2.211 -2.434,-6.633 -6.27,-6.559 -3.461,0.07 -4.363,3.852 -4.496,7.199 -0.031,0.692 0,2.207 0,2.539 0,7.254 -2.008,17.106 -8.75,23.992 -7.746,7.926 -14.844,13.684 -23.82,13.684 -0.528,0 -2.434,0 -3.067,0 -14.73,0 -21.429,-6.437 -25.472,-10.379 -4.422,-4.308 -7.86,-10.066 -7.86,-17.832 0,-4.441 3.028,-9.711 7.059,-17.777 2.383,-4.758 8.492,-16.102 11.824,-21.938 2.906,-5.09 6.645,-6.875 10.817,-6.875 10.253,0 19.199,1.422 19.199,4.508 0,0.84 -0.457,1.551 -1.856,1.551 -0.593,0 -2.011,-0.176 -3.273,-0.176 -13.406,0 -20.574,17.051 -27.285,32.524 5.121,4.988 10.918,10.109 21.429,10.109 13.344,0 22.106,-8.961 22.106,-20.621 0,-5.793 -1.785,-10.629 -2.828,-12.809 -0.531,-1.097 -0.821,-1.773 -0.821,-2.406 0,-1.82 2.313,-2.188 5.957,-3.031 1.293,-0.297 3.774,-0.879 5.282,-1.321 3.926,-1.14 8.093,-4.523 9.855,-9.257 1.176,-3.141 3.852,-10.364 4.438,-12.114 2.207,-6.601 5.769,-16.199 5.769,-27.734 0,-11.719 -0.797,-15.262 -4.019,-27.168 -4.121,-15.223 -5.934,-21.016 -6.61,-29.363 1.418,-2.629 1.539,-3.36 2.18,-4.883 2.301,-4.844 5.297,-13.703 5.297,-23.274 0,-2.558 0,-7.597 0,-7.878 0,-15.266 -6.09,-27.141 -12.68,-36.036 -5.133,-6.925 -12.48,-16.679 -16.691,-22.089 -2.738,-3.282 -6.418,-5.645 -10.531,-5.645 -1.957,0 -4.274,0.652 -6.582,1.23 -2.563,0.645 -8.028,2.032 -10.352,2.618 -8.969,2.265 -12.289,8.125 -15.191,16.015 -0.434,1.18 -1.79,4.539 -2.207,5.606 -2.149,5.496 -3.352,9.023 -6.766,9.023 -2.543,0 -4.981,-1.672 -7.516,-5.48 -8.965,-13.485 -13.832,-18.379 -29.605,-22.266 -5.516,-1.355 -16.703,-3.691 -22.969,-5.078 -9.453,-2.098 -26.316,-6.523 -35.824,-6.523 -2.016,0 -4.141,0.117 -6.313,0.363 -12.953,1.824 -22.148,2.676 -38.289,21.941 -22.183,26.477 -19.894,30.207 -21.226,65.969 -0.149,3.992 -1.457,8.973 -5.602,8.973 -3.723,0 -5.332,-7.598 -6.691,-18.34 -1.59,-12.617 -4.5,-25.723 -10.703,-25.723 -4.344,0 -7.258,0.664 -13.942,2.844 -8.062,2.625 -28.152,9.414 -38.715,12.898 -14.379,4.758 -28.152,8.528 -33.695,21.27 -2.605,5.996 -7.426,17.16 -9.879,22.961 -1.719,4.07 -2.976,6.199 -5.656,6.199 -3.828,0 -4.68,-4.539 -5.109,-8.125 -0.485,-4.051 -1.508,-13.418 -2.016,-19.266 -2.16,-24.914 -7.141,-35.507 -17.68,-49.406 -4.836,-6.355 -9.429,-12.851 -14.773,-19.93 -11.047,-14.648 -17.703,-29.64 -17.352,-58.027 0.02,-1.848 -0.117,-12.414 0,-17.285 0.985,-42.246 11.699,-62.949 82.895,-119.668 z M 501.148,260.84 c -3.339,-0.82 -9.894,-2.442 -39.058,-2.442 -44.199,0 -51.695,10.86 -51.695,19.473 0,14.387 63.375,24.531 88.355,24.531 23.922,0 34.492,-7.695 34.492,-13.543 0,-6.789 -10.789,-22.871 -32.094,-28.019 z M 415.57,533.879 c 0,10.18 -11.453,25.09 -31.429,25.09 -17.766,0 -31.332,-13.403 -34.883,-23.879 4.258,-8.238 8.359,-16.93 25.394,-22.098 2.254,-0.683 4.512,-0.738 4.512,-2.66 0,-2.73 -2.887,-4.098 -8.949,-4.098 -19.309,0 -30.781,7.887 -35.879,14.551 -4.992,-0.691 -10.773,-2.637 -17.992,-2.894 -5.899,-0.215 -8.602,3.73 -8.602,9.004 0,3.398 1.012,7.14 3.035,11.289 1.114,2.296 2.301,4.679 3.168,6.367 3.004,5.867 7.582,18.937 25.203,28.98 2.051,1.168 7.379,4.391 10.11,5.996 9.976,5.864 17.519,7.25 29.383,7.25 0.91,0 7.5,0 8.699,0 14.219,0 21.488,-4 27.762,-9.269 12.734,-10.719 19.742,-16.551 19.742,-24.5 0,-8.836 -0.469,-15.602 -7.531,-24.914 -6.063,-7.957 -14.942,-13.239 -20.672,-13.239 -1.621,0 -2.09,0.872 -2.09,1.782 0,1.215 1.336,1.816 2.722,2.937 4.7,3.809 6.817,10.555 8.297,14.305 z m -177.851,56.976 c 4.39,0 7.719,2.907 14.34,10.219 14.804,16.367 29.101,18.555 29.101,25.555 0,3.113 -1.996,6.16 -4.082,9.418 -15.773,24.652 -22.512,37.973 -31.914,55.867 -3.406,6.481 -7.84,10.914 -11.219,10.914 -5.461,0 -11.222,-6.367 -14.554,-11.824 -4.707,-7.699 -9.403,-16.375 -9.403,-24.262 0,-11.922 2.93,-33.676 7.883,-47.609 5.352,-15.051 13.121,-28.278 19.848,-28.278 z m 286.187,32.422 c -0.707,0.407 -3.234,1.317 -3.234,3.817 0,2.883 2.09,5.867 6.324,11.543 9.758,13.082 23.16,29.113 28.07,29.113 2.399,0 3.895,-1.645 6.852,-7.258 1.758,-3.328 3.273,-8.887 3.273,-14.168 0,-17.394 -5.996,-29.605 -15.289,-43.406 -4.629,4.441 -13.242,13.055 -25.996,20.359 z M 506.723,359.512 c 0,5.898 4.847,15.051 4.847,23.222 0,9.719 -11.918,12.813 -21.172,14.094 -19.472,2.695 -25.968,1.817 -25.968,6.113 0,2.969 2.617,6.075 6.164,11.172 5.234,7.52 17.711,10.371 24.351,11.278 8.75,1.203 18.434,2.375 30.047,2.375 13,0 24.051,-1.946 29.133,-2.832 11.934,-2.071 13.789,-7.071 13.789,-12.668 0,-1.2 0,-4.188 0,-5.606 0,-5.644 -4.617,-8.543 -12.949,-10.359 -2.078,-0.449 -5,-0.977 -6.402,-1.27 -6.04,-1.25 -13.508,-2.453 -16.161,-10.078 -5.695,-16.367 -15.589,-29.199 -22.922,-28.879 -1.347,0.059 -2.757,1.086 -2.757,3.438" /><path
         id="path18"
         style="fill:#fff;fill-opacity:1;fill-rule:nonzero;stroke:none"
         d="m 470.184,143.391 c 1.019,11.179 5.953,29.832 5.953,37.441 v 0 c 0,3.77 -1.254,5.242 -4.067,5.242 -3.937,0 -10.675,-6.433 -19,-15.058 C 442.016,159.57 429.793,146.926 417.926,134.512 388.598,103.84 389.992,78.3008 389.555,34.9805 v 0 c 32.597,19.6484 62.398,38.5351 84.465,53.5859 -3.274,18.0466 -6.012,30.9966 -3.836,54.8246 z M 163.242,251.086 c -0.117,4.871 0.02,15.437 0,17.285 -0.351,28.387 6.305,43.379 17.352,58.027 5.344,7.079 9.937,13.575 14.773,19.93 10.539,13.899 15.52,24.492 17.68,49.406 0.508,5.848 1.531,15.215 2.016,19.266 0.429,3.586 1.281,8.125 5.109,8.125 2.68,0 3.937,-2.129 5.656,-6.199 2.453,-5.801 7.274,-16.965 9.879,-22.961 5.543,-12.742 19.316,-16.512 33.695,-21.27 10.563,-3.484 30.653,-10.273 38.715,-12.898 6.684,-2.18 9.598,-2.844 13.942,-2.844 6.203,0 9.113,13.106 10.703,25.723 1.359,10.742 2.968,18.34 6.691,18.34 4.145,0 5.453,-4.981 5.602,-8.973 1.332,-35.762 -0.957,-39.492 21.226,-65.969 16.141,-19.265 25.336,-20.117 38.289,-21.941 -4.808,1.433 -10.992,7 -10.992,18.699 0,2.148 0,11.445 0,12.863 0,6.426 0.766,12.969 3.949,20.36 1.5,3.488 3.258,9.777 4.914,13.625 2.821,6.55 1.469,8.211 1.469,12.832 0,4.883 -1.605,9.715 -5.465,21.414 -1.976,6.008 -4.664,14.758 -7.234,21.933 -8.043,22.434 -11.293,27.715 -38.117,31.27 -8.614,1.144 -46.25,6.48 -54.121,7.598 -30.106,4.269 -53.676,5.699 -65.946,25.871 -14.656,24.09 -13.179,53.461 -27.269,53.461 -6.688,0 -10.231,-7.481 -10.231,-18.387 0,-11.461 4.332,-30.008 4.332,-62.274 0,-27.898 -2.609,-35.671 -18.863,-56.218 -4.219,-5.332 -9.898,-13.164 -13.531,-17.735 -12.098,-15.187 -17.457,-23.742 -16.723,-41.437 1.903,-45.809 9.16,-79.473 12.5,-96.922 z m 323.153,193.965 c 1.183,-2.949 2.168,-6.301 2.168,-8.789 0,-5.625 -1.395,-7.344 -4.493,-10.664 -1.847,-1.653 -3.906,-3.391 -5.789,-5.149 -3.082,-1.609 -5.836,-3.679 -7.687,-6.336 -3.547,-5.097 -6.164,-8.203 -6.164,-11.172 0,-0.929 0.3,-1.613 0.968,-2.148 -4.3,3.184 -6.019,8.105 -6.019,12.488 0,3.918 1.285,5.989 1.285,9.68 0,3.125 -0.879,6.18 -1.41,7.957 -6.008,20.098 -16.121,44 -22.352,60.254 -6.351,16.566 -11.347,25.644 -18.523,25.644 -3.984,0 -7.535,-1.957 -11.731,-1.961 5.735,0.004 14.602,5.286 20.665,13.239 7.062,9.312 7.531,16.078 7.531,24.914 0,3.742 -1.555,7.015 -4.528,10.551 9.09,-9.266 14.914,-21.059 21.075,-34.114 13.492,-28.613 25.183,-59.953 35.004,-84.394 z m 94.347,59.758 v 0 c 1.176,-3.141 3.852,-10.364 4.438,-12.114 2.207,-6.601 5.769,-16.199 5.769,-27.734 0,-11.719 -0.797,-15.262 -4.019,-27.168 -4.121,-15.223 -5.934,-21.016 -6.61,-29.363 -1.144,2.363 -22.804,39.734 -24.461,42.773 -1.656,3.035 -3.039,5.996 -3.039,9.512 0,3.812 1.637,6.113 6.254,9.015 2.778,1.747 6.371,3.805 8.797,5.047 11.152,5.715 13.824,12.774 13.836,20.325 0.008,3.171 -0.465,6.425 -0.965,9.707" /><path
         id="path20"
         style="fill:#fff;fill-opacity:1;fill-rule:nonzero;stroke:none"
         d="m 1913.95,734.809 c -3.63,1.281 -17.59,5.796 -30.37,5.796 -27.76,0 -38.85,-15.066 -38.85,-28.359 0,-17.379 12.91,-25.418 27.8,-29.168 l 23.68,-6.203 c 33.34,-8.855 70.25,-23.023 70.25,-72.437 0,-45.325 -29.14,-75.809 -93.57,-75.809 -24.93,0 -50.83,2.73 -81.26,13.293 v 63.047 h 42.83 v -30.778 c 6.79,-1.875 26.23,-6.711 42.64,-6.711 25.3,0 37.56,10.551 37.56,28.614 0,14.941 -8.44,25.754 -38.87,33.929 l -20.38,5.614 c -46.62,12.613 -62.48,35.039 -62.48,71.843 0,37.829 25.25,67.883 89.36,67.883 27.52,0 55.03,-4.773 74.46,-12.609 v -56.91 h -42.8 z m 308.66,-126.434 c -38.85,0 -51.11,-8.18 -51.11,-23.516 0,-10.566 7.49,-21.468 26.24,-21.468 19.08,0 38.16,14.968 38.16,44.984 z m 13.98,37.832 c 0,24.613 -11.97,34.078 -36.05,34.078 -15.37,0 -26.41,-3.984 -29.56,-5.113 v -23.859 h -38.68 v 45.328 c 6.39,3.617 35.01,18.406 67.65,18.406 49.64,0 81.6,-20.199 81.6,-70.133 0,-29.305 0,-77.434 0,-77.434 h 18.42 v -34.765 h -57.71 l -1.4,24.269 h -0.68 c -3.54,-4.972 -16.54,-28.355 -56.76,-28.355 -40.21,0 -59.64,23.855 -59.64,51.801 0,33.902 26.03,57.23 91.39,57.23 2.84,0 18.43,0 21.42,0 z m -226.56,102.914 h 47.71 v -38.168 h 47.71 v -34.762 h -47.71 v -79.402 c 0,-23.898 8.36,-31.355 28.13,-31.355 7.4,0 17.53,1.98 21.24,2.722 v -33.855 c -3.9,-1.18 -21.24,-5.672 -39.24,-5.672 -35.11,0 -57.84,18.871 -57.84,50.223 v 97.339 h -24.2 v 34.762 h 24.2 z m 321.52,0 h 47.71 v -38.168 h 47.71 v -34.762 h -47.71 v -79.402 c 0,-23.898 8.36,-31.355 28.13,-31.355 7.4,0 17.53,1.98 21.25,2.722 v -33.855 c -3.92,-1.18 -21.25,-5.672 -39.26,-5.672 -35.1,0 -57.83,18.871 -57.83,50.223 v 97.339 h -24.2 v 34.762 h 24.2 z m -760.65,-72.93 h -23.17 v 34.762 h 65.46 l 1.31,-23.324 h 0.67 c 3.16,4.93 18.7,27.418 54.77,27.418 45.24,0 68.97,-31.883 68.97,-71.07 V 567.48 h 20.45 v -34.765 h -87.58 v 34.765 h 19.43 v 68.27 c 0,24.852 -13.78,38.395 -36.43,38.395 -20.44,0 -36.16,-11.477 -36.16,-38.395 v -68.27 h 20.45 v -34.765 h -87.6 v 34.765 h 19.43 z m -232.37,0 h -23.17 v 34.762 h 65.45 l 1.31,-23.324 h 0.69 c 3.15,4.93 18.69,27.418 54.76,27.418 45.24,0 68.98,-31.883 68.98,-71.07 V 567.48 H 1527 v -34.765 h -87.59 v 34.765 h 19.42 v 68.27 c 0,24.852 -13.78,38.395 -36.42,38.395 -20.44,0 -36.17,-11.477 -36.17,-38.395 v -68.27 h 20.45 v -34.765 h -87.59 v 34.765 h 19.43 z M 2563.48,643.82 c 0,24.532 -13.96,38.508 -36.12,38.508 -21.81,0 -34.42,-14.308 -36.47,-38.508 z m -72.25,-32.715 c 1.37,-28.292 23.18,-45.671 56.58,-45.671 29.4,0 47.44,8.125 55.21,11.277 v -36.836 c -7.26,-2.906 -27.14,-11.246 -65.78,-11.246 -68.84,0 -97.8,42.945 -97.8,92.351 0,55.555 33.74,94.067 89.63,94.067 61.33,0 86.22,-46.356 86.22,-103.942 z M 1242.5,643.82 c 0,24.532 -13.97,38.508 -36.12,38.508 -21.81,0 -34.41,-14.308 -36.46,-38.508 z m -72.24,-32.715 c 1.37,-28.292 23.17,-45.671 56.57,-45.671 29.4,0 47.44,8.125 55.22,11.277 v -36.836 c -7.27,-2.906 -27.14,-11.246 -65.79,-11.246 -68.83,0 -97.81,42.945 -97.81,92.351 0,55.555 33.74,94.067 89.64,94.067 61.34,0 86.22,-46.356 86.22,-103.942 z m -153.63,48.387 c 24.88,0 41.12,14.305 41.12,38.496 0,21.969 -14.19,38.528 -41.8,38.528 h -30.446 v -77.024 z m -80.884,77.024 H 912.23 v 34.757 h 109.53 c 57.59,0 87.67,-30.242 87.67,-73.285 0,-51.097 -40.3,-73.258 -87.67,-73.258 h -36.256 v -57.25 h 23.516 v -34.765 h -96.79 v 34.765 h 23.516 v 169.036" /><path
         id="path22"
         style="fill:#fff;fill-opacity:1;fill-rule:nonzero;stroke:none"
         d="M 936.781,413.105 V 222.844 h -24.558 v 190.261 h 24.558" /><path
         id="path24"
         style="fill:#fff;fill-opacity:1;fill-rule:nonzero;stroke:none"
         d="m 981.664,322.492 c 0,14.11 -0.281,25.684 -1.121,36.981 h 22.007 l 1.42,-22.586 h 0.57 c 6.76,12.988 22.57,25.691 45.16,25.691 18.91,0 48.27,-11.297 48.27,-58.152 v -81.582 h -24.84 v 78.758 c 0,22.023 -8.19,40.363 -31.62,40.363 -16.37,0 -29.07,-11.574 -33.31,-25.402 -1.13,-3.106 -1.69,-7.344 -1.69,-11.571 v -82.148 h -24.846 v 99.648" /><path
         id="path26"
         style="fill:#fff;fill-opacity:1;fill-rule:nonzero;stroke:none"
         d="m 1140.89,222.844 v 117.715 h -19.19 v 18.914 h 19.19 v 6.484 c 0,19.199 4.24,36.699 15.81,47.715 9.32,9.035 21.74,12.695 33.31,12.695 8.75,0 16.38,-1.972 21.18,-3.945 l -3.39,-19.199 c -3.67,1.699 -8.75,3.105 -15.81,3.105 -21.18,0 -26.54,-18.633 -26.54,-39.519 v -7.336 h 33.03 v -18.914 h -33.03 V 222.844 h -24.56" /><path
         id="path28"
         style="fill:#fff;fill-opacity:1;fill-rule:nonzero;stroke:none"
         d="m 1232.37,290.871 c 0,-29.922 17.21,-52.5 41.49,-52.5 23.71,0 41.51,22.293 41.51,53.067 0,23.152 -11.59,52.507 -40.94,52.507 -29.36,0 -42.06,-27.097 -42.06,-53.074 z m 108.4,1.414 c 0,-50.527 -35,-72.547 -68.03,-72.547 -36.98,0 -65.5,27.098 -65.5,70.293 0,45.723 29.92,72.547 67.75,72.547 39.24,0 65.78,-28.515 65.78,-70.293" /><path
         id="path30"
         style="fill:#fff;fill-opacity:1;fill-rule:nonzero;stroke:none"
         d="m 1372.11,316.848 c 0,16.082 -0.28,29.922 -1.12,42.625 h 21.73 l 0.85,-26.817 h 1.13 c 6.21,18.34 21.17,29.922 37.82,29.922 2.83,0 4.8,-0.281 7.06,-0.848 v -23.429 c -2.53,0.558 -5.08,0.84 -8.46,0.84 -17.51,0 -29.93,-13.262 -33.31,-31.895 -0.57,-3.387 -1.14,-7.344 -1.14,-11.57 v -72.832 h -24.56 v 94.004" /><path
         id="path32"
         style="fill:#fff;fill-opacity:1;fill-rule:nonzero;stroke:none"
         d="m 1465.56,322.492 c 0,14.11 -0.28,25.684 -1.12,36.981 h 21.73 l 1.13,-22.02 h 0.85 c 7.62,12.988 20.32,25.125 42.9,25.125 18.63,0 32.75,-11.297 38.68,-27.383 h 0.56 c 4.24,7.618 9.6,13.547 15.24,17.785 8.19,6.211 17.23,9.598 30.21,9.598 18.06,0 44.88,-11.855 44.88,-59.285 v -80.449 h -24.28 v 77.344 c 0,26.257 -9.59,42.058 -29.64,42.058 -14.11,0 -25.11,-10.437 -29.35,-22.578 -1.13,-3.387 -1.97,-7.91 -1.97,-12.422 v -84.402 h -24.28 v 81.863 c 0,21.738 -9.6,37.539 -28.52,37.539 -15.53,0 -26.81,-12.422 -30.77,-24.832 -1.41,-3.672 -1.97,-7.91 -1.97,-12.141 v -82.429 h -24.28 v 99.648" /><path
         id="path34"
         style="fill:#fff;fill-opacity:1;fill-rule:nonzero;stroke:none"
         d="m 1772.99,292.57 c -27.1,0.567 -57.87,-4.238 -57.87,-30.773 0,-16.094 10.73,-23.711 23.44,-23.711 17.78,0 29.07,11.289 33.03,22.863 0.84,2.539 1.4,5.371 1.4,7.91 z m 3.67,-69.726 -1.97,17.215 h -0.85 c -7.62,-10.723 -22.3,-20.321 -41.78,-20.321 -27.66,0 -41.77,19.481 -41.77,39.239 0,33.027 29.35,51.093 82.14,50.808 v 2.824 c 0,11.289 -3.11,31.621 -31.05,31.621 -12.7,0 -25.98,-3.957 -35.57,-10.167 l -5.65,16.378 c 11.3,7.332 27.67,12.137 44.89,12.137 41.78,0 51.94,-28.515 51.94,-55.898 v -51.094 c 0,-11.856 0.56,-23.426 2.26,-32.742 h -22.59" /><path
         id="path36"
         style="fill:#fff;fill-opacity:1;fill-rule:nonzero;stroke:none"
         d="m 1865.88,398.711 v -39.238 h 35.57 v -18.914 h -35.57 v -73.684 c 0,-16.934 4.81,-26.531 18.64,-26.531 6.49,0 11.28,0.847 14.39,1.699 l 1.13,-18.633 c -4.8,-1.984 -12.42,-3.39 -22.02,-3.39 -11.57,0 -20.89,3.671 -26.81,10.441 -7.07,7.344 -9.6,19.48 -9.6,35.574 v 74.524 h -21.18 v 18.914 h 21.18 v 32.746 l 24.27,6.492" /><path
         id="path38"
         style="fill:#fff;fill-opacity:1;fill-rule:nonzero;stroke:none"
         d="m 1929.41,222.844 v 136.629 h 24.84 V 222.844 Z m 27.66,175.019 c 0.29,-8.468 -5.92,-15.246 -15.81,-15.246 -8.75,0 -14.96,6.778 -14.96,15.246 0,8.75 6.5,15.528 15.53,15.528 9.32,0 15.24,-6.778 15.24,-15.528" /><path
         id="path40"
         style="fill:#fff;fill-opacity:1;fill-rule:nonzero;stroke:none"
         d="m 2010.72,290.871 c 0,-29.922 17.21,-52.5 41.49,-52.5 23.71,0 41.51,22.293 41.51,53.067 0,23.152 -11.59,52.507 -40.94,52.507 -29.36,0 -42.06,-27.097 -42.06,-53.074 z m 108.4,1.414 c 0,-50.527 -35,-72.547 -68.03,-72.547 -36.98,0 -65.5,27.098 -65.5,70.293 0,45.723 29.93,72.547 67.75,72.547 39.24,0 65.78,-28.515 65.78,-70.293" /><path
         id="path42"
         style="fill:#fff;fill-opacity:1;fill-rule:nonzero;stroke:none"
         d="m 2150.46,322.492 c 0,14.11 -0.28,25.684 -1.12,36.981 h 22.01 l 1.42,-22.586 h 0.56 c 6.77,12.988 22.58,25.691 45.17,25.691 18.91,0 48.27,-11.297 48.27,-58.152 v -81.582 h -24.84 v 78.758 c 0,22.023 -8.19,40.363 -31.62,40.363 -16.37,0 -29.08,-11.574 -33.31,-25.402 -1.13,-3.106 -1.69,-7.344 -1.69,-11.571 v -82.148 h -24.85 v 99.648" /><path
         id="path44"
         style="fill:#fff;fill-opacity:1;fill-rule:nonzero;stroke:none"
         d="m 2392.41,392.219 h -57.87 v 20.886 h 140.85 v -20.886 h -58.14 V 222.844 h -24.84 v 169.375" /><path
         id="path46"
         style="fill:#fff;fill-opacity:1;fill-rule:nonzero;stroke:none"
         d="m 2562.35,304.426 c 0.28,15.808 -6.49,40.371 -34.44,40.371 -25.12,0 -36.13,-23.156 -38.11,-40.371 z m -72.82,-17.785 c 0.55,-33.594 22.01,-47.422 46.85,-47.422 17.78,0 28.52,3.105 37.82,7.051 l 4.24,-17.782 c -8.75,-3.957 -23.71,-8.468 -45.45,-8.468 -42.06,0 -67.19,27.668 -67.19,68.878 0,41.211 24.28,73.68 64.09,73.68 44.6,0 56.45,-39.238 56.45,-64.363 0,-5.078 -0.55,-9.035 -0.84,-11.574 h -95.97" /><path
         id="path48"
         style="fill:#fff;fill-opacity:1;fill-rule:nonzero;stroke:none"
         d="m 2714.53,227.922 c -6.5,-3.391 -20.89,-7.902 -39.24,-7.902 -41.21,0 -68.04,27.949 -68.04,69.726 0,42.063 28.8,72.551 73.4,72.551 14.68,0 27.66,-3.672 34.44,-7.063 l -5.64,-19.199 c -5.94,3.391 -15.25,6.496 -28.8,6.496 -31.34,0 -48.27,-23.144 -48.27,-51.66 0,-31.613 20.32,-51.094 47.42,-51.094 14.12,0 23.44,3.672 30.49,6.778 l 4.24,-18.633" /><path
         id="path50"
         style="fill:#fff;fill-opacity:1;fill-rule:nonzero;stroke:none"
         d="m 2743.61,423.262 h 24.84 V 338.02 h 0.57 c 3.94,7.05 10.15,13.261 17.78,17.5 7.34,4.238 16.09,7.058 25.4,7.058 18.35,0 47.72,-11.297 47.72,-58.437 v -81.297 h -24.85 v 78.476 c 0,22.02 -8.18,40.645 -31.62,40.645 -16.08,0 -28.79,-11.289 -33.31,-24.836 -1.41,-3.387 -1.69,-7.059 -1.69,-11.856 v -82.429 h -24.84 v 200.418" /><path
         id="path52"
         style="fill:#fff;fill-opacity:1;fill-rule:nonzero;stroke:none"
         d="m 2900.3,322.492 c 0,14.11 -0.29,25.684 -1.13,36.981 h 22.02 l 1.41,-22.586 h 0.57 c 6.77,12.988 22.58,25.691 45.16,25.691 18.91,0 48.28,-11.297 48.28,-58.152 v -81.582 h -24.85 v 78.758 c 0,22.023 -8.19,40.363 -31.62,40.363 -16.37,0 -29.07,-11.574 -33.31,-25.402 -1.12,-3.106 -1.69,-7.344 -1.69,-11.571 v -82.148 h -24.84 v 99.648" /><path
         id="path54"
         style="fill:#fff;fill-opacity:1;fill-rule:nonzero;stroke:none"
         d="m 3072.23,290.871 c 0,-29.922 17.22,-52.5 41.49,-52.5 23.72,0 41.51,22.293 41.51,53.067 0,23.152 -11.58,52.507 -40.94,52.507 -29.35,0 -42.06,-27.097 -42.06,-53.074 z m 108.4,1.414 c 0,-50.527 -35,-72.547 -68.03,-72.547 -36.98,0 -65.5,27.098 -65.5,70.293 0,45.723 29.93,72.547 67.76,72.547 39.24,0 65.77,-28.515 65.77,-70.293" /><path
         id="path56"
         style="fill:#fff;fill-opacity:1;fill-rule:nonzero;stroke:none"
         d="m 3211.98,423.262 h 24.84 V 222.844 h -24.84 v 200.418" /><path
         id="path58"
         style="fill:#fff;fill-opacity:1;fill-rule:nonzero;stroke:none"
         d="m 3293.84,290.871 c 0,-29.922 17.22,-52.5 41.5,-52.5 23.71,0 41.5,22.293 41.5,53.067 0,23.152 -11.58,52.507 -40.94,52.507 -29.35,0 -42.06,-27.097 -42.06,-53.074 z m 108.4,1.414 c 0,-50.527 -35,-72.547 -68.03,-72.547 -36.98,0 -65.49,27.098 -65.49,70.293 0,45.723 29.93,72.547 67.75,72.547 39.24,0 65.77,-28.515 65.77,-70.293" /><path
         id="path60"
         style="fill:#fff;fill-opacity:1;fill-rule:nonzero;stroke:none"
         d="m 3525.62,305.559 c 0,4.226 -0.28,7.898 -1.42,11.289 -4.51,14.394 -16.65,26.25 -34.71,26.25 -23.72,0 -40.66,-20.039 -40.66,-51.66 0,-26.817 13.56,-49.114 40.37,-49.114 15.25,0 29.08,9.59 34.44,25.403 1.41,4.238 1.98,9.031 1.98,13.269 z m 25.68,53.914 c -0.56,-9.883 -1.13,-20.887 -1.13,-37.547 v -79.328 c 0,-31.328 -6.21,-50.528 -19.47,-62.383 -13.27,-12.422 -32.46,-16.367 -49.69,-16.367 -16.37,0 -34.43,3.945 -45.45,11.289 l 6.21,18.918 c 9.04,-5.657 23.16,-10.735 40.09,-10.735 25.41,0 44.03,13.274 44.03,47.707 v 15.243 h -0.55 c -7.63,-12.704 -22.31,-22.86 -43.48,-22.86 -33.88,0 -58.15,28.789 -58.15,66.621 0,46.289 30.2,72.547 61.54,72.547 23.71,0 36.7,-12.422 42.63,-23.719 h 0.56 l 1.12,20.614 h 21.74" /><path
         id="path62"
         style="fill:#fff;fill-opacity:1;fill-rule:nonzero;stroke:none"
         d="m 3600.44,359.473 29.93,-80.743 c 3.1,-9.031 6.49,-19.753 8.75,-27.937 h 0.56 c 2.54,8.184 5.36,18.633 8.75,28.504 l 27.1,80.176 h 26.26 l -37.26,-97.391 c -17.79,-46.855 -29.93,-70.859 -46.87,-85.539 -12.14,-10.723 -24.27,-14.961 -30.48,-16.082 l -6.21,20.887 c 6.21,1.972 14.4,5.929 21.73,12.14 6.78,5.36 15.24,14.961 20.89,27.664 1.13,2.539 1.98,4.512 1.98,5.93 0,1.406 -0.57,3.379 -1.7,6.484 l -50.53,125.907 h 27.1" /></g></g></svg>