<?xml version="1.0" encoding="iso-8859-1"?>
<!-- Generator: Adobe Illustrator 19.0.0, SVG Export Plug-In . SVG Version: 6.00 Build 0)  -->
<svg version="1.1" id="Layer_1" xmlns="http://www.w3.org/2000/svg" xmlns:xlink="http://www.w3.org/1999/xlink" x="0px" y="0px"
	 viewBox="0 0 512 512" style="enable-background:new 0 0 512 512;" xml:space="preserve">
<g>
	<g>
		<g>
			<path d="M73.836,495.832h-1.078c-4.465,0-8.084,3.619-8.084,8.084c0,4.466,3.62,8.084,8.084,8.084h1.078
				c4.465,0,8.084-3.618,8.084-8.084C81.92,499.45,78.3,495.832,73.836,495.832z"/>
			<path d="M124.523,357.98c-3.157-3.156-8.276-3.156-11.432,0l-38.109,38.109c-3.157,3.158-3.157,8.276,0,11.433
				c1.578,1.578,3.648,2.367,5.716,2.367s4.138-0.789,5.716-2.367l38.109-38.109C127.68,366.256,127.68,361.138,124.523,357.98z"/>
			<path d="M70.063,226.503c0-4.466-3.62-8.084-8.084-8.084H8.084c-4.465,0-8.084,3.618-8.084,8.084c0,4.466,3.62,8.084,8.084,8.084
				h53.895C66.444,234.588,70.063,230.968,70.063,226.503z"/>
			<path d="M113.089,95.026c1.578,1.578,3.648,2.367,5.716,2.367s4.138-0.789,5.716-2.367c3.157-3.158,3.157-8.276,0-11.433
				l-38.109-38.11c-3.157-3.156-8.276-3.156-11.432,0c-3.157,3.158-3.157,8.276,0,11.433L113.089,95.026z"/>
			<path d="M256,70.063c4.465,0,8.084-3.618,8.084-8.084V8.084C264.084,3.619,260.465,0,256,0c-4.465,0-8.084,3.619-8.084,8.084
				v53.895C247.916,66.445,251.535,70.063,256,70.063z"/>
			<path d="M30.72,495.832h-1.078c-4.465,0-8.084,3.619-8.084,8.084c0,4.466,3.62,8.084,8.084,8.084h1.078
				c4.465,0,8.084-3.618,8.084-8.084C38.804,499.45,35.185,495.832,30.72,495.832z"/>
			<path d="M246.299,317.979c4.465,0,8.084-3.618,8.084-8.084c0-4.466-3.62-8.084-8.084-8.084h-1.078
				c-4.465,0-8.084,3.618-8.084,8.084c0,4.466,3.62,8.084,8.084,8.084H246.299z"/>
			<path d="M425.587,45.483l-38.109,38.109c-3.157,3.158-3.157,8.276,0,11.433c1.578,1.578,3.648,2.367,5.716,2.367
				s4.138-0.789,5.716-2.367l38.109-38.109c3.157-3.158,3.157-8.276,0-11.433C433.862,42.328,428.743,42.328,425.587,45.483z"/>
			<path d="M503.916,218.419h-53.895c-4.465,0-8.084,3.618-8.084,8.084c0,4.466,3.62,8.084,8.084,8.084h53.895
				c4.465,0,8.084-3.619,8.084-8.084C512,222.038,508.38,218.419,503.916,218.419z"/>
			<path d="M278.18,316.977c0.47,0,0.948-0.041,1.426-0.126c34.727-6.181,59.931-36.307,59.931-71.629v-75.453
				c0-4.466-3.62-8.084-8.084-8.084s-8.084,3.619-8.084,8.084v75.453c0,27.474-19.596,50.906-46.596,55.712
				c-4.396,0.783-7.324,4.98-6.542,9.376C270.927,314.226,274.335,316.977,278.18,316.977z"/>
			<path d="M398.911,357.98c-3.157-3.156-8.276-3.156-11.432,0c-3.157,3.158-3.157,8.276,0,11.433l38.109,38.109
				c1.578,1.578,3.648,2.367,5.716,2.367s4.138-0.789,5.716-2.367c3.157-3.158,3.157-8.276,0-11.433L398.911,357.98z"/>
			<path d="M406.905,495.832h-46.026c0.127-0.883,0.216-1.777,0.216-2.695c0-28.231-22.969-51.2-51.2-51.2H307.2v-24.253
				c0-10.401-8.463-18.863-18.863-18.863h-2.695v-39.27c45.158-7.426,81.603-41.045,93.161-84.688h6.544
				c16.345,0,29.642-13.298,29.642-29.642v-64.674c0-16.344-13.297-29.642-29.642-29.642h-2.695v-2.695
				c0-16.344-13.297-29.642-29.642-29.642H158.989c-16.345,0-29.642,13.298-29.642,29.642v2.695h-2.695
				c-16.345,0-29.642,13.298-29.642,29.642v64.674c0,16.344,13.297,29.642,29.642,29.642h6.544
				c11.558,43.643,48.003,77.262,93.161,84.688v39.27h-2.695c-10.401,0-18.863,8.463-18.863,18.863v24.253h-2.695
				c-28.231,0-51.2,22.969-51.2,51.2c0,0.917,0.088,1.812,0.216,2.695h-46.026c-4.465,0-8.084,3.619-8.084,8.084
				c0,4.466,3.62,8.084,8.084,8.084h301.811c4.465,0,8.084-3.618,8.084-8.084C414.989,499.45,411.37,495.832,406.905,495.832z
				 M382.653,245.221v-78.147h2.695c7.43,0,13.474,6.044,13.474,13.474v64.674c0,7.43-6.044,13.474-13.474,13.474h-3.483
				C382.379,254.273,382.653,249.778,382.653,245.221z M126.653,258.695c-7.43,0-13.474-6.044-13.474-13.474v-64.674
				c0-7.43,6.044-13.474,13.474-13.474h2.695v78.147c0,4.557,0.274,9.052,0.788,13.474H126.653z M145.516,245.221V148.21
				c0-7.43,6.044-13.474,13.474-13.474H353.01c7.43,0,13.474,6.044,13.474,13.474v97.011c0,54.978-44.727,99.705-99.705,99.705
				h-21.558C190.243,344.926,145.516,300.199,145.516,245.221z M269.474,361.06v37.761h-26.947V361.06
				c0.896,0.021,1.794,0.034,2.695,0.034h21.558C267.68,361.095,268.578,361.081,269.474,361.06z M220.968,417.684
				c0-1.486,1.209-2.695,2.695-2.695h64.674c1.485,0,2.695,1.208,2.695,2.695v24.253h-70.063V417.684z M342.232,495.832H169.768
				c-1.485,0-2.695-1.208-2.695-2.695c0-19.317,15.716-35.032,35.032-35.032h107.789c19.316,0,35.032,15.715,35.032,35.032
				C344.926,494.623,343.717,495.832,342.232,495.832z"/>
		</g>
	</g>
</g>
<g>
</g>
<g>
</g>
<g>
</g>
<g>
</g>
<g>
</g>
<g>
</g>
<g>
</g>
<g>
</g>
<g>
</g>
<g>
</g>
<g>
</g>
<g>
</g>
<g>
</g>
<g>
</g>
<g>
</g>
</svg>
