<?xml version="1.0" encoding="iso-8859-1"?>
<!-- Generator: Adobe Illustrator 19.0.0, SVG Export Plug-In . SVG Version: 6.00 Build 0)  -->
<svg version="1.1" id="Capa_1" xmlns="http://www.w3.org/2000/svg" xmlns:xlink="http://www.w3.org/1999/xlink" x="0px" y="0px"
	 viewBox="0 0 512.001 512.001" style="enable-background:new 0 0 512.001 512.001;" xml:space="preserve">
<g>
	<g>
		<path fill="#ffffff" d="M490.581,71.662c-15.832-24.81-42.612-39.171-75.887-40.872V7.63c0-4.214-3.416-7.63-7.63-7.63h-54.93
			c-4.214,0-7.63,3.416-7.63,7.63c0,4.214,3.416,7.63,7.63,7.63h47.3v48.418c0,102.568-38.82,194.294-96.597,228.25
			c-20.483,12.037-33.183,34.502-33.146,58.629l0.035,21.98h-27.444l0.033-21.984c0.036-24.126-12.666-46.588-33.146-58.622
			c-57.78-33.954-96.6-125.681-96.6-228.252V15.259h203.962c4.214,0,7.63-3.416,7.63-7.63c0-4.214-3.416-7.63-7.63-7.63H104.939
			c-4.214,0-7.63,3.416-7.63,7.63v23.161C64.037,32.493,37.26,46.854,21.43,71.663c-18.112,28.38-18.716,65.734-1.658,102.483
			c12.961,27.911,38.504,51.287,75.919,69.48c27.896,13.564,52.31,19.158,55.001,19.751l6.223,1.372
			c13.287,17.161,28.27,30.784,44.524,40.335c15.83,9.302,25.645,26.716,25.618,45.446l-0.033,22.007h-43.973
			c-20.695,0-37.471,16.777-37.471,37.471v9.323h-20.854c-4.214,0-7.63,3.416-7.63,7.63v77.41c0,4.214,3.416,7.63,7.63,7.63h48.37
			c4.214,0,7.63-3.416,7.63-7.63s-3.416-7.63-7.63-7.63h-40.741V434.59h20.854h67.004h71.584H358.8h20.854v62.151H208.702
			c-4.214,0-7.63,3.416-7.63,7.63c0,4.214,3.416,7.63,7.63,7.63h178.582c4.214,0,7.63-3.416,7.63-7.63v-77.41
			c0-4.214-3.416-7.63-7.63-7.63H366.43v-9.323c0-20.694-16.777-37.471-37.471-37.471h-43.974l-0.035-22.005
			c-0.029-18.73,9.788-36.146,25.618-45.45c16.254-9.551,31.235-23.174,44.522-40.334l6.23-1.372
			c2.697-0.595,27.148-6.21,54.994-19.75c37.417-18.194,62.959-41.57,75.914-69.482C509.284,137.4,508.684,100.049,490.581,71.662z
			 M97.515,76.671c1.413,46.479,10.411,90.874,26.27,129.477c-2.044-0.89-4.059-1.797-6.027-2.726
			c-19.81-9.343-45.688-25.35-56.466-48.56c-10.346-22.28-10.809-43.629-1.27-58.574C67.294,84.885,80.472,78.051,97.515,76.671z
			 M102.363,229.902c-23.497-11.424-54.498-31.487-68.751-62.182c-14.82-31.928-14.571-63.948,0.682-87.85
			c12.954-20.302,35.171-32.148,63.016-33.788v15.313C74.905,62.948,57.24,72.268,47.158,88.081
			c-12.398,19.423-12.291,46.106,0.294,73.207c12.703,27.356,41.705,45.516,63.792,55.932c6.828,3.225,14.105,6.216,21.641,8.941
			c3.452,6.875,7.101,13.432,10.939,19.645C134.21,243.016,118.846,237.916,102.363,229.902z M328.959,387.795
			c12.248,0,22.212,9.964,22.212,22.212v9.323h-59.374h-71.583h-59.374v-9.323c0-12.248,9.964-22.212,22.212-22.212h51.591h42.725
			H328.959z M414.491,76.67c17.038,1.379,30.219,8.216,37.499,19.617c9.531,14.947,9.064,36.296-1.281,58.573
			c-10.783,23.22-36.657,39.224-56.466,48.561c-1.97,0.93-3.983,1.834-6.02,2.721C404.079,167.541,413.077,123.148,414.491,76.67z
			 M478.388,167.719c-14.249,30.695-45.249,50.758-68.747,62.183c-16.462,8.004-31.839,13.108-41.46,15.901
			c3.84-6.216,7.49-12.776,10.943-19.655c7.494-2.705,14.767-5.69,21.626-8.926c22.089-10.412,51.09-28.568,63.797-55.935
			c12.583-27.096,12.695-53.778,0.305-73.207c-10.095-15.813-27.761-25.134-50.159-26.685V46.083
			c27.847,1.637,50.067,13.484,63.021,33.785C492.962,103.774,493.207,135.794,478.388,167.719z"/>
	</g>
</g>
<g>
</g>
<g>
</g>
<g>
</g>
<g>
</g>
<g>
</g>
<g>
</g>
<g>
</g>
<g>
</g>
<g>
</g>
<g>
</g>
<g>
</g>
<g>
</g>
<g>
</g>
<g>
</g>
<g>
</g>
</svg>
