<?xml version="1.0" encoding="iso-8859-1"?>
<!-- Generator: Adobe Illustrator 19.0.0, SVG Export Plug-In . SVG Version: 6.00 Build 0)  -->
<svg version="1.1" id="Capa_1" xmlns="http://www.w3.org/2000/svg" xmlns:xlink="http://www.w3.org/1999/xlink" x="0px" y="0px"
	 viewBox="0 0 512 512" style="enable-background:new 0 0 512 512;" xml:space="preserve">
<g>
	<g>
		<path fill="#ffffff" d="M501.961,245.921c-0.39,0-0.779,0.021-1.169,0.033c-9.819-0.598-17.484-8.727-17.484-18.606v-81.277
			c0-5.544-4.496-10.039-10.039-10.039c-5.544,0-10.039,4.496-10.039,10.039v81.277c0,11.333,4.868,21.556,12.66,28.652
			c-7.792,7.096-12.66,17.319-12.66,28.652v158.6c0,10.285-8.368,18.653-18.653,18.653c-5.544,0-10.039,4.496-10.039,10.039
			s4.496,10.039,10.039,10.039c21.356,0,38.731-17.375,38.731-38.731v-158.6c0-9.88,7.665-18.008,17.484-18.606
			c0.39,0.012,0.779,0.033,1.169,0.033c5.544,0,10.039-4.576,10.039-10.12S507.504,245.921,501.961,245.921z"/>
	</g>
</g>
<g>
	<g>
		<path fill="#ffffff" d="M444.577,30.017c-5.544,0-10.039,4.496-10.039,10.039c0,5.544,4.496,10.039,10.039,10.039
			c10.285,0,18.653,8.368,18.653,18.653v16.585c0,5.544,4.496,10.039,10.039,10.039s10.039-4.496,10.039-10.039V68.749
			C483.308,47.392,465.933,30.017,444.577,30.017z"/>
	</g>
</g>
<g>
	<g>
		<path fill="#ffffff" d="M67.423,461.904c-10.285,0-18.653-8.368-18.653-18.653v-158.6c0-11.333-4.868-21.556-12.66-28.652
			c7.792-7.096,12.66-17.319,12.66-28.652v-158.6c0-10.285,8.368-18.653,18.653-18.653c5.545,0,10.039-4.496,10.039-10.039
			c0-5.544-4.495-10.039-10.039-10.039c-21.356,0-38.731,17.375-38.731,38.731v158.6c0,9.878-7.663,18.005-17.48,18.606
			c-0.391-0.012-0.782-0.033-1.173-0.033C4.495,245.921,0,250.497,0,256.04c0,5.544,4.495,10.039,10.039,10.039
			c0.391,0,0.782-0.021,1.173-0.033c9.817,0.6,17.48,8.728,17.48,18.606v158.6c0,21.356,17.375,38.731,38.731,38.731
			c5.545,0,10.039-4.496,10.039-10.039S72.968,461.904,67.423,461.904z"/>
	</g>
</g>
<g>
	<g>
		<path fill="#ffffff" d="M145.294,64.934c-3.752-1.551-8.071-0.695-10.941,2.177l-34.384,34.384c-3.92,3.92-3.92,10.277,0,14.198
			c3.92,3.919,10.277,3.919,14.197,0l17.245-17.246v61.227c0.001,5.544,4.496,10.039,10.04,10.039
			c5.545,0,10.039-4.496,10.039-10.039V74.209C151.491,70.148,149.044,66.488,145.294,64.934z"/>
	</g>
</g>
<g>
	<g>
		<path fill="#ffffff" d="M145.294,343.051c-3.752-1.552-8.071-0.695-10.94,2.176l-34.384,34.383c-3.92,3.92-3.921,10.277,0,14.198
			c3.921,3.919,10.278,3.92,14.198,0l17.246-17.246v61.228c-0.001,5.545,4.494,10.039,10.038,10.039
			c5.545,0,10.039-4.496,10.039-10.039v-85.465C151.491,348.265,149.044,344.605,145.294,343.051z"/>
	</g>
</g>
<g>
	<g>
		<path fill="#ffffff" d="M233.756,343.051c-3.753-1.552-8.07-0.695-10.941,2.176l-34.383,34.383c-3.92,3.92-3.92,10.277,0,14.198
			c3.92,3.919,10.277,3.919,14.198,0l17.245-17.245v61.227c-0.001,5.545,4.494,10.039,10.038,10.039s10.039-4.496,10.039-10.039
			v-85.465C239.953,348.265,237.507,344.605,233.756,343.051z"/>
	</g>
</g>
<g>
	<g>
		<path fill="#ffffff" d="M408.774,203.867c-3.752-1.551-8.071-0.694-10.941,2.177l-34.383,34.383c-3.92,3.92-3.92,10.277,0,14.198
			c3.921,3.919,10.276,3.919,14.198,0l17.245-17.245v61.227c-0.001,5.545,4.494,10.039,10.038,10.039
			c5.544,0,10.039-4.496,10.039-10.039v-85.465C414.971,209.082,412.524,205.421,408.774,203.867z"/>
	</g>
</g>
<g>
	<g>
		<path fill="#ffffff" d="M245.683,97.13c0-18.175-14.786-32.961-32.961-32.961c-18.175,0-32.96,14.786-32.96,32.961v39.623
			c0,18.175,14.786,32.96,32.961,32.96s32.961-14.786,32.961-32.96L245.683,97.13L245.683,97.13z M225.604,136.753
			c0,7.103-5.779,12.881-12.882,12.881s-12.882-5.779-12.882-12.881V97.13c0-7.103,5.779-12.882,12.882-12.882
			s12.882,5.78,12.882,12.882V136.753z"/>
	</g>
</g>
<g>
	<g>
		<path fill="#ffffff" d="M315.781,64.934c-3.752-1.551-8.07-0.695-10.941,2.177l-34.384,34.384c-3.92,3.92-3.92,10.277,0,14.198
			c3.921,3.919,10.276,3.919,14.198,0L301.9,98.447v61.227c-0.001,5.544,4.494,10.039,10.038,10.039
			c5.544,0,10.039-4.496,10.039-10.039V74.209C321.978,70.148,319.531,66.488,315.781,64.934z"/>
	</g>
</g>
<g>
	<g>
		<path fill="#ffffff" d="M387.741,64.17c-18.174,0-32.961,14.787-32.961,32.961v39.623c0,18.175,14.787,32.96,32.961,32.96
			c18.174,0,32.96-14.786,32.96-32.96V97.13C420.7,78.955,405.915,64.17,387.741,64.17z M400.622,136.753
			c0,7.103-5.779,12.881-12.881,12.881s-12.882-5.779-12.882-12.881V97.13c0-7.103,5.78-12.882,12.882-12.882
			c7.103,0,12.881,5.78,12.881,12.882V136.753z"/>
	</g>
</g>
<g>
	<g>
		<path fill="#ffffff" d="M124.259,203.104c-18.174,0-32.96,14.786-32.96,32.96v39.624c0,18.175,14.786,32.96,32.96,32.96
			c18.175,0,32.961-14.786,32.961-32.96v-39.624C157.22,217.889,142.434,203.104,124.259,203.104z M137.142,275.687
			c0,7.103-5.779,12.881-12.882,12.881s-12.881-5.779-12.881-12.881v-39.624c0-7.103,5.779-12.881,12.881-12.881
			s12.882,5.779,12.882,12.881V275.687z"/>
	</g>
</g>
<g>
	<g>
		<path fill="#ffffff" d="M212.722,203.104c-18.175,0-32.961,14.786-32.961,32.96v39.624c0,18.175,14.786,32.96,32.961,32.96
			c18.175,0,32.961-14.786,32.961-32.96v-39.624C245.683,217.889,230.897,203.104,212.722,203.104z M225.604,275.687
			c0,7.103-5.779,12.881-12.882,12.881s-12.882-5.779-12.882-12.881v-39.624c0-7.103,5.779-12.881,12.882-12.881
			s12.882,5.779,12.882,12.881V275.687z"/>
	</g>
</g>
<g>
	<g>
		<path fill="#ffffff" d="M301.186,203.104c-18.174,0-32.96,14.786-32.96,32.96v39.624c0,18.175,14.786,32.96,32.96,32.96
			c18.174,0,32.96-14.786,32.96-32.96v-39.624C334.145,217.889,319.359,203.104,301.186,203.104z M314.067,275.687
			c0,7.103-5.779,12.881-12.881,12.881s-12.881-5.779-12.881-12.881v-39.624c0-7.103,5.779-12.881,12.881-12.881
			s12.881,5.779,12.881,12.881V275.687z"/>
	</g>
</g>
<g>
	<g>
		<path fill="#ffffff" d="M301.186,342.287c-18.174,0-32.96,14.786-32.96,32.96v39.623c0,18.175,14.785,32.961,32.96,32.961
			c18.175,0,32.96-14.787,32.96-32.961v-39.623C334.145,357.072,319.359,342.287,301.186,342.287z M314.067,414.87
			c0,7.103-5.779,12.882-12.881,12.882s-12.881-5.78-12.881-12.882v-39.623c0-7.103,5.779-12.881,12.881-12.881
			s12.881,5.779,12.881,12.881V414.87z"/>
	</g>
</g>
<g>
	<g>
		<path fill="#ffffff" d="M387.741,342.287c-18.174,0-32.961,14.786-32.961,32.96v39.623c0,18.175,14.787,32.961,32.961,32.961
			c18.174,0,32.96-14.787,32.96-32.961v-39.623C420.7,357.072,405.915,342.287,387.741,342.287z M400.622,414.87
			c0,7.103-5.779,12.882-12.881,12.882s-12.882-5.78-12.882-12.882v-39.623c0-7.103,5.78-12.881,12.882-12.881
			c7.103,0,12.881,5.779,12.881,12.881V414.87z"/>
	</g>
</g>
<g>
	<g>
		<path fill="#ffffff" d="M473.349,104.91c-12.919,0-12.941,20.078,0,20.078C486.268,124.988,486.29,104.91,473.349,104.91z"/>
	</g>
</g>
<g>
</g>
<g>
</g>
<g>
</g>
<g>
</g>
<g>
</g>
<g>
</g>
<g>
</g>
<g>
</g>
<g>
</g>
<g>
</g>
<g>
</g>
<g>
</g>
<g>
</g>
<g>
</g>
<g>
</g>
</svg>
