<?xml version="1.0" encoding="iso-8859-1"?>
<!-- Generator: Adobe Illustrator 19.0.0, SVG Export Plug-In . SVG Version: 6.00 Build 0)  -->
<svg version="1.1" id="Capa_1" xmlns="http://www.w3.org/2000/svg" xmlns:xlink="http://www.w3.org/1999/xlink" x="0px" y="0px"
	 viewBox="0 0 496 496" style="enable-background:new 0 0 496 496;" xml:space="preserve">
<g>
	<g>
		<g>
			<path d="M168.004,144c-13.232,0-24,10.768-24,24v22.864c0,23.504,9.16,45.6,25.776,62.224l31.192,31.2
				c7.552,7.552,17.6,11.712,28.288,11.712h37.488c10.688,0,20.736-4.16,28.288-11.712l31.192-31.2
				c16.616-16.624,25.776-38.72,25.776-62.224V168c0-13.232-10.768-24-24-24H168.004z M314.916,241.776l-31.192,31.2
				c-4.536,4.528-10.56,7.024-16.976,7.024H229.26c-6.416,0-12.448-2.496-16.976-7.024l-31.192-31.2
				c-5.432-5.432-9.84-11.608-13.232-18.256c14.192-1.112,28-5.296,40.264-12.656c11.84-7.104,25.4-10.856,39.2-10.856h1.36
				c13.808,0,27.36,3.752,39.2,10.856c12.264,7.36,26.072,11.544,40.264,12.656C324.756,230.168,320.348,236.336,314.916,241.776z
				 M336.004,168v22.864c0,5.824-0.768,11.52-2.104,17.04c-13.312-0.248-26.344-3.904-37.776-10.76
				c-14.328-8.6-30.736-13.144-47.44-13.144h-1.36c-16.704,0-33.112,4.544-47.44,13.144c-11.264,6.76-24.104,10.376-37.792,10.72
				c-1.32-5.512-2.088-11.192-2.088-17V168c0-4.408,3.584-8,8-8h160C332.42,160,336.004,163.592,336.004,168z"/>
			<path d="M447.82,390.192c-5.376-32.232-27.976-58.68-58.976-69.016l-68.84-22.944V288h-16v21.768l55.48,18.496L346.244,368
				h-24.48l6.088-30.432l-15.688-3.144l-7.4,37L287.996,384c-6.864,5.16-15.392,8-23.992,8h-32c-8.6,0-17.128-2.84-24-8
				l-16.752-12.56l-7.4-37.008l-15.688,3.144l6.08,30.424h-24.48l-13.248-39.736l55.488-18.496V288h-16v10.232l-68.832,22.944
				c-31,10.336-53.6,36.784-58.976,69.016L30.556,496h434.888L447.82,390.192z M426.204,385.112l3.088-3.088
				c1.16,3.504,2.12,7.088,2.744,10.8l9.032,54.2c-11.016-2.816-19.624-12.048-21.096-23.776L418.14,408.6
				C417.052,399.88,419.988,391.32,426.204,385.112z M63.964,392.824c0.704-4.216,1.888-8.248,3.28-12.184l4.488,4.48
				c6.208,6.216,9.152,14.768,8.056,23.48l-1.832,14.648c-1.56,12.44-11.12,22.16-23.104,24.288L63.964,392.824z M49.452,480
				l2.696-16.208c21.272-1.08,39.008-17.208,41.68-38.552l1.832-14.648c1.712-13.648-2.888-27.048-12.616-36.784l-8.408-8.408
				c8.72-13.416,21.824-23.784,37.592-29.04l9.12-3.04l14.656,43.968v4.824c0,7.984-4.44,15.16-11.576,18.728l-1.896,0.952
				l-1.176,1.768c-0.72,1.064-17.352,26.32-17.352,52.44c0,10.464,1.416,18.232,3.192,24H49.452z M371.692,480H256.004v-56h-16v56
				H124.348c-1.736-3.472-4.344-10.816-4.344-24c0-17.92,10.36-36.504,13.664-41.976c10.832-6.288,17.664-17.496,18.288-30.024
				h29.384l17.064,12.8c9.624,7.224,21.552,11.2,33.6,11.2h32c12.048,0,23.976-3.984,33.592-11.2l17.072-12.8h29.384
				c0.624,12.536,7.464,23.744,18.296,30.032c3.304,5.448,13.656,23.952,13.656,41.968C376.004,469.272,373.364,476.624,371.692,480
				z M388.812,480c1.776-5.768,3.192-13.536,3.192-24c0-26.12-16.632-51.376-17.344-52.44l-1.176-1.768l-1.896-0.952
				c-7.144-3.568-11.584-10.744-11.584-18.728v-4.824l14.656-43.968l9.12,3.04c16.232,5.408,29.592,16.256,38.304,30.248
				l-7.192,7.192c-9.728,9.72-14.328,23.128-12.624,36.784l1.832,14.648c2.584,20.688,19.336,36.424,39.728,38.376L446.556,480
				H388.812z"/>
			<path d="M128.004,157.256c0-6.32,2.56-12.496,7.032-16.976l4.28-4.28c3.024-3.024,4.688-7.04,4.688-11.312V120
				c0-57.344,46.656-104,104-104s104,46.656,104,104v4.688c0,4.272,1.664,8.288,4.688,11.312l4.28,4.288
				c4.472,4.464,7.032,10.648,7.032,16.968V184h16v-26.744c0-10.68-4.168-20.728-11.72-28.28l-4.28-4.288V120
				c0-66.168-53.832-120-120-120s-120,53.832-120,120v4.688l-4.28,4.288c-7.552,7.552-11.72,17.6-11.72,28.28V184h16V157.256z"/>
		</g>
	</g>
</g>
<g>
</g>
<g>
</g>
<g>
</g>
<g>
</g>
<g>
</g>
<g>
</g>
<g>
</g>
<g>
</g>
<g>
</g>
<g>
</g>
<g>
</g>
<g>
</g>
<g>
</g>
<g>
</g>
<g>
</g>
</svg>
