<?xml version="1.0" encoding="iso-8859-1"?>
<!-- Generator: Adobe Illustrator 19.0.0, SVG Export Plug-In . SVG Version: 6.00 Build 0)  -->
<svg version="1.1" id="Layer_1" xmlns="http://www.w3.org/2000/svg" xmlns:xlink="http://www.w3.org/1999/xlink" x="0px" y="0px"
	 viewBox="0 0 512 512" style="enable-background:new 0 0 512 512;" xml:space="preserve">
<g>
	<g>
		<path d="M305.133,301.421H117.845c-4.146,0-7.506,3.361-7.506,7.506c0,4.146,3.361,7.506,7.506,7.506h187.288
			c4.146,0,7.506-3.361,7.506-7.506C312.639,304.781,309.28,301.421,305.133,301.421z"/>
	</g>
</g>
<g>
	<g>
		<path d="M305.133,266.09H117.845c-4.146,0-7.506,3.361-7.506,7.506c0,4.145,3.361,7.506,7.506,7.506h187.288
			c4.146,0,7.506-3.361,7.506-7.506C312.639,269.451,309.28,266.09,305.133,266.09z"/>
	</g>
</g>
<g>
	<g>
		<path d="M246.975,336.751h-129.13c-4.146,0-7.506,3.361-7.506,7.506c0,4.145,3.361,7.506,7.506,7.506h129.13
			c4.146,0,7.506-3.361,7.506-7.506C254.482,340.112,251.122,336.751,246.975,336.751z"/>
	</g>
</g>
<g>
	<g>
		<path d="M464.816,70.874h-85.123V7.506c0-4.145-3.36-7.506-7.506-7.506H47.184c-4.146,0-7.506,3.361-7.506,7.506V65.87
			c0,4.146,3.36,7.506,7.506,7.506c4.146,0,7.506-3.361,7.506-7.506V15.013h309.99v63.368v187.627c0,4.146,3.36,7.506,7.506,7.506
			s7.506-3.361,7.506-7.506V85.887h77.617v346.925H400.64c-4.146,0-7.506,3.361-7.506,7.506v56.669H147.319v-55.862h160.693
			c0.061,0,0.12-0.008,0.18-0.009c0.184-0.004,0.368-0.009,0.551-0.027c0.143-0.014,0.284-0.04,0.425-0.063
			c0.099-0.015,0.2-0.025,0.299-0.045c0.151-0.03,0.298-0.072,0.446-0.111c0.087-0.023,0.177-0.04,0.263-0.066
			c0.143-0.043,0.283-0.098,0.423-0.15c0.089-0.033,0.179-0.06,0.267-0.096c0.135-0.056,0.265-0.122,0.396-0.185
			c0.089-0.043,0.18-0.08,0.268-0.126c0.139-0.074,0.273-0.159,0.407-0.242c0.074-0.046,0.151-0.086,0.224-0.134
			c0.181-0.12,0.355-0.251,0.526-0.388c0.022-0.018,0.046-0.033,0.068-0.05c0.194-0.158,0.381-0.327,0.56-0.505l32.088-32.088
			l32.088-32.088c0.238-0.238,0.452-0.495,0.655-0.761c0.049-0.063,0.096-0.127,0.142-0.191c0.191-0.267,0.369-0.542,0.522-0.831
			c0.006-0.012,0.011-0.024,0.017-0.036c0.146-0.277,0.268-0.565,0.378-0.859c0.028-0.076,0.056-0.151,0.081-0.228
			c0.104-0.306,0.195-0.617,0.258-0.937c0-0.002,0-0.004,0.001-0.006c0.062-0.313,0.097-0.634,0.119-0.955
			c0.006-0.084,0.009-0.167,0.012-0.251c0.003-0.085,0.013-0.168,0.013-0.253v-78.415v-0.001c0-4.145-3.36-7.506-7.506-7.506
			s-7.506,3.361-7.506,7.506v0.001v70.908h-56.669c-4.146,0-7.506,3.361-7.506,7.506v56.669c-0.003,0-245.811,0.001-245.814,0.001
			V90.891c0-4.146-3.36-7.506-7.506-7.506c-4.146,0-7.506,3.361-7.506,7.506v342.728c0,4.145,3.36,7.506,7.506,7.506h85.123v63.368
			c0,4.145,3.36,7.506,7.506,7.506h260.828c0.061,0,0.12-0.007,0.18-0.009c0.184-0.005,0.368-0.009,0.551-0.027
			c0.143-0.014,0.284-0.04,0.425-0.063c0.099-0.015,0.2-0.025,0.299-0.045c0.151-0.03,0.298-0.072,0.446-0.11
			c0.088-0.023,0.177-0.04,0.263-0.066c0.143-0.043,0.283-0.098,0.423-0.15c0.089-0.033,0.179-0.06,0.267-0.096
			c0.135-0.056,0.265-0.122,0.396-0.185c0.089-0.043,0.18-0.08,0.268-0.126c0.139-0.074,0.273-0.159,0.407-0.242
			c0.074-0.046,0.151-0.086,0.224-0.134c0.181-0.12,0.355-0.252,0.526-0.388c0.022-0.018,0.046-0.032,0.068-0.051
			c0.194-0.158,0.381-0.326,0.56-0.505l64.175-64.176c0.238-0.238,0.451-0.495,0.654-0.761c0.049-0.064,0.097-0.128,0.143-0.193
			c0.19-0.267,0.368-0.541,0.521-0.829c0.007-0.013,0.012-0.027,0.019-0.04c0.145-0.276,0.267-0.563,0.376-0.855
			c0.029-0.076,0.056-0.152,0.082-0.229c0.103-0.306,0.194-0.617,0.258-0.936c0-0.002,0.001-0.004,0.001-0.006
			c0.062-0.313,0.097-0.633,0.119-0.954c0.006-0.084,0.01-0.167,0.012-0.251c0.003-0.085,0.012-0.168,0.012-0.253V78.381
			C472.322,74.235,468.962,70.874,464.816,70.874z M315.517,376.95h38.548l-38.548,38.548V376.95z M408.146,486.372v-38.548h38.548
			L408.146,486.372z"/>
	</g>
</g>
<g>
	<g>
		<path d="M281.257,58.67H131.495c-4.146,0-7.506,3.361-7.506,7.506v163.628c0,4.145,3.36,7.506,7.506,7.506h149.762
			c4.146,0,7.506-3.361,7.506-7.506V66.176C288.763,62.031,285.404,58.67,281.257,58.67z M158.872,222.297v-10.048
			c0-18.234,12.257-34.504,29.238-41.595l3.778,10.724l-6.615,22.998c-0.788,2.738,0.044,5.688,2.147,7.611l11.264,10.31H158.872z
			 M224.666,112.184c-4.463-3.036-6.471-7.951-6.575-8.212c-1.042-2.747-3.591-4.635-6.523-4.829
			c-2.908-0.199-5.708,1.338-7.103,3.925c-0.053,0.097-4.797,8.23-17.046,10.746v-3.004c0-10.27,8.355-18.624,18.624-18.624
			c10.27,0,18.624,8.355,18.624,18.624V112.184z M210.091,119.083c3.285,3.826,8.043,7.709,14.575,9.481v4.734
			c0,10.071-8.04,18.28-18.036,18.595c-0.161-0.003-0.321-0.012-0.482-0.014c-0.001,0-0.002,0-0.003,0h-0.001
			c-0.068-0.001-0.135-0.001-0.203,0h-0.001c-0.001,0-0.002,0-0.003,0c-0.161,0.002-0.321,0.011-0.482,0.014
			c-9.996-0.314-18.036-8.523-18.036-18.595v-4.247h0.001C197.88,127.596,205.247,123.243,210.091,119.083z M209.32,167.068
			l-2.316,6.573h-1.925l-2.315-6.573c0.146-0.012,0.29-0.028,0.436-0.039c0.264-0.02,0.527-0.039,0.792-0.055
			c0.462-0.027,0.926-0.043,1.391-0.057c0.22,0.004,0.437,0.017,0.659,0.017s0.439-0.012,0.659-0.017
			c0.464,0.014,0.929,0.029,1.39,0.057c0.265,0.016,0.53,0.034,0.796,0.055C209.032,167.04,209.175,167.056,209.32,167.068z
			 M206.042,208.681l-5.055-4.626l4.431-15.402h1.248l4.431,15.402L206.042,208.681z M253.212,222.298h-39.812l11.263-10.31
			c2.103-1.925,2.935-4.873,2.147-7.611l-6.615-22.998l3.778-10.725c16.982,7.091,29.239,23.361,29.239,41.596V222.298z
			 M273.751,222.298h-5.526V212.25c0-24.232-16.036-45.857-38.276-55.319c6.011-6.08,9.729-14.429,9.729-23.634V122.05v-11.239
			c0-18.548-15.09-33.636-33.636-33.636s-33.636,15.09-33.636,33.636v11.242v11.242c0,9.204,3.719,17.554,9.729,23.634
			c-22.24,9.462-38.276,31.087-38.276,55.319v10.048h-4.858V73.683h0h134.75V222.298z"/>
	</g>
</g>
<g>
</g>
<g>
</g>
<g>
</g>
<g>
</g>
<g>
</g>
<g>
</g>
<g>
</g>
<g>
</g>
<g>
</g>
<g>
</g>
<g>
</g>
<g>
</g>
<g>
</g>
<g>
</g>
<g>
</g>
</svg>
