<?xml version="1.0" encoding="iso-8859-1"?>
<!-- Generator: Adobe Illustrator 19.0.0, SVG Export Plug-In . SVG Version: 6.00 Build 0)  -->
<svg version="1.1" id="Layer_1" xmlns="http://www.w3.org/2000/svg" xmlns:xlink="http://www.w3.org/1999/xlink" x="0px" y="0px"
	 viewBox="0 0 512 512" style="enable-background:new 0 0 512 512;" xml:space="preserve">
<g transform="translate(1 1)">
	<g>
		<g>
			<path d="M373.576,92.448c5.828-6.13,9.424-14.401,9.424-23.475c0-18.773-15.36-34.133-34.133-34.133
				c-18.773,0-34.133,15.36-34.133,34.133c0,9.075,3.596,17.345,9.424,23.475c-15.76,8.754-26.491,25.578-26.491,44.792v40.96
				c0,5.12,3.413,8.533,8.533,8.533s8.533-3.413,8.533-8.533v-40.96c0-18.773,15.36-34.133,34.133-34.133
				c18.773,0,34.133,15.36,34.133,34.133v40.96c0,5.12,3.413,8.533,8.533,8.533s8.533-3.413,8.533-8.533v-40.96
				C400.067,118.026,389.336,101.203,373.576,92.448z M331.8,68.973c0-9.387,7.68-17.067,17.067-17.067
				c9.387,0,17.067,7.68,17.067,17.067s-7.68,17.067-17.067,17.067C339.48,86.04,331.8,78.36,331.8,68.973z"/>
			<path d="M425.667-1H84.333c-14.507,0-25.6,11.093-25.6,25.6v460.8c0,14.507,11.093,25.6,25.6,25.6h341.333
				c14.507,0,25.6-11.093,25.6-25.6V24.6C451.267,10.093,440.173-1,425.667-1z M434.2,485.4c0,5.12-3.413,8.533-8.533,8.533H84.333
				c-5.12,0-8.533-3.413-8.533-8.533V24.6c0-5.12,3.413-8.533,8.533-8.533h341.333c5.12,0,8.533,3.413,8.533,8.533V485.4z"/>
			<path d="M391.533,220.867H118.467c-5.12,0-8.533,3.413-8.533,8.533s3.413,8.533,8.533,8.533h273.067
				c5.12,0,8.533-3.413,8.533-8.533S396.653,220.867,391.533,220.867z"/>
			<path d="M391.533,340.333H118.467c-5.12,0-8.533,3.413-8.533,8.533s3.413,8.533,8.533,8.533h273.067
				c5.12,0,8.533-3.413,8.533-8.533S396.653,340.333,391.533,340.333z"/>
			<path d="M306.2,263.533h-42.667c-5.12,0-8.533,3.413-8.533,8.533c0,5.12,3.413,8.533,8.533,8.533H306.2
				c5.12,0,8.533-3.413,8.533-8.533C314.733,266.947,311.32,263.533,306.2,263.533z"/>
			<path d="M348.867,280.6c5.12,0,8.533-3.413,8.533-8.533c0-5.12-3.413-8.533-8.533-8.533h-8.533c-5.12,0-8.533,3.413-8.533,8.533
				c0,5.12,3.413,8.533,8.533,8.533H348.867z"/>
			<path d="M263.533,314.733h25.6c5.12,0,8.533-3.413,8.533-8.533s-3.413-8.533-8.533-8.533h-25.6c-5.12,0-8.533,3.413-8.533,8.533
				S258.413,314.733,263.533,314.733z"/>
			<path d="M314.733,306.2c0,5.12,3.413,8.533,8.533,8.533H383c5.12,0,8.533-3.413,8.533-8.533s-3.413-8.533-8.533-8.533h-59.733
				C318.147,297.667,314.733,301.08,314.733,306.2z"/>
			<path d="M118.467,280.6h42.667c5.12,0,8.533-3.413,8.533-8.533c0-5.12-3.413-8.533-8.533-8.533h-42.667
				c-5.12,0-8.533,3.413-8.533,8.533C109.933,277.187,113.347,280.6,118.467,280.6z"/>
			<path d="M203.8,280.6c5.12,0,8.533-3.413,8.533-8.533c0-5.12-3.413-8.533-8.533-8.533h-8.533c-5.12,0-8.533,3.413-8.533,8.533
				c0,5.12,3.413,8.533,8.533,8.533H203.8z"/>
			<path d="M297.667,391.533c0-5.12-3.413-8.533-8.533-8.533h-25.6c-5.12,0-8.533,3.413-8.533,8.533c0,5.12,3.413,8.533,8.533,8.533
				h25.6C294.253,400.067,297.667,396.653,297.667,391.533z"/>
			<path d="M383,383h-59.733c-5.12,0-8.533,3.413-8.533,8.533c0,5.12,3.413,8.533,8.533,8.533H383c5.12,0,8.533-3.413,8.533-8.533
				C391.533,386.413,388.12,383,383,383z"/>
			<path d="M323.267,417.133h-25.6c-5.12,0-8.533,3.413-8.533,8.533s3.413,8.533,8.533,8.533h25.6c5.12,0,8.533-3.413,8.533-8.533
				S328.387,417.133,323.267,417.133z"/>
			<path d="M383,417.133h-25.6c-5.12,0-8.533,3.413-8.533,8.533s3.413,8.533,8.533,8.533H383c5.12,0,8.533-3.413,8.533-8.533
				S388.12,417.133,383,417.133z"/>
			<path d="M161.133,383h-42.667c-5.12,0-8.533,3.413-8.533,8.533c0,5.12,3.413,8.533,8.533,8.533h42.667
				c5.12,0,8.533-3.413,8.533-8.533C169.667,386.413,166.253,383,161.133,383z"/>
			<path d="M203.8,383h-8.533c-5.12,0-8.533,3.413-8.533,8.533c0,5.12,3.413,8.533,8.533,8.533h8.533
				c5.12,0,8.533-3.413,8.533-8.533C212.333,386.413,208.92,383,203.8,383z"/>
			<path d="M118.467,84.333H178.2c5.12,0,8.533-3.413,8.533-8.533s-3.413-8.533-8.533-8.533h-59.733
				c-5.12,0-8.533,3.413-8.533,8.533S113.347,84.333,118.467,84.333z"/>
			<path d="M118.467,152.6H178.2c5.12,0,8.533-3.413,8.533-8.533c0-5.12-3.413-8.533-8.533-8.533h-59.733
				c-5.12,0-8.533,3.413-8.533,8.533C109.933,149.187,113.347,152.6,118.467,152.6z"/>
			<path d="M212.333,84.333h8.533c5.12,0,8.533-3.413,8.533-8.533s-3.413-8.533-8.533-8.533h-8.533c-5.12,0-8.533,3.413-8.533,8.533
				S207.213,84.333,212.333,84.333z"/>
			<path d="M212.333,118.467H255c5.12,0,8.533-3.413,8.533-8.533S260.12,101.4,255,101.4h-42.667c-5.12,0-8.533,3.413-8.533,8.533
				S207.213,118.467,212.333,118.467z"/>
			<path d="M212.333,152.6h8.533c5.12,0,8.533-3.413,8.533-8.533c0-5.12-3.413-8.533-8.533-8.533h-8.533
				c-5.12,0-8.533,3.413-8.533,8.533C203.8,149.187,207.213,152.6,212.333,152.6z"/>
			<path d="M212.333,186.733H255c5.12,0,8.533-3.413,8.533-8.533s-3.413-8.533-8.533-8.533h-42.667c-5.12,0-8.533,3.413-8.533,8.533
				S207.213,186.733,212.333,186.733z"/>
		</g>
	</g>
</g>
<g>
</g>
<g>
</g>
<g>
</g>
<g>
</g>
<g>
</g>
<g>
</g>
<g>
</g>
<g>
</g>
<g>
</g>
<g>
</g>
<g>
</g>
<g>
</g>
<g>
</g>
<g>
</g>
<g>
</g>
</svg>
