<?xml version='1.0' encoding='iso-8859-1'?>
<svg version="1.1" xmlns="http://www.w3.org/2000/svg" viewBox="0 0 87.129 87.129" xmlns:xlink="http://www.w3.org/1999/xlink" enable-background="new 0 0 87.129 87.129">
  <g fill="#010002">
    <path fill="#ffffff" d="m43.564,55.433c0.361,0 0.723-0.092 1.047-0.277l17.562-9.997v14.62c-3.671,1.572-8.789,2.662-14.309,3.022-1.166,0.076-2.05,1.083-1.974,2.25 0.073,1.12 1.004,1.979 2.109,1.979 0.046,0 0.093-0.002 0.14-0.005 5.281-0.345 10.133-1.287 14.033-2.698v7.184c-0.936,0.219-1.634,1.054-1.634,2.056v7.435c0,1.17 0.947,2.117 2.116,2.117 0.662,0 1.246-0.31 1.634-0.786 0.389,0.476 0.973,0.786 1.635,0.786 1.169,0 2.116-0.947 2.116-2.117v-7.435c0-1.003-0.699-1.837-1.635-2.057v-30.325c0-0.761-0.408-1.463-1.068-1.839l-20.136-11.463c-1.017-0.579-2.31-0.224-2.887,0.792-0.578,1.016-0.224,2.308 0.792,2.886l17.199,9.79-16.74,9.529-37.169-21.158 37.169-21.159 20.675,11.769c1.016,0.578 2.308,0.223 2.887-0.793 0.578-1.016 0.223-2.308-0.793-2.886l-21.722-12.365c-0.648-0.369-1.445-0.37-2.094,0l-41.448,23.595c-0.66,0.376-1.069,1.079-1.069,1.839 0,0.761 0.409,1.463 1.069,1.839l41.448,23.595c0.325,0.184 0.686,0.277 1.047,0.277z"/>
    <path fill="#ffffff" d="m86.059,27.883l-12.047-6.859c-1.018-0.58-2.309-0.224-2.887,0.792-0.578,1.016-0.224,2.308 0.792,2.886l8.816,5.02-6.328,3.602c-1.016,0.579-1.37,1.871-0.792,2.887 0.391,0.686 1.105,1.07 1.842,1.07 0.354,0 0.714-0.089 1.045-0.277l9.559-5.441c0.661-0.376 1.069-1.079 1.069-1.84 0.001-0.761-0.407-1.464-1.069-1.84z"/>
    <path fill="#ffffff" d="m17.576,48.875c-1.169,0-2.116,0.948-2.116,2.117v4.171c0,4.777 5.464,8.68 14.991,10.71 0.149,0.032 0.298,0.047 0.443,0.047 0.978,0 1.856-0.681 2.068-1.676 0.243-1.143-0.486-2.267-1.63-2.511-7.642-1.627-11.641-4.537-11.641-6.569v-4.171c0.001-1.17-0.946-2.118-2.115-2.118z"/>
    <path fill="#ffffff" d="m37.054,63.279c-0.395,0.394-0.621,0.945-0.621,1.496 0,0.558 0.227,1.1 0.621,1.496 0.396,0.395 0.938,0.621 1.496,0.621 0.558,0 1.1-0.226 1.495-0.621 0.396-0.396 0.621-0.938 0.621-1.496 0-0.557-0.226-1.101-0.621-1.496-0.783-0.783-2.208-0.783-2.991,0z"/>
  </g>
</svg>
