<?xml version="1.0" encoding="iso-8859-1"?>
<!-- Generator: Adobe Illustrator 19.0.0, SVG Export Plug-In . SVG Version: 6.00 Build 0)  -->
<svg version="1.1" id="Layer_1" xmlns="http://www.w3.org/2000/svg" xmlns:xlink="http://www.w3.org/1999/xlink" x="0px" y="0px"
	 viewBox="0 0 489.1 489.1" style="enable-background:new 0 0 489.1 489.1;" xml:space="preserve">
<g>
	<g>
		<path style="fill:#3C92CA;" d="M416.85,133.2h-190.1c-17.2,0-31.3,14.1-31.3,31.3v116c0,17.2,14.1,31.3,31.3,31.3h24.5v55.4
			l57.8-55.4h107.7c17.2,0,31.3-14.1,31.3-31.3v-116C448.05,147.3,434.05,133.2,416.85,133.2z"/>
		<path d="M321.75,100c5,0,9.1-4.1,9.1-9.1V51.4c0-28.4-23.1-51.4-51.4-51.4H85.05c-28.4,0-51.4,23.1-51.4,51.4v315.8
			c0,5,4.1,9.1,9.1,9.1s9.1-4.1,9.1-9.1V51.4c0-18.4,14.9-33.3,33.3-33.3h194.3c18.4,0,33.3,14.9,33.3,33.3v10.8H84.35
			c-5,0-9.1,4.1-9.1,9.1s4.1,9.1,9.1,9.1h228.4V91C312.65,96,316.75,100,321.75,100z"/>
		<path d="M328.05,435.4v-83.2c0-5-4.1-9.1-9.1-9.1s-9.1,4.1-9.1,9.1v83.2c0,17.5-11.4,35.7-30.5,35.7H85.05c-18.3,0-35-17-35-35.7
			v-14.7h221.6c5,0,9.1-4.1,9.1-9.1s-4.1-9.1-9.1-9.1H41.05c-5,0-9.1,4.1-9.1,9.1v23.7c0,28.7,24.8,53.8,53.1,53.8h194.3
			C306.65,489.2,328.05,465.6,328.05,435.4z"/>
		<path d="M457.15,280.5v-116c0-22.2-18.1-40.3-40.4-40.3h-190c-22.2,0-40.4,18.1-40.4,40.3v116c0,22.2,18.1,40.4,40.4,40.4h15.5
			v46.3c0,3.6,2.2,6.9,5.5,8.3c1.1,0.5,2.4,0.7,3.6,0.7c2.3,0,4.6-0.9,6.3-2.5l55.2-52.9h104.1
			C439.05,320.8,457.15,302.7,457.15,280.5z M309.05,302.7c-2.3,0-4.6,0.9-6.3,2.5l-42.5,40.7v-34.2c0-5-4.1-9.1-9.1-9.1h-24.5
			c-12.3,0-22.2-10-22.2-22.2v-116c0-12.3,10-22.2,22.2-22.2h190.1c12.3,0,22.2,10,22.2,22.2v116c0,12.3-10,22.2-22.2,22.2h-107.7
			V302.7z"/>
		<path d="M321.75,217.2c-2.4,0-4.7,1-6.4,2.6c-1.7,1.7-2.6,4-2.6,6.4s1,4.7,2.7,6.4s4,2.7,6.4,2.7s4.7-1,6.4-2.7
			c1.7-1.7,2.7-4,2.7-6.4s-1-4.7-2.7-6.4C326.45,218.2,324.15,217.2,321.75,217.2z"/>
		<path d="M355.45,217.2c-2.4,0-4.7,1-6.4,2.6c-1.7,1.7-2.6,4-2.6,6.4s1,4.7,2.6,6.4c1.7,1.7,4,2.7,6.4,2.7s4.7-1,6.4-2.7
			c1.7-1.7,2.6-4,2.6-6.4s-1-4.7-2.6-6.4C360.25,218.2,357.85,217.2,355.45,217.2z"/>
		<path d="M288.05,217.2c-2.4,0-4.7,1-6.4,2.6c-1.7,1.7-2.6,4-2.6,6.4s1,4.7,2.6,6.4c1.7,1.7,4,2.7,6.4,2.7s4.7-1,6.4-2.7
			c1.7-1.7,2.7-4,2.7-6.4s-1-4.7-2.7-6.4C292.75,218.2,290.45,217.2,288.05,217.2z"/>
	</g>
</g>
<g>
</g>
<g>
</g>
<g>
</g>
<g>
</g>
<g>
</g>
<g>
</g>
<g>
</g>
<g>
</g>
<g>
</g>
<g>
</g>
<g>
</g>
<g>
</g>
<g>
</g>
<g>
</g>
<g>
</g>
</svg>
