<?xml version="1.0" encoding="iso-8859-1"?>
<!-- Generator: Adobe Illustrator 18.1.1, SVG Export Plug-In . SVG Version: 6.00 Build 0)  -->
<svg version="1.1" id="Capa_1" xmlns="http://www.w3.org/2000/svg" xmlns:xlink="http://www.w3.org/1999/xlink" x="0px" y="0px"
	 viewBox="0 0 331.4 331.4" style="enable-background:new 0 0 331.4 331.4;" xml:space="preserve">
<path d="M218.371,326.207c-20.864,0-41.426-2.02-61.114-6.002c-3.731-0.755-6.414-4.035-6.414-7.841v-68.618l-35.016-10.458
	c-3.389-1.012-5.71-4.129-5.71-7.666s2.322-6.653,5.71-7.666l100.254-29.943c1.492-0.446,3.086-0.446,4.578,0l100.066,29.887
	c0.685,0.187,1.333,0.461,1.932,0.812c2.416,1.41,3.967,4.02,3.967,6.909c0,0.083-0.001,0.166-0.004,0.249v35.49l4.164,10.016
	c1.696,4.08-0.235,8.762-4.315,10.458c-2.698,1.121-5.66,0.656-7.849-0.968c-2.187,1.625-5.15,2.09-7.849,0.968
	c-4.079-1.697-6.011-6.379-4.314-10.459l4.163-10.008v-25.005l-89.961,26.87c-1.492,0.446-3.086,0.446-4.578,0l-49.238-14.707
	v57.216c16.684,2.965,33.984,4.466,51.527,4.466c17.541,0,34.842-1.501,51.527-4.466v-38.105c0-4.418,3.582-8,8-8s8,3.582,8,8
	v44.729c0,3.807-2.683,7.086-6.414,7.841C259.795,324.187,239.233,326.207,218.371,326.207z M161.33,230.179l57.042,17.037
	l72.3-21.595l-72.3-21.594l-72.299,21.594l14.871,4.442C161.073,230.098,161.202,230.137,161.33,230.179z M123.506,299.963H28.961
	C12.992,299.963,0,286.972,0,271.003V168.796c0-4.418,3.582-8,8-8h9.516c4.418,0,8,3.582,8,8s-3.582,8-8,8H16v94.207
	c0,7.146,5.814,12.96,12.961,12.96h5.444V45.629c0-4.418,3.582-8,8-8h27.55C74.109,19.09,90.698,5.194,110.472,5.194
	c19.773,0,36.363,13.896,40.516,32.435h96.697c4.418,0,8,3.582,8,8V167.75c0,4.418-3.582,8-8,8s-8-3.582-8-8V53.629h-88.273
	c-3.304,19.61-20.405,34.598-40.94,34.598c-5.273,0-10.318-0.987-14.963-2.789v23.101l10.863-5.103
	c2.096-0.985,4.517-1.014,6.636-0.076l12.427,5.493v-8.715c0-4.418,3.582-8,8-8s8,3.582,8,8v20.998c0,2.705-1.367,5.227-3.634,6.704
	c-2.267,1.476-5.126,1.708-7.601,0.613l-20.326-8.984l-18.964,8.908c-2.479,1.164-5.379,0.98-7.69-0.487
	c-2.311-1.468-3.711-4.016-3.711-6.753V74.339c-5.102-5.711-8.651-12.839-9.977-20.71H50.406v230.334h73.101c4.418,0,8,3.582,8,8
	S127.925,299.963,123.506,299.963z M84.963,46.09c-0.005,0.207-0.007,0.413-0.007,0.621c0,14.07,11.447,25.517,25.517,25.517
	s25.517-11.447,25.517-25.517c0-0.217-0.003-0.435-0.008-0.651c-0.006-0.114-0.01-0.228-0.011-0.343
	c-0.524-13.61-11.761-24.522-25.498-24.522c-13.727,0-24.956,10.896-25.496,24.492C84.975,45.822,84.971,45.956,84.963,46.09z
	 M126.462,192.42h-22.471c-4.418,0-8-3.582-8-8s3.582-8,8-8h22.471c4.418,0,8,3.582,8,8S130.88,192.42,126.462,192.42z
	 M186.102,161.775h-82.111c-4.418,0-8-3.582-8-8s3.582-8,8-8h82.111c4.418,0,8,3.582,8,8S190.52,161.775,186.102,161.775z
	 M210.561,122.791h-24.182c-4.418,0-8-3.582-8-8s3.582-8,8-8h24.182c4.418,0,8,3.582,8,8S214.979,122.791,210.561,122.791z
	 M210.06,93.866h-24.183c-4.418,0-8-3.582-8-8s3.582-8,8-8h24.183c4.418,0,8,3.582,8,8S214.478,93.866,210.06,93.866z"/>
<g>
</g>
<g>
</g>
<g>
</g>
<g>
</g>
<g>
</g>
<g>
</g>
<g>
</g>
<g>
</g>
<g>
</g>
<g>
</g>
<g>
</g>
<g>
</g>
<g>
</g>
<g>
</g>
<g>
</g>
</svg>
