<?xml version="1.0" encoding="iso-8859-1"?>
<!-- Generator: Adobe Illustrator 17.1.0, SVG Export Plug-In . SVG Version: 6.00 Build 0)  -->
<!DOCTYPE svg PUBLIC "-//W3C//DTD SVG 1.1//EN" "http://www.w3.org/Graphics/SVG/1.1/DTD/svg11.dtd">
<svg version="1.1" id="Capa_1" xmlns="http://www.w3.org/2000/svg" xmlns:xlink="http://www.w3.org/1999/xlink" x="0px" y="0px"
	 viewBox="0 0 413.312 413.312" style="enable-background:new 0 0 413.312 413.312;" xml:space="preserve">
<path id="XMLID_128_" d="M374.447,223.19c-0.143-7.9-0.246-13.608-0.246-16.475c0-23.842-6.073-159.857-6.766-175.287
	c-0.484-10.83-0.902-20.184-7.517-26.113c-4.815-4.316-11.627-5.85-22.778-5.131c-18.102,1.17-50.299,5.316-78.706,8.975
	c-9.387,1.209-18.562,2.391-26.495,3.366c-0.078,0.008-0.155,0.018-0.233,0.028c-11.41,1.402-20.216,2.371-23.322,2.371h-3.455
	c-5.279,0-27.017-2.8-50.029-5.764c-28.211-3.634-60.187-7.752-78.359-8.953c-8.421-0.557-17.042-0.332-23.033,5.028
	c-5.579,4.992-7.02,12.617-7.467,22.53c-0.282,6.282-6.928,154.143-6.928,178.949c0,2.866-0.104,8.575-0.246,16.476
	c-0.719,39.844-2.216,122.753,3.074,159.19c3.181,21.901,12.022,30.932,31.027,30.931c1.583,0,3.238-0.063,4.965-0.186
	c14.244-1.017,36.137-3.652,58.048-6.433c0.039-0.005,0.077-0.01,0.116-0.015c6.327-0.803,12.654-1.618,18.799-2.409
	c23.015-2.964,44.753-5.764,50.033-5.764h3.455c5.28,0,27.02,2.8,50.035,5.764c26.635,3.43,56.822,7.318,75.371,8.738
	c23.901,1.823,34.081-6.478,37.587-30.651C376.661,345.908,375.165,263.023,374.447,223.19z M357.521,380.348
	c-2.465,17.001-6.066,19.975-22.662,18.701c-18.188-1.393-48.186-5.256-74.652-8.665c-28.3-3.645-45.943-5.878-51.823-5.878h-3.455
	c-1.37,0-3.379,0.121-6.013,0.354c5.21-2.188,9.977-4.253,14.229-6.096c8.485-3.677,17.258-7.479,19.646-7.766
	c3.809-0.066,6.876-3.174,6.876-6.999c0-3.866-3.134-7-7-7c-4.334,0-10.448,2.574-25.089,8.919
	c-17.512,7.588-43.932,19.036-73.757,26.938c-21.584,2.737-43.058,5.319-56.886,6.306c-14.982,1.071-18.741-2.269-21.141-18.792
	c-5.128-35.312-3.589-120.534-2.932-156.926c0.144-7.975,0.248-13.735,0.248-16.729c0-24.495,6.632-172.051,6.914-178.319
	c0.205-4.566,0.721-10.853,2.815-12.728c1.23-1.1,4.021-1.653,8.318-1.653c1.34,0,2.826,0.054,4.457,0.161
	c17.739,1.173,49.485,5.262,77.494,8.869c13.838,1.782,25.128,3.228,33.74,4.239c-12.42,4.869-23.224,9.674-31.872,13.521
	c-8.104,3.604-16.481,7.33-18.811,7.627c-3.805,0.071-6.867,3.178-6.867,6.999c0,3.866,3.134,7,7,7
	c4.332,0,10.238-2.55,24.367-8.834c17.268-7.681,43.319-19.268,73.336-27.223c7.344-0.904,16.1-2.027,26.218-3.33
	c28.2-3.632,60.163-7.748,77.82-8.89c8.292-0.536,11.395,0.565,12.531,1.585c2.235,2.004,2.561,9.278,2.875,16.313v0.001
	c2.508,55.878,6.752,155.545,6.752,174.661c0,2.993,0.104,8.754,0.248,16.728C361.106,259.825,362.644,345.024,357.521,380.348z
	 M264.652,132.627c-3.251-2.087-7.584-1.145-9.672,2.109c-2.089,3.253-1.145,7.583,2.108,9.672
	c8.55,5.489,16.007,12.197,22.205,19.819l-37.683,37.683v-80.467c0-3.866-3.134-7-7-7s-7,3.134-7,7v51.172
	c-3.381-5.45-8.169-10.016-13.955-13.112V91.625c0-3.866-3.134-7-7-7s-7,3.134-7,7v67.878c-5.048,2.701-9.335,6.52-12.592,11.068
	v-49.128c0-3.866-3.134-7-7-7s-7,3.134-7,7v90.139c-7.445-1.462-15.343-0.647-22.521,2.656c-1.518,0.698-2.735,1.917-3.434,3.435
	c-6.409,13.936-3.454,30.561,7.354,41.37l15.008,15.007l-21.673,21.673c-21.116-17.155-34.631-43.322-34.631-72.586
	c0-31.991,16.095-61.423,43.054-78.729c3.254-2.089,4.198-6.419,2.109-9.672c-2.088-3.252-6.418-4.198-9.672-2.109
	c-30.99,19.894-49.491,53.729-49.491,90.511c0,35.773,17.565,67.521,44.525,87.07c0.417,0.379,0.868,0.699,1.344,0.959
	c17.459,12.259,38.712,19.459,61.617,19.459c59.27,0,107.488-48.219,107.488-107.488
	C314.143,186.357,295.642,152.522,264.652,132.627z M194.175,191.898c0-8.569,4.921-16.409,12.48-20.259
	c7.559,3.849,12.479,11.689,12.479,20.259v28.021c0,1.699-0.19,3.388-0.567,5.033l-11.647,11.648l-12.322-12.323
	c-0.281-1.429-0.423-2.889-0.423-4.358V191.898z M164.364,249.143c-6.059-6.06-8.123-15.084-5.5-23.152
	c8.068-2.624,17.091-0.557,23.15,5.502l1.193,1.193c0.06,0.062,0.12,0.122,0.182,0.182l13.632,13.633l-17.649,17.649
	L164.364,249.143z M300.143,223.136c0,51.55-41.938,93.488-93.488,93.488c-17.191,0-33.312-4.663-47.166-12.793l20.496-20.496
	c7.019,4.35,16.364,6.762,26.671,6.762c13.435,0,25.237-4.099,32.379-11.242l19.814-19.813c8.438-8.438,12.234-20.541,10.157-32.375
	c-0.668-3.808-4.294-6.356-8.104-5.684c-3.809,0.668-6.354,4.297-5.685,8.105c1.289,7.343-1.055,14.84-6.268,20.054l-19.814,19.813
	c-4.404,4.405-13.018,7.142-22.479,7.142c-6.089,0-11.826-1.134-16.317-3.116l97.061-97.06
	C295.637,189.999,300.143,206.209,300.143,223.136z"/>
<g>
</g>
<g>
</g>
<g>
</g>
<g>
</g>
<g>
</g>
<g>
</g>
<g>
</g>
<g>
</g>
<g>
</g>
<g>
</g>
<g>
</g>
<g>
</g>
<g>
</g>
<g>
</g>
<g>
</g>
</svg>
