<?xml version="1.0" encoding="iso-8859-1"?>
<!-- Generator: Adobe Illustrator 19.0.0, SVG Export Plug-In . SVG Version: 6.00 Build 0)  -->
<svg version="1.1" id="Layer_1" xmlns="http://www.w3.org/2000/svg" xmlns:xlink="http://www.w3.org/1999/xlink" x="0px" y="0px"
	 viewBox="0 0 234.343 234.343" style="enable-background:new 0 0 234.343 234.343;" xml:space="preserve">
<g>
	<g>
		<g>
			<path d="M149.495,131.313c-22.28,0-40.404,18.124-40.404,40.404c0,2.231,1.809,4.04,4.04,4.04c2.231,0,4.04-1.809,4.04-4.04
				c0-17.823,14.501-32.323,32.323-32.323c2.231,0,4.04-1.809,4.04-4.04C153.534,133.123,151.726,131.313,149.495,131.313z"/>
			<path d="M96.969,62.626c0-22.28-18.124-40.404-40.404-40.404c-2.231,0-4.04,1.809-4.04,4.04c0,2.231,1.809,4.04,4.04,4.04
				c17.823,0.001,32.324,14.502,32.324,32.324c0,2.231,1.809,4.04,4.04,4.04S96.969,64.857,96.969,62.626z"/>
			<path d="M234.032,93.406c-0.41-0.988-1.197-1.775-2.184-2.185c-0.494-0.204-1.018-0.312-1.544-0.312H189.9
				c-2.231,0-4.04,1.809-4.04,4.04c0,2.231,1.809,4.04,4.04,4.04h30.65l-31.487,31.487c-0.163,0.163-0.238,0.371-0.367,0.553
				c-10.177-9.808-23.982-15.878-39.2-15.878c-31.191,0-56.566,25.375-56.566,56.566c0,31.191,25.375,56.566,56.566,56.566
				c31.191,0,56.566-25.375,56.566-56.566c0-13.189-4.574-25.309-12.169-34.94c0.306-0.175,0.623-0.326,0.884-0.587l31.486-31.486
				v30.65c0,2.231,1.809,4.04,4.04,4.04s4.04-1.809,4.04-4.04V94.95C234.343,94.423,234.236,93.899,234.032,93.406z M197.98,171.717
				c0,26.734-21.751,48.485-48.485,48.485s-48.485-21.751-48.485-48.485s21.751-48.485,48.485-48.485S197.98,144.983,197.98,171.717
				z"/>
			<path d="M74.971,147.475H60.606v-28.488c29.305-2.086,52.525-26.534,52.525-56.361c0-31.191-25.375-56.566-56.566-56.566
				S0,31.436,0,62.626c0,29.827,23.221,54.275,52.525,56.361v28.488H38.384c-2.231,0-4.04,1.809-4.04,4.04
				c0,2.231,1.809,4.04,4.04,4.04h14.141v12.121c0,2.231,1.809,4.04,4.04,4.04s4.04-1.809,4.04-4.04v-12.121h14.364
				c2.231,0,4.04-1.809,4.04-4.04C79.009,149.284,77.202,147.475,74.971,147.475z M56.566,111.111
				c-26.734,0-48.485-21.751-48.485-48.485s21.751-48.485,48.485-48.485c26.734,0,48.485,21.751,48.485,48.485
				S83.3,111.111,56.566,111.111z"/>
		</g>
	</g>
</g>
<g>
</g>
<g>
</g>
<g>
</g>
<g>
</g>
<g>
</g>
<g>
</g>
<g>
</g>
<g>
</g>
<g>
</g>
<g>
</g>
<g>
</g>
<g>
</g>
<g>
</g>
<g>
</g>
<g>
</g>
</svg>
