<svg id="Layer_1" data-name="Layer 1" xmlns="http://www.w3.org/2000/svg" width="1000" height="1000">
  <defs>
    <style>.cls-1{fill:#fff;}.cls-2{fill:none;}.cls-3{opacity:0;}</style>
  </defs>
  <title>Artboard 1emblem</title>
  <path class="cls-1"
        d="M477,248.07l-.07-1.23h2c.7,0,1.19-.06,1.46-.06l1.23,0,.39,0,1.1,0,1.07,0,.55,0c1.8,1.64,3.28,3.06,4.41,4.24s5.29,5.32,12.45,12.43V263l-.07-2c0-1.2-.08-2.14-.14-2.84s-.1-1.53-.11-2.5,0-1.84-.12-2.62c-.14-1.54-.21-2.42-.21-2.66a2.56,2.56,0,0,0-.25-1.39,3.14,3.14,0,0,0-1.69-.58,5.11,5.11,0,0,1-1.44-.4l0-1,.46-.05,3.46-.11,3.87-.1.74,0v1.14a3.76,3.76,0,0,1-.82.32,6.75,6.75,0,0,0-1.3.37,5.75,5.75,0,0,0-1,.61,1.06,1.06,0,0,0-.16.65c0,.07,0,.32,0,.74,0,.21,0,.7,0,1.48,0,1.7.06,3,.14,4q0,.48.06,1.08l.19,6.17c0,.43,0,.73,0,.91v2.16l.05.92-.05.95c0,.48.07.76.07.86V270l-2,.07-2.1-2.16L495,263.63l-3-3-2.19-2.25q-2.14-2.1-3.9-3.71l-2.87-2.58.16,6.54c0,.4,0,.81,0,1.23l0,1.25.1,2.3c0,1,.1,2,.2,3.13a4.12,4.12,0,0,0,.08.64,5.62,5.62,0,0,0,.22.54,13.41,13.41,0,0,0,3,.36l.46.13.07,1.42-.68,0c-.38,0-1.56-.09-3.56-.26-1.86,0-3.1.05-3.72.1l-1,.07a3,3,0,0,1-.58-.07c0-.27,0-.5,0-.7s0-.34,0-.63a4.72,4.72,0,0,1,.81-.09l.69,0a3.72,3.72,0,0,0,1.74-.22c.19-.14.29-.54.31-1.18.08-1.87.13-3,.13-3.41v-1l0-5.71-.05-3.57a10.84,10.84,0,0,0-.27-2.83,1.53,1.53,0,0,0-.4-.71,4.15,4.15,0,0,0-1.37-.94A13.79,13.79,0,0,0,477,248.07Z"/>
  <path class="cls-1"
        d="M497.67,724.19A12.3,12.3,0,0,1,498,726a26.24,26.24,0,0,1,.21,2.82,4.24,4.24,0,0,1-.07.68l-.18.06-1.27-.09-.21,0a9.1,9.1,0,0,0-1.54-3.14,4.2,4.2,0,0,0-3.15-1.41,3.9,3.9,0,0,0-2.73.91,2.86,2.86,0,0,0-1,2.24,3.09,3.09,0,0,0,1,2.16,9.9,9.9,0,0,0,4.18,2,20.66,20.66,0,0,1,2.6,1,7.71,7.71,0,0,1,2.31,1.53,6.8,6.8,0,0,1,1.45,2.1,7.1,7.1,0,0,1,.39,2.52,9,9,0,0,1-.61,3.26,5,5,0,0,1-1.08,1.6,10.35,10.35,0,0,1-1.63,1.24,8.5,8.5,0,0,1-2.29,1,12.28,12.28,0,0,1-3.05.31,14.5,14.5,0,0,1-2.94-.35l-2.11-.61a4,4,0,0,1-1.11-.44A.63.63,0,0,1,485,745v-.19c0-.13,0-.93-.09-2.41,0-.76,0-1.3,0-1.62v-.66l1.64,0c.56,1.31.92,2.09,1.08,2.36a6,6,0,0,0,1.21,1.46,5.08,5.08,0,0,0,1.57.88,5.79,5.79,0,0,0,2,.33,6.32,6.32,0,0,0,2.09-.41,3.8,3.8,0,0,0,1.83-1.33,3.06,3.06,0,0,0-.52-4.39,14.43,14.43,0,0,0-4-1.83,19.24,19.24,0,0,1-4.48-2,6.22,6.22,0,0,1-2-2.4,6.69,6.69,0,0,1-.72-2.89,6.39,6.39,0,0,1,2-4.75,8.16,8.16,0,0,1,5.91-2,15.24,15.24,0,0,1,2.49.3A18.23,18.23,0,0,1,497.67,724.19Z"/>
  <path class="cls-1"
        d="M235.32,486l-.09-1.09a.84.84,0,0,1,.33-.11c1,.07,1.95.11,2.92.14l.77,0c.43,0,.92,0,1.48-.05l2.29-.11a.3.3,0,0,1,.15.2l-.14.8a4.84,4.84,0,0,1-.65.37c-.46.26-.7.47-.7.64a1.38,1.38,0,0,0,.18.58,7.39,7.39,0,0,1,.28.72c.2.57.76,2,1.69,4.18l4.55,10.62c.6-1.12,1.53-3,2.79-5.63l-2.57-6.18c-.47-1.16-.89-2.12-1.24-2.87-.12-.25-.22-.48-.3-.7s-.17-.29-.29-.52a1.35,1.35,0,0,0-.55-.56,7.4,7.4,0,0,0-1.76-.56l.07-1.05c.37,0,.89,0,1.55.05.94.07,1.55.11,1.82.11l2.46,0,3-.18a.79.79,0,0,0,.24,0l0,.6v.21a.71.71,0,0,1-.07.28,6.25,6.25,0,0,1-.95.16,1.13,1.13,0,0,0-.64.19.47.47,0,0,0-.19.37,3.2,3.2,0,0,0,.37,1.29,11,11,0,0,1,.42,1c.59,1.5,1,2.59,1.36,3.28l1.23-2.55a24.36,24.36,0,0,0,1.11-2.58,1.33,1.33,0,0,0,.05-.3v-.1a1.31,1.31,0,0,0-.39-.32,10.67,10.67,0,0,0-1.49-.46,3.87,3.87,0,0,1,0-.51,4.17,4.17,0,0,1,.06-.58c.38,0,1.48,0,3.28.09,1.07,0,1.75.05,2,.05h1.25l0,.14-.05.79,0,.09a11.13,11.13,0,0,0-2.27.79,2.35,2.35,0,0,0-.7.8c-.59,1-1.67,3.19-3.26,6.47l.07.16,1.13,2.6,1.92,4.52c.19.45.34.77.42,1l2.21-5.81,3.1-7.89.49-1.47a1.43,1.43,0,0,0,0-.29l-.05-.29c-.4-.13-.72-.23-1-.29a2.28,2.28,0,0,1-.65-.28q-.06-.57-.06-.72a.82.82,0,0,1,.13-.37l.28,0,2.63.1,1.74-.1.37.05a3.06,3.06,0,0,1,.06.56,1,1,0,0,1-.13.51.7.7,0,0,1-.35.21,3.06,3.06,0,0,0-1,.67,4.17,4.17,0,0,0-.55,1.18q-1.53,4.11-3.15,7.93t-4.85,12.14l-1.75,0a6.8,6.8,0,0,0-.39-1.07q-.51-1.14-.6-1.44l-1.95-4.5a17.32,17.32,0,0,0-.77-1.67c0-.06-.08-.14-.14-.25,0,.06-.65,1.23-1.86,3.53s-2.11,4.08-2.68,5.37h-1.79a61.86,61.86,0,0,0-2.48-5.94l-5.68-13.29a11,11,0,0,0-1.28-2.41,1.62,1.62,0,0,0-.53-.29Z"/>
  <path class="cls-1"
        d="M720,484.68c.66,0,1.24.09,1.74.16a23.15,23.15,0,0,0,3.21.2c.42,0,1.51,0,3.25-.11,2.62-.1,5-.16,7.09-.16l3.18,0a28.71,28.71,0,0,1,3.16.26,1.38,1.38,0,0,1,.32.95v3.62l0,.72c0,.07,0,.18,0,.32l-.72,0-.6,0c-.11-.24-.25-.58-.42-1l-.71-1.25a7.85,7.85,0,0,0-1.12-1.61,4.28,4.28,0,0,0-1.13-.14c-.11,0-.47-.05-1.07-.09-1.09-.1-2.26-.14-3.51-.14-1.43,0-2.71,0-3.84.07,0,.29-.05,1.44-.05,3.46l0,2.95V495c.29,0,.55,0,.76,0,2.1,0,3.6,0,4.49-.12a4.46,4.46,0,0,0,1.65-.34,1.86,1.86,0,0,0,.57-.77c.1-.26.31-1.12.62-2.58l.22,0,1,0c.05,1,.07,1.83.07,2.37,0,1.23,0,2,0,2.37s0,.63,0,.83,0,.82.05,1.52.06,1.21.06,1.55v.39H737c0-.19-.14-.57-.27-1.16a6.92,6.92,0,0,0-.63-2,1.27,1.27,0,0,0-.7-.47,13.93,13.93,0,0,0-2.61-.13,39.13,39.13,0,0,0-4,.15v.59c0,1.4,0,2.56.07,3.48l0,3.8a.92.92,0,0,0,.48.91,14.12,14.12,0,0,0,4.41.37,19.7,19.7,0,0,0,4.15-.37,4,4,0,0,0,2.07-1.17,9,9,0,0,0,2-3.31c.36,0,.66,0,.9,0l.58,0c0,.29-.07.54-.09.74l-.1.52-.64,3.32-.32,2c-.76,0-1.36.05-1.81.05-.65,0-2.41-.06-5.26-.17q-3-.13-7.25-.13-2.1,0-5.19.18H722l-2.13.07v-1.21a10.22,10.22,0,0,1,1.33-.2,8.54,8.54,0,0,0,2.53-.56,3.62,3.62,0,0,0,.2-1.28c0-.2,0-.54,0-1l0-.55-.05-6.62v-2l-.09-2.81,0-2-.16-2.18c0-.06,0-.18,0-.35a.88.88,0,0,0-.53-.25l-.53-.1a11.1,11.1,0,0,0-1.93-.25c-.22,0-.48,0-.77-.07Z"/>
  <path class="cls-1"
        d="M536.25,346.44a3.05,3.05,0,0,1,1.82,1.15,2.12,2.12,0,0,1,.2,1.83,2.24,2.24,0,0,1-.45.85,2,2,0,0,1-.73.56,2.47,2.47,0,0,1-1,.23,3.41,3.41,0,0,1-1.15-.15l-1.39-.4-.86,3-.55-.16,2.14-7.48Zm-1.16,4a2.81,2.81,0,0,0,.93.11,1.94,1.94,0,0,0,.77-.19,1.71,1.71,0,0,0,.58-.45,1.83,1.83,0,0,0,.35-.68,1.7,1.7,0,0,0-.15-1.48,2.4,2.4,0,0,0-1.44-.92l-1.4-.4-1,3.61Z"/>
  <path class="cls-1"
        d="M538.74,352.22l0,.1a3.44,3.44,0,0,0-.2,1.07,2.23,2.23,0,0,0,.14.88,1.65,1.65,0,0,0,.46.65,2.12,2.12,0,0,0,.74.41,2.54,2.54,0,0,0,.71.14,2.83,2.83,0,0,0,.54,0l.38-.09a.39.39,0,0,1,.19,0,.11.11,0,0,1,.09.09l.08.21a1.61,1.61,0,0,1-.42.18,2.34,2.34,0,0,1-.54.08,4.1,4.1,0,0,1-.6,0,3.26,3.26,0,0,1-.6-.14,2.51,2.51,0,0,1-.91-.5,2.14,2.14,0,0,1-.57-.79,2.59,2.59,0,0,1-.2-1,3.81,3.81,0,0,1,.22-1.23,3.35,3.35,0,0,1,.5-1,2.37,2.37,0,0,1,.72-.66,2.09,2.09,0,0,1,.91-.3,2.64,2.64,0,0,1,1.06.13,2.33,2.33,0,0,1,.76.42,1.92,1.92,0,0,1,.51.66,2.13,2.13,0,0,1,.2.86,2.77,2.77,0,0,1-.16,1,.26.26,0,0,1-.08.15.13.13,0,0,1-.12,0Zm3.57.82a2.08,2.08,0,0,0,.13-.79,1.64,1.64,0,0,0-.14-.67,1.68,1.68,0,0,0-.4-.52,1.71,1.71,0,0,0-.61-.33,2.11,2.11,0,0,0-.76-.12,1.9,1.9,0,0,0-.67.18,2,2,0,0,0-.56.45,2.76,2.76,0,0,0-.43.67Z"/>
  <path class="cls-1"
        d="M545.07,352.71a3.2,3.2,0,0,1,1.09-.4,2.24,2.24,0,0,1,1.14.12,2.11,2.11,0,0,1,.69.41,1.52,1.52,0,0,1,.39.59,1.73,1.73,0,0,1,.09.73,2.8,2.8,0,0,1-.19.84l-1.22,3.28-.5-.19,1.23-3.28a1.91,1.91,0,0,0,.09-1.25,1.28,1.28,0,0,0-.85-.78,1.91,1.91,0,0,0-1-.1,2.66,2.66,0,0,0-1,.42L543.52,357l-.5-.18,1.92-5.13.27.1a.15.15,0,0,1,.1.19Z"/>
  <path class="cls-1"
        d="M550.82,354.93a3,3,0,0,1,1.1-.36,2.12,2.12,0,0,1,1.13.17,1.86,1.86,0,0,1,.68.44,1.35,1.35,0,0,1,.37.6,2.14,2.14,0,0,1,.06.73,3.15,3.15,0,0,1-.23.83l-1.36,3.23-.49-.21,1.36-3.22a1.9,1.9,0,0,0,.15-1.25,1.3,1.3,0,0,0-.82-.82,2,2,0,0,0-1-.14,2.79,2.79,0,0,0-1,.38l-1.6,3.79-.49-.21,2.13-5,.27.11a.15.15,0,0,1,.09.19Z"/>
  <path class="cls-1"
        d="M563.4,358.15a.18.18,0,0,1-.17,0,.28.28,0,0,1-.12-.18,2.92,2.92,0,0,0-.18-.33,1.73,1.73,0,0,0-.33-.42,1.85,1.85,0,0,0-.59-.41,1.92,1.92,0,0,0-.72-.22,1.4,1.4,0,0,0-1.14.34,1.51,1.51,0,0,0-.36.47,1.16,1.16,0,0,0-.14.66,1.65,1.65,0,0,0,.2.59,3,3,0,0,0,.43.55l.53.54c.19.18.36.36.53.55a2.86,2.86,0,0,1,.39.61,1.74,1.74,0,0,1,.16.68,1.77,1.77,0,0,1-.2.79,2.68,2.68,0,0,1-.56.75,2.26,2.26,0,0,1-.77.46,2.35,2.35,0,0,1-.92.11,2.76,2.76,0,0,1-1-.31,3,3,0,0,1-1.07-.83,3.14,3.14,0,0,1-.54-1.1l.24-.15a.19.19,0,0,1,.18,0,.17.17,0,0,1,.08.11l.1.23c0,.09.08.19.14.3a2.33,2.33,0,0,0,.23.35,2.31,2.31,0,0,0,.35.35,2.17,2.17,0,0,0,.5.33,2.68,2.68,0,0,0,.8.24,1.88,1.88,0,0,0,.72-.07,1.58,1.58,0,0,0,.6-.35,2,2,0,0,0,.44-.58,1.26,1.26,0,0,0,.15-.68,1.47,1.47,0,0,0-.2-.6,2.37,2.37,0,0,0-.43-.54c-.17-.18-.35-.35-.54-.53s-.36-.36-.53-.55a2.63,2.63,0,0,1-.39-.61,1.58,1.58,0,0,1-.15-.69,1.84,1.84,0,0,1,.22-.82,1.85,1.85,0,0,1,.46-.61,1.83,1.83,0,0,1,.68-.38,2,2,0,0,1,.83-.09,2.47,2.47,0,0,1,.93.28,2.74,2.74,0,0,1,.89.65,2.61,2.61,0,0,1,.53.92Z"/>
  <path class="cls-1"
        d="M563,365.78a1.13,1.13,0,0,1-.62-.68,1.29,1.29,0,0,1,.17-1l1.76-3.29-.69-.37a.18.18,0,0,1-.07-.08.12.12,0,0,1,0-.1l.09-.18.86.38,1-1.66a.16.16,0,0,1,.08-.06.12.12,0,0,1,.1,0l.22.12-1,1.84,1.53.81-.19.35-1.52-.81-1.75,3.27a1.27,1.27,0,0,0-.13.37.8.8,0,0,0,0,.31.77.77,0,0,0,.14.25,1.08,1.08,0,0,0,.24.18,1,1,0,0,0,.33.11h.28l.21,0h.12a.19.19,0,0,1,0,.09v.27a1.49,1.49,0,0,1-.64.08A1.63,1.63,0,0,1,563,365.78Z"/>
  <path class="cls-1"
        d="M567.23,362.62a3.33,3.33,0,0,1,1.11-.11,2.57,2.57,0,0,1,1,.35,1.84,1.84,0,0,1,.59.5,1.39,1.39,0,0,1,.28.62,1.72,1.72,0,0,1,0,.71,3.14,3.14,0,0,1-.32.78l-1.78,3.08-.18-.1a.19.19,0,0,1-.1-.23l.29-.65-.59.12a3.41,3.41,0,0,1-.55,0,2.2,2.2,0,0,1-.55-.1,2.1,2.1,0,0,1-.56-.25,1.44,1.44,0,0,1-.43-.34,1.34,1.34,0,0,1-.29-.45,1.25,1.25,0,0,1-.06-.55,1.31,1.31,0,0,1,.21-.61,1.09,1.09,0,0,1,.49-.46,1.62,1.62,0,0,1,.8-.14,3.71,3.71,0,0,1,1.11.24,8.48,8.48,0,0,1,1.46.66l.29-.5a1.87,1.87,0,0,0,.3-1.18,1.18,1.18,0,0,0-.64-.83,1.54,1.54,0,0,0-.64-.24,2.49,2.49,0,0,0-.53,0l-.39.05a.35.35,0,0,1-.23,0,.13.13,0,0,1-.07-.08s0-.06,0-.09ZM569,366a10.56,10.56,0,0,0-1.23-.57,3.68,3.68,0,0,0-.93-.23,1.29,1.29,0,0,0-.67.07.8.8,0,0,0-.41.36,1.1,1.1,0,0,0-.16.46.88.88,0,0,0,0,.4.9.9,0,0,0,.2.34,1.64,1.64,0,0,0,.33.26,2.24,2.24,0,0,0,.54.23,2,2,0,0,0,.53.08,2.19,2.19,0,0,0,.51,0,5,5,0,0,0,.53-.12Z"/>
  <path class="cls-1"
        d="M570.74,370.26a1.22,1.22,0,0,1-.57-.72,1.29,1.29,0,0,1,.23-1l2-3.19-.67-.41a.13.13,0,0,1-.07-.08.12.12,0,0,1,0-.1l.11-.17.83.43,1.14-1.59a.16.16,0,0,1,.08-.06.12.12,0,0,1,.1,0l.22.13-1.1,1.78,1.47.9-.2.34-1.48-.91-1.94,3.16a1.38,1.38,0,0,0-.16.36.81.81,0,0,0,0,.31.62.62,0,0,0,.12.26.9.9,0,0,0,.23.2.94.94,0,0,0,.32.13l.27,0,.22,0c.06,0,.09,0,.12,0a.1.1,0,0,1,0,.09v.27a1.51,1.51,0,0,1-.64,0A1.63,1.63,0,0,1,570.74,370.26Z"/>
  <path class="cls-1"
        d="M574.43,369l-.06.09a3.54,3.54,0,0,0-.48,1,2.26,2.26,0,0,0-.09.88,1.62,1.62,0,0,0,.27.74,2.06,2.06,0,0,0,.61.6,2.54,2.54,0,0,0,.64.32,2.72,2.72,0,0,0,.54.11,2.69,2.69,0,0,0,.39,0,.31.31,0,0,1,.19,0,.13.13,0,0,1,.06.11l0,.22a1.35,1.35,0,0,1-.46.07,2,2,0,0,1-.54-.07,3.13,3.13,0,0,1-.57-.18,2.77,2.77,0,0,1-.54-.28,2.62,2.62,0,0,1-.75-.73,2.16,2.16,0,0,1-.35-.91,2.73,2.73,0,0,1,.08-1,4,4,0,0,1,.54-1.13,3.22,3.22,0,0,1,.74-.81,2.42,2.42,0,0,1,.87-.45,2.07,2.07,0,0,1,1,0,2.48,2.48,0,0,1,1,.4,2.16,2.16,0,0,1,.63.61,2,2,0,0,1,.32.76,2.19,2.19,0,0,1,0,.88,2.75,2.75,0,0,1-.43.95.26.26,0,0,1-.11.12.14.14,0,0,1-.12,0Zm3.23,1.73A2.31,2.31,0,0,0,578,370a1.81,1.81,0,0,0,0-.69,1.45,1.45,0,0,0-.25-.6,1.67,1.67,0,0,0-.5-.49,2,2,0,0,0-.7-.31,1.65,1.65,0,0,0-.7,0,1.94,1.94,0,0,0-.65.28,2.66,2.66,0,0,0-.6.53Z"/>
  <path class="cls-1"
        d="M582.27,367.81a2.33,2.33,0,0,1-.2.73,2.53,2.53,0,0,1-.42.64,2.22,2.22,0,0,1-.59.47,2,2,0,0,1-.71.26l-.06-.17a.08.08,0,0,1,0-.08s0,0,.06-.05a1.5,1.5,0,0,0,.52-.26,2.25,2.25,0,0,0,.73-.93,2.12,2.12,0,0,0,.14-.55c0-.12.06-.16.16-.15Z"/>
  <path class="cls-1"
        d="M584.07,373.44a.16.16,0,0,1-.15,0,.3.3,0,0,1-.08-.15,2.2,2.2,0,0,0-.11-.27,1.79,1.79,0,0,0-.22-.35,2,2,0,0,0-.42-.39,1.47,1.47,0,0,0-.48-.25,1.32,1.32,0,0,0-.47-.06.88.88,0,0,0-.42.11,1,1,0,0,0-.31.26.65.65,0,0,0-.14.43,1,1,0,0,0,.1.44,3.15,3.15,0,0,0,.27.45c.11.16.23.31.35.47s.23.32.33.49a1.9,1.9,0,0,1,.24.5,1.31,1.31,0,0,1,0,.52,1.1,1.1,0,0,1-.22.53,1.86,1.86,0,0,1-.5.47,1.58,1.58,0,0,1-.61.21,1.92,1.92,0,0,1-.7-.07,2.48,2.48,0,0,1-.74-.38,2.38,2.38,0,0,1-.69-.74,2.8,2.8,0,0,1-.32-.83l.21-.07a.15.15,0,0,1,.09,0,.14.14,0,0,1,.09,0,.27.27,0,0,1,.09.17,2.22,2.22,0,0,0,.1.32,3.58,3.58,0,0,0,.23.4,1.87,1.87,0,0,0,.45.43,1.83,1.83,0,0,0,.55.29,1.3,1.3,0,0,0,.51.05,1.11,1.11,0,0,0,.44-.16,1,1,0,0,0,.35-.33.78.78,0,0,0,.17-.44,1.32,1.32,0,0,0-.1-.46,3.22,3.22,0,0,0-.27-.46l-.34-.47c-.12-.16-.24-.32-.34-.48a1.9,1.9,0,0,1-.24-.5,1.32,1.32,0,0,1,0-.52,1.15,1.15,0,0,1,.23-.54,1.57,1.57,0,0,1,.43-.38,1.43,1.43,0,0,1,.57-.16,1.63,1.63,0,0,1,.65.07,2.25,2.25,0,0,1,.69.35,2.54,2.54,0,0,1,.63.64,2.19,2.19,0,0,1,.31.77Z"/>
  <path class="cls-1"
        d="M590.21,378.29a.14.14,0,0,1-.14,0,.35.35,0,0,1-.08-.15,1.61,1.61,0,0,0-.1-.28,2,2,0,0,0-.2-.37,2.06,2.06,0,0,0-.39-.4,1.54,1.54,0,0,0-.47-.28,1.39,1.39,0,0,0-.47-.09,1.17,1.17,0,0,0-.42.09,1,1,0,0,0-.32.25.69.69,0,0,0-.17.42,1,1,0,0,0,.08.44,2.4,2.4,0,0,0,.25.47l.32.49c.11.17.21.33.31.51a2.75,2.75,0,0,1,.21.51,1.3,1.3,0,0,1,0,.52,1,1,0,0,1-.25.52,1.72,1.72,0,0,1-.51.43,1.43,1.43,0,0,1-.63.18,1.7,1.7,0,0,1-.69-.1,2.25,2.25,0,0,1-.72-.42,2.45,2.45,0,0,1-.66-.77,2.84,2.84,0,0,1-.27-.84l.21-.07a.14.14,0,0,1,.09,0,.18.18,0,0,1,.09,0,.38.38,0,0,1,.08.18,1.32,1.32,0,0,0,.09.32,1.77,1.77,0,0,0,.21.41,1.75,1.75,0,0,0,.42.46,1.74,1.74,0,0,0,.53.31,1.35,1.35,0,0,0,.51.08,1,1,0,0,0,.45-.14,1.32,1.32,0,0,0,.37-.3.76.76,0,0,0,.18-.44,1.08,1.08,0,0,0-.07-.46,3,3,0,0,0-.24-.47l-.32-.49c-.11-.17-.22-.33-.31-.5a2.14,2.14,0,0,1-.22-.52,1.25,1.25,0,0,1,0-.51,1.09,1.09,0,0,1,.26-.53,1.19,1.19,0,0,1,.45-.35,1.27,1.27,0,0,1,.58-.14,1.82,1.82,0,0,1,.64.1,2.05,2.05,0,0,1,.66.39,2.48,2.48,0,0,1,.6.67,2,2,0,0,1,.27.79Z"/>
  <path class="cls-1"
        d="M589.5,384.1a1.16,1.16,0,0,1-.45-.8,1.24,1.24,0,0,1,.38-.92l2.45-2.83-.6-.52a.11.11,0,0,1,0-.09.09.09,0,0,1,0-.09l.13-.16.75.57,1.38-1.4.09,0a.17.17,0,0,1,.1,0l.19.17-1.37,1.58,1.31,1.13-.26.29-1.3-1.13-2.43,2.81a1.28,1.28,0,0,0-.21.33.7.7,0,0,0,0,.31.5.5,0,0,0,.08.27.72.72,0,0,0,.19.24.92.92,0,0,0,.3.17.9.9,0,0,0,.27.07l.21,0c.06,0,.09,0,.11,0s0,.05,0,.1l0,.27a1.6,1.6,0,0,1-.64-.07A1.68,1.68,0,0,1,589.5,384.1Z"/>
  <path class="cls-1"
        d="M598.05,384.34l-3.71,4-.21-.2a.14.14,0,0,1,0-.21l.51-.63a3.22,3.22,0,0,1-1.16,0,2.23,2.23,0,0,1-1-.54,2.1,2.1,0,0,1-.5-.65,1.47,1.47,0,0,1-.13-.68,1.71,1.71,0,0,1,.19-.71,2.64,2.64,0,0,1,.5-.71l2.37-2.57.38.36-2.37,2.57a1.87,1.87,0,0,0-.56,1.12,1.32,1.32,0,0,0,.49,1,2,2,0,0,0,.92.48,2.86,2.86,0,0,0,1.13,0l2.78-3Z"/>
  <path class="cls-1"
        d="M604.25,386.91l-5.66,5.66-.2-.2a.15.15,0,0,1,0-.22l.57-.65a3,3,0,0,1-1.16,0,2,2,0,0,1-1-.57,1.89,1.89,0,0,1-.62-1.61,3.27,3.27,0,0,1,1.09-1.87,3.81,3.81,0,0,1,.9-.68,2.57,2.57,0,0,1,1-.31,2.05,2.05,0,0,1,1,.1,2.16,2.16,0,0,1,.88.56,2.2,2.2,0,0,1,.54.83,2,2,0,0,1,.07.93l2.3-2.3Zm-3,2.25a1.81,1.81,0,0,0,0-1,1.92,1.92,0,0,0-.48-.75A2,2,0,0,0,600,387a1.88,1.88,0,0,0-.78-.08,2.4,2.4,0,0,0-.81.29,3.6,3.6,0,0,0-.78.61,2.87,2.87,0,0,0-1,1.59,1.54,1.54,0,0,0,.51,1.32,1.87,1.87,0,0,0,.9.5,3,3,0,0,0,1.11,0Z"/>
  <path class="cls-1"
        d="M602.08,392,602,392a3.65,3.65,0,0,0-.69.84,2.23,2.23,0,0,0-.31.83,1.76,1.76,0,0,0,.09.79,2,2,0,0,0,.45.72,2.55,2.55,0,0,0,.55.47,3.44,3.44,0,0,0,.49.23l.38.11a.36.36,0,0,1,.18.06.15.15,0,0,1,0,.12l0,.23a1.54,1.54,0,0,1-.46-.05,2.64,2.64,0,0,1-.51-.19,3.76,3.76,0,0,1-.5-.31,3.07,3.07,0,0,1-.47-.41,2.8,2.8,0,0,1-.55-.89,2.09,2.09,0,0,1-.11-1,2.54,2.54,0,0,1,.32-1,4.27,4.27,0,0,1,.79-1,3.27,3.27,0,0,1,.92-.61,2.4,2.4,0,0,1,.95-.23,2.13,2.13,0,0,1,1,.19,2.57,2.57,0,0,1,.85.62,2.37,2.37,0,0,1,.47.74,1.93,1.93,0,0,1,.12.82,2.27,2.27,0,0,1-.24.85,2.78,2.78,0,0,1-.64.82.51.51,0,0,1-.14.09.15.15,0,0,1-.11-.06Zm2.72,2.45a2,2,0,0,0,.5-.62,1.67,1.67,0,0,0,.2-.66,1.83,1.83,0,0,0-.09-.65,1.88,1.88,0,0,0-.37-.59,2.13,2.13,0,0,0-.61-.46,1.49,1.49,0,0,0-.68-.17,1.93,1.93,0,0,0-.7.11,2.53,2.53,0,0,0-.7.38Z"/>
  <path class="cls-1"
        d="M607.36,395.45a3.34,3.34,0,0,1,1.15.17,2.25,2.25,0,0,1,.94.66,2,2,0,0,1,.4.7,1.41,1.41,0,0,1,.06.7,1.73,1.73,0,0,1-.28.68,3.05,3.05,0,0,1-.57.65l-2.67,2.26-.34-.4,2.66-2.27a1.86,1.86,0,0,0,.69-1.05,1.31,1.31,0,0,0-.36-1.1,1.93,1.93,0,0,0-.85-.58,2.88,2.88,0,0,0-1.11-.14l-3.14,2.67-.34-.4,4.17-3.55.19.22a.15.15,0,0,1,0,.21Z"/>
  <path class="cls-1"
        d="M608.27,403.76a1.19,1.19,0,0,1-.3-.87,1.32,1.32,0,0,1,.55-.84l2.93-2.33-.49-.61a.14.14,0,0,1,0-.1.14.14,0,0,1,.05-.09l.16-.13.63.7,1.62-1.12a.15.15,0,0,1,.09,0,.11.11,0,0,1,.09,0l.16.19-1.64,1.3,1.08,1.35-.31.25-1.07-1.35-2.91,2.31a1.21,1.21,0,0,0-.27.29.63.63,0,0,0-.1.29.54.54,0,0,0,0,.28,1,1,0,0,0,.15.26,1,1,0,0,0,.26.24,1.74,1.74,0,0,0,.25.11,1,1,0,0,0,.21.05.23.23,0,0,1,.11,0,.11.11,0,0,1,0,.1l-.09.26a1.57,1.57,0,0,1-.62-.18A1.76,1.76,0,0,1,608.27,403.76Z"/>
  <path class="cls-1"
        d="M615.14,405.78a3.16,3.16,0,0,1,.65-.11,1.85,1.85,0,0,1,.58,0,1.59,1.59,0,0,1,.5.22,1.8,1.8,0,0,1,.42.41c.06.1.12.19.17.29a.75.75,0,0,1,.08.3l-.32.18a.11.11,0,0,1-.13,0l-.09-.19a1.67,1.67,0,0,0-.17-.31,1.72,1.72,0,0,0-.41-.4,1.37,1.37,0,0,0-.49-.18,1.94,1.94,0,0,0-.59,0,4,4,0,0,0-.68.17l-2.87,2.07-.31-.42,4.43-3.21.17.22a.19.19,0,0,1,0,.13.17.17,0,0,1-.08.12Z"/>
  <path class="cls-1"
        d="M620.62,411.38l-4.53,3.06-.17-.24a.15.15,0,0,1,0-.21l.65-.5a3,3,0,0,1-1.12-.3,2.23,2.23,0,0,1-.86-.76,1.89,1.89,0,0,1-.32-.74,1.49,1.49,0,0,1,0-.7,1.88,1.88,0,0,1,.35-.65,2.83,2.83,0,0,1,.65-.57l2.9-2,.29.44-2.9,1.95a1.85,1.85,0,0,0-.8,1,1.27,1.27,0,0,0,.23,1.13,1.93,1.93,0,0,0,.79.68,2.69,2.69,0,0,0,1.09.26l3.41-2.3Z"/>
  <path class="cls-1"
        d="M621.13,414a3.21,3.21,0,0,1,1.11.35,2.21,2.21,0,0,1,.82.79,2.1,2.1,0,0,1,.3.75,1.42,1.42,0,0,1-.06.71,1.71,1.71,0,0,1-.37.63,3.18,3.18,0,0,1-.67.55l-3,1.83-.27-.45,3-1.83a1.89,1.89,0,0,0,.85-.94,1.31,1.31,0,0,0-.19-1.14,2,2,0,0,0-.76-.71,3,3,0,0,0-1.08-.31l-3.5,2.16-.28-.45,4.66-2.87.16.25a.16.16,0,0,1,0,.21Z"/>
  <path class="cls-1"
        d="M625.85,421.89a3.18,3.18,0,0,1,1.06.42,2.19,2.19,0,0,1,.75.84,2,2,0,0,1,.25.76,1.49,1.49,0,0,1-.09.7,1.86,1.86,0,0,1-.42.61,3,3,0,0,1-.7.5l-3.08,1.65-.25-.46,3.08-1.65a1.83,1.83,0,0,0,.9-.88,1.27,1.27,0,0,0-.12-1.15,1.92,1.92,0,0,0-.71-.76,2.9,2.9,0,0,0-1.06-.37L621.84,424l-.25-.47,7.06-3.77.24.47Z"/>
  <path class="cls-1"
        d="M628.53,426.68a3.17,3.17,0,0,1,1,.53,2.59,2.59,0,0,1,.67.87,2.24,2.24,0,0,1,.21.75,1.39,1.39,0,0,1-.13.67,1.62,1.62,0,0,1-.42.57,2.58,2.58,0,0,1-.7.46l-3.2,1.56-.1-.19a.2.2,0,0,1,0-.25l.6-.38a4.53,4.53,0,0,1-.55-.23,2.47,2.47,0,0,1-.47-.29,2.83,2.83,0,0,1-.4-.38,2.49,2.49,0,0,1-.32-.53,1.93,1.93,0,0,1-.17-.53,1.36,1.36,0,0,1,0-.53,1.31,1.31,0,0,1,.24-.49,1.59,1.59,0,0,1,.53-.39,1.14,1.14,0,0,1,.66-.1,1.6,1.6,0,0,1,.74.33,4.25,4.25,0,0,1,.79.83,9.31,9.31,0,0,1,.83,1.36l.52-.25a1.87,1.87,0,0,0,.91-.8,1.18,1.18,0,0,0-.06-1.06,1.85,1.85,0,0,0-.39-.55,2.6,2.6,0,0,0-.42-.32,3,3,0,0,0-.36-.18.37.37,0,0,1-.19-.13.2.2,0,0,1,0-.1.19.19,0,0,1,0-.09Zm-.44,3.79a8.66,8.66,0,0,0-.7-1.15,3.69,3.69,0,0,0-.64-.73,1.35,1.35,0,0,0-.59-.31.78.78,0,0,0-.54.07,1,1,0,0,0-.39.29.79.79,0,0,0-.19.36.9.9,0,0,0,0,.4,1.2,1.2,0,0,0,.13.39,2.23,2.23,0,0,0,.31.5,2.19,2.19,0,0,0,.39.36,2.51,2.51,0,0,0,.45.26c.16.07.33.13.51.19Z"/>
  <path class="cls-1"
        d="M632.46,435l-.07,0s0,0,0-.06,0-.09,0-.17a1.68,1.68,0,0,0,0-.29,2.12,2.12,0,0,0,0-.43,2,2,0,0,0-.17-.56,2,2,0,0,0-.49-.7,1.65,1.65,0,0,0-.69-.37,2.16,2.16,0,0,0-.85-.05,3.54,3.54,0,0,0-1,.29,3.88,3.88,0,0,0-.88.54,2.27,2.27,0,0,0-.53.65,1.59,1.59,0,0,0-.18.74,1.83,1.83,0,0,0,.17.78,1.74,1.74,0,0,0,.35.56,1.72,1.72,0,0,0,.37.32,1.33,1.33,0,0,0,.29.17c.09,0,.14.07.15.11a.15.15,0,0,1,0,.13l-.11.19a1.51,1.51,0,0,1-.41-.16,2.2,2.2,0,0,1-.4-.3,2.86,2.86,0,0,1-.36-.41,2.9,2.9,0,0,1-.29-.52,2.57,2.57,0,0,1-.22-1,2,2,0,0,1,.21-.9,2.41,2.41,0,0,1,.61-.8,3.72,3.72,0,0,1,1-.64,3.85,3.85,0,0,1,1.12-.31,2.42,2.42,0,0,1,1,.08,2.19,2.19,0,0,1,.84.47,2.75,2.75,0,0,1,.85,1.82,2.32,2.32,0,0,1-.14.84Z"/>
  <path class="cls-1"
        d="M636.31,435.82l-4.53,1.81.09.24a.5.5,0,0,0,.08.12.48.48,0,0,0,.15.11l2.75,1.26a.31.31,0,0,1,.14.07.39.39,0,0,1,.1.14l.17.43-3-1.39a.84.84,0,0,1-.25-.13.58.58,0,0,1,0,.18,1.11,1.11,0,0,1-.07.16l-1.62,3.38-.17-.42a.35.35,0,0,1,0-.14.18.18,0,0,1,.05-.15l1.43-3.05a.49.49,0,0,0,0-.11.3.3,0,0,0,0-.1.38.38,0,0,0,0-.1,1.12,1.12,0,0,0-.05-.13l-.09-.23-2.56,1-.2-.49,7.43-3Z"/>
  <path class="cls-1"
        d="M635,441.39a3.73,3.73,0,0,1,.92.63,2.5,2.5,0,0,1,.56.94,1.81,1.81,0,0,1,.13.77,1.41,1.41,0,0,1-.19.65,1.72,1.72,0,0,1-.49.52,2.72,2.72,0,0,1-.74.39l-3.35,1.2-.07-.2a.19.19,0,0,1,.07-.24l.64-.31a5.06,5.06,0,0,1-.52-.29,2.46,2.46,0,0,1-.44-.34,2.06,2.06,0,0,1-.35-.42,2.24,2.24,0,0,1-.27-.56,1.73,1.73,0,0,1-.11-.54,1.34,1.34,0,0,1,.08-.53,1.22,1.22,0,0,1,.3-.46,1.6,1.6,0,0,1,.56-.33,1.09,1.09,0,0,1,.67,0,1.61,1.61,0,0,1,.7.41,4.14,4.14,0,0,1,.7.9,9.49,9.49,0,0,1,.68,1.45l.54-.19a1.85,1.85,0,0,0,1-.71,1.19,1.19,0,0,0,.06-1.05,1.88,1.88,0,0,0-.33-.6,3.06,3.06,0,0,0-.39-.36,2.9,2.9,0,0,0-.34-.21.37.37,0,0,1-.17-.15.2.2,0,0,1,0-.11.12.12,0,0,1,0-.08Zm-.84,3.72a13.24,13.24,0,0,0-.57-1.22,4.15,4.15,0,0,0-.57-.79,1.37,1.37,0,0,0-.55-.37.8.8,0,0,0-.55,0,1.09,1.09,0,0,0-.41.24.89.89,0,0,0-.23.34.91.91,0,0,0-.06.4,1.24,1.24,0,0,0,.08.41,2.53,2.53,0,0,0,.26.52,2,2,0,0,0,.35.4,2.53,2.53,0,0,0,.42.31l.48.24Z"/>
  <path class="cls-1"
        d="M632.68,449.47a1.16,1.16,0,0,1,0-.92,1.28,1.28,0,0,1,.81-.59l3.56-1.15-.25-.75a.14.14,0,0,1,0-.11.09.09,0,0,1,.07-.06l.2-.07.35.87,1.9-.48.1,0a.1.1,0,0,1,.06.08l.08.23-2,.65.54,1.64-.38.12-.53-1.64-3.53,1.15a1,1,0,0,0-.35.17.9.9,0,0,0-.21.23.89.89,0,0,0-.07.28.79.79,0,0,0,0,.3.86.86,0,0,0,.16.3,1.23,1.23,0,0,0,.19.2l.18.12c.05,0,.08.06.08.09a.1.1,0,0,1,0,.1l-.18.2a1.34,1.34,0,0,1-.51-.39A1.52,1.52,0,0,1,632.68,449.47Z"/>
  <path class="cls-1"
        d="M638,450.82a3.09,3.09,0,0,1,.95.63,2.18,2.18,0,0,1,.56,1,2.08,2.08,0,0,1,.09.8,1.46,1.46,0,0,1-.24.66,1.73,1.73,0,0,1-.53.51,2.86,2.86,0,0,1-.79.35l-3.37,1-.14-.51,3.36-1a1.83,1.83,0,0,0,1.06-.67,1.29,1.29,0,0,0,.13-1.15,2,2,0,0,0-.54-.89,2.86,2.86,0,0,0-1-.58l-3.95,1.14-.15-.51,7.69-2.22.15.51Z"/>
  <path class="cls-1"
        d="M641,458.11a2.62,2.62,0,0,1,0,1.07,2.23,2.23,0,0,1-.37.9,2.44,2.44,0,0,1-.74.68,3.83,3.83,0,0,1-1.09.44,3.73,3.73,0,0,1-1.17.11,2.58,2.58,0,0,1-1-.26,2.1,2.1,0,0,1-.73-.63,2.6,2.6,0,0,1-.44-1,2.46,2.46,0,0,1-.06-1.07,2.12,2.12,0,0,1,.36-.89,2.5,2.5,0,0,1,.75-.69,4.07,4.07,0,0,1,2.26-.55,2.54,2.54,0,0,1,1,.27,2.21,2.21,0,0,1,.74.62A2.68,2.68,0,0,1,641,458.11Zm-5.07,1.24a2.06,2.06,0,0,0,.36.79,1.67,1.67,0,0,0,.61.48,2.19,2.19,0,0,0,.83.17,3.61,3.61,0,0,0,1-.12,3.53,3.53,0,0,0,.93-.35,2.2,2.2,0,0,0,.66-.53,1.7,1.7,0,0,0,.32-.71,2.17,2.17,0,0,0-.4-1.66,1.7,1.7,0,0,0-.62-.48,2.15,2.15,0,0,0-.83-.18,3.61,3.61,0,0,0-1,.12,3.53,3.53,0,0,0-.93.35,2.06,2.06,0,0,0-.65.54,1.64,1.64,0,0,0-.32.71A2,2,0,0,0,635.91,459.35Z"/>
  <path class="cls-1"
        d="M641,462.83a3.06,3.06,0,0,1,.91.71,2.12,2.12,0,0,1,.5,1,2,2,0,0,1,0,.81,1.56,1.56,0,0,1-.29.64,2,2,0,0,1-.57.46,2.83,2.83,0,0,1-.82.28l-3.43.69-.11-.52,3.43-.69a1.85,1.85,0,0,0,1.12-.58,1.3,1.3,0,0,0,.22-1.14,2,2,0,0,0-.47-.92,2.66,2.66,0,0,0-.9-.66l-4,.8-.11-.51,5.37-1.08.06.29a.15.15,0,0,1-.11.18Z"/>
  <path class="cls-2" d="M465.81,471.88l-.68-.68V472Z"/>
  <polygon class="cls-2" points="567.03 568.96 542.95 538.37 538.83 540.76 567.03 568.96"/>
  <path class="cls-2" d="M469.33,494.4l-1-1.31c0,.44,0,.88,0,1.31Z"/>
  <path class="cls-2" d="M452.82,518.57l-.47-.06v.65Z"/>
  <polygon class="cls-2" points="419.04 571.03 451.01 545.86 446.7 543.37 419.04 571.03"/>
  <path class="cls-2"
        d="M482,351.11l1.86-15.65A160.55,160.55,0,0,0,331.46,487.87L347.11,486A145.46,145.46,0,0,1,482,351.11Z"/>
  <path class="cls-2" d="M452.35,515.48l2.65.32.09-.12-2.74-1.47Z"/>
  <path class="cls-2"
        d="M480.92,360.21A136.47,136.47,0,0,0,356.21,484.92l71.4-8.49v-9a13.51,13.51,0,0,1,6.72-11.68l3.15-1.82L399.1,405.2a1.49,1.49,0,0,1,.12-2,1.49,1.49,0,0,1,2-.12l52.61,41.42,18.34-10.6Z"/>
  <polygon class="cls-2" points="300.73 497.44 427.61 512.54 427.61 497.44 300.73 497.44"/>
  <path class="cls-2" d="M452.45,473v.51l.37,0Z"/>
  <path class="cls-2"
        d="M460.3,509.06c0-2.36,0-4.72.05-7.06a1.28,1.28,0,0,0-1.88-1.11c-2,1.11-4,2.18-6.06,3.23v3.71l6.24,3.33Z"/>
  <path class="cls-2"
        d="M474.15,486.26l3.9-2.14L474.93,481l-5.71,3.05-.55,4.65,3.83,4.87L473,493l0-4.72A2.21,2.21,0,0,1,474.15,486.26Z"/>
  <path class="cls-2" d="M496.77,525.31l-3.33-1.77v15.75l3.39-1.86Z"/>
  <path class="cls-2" d="M511.5,498.43,507.87,503v4.48l-2.47-1.34-.51.64,7.76,7.75q0-7.32,0-14.65Z"/>
  <path class="cls-2" d="M479.92,459.39a1.92,1.92,0,0,0,1.05-1.68v-8.5l-3.78,2a2,2,0,0,0-1,1.65c0,2.83,0,5.62,0,8.44Z"/>
  <polygon class="cls-2" points="440.11 452.43 444.07 450.15 416.97 423.04 440.11 452.43"/>
  <path class="cls-2" d="M494.43,476.5l8.39,6.61,2.47-2.47-9.57-5.16Z"/>
  <path class="cls-2" d="M504.76,473.32l-1.55-.19,1.55.82Z"/>
  <path class="cls-2" d="M479.36,464.64l1.54,1.21V463.8Z"/>
  <polygon class="cls-2" points="536.2 449.73 564.96 420.97 531.72 447.14 536.2 449.73"/>
  <path class="cls-2" d="M528.92,546.48l-16.85,9.73-2.39,20.1q30.7.62,61.36,3.34Z"/>
  <path class="cls-2"
        d="M627.79,507.08l-74.4,8.85v8.62a13.49,13.49,0,0,1-6.72,11.68l-1.09.63,34.35,43.62q8.69.87,17.35,1.89A135.62,135.62,0,0,0,627.79,507.08Z"/>
  <path class="cls-2" d="M508.81,558.1l-11.57,6.68a13.39,13.39,0,0,1-3.8,1.48v9.87q6.6,0,13.21.12Z"/>
  <path class="cls-2"
        d="M640.12,558.57a159.29,159.29,0,0,0,12.42-54.44L636.89,506a144.5,144.5,0,0,1-29.18,77.69q8.73,1.14,17.43,2.45A160.49,160.49,0,0,0,640.12,558.57Z"/>
  <path class="cls-2"
        d="M347.11,506l-15.65-1.86a160,160,0,0,0,27.4,82q8.7-1.32,17.42-2.46A144.54,144.54,0,0,1,347.11,506Z"/>
  <path class="cls-2"
        d="M500.13,656.54A160,160,0,0,0,582,629.26q-13.43-1.44-26.88-2.45A144.19,144.19,0,0,1,502,640.89Z"/>
  <path class="cls-2" d="M483.76,427.22a13.56,13.56,0,0,1,6.75-1.81h.05V304.72L475.41,432Z"/>
  <path class="cls-2" d="M472.15,558.07l-18.34-10.59L413,579.63q30.6-2.73,61.33-3.34Z"/>
  <path class="cls-2"
        d="M437.48,538.05l-3.15-1.82a13.51,13.51,0,0,1-6.72-11.68v-9l-71.4-8.49a135.68,135.68,0,0,0,30.5,75.28q8.69-1,17.37-1.9Z"/>
  <path class="cls-2" d="M534.32,625.51q-15.18-.76-30.38-1l-.86,7.26A135.8,135.8,0,0,0,534.32,625.51Z"/>
  <path class="cls-2" d="M336.07,600.26c.18,1,.36,2,.53,3h0l-.53-3Z"/>
  <path class="cls-2" d="M623,634.69l-3-.46,3,.46Z"/>
  <path class="cls-2" d="M515,460.31l.84,7.08q0-3.88,0-7.75Z"/>
  <path class="cls-2"
        d="M627.79,484.92A136.47,136.47,0,0,0,503.08,360.21l9,75.58,16.85,9.73,53.87-42.42a1.5,1.5,0,0,1,.93-.32,1.45,1.45,0,0,1,1.06.44,1.49,1.49,0,0,1,.12,2l-39.32,49.94,1.09.63a13.53,13.53,0,0,1,6.72,11.68v8.62Z"/>
  <polygon class="cls-2" points="429.33 644.35 429.43 644.12 429.33 644.35 429.33 644.35"/>
  <path class="cls-2" d="M500.91,624.49c-2.49,0-5,0-7.47,0v62.83Z"/>
  <path class="cls-2" d="M480.06,624.53q-15.19.21-30.38,1a135.8,135.8,0,0,0,31.24,6.28Z"/>
  <path class="cls-2"
        d="M483.87,656.54,482,640.89a144.19,144.19,0,0,1-53.08-14.08q-13.46,1-26.89,2.45a160.08,160.08,0,0,0,81.83,27.28Z"/>
  <path class="cls-2" d="M442.9,526.55v-9.16l-7.77-.92v4.62a11.83,11.83,0,0,0,5.93,10.28l1.15.67,3.23-4.11Z"/>
  <path class="cls-2" d="M442.9,504.15a2.22,2.22,0,0,1,1.14-1.93l8.95-4.78h-8.84l-1.19.65v-.65h-7.83v16l7.77.93Z"/>
  <polygon class="cls-2" points="467.88 522.19 452.24 537.84 457.4 540.83 469.01 531.69 467.88 522.19"/>
  <path class="cls-2"
        d="M442.93,466a1.87,1.87,0,0,1,1-1.68l1.18-.63-2.93-3.71-1.13.66a11.82,11.82,0,0,0-5.93,10.27v4.66l7.81-.92Z"/>
  <path class="cls-2" d="M452.48,459.74q0,4.18,0,8.36l3,3.8a2,2,0,0,0,.13-.68v-9.59l-6-6-4.77,2.76,3,3.8Z"/>
  <path class="cls-2"
        d="M488.83,440.2q.06,16,0,31.92l3.13,2.47.84-.67-.71-.38v-1.72l-.25,0a1.49,1.49,0,0,1-1.32-1.49V433.88h-.08a11.88,11.88,0,0,0-5.93,1.59l-10.25,5.92-.84,7.06Z"/>
  <polygon class="cls-2" points="460.2 542.45 471.04 548.72 469.43 535.18 460.2 542.45"/>
  <path class="cls-2" d="M553.39,494.56H654l.11,0h0l.6,0h28.58L553.39,479.1Z"/>
  <path class="cls-2" d="M529.29,531.22l4,4,4.93-2.84L535,528.21Z"/>
  <path class="cls-2" d="M515.86,455.8v-1.3a.94.94,0,0,1,1.4-.82l.77.41,4.5-3.54-9.35-5.4,1.39,11.67Z"/>
  <polygon class="cls-2" points="554.67 347.65 554.57 347.88 554.67 347.65 554.67 347.65"/>
  <path class="cls-2" d="M538,525.25a2.18,2.18,0,0,1-.48,1.38l3.3,4.19a11.85,11.85,0,0,0,5-9.69v-4.3l-7.83.93Z"/>
  <path class="cls-2"
        d="M507.92,530c0,3.8,0,7.61,0,11.42a2.2,2.2,0,0,1-1.17,2l-13.32,7.15v7.27a12,12,0,0,0,3-1.22l13.51-7.8L511.8,533Z"/>
  <path class="cls-2" d="M514.08,539.31l-.9,7.54,9.34-5.4-5-4Z"/>
  <path class="cls-2"
        d="M636.89,486l15.65,1.86A160.55,160.55,0,0,0,500.13,335.46L502,351.11A145.46,145.46,0,0,1,636.89,486Z"/>
  <path class="cls-2"
        d="M465.1,453v.43l3,2.34c0-1.09,0-2.18,0-3.28a2,2,0,0,1,1-1.68l1.12-.6.82-6.92-10.85,6.27,4.59,3.61Z"/>
  <path class="cls-2" d="M525.41,458.06v2.46l5.26-5.26-5.34-3.09-4.41,3.47Z"/>
  <path class="cls-2" d="M528.52,520.46v-.41l-.83-1.06-3.92.46V523C525.35,522.14,526.94,521.32,528.52,520.46Z"/>
  <path class="cls-2"
        d="M528.68,478.84l-1.23-.67-2.1,2.67v8.91a1,1,0,0,1-1,.94.93.93,0,0,1-.45-.11l-4.4-2.37-1.71,2.17,5.95,3.18v1h7.7l-2.9-1.54Z"/>
  <path class="cls-2" d="M538.07,464.85c0,4.48,0,6.15,0,9.4l7.75.92v-4.3a11.85,11.85,0,0,0-5-9.69L538,464.8Z"/>
  <path class="cls-2" d="M533.5,479.76l3.4,1.87a2.22,2.22,0,0,1,1.14,1.93l0,11h7.77V478.21l-7.74-.92Z"/>
  <path class="cls-1"
        d="M507.87,503v-15a2.24,2.24,0,0,0-1.17-2l-1.71-.92-2.76-1.48h0l-10.06-5.4-.63-.34a2.22,2.22,0,0,0-1.06-.26,2.19,2.19,0,0,0-1.06.26L484,480.88c-1.07.58-2.14,1.16-3.2,1.75l-2.75,1.49-3.9,2.14a2.21,2.21,0,0,0-1.18,2l0,4.72v4.84l0,13.5a2.13,2.13,0,0,0,.33,1.17,2.23,2.23,0,0,0,.84.77l1.71.92,9.14,4.9L488,520.6l2.49,1.33,3,1.61,3.33,1.77.06,12.12-3.39,1.86-3,1.63h0l-6.24-3.42,0-9.65a2.26,2.26,0,0,0-1.17-2l-1.05-.56-2.88-1.55-6.1-3.28s0,3.57,0,8.08v3.82c0,2.53,0,5.12,0,7.39v1.55a2.19,2.19,0,0,0,.32,1.14,2.15,2.15,0,0,0,.86.8c5.07,2.76,10.15,5.49,15.23,8.25a2.22,2.22,0,0,0,1,.26h0a2.2,2.2,0,0,0,1-.26l1.94-1,13.32-7.15a2.2,2.2,0,0,0,1.17-2c0-3.81,0-7.62,0-11.42,0-1.28,0-2.55,0-3.83q0-3.18,0-6.36a2.14,2.14,0,0,0-1.17-1.9L497.6,513l-2.9-1.55-10.51-5.58h0c0-1.4,0-2.8,0-4.19,0-3.71,0-7.43,0-11.14l.25-.14,2.68-1.56,3.44-2c2.48,1.42,3.32,1.9,5.46,3.15l.79.47,0,3,0,5.33v1.5a2.16,2.16,0,0,0,1.17,1.94l7.43,4,2.47,1.34Z"/>
  <path class="cls-1"
        d="M442.9,504.15v22.4l2.54,1.38,2.68,1.46,2.84,1.54a.91.91,0,0,0,.44.12,1,1,0,0,0,1-.95V514.21l2.74,1.47,2.69,1.43,7.12,3.82c.19.09.37.19.55.29,1.24-.73,1.59-1,2.8-1.68v-2l0-13.8c0-1.62,0-3.24,0-4.86V494.4c0-.43,0-.87,0-1.31v-1.3c0-.84,0-1.68,0-2.52l-2.92,1.56-6.77,3.61-5.63,3L444,502.22A2.22,2.22,0,0,0,442.9,504.15Zm9.51,0c2-1.05,4-2.12,6.06-3.23a1.28,1.28,0,0,1,1.88,1.11c0,2.34,0,4.7-.05,7.06,0,1,0,2,0,3-.54-.29-1.08-.58-1.63-.86l-6.24-3.33Z"/>
  <path class="cls-1"
        d="M464.78,453.15l-2.89,1.55-5.32,2.85a1.78,1.78,0,0,0-.49.36,1.94,1.94,0,0,0-.52,1.32v12a2,2,0,0,1-.13.68,1.85,1.85,0,0,1-.89,1l-.78.42-1.31.69V468.1q0-4.17,0-8.36l-4.67,2.48-2.69,1.43-1.18.63a1.87,1.87,0,0,0-1,1.68v11.67l0,16.81v3.65l1.19-.65c1.85-1,3.72-2,5.6-3l1.62-.85a1.88,1.88,0,0,0,1-1.68v-12a1.92,1.92,0,0,1,1-1.69l2.16-1.14,0,14.25,8.56-4.57a1.88,1.88,0,0,0,1-1.68l0-10.1c0-1,0-2,0-3v-.76c0-1.42,0-2.83,0-4.25q0-4.86,0-9.72c0-1.27,0-2.55,0-3.82V453Z"/>
  <path class="cls-1"
        d="M536.9,481.63l-3.4-1.87,4.6-2.47h0c0-1.18,0-2.16,0-3,0-3.25,0-4.92,0-9.4l-.09-.05-2.68-1.45c-1.77-1-3.55-1.89-5.32-2.85a1,1,0,0,0-.22-.09.91.91,0,0,0-.23,0,1,1,0,0,0-.94,1v.22c0,3.43,0,6.86,0,10.26v.62a1,1,0,0,1-1,1,.73.73,0,0,1-.25,0l-.22-.08-1.81-1,0-7.5v-6.71l-4.49-2.42L518,454.09l-.77-.41a.94.94,0,0,0-1.4.82v1.3c0,1.28,0,2.56,0,3.84q0,3.87,0,7.75c0,.9,0,1.81,0,2.72,0,1.41,0,2.83,0,4.25,0,3.94,0,7.89,0,11.84l1.06.57,2.69,1.44,4.4,2.37a.93.93,0,0,0,.45.11,1,1,0,0,0,1-.94V478.61a.93.93,0,0,1,.93-.94,1,1,0,0,1,.47.12l.7.38,1.23.67L528.59,493l2.9,1.54c1.73.91,3.46,1.84,5.19,2.77a.88.88,0,0,0,.44.12,1,1,0,0,0,1-1v-1.92l0-11A2.22,2.22,0,0,0,536.9,481.63Z"/>
  <path class="cls-1"
        d="M505.29,480.64l2.76,1.48,3.25,1.76a.91.91,0,0,0,.44.12,1,1,0,0,0,1-.94v-9.65l-.11-.06-5.2-2.74-2.65-1.42v1.1l0,3V474l-1.55-.82-2.48-1.3-.2-.14a1.28,1.28,0,0,1-.46-1v-2.48l0-15.8a1,1,0,0,1,1-.95.92.92,0,0,1,.42.1c1.11.57,2.25,1.14,3.36,1.74,0,1.55-.06,3.11-.06,4.7l4.92,2.66,2.88,1.56.16.09V451.2l-1.93-1c-5.74-3.05-11.46-6.12-17.2-9.16l-.06,0a1,1,0,0,0-.45-.12,1,1,0,0,0-.95,1c0,10,0,20,0,30v1.72l.71.38,2.88,1.56Z"/>
  <path class="cls-1"
        d="M517.84,490.38,515.15,489l-.11-.06a1.58,1.58,0,0,0-.75-.19,1.62,1.62,0,0,0-1.6,1.59v9.63q0,7.32,0,14.65c0,1.41,0,2.83,0,4.24l0,11c0,1.27,0,2.54,0,3.81,0,2.15,0,4.31,0,6.46l1.48-.79,3.42-1.82,2.9-1.53,6.12-3.27,2.77-1.47,5.66-3,1.88-1a2.12,2.12,0,0,0,.7-.59,2.18,2.18,0,0,0,.48-1.38v-24l-6.9-3.67-.78-.42a1.1,1.1,0,0,0-.58-.16,1.25,1.25,0,0,0-1,.58,1.3,1.3,0,0,0-.2.69v22.21c-1.58.86-3.17,1.68-4.76,2.54V493.56Z"/>
  <path class="cls-1" d="M644.69,648.78a.32.32,0,0,0,.23.1.34.34,0,0,0,.25-.58l-2.81-3-1.68-.3Z"/>
  <path class="cls-1" d="M339.36,648.43a.34.34,0,0,0,.25.58.32.32,0,0,0,.23-.09l4.31-4.06-1.72.31Z"/>
  <path class="cls-1"
        d="M490.51,279.63l-6.25,52.56a163.62,163.62,0,0,0-33.65,5.07L443,312a.32.32,0,0,0-.32-.24.33.33,0,0,0-.34.42l6.06,25.72a162.74,162.74,0,0,0-20.24,7A164.4,164.4,0,0,0,411,353.35L397.1,330.87a.32.32,0,0,0-.28-.17.35.35,0,0,0-.31.51L409,354.5a163.88,163.88,0,0,0-31.58,24.13L339.7,343.11a.32.32,0,0,0-.23-.1.34.34,0,0,0-.25.58l35.53,37.75a163.57,163.57,0,0,0-24.15,31.5l-23.23-12.49a.38.38,0,0,0-.17,0,.34.34,0,0,0-.17.63l22.43,13.88a165.2,165.2,0,0,0-8.57,17.34,161.49,161.49,0,0,0-7,20.06l-25.62-6h-.09a.34.34,0,0,0-.09.67l25.2,7.58a163.35,163.35,0,0,0-5.12,33.84l-52.56,6.25a1.5,1.5,0,0,0,0,3l52.56,6.25a163.51,163.51,0,0,0,5,33.34l-25.07,7.54a.34.34,0,0,0,.09.67h.09l25.47-6a164.26,164.26,0,0,0,15.47,37.51L327,590.52a.34.34,0,0,0,.17.63.38.38,0,0,0,.17,0l23-12.36c1.58,2.69,3.22,5.33,4.95,7.92l3.55-.54a160,160,0,0,1-27.4-82L347.11,506a144.54,144.54,0,0,0,29.17,77.68l3.45-.45,3.47-.43,3.51-.43a135.68,135.68,0,0,1-30.5-75.28l71.4,8.49v9a13.51,13.51,0,0,0,6.72,11.68l3.15,1.82-33.4,42.41q4.46-.44,8.91-.83l40.82-32.15,18.34,10.59,2.17,18.22,3,0q6.54-.11,13.1-.11h3v-9.87a13.39,13.39,0,0,0,3.8-1.48l11.57-6.68-2.16,18.15,3,.06,2.39-20.1,16.85-9.73L571,579.65q4.46.39,8.89.83l-34.35-43.62,1.09-.63a13.49,13.49,0,0,0,6.72-11.68v-8.62l74.4-8.85a135.62,135.62,0,0,1-30.51,75.29l3.51.43,3.48.43,3.44.45A144.5,144.5,0,0,0,636.89,506l15.65-1.86a160,160,0,0,1-27.4,82l3.55.55q2.56-3.85,4.89-7.84l22.83,12.27a.32.32,0,0,0,.16,0,.34.34,0,0,0,.18-.63l-22-13.63a164.38,164.38,0,0,0,8.4-17,162.24,162.24,0,0,0,7.11-20.52l25.26,6h.09a.34.34,0,0,0,.09-.67l-24.86-7.48a163.21,163.21,0,0,0,5-33.4l52.56-6.25a1.5,1.5,0,0,0,0-3l-52.56-6.25a163.27,163.27,0,0,0-5.14-33.9l25-7.52a.34.34,0,0,0-.09-.67h-.09l-25.4,6a163.91,163.91,0,0,0-15.6-37.46l22.27-13.77a.34.34,0,0,0-.18-.63.32.32,0,0,0-.16,0l-23.07,12.4a163.75,163.75,0,0,0-24-31.35L645,343.45a.34.34,0,0,0-.25-.58.32.32,0,0,0-.23.1L606.6,378.68a164,164,0,0,0-31.8-24.29l12.46-23.18a.34.34,0,0,0-.31-.51.33.33,0,0,0-.28.17l-13.84,22.39a163.73,163.73,0,0,0-37.44-15.46l6-25.67a.33.33,0,0,0-.34-.42.31.31,0,0,0-.31.24l-7.6,25.26a163,163,0,0,0-33.44-5l-6.25-52.56a1.5,1.5,0,0,0-3,0Zm56.16,176.14-1.09-.63L584.9,405.2a1.49,1.49,0,0,0-.12-2,1.45,1.45,0,0,0-1.06-.44,1.5,1.5,0,0,0-.93.32l-53.87,42.42-16.85-9.73-9-75.58A136.47,136.47,0,0,1,627.79,484.92l-74.4-8.85v-8.62A13.53,13.53,0,0,0,546.67,455.77Zm-10.47-6-4.48-2.59L565,421Zm-45.64-145V425.41h-.05a13.56,13.56,0,0,0-6.75,1.81L475.41,432ZM440.11,452.43,417,423l27.1,27.11Zm13.7-7.91L401.2,403.1a1.49,1.49,0,0,0-2,.12,1.49,1.49,0,0,0-.12,2L437.48,454l-3.15,1.82a13.51,13.51,0,0,0-6.72,11.68v9l-71.4,8.49A136.47,136.47,0,0,1,480.92,360.21l-8.77,73.71ZM343.88,433.43a160.55,160.55,0,0,1,140-98L482,351.11A145.46,145.46,0,0,0,347.11,486l-15.65,1.86A159.29,159.29,0,0,1,343.88,433.43Zm-43.16,64H427.61v15.1ZM419,571l27.66-27.66,4.31,2.49ZM567,569l-28.2-28.2,4.12-2.39Zm-21.19-47.83a11.85,11.85,0,0,1-5,9.69c-.3.21-.6.4-.92.58l-1.68,1-4.93,2.84-2.69,1.56-5.29,3.05-2.8,1.62-9.34,5.4-3.25,1.88-13.51,7.8a12,12,0,0,1-3,1.22,11.83,11.83,0,0,1-3,.37h0a11.74,11.74,0,0,1-5.89-1.59l-10.27-5.94L471,548.71l-10.84-6.26-2.8-1.62-5.17-3-2.68-1.56-4.72-2.72L442.21,532l-1.15-.67a11.83,11.83,0,0,1-5.93-10.28V470.87a11.82,11.82,0,0,1,5.93-10.27l1.13-.66,2.63-1.52,4.77-2.76,2.69-1.55,5.11-2.95,2.8-1.62L471,443.27l3.26-1.88,10.25-5.92a11.88,11.88,0,0,1,5.93-1.59h.08a11.78,11.78,0,0,1,3,.4,12,12,0,0,1,2.86,1.19l13.52,7.81,3.24,1.87,9.35,5.4,2.8,1.62,5.34,3.09,2.69,1.55,4.87,2.82,1.68,1c.32.18.62.37.92.58a11.85,11.85,0,0,1,5,9.69v50.26Zm137.43-26.57H654.69l-.6,0h0l-.11,0H553.39V479.1ZM554.57,347.88l.1-.23h0l-.1.23a160.55,160.55,0,0,1,98,140L636.89,486A145.46,145.46,0,0,0,502,351.11l-1.86-15.65A159.29,159.29,0,0,1,554.57,347.88Z"/>
  <path class="cls-1"
        d="M554.57,644.12a159.29,159.29,0,0,1-54.44,12.42L502,640.89a144.19,144.19,0,0,0,53.08-14.08c-2.07-.16-4.14-.3-6.2-.44-2.28-.16-4.55-.3-6.82-.44l-7.73-.42a135.8,135.8,0,0,1-31.24,6.28l.86-7.26-3,0-7.47,62.79V624.45h-3c-2.45,0-4.91,0-7.36,0l-3,0,.86,7.26a135.8,135.8,0,0,1-31.24-6.28c-2.58.13-5.15.27-7.73.42-2.27.14-4.54.28-6.82.44-2.06.14-4.13.28-6.2.44A144.19,144.19,0,0,0,482,640.89l1.86,15.65a159.29,159.29,0,0,1-54.44-12.42l-.1.23h0l.1-.23A160.89,160.89,0,0,1,402,629.26l-4.92.54q5.69,4,11.68,7.57l-12.29,22.88a.34.34,0,0,0,.31.5.33.33,0,0,0,.28-.16l13.66-22.08a164,164,0,0,0,37.52,15.6l-5.94,25.22a.34.34,0,0,0,.34.42.33.33,0,0,0,.32-.25l7.46-24.8a163.73,163.73,0,0,0,33.8,5.11l6.25,52.56a1.5,1.5,0,0,0,3,0l6.25-52.56a163.71,163.71,0,0,0,33.59-5.06l7.45,24.75a.32.32,0,0,0,.31.25.34.34,0,0,0,.34-.42l-5.92-25.16a163.06,163.06,0,0,0,20.33-7.06,165.16,165.16,0,0,0,17.24-8.51l13.59,22a.35.35,0,0,0,.28.16.34.34,0,0,0,.31-.5L575,637.48q6.09-3.59,11.85-7.68l-4.92-.54A160.42,160.42,0,0,1,554.57,644.12Z"/>
  <path class="cls-3"
        d="M455.56,459.23a1.94,1.94,0,0,1,.52-1.32,1.78,1.78,0,0,1,.49-.36l5.32-2.85,2.89-1.55-4.59-3.61-2.8,1.62-5.11,2.95-2.69,1.55,6,6Z"/>
  <path class="cls-3" d="M447.81,462.22l-3-3.8-2.63,1.52,2.93,3.71Z"/>
  <path class="cls-3" d="M452.82,473.43l-.37,0V474l1.31-.69.78-.42a1.85,1.85,0,0,0,.89-1l-3-3.8V473Z"/>
  <path class="cls-1"
        d="M475.13,480.9a1.94,1.94,0,0,0,1.08-1.71V478c0-3.52,0-7,0-10.53a1.92,1.92,0,0,1,.44-1.22,2,2,0,0,1,.54-.46l2.2-1.19,1.54-.84v14.05l6.2-3.31.75-.4a1.87,1.87,0,0,0,1-1.68v-.34q0-16,0-31.92l-15.37,8.25-3.24,1.74-1.12.6a2,2,0,0,0-1,1.68c0,1.1,0,2.19,0,3.28,0,1.27,0,2.54,0,3.81l0,8.94q0,8.1-.05,16.21l1.23-.66,5.71-3.05Zm2.06-29.7,3.78-2v8.5a1.92,1.92,0,0,1-1.05,1.68l-3.71,1.9c0-2.82,0-5.61,0-8.44A2,2,0,0,1,477.19,451.2Z"/>
  <path class="cls-3"
        d="M545.84,497.56v-3h-7.77v1.92a1,1,0,0,1-1,1,.88.88,0,0,1-.44-.12c-1.73-.93-3.46-1.86-5.19-2.77h-7.7v24.89l3.92-.46.83,1.06v-21.8a1.3,1.3,0,0,1,.2-.69,1.25,1.25,0,0,1,1-.58,1.1,1.1,0,0,1,.58.16l.78.42,6.9,3.67v16.53l7.83-.93V497.56Z"/>
  <path class="cls-3"
        d="M491.88,471.79l.25,0c0-10,0-20,0-30a1,1,0,0,1,.95-1,1,1,0,0,1,.45.12l.06,0c5.74,3,11.46,6.11,17.2,9.16l1.93,1v11.14l-.16-.09-2.88-1.56L504.73,458c0-1.59,0-3.15.06-4.7-1.11-.6-2.25-1.17-3.36-1.74a.92.92,0,0,0-.42-.1,1,1,0,0,0-1,.95l0,15.8v2.48a1.28,1.28,0,0,0,.46,1l.2.14,2.48,1.3,1.55.19,0-3v-1.1l2.65,1.42,5.2,2.74.11.06v9.65a1,1,0,0,1-1,.94.91.91,0,0,1-.44-.12l-3.25-1.76-2.76-1.48-2.47,2.47-8.39-6.61,1.29-1-2.88-1.56-.84.67-3.13-2.47v.34a1.87,1.87,0,0,1-1,1.68l-.75.4-6.2,3.31v-12l-1.54-1.21-2.2,1.19a2,2,0,0,0-.54.46,1.92,1.92,0,0,0-.44,1.22c0,3.52,0,7,0,10.53v1.15a1.94,1.94,0,0,1-1.08,1.71l-.2.1,3.12,3.12,2.75-1.49c1.06-.59,2.13-1.17,3.2-1.75l5.41-2.93a2.19,2.19,0,0,1,1.06-.26,2.22,2.22,0,0,1,1.06.26l.63.34,10.06,5.4h0l2.76,1.48,1.71.92a2.24,2.24,0,0,1,1.17,2v15l3.63-4.61,1.17,1.49v-9.63a1.62,1.62,0,0,1,1.6-1.59,1.58,1.58,0,0,1,.75.19l.11.06,2.69,1.43,1.71-2.17-2.69-1.44-1.06-.57c0-3.95,0-7.9,0-11.84,0-1.42,0-2.84,0-4.25,0-.91,0-1.82,0-2.72l-.84-7.08.86-.67c0-1.28,0-2.56,0-3.84l-1.29,1-1.39-11.67-3.24-1.87-13.52-7.81a12,12,0,0,0-2.86-1.19,11.78,11.78,0,0,0-3-.4V470.3A1.49,1.49,0,0,0,491.88,471.79Z"/>
  <polygon class="cls-3"
           points="442.96 494.44 442.94 477.63 442.94 474.61 435.13 475.54 435.13 478.56 435.13 494.44 435.13 497.44 442.96 497.44 442.96 494.44"/>
  <polygon class="cls-3" points="473.46 448.45 474.3 441.39 471.04 443.27 470.22 450.19 473.46 448.45"/>
  <path class="cls-3" d="M538.1,477.28h0l7.74.92v-3l-7.75-.92C538.09,475.12,538.1,476.1,538.1,477.28Z"/>
  <path class="cls-3" d="M442.9,514.36l-7.77-.93v3l7.77.92Z"/>
  <path class="cls-3"
        d="M491.5,551.52a2.2,2.2,0,0,1-1,.26h0a2.22,2.22,0,0,1-1-.26c-5.08-2.76-10.16-5.49-15.23-8.25a2.15,2.15,0,0,1-.86-.8,2.19,2.19,0,0,1-.32-1.14v-1.55c0-2.27,0-4.86,0-7.39v-3.82c0-4.51,0-8.08,0-8.08l6.1,3.28,2.88,1.55,1.05.56a2.26,2.26,0,0,1,1.17,2l0,9.65,6.24,3.42h0l3-1.63V523.54l-3-1.61L488,520.6l-2.89-1.55-9.14-4.9-1.71-.92a2.23,2.23,0,0,1-.84-.77,2.13,2.13,0,0,1-.33-1.17l0-13.5V493l-.49.62-3.83-4.87.55-4.65-1.23.66q0-8.11.05-16.21l0-8.94c0-1.27,0-2.54,0-3.81l-3-2.34c0,1.27,0,2.55,0,3.82q0,4.86,0,9.72c0,1.42,0,2.83,0,4.25l.68.68-.68.08c0,1,0,2,0,3l0,10.1a1.88,1.88,0,0,1-1,1.68l-8.56,4.57,0-14.25-2.16,1.14a1.92,1.92,0,0,0-1,1.69v12a1.88,1.88,0,0,1-1,1.68l-1.62.85c-1.88,1-3.75,2-5.6,3H453l5.63-3,6.77-3.61,2.92-1.56c0,.84,0,1.68,0,2.52v1.3l1,1.31h-1v4.52c0,1.62,0,3.24,0,4.86l0,13.8v2c-1.21.73-1.56,1-2.8,1.68-.18-.1-.36-.2-.55-.29l-7.12-3.82-2.69-1.43-.09.12-2.65-.32v3l.47.06-.47.59V530.1a1,1,0,0,1-1,.95.91.91,0,0,1-.44-.12l-2.84-1.54-2.68-1.46L442.21,532l2.62,1.52,4.72,2.72,2.68,1.56,15.65-15.65,1.13,9.5-11.61,9.14,2.8,1.62,9.23-7.27L471,548.71l3.24,1.88,10.27,5.94a11.74,11.74,0,0,0,5.89,1.59h0a11.83,11.83,0,0,0,3-.37v-7.27Z"/>
  <path class="cls-3"
        d="M512.6,540.1c0-2.15,0-4.31,0-6.46,0-1.27,0-2.54,0-3.81l0-11c0-1.41,0-2.83,0-4.24l-7.76-7.75.51-.64-7.43-4a2.16,2.16,0,0,1-1.17-1.94v-1.5l0-5.33,0-3-.79-.47c-2.14-1.25-3-1.73-5.46-3.15l-3.44,2-2.68,1.56-.25.14c0,3.71,0,7.43,0,11.14,0,1.39,0,2.79,0,4.19h0l10.51,5.58,2.9,1.55,9.13,4.85a2.14,2.14,0,0,1,1.17,1.9q0,3.18,0,6.36c0,1.28,0,2.55,0,3.83l3.88,3-1.87,15.73,3.25-1.88.9-7.54Zm-8.35-32.47-.2.26L504,508A1.31,1.31,0,0,0,504.25,507.63Z"/>
  <path class="cls-3"
        d="M536.83,527.22l-1.88,1,3.28,4.17,1.68-1c.32-.18.62-.37.92-.58l-3.3-4.19A2.12,2.12,0,0,1,536.83,527.22Z"/>
  <path class="cls-3" d="M526.52,532.69,520.4,536l-2.9,1.53,5,4,2.8-1.62,5.29-3.05,2.69-1.56-4-4Z"/>
  <path class="cls-3" d="M460.28,512c0-1,0-2,0-3l-1.65,2.1C459.2,511.44,459.74,511.73,460.28,512Z"/>
  <path class="cls-3" d="M520.92,455.64l4.41-3.47-2.8-1.62-4.5,3.54Z"/>
  <path class="cls-3"
        d="M525.4,464.77l0,7.5,1.81,1,.22.08a.73.73,0,0,0,.25,0,1,1,0,0,0,1-1v-.62c0-3.4,0-6.83,0-10.26v-.22a1,1,0,0,1,.94-1,.91.91,0,0,1,.23,0,1,1,0,0,1,.22.09c1.77,1,3.55,1.9,5.32,2.85L538,464.8l2.85-3.62c-.3-.21-.6-.4-.92-.58l-1.68-1-4.87-2.82-2.69-1.55-5.26,5.26Z"/>
  <path class="cls-3" d="M504.25,507.63a1.31,1.31,0,0,1-.27.35l.07-.09Z"/>
  <path class="cls-3" d="M504.25,507.63a1.31,1.31,0,0,1-.27.35l.07-.09Z"/>
  <path class="cls-3" d="M504.25,507.63a1.31,1.31,0,0,1-.27.35l.07-.09Z"/>
  <path class="cls-3" d="M526.75,477.79a1,1,0,0,0-.47-.12.93.93,0,0,0-.93.94v2.23l2.1-2.67Z"/>
  <path class="cls-1" d="M361.35,636.83c-.11-.71-.23-1.43-.34-2.14l-3,.47-5.15.85,4.77.45Z"/>
  <path class="cls-1"
        d="M327.09,623.48q-14.34,13.59-27.78,27.64,23.18-5.48,46.57-9.62l2.26-.4q4.8-.83,9.62-1.61-5.82-.59-11.69-1.07l-3.09-.25a1.52,1.52,0,0,1-.87-.37,2.91,2.91,0,0,1-1.53-.53,3,3,0,0,1-1.25-1.93q-2.83-15.8-5.68-31.59l-.53-3q-21.86,4-43.54,9.13Q308.68,616.29,327.09,623.48Z"/>
  <path class="cls-1"
        d="M643.45,638.17l-.41-.07c-1.35.16-2.69.34-4,.51-3.3.43-6.58.88-9.86,1.35q3.76.63,7.53,1.29l2.22.39q23,4.1,45.79,9.48-13.44-14.05-27.78-27.64,18.4-7.18,37.51-13.55-20.5-4.84-41.17-8.69l-.54,3q-2.88,15.78-5.77,31.57a3,3,0,0,1-3,2.46A3.39,3.39,0,0,1,643.45,638.17Z"/>
  <path class="cls-1" d="M622.48,637.92l.09,0c2.2-.33,4.4-.66,6.61-1l4-.57-7.26-1.2-3-.47h0Z"/>
  <path class="cls-1"
        d="M409.12,599.16l-4.39.44q.13,1.38.42,4.17l4.37-.43c0-.17,0-.42-.07-.74C409.37,601.83,409.26,600.69,409.12,599.16Z"/>
  <path class="cls-1" d="M598.17,605.93l4.36.55.09-.73.45-3.43-4.38-.55C598.57,602.69,598.4,604.07,598.17,605.93Z"/>
  <path class="cls-1"
        d="M462.64,604.07l-4.36.16c0,.92.09,2.32.16,4.19,1,0,2.42-.1,4.34-.16,0-.17,0-.42,0-.74C462.73,606.75,462.69,605.6,462.64,604.07Z"/>
  <path class="cls-1"
        d="M586.71,603.85c.08-.77.21-1.91.37-3.43L582.7,600c-.1.92-.24,2.31-.44,4.17l4.37.46C586.65,604.41,586.67,604.17,586.71,603.85Z"/>
  <path class="cls-1"
        d="M462.47,599.17q0-1.15-.12-3.45l-4.4.16c0,.93.09,2.32.16,4.19,1,0,2.45-.1,4.39-.16C462.49,599.74,462.48,599.49,462.47,599.17Z"/>
  <path class="cls-1"
        d="M393.12,600.84l-4.38.51c.11.92.27,2.31.49,4.17l4.36-.51c0-.17,0-.42-.08-.73C393.42,603.51,393.29,602.36,393.12,600.84Z"/>
  <path class="cls-1"
        d="M517.49,607.32q.1-3.92.34-11.72l-4.4-.12c0,1.4-.09,3.48-.15,6.26,0,1.39-.09,3.49-.16,6.28l4.34.12C517.47,608,517.47,607.68,517.49,607.32Z"/>
  <path class="cls-3"
        d="M607.71,583.68l-3.44-.45-3.48-.43-3.51-.43q-8.67-1-17.35-1.89-4.44-.43-8.89-.83-30.63-2.73-61.36-3.34l-3-.06q-6.6-.11-13.21-.12h-3q-6.56,0-13.1.11l-3,0q-30.7.6-61.33,3.34-4.46.39-8.91.83-8.68.87-17.37,1.9l-3.51.43-3.47.43-3.45.45q-8.71,1.14-17.42,2.46l-3.55.54q-10.55,1.65-21.05,3.53a3,3,0,0,0-1.93,1.24,3,3,0,0,0-.49,2.25l.75,4.16q-21.93,4-43.7,9.16a3,3,0,0,0-.26,5.77q16.75,5.57,33,11.79Q309,636.63,297.14,649a3,3,0,0,0,2.16,5.08,3.34,3.34,0,0,0,.7-.08q21.12-5,42.43-8.87l1.72-.31q9-1.62,18-3a3,3,0,0,0,1.95-1.19,3,3,0,0,0,.54-2.24c-.22-1.38-.44-2.77-.65-4.16q16.53-2.55,33.14-4.43l4.92-.54q13.44-1.44,26.89-2.45c2.07-.16,4.14-.3,6.2-.44,2.28-.16,4.55-.3,6.82-.44,2.58-.15,5.15-.29,7.73-.42q15.18-.76,30.38-1l3,0c2.45,0,4.91,0,7.36,0h3c2.49,0,5,0,7.47,0l3,0q15.2.21,30.38,1l7.73.42c2.27.14,4.54.28,6.82.44,2.06.14,4.13.28,6.2.44q13.45,1,26.88,2.45l4.92.54q16.61,1.89,33.15,4.43l3,.46.36-2.33-.36,2.33h0l3,.47,7.26,1.2-4,.57c-2.21.31-4.41.64-6.61,1l-.09,0,.51-3.23-3-.46c-.22,1.39-.43,2.78-.65,4.17a3,3,0,0,0,2.49,3.42q9.42,1.48,18.82,3.19l1.68.3Q663.25,649.14,684,654a3.34,3.34,0,0,0,.7.08,3,3,0,0,0,2.16-5.08Q675,636.64,662.4,624.57q16.22-6.21,33-11.79a3,3,0,0,0-.26-5.77q-20.58-4.86-41.32-8.72l-2.95-.55-.54,3-.54,3Q646.9,619.3,644,635h-.1l-.82.1q-8.37-1.51-16.77-2.87l-2.51-.4-.39-.06-2.89-.45q-15-2.31-30.12-4.08l-4.75-.55Q573,625.24,560.2,624.2l-5.71-.44-6.15-.44c-2.26-.15-4.51-.29-6.77-.42q-18.62-1.1-37.27-1.37l-3,0q-3.91,0-7.83,0h-3c-2.58,0-5.14,0-7.72,0l-3,0q-18.65.27-37.27,1.37c-2.26.13-4.51.27-6.77.42-2.05.14-4.09.28-6.15.44l-5.71.44q-12.76,1-25.5,2.45l-4.74.55q-15.06,1.75-30.05,4.07l-3,.46-3,.47q-7.65,1.23-15.29,2.61-2.85-15.79-5.69-31.59h0c-.17-1-.35-2-.53-3h0c-.18-1-.35-2-.53-3l-.75-4.15q11.18-2,22.39-3.74l3.58-.54q8.82-1.32,17.66-2.46l3.5-.44,3.54-.44,3.58-.42q6.22-.74,12.46-1.37c2.37-.24,4.76-.48,7.14-.7q33-3.12,66-3.76l3,0q6.38-.11,12.75-.11h3q6.44,0,12.86.11l3,0q33.07.65,66,3.76c2.38.22,4.76.46,7.14.7q6.24.64,12.46,1.37l3.58.42,3.54.44,3.5.44q8.83,1.14,17.66,2.46l3.58.54q12.42,1.91,24.78,4.17c-.25,1.38-.51,2.77-.76,4.15l2.95.55c.25-1.39.51-2.77.76-4.16a3,3,0,0,0-2.41-3.49q-11.7-2.14-23.45-4l-3.55-.55Q616.44,584.83,607.71,583.68Zm39.23,52.08q2.89-15.78,5.77-31.57l.54-3q20.67,3.84,41.17,8.69-19.09,6.36-37.51,13.55,14.34,13.59,27.78,27.64-22.79-5.39-45.79-9.48l-2.22-.39q-3.76-.66-7.53-1.29c3.28-.47,6.56-.92,9.86-1.35,1.34-.17,2.68-.35,4-.51l.41.07a3.39,3.39,0,0,0,.54.05A3,3,0,0,0,646.94,635.76Zm-288.89-.6,3-.47c.11.71.23,1.43.34,2.14l-3.68-.37L352.9,636Zm-24.4-31.41q2.85,15.79,5.68,31.59a3,3,0,0,0,1.25,1.93,2.91,2.91,0,0,0,1.53.53,1.52,1.52,0,0,0,.87.37l3.09.25q5.87.5,11.69,1.07-4.81.78-9.62,1.61l-2.26.4q-23.38,4.14-46.57,9.62,13.44-14.05,27.78-27.64-18.4-7.18-37.51-13.55,21.68-5.11,43.54-9.13Z"/>
  <path class="cls-3" d="M650.84,597.74l2.95.55-2.95-.55Z"/>
  <path class="cls-3" d="M650.84,597.74l2.95.55-2.95-.55Z"/>
  <path class="cls-3" d="M623.35,632.36l-.36,2.33h0Z"/>
  <path class="cls-3" d="M623.35,632.36l-.36,2.33h0Z"/>
  <path class="cls-1"
        d="M651.6,593.59q-12.37-2.26-24.78-4.17l-3.58-.54q-8.82-1.32-17.66-2.46l-3.5-.44-3.54-.44-3.58-.42q-6.23-.74-12.46-1.37c-2.38-.24-4.76-.48-7.14-.7q-33-3.12-66-3.76l-3,0q-6.44-.11-12.86-.11h-3q-6.37,0-12.75.11l-3,0q-33.06.65-66,3.76c-2.38.22-4.77.46-7.14.7q-6.24.64-12.46,1.37l-3.58.42-3.54.44-3.5.44q-8.84,1.14-17.66,2.46l-3.58.54q-11.22,1.73-22.39,3.74l.75,4.15c.18,1,.35,2,.53,3h0l.53,3q2.85,15.79,5.69,31.59,7.63-1.38,15.29-2.61l3-.47,3-.46q15-2.31,30.05-4.07l4.74-.55q12.75-1.41,25.5-2.45l5.71-.44c2.06-.16,4.1-.3,6.15-.44,2.26-.15,4.51-.29,6.77-.42q18.61-1.1,37.27-1.37l3,0c2.58,0,5.14,0,7.72,0h3q3.92,0,7.83,0l3,0q18.65.27,37.27,1.37c2.26.13,4.51.27,6.77.42l6.15.44,5.71.44q12.76,1,25.49,2.45l4.75.55q15.07,1.75,30.12,4.08l2.89.45.39.06,2.51.4q8.4,1.35,16.77,2.87l.82-.1h.1q2.87-15.65,5.72-31.3l.54-3,.54-3h0C651.09,596.36,651.35,595,651.6,593.59ZM627.92,622.8l-4.25-.68c.16-1,.3-1.91.41-2.6s.18-1.17.23-1.51l4.27.68Zm-122-14.93c0,2.08-.06,3.47-.07,4.17-4.3-.07-7.17-.09-8.61-.1H493q0-7.84,0-13.06v-7.82l4.4,0q-.08,12.51-.1,16.71C501.14,607.8,504,607.84,505.94,607.87Zm2.79,4.22q.06-3.48.17-8.69c.07-3.48.14-7.54.24-12.18l3.85.08.54,0q2.22,0,6.64.19a2.17,2.17,0,0,1,1.53.64,2,2,0,0,1,.58,1.49q-.19,5.58-.58,16.7a2,2,0,0,1-.66,1.45,2.1,2.1,0,0,1-1.47.58h-.07c-1.44,0-3.6-.12-6.48-.19l-2.13,0Zm15.75.45c0-1,.07-1.93.1-2.63s0-1.19.06-1.53c2.17.08,3.61.15,4.31.18l-.18,4.16C526.63,612.62,525.2,612.57,524.48,612.54ZM554.14,610c.07-.94.17-2.33.31-4.18l-6.51-.45a2.12,2.12,0,0,1-1.49-.69,2,2,0,0,1-.55-1.54c.05-.92.13-2.08.21-3.47s.19-3,.31-4.86a1.93,1.93,0,0,1,.74-1.43,2.14,2.14,0,0,1,1.42-.5h.18c2,.13,4.88.33,8.8.62a2.22,2.22,0,0,1,1.51.71,2,2,0,0,1,.51,1.52c-.07.94-.18,2.33-.32,4.18l-4.36-.33c0-.47.09-1.17.15-2.09l-4.39-.31c-.07.92-.16,2.32-.29,4.18,1.46.1,3.65.25,6.57.47a2.24,2.24,0,0,1,1.49.71,2,2,0,0,1,.5,1.52c-.14,1.86-.36,4.64-.64,8.33a2,2,0,0,1-.73,1.42,2.11,2.11,0,0,1-1.38.51H556c-1.92-.14-4.79-.35-8.6-.6a2,2,0,0,1-1.47-.72,1.88,1.88,0,0,1-.55-1.51c0-.92.14-2.31.26-4.15l4.31.28c0,.45-.08,1.15-.14,2.09Zm16.56-7q.57-6.26.76-8.32l4.38.41c-.36,3.69-.62,6.46-.8,8.32s-.31,3.22-.4,4.15c-.36,3.7-.62,6.47-.8,8.31l-4.28-.4c.34-3.7.59-6.48.76-8.32l-4.35-.38-.72,8.32-4.28-.36q.25-3.11.42-5.19c.12-1.4.2-2.44.26-3.14.17-2.08.28-3.47.33-4.14q.51-6.27.68-8.33l4.38.36q-.52,6.24-.71,8.33Zm11.13,5.28q-.29,2.76-.87,8.31l-4.27-.44q.22-2.34.7-7c.13-1.29.29-2.91.48-4.84s.42-4.23.68-6.82a1.92,1.92,0,0,1,.8-1.4,2.12,2.12,0,0,1,1.33-.45H581q2.91.3,8.78.94a2.26,2.26,0,0,1,1.48.77,2,2,0,0,1,.46,1.53q-.72,6.25-2.15,18.69l-4.27-.48c.2-1.84.51-4.61.91-8.31Zm24,1.37a2,2,0,0,1,.43,1.54q-.37,2.76-1.11,8.28l-4.26-.56c.23-1.83.59-4.59,1.06-8.28l-4.34-.55q-.33,2.76-1,8.29l-4.27-.51c.22-1.84.55-4.6,1-8.3.11-.92.28-2.3.49-4.13.11-.92.25-2.08.41-3.46s.36-3,.57-4.84l4.38.53c1.46.18,3.66.45,6.59.84a2.24,2.24,0,0,1,1.47.79,2,2,0,0,1,.43,1.54c-.19,1.39-.46,3.47-.83,6.23a2,2,0,0,1-.81,1.38,2.17,2.17,0,0,1-1.29.41,1.77,1.77,0,0,1-.32,0A2.13,2.13,0,0,1,605.88,609.63Zm14.7-.64c-.27,1.83-.48,3.2-.62,4.12-2.88-.44-5-.74-6.49-1-.26,1.83-.45,3.21-.59,4.15,3.83.54,6.69,1,8.59,1.26l-.63,4.12c-3.78-.58-6.63-1-8.54-1.26l-4.26-.59c.12-.92.23-1.72.33-2.42s.17-1.26.23-1.71c.29-2.07.48-3.46.57-4.15.29-2.08.47-3.45.57-4.13.28-2.07.47-3.46.56-4.15.29-2.06.47-3.43.57-4.12l4.36.61c4.4.62,7.31,1.07,8.75,1.29-.31,2.05-.52,3.42-.62,4.11-3.86-.59-6.76-1-8.71-1.28-.26,1.83-.46,3.21-.59,4.15Q618.41,608.66,620.58,609Zm-130.47,2.94-4.29,0q0-2.61-.05-7.82c0-3.47-.06-7.83-.1-13l4.4,0c0,2.61,0,7.83,0,15.67C490.1,607.58,490.11,609.32,490.11,611.93Zm-11.76-20.77,4.4-.06q.06,6.25.2,18.78a2,2,0,0,1-.6,1.48,2.14,2.14,0,0,1-1.51.64q-2.89,0-8.61.15h-.06a2.06,2.06,0,0,1-1.48-.58,2,2,0,0,1-.68-1.46c-.05-2.07-.12-4.68-.2-7.81s-.17-6.79-.28-11l4.4-.1q.1,5.55.34,16.7l4.34-.07Q478.52,602.29,478.35,591.16ZM464.83,601.9a2.13,2.13,0,0,1,1.48.58,2,2,0,0,1,.66,1.45q.06,2.1.18,6.26a2,2,0,0,1-.57,1.49,2.13,2.13,0,0,1-1.5.67c-1.44,0-3.6.11-6.48.23l-4.29.18-.18-4.16c0-1-.1-2.34-.18-4.19,0-.92-.11-2.31-.19-4.16,0-.47,0-1.06-.07-1.75s-.07-1.51-.11-2.44-.1-2.31-.19-4.16l4.4-.18q2.2-.09,6.63-.23h.09A2.26,2.26,0,0,1,466,592a2,2,0,0,1,.67,1.46l.18,6.28a2,2,0,0,1-.58,1.49,2.21,2.21,0,0,1-1.52.64Zm-27,11.74-4.28.28c-.08-1-.14-1.93-.18-2.62s-.09-1.19-.11-1.53l4.31-.28C437.71,611.56,437.79,613,437.84,613.64Zm-15.73,1.15-4.28.36-.75-8.66q-.45-5.19-1.06-12.14l4.39-.37,6.62-.51h.19a2.22,2.22,0,0,1,1.41.49,2,2,0,0,1,.73,1.42q.45,6.27,1.35,18.75l-4.29.32q-.42-5.57-1.28-16.66l-4.39.35Q421.2,603.7,422.11,614.79Zm-15.71,1.43-4.27.44q-.3-2.76-.88-8.31c-.1-.92-.24-2.3-.44-4.14-.09-.92-.22-2.07-.36-3.46s-.32-3-.51-4.84l4.37-.46,6.62-.64h.24a2.25,2.25,0,0,1,1.36.46,2,2,0,0,1,.76,1.41q.19,2.08.57,6.26a2,2,0,0,1-.49,1.53,2.2,2.2,0,0,1-1.48.73h.23a2.11,2.11,0,0,1,1.36.49,2,2,0,0,1,.75,1.41c.17,1.84.42,4.62.76,8.32l-4.28.4c-.18-1.84-.44-4.62-.8-8.32l-4.34.43Q405.84,610.67,406.4,616.22ZM390.72,618l-4.27.52q-.3-2.34-.88-7l-.6-4.83-.84-6.81a1.94,1.94,0,0,1,.47-1.54,2.22,2.22,0,0,1,1.47-.78c1.95-.23,4.87-.59,8.78-1l.28,0a2.21,2.21,0,0,1,1.33.44,2,2,0,0,1,.79,1.39q.67,6.26,2,18.7l-4.28.47q-.31-2.75-.94-8.3l-4.34.51C390,611.49,390.27,614.25,390.72,618Zm-17.38-10.39,6.53-.88.54,4.13c-2.89.38-5.05.68-6.5.88.25,1.83.45,3.21.57,4.15,3.83-.53,6.7-.9,8.6-1.15.24,1.84.41,3.22.53,4.13-3.79.49-6.64.88-8.56,1.14l-4.26.6c-.13-.91-.24-1.72-.34-2.41s-.18-1.26-.25-1.71c-.29-2.07-.49-3.46-.59-4.15-.3-2.07-.49-3.45-.59-4.12-.3-2.08-.5-3.46-.59-4.15l-.6-4.12,4.37-.61c4.39-.61,7.32-1,8.76-1.17.27,2.06.44,3.44.53,4.13-3.86.49-6.77.89-8.72,1.16C373,605.24,373.21,606.63,373.34,607.56Zm-17.15-5.91q1.94,12.36,2.59,16.5c3.81-.59,6.68-1,8.58-1.3L368,621c-4.27.63-7.11,1.07-8.54,1.3l-3.18.5-1.07.18q-1.26-7.76-2.09-12.89t-1.25-7.72Z"/>
  <path class="cls-3"
        d="M355.17,623l1.07-.18,3.18-.5c1.43-.23,4.27-.67,8.54-1.3l-.6-4.12c-1.9.28-4.77.71-8.58,1.3q-.66-4.14-2.59-16.5l-4.36.69q.42,2.58,1.25,7.72T355.17,623Z"/>
  <path class="cls-3"
        d="M381,598.12c-1.44.19-4.37.56-8.76,1.17l-4.37.61.6,4.12c.09.69.29,2.07.59,4.15.1.67.29,2.05.59,4.12.1.69.3,2.08.59,4.15.07.45.15,1,.25,1.71s.21,1.5.34,2.41l4.26-.6c1.92-.26,4.77-.65,8.56-1.14-.12-.91-.29-2.29-.53-4.13-1.9.25-4.77.62-8.6,1.15-.12-.94-.32-2.32-.57-4.15,1.45-.2,3.61-.5,6.5-.88l-.54-4.13-6.53.88c-.13-.93-.32-2.32-.57-4.15,2-.27,4.86-.67,8.72-1.16C381.4,601.56,381.23,600.18,381,598.12Z"/>
  <path class="cls-3"
        d="M395,617.44l4.28-.47q-1.37-12.45-2-18.7a2,2,0,0,0-.79-1.39,2.21,2.21,0,0,0-1.33-.44l-.28,0c-3.91.43-6.83.79-8.78,1a2.22,2.22,0,0,0-1.47.78,1.94,1.94,0,0,0-.47,1.54l.84,6.81.6,4.83q.58,4.69.88,7l4.27-.52c-.45-3.7-.77-6.46-1-8.3l4.34-.51Q394.7,614.69,395,617.44Zm-5.78-11.92c-.22-1.86-.38-3.25-.49-4.17l4.38-.51c.17,1.52.3,2.67.39,3.44,0,.31.07.56.08.73Z"/>
  <path class="cls-3"
        d="M410.71,615.8l4.28-.4c-.34-3.7-.59-6.48-.76-8.32a2,2,0,0,0-.75-1.41,2.11,2.11,0,0,0-1.36-.49h-.23a2.2,2.2,0,0,0,1.48-.73,2,2,0,0,0,.49-1.53q-.37-4.17-.57-6.26a2,2,0,0,0-.76-1.41,2.25,2.25,0,0,0-1.36-.46h-.24l-6.62.64-4.37.46c.19,1.84.36,3.45.51,4.84s.27,2.54.36,3.46c.2,1.84.34,3.22.44,4.14q.58,5.55.88,8.31l4.27-.44q-.56-5.55-.83-8.31l4.34-.43C410.27,611.18,410.53,614,410.71,615.8Zm-5.56-12q-.28-2.79-.42-4.17l4.39-.44c.14,1.53.25,2.67.33,3.44,0,.32.05.57.07.74Z"/>
  <path class="cls-3"
        d="M426.42,614.44l4.29-.32q-.9-12.48-1.35-18.75a2,2,0,0,0-.73-1.42,2.22,2.22,0,0,0-1.41-.49H427l-6.62.51-4.39.37q.62,6.95,1.06,12.14l.75,8.66,4.28-.36q-.9-11.1-1.36-16.66l4.39-.35Q426,608.88,426.42,614.44Z"/>
  <path class="cls-3"
        d="M433.38,611.3c0,.69.1,1.57.18,2.62l4.28-.28c0-.69-.13-2.08-.26-4.15l-4.31.28C433.29,610.11,433.33,610.62,433.38,611.3Z"/>
  <path class="cls-3"
        d="M466.85,599.77l-.18-6.28A2,2,0,0,0,466,592a2.26,2.26,0,0,0-1.49-.54h-.09q-4.43.13-6.63.23l-4.4.18c.09,1.85.15,3.24.19,4.16s.07,1.74.11,2.44.05,1.28.07,1.75c.08,1.85.15,3.24.19,4.16.08,1.85.14,3.24.18,4.19l.18,4.16,4.29-.18c2.88-.12,5-.19,6.48-.23a2.13,2.13,0,0,0,1.5-.67,2,2,0,0,0,.57-1.49Q467,606,467,603.93a2,2,0,0,0-.66-1.45,2.13,2.13,0,0,0-1.48-.58h-.08a2.21,2.21,0,0,0,1.52-.64A2,2,0,0,0,466.85,599.77Zm-8.9-3.89,4.4-.16q.07,2.29.12,3.45c0,.32,0,.57,0,.74-1.94.06-3.4.12-4.39.16C458,598.2,458,596.81,458,595.88Zm.49,12.54c-.07-1.87-.13-3.27-.16-4.19l4.36-.16c.05,1.53.09,2.68.11,3.45,0,.32,0,.57,0,.74C460.86,608.32,459.42,608.38,458.44,608.42Z"/>
  <path class="cls-3"
        d="M473.93,591.24l-4.4.1q.17,6.25.28,11c.08,3.13.15,5.74.2,7.81a2,2,0,0,0,.68,1.46,2.06,2.06,0,0,0,1.48.58h.06q5.72-.12,8.61-.15a2.14,2.14,0,0,0,1.51-.64,2,2,0,0,0,.6-1.48q-.13-12.52-.2-18.78l-4.4.06q.18,11.13.26,16.71l-4.34.07Q474,596.79,473.93,591.24Z"/>
  <path class="cls-3"
        d="M485.67,591.08c0,5.22.07,9.58.1,13s0,6.08.05,7.82l4.29,0c0-2.61,0-4.35,0-5.21,0-7.84,0-13.06,0-15.67Z"/>
  <path class="cls-3"
        d="M493,591.05v7.82q0,5.21,0,13.06h4.29c1.44,0,4.31,0,8.61.1,0-.7,0-2.09.07-4.17-1.92,0-4.8-.07-8.65-.09q0-4.2.1-16.71Z"/>
  <path class="cls-3"
        d="M519.5,612.37h.07a2.1,2.1,0,0,0,1.47-.58,2,2,0,0,0,.66-1.45q.39-11.12.58-16.7a2,2,0,0,0-.58-1.49,2.17,2.17,0,0,0-1.53-.64q-4.42-.15-6.64-.19l-.54,0-3.85-.08c-.1,4.64-.17,8.7-.24,12.18s-.13,6.37-.17,8.69l2.16,0,2.13,0C515.9,612.25,518.06,612.32,519.5,612.37Zm-6.22-10.63c.06-2.78.11-4.86.15-6.26l4.4.12q-.23,7.81-.34,11.72c0,.36,0,.63,0,.82l-4.34-.12C513.19,605.23,513.24,603.13,513.28,601.74Z"/>
  <path class="cls-3"
        d="M524.64,608.38q0,.51-.06,1.53c0,.7-.06,1.58-.1,2.63.72,0,2.15.08,4.29.18l.18-4.16C528.25,608.53,526.81,608.46,524.64,608.38Z"/>
  <path class="cls-3"
        d="M545.64,607.34c-.12,1.84-.21,3.23-.26,4.15a1.88,1.88,0,0,0,.55,1.51,2,2,0,0,0,1.47.72c3.81.25,6.68.46,8.6.6h.18a2.11,2.11,0,0,0,1.38-.51,2,2,0,0,0,.73-1.42c.28-3.69.5-6.47.64-8.33a2,2,0,0,0-.5-1.52,2.24,2.24,0,0,0-1.49-.71c-2.92-.22-5.11-.37-6.57-.47.13-1.86.22-3.26.29-4.18l4.39.31c-.06.92-.12,1.62-.15,2.09l4.36.33c.14-1.85.25-3.24.32-4.18a2,2,0,0,0-.51-1.52,2.22,2.22,0,0,0-1.51-.71c-3.92-.29-6.85-.49-8.8-.62h-.18a2.14,2.14,0,0,0-1.42.5,1.93,1.93,0,0,0-.74,1.43c-.12,1.84-.22,3.46-.31,4.86s-.16,2.55-.21,3.47a2,2,0,0,0,.55,1.54,2.12,2.12,0,0,0,1.49.69l6.51.45c-.14,1.85-.24,3.24-.31,4.18l-4.33-.3c.06-.94.11-1.64.14-2.09Z"/>
  <path class="cls-3"
        d="M562.66,593.91q-.17,2.05-.68,8.33c-.05.67-.16,2.06-.33,4.14-.06.7-.14,1.74-.26,3.14s-.25,3.12-.42,5.19l4.28.36.72-8.32,4.35.38c-.17,1.84-.42,4.62-.76,8.32l4.28.4c.18-1.84.44-4.61.8-8.31.09-.93.22-2.31.4-4.15s.44-4.63.8-8.32l-4.38-.41q-.19,2.07-.76,8.32l-4.37-.38q.18-2.08.71-8.33Z"/>
  <path class="cls-3"
        d="M589.53,617.51q1.43-12.43,2.15-18.69a2,2,0,0,0-.46-1.53,2.26,2.26,0,0,0-1.48-.77q-5.87-.64-8.78-.94h-.28a2.12,2.12,0,0,0-1.33.45,1.92,1.92,0,0,0-.8,1.4q-.39,3.89-.68,6.82c-.19,1.93-.35,3.55-.48,4.84q-.48,4.71-.7,7l4.27.44q.59-5.55.87-8.31l4.34.46c-.4,3.7-.71,6.47-.91,8.31Zm-7.27-13.39c.2-1.86.34-3.25.44-4.17l4.38.47c-.16,1.52-.29,2.66-.37,3.43,0,.32-.06.56-.08.73Z"/>
  <path class="cls-3"
        d="M606.05,608.42a2,2,0,0,0,.81-1.38c.37-2.76.64-4.84.83-6.23a2,2,0,0,0-.43-1.54,2.24,2.24,0,0,0-1.47-.79c-2.93-.39-5.13-.66-6.59-.84l-4.38-.53c-.21,1.84-.4,3.45-.57,4.84s-.3,2.54-.41,3.46c-.21,1.83-.38,3.21-.49,4.13-.43,3.7-.76,6.46-1,8.3l4.27.51q.69-5.54,1-8.29l4.34.55c-.47,3.69-.83,6.45-1.06,8.28l4.26.56q.74-5.52,1.11-8.28a2,2,0,0,0-.43-1.54,2.13,2.13,0,0,0-1.44-.82,1.77,1.77,0,0,0,.32,0A2.17,2.17,0,0,0,606.05,608.42Zm-3.43-2.67-.09.73-4.36-.55c.23-1.86.4-3.24.52-4.16l4.38.55Z"/>
  <path class="cls-3"
        d="M623.36,605.17c.1-.69.31-2.06.62-4.11-1.44-.22-4.35-.67-8.75-1.29l-4.36-.61c-.1.69-.28,2.06-.57,4.12-.09.69-.28,2.08-.56,4.15-.1.68-.28,2.05-.57,4.13-.09.69-.28,2.08-.57,4.15-.06.45-.14,1-.23,1.71s-.21,1.5-.33,2.42l4.26.59c1.91.27,4.76.68,8.54,1.26l.63-4.12c-1.9-.29-4.76-.72-8.59-1.26.14-.94.33-2.32.59-4.15,1.45.21,3.61.51,6.49,1,.14-.92.35-2.29.62-4.12q-2.18-.33-6.52-1c.13-.94.33-2.32.59-4.15C616.6,604.17,619.5,604.58,623.36,605.17Z"/>
  <path class="cls-3"
        d="M624.08,619.52c-.11.69-.25,1.56-.41,2.6l4.25.68.66-4.11-4.27-.68C624.26,618.35,624.18,618.85,624.08,619.52Z"/>
</svg>
