<?xml version="1.0" encoding="utf-8"?>
<!-- Generator: Adobe Illustrator 21.1.0, SVG Export Plug-In . SVG Version: 6.00 Build 0)  -->
<svg version="1.1" id="Layer_1" xmlns="http://www.w3.org/2000/svg" xmlns:xlink="http://www.w3.org/1999/xlink" x="0px" y="0px"
	 viewBox="0 0 510 510" style="enable-background:new 0 0 510 510;" xml:space="preserve">
<style type="text/css">
	.st0{fill:#FFFFFF;}
	.st1{fill:none;}
	.st2{fill-opacity:0;}
</style>
<title>Artboard 1emblem</title>
<path class="st0" d="M232,3.1l-0.1-1.2h2c0.7,0,1.2-0.1,1.5-0.1h1.2h0.4h1.1h1.1h0.5c1.8,1.6,3.3,3.1,4.4,4.2s5.3,5.3,12.5,12.4V18
	l-0.1-2c0-1.2-0.1-2.1-0.1-2.8s-0.1-1.5-0.1-2.5s0-1.8-0.1-2.6c-0.1-1.5-0.2-2.4-0.2-2.7c0-0.5,0-1-0.2-1.4
	c-0.5-0.4-1.1-0.6-1.7-0.6c-0.5-0.1-1-0.2-1.4-0.4V2L253,2l3.5-0.1l3.9-0.1h0.7v1.1c-0.3,0.1-0.5,0.2-0.8,0.3
	c-0.4,0.1-0.9,0.2-1.3,0.4c-0.4,0.2-0.7,0.4-1,0.6c-0.1,0.2-0.2,0.4-0.2,0.6c0,0.1,0,0.3,0,0.7c0,0.2,0,0.7,0,1.5c0,1.7,0.1,3,0.1,4
	c0,0.3,0,0.7,0.1,1.1l0.2,6.2c0,0.4,0,0.7,0,0.9v2.2l0,0.9l0,1c0,0.5,0.1,0.8,0.1,0.9V25l-2,0.1l-2.1-2.2l-4.2-4.3l-3-3l-2.2-2.2
	c-1.4-1.4-2.7-2.6-3.9-3.7L238,7.1l0.2,6.5c0,0.4,0,0.8,0,1.2v1.2l0.1,2.3c0,1,0.1,2,0.2,3.1c0,0.2,0,0.4,0.1,0.6
	c0.1,0.2,0.1,0.4,0.2,0.5c1,0.2,2,0.4,3,0.4l0.5,0.1l0.1,1.4h-0.7c-0.4,0-1.6-0.1-3.6-0.3c-1.9,0-3.1,0-3.7,0.1l-1,0.1
	c-0.2,0-0.4,0-0.6-0.1c0-0.3,0-0.5,0-0.7s0-0.3,0-0.6c0.3-0.1,0.5-0.1,0.8-0.1h0.7c0.6,0.1,1.2,0,1.7-0.2c0.2-0.1,0.3-0.5,0.3-1.2
	c0.1-1.9,0.1-3,0.1-3.4v-1v-5.7l0-3.6c0-1-0.1-1.9-0.3-2.8c-0.1-0.3-0.2-0.5-0.4-0.7c-0.4-0.4-0.9-0.7-1.4-0.9
	C233.6,3.3,232.8,3.1,232,3.1z"/>
<path class="st0" d="M252.7,479.2c0.2,0.6,0.3,1.2,0.3,1.8c0.1,0.9,0.2,1.9,0.2,2.8c0,0.2,0,0.5-0.1,0.7l-0.2,0.1l-1.3-0.1h-0.2
	c-0.3-1.1-0.8-2.2-1.5-3.1c-0.8-0.9-1.9-1.4-3.1-1.4c-1-0.1-2,0.3-2.7,0.9c-0.7,0.6-1,1.4-1,2.2c0,0.8,0.4,1.6,1,2.2
	c1.2,1,2.6,1.7,4.2,2c0.9,0.3,1.8,0.6,2.6,1c0.9,0.4,1.6,0.9,2.3,1.5c0.6,0.6,1.1,1.3,1.5,2.1c0.3,0.8,0.4,1.7,0.4,2.5
	c0,1.1-0.2,2.2-0.6,3.3c-0.3,0.6-0.6,1.1-1.1,1.6c-0.5,0.5-1,0.9-1.6,1.2c-0.7,0.4-1.5,0.8-2.3,1c-1,0.2-2,0.3-3,0.3
	c-1,0-2-0.1-2.9-0.3l-2.1-0.6c-0.4-0.1-0.8-0.2-1.1-0.4c-0.1-0.1-0.2-0.2-0.2-0.4v-0.2c0-0.1,0-0.9-0.1-2.4c0-0.8,0-1.3,0-1.6v-0.7
	h1.6c0.6,1.3,0.9,2.1,1.1,2.4c0.3,0.5,0.7,1,1.2,1.5c0.5,0.4,1,0.7,1.6,0.9c0.6,0.2,1.3,0.3,2,0.3c0.7,0,1.4-0.2,2.1-0.4
	c0.7-0.2,1.4-0.7,1.8-1.3c1.1-1.3,0.9-3.2-0.4-4.3c0,0-0.1-0.1-0.1-0.1c-1.2-0.8-2.6-1.4-4-1.8c-1.6-0.5-3.1-1.1-4.5-2
	c-0.9-0.6-1.5-1.4-2-2.4c-0.5-0.9-0.7-1.9-0.7-2.9c0-1.8,0.7-3.5,2-4.8c1.6-1.4,3.8-2.1,5.9-2c0.8,0,1.7,0.1,2.5,0.3
	C250.9,478.6,251.8,478.9,252.7,479.2z"/>
<path class="st0" d="M-9.7,241l-0.1-1.1c0.1-0.1,0.2-0.1,0.3-0.1c1,0.1,1.9,0.1,2.9,0.1h0.8c0.4,0,0.9,0,1.5,0l2.3-0.1
	c0.1,0,0.1,0.1,0.1,0.2l-0.1,0.8c-0.2,0.1-0.4,0.3-0.6,0.4c-0.5,0.3-0.7,0.5-0.7,0.6c0,0.2,0.1,0.4,0.2,0.6c0.1,0.2,0.2,0.5,0.3,0.7
	c0.2,0.6,0.8,2,1.7,4.2l4.6,10.6c0.6-1.1,1.5-3,2.8-5.6l-2.6-6.2c-0.5-1.2-0.9-2.1-1.2-2.9c-0.1-0.2-0.2-0.5-0.3-0.7
	s-0.2-0.3-0.3-0.5c-0.1-0.2-0.3-0.4-0.6-0.6c-0.6-0.3-1.2-0.4-1.8-0.6l0.1-1c0.4,0,0.9,0,1.6,0c0.9,0.1,1.6,0.1,1.8,0.1h2.5l3-0.2
	c0.1,0,0.2,0,0.2,0v0.6v0.2c0,0.1,0,0.2-0.1,0.3c-0.3,0.1-0.6,0.1-0.9,0.2c-0.2,0-0.5,0.1-0.6,0.2c-0.1,0.1-0.2,0.2-0.2,0.4
	c0,0.5,0.2,0.9,0.4,1.3c0.2,0.3,0.3,0.7,0.4,1c0.6,1.5,1,2.6,1.4,3.3l1.2-2.5c0.4-0.8,0.8-1.7,1.1-2.6c0-0.1,0-0.2,0-0.3v-0.1
	c-0.1-0.1-0.2-0.2-0.4-0.3c-0.5-0.2-1-0.3-1.5-0.5c0-0.2,0-0.3,0-0.5c0-0.2,0-0.4,0.1-0.6c0.4,0,1.5,0,3.3,0.1c1.1,0,1.8,0,2,0H16
	v0.1l0,0.8v0.1c-0.8,0.2-1.5,0.4-2.3,0.8c-0.3,0.2-0.5,0.5-0.7,0.8c-0.6,1-1.7,3.2-3.3,6.5l0.1,0.2l1.1,2.6l1.9,4.5
	c0.2,0.5,0.3,0.8,0.4,1l2.2-5.8l3.1-7.9l0.5-1.5c0-0.1,0-0.2,0-0.3l0-0.3c-0.4-0.1-0.7-0.2-1-0.3c-0.2-0.1-0.4-0.2-0.6-0.3
	c0-0.4-0.1-0.6-0.1-0.7c0-0.1,0.1-0.3,0.1-0.4h0.3l2.6,0.1l1.7-0.1l0.4,0c0,0.2,0.1,0.4,0.1,0.6c0,0.2,0,0.4-0.1,0.5
	c-0.1,0.1-0.2,0.2-0.4,0.2c-0.4,0.2-0.7,0.4-1,0.7c-0.2,0.4-0.4,0.8-0.5,1.2c-1,2.7-2.1,5.4-3.1,7.9c-1.1,2.5-2.7,6.6-4.9,12.1h-1.8
	c-0.1-0.4-0.2-0.7-0.4-1.1c-0.3-0.8-0.5-1.2-0.6-1.4l-1.9-4.5c-0.2-0.6-0.5-1.1-0.8-1.7c0-0.1-0.1-0.1-0.1-0.2
	c0,0.1-0.6,1.2-1.9,3.5s-2.1,4.1-2.7,5.4H0.6c-0.7-2-1.6-4-2.5-5.9l-5.7-13.3c-0.3-0.9-0.8-1.7-1.3-2.4c-0.2-0.1-0.3-0.2-0.5-0.3
	L-9.7,241z"/>
<path class="st0" d="M475,239.7c0.7,0,1.2,0.1,1.7,0.2c1.1,0.1,2.1,0.2,3.2,0.2c0.4,0,1.5,0,3.2-0.1c2.6-0.1,5-0.2,7.1-0.2h3.2
	c1.1,0,2.1,0.1,3.2,0.3c0.2,0.3,0.3,0.6,0.3,1v3.6v0.7c0,0.1,0,0.2,0,0.3h-0.7h-0.6c-0.1-0.2-0.2-0.6-0.4-1l-0.7-1.2
	c-0.3-0.6-0.7-1.1-1.1-1.6c-0.4-0.1-0.7-0.1-1.1-0.1c-0.1,0-0.5,0-1.1-0.1c-1.1-0.1-2.3-0.1-3.5-0.1c-1.4,0-2.7,0-3.8,0.1
	c0,0.3,0,1.4,0,3.5v3v2.1c0.3,0,0.5,0,0.8,0c2.1,0,3.6,0,4.5-0.1c0.6,0,1.1-0.1,1.7-0.3c0.3-0.2,0.5-0.5,0.6-0.8
	c0.1-0.3,0.3-1.1,0.6-2.6h0.2h1c0,1,0.1,1.8,0.1,2.4c0,1.2,0,2,0,2.4s0,0.6,0,0.8s0,0.8,0,1.5s0.1,1.2,0.1,1.5v0.4H492
	c0-0.2-0.1-0.6-0.3-1.2c-0.1-0.7-0.3-1.4-0.6-2c-0.2-0.2-0.4-0.4-0.7-0.5c-0.9-0.1-1.7-0.2-2.6-0.1c-1.3,0-2.7,0-4,0.1v0.6
	c0,1.4,0,2.6,0.1,3.5v3.8c0,0.4,0.1,0.7,0.5,0.9c1.4,0.4,2.9,0.5,4.4,0.4c1.4,0,2.8-0.1,4.2-0.4c0.8-0.2,1.5-0.6,2.1-1.2
	c0.9-0.9,1.6-2.1,2-3.3c0.4,0,0.7,0,0.9,0h0.6c0,0.3-0.1,0.5-0.1,0.7l-0.1,0.5l-0.6,3.3l-0.3,2c-0.8,0-1.4,0-1.8,0
	c-0.7,0-2.4-0.1-5.3-0.2c-2-0.1-4.4-0.1-7.2-0.1c-1.4,0-3.1,0.1-5.2,0.2H477l-2.1,0.1v-1.2c0.4-0.1,0.9-0.2,1.3-0.2
	c0.9-0.1,1.7-0.2,2.5-0.6c0.1-0.4,0.2-0.8,0.2-1.3c0-0.2,0-0.5,0-1v-0.5l0-6.6v-2l-0.1-2.8v-2l-0.2-2.2c0-0.1,0-0.2,0-0.4
	c-0.1-0.1-0.3-0.2-0.5-0.2l-0.5-0.1c-0.6-0.1-1.3-0.2-1.9-0.2c-0.2,0-0.5,0-0.8-0.1L475,239.7z"/>
<path class="st0" d="M291.2,101.4c0.7,0.1,1.4,0.6,1.8,1.1c0.3,0.5,0.4,1.2,0.2,1.8c-0.1,0.3-0.2,0.6-0.5,0.9
	c-0.2,0.2-0.4,0.4-0.7,0.6c-0.3,0.1-0.7,0.2-1,0.2c-0.4,0-0.8,0-1.2-0.1l-1.4-0.4l-0.9,3l-0.5-0.2l2.1-7.5L291.2,101.4z
	 M290.1,105.4c0.3,0.1,0.6,0.1,0.9,0.1c0.3,0,0.5-0.1,0.8-0.2c0.2-0.1,0.4-0.3,0.6-0.5c0.2-0.2,0.3-0.4,0.3-0.7
	c0.2-0.5,0.1-1-0.2-1.5c-0.4-0.5-0.9-0.8-1.4-0.9l-1.4-0.4l-1,3.6L290.1,105.4z"/>
<path class="st0" d="M293.7,107.2v0.1c-0.1,0.3-0.2,0.7-0.2,1.1c0,0.3,0,0.6,0.1,0.9c0.1,0.3,0.3,0.5,0.5,0.6
	c0.2,0.2,0.5,0.3,0.7,0.4c0.2,0.1,0.5,0.1,0.7,0.1c0.2,0,0.4,0,0.5,0l0.4-0.1c0.1,0,0.1,0,0.2,0c0,0,0.1,0,0.1,0.1l0.1,0.2
	c-0.1,0.1-0.3,0.1-0.4,0.2c-0.2,0-0.4,0.1-0.5,0.1c-0.2,0-0.4,0-0.6,0c-0.2,0-0.4-0.1-0.6-0.1c-0.3-0.1-0.6-0.3-0.9-0.5
	c-0.2-0.2-0.4-0.5-0.6-0.8c-0.1-0.3-0.2-0.7-0.2-1c0-0.4,0.1-0.8,0.2-1.2c0.1-0.4,0.3-0.7,0.5-1c0.2-0.3,0.4-0.5,0.7-0.7
	c0.3-0.2,0.6-0.3,0.9-0.3c0.4,0,0.7,0,1.1,0.1c0.3,0.1,0.5,0.2,0.8,0.4c0.2,0.2,0.4,0.4,0.5,0.7c0.1,0.3,0.2,0.6,0.2,0.9
	c0,0.3,0,0.7-0.2,1c0,0.1,0,0.1-0.1,0.1c0,0-0.1,0-0.1,0L293.7,107.2z M297.3,108c0.1-0.3,0.1-0.5,0.1-0.8c0-0.2,0-0.5-0.1-0.7
	c-0.1-0.2-0.2-0.4-0.4-0.5c-0.2-0.2-0.4-0.3-0.6-0.3c-0.2-0.1-0.5-0.1-0.8-0.1c-0.2,0-0.5,0.1-0.7,0.2c-0.2,0.1-0.4,0.3-0.6,0.5
	c-0.2,0.2-0.3,0.4-0.4,0.7L297.3,108z"/>
<path class="st0" d="M300.1,107.7c0.3-0.2,0.7-0.3,1.1-0.4c0.4-0.1,0.8,0,1.1,0.1c0.3,0.1,0.5,0.2,0.7,0.4c0.2,0.2,0.3,0.4,0.4,0.6
	c0.1,0.2,0.1,0.5,0.1,0.7c0,0.3-0.1,0.6-0.2,0.8l-1.2,3.3l-0.5-0.2l1.2-3.3c0.2-0.4,0.2-0.8,0.1-1.2c-0.1-0.4-0.5-0.7-0.8-0.8
	c-0.3-0.1-0.7-0.2-1-0.1c-0.4,0.1-0.7,0.2-1,0.4l-1.5,3.9l-0.5-0.2l1.9-5.1l0.3,0.1c0.1,0,0.1,0.1,0.1,0.2c0,0,0,0,0,0L300.1,107.7z
	"/>
<path class="st0" d="M305.8,109.9c0.3-0.2,0.7-0.3,1.1-0.4c0.4,0,0.8,0,1.1,0.2c0.3,0.1,0.5,0.2,0.7,0.4c0.2,0.2,0.3,0.4,0.4,0.6
	c0.1,0.2,0.1,0.5,0.1,0.7c0,0.3-0.1,0.6-0.2,0.8l-1.4,3.2l-0.5-0.2l1.4-3.2c0.2-0.4,0.2-0.8,0.2-1.2c-0.1-0.4-0.4-0.7-0.8-0.8
	c-0.3-0.1-0.7-0.2-1-0.1c-0.4,0.1-0.7,0.2-1,0.4l-1.6,3.8l-0.5-0.2l2.1-5l0.3,0.1c0.1,0,0.1,0.1,0.1,0.2L305.8,109.9z"/>
<path class="st0" d="M318.4,113.1c-0.1,0-0.1,0-0.2,0c-0.1,0-0.1-0.1-0.1-0.2c-0.1-0.1-0.1-0.2-0.2-0.3c-0.1-0.2-0.2-0.3-0.3-0.4
	c-0.2-0.2-0.4-0.3-0.6-0.4c-0.2-0.1-0.5-0.2-0.7-0.2c-0.4-0.1-0.8,0.1-1.1,0.3c-0.1,0.1-0.3,0.3-0.4,0.5c-0.1,0.2-0.2,0.4-0.1,0.7
	c0,0.2,0.1,0.4,0.2,0.6c0.1,0.2,0.3,0.4,0.4,0.5l0.5,0.5c0.2,0.2,0.4,0.4,0.5,0.5c0.2,0.2,0.3,0.4,0.4,0.6c0.1,0.2,0.2,0.4,0.2,0.7
	c0,0.3-0.1,0.5-0.2,0.8c-0.1,0.3-0.3,0.5-0.6,0.8c-0.2,0.2-0.5,0.4-0.8,0.5c-0.3,0.1-0.6,0.1-0.9,0.1c-0.4,0-0.7-0.1-1-0.3
	c-0.4-0.2-0.8-0.5-1.1-0.8c-0.3-0.3-0.4-0.7-0.5-1.1l0.2-0.1c0.1,0,0.1,0,0.2,0c0,0,0.1,0.1,0.1,0.1l0.1,0.2c0,0.1,0.1,0.2,0.1,0.3
	c0.1,0.1,0.1,0.2,0.2,0.4c0.1,0.1,0.2,0.2,0.3,0.4c0.2,0.1,0.3,0.2,0.5,0.3c0.3,0.1,0.5,0.2,0.8,0.2c0.2,0,0.5,0,0.7-0.1
	c0.2-0.1,0.4-0.2,0.6-0.4c0.2-0.2,0.3-0.4,0.4-0.6c0.1-0.2,0.2-0.4,0.2-0.7c0-0.2-0.1-0.4-0.2-0.6c-0.1-0.2-0.3-0.4-0.4-0.5
	c-0.2-0.2-0.3-0.4-0.5-0.5s-0.4-0.4-0.5-0.5c-0.2-0.2-0.3-0.4-0.4-0.6c-0.1-0.2-0.2-0.5-0.2-0.7c0-0.3,0.1-0.6,0.2-0.8
	c0.1-0.2,0.3-0.4,0.5-0.6c0.2-0.2,0.4-0.3,0.7-0.4c0.3-0.1,0.6-0.1,0.8-0.1c0.3,0,0.6,0.1,0.9,0.3c0.3,0.2,0.6,0.4,0.9,0.6
	c0.2,0.3,0.4,0.6,0.5,0.9L318.4,113.1z"/>
<path class="st0" d="M318,120.8c-0.3-0.1-0.5-0.4-0.6-0.7c-0.1-0.3,0-0.7,0.2-1l1.8-3.3l-0.7-0.4c0,0-0.1,0-0.1-0.1c0,0,0-0.1,0-0.1
	l0.1-0.2l0.9,0.4l1-1.7c0,0,0,0,0.1-0.1c0,0,0.1,0,0.1,0l0.2,0.1l-1,1.8l1.5,0.8l-0.2,0.4l-1.5-0.8l-1.8,3.3
	c-0.1,0.1-0.1,0.2-0.1,0.4c0,0.1,0,0.2,0,0.3c0,0.1,0.1,0.2,0.1,0.2c0.1,0.1,0.2,0.1,0.2,0.2c0.1,0.1,0.2,0.1,0.3,0.1h0.3h0.2h0.1
	c0,0,0,0.1,0,0.1v0.3c-0.2,0.1-0.4,0.1-0.6,0.1C318.3,120.9,318.2,120.9,318,120.8z"/>
<path class="st0" d="M322.2,117.6c0.4-0.1,0.7-0.1,1.1-0.1c0.4,0,0.7,0.2,1,0.4c0.2,0.1,0.4,0.3,0.6,0.5c0.1,0.2,0.2,0.4,0.3,0.6
	c0,0.2,0,0.5,0,0.7c-0.1,0.3-0.2,0.5-0.3,0.8l-1.8,3.1l-0.2-0.1c-0.1,0-0.1-0.1-0.1-0.2l0.3-0.6l-0.6,0.1c-0.2,0-0.4,0-0.5,0
	c-0.2,0-0.4,0-0.5-0.1c-0.2-0.1-0.4-0.1-0.6-0.2c-0.2-0.1-0.3-0.2-0.4-0.3c-0.1-0.1-0.2-0.3-0.3-0.5c-0.1-0.2-0.1-0.4-0.1-0.5
	c0-0.2,0.1-0.4,0.2-0.6c0.1-0.2,0.3-0.4,0.5-0.5c0.3-0.1,0.5-0.2,0.8-0.1c0.4,0,0.8,0.1,1.1,0.2c0.5,0.2,1,0.4,1.5,0.7l0.3-0.5
	c0.2-0.3,0.3-0.8,0.3-1.2c-0.1-0.4-0.3-0.7-0.6-0.8c-0.2-0.1-0.4-0.2-0.6-0.2c-0.2,0-0.4,0-0.5,0l-0.4,0c-0.1,0-0.2,0-0.2,0
	c0,0-0.1,0-0.1-0.1c0,0,0-0.1,0-0.1L322.2,117.6z M324,121c-0.4-0.2-0.8-0.4-1.2-0.6c-0.3-0.1-0.6-0.2-0.9-0.2c-0.2,0-0.5,0-0.7,0.1
	c-0.2,0.1-0.3,0.2-0.4,0.4c-0.1,0.1-0.1,0.3-0.2,0.5c0,0.1,0,0.3,0,0.4c0,0.1,0.1,0.2,0.2,0.3c0.1,0.1,0.2,0.2,0.3,0.3
	c0.2,0.1,0.4,0.2,0.5,0.2c0.2,0.1,0.4,0.1,0.5,0.1c0.2,0,0.3,0,0.5,0c0.2,0,0.4-0.1,0.5-0.1L324,121z"/>
<path class="st0" d="M325.7,125.3c-0.3-0.2-0.5-0.4-0.6-0.7c-0.1-0.4,0-0.7,0.2-1l2-3.2l-0.7-0.4c0,0-0.1,0-0.1-0.1c0,0,0-0.1,0-0.1
	l0.1-0.2l0.8,0.4l1.1-1.6c0,0,0,0,0.1-0.1c0,0,0.1,0,0.1,0l0.2,0.1l-1.1,1.8l1.5,0.9l-0.2,0.3l-1.5-0.9l-1.9,3.2
	c-0.1,0.1-0.1,0.2-0.2,0.4c0,0.1,0,0.2,0,0.3c0,0.1,0.1,0.2,0.1,0.3c0.1,0.1,0.1,0.1,0.2,0.2c0.1,0.1,0.2,0.1,0.3,0.1h0.3h0.2
	c0.1,0,0.1,0,0.1,0c0,0,0,0.1,0,0.1v0.3c-0.2,0-0.4,0-0.6,0C326.2,125.4,325.9,125.3,325.7,125.3z"/>
<path class="st0" d="M329.4,124L329.4,124c-0.3,0.4-0.4,0.7-0.5,1.1c-0.1,0.3-0.1,0.6-0.1,0.9c0,0.3,0.1,0.5,0.3,0.7
	c0.2,0.2,0.4,0.4,0.6,0.6c0.2,0.1,0.4,0.2,0.6,0.3c0.2,0.1,0.4,0.1,0.5,0.1c0.1,0,0.3,0,0.4,0c0.1,0,0.1,0,0.2,0
	c0,0,0.1,0.1,0.1,0.1v0.2c-0.1,0-0.3,0.1-0.5,0.1c-0.2,0-0.4,0-0.5-0.1c-0.2,0-0.4-0.1-0.6-0.2c-0.2-0.1-0.4-0.2-0.5-0.3
	c-0.3-0.2-0.6-0.4-0.8-0.7c-0.2-0.3-0.3-0.6-0.3-0.9c0-0.3,0-0.7,0.1-1c0.1-0.4,0.3-0.8,0.5-1.1c0.2-0.3,0.4-0.6,0.7-0.8
	c0.3-0.2,0.6-0.4,0.9-0.5c0.3-0.1,0.7-0.1,1,0c0.4,0.1,0.7,0.2,1,0.4c0.2,0.2,0.5,0.4,0.6,0.6c0.2,0.2,0.3,0.5,0.3,0.8
	c0.1,0.3,0.1,0.6,0,0.9c-0.1,0.3-0.2,0.7-0.4,1c0,0.1-0.1,0.1-0.1,0.1c0,0-0.1,0-0.1,0L329.4,124z M332.7,125.7
	c0.2-0.2,0.3-0.5,0.3-0.7c0-0.2,0-0.5,0-0.7c0-0.2-0.1-0.4-0.2-0.6c-0.1-0.2-0.3-0.4-0.5-0.5c-0.2-0.1-0.4-0.3-0.7-0.3
	c-0.2-0.1-0.5-0.1-0.7,0c-0.2,0.1-0.5,0.1-0.7,0.3c-0.2,0.1-0.4,0.3-0.6,0.5L332.7,125.7z"/>
<path class="st0" d="M337.3,122.8c0,0.3-0.1,0.5-0.2,0.7c-0.1,0.2-0.2,0.4-0.4,0.6c-0.2,0.2-0.4,0.3-0.6,0.5
	c-0.2,0.1-0.5,0.2-0.7,0.3l-0.1-0.2c0,0,0-0.1,0-0.1c0,0,0,0,0.1,0c0.2-0.1,0.4-0.1,0.5-0.3c0.3-0.2,0.6-0.6,0.7-0.9
	c0.1-0.2,0.1-0.4,0.1-0.5c0-0.1,0.1-0.2,0.2-0.1L337.3,122.8z"/>
<path class="st0" d="M339.1,128.4c0,0-0.1,0-0.2,0c0,0-0.1-0.1-0.1-0.1c0-0.1-0.1-0.2-0.1-0.3c-0.1-0.1-0.1-0.2-0.2-0.4
	c-0.1-0.1-0.3-0.3-0.4-0.4c-0.1-0.1-0.3-0.2-0.5-0.2c-0.2,0-0.3-0.1-0.5-0.1c-0.1,0-0.3,0-0.4,0.1c-0.1,0.1-0.2,0.2-0.3,0.3
	c-0.1,0.1-0.1,0.3-0.1,0.4c0,0.2,0,0.3,0.1,0.4c0.1,0.2,0.2,0.3,0.3,0.5c0.1,0.2,0.2,0.3,0.3,0.5s0.2,0.3,0.3,0.5
	c0.1,0.2,0.2,0.3,0.2,0.5c0,0.2,0,0.3,0,0.5c0,0.2-0.1,0.4-0.2,0.5c-0.1,0.2-0.3,0.3-0.5,0.5c-0.2,0.1-0.4,0.2-0.6,0.2
	c-0.2,0-0.5,0-0.7-0.1c-0.3-0.1-0.5-0.2-0.7-0.4c-0.3-0.2-0.5-0.4-0.7-0.7c-0.2-0.3-0.3-0.5-0.3-0.8l0.2-0.1c0,0,0.1,0,0.1,0
	c0,0,0.1,0,0.1,0c0,0,0.1,0.1,0.1,0.2c0,0.1,0.1,0.2,0.1,0.3c0.1,0.1,0.1,0.3,0.2,0.4c0.1,0.2,0.3,0.3,0.5,0.4
	c0.2,0.1,0.4,0.2,0.5,0.3c0.2,0.1,0.3,0.1,0.5,0c0.2,0,0.3-0.1,0.4-0.2c0.1-0.1,0.3-0.2,0.3-0.3c0.1-0.1,0.2-0.3,0.2-0.4
	c0-0.2,0-0.3-0.1-0.5c-0.1-0.2-0.2-0.3-0.3-0.5l-0.3-0.5c-0.1-0.2-0.2-0.3-0.3-0.5c-0.1-0.2-0.2-0.3-0.2-0.5c0-0.2,0-0.3,0-0.5
	c0-0.2,0.1-0.4,0.2-0.5c0.1-0.2,0.3-0.3,0.4-0.4c0.2-0.1,0.4-0.1,0.6-0.2c0.2,0,0.4,0,0.7,0.1c0.2,0.1,0.5,0.2,0.7,0.4
	c0.2,0.2,0.5,0.4,0.6,0.6c0.2,0.2,0.3,0.5,0.3,0.8L339.1,128.4z"/>
<path class="st0" d="M345.2,133.3c0,0-0.1,0-0.1,0c0,0-0.1-0.1-0.1-0.1c0-0.1-0.1-0.2-0.1-0.3c-0.1-0.1-0.1-0.3-0.2-0.4
	c-0.1-0.2-0.2-0.3-0.4-0.4c-0.1-0.1-0.3-0.2-0.5-0.3c-0.2-0.1-0.3-0.1-0.5-0.1c-0.1,0-0.3,0-0.4,0.1c-0.1,0.1-0.2,0.1-0.3,0.2
	c-0.1,0.1-0.2,0.3-0.2,0.4c0,0.2,0,0.3,0.1,0.4c0.1,0.2,0.1,0.3,0.2,0.5l0.3,0.5c0.1,0.2,0.2,0.3,0.3,0.5c0.1,0.2,0.2,0.3,0.2,0.5
	c0,0.2,0,0.3,0,0.5c0,0.2-0.1,0.4-0.2,0.5c-0.1,0.2-0.3,0.3-0.5,0.4c-0.2,0.1-0.4,0.2-0.6,0.2c-0.2,0-0.5,0-0.7-0.1
	c-0.3-0.1-0.5-0.2-0.7-0.4c-0.3-0.2-0.5-0.5-0.7-0.8c-0.1-0.3-0.2-0.5-0.3-0.8l0.2-0.1c0,0,0.1,0,0.1,0c0,0,0.1,0,0.1,0
	c0,0.1,0.1,0.1,0.1,0.2c0,0.1,0,0.2,0.1,0.3c0.1,0.1,0.1,0.3,0.2,0.4c0.1,0.2,0.3,0.3,0.4,0.5c0.2,0.1,0.3,0.2,0.5,0.3
	c0.2,0.1,0.3,0.1,0.5,0.1c0.2,0,0.3-0.1,0.5-0.1c0.1-0.1,0.3-0.2,0.4-0.3c0.1-0.1,0.2-0.3,0.2-0.4c0-0.2,0-0.3-0.1-0.5
	c-0.1-0.2-0.1-0.3-0.2-0.5l-0.3-0.5c-0.1-0.2-0.2-0.3-0.3-0.5c-0.1-0.2-0.2-0.3-0.2-0.5c0-0.2,0-0.3,0-0.5c0-0.2,0.1-0.4,0.3-0.5
	c0.1-0.2,0.3-0.3,0.5-0.4c0.2-0.1,0.4-0.1,0.6-0.1c0.2,0,0.4,0,0.6,0.1c0.2,0.1,0.5,0.2,0.7,0.4c0.2,0.2,0.4,0.4,0.6,0.7
	c0.1,0.2,0.2,0.5,0.3,0.8L345.2,133.3z"/>
<path class="st0" d="M344.5,139.1c-0.3-0.2-0.4-0.5-0.5-0.8c0-0.3,0.1-0.7,0.4-0.9l2.5-2.8l-0.6-0.5c0,0,0-0.1,0-0.1
	c0,0,0-0.1,0-0.1l0.1-0.2l0.8,0.6l1.4-1.4h0.1c0,0,0.1,0,0.1,0l0.2,0.2l-1.4,1.6l1.3,1.1l-0.3,0.3l-1.3-1.1l-2.4,2.8
	c-0.1,0.1-0.2,0.2-0.2,0.3c0,0.1,0,0.2,0,0.3c0,0.1,0,0.2,0.1,0.3c0,0.1,0.1,0.2,0.2,0.2c0.1,0.1,0.2,0.1,0.3,0.2
	c0.1,0,0.2,0.1,0.3,0.1h0.2c0.1,0,0.1,0,0.1,0s0,0,0,0.1v0.3c-0.2,0-0.4,0-0.6-0.1C344.9,139.4,344.7,139.2,344.5,139.1z"/>
<path class="st0" d="M353,139.3l-3.7,4l-0.2-0.2c-0.1-0.1-0.1-0.1,0-0.2c0,0,0,0,0,0l0.5-0.6c-0.4,0.1-0.8,0.1-1.2,0
	c-0.4-0.1-0.7-0.3-1-0.5c-0.2-0.2-0.4-0.4-0.5-0.6c-0.1-0.2-0.1-0.4-0.1-0.7c0-0.2,0.1-0.5,0.2-0.7c0.1-0.3,0.3-0.5,0.5-0.7l2.4-2.6
	l0.4,0.4l-2.4,2.6c-0.3,0.3-0.5,0.7-0.6,1.1c0,0.4,0.2,0.8,0.5,1c0.3,0.2,0.6,0.4,0.9,0.5c0.4,0.1,0.8,0.1,1.1,0l2.8-3L353,139.3z"
	/>
<path class="st0" d="M359.2,141.9l-5.7,5.7l-0.2-0.2c-0.1-0.1-0.1-0.2,0-0.2c0,0,0,0,0,0l0.6-0.6c-0.4,0.1-0.8,0.1-1.2,0
	c-0.4-0.1-0.7-0.3-1-0.6c-0.5-0.4-0.7-1-0.6-1.6c0.1-0.7,0.5-1.4,1.1-1.9c0.3-0.3,0.6-0.5,0.9-0.7c0.3-0.2,0.6-0.3,1-0.3
	c0.3-0.1,0.7,0,1,0.1c0.3,0.1,0.6,0.3,0.9,0.6c0.2,0.2,0.4,0.5,0.5,0.8c0.1,0.3,0.1,0.6,0.1,0.9l2.3-2.3L359.2,141.9z M356.2,144.2
	c0.1-0.3,0.1-0.7,0-1c-0.1-0.3-0.3-0.5-0.5-0.8c-0.2-0.2-0.5-0.3-0.8-0.4c-0.3-0.1-0.5-0.1-0.8-0.1c-0.3,0-0.6,0.1-0.8,0.3
	c-0.3,0.2-0.5,0.4-0.8,0.6c-0.5,0.4-0.9,1-1,1.6c-0.1,0.5,0.1,1,0.5,1.3c0.2,0.2,0.6,0.4,0.9,0.5c0.4,0.1,0.7,0.1,1.1,0L356.2,144.2
	z"/>
<path class="st0" d="M357.1,147L357.1,147c-0.4,0.2-0.6,0.5-0.8,0.8c-0.2,0.3-0.3,0.5-0.3,0.8c0,0.3,0,0.5,0.1,0.8
	c0.1,0.3,0.3,0.5,0.5,0.7c0.2,0.2,0.3,0.3,0.5,0.5c0.2,0.1,0.3,0.2,0.5,0.2l0.4,0.1c0.1,0,0.1,0,0.2,0.1c0,0,0,0.1,0,0.1v0.2
	c-0.2,0-0.3,0-0.5,0c-0.2,0-0.3-0.1-0.5-0.2c-0.2-0.1-0.3-0.2-0.5-0.3c-0.2-0.1-0.3-0.3-0.5-0.4c-0.2-0.3-0.4-0.6-0.5-0.9
	c-0.1-0.3-0.2-0.7-0.1-1c0-0.4,0.1-0.7,0.3-1c0.2-0.4,0.5-0.7,0.8-1c0.3-0.3,0.6-0.5,0.9-0.6c0.3-0.1,0.6-0.2,1-0.2
	c0.3,0,0.7,0,1,0.2c0.3,0.1,0.6,0.4,0.8,0.6c0.2,0.2,0.4,0.5,0.5,0.7c0.1,0.3,0.1,0.5,0.1,0.8c0,0.3-0.1,0.6-0.2,0.9
	c-0.2,0.3-0.4,0.6-0.6,0.8c0,0-0.1,0.1-0.1,0.1c0,0-0.1,0-0.1-0.1L357.1,147z M359.8,149.5c0.2-0.2,0.4-0.4,0.5-0.6
	c0.1-0.2,0.2-0.4,0.2-0.7c0-0.2,0-0.4-0.1-0.6c-0.1-0.2-0.2-0.4-0.4-0.6c-0.2-0.2-0.4-0.3-0.6-0.5c-0.2-0.1-0.4-0.2-0.7-0.2
	c-0.2,0-0.5,0-0.7,0.1c-0.3,0.1-0.5,0.2-0.7,0.4L359.8,149.5z"/>
<path class="st0" d="M362.4,150.5c0.4,0,0.8,0,1.2,0.2c0.4,0.1,0.7,0.4,0.9,0.7c0.2,0.2,0.3,0.4,0.4,0.7c0.1,0.2,0.1,0.5,0.1,0.7
	c0,0.2-0.1,0.5-0.3,0.7c-0.2,0.2-0.4,0.5-0.6,0.6l-2.7,2.3l-0.3-0.4l2.7-2.3c0.3-0.3,0.6-0.6,0.7-1c0.1-0.4-0.1-0.8-0.4-1.1
	c-0.2-0.3-0.5-0.5-0.8-0.6c-0.4-0.1-0.7-0.2-1.1-0.1l-3.1,2.7l-0.3-0.4l4.2-3.5l0.2,0.2c0.1,0.1,0.1,0.2,0,0.2L362.4,150.5z"/>
<path class="st0" d="M363.3,158.8c-0.2-0.2-0.3-0.6-0.3-0.9c0.1-0.3,0.3-0.6,0.5-0.8l2.9-2.3l-0.5-0.6c0,0,0-0.1,0-0.1
	c0,0,0-0.1,0-0.1l0.2-0.1l0.6,0.7l1.6-1.1c0,0,0.1,0,0.1,0c0,0,0.1,0,0.1,0l0.2,0.2l-1.6,1.3l1.1,1.4l-0.3,0.2l-1.1-1.4l-2.9,2.3
	c-0.1,0.1-0.2,0.2-0.3,0.3c-0.1,0.1-0.1,0.2-0.1,0.3c0,0.1,0,0.2,0,0.3c0,0.1,0.1,0.2,0.2,0.3c0.1,0.1,0.2,0.2,0.3,0.2
	c0.1,0,0.2,0.1,0.2,0.1c0.1,0,0.1,0,0.2,0c0,0,0.1,0,0.1,0c0,0,0,0.1,0,0.1l-0.1,0.3c-0.2,0-0.4-0.1-0.6-0.2
	C363.6,159,363.4,158.9,363.3,158.8z"/>
<path class="st0" d="M370.1,160.8c0.2-0.1,0.4-0.1,0.7-0.1c0.2,0,0.4,0,0.6,0c0.2,0,0.3,0.1,0.5,0.2c0.2,0.1,0.3,0.3,0.4,0.4
	c0.1,0.1,0.1,0.2,0.2,0.3c0,0.1,0.1,0.2,0.1,0.3l-0.3,0.2c0,0-0.1,0-0.1,0l-0.1-0.2c0-0.1-0.1-0.2-0.2-0.3c-0.1-0.2-0.3-0.3-0.4-0.4
	c-0.2-0.1-0.3-0.2-0.5-0.2c-0.2,0-0.4,0-0.6,0c-0.2,0-0.5,0.1-0.7,0.2l-2.9,2.1l-0.3-0.4l4.4-3.2l0.2,0.2c0,0,0,0.1,0,0.1
	c0,0,0,0.1-0.1,0.1L370.1,160.8z"/>
<path class="st0" d="M375.6,166.4l-4.5,3.1l-0.2-0.2c-0.1-0.1-0.1-0.2,0-0.2l0.7-0.5c-0.4,0-0.8-0.1-1.1-0.3
	c-0.3-0.2-0.6-0.4-0.9-0.8c-0.2-0.2-0.3-0.5-0.3-0.7c-0.1-0.2-0.1-0.5,0-0.7c0.1-0.2,0.2-0.5,0.3-0.6c0.2-0.2,0.4-0.4,0.7-0.6l2.9-2
	l0.3,0.4l-2.9,2c-0.4,0.2-0.7,0.6-0.8,1c-0.1,0.4,0,0.8,0.2,1.1c0.2,0.3,0.5,0.5,0.8,0.7c0.3,0.2,0.7,0.3,1.1,0.3l3.4-2.3
	L375.6,166.4z"/>
<path class="st0" d="M376.1,169c0.4,0,0.8,0.2,1.1,0.4c0.3,0.2,0.6,0.5,0.8,0.8c0.1,0.2,0.2,0.5,0.3,0.8c0,0.2,0,0.5-0.1,0.7
	c-0.1,0.2-0.2,0.4-0.4,0.6c-0.2,0.2-0.4,0.4-0.7,0.5l-3,1.8l-0.3-0.5l3-1.8c0.4-0.2,0.7-0.5,0.8-0.9c0.1-0.4,0-0.8-0.2-1.1
	c-0.2-0.3-0.4-0.5-0.8-0.7c-0.3-0.2-0.7-0.3-1.1-0.3l-3.5,2.2l-0.3-0.5l4.7-2.9l0.2,0.2c0.1,0.1,0.1,0.1,0,0.2L376.1,169z"/>
<path class="st0" d="M380.8,176.9c0.4,0.1,0.7,0.2,1.1,0.4c0.3,0.2,0.6,0.5,0.8,0.8c0.1,0.2,0.2,0.5,0.2,0.8c0,0.2,0,0.5-0.1,0.7
	c-0.1,0.2-0.2,0.4-0.4,0.6c-0.2,0.2-0.4,0.4-0.7,0.5l-3.1,1.6l-0.2-0.5l3.1-1.6c0.4-0.2,0.7-0.5,0.9-0.9c0.1-0.4,0.1-0.8-0.1-1.1
	c-0.2-0.3-0.4-0.6-0.7-0.8c-0.3-0.2-0.7-0.3-1.1-0.4l-3.6,1.9l-0.2-0.5l7.1-3.8l0.2,0.5L380.8,176.9z"/>
<path class="st0" d="M383.5,181.7c0.4,0.1,0.7,0.3,1,0.5c0.3,0.2,0.5,0.5,0.7,0.9c0.1,0.2,0.2,0.5,0.2,0.8c0,0.2,0,0.5-0.1,0.7
	c-0.1,0.2-0.2,0.4-0.4,0.6c-0.2,0.2-0.4,0.3-0.7,0.5l-3.2,1.6l-0.1-0.2c-0.1-0.1-0.1-0.2,0-0.2l0.6-0.4c-0.2-0.1-0.4-0.1-0.5-0.2
	c-0.2-0.1-0.3-0.2-0.5-0.3c-0.1-0.1-0.3-0.2-0.4-0.4c-0.1-0.2-0.2-0.3-0.3-0.5c-0.1-0.2-0.1-0.3-0.2-0.5c0-0.2,0-0.4,0-0.5
	c0-0.2,0.1-0.3,0.2-0.5c0.1-0.2,0.3-0.3,0.5-0.4c0.2-0.1,0.4-0.1,0.7-0.1c0.3,0,0.5,0.2,0.7,0.3c0.3,0.2,0.6,0.5,0.8,0.8
	c0.3,0.4,0.6,0.9,0.8,1.4l0.5-0.2c0.4-0.2,0.7-0.4,0.9-0.8c0.1-0.3,0.1-0.7-0.1-1.1c-0.1-0.2-0.2-0.4-0.4-0.5
	c-0.1-0.1-0.3-0.2-0.4-0.3c-0.1-0.1-0.2-0.1-0.4-0.2c-0.1,0-0.1-0.1-0.2-0.1c0,0,0-0.1,0-0.1c0,0,0-0.1,0-0.1L383.5,181.7z
	 M383.1,185.5c-0.2-0.4-0.4-0.8-0.7-1.1c-0.2-0.3-0.4-0.5-0.6-0.7c-0.2-0.2-0.4-0.3-0.6-0.3c-0.2,0-0.4,0-0.5,0.1
	c-0.2,0.1-0.3,0.2-0.4,0.3c-0.1,0.1-0.2,0.2-0.2,0.4c0,0.1,0,0.3,0,0.4c0,0.1,0.1,0.3,0.1,0.4c0.1,0.2,0.2,0.3,0.3,0.5
	c0.1,0.1,0.2,0.3,0.4,0.4c0.1,0.1,0.3,0.2,0.5,0.3c0.2,0.1,0.3,0.1,0.5,0.2L383.1,185.5z"/>
<path class="st0" d="M387.5,190L387.5,190C387.4,190,387.4,190,387.5,190c-0.1-0.1-0.1-0.1-0.1-0.2c0-0.1,0-0.2,0-0.3
	c0-0.1,0-0.3,0-0.4c0-0.2-0.1-0.4-0.2-0.6c-0.1-0.3-0.3-0.5-0.5-0.7c-0.2-0.2-0.4-0.3-0.7-0.4c-0.3-0.1-0.6-0.1-0.8,0
	c-0.3,0-0.7,0.1-1,0.3c-0.3,0.1-0.6,0.3-0.9,0.5c-0.2,0.2-0.4,0.4-0.5,0.6c-0.1,0.2-0.2,0.5-0.2,0.7c0,0.3,0.1,0.5,0.2,0.8
	c0.1,0.2,0.2,0.4,0.3,0.6c0.1,0.1,0.2,0.2,0.4,0.3c0.1,0.1,0.2,0.1,0.3,0.2c0.1,0,0.1,0.1,0.2,0.1c0,0,0,0.1,0,0.1l-0.1,0.2
	c-0.1,0-0.3-0.1-0.4-0.2c-0.1-0.1-0.3-0.2-0.4-0.3c-0.1-0.1-0.3-0.3-0.4-0.4c-0.1-0.2-0.2-0.3-0.3-0.5c-0.1-0.3-0.2-0.7-0.2-1
	c0-0.3,0.1-0.6,0.2-0.9c0.1-0.3,0.4-0.6,0.6-0.8c0.3-0.3,0.6-0.5,1-0.6c0.4-0.2,0.7-0.3,1.1-0.3c0.3,0,0.7,0,1,0.1
	c0.3,0.1,0.6,0.3,0.8,0.5c0.5,0.5,0.8,1.1,0.8,1.8c0,0.3,0,0.6-0.1,0.8L387.5,190z"/>
<path class="st0" d="M391.3,190.8l-4.5,1.8l0.1,0.2c0,0,0,0.1,0.1,0.1c0,0,0.1,0.1,0.2,0.1l2.8,1.3c0.1,0,0.1,0,0.1,0.1
	c0,0,0.1,0.1,0.1,0.1l0.2,0.4l-3-1.4c-0.1,0-0.2-0.1-0.2-0.1c0,0.1,0,0.1,0,0.2c0,0.1,0,0.1-0.1,0.2l-1.6,3.4l-0.2-0.4
	c0,0,0-0.1,0-0.1c0-0.1,0-0.1,0-0.1l1.4-3c0,0,0-0.1,0-0.1c0,0,0-0.1,0-0.1c0,0,0-0.1,0-0.1c0,0,0-0.1,0-0.1l-0.1-0.2l-2.6,1
	l-0.2-0.5l7.4-3L391.3,190.8z"/>
<path class="st0" d="M390,196.4c0.3,0.2,0.6,0.4,0.9,0.6c0.3,0.3,0.4,0.6,0.6,0.9c0.1,0.2,0.1,0.5,0.1,0.8c0,0.2-0.1,0.5-0.2,0.6
	c-0.1,0.2-0.3,0.4-0.5,0.5c-0.2,0.2-0.5,0.3-0.7,0.4l-3.3,1.2l-0.1-0.2c0-0.1,0-0.2,0.1-0.2l0.6-0.3c-0.2-0.1-0.4-0.2-0.5-0.3
	c-0.2-0.1-0.3-0.2-0.4-0.3c-0.1-0.1-0.3-0.3-0.3-0.4c-0.1-0.2-0.2-0.4-0.3-0.6c-0.1-0.2-0.1-0.4-0.1-0.5c0-0.2,0-0.4,0.1-0.5
	c0.1-0.2,0.2-0.3,0.3-0.5c0.2-0.1,0.4-0.3,0.6-0.3c0.2-0.1,0.5-0.1,0.7,0c0.3,0.1,0.5,0.2,0.7,0.4c0.3,0.3,0.5,0.6,0.7,0.9
	c0.3,0.5,0.5,0.9,0.7,1.5l0.5-0.2c0.4-0.1,0.8-0.4,1-0.7c0.2-0.3,0.2-0.7,0.1-1c-0.1-0.2-0.2-0.4-0.3-0.6c-0.1-0.1-0.2-0.3-0.4-0.4
	c-0.1-0.1-0.2-0.1-0.3-0.2c-0.1,0-0.1-0.1-0.2-0.1c0,0,0-0.1,0-0.1c0,0,0-0.1,0-0.1L390,196.4z M389.2,200.1
	c-0.2-0.4-0.4-0.8-0.6-1.2c-0.2-0.3-0.3-0.5-0.6-0.8c-0.2-0.2-0.3-0.3-0.5-0.4c-0.2-0.1-0.4-0.1-0.5,0c-0.2,0-0.3,0.1-0.4,0.2
	c-0.1,0.1-0.2,0.2-0.2,0.3c0,0.1-0.1,0.3-0.1,0.4c0,0.1,0,0.3,0.1,0.4c0.1,0.2,0.2,0.4,0.3,0.5c0.1,0.1,0.2,0.3,0.3,0.4
	c0.1,0.1,0.3,0.2,0.4,0.3l0.5,0.2L389.2,200.1z"/>
<path class="st0" d="M387.7,204.5c-0.1-0.3-0.1-0.6,0-0.9c0.2-0.3,0.5-0.5,0.8-0.6l3.6-1.1l-0.2-0.8c0,0,0-0.1,0-0.1
	c0,0,0-0.1,0.1-0.1l0.2-0.1l0.3,0.9l1.9-0.5h0.1c0,0,0.1,0,0.1,0.1l0.1,0.2l-2,0.6l0.5,1.6l-0.4,0.1l-0.5-1.6l-3.5,1.1
	c-0.1,0-0.2,0.1-0.3,0.2c-0.1,0.1-0.2,0.1-0.2,0.2c0,0.1-0.1,0.2-0.1,0.3c0,0.1,0,0.2,0,0.3c0,0.1,0.1,0.2,0.2,0.3
	c0.1,0.1,0.1,0.1,0.2,0.2l0.2,0.1c0,0,0.1,0.1,0.1,0.1c0,0,0,0.1,0,0.1l-0.2,0.2c-0.2-0.1-0.4-0.2-0.5-0.4
	C387.8,204.9,387.7,204.7,387.7,204.5z"/>
<path class="st0" d="M393,205.8c0.4,0.1,0.7,0.4,1,0.6c0.3,0.3,0.5,0.6,0.6,1c0.1,0.3,0.1,0.5,0.1,0.8c0,0.2-0.1,0.5-0.2,0.7
	c-0.1,0.2-0.3,0.4-0.5,0.5c-0.2,0.2-0.5,0.3-0.8,0.4l-3.4,1l-0.1-0.5l3.4-1c0.4-0.1,0.8-0.3,1.1-0.7c0.2-0.3,0.3-0.8,0.1-1.1
	c-0.1-0.3-0.3-0.6-0.5-0.9c-0.3-0.3-0.6-0.5-1-0.6l-4,1.1l-0.2-0.5l7.7-2.2l0.2,0.5L393,205.8z"/>
<path class="st0" d="M396,213.1c0.1,0.4,0.1,0.7,0,1.1c-0.1,0.3-0.2,0.6-0.4,0.9c-0.2,0.3-0.4,0.5-0.7,0.7c-0.3,0.2-0.7,0.4-1.1,0.4
	c-0.4,0.1-0.8,0.1-1.2,0.1c-0.3,0-0.7-0.1-1-0.3c-0.3-0.2-0.5-0.4-0.7-0.6c-0.2-0.3-0.4-0.6-0.4-1c-0.1-0.3-0.1-0.7-0.1-1.1
	c0.1-0.3,0.2-0.6,0.4-0.9c0.2-0.3,0.5-0.5,0.8-0.7c0.7-0.4,1.5-0.6,2.3-0.5c0.3,0,0.7,0.1,1,0.3c0.3,0.1,0.5,0.4,0.7,0.6
	C395.7,212.4,395.9,212.7,396,213.1z M390.9,214.3c0.1,0.3,0.2,0.6,0.4,0.8c0.2,0.2,0.4,0.4,0.6,0.5c0.3,0.1,0.5,0.2,0.8,0.2
	c0.3,0,0.7,0,1-0.1c0.3-0.1,0.6-0.2,0.9-0.4c0.3-0.1,0.5-0.3,0.7-0.5c0.2-0.2,0.3-0.5,0.3-0.7c0.1-0.6,0-1.2-0.4-1.7
	c-0.2-0.2-0.4-0.4-0.6-0.5c-0.3-0.1-0.5-0.2-0.8-0.2c-0.3,0-0.7,0-1,0.1c-0.3,0.1-0.6,0.2-0.9,0.4c-0.3,0.1-0.5,0.3-0.7,0.5
	c-0.2,0.2-0.3,0.5-0.3,0.7C390.8,213.8,390.8,214.1,390.9,214.3L390.9,214.3z"/>
<path class="st0" d="M396,217.8c0.3,0.2,0.7,0.4,0.9,0.7c0.3,0.3,0.4,0.6,0.5,1c0.1,0.3,0.1,0.5,0,0.8c0,0.2-0.1,0.5-0.3,0.6
	c-0.2,0.2-0.4,0.3-0.6,0.5c-0.3,0.1-0.5,0.2-0.8,0.3l-3.4,0.7l-0.1-0.5l3.4-0.7c0.4-0.1,0.8-0.3,1.1-0.6c0.2-0.3,0.3-0.7,0.2-1.1
	c-0.1-0.3-0.2-0.7-0.5-0.9c-0.2-0.3-0.6-0.5-0.9-0.7l-4,0.8l-0.1-0.5l5.4-1.1l0.1,0.3c0,0.1,0,0.2-0.1,0.2L396,217.8z"/>
<path class="st1" d="M220.8,226.9l-0.7-0.7v0.8L220.8,226.9z"/>
<polygon class="st1" points="322,324 298,293.4 293.8,295.8 "/>
<path class="st1" d="M224.3,249.4l-1-1.3c0,0.4,0,0.9,0,1.3H224.3z"/>
<path class="st1" d="M207.8,273.6l-0.5-0.1v0.7L207.8,273.6z"/>
<polygon class="st1" points="174,326 206,300.9 201.7,298.4 "/>
<path class="st1" d="M237,106.1l1.9-15.6c-82.4,4.1-148.3,70-152.4,152.4l15.6-1.9C107.2,168.7,164.7,111.2,237,106.1z"/>
<path class="st1" d="M207.4,270.5l2.6,0.3l0.1-0.1l-2.7-1.5V270.5z"/>
<path class="st1" d="M235.9,115.2c-66.5,5.5-119.2,58.3-124.7,124.7l71.4-8.5v-9c0-4.8,2.6-9.3,6.7-11.7l3.1-1.8l-38.4-48.7
	c-0.5-0.6-0.4-1.5,0.1-2c0.5-0.5,1.4-0.6,2-0.1l52.6,41.4l18.3-10.6L235.9,115.2z"/>
<polygon class="st1" points="55.7,252.4 182.6,267.5 182.6,252.4 "/>
<path class="st1" d="M207.5,228v0.5h0.4L207.5,228z"/>
<path class="st1" d="M215.3,264.1c0-2.4,0-4.7,0-7.1c0-0.7-0.6-1.3-1.3-1.3c-0.2,0-0.4,0.1-0.6,0.1c-2,1.1-4,2.2-6.1,3.2v3.7
	l6.2,3.3L215.3,264.1z"/>
<path class="st1" d="M229.1,241.3l3.9-2.1l-3.1-3.1l-5.7,3l-0.5,4.6l3.8,4.9l0.5-0.6v-4.7C228,242.4,228.4,241.7,229.1,241.3z"/>
<path class="st1" d="M251.8,280.3l-3.3-1.8v15.8l3.4-1.9L251.8,280.3z"/>
<path class="st1" d="M266.5,253.4l-3.6,4.6v4.5l-2.5-1.3l-0.5,0.6l7.8,7.8c0-4.9,0-9.8,0-14.6L266.5,253.4z"/>
<path class="st1" d="M234.9,214.4c0.6-0.3,1-1,1-1.7v-8.5l-3.8,2c-0.6,0.3-1,1-1,1.6c0,2.8,0,5.6,0,8.4L234.9,214.4z"/>
<polygon class="st1" points="195.1,207.4 199.1,205.1 172,178 "/>
<path class="st1" d="M249.4,231.5l8.4,6.6l2.5-2.5l-9.6-5.2L249.4,231.5z"/>
<path class="st1" d="M259.8,228.3l-1.5-0.2l1.5,0.8V228.3z"/>
<path class="st1" d="M234.4,219.6l1.5,1.2v-2.1L234.4,219.6z"/>
<polygon class="st1" points="291.2,204.7 320,176 286.7,202.1 "/>
<path class="st1" d="M283.9,301.5l-16.8,9.7l-2.4,20.1c20.5,0.4,40.9,1.5,61.4,3.3L283.9,301.5z"/>
<path class="st1" d="M382.8,262.1l-74.4,8.9v8.6c0,4.8-2.6,9.3-6.7,11.7l-1.1,0.6l34.3,43.6c5.8,0.6,11.6,1.2,17.3,1.9
	C369.9,316,380.6,289.7,382.8,262.1z"/>
<path class="st1" d="M263.8,313.1l-11.6,6.7c-1.2,0.7-2.5,1.2-3.8,1.5v9.9c4.4,0,8.8,0,13.2,0.1L263.8,313.1z"/>
<path class="st1" d="M395.1,313.6c7.3-17.3,11.5-35.7,12.4-54.4l-15.6,1.9c-1.9,28.2-12.1,55.2-29.2,77.7c5.8,0.8,11.6,1.6,17.4,2.5
	C386,332.5,391,323.2,395.1,313.6z"/>
<path class="st1" d="M102.1,261l-15.6-1.9c1.4,29.3,10.9,57.7,27.4,82c5.8-0.9,11.6-1.7,17.4-2.5C114.2,316.2,104,289.2,102.1,261z"
	/>
<path class="st1" d="M255.1,411.5c29.3-1.4,57.6-10.9,81.9-27.3c-9-1-17.9-1.8-26.9-2.5c-16.6,8.1-34.7,12.8-53.1,14.1L255.1,411.5z
	"/>
<path class="st1" d="M238.8,182.2c2.1-1.2,4.4-1.8,6.8-1.8h0V59.7L230.4,187L238.8,182.2z"/>
<path class="st1" d="M227.1,313.1l-18.3-10.6L168,334.6c20.4-1.8,40.8-2.9,61.3-3.3L227.1,313.1z"/>
<path class="st1" d="M192.5,293l-3.1-1.8c-4.2-2.4-6.7-6.9-6.7-11.7v-9l-71.4-8.5c2.2,27.6,12.9,53.9,30.5,75.3
	c5.8-0.7,11.6-1.3,17.4-1.9L192.5,293z"/>
<path class="st1" d="M289.3,380.5c-10.1-0.5-20.2-0.8-30.4-1l-0.9,7.3C268.7,385.9,279.2,383.8,289.3,380.5z"/>
<path class="st1" d="M91.1,355.3c0.2,1,0.4,2,0.5,3l0,0L91.1,355.3z"/>
<path class="st1" d="M378,389.7l-3-0.5L378,389.7z"/>
<path class="st1" d="M270,215.3l0.8,7.1c0-2.6,0-5.2,0-7.8L270,215.3z"/>
<path class="st1" d="M382.8,239.9c-5.5-66.5-58.3-119.2-124.7-124.7l9,75.6l16.8,9.7l53.9-42.4c0.3-0.2,0.6-0.3,0.9-0.3
	c0.4,0,0.8,0.2,1.1,0.4c0.5,0.5,0.6,1.4,0.1,2l-39.3,49.9l1.1,0.6c4.2,2.4,6.7,6.9,6.7,11.7v8.6L382.8,239.9z"/>
<polygon class="st1" points="184.3,399.3 184.4,399.1 184.3,399.3 "/>
<path class="st1" d="M255.9,379.5c-2.5,0-5,0-7.5,0v62.8L255.9,379.5z"/>
<path class="st1" d="M235.1,379.5c-10.1,0.1-20.3,0.5-30.4,1c10.1,3.3,20.6,5.4,31.2,6.3L235.1,379.5z"/>
<path class="st1" d="M238.9,411.5l-1.9-15.6c-18.4-1.2-36.5-6-53.1-14.1c-9,0.7-17.9,1.5-26.9,2.5
	C181.3,400.7,209.6,410.1,238.9,411.5L238.9,411.5z"/>
<path class="st1" d="M197.9,281.5v-9.2l-7.8-0.9v4.6c0,4.2,2.3,8.2,5.9,10.3l1.1,0.7l3.2-4.1L197.9,281.5z"/>
<path class="st1" d="M197.9,259.1c0-0.8,0.4-1.5,1.1-1.9l9-4.8h-8.8l-1.2,0.6v-0.6h-7.8v16l7.8,0.9L197.9,259.1z"/>
<polygon class="st1" points="222.9,277.2 207.2,292.8 212.4,295.8 224,286.7 "/>
<path class="st1" d="M197.9,221c0-0.7,0.4-1.4,1-1.7l1.2-0.6l-2.9-3.7l-1.1,0.7c-3.7,2.1-5.9,6-5.9,10.3v4.7l7.8-0.9V221z"/>
<path class="st1" d="M207.5,214.7c0,2.8,0,5.6,0,8.4l3,3.8c0.1-0.2,0.1-0.4,0.1-0.7v-9.6l-6-6l-4.8,2.8l3,3.8L207.5,214.7z"/>
<path class="st1" d="M243.8,195.2c0,10.7,0,21.3,0,31.9l3.1,2.5l0.8-0.7l-0.7-0.4v-1.7h-0.2c-0.8-0.1-1.3-0.7-1.3-1.5v-36.5h-0.1
	c-2.1,0-4.1,0.5-5.9,1.6l-10.2,5.9l-0.8,7.1L243.8,195.2z"/>
<polygon class="st1" points="215.2,297.5 226,303.7 224.4,290.2 "/>
<path class="st1" d="M308.4,249.6H409h0.1l0,0h0.6h28.6l-129.9-15.5V249.6z"/>
<path class="st1" d="M284.3,286.2l4,4l4.9-2.8l-3.2-4.2L284.3,286.2z"/>
<path class="st1" d="M270.9,210.8v-1.3c0-0.5,0.4-0.9,0.9-0.9c0.2,0,0.3,0,0.5,0.1l0.8,0.4l4.5-3.5l-9.3-5.4l1.4,11.7L270.9,210.8z"
	/>
<polygon class="st1" points="309.7,102.6 309.6,102.9 309.7,102.6 "/>
<path class="st1" d="M293,280.2c0,0.5-0.2,1-0.5,1.4l3.3,4.2c3.1-2.2,5-5.8,5-9.7v-4.3l-7.8,0.9L293,280.2z"/>
<path class="st1" d="M262.9,285c0,3.8,0,7.6,0,11.4c0,0.8-0.4,1.6-1.2,2l-13.3,7.2v7.3c1.1-0.3,2.1-0.7,3-1.2l13.5-7.8l1.9-15.8
	L262.9,285z"/>
<path class="st1" d="M269.1,294.3l-0.9,7.5l9.3-5.4l-5-4L269.1,294.3z"/>
<path class="st1" d="M391.9,241l15.7,1.9c-4.1-82.4-70-148.3-152.4-152.4l1.9,15.6C329.3,111.2,386.8,168.7,391.9,241z"/>
<path class="st1" d="M220.1,208v0.4l3,2.3c0-1.1,0-2.2,0-3.3c0-0.7,0.4-1.3,1-1.7l1.1-0.6l0.8-6.9l-10.9,6.3l4.6,3.6L220.1,208z"/>
<path class="st1" d="M280.4,213.1v2.5l5.3-5.3l-5.3-3.1l-4.4,3.5L280.4,213.1z"/>
<path class="st1" d="M283.5,275.5v-0.4l-0.8-1.1l-3.9,0.5v3.5C280.3,277.1,281.9,276.3,283.5,275.5z"/>
<path class="st1" d="M283.7,233.8l-1.2-0.7l-2.1,2.7v8.9c0,0.5-0.5,0.9-1,0.9c-0.2,0-0.3,0-0.5-0.1l-4.4-2.4l-1.7,2.2l6,3.2v1h7.7
	l-2.9-1.5L283.7,233.8z"/>
<path class="st1" d="M293.1,219.9c0,4.5,0,6.1,0,9.4l7.8,0.9v-4.3c0-3.9-1.9-7.5-5-9.7L293.1,219.9L293.1,219.9z"/>
<path class="st1" d="M288.5,234.8l3.4,1.9c0.7,0.4,1.1,1.1,1.1,1.9v11h7.8v-16.4l-7.7-0.9L288.5,234.8z"/>
<path class="st0" d="M262.9,258v-15c0-0.8-0.4-1.6-1.2-2l-1.7-0.9l-2.8-1.5l0,0l-10.1-5.4l-0.6-0.3c-0.3-0.2-0.7-0.3-1.1-0.3
	c-0.4,0-0.7,0.1-1.1,0.3l-5.4,3c-1.1,0.6-2.1,1.2-3.2,1.8l-2.8,1.5l-3.9,2.1c-0.7,0.4-1.2,1.2-1.2,2v4.7v4.8v13.5
	c0,0.4,0.1,0.8,0.3,1.2c0.2,0.3,0.5,0.6,0.8,0.8l1.7,0.9l9.1,4.9l3,1.5l2.5,1.3l3,1.6l3.3,1.8l0.1,12.1l-3.4,1.9l-3,1.6l0,0
	l-6.2-3.4v-9.7c0-0.8-0.4-1.6-1.2-2l-1-0.6l-2.9-1.5l-6.1-3.3c0,0,0,3.6,0,8.1v3.8c0,2.5,0,5.1,0,7.4v1.5c0,0.4,0.1,0.8,0.3,1.1
	c0.2,0.3,0.5,0.6,0.9,0.8c5.1,2.8,10.1,5.5,15.2,8.2c0.3,0.2,0.7,0.3,1,0.3l0,0c0.3,0,0.7-0.1,1-0.3l1.9-1l13.3-7.2
	c0.7-0.4,1.2-1.2,1.2-2c0-3.8,0-7.6,0-11.4c0-1.3,0-2.5,0-3.8c0-2.1,0-4.2,0-6.4c0-0.8-0.5-1.5-1.2-1.9l-9.1-4.8l-2.9-1.5l-10.5-5.6
	l0,0c0-1.4,0-2.8,0-4.2c0-3.7,0-7.4,0-11.1l0.2-0.1l2.7-1.6l3.4-2c2.5,1.4,3.3,1.9,5.5,3.1l0.8,0.5v3v5.3v1.5c0,0.8,0.4,1.6,1.2,1.9
	l7.4,4l2.5,1.3L262.9,258z"/>
<path class="st0" d="M197.9,259.1v22.4l2.5,1.4l2.7,1.5l2.8,1.5c0.1,0.1,0.3,0.1,0.4,0.1c0.5,0,1-0.4,1-1v-15.9l2.7,1.5l2.7,1.4
	l7.1,3.8c0.2,0.1,0.4,0.2,0.5,0.3c1.2-0.7,1.6-1,2.8-1.7v-2v-13.8c0-1.6,0-3.2,0-4.9v-4.5c0-0.4,0-0.9,0-1.3v-1.3c0-0.8,0-1.7,0-2.5
	l-2.9,1.6l-6.8,3.6l-5.6,3l-9,4.8C198.3,257.6,197.9,258.4,197.9,259.1z M207.4,259.1c2-1,4-2.1,6.1-3.2c0.6-0.3,1.4-0.1,1.7,0.5
	c0.1,0.2,0.1,0.4,0.1,0.6c0,2.3,0,4.7,0,7.1c0,1,0,2,0,3c-0.5-0.3-1.1-0.6-1.6-0.9l-6.2-3.3L207.4,259.1z"/>
<path class="st0" d="M219.8,208.1l-2.9,1.5l-5.3,2.9c-0.2,0.1-0.3,0.2-0.5,0.4c-0.3,0.4-0.5,0.8-0.5,1.3v12c0,0.2,0,0.5-0.1,0.7
	c-0.2,0.4-0.5,0.8-0.9,1l-0.8,0.4l-1.3,0.7v-5.9c0-2.8,0-5.6,0-8.4l-4.7,2.5l-2.7,1.4l-1.2,0.6c-0.6,0.3-1,1-1,1.7v11.7v16.8v3.6
	l1.2-0.6c1.9-1,3.7-2,5.6-3l1.6-0.9c0.6-0.3,1-1,1-1.7v-12c0-0.7,0.4-1.4,1-1.7l2.2-1.1v14.2l8.6-4.6c0.6-0.3,1-1,1-1.7V230
	c0-1,0-2,0-3v-0.8c0-1.4,0-2.8,0-4.2c0-3.2,0-6.5,0-9.7c0-1.3,0-2.5,0-3.8V208L219.8,208.1z"/>
<path class="st0" d="M291.9,236.6l-3.4-1.9l4.6-2.5l0,0c0-1.2,0-2.2,0-3c0-3.2,0-4.9,0-9.4l-0.1,0l-2.7-1.5c-1.8-1-3.5-1.9-5.3-2.9
	c-0.1,0-0.1-0.1-0.2-0.1c-0.1,0-0.2,0-0.2,0c-0.5,0-0.9,0.5-0.9,1v0.2c0,3.4,0,6.9,0,10.3v0.6c0,0.6-0.4,1-1,1c-0.1,0-0.2,0-0.2,0
	l-0.2-0.1l-1.8-1V220v-6.7l-4.5-2.4l-2.9-1.8l-0.8-0.4c-0.5-0.3-1-0.1-1.3,0.4c-0.1,0.1-0.1,0.3-0.1,0.5v1.3c0,1.3,0,2.6,0,3.8
	c0,2.6,0,5.2,0,7.8c0,0.9,0,1.8,0,2.7c0,1.4,0,2.8,0,4.2c0,3.9,0,7.9,0,11.8l1.1,0.6l2.7,1.4l4.4,2.4c0.1,0.1,0.3,0.1,0.5,0.1
	c0.5,0,1-0.4,1-0.9v-11.1c0-0.5,0.4-0.9,0.9-0.9c0,0,0,0,0,0c0.2,0,0.3,0,0.5,0.1l0.7,0.4l1.2,0.7l-0.2,14.2l2.9,1.5
	c1.7,0.9,3.5,1.8,5.2,2.8c0.1,0.1,0.3,0.1,0.4,0.1c0.6,0,1-0.4,1-1v-1.9v-11C293.1,237.7,292.6,237,291.9,236.6z"/>
<path class="st0" d="M260.3,235.6l2.8,1.5l3.2,1.8c0.1,0.1,0.3,0.1,0.4,0.1c0.5,0,1-0.4,1-0.9v-9.6l-0.1-0.1l-5.2-2.7l-2.6-1.4v1.1
	v3v0.7l-1.5-0.8l-2.5-1.3l-0.2-0.1c-0.3-0.2-0.5-0.6-0.5-1v-2.5v-15.8c0-0.5,0.5-1,1-1c0.1,0,0.3,0,0.4,0.1c1.1,0.6,2.2,1.1,3.4,1.7
	c0,1.5-0.1,3.1-0.1,4.7l4.9,2.7l2.9,1.6l0.2,0.1v-11.2l-1.9-1c-5.7-3-11.5-6.1-17.2-9.2h-0.1c-0.1-0.1-0.3-0.1-0.5-0.1
	c-0.5,0-1,0.5-1,1c0,10,0,20,0,30v1.7l0.7,0.4l2.9,1.6L260.3,235.6z"/>
<path class="st0" d="M272.8,245.4l-2.7-1.4l-0.1-0.1c-0.2-0.1-0.5-0.2-0.8-0.2c-0.9,0-1.6,0.7-1.6,1.6v9.6c0,4.9,0,9.8,0,14.6
	c0,1.4,0,2.8,0,4.2v11c0,1.3,0,2.5,0,3.8c0,2.2,0,4.3,0,6.5l1.5-0.8l3.4-1.8l2.9-1.5l6.1-3.3l2.8-1.5l5.7-3l1.9-1
	c0.3-0.1,0.5-0.3,0.7-0.6c0.3-0.4,0.5-0.9,0.5-1.4v-24l-6.9-3.7l-0.8-0.4c-0.2-0.1-0.4-0.2-0.6-0.2c-0.4,0-0.8,0.2-1,0.6
	c-0.1,0.2-0.2,0.4-0.2,0.7v22.2c-1.6,0.9-3.2,1.7-4.8,2.5v-29.5L272.8,245.4z"/>
<path class="st0" d="M399.7,403.8c0.1,0.1,0.1,0.1,0.2,0.1c0.2,0,0.3-0.1,0.3-0.3c0-0.1,0-0.2-0.1-0.2l-2.8-3l-1.7-0.3L399.7,403.8z
	"/>
<path class="st0" d="M94.4,403.4c-0.1,0.1-0.1,0.3,0,0.5c0.1,0.1,0.2,0.1,0.2,0.1c0.1,0,0.2,0,0.2-0.1l4.3-4.1l-1.7,0.3L94.4,403.4z
	"/>
<path class="st0" d="M245.5,34.6l-6.2,52.6c-11.4,0.5-22.6,2.2-33.6,5.1L198,67c0-0.1-0.2-0.2-0.3-0.2c-0.2,0-0.3,0.1-0.4,0.3
	c0,0,0,0.1,0,0.1l6.1,25.7c-6.9,1.9-13.7,4.2-20.2,7c-5.9,2.5-11.6,5.3-17.2,8.4l-13.9-22.5c-0.1-0.1-0.2-0.2-0.3-0.2
	c-0.2,0-0.3,0.2-0.3,0.4c0,0.1,0,0.1,0,0.2l12.5,23.3c-11.5,6.7-22.1,14.8-31.6,24.1L94.7,98.1C94.6,98,94.6,98,94.5,98
	c-0.2,0-0.3,0.1-0.3,0.3c0,0.1,0,0.2,0.1,0.2l35.5,37.8c-9.3,9.5-17.4,20.1-24.1,31.5l-23.2-12.5c-0.1,0-0.1,0-0.2,0
	c-0.2,0-0.3,0.2-0.3,0.3c0,0.1,0.1,0.2,0.2,0.3l22.4,13.9c-3.2,5.6-6.1,11.4-8.6,17.3c-2.8,6.5-5.1,13.2-7,20.1l-25.6-6h-0.1
	c-0.2,0-0.3,0.1-0.3,0.3c0,0.2,0.1,0.3,0.3,0.3l25.2,7.6c-2.9,11.1-4.6,22.4-5.1,33.8l-52.6,6.2c-0.8,0-1.5,0.7-1.5,1.5
	s0.7,1.5,1.5,1.5l52.6,6.2c0.5,11.3,2.2,22.4,5,33.3l-25.1,7.5c-0.2,0-0.3,0.2-0.2,0.4c0,0.2,0.2,0.3,0.3,0.3h0.1l25.5-6
	c3.6,13.1,8.8,25.7,15.5,37.5L82,345.5c-0.2,0.1-0.2,0.3-0.1,0.5c0.1,0.1,0.2,0.2,0.3,0.2c0.1,0,0.1,0,0.2,0l23-12.4
	c1.6,2.7,3.2,5.3,5,7.9l3.5-0.5c-16.5-24.3-26-52.7-27.4-82l15.7,1.8c1.9,28.2,12.1,55.2,29.2,77.7l3.5-0.5l3.5-0.4l3.5-0.4
	c-17.6-21.4-28.3-47.7-30.5-75.3l71.4,8.5v9c0,4.8,2.6,9.3,6.7,11.7l3.1,1.8l-33.4,42.4c3-0.3,5.9-0.6,8.9-0.8l40.8-32.2l18.3,10.6
	l2.2,18.2h3c4.4-0.1,8.7-0.1,13.1-0.1h3v-9.9c1.3-0.3,2.6-0.8,3.8-1.5l11.6-6.7l-2.2,18.2l3,0.1l2.4-20.1l16.8-9.7l42.1,33.1
	c3,0.3,5.9,0.5,8.9,0.8l-34.3-43.6l1.1-0.6c4.2-2.4,6.7-6.9,6.7-11.7v-8.6l74.4-8.9c-2.2,27.6-12.9,53.9-30.5,75.3l3.5,0.4l3.5,0.4
	l3.4,0.5c17.1-22.5,27.3-49.5,29.2-77.7l15.7-1.9c-1.4,29.3-10.9,57.7-27.4,82l3.5,0.5c1.7-2.6,3.3-5.2,4.9-7.8l22.8,12.3
	c0.1,0,0.1,0,0.2,0c0.2,0,0.3-0.1,0.3-0.3c0-0.1-0.1-0.2-0.2-0.3l-22-13.6c3.1-5.5,5.9-11.2,8.4-17c2.8-6.7,5.2-13.5,7.1-20.5
	l25.3,6h0.1c0.2,0,0.3-0.1,0.3-0.3c0-0.2-0.1-0.3-0.3-0.3l-24.9-7.5c2.8-10.9,4.5-22.1,5-33.4l52.6-6.2c0.8,0,1.5-0.7,1.5-1.5
	s-0.7-1.5-1.5-1.5l-52.6-6.2c-0.5-11.4-2.2-22.8-5.1-33.9l25-7.5c0.2,0,0.3-0.2,0.2-0.4c0-0.2-0.2-0.3-0.3-0.3h-0.1l-25.4,6
	c-3.6-13.1-8.9-25.7-15.6-37.5l22.3-13.8c0.2-0.1,0.2-0.3,0.1-0.5c-0.1-0.1-0.2-0.2-0.3-0.2c-0.1,0-0.1,0-0.2,0l-23.1,12.4
	c-6.7-11.4-14.8-21.9-24-31.4L400,98.5c0.1-0.1,0.1-0.3,0-0.5c-0.1-0.1-0.2-0.1-0.2-0.1c-0.1,0-0.2,0-0.2,0.1l-37.9,35.7
	c-9.6-9.4-20.2-17.5-31.8-24.3l12.5-23.2c0.1-0.2,0-0.4-0.1-0.5c-0.1,0-0.1,0-0.2,0c-0.1,0-0.2,0.1-0.3,0.2l-13.8,22.4
	c-11.8-6.7-24.4-11.9-37.4-15.5l6-25.7c0.1-0.2-0.1-0.4-0.2-0.4c0,0-0.1,0-0.1,0c-0.1,0-0.3,0.1-0.3,0.2l-7.6,25.3
	c-10.9-2.8-22.2-4.5-33.4-5l-6.2-52.6c0-0.8-0.7-1.5-1.5-1.5S245.4,33.8,245.5,34.6L245.5,34.6z M301.7,210.8l-1.1-0.6l39.3-49.9
	c0.5-0.6,0.4-1.5-0.1-2c-0.3-0.3-0.7-0.4-1.1-0.4c-0.3,0-0.7,0.1-0.9,0.3l-53.9,42.4l-16.8-9.7l-9-75.6
	c66.5,5.5,119.2,58.3,124.7,124.7l-74.4-8.9v-8.6C308.4,217.6,305.8,213.2,301.7,210.8L301.7,210.8z M291.2,204.8l-4.5-2.6L320,176
	L291.2,204.8z M245.6,59.8v120.6h0c-2.4,0-4.7,0.6-6.8,1.8l-8.4,4.8L245.6,59.8z M195.1,207.4L172,178l27.1,27.1L195.1,207.4z
	 M208.8,199.5l-52.6-41.4c-0.6-0.5-1.5-0.4-2,0.1c-0.5,0.5-0.6,1.4-0.1,2l38.4,48.8l-3.1,1.8c-4.2,2.4-6.7,6.9-6.7,11.7v9l-71.4,8.5
	c5.5-66.5,58.2-119.3,124.7-124.8l-8.8,73.7L208.8,199.5z M98.9,188.4c24-56.9,78.4-94.9,140-98l-1.9,15.7
	c-72.3,5.1-129.8,62.6-134.9,134.9l-15.6,1.9C87.4,224.1,91.6,205.7,98.9,188.4z M55.7,252.4h126.9v15.1L55.7,252.4z M174,326
	l27.7-27.7l4.3,2.5L174,326z M322,324l-28.2-28.2l4.1-2.4L322,324z M300.8,276.2c0,3.9-1.9,7.5-5,9.7c-0.3,0.2-0.6,0.4-0.9,0.6
	l-1.7,1l-4.9,2.8l-2.7,1.6l-5.3,3l-2.8,1.6l-9.3,5.4l-3.2,1.9l-13.5,7.8c-0.9,0.5-1.9,1-3,1.2c-1,0.3-2,0.4-3,0.4l0,0
	c-2.1,0-4.1-0.6-5.9-1.6l-10.3-5.9l-3.2-1.9l-10.8-6.3l-2.8-1.6l-5.2-3l-2.7-1.6l-4.7-2.7l-2.6-1.6l-1.1-0.7
	c-3.7-2.1-5.9-6-5.9-10.3v-50.2c0-4.2,2.3-8.2,5.9-10.3l1.1-0.7l2.6-1.5l4.8-2.8l2.7-1.5l5.1-3l2.8-1.6l10.8-6.3l3.3-1.9l10.2-5.9
	c1.8-1,3.8-1.6,5.9-1.6h0.1c1,0,2,0.1,3,0.4c1,0.3,2,0.7,2.9,1.2l13.5,7.8l3.2,1.9l9.3,5.4l2.8,1.6l5.3,3.1l2.7,1.5l4.9,2.8l1.7,1
	c0.3,0.2,0.6,0.4,0.9,0.6c3.1,2.2,5,5.8,5,9.7L300.8,276.2L300.8,276.2z M438.2,249.6h-28.5h-0.6l0,0H409H308.4v-15.5L438.2,249.6z
	 M309.6,102.9l0.1-0.2l0,0L309.6,102.9c56.9,24,94.9,78.4,98,140l-15.7-1.9c-5.1-72.3-62.6-129.8-134.9-134.9l-1.9-15.6
	C273.9,91.4,292.3,95.6,309.6,102.9z"/>
<path class="st0" d="M309.6,399.1c-17.3,7.3-35.7,11.5-54.4,12.4l1.9-15.6c18.4-1.2,36.5-6,53.1-14.1c-2.1-0.2-4.1-0.3-6.2-0.4
	c-2.3-0.2-4.5-0.3-6.8-0.4l-7.7-0.4c-10.1,3.3-20.6,5.4-31.2,6.3l0.9-7.3h-3l-7.5,62.8v-62.9h-3c-2.5,0-4.9,0-7.4,0h-3l0.9,7.3
	c-10.6-0.9-21.1-3-31.2-6.3c-2.6,0.1-5.1,0.3-7.7,0.4c-2.3,0.1-4.5,0.3-6.8,0.4c-2.1,0.1-4.1,0.3-6.2,0.4
	c16.6,8.1,34.6,12.9,53,14.2l1.9,15.7c-18.7-0.9-37.2-5.1-54.4-12.4l-0.1,0.2l0,0l0.1-0.2c-9.6-4.1-18.8-9-27.4-14.9l-4.9,0.5
	c3.8,2.7,7.7,5.2,11.7,7.6l-12.3,22.9c-0.1,0.2,0,0.4,0.1,0.5c0.1,0,0.1,0,0.2,0c0.1,0,0.2-0.1,0.3-0.2l13.7-22.1
	c11.8,6.7,24.4,12,37.5,15.6l-5.9,25.2c0,0.2,0.1,0.4,0.3,0.4c0,0,0.1,0,0.1,0c0.2,0,0.3-0.1,0.3-0.2l7.5-24.8
	c11.1,2.9,22.4,4.6,33.8,5.1l6.2,52.6c0,0.8,0.7,1.5,1.5,1.5s1.5-0.7,1.5-1.5l6.2-52.6c11.3-0.5,22.6-2.2,33.6-5.1l7.5,24.8
	c0,0.1,0.2,0.2,0.3,0.2c0.2,0,0.3-0.1,0.3-0.3c0,0,0-0.1,0-0.1l-5.9-25.2c6.9-1.9,13.7-4.3,20.3-7.1c5.9-2.5,11.7-5.3,17.2-8.5
	l13.6,22c0.1,0.1,0.2,0.2,0.3,0.2c0.2,0,0.3-0.1,0.3-0.3c0-0.1,0-0.1,0-0.2L330,392.5c4.1-2.4,8-5,11.8-7.7l-4.9-0.5
	C328.3,390.1,319.2,395.1,309.6,399.1z"/>
<path class="st2" d="M210.6,214.2c0-0.5,0.2-1,0.5-1.3c0.1-0.1,0.3-0.3,0.5-0.4l5.3-2.9l2.9-1.5l-4.6-3.6l-2.8,1.6l-5.1,3l-2.7,1.5
	l6,6L210.6,214.2z"/>
<path class="st2" d="M202.8,217.2l-3-3.8l-2.6,1.5l2.9,3.7L202.8,217.2z"/>
<path class="st2" d="M207.8,228.4h-0.4v0.6l1.3-0.7l0.8-0.4c0.4-0.2,0.7-0.6,0.9-1l-3-3.8v4.9L207.8,228.4z"/>
<path class="st0" d="M230.1,235.9c0.7-0.3,1.1-1,1.1-1.7V233c0-3.5,0-7,0-10.5c0-0.4,0.2-0.9,0.4-1.2c0.2-0.2,0.3-0.3,0.5-0.5
	l2.2-1.2l1.5-0.8v14l6.2-3.3l0.8-0.4c0.6-0.3,1-1,1-1.7v-0.3c0-10.7,0-21.3,0-31.9l-15.4,8.2l-3.2,1.7l-1.1,0.6c-0.6,0.3-1,1-1,1.7
	c0,1.1,0,2.2,0,3.3c0,1.3,0,2.5,0,3.8v8.9c0,5.4,0,10.8,0,16.2l1.2-0.7L230.1,235.9L230.1,235.9z M232.2,206.2l3.8-2v8.5
	c0,0.7-0.4,1.4-1,1.7l-3.7,1.9c0-2.8,0-5.6,0-8.4C231.2,207.2,231.6,206.5,232.2,206.2L232.2,206.2z"/>
<path class="st2" d="M300.8,252.6v-3h-7.8v1.9c0,0.6-0.4,1-1,1c-0.2,0-0.3,0-0.4-0.1c-1.7-0.9-3.5-1.9-5.2-2.8h-7.7v24.9l3.9-0.5
	l0.8,1.1v-21.8c0-0.2,0.1-0.5,0.2-0.7c0.2-0.3,0.6-0.6,1-0.6c0.2,0,0.4,0.1,0.6,0.2l0.8,0.4l6.9,3.7v16.5l7.8-0.9L300.8,252.6
	L300.8,252.6z"/>
<path class="st2" d="M246.9,226.8h0.2c0-10,0-20,0-30c0-0.5,0.4-1,1-1c0.2,0,0.3,0,0.5,0.1h0.1c5.7,3,11.5,6.1,17.2,9.2l1.9,1v11.1
	l-0.2-0.1l-2.9-1.6l-5-2.6c0-1.6,0-3.1,0.1-4.7c-1.1-0.6-2.2-1.2-3.4-1.7c-0.1-0.1-0.3-0.1-0.4-0.1c-0.5,0-1,0.4-1,1v15.8v2.5
	c0,0.4,0.2,0.8,0.5,1l0.2,0.1l2.5,1.3l1.5,0.2v-3v-1.1l2.6,1.4l5.2,2.7l0.1,0.1v9.6c0,0.5-0.5,0.9-1,0.9c-0.2,0-0.3,0-0.4-0.1
	l-3.2-1.8l-2.8-1.5l-2.5,2.5l-8.4-6.6l1.3-1l-2.9-1.6l-0.8,0.7l-3.1-2.5v0.3c0,0.7-0.4,1.4-1,1.7l-0.8,0.4l-6.2,3.3v-12l-1.5-1.2
	l-2.2,1.2c-0.2,0.1-0.4,0.3-0.5,0.5c-0.3,0.3-0.4,0.8-0.4,1.2c0,3.5,0,7,0,10.5v1.1c0,0.7-0.4,1.4-1.1,1.7l-0.2,0.1l3.1,3.1l2.8-1.5
	c1.1-0.6,2.1-1.2,3.2-1.8l5.4-2.9c0.3-0.2,0.7-0.3,1.1-0.3c0.4,0,0.7,0.1,1.1,0.3l0.6,0.3l10.1,5.4l0,0l2.8,1.5l1.7,0.9
	c0.7,0.4,1.2,1.2,1.2,2v15l3.6-4.6l1.2,1.5v-9.6c0-0.9,0.7-1.6,1.6-1.6c0.3,0,0.5,0.1,0.8,0.2l0.1,0.1l2.7,1.4l1.7-2.2l-2.7-1.4
	l-1.1-0.6c0-4,0-7.9,0-11.8c0-1.4,0-2.8,0-4.2c0-0.9,0-1.8,0-2.7l-0.8-7.1l0.9-0.7c0-1.3,0-2.6,0-3.8l-1.3,1l-1.4-11.7l-3.2-1.9
	l-13.5-7.8c-0.9-0.5-1.9-0.9-2.9-1.2c-1-0.3-2-0.4-3-0.4v36.3C245.4,226.1,246.1,226.8,246.9,226.8z"/>
<polygon class="st2" points="198,249.4 197.9,232.6 197.9,229.6 190.1,230.5 190.1,233.6 190.1,249.4 190.1,252.4 198,252.4 "/>
<polygon class="st2" points="228.5,203.5 229.3,196.4 226,198.3 225.2,205.2 "/>
<path class="st2" d="M293.1,232.3L293.1,232.3l7.7,0.9v-3l-7.8-0.9C293.1,230.1,293.1,231.1,293.1,232.3z"/>
<path class="st2" d="M197.9,269.4l-7.8-0.9v3l7.8,0.9V269.4z"/>
<path class="st2" d="M246.5,306.5c-0.3,0.2-0.7,0.3-1,0.3l0,0c-0.3,0-0.7-0.1-1-0.3c-5.1-2.8-10.2-5.5-15.2-8.2
	c-0.4-0.2-0.7-0.5-0.9-0.8c-0.2-0.3-0.3-0.7-0.3-1.1v-1.5c0-2.3,0-4.9,0-7.4v-3.8c0-4.5,0-8.1,0-8.1l6.1,3.3l2.9,1.5l1,0.6
	c0.7,0.4,1.2,1.2,1.2,2v9.7l6.2,3.4l0,0l3-1.6v-15.8l-3-1.6l-2.5-1.3l-2.9-1.5l-9.1-4.9l-1.7-0.9c-0.3-0.2-0.6-0.4-0.8-0.8
	c-0.2-0.3-0.3-0.8-0.3-1.2v-13.5V248l-0.5,0.6l-3.8-4.9l0.5-4.6l-1.2,0.7c0-5.4,0-10.8,0-16.2v-8.9c0-1.3,0-2.5,0-3.8l-3-2.3
	c0,1.3,0,2.5,0,3.8c0,3.2,0,6.5,0,9.7c0,1.4,0,2.8,0,4.2l0.7,0.7l-0.7,0.1c0,1,0,2,0,3v10.1c0,0.7-0.4,1.4-1,1.7l-8.6,4.6v-14.2
	l-2.2,1.1c-0.6,0.3-1,1-1,1.7v12c0,0.7-0.4,1.4-1,1.7l-1.6,0.9c-1.9,1-3.8,2-5.6,3h8.8l5.6-3l6.8-3.6l2.9-1.6c0,0.8,0,1.7,0,2.5v1.3
	l1,1.3h-1v4.5c0,1.6,0,3.2,0,4.9v13.8v2c-1.2,0.7-1.6,1-2.8,1.7c-0.2-0.1-0.4-0.2-0.5-0.3l-7.1-3.8l-2.7-1.4l-0.1,0.1l-2.6-0.3v3
	l0.5,0.1l-0.5,0.6v10.9c0,0.5-0.5,1-1,1c-0.2,0-0.3,0-0.4-0.1l-2.8-1.5l-2.7-1.5l-3.3,4.1l2.6,1.5l4.7,2.7l2.7,1.6l15.6-15.7
	l1.1,9.5l-11.6,9.1l2.8,1.6l9.2-7.3l1.6,13.6l3.2,1.9l10.3,5.9c1.8,1,3.8,1.6,5.9,1.6l0,0c1,0,2-0.1,3-0.4v-7.3L246.5,306.5z"/>
<path class="st2" d="M267.6,295.1c0-2.2,0-4.3,0-6.5c0-1.3,0-2.5,0-3.8v-11c0-1.4,0-2.8,0-4.2l-7.8-7.8l0.5-0.6l-7.4-4
	c-0.7-0.4-1.2-1.1-1.2-1.9v-1.5v-5.3v-3L251,245c-2.1-1.2-3-1.7-5.5-3.1l-3.4,2l-2.7,1.6l-0.2,0.1c0,3.7,0,7.4,0,11.1
	c0,1.4,0,2.8,0,4.2l0,0l10.5,5.6l2.9,1.5l9.1,4.8c0.7,0.4,1.2,1.1,1.2,1.9c0,2.1,0,4.2,0,6.4c0,1.3,0,2.5,0,3.8l3.9,3l-1.9,15.7
	l3.2-1.9l0.9-7.5L267.6,295.1z M259.2,262.6l-0.2,0.3l0,0.1C259.1,262.9,259.2,262.8,259.2,262.6L259.2,262.6z"/>
<path class="st2" d="M291.8,282.2l-1.9,1l3.3,4.2l1.7-1c0.3-0.2,0.6-0.4,0.9-0.6l-3.3-4.2C292.3,281.9,292.1,282.1,291.8,282.2z"/>
<path class="st2" d="M281.5,287.7l-6.1,3.3l-2.9,1.5l5,4l2.8-1.6l5.3-3l2.7-1.6l-4-4L281.5,287.7z"/>
<path class="st2" d="M215.3,267c0-1,0-2,0-3l-1.6,2.1C214.2,266.4,214.7,266.7,215.3,267z"/>
<path class="st2" d="M275.9,210.6l4.4-3.5l-2.8-1.6l-4.5,3.5L275.9,210.6z"/>
<path class="st2" d="M280.4,219.8v7.5l1.8,1l0.2,0.1c0.1,0,0.2,0,0.2,0c0.6,0,1-0.4,1-1v-0.6c0-3.4,0-6.8,0-10.3v-0.2
	c0-0.5,0.4-1,0.9-1c0.1,0,0.2,0,0.2,0c0.1,0,0.2,0.1,0.2,0.1c1.8,1,3.5,1.9,5.3,2.9l2.6,1.6l2.8-3.6c-0.3-0.2-0.6-0.4-0.9-0.6
	l-1.7-1l-4.9-2.8l-2.7-1.5l-5.3,5.3L280.4,219.8z"/>
<path class="st2" d="M259.2,262.6c-0.1,0.1-0.2,0.2-0.3,0.4l0.1-0.1L259.2,262.6z"/>
<path class="st2" d="M259.2,262.6c-0.1,0.1-0.2,0.2-0.3,0.4l0.1-0.1L259.2,262.6z"/>
<path class="st2" d="M259.2,262.6c-0.1,0.1-0.2,0.2-0.3,0.4l0.1-0.1L259.2,262.6z"/>
<path class="st2" d="M281.8,232.8c-0.1-0.1-0.3-0.1-0.5-0.1c-0.5,0-0.9,0.4-0.9,0.9c0,0,0,0,0,0v2.2l2.1-2.7L281.8,232.8z"/>
<path class="st0" d="M116.4,391.8c-0.1-0.7-0.2-1.4-0.3-2.1l-3,0.5l-5.1,0.8l4.8,0.5L116.4,391.8z"/>
<path class="st0" d="M82.1,378.5c-9.6,9.1-18.8,18.3-27.8,27.6c15.5-3.7,31-6.9,46.6-9.6l2.3-0.4c3.2-0.6,6.4-1.1,9.6-1.6
	c-3.9-0.4-7.8-0.8-11.7-1.1l-3.1-0.2c-0.3,0-0.6-0.2-0.9-0.4c-0.5,0-1.1-0.2-1.5-0.5c-0.7-0.5-1.1-1.1-1.2-1.9
	c-1.9-10.5-3.8-21.1-5.7-31.6l-0.5-3c-14.6,2.7-29.1,5.7-43.5,9.1C57.3,369.2,69.8,373.7,82.1,378.5z"/>
<path class="st0" d="M398.5,393.2l-0.4-0.1c-1.3,0.2-2.7,0.3-4,0.5c-3.3,0.4-6.6,0.9-9.9,1.3c2.5,0.4,5,0.9,7.5,1.3l2.2,0.4
	c15.3,2.7,30.6,5.9,45.8,9.5c-9-9.4-18.2-18.6-27.8-27.6c12.3-4.8,24.8-9.3,37.5-13.5c-13.7-3.2-27.4-6.1-41.2-8.7l-0.5,3
	c-1.9,10.5-3.8,21-5.8,31.6c-0.3,1.4-1.5,2.5-3,2.5C398.8,393.3,398.6,393.2,398.5,393.2z"/>
<path class="st0" d="M377.5,392.9L377.5,392.9c2.3-0.3,4.5-0.7,6.7-1l4-0.6l-7.3-1.2l-3-0.5l0,0L377.5,392.9z"/>
<path class="st0" d="M164.1,354.2l-4.4,0.4c0.1,0.9,0.2,2.3,0.4,4.2l4.4-0.4c0-0.2,0-0.4-0.1-0.7
	C164.4,356.8,164.3,355.7,164.1,354.2z"/>
<path class="st0" d="M353.2,360.9l4.4,0.5l0.1-0.7l0.5-3.4l-4.4-0.5C353.6,357.7,353.4,359.1,353.2,360.9z"/>
<path class="st0" d="M217.6,359.1l-4.4,0.2c0,0.9,0.1,2.3,0.2,4.2c1,0,2.4-0.1,4.3-0.2c0-0.2,0-0.4,0-0.7
	C217.7,361.8,217.7,360.6,217.6,359.1z"/>
<path class="st0" d="M341.7,358.8c0.1-0.8,0.2-1.9,0.4-3.4l-4.4-0.4c-0.1,0.9-0.2,2.3-0.4,4.2l4.4,0.5
	C341.7,359.4,341.7,359.2,341.7,358.8z"/>
<path class="st0" d="M217.5,354.2c0-0.8,0-1.9-0.1-3.5l-4.4,0.2c0,0.9,0.1,2.3,0.2,4.2c1,0,2.5-0.1,4.4-0.2
	C217.5,354.7,217.5,354.5,217.5,354.2z"/>
<path class="st0" d="M148.1,355.8l-4.4,0.5c0.1,0.9,0.3,2.3,0.5,4.2l4.4-0.5c0-0.2,0-0.4-0.1-0.7
	C148.4,358.5,148.3,357.4,148.1,355.8z"/>
<path class="st0" d="M272.5,362.3c0.1-2.6,0.2-6.5,0.3-11.7l-4.4-0.1c0,1.4-0.1,3.5-0.2,6.3c0,1.4-0.1,3.5-0.2,6.3l4.3,0.1
	C272.5,363,272.5,362.7,272.5,362.3z"/>
<path class="st2" d="M362.7,338.7l-3.4-0.5l-3.5-0.4l-3.5-0.4c-5.8-0.7-11.6-1.3-17.3-1.9c-3-0.3-5.9-0.6-8.9-0.8
	c-20.4-1.8-40.9-2.9-61.4-3.3l-3-0.1c-4.4-0.1-8.8-0.1-13.2-0.1h-3c-4.4,0-8.7,0-13.1,0.1h-3c-20.5,0.4-40.9,1.5-61.3,3.3
	c-3,0.3-5.9,0.5-8.9,0.8c-5.8,0.6-11.6,1.2-17.4,1.9l-3.5,0.4l-3.5,0.4l-3.5,0.5c-5.8,0.8-11.6,1.6-17.4,2.5l-3.5,0.5
	c-7,1.1-14,2.3-21,3.5c-0.8,0.1-1.5,0.6-1.9,1.2c-0.5,0.7-0.6,1.5-0.5,2.2l0.8,4.2c-14.6,2.7-29.2,5.7-43.7,9.2
	c-1.6,0.4-2.6,2-2.2,3.6c0.2,1,1,1.8,2,2.2c11.2,3.7,22.2,7.6,33,11.8c-8.5,8.1-16.6,16.2-24.5,24.5c-1.1,1.2-1.1,3.1,0.1,4.2
	c0.6,0.5,1.3,0.8,2.1,0.8c0.2,0,0.5,0,0.7-0.1c14.1-3.3,28.2-6.3,42.4-8.9l1.7-0.3c6-1.1,12-2.1,18-3c0.8-0.1,1.5-0.6,2-1.2
	c0.5-0.6,0.7-1.5,0.5-2.2c-0.2-1.4-0.4-2.8-0.6-4.2c11-1.7,22.1-3.2,33.1-4.4l4.9-0.5c9-1,17.9-1.8,26.9-2.5
	c2.1-0.2,4.1-0.3,6.2-0.4c2.3-0.2,4.5-0.3,6.8-0.4c2.6-0.2,5.1-0.3,7.7-0.4c10.1-0.5,20.2-0.8,30.4-1h3c2.5,0,4.9,0,7.4,0h3
	c2.5,0,5,0,7.5,0h3c10.1,0.1,20.3,0.5,30.4,1l7.7,0.4c2.3,0.1,4.5,0.3,6.8,0.4c2.1,0.1,4.1,0.3,6.2,0.4c9,0.7,17.9,1.5,26.9,2.5
	l4.9,0.5c11.1,1.3,22.1,2.7,33.2,4.4l3,0.5l0.4-2.3l-0.4,2.3l0,0l3,0.5l7.3,1.2l-4,0.6c-2.2,0.3-4.4,0.6-6.6,1h-0.1l0.5-3.2l-3-0.5
	c-0.2,1.4-0.4,2.8-0.7,4.2c-0.3,1.6,0.9,3.2,2.5,3.4c6.3,1,12.6,2,18.8,3.2l1.7,0.3c13.9,2.5,27.8,5.4,41.6,8.7
	c0.2,0.1,0.5,0.1,0.7,0.1c1.7,0,3-1.3,3-3c0-0.8-0.3-1.5-0.8-2.1c-7.9-8.2-16.1-16.4-24.5-24.4c10.8-4.1,21.8-8.1,33-11.8
	c1.6-0.5,2.4-2.2,1.9-3.8c-0.3-1-1.1-1.7-2.2-2c-13.7-3.2-27.5-6.1-41.3-8.7l-3-0.5l-0.5,3l-0.5,3c-1.9,10.4-3.9,20.8-5.8,31.3h-0.1
	l-0.8,0.1c-5.6-1-11.2-2-16.8-2.9l-2.5-0.4l-0.4-0.1l-2.9-0.5c-10-1.5-20-2.9-30.1-4.1l-4.8-0.5c-8.4-1-16.9-1.8-25.4-2.5l-5.7-0.4
	l-6.2-0.4c-2.3-0.2-4.5-0.3-6.8-0.4c-12.4-0.7-24.8-1.2-37.3-1.4h-3c-2.6,0-5.2,0-7.8,0h-3c-2.6,0-5.1,0-7.7,0h-3
	c-12.4,0.2-24.9,0.6-37.3,1.4c-2.3,0.1-4.5,0.3-6.8,0.4c-2,0.1-4.1,0.3-6.1,0.4l-5.7,0.4c-8.5,0.7-17,1.5-25.5,2.5l-4.7,0.5
	c-10,1.2-20.1,2.5-30,4.1l-3,0.5l-3,0.5c-5.1,0.8-10.2,1.7-15.3,2.6c-1.9-10.5-3.8-21.1-5.7-31.6l0,0c-0.2-1-0.4-2-0.5-3l0,0
	c-0.2-1-0.4-2-0.5-3l-0.8-4.2c7.5-1.3,14.9-2.6,22.4-3.7l3.6-0.5c5.9-0.9,11.8-1.7,17.7-2.5l3.5-0.4l3.5-0.4l3.6-0.4
	c4.1-0.5,8.3-0.9,12.5-1.4c2.4-0.2,4.8-0.5,7.1-0.7c22-2.1,44-3.3,66-3.8h3c4.3-0.1,8.5-0.1,12.8-0.1h3c4.3,0,8.6,0,12.9,0.1h3
	c22,0.4,44,1.7,66,3.8c2.4,0.2,4.8,0.5,7.1,0.7c4.2,0.4,8.3,0.9,12.5,1.4l3.6,0.4l3.5,0.4l3.5,0.4c5.9,0.8,11.8,1.6,17.7,2.5
	l3.6,0.5c8.3,1.3,16.5,2.7,24.8,4.2c-0.2,1.4-0.5,2.8-0.8,4.2l3,0.5c0.2-1.4,0.5-2.8,0.8-4.2c0.3-1.6-0.8-3.2-2.4-3.5
	c-7.8-1.4-15.6-2.8-23.5-4L380,341C374.3,340.2,368.5,339.4,362.7,338.7z M401.9,390.8c1.9-10.5,3.9-21,5.8-31.6l0.5-3
	c13.8,2.6,27.5,5.5,41.2,8.7c-12.7,4.2-25.2,8.8-37.5,13.5c9.6,9.1,18.8,18.3,27.8,27.6c-15.2-3.6-30.5-6.8-45.8-9.5l-2.2-0.4
	c-2.5-0.4-5-0.9-7.5-1.3c3.3-0.5,6.6-0.9,9.9-1.3c1.3-0.2,2.7-0.3,4-0.5l0.4,0.1c0.2,0,0.4,0,0.5,0
	C400.4,393.2,401.7,392.2,401.9,390.8z M113,390.2l3-0.5c0.1,0.7,0.2,1.4,0.3,2.1l-3.7-0.4l-4.8-0.5L113,390.2z M88.6,358.8
	c1.9,10.5,3.8,21.1,5.7,31.6c0.1,0.8,0.6,1.5,1.2,1.9c0.4,0.3,1,0.5,1.5,0.5c0.2,0.2,0.5,0.3,0.9,0.4l3.1,0.2
	c3.9,0.3,7.8,0.7,11.7,1.1c-3.2,0.5-6.4,1.1-9.6,1.6l-2.3,0.4c-15.6,2.8-31.1,6-46.6,9.6c9-9.4,18.2-18.6,27.8-27.6
	c-12.3-4.8-24.8-9.3-37.5-13.5c14.5-3.4,29-6.4,43.5-9.1L88.6,358.8z"/>
<path class="st2" d="M405.8,352.7l3,0.5L405.8,352.7z"/>
<path class="st2" d="M405.8,352.7l3,0.5L405.8,352.7z"/>
<path class="st2" d="M378.3,387.4l-0.4,2.3l0,0L378.3,387.4z"/>
<path class="st2" d="M378.3,387.4l-0.4,2.3l0,0L378.3,387.4z"/>
<path class="st0" d="M406.6,348.6c-8.2-1.5-16.5-2.9-24.8-4.2l-3.6-0.5c-5.9-0.9-11.8-1.7-17.7-2.5l-3.5-0.4l-3.5-0.4l-3.6-0.4
	c-4.2-0.5-8.3-0.9-12.5-1.4c-2.4-0.2-4.8-0.5-7.1-0.7c-22-2.1-44-3.3-66-3.8h-3c-4.3-0.1-8.6-0.1-12.9-0.1h-3c-4.2,0-8.5,0-12.8,0.1
	h-3c-22,0.4-44,1.7-66,3.8c-2.4,0.2-4.8,0.5-7.1,0.7c-4.2,0.4-8.3,0.9-12.5,1.4l-3.6,0.4L137,341l-3.5,0.4
	c-5.9,0.8-11.8,1.6-17.7,2.5l-3.6,0.5c-7.5,1.2-14.9,2.4-22.4,3.7l0.8,4.2c0.2,1,0.4,2,0.5,3l0,0l0.5,3c1.9,10.5,3.8,21.1,5.7,31.6
	c5.1-0.9,10.2-1.8,15.3-2.6l3-0.5l3-0.5c10-1.5,20-2.9,30-4.1l4.7-0.5c8.5-0.9,17-1.8,25.5-2.5l5.7-0.4c2.1-0.2,4.1-0.3,6.1-0.4
	c2.3-0.2,4.5-0.3,6.8-0.4c12.4-0.7,24.8-1.2,37.3-1.4h3c2.6,0,5.1,0,7.7,0h3c2.6,0,5.2,0,7.8,0h3c12.4,0.2,24.9,0.6,37.3,1.4
	c2.3,0.1,4.5,0.3,6.8,0.4l6.2,0.4l5.7,0.4c8.5,0.7,17,1.5,25.5,2.5l4.8,0.5c10,1.2,20.1,2.5,30.1,4.1l2.9,0.5l0.4,0.1l2.5,0.4
	c5.6,0.9,11.2,1.9,16.8,2.9l0.8-0.1h0.1c1.9-10.4,3.8-20.9,5.7-31.3l0.5-3l0.5-3l0,0C406.1,351.4,406.3,350,406.6,348.6z
	 M382.9,377.8l-4.2-0.7c0.2-1,0.3-1.9,0.4-2.6s0.2-1.2,0.2-1.5l4.3,0.7L382.9,377.8z M260.9,362.9c0,2.1-0.1,3.5-0.1,4.2
	c-4.3-0.1-7.2-0.1-8.6-0.1H248c0-5.2,0-9.6,0-13.1v-7.8h4.4c-0.1,8.3-0.1,13.9-0.1,16.7C256.1,362.8,259,362.8,260.9,362.9
	L260.9,362.9z M263.7,367.1c0-2.3,0.1-5.2,0.2-8.7c0.1-3.5,0.1-7.5,0.2-12.2l3.8,0.1h0.5c1.5,0,3.7,0.1,6.6,0.2
	c0.6,0,1.1,0.2,1.5,0.6c0.4,0.4,0.6,0.9,0.6,1.5c-0.1,3.7-0.3,9.3-0.6,16.7c0,0.6-0.2,1.1-0.7,1.5c-0.4,0.4-0.9,0.6-1.5,0.6h-0.1
	c-1.4,0-3.6-0.1-6.5-0.2h-2.1L263.7,367.1z M279.5,367.5c0-1,0.1-1.9,0.1-2.6s0-1.2,0.1-1.5c2.2,0.1,3.6,0.2,4.3,0.2l-0.2,4.2
	C281.6,367.6,280.2,367.6,279.5,367.5L279.5,367.5z M309.1,365c0.1-0.9,0.2-2.3,0.3-4.2l-6.5-0.5c-0.6,0-1.1-0.3-1.5-0.7
	c-0.4-0.4-0.6-1-0.5-1.5c0-0.9,0.1-2.1,0.2-3.5s0.2-3,0.3-4.9c0-0.6,0.3-1.1,0.7-1.4c0.4-0.3,0.9-0.5,1.4-0.5h0.2
	c2,0.1,4.9,0.3,8.8,0.6c0.6,0,1.1,0.3,1.5,0.7c0.4,0.4,0.6,1,0.5,1.5c-0.1,0.9-0.2,2.3-0.3,4.2l-4.4-0.3c0-0.5,0.1-1.2,0.2-2.1
	l-4.4-0.3c-0.1,0.9-0.2,2.3-0.3,4.2c1.5,0.1,3.7,0.2,6.6,0.5c0.6,0,1.1,0.3,1.5,0.7c0.4,0.4,0.6,1,0.5,1.5c-0.1,1.9-0.4,4.6-0.6,8.3
	c0,0.6-0.3,1.1-0.7,1.4c-0.4,0.3-0.9,0.5-1.4,0.5H311c-1.9-0.1-4.8-0.3-8.6-0.6c-0.6,0-1.1-0.3-1.5-0.7c-0.4-0.4-0.6-0.9-0.5-1.5
	c0-0.9,0.1-2.3,0.3-4.2l4.3,0.3c0,0.5-0.1,1.2-0.1,2.1L309.1,365z M325.7,358c0.4-4.2,0.6-6.9,0.8-8.3l4.4,0.4
	c-0.4,3.7-0.6,6.5-0.8,8.3s-0.3,3.2-0.4,4.2c-0.4,3.7-0.6,6.5-0.8,8.3l-4.3-0.4c0.3-3.7,0.6-6.5,0.8-8.3l-4.3-0.4l-0.7,8.3l-4.3-0.4
	c0.2-2.1,0.3-3.8,0.4-5.2c0.1-1.4,0.2-2.4,0.3-3.1c0.2-2.1,0.3-3.5,0.3-4.1c0.3-4.2,0.6-7,0.7-8.3l4.4,0.4c-0.3,4.2-0.6,6.9-0.7,8.3
	L325.7,358z M336.8,363.3c-0.2,1.8-0.5,4.6-0.9,8.3l-4.3-0.4c0.1-1.6,0.4-3.9,0.7-7c0.1-1.3,0.3-2.9,0.5-4.8s0.4-4.2,0.7-6.8
	c0-0.6,0.3-1.1,0.8-1.4c0.4-0.3,0.8-0.5,1.3-0.5h0.3c1.9,0.2,4.9,0.5,8.8,0.9c0.6,0.1,1.1,0.3,1.5,0.8c0.4,0.4,0.5,1,0.5,1.5
	c-0.5,4.2-1.2,10.4-2.2,18.7l-4.3-0.5c0.2-1.8,0.5-4.6,0.9-8.3L336.8,363.3z M360.8,364.7c0.4,0.4,0.5,1,0.4,1.5
	c-0.2,1.8-0.6,4.6-1.1,8.3l-4.3-0.6c0.2-1.8,0.6-4.6,1.1-8.3l-4.3-0.5c-0.2,1.8-0.6,4.6-1,8.3l-4.3-0.5c0.2-1.8,0.5-4.6,1-8.3
	c0.1-0.9,0.3-2.3,0.5-4.1c0.1-0.9,0.2-2.1,0.4-3.5s0.4-3,0.6-4.8l4.4,0.5c1.5,0.2,3.7,0.5,6.6,0.8c0.6,0.1,1.1,0.3,1.5,0.8
	c0.4,0.4,0.5,1,0.4,1.5c-0.2,1.4-0.5,3.5-0.8,6.2c-0.1,0.6-0.4,1.1-0.8,1.4c-0.4,0.3-0.8,0.4-1.3,0.4c-0.1,0-0.2,0-0.3,0
	C360,363.9,360.5,364.2,360.8,364.7L360.8,364.7z M375.5,364c-0.3,1.8-0.5,3.2-0.6,4.1c-2.9-0.4-5-0.7-6.5-1
	c-0.3,1.8-0.5,3.2-0.6,4.2c3.8,0.5,6.7,1,8.6,1.3l-0.6,4.1c-3.8-0.6-6.6-1-8.5-1.3l-4.3-0.6c0.1-0.9,0.2-1.7,0.3-2.4
	s0.2-1.3,0.2-1.7c0.3-2.1,0.5-3.5,0.6-4.2c0.3-2.1,0.5-3.5,0.6-4.1c0.3-2.1,0.5-3.5,0.6-4.2c0.3-2.1,0.5-3.4,0.6-4.1l4.4,0.6
	c4.4,0.6,7.3,1.1,8.8,1.3c-0.3,2-0.5,3.4-0.6,4.1c-3.9-0.6-6.8-1-8.7-1.3c-0.3,1.8-0.5,3.2-0.6,4.2
	C371.9,363.4,374.1,363.8,375.5,364L375.5,364z M245.1,367h-4.3c0-1.7,0-4.3,0-7.8c0-3.5-0.1-7.8-0.1-13h4.4c0,2.6,0,7.8,0,15.7
	C245.1,362.6,245.1,364.3,245.1,367L245.1,367z M233.3,346.2l4.4-0.1c0,4.2,0.1,10.4,0.2,18.8c0,0.6-0.2,1.1-0.6,1.5
	c-0.4,0.4-0.9,0.6-1.5,0.6c-1.9,0-4.8,0-8.6,0.2h-0.1c-0.6,0-1.1-0.2-1.5-0.6c-0.4-0.4-0.7-0.9-0.7-1.5c0-2.1-0.1-4.7-0.2-7.8
	s-0.2-6.8-0.3-11l4.4-0.1c0.1,3.7,0.2,9.3,0.3,16.7l4.3-0.1C233.5,359.1,233.5,353.6,233.3,346.2L233.3,346.2z M219.8,356.9
	c0.5,0,1.1,0.2,1.5,0.6c0.4,0.4,0.7,0.9,0.7,1.5c0,1.4,0.1,3.5,0.2,6.3c0,0.6-0.2,1.1-0.6,1.5c-0.4,0.4-0.9,0.7-1.5,0.7
	c-1.4,0-3.6,0.1-6.5,0.2l-4.3,0.2l-0.2-4.2c0-1-0.1-2.3-0.2-4.2c0-0.9-0.1-2.3-0.2-4.2c0-0.5,0-1.1-0.1-1.8s-0.1-1.5-0.1-2.4
	s-0.1-2.3-0.2-4.2l4.4-0.2c1.5-0.1,3.7-0.1,6.6-0.2h0.1c0.5,0,1.1,0.2,1.5,0.5c0.4,0.4,0.7,0.9,0.7,1.5l0.2,6.3
	c0,0.6-0.2,1.1-0.6,1.5C220.9,356.6,220.3,356.9,219.8,356.9L219.8,356.9z M192.8,368.6l-4.3,0.3c-0.1-1-0.1-1.9-0.2-2.6
	s-0.1-1.2-0.1-1.5l4.3-0.3C192.7,366.6,192.8,368,192.8,368.6L192.8,368.6z M177.1,369.8l-4.3,0.4l-0.8-8.7
	c-0.3-3.5-0.7-7.5-1.1-12.1l4.4-0.4l6.6-0.5h0.2c0.5,0,1,0.2,1.4,0.5c0.4,0.4,0.7,0.9,0.7,1.4c0.3,4.2,0.8,10.4,1.4,18.8l-4.3,0.3
	c-0.3-3.7-0.7-9.3-1.3-16.7l-4.4,0.3C176,356.8,176.5,362.4,177.1,369.8L177.1,369.8z M161.4,371.2l-4.3,0.4
	c-0.2-1.8-0.5-4.6-0.9-8.3c-0.1-0.9-0.2-2.3-0.4-4.1c-0.1-0.9-0.2-2.1-0.4-3.5s-0.3-3-0.5-4.8l4.4-0.5l6.6-0.6h0.2
	c0.5,0,1,0.2,1.4,0.5c0.4,0.3,0.7,0.9,0.8,1.4c0.1,1.4,0.3,3.5,0.6,6.3c0.1,0.6-0.1,1.1-0.5,1.5c-0.4,0.4-0.9,0.7-1.5,0.7h0.2
	c0.5,0,1,0.2,1.4,0.5c0.4,0.3,0.7,0.9,0.8,1.4c0.2,1.8,0.4,4.6,0.8,8.3l-4.3,0.4c-0.2-1.8-0.4-4.6-0.8-8.3l-4.3,0.4
	C160.7,364.8,161,367.5,161.4,371.2L161.4,371.2z M145.7,373l-4.3,0.5c-0.2-1.6-0.5-3.9-0.9-7l-0.6-4.8l-0.8-6.8
	c-0.1-0.6,0.1-1.1,0.5-1.5c0.4-0.4,0.9-0.7,1.5-0.8c2-0.2,4.9-0.6,8.8-1h0.3c0.5,0,0.9,0.2,1.3,0.4c0.4,0.3,0.7,0.8,0.8,1.4
	c0.4,4.2,1.1,10.4,2,18.7l-4.3,0.5c-0.2-1.8-0.5-4.6-0.9-8.3l-4.3,0.5C145,366.5,145.3,369.2,145.7,373z M128.3,362.6l6.5-0.9
	l0.5,4.1c-2.9,0.4-5,0.7-6.5,0.9c0.2,1.8,0.5,3.2,0.6,4.2c3.8-0.5,6.7-0.9,8.6-1.2c0.2,1.8,0.4,3.2,0.5,4.1
	c-3.8,0.5-6.6,0.9-8.6,1.1l-4.3,0.6c-0.1-0.9-0.2-1.7-0.3-2.4s-0.2-1.3-0.2-1.7c-0.3-2.1-0.5-3.5-0.6-4.2c-0.3-2.1-0.5-3.5-0.6-4.1
	c-0.3-2.1-0.5-3.5-0.6-4.2l-0.6-4.1l4.4-0.6c4.4-0.6,7.3-1,8.8-1.2c0.3,2.1,0.4,3.4,0.5,4.1c-3.9,0.5-6.8,0.9-8.7,1.2
	C128,360.2,128.2,361.6,128.3,362.6L128.3,362.6z M111.2,356.7c1.3,8.2,2.2,13.7,2.6,16.5c3.8-0.6,6.7-1,8.6-1.3l0.6,4.1
	c-4.3,0.6-7.1,1.1-8.5,1.3l-3.2,0.5l-1.1,0.2c-0.8-5.2-1.5-9.5-2.1-12.9s-1-6-1.2-7.7L111.2,356.7z"/>
<path class="st2" d="M110.2,378l1.1-0.2l3.2-0.5c1.4-0.2,4.3-0.7,8.5-1.3l-0.6-4.1c-1.9,0.3-4.8,0.7-8.6,1.3
	c-0.4-2.8-1.3-8.3-2.6-16.5l-4.4,0.7c0.3,1.7,0.7,4.3,1.2,7.7C108.6,368.5,109.3,372.8,110.2,378z"/>
<path class="st2" d="M136,353.1c-1.4,0.2-4.4,0.6-8.8,1.2l-4.4,0.6l0.6,4.1c0.1,0.7,0.3,2.1,0.6,4.2c0.1,0.7,0.3,2,0.6,4.1
	c0.1,0.7,0.3,2.1,0.6,4.2c0.1,0.5,0.1,1,0.2,1.7s0.2,1.5,0.3,2.4l4.3-0.6c1.9-0.3,4.8-0.7,8.6-1.1c-0.1-0.9-0.3-2.3-0.5-4.1
	c-1.9,0.2-4.8,0.6-8.6,1.2c-0.1-0.9-0.3-2.3-0.6-4.2c1.5-0.2,3.6-0.5,6.5-0.9l-0.5-4.1l-6.5,0.9c-0.1-0.9-0.3-2.3-0.6-4.2
	c2-0.3,4.9-0.7,8.7-1.2C136.4,356.6,136.2,355.2,136,353.1z"/>
<path class="st2" d="M150,372.4l4.3-0.5c-0.9-8.3-1.6-14.5-2-18.7c-0.1-0.6-0.3-1.1-0.8-1.4c-0.4-0.3-0.9-0.4-1.3-0.4h-0.3
	c-3.9,0.4-6.8,0.8-8.8,1c-0.6,0.1-1.1,0.3-1.5,0.8c-0.4,0.4-0.5,1-0.5,1.5l0.8,6.8l0.6,4.8c0.4,3.1,0.7,5.5,0.9,7l4.3-0.5
	c-0.5-3.7-0.8-6.5-1-8.3l4.3-0.5C149.5,367.8,149.8,370.6,150,372.4z M144.2,360.5c-0.2-1.9-0.4-3.2-0.5-4.2l4.4-0.5
	c0.2,1.5,0.3,2.7,0.4,3.4c0,0.3,0.1,0.6,0.1,0.7L144.2,360.5z"/>
<path class="st2" d="M165.7,370.8l4.3-0.4c-0.3-3.7-0.6-6.5-0.8-8.3c0-0.6-0.3-1.1-0.8-1.4c-0.4-0.3-0.9-0.5-1.4-0.5h-0.2
	c0.6,0,1.1-0.3,1.5-0.7c0.4-0.4,0.5-1,0.5-1.5c-0.2-2.8-0.4-4.9-0.6-6.3c0-0.6-0.3-1.1-0.8-1.4c-0.4-0.3-0.9-0.5-1.4-0.5h-0.2
	l-6.6,0.6l-4.4,0.5c0.2,1.8,0.4,3.5,0.5,4.8s0.3,2.5,0.4,3.5c0.2,1.8,0.3,3.2,0.4,4.1c0.4,3.7,0.7,6.5,0.9,8.3l4.3-0.4
	c-0.4-3.7-0.6-6.5-0.8-8.3l4.3-0.4C165.3,366.2,165.5,369,165.7,370.8z M160.1,358.8c-0.2-1.9-0.3-3.2-0.4-4.2l4.4-0.4
	c0.1,1.5,0.2,2.7,0.3,3.4c0,0.3,0,0.6,0.1,0.7L160.1,358.8z"/>
<path class="st2" d="M181.4,369.4l4.3-0.3c-0.6-8.3-1-14.6-1.4-18.8c0-0.6-0.3-1.1-0.7-1.4c-0.4-0.3-0.9-0.5-1.4-0.5H182l-6.6,0.5
	l-4.4,0.4c0.4,4.6,0.8,8.7,1.1,12.1l0.8,8.7l4.3-0.4c-0.6-7.4-1.1-13-1.4-16.7l4.4-0.3C180.7,360.2,181.1,365.7,181.4,369.4z"/>
<path class="st2" d="M188.4,366.3c0,0.7,0.1,1.6,0.2,2.6l4.3-0.3c0-0.7-0.1-2.1-0.3-4.2l-4.3,0.3
	C188.3,365.1,188.3,365.6,188.4,366.3z"/>
<path class="st2" d="M221.9,354.8l-0.2-6.3c0-0.6-0.2-1.1-0.7-1.5c-0.4-0.4-0.9-0.5-1.5-0.5h-0.1c-3,0.1-5.2,0.2-6.6,0.2l-4.4,0.2
	c0.1,1.8,0.1,3.2,0.2,4.2s0.1,1.7,0.1,2.4s0,1.3,0.1,1.8c0.1,1.8,0.1,3.2,0.2,4.2c0.1,1.8,0.1,3.2,0.2,4.2l0.2,4.2l4.3-0.2
	c2.9-0.1,5-0.2,6.5-0.2c0.6,0,1.1-0.3,1.5-0.7c0.4-0.4,0.6-0.9,0.6-1.5c-0.1-2.8-0.2-4.8-0.2-6.2c0-0.6-0.2-1.1-0.7-1.5
	c-0.4-0.4-0.9-0.6-1.5-0.6h-0.1c0.6,0,1.1-0.2,1.5-0.6C221.7,355.9,221.9,355.3,221.9,354.8z M213,350.9l4.4-0.2
	c0,1.5,0.1,2.7,0.1,3.5c0,0.3,0,0.6,0,0.7c-1.9,0.1-3.4,0.1-4.4,0.2C213,353.2,213,351.8,213,350.9L213,350.9z M213.4,363.4
	c-0.1-1.9-0.1-3.3-0.2-4.2l4.4-0.2c0,1.5,0.1,2.7,0.1,3.5c0,0.3,0,0.6,0,0.7C215.9,363.3,214.4,363.4,213.4,363.4z"/>
<path class="st2" d="M228.9,346.2l-4.4,0.1c0.1,4.2,0.2,7.8,0.3,11c0.1,3.1,0.1,5.7,0.2,7.8c0,0.6,0.3,1.1,0.7,1.5
	c0.4,0.4,0.9,0.6,1.5,0.6h0.1c3.8-0.1,6.7-0.1,8.6-0.2c0.6,0,1.1-0.2,1.5-0.6c0.4-0.4,0.6-0.9,0.6-1.5c-0.1-8.3-0.2-14.6-0.2-18.8
	l-4.4,0.1c0.1,7.4,0.2,13,0.3,16.7l-4.3,0.1C229.1,355.5,229,349.9,228.9,346.2z"/>
<path class="st2" d="M240.7,346.1c0,5.2,0.1,9.6,0.1,13s0,6.1,0,7.8h4.3c0-2.6,0-4.3,0-5.2c0-7.8,0-13.1,0-15.7L240.7,346.1z"/>
<path class="st2" d="M248,346v7.8c0,3.5,0,7.8,0,13.1h4.3c1.4,0,4.3,0,8.6,0.1c0-0.7,0-2.1,0.1-4.2c-1.9,0-4.8-0.1-8.6-0.1
	c0-2.8,0-8.4,0.1-16.7L248,346z"/>
<path class="st2" d="M274.5,367.4L274.5,367.4c0.6,0,1.1-0.2,1.5-0.6c0.4-0.4,0.7-0.9,0.7-1.5c0.3-7.4,0.5-13,0.6-16.7
	c0-0.6-0.2-1.1-0.6-1.5c-0.4-0.4-1-0.6-1.5-0.6c-2.9-0.1-5.2-0.2-6.6-0.2H268l-3.9-0.1c-0.1,4.6-0.2,8.7-0.2,12.2s-0.1,6.4-0.2,8.7
	h2.2h2.1C270.9,367.2,273.1,367.3,274.5,367.4z M268.3,356.7c0.1-2.8,0.1-4.9,0.2-6.3l4.4,0.1c-0.2,5.2-0.3,9.1-0.3,11.7
	c0,0.4,0,0.6,0,0.8l-4.3-0.1C268.2,360.2,268.2,358.1,268.3,356.7z"/>
<path class="st2" d="M279.6,363.4c0,0.3,0,0.9-0.1,1.5c0,0.7-0.1,1.6-0.1,2.6c0.7,0,2.2,0.1,4.3,0.2l0.2-4.2
	C283.2,363.5,281.8,363.5,279.6,363.4z"/>
<path class="st2" d="M300.6,362.3c-0.1,1.8-0.2,3.2-0.3,4.2c-0.1,0.6,0.1,1.1,0.5,1.5c0.4,0.4,0.9,0.7,1.5,0.7
	c3.8,0.2,6.7,0.5,8.6,0.6h0.2c0.5,0,1-0.2,1.4-0.5c0.4-0.4,0.7-0.9,0.7-1.4c0.3-3.7,0.5-6.5,0.6-8.3c0.1-0.6-0.1-1.1-0.5-1.5
	c-0.4-0.4-0.9-0.7-1.5-0.7c-2.9-0.2-5.1-0.4-6.6-0.5c0.1-1.9,0.2-3.3,0.3-4.2l4.4,0.3c-0.1,0.9-0.1,1.6-0.2,2.1l4.4,0.3
	c0.1-1.8,0.2-3.2,0.3-4.2c0-0.6-0.1-1.1-0.5-1.5c-0.4-0.4-0.9-0.7-1.5-0.7c-3.9-0.3-6.8-0.5-8.8-0.6h-0.2c-0.5,0-1,0.2-1.4,0.5
	c-0.4,0.3-0.7,0.9-0.7,1.4c-0.1,1.8-0.2,3.5-0.3,4.9s-0.2,2.5-0.2,3.5c0,0.6,0.2,1.1,0.5,1.5c0.4,0.4,0.9,0.7,1.5,0.7l6.5,0.5
	c-0.1,1.8-0.2,3.2-0.3,4.2l-4.3-0.3c0.1-0.9,0.1-1.6,0.1-2.1L300.6,362.3z"/>
<path class="st2" d="M317.7,348.9c-0.1,1.4-0.3,4.1-0.7,8.3c0,0.7-0.2,2.1-0.3,4.1c-0.1,0.7-0.1,1.7-0.3,3.1s-0.2,3.1-0.4,5.2
	l4.3,0.4l0.7-8.3l4.3,0.4c-0.2,1.8-0.4,4.6-0.8,8.3l4.3,0.4c0.2-1.8,0.4-4.6,0.8-8.3c0.1-0.9,0.2-2.3,0.4-4.2s0.4-4.6,0.8-8.3
	l-4.4-0.4c-0.1,1.4-0.4,4.2-0.8,8.3l-4.4-0.4c0.1-1.4,0.4-4.2,0.7-8.3L317.7,348.9z"/>
<path class="st2" d="M344.5,372.5c1-8.3,1.7-14.5,2.2-18.7c0.1-0.6-0.1-1.1-0.5-1.5c-0.4-0.4-0.9-0.7-1.5-0.8
	c-3.9-0.4-6.8-0.7-8.8-0.9h-0.3c-0.5,0-1,0.2-1.3,0.5c-0.5,0.3-0.8,0.8-0.8,1.4c-0.3,2.6-0.5,4.9-0.7,6.8c-0.2,1.9-0.3,3.5-0.5,4.8
	c-0.3,3.1-0.6,5.5-0.7,7l4.3,0.4c0.4-3.7,0.7-6.5,0.9-8.3l4.3,0.5c-0.4,3.7-0.7,6.5-0.9,8.3L344.5,372.5z M337.3,359.1
	c0.2-1.9,0.3-3.2,0.4-4.2l4.4,0.5c-0.2,1.5-0.3,2.7-0.4,3.4c0,0.3-0.1,0.6-0.1,0.7L337.3,359.1z"/>
<path class="st2" d="M361,363.4c0.5-0.3,0.7-0.8,0.8-1.4c0.4-2.8,0.6-4.8,0.8-6.2c0.1-0.6-0.1-1.1-0.4-1.5c-0.4-0.4-0.9-0.7-1.5-0.8
	c-2.9-0.4-5.1-0.7-6.6-0.8l-4.4-0.5c-0.2,1.8-0.4,3.5-0.6,4.8s-0.3,2.5-0.4,3.5c-0.2,1.8-0.4,3.2-0.5,4.1c-0.4,3.7-0.8,6.5-1,8.3
	l4.3,0.5c0.5-3.7,0.8-6.5,1-8.3l4.3,0.5c-0.5,3.7-0.8,6.5-1.1,8.3l4.3,0.6c0.5-3.7,0.9-6.4,1.1-8.3c0.1-0.6-0.1-1.1-0.4-1.5
	c-0.3-0.5-0.9-0.8-1.4-0.8c0.1,0,0.2,0,0.3,0C360.2,363.8,360.7,363.7,361,363.4z M357.6,360.8l-0.1,0.7l-4.4-0.5
	c0.2-1.9,0.4-3.2,0.5-4.2l4.4,0.5L357.6,360.8z"/>
<path class="st2" d="M378.4,360.2c0.1-0.7,0.3-2.1,0.6-4.1c-1.4-0.2-4.3-0.7-8.8-1.3l-4.4-0.6c-0.1,0.7-0.3,2.1-0.6,4.1
	c-0.1,0.7-0.3,2.1-0.6,4.2c-0.1,0.7-0.3,2-0.6,4.1c-0.1,0.7-0.3,2.1-0.6,4.2c-0.1,0.5-0.1,1-0.2,1.7s-0.2,1.5-0.3,2.4l4.3,0.6
	c1.9,0.3,4.8,0.7,8.5,1.3l0.6-4.1c-1.9-0.3-4.8-0.7-8.6-1.3c0.1-0.9,0.3-2.3,0.6-4.2c1.5,0.2,3.6,0.5,6.5,1c0.1-0.9,0.3-2.3,0.6-4.1
	c-1.5-0.2-3.6-0.6-6.5-1c0.1-0.9,0.3-2.3,0.6-4.2C371.6,359.2,374.5,359.6,378.4,360.2z"/>
<path class="st2" d="M379.1,374.5c-0.1,0.7-0.2,1.6-0.4,2.6l4.2,0.7l0.7-4.1l-4.3-0.7C379.3,373.3,379.2,373.8,379.1,374.5z"/>
</svg>
