<?xml version="1.0" encoding="utf-8"?>
<!-- Generator: Adobe Illustrator 21.1.0, SVG Export Plug-In . SVG Version: 6.00 Build 0)  -->
<svg version="1.1" id="Layer_1" xmlns="http://www.w3.org/2000/svg" xmlns:xlink="http://www.w3.org/1999/xlink" x="0px" y="0px"
	 viewBox="0 0 510 510" style="enable-background:new 0 0 510 510;" xml:space="preserve">
<style type="text/css">
	.st0{fill:#FFFFFF;}
	.st1{fill:none;}
	.st2{fill-opacity:0;}
</style>
<g>
	<title>Artboard 1emblem</title>
	<path class="st0" d="M242.2,3.5l-0.1-1.2h2c0.7,0,1.2-0.1,1.5-0.1h1.2h0.4h1.1h1.1h0.5c1.8,1.6,3.3,3.1,4.4,4.2s5.3,5.3,12.5,12.4
		v-0.4l-0.1-2c0-1.2-0.1-2.1-0.1-2.8s-0.1-1.5-0.1-2.5s0-1.8-0.1-2.6c-0.1-1.5-0.2-2.4-0.2-2.7c0-0.5,0-1-0.2-1.4
		c-0.5-0.4-1.1-0.6-1.7-0.6c-0.5-0.1-1-0.2-1.4-0.4v-1h0.3l3.5-0.1l3.9-0.1h0.7v1.1c-0.3,0.1-0.5,0.2-0.8,0.3
		c-0.4,0.1-0.9,0.2-1.3,0.4c-0.4,0.2-0.7,0.4-1,0.6C268.1,4.8,268,5,268,5.2c0,0.1,0,0.3,0,0.7c0,0.2,0,0.7,0,1.5c0,1.7,0.1,3,0.1,4
		c0,0.3,0,0.7,0.1,1.1l0.2,6.2c0,0.4,0,0.7,0,0.9v2.2v0.9v1c0,0.5,0.1,0.8,0.1,0.9v0.8l-2,0.1l-2.1-2.2l-4.2-4.3l-3-3l-2.2-2.2
		c-1.4-1.4-2.7-2.6-3.9-3.7l-2.9-2.6l0.2,6.5c0,0.4,0,0.8,0,1.2v1.2l0.1,2.3c0,1,0.1,2,0.2,3.1c0,0.2,0,0.4,0.1,0.6s0.1,0.4,0.2,0.5
		c1,0.2,2,0.4,3,0.4l0.5,0.1l0.1,1.4h-0.7c-0.4,0-1.6-0.1-3.6-0.3c-1.9,0-3.1,0-3.7,0.1l-1,0.1c-0.2,0-0.4,0-0.6-0.1
		c0-0.3,0-0.5,0-0.7s0-0.3,0-0.6c0.3-0.1,0.5-0.1,0.8-0.1h0.7c0.6,0.1,1.2,0,1.7-0.2c0.2-0.1,0.3-0.5,0.3-1.2c0.1-1.9,0.1-3,0.1-3.4
		v-1v-5.7V8.1c0-1-0.1-1.9-0.3-2.8c-0.1-0.3-0.2-0.5-0.4-0.7c-0.4-0.4-0.9-0.7-1.4-0.9C243.8,3.7,243,3.5,242.2,3.5z"/>
	<path class="st0" d="M262.9,479.6c0.2,0.6,0.3,1.2,0.3,1.8c0.1,0.9,0.2,1.9,0.2,2.8c0,0.2,0,0.5-0.1,0.7l-0.2,0.1l-1.3-0.1h-0.2
		c-0.3-1.1-0.8-2.2-1.5-3.1c-0.8-0.9-1.9-1.4-3.1-1.4c-1-0.1-2,0.3-2.7,0.9s-1,1.4-1,2.2c0,0.8,0.4,1.6,1,2.2c1.2,1,2.6,1.7,4.2,2
		c0.9,0.3,1.8,0.6,2.6,1c0.9,0.4,1.6,0.9,2.3,1.5c0.6,0.6,1.1,1.3,1.5,2.1c0.3,0.8,0.4,1.7,0.4,2.5c0,1.1-0.2,2.2-0.6,3.3
		c-0.3,0.6-0.6,1.1-1.1,1.6s-1,0.9-1.6,1.2c-0.7,0.4-1.5,0.8-2.3,1c-1,0.2-2,0.3-3,0.3c-1,0-2-0.1-2.9-0.3l-2.1-0.6
		c-0.4-0.1-0.8-0.2-1.1-0.4c-0.1-0.1-0.2-0.2-0.2-0.4v-0.2c0-0.1,0-0.9-0.1-2.4c0-0.8,0-1.3,0-1.6v-0.7h1.6c0.6,1.3,0.9,2.1,1.1,2.4
		c0.3,0.5,0.7,1,1.2,1.5c0.5,0.4,1,0.7,1.6,0.9c0.6,0.2,1.3,0.3,2,0.3c0.7,0,1.4-0.2,2.1-0.4c0.7-0.2,1.4-0.7,1.8-1.3
		c1.1-1.3,0.9-3.2-0.4-4.3l-0.1-0.1c-1.2-0.8-2.6-1.4-4-1.8c-1.6-0.5-3.1-1.1-4.5-2c-0.9-0.6-1.5-1.4-2-2.4
		c-0.5-0.9-0.7-1.9-0.7-2.9c0-1.8,0.7-3.5,2-4.8c1.6-1.4,3.8-2.1,5.9-2c0.8,0,1.7,0.1,2.5,0.3C261.1,479,262,479.3,262.9,479.6z"/>
	<path class="st0" d="M0.5,241.4l-0.1-1.1c0.1-0.1,0.2-0.1,0.3-0.1c1,0.1,1.9,0.1,2.9,0.1h0.8c0.4,0,0.9,0,1.5,0l2.3-0.1
		c0.1,0,0.1,0.1,0.1,0.2l-0.1,0.8c-0.2,0.1-0.4,0.3-0.6,0.4c-0.5,0.3-0.7,0.5-0.7,0.6c0,0.2,0.1,0.4,0.2,0.6
		c0.1,0.2,0.2,0.5,0.3,0.7c0.2,0.6,0.8,2,1.7,4.2l4.6,10.6c0.6-1.1,1.5-3,2.8-5.6l-2.6-6.2c-0.5-1.2-0.9-2.1-1.2-2.9
		c-0.1-0.2-0.2-0.5-0.3-0.7c-0.1-0.2-0.2-0.3-0.3-0.5c-0.1-0.2-0.3-0.4-0.6-0.6c-0.6-0.3-1.2-0.4-1.8-0.6l0.1-1c0.4,0,0.9,0,1.6,0
		c0.9,0.1,1.6,0.1,1.8,0.1h2.5l3-0.2c0.1,0,0.2,0,0.2,0v0.6v0.2c0,0.1,0,0.2-0.1,0.3c-0.3,0.1-0.6,0.1-0.9,0.2
		c-0.2,0-0.5,0.1-0.6,0.2c-0.1,0.1-0.2,0.2-0.2,0.4c0,0.5,0.2,0.9,0.4,1.3c0.2,0.3,0.3,0.7,0.4,1c0.6,1.5,1,2.6,1.4,3.3l1.2-2.5
		c0.4-0.8,0.8-1.7,1.1-2.6c0-0.1,0-0.2,0-0.3v-0.1c-0.1-0.1-0.2-0.2-0.4-0.3c-0.5-0.2-1-0.3-1.5-0.5c0-0.2,0-0.3,0-0.5
		s0-0.4,0.1-0.6c0.4,0,1.5,0,3.3,0.1c1.1,0,1.8,0,2,0h1.1v0.1v0.8v0.1c-0.8,0.2-1.5,0.4-2.3,0.8c-0.3,0.2-0.5,0.5-0.7,0.8
		c-0.6,1-1.7,3.2-3.3,6.5l0.1,0.2l1.1,2.6l1.9,4.5c0.2,0.5,0.3,0.8,0.4,1l2.2-5.8l3.1-7.9l0.5-1.5c0-0.1,0-0.2,0-0.3v-0.3
		c-0.4-0.1-0.7-0.2-1-0.3c-0.2-0.1-0.4-0.2-0.6-0.3c0-0.4-0.1-0.6-0.1-0.7c0-0.1,0.1-0.3,0.1-0.4h0.3l2.6,0.1l1.7-0.1h0.4
		c0,0.2,0.1,0.4,0.1,0.6c0,0.2,0,0.4-0.1,0.5c-0.1,0.1-0.2,0.2-0.4,0.2c-0.4,0.2-0.7,0.4-1,0.7c-0.2,0.4-0.4,0.8-0.5,1.2
		c-1,2.7-2.1,5.4-3.1,7.9c-1.1,2.5-2.7,6.6-4.9,12.1h-1.8c-0.1-0.4-0.2-0.7-0.4-1.1c-0.3-0.8-0.5-1.2-0.6-1.4l-1.9-4.5
		c-0.2-0.6-0.5-1.1-0.8-1.7c0-0.1-0.1-0.1-0.1-0.2c0,0.1-0.6,1.2-1.9,3.5s-2.1,4.1-2.7,5.4h-1.7c-0.7-2-1.6-4-2.5-5.9l-5.7-13.3
		c-0.3-0.9-0.8-1.7-1.3-2.4c-0.2-0.1-0.3-0.2-0.5-0.3L0.5,241.4z"/>
	<path class="st0" d="M485.2,240.1c0.7,0,1.2,0.1,1.7,0.2c1.1,0.1,2.1,0.2,3.2,0.2c0.4,0,1.5,0,3.2-0.1c2.6-0.1,5-0.2,7.1-0.2h3.2
		c1.1,0,2.1,0.1,3.2,0.3c0.2,0.3,0.3,0.6,0.3,1v3.6v0.7c0,0.1,0,0.2,0,0.3h-0.7h-0.6c-0.1-0.2-0.2-0.6-0.4-1l-0.7-1.2
		c-0.3-0.6-0.7-1.1-1.1-1.6c-0.4-0.1-0.7-0.1-1.1-0.1c-0.1,0-0.5,0-1.1-0.1c-1.1-0.1-2.3-0.1-3.5-0.1c-1.4,0-2.7,0-3.8,0.1
		c0,0.3,0,1.4,0,3.5v3v2.1c0.3,0,0.5,0,0.8,0c2.1,0,3.6,0,4.5-0.1c0.6,0,1.1-0.1,1.7-0.3c0.3-0.2,0.5-0.5,0.6-0.8s0.3-1.1,0.6-2.6
		h0.2h1c0,1,0.1,1.8,0.1,2.4c0,1.2,0,2,0,2.4s0,0.6,0,0.8s0,0.8,0,1.5s0.1,1.2,0.1,1.5v0.4h-1.5c0-0.2-0.1-0.6-0.3-1.2
		c-0.1-0.7-0.3-1.4-0.6-2c-0.2-0.2-0.4-0.4-0.7-0.5c-0.9-0.1-1.7-0.2-2.6-0.1c-1.3,0-2.7,0-4,0.1v0.6c0,1.4,0,2.6,0.1,3.5v3.8
		c0,0.4,0.1,0.7,0.5,0.9c1.4,0.4,2.9,0.5,4.4,0.4c1.4,0,2.8-0.1,4.2-0.4c0.8-0.2,1.5-0.6,2.1-1.2c0.9-0.9,1.6-2.1,2-3.3
		c0.4,0,0.7,0,0.9,0h0.6c0,0.3-0.1,0.5-0.1,0.7l-0.1,0.5L508,261l-0.3,2c-0.8,0-1.4,0-1.8,0c-0.7,0-2.4-0.1-5.3-0.2
		c-2-0.1-4.4-0.1-7.2-0.1c-1.4,0-3.1,0.1-5.2,0.2h-1l-2.1,0.1v-1.2c0.4-0.1,0.9-0.2,1.3-0.2c0.9-0.1,1.7-0.2,2.5-0.6
		c0.1-0.4,0.2-0.8,0.2-1.3c0-0.2,0-0.5,0-1v-0.5v-6.6v-2l-0.1-2.8v-2l-0.2-2.2c0-0.1,0-0.2,0-0.4c-0.1-0.1-0.3-0.2-0.5-0.2l-0.5-0.1
		c-0.6-0.1-1.3-0.2-1.9-0.2c-0.2,0-0.5,0-0.8-0.1L485.2,240.1z"/>
	<path class="st0" d="M301.4,101.8c0.7,0.1,1.4,0.6,1.8,1.1c0.3,0.5,0.4,1.2,0.2,1.8c-0.1,0.3-0.2,0.6-0.5,0.9
		c-0.2,0.2-0.4,0.4-0.7,0.6c-0.3,0.1-0.7,0.2-1,0.2c-0.4,0-0.8,0-1.2-0.1l-1.4-0.4l-0.9,3l-0.5-0.2l2.1-7.5L301.4,101.8z
		 M300.3,105.8c0.3,0.1,0.6,0.1,0.9,0.1s0.5-0.1,0.8-0.2c0.2-0.1,0.4-0.3,0.6-0.5s0.3-0.4,0.3-0.7c0.2-0.5,0.1-1-0.2-1.5
		c-0.4-0.5-0.9-0.8-1.4-0.9l-1.4-0.4l-1,3.6L300.3,105.8z"/>
	<path class="st0" d="M303.9,107.6L303.9,107.6c-0.1,0.4-0.2,0.8-0.2,1.2c0,0.3,0,0.6,0.1,0.9s0.3,0.5,0.5,0.6
		c0.2,0.2,0.5,0.3,0.7,0.4s0.5,0.1,0.7,0.1s0.4,0,0.5,0l0.4-0.1c0.1,0,0.1,0,0.2,0c0,0,0.1,0,0.1,0.1l0.1,0.2
		c-0.1,0.1-0.3,0.1-0.4,0.2c-0.2,0-0.4,0.1-0.5,0.1c-0.2,0-0.4,0-0.6,0s-0.4-0.1-0.6-0.1c-0.3-0.1-0.6-0.3-0.9-0.5
		c-0.2-0.2-0.4-0.5-0.6-0.8c-0.1-0.3-0.2-0.7-0.2-1c0-0.4,0.1-0.8,0.2-1.2c0.1-0.4,0.3-0.7,0.5-1s0.4-0.5,0.7-0.7
		c0.3-0.2,0.6-0.3,0.9-0.3c0.4,0,0.7,0,1.1,0.1c0.3,0.1,0.5,0.2,0.8,0.4c0.2,0.2,0.4,0.4,0.5,0.7c0.1,0.3,0.2,0.6,0.2,0.9
		s0,0.7-0.2,1c0,0.1,0,0.1-0.1,0.1h-0.1L303.9,107.6z M307.5,108.4c0.1-0.3,0.1-0.5,0.1-0.8c0-0.2,0-0.5-0.1-0.7s-0.2-0.4-0.4-0.5
		c-0.2-0.2-0.4-0.3-0.6-0.3c-0.2-0.1-0.5-0.1-0.8-0.1c-0.2,0-0.5,0.1-0.7,0.2s-0.4,0.3-0.6,0.5s-0.3,0.4-0.4,0.7L307.5,108.4z"/>
	<path class="st0" d="M310.3,108.1c0.3-0.2,0.7-0.3,1.1-0.4s0.8,0,1.1,0.1c0.3,0.1,0.5,0.2,0.7,0.4c0.2,0.2,0.3,0.4,0.4,0.6
		s0.1,0.5,0.1,0.7c0,0.3-0.1,0.6-0.2,0.8l-1.2,3.3l-0.5-0.2l1.2-3.3c0.2-0.4,0.2-0.8,0.1-1.2c-0.1-0.4-0.5-0.7-0.8-0.8
		c-0.3-0.1-0.7-0.2-1-0.1c-0.4,0.1-0.7,0.2-1,0.4l-1.5,3.9l-0.5-0.2l1.9-5.1l0.3,0.1c0.1,0,0.1,0.1,0.1,0.2l0,0L310.3,108.1z"/>
	<path class="st0" d="M316,110.3c0.3-0.2,0.7-0.3,1.1-0.4c0.4,0,0.8,0,1.1,0.2c0.3,0.1,0.5,0.2,0.7,0.4c0.2,0.2,0.3,0.4,0.4,0.6
		s0.1,0.5,0.1,0.7c0,0.3-0.1,0.6-0.2,0.8l-1.4,3.2l-0.5-0.2l1.4-3.2c0.2-0.4,0.2-0.8,0.2-1.2c-0.1-0.4-0.4-0.7-0.8-0.8
		c-0.3-0.1-0.7-0.2-1-0.1c-0.4,0.1-0.7,0.2-1,0.4l-1.6,3.8l-0.5-0.2l2.1-5l0.3,0.1c0.1,0,0.1,0.1,0.1,0.2L316,110.3z"/>
	<path class="st0" d="M328.6,113.5c-0.1,0-0.1,0-0.2,0s-0.1-0.1-0.1-0.2c-0.1-0.1-0.1-0.2-0.2-0.3c-0.1-0.2-0.2-0.3-0.3-0.4
		c-0.2-0.2-0.4-0.3-0.6-0.4s-0.5-0.2-0.7-0.2c-0.4-0.1-0.8,0.1-1.1,0.3c-0.1,0.1-0.3,0.3-0.4,0.5s-0.2,0.4-0.1,0.7
		c0,0.2,0.1,0.4,0.2,0.6s0.3,0.4,0.4,0.5l0.5,0.5c0.2,0.2,0.4,0.4,0.5,0.5c0.2,0.2,0.3,0.4,0.4,0.6s0.2,0.4,0.2,0.7
		c0,0.3-0.1,0.5-0.2,0.8s-0.3,0.5-0.6,0.8c-0.2,0.2-0.5,0.4-0.8,0.5s-0.6,0.1-0.9,0.1c-0.4,0-0.7-0.1-1-0.3
		c-0.4-0.2-0.8-0.5-1.1-0.8c-0.3-0.3-0.4-0.7-0.5-1.1l0.2-0.1c0.1,0,0.1,0,0.2,0l0.1,0.1l0.1,0.2c0,0.1,0.1,0.2,0.1,0.3
		c0.1,0.1,0.1,0.2,0.2,0.4c0.1,0.1,0.2,0.2,0.3,0.4c0.2,0.1,0.3,0.2,0.5,0.3c0.3,0.1,0.5,0.2,0.8,0.2c0.2,0,0.5,0,0.7-0.1
		s0.4-0.2,0.6-0.4c0.2-0.2,0.3-0.4,0.4-0.6s0.2-0.4,0.2-0.7c0-0.2-0.1-0.4-0.2-0.6s-0.3-0.4-0.4-0.5c-0.2-0.2-0.3-0.4-0.5-0.5
		s-0.4-0.4-0.5-0.5c-0.2-0.2-0.3-0.4-0.4-0.6s-0.2-0.5-0.2-0.7c0-0.3,0.1-0.6,0.2-0.8c0.1-0.2,0.3-0.4,0.5-0.6s0.4-0.3,0.7-0.4
		c0.3-0.1,0.6-0.1,0.8-0.1c0.3,0,0.6,0.1,0.9,0.3c0.3,0.2,0.6,0.4,0.9,0.6c0.2,0.3,0.4,0.6,0.5,0.9L328.6,113.5z"/>
	<path class="st0" d="M328.2,121.2c-0.3-0.1-0.5-0.4-0.6-0.7c-0.1-0.3,0-0.7,0.2-1l1.8-3.3l-0.7-0.4c0,0-0.1,0-0.1-0.1v-0.1l0.1-0.2
		l0.9,0.4l1-1.7c0,0,0,0,0.1-0.1h0.1l0.2,0.1l-1,1.8l1.5,0.8l-0.2,0.4l-1.5-0.8l-1.8,3.3c-0.1,0.1-0.1,0.2-0.1,0.4
		c0,0.1,0,0.2,0,0.3c0,0.1,0.1,0.2,0.1,0.2c0.1,0.1,0.2,0.1,0.2,0.2c0.1,0.1,0.2,0.1,0.3,0.1h0.3h0.2h0.1v0.1v0.3
		c-0.2,0.1-0.4,0.1-0.6,0.1C328.5,121.3,328.4,121.3,328.2,121.2z"/>
	<path class="st0" d="M332.4,118c0.4-0.1,0.7-0.1,1.1-0.1s0.7,0.2,1,0.4c0.2,0.1,0.4,0.3,0.6,0.5c0.1,0.2,0.2,0.4,0.3,0.6
		c0,0.2,0,0.5,0,0.7c-0.1,0.3-0.2,0.5-0.3,0.8l-1.8,3.1l-0.2-0.1c-0.1,0-0.1-0.1-0.1-0.2l0.3-0.6l-0.6,0.1c-0.2,0-0.4,0-0.5,0
		c-0.2,0-0.4,0-0.5-0.1c-0.2-0.1-0.4-0.1-0.6-0.2s-0.3-0.2-0.4-0.3c-0.1-0.1-0.2-0.3-0.3-0.5c-0.1-0.2-0.1-0.4-0.1-0.5
		c0-0.2,0.1-0.4,0.2-0.6s0.3-0.4,0.5-0.5c0.3-0.1,0.5-0.2,0.8-0.1c0.4,0,0.8,0.1,1.1,0.2c0.5,0.2,1,0.4,1.5,0.7l0.3-0.5
		c0.2-0.3,0.3-0.8,0.3-1.2c-0.1-0.4-0.3-0.7-0.6-0.8c-0.2-0.1-0.4-0.2-0.6-0.2s-0.4,0-0.5,0h-0.4c-0.1,0-0.2,0-0.2,0s-0.1,0-0.1-0.1
		v-0.1L332.4,118z M334.2,121.4c-0.4-0.2-0.8-0.4-1.2-0.6c-0.3-0.1-0.6-0.2-0.9-0.2c-0.2,0-0.5,0-0.7,0.1s-0.3,0.2-0.4,0.4
		c-0.1,0.1-0.1,0.3-0.2,0.5c0,0.1,0,0.3,0,0.4s0.1,0.2,0.2,0.3c0.1,0.1,0.2,0.2,0.3,0.3c0.2,0.1,0.4,0.2,0.5,0.2
		c0.2,0.1,0.4,0.1,0.5,0.1c0.2,0,0.3,0,0.5,0s0.4-0.1,0.5-0.1L334.2,121.4z"/>
	<path class="st0" d="M335.9,125.7c-0.3-0.2-0.5-0.4-0.6-0.7c-0.1-0.4,0-0.7,0.2-1l2-3.2l-0.7-0.4c0,0-0.1,0-0.1-0.1v-0.1l0.1-0.2
		l0.8,0.4l1.1-1.6c0,0,0,0,0.1-0.1h0.1l0.2,0.1l-1.1,1.8l1.5,0.9l-0.2,0.3l-1.5-0.9l-1.9,3.2c-0.1,0.1-0.1,0.2-0.2,0.4
		c0,0.1,0,0.2,0,0.3c0,0.1,0.1,0.2,0.1,0.3c0.1,0.1,0.1,0.1,0.2,0.2s0.2,0.1,0.3,0.1h0.3h0.2c0.1,0,0.1,0,0.1,0v0.1v0.3
		c-0.2,0-0.4,0-0.6,0C336.4,125.8,336.1,125.7,335.9,125.7z"/>
	<path class="st0" d="M339.6,124.4L339.6,124.4c-0.3,0.4-0.4,0.7-0.5,1.1c-0.1,0.3-0.1,0.6-0.1,0.9s0.1,0.5,0.3,0.7
		c0.2,0.2,0.4,0.4,0.6,0.6c0.2,0.1,0.4,0.2,0.6,0.3c0.2,0.1,0.4,0.1,0.5,0.1s0.3,0,0.4,0s0.1,0,0.2,0l0.1,0.1v0.2
		c-0.1,0-0.3,0.1-0.5,0.1s-0.4,0-0.5-0.1c-0.2,0-0.4-0.1-0.6-0.2c-0.2-0.1-0.4-0.2-0.5-0.3c-0.3-0.2-0.6-0.4-0.8-0.7
		c-0.2-0.3-0.3-0.6-0.3-0.9s0-0.7,0.1-1c0.1-0.4,0.3-0.8,0.5-1.1c0.2-0.3,0.4-0.6,0.7-0.8c0.3-0.2,0.6-0.4,0.9-0.5s0.7-0.1,1,0
		c0.4,0.1,0.7,0.2,1,0.4c0.2,0.2,0.5,0.4,0.6,0.6c0.2,0.2,0.3,0.5,0.3,0.8c0.1,0.3,0.1,0.6,0,0.9s-0.2,0.7-0.4,1
		c0,0.1-0.1,0.1-0.1,0.1H343L339.6,124.4z M342.9,126.1c0.2-0.2,0.3-0.5,0.3-0.7s0-0.5,0-0.7s-0.1-0.4-0.2-0.6s-0.3-0.4-0.5-0.5
		s-0.4-0.3-0.7-0.3c-0.2-0.1-0.5-0.1-0.7,0s-0.5,0.1-0.7,0.3c-0.2,0.1-0.4,0.3-0.6,0.5L342.9,126.1z"/>
	<path class="st0" d="M347.5,123.2c0,0.3-0.1,0.5-0.2,0.7s-0.2,0.4-0.4,0.6c-0.2,0.2-0.4,0.3-0.6,0.5c-0.2,0.1-0.5,0.2-0.7,0.3
		l-0.1-0.2V125c0,0,0,0,0.1,0c0.2-0.1,0.4-0.1,0.5-0.3c0.3-0.2,0.6-0.6,0.7-0.9c0.1-0.2,0.1-0.4,0.1-0.5s0.1-0.2,0.2-0.1H347.5z"/>
	<path class="st0" d="M349.3,128.8c0,0-0.1,0-0.2,0l-0.1-0.1c0-0.1-0.1-0.2-0.1-0.3c-0.1-0.1-0.1-0.2-0.2-0.4
		c-0.1-0.1-0.3-0.3-0.4-0.4s-0.3-0.2-0.5-0.2s-0.3-0.1-0.5-0.1c-0.1,0-0.3,0-0.4,0.1s-0.2,0.2-0.3,0.3c-0.1,0.1-0.1,0.3-0.1,0.4
		c0,0.2,0,0.3,0.1,0.4c0.1,0.2,0.2,0.3,0.3,0.5c0.1,0.2,0.2,0.3,0.3,0.5s0.2,0.3,0.3,0.5c0.1,0.2,0.2,0.3,0.2,0.5s0,0.3,0,0.5
		s-0.1,0.4-0.2,0.5c-0.1,0.2-0.3,0.3-0.5,0.5c-0.2,0.1-0.4,0.2-0.6,0.2s-0.5,0-0.7-0.1c-0.3-0.1-0.5-0.2-0.7-0.4
		c-0.3-0.2-0.5-0.4-0.7-0.7s-0.3-0.5-0.3-0.8l0.2-0.1h0.1h0.1c0,0,0.1,0.1,0.1,0.2c0,0.1,0.1,0.2,0.1,0.3c0.1,0.1,0.1,0.3,0.2,0.4
		c0.1,0.2,0.3,0.3,0.5,0.4c0.2,0.1,0.4,0.2,0.5,0.3c0.2,0.1,0.3,0.1,0.5,0c0.2,0,0.3-0.1,0.4-0.2c0.1-0.1,0.3-0.2,0.3-0.3
		c0.1-0.1,0.2-0.3,0.2-0.4c0-0.2,0-0.3-0.1-0.5s-0.2-0.3-0.3-0.5l-0.3-0.5c-0.1-0.2-0.2-0.3-0.3-0.5c-0.1-0.2-0.2-0.3-0.2-0.5
		s0-0.3,0-0.5s0.1-0.4,0.2-0.5c0.1-0.2,0.3-0.3,0.4-0.4c0.2-0.1,0.4-0.1,0.6-0.2c0.2,0,0.4,0,0.7,0.1c0.2,0.1,0.5,0.2,0.7,0.4
		c0.2,0.2,0.5,0.4,0.6,0.6c0.2,0.2,0.3,0.5,0.3,0.8L349.3,128.8z"/>
	<path class="st0" d="M355.4,133.7h-0.1l-0.1-0.1c0-0.1-0.1-0.2-0.1-0.3c-0.1-0.1-0.1-0.3-0.2-0.4c-0.1-0.2-0.2-0.3-0.4-0.4
		c-0.1-0.1-0.3-0.2-0.5-0.3s-0.3-0.1-0.5-0.1c-0.1,0-0.3,0-0.4,0.1s-0.2,0.1-0.3,0.2c-0.1,0.1-0.2,0.3-0.2,0.4c0,0.2,0,0.3,0.1,0.4
		c0.1,0.2,0.1,0.3,0.2,0.5l0.3,0.5c0.1,0.2,0.2,0.3,0.3,0.5c0.1,0.2,0.2,0.3,0.2,0.5s0,0.3,0,0.5s-0.1,0.4-0.2,0.5
		c-0.1,0.2-0.3,0.3-0.5,0.4c-0.2,0.1-0.4,0.2-0.6,0.2s-0.5,0-0.7-0.1c-0.3-0.1-0.5-0.2-0.7-0.4c-0.3-0.2-0.5-0.5-0.7-0.8
		c-0.1-0.3-0.2-0.5-0.3-0.8l0.2-0.1h0.1h0.1c0,0.1,0.1,0.1,0.1,0.2c0,0.1,0,0.2,0.1,0.3s0.1,0.3,0.2,0.4c0.1,0.2,0.3,0.3,0.4,0.5
		c0.2,0.1,0.3,0.2,0.5,0.3s0.3,0.1,0.5,0.1s0.3-0.1,0.5-0.1c0.1-0.1,0.3-0.2,0.4-0.3s0.2-0.3,0.2-0.4c0-0.2,0-0.3-0.1-0.5
		s-0.1-0.3-0.2-0.5l-0.3-0.5c-0.1-0.2-0.2-0.3-0.3-0.5c-0.1-0.2-0.2-0.3-0.2-0.5s0-0.3,0-0.5s0.1-0.4,0.3-0.5
		c0.1-0.2,0.3-0.3,0.5-0.4c0.2-0.1,0.4-0.1,0.6-0.1s0.4,0,0.6,0.1s0.5,0.2,0.7,0.4s0.4,0.4,0.6,0.7c0.1,0.2,0.2,0.5,0.3,0.8
		L355.4,133.7z"/>
	<path class="st0" d="M354.7,139.5c-0.3-0.2-0.4-0.5-0.5-0.8c0-0.3,0.1-0.7,0.4-0.9l2.5-2.8l-0.6-0.5v-0.1v-0.1l0.1-0.2l0.8,0.6
		l1.4-1.4h0.1h0.1l0.2,0.2l-1.4,1.6l1.3,1.1l-0.3,0.3l-1.3-1.1l-2.4,2.8c-0.1,0.1-0.2,0.2-0.2,0.3s0,0.2,0,0.3s0,0.2,0.1,0.3
		c0,0.1,0.1,0.2,0.2,0.2c0.1,0.1,0.2,0.1,0.3,0.2c0.1,0,0.2,0.1,0.3,0.1h0.2c0.1,0,0.1,0,0.1,0s0,0,0,0.1v0.3c-0.2,0-0.4,0-0.6-0.1
		C355.1,139.8,354.9,139.6,354.7,139.5z"/>
	<path class="st0" d="M363.2,139.7l-3.7,4l-0.2-0.2c-0.1-0.1-0.1-0.1,0-0.2l0,0l0.5-0.6c-0.4,0.1-0.8,0.1-1.2,0
		c-0.4-0.1-0.7-0.3-1-0.5c-0.2-0.2-0.4-0.4-0.5-0.6c-0.1-0.2-0.1-0.4-0.1-0.7c0-0.2,0.1-0.5,0.2-0.7c0.1-0.3,0.3-0.5,0.5-0.7
		l2.4-2.6l0.4,0.4l-2.4,2.6c-0.3,0.3-0.5,0.7-0.6,1.1c0,0.4,0.2,0.8,0.5,1s0.6,0.4,0.9,0.5c0.4,0.1,0.8,0.1,1.1,0l2.8-3L363.2,139.7
		z"/>
	<path class="st0" d="M369.4,142.3l-5.7,5.7l-0.2-0.2c-0.1-0.1-0.1-0.2,0-0.2l0,0l0.6-0.6c-0.4,0.1-0.8,0.1-1.2,0
		c-0.4-0.1-0.7-0.3-1-0.6c-0.5-0.4-0.7-1-0.6-1.6c0.1-0.7,0.5-1.4,1.1-1.9c0.3-0.3,0.6-0.5,0.9-0.7s0.6-0.3,1-0.3
		c0.3-0.1,0.7,0,1,0.1s0.6,0.3,0.9,0.6c0.2,0.2,0.4,0.5,0.5,0.8s0.1,0.6,0.1,0.9l2.3-2.3L369.4,142.3z M366.4,144.6
		c0.1-0.3,0.1-0.7,0-1s-0.3-0.5-0.5-0.8c-0.2-0.2-0.5-0.3-0.8-0.4c-0.3-0.1-0.5-0.1-0.8-0.1s-0.6,0.1-0.8,0.3
		c-0.3,0.2-0.5,0.4-0.8,0.6c-0.5,0.4-0.9,1-1,1.6c-0.1,0.5,0.1,1,0.5,1.3c0.2,0.2,0.6,0.4,0.9,0.5c0.4,0.1,0.7,0.1,1.1,0
		L366.4,144.6z"/>
	<path class="st0" d="M367.3,147.4L367.3,147.4c-0.4,0.2-0.6,0.5-0.8,0.8c-0.2,0.3-0.3,0.5-0.3,0.8s0,0.5,0.1,0.8s0.3,0.5,0.5,0.7
		s0.3,0.3,0.5,0.5c0.2,0.1,0.3,0.2,0.5,0.2l0.4,0.1c0.1,0,0.1,0,0.2,0.1v0.1v0.2c-0.2,0-0.3,0-0.5,0s-0.3-0.1-0.5-0.2
		c-0.2-0.1-0.3-0.2-0.5-0.3s-0.3-0.3-0.5-0.4c-0.2-0.3-0.4-0.6-0.5-0.9c-0.1-0.3-0.2-0.7-0.1-1c0-0.4,0.1-0.7,0.3-1
		c0.2-0.4,0.5-0.7,0.8-1s0.6-0.5,0.9-0.6s0.6-0.2,1-0.2c0.3,0,0.7,0,1,0.2c0.3,0.1,0.6,0.4,0.8,0.6c0.2,0.2,0.4,0.5,0.5,0.7
		c0.1,0.3,0.1,0.5,0.1,0.8s-0.1,0.6-0.2,0.9c-0.2,0.3-0.4,0.6-0.6,0.8l-0.1,0.1c0,0-0.1,0-0.1-0.1L367.3,147.4z M370,149.9
		c0.2-0.2,0.4-0.4,0.5-0.6c0.1-0.2,0.2-0.4,0.2-0.7c0-0.2,0-0.4-0.1-0.6c-0.1-0.2-0.2-0.4-0.4-0.6c-0.2-0.2-0.4-0.3-0.6-0.5
		c-0.2-0.1-0.4-0.2-0.7-0.2c-0.2,0-0.5,0-0.7,0.1c-0.3,0.1-0.5,0.2-0.7,0.4L370,149.9z"/>
	<path class="st0" d="M372.6,150.9c0.4,0,0.8,0,1.2,0.2c0.4,0.1,0.7,0.4,0.9,0.7c0.2,0.2,0.3,0.4,0.4,0.7c0.1,0.2,0.1,0.5,0.1,0.7
		s-0.1,0.5-0.3,0.7c-0.2,0.2-0.4,0.5-0.6,0.6l-2.7,2.3l-0.3-0.4l2.7-2.3c0.3-0.3,0.6-0.6,0.7-1s-0.1-0.8-0.4-1.1
		c-0.2-0.3-0.5-0.5-0.8-0.6c-0.4-0.1-0.7-0.2-1.1-0.1l-3.1,2.7l-0.3-0.4l4.2-3.5l0.2,0.2c0.1,0.1,0.1,0.2,0,0.2L372.6,150.9z"/>
	<path class="st0" d="M373.5,159.2c-0.2-0.2-0.3-0.6-0.3-0.9c0.1-0.3,0.3-0.6,0.5-0.8l2.9-2.3l-0.5-0.6v-0.1v-0.1l0.2-0.1l0.6,0.7
		l1.6-1.1h0.1h0.1l0.2,0.2l-1.6,1.3l1.1,1.4l-0.3,0.2l-1.1-1.4l-2.9,2.3c-0.1,0.1-0.2,0.2-0.3,0.3c-0.1,0.1-0.1,0.2-0.1,0.3
		s0,0.2,0,0.3s0.1,0.2,0.2,0.3s0.2,0.2,0.3,0.2c0.1,0,0.2,0.1,0.2,0.1c0.1,0,0.1,0,0.2,0h0.1v0.1l-0.1,0.3c-0.2,0-0.4-0.1-0.6-0.2
		C373.8,159.4,373.6,159.3,373.5,159.2z"/>
	<path class="st0" d="M380.3,161.2c0.2-0.1,0.4-0.1,0.7-0.1c0.2,0,0.4,0,0.6,0s0.3,0.1,0.5,0.2c0.2,0.1,0.3,0.3,0.4,0.4
		c0.1,0.1,0.1,0.2,0.2,0.3c0,0.1,0.1,0.2,0.1,0.3l-0.3,0.2h-0.1l-0.1-0.2c0-0.1-0.1-0.2-0.2-0.3c-0.1-0.2-0.3-0.3-0.4-0.4
		c-0.2-0.1-0.3-0.2-0.5-0.2s-0.4,0-0.6,0s-0.5,0.1-0.7,0.2l-2.9,2.1l-0.3-0.4l4.4-3.2l0.2,0.2v0.1c0,0,0,0.1-0.1,0.1L380.3,161.2z"
		/>
	<path class="st0" d="M385.8,166.8l-4.5,3.1l-0.2-0.2c-0.1-0.1-0.1-0.2,0-0.2l0.7-0.5c-0.4,0-0.8-0.1-1.1-0.3
		c-0.3-0.2-0.6-0.4-0.9-0.8c-0.2-0.2-0.3-0.5-0.3-0.7c-0.1-0.2-0.1-0.5,0-0.7s0.2-0.5,0.3-0.6c0.2-0.2,0.4-0.4,0.7-0.6l2.9-2
		l0.3,0.4l-2.9,2c-0.4,0.2-0.7,0.6-0.8,1c-0.1,0.4,0,0.8,0.2,1.1s0.5,0.5,0.8,0.7s0.7,0.3,1.1,0.3l3.4-2.3L385.8,166.8z"/>
	<path class="st0" d="M386.3,169.4c0.4,0,0.8,0.2,1.1,0.4c0.3,0.2,0.6,0.5,0.8,0.8c0.1,0.2,0.2,0.5,0.3,0.8c0,0.2,0,0.5-0.1,0.7
		s-0.2,0.4-0.4,0.6c-0.2,0.2-0.4,0.4-0.7,0.5l-3,1.8l-0.3-0.5l3-1.8c0.4-0.2,0.7-0.5,0.8-0.9c0.1-0.4,0-0.8-0.2-1.1
		s-0.4-0.5-0.8-0.7c-0.3-0.2-0.7-0.3-1.1-0.3l-3.5,2.2l-0.3-0.5l4.7-2.9l0.2,0.2c0.1,0.1,0.1,0.1,0,0.2L386.3,169.4z"/>
	<path class="st0" d="M391,177.3c0.4,0.1,0.7,0.2,1.1,0.4c0.3,0.2,0.6,0.5,0.8,0.8c0.1,0.2,0.2,0.5,0.2,0.8c0,0.2,0,0.5-0.1,0.7
		s-0.2,0.4-0.4,0.6c-0.2,0.2-0.4,0.4-0.7,0.5l-3.1,1.6l-0.2-0.5l3.1-1.6c0.4-0.2,0.7-0.5,0.9-0.9c0.1-0.4,0.1-0.8-0.1-1.1
		s-0.4-0.6-0.7-0.8c-0.3-0.2-0.7-0.3-1.1-0.4l-3.6,1.9l-0.2-0.5l7.1-3.8l0.2,0.5L391,177.3z"/>
	<path class="st0" d="M393.7,182.1c0.4,0.1,0.7,0.3,1,0.5s0.5,0.5,0.7,0.9c0.1,0.2,0.2,0.5,0.2,0.8c0,0.2,0,0.5-0.1,0.7
		s-0.2,0.4-0.4,0.6c-0.2,0.2-0.4,0.3-0.7,0.5l-3.2,1.6l-0.1-0.2c-0.1-0.1-0.1-0.2,0-0.2l0.6-0.4c-0.2-0.1-0.4-0.1-0.5-0.2
		c-0.2-0.1-0.3-0.2-0.5-0.3c-0.1-0.1-0.3-0.2-0.4-0.4s-0.2-0.3-0.3-0.5c-0.1-0.2-0.1-0.3-0.2-0.5c0-0.2,0-0.4,0-0.5
		c0-0.2,0.1-0.3,0.2-0.5s0.3-0.3,0.5-0.4c0.2-0.1,0.4-0.1,0.7-0.1c0.3,0,0.5,0.2,0.7,0.3c0.3,0.2,0.6,0.5,0.8,0.8
		c0.3,0.4,0.6,0.9,0.8,1.4l0.5-0.2c0.4-0.2,0.7-0.4,0.9-0.8c0.1-0.3,0.1-0.7-0.1-1.1c-0.1-0.2-0.2-0.4-0.4-0.5
		c-0.1-0.1-0.3-0.2-0.4-0.3s-0.2-0.1-0.4-0.2c-0.1,0-0.1-0.1-0.2-0.1v-0.1v-0.1L393.7,182.1z M393.3,185.9c-0.2-0.4-0.4-0.8-0.7-1.1
		c-0.2-0.3-0.4-0.5-0.6-0.7s-0.4-0.3-0.6-0.3s-0.4,0-0.5,0.1c-0.2,0.1-0.3,0.2-0.4,0.3s-0.2,0.2-0.2,0.4c0,0.1,0,0.3,0,0.4
		c0,0.1,0.1,0.3,0.1,0.4c0.1,0.2,0.2,0.3,0.3,0.5c0.1,0.1,0.2,0.3,0.4,0.4c0.1,0.1,0.3,0.2,0.5,0.3s0.3,0.1,0.5,0.2L393.3,185.9z"/>
	<path class="st0" d="M397.7,190.4L397.7,190.4C397.6,190.4,397.6,190.4,397.7,190.4c-0.1-0.1-0.1-0.1-0.1-0.2c0-0.1,0-0.2,0-0.3
		s0-0.3,0-0.4c0-0.2-0.1-0.4-0.2-0.6c-0.1-0.3-0.3-0.5-0.5-0.7s-0.4-0.3-0.7-0.4c-0.3-0.1-0.6-0.1-0.8,0c-0.3,0-0.7,0.1-1,0.3
		c-0.3,0.1-0.6,0.3-0.9,0.5c-0.2,0.2-0.4,0.4-0.5,0.6c-0.1,0.2-0.2,0.5-0.2,0.7c0,0.3,0.1,0.5,0.2,0.8c0.1,0.2,0.2,0.4,0.3,0.6
		c0.1,0.1,0.2,0.2,0.4,0.3c0.1,0.1,0.2,0.1,0.3,0.2c0.1,0,0.1,0.1,0.2,0.1v0.1l-0.1,0.2c-0.1,0-0.3-0.1-0.4-0.2
		c-0.1-0.1-0.3-0.2-0.4-0.3s-0.3-0.3-0.4-0.4c-0.1-0.2-0.2-0.3-0.3-0.5c-0.1-0.3-0.2-0.7-0.2-1s0.1-0.6,0.2-0.9
		c0.1-0.3,0.4-0.6,0.6-0.8c0.3-0.3,0.6-0.5,1-0.6c0.4-0.2,0.7-0.3,1.1-0.3c0.3,0,0.7,0,1,0.1s0.6,0.3,0.8,0.5
		c0.5,0.5,0.8,1.1,0.8,1.8C397.9,189.9,397.9,190.2,397.7,190.4L397.7,190.4z"/>
	<path class="st0" d="M401.5,191.2L397,193l0.1,0.2c0,0,0,0.1,0.1,0.1c0,0,0.1,0.1,0.2,0.1l2.8,1.3c0.1,0,0.1,0,0.1,0.1l0.1,0.1
		l0.2,0.4l-3-1.4c-0.1,0-0.2-0.1-0.2-0.1c0,0.1,0,0.1,0,0.2c0,0.1,0,0.1-0.1,0.2l-1.6,3.4l-0.2-0.4v-0.1c0-0.1,0-0.1,0-0.1l1.4-3
		v-0.1v-0.1v-0.1v-0.1l-0.1-0.2l-2.6,1l-0.2-0.5l7.4-3L401.5,191.2z"/>
	<path class="st0" d="M400.2,196.8c0.3,0.2,0.6,0.4,0.9,0.6c0.3,0.3,0.4,0.6,0.6,0.9c0.1,0.2,0.1,0.5,0.1,0.8c0,0.2-0.1,0.5-0.2,0.6
		c-0.1,0.2-0.3,0.4-0.5,0.5c-0.2,0.2-0.5,0.3-0.7,0.4l-3.3,1.2l-0.1-0.2c0-0.1,0-0.2,0.1-0.2l0.6-0.3c-0.2-0.1-0.4-0.2-0.5-0.3
		c-0.2-0.1-0.3-0.2-0.4-0.3s-0.3-0.3-0.3-0.4c-0.1-0.2-0.2-0.4-0.3-0.6c-0.1-0.2-0.1-0.4-0.1-0.5c0-0.2,0-0.4,0.1-0.5
		c0.1-0.2,0.2-0.3,0.3-0.5c0.2-0.1,0.4-0.3,0.6-0.3c0.2-0.1,0.5-0.1,0.7,0c0.3,0.1,0.5,0.2,0.7,0.4c0.3,0.3,0.5,0.6,0.7,0.9
		c0.3,0.5,0.5,0.9,0.7,1.5l0.5-0.2c0.4-0.1,0.8-0.4,1-0.7s0.2-0.7,0.1-1c-0.1-0.2-0.2-0.4-0.3-0.6c-0.1-0.1-0.2-0.3-0.4-0.4
		c-0.1-0.1-0.2-0.1-0.3-0.2c-0.1,0-0.1-0.1-0.2-0.1v-0.1v-0.1L400.2,196.8z M399.4,200.5c-0.2-0.4-0.4-0.8-0.6-1.2
		c-0.2-0.3-0.3-0.5-0.6-0.8c-0.2-0.2-0.3-0.3-0.5-0.4c-0.2-0.1-0.4-0.1-0.5,0c-0.2,0-0.3,0.1-0.4,0.2c-0.1,0.1-0.2,0.2-0.2,0.3
		s-0.1,0.3-0.1,0.4c0,0.1,0,0.3,0.1,0.4c0.1,0.2,0.2,0.4,0.3,0.5c0.1,0.1,0.2,0.3,0.3,0.4c0.1,0.1,0.3,0.2,0.4,0.3l0.5,0.2
		L399.4,200.5z"/>
	<path class="st0" d="M397.9,204.9c-0.1-0.3-0.1-0.6,0-0.9c0.2-0.3,0.5-0.5,0.8-0.6l3.6-1.1l-0.2-0.8v-0.1c0,0,0-0.1,0.1-0.1
		l0.2-0.1l0.3,0.9l1.9-0.5h0.1c0,0,0.1,0,0.1,0.1l0.1,0.2l-2,0.6l0.5,1.6l-0.4,0.1l-0.5-1.6l-3.5,1.1c-0.1,0-0.2,0.1-0.3,0.2
		c-0.1,0.1-0.2,0.1-0.2,0.2c0,0.1-0.1,0.2-0.1,0.3s0,0.2,0,0.3s0.1,0.2,0.2,0.3s0.1,0.1,0.2,0.2l0.2,0.1l0.1,0.1v0.1l-0.2,0.2
		c-0.2-0.1-0.4-0.2-0.5-0.4C398,205.3,397.9,205.1,397.9,204.9z"/>
	<path class="st0" d="M403.2,206.2c0.4,0.1,0.7,0.4,1,0.6c0.3,0.3,0.5,0.6,0.6,1c0.1,0.3,0.1,0.5,0.1,0.8c0,0.2-0.1,0.5-0.2,0.7
		s-0.3,0.4-0.5,0.5c-0.2,0.2-0.5,0.3-0.8,0.4l-3.4,1l-0.1-0.5l3.4-1c0.4-0.1,0.8-0.3,1.1-0.7c0.2-0.3,0.3-0.8,0.1-1.1
		c-0.1-0.3-0.3-0.6-0.5-0.9c-0.3-0.3-0.6-0.5-1-0.6l-4,1.1l-0.2-0.5l7.7-2.2l0.2,0.5L403.2,206.2z"/>
	<path class="st0" d="M406.2,213.5c0.1,0.4,0.1,0.7,0,1.1c-0.1,0.3-0.2,0.6-0.4,0.9c-0.2,0.3-0.4,0.5-0.7,0.7
		c-0.3,0.2-0.7,0.4-1.1,0.4c-0.4,0.1-0.8,0.1-1.2,0.1c-0.3,0-0.7-0.1-1-0.3s-0.5-0.4-0.7-0.6c-0.2-0.3-0.4-0.6-0.4-1
		c-0.1-0.3-0.1-0.7-0.1-1.1c0.1-0.3,0.2-0.6,0.4-0.9c0.2-0.3,0.5-0.5,0.8-0.7c0.7-0.4,1.5-0.6,2.3-0.5c0.3,0,0.7,0.1,1,0.3
		c0.3,0.1,0.5,0.4,0.7,0.6C405.9,212.8,406.1,213.1,406.2,213.5z M401.1,214.7c0.1,0.3,0.2,0.6,0.4,0.8c0.2,0.2,0.4,0.4,0.6,0.5
		c0.3,0.1,0.5,0.2,0.8,0.2s0.7,0,1-0.1s0.6-0.2,0.9-0.4c0.3-0.1,0.5-0.3,0.7-0.5s0.3-0.5,0.3-0.7c0.1-0.6,0-1.2-0.4-1.7
		c-0.2-0.2-0.4-0.4-0.6-0.5c-0.3-0.1-0.5-0.2-0.8-0.2s-0.7,0-1,0.1s-0.6,0.2-0.9,0.4c-0.3,0.1-0.5,0.3-0.7,0.5s-0.3,0.5-0.3,0.7
		C401,214.2,401,214.5,401.1,214.7L401.1,214.7z"/>
	<path class="st0" d="M406.2,218.2c0.3,0.2,0.7,0.4,0.9,0.7c0.3,0.3,0.4,0.6,0.5,1c0.1,0.3,0.1,0.5,0,0.8c0,0.2-0.1,0.5-0.3,0.6
		c-0.2,0.2-0.4,0.3-0.6,0.5c-0.3,0.1-0.5,0.2-0.8,0.3l-3.4,0.7l-0.1-0.5l3.4-0.7c0.4-0.1,0.8-0.3,1.1-0.6c0.2-0.3,0.3-0.7,0.2-1.1
		c-0.1-0.3-0.2-0.7-0.5-0.9c-0.2-0.3-0.6-0.5-0.9-0.7l-4,0.8l-0.1-0.5l5.4-1.1l0.1,0.3c0,0.1,0,0.2-0.1,0.2L406.2,218.2z"/>
	<path class="st1" d="M231,227.3l-0.7-0.7v0.8L231,227.3z"/>
	<polygon class="st1" points="332.2,324.4 308.2,293.8 304,296.2 	"/>
	<path class="st1" d="M234.5,249.8l-1-1.3c0,0.4,0,0.9,0,1.3H234.5z"/>
	<path class="st1" d="M218,274l-0.5-0.1v0.7L218,274z"/>
	<polygon class="st1" points="184.2,326.4 216.2,301.3 211.9,298.8 	"/>
	<path class="st1" d="M247.2,106.5l1.9-15.6c-82.4,4.1-148.3,70-152.4,152.4l15.6-1.9C117.4,169.1,174.9,111.6,247.2,106.5z"/>
	<path class="st1" d="M217.6,270.9l2.6,0.3l0.1-0.1l-2.7-1.5L217.6,270.9L217.6,270.9z"/>
	<path class="st1" d="M246.1,115.6c-66.5,5.5-119.2,58.3-124.7,124.7l71.4-8.5v-9c0-4.8,2.6-9.3,6.7-11.7l3.1-1.8l-38.4-48.7
		c-0.5-0.6-0.4-1.5,0.1-2s1.4-0.6,2-0.1l52.6,41.4l18.3-10.6L246.1,115.6z"/>
	<polygon class="st1" points="65.9,252.8 192.8,267.9 192.8,252.8 	"/>
	<path class="st1" d="M217.7,228.4v0.5h0.4L217.7,228.4z"/>
	<path class="st1" d="M225.5,264.5c0-2.4,0-4.7,0-7.1c0-0.7-0.6-1.3-1.3-1.3c-0.2,0-0.4,0.1-0.6,0.1c-2,1.1-4,2.2-6.1,3.2v3.7
		l6.2,3.3L225.5,264.5z"/>
	<path class="st1" d="M239.3,241.7l3.9-2.1l-3.1-3.1l-5.7,3l-0.5,4.6l3.8,4.9l0.5-0.6v-4.7C238.2,242.8,238.6,242.1,239.3,241.7z"/>
	<path class="st1" d="M262,280.7l-3.3-1.8v15.8l3.4-1.9L262,280.7z"/>
	<path class="st1" d="M276.7,253.8l-3.6,4.6v4.5l-2.5-1.3l-0.5,0.6l7.8,7.8c0-4.9,0-9.8,0-14.6L276.7,253.8z"/>
	<path class="st1" d="M245.1,214.8c0.6-0.3,1-1,1-1.7v-8.5l-3.8,2c-0.6,0.3-1,1-1,1.6c0,2.8,0,5.6,0,8.4L245.1,214.8z"/>
	<polygon class="st1" points="205.3,207.8 209.3,205.5 182.2,178.4 	"/>
	<path class="st1" d="M259.6,231.9l8.4,6.6l2.5-2.5l-9.6-5.2L259.6,231.9z"/>
	<path class="st1" d="M270,228.7l-1.5-0.2l1.5,0.8V228.7z"/>
	<path class="st1" d="M244.6,220l1.5,1.2v-2.1L244.6,220z"/>
	<polygon class="st1" points="301.4,205.1 330.2,176.4 296.9,202.5 	"/>
	<path class="st1" d="M294.1,301.9l-16.8,9.7l-2.4,20.1c20.5,0.4,40.9,1.5,61.4,3.3L294.1,301.9z"/>
	<path class="st1" d="M393,262.5l-74.4,8.9v8.6c0,4.8-2.6,9.3-6.7,11.7l-1.1,0.6l34.3,43.6c5.8,0.6,11.6,1.2,17.3,1.9
		C380.1,316.4,390.8,290.1,393,262.5z"/>
	<path class="st1" d="M274,313.5l-11.6,6.7c-1.2,0.7-2.5,1.2-3.8,1.5v9.9c4.4,0,8.8,0,13.2,0.1L274,313.5z"/>
	<path class="st1" d="M405.3,314c7.3-17.3,11.5-35.7,12.4-54.4l-15.6,1.9c-1.9,28.2-12.1,55.2-29.2,77.7c5.8,0.8,11.6,1.6,17.4,2.5
		C396.2,332.9,401.2,323.6,405.3,314z"/>
	<path class="st1" d="M112.3,261.4l-15.6-1.9c1.4,29.3,10.9,57.7,27.4,82c5.8-0.9,11.6-1.7,17.4-2.5
		C124.4,316.6,114.2,289.6,112.3,261.4z"/>
	<path class="st1" d="M265.3,411.9c29.3-1.4,57.6-10.9,81.9-27.3c-9-1-17.9-1.8-26.9-2.5c-16.6,8.1-34.7,12.8-53.1,14.1L265.3,411.9
		z"/>
	<path class="st1" d="M249,182.6c2.1-1.2,4.4-1.8,6.8-1.8l0,0V60.1l-15.2,127.3L249,182.6z"/>
	<path class="st1" d="M237.3,313.5L219,302.9L178.2,335c20.4-1.8,40.8-2.9,61.3-3.3L237.3,313.5z"/>
	<path class="st1" d="M202.7,293.4l-3.1-1.8c-4.2-2.4-6.7-6.9-6.7-11.7v-9l-71.4-8.5c2.2,27.6,12.9,53.9,30.5,75.3
		c5.8-0.7,11.6-1.3,17.4-1.9L202.7,293.4z"/>
	<path class="st1" d="M299.5,380.9c-10.1-0.5-20.2-0.8-30.4-1l-0.9,7.3C278.9,386.3,289.4,384.2,299.5,380.9z"/>
	<path class="st1" d="M101.3,355.7c0.2,1,0.4,2,0.5,3l0,0L101.3,355.7z"/>
	<path class="st1" d="M388.2,390.1l-3-0.5L388.2,390.1z"/>
	<path class="st1" d="M280.2,215.7l0.8,7.1c0-2.6,0-5.2,0-7.8L280.2,215.7z"/>
	<path class="st1" d="M393,240.3c-5.5-66.5-58.3-119.2-124.7-124.7l9,75.6l16.8,9.7l53.9-42.4c0.3-0.2,0.6-0.3,0.9-0.3
		c0.4,0,0.8,0.2,1.1,0.4c0.5,0.5,0.6,1.4,0.1,2l-39.3,49.9l1.1,0.6c4.2,2.4,6.7,6.9,6.7,11.7v8.6L393,240.3z"/>
	<path class="st1" d="M194.5,399.7l0.1-0.2L194.5,399.7z"/>
	<path class="st1" d="M266.1,379.9c-2.5,0-5,0-7.5,0v62.8L266.1,379.9z"/>
	<path class="st1" d="M245.3,379.9c-10.1,0.1-20.3,0.5-30.4,1c10.1,3.3,20.6,5.4,31.2,6.3L245.3,379.9z"/>
	<path class="st1" d="M249.1,411.9l-1.9-15.6c-18.4-1.2-36.5-6-53.1-14.1c-9,0.7-17.9,1.5-26.9,2.5
		C191.5,401.1,219.8,410.5,249.1,411.9L249.1,411.9z"/>
	<path class="st1" d="M208.1,281.9v-9.2l-7.8-0.9v4.6c0,4.2,2.3,8.2,5.9,10.3l1.1,0.7l3.2-4.1L208.1,281.9z"/>
	<path class="st1" d="M208.1,259.5c0-0.8,0.4-1.5,1.1-1.9l9-4.8h-8.8l-1.2,0.6v-0.6h-7.8v16l7.8,0.9L208.1,259.5z"/>
	<polygon class="st1" points="233.1,277.6 217.4,293.2 222.6,296.2 234.2,287.1 	"/>
	<path class="st1" d="M208.1,221.4c0-0.7,0.4-1.4,1-1.7l1.2-0.6l-2.9-3.7l-1.1,0.7c-3.7,2.1-5.9,6-5.9,10.3v4.7l7.8-0.9v-8.8H208.1z
		"/>
	<path class="st1" d="M217.7,215.1c0,2.8,0,5.6,0,8.4l3,3.8c0.1-0.2,0.1-0.4,0.1-0.7V217l-6-6l-4.8,2.8l3,3.8L217.7,215.1z"/>
	<path class="st1" d="M254,195.6c0,10.7,0,21.3,0,31.9l3.1,2.5l0.8-0.7l-0.7-0.4v-1.7H257c-0.8-0.1-1.3-0.7-1.3-1.5v-36.5h-0.1
		c-2.1,0-4.1,0.5-5.9,1.6l-10.2,5.9l-0.8,7.1L254,195.6z"/>
	<polygon class="st1" points="225.4,297.9 236.2,304.1 234.6,290.6 	"/>
	<path class="st1" d="M318.6,250h100.6h0.1l0,0h0.6h28.6l-129.9-15.5L318.6,250L318.6,250z"/>
	<path class="st1" d="M294.5,286.6l4,4l4.9-2.8l-3.2-4.2L294.5,286.6z"/>
	<path class="st1" d="M281.1,211.2v-1.3c0-0.5,0.4-0.9,0.9-0.9c0.2,0,0.3,0,0.5,0.1l0.8,0.4l4.5-3.5l-9.3-5.4l1.4,11.7L281.1,211.2z
		"/>
	<path class="st1" d="M319.9,103l-0.1,0.3L319.9,103z"/>
	<path class="st1" d="M303.2,280.6c0,0.5-0.2,1-0.5,1.4l3.3,4.2c3.1-2.2,5-5.8,5-9.7v-4.3l-7.8,0.9V280.6z"/>
	<path class="st1" d="M273.1,285.4c0,3.8,0,7.6,0,11.4c0,0.8-0.4,1.6-1.2,2l-13.3,7.2v7.3c1.1-0.3,2.1-0.7,3-1.2l13.5-7.8l1.9-15.8
		L273.1,285.4z"/>
	<path class="st1" d="M279.3,294.7l-0.9,7.5l9.3-5.4l-5-4L279.3,294.7z"/>
	<path class="st1" d="M402.1,241.4l15.7,1.9c-4.1-82.4-70-148.3-152.4-152.4l1.9,15.6C339.5,111.6,397,169.1,402.1,241.4z"/>
	<path class="st1" d="M230.3,208.4v0.4l3,2.3c0-1.1,0-2.2,0-3.3c0-0.7,0.4-1.3,1-1.7l1.1-0.6l0.8-6.9l-10.9,6.3l4.6,3.6L230.3,208.4
		z"/>
	<path class="st1" d="M290.6,213.5v2.5l5.3-5.3l-5.3-3.1l-4.4,3.5L290.6,213.5z"/>
	<path class="st1" d="M293.7,275.9v-0.4l-0.8-1.1l-3.9,0.5v3.5C290.5,277.5,292.1,276.7,293.7,275.9z"/>
	<path class="st1" d="M293.9,234.2l-1.2-0.7l-2.1,2.7v8.9c0,0.5-0.5,0.9-1,0.9c-0.2,0-0.3,0-0.5-0.1l-4.4-2.4l-1.7,2.2l6,3.2v1h7.7
		l-2.9-1.5L293.9,234.2z"/>
	<path class="st1" d="M303.3,220.3c0,4.5,0,6.1,0,9.4l7.8,0.9v-4.3c0-3.9-1.9-7.5-5-9.7L303.3,220.3L303.3,220.3z"/>
	<path class="st1" d="M298.7,235.2l3.4,1.9c0.7,0.4,1.1,1.1,1.1,1.9v11h7.8v-16.4l-7.7-0.9L298.7,235.2z"/>
	<path class="st0" d="M273.1,258.4v-15c0-0.8-0.4-1.6-1.2-2l-1.7-0.9l-2.8-1.5l0,0l-10.1-5.4l-0.6-0.3c-0.3-0.2-0.7-0.3-1.1-0.3
		c-0.4,0-0.7,0.1-1.1,0.3l-5.4,3c-1.1,0.6-2.1,1.2-3.2,1.8l-2.8,1.5l-3.9,2.1c-0.7,0.4-1.2,1.2-1.2,2v4.7v4.8v13.5
		c0,0.4,0.1,0.8,0.3,1.2c0.2,0.3,0.5,0.6,0.8,0.8l1.7,0.9l9.1,4.9l3,1.5l2.5,1.3l3,1.6l3.3,1.8l0.1,12.1l-3.4,1.9l-3,1.6l0,0
		l-6.2-3.4v-9.7c0-0.8-0.4-1.6-1.2-2l-1-0.6l-2.9-1.5l-6.1-3.3c0,0,0,3.6,0,8.1v3.8c0,2.5,0,5.1,0,7.4v1.5c0,0.4,0.1,0.8,0.3,1.1
		c0.2,0.3,0.5,0.6,0.9,0.8c5.1,2.8,10.1,5.5,15.2,8.2c0.3,0.2,0.7,0.3,1,0.3l0,0c0.3,0,0.7-0.1,1-0.3l1.9-1l13.3-7.2
		c0.7-0.4,1.2-1.2,1.2-2c0-3.8,0-7.6,0-11.4c0-1.3,0-2.5,0-3.8c0-2.1,0-4.2,0-6.4c0-0.8-0.5-1.5-1.2-1.9l-9.1-4.8l-2.9-1.5
		l-10.5-5.6l0,0c0-1.4,0-2.8,0-4.2c0-3.7,0-7.4,0-11.1l0.2-0.1l2.7-1.6l3.4-2c2.5,1.4,3.3,1.9,5.5,3.1l0.8,0.5v3v5.3v1.5
		c0,0.8,0.4,1.6,1.2,1.9l7.4,4l2.5,1.3L273.1,258.4z"/>
	<path class="st0" d="M208.1,259.5v22.4l2.5,1.4l2.7,1.5l2.8,1.5c0.1,0.1,0.3,0.1,0.4,0.1c0.5,0,1-0.4,1-1v-15.9l2.7,1.5l2.7,1.4
		l7.1,3.8c0.2,0.1,0.4,0.2,0.5,0.3c1.2-0.7,1.6-1,2.8-1.7v-2V259c0-1.6,0-3.2,0-4.9v-4.5c0-0.4,0-0.9,0-1.3V247c0-0.8,0-1.7,0-2.5
		l-2.9,1.6l-6.8,3.6l-5.6,3l-9,4.8C208.5,258,208.1,258.8,208.1,259.5z M217.6,259.5c2-1,4-2.1,6.1-3.2c0.6-0.3,1.4-0.1,1.7,0.5
		c0.1,0.2,0.1,0.4,0.1,0.6c0,2.3,0,4.7,0,7.1c0,1,0,2,0,3c-0.5-0.3-1.1-0.6-1.6-0.9l-6.2-3.3L217.6,259.5z"/>
	<path class="st0" d="M230,208.5l-2.9,1.5l-5.3,2.9c-0.2,0.1-0.3,0.2-0.5,0.4c-0.3,0.4-0.5,0.8-0.5,1.3v12c0,0.2,0,0.5-0.1,0.7
		c-0.2,0.4-0.5,0.8-0.9,1l-0.8,0.4l-1.3,0.7v-5.9c0-2.8,0-5.6,0-8.4l-4.7,2.5l-2.7,1.4l-1.2,0.6c-0.6,0.3-1,1-1,1.7V233v16.8v3.6
		l1.2-0.6c1.9-1,3.7-2,5.6-3l1.6-0.9c0.6-0.3,1-1,1-1.7v-12c0-0.7,0.4-1.4,1-1.7l2.2-1.1v14.2l8.6-4.6c0.6-0.3,1-1,1-1.7v-9.9
		c0-1,0-2,0-3v-0.8c0-1.4,0-2.8,0-4.2c0-3.2,0-6.5,0-9.7c0-1.3,0-2.5,0-3.8v-0.5L230,208.5z"/>
	<path class="st0" d="M302.1,237l-3.4-1.9l4.6-2.5l0,0c0-1.2,0-2.2,0-3c0-3.2,0-4.9,0-9.4h-0.1l-2.7-1.5c-1.8-1-3.5-1.9-5.3-2.9
		c-0.1,0-0.1-0.1-0.2-0.1s-0.2,0-0.2,0c-0.5,0-0.9,0.5-0.9,1v0.2c0,3.4,0,6.9,0,10.3v0.6c0,0.6-0.4,1-1,1c-0.1,0-0.2,0-0.2,0
		l-0.2-0.1l-1.8-1v-7.3v-6.7l-4.5-2.4l-2.9-1.8l-0.8-0.4c-0.5-0.3-1-0.1-1.3,0.4c-0.1,0.1-0.1,0.3-0.1,0.5v1.3c0,1.3,0,2.6,0,3.8
		c0,2.6,0,5.2,0,7.8c0,0.9,0,1.8,0,2.7c0,1.4,0,2.8,0,4.2c0,3.9,0,7.9,0,11.8l1.1,0.6l2.7,1.4l4.4,2.4c0.1,0.1,0.3,0.1,0.5,0.1
		c0.5,0,1-0.4,1-0.9v-11.1c0-0.5,0.4-0.9,0.9-0.9l0,0c0.2,0,0.3,0,0.5,0.1l0.7,0.4l1.2,0.7l-0.2,14.2l2.9,1.5
		c1.7,0.9,3.5,1.8,5.2,2.8c0.1,0.1,0.3,0.1,0.4,0.1c0.6,0,1-0.4,1-1v-1.9v-11C303.3,238.1,302.8,237.4,302.1,237z"/>
	<path class="st0" d="M270.5,236l2.8,1.5l3.2,1.8c0.1,0.1,0.3,0.1,0.4,0.1c0.5,0,1-0.4,1-0.9v-9.6l-0.1-0.1l-5.2-2.7l-2.6-1.4v1.1v3
		v0.7l-1.5-0.8l-2.5-1.3l-0.2-0.1c-0.3-0.2-0.5-0.6-0.5-1v-2.5V208c0-0.5,0.5-1,1-1c0.1,0,0.3,0,0.4,0.1c1.1,0.6,2.2,1.1,3.4,1.7
		c0,1.5-0.1,3.1-0.1,4.7l4.9,2.7l2.9,1.6l0.2,0.1v-11.2l-1.9-1c-5.7-3-11.5-6.1-17.2-9.2h-0.1c-0.1-0.1-0.3-0.1-0.5-0.1
		c-0.5,0-1,0.5-1,1c0,10,0,20,0,30v1.7l0.7,0.4l2.9,1.6L270.5,236z"/>
	<path class="st0" d="M283,245.8l-2.7-1.4l-0.1-0.1c-0.2-0.1-0.5-0.2-0.8-0.2c-0.9,0-1.6,0.7-1.6,1.6v9.6c0,4.9,0,9.8,0,14.6
		c0,1.4,0,2.8,0,4.2v11c0,1.3,0,2.5,0,3.8c0,2.2,0,4.3,0,6.5l1.5-0.8l3.4-1.8l2.9-1.5l6.1-3.3l2.8-1.5l5.7-3l1.9-1
		c0.3-0.1,0.5-0.3,0.7-0.6c0.3-0.4,0.5-0.9,0.5-1.4v-24l-6.9-3.7l-0.8-0.4c-0.2-0.1-0.4-0.2-0.6-0.2c-0.4,0-0.8,0.2-1,0.6
		c-0.1,0.2-0.2,0.4-0.2,0.7v22.2c-1.6,0.9-3.2,1.7-4.8,2.5v-29.5L283,245.8z"/>
	<path class="st0" d="M409.9,404.2c0.1,0.1,0.1,0.1,0.2,0.1c0.2,0,0.3-0.1,0.3-0.3c0-0.1,0-0.2-0.1-0.2l-2.8-3l-1.7-0.3L409.9,404.2
		z"/>
	<path class="st0" d="M104.6,403.8c-0.1,0.1-0.1,0.3,0,0.5c0.1,0.1,0.2,0.1,0.2,0.1c0.1,0,0.2,0,0.2-0.1l4.3-4.1l-1.7,0.3
		L104.6,403.8z"/>
	<path class="st0" d="M255.7,35l-6.2,52.6c-11.4,0.5-22.6,2.2-33.6,5.1l-7.7-25.3c0-0.1-0.2-0.2-0.3-0.2c-0.2,0-0.3,0.1-0.4,0.3v0.1
		l6.1,25.7c-6.9,1.9-13.7,4.2-20.2,7c-5.9,2.5-11.6,5.3-17.2,8.4l-13.9-22.5c-0.1-0.1-0.2-0.2-0.3-0.2c-0.2,0-0.3,0.2-0.3,0.4
		c0,0.1,0,0.1,0,0.2l12.5,23.3c-11.5,6.7-22.1,14.8-31.6,24.1l-37.7-35.5c-0.1-0.1-0.1-0.1-0.2-0.1c-0.2,0-0.3,0.1-0.3,0.3
		c0,0.1,0,0.2,0.1,0.2l35.5,37.8c-9.3,9.5-17.4,20.1-24.1,31.5l-23.2-12.5c-0.1,0-0.1,0-0.2,0c-0.2,0-0.3,0.2-0.3,0.3
		s0.1,0.2,0.2,0.3l22.4,13.9c-3.2,5.6-6.1,11.4-8.6,17.3c-2.8,6.5-5.1,13.2-7,20.1l-25.6-6h-0.1c-0.2,0-0.3,0.1-0.3,0.3
		s0.1,0.3,0.3,0.3l25.2,7.6c-2.9,11.1-4.6,22.4-5.1,33.8L41,249.8c-0.8,0-1.5,0.7-1.5,1.5s0.7,1.5,1.5,1.5l52.6,6.2
		c0.5,11.3,2.2,22.4,5,33.3l-25.1,7.5c-0.2,0-0.3,0.2-0.2,0.4c0,0.2,0.2,0.3,0.3,0.3h0.1l25.5-6c3.6,13.1,8.8,25.7,15.5,37.5
		l-22.5,13.9c-0.2,0.1-0.2,0.3-0.1,0.5c0.1,0.1,0.2,0.2,0.3,0.2c0.1,0,0.1,0,0.2,0l23-12.4c1.6,2.7,3.2,5.3,5,7.9l3.5-0.5
		c-16.5-24.3-26-52.7-27.4-82l15.7,1.8c1.9,28.2,12.1,55.2,29.2,77.7l3.5-0.5l3.5-0.4l3.5-0.4c-17.6-21.4-28.3-47.7-30.5-75.3
		L193,271v9c0,4.8,2.6,9.3,6.7,11.7l3.1,1.8l-33.4,42.4c3-0.3,5.9-0.6,8.9-0.8l40.8-32.2l18.3,10.6l2.2,18.2h3
		c4.4-0.1,8.7-0.1,13.1-0.1h3v-9.9c1.3-0.3,2.6-0.8,3.8-1.5l11.6-6.7l-2.2,18.2l3,0.1l2.4-20.1l16.8-9.7l42.1,33.1
		c3,0.3,5.9,0.5,8.9,0.8l-34.3-43.6l1.1-0.6c4.2-2.4,6.7-6.9,6.7-11.7v-8.6l74.4-8.9c-2.2,27.6-12.9,53.9-30.5,75.3l3.5,0.4l3.5,0.4
		l3.4,0.5c17.1-22.5,27.3-49.5,29.2-77.7l15.7-1.9c-1.4,29.3-10.9,57.7-27.4,82l3.5,0.5c1.7-2.6,3.3-5.2,4.9-7.8l22.8,12.3
		c0.1,0,0.1,0,0.2,0c0.2,0,0.3-0.1,0.3-0.3c0-0.1-0.1-0.2-0.2-0.3l-22-13.6c3.1-5.5,5.9-11.2,8.4-17c2.8-6.7,5.2-13.5,7.1-20.5
		l25.3,6h0.1c0.2,0,0.3-0.1,0.3-0.3c0-0.2-0.1-0.3-0.3-0.3l-24.9-7.5c2.8-10.9,4.5-22.1,5-33.4l52.6-6.2c0.8,0,1.5-0.7,1.5-1.5
		s-0.7-1.5-1.5-1.5l-52.6-6.2c-0.5-11.4-2.2-22.8-5.1-33.9l25-7.5c0.2,0,0.3-0.2,0.2-0.4c0-0.2-0.2-0.3-0.3-0.3h-0.1l-25.4,6
		c-3.6-13.1-8.9-25.7-15.6-37.5l22.3-13.8c0.2-0.1,0.2-0.3,0.1-0.5c-0.1-0.1-0.2-0.2-0.3-0.2c-0.1,0-0.1,0-0.2,0l-23.1,12.4
		c-6.7-11.4-14.8-21.9-24-31.4l35.8-37.9c0.1-0.1,0.1-0.3,0-0.5c-0.1-0.1-0.2-0.1-0.2-0.1c-0.1,0-0.2,0-0.2,0.1l-37.9,35.7
		c-9.6-9.4-20.2-17.5-31.8-24.3l12.5-23.2c0.1-0.2,0-0.4-0.1-0.5c-0.1,0-0.1,0-0.2,0s-0.2,0.1-0.3,0.2l-13.8,22.4
		c-11.8-6.7-24.4-11.9-37.4-15.5l6-25.7c0.1-0.2-0.1-0.4-0.2-0.4h-0.1c-0.1,0-0.3,0.1-0.3,0.2l-7.6,25.3c-10.9-2.8-22.2-4.5-33.4-5
		L259,35c0-0.8-0.7-1.5-1.5-1.5C256.7,33.5,255.6,34.2,255.7,35L255.7,35z M311.9,211.2l-1.1-0.6l39.3-49.9c0.5-0.6,0.4-1.5-0.1-2
		c-0.3-0.3-0.7-0.4-1.1-0.4c-0.3,0-0.7,0.1-0.9,0.3L294.1,201l-16.8-9.7l-9-75.6c66.5,5.5,119.2,58.3,124.7,124.7l-74.4-8.9v-8.6
		C318.6,218,316,213.6,311.9,211.2L311.9,211.2z M301.4,205.2l-4.5-2.6l33.3-26.2L301.4,205.2z M255.8,60.2v120.6l0,0
		c-2.4,0-4.7,0.6-6.8,1.8l-8.4,4.8L255.8,60.2z M205.3,207.8l-23.1-29.4l27.1,27.1L205.3,207.8z M219,199.9l-52.6-41.4
		c-0.6-0.5-1.5-0.4-2,0.1s-0.6,1.4-0.1,2l38.4,48.8l-3.1,1.8c-4.2,2.4-6.7,6.9-6.7,11.7v9l-71.4,8.5
		c5.5-66.5,58.2-119.3,124.7-124.8l-8.8,73.7L219,199.9z M109.1,188.8c24-56.9,78.4-94.9,140-98l-1.9,15.7
		c-72.3,5.1-129.8,62.6-134.9,134.9l-15.6,1.9C97.6,224.5,101.8,206.1,109.1,188.8z M65.9,252.8h126.9v15.1L65.9,252.8z
		 M184.2,326.4l27.7-27.7l4.3,2.5L184.2,326.4z M332.2,324.4L304,296.2l4.1-2.4L332.2,324.4z M311,276.6c0,3.9-1.9,7.5-5,9.7
		c-0.3,0.2-0.6,0.4-0.9,0.6l-1.7,1l-4.9,2.8l-2.7,1.6l-5.3,3l-2.8,1.6l-9.3,5.4l-3.2,1.9l-13.5,7.8c-0.9,0.5-1.9,1-3,1.2
		c-1,0.3-2,0.4-3,0.4l0,0c-2.1,0-4.1-0.6-5.9-1.6l-10.3-5.9l-3.2-1.9l-10.8-6.3l-2.8-1.6l-5.2-3l-2.7-1.6l-4.7-2.7l-2.6-1.6
		l-1.1-0.7c-3.7-2.1-5.9-6-5.9-10.3v-50.2c0-4.2,2.3-8.2,5.9-10.3l1.1-0.7l2.6-1.5l4.8-2.8l2.7-1.5l5.1-3l2.8-1.6l10.8-6.3l3.3-1.9
		l10.2-5.9c1.8-1,3.8-1.6,5.9-1.6h0.1c1,0,2,0.1,3,0.4c1,0.3,2,0.7,2.9,1.2l13.5,7.8l3.2,1.9l9.3,5.4l2.8,1.6l5.3,3.1l2.7,1.5
		l4.9,2.8l1.7,1c0.3,0.2,0.6,0.4,0.9,0.6c3.1,2.2,5,5.8,5,9.7V276.6L311,276.6z M448.4,250h-28.5h-0.6l0,0h-0.1H318.6v-15.5
		L448.4,250z M319.8,103.3l0.1-0.2l0,0L319.8,103.3c56.9,24,94.9,78.4,98,140l-15.7-1.9c-5.1-72.3-62.6-129.8-134.9-134.9l-1.9-15.6
		C284.1,91.8,302.5,96,319.8,103.3z"/>
	<path class="st0" d="M319.8,399.5c-17.3,7.3-35.7,11.5-54.4,12.4l1.9-15.6c18.4-1.2,36.5-6,53.1-14.1c-2.1-0.2-4.1-0.3-6.2-0.4
		c-2.3-0.2-4.5-0.3-6.8-0.4l-7.7-0.4c-10.1,3.3-20.6,5.4-31.2,6.3l0.9-7.3h-3l-7.5,62.8v-62.9h-3c-2.5,0-4.9,0-7.4,0h-3l0.9,7.3
		c-10.6-0.9-21.1-3-31.2-6.3c-2.6,0.1-5.1,0.3-7.7,0.4c-2.3,0.1-4.5,0.3-6.8,0.4c-2.1,0.1-4.1,0.3-6.2,0.4
		c16.6,8.1,34.6,12.9,53,14.2l1.9,15.7c-18.7-0.9-37.2-5.1-54.4-12.4l-0.1,0.2l0,0l0.1-0.2c-9.6-4.1-18.8-9-27.4-14.9l-4.9,0.5
		c3.8,2.7,7.7,5.2,11.7,7.6l-12.3,22.9c-0.1,0.2,0,0.4,0.1,0.5c0.1,0,0.1,0,0.2,0c0.1,0,0.2-0.1,0.3-0.2l13.7-22.1
		c11.8,6.7,24.4,12,37.5,15.6l-5.9,25.2c0,0.2,0.1,0.4,0.3,0.4h0.1c0.2,0,0.3-0.1,0.3-0.2l7.5-24.8c11.1,2.9,22.4,4.6,33.8,5.1
		l6.2,52.6c0,0.8,0.7,1.5,1.5,1.5c0.8,0,1.5-0.7,1.5-1.5l6.2-52.6c11.3-0.5,22.6-2.2,33.6-5.1l7.5,24.8c0,0.1,0.2,0.2,0.3,0.2
		c0.2,0,0.3-0.1,0.3-0.3v-0.1l-5.9-25.2c6.9-1.9,13.7-4.3,20.3-7.1c5.9-2.5,11.7-5.3,17.2-8.5l13.6,22c0.1,0.1,0.2,0.2,0.3,0.2
		c0.2,0,0.3-0.1,0.3-0.3c0-0.1,0-0.1,0-0.2l-12.7-22.7c4.1-2.4,8-5,11.8-7.7l-4.9-0.5C338.5,390.5,329.4,395.5,319.8,399.5z"/>
	<path class="st2" d="M220.8,214.6c0-0.5,0.2-1,0.5-1.3c0.1-0.1,0.3-0.3,0.5-0.4l5.3-2.9l2.9-1.5l-4.6-3.6l-2.8,1.6l-5.1,3l-2.7,1.5
		l6,6L220.8,214.6z"/>
	<path class="st2" d="M213,217.6l-3-3.8l-2.6,1.5l2.9,3.7L213,217.6z"/>
	<path class="st2" d="M218,228.8h-0.4v0.6l1.3-0.7l0.8-0.4c0.4-0.2,0.7-0.6,0.9-1l-3-3.8v4.9L218,228.8z"/>
	<path class="st0" d="M240.3,236.3c0.7-0.3,1.1-1,1.1-1.7v-1.2c0-3.5,0-7,0-10.5c0-0.4,0.2-0.9,0.4-1.2c0.2-0.2,0.3-0.3,0.5-0.5
		l2.2-1.2l1.5-0.8v14l6.2-3.3l0.8-0.4c0.6-0.3,1-1,1-1.7v-0.3c0-10.7,0-21.3,0-31.9l-15.4,8.2l-3.2,1.7l-1.1,0.6c-0.6,0.3-1,1-1,1.7
		c0,1.1,0,2.2,0,3.3c0,1.3,0,2.5,0,3.8v8.9c0,5.4,0,10.8,0,16.2l1.2-0.7L240.3,236.3L240.3,236.3z M242.4,206.6l3.8-2v8.5
		c0,0.7-0.4,1.4-1,1.7l-3.7,1.9c0-2.8,0-5.6,0-8.4C241.4,207.6,241.8,206.9,242.4,206.6L242.4,206.6z"/>
	<path class="st2" d="M311,253v-3h-7.8v1.9c0,0.6-0.4,1-1,1c-0.2,0-0.3,0-0.4-0.1c-1.7-0.9-3.5-1.9-5.2-2.8h-7.7v24.9l3.9-0.5
		l0.8,1.1v-21.8c0-0.2,0.1-0.5,0.2-0.7c0.2-0.3,0.6-0.6,1-0.6c0.2,0,0.4,0.1,0.6,0.2l0.8,0.4l6.9,3.7v16.5l7.8-0.9L311,253L311,253z
		"/>
	<path class="st2" d="M257.1,227.2h0.2c0-10,0-20,0-30c0-0.5,0.4-1,1-1c0.2,0,0.3,0,0.5,0.1h0.1c5.7,3,11.5,6.1,17.2,9.2l1.9,1v11.1
		l-0.2-0.1l-2.9-1.6l-5-2.6c0-1.6,0-3.1,0.1-4.7c-1.1-0.6-2.2-1.2-3.4-1.7c-0.1-0.1-0.3-0.1-0.4-0.1c-0.5,0-1,0.4-1,1v15.8v2.5
		c0,0.4,0.2,0.8,0.5,1l0.2,0.1l2.5,1.3l1.5,0.2v-3v-1.1l2.6,1.4l5.2,2.7l0.1,0.1v9.6c0,0.5-0.5,0.9-1,0.9c-0.2,0-0.3,0-0.4-0.1
		l-3.2-1.8l-2.8-1.5l-2.5,2.5l-8.4-6.6l1.3-1l-2.9-1.6l-0.8,0.7l-3.1-2.5v0.3c0,0.7-0.4,1.4-1,1.7l-0.8,0.4l-6.2,3.3v-12l-1.5-1.2
		l-2.2,1.2c-0.2,0.1-0.4,0.3-0.5,0.5c-0.3,0.3-0.4,0.8-0.4,1.2c0,3.5,0,7,0,10.5v1.1c0,0.7-0.4,1.4-1.1,1.7l-0.2,0.1l3.1,3.1
		l2.8-1.5c1.1-0.6,2.1-1.2,3.2-1.8l5.4-2.9c0.3-0.2,0.7-0.3,1.1-0.3c0.4,0,0.7,0.1,1.1,0.3l0.6,0.3l10.1,5.4l0,0l2.8,1.5l1.7,0.9
		c0.7,0.4,1.2,1.2,1.2,2v15l3.6-4.6l1.2,1.5v-9.6c0-0.9,0.7-1.6,1.6-1.6c0.3,0,0.5,0.1,0.8,0.2l0.1,0.1l2.7,1.4l1.7-2.2l-2.7-1.4
		l-1.1-0.6c0-4,0-7.9,0-11.8c0-1.4,0-2.8,0-4.2c0-0.9,0-1.8,0-2.7l-0.8-7.1l0.9-0.7c0-1.3,0-2.6,0-3.8l-1.3,1l-1.4-11.7l-3.2-1.9
		l-13.5-7.8c-0.9-0.5-1.9-0.9-2.9-1.2s-2-0.4-3-0.4v36.3C255.6,226.5,256.3,227.2,257.1,227.2z"/>
	<polygon class="st2" points="208.2,249.8 208.1,233 208.1,230 200.3,230.9 200.3,234 200.3,249.8 200.3,252.8 208.2,252.8 	"/>
	<polygon class="st2" points="238.7,203.9 239.5,196.8 236.2,198.7 235.4,205.6 	"/>
	<path class="st2" d="M303.3,232.7L303.3,232.7l7.7,0.9v-3l-7.8-0.9C303.3,230.5,303.3,231.5,303.3,232.7z"/>
	<path class="st2" d="M208.1,269.8l-7.8-0.9v3l7.8,0.9V269.8z"/>
	<path class="st2" d="M256.7,306.9c-0.3,0.2-0.7,0.3-1,0.3l0,0c-0.3,0-0.7-0.1-1-0.3c-5.1-2.8-10.2-5.5-15.2-8.2
		c-0.4-0.2-0.7-0.5-0.9-0.8s-0.3-0.7-0.3-1.1v-1.5c0-2.3,0-4.9,0-7.4v-3.8c0-4.5,0-8.1,0-8.1l6.1,3.3l2.9,1.5l1,0.6
		c0.7,0.4,1.2,1.2,1.2,2v9.7l6.2,3.4l0,0l3-1.6v-15.8l-3-1.6l-2.5-1.3l-2.9-1.5l-9.1-4.9l-1.7-0.9c-0.3-0.2-0.6-0.4-0.8-0.8
		c-0.2-0.3-0.3-0.8-0.3-1.2v-13.5v-5l-0.5,0.6l-3.8-4.9l0.5-4.6l-1.2,0.7c0-5.4,0-10.8,0-16.2v-8.9c0-1.3,0-2.5,0-3.8l-3-2.3
		c0,1.3,0,2.5,0,3.8c0,3.2,0,6.5,0,9.7c0,1.4,0,2.8,0,4.2l0.7,0.7l-0.7,0.1c0,1,0,2,0,3v10.1c0,0.7-0.4,1.4-1,1.7l-8.6,4.6v-14.2
		l-2.2,1.1c-0.6,0.3-1,1-1,1.7v12c0,0.7-0.4,1.4-1,1.7l-1.6,0.9c-1.9,1-3.8,2-5.6,3h8.8l5.6-3l6.8-3.6l2.9-1.6c0,0.8,0,1.7,0,2.5
		v1.3l1,1.3h-1v4.5c0,1.6,0,3.2,0,4.9v13.8v2c-1.2,0.7-1.6,1-2.8,1.7c-0.2-0.1-0.4-0.2-0.5-0.3l-7.1-3.8l-2.7-1.4l-0.1,0.1l-2.6-0.3
		v3l0.5,0.1l-0.5,0.6v10.9c0,0.5-0.5,1-1,1c-0.2,0-0.3,0-0.4-0.1l-2.8-1.5l-2.7-1.5l-3.3,4.1l2.6,1.5l4.7,2.7l2.7,1.6l15.6-15.7
		l1.1,9.5l-11.6,9.1l2.8,1.6l9.2-7.3l1.6,13.6l3.2,1.9l10.3,5.9c1.8,1,3.8,1.6,5.9,1.6l0,0c1,0,2-0.1,3-0.4v-7.3L256.7,306.9z"/>
	<path class="st2" d="M277.8,295.5c0-2.2,0-4.3,0-6.5c0-1.3,0-2.5,0-3.8v-11c0-1.4,0-2.8,0-4.2l-7.8-7.8l0.5-0.6l-7.4-4
		c-0.7-0.4-1.2-1.1-1.2-1.9v-1.5v-5.3v-3l-0.7-0.5c-2.1-1.2-3-1.7-5.5-3.1l-3.4,2l-2.7,1.6l-0.2,0.1c0,3.7,0,7.4,0,11.1
		c0,1.4,0,2.8,0,4.2l0,0l10.5,5.6l2.9,1.5l9.1,4.8c0.7,0.4,1.2,1.1,1.2,1.9c0,2.1,0,4.2,0,6.4c0,1.3,0,2.5,0,3.8l3.9,3l-1.9,15.7
		l3.2-1.9l0.9-7.5L277.8,295.5z M269.4,263l-0.2,0.3v0.1C269.3,263.3,269.4,263.2,269.4,263L269.4,263z"/>
	<path class="st2" d="M302,282.6l-1.9,1l3.3,4.2l1.7-1c0.3-0.2,0.6-0.4,0.9-0.6l-3.3-4.2C302.5,282.3,302.3,282.5,302,282.6z"/>
	<path class="st2" d="M291.7,288.1l-6.1,3.3l-2.9,1.5l5,4l2.8-1.6l5.3-3l2.7-1.6l-4-4L291.7,288.1z"/>
	<path class="st2" d="M225.5,267.4c0-1,0-2,0-3l-1.6,2.1C224.4,266.8,224.9,267.1,225.5,267.4z"/>
	<path class="st2" d="M286.1,211l4.4-3.5l-2.8-1.6l-4.5,3.5L286.1,211z"/>
	<path class="st2" d="M290.6,220.2v7.5l1.8,1l0.2,0.1c0.1,0,0.2,0,0.2,0c0.6,0,1-0.4,1-1v-0.6c0-3.4,0-6.8,0-10.3v-0.2
		c0-0.5,0.4-1,0.9-1c0.1,0,0.2,0,0.2,0c0.1,0,0.2,0.1,0.2,0.1c1.8,1,3.5,1.9,5.3,2.9l2.6,1.6l2.8-3.6c-0.3-0.2-0.6-0.4-0.9-0.6
		l-1.7-1l-4.9-2.8l-2.7-1.5l-5.3,5.3L290.6,220.2z"/>
	<path class="st2" d="M269.4,263c-0.1,0.1-0.2,0.2-0.3,0.4l0.1-0.1L269.4,263z"/>
	<path class="st2" d="M269.4,263c-0.1,0.1-0.2,0.2-0.3,0.4l0.1-0.1L269.4,263z"/>
	<path class="st2" d="M269.4,263c-0.1,0.1-0.2,0.2-0.3,0.4l0.1-0.1L269.4,263z"/>
	<path class="st2" d="M292,233.2c-0.1-0.1-0.3-0.1-0.5-0.1c-0.5,0-0.9,0.4-0.9,0.9l0,0v2.2l2.1-2.7L292,233.2z"/>
	<path class="st0" d="M126.6,392.2c-0.1-0.7-0.2-1.4-0.3-2.1l-3,0.5l-5.1,0.8l4.8,0.5L126.6,392.2z"/>
	<path class="st0" d="M92.3,378.9c-9.6,9.1-18.8,18.3-27.8,27.6c15.5-3.7,31-6.9,46.6-9.6l2.3-0.4c3.2-0.6,6.4-1.1,9.6-1.6
		c-3.9-0.4-7.8-0.8-11.7-1.1l-3.1-0.2c-0.3,0-0.6-0.2-0.9-0.4c-0.5,0-1.1-0.2-1.5-0.5c-0.7-0.5-1.1-1.1-1.2-1.9
		c-1.9-10.5-3.8-21.1-5.7-31.6l-0.5-3c-14.6,2.7-29.1,5.7-43.5,9.1C67.5,369.6,80,374.1,92.3,378.9z"/>
	<path class="st0" d="M408.7,393.6l-0.4-0.1c-1.3,0.2-2.7,0.3-4,0.5c-3.3,0.4-6.6,0.9-9.9,1.3c2.5,0.4,5,0.9,7.5,1.3l2.2,0.4
		c15.3,2.7,30.6,5.9,45.8,9.5c-9-9.4-18.2-18.6-27.8-27.6c12.3-4.8,24.8-9.3,37.5-13.5c-13.7-3.2-27.4-6.1-41.2-8.7l-0.5,3
		c-1.9,10.5-3.8,21-5.8,31.6c-0.3,1.4-1.5,2.5-3,2.5C409,393.7,408.8,393.6,408.7,393.6z"/>
	<path class="st0" d="M387.7,393.3L387.7,393.3c2.3-0.3,4.5-0.7,6.7-1l4-0.6l-7.3-1.2l-3-0.5l0,0L387.7,393.3z"/>
	<path class="st0" d="M174.3,354.6l-4.4,0.4c0.1,0.9,0.2,2.3,0.4,4.2l4.4-0.4c0-0.2,0-0.4-0.1-0.7
		C174.6,357.2,174.5,356.1,174.3,354.6z"/>
	<path class="st0" d="M363.4,361.3l4.4,0.5l0.1-0.7l0.5-3.4l-4.4-0.5C363.8,358.1,363.6,359.5,363.4,361.3z"/>
	<path class="st0" d="M227.8,359.5l-4.4,0.2c0,0.9,0.1,2.3,0.2,4.2c1,0,2.4-0.1,4.3-0.2c0-0.2,0-0.4,0-0.7
		C227.9,362.2,227.9,361,227.8,359.5z"/>
	<path class="st0" d="M351.9,359.2c0.1-0.8,0.2-1.9,0.4-3.4l-4.4-0.4c-0.1,0.9-0.2,2.3-0.4,4.2l4.4,0.5
		C351.9,359.8,351.9,359.6,351.9,359.2z"/>
	<path class="st0" d="M227.7,354.6c0-0.8,0-1.9-0.1-3.5l-4.4,0.2c0,0.9,0.1,2.3,0.2,4.2c1,0,2.5-0.1,4.4-0.2
		C227.7,355.1,227.7,354.9,227.7,354.6z"/>
	<path class="st0" d="M158.3,356.2l-4.4,0.5c0.1,0.9,0.3,2.3,0.5,4.2l4.4-0.5c0-0.2,0-0.4-0.1-0.7
		C158.6,358.9,158.5,357.8,158.3,356.2z"/>
	<path class="st0" d="M282.7,362.7c0.1-2.6,0.2-6.5,0.3-11.7l-4.4-0.1c0,1.4-0.1,3.5-0.2,6.3c0,1.4-0.1,3.5-0.2,6.3l4.3,0.1
		C282.7,363.4,282.7,363.1,282.7,362.7z"/>
	<path class="st2" d="M372.9,339.1l-3.4-0.5l-3.5-0.4l-3.5-0.4c-5.8-0.7-11.6-1.3-17.3-1.9c-3-0.3-5.9-0.6-8.9-0.8
		c-20.4-1.8-40.9-2.9-61.4-3.3l-3-0.1c-4.4-0.1-8.8-0.1-13.2-0.1h-3c-4.4,0-8.7,0-13.1,0.1h-3c-20.5,0.4-40.9,1.5-61.3,3.3
		c-3,0.3-5.9,0.5-8.9,0.8c-5.8,0.6-11.6,1.2-17.4,1.9l-3.5,0.4l-3.5,0.4l-3.5,0.5c-5.8,0.8-11.6,1.6-17.4,2.5l-3.5,0.5
		c-7,1.1-14,2.3-21,3.5c-0.8,0.1-1.5,0.6-1.9,1.2c-0.5,0.7-0.6,1.5-0.5,2.2l0.8,4.2c-14.6,2.7-29.2,5.7-43.7,9.2
		c-1.6,0.4-2.6,2-2.2,3.6c0.2,1,1,1.8,2,2.2c11.2,3.7,22.2,7.6,33,11.8c-8.5,8.1-16.6,16.2-24.5,24.5c-1.1,1.2-1.1,3.1,0.1,4.2
		c0.6,0.5,1.3,0.8,2.1,0.8c0.2,0,0.5,0,0.7-0.1c14.1-3.3,28.2-6.3,42.4-8.9l1.7-0.3c6-1.1,12-2.1,18-3c0.8-0.1,1.5-0.6,2-1.2
		s0.7-1.5,0.5-2.2c-0.2-1.4-0.4-2.8-0.6-4.2c11-1.7,22.1-3.2,33.1-4.4l4.9-0.5c9-1,17.9-1.8,26.9-2.5c2.1-0.2,4.1-0.3,6.2-0.4
		c2.3-0.2,4.5-0.3,6.8-0.4c2.6-0.2,5.1-0.3,7.7-0.4c10.1-0.5,20.2-0.8,30.4-1h3c2.5,0,4.9,0,7.4,0h3c2.5,0,5,0,7.5,0h3
		c10.1,0.1,20.3,0.5,30.4,1l7.7,0.4c2.3,0.1,4.5,0.3,6.8,0.4c2.1,0.1,4.1,0.3,6.2,0.4c9,0.7,17.9,1.5,26.9,2.5l4.9,0.5
		c11.1,1.3,22.1,2.7,33.2,4.4l3,0.5l0.4-2.3l-0.4,2.3l0,0l3,0.5l7.3,1.2l-4,0.6c-2.2,0.3-4.4,0.6-6.6,1h-0.1l0.5-3.2l-3-0.5
		c-0.2,1.4-0.4,2.8-0.7,4.2c-0.3,1.6,0.9,3.2,2.5,3.4c6.3,1,12.6,2,18.8,3.2l1.7,0.3c13.9,2.5,27.8,5.4,41.6,8.7
		c0.2,0.1,0.5,0.1,0.7,0.1c1.7,0,3-1.3,3-3c0-0.8-0.3-1.5-0.8-2.1c-7.9-8.2-16.1-16.4-24.5-24.4c10.8-4.1,21.8-8.1,33-11.8
		c1.6-0.5,2.4-2.2,1.9-3.8c-0.3-1-1.1-1.7-2.2-2c-13.7-3.2-27.5-6.1-41.3-8.7l-3-0.5l-0.5,3l-0.5,3c-1.9,10.4-3.9,20.8-5.8,31.3
		h-0.1l-0.8,0.1c-5.6-1-11.2-2-16.8-2.9l-2.5-0.4l-0.4-0.1l-2.9-0.5c-10-1.5-20-2.9-30.1-4.1l-4.8-0.5c-8.4-1-16.9-1.8-25.4-2.5
		l-5.7-0.4l-6.2-0.4c-2.3-0.2-4.5-0.3-6.8-0.4c-12.4-0.7-24.8-1.2-37.3-1.4h-3c-2.6,0-5.2,0-7.8,0h-3c-2.6,0-5.1,0-7.7,0h-3
		c-12.4,0.2-24.9,0.6-37.3,1.4c-2.3,0.1-4.5,0.3-6.8,0.4c-2,0.1-4.1,0.3-6.1,0.4l-5.7,0.4c-8.5,0.7-17,1.5-25.5,2.5l-4.7,0.5
		c-10,1.2-20.1,2.5-30,4.1l-3,0.5l-3,0.5c-5.1,0.8-10.2,1.7-15.3,2.6c-1.9-10.5-3.8-21.1-5.7-31.6l0,0c-0.2-1-0.4-2-0.5-3l0,0
		c-0.2-1-0.4-2-0.5-3l-0.8-4.2c7.5-1.3,14.9-2.6,22.4-3.7l3.6-0.5c5.9-0.9,11.8-1.7,17.7-2.5l3.5-0.4l3.5-0.4l3.6-0.4
		c4.1-0.5,8.3-0.9,12.5-1.4c2.4-0.2,4.8-0.5,7.1-0.7c22-2.1,44-3.3,66-3.8h3c4.3-0.1,8.5-0.1,12.8-0.1h3c4.3,0,8.6,0,12.9,0.1h3
		c22,0.4,44,1.7,66,3.8c2.4,0.2,4.8,0.5,7.1,0.7c4.2,0.4,8.3,0.9,12.5,1.4l3.6,0.4l3.5,0.4l3.5,0.4c5.9,0.8,11.8,1.6,17.7,2.5
		l3.6,0.5c8.3,1.3,16.5,2.7,24.8,4.2c-0.2,1.4-0.5,2.8-0.8,4.2l3,0.5c0.2-1.4,0.5-2.8,0.8-4.2c0.3-1.6-0.8-3.2-2.4-3.5
		c-7.8-1.4-15.6-2.8-23.5-4l-4.1-0.6C384.5,340.6,378.7,339.8,372.9,339.1z M412.1,391.2c1.9-10.5,3.9-21,5.8-31.6l0.5-3
		c13.8,2.6,27.5,5.5,41.2,8.7c-12.7,4.2-25.2,8.8-37.5,13.5c9.6,9.1,18.8,18.3,27.8,27.6c-15.2-3.6-30.5-6.8-45.8-9.5l-2.2-0.4
		c-2.5-0.4-5-0.9-7.5-1.3c3.3-0.5,6.6-0.9,9.9-1.3c1.3-0.2,2.7-0.3,4-0.5l0.4,0.1c0.2,0,0.4,0,0.5,0
		C410.6,393.6,411.9,392.6,412.1,391.2z M123.2,390.6l3-0.5c0.1,0.7,0.2,1.4,0.3,2.1l-3.7-0.4l-4.8-0.5L123.2,390.6z M98.8,359.2
		c1.9,10.5,3.8,21.1,5.7,31.6c0.1,0.8,0.6,1.5,1.2,1.9c0.4,0.3,1,0.5,1.5,0.5c0.2,0.2,0.5,0.3,0.9,0.4l3.1,0.2
		c3.9,0.3,7.8,0.7,11.7,1.1c-3.2,0.5-6.4,1.1-9.6,1.6l-2.3,0.4c-15.6,2.8-31.1,6-46.6,9.6c9-9.4,18.2-18.6,27.8-27.6
		c-12.3-4.8-24.8-9.3-37.5-13.5c14.5-3.4,29-6.4,43.5-9.1L98.8,359.2z"/>
	<path class="st2" d="M416,353.1l3,0.5L416,353.1z"/>
	<path class="st2" d="M416,353.1l3,0.5L416,353.1z"/>
	<path class="st2" d="M388.5,387.8l-0.4,2.3l0,0L388.5,387.8z"/>
	<path class="st2" d="M388.5,387.8l-0.4,2.3l0,0L388.5,387.8z"/>
	<path class="st0" d="M416.8,349c-8.2-1.5-16.5-2.9-24.8-4.2l-3.6-0.5c-5.9-0.9-11.8-1.7-17.7-2.5l-3.5-0.4l-3.5-0.4l-3.6-0.4
		c-4.2-0.5-8.3-0.9-12.5-1.4c-2.4-0.2-4.8-0.5-7.1-0.7c-22-2.1-44-3.3-66-3.8h-3c-4.3-0.1-8.6-0.1-12.9-0.1h-3
		c-4.2,0-8.5,0-12.8,0.1h-3c-22,0.4-44,1.7-66,3.8c-2.4,0.2-4.8,0.5-7.1,0.7c-4.2,0.4-8.3,0.9-12.5,1.4l-3.6,0.4l-3.4,0.4l-3.5,0.4
		c-5.9,0.8-11.8,1.6-17.7,2.5l-3.6,0.5c-7.5,1.2-14.9,2.4-22.4,3.7l0.8,4.2c0.2,1,0.4,2,0.5,3l0,0l0.5,3c1.9,10.5,3.8,21.1,5.7,31.6
		c5.1-0.9,10.2-1.8,15.3-2.6l3-0.5l3-0.5c10-1.5,20-2.9,30-4.1l4.7-0.5c8.5-0.9,17-1.8,25.5-2.5l5.7-0.4c2.1-0.2,4.1-0.3,6.1-0.4
		c2.3-0.2,4.5-0.3,6.8-0.4c12.4-0.7,24.8-1.2,37.3-1.4h3c2.6,0,5.1,0,7.7,0h3c2.6,0,5.2,0,7.8,0h3c12.4,0.2,24.9,0.6,37.3,1.4
		c2.3,0.1,4.5,0.3,6.8,0.4l6.2,0.4l5.7,0.4c8.5,0.7,17,1.5,25.5,2.5l4.8,0.5c10,1.2,20.1,2.5,30.1,4.1l2.9,0.5l0.4,0.1l2.5,0.4
		c5.6,0.9,11.2,1.9,16.8,2.9l0.8-0.1h0.1c1.9-10.4,3.8-20.9,5.7-31.3l0.5-3l0.5-3l0,0C416.3,351.8,416.5,350.4,416.8,349z
		 M393.1,378.2l-4.2-0.7c0.2-1,0.3-1.9,0.4-2.6s0.2-1.2,0.2-1.5l4.3,0.7L393.1,378.2z M271.1,363.3c0,2.1-0.1,3.5-0.1,4.2
		c-4.3-0.1-7.2-0.1-8.6-0.1h-4.2c0-5.2,0-9.6,0-13.1v-7.8h4.4c-0.1,8.3-0.1,13.9-0.1,16.7C266.3,363.2,269.2,363.2,271.1,363.3
		L271.1,363.3z M273.9,367.5c0-2.3,0.1-5.2,0.2-8.7s0.1-7.5,0.2-12.2l3.8,0.1h0.5c1.5,0,3.7,0.1,6.6,0.2c0.6,0,1.1,0.2,1.5,0.6
		s0.6,0.9,0.6,1.5c-0.1,3.7-0.3,9.3-0.6,16.7c0,0.6-0.2,1.1-0.7,1.5c-0.4,0.4-0.9,0.6-1.5,0.6h-0.1c-1.4,0-3.6-0.1-6.5-0.2h-2.1
		L273.9,367.5z M289.7,367.9c0-1,0.1-1.9,0.1-2.6s0-1.2,0.1-1.5c2.2,0.1,3.6,0.2,4.3,0.2l-0.2,4.2C291.8,368,290.4,368,289.7,367.9
		L289.7,367.9z M319.3,365.4c0.1-0.9,0.2-2.3,0.3-4.2l-6.5-0.5c-0.6,0-1.1-0.3-1.5-0.7c-0.4-0.4-0.6-1-0.5-1.5
		c0-0.9,0.1-2.1,0.2-3.5s0.2-3,0.3-4.9c0-0.6,0.3-1.1,0.7-1.4c0.4-0.3,0.9-0.5,1.4-0.5h0.2c2,0.1,4.9,0.3,8.8,0.6
		c0.6,0,1.1,0.3,1.5,0.7c0.4,0.4,0.6,1,0.5,1.5c-0.1,0.9-0.2,2.3-0.3,4.2l-4.4-0.3c0-0.5,0.1-1.2,0.2-2.1l-4.4-0.3
		c-0.1,0.9-0.2,2.3-0.3,4.2c1.5,0.1,3.7,0.2,6.6,0.5c0.6,0,1.1,0.3,1.5,0.7c0.4,0.4,0.6,1,0.5,1.5c-0.1,1.9-0.4,4.6-0.6,8.3
		c0,0.6-0.3,1.1-0.7,1.4c-0.4,0.3-0.9,0.5-1.4,0.5h-0.2c-1.9-0.1-4.8-0.3-8.6-0.6c-0.6,0-1.1-0.3-1.5-0.7c-0.4-0.4-0.6-0.9-0.5-1.5
		c0-0.9,0.1-2.3,0.3-4.2l4.3,0.3c0,0.5-0.1,1.2-0.1,2.1L319.3,365.4z M335.9,358.4c0.4-4.2,0.6-6.9,0.8-8.3l4.4,0.4
		c-0.4,3.7-0.6,6.5-0.8,8.3s-0.3,3.2-0.4,4.2c-0.4,3.7-0.6,6.5-0.8,8.3l-4.3-0.4c0.3-3.7,0.6-6.5,0.8-8.3l-4.3-0.4l-0.7,8.3
		l-4.3-0.4c0.2-2.1,0.3-3.8,0.4-5.2c0.1-1.4,0.2-2.4,0.3-3.1c0.2-2.1,0.3-3.5,0.3-4.1c0.3-4.2,0.6-7,0.7-8.3l4.4,0.4
		c-0.3,4.2-0.6,6.9-0.7,8.3L335.9,358.4z M347,363.7c-0.2,1.8-0.5,4.6-0.9,8.3l-4.3-0.4c0.1-1.6,0.4-3.9,0.7-7
		c0.1-1.3,0.3-2.9,0.5-4.8s0.4-4.2,0.7-6.8c0-0.6,0.3-1.1,0.8-1.4c0.4-0.3,0.8-0.5,1.3-0.5h0.3c1.9,0.2,4.9,0.5,8.8,0.9
		c0.6,0.1,1.1,0.3,1.5,0.8c0.4,0.4,0.5,1,0.5,1.5c-0.5,4.2-1.2,10.4-2.2,18.7l-4.3-0.5c0.2-1.8,0.5-4.6,0.9-8.3L347,363.7z
		 M371,365.1c0.4,0.4,0.5,1,0.4,1.5c-0.2,1.8-0.6,4.6-1.1,8.3l-4.3-0.6c0.2-1.8,0.6-4.6,1.1-8.3l-4.3-0.5c-0.2,1.8-0.6,4.6-1,8.3
		l-4.3-0.5c0.2-1.8,0.5-4.6,1-8.3c0.1-0.9,0.3-2.3,0.5-4.1c0.1-0.9,0.2-2.1,0.4-3.5s0.4-3,0.6-4.8l4.4,0.5c1.5,0.2,3.7,0.5,6.6,0.8
		c0.6,0.1,1.1,0.3,1.5,0.8c0.4,0.4,0.5,1,0.4,1.5c-0.2,1.4-0.5,3.5-0.8,6.2c-0.1,0.6-0.4,1.1-0.8,1.4s-0.8,0.4-1.3,0.4
		c-0.1,0-0.2,0-0.3,0C370.2,364.3,370.7,364.6,371,365.1L371,365.1z M385.7,364.4c-0.3,1.8-0.5,3.2-0.6,4.1c-2.9-0.4-5-0.7-6.5-1
		c-0.3,1.8-0.5,3.2-0.6,4.2c3.8,0.5,6.7,1,8.6,1.3l-0.6,4.1c-3.8-0.6-6.6-1-8.5-1.3l-4.3-0.6c0.1-0.9,0.2-1.7,0.3-2.4
		s0.2-1.3,0.2-1.7c0.3-2.1,0.5-3.5,0.6-4.2c0.3-2.1,0.5-3.5,0.6-4.1c0.3-2.1,0.5-3.5,0.6-4.2c0.3-2.1,0.5-3.4,0.6-4.1l4.4,0.6
		c4.4,0.6,7.3,1.1,8.8,1.3c-0.3,2-0.5,3.4-0.6,4.1c-3.9-0.6-6.8-1-8.7-1.3c-0.3,1.8-0.5,3.2-0.6,4.2
		C382.1,363.8,384.3,364.2,385.7,364.4L385.7,364.4z M255.3,367.4H251c0-1.7,0-4.3,0-7.8s-0.1-7.8-0.1-13h4.4c0,2.6,0,7.8,0,15.7
		C255.3,363,255.3,364.7,255.3,367.4L255.3,367.4z M243.5,346.6l4.4-0.1c0,4.2,0.1,10.4,0.2,18.8c0,0.6-0.2,1.1-0.6,1.5
		c-0.4,0.4-0.9,0.6-1.5,0.6c-1.9,0-4.8,0-8.6,0.2h-0.1c-0.6,0-1.1-0.2-1.5-0.6s-0.7-0.9-0.7-1.5c0-2.1-0.1-4.7-0.2-7.8
		s-0.2-6.8-0.3-11l4.4-0.1c0.1,3.7,0.2,9.3,0.3,16.7l4.3-0.1C243.7,359.5,243.7,354,243.5,346.6L243.5,346.6z M230,357.3
		c0.5,0,1.1,0.2,1.5,0.6s0.7,0.9,0.7,1.5c0,1.4,0.1,3.5,0.2,6.3c0,0.6-0.2,1.1-0.6,1.5c-0.4,0.4-0.9,0.7-1.5,0.7
		c-1.4,0-3.6,0.1-6.5,0.2l-4.3,0.2l-0.2-4.2c0-1-0.1-2.3-0.2-4.2c0-0.9-0.1-2.3-0.2-4.2c0-0.5,0-1.1-0.1-1.8s-0.1-1.5-0.1-2.4
		s-0.1-2.3-0.2-4.2l4.4-0.2c1.5-0.1,3.7-0.1,6.6-0.2h0.1c0.5,0,1.1,0.2,1.5,0.5c0.4,0.4,0.7,0.9,0.7,1.5l0.2,6.3
		c0,0.6-0.2,1.1-0.6,1.5C231.1,357,230.5,357.3,230,357.3L230,357.3z M203,369l-4.3,0.3c-0.1-1-0.1-1.9-0.2-2.6s-0.1-1.2-0.1-1.5
		l4.3-0.3C202.9,367,203,368.4,203,369L203,369z M187.3,370.2l-4.3,0.4l-0.8-8.7c-0.3-3.5-0.7-7.5-1.1-12.1l4.4-0.4l6.6-0.5h0.2
		c0.5,0,1,0.2,1.4,0.5c0.4,0.4,0.7,0.9,0.7,1.4c0.3,4.2,0.8,10.4,1.4,18.8l-4.3,0.3c-0.3-3.7-0.7-9.3-1.3-16.7l-4.4,0.3
		C186.2,357.2,186.7,362.8,187.3,370.2L187.3,370.2z M171.6,371.6l-4.3,0.4c-0.2-1.8-0.5-4.6-0.9-8.3c-0.1-0.9-0.2-2.3-0.4-4.1
		c-0.1-0.9-0.2-2.1-0.4-3.5s-0.3-3-0.5-4.8l4.4-0.5l6.6-0.6h0.2c0.5,0,1,0.2,1.4,0.5s0.7,0.9,0.8,1.4c0.1,1.4,0.3,3.5,0.6,6.3
		c0.1,0.6-0.1,1.1-0.5,1.5s-0.9,0.7-1.5,0.7h0.2c0.5,0,1,0.2,1.4,0.5s0.7,0.9,0.8,1.4c0.2,1.8,0.4,4.6,0.8,8.3l-4.3,0.4
		c-0.2-1.8-0.4-4.6-0.8-8.3l-4.3,0.4C170.9,365.2,171.2,367.9,171.6,371.6L171.6,371.6z M155.9,373.4l-4.3,0.5
		c-0.2-1.6-0.5-3.9-0.9-7l-0.6-4.8l-0.8-6.8c-0.1-0.6,0.1-1.1,0.5-1.5s0.9-0.7,1.5-0.8c2-0.2,4.9-0.6,8.8-1h0.3
		c0.5,0,0.9,0.2,1.3,0.4c0.4,0.3,0.7,0.8,0.8,1.4c0.4,4.2,1.1,10.4,2,18.7l-4.3,0.5c-0.2-1.8-0.5-4.6-0.9-8.3l-4.3,0.5
		C155.2,366.9,155.5,369.6,155.9,373.4z M138.5,363l6.5-0.9l0.5,4.1c-2.9,0.4-5,0.7-6.5,0.9c0.2,1.8,0.5,3.2,0.6,4.2
		c3.8-0.5,6.7-0.9,8.6-1.2c0.2,1.8,0.4,3.2,0.5,4.1c-3.8,0.5-6.6,0.9-8.6,1.1l-4.3,0.6c-0.1-0.9-0.2-1.7-0.3-2.4s-0.2-1.3-0.2-1.7
		c-0.3-2.1-0.5-3.5-0.6-4.2c-0.3-2.1-0.5-3.5-0.6-4.1c-0.3-2.1-0.5-3.5-0.6-4.2l-0.6-4.1l4.4-0.6c4.4-0.6,7.3-1,8.8-1.2
		c0.3,2.1,0.4,3.4,0.5,4.1c-3.9,0.5-6.8,0.9-8.7,1.2C138.2,360.6,138.4,362,138.5,363L138.5,363z M121.4,357.1
		c1.3,8.2,2.2,13.7,2.6,16.5c3.8-0.6,6.7-1,8.6-1.3l0.6,4.1c-4.3,0.6-7.1,1.1-8.5,1.3l-3.2,0.5l-1.1,0.2c-0.8-5.2-1.5-9.5-2.1-12.9
		s-1-6-1.2-7.7L121.4,357.1z"/>
	<path class="st2" d="M120.4,378.4l1.1-0.2l3.2-0.5c1.4-0.2,4.3-0.7,8.5-1.3l-0.6-4.1c-1.9,0.3-4.8,0.7-8.6,1.3
		c-0.4-2.8-1.3-8.3-2.6-16.5l-4.4,0.7c0.3,1.7,0.7,4.3,1.2,7.7C118.8,368.9,119.5,373.2,120.4,378.4z"/>
	<path class="st2" d="M146.2,353.5c-1.4,0.2-4.4,0.6-8.8,1.2l-4.4,0.6l0.6,4.1c0.1,0.7,0.3,2.1,0.6,4.2c0.1,0.7,0.3,2,0.6,4.1
		c0.1,0.7,0.3,2.1,0.6,4.2c0.1,0.5,0.1,1,0.2,1.7c0.1,0.7,0.2,1.5,0.3,2.4l4.3-0.6c1.9-0.3,4.8-0.7,8.6-1.1
		c-0.1-0.9-0.3-2.3-0.5-4.1c-1.9,0.2-4.8,0.6-8.6,1.2c-0.1-0.9-0.3-2.3-0.6-4.2c1.5-0.2,3.6-0.5,6.5-0.9l-0.5-4.1l-6.5,0.9
		c-0.1-0.9-0.3-2.3-0.6-4.2c2-0.3,4.9-0.7,8.7-1.2C146.6,357,146.4,355.6,146.2,353.5z"/>
	<path class="st2" d="M160.2,372.8l4.3-0.5c-0.9-8.3-1.6-14.5-2-18.7c-0.1-0.6-0.3-1.1-0.8-1.4c-0.4-0.3-0.9-0.4-1.3-0.4h-0.3
		c-3.9,0.4-6.8,0.8-8.8,1c-0.6,0.1-1.1,0.3-1.5,0.8c-0.4,0.4-0.5,1-0.5,1.5l0.8,6.8l0.6,4.8c0.4,3.1,0.7,5.5,0.9,7l4.3-0.5
		c-0.5-3.7-0.8-6.5-1-8.3l4.3-0.5C159.7,368.2,160,371,160.2,372.8z M154.4,360.9c-0.2-1.9-0.4-3.2-0.5-4.2l4.4-0.5
		c0.2,1.5,0.3,2.7,0.4,3.4c0,0.3,0.1,0.6,0.1,0.7L154.4,360.9z"/>
	<path class="st2" d="M175.9,371.2l4.3-0.4c-0.3-3.7-0.6-6.5-0.8-8.3c0-0.6-0.3-1.1-0.8-1.4c-0.4-0.3-0.9-0.5-1.4-0.5H177
		c0.6,0,1.1-0.3,1.5-0.7c0.4-0.4,0.5-1,0.5-1.5c-0.2-2.8-0.4-4.9-0.6-6.3c0-0.6-0.3-1.1-0.8-1.4c-0.4-0.3-0.9-0.5-1.4-0.5H176
		l-6.6,0.6l-4.4,0.5c0.2,1.8,0.4,3.5,0.5,4.8s0.3,2.5,0.4,3.5c0.2,1.8,0.3,3.2,0.4,4.1c0.4,3.7,0.7,6.5,0.9,8.3l4.3-0.4
		c-0.4-3.7-0.6-6.5-0.8-8.3l4.3-0.4C175.5,366.6,175.7,369.4,175.9,371.2z M170.3,359.2c-0.2-1.9-0.3-3.2-0.4-4.2l4.4-0.4
		c0.1,1.5,0.2,2.7,0.3,3.4c0,0.3,0,0.6,0.1,0.7L170.3,359.2z"/>
	<path class="st2" d="M191.6,369.8l4.3-0.3c-0.6-8.3-1-14.6-1.4-18.8c0-0.6-0.3-1.1-0.7-1.4s-0.9-0.5-1.4-0.5h-0.2l-6.6,0.5
		l-4.4,0.4c0.4,4.6,0.8,8.7,1.1,12.1l0.8,8.7l4.3-0.4c-0.6-7.4-1.1-13-1.4-16.7l4.4-0.3C190.9,360.6,191.3,366.1,191.6,369.8z"/>
	<path class="st2" d="M198.6,366.7c0,0.7,0.1,1.6,0.2,2.6l4.3-0.3c0-0.7-0.1-2.1-0.3-4.2l-4.3,0.3
		C198.5,365.5,198.5,366,198.6,366.7z"/>
	<path class="st2" d="M232.1,355.2l-0.2-6.3c0-0.6-0.2-1.1-0.7-1.5c-0.4-0.4-0.9-0.5-1.5-0.5h-0.1c-3,0.1-5.2,0.2-6.6,0.2l-4.4,0.2
		c0.1,1.8,0.1,3.2,0.2,4.2s0.1,1.7,0.1,2.4s0,1.3,0.1,1.8c0.1,1.8,0.1,3.2,0.2,4.2c0.1,1.8,0.1,3.2,0.2,4.2l0.2,4.2l4.3-0.2
		c2.9-0.1,5-0.2,6.5-0.2c0.6,0,1.1-0.3,1.5-0.7c0.4-0.4,0.6-0.9,0.6-1.5c-0.1-2.8-0.2-4.8-0.2-6.2c0-0.6-0.2-1.1-0.7-1.5
		c-0.4-0.4-0.9-0.6-1.5-0.6H230c0.6,0,1.1-0.2,1.5-0.6C231.9,356.3,232.1,355.7,232.1,355.2z M223.2,351.3l4.4-0.2
		c0,1.5,0.1,2.7,0.1,3.5c0,0.3,0,0.6,0,0.7c-1.9,0.1-3.4,0.1-4.4,0.2C223.2,353.6,223.2,352.2,223.2,351.3L223.2,351.3z
		 M223.6,363.8c-0.1-1.9-0.1-3.3-0.2-4.2l4.4-0.2c0,1.5,0.1,2.7,0.1,3.5c0,0.3,0,0.6,0,0.7C226.1,363.7,224.6,363.8,223.6,363.8z"/>
	<path class="st2" d="M239.1,346.6l-4.4,0.1c0.1,4.2,0.2,7.8,0.3,11c0.1,3.1,0.1,5.7,0.2,7.8c0,0.6,0.3,1.1,0.7,1.5s0.9,0.6,1.5,0.6
		h0.1c3.8-0.1,6.7-0.1,8.6-0.2c0.6,0,1.1-0.2,1.5-0.6s0.6-0.9,0.6-1.5c-0.1-8.3-0.2-14.6-0.2-18.8l-4.4,0.1c0.1,7.4,0.2,13,0.3,16.7
		l-4.3,0.1C239.3,355.9,239.2,350.3,239.1,346.6z"/>
	<path class="st2" d="M250.9,346.5c0,5.2,0.1,9.6,0.1,13s0,6.1,0,7.8h4.3c0-2.6,0-4.3,0-5.2c0-7.8,0-13.1,0-15.7L250.9,346.5z"/>
	<path class="st2" d="M258.2,346.4v7.8c0,3.5,0,7.8,0,13.1h4.3c1.4,0,4.3,0,8.6,0.1c0-0.7,0-2.1,0.1-4.2c-1.9,0-4.8-0.1-8.6-0.1
		c0-2.8,0-8.4,0.1-16.7L258.2,346.4z"/>
	<path class="st2" d="M284.7,367.8L284.7,367.8c0.6,0,1.1-0.2,1.5-0.6s0.7-0.9,0.7-1.5c0.3-7.4,0.5-13,0.6-16.7
		c0-0.6-0.2-1.1-0.6-1.5s-1-0.6-1.5-0.6c-2.9-0.1-5.2-0.2-6.6-0.2h-0.6l-3.9-0.1c-0.1,4.6-0.2,8.7-0.2,12.2s-0.1,6.4-0.2,8.7h2.2
		h2.1C281.1,367.6,283.3,367.7,284.7,367.8z M278.5,357.1c0.1-2.8,0.1-4.9,0.2-6.3l4.4,0.1c-0.2,5.2-0.3,9.1-0.3,11.7
		c0,0.4,0,0.6,0,0.8l-4.3-0.1C278.4,360.6,278.4,358.5,278.5,357.1z"/>
	<path class="st2" d="M289.8,363.8c0,0.3,0,0.9-0.1,1.5c0,0.7-0.1,1.6-0.1,2.6c0.7,0,2.2,0.1,4.3,0.2l0.2-4.2
		C293.4,363.9,292,363.9,289.8,363.8z"/>
	<path class="st2" d="M310.8,362.7c-0.1,1.8-0.2,3.2-0.3,4.2c-0.1,0.6,0.1,1.1,0.5,1.5s0.9,0.7,1.5,0.7c3.8,0.2,6.7,0.5,8.6,0.6h0.2
		c0.5,0,1-0.2,1.4-0.5c0.4-0.4,0.7-0.9,0.7-1.4c0.3-3.7,0.5-6.5,0.6-8.3c0.1-0.6-0.1-1.1-0.5-1.5s-0.9-0.7-1.5-0.7
		c-2.9-0.2-5.1-0.4-6.6-0.5c0.1-1.9,0.2-3.3,0.3-4.2l4.4,0.3c-0.1,0.9-0.1,1.6-0.2,2.1l4.4,0.3c0.1-1.8,0.2-3.2,0.3-4.2
		c0-0.6-0.1-1.1-0.5-1.5s-0.9-0.7-1.5-0.7c-3.9-0.3-6.8-0.5-8.8-0.6h-0.2c-0.5,0-1,0.2-1.4,0.5s-0.7,0.9-0.7,1.4
		c-0.1,1.8-0.2,3.5-0.3,4.9s-0.2,2.5-0.2,3.5c0,0.6,0.2,1.1,0.5,1.5c0.4,0.4,0.9,0.7,1.5,0.7l6.5,0.5c-0.1,1.8-0.2,3.2-0.3,4.2
		l-4.3-0.3c0.1-0.9,0.1-1.6,0.1-2.1L310.8,362.7z"/>
	<path class="st2" d="M327.9,349.3c-0.1,1.4-0.3,4.1-0.7,8.3c0,0.7-0.2,2.1-0.3,4.1c-0.1,0.7-0.1,1.7-0.3,3.1s-0.2,3.1-0.4,5.2
		l4.3,0.4l0.7-8.3l4.3,0.4c-0.2,1.8-0.4,4.6-0.8,8.3l4.3,0.4c0.2-1.8,0.4-4.6,0.8-8.3c0.1-0.9,0.2-2.3,0.4-4.2s0.4-4.6,0.8-8.3
		l-4.4-0.4c-0.1,1.4-0.4,4.2-0.8,8.3l-4.4-0.4c0.1-1.4,0.4-4.2,0.7-8.3L327.9,349.3z"/>
	<path class="st2" d="M354.7,372.9c1-8.3,1.7-14.5,2.2-18.7c0.1-0.6-0.1-1.1-0.5-1.5s-0.9-0.7-1.5-0.8c-3.9-0.4-6.8-0.7-8.8-0.9
		h-0.3c-0.5,0-1,0.2-1.3,0.5c-0.5,0.3-0.8,0.8-0.8,1.4c-0.3,2.6-0.5,4.9-0.7,6.8s-0.3,3.5-0.5,4.8c-0.3,3.1-0.6,5.5-0.7,7l4.3,0.4
		c0.4-3.7,0.7-6.5,0.9-8.3l4.3,0.5c-0.4,3.7-0.7,6.5-0.9,8.3L354.7,372.9z M347.5,359.5c0.2-1.9,0.3-3.2,0.4-4.2l4.4,0.5
		c-0.2,1.5-0.3,2.7-0.4,3.4c0,0.3-0.1,0.6-0.1,0.7L347.5,359.5z"/>
	<path class="st2" d="M371.2,363.8c0.5-0.3,0.7-0.8,0.8-1.4c0.4-2.8,0.6-4.8,0.8-6.2c0.1-0.6-0.1-1.1-0.4-1.5
		c-0.4-0.4-0.9-0.7-1.5-0.8c-2.9-0.4-5.1-0.7-6.6-0.8l-4.4-0.5c-0.2,1.8-0.4,3.5-0.6,4.8s-0.3,2.5-0.4,3.5c-0.2,1.8-0.4,3.2-0.5,4.1
		c-0.4,3.7-0.8,6.5-1,8.3l4.3,0.5c0.5-3.7,0.8-6.5,1-8.3l4.3,0.5c-0.5,3.7-0.8,6.5-1.1,8.3l4.3,0.6c0.5-3.7,0.9-6.4,1.1-8.3
		c0.1-0.6-0.1-1.1-0.4-1.5c-0.3-0.5-0.9-0.8-1.4-0.8c0.1,0,0.2,0,0.3,0C370.4,364.2,370.9,364.1,371.2,363.8z M367.8,361.2l-0.1,0.7
		l-4.4-0.5c0.2-1.9,0.4-3.2,0.5-4.2l4.4,0.5L367.8,361.2z"/>
	<path class="st2" d="M388.6,360.6c0.1-0.7,0.3-2.1,0.6-4.1c-1.4-0.2-4.3-0.7-8.8-1.3l-4.4-0.6c-0.1,0.7-0.3,2.1-0.6,4.1
		c-0.1,0.7-0.3,2.1-0.6,4.2c-0.1,0.7-0.3,2-0.6,4.1c-0.1,0.7-0.3,2.1-0.6,4.2c-0.1,0.5-0.1,1-0.2,1.7s-0.2,1.5-0.3,2.4l4.3,0.6
		c1.9,0.3,4.8,0.7,8.5,1.3l0.6-4.1c-1.9-0.3-4.8-0.7-8.6-1.3c0.1-0.9,0.3-2.3,0.6-4.2c1.5,0.2,3.6,0.5,6.5,1
		c0.1-0.9,0.3-2.3,0.6-4.1c-1.5-0.2-3.6-0.6-6.5-1c0.1-0.9,0.3-2.3,0.6-4.2C381.8,359.6,384.7,360,388.6,360.6z"/>
	<path class="st2" d="M389.3,374.9c-0.1,0.7-0.2,1.6-0.4,2.6l4.2,0.7l0.7-4.1l-4.3-0.7C389.5,373.7,389.4,374.2,389.3,374.9z"/>
</g>
</svg>
