<?xml version="1.0" encoding="utf-8"?>
<!-- Generator: Adobe Illustrator 21.1.0, SVG Export Plug-In . SVG Version: 6.00 Build 0)  -->
<svg version="1.0" id="Layer_1" xmlns="http://www.w3.org/2000/svg" xmlns:xlink="http://www.w3.org/1999/xlink" x="0px" y="0px"
	 viewBox="0 0 1920 1080" enable-background="new 0 0 1920 1080" xml:space="preserve">
<line fill="none" stroke="#999999" stroke-width="1.5" stroke-miterlimit="10" x1="-184.8" y1="623.6" x2="342.2" y2="96.6"/>
<line fill="none" stroke="#999999" stroke-width="1.5" stroke-miterlimit="10" x1="-184.8" y1="679.3" x2="202.9" y2="291.6"/>
<line fill="none" stroke="#999999" stroke-width="1.5" stroke-miterlimit="10" x1="224" y1="277" x2="584.6" y2="-82.7"/>
<line fill="none" stroke="#999999" stroke-width="1.5" stroke-miterlimit="10" x1="-153.3" y1="461.3" x2="373.7" y2="-65.8"/>
<line fill="none" stroke="#999999" stroke-width="1.5" stroke-miterlimit="10" x1="-153.3" y1="517" x2="234.4" y2="129.3"/>
<line fill="none" stroke="#999999" stroke-width="1.5" stroke-miterlimit="10" x1="282.9" y1="88.1" x2="616.1" y2="-245.1"/>
<line fill="none" stroke="#999999" stroke-width="1.5" stroke-miterlimit="10" x1="479.1" y1="-374.7" x2="-47.9" y2="152.3"/>
<line fill="none" stroke="#999999" stroke-width="1.5" stroke-miterlimit="10" x1="779.1" y1="-340.5" x2="391.4" y2="47.2"/>
<line fill="none" stroke="#999999" stroke-width="1.5" stroke-miterlimit="10" x1="43" y1="-1.6" x2="-290.2" y2="331.6"/>
<line fill="none" stroke="#999999" stroke-width="1.5" stroke-miterlimit="10" x1="447.6" y1="-212.4" x2="-79.4" y2="314.7"/>
<line fill="none" stroke="#999999" stroke-width="1.5" stroke-miterlimit="10" x1="447.6" y1="-268.1" x2="59.9" y2="119.6"/>
<line fill="none" stroke="#999999" stroke-width="1.5" stroke-miterlimit="10" x1="11.5" y1="160.8" x2="-321.7" y2="494"/>
<line fill="none" stroke="#999999" stroke-width="1.5" stroke-miterlimit="10" x1="13.9" y1="943.5" x2="966.2" y2="-8.8"/>
<line fill="none" stroke="#999999" stroke-width="1.5" stroke-miterlimit="10" x1="18.9" y1="999.2" x2="406.6" y2="611.5"/>
<line fill="none" stroke="#999999" stroke-width="1.5" stroke-miterlimit="10" x1="455.1" y1="570.3" x2="682.8" y2="342.5"/>
<line fill="none" stroke="#999999" stroke-width="1.5" stroke-miterlimit="10" x1="18.5" y1="807.5" x2="572.4" y2="254.1"/>
<line fill="none" stroke="#999999" stroke-width="1.5" stroke-miterlimit="10" x1="45.4" y1="836.9" x2="433.1" y2="449.1"/>
<line fill="none" stroke="#999999" stroke-width="1.5" stroke-miterlimit="10" x1="481.6" y1="408" x2="918" y2="-29"/>
<line fill="none" stroke="#999999" stroke-width="1.5" stroke-miterlimit="10" x1="677.8" y1="-54.9" x2="150.8" y2="472.2"/>
<line fill="none" stroke="#999999" stroke-width="1.5" stroke-miterlimit="10" x1="677.8" y1="-110.6" x2="-80" y2="647"/>
<line fill="none" stroke="#999999" stroke-width="1.5" stroke-miterlimit="10" x1="646.3" y1="107.5" x2="-83" y2="836.9"/>
<line fill="none" stroke="#999999" stroke-width="1.5" stroke-miterlimit="10" x1="692.4" y1="5.7" x2="258.6" y2="439.5"/>
<line fill="none" stroke="#999999" stroke-width="1.5" stroke-miterlimit="10" x1="210.2" y1="480.6" x2="-123" y2="813.8"/>
<line fill="none" stroke="#999999" stroke-width="1.5" stroke-miterlimit="10" x1="1206.1" y1="-452.3" x2="679.1" y2="74.8"/>
<line fill="none" stroke="#999999" stroke-width="1.5" stroke-miterlimit="10" x1="383.9" y1="1096.1" x2="808" y2="672.1"/>
<line fill="none" stroke="#999999" stroke-width="1.5" stroke-miterlimit="10" x1="391.9" y1="1151.9" x2="779.6" y2="764.2"/>
<line fill="none" stroke="#999999" stroke-width="1.5" stroke-miterlimit="10" x1="527.9" y1="829.3" x2="838.1" y2="519.1"/>
<line fill="none" stroke="#999999" stroke-width="1.5" stroke-miterlimit="10" x1="423.4" y1="989.5" x2="731.2" y2="681.8"/>
<path fill="none" stroke="#999999" stroke-width="1.5" stroke-miterlimit="10" d="M528.8,624.8"/>
<path fill="none" stroke="#999999" stroke-width="1.5" stroke-miterlimit="10" d="M1055.9,97.8"/>
<line fill="none" stroke="#999999" stroke-width="1.5" stroke-miterlimit="10" x1="624.7" y1="471" x2="291.5" y2="804.1"/>
<line fill="none" stroke="#999999" stroke-width="1.5" stroke-miterlimit="10" x1="588.2" y1="633.3" x2="255" y2="966.5"/>
<line fill="none" stroke="#999999" stroke-width="1.5" stroke-miterlimit="10" x1="590.6" y1="1416" x2="1542.9" y2="463.7"/>
<line fill="none" stroke="#999999" stroke-width="1.5" stroke-miterlimit="10" x1="1286.1" y1="778.7" x2="1373.3" y2="691.5"/>
<line fill="none" stroke="#999999" stroke-width="1.5" stroke-miterlimit="10" x1="1283.6" y1="844.1" x2="1511.4" y2="616.3"/>
<line fill="none" stroke="#999999" stroke-width="1.5" stroke-miterlimit="10" x1="622.1" y1="1253.6" x2="1149.2" y2="726.6"/>
<line fill="none" stroke="#999999" stroke-width="1.5" stroke-miterlimit="10" x1="927.4" y1="744.8" x2="727.5" y2="944.7"/>
<line fill="none" stroke="#999999" stroke-width="1.5" stroke-miterlimit="10" x1="670.2" y1="1002.3" x2="633.9" y2="1038.6"/>
<line fill="none" stroke="#999999" stroke-width="1.5" stroke-miterlimit="10" x1="818.4" y1="790.8" x2="485.2" y2="1124"/>
<line fill="none" stroke="#999999" stroke-width="1.5" stroke-miterlimit="10" x1="1140.7" y1="662.4" x2="696" y2="1107"/>
<line fill="none" stroke="#999999" stroke-width="1.5" stroke-miterlimit="10" x1="807.1" y1="925.3" x2="608.4" y2="1124"/>
<line fill="none" stroke="#999999" stroke-width="1.5" stroke-miterlimit="10" x1="1806" y1="-3" x2="1212.3" y2="590.8"/>
<line fill="none" stroke="#999999" stroke-width="1.5" stroke-miterlimit="10" x1="1889.5" y1="-13.5" x2="1179.3" y2="696.8"/>
<line fill="none" stroke="#999999" stroke-width="1.5" stroke-miterlimit="10" x1="430.7" y1="723" x2="673" y2="480.6"/>
<line fill="none" stroke="#999999" stroke-width="1.5" stroke-miterlimit="10" x1="433.1" y1="851.4" x2="675.4" y2="609.1"/>
<line fill="none" stroke="#999999" stroke-width="1.5" stroke-miterlimit="10" x1="173.1" y1="1114.4" x2="415.4" y2="872.1"/>
<line fill="none" stroke="#999999" stroke-width="1.5" stroke-miterlimit="10" x1="254.1" y1="1103.4" x2="496.4" y2="861.1"/>
<line fill="none" stroke="#999999" stroke-width="1.5" stroke-miterlimit="10" x1="755.8" y1="662" x2="1557.4" y2="-139.6"/>
<line fill="none" stroke="#999999" stroke-width="1.5" stroke-miterlimit="10" x1="832.6" y1="647.9" x2="911.4" y2="569.1"/>
<line fill="none" stroke="#999999" stroke-width="1.5" stroke-miterlimit="10" x1="950.9" y1="529.9" x2="1284" y2="196.7"/>
<line fill="none" stroke="#999999" stroke-width="1.5" stroke-miterlimit="10" x1="1322.9" y1="157.9" x2="1656" y2="-175.3"/>
<line fill="none" stroke="#999999" stroke-width="1.5" stroke-miterlimit="10" x1="1427.9" y1="174.9" x2="1761" y2="-158.3"/>
<line fill="none" stroke="#999999" stroke-width="1.5" stroke-miterlimit="10" x1="1376.9" y1="355.9" x2="1756" y2="-23"/>
<line fill="none" stroke="#999999" stroke-width="1.5" stroke-miterlimit="10" x1="690.4" y1="596.6" x2="1073.2" y2="213.7"/>
<line fill="none" stroke="#999999" stroke-width="1.5" stroke-miterlimit="10" x1="882.1" y1="460.6" x2="1038.4" y2="304.3"/>
<line fill="none" stroke="#999999" stroke-width="1.5" stroke-miterlimit="10" x1="1086.9" y1="263.1" x2="1420" y2="-70.1"/>
<line fill="none" stroke="#999999" stroke-width="1.5" stroke-miterlimit="10" x1="1183.6" y1="-95.3" x2="656.6" y2="431.8"/>
<line fill="none" stroke="#999999" stroke-width="1.5" stroke-miterlimit="10" x1="1183.6" y1="-151" x2="711.5" y2="320.5"/>
<line fill="none" stroke="#999999" stroke-width="1.5" stroke-miterlimit="10" x1="1147.1" y1="67.1" x2="637.1" y2="574.7"/>
<line fill="none" stroke="#999999" stroke-width="1.5" stroke-miterlimit="10" x1="1147.1" y1="11.4" x2="759.4" y2="399.1"/>
<line fill="none" stroke="#999999" stroke-width="1.5" stroke-miterlimit="10" x1="712.5" y1="1223" x2="1664.9" y2="270.6"/>
<line fill="none" stroke="#999999" stroke-width="1.5" stroke-miterlimit="10" x1="1727" y1="209" x2="2150.9" y2="-215.4"/>
<line fill="none" stroke="#999999" stroke-width="1.5" stroke-miterlimit="10" x1="1377.3" y1="224.6" x2="850.3" y2="751.6"/>
<line fill="none" stroke="#999999" stroke-width="1.5" stroke-miterlimit="10" x1="1499.3" y1="46.9" x2="1111.6" y2="434.6"/>
<line fill="none" stroke="#999999" stroke-width="1.5" stroke-miterlimit="10" x1="1088" y1="458" x2="799" y2="747"/>
<line fill="none" stroke="#999999" stroke-width="1.5" stroke-miterlimit="10" x1="1345.8" y1="386.9" x2="847.9" y2="884.9"/>
<line fill="none" stroke="#999999" stroke-width="1.5" stroke-miterlimit="10" x1="1847" y1="-170" x2="958.1" y2="718.9"/>
<line fill="none" stroke="#999999" stroke-width="1.5" stroke-miterlimit="10" x1="1308.8" y1="755.9" x2="975.6" y2="1089.1"/>
<line fill="none" stroke="#999999" stroke-width="1.5" stroke-miterlimit="10" x1="1287.2" y1="918.3" x2="954" y2="1251.5"/>
<line fill="none" stroke="#999999" stroke-width="1.5" stroke-miterlimit="10" x1="1119.8" y1="1007.9" x2="1620.2" y2="507.6"/>
<line fill="none" stroke="#999999" stroke-width="1.5" stroke-miterlimit="10" x1="1084.7" y1="1472" x2="1611.7" y2="944.9"/>
<line fill="none" stroke="#999999" stroke-width="1.5" stroke-miterlimit="10" x1="1546.5" y1="1080.5" x2="1934.2" y2="692.8"/>
<line fill="none" stroke="#999999" stroke-width="1.5" stroke-miterlimit="10" x1="1717.1" y1="636" x2="1190.1" y2="1163"/>
<line fill="none" stroke="#999999" stroke-width="1.5" stroke-miterlimit="10" x1="1717.1" y1="580.2" x2="1329.4" y2="968"/>
<line fill="none" stroke="#999999" stroke-width="1.5" stroke-miterlimit="10" x1="1281" y1="1009.2" x2="947.8" y2="1342.3"/>
<line fill="none" stroke="#999999" stroke-width="1.5" stroke-miterlimit="10" x1="1685.6" y1="798.3" x2="1158.6" y2="1325.4"/>
<line fill="none" stroke="#999999" stroke-width="1.5" stroke-miterlimit="10" x1="1683.5" y1="737.5" x2="1350.3" y2="1070.7"/>
<line fill="none" stroke="#999999" stroke-width="1.5" stroke-miterlimit="10" x1="1796" y1="419" x2="1356.1" y2="858.9"/>
<line fill="none" stroke="#999999" stroke-width="1.5" stroke-miterlimit="10" x1="1984.3" y1="143.7" x2="1651.1" y2="476.9"/>
<line fill="none" stroke="#999999" stroke-width="1.5" stroke-miterlimit="10" x1="1404.6" y1="660.2" x2="1491.8" y2="573"/>
<line fill="none" stroke="#999999" stroke-width="1.5" stroke-miterlimit="10" x1="1525.7" y1="539.1" x2="1766" y2="299"/>
<line fill="none" stroke="#999999" stroke-width="1.5" stroke-miterlimit="10" x1="1392.4" y1="1297.5" x2="1875" y2="815"/>
<line fill="none" stroke="#999999" stroke-width="1.5" stroke-miterlimit="10" x1="1624" y1="1133.8" x2="2011.7" y2="746.1"/>
<line fill="none" stroke="#999999" stroke-width="1.5" stroke-miterlimit="10" x1="1704.7" y1="781" x2="2231.7" y2="253.9"/>
<line fill="none" stroke="#999999" stroke-width="1.5" stroke-miterlimit="10" x1="1709.5" y1="711.5" x2="2097.2" y2="323.8"/>
<line fill="none" stroke="#999999" stroke-width="1.5" stroke-miterlimit="10" x1="2348.1" y1="-50" x2="1753" y2="545"/>
<line fill="none" stroke="#999999" stroke-width="1.5" stroke-miterlimit="10" x1="2257.6" y1="95.3" x2="1730.6" y2="622.4"/>
<line fill="none" stroke="#999999" stroke-width="1.5" stroke-miterlimit="10" x1="1702.4" y1="854.5" x2="2090.1" y2="466.8"/>
<line fill="none" stroke="#999999" stroke-width="1.5" stroke-miterlimit="10" x1="1820" y1="1014.8" x2="2207.7" y2="627.1"/>
<line fill="none" stroke="#999999" stroke-width="1.5" stroke-miterlimit="10" x1="116.5" y1="506.7" x2="-410.5" y2="1033.7"/>
<line fill="none" stroke="#999999" stroke-width="1.5" stroke-miterlimit="10" x1="1189.1" y1="-362.6" x2="662.1" y2="164.4"/>
<line fill="none" stroke="#999999" stroke-width="1.5" stroke-miterlimit="10" x1="27.5" y1="854.7" x2="-48.5" y2="930.5"/>
<line fill="none" stroke="#999999" stroke-width="1.5" stroke-miterlimit="10" x1="1814.7" y1="250.1" x2="2055" y2="10"/>
<line fill="none" stroke="#999999" stroke-width="1.5" stroke-miterlimit="10" x1="1820.8" y1="394.1" x2="2060.9" y2="153.9"/>
<line fill="none" stroke="#999999" stroke-width="1.5" stroke-miterlimit="10" x1="1615" y1="391" x2="1958" y2="48"/>
<line fill="none" stroke="#999999" stroke-width="1.5" stroke-miterlimit="10" x1="246.5" y1="848.7" x2="-9.9" y2="1105.1"/>
<line fill="none" stroke="#999999" stroke-width="1.5" stroke-miterlimit="10" x1="376.5" y1="781.7" x2="55" y2="1104"/>
<line fill="none" stroke="#999999" stroke-width="1.5" stroke-miterlimit="10" x1="1135.7" y1="151" x2="1378" y2="-91.4"/>
<line fill="none" stroke="#999999" stroke-width="1.5" stroke-miterlimit="10" x1="1172.7" y1="43" x2="1415" y2="-199.4"/>
<line fill="none" stroke="#999999" stroke-width="1.5" stroke-miterlimit="10" x1="1410" y1="1424.8" x2="1797.7" y2="1037.1"/>
<line fill="none" stroke="#999999" stroke-width="1.5" stroke-miterlimit="10" x1="1726" y1="1183.8" x2="2113.7" y2="796.1"/>
<line fill="none" stroke="#999999" stroke-width="1.5" stroke-miterlimit="10" x1="1820" y1="1153.8" x2="2207.7" y2="766.1"/>
<line fill="none" stroke="#999999" stroke-width="1.5" stroke-miterlimit="10" x1="387.2" y1="1026.3" x2="329" y2="1085"/>
<line fill="none" stroke="#999999" stroke-width="1.5" stroke-miterlimit="10" x1="212.2" y1="1009.3" x2="154" y2="1068"/>
</svg>
