<?xml version="1.0" encoding="utf-8"?>
<!-- Generator: Adobe Illustrator 25.4.1, SVG Export Plug-In . SVG Version: 6.00 Build 0)  -->
<svg version="1.1" id="Layer_1" xmlns="http://www.w3.org/2000/svg" xmlns:xlink="http://www.w3.org/1999/xlink" x="0px" y="0px"
	 viewBox="0 0 595.28 841.89" style="enable-background:new 0 0 595.28 841.89;" xml:space="preserve">
<style type="text/css">
	.st0{fill:#627E3E;}
</style>
<g>
	<g>
		<path class="st0" d="M399.19,320.03c-5.19-4.38-9.34-9.98-12.01-16.22c-2.79-6.53-3.95-13.97-1.97-20.78
			c0.98-3.4,2.71-6.55,4.78-9.42c3.51-4.88,8.12-9.09,13.65-11.45s12.02-2.75,17.54-0.37c6.88,2.96,11.54,9.95,12.86,17.33
			c1.32,7.38-0.35,15.05-3.46,21.86c-2.67,5.86-6.59,17.09-7.04,23.52"/>
		<g>
			<path d="M400.07,319.15c-7.9-6.73-13.91-16.63-14.55-27.17c-0.64-10.59,5.78-20.81,14.52-26.48c4.37-2.83,9.49-4.39,14.72-4
				c4.89,0.37,9.31,2.68,12.55,6.32c7.07,7.95,7.04,19.3,3.67,28.86c-0.84,2.38-1.95,4.66-2.9,7c-0.92,2.27-1.76,4.57-2.53,6.9
				c-1.49,4.5-2.9,9.18-3.26,13.93c-0.12,1.6,2.38,1.6,2.5,0c0.35-4.57,1.78-9.11,3.23-13.44c1.52-4.53,3.59-8.81,5.22-13.29
				c3.7-10.17,3.65-21.96-3.33-30.73c-3.12-3.93-7.53-6.75-12.48-7.69c-5.53-1.05-11.27,0.02-16.23,2.59
				c-4.59,2.38-8.46,5.98-11.57,10.08c-3.53,4.64-6.04,9.93-6.55,15.78c-1.1,12.56,5.89,25.17,15.23,33.12
				C399.52,321.96,401.3,320.19,400.07,319.15L400.07,319.15z"/>
		</g>
	</g>
	<g>
		<path class="st0" d="M276.99,276.74c5.73-0.54,7.07-10.48,9.8-15.54c6.2-11.48,18.39-19.5,31.39-20.65
			c6.18-0.55,13.22,0.82,16.71,5.95c2.43,3.57,2.6,8.29,1.47,12.46c-1.13,4.16-3.42,7.9-5.68,11.58c-2.02,3.28-4.12,6.65-7.28,8.84
			c-2.28,1.58-4.98,2.45-7.63,3.29c-9.94,3.16-25.53,8.15-35.93,7.45"/>
		<g>
			<path d="M276.99,277.99c4.05-0.48,6.05-4.13,7.47-7.55c1.66-4,2.8-8,5.24-11.64c5.72-8.56,15.02-14.62,25.13-16.53
				c4.73-0.89,10.09-1,14.52,1.16c5.1,2.49,7.1,7.75,6.25,13.21c-0.91,5.84-4.54,11.23-7.76,16.06c-1.65,2.47-3.56,4.8-6.17,6.29
				c-2.41,1.38-5.13,2.12-7.76,2.96c-5.63,1.78-11.28,3.52-17.03,4.87c-5.55,1.3-11.3,2.4-17.03,2.05c-1.61-0.1-1.6,2.4,0,2.5
				c5.34,0.33,10.74-0.6,15.94-1.74c5.45-1.2,10.82-2.77,16.15-4.44c5.55-1.73,11.39-3.14,15.39-7.67c1.96-2.22,3.49-4.78,5.04-7.3
				c1.65-2.7,3.23-5.44,4.38-8.39c2.1-5.4,2.4-12.01-1.37-16.77c-3.16-4-8.35-5.57-13.27-5.83c-10.62-0.56-21.46,4.37-29,11.66
				c-4.04,3.91-7.21,8.56-9.16,13.83c-0.84,2.28-1.58,4.63-2.7,6.8c-0.88,1.69-2.16,3.74-4.24,3.98
				C275.42,275.67,275.4,278.18,276.99,277.99L276.99,277.99z"/>
		</g>
	</g>
	<g>
		<path class="st0" d="M211.61,261.37c-11.67-2.94-23.09-6.84-34.12-11.64c-4.79-2.09-9.7-4.51-12.79-8.72
			c-3.82-5.22-4.11-12.15-4.25-18.62c-0.06-2.95-0.11-6.02,1.09-8.72c1-2.25,2.79-4.06,4.67-5.66c6.27-5.32,15.17-8.9,22.7-5.6
			c5.84,2.56,9.31,8.5,12.4,14.07c5.46,9.86,13.95,23.15,19.41,33.01"/>
		<g>
			<path d="M211.94,260.16c-11.81-2.99-23.42-6.9-34.56-11.84c-4.7-2.08-9.62-4.58-12.38-9.12c-2.76-4.52-3.11-10.03-3.26-15.19
				c-0.08-2.76-0.29-5.66,0.43-8.36c0.72-2.69,2.56-4.72,4.61-6.5c3.87-3.36,8.76-6.07,13.91-6.66c5.06-0.58,9.61,1.3,13.08,4.97
				c3.39,3.59,5.57,8.12,8,12.37c5.82,10.18,12.19,20.04,17.88,30.29c0.78,1.41,2.94,0.15,2.16-1.26
				c-5.47-9.86-11.57-19.36-17.21-29.13c-2.59-4.49-4.89-9.24-8.3-13.19c-3.5-4.06-8.26-6.68-13.7-6.66
				c-5.34,0.03-10.55,2.27-14.83,5.34c-2.25,1.61-4.43,3.44-6.06,5.69c-1.69,2.33-2.34,5.06-2.49,7.9c-0.15,2.94-0.01,5.95,0.2,8.88
				c0.2,2.8,0.57,5.63,1.43,8.31c1.71,5.34,5.38,9.22,10.19,11.96c5.91,3.37,12.54,5.75,18.91,8.06c6.99,2.54,14.12,4.72,21.33,6.54
				C212.84,262.97,213.5,260.56,211.94,260.16L211.94,260.16z"/>
		</g>
	</g>
	<g>
		<path class="st0" d="M272.17,391.77c4.95-1.67,4.91-13.45,5.7-18.62c5.71-37.49,10.73-78.62-9.19-110.89
			c-6.62-10.72-17.3-20.51-29.9-20.23c-5.54,0.12-10.93,2.23-15.45,5.42c-9.28,6.56-14.78,17.27-18.31,28.07
			c-10.42,31.88-6,68.28,11.73,96.75c4.58,7.36,9.98,14.17,15.37,20.97c4.91,6.2,7.26,10.44,13.71,15.02"/>
		<g>
			<path d="M272.51,392.97c3.97-1.47,4.94-6.53,5.51-10.22c0.73-4.71,1.1-9.48,1.8-14.2c1.91-12.88,3.59-25.81,4.17-38.82
				c1.1-24.6-1.85-51.43-16.78-71.9c-6.71-9.19-16.84-17.52-28.85-17.04c-12.91,0.52-23.05,10.29-28.91,21.06
				c-5.96,10.95-9.09,23.56-10.49,35.88c-1.44,12.72-0.76,25.68,1.9,38.2c2.66,12.5,7.35,24.62,13.95,35.57
				c3.68,6.1,7.95,11.82,12.33,17.43c2.14,2.74,4.32,5.44,6.41,8.21c1.65,2.18,3.27,4.4,5.1,6.43c1.96,2.18,4.17,4.08,6.54,5.78
				c1.31,0.94,2.56-1.23,1.26-2.16c-4.67-3.36-8.02-7.73-11.46-12.26c-4.13-5.42-8.47-10.67-12.43-16.22
				c-7.34-10.3-13.08-21.53-16.76-33.64c-7.12-23.37-6.92-49.19,1.46-72.22c4-10.97,10.55-21.95,21.49-27.12
				c5.57-2.63,11.83-3.19,17.72-1.31c5.31,1.69,9.94,5.08,13.8,9.02c8.22,8.4,13.49,19.66,16.77,30.83
				c3.41,11.62,4.63,23.76,4.66,35.84c0.03,12.49-1.18,24.95-2.82,37.32c-0.75,5.68-1.78,11.34-2.43,17.04
				c-0.48,4.16-0.59,8.46-1.95,12.46c-0.46,1.35-1.2,3.1-2.66,3.64C270.34,391.12,270.99,393.53,272.51,392.97L272.51,392.97z"/>
		</g>
	</g>
	<g>
		<path class="st0" d="M325.48,419.2c6.28-5.64,7.37-14.85,9.66-22.98c3.26-11.58,9.6-22.02,15.86-32.3
			c6.61-10.84,13.49-21.98,23.79-29.4c4.84-3.49,10.29-6.03,15.72-8.52c7.08-3.24,14.63-6.49,22.37-5.62
			c11.86,1.34,20.67,12.18,24.37,23.53c7.1,21.8-0.42,46.46-14.83,64.29s-34.86,29.78-55.82,39.08
			c-11.34,5.03-34.92,9.53-47.31,8.99"/>
		<g>
			<path d="M326.36,420.08c4.09-3.76,6.14-8.98,7.59-14.22c1.62-5.86,2.88-11.73,5.19-17.38c2.5-6.1,5.72-11.88,9.08-17.54
				c3.18-5.36,6.39-10.71,9.82-15.91c3.36-5.09,7.01-10.01,11.36-14.3c4.65-4.59,10.06-8.02,15.91-10.9
				c10.81-5.33,23.9-12.11,35.61-5.5c9.58,5.4,14.87,16.22,16.84,26.66c2.16,11.47,0.49,23.41-3.58,34.27
				c-8.58,22.9-27.67,39.39-48.48,51.13c-9.34,5.27-19.11,10.24-29.46,13.18c-9.98,2.84-20.41,4.8-30.79,5.38
				c-2.06,0.12-4.12,0.16-6.17,0.08c-1.61-0.07-1.61,2.43,0,2.5c4.81,0.2,9.65-0.25,14.42-0.86c5.48-0.7,10.93-1.68,16.31-2.92
				c4.87-1.12,9.72-2.43,14.4-4.22c5.33-2.04,10.5-4.63,15.58-7.23c21.84-11.2,42.7-26.81,53.62-49.4
				c5.17-10.71,8.13-22.66,7.52-34.6c-0.58-11.28-4.3-22.86-12.37-31.03c-3.75-3.8-8.49-6.76-13.77-7.8
				c-6.6-1.3-13.2,0.44-19.31,2.93c-6.3,2.57-12.68,5.43-18.47,9.02c-5.35,3.32-9.99,7.58-14.01,12.41
				c-3.98,4.77-7.4,9.96-10.67,15.22c-3.54,5.7-7.07,11.42-10.28,17.32c-3.25,5.95-6.13,12.15-8.06,18.66
				c-1.64,5.53-2.46,11.39-4.89,16.66c-1.15,2.5-2.66,4.76-4.7,6.63C323.4,419.4,325.17,421.17,326.36,420.08L326.36,420.08z"/>
		</g>
	</g>
	<g>
		<path class="st0" d="M251.67,535.02c-8.86-10.29-15.31-22.64-18.69-35.79c-5.09-19.76-3.22-40.67,0.65-60.71
			c1.85-9.57,4.26-19.31,9.87-27.27c7.28-10.33,19.17-16.49,31.21-20.32c9.29-2.96,19.73-4.68,28.56-0.53
			c4.31,2.03,7.92,5.33,10.93,9.02c10.84,13.27,14.24,32.25,8.67,48.46c-2.71,7.88-7.31,14.95-10.83,22.5
			c-9.95,21.35-11.73,47.22-27.94,64.31"/>
		<g>
			<path d="M252.56,534.13c-7.68-8.97-13.54-19.49-17.09-30.75c-3.83-12.17-4.82-25.01-4.14-37.7c0.36-6.66,1.16-13.28,2.25-19.86
				c0.99-6.01,2.1-12.04,3.77-17.91c1.61-5.67,3.82-11.19,7.23-16.03c3.15-4.48,7.31-8.2,11.87-11.2c4.62-3.04,9.65-5.4,14.84-7.28
				c5.47-1.98,11.19-3.65,17.01-4.1c5.86-0.46,11.78,0.39,16.84,3.53c4.75,2.95,8.55,7.41,11.49,12.11
				c5.71,9.12,8.3,20.06,7.48,30.77c-0.43,5.6-1.9,11.03-4.15,16.17c-2.56,5.83-5.87,11.3-8.61,17.04
				c-4.6,9.62-7.44,19.92-10.6,30.07c-3.13,10.05-6.63,20.19-12.71,28.89c-1.46,2.09-3.08,4.06-4.82,5.92
				c-1.1,1.17,0.66,2.94,1.77,1.77c15.47-16.44,18.04-39.93,26.2-60.09c4.62-11.41,12.29-21.57,14.64-33.84
				c2.09-10.93,0.61-22.41-4.07-32.49c-4.78-10.29-13.3-20.18-25.03-22.04c-6.07-0.97-12.27-0.13-18.18,1.4
				c-5.59,1.46-11.09,3.48-16.29,6.01c-10.43,5.1-19.22,12.81-24.02,23.53c-2.52,5.62-4.07,11.59-5.3,17.6
				c-1.34,6.51-2.43,13.07-3.2,19.67c-1.56,13.33-1.66,26.93,1.09,40.11c2.5,12.01,7.49,23.5,14.56,33.52
				c1.69,2.4,3.5,4.71,5.41,6.94C251.84,537.12,253.6,535.35,252.56,534.13L252.56,534.13z"/>
		</g>
	</g>
	<g>
		<g>
			<path d="M251.86,536.43c10.75,0,21.49-0.33,32.24-0.33c1.61,0,1.61-2.5,0-2.5c-10.75,0-21.49,0.33-32.24,0.33
				C250.25,533.93,250.25,536.43,251.86,536.43L251.86,536.43z"/>
		</g>
	</g>
	<g>
		<g>
			<path d="M175.27,232.66c1.61,0,1.61-2.5,0-2.5C173.66,230.16,173.65,232.66,175.27,232.66L175.27,232.66z"/>
		</g>
	</g>
	<g>
		<g>
			<path d="M190.19,216.85c1.61,0,1.61-2.5,0-2.5C188.58,214.35,188.58,216.85,190.19,216.85L190.19,216.85z"/>
		</g>
	</g>
	<g>
		<g>
			<path d="M205.99,252.84c1.61,0,1.61-2.5,0-2.5C204.38,250.34,204.38,252.84,205.99,252.84L205.99,252.84z"/>
		</g>
	</g>
	<g>
		<g>
			<path d="M189.31,242.31c1.61,0,1.61-2.5,0-2.5C187.7,239.81,187.7,242.31,189.31,242.31L189.31,242.31z"/>
		</g>
	</g>
	<g>
		<g>
			<path d="M170,219.49c1.61,0,1.61-2.5,0-2.5C168.39,216.99,168.39,219.49,170,219.49L170,219.49z"/>
		</g>
	</g>
	<g>
		<g>
			<path d="M199.84,244.07c1.61,0,1.61-2.5,0-2.5C198.23,241.57,198.23,244.07,199.84,244.07L199.84,244.07z"/>
		</g>
	</g>
	<g>
		<g>
			<path d="M236.71,294.1c1.61,0,1.61-2.5,0-2.5C235.1,291.6,235.1,294.1,236.71,294.1L236.71,294.1z"/>
		</g>
	</g>
	<g>
		<g>
			<path d="M254.27,280.93c1.61,0,1.61-2.5,0-2.5C252.66,278.43,252.66,280.93,254.27,280.93L254.27,280.93z"/>
		</g>
	</g>
	<g>
		<g>
			<path d="M214.77,334.48c1.61,0,1.61-2.5,0-2.5C213.16,331.98,213.15,334.48,214.77,334.48L214.77,334.48z"/>
		</g>
	</g>
	<g>
		<g>
			<path d="M244.61,380.13c1.61,0,1.61-2.5,0-2.5C243,377.63,243,380.13,244.61,380.13L244.61,380.13z"/>
		</g>
	</g>
	<g>
		<g>
			<path d="M270.94,364.32c1.61,0,1.61-2.5,0-2.5C269.34,361.82,269.33,364.32,270.94,364.32L270.94,364.32z"/>
		</g>
	</g>
	<g>
		<g>
			<path d="M234.08,361.69c1.61,0,1.61-2.5,0-2.5C232.47,359.19,232.47,361.69,234.08,361.69L234.08,361.69z"/>
		</g>
	</g>
	<g>
		<g>
			<path d="M262.17,330.97c1.61,0,1.61-2.5,0-2.5C260.56,328.47,260.56,330.97,262.17,330.97L262.17,330.97z"/>
		</g>
	</g>
	<g>
		<g>
			<path d="M258.66,377.49c1.61,0,1.61-2.5,0-2.5C257.05,374.99,257.04,377.49,258.66,377.49L258.66,377.49z"/>
		</g>
	</g>
	<g>
		<g>
			<path d="M244.61,330.97c1.61,0,1.61-2.5,0-2.5C243,328.47,243,330.97,244.61,330.97L244.61,330.97z"/>
		</g>
	</g>
	<g>
		<g>
			<path d="M264.8,313.41c1.61,0,1.61-2.5,0-2.5C263.19,310.91,263.19,313.41,264.8,313.41L264.8,313.41z"/>
		</g>
	</g>
	<g>
		<g>
			<path d="M245.49,356.42c1.61,0,1.61-2.5,0-2.5C243.88,353.92,243.88,356.42,245.49,356.42L245.49,356.42z"/>
		</g>
	</g>
	<g>
		<g>
			<path d="M249.88,313.41c1.61,0,1.61-2.5,0-2.5C248.27,310.91,248.27,313.41,249.88,313.41L249.88,313.41z"/>
		</g>
	</g>
	<g>
		<g>
			<path d="M222.67,303.76c1.61,0,1.61-2.5,0-2.5C221.06,301.26,221.05,303.76,222.67,303.76L222.67,303.76z"/>
		</g>
	</g>
	<g>
		<g>
			<path d="M227.93,329.21c1.61,0,1.61-2.5,0-2.5C226.32,326.71,226.32,329.21,227.93,329.21L227.93,329.21z"/>
		</g>
	</g>
	<g>
		<g>
			<path d="M223.54,273.03c1.61,0,1.61-2.5,0-2.5C221.94,270.53,221.93,273.03,223.54,273.03L223.54,273.03z"/>
		</g>
	</g>
	<g>
		<g>
			<path d="M267.43,298.49c1.61,0,1.61-2.5,0-2.5C265.83,295.99,265.82,298.49,267.43,298.49L267.43,298.49z"/>
		</g>
	</g>
	<g>
		<g>
			<path d="M240.22,263.38c1.61,0,1.61-2.5,0-2.5C238.61,260.88,238.61,263.38,240.22,263.38L240.22,263.38z"/>
		</g>
	</g>
	<g>
		<g>
			<path d="M216.52,294.98c1.61,0,1.61-2.5,0-2.5C214.91,292.48,214.91,294.98,216.52,294.98L216.52,294.98z"/>
		</g>
	</g>
	<g>
		<g>
			<path d="M256.02,302.88c1.61,0,1.61-2.5,0-2.5C254.41,300.38,254.41,302.88,256.02,302.88L256.02,302.88z"/>
		</g>
	</g>
	<g>
		<g>
			<path d="M224.42,352.04c1.61,0,1.61-2.5,0-2.5C222.81,349.54,222.81,352.04,224.42,352.04L224.42,352.04z"/>
		</g>
	</g>
	<g>
		<g>
			<path d="M267.43,352.04c1.61,0,1.61-2.5,0-2.5C265.83,349.54,265.82,352.04,267.43,352.04L267.43,352.04z"/>
		</g>
	</g>
	<g>
		<g>
			<path d="M271.82,516.18c1.61,0,1.61-2.5,0-2.5C270.21,513.68,270.21,516.18,271.82,516.18L271.82,516.18z"/>
		</g>
	</g>
	<g>
		<g>
			<path d="M247.24,478.44c1.61,0,1.61-2.5,0-2.5C245.64,475.94,245.63,478.44,247.24,478.44L247.24,478.44z"/>
		</g>
	</g>
	<g>
		<g>
			<path d="M254.27,511.79c1.61,0,1.61-2.5,0-2.5C252.66,509.29,252.66,511.79,254.27,511.79L254.27,511.79z"/>
		</g>
	</g>
	<g>
		<g>
			<path d="M291.13,489.85c1.61,0,1.61-2.5,0-2.5C289.53,487.35,289.52,489.85,291.13,489.85L291.13,489.85z"/>
		</g>
	</g>
	<g>
		<g>
			<path d="M263.92,494.24c1.61,0,1.61-2.5,0-2.5C262.31,491.74,262.31,494.24,263.92,494.24L263.92,494.24z"/>
		</g>
	</g>
	<g>
		<g>
			<path d="M283.23,436.3c1.61,0,1.61-2.5,0-2.5C281.63,433.8,281.62,436.3,283.23,436.3L283.23,436.3z"/>
		</g>
	</g>
	<g>
		<g>
			<path d="M280.6,503.02c1.61,0,1.61-2.5,0-2.5C278.99,500.52,278.99,503.02,280.6,503.02L280.6,503.02z"/>
		</g>
	</g>
	<g>
		<g>
			<path d="M271.82,463.52c1.61,0,1.61-2.5,0-2.5C270.21,461.02,270.21,463.52,271.82,463.52L271.82,463.52z"/>
		</g>
	</g>
	<g>
		<g>
			<path d="M267.43,483.71c1.61,0,1.61-2.5,0-2.5C265.83,481.21,265.82,483.71,267.43,483.71L267.43,483.71z"/>
		</g>
	</g>
	<g>
		<g>
			<path d="M292.01,474.93c1.61,0,1.61-2.5,0-2.5C290.4,472.43,290.4,474.93,292.01,474.93L292.01,474.93z"/>
		</g>
	</g>
	<g>
		<g>
			<path d="M257.78,444.2c1.61,0,1.61-2.5,0-2.5C256.17,441.7,256.17,444.2,257.78,444.2L257.78,444.2z"/>
		</g>
	</g>
	<g>
		<g>
			<path d="M254.27,465.27c1.61,0,1.61-2.5,0-2.5C252.66,462.77,252.66,465.27,254.27,465.27L254.27,465.27z"/>
		</g>
	</g>
	<g>
		<g>
			<path d="M256.02,422.26c1.61,0,1.61-2.5,0-2.5C254.41,419.76,254.41,422.26,256.02,422.26L256.02,422.26z"/>
		</g>
	</g>
	<g>
		<g>
			<path d="M273.58,452.1c1.61,0,1.61-2.5,0-2.5C271.97,449.6,271.97,452.1,273.58,452.1L273.58,452.1z"/>
		</g>
	</g>
	<g>
		<g>
			<path d="M292.89,460c1.61,0,1.61-2.5,0-2.5C291.28,457.5,291.28,460,292.89,460L292.89,460z"/>
		</g>
	</g>
	<g>
		<g>
			<path d="M314.83,441.57c1.61,0,1.61-2.5,0-2.5C313.23,439.07,313.22,441.57,314.83,441.57L314.83,441.57z"/>
		</g>
	</g>
	<g>
		<g>
			<path d="M288.5,409.97c1.61,0,1.61-2.5,0-2.5C286.89,407.47,286.89,409.97,288.5,409.97L288.5,409.97z"/>
		</g>
	</g>
	<g>
		<g>
			<path d="M306.06,451.23c1.61,0,1.61-2.5,0-2.5C304.45,448.73,304.45,451.23,306.06,451.23L306.06,451.23z"/>
		</g>
	</g>
	<g>
		<g>
			<path d="M300.79,428.4c1.61,0,1.61-2.5,0-2.5C299.18,425.9,299.18,428.4,300.79,428.4L300.79,428.4z"/>
		</g>
	</g>
	<g>
		<g>
			<path d="M275.33,417.87c1.61,0,1.61-2.5,0-2.5C273.73,415.37,273.72,417.87,275.33,417.87L275.33,417.87z"/>
		</g>
	</g>
	<g>
		<g>
			<path d="M304.3,409.97c1.61,0,1.61-2.5,0-2.5C302.69,407.47,302.69,409.97,304.3,409.97L304.3,409.97z"/>
		</g>
	</g>
	<g>
		<g>
			<path d="M244.61,438.94c1.61,0,1.61-2.5,0-2.5C243,436.44,243,438.94,244.61,438.94L244.61,438.94z"/>
		</g>
	</g>
	<g>
		<g>
			<path d="M335.02,441.57c1.61,0,1.61-2.5,0-2.5C333.42,439.07,333.41,441.57,335.02,441.57L335.02,441.57z"/>
		</g>
	</g>
	<g>
		<g>
			<path d="M356.09,402.07c1.61,0,1.61-2.5,0-2.5C354.48,399.57,354.48,402.07,356.09,402.07L356.09,402.07z"/>
		</g>
	</g>
	<g>
		<g>
			<path d="M342.05,425.77c1.61,0,1.61-2.5,0-2.5C340.44,423.27,340.44,425.77,342.05,425.77L342.05,425.77z"/>
		</g>
	</g>
	<g>
		<g>
			<path d="M362.24,435.43c1.61,0,1.61-2.5,0-2.5C360.63,432.93,360.62,435.43,362.24,435.43L362.24,435.43z"/>
		</g>
	</g>
	<g>
		<g>
			<path d="M396.47,412.6c1.61,0,1.61-2.5,0-2.5C394.86,410.1,394.86,412.6,396.47,412.6L396.47,412.6z"/>
		</g>
	</g>
	<g>
		<g>
			<path d="M364.87,416.11c1.61,0,1.61-2.5,0-2.5C363.26,413.61,363.26,416.11,364.87,416.11L364.87,416.11z"/>
		</g>
	</g>
	<g>
		<g>
			<path d="M383.3,426.65c1.61,0,1.61-2.5,0-2.5C381.69,424.15,381.69,426.65,383.3,426.65L383.3,426.65z"/>
		</g>
	</g>
	<g>
		<g>
			<path d="M372.77,361.69c1.61,0,1.61-2.5,0-2.5C371.16,359.19,371.16,361.69,372.77,361.69L372.77,361.69z"/>
		</g>
	</g>
	<g>
		<g>
			<path d="M352.58,375.74c1.61,0,1.61-2.5,0-2.5C350.97,373.24,350.97,375.74,352.58,375.74L352.58,375.74z"/>
		</g>
	</g>
	<g>
		<g>
			<path d="M389.45,382.76c1.61,0,1.61-2.5,0-2.5C387.84,380.26,387.84,382.76,389.45,382.76L389.45,382.76z"/>
		</g>
	</g>
	<g>
		<g>
			<path d="M371.89,402.07c1.61,0,1.61-2.5,0-2.5C370.28,399.57,370.28,402.07,371.89,402.07L371.89,402.07z"/>
		</g>
	</g>
	<g>
		<g>
			<path d="M384.18,410.85c1.61,0,1.61-2.5,0-2.5C382.57,408.35,382.57,410.85,384.18,410.85L384.18,410.85z"/>
		</g>
	</g>
	<g>
		<g>
			<path d="M373.65,378.37c1.61,0,1.61-2.5,0-2.5C372.04,375.87,372.04,378.37,373.65,378.37L373.65,378.37z"/>
		</g>
	</g>
	<g>
		<g>
			<path d="M409.64,402.07c1.61,0,1.61-2.5,0-2.5C408.03,399.57,408.03,402.07,409.64,402.07L409.64,402.07z"/>
		</g>
	</g>
	<g>
		<g>
			<path d="M391.2,368.71c1.61,0,1.61-2.5,0-2.5C389.59,366.21,389.59,368.71,391.2,368.71L391.2,368.71z"/>
		</g>
	</g>
	<g>
		<g>
			<path d="M420.17,387.15c1.61,0,1.61-2.5,0-2.5C418.56,384.65,418.56,387.15,420.17,387.15L420.17,387.15z"/>
		</g>
	</g>
	<g>
		<g>
			<path d="M412.27,352.91c1.61,0,1.61-2.5,0-2.5C410.66,350.41,410.66,352.91,412.27,352.91L412.27,352.91z"/>
		</g>
	</g>
	<g>
		<g>
			<path d="M389.45,397.68c1.61,0,1.61-2.5,0-2.5C387.84,395.18,387.84,397.68,389.45,397.68L389.45,397.68z"/>
		</g>
	</g>
	<g>
		<g>
			<path d="M405.25,379.25c1.61,0,1.61-2.5,0-2.5C403.64,376.75,403.64,379.25,405.25,379.25L405.25,379.25z"/>
		</g>
	</g>
	<g>
		<g>
			<path d="M380.67,345.01c1.61,0,1.61-2.5,0-2.5C379.06,342.51,379.06,345.01,380.67,345.01L380.67,345.01z"/>
		</g>
	</g>
	<g>
		<g>
			<path d="M396.47,346.77c1.61,0,1.61-2.5,0-2.5C394.86,344.27,394.86,346.77,396.47,346.77L396.47,346.77z"/>
		</g>
	</g>
	<g>
		<g>
			<path d="M415.78,333.6c1.61,0,1.61-2.5,0-2.5C414.17,331.1,414.17,333.6,415.78,333.6L415.78,333.6z"/>
		</g>
	</g>
	<g>
		<g>
			<path d="M424.56,369.59c1.61,0,1.61-2.5,0-2.5C422.95,367.09,422.95,369.59,424.56,369.59L424.56,369.59z"/>
		</g>
	</g>
	<g>
		<g>
			<path d="M422.8,345.01c1.61,0,1.61-2.5,0-2.5C421.2,342.51,421.19,345.01,422.8,345.01L422.8,345.01z"/>
		</g>
	</g>
	<g>
		<g>
			<path d="M407,281.81c1.61,0,1.61-2.5,0-2.5C405.39,279.31,405.39,281.81,407,281.81L407,281.81z"/>
		</g>
	</g>
	<g>
		<g>
			<path d="M402.61,299.37c1.61,0,1.61-2.5,0-2.5C401.01,296.87,401,299.37,402.61,299.37L402.61,299.37z"/>
		</g>
	</g>
	<g>
		<g>
			<path d="M414.03,311.66c1.61,0,1.61-2.5,0-2.5C412.42,309.16,412.41,311.66,414.03,311.66L414.03,311.66z"/>
		</g>
	</g>
	<g>
		<g>
			<path d="M427.19,292.35c1.61,0,1.61-2.5,0-2.5C425.58,289.85,425.58,292.35,427.19,292.35L427.19,292.35z"/>
		</g>
	</g>
	<g>
		<g>
			<path d="M402.61,314.29c1.61,0,1.61-2.5,0-2.5C401.01,311.79,401,314.29,402.61,314.29L402.61,314.29z"/>
		</g>
	</g>
	<g>
		<g>
			<path d="M396.47,289.71c1.61,0,1.61-2.5,0-2.5C394.86,287.21,394.86,289.71,396.47,289.71L396.47,289.71z"/>
		</g>
	</g>
	<g>
		<g>
			<path d="M416.66,302.88c1.61,0,1.61-2.5,0-2.5C415.05,300.38,415.05,302.88,416.66,302.88L416.66,302.88z"/>
		</g>
	</g>
	<g>
		<g>
			<path d="M418.41,282.69c1.61,0,1.61-2.5,0-2.5C416.81,280.19,416.8,282.69,418.41,282.69L418.41,282.69z"/>
		</g>
	</g>
	<g>
		<g>
			<path d="M407.88,294.1c1.61,0,1.61-2.5,0-2.5C406.27,291.6,406.27,294.1,407.88,294.1L407.88,294.1z"/>
		</g>
	</g>
	<g>
		<g>
			<path d="M320.98,263.38c1.61,0,1.61-2.5,0-2.5C319.37,260.88,319.37,263.38,320.98,263.38L320.98,263.38z"/>
		</g>
	</g>
	<g>
		<g>
			<path d="M291.13,272.16c1.61,0,1.61-2.5,0-2.5C289.53,269.66,289.52,272.16,291.13,272.16L291.13,272.16z"/>
		</g>
	</g>
	<g>
		<g>
			<path d="M310.45,252.84c1.61,0,1.61-2.5,0-2.5C308.84,250.34,308.83,252.84,310.45,252.84L310.45,252.84z"/>
		</g>
	</g>
	<g>
		<g>
			<path d="M295.52,280.93c1.61,0,1.61-2.5,0-2.5C293.91,278.43,293.91,280.93,295.52,280.93L295.52,280.93z"/>
		</g>
	</g>
	<g>
		<g>
			<path d="M306.06,266.01c1.61,0,1.61-2.5,0-2.5C304.45,263.51,304.45,266.01,306.06,266.01L306.06,266.01z"/>
		</g>
	</g>
	<g>
		<g>
			<path d="M312.2,276.55c1.61,0,1.61-2.5,0-2.5C310.59,274.05,310.59,276.55,312.2,276.55L312.2,276.55z"/>
		</g>
	</g>
</g>
</svg>
