<?xml version="1.0" encoding="utf-8"?>
<!-- Generator: Adobe Illustrator 25.4.1, SVG Export Plug-In . SVG Version: 6.00 Build 0)  -->
<svg version="1.1" id="Layer_1" xmlns="http://www.w3.org/2000/svg" xmlns:xlink="http://www.w3.org/1999/xlink" x="0px" y="0px"
	 viewBox="0 0 595.28 841.89" style="enable-background:new 0 0 595.28 841.89;" xml:space="preserve">
<style type="text/css">
	.st0{fill:#425F3A;}
	.st1{fill:none;stroke:#39B54A;stroke-width:3;stroke-miterlimit:10;}
	.st2{fill:#8DC63F;}
	.st3{fill:#009444;}
</style>
<g>
	<g>
		<path class="st0" d="M255.2,551.38c1.75-27.48,0.05-29.1,0.54-38.95c1.58-31.63,0.76-48.94-1.26-80.55
			c-0.14-2.12,2.89-27.48,1.83-29.32c-2.14-3.71-1.32-3.98-19.94-4.52c-8.87-0.26-8.64-0.05-16.11-2.89
			c-12.75-4.86-6.79-3.89-20.45-17.28c-2.27-2.23-7-6.92-12.19-20.27c-4.88-12.55-8.89-24.58-9.38-38.04
			c-0.34-9.44-3.41-18.45-4.29-27.86c-1.98-21.43-3.25-34.35,2.41-51.7c2.66-8.13,6.36-20.05,13.39-24.91
			c14.19-9.81,24.15,0.72,31.07,12.86c11.75,20.61,9.09,48.63,7.77,72.32c-0.64,11.51-1.55,21.77,3.48,32.14
			c5.04,10.37,13.65,37.9,23.3,31.61c-5.63-26.61,1.06-53.73-3.45-80.51c-0.88-5.24,0.39-10.65-0.36-15.82
			c-2.35-16.08,0.52-33.27,2.95-47.36c2.73-15.79-5.04-33.27,6.01-47.71c10.84-14.17,25.39-31.14,41.48-23.43
			c8.87,4.25,10.02,16.34,17.2,23.07c8.41,7.89,4.48,30.62,8.08,58.72c-1.14,21.66-6.81,50.03-6.08,73.1
			c3.28,11.62-2.25,27.29-2.93,40.7c2.99,20.67-1.19,45.35,1.36,64.32c7.41,3.85,16.08-19.21,21.27-25.75s2.61-25.86,3.75-34.13
			c2.23-16.12,3.94-25.18,2.68-41.4c-0.26-3.38,6.02-19.59,8.08-22.28c6.16-8.02,5.73-11.22,12.05-14.77
			c15.67-8.81,32.19,1.74,35.05,11.34c8.45,28.41-1.61,49.29-2.68,76.07c-0.82,20.42,0.27,23.02-10.71,45
			c-6.96,13.93-4.91,7.46-28.93,31.61c-6.24,6.27-16.49,19.27-27.86,20.89c-6.08,0.87-3.33,13.69-3.75,19.82
			c-1.75,25.71,0.28,50.18-1.48,75.88"/>
		<g>
			<path d="M256.45,551.38c0.56-8.97,1.01-17.96,0.71-26.95c-0.18-5.47-0.21-10.82,0.03-16.3c1.09-24.3,0.29-48.46-1.24-72.73
				c-0.4-6.34,0.54-12.61,1.09-18.93c0.3-3.47,0.62-6.94,0.72-10.42c0.05-1.84,0.07-3.39-0.87-4.99c-2.34-3.98-7.23-3.73-11.36-3.94
				c-5.31-0.27-10.66-0.14-15.95-0.59c-4.02-0.34-7.9-2.11-11.6-3.61c-2.4-0.97-4.8-2-6.57-3.93c-2.12-2.31-3.94-4.89-6.06-7.21
				c-2.43-2.66-5.18-5.05-7.47-7.83c-2.73-3.31-4.82-7.14-6.64-11.01c-2.89-6.16-5.2-12.68-7.24-19.17
				c-1.99-6.32-3.54-12.81-4.19-19.42c-0.33-3.32-0.34-6.66-0.76-9.98c-0.4-3.18-1-6.32-1.63-9.46c-1.37-6.86-2.29-13.65-2.9-20.62
				c-0.97-11.03-1.74-22.21,0.27-33.17c0.98-5.32,2.61-10.45,4.34-15.56c1.69-4.97,3.59-9.98,6.54-14.36
				c3.01-4.47,7.87-7.99,13.32-8.64c5.09-0.6,9.6,1.99,13.09,5.49c7.87,7.88,12.36,18.94,14.49,29.7
				c2.35,11.85,2.21,24.08,1.67,36.1c-0.26,5.84-0.64,11.68-0.97,17.51c-0.36,6.36-0.8,12.76,0.03,19.1
				c0.69,5.31,2.55,9.93,4.7,14.77c1.61,3.63,3.08,7.33,4.67,10.97c1.7,3.9,3.48,7.79,5.69,11.43c1.68,2.78,3.71,5.78,6.56,7.48
				c2.28,1.36,4.83,1.38,7.09-0.02c0.5-0.31,0.69-0.85,0.57-1.41c-4.49-21.65-0.91-43.74-1.92-65.62
				c-0.25-5.42-1.15-10.69-1.69-16.07c-0.53-5.26,0.31-10.5-0.36-15.78c-1.33-10.39-0.58-20.97,0.83-31.31
				c0.65-4.77,1.5-9.5,2.27-14.25c0.71-4.32,0.76-8.68,0.55-13.05c-0.41-8.84-1.76-18.06,1.15-26.62c1.55-4.54,4.46-8.2,7.42-11.9
				c2.78-3.47,5.68-6.86,8.85-9.97c5.63-5.52,12.94-11.13,21.28-10.57c3.96,0.27,7.85,1.93,10.58,4.84c2.53,2.7,4.15,6.15,5.82,9.41
				c1.66,3.24,3.38,6.5,5.84,9.22c1.88,2.07,3.39,3.76,4.33,6.47c2.26,6.56,2.23,13.9,2.47,20.75c0.34,9.58,0.59,19.16,1.65,28.7
				c0.51,4.59-0.02,9.13-0.47,13.72c-0.46,4.72-1.01,9.44-1.58,14.15c-1.17,9.81-2.41,19.61-3.14,29.47
				c-0.36,4.85-0.6,9.72-0.59,14.58c0,2.19,0.09,4.14,0.53,6.27c0.47,2.3,0.6,4.66,0.57,7.01c-0.13,9.56-2.76,18.88-3.7,28.36
				c-0.47,4.7,0.51,9.43,0.72,14.14c0.22,4.94,0.18,9.88,0.07,14.82c-0.22,9.72-0.81,19.44-0.45,29.16c0.08,2.14,0.21,4.27,0.41,6.4
				c0.15,1.56-0.15,3.7,1.51,4.39c1.91,0.8,3.95,0.12,5.56-1.01c4.75-3.35,7.68-9.49,10.4-14.44c1.48-2.68,2.89-5.39,4.48-8.01
				c1.25-2.06,2.82-3.86,3.68-6.14c2.39-6.37,1.95-13.85,1.92-20.53c-0.01-3.21-0.1-6.45,0.17-9.66c0.38-4.47,1.23-8.93,1.82-13.37
				c1.21-9.16,1.75-18.29,1.15-27.52c-0.38-5.73,2.3-11.48,4.43-16.69c2.34-5.73,5.87-10.58,9.2-15.77
				c4.44-6.92,13.74-9.6,21.57-8.2c6.99,1.25,14.84,5.93,17.26,12.97c6.45,18.76,2.28,38.48-0.62,57.42
				c-1.37,8.96-1.95,17.87-2.27,26.92c-0.21,6-0.57,11.95-2.32,17.73c-2.2,7.28-5.73,14.21-9.21,20.94
				c-1.38,2.67-2.83,5.32-4.9,7.52c-2.55,2.72-5.51,5.08-8.28,7.59c-5.76,5.23-11.43,10.63-16.76,16.31
				c-5.41,5.76-10.88,11.92-17.96,15.66c-1.76,0.93-3.61,1.66-5.56,2.09c-1.38,0.3-2.62,0.41-3.72,1.39
				c-1.94,1.73-2.31,4.64-2.46,7.08c-0.21,3.35,0.14,6.71,0.23,10.06c0.12,4.59-0.43,9.21-0.57,13.8c-0.35,10.9-0.2,21.8-0.16,32.7
				c0.04,10.71-0.05,21.43-0.77,32.12c-0.11,1.61,2.39,1.6,2.5,0c1.63-24.48-0.13-49.02,1.32-73.5c0.22-3.76,0.03-7.42-0.08-11.18
				c-0.08-2.51-0.62-7.7,1.87-9.4c1.28-0.87,3.37-0.81,4.83-1.32c2.03-0.71,3.97-1.68,5.79-2.81c3.89-2.41,7.34-5.5,10.58-8.72
				c6.26-6.23,12.21-12.72,18.66-18.78c3.73-3.51,7.7-6.77,11.36-10.35c2.35-2.3,4.09-4.96,5.63-7.84c3.73-7,7.38-14.29,9.81-21.86
				c2-6.25,2.43-12.7,2.66-19.23c0.37-10.39,1.23-20.55,2.9-30.82c1.63-9.99,3.41-20.01,3.42-30.17c0-5.21-0.46-10.42-1.43-15.53
				c-0.85-4.5-1.74-9.28-4.5-13.05c-4.91-6.72-13.45-10.71-21.73-10.6c-4.76,0.06-9.51,1.49-13.55,4.01
				c-2.79,1.74-4.71,4.1-6.4,6.88c-1.13,1.85-2.23,3.7-3.47,5.47c-0.9,1.29-1.9,2.48-2.64,3.88c-1.44,2.73-2.58,5.64-3.69,8.51
				c-1.23,3.2-2.43,6.47-3.21,9.82c-0.84,3.61-0.09,7.39-0.02,11.06c0.21,10.35-1.28,20.53-2.72,30.74
				c-1.07,7.64-0.45,15.31-0.81,22.99c-0.17,3.64-0.41,7.59-1.87,10.99c-1.04,2.42-2.95,4.53-4.26,6.83
				c-3.45,6.05-6.35,12.88-11.09,18.08c-1.27,1.39-3.38,3.54-5.47,2.54c0.21,0.36,0.41,0.72,0.62,1.08
				c-2.33-17.83,0.42-35.91-0.41-53.81c-0.2-4.35-1.16-8.8-0.77-13.13c0.42-4.57,1.24-9.09,2-13.61c0.71-4.25,1.4-8.52,1.66-12.82
				c0.25-4.11-0.33-7.82-0.88-11.85c-0.58-4.22-0.08-8.84,0.14-13.08c0.24-4.65,0.62-9.29,1.08-13.92
				c0.9-9.09,2.09-18.15,3.12-27.23c0.47-4.16,0.92-8.32,1.26-12.49c0.17-2.03,0.48-4.14,0.43-6.18c-0.07-2.49-0.59-5.04-0.81-7.52
				c-0.77-8.65-0.93-17.32-1.27-25.99c-0.24-6.21-0.39-12.73-2.2-18.73c-0.65-2.17-1.58-4.28-2.99-6.07
				c-0.8-1.01-1.79-1.84-2.62-2.81c-1.19-1.39-2.18-2.95-3.09-4.54c-3.23-5.65-5.5-12.38-11.12-16.18
				c-5.75-3.89-13.18-3.86-19.39-1.19c-7.1,3.06-12.86,8.76-17.88,14.49c-5.26,6.01-10.84,12.35-12.84,20.27
				c-1.98,7.84-1,16-0.59,23.96c0.22,4.23,0.33,8.52-0.32,12.72c-0.67,4.37-1.49,8.72-2.13,13.09c-1.34,9.33-2.24,18.78-1.68,28.21
				c0.29,4.88,1.06,9.59,0.86,14.5c-0.1,2.4-0.21,4.8,0.06,7.19c0.28,2.55,0.77,5.08,1.04,7.64c2.13,20.05-0.94,40.2,0.64,60.28
				c0.37,4.72,1.01,9.42,1.97,14.06c0.19-0.47,0.38-0.94,0.57-1.41c-5.97,3.71-11.19-8-13.08-11.83c-1.92-3.89-3.6-7.9-5.27-11.91
				c-1.68-4.01-3.78-7.95-5.1-12.09c-1.95-6.13-2.12-12.58-1.87-18.95c0.23-6.03,0.67-12.06,1.01-18.09
				c0.68-12.07,1.16-24.25-0.37-36.27c-1.42-11.19-4.74-21.92-11.15-31.29c-5.29-7.72-13.38-14.91-23.39-11.73
				c-10.42,3.32-14.98,13.21-18.34,22.78c-3.52,10.03-5.96,20.08-6.15,30.75c-0.1,5.74,0.28,11.48,0.75,17.2
				c0.55,6.6,1.1,13.18,2.36,19.7c0.63,3.28,1.34,6.54,1.9,9.83c0.61,3.58,0.82,7.13,1.05,10.74c0.42,6.38,1.63,12.69,3.35,18.85
				c1.82,6.48,4.12,12.86,6.67,19.09c1.92,4.69,4.13,9.33,7.07,13.48c1.57,2.22,3.36,4.18,5.29,6.09c3.15,3.12,6.05,6.4,8.82,9.86
				c3.97,4.97,10.26,6.94,16.14,8.84c3.99,1.29,8.16,1.18,12.31,1.3c4.6,0.14,9.32,0.07,13.89,0.72c1.55,0.22,2.94,0.57,3.68,1.62
				c1.04,1.48,0.99,2,0.95,3.99c-0.14,7.08-1.04,14.16-1.68,21.2c-0.83,9.07,0.5,18.27,0.95,27.35c0.58,11.54,0.89,23.08,0.73,34.63
				c-0.13,9.66-1.07,19.37-0.86,29.03c0.12,5.56,0.41,11.09,0.3,16.65c-0.11,5.64-0.41,11.27-0.77,16.9
				C253.85,552.99,256.35,552.98,256.45,551.38L256.45,551.38z"/>
		</g>
	</g>
	<path class="st1" d="M380.23,272.5c8.28,1.49,2.67,21.44,1.25,30.72c-1.41,9.27-4.23,18.29-5.73,27.55
		c-2.59,16.01-1.2,32.36-1.76,48.56c-0.11,3.23-0.32,6.53-1.61,9.49c-2.44,5.57-8.31,9.02-10.9,14.53
		c-2.14,4.55-1.87,10.19-5.01,14.1c-2.03,2.53-5.18,3.91-7.42,6.27c-1.75,1.85-2.85,4.21-4.29,6.32
		c-7.66,11.23-23.49,13.73-32.89,23.56c-6.55,6.86-9.25,16.64-9.66,26.12c-0.42,9.48,1.2,18.91,2.1,28.36
		c1.32,13.95,3.57,29.74,3.04,43.3"/>
	<path class="st1" d="M195.26,218.65c-15.51,5-8.78,40.39-8.72,61.11c0.02,5.35,0.03,10.71,0.05,16.06
		c0.04,12.25,0.27,25.23,6.78,35.6c3.04,4.85,7.43,9.07,8.83,14.62c1.34,5.29-0.07,11.57,3.45,15.74c2.34,2.77,6.27,3.73,8.8,6.33
		c1.93,1.98,2.85,4.72,4.46,6.98c1.56,2.19,3.72,3.87,5.84,5.52c8.39,6.5,17.49,13.28,28.09,13.87c2,0.11,4.17,0.05,5.76,1.27
		c1.01,0.77,1.61,1.95,2.18,3.09c4.29,8.58,8.63,17.34,10.05,26.82c1.1,7.4,0.37,14.95-0.45,22.39
		c-1.46,13.26-3.21,26.49-5.22,39.68c-0.67,4.39-1.38,8.87-0.64,13.25c0.56,3.35,1.94,6.51,2.59,9.85
		c2.47,12.57-1.26,28.79-1.67,41.78"/>
	<g>
		<g>
			<path class="st2" d="M233.82,391.26c1.05-0.08,2.11-0.08,3.17,0c0.24,0.02,0.49,0.04,0.73,0.07c0.14,0.02,0.28,0.03,0.42,0.05
				c0.09,0.01,0.08,0.01-0.03,0c0.08,0.01,0.16,0.02,0.24,0.04c0.52,0.08,1.04,0.18,1.56,0.3c0.64,0.15,1.38-0.2,1.54-0.87
				c0.15-0.64-0.19-1.38-0.87-1.54c-2.21-0.51-4.49-0.7-6.75-0.54c-0.65,0.05-1.28,0.54-1.25,1.25
				C232.6,390.65,233.12,391.31,233.82,391.26L233.82,391.26z"/>
		</g>
	</g>
	<g>
		<g>
			<path class="st2" d="M299.19,279.98c1.61,0,1.61-2.5,0-2.5C297.58,277.48,297.58,279.98,299.19,279.98L299.19,279.98z"/>
		</g>
	</g>
	<g>
		<path class="st3" d="M254.78,552.48c22.9,0,49.44,0,72.34,0"/>
		<g>
			<path d="M254.78,553.73c18.88,0,37.76,0,56.64,0c5.23,0,10.47,0,15.7,0c1.61,0,1.61-2.5,0-2.5c-18.88,0-37.76,0-56.64,0
				c-5.23,0-10.47,0-15.7,0C253.17,551.23,253.16,553.73,254.78,553.73L254.78,553.73z"/>
		</g>
	</g>
	<path class="st1" d="M287.34,156.24c0.01-0.78,0.62,11.72,0.57,19.02c-0.11,15.52-0.23,31.22-4.04,46.26
		c-3.14,12.44-8.8,25.2-5.48,37.59c1.37,5.12,4.2,9.71,6.07,14.67c3.6,9.58,3.48,20.12,3.17,30.35
		c-1.32,43.58-5.06,87.22-1.85,130.7c1.14,15.47,3.16,30.94,2.58,46.44c-0.41,10.88-1.74,23.17-2.65,33.74
		c-0.94,10.9-0.07,33.39-0.07,37.6"/>
	<path class="st1" d="M287.67,154.68c9.94-0.3,13.62,14.51,14.96,23.9c1.34,9.38,0.47,18.92,0.45,28.4
		c-0.03,19.25,3.51,38.41,2.83,57.65c-0.61,17.14-4.56,34.09-4.39,51.25c0.16,16.28,4.04,32.41,3.55,48.69
		c-0.4,13.25-3.69,26.42-2.58,39.64c0.41,4.85,1.4,9.81,0.14,14.51c-0.92,3.45-3,7.16-1.32,10.31c2.02,3.8,7.64,3.32,11.61,1.64
		c11.42-4.84,19.93-14.74,26.62-25.18c15.86-24.74,23.83-54.47,22.46-83.83c-0.27-5.86-0.9-11.76-0.16-17.58
		c0.74-5.82,3.06-11.71,7.63-15.39c2.3-1.85,5.28-3.32,6.16-6.13c0.46-1.45,0.26-3.02,0.61-4.5c0.35-1.48,2.51-5.85,3.99-5.53"/>
	<path class="st1" d="M287.67,154.68c-4.8,0-4.51,2.82-5.92,5.69c-0.54,1.1-1.84,1.69-2.37,2.8c-0.56,1.17-0.64,2.5-0.92,3.76
		c-1.21,5.52-6.1,9.43-8.54,14.53c-2.37,4.96-2.29,10.69-2.25,16.18c0.09,14.03-0.47,28.23-4.36,41.7
		c-1.83,6.34-4.42,12.86-3.08,19.32c0.97,4.67,3.89,8.67,5.57,13.13c1.84,4.89,2.15,10.21,2.37,15.44
		c0.35,8.49,0.49,16.99,0.64,25.49c0.23,13.43,0.47,26.86,0.7,40.29c0.08,4.58,0.15,9.25-1.11,13.65s-4.08,8.6-8.3,10.39
		c-7.53,3.2-15.84-2.1-21.91-7.58c-6.05-5.46-11.68-11.39-16.82-17.73c-2.21-2.73-4.36-5.57-5.77-8.79
		c-1.78-4.06-2.31-8.53-2.83-12.93c-2.36-20.1-4.72-40.25-4.75-60.48c-0.01-5.15,0.13-10.4-1.31-15.34
		c-1.57-5.43-5.01-10.44-4.98-16.09c0.02-3.5,1.4-6.91,1.26-10.41s-5.33-10.32-9.43-8.33"/>
	<g>
		<g>
			<g>
				<path class="st2" d="M181.31,237.5c0.19,0.21,0.38,0.42,0.57,0.64c0.09,0.11,0.18,0.22,0.27,0.33c0.03,0.04,0.3,0.39,0.13,0.17
					c0.34,0.45,0.66,0.92,0.96,1.4c0.3,0.48,0.57,0.98,0.82,1.49c0.13,0.25,0.24,0.51,0.36,0.77c0.06,0.13,0.06,0.13,0,0
					c0.03,0.07,0.05,0.13,0.08,0.2c0.05,0.13,0.1,0.26,0.15,0.4c0.18,0.48,0.51,0.82,1.04,0.9c0.51,0.07,0.96-0.17,1.25-0.6
					c1.4-2.09,1.86-4.68,1.42-7.14c-0.12-0.64-0.94-1.07-1.54-0.87c-0.69,0.22-1,0.85-0.87,1.54c0.01,0.06,0.1,0.5,0.03,0.18
					c0.03,0.13,0.03,0.28,0.04,0.41c0.02,0.24,0.02,0.48,0.02,0.72c0,0.27-0.03,0.55-0.05,0.82c-0.03,0.27,0.05-0.22-0.01,0.07
					c-0.03,0.13-0.05,0.27-0.08,0.4c-0.05,0.23-0.11,0.47-0.18,0.7c-0.04,0.13-0.08,0.26-0.13,0.39c-0.02,0.05-0.18,0.46-0.06,0.18
					c-0.2,0.47-0.45,0.92-0.74,1.35c0.76,0.1,1.52,0.2,2.28,0.3c-0.9-2.41-2.24-4.6-3.99-6.49c-0.45-0.48-1.32-0.49-1.77,0
					C180.84,236.25,180.84,236.99,181.31,237.5L181.31,237.5z"/>
			</g>
		</g>
		<g>
			<g>
				<path class="st2" d="M182.56,275.31c0.17,0.04,0.35,0.1,0.52,0.15c0.07,0.03,0.16,0.05,0.23,0.09
					c-0.26-0.15,0.01,0.01,0.06,0.03c0.32,0.16,0.63,0.35,0.92,0.55c0.19,0.14-0.09-0.09,0.02,0.02c0.06,0.06,0.13,0.11,0.19,0.16
					c0.15,0.13,0.28,0.27,0.42,0.41c0.05,0.06,0.11,0.12,0.16,0.18c0.09,0.1,0.11,0.15,0.02,0.02c0.11,0.16,0.22,0.32,0.32,0.49
					c0.36-0.63,0.72-1.25,1.08-1.88c-0.38,0.02-0.76,0.04-1.15,0.06c0.42,0.42,0.83,0.83,1.25,1.25c-0.01-0.54,0.01-1.08,0.07-1.62
					c0.01-0.12,0.02-0.23,0.04-0.35c-0.03,0.28,0.03-0.19,0.04-0.24c0.04-0.25,0.09-0.49,0.14-0.74c0.11-0.51,0.25-1.01,0.42-1.51
					c0.09-0.26,0.18-0.51,0.28-0.76c0.14-0.35-0.1,0.22,0.05-0.13c0.06-0.14,0.13-0.28,0.19-0.42c0.28-0.59,0.18-1.38-0.45-1.71
					c-0.56-0.29-1.41-0.18-1.71,0.45c-1.04,2.2-1.6,4.59-1.57,7.03c0.01,0.65,0.57,1.29,1.25,1.25c0.38-0.02,0.76-0.04,1.15-0.06
					c0.92-0.05,1.59-1.03,1.08-1.88c-0.96-1.6-2.53-2.79-4.34-3.26c-0.63-0.16-1.39,0.21-1.54,0.87
					C181.54,274.42,181.88,275.14,182.56,275.31L182.56,275.31z"/>
			</g>
		</g>
		<g>
			<g>
				<path class="st2" d="M182.56,301.81c0.22,0.12,0.43,0.25,0.64,0.4c0.04,0.03,0.2,0.17,0.05,0.04c-0.15-0.14,0.01,0.01,0.05,0.04
					c0.1,0.08,0.19,0.16,0.28,0.25c0.18,0.17,0.36,0.35,0.52,0.54c0.04,0.05,0.08,0.1,0.12,0.14c0.09,0.11,0.04,0.16-0.03-0.05
					c0.04,0.1,0.16,0.21,0.22,0.31c0.14,0.21,0.27,0.42,0.38,0.65c0.06,0.11,0.11,0.22,0.16,0.34c0.07,0.15-0.02-0.04-0.04-0.09
					c0.02,0.06,0.05,0.12,0.07,0.17c0.09,0.23,0.16,0.47,0.22,0.72c0.03,0.12,0.06,0.24,0.08,0.37c0.01,0.06,0.01,0.13,0.03,0.18
					c-0.01-0.06-0.02-0.12-0.02-0.18c0.01,0.05,0.01,0.1,0.02,0.15c0.04,0.34,0.12,0.63,0.37,0.88c0.22,0.22,0.57,0.38,0.88,0.37
					c0.62-0.03,1.32-0.55,1.25-1.25c-0.14-1.27-0.53-2.49-1.24-3.56c-0.7-1.05-1.63-1.95-2.74-2.56c-0.57-0.31-1.39-0.16-1.71,0.45
					C181.8,300.69,181.94,301.48,182.56,301.81L182.56,301.81z"/>
			</g>
		</g>
		<g>
			<g>
				<path class="st2" d="M194.46,335.26c0.03-0.28,0.06-0.56,0.09-0.84c-0.03,0.25,0.01-0.09,0.02-0.15
					c0.02-0.16,0.05-0.32,0.07-0.48c0.09-0.52,0.19-1.03,0.3-1.54c0.24-1.06,0.55-2.1,0.92-3.12c0.22-0.62-0.25-1.4-0.87-1.54
					c-0.7-0.16-1.3,0.21-1.54,0.87c-0.79,2.19-1.28,4.47-1.5,6.79c-0.06,0.65,0.62,1.28,1.25,1.25
					C193.94,336.48,194.39,335.96,194.46,335.26L194.46,335.26z"/>
			</g>
		</g>
		<g>
			<g>
				<path class="st2" d="M202.16,365.65c1.14,0.33,2.27,0.71,3.38,1.14c0.97,0.38,2.03,0.87,3.07,1.41c0.8,0.41,1.92-0.08,1.88-1.08
					c-0.04-1.05-0.02-2.1,0.08-3.15c0.09-0.94,0.25-1.88,0.49-2.91c0.15-0.64-0.2-1.38-0.87-1.54c-0.64-0.15-1.38,0.19-1.54,0.87
					c-0.52,2.2-0.75,4.47-0.66,6.73c0.63-0.36,1.25-0.72,1.88-1.08c-2.25-1.16-4.61-2.1-7.04-2.8c-0.63-0.18-1.39,0.22-1.54,0.87
					C201.13,364.78,201.48,365.46,202.16,365.65L202.16,365.65z"/>
			</g>
		</g>
		<g>
			<g>
				<path class="st2" d="M201.53,260.98c1.59,2.53,3.55,4.84,5.8,6.81c0.55,0.48,1.6,0.53,1.96-0.25c0.91-1.94,1.34-4.07,1.13-6.21
					c-0.06-0.65-0.53-1.28-1.25-1.25c-0.62,0.03-1.32,0.55-1.25,1.25c0.05,0.47,0.06,0.93,0.05,1.4c-0.01,0.21-0.02,0.43-0.04,0.64
					c0,0.04-0.04,0.38-0.02,0.24c0.02-0.14-0.03,0.2-0.04,0.24c-0.08,0.44-0.18,0.88-0.31,1.31c-0.07,0.22-0.14,0.44-0.23,0.66
					c-0.01,0.03-0.12,0.31-0.07,0.18c0.04-0.1-0.11,0.24-0.13,0.28c0.65-0.08,1.31-0.17,1.96-0.25c-1.07-0.94-2.08-1.95-3.01-3.03
					c-0.23-0.26-0.45-0.53-0.66-0.8c-0.05-0.06-0.1-0.12-0.14-0.18c-0.23-0.29,0.08,0.1-0.05-0.07c-0.1-0.14-0.21-0.28-0.31-0.42
					c-0.43-0.59-0.84-1.19-1.23-1.81c-0.35-0.55-1.13-0.82-1.71-0.45C201.42,259.62,201.15,260.38,201.53,260.98L201.53,260.98z"/>
			</g>
		</g>
		<g>
			<g>
				<path class="st2" d="M205.55,313.85c0.93,1.73,1.87,3.47,2.8,5.2c0.24,0.44,0.77,0.66,1.25,0.6c0.45-0.06,0.96-0.41,1.04-0.9
					c0.11-0.67,0.29-1.32,0.53-1.95c0.03-0.07,0.05-0.14,0.08-0.21c-0.07,0.17-0.01,0.02,0.03-0.06c0.07-0.15,0.14-0.3,0.22-0.45
					c0.16-0.3,0.33-0.59,0.51-0.87c0.08-0.13,0.17-0.25,0.25-0.37c0,0.01,0.19-0.26,0.1-0.14c-0.08,0.1,0.06-0.08,0.08-0.09
					c0.21-0.26,0.44-0.51,0.68-0.75c0.24-0.24,0.49-0.47,0.75-0.68c0.03-0.03,0.24-0.19,0.06-0.05c0.06-0.04,0.12-0.09,0.18-0.13
					c0.15-0.11,0.31-0.21,0.47-0.31c0.55-0.35,0.82-1.13,0.45-1.71c-0.35-0.55-1.12-0.83-1.71-0.45c-2.64,1.69-4.57,4.47-5.1,7.58
					c0.76-0.1,1.52-0.2,2.28-0.3c-0.93-1.73-1.87-3.47-2.8-5.2c-0.31-0.58-1.16-0.81-1.71-0.45
					C205.42,312.52,205.22,313.24,205.55,313.85L205.55,313.85z"/>
			</g>
		</g>
		<g>
			<g>
				<path class="st2" d="M224.12,362.71c1.05,0.2,2.08,0.46,3.09,0.79c0.51,0.16,1.01,0.35,1.5,0.54c0.11,0.04,0.21,0.09,0.32,0.13
					c-0.24-0.1,0.18,0.08,0.23,0.1c0.24,0.11,0.48,0.22,0.72,0.33c-0.19-0.47-0.38-0.94-0.57-1.41c0.03-0.07,0.06-0.14,0.09-0.21
					c0.15-0.15,0.3-0.3,0.45-0.45c-0.01,0.01-0.02,0.01-0.03,0.02c0.21-0.06,0.42-0.11,0.63-0.17c0.28-0.01,0.62,0.15,0.76,0.4
					c0.05,0.08,0.07,0.16,0.08,0.25c0.02,0.11,0.02,0.1,0.01-0.05c0-0.2-0.03-0.4-0.04-0.6c-0.03-0.46-0.06-0.92-0.09-1.38
					c-0.06-0.9-0.12-1.81-0.17-2.71c-0.04-0.65-0.55-1.28-1.25-1.25c-0.64,0.03-1.29,0.55-1.25,1.25c0.08,1.3,0.17,2.61,0.25,3.91
					c0.05,0.77,0,1.58,0.56,2.18c0.28,0.3,0.7,0.51,1.12,0.51c0.59,0,1.18-0.43,1.29-1.02c0.1-0.51-0.06-1.16-0.57-1.41
					c-2.05-0.98-4.21-1.72-6.45-2.14c-0.64-0.12-1.38,0.18-1.54,0.87C223.11,361.79,223.44,362.58,224.12,362.71L224.12,362.71z"/>
			</g>
		</g>
		<g>
			<g>
				<path class="st2" d="M271.57,170.39c0.15,0.13,0.28,0.27,0.41,0.42c0.03,0.04,0.06,0.08,0.09,0.11
					c-0.12-0.16-0.14-0.18-0.06-0.08c0.06,0.08,0.11,0.16,0.17,0.24c0.09,0.15,0.18,0.3,0.25,0.45c0.02,0.04,0.04,0.09,0.06,0.13
					c0.05,0.12,0.04,0.09-0.04-0.09c0.01,0.09,0.07,0.19,0.1,0.28c0.06,0.19,0.11,0.38,0.15,0.57c0.01,0.07,0.02,0.15,0.04,0.22
					c-0.09-0.39-0.01-0.07,0,0.03c0.01,0.2,0.02,0.39,0.01,0.59c-0.01,0.1-0.03,0.2-0.03,0.29c0.03-0.21,0.03-0.25,0.01-0.11
					c-0.01,0.05-0.02,0.1-0.03,0.15c-0.12,0.62,0.13,1.22,0.72,1.47c0.55,0.23,1.27,0.04,1.56-0.51c0.09-0.18,0.19-0.35,0.3-0.52
					c0.09-0.14,0.23-0.28,0.3-0.43c-0.12,0.15-0.14,0.18-0.06,0.08c0.03-0.04,0.06-0.08,0.1-0.12c0.07-0.08,0.13-0.15,0.2-0.22
					c0.12-0.13,0.24-0.25,0.37-0.37c0.07-0.07,0.15-0.13,0.23-0.2c0.09-0.07,0.25-0.13-0.02,0.01c0.17-0.09,0.33-0.24,0.49-0.34
					c0.15-0.09,0.3-0.18,0.46-0.26c0.09-0.05,0.18-0.09,0.27-0.13c0.05-0.02,0.09-0.04,0.14-0.06c-0.18,0.08-0.21,0.09-0.09,0.04
					c0.31-0.12,0.57-0.27,0.75-0.57c0.16-0.27,0.22-0.66,0.13-0.96c-0.19-0.59-0.89-1.13-1.54-0.87c-1.78,0.71-3.29,1.97-4.18,3.69
					c0.76,0.32,1.52,0.64,2.28,0.96c0.4-2.04-0.22-4.23-1.78-5.65c-0.48-0.44-1.3-0.51-1.77,0
					C271.13,169.1,271.06,169.92,271.57,170.39L271.57,170.39z"/>
			</g>
		</g>
		<g>
			<g>
				<path class="st2" d="M262.61,205.23c-0.35-0.15,0.02,0.02,0.12,0.07c0.12,0.07,0.24,0.14,0.36,0.22
					c0.03,0.02,0.12,0.11,0.16,0.11c-0.06,0-0.22-0.18-0.04-0.03c0.11,0.09,0.21,0.18,0.31,0.28c0.09,0.09,0.18,0.18,0.26,0.28
					c0.03,0.04,0.16,0.22,0.05,0.05c-0.11-0.17,0.01,0.02,0.04,0.06c0.15,0.22,0.29,0.45,0.41,0.69c0.03,0.06,0.05,0.12,0.08,0.17
					c-0.06-0.09-0.09-0.24-0.02-0.05c0.05,0.12,0.09,0.24,0.12,0.36c0.04,0.13,0.07,0.27,0.1,0.41c0.01,0.06,0.02,0.13,0.03,0.19
					c0.03,0.15-0.03-0.33-0.01-0.07c0.02,0.25,0.04,0.51,0.02,0.76c0,0.07-0.02,0.16-0.02,0.23c0-0.1,0.04-0.27,0.01-0.07
					c-0.02,0.14-0.06,0.27-0.09,0.41c-0.16,0.6,0.16,1.23,0.72,1.47c0.55,0.23,1.27,0.04,1.56-0.51c0.93-1.77,1.85-3.55,2.78-5.32
					c0.3-0.58,0.17-1.38-0.45-1.71c-0.57-0.3-1.39-0.17-1.71,0.45c-0.93,1.77-1.85,3.55-2.78,5.32c0.76,0.32,1.52,0.64,2.28,0.96
					c0.39-1.44,0.17-2.94-0.48-4.27c-0.65-1.33-1.79-2.31-3.14-2.87c-0.28-0.12-0.72-0.02-0.96,0.13c-0.26,0.15-0.51,0.45-0.57,0.75
					C261.57,204.43,261.96,204.96,262.61,205.23L262.61,205.23z"/>
			</g>
		</g>
		<g>
			<g>
				<path class="st2" d="M262.53,243.8c-0.07-0.15-0.14-0.29-0.21-0.44c0-0.01-0.16-0.36-0.07-0.15c-0.11-0.26-0.21-0.53-0.31-0.79
					c-0.19-0.52-0.35-1.04-0.48-1.57s-0.25-1.07-0.33-1.61c-0.01-0.05-0.06-0.37-0.03-0.15c-0.02-0.16-0.04-0.32-0.06-0.48
					c-0.03-0.28-0.05-0.57-0.07-0.85c-0.04-0.65-0.55-1.28-1.25-1.25c-0.65,0.03-1.29,0.55-1.25,1.25c0.14,2.55,0.78,5.01,1.89,7.31
					c0.28,0.59,1.17,0.79,1.71,0.45C262.69,245.12,262.83,244.43,262.53,243.8L262.53,243.8z"/>
			</g>
		</g>
		<g>
			<g>
				<path class="st2" d="M260.73,279.13c0.97,0.49,1.61,1.12,2.13,2.01c0.52,0.9,0.73,1.75,0.67,2.83
					c-0.06,1.07,1.42,1.67,2.13,0.88c1.67-1.83,3.12-3.86,4.29-6.05c0.31-0.58,0.16-1.39-0.45-1.71c-0.58-0.31-1.38-0.17-1.71,0.45
					c-0.55,1.03-1.16,2.02-1.83,2.97c-0.15,0.22-0.31,0.44-0.47,0.65c-0.16,0.21-0.24,0.32-0.46,0.6c-0.37,0.45-0.75,0.89-1.14,1.32
					c0.71,0.29,1.42,0.59,2.13,0.88c0.15-2.85-1.5-5.71-4.04-7c-0.58-0.3-1.38-0.17-1.71,0.45
					C259.98,277.99,260.11,278.81,260.73,279.13L260.73,279.13z"/>
			</g>
		</g>
		<g>
			<g>
				<path class="st2" d="M263.29,310.61c0.38,0.93,0.75,1.86,1.13,2.79c0.19,0.46,0.38,0.93,0.56,1.39
					c0.22,0.55,0.39,1.18,0.81,1.62c0.54,0.57,1.39,0.69,2.08,0.31c0.47-0.26,0.78-0.71,1.02-1.18c0.46-0.9,0.92-1.81,1.38-2.71
					c0.3-0.58,0.17-1.38-0.45-1.71c-0.57-0.3-1.39-0.17-1.71,0.45c-0.39,0.76-0.78,1.52-1.16,2.28c-0.1,0.19-0.19,0.38-0.29,0.57
					c-0.04,0.07-0.08,0.13-0.11,0.2c-0.1,0.19,0.14-0.13,0.03-0.04c-0.2,0.17,0.06-0.03,0.15-0.07c0.26-0.11,0.57-0.07,0.79,0.11
					c0.08,0.06,0.25,0.3,0.12,0.08c-0.04-0.09-0.03-0.05,0.05,0.12c-0.02-0.05-0.04-0.1-0.06-0.15c-0.64-1.58-1.28-3.15-1.91-4.73
					c-0.13-0.31-0.27-0.57-0.57-0.75c-0.27-0.16-0.66-0.22-0.96-0.13C263.58,309.26,263.03,309.96,263.29,310.61L263.29,310.61z"/>
			</g>
		</g>
		<g>
			<g>
				<path class="st2" d="M284.57,191.54c0.14-0.01,0.29-0.02,0.43-0.01c0.03,0,0.05,0,0.08,0.01c0.1,0.01,0.05,0-0.14-0.02
					c0.04,0.03,0.14,0.03,0.19,0.04c0.13,0.03,0.28,0.11,0.41,0.13c-0.1-0.01-0.23-0.11-0.05-0.02c0.06,0.03,0.12,0.06,0.18,0.09
					c0.12,0.06,0.23,0.13,0.34,0.21c0.03,0.02,0.07,0.05,0.1,0.07c0.07,0.06,0.04,0.03-0.1-0.07c0,0,0.14,0.12,0.15,0.13
					c0.1,0.09,0.19,0.18,0.28,0.28c0.05,0.05,0.09,0.1,0.13,0.15c0.18,0.21-0.15-0.23,0,0c0.16,0.24,0.32,0.49,0.45,0.75
					c0.04,0.08,0.08,0.16,0.11,0.24c0.1,0.21-0.06-0.16-0.01-0.01c0.05,0.14,0.11,0.28,0.15,0.42c0.21,0.6,0.35,1.23,0.48,1.85
					c0.13,0.61,0.79,0.97,1.37,0.9c0.59-0.08,1.1-0.6,1.08-1.23c-0.04-1.27,0-2.54,0.12-3.8c0.06-0.65-0.62-1.28-1.25-1.25
					c-0.73,0.03-1.18,0.55-1.25,1.25c-0.12,1.26-0.16,2.53-0.12,3.8c0.82-0.11,1.64-0.22,2.46-0.33c-0.32-1.51-0.76-2.99-1.74-4.22
					c-0.91-1.14-2.39-1.97-3.88-1.84c-0.65,0.06-1.28,0.54-1.25,1.25C283.35,190.92,283.88,191.6,284.57,191.54L284.57,191.54z"/>
			</g>
		</g>
		<g>
			<g>
				<path class="st2" d="M279.8,220.4c0.21,0.59,0.37,1.2,0.48,1.82c0.01,0.06,0.04,0.14,0.03,0.21c0.01-0.1-0.02-0.17,0-0.02
					c0.02,0.16,0.03,0.31,0.05,0.47c0.02,0.33,0.03,0.66,0.03,0.99c-0.01,0.53,0.39,1.09,0.92,1.21c0.5,0.11,1.18-0.06,1.41-0.57
					c0.11-0.24,0.23-0.47,0.36-0.69c0.06-0.11,0.13-0.21,0.2-0.31c0.04-0.06,0.08-0.11,0.12-0.17c0.09-0.13-0.17,0.2-0.02,0.02
					c0.17-0.2,0.34-0.4,0.53-0.58c0.09-0.09,0.18-0.17,0.27-0.25c0.05-0.05,0.1-0.09,0.16-0.13c0.07-0.06,0.22-0.12-0.03,0.02
					c0.21-0.12,0.4-0.29,0.62-0.41c0.23-0.13,0.46-0.25,0.7-0.36c0.14-0.07-0.25,0.09-0.03,0.01c0.06-0.02,0.13-0.05,0.19-0.07
					c0.12-0.04,0.23-0.08,0.35-0.11c0.26-0.08,0.53-0.13,0.8-0.18c0.65-0.1,1.06-0.95,0.87-1.54c-0.23-0.7-0.84-0.98-1.54-0.87
					c-2.44,0.38-4.7,2.11-5.72,4.37c0.78,0.21,1.55,0.42,2.33,0.63c0.02-1.4-0.2-2.81-0.67-4.12c-0.22-0.61-0.86-1.09-1.54-0.87
					C280.06,219.05,279.56,219.74,279.8,220.4L279.8,220.4z"/>
			</g>
		</g>
		<g>
			<g>
				<path class="st2" d="M278.41,264.31c0.36-0.22,0.72-0.43,1.08-0.65c0.46-0.28,0.74-0.88,0.57-1.41
					c-0.56-1.76-1.87-3.33-3.58-4.06c-0.32-0.14-0.61-0.22-0.96-0.13c-0.29,0.08-0.6,0.3-0.75,0.57c-0.15,0.29-0.23,0.64-0.13,0.96
					c0.09,0.29,0.28,0.62,0.57,0.75c0.42,0.18,0.81,0.41,1.17,0.69c-0.08-0.07-0.17-0.13-0.25-0.2c0.36,0.28,0.68,0.6,0.96,0.96
					c-0.07-0.08-0.13-0.17-0.2-0.25c0.29,0.38,0.53,0.78,0.72,1.22c-0.04-0.1-0.08-0.2-0.13-0.3c0.06,0.15,0.11,0.29,0.16,0.45
					c0.19-0.47,0.38-0.94,0.57-1.41c-0.36,0.22-0.72,0.43-1.08,0.65c-0.56,0.34-0.82,1.14-0.45,1.71
					C277.06,264.42,277.81,264.67,278.41,264.31L278.41,264.31z"/>
			</g>
		</g>
		<g>
			<g>
				<path class="st2" d="M287.5,302.4c2.11-1.7,3.86-3.85,5.12-6.24c0.3-0.58,0.17-1.39-0.45-1.71c-0.58-0.3-1.39-0.17-1.71,0.45
					c-0.3,0.57-0.62,1.12-0.98,1.66c-0.18,0.27-0.36,0.53-0.55,0.79c-0.05,0.07-0.1,0.14-0.15,0.2c-0.08,0.1-0.06,0.07,0.01-0.01
					c-0.11,0.13-0.21,0.26-0.32,0.4c-0.82,0.99-1.74,1.89-2.74,2.7c-0.51,0.41-0.46,1.34,0,1.77
					C286.27,302.9,286.95,302.84,287.5,302.4L287.5,302.4z"/>
			</g>
		</g>
		<g>
			<g>
				<path class="st2" d="M264.15,347.52c0.17,0.18,0.33,0.36,0.49,0.55c-0.13-0.16,0.08,0.11,0.1,0.14
					c0.06,0.08,0.12,0.17,0.17,0.25c0.26,0.39,0.49,0.8,0.7,1.23c0.1,0.2,0.2,0.41,0.29,0.62c0.03,0.06,0.11,0.26,0.05,0.1
					c0.05,0.11,0.09,0.23,0.14,0.34c0.18,0.46,0.36,0.92,0.53,1.39c0.18,0.48,0.52,0.82,1.04,0.9c0.5,0.07,0.98-0.17,1.25-0.6
					c0.15-0.24,0.31-0.49,0.47-0.72c0.07-0.1,0.14-0.2,0.22-0.3c0.24-0.32-0.15,0.17,0.1-0.14c0.33-0.42,0.69-0.82,1.06-1.2
					c0.38-0.38,0.78-0.73,1.19-1.07c0.19-0.16-0.09,0.06,0.14-0.11c0.1-0.07,0.2-0.15,0.3-0.22c0.23-0.17,0.47-0.32,0.72-0.48
					c0.55-0.35,0.82-1.13,0.45-1.71c-0.36-0.55-1.12-0.82-1.71-0.45c-2.07,1.3-3.81,3.05-5.1,5.13c0.76,0.1,1.52,0.2,2.28,0.3
					c-0.76-2.05-1.56-4.11-3.1-5.72c-0.45-0.47-1.32-0.49-1.77,0C263.68,346.26,263.67,347.02,264.15,347.52L264.15,347.52z"/>
			</g>
		</g>
		<g>
			<g>
				<path class="st2" d="M259.46,371.56c1.05,1.64,2.53,3.01,4.28,3.87c0.3,0.15,0.63,0.22,0.96,0.13c0.29-0.08,0.6-0.3,0.75-0.57
					c0.3-0.56,0.18-1.4-0.45-1.71c-0.58-0.28-1.12-0.62-1.63-1.01c0.08,0.07,0.17,0.13,0.25,0.2c-0.64-0.5-1.21-1.07-1.71-1.7
					c0.07,0.08,0.13,0.17,0.2,0.25c-0.18-0.23-0.34-0.47-0.5-0.71c-0.35-0.55-1.13-0.82-1.71-0.45
					C259.35,370.2,259.08,370.97,259.46,371.56L259.46,371.56z"/>
			</g>
		</g>
		<g>
			<g>
				<path class="st2" d="M282.81,331.54c1.11,1.09,2.34,2.07,3.65,2.92c0.52,0.34,1.44,0.15,1.71-0.45c0.83-1.83,1.36-3.72,1.6-5.72
					c0.04-0.3-0.17-0.68-0.37-0.88c-0.22-0.22-0.57-0.38-0.88-0.37c-0.32,0.01-0.66,0.12-0.88,0.37c-0.24,0.26-0.32,0.54-0.37,0.88
					c-0.02,0.14-0.01,0.12,0.01-0.06c-0.01,0.06-0.02,0.12-0.03,0.18c-0.01,0.09-0.03,0.18-0.04,0.28
					c-0.04,0.21-0.07,0.43-0.12,0.64c-0.08,0.41-0.18,0.82-0.3,1.22s-0.24,0.8-0.38,1.2c-0.07,0.2-0.15,0.41-0.23,0.61
					c-0.02,0.05-0.12,0.35-0.02,0.05c-0.04,0.12-0.1,0.23-0.15,0.34c0.57-0.15,1.14-0.3,1.71-0.45c-0.3-0.19-0.59-0.39-0.88-0.6
					c-0.14-0.1-0.27-0.2-0.41-0.3c-0.25-0.19,0.21,0.17-0.04-0.03c-0.07-0.06-0.15-0.12-0.22-0.17c-0.55-0.45-1.08-0.92-1.59-1.42
					c-0.47-0.46-1.31-0.5-1.77,0C282.35,330.27,282.31,331.05,282.81,331.54L282.81,331.54z"/>
			</g>
		</g>
		<g>
			<g>
				<path class="st2" d="M279.54,371.44c0.88,2.22,1.98,4.34,3.35,6.29c0.44,0.63,0.98,1.18,1.81,1.15
					c0.86-0.03,1.37-0.68,1.79-1.35c0.7-1.1,1.39-2.19,2.09-3.29c0.35-0.55,0.13-1.4-0.45-1.71c-0.62-0.33-1.34-0.14-1.71,0.45
					c-0.58,0.91-1.15,1.81-1.73,2.72c-0.14,0.23-0.29,0.45-0.43,0.68c-0.03,0.05-0.07,0.1-0.1,0.15c-0.05,0.07-0.03,0.06,0.05-0.05
					c-0.09,0.08-0.09,0.1-0.02,0.04c0.18-0.14,0.4-0.18,0.66-0.11c0.32,0.22,0.41,0.27,0.29,0.16c-0.03-0.03-0.07-0.07-0.1-0.1
					c0.22,0.22-0.02-0.04-0.06-0.1c-0.14-0.2-0.28-0.4-0.41-0.61c-0.54-0.81-1.03-1.65-1.48-2.52c-0.22-0.41-0.42-0.83-0.62-1.26
					c-0.1-0.22-0.2-0.45-0.3-0.67c-0.03-0.08-0.03-0.07,0.01,0.02c-0.02-0.06-0.05-0.11-0.07-0.17c-0.05-0.13-0.11-0.26-0.16-0.4
					c-0.24-0.61-0.85-1.1-1.54-0.87C279.82,370.1,279.28,370.79,279.54,371.44L279.54,371.44z"/>
			</g>
		</g>
		<g>
			<g>
				<path class="st2" d="M280.34,405.18c0.79,1.68,1.88,3.22,3.18,4.54c0.28,0.28,0.66,0.4,1.05,0.34c0.42-0.06,0.67-0.27,0.91-0.6
					c1.3-1.71,2.3-3.6,3.05-5.6c0.23-0.61-0.25-1.4-0.87-1.54c-0.71-0.16-1.29,0.22-1.54,0.87c-0.09,0.23-0.18,0.46-0.27,0.68
					c-0.05,0.13-0.05,0.13,0-0.01c-0.03,0.06-0.06,0.13-0.08,0.19c-0.04,0.1-0.09,0.19-0.13,0.29c-0.21,0.46-0.44,0.91-0.69,1.36
					c-0.48,0.87-1.03,1.7-1.63,2.5c0.65-0.08,1.31-0.17,1.96-0.25c-0.3-0.31-0.59-0.62-0.87-0.95c-0.08-0.09-0.15-0.19-0.23-0.28
					c-0.17-0.2,0.12,0.16-0.06-0.07c-0.12-0.17-0.24-0.33-0.36-0.5c-0.49-0.71-0.91-1.45-1.28-2.23c-0.28-0.59-1.18-0.79-1.71-0.45
					C280.17,403.86,280.04,404.54,280.34,405.18L280.34,405.18z"/>
			</g>
		</g>
		<g>
			<g>
				<path class="st2" d="M286.45,438.43c0.73-2.23-0.3-4.82-2.29-6.01c-0.56-0.34-1.4-0.14-1.71,0.45c-0.32,0.6-0.15,1.35,0.45,1.71
					c0.09,0.05,0.18,0.11,0.27,0.17c0.17,0.11-0.19-0.16-0.08-0.06c0.04,0.03,0.08,0.07,0.12,0.1c0.15,0.14,0.28,0.28,0.42,0.44
					c0.09,0.1-0.19-0.27-0.06-0.08c0.02,0.03,0.05,0.07,0.07,0.1c0.06,0.09,0.12,0.18,0.17,0.27c0.05,0.09,0.1,0.19,0.15,0.28
					c0.02,0.05,0.1,0.23,0.01,0.03c-0.09-0.21-0.01-0.01,0.01,0.03c0.07,0.19,0.12,0.39,0.17,0.58c0.01,0.05,0.02,0.1,0.03,0.16
					c0.04,0.21-0.03-0.27-0.01-0.11c0.01,0.1,0.02,0.19,0.02,0.29c0,0.11,0,0.21,0,0.32c-0.01,0.12-0.07,0.47,0.01,0.05
					c-0.04,0.21-0.08,0.42-0.15,0.62c-0.2,0.62,0.24,1.39,0.87,1.54C285.6,439.46,286.23,439.1,286.45,438.43L286.45,438.43z"/>
			</g>
		</g>
		<g>
			<g>
				<path class="st2" d="M261.94,413.25c0.05,0,0.28,0.03,0.06,0c-0.2-0.03-0.02,0,0.03,0.01c0.11,0.02,0.23,0.04,0.34,0.07
					c0.23,0.05,0.45,0.12,0.67,0.2c0.06,0.02,0.12,0.05,0.18,0.07c0.15,0.06-0.23-0.11-0.08-0.04c0.1,0.05,0.21,0.1,0.31,0.15
					c0.22,0.11,0.43,0.24,0.63,0.38c0.08,0.06,0.35,0.3,0.09,0.06c0.08,0.08,0.18,0.15,0.27,0.22c0.17,0.15,0.34,0.32,0.49,0.49
					c0.06,0.06,0.15,0.24,0.22,0.27c-0.04-0.02-0.16-0.21-0.06-0.07c0.04,0.05,0.07,0.1,0.11,0.16c0.14,0.2,0.26,0.42,0.37,0.63
					c0.24,0.47,0.91,0.74,1.41,0.57c0.56-0.18,0.86-0.63,0.92-1.21c0.17-1.58,0.33-3.15,0.5-4.73c0.07-0.65-0.62-1.28-1.25-1.25
					c-0.74,0.03-1.18,0.55-1.25,1.25c-0.17,1.58-0.33,3.15-0.5,4.73c0.78-0.21,1.55-0.42,2.33-0.63c-1.12-2.2-3.37-3.6-5.8-3.85
					c-0.65-0.06-1.28,0.62-1.25,1.25C260.72,412.74,261.24,413.19,261.94,413.25L261.94,413.25z"/>
			</g>
		</g>
		<g>
			<g>
				<path class="st2" d="M264.37,463.98c0.25,0.02,0.5,0.03,0.74,0.05c-0.4-0.31-0.8-0.61-1.21-0.92c0.58,1.71,1.41,3.32,2.52,4.76
					c0.28,0.36,0.6,0.62,1.08,0.62c0.4,0,0.91-0.23,1.08-0.62c0.21-0.47,0.45-0.92,0.74-1.34c0.02-0.04,0.29-0.41,0.15-0.22
					c0.07-0.09,0.15-0.18,0.22-0.27c0.17-0.19,0.34-0.38,0.53-0.56c0.18-0.18,0.38-0.35,0.57-0.51c0.29-0.24-0.19,0.13,0.12-0.09
					c0.11-0.08,0.23-0.16,0.34-0.23c0.21-0.14,0.44-0.27,0.66-0.39c0.1-0.05,0.21-0.1,0.32-0.16c0.13-0.06,0.14-0.06,0.03-0.02
					c0.07-0.03,0.15-0.06,0.22-0.09c0.61-0.24,1.1-0.85,0.87-1.54c-0.19-0.59-0.88-1.13-1.54-0.87c-2.37,0.91-4.37,2.68-5.4,5.02
					c0.72,0,1.44,0,2.16,0c-0.5-0.65-0.96-1.34-1.35-2.07c-0.42-0.77-0.65-1.3-0.92-2.09c-0.19-0.56-0.63-0.88-1.21-0.92
					c-0.25-0.02-0.5-0.03-0.74-0.05c-0.65-0.04-1.28,0.61-1.25,1.25C263.15,463.45,263.67,463.94,264.37,463.98L264.37,463.98z"/>
			</g>
		</g>
		<g>
			<g>
				<path class="st2" d="M285.5,489.49c0.03-0.02,0.06-0.04,0.09-0.06c-0.21,0.08-0.27,0.11-0.18,0.07
					c0.06-0.01,0.11-0.03,0.17-0.04c-0.11,0.01-0.22,0.03-0.33,0.04c0.07-0.01,0.13-0.01,0.2,0c-0.11-0.01-0.22-0.03-0.33-0.04
					c0.07,0.01,0.13,0.03,0.2,0.04c0.18,0.04-0.25-0.13-0.13-0.06c0.03,0.02,0.06,0.03,0.09,0.05c0.03,0.02,0.06,0.04,0.09,0.06
					c0.11,0.06-0.2-0.19-0.12-0.09c0.05,0.06,0.12,0.12,0.18,0.18c0.11,0.12-0.08-0.09-0.09-0.12c0,0.03,0.05,0.07,0.07,0.1
					c0.04,0.07,0.08,0.14,0.12,0.21c0.08,0.15-0.05-0.11-0.05-0.14c0,0.04,0.04,0.1,0.05,0.14c0.02,0.08,0.04,0.17,0.06,0.25
					c-0.01-0.11-0.03-0.22-0.04-0.33c0.06,0.5-0.01,1-0.07,1.5c-0.07,0.6-0.06,1.17,0.06,1.76c0.11,0.48,0.58,0.83,1.04,0.9
					c0.45,0.06,1.04-0.15,1.25-0.6c0.12-0.27,0.26-0.53,0.42-0.78c0.08-0.13,0.16-0.25,0.25-0.37c0.06-0.08,0.24-0.27-0.01,0.01
					c0.05-0.05,0.09-0.11,0.13-0.16c0.19-0.23,0.39-0.44,0.61-0.64c0.1-0.09,0.2-0.18,0.31-0.27c0.04-0.03,0.07-0.06,0.11-0.09
					c-0.05,0.04-0.1,0.07-0.14,0.11c0.06-0.06,0.15-0.11,0.22-0.16c0.27-0.19,0.48-0.42,0.57-0.75c0.08-0.3,0.05-0.7-0.13-0.96
					c-0.34-0.53-1.14-0.85-1.71-0.45c-1.19,0.82-2.18,1.92-2.78,3.25c0.76,0.1,1.52,0.2,2.28,0.3c-0.02-0.08-0.03-0.15-0.04-0.23
					c0.01,0.11,0.03,0.22,0.04,0.33c-0.08-0.6,0.03-1.19,0.09-1.78c0.07-0.73-0.01-1.41-0.33-2.07c-0.59-1.24-2.2-2.09-3.46-1.27
					c-0.55,0.36-0.83,1.12-0.45,1.71C284.14,489.59,284.91,489.87,285.5,489.49L285.5,489.49z"/>
			</g>
		</g>
		<g>
			<g>
				<path class="st2" d="M262.05,513.96c0.53,1.08,1.06,2.16,1.59,3.24c0.26,0.53,0.52,1.06,0.78,1.59
					c0.31,0.64,0.63,1.27,1.39,1.45c0.86,0.2,1.49-0.34,1.98-0.96c0.37-0.47,0.75-0.94,1.12-1.41c0.78-0.98,1.55-1.95,2.33-2.93
					c0.41-0.51,0.54-1.28,0-1.77c-0.45-0.42-1.33-0.55-1.77,0c-0.66,0.83-1.31,1.65-1.97,2.48c-0.33,0.41-0.66,0.83-0.99,1.24
					c-0.16,0.21-0.33,0.41-0.49,0.62c-0.07,0.09-0.15,0.19-0.22,0.28c-0.04,0.05-0.07,0.09-0.12,0.13
					c-0.35,0.33,0.06,0.43,1.23,0.28c-0.16-0.45-0.44-0.88-0.65-1.31c-0.23-0.47-0.46-0.93-0.69-1.4c-0.46-0.93-0.92-1.87-1.37-2.8
					c-0.29-0.59-1.17-0.8-1.71-0.45C261.9,512.64,261.74,513.33,262.05,513.96L262.05,513.96z"/>
			</g>
		</g>
		<g>
			<g>
				<path class="st2" d="M281.43,533.87c0.22,0.36,0.43,0.74,0.61,1.12c0.05,0.1,0.1,0.21,0.14,0.31c0.01,0.03,0.02,0.05,0.03,0.08
					c0.05,0.13,0.04,0.1-0.03-0.06c0.11,0.14,0.17,0.42,0.23,0.6c0.28,0.79,0.47,1.61,0.58,2.44c0.04,0.29,0.34,0.61,0.57,0.75
					c0.27,0.16,0.66,0.22,0.96,0.13c0.3-0.1,0.59-0.29,0.75-0.57c0.17-0.32,0.17-0.61,0.13-0.96c-0.24-1.79-0.88-3.53-1.82-5.08
					c-0.34-0.56-1.14-0.82-1.71-0.45C281.32,532.52,281.07,533.27,281.43,533.87L281.43,533.87z"/>
			</g>
		</g>
		<g>
			<g>
				<path class="st2" d="M299.19,510.17c0.07,0,0.13,0.01,0.2,0.01c0.16,0.01-0.29-0.05-0.06-0.01c0.13,0.02,0.26,0.05,0.38,0.09
					c0.14,0.04,0.27,0.09,0.41,0.14c0.15,0.05-0.28-0.14-0.05-0.02c0.06,0.03,0.12,0.06,0.18,0.09c0.12,0.06,0.23,0.13,0.34,0.2
					c0.06,0.04,0.11,0.07,0.16,0.11c0.22,0.15-0.15-0.13-0.03-0.03c0.21,0.18,0.42,0.36,0.6,0.57c0.04,0.05,0.08,0.1,0.13,0.15
					c0.1,0.12-0.18-0.25-0.03-0.03c0.07,0.11,0.15,0.22,0.22,0.33c0.07,0.11,0.13,0.23,0.19,0.35c0.01,0.02,0.12,0.26,0.03,0.07
					c-0.08-0.19,0.01,0.03,0.02,0.07c0.04,0.12,0.08,0.25,0.12,0.38c0.02,0.08,0.04,0.15,0.05,0.23c0.01,0.05,0.04,0.28,0.02,0.07
					c-0.03-0.22,0,0.04,0,0.07c0.01,0.07,0.01,0.13,0.01,0.2c0,0.15,0,0.29-0.01,0.43c0.83,0,1.67,0,2.5,0
					c0.01-0.09,0.01-0.19,0.02-0.28c0-0.04,0.05-0.31,0.01-0.11c-0.04,0.19,0.01-0.07,0.02-0.11c0.02-0.09,0.03-0.19,0.06-0.28
					c0.07-0.34,0.17-0.67,0.29-0.99c0.03-0.07,0.06-0.15,0.09-0.22c0.06-0.14-0.1,0.21,0,0c0.08-0.17,0.16-0.34,0.25-0.51
					c0.17-0.3,0.36-0.59,0.56-0.87c0.39-0.53,0.1-1.42-0.45-1.71c-0.65-0.35-1.29-0.11-1.71,0.45c-1,1.35-1.54,2.98-1.65,4.64
					c-0.04,0.65,0.61,1.28,1.25,1.25c0.72-0.03,1.2-0.55,1.25-1.25c0.23-3.05-2.39-5.8-5.38-5.96c-0.65-0.04-1.28,0.6-1.25,1.25
					C297.98,509.63,298.49,510.13,299.19,510.17L299.19,510.17z"/>
			</g>
		</g>
		<g>
			<g>
				<path class="st2" d="M302.95,460.69c0.29,2.06,0.58,4.12,0.87,6.18c0.04,0.28,0.34,0.62,0.57,0.75
					c0.31,0.16,0.62,0.19,0.96,0.13c2.29-0.42,4.42-1.56,6.08-3.17c0.47-0.46,0.49-1.32,0-1.77c-0.51-0.46-1.27-0.49-1.77,0
					c-0.19,0.18-0.38,0.36-0.58,0.53c-0.09,0.08-0.19,0.16-0.29,0.23c0.23-0.18-0.13,0.09-0.17,0.12c-0.4,0.28-0.82,0.54-1.26,0.76
					c-0.22,0.11-0.44,0.22-0.67,0.31c0.28-0.12-0.14,0.05-0.19,0.07c-0.1,0.04-0.2,0.07-0.3,0.11c-0.5,0.17-1.01,0.3-1.53,0.39
					c0.51,0.29,1.03,0.58,1.54,0.87c-0.29-2.06-0.58-4.12-0.87-6.18c-0.09-0.65-0.95-1.06-1.54-0.87
					C303.11,459.38,302.86,459.99,302.95,460.69L302.95,460.69z"/>
			</g>
		</g>
		<g>
			<g>
				<path class="st2" d="M329.93,438.06c0.11,0.41,0.21,0.82,0.29,1.24c0.04,0.21,0.07,0.42,0.1,0.63c0.01,0.09,0.01,0.06-0.01-0.09
					c0.01,0.06,0.02,0.13,0.02,0.19c0.01,0.1,0.02,0.19,0.03,0.29c0.08,0.85,0.08,1.69,0.01,2.54c-0.07,0.9,1.13,1.62,1.88,1.08
					c1.49-1.07,2.99-2.15,4.48-3.22c0.27-0.2,0.48-0.41,0.57-0.75c0.08-0.3,0.05-0.7-0.13-0.96c-0.34-0.52-1.14-0.86-1.71-0.45
					c-1.49,1.07-2.99,2.15-4.48,3.22c0.63,0.36,1.25,0.72,1.88,1.08c0.14-1.83-0.05-3.7-0.53-5.47c-0.17-0.63-0.9-1.08-1.54-0.87
					C330.16,436.73,329.74,437.38,329.93,438.06L329.93,438.06z"/>
			</g>
		</g>
		<g>
			<g>
				<path class="st2" d="M355.23,410.84c0.17,0.27,0.32,0.56,0.46,0.85c0.03,0.07,0.06,0.13,0.09,0.2c0.07,0.14-0.09-0.23-0.01-0.02
					c0.06,0.15,0.12,0.3,0.17,0.45c0.1,0.29,0.18,0.59,0.25,0.89c0.03,0.14,0.06,0.29,0.09,0.43c0.01,0.08,0.02,0.18,0.04,0.26
					c-0.01-0.05-0.01-0.11-0.02-0.16c0.01,0.06,0.01,0.12,0.02,0.17c0.04,0.41,0.16,0.72,0.49,0.98c0.29,0.22,0.73,0.36,1.09,0.22
					c1.55-0.61,2.95-1.41,4.26-2.44c0.23-0.18,0.37-0.6,0.37-0.88c0-0.31-0.14-0.67-0.37-0.88c-0.24-0.22-0.55-0.38-0.88-0.37
					c-0.35,0.02-0.61,0.15-0.88,0.37c-0.22,0.17,0.18-0.13-0.02,0.02c-0.07,0.05-0.14,0.1-0.21,0.16c-0.14,0.1-0.29,0.2-0.43,0.3
					c-0.28,0.19-0.56,0.36-0.86,0.53c-0.29,0.17-0.59,0.32-0.89,0.47c-0.16,0.08-0.32,0.15-0.48,0.22c-0.21,0.1,0.16-0.06,0.02-0.01
					c-0.09,0.04-0.19,0.08-0.28,0.11c0.53,0.4,1.05,0.8,1.58,1.21c-0.17-1.54-0.62-3.01-1.43-4.34c-0.34-0.56-1.14-0.82-1.71-0.45
					C355.12,409.49,354.86,410.24,355.23,410.84L355.23,410.84z"/>
			</g>
		</g>
		<g>
			<g>
				<path class="st2" d="M368.92,379.74c1.36,1.81,2.86,3.5,4.53,5.04c0.64,0.59,1.48,0.41,1.96-0.25c0.97-1.31,1.64-2.87,1.92-4.47
					c0.11-0.64-0.17-1.38-0.87-1.54c-0.61-0.14-1.42,0.18-1.54,0.87c-0.07,0.38-0.15,0.75-0.26,1.11c-0.05,0.17-0.1,0.33-0.16,0.49
					c-0.04,0.1-0.07,0.19-0.11,0.29c-0.08,0.22,0.05-0.1-0.01,0.04c-0.31,0.68-0.68,1.33-1.12,1.93c0.65-0.08,1.31-0.17,1.96-0.25
					c-0.78-0.72-1.53-1.47-2.24-2.25c-0.35-0.39-0.69-0.78-1.02-1.18c-0.17-0.2-0.33-0.4-0.49-0.61c-0.03-0.04-0.27-0.35-0.11-0.14
					c-0.09-0.12-0.18-0.24-0.27-0.36c-0.39-0.52-1.1-0.84-1.71-0.45C368.86,378.36,368.5,379.18,368.92,379.74L368.92,379.74z"/>
			</g>
		</g>
		<g>
			<g>
				<path class="st2" d="M370.96,341.02c0.19,0.11,0.38,0.24,0.56,0.37c0.07,0.05,0.17,0.18-0.03-0.03c0.04,0.04,0.08,0.07,0.12,0.1
					c0.08,0.07,0.16,0.14,0.24,0.21c0.16,0.15,0.32,0.31,0.47,0.47c0.08,0.09,0.15,0.18,0.23,0.27c0.12,0.14-0.05-0.03-0.05-0.07
					c0,0.04,0.1,0.13,0.12,0.16c0.26,0.36,0.49,0.75,0.67,1.15c0.02,0.04,0.09,0.21,0.02,0.03c-0.07-0.18,0,0,0.01,0.03
					c0.04,0.11,0.08,0.22,0.12,0.33c0.08,0.22,0.14,0.45,0.19,0.68c0.11,0.48,0.57,0.83,1.04,0.9c0.51,0.07,0.96-0.17,1.25-0.6
					c1.15-1.73,1.82-3.7,2.06-5.76c0.03-0.3-0.16-0.68-0.37-0.88c-0.22-0.22-0.57-0.38-0.88-0.37c-0.32,0.01-0.66,0.12-0.88,0.37
					c-0.24,0.26-0.32,0.54-0.37,0.88c-0.01,0.06-0.01,0.12-0.02,0.18c0.03-0.19,0.03-0.21,0.01-0.07c-0.02,0.12-0.04,0.23-0.06,0.35
					c-0.04,0.2-0.08,0.41-0.13,0.61c-0.1,0.43-0.23,0.86-0.39,1.28c-0.04,0.11-0.09,0.22-0.13,0.33c-0.11,0.29,0.11-0.25-0.01,0.03
					c-0.1,0.22-0.2,0.43-0.31,0.64c-0.2,0.4-0.43,0.78-0.68,1.15c0.76,0.1,1.52,0.2,2.28,0.3c-0.49-2.16-1.91-4.07-3.81-5.21
					c-0.56-0.34-1.4-0.14-1.71,0.45C370.19,339.92,370.36,340.66,370.96,341.02L370.96,341.02z"/>
			</g>
		</g>
		<g>
			<g>
				<path class="st2" d="M375.77,307.5c0.55,0.95,1.18,1.85,1.87,2.7c0.31,0.38,0.63,0.78,0.99,1.12c0.61,0.59,1.41,0.81,2.2,0.43
					c0.53-0.26,0.87-0.75,1.18-1.23c0.29-0.47,0.58-0.94,0.88-1.41c0.61-0.98,1.21-1.95,1.82-2.93c0.35-0.56,0.14-1.4-0.45-1.71
					c-0.61-0.32-1.34-0.15-1.71,0.45c-0.5,0.81-1,1.61-1.5,2.42c-0.24,0.39-0.49,0.79-0.73,1.18c-0.13,0.21-0.26,0.41-0.39,0.62
					c-0.06,0.09-0.12,0.19-0.17,0.28c-0.03,0.04-0.05,0.08-0.08,0.13c-0.05,0.07-0.04,0.06,0.04-0.05c-0.2,0.13,0.12-0.03-0.01,0.03
					c-0.15,0.09-0.04,0.06,0.33-0.08c0.12,0.03,0.24,0.06,0.35,0.09c0.1,0.09,0.12,0.1,0.06,0.04c-0.04-0.03-0.07-0.07-0.11-0.11
					c-0.07-0.07-0.14-0.15-0.21-0.22c-0.29-0.31-0.56-0.64-0.83-0.97c-0.25-0.31,0.14,0.19-0.1-0.13c-0.06-0.08-0.12-0.16-0.18-0.24
					c-0.13-0.18-0.26-0.36-0.38-0.55c-0.25-0.37-0.48-0.75-0.7-1.13c-0.33-0.57-1.15-0.81-1.71-0.45
					C375.64,306.16,375.42,306.89,375.77,307.5L375.77,307.5z"/>
			</g>
		</g>
		<g>
			<g>
				<path class="st2" d="M381.42,287.31c0.18,0.01-0.12-0.01-0.14-0.02c0.03,0.02,0.25,0.09,0.03-0.01
					c-0.2-0.08-0.05-0.02-0.01,0.01c0.1,0.08-0.18-0.2-0.11-0.09c0.02,0.04,0.08,0.08,0.11,0.11c0.12,0.12-0.07-0.07-0.08-0.1
					c0.01,0.06,0.1,0.17,0.13,0.23c0.11,0.18-0.07-0.22-0.03-0.08c0.01,0.04,0.03,0.09,0.05,0.13c0.03,0.09,0.05,0.18,0.07,0.27
					c0.01,0.05,0.01,0.12,0.03,0.17c-0.01-0.03-0.03-0.3-0.02-0.13c0.01,0.11,0.01,0.22,0.02,0.32c0.05,1.08,0.14,2.31,1.04,3.05
					c0.36,0.29,0.75,0.45,1.22,0.32c0.42-0.12,0.75-0.45,0.87-0.87c0.13-0.47,0.29-0.93,0.47-1.38c0.02-0.05,0.07-0.12,0.07-0.17
					c-0.01,0.07-0.09,0.2-0.02,0.05c0.05-0.11,0.1-0.22,0.15-0.33c0.11-0.23,0.23-0.46,0.35-0.69c0.23-0.43,0.49-0.84,0.76-1.24
					c0.07-0.1,0.14-0.2,0.21-0.3c0.04-0.05,0.07-0.1,0.11-0.15c0.02-0.03,0.14-0.19,0.04-0.05c-0.1,0.14,0.02-0.03,0.04-0.05
					c0.04-0.05,0.08-0.09,0.12-0.14c0.09-0.11,0.18-0.21,0.27-0.31c0.43-0.49,0.52-1.29,0-1.77c-0.47-0.43-1.31-0.53-1.77,0
					c-1.49,1.71-2.59,3.7-3.21,5.88c0.7-0.18,1.39-0.37,2.09-0.55c-0.05-0.04-0.09-0.08-0.14-0.12c-0.14-0.14,0.04-0.04,0.04,0.06
					c0-0.02-0.06-0.1-0.07-0.12c-0.12-0.17,0.07,0.21,0.02,0.07c-0.03-0.11-0.07-0.21-0.09-0.32c-0.01-0.06-0.02-0.12-0.04-0.18
					c-0.03-0.16,0.03,0.27,0.01,0.1c-0.04-0.56-0.05-1.12-0.15-1.67c-0.22-1.26-1.11-2.38-2.46-2.43c-0.65-0.03-1.28,0.59-1.25,1.25
					C380.2,286.76,380.72,287.28,381.42,287.31L381.42,287.31z"/>
			</g>
		</g>
		<g>
			<g>
				<path class="st2" d="M358.71,319.05c0.14-0.03,0.11-0.03-0.09,0c0.11,0,0.1,0-0.01-0.01c-0.11-0.02-0.12-0.01-0.02,0.01
					c-0.16-0.07-0.2-0.09-0.12-0.04c0.08,0.05,0.05,0.02-0.09-0.08c0.04,0.04,0.09,0.08,0.13,0.12c0.02,0.02,0.04,0.04,0.06,0.06
					c0.09,0.1,0.08,0.09-0.03-0.04c0.04-0.01,0.26,0.44,0.28,0.49c0.13,0.25-0.06-0.2,0.02,0.04c0.04,0.14,0.1,0.27,0.14,0.4
					c0.38,1.09,0.76,2.17,1.14,3.26c0.18,0.5,0.63,0.94,1.21,0.92c0.59-0.03,1-0.38,1.21-0.92c0.24-0.63,0.35-0.89,0.68-1.57
					c0.26-0.54,0.54-1.07,0.84-1.58c0.3-0.52,0.62-1.02,0.96-1.51c0.43-0.62,0.61-0.85,1.04-1.37c0.42-0.5,0.53-1.28,0-1.77
					c-0.46-0.42-1.32-0.54-1.77,0c-1.78,2.15-3.17,4.53-4.16,7.14c0.8,0,1.61,0,2.41,0c-0.47-1.32-0.87-2.69-1.42-3.98
					c-0.52-1.24-1.61-2.4-3.08-2c-0.63,0.17-1.08,0.9-0.87,1.54C357.39,318.83,358.04,319.24,358.71,319.05L358.71,319.05z"/>
			</g>
		</g>
		<g>
			<g>
				<path class="st2" d="M358.99,359.23c0.59-1.7,0.59-3.63,0.01-5.34c0,0.22,0,0.44,0,0.66c-0.09,0.19-0.11,0.23-0.04,0.11
					c-0.04,0.09-0.1,0.15-0.18,0.2c-0.09,0.07-0.1,0.07-0.01,0.02c-0.11,0.07-0.24,0.1-0.37,0.1c0.34-0.03,0.64-0.12,0.88-0.37
					c0.22-0.22,0.38-0.57,0.37-0.88c-0.03-0.62-0.55-1.32-1.25-1.25c-0.43,0.04-0.79,0.15-1.13,0.41c-0.31,0.24-0.58,0.59-0.67,0.99
					c-0.11,0.44,0.07,0.82,0.17,1.23c0.03,0.13,0.06,0.27,0.09,0.4c0.01,0.06,0.02,0.12,0.03,0.18c0.04,0.24-0.02-0.18,0-0.02
					c0.05,0.52,0.07,1.03,0.02,1.55c0,0.04-0.03,0.24,0,0.06c0.03-0.18,0,0.03-0.01,0.06c-0.02,0.14-0.05,0.27-0.08,0.4
					c-0.06,0.27-0.14,0.53-0.23,0.79c-0.21,0.62,0.24,1.39,0.87,1.54C358.15,360.26,358.76,359.9,358.99,359.23L358.99,359.23z"/>
			</g>
		</g>
		<g>
			<g>
				<path class="st2" d="M349.09,389.04c-0.46-2.05-0.91-4.1-1.37-6.15c-0.14-0.64-0.92-1.07-1.54-0.87
					c-0.67,0.22-1.03,0.85-0.87,1.54c0.46,2.05,0.91,4.1,1.37,6.15c0.14,0.64,0.92,1.07,1.54,0.87
					C348.89,390.36,349.24,389.72,349.09,389.04L349.09,389.04z"/>
			</g>
		</g>
		<g>
			<g>
				<path class="st2" d="M334.23,412.31c-0.03-0.12-0.05-0.24-0.07-0.37c-0.02-0.14-0.02-0.12,0,0.06
					c-0.01-0.06-0.01-0.12-0.02-0.19c-0.02-0.22-0.03-0.43-0.03-0.65c0-0.25,0.01-0.5,0.03-0.75c0.01-0.06,0.01-0.12,0.02-0.19
					c-0.02,0.18-0.03,0.2-0.01,0.06c0.02-0.11,0.04-0.21,0.06-0.32c0.05-0.23,0.1-0.45,0.17-0.68c0.04-0.12,0.08-0.24,0.12-0.35
					c0.01-0.03,0.15-0.37,0.07-0.2c-0.07,0.18,0.08-0.16,0.09-0.19c0.05-0.11,0.11-0.22,0.17-0.33c0.12-0.22,0.25-0.43,0.39-0.63
					c0.37-0.54,0.12-1.41-0.45-1.71c-0.64-0.34-1.31-0.13-1.71,0.45c-1.33,1.93-1.75,4.38-1.26,6.66c0.14,0.64,0.92,1.07,1.54,0.87
					C334.03,413.63,334.38,413,334.23,412.31L334.23,412.31z"/>
			</g>
		</g>
		<g>
			<g>
				<path class="st2" d="M297.02,419.47c0.61,0.91,1.3,1.78,2.05,2.58c0.84,0.9,1.88,2.04,3.24,1.63c1.26-0.37,1.51-1.74,1.78-2.84
					c0.26-1.1,0.53-2.21,0.79-3.31c0.15-0.63-0.2-1.38-0.87-1.54c-0.64-0.15-1.37,0.19-1.54,0.87c-0.23,0.96-0.46,1.92-0.69,2.88
					c-0.11,0.45-0.21,0.9-0.32,1.35c-0.02,0.07-0.04,0.14-0.06,0.22c-0.02,0.05-0.03,0.1-0.05,0.14c0.02-0.05,0.05-0.11,0.07-0.16
					c-0.02,0.04-0.04,0.09-0.07,0.13c-0.07,0.11-0.05,0.09,0.08-0.08c-0.02,0.02-0.03,0.03-0.05,0.05c-0.1,0.09-0.06,0.07,0.09-0.07
					c0.19-0.07,0.23-0.09,0.14-0.06c-0.08,0.02-0.04,0.02,0.12-0.01c0.19,0.03,0.21,0.03,0.08,0c0.15,0.07,0.18,0.08,0.09,0.03
					c-0.04-0.02-0.08-0.05-0.12-0.07c0.13,0.1,0.14,0.11,0.03,0.02c-0.07-0.06-0.14-0.13-0.21-0.19c-0.31-0.3-0.61-0.6-0.9-0.92
					c-0.29-0.32-0.56-0.65-0.84-0.98c-0.09-0.11-0.08-0.1,0.01,0.02c-0.04-0.05-0.08-0.11-0.12-0.16c-0.06-0.08-0.12-0.16-0.18-0.24
					c-0.14-0.19-0.27-0.38-0.4-0.57c-0.36-0.54-1.12-0.83-1.71-0.45C296.93,418.11,296.63,418.89,297.02,419.47L297.02,419.47z"/>
			</g>
		</g>
		<g>
			<g>
				<path class="st2" d="M298.77,384.55c0.28,0.13,0.56,0.26,0.82,0.42c0.14,0.08,0.28,0.17,0.41,0.26c0.06,0.04,0.14,0.09,0.2,0.14
					c-0.07-0.07-0.13-0.11-0.03-0.01c0.24,0.21,0.47,0.43,0.68,0.68c0.11,0.13,0.03-0.01-0.02-0.03c0.04,0.01,0.11,0.16,0.14,0.2
					c0.09,0.13,0.17,0.27,0.24,0.42c0.01,0.03,0.11,0.22,0.03,0.06c-0.08-0.17,0.02,0.07,0.04,0.11c0.05,0.15,0.09,0.3,0.12,0.45
					c0.01,0.03,0.01,0.17,0.03,0.18c-0.02-0.16-0.03-0.2-0.02-0.1c0,0.03,0.01,0.06,0.01,0.09c0.01,0.15,0.01,0.31,0.01,0.46
					c0,0.06-0.03,0.18-0.02,0.23c-0.02-0.07,0.04-0.23,0-0.06c-0.04,0.15-0.08,0.29-0.12,0.44c-0.06,0.22,0.08-0.13,0-0.01
					c-0.04,0.07-0.07,0.14-0.11,0.2c-0.03,0.05-0.06,0.1-0.1,0.15c-0.16,0.26,0.17-0.19-0.03,0.04c-0.43,0.5-0.52,1.29,0,1.77
					c0.47,0.43,1.31,0.53,1.77,0c1.18-1.37,1.38-3.26,0.69-4.91c-0.65-1.53-2-2.67-3.49-3.33c-0.6-0.27-1.37-0.19-1.71,0.45
					C298.03,383.38,298.13,384.26,298.77,384.55L298.77,384.55z"/>
			</g>
		</g>
		<g>
			<g>
				<path class="st2" d="M299.66,343.09c0.91,1.12,1.83,2.23,2.74,3.35c0.51,0.63,1.6,0.4,1.96-0.25c0.91-1.63,1.35-3.46,2.22-5.07
					c0.39-0.72,0.69-1.14,1.28-1.68c0.21-0.19,0.39-0.33,0.74-0.52c0.09-0.05,0.19-0.1,0.29-0.14c-0.13,0.05,0,0,0.06-0.01
					c0.1-0.03,0.2-0.06,0.31-0.09c0.03-0.01,0.31-0.06,0.11-0.03c0.67-0.09,1.25-0.51,1.25-1.25c0-0.61-0.58-1.34-1.25-1.25
					c-2.05,0.26-3.6,1.53-4.68,3.25c-1.09,1.73-1.51,3.76-2.49,5.52c0.65-0.08,1.31-0.17,1.96-0.25c-0.91-1.12-1.83-2.23-2.74-3.35
					c-0.43-0.52-1.32-0.44-1.77,0C299.14,341.84,299.23,342.56,299.66,343.09L299.66,343.09z"/>
			</g>
		</g>
		<g>
			<g>
				<path class="st2" d="M299.38,280.78c0.19,0.05,0.37,0.14,0.56,0.18c-0.17-0.07-0.19-0.08-0.07-0.03
					c0.05,0.02,0.1,0.05,0.15,0.07c0.07,0.04,0.15,0.08,0.22,0.12c0.1,0.06,0.19,0.12,0.28,0.18c0.02,0.02,0.05,0.03,0.07,0.05
					c0.11,0.08,0.09,0.07-0.05-0.04c0.12,0.02,0.35,0.31,0.43,0.39c0.06,0.06,0.11,0.12,0.17,0.18c0.04,0.04,0.07,0.08,0.11,0.13
					c-0.11-0.14-0.12-0.16-0.04-0.05c0.11,0.16,0.22,0.32,0.31,0.49c0.04,0.07,0.08,0.15,0.11,0.22c0.06,0.12,0.05,0.1-0.02-0.07
					c0.02,0.05,0.04,0.1,0.06,0.16c0.07,0.18,0.12,0.37,0.16,0.56c0.14,0.61,0.79,0.97,1.37,0.9c0.6-0.08,1.1-0.6,1.08-1.23
					c-0.01-0.26,0-0.51,0.01-0.77c0.01-0.13,0.02-0.26,0.03-0.38c0.02-0.14,0.01-0.13-0.01,0.05c0.01-0.06,0.02-0.13,0.03-0.19
					c0.08-0.49,0.21-0.97,0.37-1.44c0.04-0.11,0.08-0.21,0.12-0.32c0.05-0.13,0.05-0.12-0.02,0.03c0.03-0.06,0.05-0.12,0.08-0.18
					c0.11-0.23,0.22-0.46,0.35-0.68c0.13-0.22,0.26-0.44,0.41-0.65c0.03-0.05,0.27-0.4,0.09-0.13c0.07-0.1,0.16-0.2,0.25-0.3
					c0.43-0.5,0.52-1.29,0-1.77c-0.47-0.43-1.31-0.53-1.77,0c-1.6,1.87-2.51,4.25-2.45,6.73c0.82-0.11,1.64-0.22,2.46-0.33
					c-0.46-2.06-2.15-3.77-4.19-4.29c-0.63-0.16-1.39,0.21-1.54,0.87C298.36,279.9,298.7,280.61,299.38,280.78L299.38,280.78z"/>
			</g>
		</g>
		<g>
			<g>
				<path class="st2" d="M304.22,241.04c0.16-0.92,0.38-1.83,0.67-2.71c0.14-0.44,0.31-0.86,0.48-1.29
					c0.04-0.08,0.03-0.06-0.03,0.07c0.03-0.06,0.05-0.12,0.08-0.18c0.05-0.1,0.09-0.21,0.14-0.31c0.1-0.22,0.21-0.44,0.32-0.66
					c0.3-0.58,0.17-1.38-0.45-1.71c-0.57-0.3-1.39-0.17-1.71,0.45c-0.92,1.78-1.58,3.7-1.92,5.67c-0.11,0.64,0.17,1.38,0.87,1.54
					C303.28,242.05,304.1,241.73,304.22,241.04L304.22,241.04z"/>
			</g>
		</g>
		<g>
			<g>
				<path class="st2" d="M298.52,204.72c0.49,0.27,0.96,0.56,1.41,0.88c0.11,0.08,0.22,0.16,0.34,0.24c0.2,0.15,0.05-0.01,0,0
					c0.02-0.01,0.13,0.1,0.14,0.12c0.23,0.18,0.45,0.37,0.66,0.57c0.41,0.37,0.79,0.77,1.16,1.19c0.09,0.1,0.18,0.21,0.27,0.32
					c0.04,0.05,0.08,0.1,0.12,0.14c0.19,0.24-0.1-0.14,0,0c0.17,0.24,0.34,0.47,0.51,0.72c-0.06-0.21-0.11-0.42-0.17-0.63
					c0.01-0.08,0.02-0.16,0.02-0.23c0.11-0.18,0.21-0.37,0.32-0.55c-0.19,0.23,0.03,0.14,0.66-0.25c0.43,0.02,0.72,0.24,0.89,0.65
					c-0.02-0.1-0.02-0.1,0,0.01c0.01,0.11,0.02,0.12,0.01,0.01c0.03-0.23,0.02-0.46,0.04-0.69c0.01-0.1,0.02-0.2,0.03-0.31
					c0.02-0.14,0.02-0.14-0.01,0.03c0.01-0.07,0.02-0.13,0.03-0.2c0.03-0.22,0.08-0.44,0.12-0.65c0.1-0.45,0.22-0.89,0.36-1.33
					c0.08-0.23,0.16-0.45,0.25-0.67c0.12-0.32-0.11,0.23,0.03-0.08c0.06-0.12,0.11-0.25,0.17-0.37c0.28-0.59,0.18-1.38-0.45-1.71
					c-0.56-0.29-1.41-0.18-1.71,0.45c-0.49,1.04-0.89,2.12-1.11,3.25c-0.12,0.59-0.2,1.2-0.24,1.8c-0.06,0.78,0.02,1.61,0.74,2.07
					c0.76,0.48,1.85,0.21,2.21-0.64c0.2-0.47,0.14-0.94-0.14-1.36c-0.14-0.2-0.28-0.4-0.43-0.6c-0.63-0.84-1.32-1.62-2.11-2.31
					c-0.87-0.77-1.83-1.46-2.86-2.02c-0.57-0.31-1.39-0.16-1.71,0.45C297.76,203.59,297.91,204.39,298.52,204.72L298.52,204.72z"/>
			</g>
		</g>
		<g>
			<g>
				<path class="st2" d="M296.65,168.81c1.93,1.94,4.22,3.54,6.72,4.66c0.91,0.41,1.77-0.09,1.88-1.08
					c0.24-2.25-0.08-4.58-0.93-6.67c-0.25-0.6-0.84-1.1-1.54-0.87c-0.58,0.19-1.14,0.89-0.87,1.54c0.4,0.98,0.67,2,0.83,3.05
					c-0.04-0.27,0.01,0.11,0.01,0.13c0.01,0.14,0.03,0.27,0.04,0.41c0.02,0.25,0.03,0.51,0.04,0.76c0.01,0.55-0.02,1.1-0.08,1.64
					c0.63-0.36,1.25-0.72,1.88-1.08c-1.19-0.53-2.32-1.17-3.39-1.9c-0.26-0.18-0.52-0.36-0.77-0.55c-0.02-0.01-0.2-0.15-0.09-0.07
					c0.12,0.09-0.14-0.11-0.14-0.11c-0.12-0.09-0.23-0.19-0.34-0.28c-0.51-0.43-1-0.88-1.48-1.35c-0.46-0.46-1.31-0.5-1.77,0
					C296.19,167.54,296.16,168.31,296.65,168.81L296.65,168.81z"/>
			</g>
		</g>
	</g>
</g>
</svg>
