<?xml version="1.0" encoding="utf-8"?>
<!-- Generator: Adobe Illustrator 21.1.0, SVG Export Plug-In . SVG Version: 6.00 Build 0)  -->
<svg version="1.0" id="Layer_1" xmlns="http://www.w3.org/2000/svg" xmlns:xlink="http://www.w3.org/1999/xlink" x="0px" y="0px"
	 viewBox="0 0 512 512" enable-background="new 0 0 512 512" xml:space="preserve">
<g>
	<g>
		<path fill="#FFFFFF" d="M141.2,32C125.8,11.4,104.9,0,82.4,0C60,0,39.1,11.4,23.6,32C8.9,51.6,0.8,77.5,0.8,104.9
			c0,27.4,8.1,53.3,22.8,72.9c8.6,11.5,18.9,20.1,30.2,25.4L36.5,462.9c-0.8,12.7,3.6,25.2,12.3,34.5c8.7,9.3,20.9,14.6,33.6,14.6
			c12.7,0,24.9-5.3,33.6-14.6c8.7-9.3,13.2-21.8,12.3-34.5l-17.3-259.7c11.3-5.4,21.6-14,30.2-25.4c14.7-19.6,22.8-45.5,22.8-72.9
			S156,51.6,141.2,32z M98.9,481.4c-4.3,4.6-10.1,7.1-16.4,7.1c-6.3,0-12.1-2.5-16.4-7.1c-4.3-4.6-6.4-10.6-6-16.9l17-254.9
			c1.8,0.2,3.7,0.3,5.5,0.3c1.8,0,3.7-0.1,5.5-0.3l17,254.9C105.3,470.8,103.2,476.8,98.9,481.4z M82.4,186.3
			c-4.2,0-8.3-0.6-12.3-1.8c-0.3-0.1-0.7-0.2-1-0.3c-25.7-8.4-44.9-40.8-44.9-79.3c0-44.9,26.1-81.4,58.1-81.4
			c32.1,0,58.1,36.5,58.1,81.4S114.5,186.3,82.4,186.3z"/>
	</g>
</g>
<g>
	<g>
		<path fill="#FFFFFF" d="M511.2,305.9V13.2l-0.1,0c0.3-2.6-0.2-5.3-1.7-7.7c-3.4-5.5-10.6-7.2-16.2-3.8
			c-47.9,29.6-76.5,80.9-76.5,137.2c0,0,0,0,0,0v153.8c0,13.5,10.8,24.5,24.2,24.9v159c0,19.4,15.8,35.1,35.1,35.1
			c19.4,0,35.1-15.8,35.1-35.1L511.2,305.9C511.2,306,511.2,305.9,511.2,305.9z M441.7,294.2c-0.8,0-1.4-0.6-1.4-1.4V139
			c0,0,0,0,0,0c0-40.6,17.4-78.2,47.5-104.1v259.4H441.7z M487.7,476.7c0,6.4-5.2,11.6-11.6,11.6c-6.4,0-11.6-5.2-11.6-11.6v-159
			h23.3L487.7,476.7L487.7,476.7z"/>
	</g>
</g>
<g>
	<g>
		<path fill="#FFFFFF" d="M332.8,0c-6.5,0-11.7,5.3-11.7,11.7v133.4h-29.9V11.7c0-6.5-5.3-11.7-11.7-11.7c-6.5,0-11.7,5.3-11.7,11.7
			v133.4h-29.9V11.7C237.7,5.3,232.5,0,226,0s-11.7,5.3-11.7,11.7v170c0,19.1,15.6,34.7,34.7,34.7h2.1l-16.5,247.6
			c-0.8,12.4,3.6,24.6,12,33.7c8.5,9,20.4,14.2,32.8,14.2c12.4,0,24.3-5.2,32.8-14.2c8.5-9,12.8-21.3,12-33.7l-16.5-247.7h2.1
			c19.1,0,34.7-15.6,34.7-34.7v-170C344.5,5.3,339.3,0,332.8,0z M295,481.7c-4.1,4.4-9.7,6.8-15.7,6.8s-11.6-2.4-15.7-6.8
			c-4.1-4.4-6.1-10.1-5.7-16.1l16.6-249.2h9.6l16.6,249.2C301.2,471.6,299.1,477.3,295,481.7z M321.1,181.7c0,6.2-5,11.2-11.2,11.2
			h-46.6c0,0,0,0,0,0H249c-6.2,0-11.2-5-11.2-11.2v-13.1h83.3V181.7z"/>
	</g>
</g>
</svg>
