<?xml version="1.0" encoding="utf-8"?>
<!-- Generator: Adobe Illustrator 24.2.3, SVG Export Plug-In . SVG Version: 6.00 Build 0)  -->
<svg version="1.1" id="Layer_1" xmlns="http://www.w3.org/2000/svg" xmlns:xlink="http://www.w3.org/1999/xlink" x="0px" y="0px"
	 viewBox="0 0 2160 870.8" style="enable-background:new 0 0 2160 870.8;" xml:space="preserve">
<style type="text/css">
	.st0{fill:#0071BA;}
	.st1{fill:#0287D1;}
	.st2{fill:#006837;}
	.st3{fill:#22B573;}
	.st4{fill:#009245;}
</style>
<path class="st0" d="M168.8,307.8h154.7c13.7,0,24.9,11.1,24.9,24.9l0,0v85.9l0,0H143.9l0,0v-85.9
	C143.9,318.9,155.1,307.8,168.8,307.8L168.8,307.8z"/>
<path class="st0" d="M227.8,180.8c-25.8,25.8-26.3,67.2-1.1,92.5s66.6,24.8,92.5-1L227.8,180.8z"/>
<rect x="243.5" y="226.9" transform="matrix(0.7071 -0.7071 0.7071 0.7071 -81.1788 262.8749)" class="st0" width="66.5" height="5.1"/>
<rect x="241.6" y="215.7" transform="matrix(0.8426 -0.5385 0.5385 0.8426 -73.9156 181.1001)" class="st0" width="62.6" height="2.7"/>
<rect x="257.7" y="231.9" transform="matrix(0.5385 -0.8426 0.8426 0.5385 -63.1654 351.1902)" class="st0" width="62.6" height="2.7"/>
<ellipse transform="matrix(0.7071 -0.7071 0.7071 0.7071 -55.301 273.6403)" class="st0" cx="302.7" cy="203.6" rx="7.3" ry="7.9"/>
<path class="st0" d="M218.4,273.4L218.4,273.4c5.7,0,10.3,4.6,10.3,10.3v61.9c0,5.7-4.6,10.3-10.3,10.3l0,0
	c-5.7,0-10.3-4.6-10.3-10.3v-61.9C208.2,278,212.8,273.4,218.4,273.4z"/>
<path class="st0" d="M234.5,285L234.5,285c5.6,0,10.1,4.5,10.1,10.1v16c0,5.6-4.5,10.1-10.1,10.1l0,0c-5.6,0-10.1-4.5-10.1-10.1v-16
	C224.4,289.5,229,285,234.5,285z"/>
<circle class="st1" cx="218.8" cy="282.8" r="3.8"/>
<circle class="st1" cx="235.5" cy="293.4" r="3.8"/>
<path class="st1" d="M240.6,345.7h41.2c21,0,38,17,38,38l0,0v20.1l0,0H202.6l0,0v-20.1C202.6,362.7,219.6,345.7,240.6,345.7
	L240.6,345.7z"/>
<path class="st1" d="M134.4,332.8L134.4,332.8c20.1,0,36.5,16.3,36.5,36.5l0,0v39.2l0,0H98l0,0v-39.2
	C98,349.2,114.3,332.8,134.4,332.8z"/>
<path class="st1" d="M449.8,217.1L449.8,217.1c23.2,0,42,18.8,42,42l0,0v124.6l0,0h-83.9l0,0V259.1
	C407.8,235.9,426.6,217.1,449.8,217.1L449.8,217.1z"/>
<path class="st0" d="M496.8,231.5L496.8,231.5c16.7,0,30.3,13.6,30.3,30.3v121.9l0,0h-60.6l0,0V261.8
	C466.5,245.1,480.1,231.5,496.8,231.5L496.8,231.5z"/>
<path class="st0" d="M392.6,350h18.9l0,0v33.8l0,0h-45.3l0,0v-7.3C366.1,361.8,378,350,392.6,350z"/>
<path class="st0" d="M421,328.9h8.5c11.2,0,20.3,9.1,20.3,20.3l0,0v18c0,1.3-1,2.3-2.3,2.3H421c-11.2,0-20.3-9.1-20.3-20.3l0,0l0,0
	C400.7,338,409.8,328.9,421,328.9z"/>
<path class="st0" d="M393.8,363.7h54.4c7.1,0,12.8,5.7,12.8,12.8v7.2l0,0h-67.2c-5.5,0-10-4.5-10-10l0,0
	C383.7,368.2,388.2,363.7,393.8,363.7z"/>
<path class="st2" d="M2160,380.8V769H866.8V469.4c25.3-5.9,50.3-13.2,74.8-21.9c359.7-127.7,627-152.8,707.4-157.7
	c7.2-0.4,12.9-0.7,17-0.9c4.1-0.2,70.3-0.4,102.6-0.3h8.6c4.8,0,7.9,0.1,8.6,0.1c1.5,0.1,3,0.2,4.7,0.4c2.6,0.2,5.4,0.5,8.6,0.8
	c4,0.4,8.5,0.9,13.4,1.4c2.7,0.3,5.6,0.6,8.6,1c4.2,0.5,8.7,1.1,13.4,1.7c2.8,0.4,5.6,0.8,8.6,1.2c4.3,0.6,8.8,1.2,13.4,2l8.6,1.3
	c4.3,0.7,8.8,1.4,13.4,2.2l8.6,1.5c4.4,0.7,8.8,1.6,13.4,2.4c2.8,0.5,5.7,1.1,8.6,1.6c4.4,0.8,8.9,1.7,13.4,2.6
	c2.8,0.6,5.7,1.2,8.6,1.8c5.5,1.2,11.1,2.4,16.7,3.6l7.6,1.7c29.8,6.7,62,15.1,95.3,25.4C2088,352.7,2124.4,365.9,2160,380.8z"/>
<path class="st0" d="M2022.5,243.4h-12v-44.8c0-1.9-1.5-3.4-3.4-3.4h-12.3c-1.9,0-3.4,1.5-3.4,3.4v44.8h-110.8v3.6
	c0-6.2-5.1-11.2-11.3-11.2h-75.5v-23.6c0-6.6-4.3-12.3-10.6-14.2v-25.8c0-5.3-3.4-10-8.4-12.6v-57.5c0-5-2.3-9.8-6.2-13
	c0.1-0.9,0.1-1.9,0.1-2.9c0-14.1-7.4-26-17.8-30.7V21.8l1.5-2.6L1741.3,0l-11.1,19.2l1.5,2.6v33.8c-10.4,4.7-17.8,16.6-17.8,30.7
	c0,1,0,1.9,0.1,2.9c-3.9,3.2-6.2,7.9-6.2,13v57.4c-5,2.6-8.4,7.3-8.4,12.6V198c-6.3,1.9-10.6,7.7-10.6,14.2v23.6h-75.5
	c-6.2,0-11.2,5-11.3,11.2v-4.9h-141.7c-22.9,0-41.4,18.5-41.4,41.4l0,0v144h183.2v-16.1c0,6.2,5.1,11.3,11.3,11.3H1869
	c6.2,0,11.3-5.1,11.3-11.3v17.4h183.2v-144C2063.9,261.9,2045.4,243.4,2022.5,243.4z"/>
<path class="st1" d="M1877.2,271.3c0-6-4.9-10.8-10.8-10.8h-13.8c3.2-3.9,2.7-9.7-1.3-12.9c-1.6-1.4-3.7-2.1-5.9-2.1h-207.7
	c-5.1,0-9.2,4.1-9.2,9.2c0,2.1,0.7,4.2,2.1,5.8h-13.8c-6,0-10.8,4.8-10.8,10.8c0,3.8,1.9,7.2,5.1,9.2v149.7h13.8v-148h21.5v148h13.8
	v-148h21.5v148h13.8v-148h21.5v148h13.8v-148h21.5v148h13.8v-148h21.5v148h13.8v-148h21.4v148h13.8v-148h21.5v148h13.8V280.4
	C1875.2,278.5,1877.1,275,1877.2,271.3z"/>
<circle class="st1" cx="1741.6" cy="164.4" r="22.5"/>
<path class="st1" d="M1441.9,277.7h7.5c3.4,0,6.2,2.8,6.2,6.2v27.3c0,3.4-2.8,6.2-6.2,6.2h-7.5c-3.4,0-6.2-2.8-6.2-6.2v-27.3
	C1435.7,280.5,1438.5,277.7,1441.9,277.7z"/>
<path class="st1" d="M1484.1,277.7h7.5c3.4,0,6.2,2.8,6.2,6.2v27.3c0,3.4-2.8,6.2-6.2,6.2h-7.5c-3.4,0-6.2-2.8-6.2-6.2v-27.3
	C1477.9,280.5,1480.7,277.7,1484.1,277.7z"/>
<path class="st1" d="M1526.3,277.7h7.5c3.4,0,6.2,2.8,6.2,6.2v27.3c0,3.4-2.8,6.2-6.2,6.2h-7.5c-3.4,0-6.2-2.8-6.2-6.2v-27.3
	C1520.2,280.5,1522.9,277.7,1526.3,277.7z"/>
<path class="st1" d="M1568.6,277.7h7.5c3.4,0,6.2,2.8,6.2,6.2v27.3c0,3.4-2.8,6.2-6.2,6.2h-7.5c-3.4,0-6.2-2.8-6.2-6.2v-27.3
	C1562.4,280.5,1565.1,277.7,1568.6,277.7z"/>
<path class="st1" d="M1441.9,337.7h7.5c3.4,0,6.2,2.8,6.2,6.2v27.3c0,3.4-2.8,6.2-6.2,6.2h-7.5c-3.4,0-6.2-2.8-6.2-6.2v-27.3
	C1435.7,340.5,1438.5,337.7,1441.9,337.7z"/>
<path class="st1" d="M1484.1,337.7h7.5c3.4,0,6.2,2.8,6.2,6.2v27.3c0,3.4-2.8,6.2-6.2,6.2h-7.5c-3.4,0-6.2-2.8-6.2-6.2v-27.3
	C1477.9,340.5,1480.7,337.7,1484.1,337.7z"/>
<path class="st1" d="M1526.3,337.7h7.5c3.4,0,6.2,2.8,6.2,6.2v27.3c0,3.4-2.8,6.2-6.2,6.2h-7.5c-3.4,0-6.2-2.8-6.2-6.2v-27.3
	C1520.2,340.5,1522.9,337.7,1526.3,337.7z"/>
<path class="st1" d="M1568.6,337.7h7.5c3.4,0,6.2,2.8,6.2,6.2v27.3c0,3.4-2.8,6.2-6.2,6.2h-7.5c-3.4,0-6.2-2.8-6.2-6.2v-27.3
	C1562.4,340.5,1565.1,337.7,1568.6,337.7z"/>
<path class="st1" d="M1903,337.7h7.5c3.4,0,6.2,2.8,6.2,6.2v27.3c0,3.4-2.8,6.2-6.2,6.2h-7.5c-3.4,0-6.2-2.8-6.2-6.2v-27.3
	C1896.8,340.5,1899.5,337.7,1903,337.7z"/>
<path class="st1" d="M1945.2,337.7h7.5c3.4,0,6.2,2.8,6.2,6.2v27.3c0,3.4-2.8,6.2-6.2,6.2h-7.5c-3.4,0-6.2-2.8-6.2-6.2v-27.3
	C1939,340.5,1941.8,337.7,1945.2,337.7z"/>
<path class="st1" d="M1987.4,337.7h7.5c3.4,0,6.2,2.8,6.2,6.2v27.3c0,3.4-2.8,6.2-6.2,6.2h-7.5c-3.4,0-6.2-2.8-6.2-6.2v-27.3
	C1981.2,340.5,1984,337.7,1987.4,337.7z"/>
<path class="st1" d="M2029.6,337.7h7.5c3.4,0,6.2,2.8,6.2,6.2v27.3c0,3.4-2.8,6.2-6.2,6.2h-7.5c-3.4,0-6.2-2.8-6.2-6.2v-27.3
	C2023.4,340.5,2026.2,337.7,2029.6,337.7z"/>
<path class="st1" d="M1903,281.7h7.5c3.4,0,6.2,2.8,6.2,6.2v27.3c0,3.4-2.8,6.2-6.2,6.2h-7.5c-3.4,0-6.2-2.8-6.2-6.2v-27.3
	C1896.8,284.5,1899.5,281.7,1903,281.7z"/>
<path class="st1" d="M1945.2,281.7h7.5c3.4,0,6.2,2.8,6.2,6.2v27.3c0,3.4-2.8,6.2-6.2,6.2h-7.5c-3.4,0-6.2-2.8-6.2-6.2v-27.3
	C1939,284.5,1941.8,281.7,1945.2,281.7z"/>
<path class="st1" d="M1987.4,281.7h7.5c3.4,0,6.2,2.8,6.2,6.2v27.3c0,3.4-2.8,6.2-6.2,6.2h-7.5c-3.4,0-6.2-2.8-6.2-6.2v-27.3
	C1981.2,284.5,1984,281.7,1987.4,281.7z"/>
<path class="st1" d="M2029.6,281.7h7.5c3.4,0,6.2,2.8,6.2,6.2v27.3c0,3.4-2.8,6.2-6.2,6.2h-7.5c-3.4,0-6.2-2.8-6.2-6.2v-27.3
	C2023.4,284.5,2026.2,281.7,2029.6,281.7z"/>
<path class="st3" d="M1363.5,442.8c-205.3-77.1-499.7-94.1-559.4-96.2c-5.2-0.2-114.7,0-119.9,0c-48.6,1-313.4,9-684.2,70.4v342.2
	h1438.9V460.4C1412.5,457.4,1387.2,451.7,1363.5,442.8z"/>
<g>
	<path class="st4" d="M1720.6,370.2c0,0-377.6,5.4-951.6,187.2c-306.4,97.1-580.3,23.1-769-66.9v380.4h2160V428.8
		C1928.3,380.4,1720.6,370.2,1720.6,370.2z"/>
</g>
</svg>
