<?xml version="1.0" encoding="utf-8"?>
<!-- Generator: Adobe Illustrator 21.1.0, SVG Export Plug-In . SVG Version: 6.00 Build 0)  -->
<svg version="1.0" id="Layer_1" xmlns="http://www.w3.org/2000/svg" xmlns:xlink="http://www.w3.org/1999/xlink" x="0px" y="0px"
	 viewBox="0 0 1371 1536" enable-background="new 0 0 1371 1536" xml:space="preserve">
<g>
	<path fill="#FFFFFF" d="M1371.1,768.3c0,103.6-0.2,207.3,0.1,310.9c0.1,50-26.4,99.8-72.8,126.8c-27.3,15.9-54.8,31.6-82.1,47.4
		c-151.9,87.7-303.8,175.4-455.7,263.1c-13.6,7.9-28,13.6-43.4,17c-15.8,3.5-31.7,4.2-47.8,2.4c-20.9-2.3-40.2-9-58.3-19.4
		c-114.3-66-228.6-132-342.8-197.9c-64.6-37.3-129.3-74.6-193.9-111.9c-25-14.4-44.2-34.5-57.5-60.1C9.3,1132.2,4.4,1117,2.1,1101
		c-1.1-7.1-1.6-14.2-1.6-21.4c0-207.4,0.1-414.8,0-622.2c0-50.1,26.3-100.1,73.4-127.3c57.4-33.2,114.9-66.3,172.3-99.5
		c96-55.4,192.1-110.9,288.1-166.3c25.7-14.8,51.4-29.6,77-44.5c16.2-9.4,33.6-15.7,52.1-18.5c10.3-1.6,20.7-2.1,31.1-1.4
		c23.9,1.5,46,8.5,66.7,20.4c165.6,95.7,331.3,191.3,496.9,286.9c13.3,7.7,26.6,15.3,39.8,23c24.6,14.3,43.5,34,56.7,59.2
		c8.4,16,13.6,32.9,15.7,50.9c0.6,5.5,0.9,10.9,0.9,16.4C1371.1,560.4,1371.1,664.3,1371.1,768.3z M1286.2,768.5
		c0-86.9,0-173.8,0-260.7c0-15.7-2.1-31.1-7.1-46.1c-11.8-35.8-33.9-63.5-66.4-82.5c-50.3-29.3-100.8-58.2-151.1-87.3
		c-100.2-57.8-200.3-115.6-300.5-173.5c-18.8-10.8-38.8-17.7-60.4-19.9c-13.5-1.4-27-0.9-40.3,1.4c-17.5,3.1-33.8,9.1-49.2,18.1
		c-11.5,6.7-23.1,13.4-34.7,20c-101,58.3-202,116.6-303,175c-38.2,22.1-76.4,44.1-114.6,66.2c-15.8,9.1-29.4,20.7-40.8,34.9
		c-21.7,27.3-32.6,58.4-32.6,93.2c0,173.8,0,347.6,0,521.4c0,8.2,0.5,16.3,1.8,24.4c2.4,15.2,7.1,29.8,14.2,43.5
		c13.4,26.1,32.9,46.4,58.3,61c150.4,86.8,300.9,173.7,451.3,260.6c19.3,11.1,39.9,17.9,62.1,19.8c14.3,1.2,28.4,0.4,42.4-2.5
		c16.1-3.3,31.2-9.3,45.4-17.5c122.5-70.8,245.1-141.5,367.7-212.3c28.2-16.3,56.5-32.5,84.7-48.9c26-15.2,45.5-36.5,58.5-63.6
		c9.8-20.4,14.4-41.9,14.4-64.5C1286.2,942,1286.2,855.2,1286.2,768.5z"/>
	<path fill="#FFFFFF" d="M874.8,892.6c-1.9,0.1-2.7-0.7-3.7-1.2c-34.3-18.4-68.5-36.9-102.8-55.3c-6.4-3.4-10.9-8.3-12.9-15.3
		c-0.8-2.7-1.1-5.5-1.1-8.3c-0.1-14.2-0.1-28.4-0.2-42.6c-0.1-19.5-0.1-39.1-0.2-58.6c0-0.6,0-1.1,0-1.7c0.1-1.3-0.3-2.2-1.5-2.7
		c-0.9-0.4-1.7-1-2.6-1.5c-20-11.5-39.9-23.1-59.9-34.6c-0.6-0.4-1.3-0.6-1.8-1.1c-1.7-1.3-3.1-1-4.9,0
		c-21.5,12.6-43,25.1-64.5,37.5c-1.8,1.1-2.4,2.3-2.4,4.4c0.1,19.3,0.2,38.5,0.2,57.8c0.1,24.9,0.1,49.8,0.2,74.7
		c0,9.1,0.1,18.3,0.1,27.4c0,0.8,0,1.7,0.1,2.5c0,1.2,0.6,2.1,1.7,2.7c2.1,1.1,4.2,2.2,6.3,3.3c78.1,41.5,156.1,82.9,234.2,124.4
		c1.1,0.6,2.2,1.2,3.3,1.8c8.6,4.8,13,12.1,13.1,22c0,21.9,0.1,43.9,0.1,65.8c0,21.9,0.1,43.9,0.1,65.8c0,17.7,0.1,35.4,0.1,53.1
		c0.1,16.2,0.1,32.3,0.2,48.5c0,2.8-0.2,5.6-1,8.3c-1.8,5.9-5.2,10.5-10.5,13.8c-1.4,0.9-2.9,1.7-4.4,2.5
		c-53.6,28.7-107.3,57.4-160.9,86.2c-9.4,5.1-18.2,5-27.6-0.1c-53.8-29.3-107.7-58.4-161.6-87.6c-2.2-1.2-4.4-2.4-6.3-4.2
		c-5-4.6-7.7-10.3-8.1-17.1c-0.1-1.1,0-2.2,0-3.4c0-3.8,0-7.6,0-11.4c0-58.4,0-116.7-0.1-175.1c0-11-0.1-21.9-0.1-32.9
		c0-1.1,0-2.3,0-3.4c0-0.8,0.7-1.3,1.4-0.9c1,0.5,2,1,3,1.5c34.4,18.5,68.8,37,103.2,55.5c5.3,2.8,9.4,6.6,11.8,12.1
		c1.5,3.4,2.2,6.9,2.2,10.7c0,13.5,0,27,0.1,40.5c0,19.8,0,39.7,0.1,59.5c0,0.8,0,1.7,0,2.5c0,1.1,0.3,1.9,1.3,2.4
		c0.9,0.5,1.7,1,2.6,1.4c20.2,11.1,40.4,22.2,60.6,33.2c4.3,2.4,3.2,2.3,7.6-0.1c20.6-11.2,41.2-22.4,61.8-33.7
		c4.3-2.4,3.8-1.3,3.8-6.4c-0.1-32.8-0.2-65.5-0.3-98.3c0-8.7-0.2-17.4-0.1-26.2c0-2.7-1-4-3.2-5.1c-10.3-5.4-20.6-11-30.9-16.5
		c-69.8-37.4-139.7-74.9-209.6-112.3c-10.5-5.6-15.2-13.8-15.2-25.5c0.1-31.9,0-63.8-0.1-95.8c0-23.1-0.1-46.1-0.2-69.2
		c0-11.5-0.1-23.1-0.1-34.6c-0.1-15.6-0.2-31.2-0.3-46.8c0-3,0.3-5.9,1.1-8.7c1.8-6,5.5-10.7,10.9-13.9c1.8-1.1,3.7-2,5.5-3
		c53.3-29,106.7-58,160-87c2.1-1.1,4.2-2.2,6.6-2.8c6.3-1.7,12.3-0.9,18,2.1c7.3,3.9,14.6,7.8,21.9,11.8
		c47,25.3,94.1,50.5,141.1,75.8c4.8,2.6,9,5.8,11.6,10.6c1.8,3.3,2.9,6.7,3,10.4c0,5.6,0.1,11.2,0.1,16.9c0,2.8-0.1,5.6-0.1,8.4
		c0,60.6,0,121.2,0,181.8C874.8,889.1,874.8,890.8,874.8,892.6z"/>
	<path fill="#FFFFFF" d="M927.4,1266.4c-0.3-2.9-0.1-5.4-0.1-7.9c0-1.4,0.1-2.8,0.2-4.2c0.1-36.6,0.1-73.1,0.2-109.7
		c0.1-41.5,0.1-83,0.2-124.4c0-25.3,0.1-50.6,0.1-75.9c0-34.4,0.1-68.9,0.1-103.3c0-20,0-39.9,0.1-59.9c0-18.3,0.1-36.6,0.2-54.8
		c0-1.3,0.1-2.5,0.2-3.8c0.6-10.4,12.3-19.1,24-14c1.2,0.5,2.3,1.1,3.4,1.7c29.6,15.8,59.2,31.6,88.9,47.5c0.2,0.1,0.5,0.2,0.7,0.4
		c3.5,2,3.3,1,3.3,5.4c0,31.4,0,62.7,0,94.1c0,12.4-0.1,24.7-0.1,37.1c0,60.2-0.1,120.4-0.1,180.5c0,5.7-0.6,5.8,4.8,2.9
		c14.5-7.7,29-15.5,43.5-23.2c0.6-0.3,1.2-0.7,1.9-1c1.1-0.5,1.7-1.4,1.6-2.7c-0.1-1.3,0-2.5,0-3.8c0-77.6,0-155.2,0-232.8
		c0-1.5-0.1-3.1,0-4.6c0.7-9.3,10.1-15.1,18.7-11.7c1.2,0.5,2.3,1.1,3.4,1.7c25.9,13.8,51.8,27.6,77.7,41.5c4.2,2.2,3.8,1.2,3.8,6.4
		c0,49.4,0,98.7,0,148.1c0,35.9-0.1,71.7-0.1,107.6c0,2.7,0,5.3-0.7,7.9c-1.9,6.6-5.8,11.5-11.7,14.9c-3.4,1.9-6.9,3.7-10.4,5.6
		c-83.2,44.3-166.5,88.5-249.7,132.8C930.3,1265.2,929,1265.7,927.4,1266.4z"/>
	<path fill="#FFFFFF" d="M305.1,717.4c0-51.9,0-103.1,0-154.1c-0.9-0.6-1.5-0.3-2.2,0c-7.2,3.9-14.4,7.6-21.5,11.6
		c-7.1,4-10.7,10.2-10.7,18.4c-0.1,16.3,0,32.6,0,48.9c0,26.4,0,52.9,0,79.3c0,2.1,0.1,4.2-0.4,6.3c-1.5,6.4-5.1,11.2-10.9,14.2
		c-7.5,3.9-14.9,7.9-22.3,11.8c-21.6,11.4-43.2,22.9-64.8,34.4c-5.2,2.8-4.5,1.9-4.5-2.7c0-2.2,0-4.5,0-6.7
		c0-71.7,0-143.4-0.1-215.1c0-38.5-0.1-77.1-0.1-115.6c0-2.8-0.1-5.6,0-8.4c0.4-7.1,3.7-12.5,9.6-16.4c1.2-0.8,2.4-1.4,3.7-2.1
		c28.8-15.3,57.6-30.6,86.4-45.9c0.6-0.3,1.2-0.7,1.9-1c1.6-0.8,2.1-0.5,2.1,1.1c0,1.1,0,2.2,0,3.4c0,15.9,0,31.8,0,47.7
		c-0.1,32.2-0.1,64.4-0.2,96.6c0,1.4,0,2.8,0.1,4.2c0,0.7,0.6,1,1.2,0.8c0.8-0.3,1.5-0.7,2.3-1.1c6-3.1,11.9-6.4,17.9-9.4
		c8.7-4.4,12.7-11.4,12.7-21C305,454,305,411.5,305,369.1c0-2.1-0.1-4.2,0.4-6.3c1.4-5.4,4.4-9.7,9.1-12.7c1.1-0.7,2.2-1.3,3.3-1.9
		c28.9-15.4,57.8-30.9,86.6-46.3c0.9-0.5,1.7-1,2.6-1.4c0.9-0.4,1.6,0,1.6,1.1c0.1,2.8,0.1,5.6,0.1,8.4c0,14.3,0.1,28.7,0.1,43
		c0,26,0,52,0.1,78c0,29.1,0.1,58.2,0.1,87.3c0,14.1,0.1,28.1,0.1,42.2c0,14.6,0.1,29.2,0.1,43.9c0.1,14.5,0.1,29,0.2,43.4
		c0,2.6-0.2,5.1-1,7.5c-1.6,5-4.6,8.9-9.2,11.7c-1.4,0.9-3,1.6-4.4,2.4c-28.4,15.2-56.8,30.3-85.2,45.4
		C308.5,715.7,307.1,716.4,305.1,717.4z"/>
	<path fill="#FFFFFF" d="M1154.4,591.9c1.8,1,3,1.7,4.2,2.4c10.3,5.7,20.7,11.4,31,17.1c1.8,1,3.7,2.1,5.3,3.4
		c5.5,4.5,8.4,10.4,8.9,17.5c0,0.8,0,1.7,0,2.5c0,14.9,0.1,29.8,0.1,44.7c0,21.9,0.1,43.9,0.1,65.8c0,8.7,0.1,17.4,0.1,26.2
		c0,1.3,0,2.5-0.1,3.8c-0.9,6.6-7.6,10.6-13.8,8.2c-1-0.4-2-1-3-1.5c-27.7-14.7-55.4-29.4-83-44.1c-0.4-0.2-0.7-0.4-1.1-0.6
		c-1.7-0.6-2.2-1.8-2.2-3.6c0.1-13.4,0.1-26.7,0.2-40.1c0-6.2,0.2-12.4,0.3-18.6c0.2-28.3,0.3-56.5,0.5-84.8c0-2.2,0-4.5,0.1-6.7
		c0-1.2-0.3-2.1-1.5-2.8c-6.7-3.6-13.3-7.4-20-10.8c-5.6-2.9-12-0.3-14.3,5.4c-0.4,1.1-0.6,2.1-0.7,3.3c0,1.3,0,2.5,0,3.8
		c0,38.2,0,76.5,0,114.7c0,1.4,0.1,2.8-0.1,4.2c-0.8,7.7-8.8,11.7-14.9,8.4c-1-0.5-2-1-3-1.6c-27.5-14.8-54.9-29.6-82.4-44.4
		c-0.7-0.4-1.5-0.8-2.2-1.2c-0.8-0.4-1.2-1.1-1.2-2c0-1.1,0-2.2,0-3.4c0-26.9,0-53.7,0.1-80.6c0-29.7,0.1-59.3,0.1-89
		c0.1-30.7,0.1-61.3,0.2-92c0-15,0.1-30.1,0.2-45.1c0-10.7,0.1-21.4,0.1-32.1c0-1,0-2,0.1-2.9c0.7-6.8,7.6-11,14-8.4
		c1,0.4,2,1,3,1.5c27.9,14.9,55.7,29.9,83.6,44.8c0.5,0.3,1,0.6,1.5,0.8c1.4,0.6,1.8,1.6,1.7,3c-0.1,1.1,0,2.2,0,3.4
		c0,38.4,0,76.8-0.1,115.2c0,9.4-0.1,18.8-0.2,28.3c0,0.4,0,0.8,0,1.3c0.1,5.4-0.5,4.3,3.9,6.8c4.7,2.6,9.3,5.2,14,7.8
		c1,0.5,2,1.1,3,1.5c2.9,1.2,5.8,1.2,8.6-0.2c3.4-1.7,5.4-4.4,5.7-8.3c0.1-1.3,0.1-2.5,0.1-3.8c-0.1-22.1-0.2-44.1-0.2-66.2
		c0-16.5-0.1-32.9-0.1-49.4c0-1.1,0-2.3,0-3.4c-0.1-6.1,6.8-12.1,14.2-9c1,0.4,2,1,3,1.5c27.4,14.7,54.8,29.3,82.1,44
		c4.4,2.4,3.9,1.4,3.9,6.4c0.1,36.7,0.1,73.4,0.2,110.1c0,5.9,0.2,11.8,0.2,17.7c0,4.4,0.5,3.7-3.4,5.8
		c-14.1,7.6-28.2,15.2-42.3,22.8C1157.4,590.2,1156.2,590.9,1154.4,591.9z"/>
	<path fill="#FFFFFF" d="M444.3,695.2c0,9.4,0,18.1,0,26.8c0,1.1,0,2.2,0,3.4c0,29.1-0.1,58.2-0.1,87.3c0,16.3,0,32.6-0.1,48.9
		c-0.1,16-0.2,32-0.2,48.1c-0.1,31.1-0.2,62.1-0.2,93.2c0,6.5-0.1,12.9-0.1,19.4c0,1.6-0.5,2.6-1.9,3.4
		c-8.8,5.2-17.7,10.4-26.4,15.8c-1.7,1-3,0.9-4.6,0c-12-6.5-24-12.9-36-19.3c-33.1-17.7-66.2-35.4-99.2-53.1
		c-1.4-0.8-2.8-1.7-4.8-2.1c0,1.8-0.1,3.3-0.1,4.8c0,30.6,0,61.3,0,91.9c0,24.3,0,48.6,0,73c0,1,0,2,0,3c0.1,7.1-7.8,12.9-15,9.2
		c-0.7-0.4-1.5-0.8-2.2-1.2c-27.2-14.7-54.4-29.4-81.5-44.1c-5-2.7-4.2-1.3-4.2-7c0-68.6-0.1-137.2-0.1-205.8
		c0-10.7-0.1-21.4-0.1-32.1c0-3.7,0.4-7.3,1.9-10.7c2.2-5.1,5.6-9,10.5-11.7c2.5-1.4,4.9-2.7,7.4-4
		c84.2-44.9,168.4-89.7,252.6-134.6C441,696.8,442.4,696.2,444.3,695.2z M357.1,886.3c0.1,0,0.2,0,0.3,0c0-4.5,0-9,0-13.5
		c0-4.5,0.1-9,0.1-13.5c0-8.6,0-17.1,0.1-25.7c0.1-9.5-10-17.1-20.1-12.3c-1,0.5-2,1-3,1.6c-19.8,10.7-39.5,21.4-59.3,32.1
		c-0.9,0.5-1.7,1-2.6,1.4c-1,0.5-1.4,1.3-1.4,2.3c0,1,0,2,0,3c0,10.7,0.1,21.4,0.1,32c0,4.6-0.4,3.7,3.5,5.7
		c25.8,13.7,51.5,27.5,77.3,41.2c4.7,2.5,5,3.7,5-2.8C357.1,920.6,357.1,903.4,357.1,886.3z"/>
	<path fill="#FFFFFF" d="M581.8,569.5c0-1.9,0-3.4,0-5c0-47.2,0-94.5,0-141.7c0-1.4,0-2.8-0.1-4.2c0-0.7-0.6-1-1.2-0.7
		c-0.9,0.4-1.8,0.9-2.6,1.3c-12.1,6.6-24.2,13.2-36.3,19.7c-7.8,4.2-11.7,10.7-11.8,19.5c-0.1,6,0.1,12.1,0.1,18.1
		c0,5.8,0,11.5,0,17.3c0.1,29.5,0.1,59.1,0.2,88.6c0,1.7,0,3.4-0.2,5c-1,7.2-4.8,12.5-11.1,15.9c-4.7,2.5-9.4,5-14.1,7.6
		c-19.6,10.5-39.2,20.9-58.7,31.4c-1,0.5-2,1.1-3,1.5c-0.6,0.2-1.1-0.1-1.2-0.7c-0.1-0.6-0.1-1.1-0.1-1.7c0.1-35,0.1-70,0.2-105
		c0-23.1,0.1-46.1,0.2-69.2c0.1-36.7,0.3-73.4,0.4-110.1c0.1-20.4,0.1-40.8,0.2-61.2c0-1.8,0-3.7,0.3-5.5
		c1.2-6.6,4.7-11.6,10.7-14.9c6.5-3.6,13.1-7.1,19.7-10.6c63.5-34.1,127-68.2,190.5-102.4c0.7-0.4,1.5-0.8,2.2-1.2
		c1.6-0.8,2.1-0.5,2.1,1.1c0,0.8,0,1.7,0,2.5c0,31.2,0.1,62.4,0.1,93.6c0,30.1,0,60.2,0,90.3c0.1,53.3,0.1,106.6,0.2,159.9
		c0,2,0,3.9-0.3,5.9c-1.1,6.4-4.5,11.1-9.9,14.5c-1.4,0.9-3,1.6-4.4,2.4c-22.6,12-45.1,24-67.7,36
		C585,568.4,583.8,569.2,581.8,569.5z M582,306.7c0.1,0,0.1,0,0.2,0c0-14.3,0-28.7,0-43c0-1.3,0-2.5-0.1-3.8
		c-0.1-0.7-0.6-0.9-1.2-0.7c-0.9,0.4-1.8,0.9-2.6,1.3c-7.2,3.8-14.4,7.6-21.6,11.4c-5.2,2.8-10.5,5.4-15.6,8.3
		c-6.8,3.8-10.4,9.6-10.9,17.4c-0.1,1.3,0,2.5,0,3.8c0.1,26.6,0.1,53.1,0.2,79.7c0,2.5,0.1,5.1,0.1,7.6c0,1.1,0.7,1.4,1.7,1
		c0.5-0.2,1-0.5,1.5-0.7c12.2-6.3,24.5-12.6,36.7-18.9c7.8-4.1,11.8-10.5,11.7-19.4C581.9,336,582,321.4,582,306.7z"/>
	<path fill="#FFFFFF" d="M927.1,401.1c-2-1-3.2-1.6-4.4-2.3c-26.2-14.2-52.4-28.3-78.6-42.5c-4.2-2.2-3.3-1.6-3.3-5.8
		c0.1-12.2,0.2-24.5,0.4-36.7c0-2.7,0-5.4,0.3-8c0.2-1.9-0.7-2.8-2.2-3.6c-5.7-2.8-11.3-5.8-16.9-8.7c-5.6-2.9-11.2-5.8-16.9-8.7
		c-1.9-1-3.9-1.6-6.1-1.5c-5.1,0.2-9.3,4.2-9.9,9.3c-0.1,1,0,2,0,3c0,23.5,0,47,0,70.5c0,20.2,0,40.5,0.1,60.7
		c0,21.2,0.1,42.5,0.1,63.7c0,1,0,2,0,3c0.5,5.5,3.2,9.5,8.1,12c8.9,4.6,17.7,9.3,26.5,13.9c5,2.6,9.9,5.2,14.9,7.8
		c1.4,0.7,2.1,0.3,2.1-1.2c-0.1-5.6-0.2-11.2-0.2-16.9c-0.1-10.3-0.1-20.5-0.2-30.8c0-0.4,0.2-0.8,0.3-1.2c1.6-0.1,2.7,0.9,3.9,1.6
		c23.5,12.4,47,24.8,70.4,37.3c3.5,1.8,6.9,3.7,10.4,5.5c1.1,0.6,1.7,1.4,1.6,2.7c-0.1,1,0,2,0,3c0,10.4,0,20.8,0,31.2
		c0,21.9,0.1,43.9,0.1,65.8c0,1.8,0.1,3.6-0.5,5.4c-1.8,5.9-8,9-13.8,6.7c-1-0.4-2-1-3-1.5c-67.6-36.4-135.1-72.7-202.7-109.1
		c-5-2.7-4.2-1.5-4.2-7c-0.1-48.9-0.1-97.9-0.2-146.8c0-24,0-48.1-0.1-72.1c0-24.5,0-48.9-0.1-73.4c0-15-0.1-30.1-0.1-45.1
		c0-1.3,0-2.5,0.1-3.8c0.6-7,7.6-11.3,14.1-8.6c0.9,0.4,1.8,0.8,2.6,1.3c67.6,36,135.2,71.9,202.8,107.9c5.1,2.7,4.3,1.2,4.3,7.4
		c0,36.8,0,73.7,0,110.5C927.1,397.3,927.1,398.8,927.1,401.1z"/>
</g>
</svg>
