<?xml version="1.0" encoding="utf-8"?>
<!-- Generator: Adobe Illustrator 21.1.0, SVG Export Plug-In . SVG Version: 6.00 Build 0)  -->
<svg version="1.0" id="Layer_1" xmlns="http://www.w3.org/2000/svg" xmlns:xlink="http://www.w3.org/1999/xlink" x="0px" y="0px"
	 viewBox="0 0 512 512" enable-background="new 0 0 512 512" xml:space="preserve">
<g>
	<g>
		<g>
			<path fill="#FFFFFF" stroke="#FFFFFF" stroke-width="1.9805" stroke-miterlimit="10" d="M235.6,45.5h41.3c4.4,0,8-3.6,8-8
				c0-4.4-3.6-8-8-8h-41.3c-4.4,0-8,3.6-8,8C227.6,42,231.2,45.5,235.6,45.5z"/>
			<path fill="#FFFFFF" stroke="#FFFFFF" stroke-width="1.9805" stroke-miterlimit="10" d="M494.4,192.8L466.8,79.3
				c-0.3-1.1-7-27.6-33.3-38.8c-19.1-8.1-79.4-31-94.5-36.7c-1.4-1.1-3.1-1.8-5-1.8h-1.1H179.1c-0.3,0-0.5,0-0.8,0
				c-0.1,0-0.2,0-0.3,0c-0.1,0-0.3,0-0.4,0.1c-0.1,0-0.3,0.1-0.4,0.1c-0.1,0-0.2,0.1-0.3,0.1c-0.1,0-0.3,0.1-0.4,0.1
				c-0.1,0-0.1,0-0.2,0.1c-3.1,1.2-76.4,28.9-97.8,38C53.2,51.3,46,76.2,45.2,79.1c0,0,0,0,0,0c0,0.1,0,0.1,0,0.1c0,0.1,0,0.1,0,0.1
				L25.6,160c0,0,0,0,0,0l-8,32.8c-0.9,3.9,1.1,7.9,4.8,9.3l78.7,31.3v235V501c0,4.4,3.6,8,8,8h293.7c4.4,0,8-3.6,8-8v-32.5V316
				c0-4.4-3.6-8-8-8s-8,3.6-8,8v144.4H198.1c-4.4,0-8,3.6-8,8s3.6,8,8,8h196.7V493H117.2v-16.5h54.2c4.4,0,8-3.6,8-8
				c0-4.4-3.6-8-8-8h-54.2V228v-34.3v-62c0-1.5-0.4-2.9-1.2-4.1L75.6,60.7c2.6-2.1,5.6-4,9.1-5.5c16.4-7,65.5-25.7,87-33.9
				c5.1,47.3,41.9,85.4,84.8,85.4c42.8,0,79.5-37.8,84.8-84.9c22,8.4,69.8,26.6,85.9,33.4c3.5,1.5,6.5,3.4,9.1,5.5L396,127.5
				c-0.8,1.2-1.2,2.7-1.2,4.1v62V228v61.4c0,4.4,3.6,8,8,8c4.4,0,8-3.6,8-8v-55.9l78.7-31.3C493.2,200.7,495.3,196.7,494.4,192.8z
				 M101.2,216.2l-66.3-26.3l4.1-17l62.2,26.1L101.2,216.2L101.2,216.2z M101.2,133.8v47.8l-58.4-24.5l18-74c0-0.1,1.1-4.2,4.1-9.4
				L101.2,133.8z M256.6,90.7c-31.6,0-65.4-28.9-69.1-72.7h138.2C322,61.8,288.2,90.7,256.6,90.7z M410.8,133.8l36.4-60.1
				c1.9,3.4,3.1,6.4,3.6,8c0,0,0,0,0,0c0.1,0.2,0.1,0.3,0.1,0.4c0,0,0,0.1,0,0.1c0,0.1,0.1,0.2,0.1,0.3c0,0,0,0.1,0,0.1
				c0,0.1,0,0.1,0.1,0.2c0,0,0,0.1,0,0.1c0,0,0,0.1,0,0.1c0,0,0,0,0,0.1c0,0,0,0.1,0,0.1l18,74l-58.4,24.5L410.8,133.8L410.8,133.8z
				 M410.8,216.2V199l62.2-26.1l4.1,17L410.8,216.2z"/>
		</g>
	</g>
</g>
</svg>
