<svg xmlns="http://www.w3.org/2000/svg" viewBox="0 0 190.48 153.43"><defs><style>.cls-1{fill:#ee7c0e;}.cls-2{fill:#fdbb58;}</style></defs><g id="Layer_2" data-name="Layer 2"><g id="Layer_1-2" data-name="Layer 1"><g id="QJjIOU"><path class="cls-1" d="M53.35,124C37.41,103.27,33,80.3,40.13,55.25A76.24,76.24,0,0,1,111.3,0c34-.8,64.06,19.93,75,51.6a76.79,76.79,0,0,1-50.17,98.45c-16.3,5-32.38,4.18-48.43-1.08a63.37,63.37,0,0,1-20.92-11.85l.59-.63c7.5,3.91,14.6,8.57,22.72,11.26a46.12,46.12,0,0,0,17.66,2.3c1.06-.07,2.63.2,2.78-1.38.1-1.14-1.16-1.53-2.09-1.82-3.49-1.08-6.94-2.36-10.49-3.08a80.84,80.84,0,0,1-28.55-11.27c-6.62-4.33-11.67-10.3-17.27-15.7L50,114l-1.05-1-.15-.39.19.34,1,1.06a4.42,4.42,0,0,0,1.52,3.43L54,122.92ZM115.16,4c-15.73.16-29.87,4.25-41,12-1.38,1-4.16,1.92-2.86,3.94,2.17,3.38-.19,5.27-1.52,7.56-3.87,6.67-3.53,12.85.79,18.08,2.29,2.76,4.06,3,6.17-.13A38.8,38.8,0,0,1,86,35.75c2.83-2,4.57-.18,6.45,1.55,2.31,2.12.5,3.43-.83,4.94-1.76,2-3.5,4-5.14,6.11-4.24,5.44-3.92,6.11,2.45,9.25,7.22,3.57,15.16,5.12,22,10,9,6.44,10.37,7.91,6.89,18.67-.9,2.78-.85,5.07,1.22,7.35a42,42,0,0,0,22.13,12.74,7.2,7.2,0,0,0,8.25-3.08c3.07-4.36,6.23-8.62,8.12-13.7.56-1.52.89-4.14,3.46-3.31,2.24.73,1.84,3,1.34,4.75-1.18,4.15-2.54,8.26-3.9,12.36-.5,1.47-.83,2.82,1.41,2.44A49.13,49.13,0,0,0,183.13,95c1-.81,1.22-2.66,1.6-4.09,2.49-9.35,2.16-18.9.65-28.23C179.79,28.24,150.09,3.6,115.16,4Zm-1.25,79.42c1.32-3.89,1-6.9-.74-9.76-.42-.71-1.08-1.42-2-1.13s-.84,1.32-.63,2.1C111.31,77.42,111.42,80.5,113.91,83.38Z"/><path class="cls-1" d="M28,86.9c4,3.62,5.28,10.7,2.89,16.36s-8.72,9.91-14.48,9.57C7.53,112.32.35,105.49,0,97.29c-.32-7.73,6.57-14.76,15.42-15.75-3.56,2.87-4.51,6-1,9.6,1.62,1.68,1.65,3.36-.06,5.22s-2.8,4-.49,8c1.08-7.9,4.15-9.19,10-5.72,3.12,1.87,5.57-1,5.33-5.19C29.05,91.21,26.7,89.39,28,86.9Z"/><path class="cls-1" d="M41.15,132c3.58,4.47,4,9.29,1.18,13.13a10.85,10.85,0,0,1-12.42,3.73,11,11,0,0,1-6.65-11.17c.7-5.08,4.12-8.15,9.78-8.77-3.78,3-.62,5.53.64,8.17a5.8,5.8,0,0,0,6.66,3c2.86-.57.89-3.27.9-5.07C41.25,134,41.18,133,41.15,132Z"/><path class="cls-1" d="M27.76,49.07c1.79,3.52.57,6.33-2.18,8.67-4,3.4-8.47,2.73-12.51.6-3.59-1.9-5.19-5.53-4.79-9.69.51-5.31,3.83-8.38,9.84-9.36-4.41,3.62.64,6.46.81,9.71l-1,1a1.8,1.8,0,0,0-1.44,2.21c0,.12.27.32.35.29,1.25-.41,1-1.54,1.13-2.46l1-1Z"/><path class="cls-2" d="M28,86.9c-1.27,2.49,1.08,4.31,1.21,6.59.24,4.2-2.21,7.06-5.33,5.19C18,95.21,15,96.5,13.89,104.4c-2.31-4.09-1.18-6.23.49-8s1.68-3.54.06-5.22c-3.52-3.64-2.57-6.73,1-9.6l1.65,0,.14,0C21.53,81.87,25.28,83.32,28,86.9Z"/><path class="cls-2" d="M41.15,132c0,1,.1,2,.09,3,0,1.8,2,4.5-.9,5.07a5.8,5.8,0,0,1-6.66-3c-1.26-2.64-4.42-5.13-.64-8.17A8.62,8.62,0,0,1,41.15,132Z"/><path class="cls-2" d="M27.76,49.07,19,49l0,0c-.17-3.25-5.22-6.09-.81-9.71C24.85,39.53,27.26,42,27.76,49.07Z"/><path class="cls-1" d="M59.82,131.09a26.75,26.75,0,0,1-6.47-7.15l.64-1a26.48,26.48,0,0,1,6.38,7.59C60.19,130.7,60,130.89,59.82,131.09Z"/><path class="cls-1" d="M66.74,137.14l-4.56-3.67.81-.58a10.27,10.27,0,0,1,4.34,3.62Z"/><path class="cls-1" d="M61.38,132.76l-1.56-1.67c.18-.2.37-.39.55-.58L62,131.86Z"/><path class="cls-1" d="M17.22,81.54l-.14,0a2.2,2.2,0,0,0,.14-.18Z"/><path class="cls-1" d="M62.18,133.47l-.8-.71.64-.9,1,1Z"/><path class="cls-2" d="M115.16,4c34.93-.36,64.63,24.28,70.22,58.72,1.51,9.33,1.84,18.88-.65,28.23-.38,1.43-.61,3.28-1.6,4.09a49.13,49.13,0,0,1-23.22,10.85c-2.24.38-1.91-1-1.41-2.44,1.36-4.1,2.72-8.21,3.9-12.36.5-1.74.9-4-1.34-4.75-2.57-.83-2.9,1.79-3.46,3.31-1.89,5.08-5,9.34-8.12,13.7a7.2,7.2,0,0,1-8.25,3.08A42,42,0,0,1,119.1,93.65c-2.07-2.28-2.12-4.57-1.22-7.35,3.48-10.76,2.1-12.23-6.89-18.67-6.87-4.91-14.81-6.46-22-10-6.37-3.14-6.69-3.81-2.45-9.25,1.64-2.1,3.38-4.12,5.14-6.11,1.33-1.51,3.14-2.82.83-4.94-1.88-1.73-3.62-3.59-6.45-1.55a38.8,38.8,0,0,0-9.31,9.65c-2.11,3.09-3.88,2.89-6.17.13-4.32-5.23-4.66-11.41-.79-18.08,1.33-2.29,3.69-4.18,1.52-7.56-1.3-2,1.48-3,2.86-3.94C85.29,8.21,99.43,4.12,115.16,4Z"/><path class="cls-2" d="M63,132.89l-1-1-1.65-1.35A26.48,26.48,0,0,0,54,122.92l-2.58-5.49c.24-.2.46-.4.68-.61,5.6,5.4,10.65,11.37,17.27,15.7a80.84,80.84,0,0,0,28.55,11.27c3.55.72,7,2,10.49,3.08.93.29,2.19.68,2.09,1.82-.15,1.58-1.72,1.31-2.78,1.38a46.12,46.12,0,0,1-17.66-2.3c-8.12-2.69-15.22-7.35-22.72-11.26A10.27,10.27,0,0,0,63,132.89Z"/><path class="cls-2" d="M113.91,83.38c-2.49-2.88-2.6-6-3.36-8.79-.21-.78-.41-1.76.63-2.1s1.57.42,2,1.13C114.88,76.48,115.23,79.49,113.91,83.38Z"/><path class="cls-2" d="M51.41,117.43A4.42,4.42,0,0,1,49.89,114l.06,0,2.14,2.87C51.87,117,51.65,117.23,51.41,117.43Z"/><polygon class="cls-2" points="48.94 112.94 48.75 112.6 48.9 112.99 48.94 112.94"/><path class="cls-2" d="M48.9,113,50,114l-.06,0-1-1.06Z"/><path class="cls-2" d="M18,50c-.16.92.12,2-1.13,2.46-.08,0-.33-.17-.35-.29A1.8,1.8,0,0,1,17.93,50Z"/><path class="cls-2" d="M19,49l-1,1,0,0,1-1Z"/></g></g></g></svg>