<svg xmlns="http://www.w3.org/2000/svg" viewBox="0 0 132.75 132.71"><defs><style>.cls-1{fill:#fd6e4f;}.cls-2{fill:#fe9367;}.cls-3{fill:#fe8862;}.cls-4{fill:#fe7e5b;}.cls-5{fill:#fe7855;}.cls-6{fill:#fece97;}.cls-7{fill:#feb483;}.cls-8{fill:#feae7a;}.cls-9{fill:#fcd39d;}.cls-10{fill:#fe966c;}.cls-11{fill:#fec18c;}.cls-12{fill:#fe9f73;}</style></defs><g id="Layer_2" data-name="Layer 2"><g id="Layer_1-2" data-name="Layer 1"><path class="cls-1" d="M84.25,130.19l-4.92,1.3a75.53,75.53,0,0,1-8.75,1A6.6,6.6,0,0,1,73,129.63a77.79,77.79,0,0,0,10.36-10.41c2.67-3.22,5.46-6.37,7.49-10.07l5.64-1.9L108.69,103c2.65-1.17,5.29-2.36,8-3.49a5,5,0,0,0,2.83-2.9,106.31,106.31,0,0,0,6.11-20.95,86.18,86.18,0,0,0,1.91-18.4c0-1.21-.1-2.79-1.94-1.5-2.49,1.74-5.08,3.4-7,5.85a8.94,8.94,0,0,0-2.78,2.07c-1.88,1.84-3.79,3.65-5.68,5.47a5.65,5.65,0,0,1-.41-2c.83-4.47.62-9,1.35-13.51L117.17,48A4.12,4.12,0,0,0,119,46.93c2.83-2,5.36-4.52,8.55-6.06a60.31,60.31,0,0,1,5.16,22.42,71.3,71.3,0,0,1-3.24,24.23,74.62,74.62,0,0,1-8.59,16.74c-.54.75-1.15,1.45-1.73,2.18a98.52,98.52,0,0,0-13.61,5.64,57.94,57.94,0,0,0-15.23,12C88.29,126.12,86.26,128.14,84.25,130.19Z"/><path class="cls-2" d="M85.15,2.82a3.33,3.33,0,0,1,1.91.55A14,14,0,0,0,89.17,12a3.38,3.38,0,0,1,.22,1.84,11.19,11.19,0,0,0,1,4.55c1.12,2.9,2.58,5.7,2.82,8.89l-.94.47c-.9.17-1.83.27-2.71.52-3.18.9-6.34,1.85-9.52,2.78a10.85,10.85,0,0,0-.74-3.42c-.9-3.33-3-6.26-3.39-9.73a9.66,9.66,0,0,0-2.46-5.69A60,60,0,0,1,80.3,5.39c1.1-.91,2.57-1.51,3-3l.92.15Z"/><path class="cls-3" d="M93.17,27.28c-.24-3.19-1.7-6-2.82-8.89a11.19,11.19,0,0,1-1-4.55A3.38,3.38,0,0,0,89.17,12a14,14,0,0,1-2.11-8.63,51.4,51.4,0,0,1,14.11,6.56,11,11,0,0,0,.9,7.63A18.42,18.42,0,0,1,104,24.45Z"/><path class="cls-1" d="M115.64,22a50.9,50.9,0,0,1,8.51,11.87,46.09,46.09,0,0,0-8.4,4.2c-2,.17-3.64,1.64-5.64,1.9A2.1,2.1,0,0,1,109,38.56c-.57-4.91-2.31-9.61-2.64-14.57Z"/><path class="cls-2" d="M61.13.33A.53.53,0,0,1,61.34,0l6.45.08c1.31.53,1.48,1.45.88,2.6a13.7,13.7,0,0,0-1.6,6.49c0,2.45-.45,5.07,1.17,7.3-1.71,2.56-4.54,3.91-6.59,6.1l-2.34.51c-2.26-5.44-2.14-10.93-.51-16.52C59.43,4.41,61.32,2.76,61.13.33Z"/><path class="cls-3" d="M68.24,16.47c-1.62-2.23-1.15-4.85-1.17-7.3a13.7,13.7,0,0,1,1.6-6.49c.6-1.15.43-2.07-.88-2.6A49.45,49.45,0,0,1,83.35,2.34c-.48,1.54-1.95,2.14-3,3.05a60,60,0,0,0-6.89,6.82Z"/><path class="cls-4" d="M115.64,22l-9.29,2-2.37.46a18.42,18.42,0,0,0-1.91-6.89,11,11,0,0,1-.9-7.63A55.31,55.31,0,0,1,115.64,22Z"/><path class="cls-5" d="M115.75,38.09a46.09,46.09,0,0,1,8.4-4.2,27.54,27.54,0,0,1,3.35,7c-3.19,1.54-5.72,4-8.55,6.06A4.12,4.12,0,0,1,117.17,48C117.07,44.64,117.29,41.24,115.75,38.09Z"/><path class="cls-3" d="M85.15,2.82l-.88-.33Z"/><path class="cls-6" d="M13.18,26.8A60.14,60.14,0,0,1,32,9.62c0,2.38-1.61,4.14-2.49,6.18s-2.23,3.94-2.19,6.3l-1.41.48c-4.55,0-4.5,0-5.81,4.32a83.2,83.2,0,0,0-1.92,8.23c-.26,1.3-.82,2.87.22,3.8s2-.75,3.09-1a2.67,2.67,0,0,0,.42-.2c2.24-1,3.07-.54,3,1.93a62.67,62.67,0,0,0,.32,8.37c.95,8.35-2.09,15.12-7,21.47-1.72,2.25-3.08,4.77-4.6,7.16-2,1.38-3.92,2.82-6,4.1-1.76,1.1-3,3-5.21,3.42a6.63,6.63,0,0,1-.62-2.77,40.22,40.22,0,0,1,5-10.27,33.15,33.15,0,0,0,4.48-10.46,61.73,61.73,0,0,1,2.72-8.25c1.18-2.91,2-5.91,3-8.89.22-.69.43-1.41-.36-1.87s-1.16.07-1.69.43a39.19,39.19,0,0,0-3.89,3.39c-2,1.78-3.27,4.3-5.53,5.89-.57-.75-.23-1.34,0-1.92a38,38,0,0,1,2.94-7.16C11,38,11.51,33,13.35,28.39A1.93,1.93,0,0,0,13.18,26.8Z"/><path class="cls-3" d="M31.84,122.86a8.57,8.57,0,0,1-2.74-1.74c2.08-4.06,6.44-5.53,9.81-7.87,6-4.2,12.26-8.09,17.25-13.53,2.23-2.43,4.82-4.7,6-8,5.55-2.71,11.51-4.62,16.47-8.47,3.47-1.52,6-4.36,8.93-6.59a7.71,7.71,0,0,1-.26,1.37c-3.14,8.67-7,17-12.53,24.41a4.74,4.74,0,0,0-1.32,3.4c-1.91,1.33-4.32,1.74-6.11,3.29C55.54,113.89,43.38,117.57,31.84,122.86Z"/><path class="cls-7" d="M15.45,108.74a30.93,30.93,0,0,1-5.12-7.1,33,33,0,0,0,6-5.29c3.73-4.64,8.25-8.54,12.21-13A202.71,202.71,0,0,1,44.72,67.75c2.64-1.54,4.59-4.09,7.52-5.2a2.22,2.22,0,0,1,.63,2.32C51.24,73.94,46.41,81.32,40,87.57s-13.26,11.78-20,17.6a2.53,2.53,0,0,0-1.22,2.11A5.75,5.75,0,0,1,15.45,108.74Z"/><path class="cls-8" d="M44.72,67.75A202.71,202.71,0,0,0,28.5,83.36c-4,4.45-8.48,8.35-12.21,13a33,33,0,0,1-6,5.29A19.15,19.15,0,0,1,7.39,96.5,2.26,2.26,0,0,0,9,94.93c2-4.81,5.41-8.59,9.13-12.07s6.72-7.2,10.14-10.75a10.57,10.57,0,0,0,2.8-5.31L34.36,64c.7-.62,1.42-1.21,2.09-1.85q4.84-4.71,9.67-9.44A1.67,1.67,0,0,1,46.49,54a60.89,60.89,0,0,1-2.13,11.27C44.09,66.14,43.55,67.07,44.72,67.75Z"/><path class="cls-9" d="M13.18,26.8a1.93,1.93,0,0,1,.17,1.59C11.51,33,11,38,8.51,42.33a38,38,0,0,0-2.94,7.16c-.18.58-.52,1.17,0,1.92,2.26-1.59,3.51-4.11,5.53-5.89A39.19,39.19,0,0,1,15,42.13c.53-.36,1-.83,1.69-.43s.58,1.18.36,1.87c-1,3-1.84,6-3,8.89a61.73,61.73,0,0,0-2.72,8.25A33.15,33.15,0,0,1,6.87,71.17a40.22,40.22,0,0,0-5,10.27C-.2,74.45-.23,67.32.25,60.14c.08-1.09.17-2.17.26-3.26,1.11-5.19,2.16-10.39,4.25-15.31C7,36.31,9.49,31.22,13.18,26.8Z"/><path class="cls-5" d="M90.82,109.15c-2,3.7-4.82,6.85-7.49,10.07A77.79,77.79,0,0,1,73,129.63a6.6,6.6,0,0,0-2.39,2.83,50.2,50.2,0,0,1-16.3-1c4.09-2.87,8.31-5.59,12-9C69,120,72,117.65,73.88,114.33l.48-.47,2.91-.74C81.84,112,86.18,110.06,90.82,109.15Z"/><path class="cls-2" d="M62.12,91.74c-1.14,3.28-3.73,5.55-6,8-5,5.44-11.21,9.33-17.25,13.53-3.37,2.34-7.73,3.81-9.81,7.87a26.79,26.79,0,0,1-5.62-4.32,7.88,7.88,0,0,1,2.24-2.36c5.19-3.86,10.36-7.76,15.66-11.46,2.63-1.83,5.65-3.37,7.1-6.54A115,115,0,0,1,62.12,91.74Z"/><path class="cls-10" d="M31.84,122.86c11.54-5.29,23.7-9,35.46-13.71.85,1.83-.73,2.68-1.62,3.68-1.83,2-3.93,3.86-5.44,6.2-3.07,1.53-6.19,3-9.2,4.63-2.58,1.41-5.3,2.66-7.34,4.9A43.69,43.69,0,0,1,31.84,122.86Z"/><path class="cls-7" d="M31.07,66.8a10.57,10.57,0,0,1-2.8,5.31c-3.42,3.55-6.53,7.37-10.14,10.75S11,90.12,9,94.93A2.26,2.26,0,0,1,7.39,96.5,48.69,48.69,0,0,1,2.5,84.21c2.23-.39,3.45-2.32,5.21-3.42,2.05-1.28,4-2.72,6-4.1a9.29,9.29,0,0,0,2.95-1.35Z"/><path class="cls-10" d="M48.48,96.44C47,99.61,44,101.15,41.38,103c-5.3,3.7-10.47,7.6-15.66,11.46a7.88,7.88,0,0,0-2.24,2.36,40.61,40.61,0,0,1-8-8.06,5.75,5.75,0,0,0,3.4-1.46c8.88-3.61,17.68-7.39,26.81-10.36Z"/><path class="cls-4" d="M43.7,128.56c2-2.24,4.76-3.49,7.34-4.9,3-1.65,6.13-3.1,9.2-4.63,4.58-1.47,9-3.51,13.64-4.7C72,117.65,69,120,66.26,122.48c-3.67,3.39-7.89,6.11-12,9A40.13,40.13,0,0,1,43.7,128.56Z"/><path class="cls-10" d="M61.13.33c.19,2.43-1.7,4.08-2.33,6.23-1.63,5.59-1.75,11.08.51,16.52a2.25,2.25,0,0,1-1.48,1.65,40.47,40.47,0,0,1-7,3A24.63,24.63,0,0,1,52.5,5.51a4.94,4.94,0,0,0,.69-2.69L56,.94C57.72,1,59.35,0,61.13.33Z"/><path class="cls-11" d="M27.31,22.1c0-2.36,1.3-4.24,2.19-6.3S32,12,32,9.62a38.91,38.91,0,0,1,8.94-4.46c.8,1,0,1.73-.39,2.52-1,1.75-2.2,3.4-2.41,5.49a29.91,29.91,0,0,0-4.71,4.7C31.45,19.38,29.66,21.15,27.31,22.1Z"/><path class="cls-7" d="M38.13,13.17c.21-2.09,1.43-3.74,2.41-5.49.44-.79,1.19-1.53.39-2.52A47.21,47.21,0,0,1,56,.94L53.19,2.82a66.25,66.25,0,0,0-9.41,6.12Z"/><path class="cls-5" d="M84.25,130.19c2-2.05,4-4.07,6-6.15a57.94,57.94,0,0,1,15.23-12,98.52,98.52,0,0,1,13.61-5.64c-7.21,9.89-16.71,16.83-27.95,21.47A37.2,37.2,0,0,1,84.25,130.19Z"/><path class="cls-3" d="M90.82,109.15c-4.64.91-9,2.82-13.55,4l-2.91.74a3.48,3.48,0,0,1,1-1.78,84.23,84.23,0,0,0,6.52-8.87c.48-.78,1.2-1.54.43-2.54l4.85-4.32a43.14,43.14,0,0,0,8.33-9.3,8.34,8.34,0,0,0,1-.92q5.61-6.82,11.19-13.67c1.86.21,1.47,1.53,1.19,2.64-.89,3.48-1.75,7-2.82,10.39-2.39,7.62-6.06,14.68-9.67,21.76Z"/><path class="cls-5" d="M118.57,61.63c1.91-2.45,4.5-4.11,7-5.85,1.84-1.29,1.91.29,1.94,1.5a86.18,86.18,0,0,1-1.91,18.4,106.31,106.31,0,0,1-6.11,20.95,5,5,0,0,1-2.83,2.9c-2.67,1.13-5.31,2.32-8,3.49a8.36,8.36,0,0,1,.37-1.59,125.41,125.41,0,0,0,8.74-28.95C118.45,68.93,119.79,65.35,118.57,61.63Z"/><path class="cls-4" d="M118.57,61.63c1.22,3.72-.12,7.3-.77,10.85a125.41,125.41,0,0,1-8.74,29,8.36,8.36,0,0,0-.37,1.59l-12.23,4.23c3.61-7.08,7.28-14.14,9.67-21.76,1.07-3.42,1.93-6.91,2.82-10.39.28-1.11.67-2.43-1.19-2.65.6-1.22,2.1-1.8,2.35-3.28,1.89-1.82,3.8-3.63,5.68-5.47A8.94,8.94,0,0,1,118.57,61.63Z"/><path class="cls-5" d="M110.11,69.17c-.25,1.48-1.75,2.06-2.35,3.28q-5.6,6.85-11.19,13.68a8.34,8.34,0,0,1-1,.92,2.45,2.45,0,0,1-.09-2.65,61.8,61.8,0,0,0,3.1-10.54c.62-2.94,1.68-5.85,1.21-8.94a56.28,56.28,0,0,1,8-8.47l3.3-2.82c-.73,4.47-.52,9-1.35,13.51A5.65,5.65,0,0,0,110.11,69.17Z"/><path class="cls-4" d="M111.05,53.63l-3.3,2.82c-.07-4.88.41-9.8-.94-14.6l3.3-1.86c2-.26,3.6-1.73,5.64-1.9,1.54,3.15,1.32,6.55,1.42,9.9Z"/><path class="cls-5" d="M110.11,40l-3.3,1.86a107.35,107.35,0,0,0-10.35,3.31h-.94c-1.14-1.2-1-2.79-1.13-4.23-.4-4.45-2.16-8.67-2.16-13.18l.94-.47L104,24.45l2.37-.46c.33,5,2.07,9.66,2.64,14.57A2.1,2.1,0,0,0,110.11,40Z"/><path class="cls-12" d="M68.24,16.47l5.17-4.26a9.66,9.66,0,0,1,2.46,5.69c.35,3.47,2.49,6.4,3.39,9.73A10.85,10.85,0,0,1,80,31.05l-.46.47c-2.83.48-5.31,1.95-8,2.83-1.75.73-3.31,1.89-5.18,2.34-.11-.69-.15-1.39-.32-2.07-.87-3.37-2.72-6.47-2.67-10.1a1.94,1.94,0,0,0-1.72-1.95C63.7,20.38,66.53,19,68.24,16.47Z"/><path class="cls-4" d="M79.54,31.52l.46-.47c3.18-.93,6.34-1.88,9.52-2.78.88-.25,1.81-.35,2.71-.52,0,4.51,1.76,8.73,2.16,13.18.13,1.44,0,3,1.13,4.23l-7.06,2.35-5.17.94a3.87,3.87,0,0,1-1-2.55C81.7,41.05,81.2,36.17,79.54,31.52Z"/><path class="cls-8" d="M61.65,22.57a1.94,1.94,0,0,1,1.72,1.95c0,3.63,1.8,6.73,2.67,10.1.17.68.21,1.38.32,2.07l-1.89,1.4A24.55,24.55,0,0,0,57,42.81c-1.34.45-2.15,1.63-3.3,2.34.29-3.93-1.36-7.56-1.85-11.38-.23-1.73-.4-4-2.38-5.08l1.41-1a40.47,40.47,0,0,0,7-3,2.25,2.25,0,0,0,1.48-1.65Z"/><path class="cls-11" d="M31.07,66.8,16.63,75.34a9.29,9.29,0,0,1-2.95,1.35c1.52-2.39,2.88-4.91,4.6-7.16,4.88-6.35,7.92-13.12,7-21.47a62.67,62.67,0,0,1-.32-8.37c0-2.47-.79-2.93-3-1.93a2.67,2.67,0,0,1-.42.2c-1.1.22-2,1.92-3.09,1s-.48-2.5-.22-3.8a83.2,83.2,0,0,1,1.92-8.23c1.31-4.31,1.26-4.34,5.81-4.32-.26,3.66-1.54,7.16-1.68,10.86-.09,2.31.53,3,2.62,2.21,1.9-.7,3.77-1.49,5.65-2.24l1.88-.48c1,4.53,1.13,9.21,2.47,13.67A12,12,0,0,1,37,51a47.89,47.89,0,0,1-2.6,13Z"/><path class="cls-7" d="M32.49,33.41c-1.88.75-3.75,1.54-5.65,2.24-2.09.77-2.71.1-2.62-2.21.14-3.7,1.42-7.2,1.68-10.86l1.41-.48c2.35-1,4.14-2.72,6.11-4.23-.57,3.23-1.22,6.45-1.68,9.69C31.47,29.54,31,31.63,32.49,33.41Z"/><path class="cls-12" d="M48.48,96.44l-2.82.48a3.8,3.8,0,0,1,1.43-2.07c1.69-1.71,3.39-3.43,5-5.23C58,83,60.66,74.81,62.4,66.34,63.09,63,64,59.49,63.07,56c.85-1.11,2.81-.67,3.29-2.32,2.73-.07,5.1-1.31,7.52-2.37,3.19-.57,6.17-2,9.41-2.34a23.88,23.88,0,0,1,.45,3,69.75,69.75,0,0,1-2.07,18.59c-1,4.25-2.46,8.4-3.08,12.75-5,3.85-10.92,5.76-16.47,8.47A115,115,0,0,0,48.48,96.44Z"/><path class="cls-4" d="M99.75,64.92c.47,3.09-.59,6-1.21,8.94a61.8,61.8,0,0,1-3.1,10.54,2.45,2.45,0,0,0,.09,2.65,43.14,43.14,0,0,1-8.33,9.3l-4.85,4.32-8.94,5.19a4.74,4.74,0,0,1,1.32-3.4C80.25,95,84.12,86.72,87.26,78.05a7.71,7.71,0,0,0,.26-1.37l.47-.47a95.49,95.49,0,0,0,8.94-8.94Z"/><path class="cls-10" d="M88,76.21l-.47.47c-3,2.23-5.46,5.07-8.93,6.59.62-4.35,2.08-8.5,3.08-12.75a69.75,69.75,0,0,0,2.07-18.59,23.88,23.88,0,0,0-.45-3v-.48l5.17-.94a3.42,3.42,0,0,1,1.36,3.1c-.24,7.85,1.14,15.82-1.63,23.51A8.88,8.88,0,0,0,88,76.21Z"/><path class="cls-2" d="M73.41,105.86l8.94-5.19c.77,1,.05,1.76-.43,2.54a84.23,84.23,0,0,1-6.52,8.87,3.48,3.48,0,0,0-1,1.78l-.48.47c-4.67,1.19-9.06,3.23-13.64,4.7,1.51-2.34,3.61-4.15,5.44-6.2.89-1,2.47-1.85,1.62-3.68C69.09,107.6,71.5,107.19,73.41,105.86Z"/><path class="cls-8" d="M63.07,56c.94,3.53,0,7-.67,10.38C60.66,74.81,58,83,52.08,89.62c-1.6,1.8-3.3,3.52-5,5.23a3.8,3.8,0,0,0-1.43,2.07c-9.13,3-17.93,6.75-26.81,10.36a2.53,2.53,0,0,1,1.22-2.11c6.7-5.82,13.62-11.41,20-17.6s11.21-13.63,12.84-22.7a2.22,2.22,0,0,0-.63-2.32c1.79-2.13,4.53-2.93,6.59-4.68Z"/><path class="cls-12" d="M58.83,57.87c-2.06,1.75-4.8,2.55-6.59,4.68-2.93,1.11-4.88,3.66-7.52,5.2-1.17-.68-.63-1.61-.36-2.48A60.89,60.89,0,0,0,46.49,54a1.67,1.67,0,0,0-.37-1.31,72.43,72.43,0,0,1,7.53-7.54c1.15-.71,2-1.89,3.3-2.34.15,4.41,1.54,8.76.63,13.24C57.41,56.93,58.15,57.43,58.83,57.87Z"/><path class="cls-7" d="M53.65,45.15a72.43,72.43,0,0,0-7.53,7.54q-4.83,4.73-9.67,9.44c-.67.64-1.39,1.23-2.09,1.85A47.89,47.89,0,0,0,37,51a12,12,0,0,0-.12-4.4c-1.34-4.46-1.49-9.14-2.47-13.67L41.43,31l8-2.34c2,1.12,2.15,3.35,2.38,5.08C52.29,37.59,53.94,41.22,53.65,45.15Z"/><path class="cls-12" d="M49.42,28.69l-8,2.34a29.74,29.74,0,0,1,.22-15.69c.56-2.2,1.85-4.13,2.13-6.4a66.25,66.25,0,0,1,9.41-6.12,4.94,4.94,0,0,1-.69,2.69,24.63,24.63,0,0,0-1.67,22.23Z"/><path class="cls-8" d="M43.78,8.94c-.28,2.27-1.57,4.2-2.13,6.4A29.74,29.74,0,0,0,41.43,31l-7.06,1.9-1.88.48c-1.51-1.78-1-3.87-.75-5.85.46-3.24,1.11-6.46,1.68-9.69a29.91,29.91,0,0,1,4.71-4.7Z"/><path class="cls-3" d="M99.75,64.92l-2.82,2.35c.1-.84.17-1.69.29-2.54,1-6.57,1.27-13.11-.76-19.57a107.35,107.35,0,0,1,10.35-3.31c1.35,4.8.87,9.72.94,14.6A56.28,56.28,0,0,0,99.75,64.92Z"/><path class="cls-2" d="M96.46,45.16c2,6.46,1.72,13,.76,19.57-.12.85-.19,1.7-.29,2.54A95.49,95.49,0,0,1,88,76.21a8.88,8.88,0,0,1,.2-2.09c2.77-7.69,1.39-15.66,1.63-23.51a3.42,3.42,0,0,0-1.36-3.1l7.06-2.35Z"/><path class="cls-3" d="M83.29,48.45v.48c-3.24.38-6.22,1.77-9.41,2.34a80.56,80.56,0,0,0-2.34-16.92c2.69-.88,5.17-2.35,8-2.83,1.66,4.65,2.16,9.53,2.8,14.38A3.87,3.87,0,0,0,83.29,48.45Z"/><path class="cls-2" d="M71.54,34.35a80.56,80.56,0,0,1,2.34,16.92c-2.42,1.06-4.79,2.3-7.52,2.37-.62-5.19-.92-10.41-1.89-15.55l1.89-1.4C68.23,36.24,69.79,35.08,71.54,34.35Z"/><path class="cls-10" d="M64.47,38.09c1,5.14,1.27,10.36,1.89,15.55-.48,1.65-2.44,1.21-3.29,2.32l-4.24,1.91c-.68-.44-1.42-.94-1.25-1.82.91-4.48-.48-8.83-.63-13.24A24.55,24.55,0,0,1,64.47,38.09Z"/></g></g></svg>