<svg xmlns="http://www.w3.org/2000/svg" viewBox="0 0 187.48 199.68"><defs><style>.cls-1{fill:#8e3aa7;}.cls-2{fill:#d97ace;}</style></defs><g id="Layer_2" data-name="Layer 2"><g id="Layer_1-2" data-name="Layer 1"><g id="Ajb3EZ"><path class="cls-1" d="M108.06,163.29C72.75,165,37.56,139.6,28,105.24a83.08,83.08,0,0,1-.48-43.89c.75-2.87.5-5-1.63-7.2-2.67-2.76-6.73-4.43-7.37-8.92-.05-.35-1.14-.91-1.55-.78-1.26.39-.84,1.55-.86,2.52-.17,6.66-.33,13.32-.58,20-.06,1.81-.41,3.61-.63,5.41-.12-2-.25-4.07-.41-6.79-1.94,5-1.89,6.08.1,8.13,0,1.67,0,3.92-2.08,3.68-1.77-.19-1.14-2.49-1-3.87.71-7.11,1.4-14.23,2.38-21.31.93-6.69-.91-12.28-6.37-17.43-.33,4.75-.51,9.11-1,13.44-.28,2.53-.29,6.86-2.84,6.61C.77,54.53,2,50.38,2.1,47.9A76.44,76.44,0,0,1,3.33,37,47.84,47.84,0,0,0,1.09,10.54,17.1,17.1,0,0,1,0,5.69C-.29,1.33,1.62-.47,6,.1c5.06.66,9.43,3.25,13.64,5.84C27.68,10.86,36,15.48,42.83,22c2.87,2.73,4.79,2.53,7.86,0C66.88,8.78,85.17.76,106.49,1c1.64,0,3.28.34,4.91.52-.13,2-.71,3.41-3.25,3.15a29.92,29.92,0,0,0-6,.14C84.66,6.62,68.9,11.64,59.1,27.91c-5.29,8.79-3.57,17.78,4.64,23.79,2.66,1.94,4,1.56,4.94-1.64,1.17-4.16,2.5-8.28,3.93-12.36.57-1.64,1.12-3.93,3.61-3.27,2.73.74,2.74,2.93,2.16,5.26-1.08,4.37-2,8.78-3.13,13.12-1.11,4.17.06,6.81,4.11,8.79a130.37,130.37,0,0,0,16.53,7c4.5,1.47,5.41,5,5.87,8.91s-2.5,5-5.24,6.31c-3.18,1.46-6.43,2.77-9.52,4.39-2.14,1.13-5.82,1.4-5.92,3.87-.1,2.63,3.66,2.84,5.73,4C95,100.78,102,97,103,87.76a82.76,82.76,0,0,0,.76-10.44c0-2-.6-4.87,2.61-5s4.74,1.65,4.85,5c.21,6.33.69,12.64,1,19,.35,6.13,2,7.63,8.2,6.79,4.45-.6,8.81-2,13.27-2.3,5.25-.41,6.74-3.17,6.4-7.87a7.26,7.26,0,0,1,3.91-7.45c2.38-1.36,3.72-1.41,3.88,1.72.1,2,.35,4.09,2.26,5.29,4.78,3,9.57,6.13,15.26,7.18,5.18.95,7.66-.75,8.36-5.92a94.38,94.38,0,0,0-.16-27.37c-.33-2.19-2.59-6,.06-6.42s2.5,4,3,6.48c1.55,7.15,1.4,14.46,1.39,22.18,2.17-1.55,1.59-3.4,2-4.9,1.86-6.2-.93-12.61.86-18.81l-.06.07a48.1,48.1,0,0,0-11.26-27.76c-6.54-7.71-14.71-14-22.12-21-1.52-1.43-3.68-2.44-3.76-5,6.54,1.6,11.42,6,16.18,10.26C187.34,46,195,83.6,179.7,117c-3.54,7.73-36.42,38.06-42.94,43.24m-4.9-2.52c1.45-.74,2.55-.54,3.22,1.05M31.62,49.48A87.15,87.15,0,0,1,42.94,31c1.12-1.38.76-2.34-.62-3.23-5.44-3.52-10.85-7.12-17.14-9-6.1-1.81-8.73.66-6.91,6.84C20.78,34.16,25.49,41.53,31.62,49.48Zm9.75,75.32a5,5,0,0,0,1.23,4.5c13,17.76,31.05,27,52.14,31.18,2.42.48,4.85-.15,8.18-3C79.35,151.71,56.46,146.34,41.37,124.8ZM38.92,22.07A95.46,95.46,0,0,0,12.16,6.6c-2.52-1-6.37-1.7-5.94,2s.87,8.47,5,11.22c1.51-6.37,3.07-7.36,9.13-5.79S31.94,18.85,38.92,22.07Z"/><path class="cls-2" d="M143.84,11.18c.08,2.55,2.24,3.56,3.76,5,7.41,7,15.58,13.29,22.12,21A48.1,48.1,0,0,1,181,64.93l.06-.06c-1.79,6.19,1,12.6-.86,18.8-.44,1.5.14,3.35-2,4.9,0-7.72.16-15-1.39-22.18-.54-2.47-.36-6.89-3-6.48s-.39,4.23-.06,6.42a94.38,94.38,0,0,1,.16,27.37c-.7,5.17-3.18,6.87-8.36,5.92-5.69-1.05-10.48-4.16-15.26-7.18-1.91-1.2-2.16-3.24-2.26-5.29-.16-3.13-1.5-3.08-3.88-1.72a7.26,7.26,0,0,0-3.91,7.45c.34,4.7-1.15,7.46-6.4,7.87-4.46.35-8.82,1.7-13.27,2.3-6.19.84-7.85-.66-8.2-6.79-.35-6.31-.83-12.62-1-19-.11-3.34-1.71-5.13-4.85-5s-2.64,3-2.61,5A82.76,82.76,0,0,1,103,87.76c-1,9.28-8,13-16.21,8.36-2.07-1.17-5.83-1.38-5.73-4,.1-2.47,3.78-2.74,5.92-3.87,3.09-1.62,6.34-2.93,9.52-4.39,2.74-1.27,5.7-2.36,5.24-6.31s-1.37-7.44-5.87-8.91a130.37,130.37,0,0,1-16.53-7c-4-2-5.22-4.62-4.11-8.79,1.16-4.34,2-8.75,3.13-13.12.58-2.33.57-4.52-2.16-5.26-2.49-.66-3,1.63-3.61,3.27-1.43,4.08-2.76,8.2-3.93,12.36-.9,3.2-2.28,3.58-4.94,1.64-8.21-6-9.93-15-4.64-23.79C68.9,11.64,84.66,6.62,102.17,4.79a29.92,29.92,0,0,1,6-.14c2.54.26,3.12-1.12,3.25-3.15,10.73.81,21,3.06,30.4,8.65a1.87,1.87,0,0,0,2.06,1Z"/><path class="cls-1" d="M177.75,176.71c-2.39-6-11.64-42.38-14-48.36.36-.18,2.65-7.32,3-7.49,4.84,7.76,15.63,52.41,16.74,62.07.33,2.93-1.56,4.21-4.4,4-2.56-.14-4.76-1.4-7-2.42-7.18-3.24-8-2.87-9.31,5a31.47,31.47,0,0,1-2,6.65c-1.72.51-.93,2.82-2.48,3.45-1-2.32-.12-4.54.28-6.8.5-2.93,1.54-5.8,1.08-8.83-.16-1.08-.27-2.65-1.73-2.6-1.67,0-1.12,1.67-1.27,2.72-.06.49,0,1,0,1.49-.17,1.41,0,3.53-2.1,3-1-.24-1.75-1.87-1.18-3.72,2.22-7.13.76-10.93-5.22-15.3-3.87-2.84-7.67-5.77-11.48-8.7-1.3-1-2.7-2-2.89-3.83l0,0c2.53.19,4.16,2,5.93,3.44,9.36,7.77,20,13.55,30.42,19.66,1,.35,2.1.74,3.17,1,1.79.5,3.67,2.21,5.42.32S178,178.35,177.75,176.71Z"/><path class="cls-2" d="M179.09,178.39c.26,1.65,2.64,3,.93,4.86s-3.63.19-5.42-.31c-1.07-.3-2.12-.69-3.17-1a18,18,0,0,1,4,.15C178.82,182.92,179.63,181.4,179.09,178.39Z"/><path class="cls-2" d="M14.49,65.56c.16,2.72.29,4.76.41,6.79-.1.44-.2.89-.31,1.34"/><path class="cls-2" d="M41.37,124.8c15.09,21.54,38,26.91,61.55,32.69-3.33,2.84-5.76,3.47-8.18,3-21.09-4.17-39.17-13.42-52.14-31.18A5,5,0,0,1,41.37,124.8Z"/><path class="cls-2" d="M38.92,22.07c-7-3.22-12.45-6.45-18.6-8s-7.62-.58-9.13,5.79c-4.1-2.75-4.54-7.48-5-11.22s3.42-2.95,5.94-2A95.46,95.46,0,0,1,38.92,22.07Z"/><path class="cls-2" d="M181,64.93l.06-.07Z"/></g></g></g></svg>