<svg xmlns="http://www.w3.org/2000/svg" viewBox="0 0 247.83 254.56"><defs><style>.cls-1{fill:#556090;}.cls-2{fill:#9593e1;}.cls-3{fill:#444d79;}.cls-4{fill:#2b375c;}.cls-5{fill:#717bbc;}.cls-6{fill:#000001;}.cls-7{fill:#111d36;}.cls-8{fill:#7b6da0;}.cls-9{fill:#b0a8e1;}.cls-10{fill:#a586b1;}.cls-11{fill:#bb97bd;}.cls-12{fill:#9276a7;}.cls-13{fill:#d59fd8;}.cls-14{fill:#cd88ad;}.cls-15{fill:#f3a4c3;}.cls-16{fill:#e398c0;}</style></defs><g id="Layer_2" data-name="Layer 2"><g id="Layer_1-2" data-name="Layer 1"><g id="Sblmpt"><path class="cls-1" d="M160.44,250a84.53,84.53,0,0,1-11.86,2.72c-2.39.4-4.74,1.13-7.22,1-.48,0-1.36-.26-1.36.78H120.91c1.2-1.48,3-1,4.49-1.22,5.49-.76,11.12-1,16.11-3.69,1.87-1,4.15-1.42,5.61-2.85,2.42-2.36,5.61-3.34,8.44-4.54,3.14-1.32,5.84-3.24,8.81-4.74a110.61,110.61,0,0,0,13.1-7.7c2.47-1.72,5-3.32,7.51-5.07a2.44,2.44,0,0,0,1.25-2.47c.43-1.37,1.56-2.12,2.61-3a15.25,15.25,0,0,0,3.91-4.39c1.32-2.32,2.08-5.09,4.85-6.38.83-.38,1.16-1.39,1.43-2.29a9.93,9.93,0,0,1,1.32-2.62c1.73-2.58,4.44-4.41,5.48-7.57a12.5,12.5,0,0,1,1.29-3.3c2.06-3.06,3-6.68,4.95-9.82a2.43,2.43,0,0,0,.14-2.24c-1-2.66-.11-5.24.71-7.63a34.1,34.1,0,0,0,1.33-7.44,4.15,4.15,0,0,1,.25-1.65c2-3.28,2.28-7.08,3.13-10.69.19-.81,1-1.49.66-2.39a11.51,11.51,0,0,1,0-6.24,58.27,58.27,0,0,0,.35-15.88c-.15-1.86-1.32-3.65-1.1-5.28.36-2.72-.64-5-1.26-7.41-.55-2.19-1.12-4.37-1.66-6.56-1.11-4.44-1.38-9.07-2.94-13.42-.11-.3-.16-.88,0-1,2.32-1.48.5-2.27-.47-3.26a5.19,5.19,0,0,1-1.44-2.8A11.41,11.41,0,0,0,208,85.26c-1.16-2.14-2.27-4.31-3.49-6.42a41.83,41.83,0,0,0-4.12-6.58c-1.12-1.31-2.21-2.14-.89-3.85a1.1,1.1,0,0,0,.14-1c-1.09-1.45-2.41-2.81-.92-4.76.06-.07-.15-.37-.25-.55a28.17,28.17,0,0,1-3-6c-1.21-4-5.49-5-7.75-8.09-.84-1.13-1.68-2-1.49-3.38a3.6,3.6,0,0,0-1.81-3.75,12.62,12.62,0,0,1-3.81-4.19c-1.27-2.1-3.22-3.26-5.21-4.42a5.21,5.21,0,0,1-1.39-.91,26.73,26.73,0,0,0-9.26-6.1,56.08,56.08,0,0,1-7-3.39,6.63,6.63,0,0,0-3.43-1.31c-5-.13-9.75-1.39-14.52-2.58-6-1.48-11.78-3.53-17.91-4.26a44,44,0,0,1-7.37-1.4c-3.93-1.69-8.09-1.87-12.26-1.82a101.41,101.41,0,0,0-13.24.88c-6.66.95-13.45,1.14-19.83,3.59a1.3,1.3,0,0,1-1.39-.12,6.29,6.29,0,0,1,.85-.61A123.18,123.18,0,0,1,101.78,2.66c.84,1.07,1.4.82,1.77-.36l2-.29c2.47,1,5.08.58,7.63.79,6.65.55,13.29,1.29,19.88,2.44,3.37.59,6.83.68,10.06,2.05,5.31,2.26,10.64,4.48,16,6.62C162,15,165,15.65,167.66,17A105,105,0,0,1,179,24a40.24,40.24,0,0,1,7.5,6.06c1.81,2.06,3.46,4.4,5.54,6a13.49,13.49,0,0,1,5,8,11.55,11.55,0,0,0,2.63,4.71,12.28,12.28,0,0,1,1.65,1.91A40.69,40.69,0,0,0,206,58c.75.92,2,1.54,2.48,2.55,2,4.14,2.49,8.9,5.19,12.78.21.31.11.83.19,1.25a9.25,9.25,0,0,0,.91,3c2.67,4.52,3.62,9.73,5.76,14.47.25.56.57,1.4.34,1.81-.87,1.49,0,2.6.62,3.72,3.13,5.37,4.18,11.45,5.88,17.3.76,2.58,1,5.34,1.64,7.92,1.09,4.57.92,9,.69,13.59-.18,3.51-1.06,7-1.14,10.4a65.94,65.94,0,0,1-1.29,9.77c-.48,2.84-1.6,5.5-1.69,8.47-.07,2.6.74,5.27-.08,7.78-1.5,4.61-3,9.24-4.82,13.75-1.33,3.28-3.42,6.18-4.67,9.46a16.87,16.87,0,0,1-3.2,5.12c-2,2.28-4.34,4.39-5.44,7.24a29.28,29.28,0,0,1-5,7.8c-.63.76-1.2,1.57-1.76,2.39-.44.64-1.06,1.36.38,1.63.91.17.73.72.27,1.2-.63.67-1.37,1.24-2,1.93-2,2.26-4.62,3.68-6.73,5.75-2.77,2.71-5.6,5.43-9.05,7.21-4.58,2.36-8.63,5.6-13.31,7.79-3,1.41-5.29,4.17-8.79,4.69A1.2,1.2,0,0,0,160.44,250Z"/><path class="cls-2" d="M89.88,248.79a117.12,117.12,0,0,1-36.69-18.08C24.77,210,7.7,182.17,1.58,147.55c-.37-2.14-.51-4.27-.81-6.4,0-.28.29-1.37-.77-.72v-26.3c1.33.24.79-.88.83-1.32a105.63,105.63,0,0,1,4-20.18,80.74,80.74,0,0,1,5.92-16c1-2,1.59-4.26,2.77-6.23,1.21,0,1.26-.61.71-1.48a90.1,90.1,0,0,1,6.26-10.81l.29-.35.35-.54c2.65,1,.66,2.56.29,4,1.06-.05,1.43-.7,1.92-1.3,2-2.5,3.66-5.29,5.57-7.88,1.16-1.57,3-2.47,3.84-4.14a11.76,11.76,0,0,1,7.57-6.16c.92-.26,1.42-.68.5-1.6-1.44-1.44-1-2.7.36-4a16.75,16.75,0,0,1,5.35-2.92c2.45-1,4.66-2.48,7.45-2.8,3.39-.39,6.84.05,10.22-1.19C68,27.86,71.74,26,76,26.68c.49.07,1-.34,1.59-.46,2.75-.61,5.63-1.21,8.3-.38,3.6,1.13,7.21.74,10.82.9,4.63.2,9.28,0,13.91.21,4.28.19,8.55.69,12.82,1.05-.81,1.76-2.29,1.23-3.66,1.1-3.46-.33-6.92-.62-10.75.46,3.46,2.2,7,2.27,10.43,2.67A4,4,0,0,1,122.65,34c.68,1.17-1.31,1.07-1.3,2.06-5.17.15-10.32-.76-15.5-.43-2.92.18-5.84.29-8.76.43a5,5,0,0,1-2.91-1.16,7.36,7.36,0,0,0-6-1.17,87.51,87.51,0,0,1-17.81,1.94,8.41,8.41,0,0,0-3.71.51c-4.37,2.12-9.16,3.11-13.61,5-1.38.61-2.19,1.31-1.27,2.86v.5a42,42,0,0,1-6.4,1.31c-1.07.08-1.74,1-2.54,1.69-1.66,1.51-1.75,4.07-3.55,5.31-2.51,1.73-3.48,4.3-4.44,6.93a7.07,7.07,0,0,1-2.85,3c-2.36,1.07-2.81,3.79-4.69,5.25A1.16,1.16,0,0,0,27,69.23c.21,1.39.4,2.78.59,4.17-1.07,1.14-2.9,1-3.86,2.44A47.21,47.21,0,0,0,19,85.18a18.43,18.43,0,0,1-5.5,7.61A1.94,1.94,0,0,0,12.73,94a14.23,14.23,0,0,1-1.35,3.78c-1.1,2.45.29,4.87.37,7.32a15.12,15.12,0,0,1,.16,3.78c-.64,3.13-1,6.31-1.39,9.48-.43,4,.1,8-.74,12-.62,2.94,0,5.85-.27,8.79-.29,3.22,1.07,6.32,1.5,9.49a92.52,92.52,0,0,0,3.79,16.85c.59,1.82,1.91,3.26,2.2,5.23.46,3.1,1.06,6.17,3,8.83.72,1,1.51,2.39,1.31,3.43-.44,2.31.52,4,1.67,5.69,1.47,2.11,1.93,4.67,3.75,6.72,1.46,1.62,3.35,3.06,4.21,5.22,1.06,2.69,3.53,4.35,4.91,6.82a2,2,0,0,0,1.4.89,1.67,1.67,0,0,1,1.35,1.17,7.68,7.68,0,0,0,4.29,4.12A9,9,0,0,1,45,214.91c2.07,1.8,4.14,3.62,6.34,5.27A60.11,60.11,0,0,0,65,228.3c1.27.51,2.37,1.13.27,2.29-1.44.79-1.18,1.68.42,2.41a41,41,0,0,1,6.23,3.07A16.39,16.39,0,0,0,81,239.3a9.12,9.12,0,0,1,2.69.48,30.2,30.2,0,0,0,13.36,1.54c.62-.07,1.25-.08,1.88-.14,3.68-.36,7.43-.12,11-1.17a20.35,20.35,0,0,1,6.28-.71c1.62.06,3.14.94,5,.49,1.15-.29,2-1.3,3.07-1.29,4.09,0,7.54-2.18,11.31-3.25,2.24-.63,4.89-1.09,6.54-2.78,1.85-1.9,4.18-2.14,6.35-3,1.26,0,2.57.29,3.78-.17A40.15,40.15,0,0,1,164.13,227a1.59,1.59,0,0,1-.57,1.09c-2.6,2.08-5.78,3.11-8.64,4.73s-6.2,2.25-9.13,3.73c-1.85.93-3.89,1.2-5.66,2.14a54.3,54.3,0,0,1-13,4.54c-2.59.62-5.41.31-7.76,1.71a13.39,13.39,0,0,1-6.88,1.6c-.7,0-1.56,0-1.69.87-.25,1.75-1.67,1.87-2.86,1.94a67.16,67.16,0,0,1-13.44-.51C93,248.59,91.42,247.47,89.88,248.79Zm13.5-218.36c1.58-.19,2.61-.09,3.43-.91C105.79,29.45,104.69,28.88,103.38,30.43Zm-3.8-.76a1.31,1.31,0,0,0,1.74.65.42.42,0,0,0,.13-.7A1.42,1.42,0,0,0,99.58,29.67Z"/><path class="cls-3" d="M105.6,2c2.36-.82,4.87-.71,7.28-1.19.61-.12,1.52.26,1.67-.82h7.63a1.05,1.05,0,0,0,.92.77c4.27.22,8.48,1,12.68,1.52,3.89.44,7.12,2.61,11.11,2.81,2.33.12,5.07,1.44,7.54,2.4A198.74,198.74,0,0,1,173,15.62c2.33,1.2,4.57,2.64,6.8,4.07,1.74,1.12,3.77,1.94,5.3,3.33,4.9,4.48,10.16,8.56,14.63,13.54,1.9,2.11,3.68,4.35,5.6,6.46,3.11,3.42,5.12,7.69,7.72,11.52,3.39,5,7,9.89,9.45,15.42,1.77,3.93,2.78,8.24,4.56,12.08,2.58,5.54,3.63,11.4,5.14,17.17A99.15,99.15,0,0,1,235.31,114c.63,6,1.35,12,1.45,18,.21,12.35-1.82,24.46-4.19,36.47a103.67,103.67,0,0,1-11.85,31.64,111.42,111.42,0,0,1-18.36,24.34c-1.09,1.08-2.41,1.84-3.47,3a51.91,51.91,0,0,1-6.68,6.06c-2.83,2.2-5.88,4.1-8.76,6.24-.79.59-1.89,1.1-1.88,2.39a98.74,98.74,0,0,1-21.13,7.8,1.2,1.2,0,0,1,1-1.22c3.5-.52,5.78-3.28,8.79-4.69,4.68-2.19,8.73-5.43,13.31-7.79,3.45-1.78,6.28-4.5,9.05-7.21,2.11-2.07,4.77-3.49,6.73-5.75.59-.69,1.33-1.26,2-1.93.46-.48.64-1-.27-1.2-1.44-.27-.82-1-.38-1.63.56-.82,1.13-1.63,1.76-2.39a29.28,29.28,0,0,0,5-7.8c1.1-2.85,3.46-5,5.44-7.24a16.87,16.87,0,0,0,3.2-5.12c1.25-3.28,3.34-6.18,4.67-9.46,1.83-4.51,3.32-9.14,4.82-13.75.82-2.51,0-5.18.08-7.78.09-3,1.21-5.63,1.69-8.47a65.94,65.94,0,0,0,1.29-9.77c.08-3.43,1-6.89,1.14-10.4.23-4.56.4-9-.69-13.59-.62-2.58-.88-5.34-1.64-7.92-1.7-5.85-2.75-11.93-5.88-17.3-.65-1.12-1.49-2.23-.62-3.72.23-.41-.09-1.25-.34-1.81-2.14-4.74-3.09-10-5.76-14.47a9.25,9.25,0,0,1-.91-3c-.08-.42,0-.94-.19-1.25-2.7-3.88-3.18-8.64-5.19-12.78-.49-1-1.73-1.63-2.48-2.55a40.69,40.69,0,0,1-4.68-7.26,12.28,12.28,0,0,0-1.65-1.91A11.55,11.55,0,0,1,197,44.13a13.49,13.49,0,0,0-5-8c-2.08-1.65-3.73-4-5.54-6A40.24,40.24,0,0,0,179,24a105,105,0,0,0-11.31-7c-2.65-1.39-5.69-2-8.5-3.13-5.35-2.14-10.68-4.36-16-6.62-3.23-1.37-6.69-1.46-10.06-2-6.59-1.15-13.23-1.89-19.88-2.44C110.68,2.59,108.07,3,105.6,2Z"/><path class="cls-4" d="M181.57,242.22c0-1.29,1.09-1.8,1.88-2.39,2.88-2.14,5.93-4,8.76-6.24a51.91,51.91,0,0,0,6.68-6.06c1.06-1.18,2.38-1.94,3.47-3a111.42,111.42,0,0,0,18.36-24.34,103.67,103.67,0,0,0,11.85-31.64c2.37-12,4.4-24.12,4.19-36.47-.1-6-.82-12-1.45-18a99.15,99.15,0,0,0-3.11-14.83c-1.51-5.77-2.56-11.63-5.14-17.17-1.78-3.84-2.79-8.15-4.56-12.08-2.48-5.53-6.06-10.42-9.45-15.42-2.6-3.83-4.61-8.1-7.72-11.52-1.92-2.11-3.7-4.35-5.6-6.46-4.47-5-9.73-9.06-14.63-13.54-1.53-1.39-3.56-2.21-5.3-3.33-2.23-1.43-4.47-2.87-6.8-4.07A198.74,198.74,0,0,0,154.43,7.5c-2.47-1-5.21-2.28-7.54-2.4-4-.2-7.22-2.37-11.11-2.81-4.2-.48-8.41-1.3-12.68-1.52a1.05,1.05,0,0,1-.92-.77h17c1.35,1.53,3.29.92,4.91,1.14,4.19.59,8.32,1.37,12.42,2.35.21.44.47.7.93.27l1.72.44a1.56,1.56,0,0,0,1.22,1.72,27.07,27.07,0,0,1,5,1.77c2.83,1.52,6.08,2.22,8.58,4.35a11.54,11.54,0,0,0,2.18,1.18c2.33,1.27,5.18,1.29,7.26,3.14a25.2,25.2,0,0,0,3.07,2.25,94.24,94.24,0,0,1,20.17,17.74c.88,1,1.32,2.32,2.45,3.11a19.52,19.52,0,0,1,4.51,4.93c2.26,3.2,4.42,6.5,6.56,9.79A139.35,139.35,0,0,1,230,71.71c.86,1.86,1.21,4,2.2,5.68,2.09,3.55,2.77,7.58,4.42,11.26a27.77,27.77,0,0,1,1.61,5.23c1.44,6.37,2.63,12.8,4.26,19.12.53,2,.12,4,.5,6a39.32,39.32,0,0,1,.79,10.47c-.44,4.89-.44,9.8-1,14.7-.76,6.65-1.81,13.24-3,19.82-1.13,6.17-3.61,11.9-5.65,17.77a104.35,104.35,0,0,1-11.81,23.29c-1.7,2.58-3.66,5-5.14,7.66-2.81,5-7.3,8.28-11,12.32-1.29,1.4-3.86,1.92-3.7,4.52l-.85.61c-.16-.23-.43-.46-.62-.23s-.14.6-.2.91A88.18,88.18,0,0,1,181.57,242.22Z"/><path class="cls-5" d="M89.88,248.79c1.54-1.32,3.11-.2,4.63,0a67.16,67.16,0,0,0,13.44.51c1.19-.07,2.61-.19,2.86-1.94.13-.92,1-.86,1.69-.87a13.39,13.39,0,0,0,6.88-1.6c2.35-1.4,5.17-1.09,7.76-1.71a54.3,54.3,0,0,0,13-4.54c1.77-.94,3.81-1.21,5.66-2.14,2.93-1.48,6.29-2.13,9.13-3.73s6-2.65,8.64-4.73a1.59,1.59,0,0,0,.57-1.09c.08-.11.16-.24.25-.34,2.93-3,6.84-5.15,8.68-9.24a2.79,2.79,0,0,1,1.25-1.09c3.34-1.7,6-3.88,6-8a21.77,21.77,0,0,0,5.23-4.13c.6-.58,1.27-1.21,1.53.27.13.73.38,1.47,1.21,1.51s1.39-.7,1.63-1.43a6.06,6.06,0,0,1,2.25-3c1,.58,2.6,1,2.9,1.8s-.61,2.2-1,3.32a.89.89,0,0,0-.06.2c.05,1.61-.88,2.46-2.15,3.31a7.64,7.64,0,0,0-3.23,3.53,11.94,11.94,0,0,1-3.51,4.92c-1.38,1.21-2.1,3.06-3.78,4.1,1.77.36,3.3-.2,4.86-.41a2.44,2.44,0,0,1-1.25,2.47c-2.47,1.75-5,3.35-7.51,5.07a110.61,110.61,0,0,1-13.1,7.7c-3,1.5-5.67,3.42-8.81,4.74-2.83,1.2-6,2.18-8.44,4.54-1.46,1.43-3.74,1.84-5.61,2.85-5,2.71-10.62,2.93-16.11,3.69-1.51.21-3.29-.26-4.49,1.22h-4.24l-.4-.3,0,.3h-2.12c.24-1.43-1-.78-1.41-.84a137.15,137.15,0,0,1-19.66-3.85C92,249.58,90.94,249.15,89.88,248.79Z"/><path class="cls-6" d="M116.24,254.56l0-.3.4.3Z"/><path class="cls-7" d="M202.43,229.58c-.16-2.6,2.41-3.12,3.7-4.52,3.73-4,8.22-7.31,11-12.32,1.48-2.63,3.44-5.08,5.14-7.66a104.35,104.35,0,0,0,11.81-23.29c2-5.87,4.52-11.6,5.65-17.77,1.2-6.58,2.25-13.17,3-19.82.57-4.9.57-9.81,1-14.7A39.32,39.32,0,0,0,243,119c-.38-2,0-4-.5-6-1.63-6.32-2.82-12.75-4.26-19.12a27.77,27.77,0,0,0-1.61-5.23C235,85,234.29,80.94,232.2,77.39c-1-1.68-1.34-3.82-2.2-5.68a139.35,139.35,0,0,0-9.91-17.53c-2.14-3.29-4.3-6.59-6.56-9.79A19.52,19.52,0,0,0,209,39.46c-1.13-.79-1.57-2.11-2.45-3.11A94.24,94.24,0,0,0,186.4,18.61a25.2,25.2,0,0,1-3.07-2.25c-2.08-1.85-4.93-1.87-7.26-3.14A11.54,11.54,0,0,1,173.89,12c-2.5-2.13-5.75-2.83-8.58-4.35a27.07,27.07,0,0,0-5-1.77,1.56,1.56,0,0,1-1.22-1.72c3.61.45,7,1.84,10.34,3.05,6.24,2.24,12.57,4.44,18.1,8.18A124.51,124.51,0,0,1,200.5,25.2a135.07,135.07,0,0,1,11.17,10.63,142,142,0,0,1,16.26,21.53c2.23,3.67,4.36,7.38,6.44,11.12.95,1.7,1.39,3.68,2.22,5.45a81.17,81.17,0,0,1,5.7,16.8c1.49,6.8,3.36,13.52,4.31,20.43a105,105,0,0,1,1.1,18.52,73.23,73.23,0,0,0,.09,12.21c.24,1.92-.75,3.53-1,5.35a147.15,147.15,0,0,1-2.57,15.35,130.67,130.67,0,0,1-4.42,14.75,126.34,126.34,0,0,1-7.58,16.94,112,112,0,0,1-11.33,17.55c-2.35,2.9-4.67,5.84-7.22,8.57A51.1,51.1,0,0,1,202.43,229.58Z"/><path class="cls-7" d="M200.76,230.87c.06-.31,0-.7.2-.91s.46,0,.62.23A1.08,1.08,0,0,1,200.76,230.87Z"/><path class="cls-7" d="M157.41,3.76c-.46.43-.72.17-.93-.27Z"/><path class="cls-8" d="M186.23,222.28c-1.56.21-3.09.77-4.86.41,1.68-1,2.4-2.89,3.78-4.1a11.94,11.94,0,0,0,3.51-4.92,7.64,7.64,0,0,1,3.23-3.53c1.27-.85,2.2-1.7,2.15-3.31a.89.89,0,0,1,.06-.2c.38-1.12,1.31-2.44,1-3.32s-1.88-1.22-2.9-1.8c0-.28.05-.56.09-.84.42-2.8,2.71-4.74,3.41-7.41.14-.53.73-1,.32-1.57s-1.19-.4-1.79-.28c-1.1.22-2.19.56-3.28.85s-1.36-.06-1-1.08a46.81,46.81,0,0,1,2.88-6.77,24.41,24.41,0,0,1,4.8-6.4c2.93-2.64,2.9-6.49,3.91-9.91a18,18,0,0,1,2-5.26,4.27,4.27,0,0,0,.73-4.13,10.72,10.72,0,0,1-.62-6.82c.65-2.28.91-4.64,1.85-6.88a17.71,17.71,0,0,0,1.34-8.73c-.21-2.13-1.11-4-1.64-5.94-.86-3.25-1.7-6.53-2.41-9.83-1.79-8.3-3.48-16.63-7.22-24.34-.24-.5-.28-1,.23-1.32,1.82-1.08,1.35-2.86.53-3.86-1.53-1.88-1.92-4.19-3-6.21-1-1.85-2.18-3.82-2.31-5.8-.22-3.26-2.43-4.54-4.61-6a3.13,3.13,0,0,1-1.69-3c.45-2.31-1-2.57-2.55-3-.68-.19-1.38-.31-2.06-.49s-1.26-.52-1.25-1.25c0-1,.87-.73,1.45-.79s1.34,0,1.59-.75a1.83,1.83,0,0,0-.63-1.91c-.5-.49-1-1-1.53-1.45s-.72-.75-.43-1.28c.75-1.39-.17-2.08-1.12-2.73-.4-.28-1-.36-1-1s.63-.63,1.1-.7c1.36-.18,1-.95.49-1.62a4.06,4.06,0,0,0-1.42-1.22,5.16,5.16,0,0,1-3.12-3.74c-.43-2.58-2.25-3.34-4.3-4a5.59,5.59,0,0,1-3.4-2.25c-1.39-2-3.1-3.93-5.73-4.55a2,2,0,0,1-1.67-2.14c1.13-.39,2-.82,1-2.25s0-1.77,1.16-1.85a12.14,12.14,0,0,1,1.67.22c.33,0,.75,0,.87-.41s-.2-.65-.51-.81c-2.19-1.11-4.22-2.59-6.72-3a6.61,6.61,0,0,1-3.41-1.55A10.23,10.23,0,0,0,149,23.79c-2.73-.83-5.44-1.74-8.18-2.58-2.41-.74-4.8-1.56-7.26-2.08-3.53-.74-7.25-.49-10.59-2.23a7.91,7.91,0,0,0-3.09-.59c-3.47-.26-6.66-1.61-10.43-2.81,2.06-.55,3.81-.08,5.17-1.17a44,44,0,0,0,7.37,1.4c6.13.73,12,2.78,17.91,4.26,4.77,1.19,9.56,2.45,14.52,2.58a6.63,6.63,0,0,1,3.43,1.31,56.08,56.08,0,0,0,7,3.39,26.73,26.73,0,0,1,9.26,6.1,5.21,5.21,0,0,0,1.39.91c2,1.16,3.94,2.32,5.21,4.42a12.62,12.62,0,0,0,3.81,4.19,3.6,3.6,0,0,1,1.81,3.75c-.19,1.41.65,2.25,1.49,3.38,2.26,3.06,6.54,4.11,7.75,8.09a28.17,28.17,0,0,0,3,6c.1.18.31.48.25.55-1.49,2-.17,3.31.92,4.76a1.1,1.1,0,0,1-.14,1c-1.32,1.71-.23,2.54.89,3.85a41.83,41.83,0,0,1,4.12,6.58c1.22,2.11,2.33,4.28,3.49,6.42a11.41,11.41,0,0,1,1.73,3.82,5.19,5.19,0,0,0,1.44,2.8c1,1,2.79,1.78.47,3.26-.15.1-.1.68,0,1,1.56,4.35,1.83,9,2.94,13.42.54,2.19,1.11,4.37,1.66,6.56.62,2.43,1.62,4.69,1.26,7.41-.22,1.63,1,3.42,1.1,5.28a58.27,58.27,0,0,1-.35,15.88,11.51,11.51,0,0,0,0,6.24c.32.9-.47,1.58-.66,2.39-.85,3.61-1.11,7.41-3.13,10.69a4.15,4.15,0,0,0-.25,1.65,34.1,34.1,0,0,1-1.33,7.44c-.82,2.39-1.75,5-.71,7.63a2.43,2.43,0,0,1-.14,2.24c-1.91,3.14-2.89,6.76-4.95,9.82a12.5,12.5,0,0,0-1.29,3.3c-1,3.16-3.75,5-5.48,7.57a9.93,9.93,0,0,0-1.32,2.62c-.27.9-.6,1.91-1.43,2.29-2.77,1.29-3.53,4.06-4.85,6.38a15.25,15.25,0,0,1-3.91,4.39C187.79,220.16,186.66,220.91,186.23,222.28ZM180.44,56.69c.35,0,.53-.28.38-.55a1.54,1.54,0,0,0-.71-.67c-.29-.12-.52.14-.49.46A.8.8,0,0,0,180.44,56.69Z"/><path class="cls-5" d="M114.58,12.33c-1.36,1.09-3.11.62-5.17,1.17,3.77,1.2,7,2.55,10.43,2.81a7.91,7.91,0,0,1,3.09.59c3.34,1.74,7.06,1.49,10.59,2.23,2.46.52,4.85,1.34,7.26,2.08,2.74.84,5.45,1.75,8.18,2.58a10.23,10.23,0,0,1,4.21,1.83,6.61,6.61,0,0,0,3.41,1.55c2.5.38,4.53,1.86,6.72,3,.31.16.63.39.51.81s-.54.43-.87.41a12.14,12.14,0,0,0-1.67-.22c-1.17.08-2.05.55-1.16,1.85s.13,1.86-1,2.25c-2.6-.79-5.22-2.11-7.63.42-1.87-1.43-4.33-1.51-6.31-3a18.25,18.25,0,0,0-4.49-2.83c-5.57-2-11.42-1.94-17.24-1.86-4.27-.36-8.54-.86-12.82-1.05-4.63-.21-9.28,0-13.91-.21-3.61-.16-7.22.23-10.82-.9-2.67-.83-5.55-.23-8.3.38-.54.12-1.1.53-1.59.46-4.26-.65-8,1.18-11.77,2.56C60.85,30.48,57.4,30,54,30.43c-2.79.32-5,1.83-7.45,2.8a16.75,16.75,0,0,0-5.35,2.92c-1.36,1.27-1.8,2.53-.36,4,.92.92.42,1.34-.5,1.6a11.76,11.76,0,0,0-7.57,6.16c-.86,1.67-2.68,2.57-3.84,4.14C27,54.61,25.41,57.4,23.37,59.9c-.49.6-.86,1.25-1.92,1.3.37-1.39,2.36-3-.29-4a64,64,0,0,1,6-8.38c2.1-2.61,4.16-5.24,6.4-7.73A124,124,0,0,1,59.05,19.87c1.89-1.2,3.87-2.26,5.81-3.38.6.06,1.11,0,1.3-.73l1.7-.9a1.3,1.3,0,0,0,1.39.12c6.38-2.45,13.17-2.64,19.83-3.59a101.41,101.41,0,0,1,13.24-.88C106.49,10.46,110.65,10.64,114.58,12.33Z"/><path class="cls-3" d="M101.78,2.66l1.77-.36C103.18,3.48,102.62,3.73,101.78,2.66Z"/><path class="cls-5" d="M14.26,69c.55.87.5,1.46-.71,1.48A2.15,2.15,0,0,1,14.26,69Z"/><path class="cls-1" d="M66.16,15.76c-.19.68-.7.79-1.3.73A1.76,1.76,0,0,1,66.16,15.76Z"/><path class="cls-5" d="M20.81,57.79l-.29.35C20.48,57.91,20.59,57.8,20.81,57.79Z"/><path class="cls-9" d="M148.48,229.47c-2.17.86-4.5,1.1-6.35,3-1.65,1.69-4.3,2.15-6.54,2.78-3.77,1.07-7.22,3.27-11.31,3.25-1.12,0-1.92,1-3.07,1.29-1.82.45-3.34-.43-5-.49A20.35,20.35,0,0,0,110,240c-3.61,1.05-7.36.81-11,1.17-.63.06-1.26.07-1.88.14a30.2,30.2,0,0,1-13.36-1.54A9.12,9.12,0,0,0,81,239.3a16.39,16.39,0,0,1-9.13-3.23A41,41,0,0,0,65.64,233c-1.6-.73-1.86-1.62-.42-2.41,2.1-1.16,1-1.78-.27-2.29a60.11,60.11,0,0,1-13.59-8.12c-2.2-1.65-4.27-3.47-6.34-5.27a9,9,0,0,0-2.14-1.32,7.68,7.68,0,0,1-4.29-4.12,1.67,1.67,0,0,0-1.35-1.17,2,2,0,0,1-1.4-.89c-1.38-2.47-3.85-4.13-4.91-6.82-.86-2.16-2.75-3.6-4.21-5.22-1.82-2.05-2.28-4.61-3.75-6.72-1.15-1.65-2.11-3.38-1.67-5.69.2-1-.59-2.46-1.31-3.43-1.93-2.66-2.53-5.73-3-8.83-.29-2-1.61-3.41-2.2-5.23A92.52,92.52,0,0,1,11,148.62c-.43-3.17-1.79-6.27-1.5-9.49.26-2.94-.35-5.85.27-8.79.84-3.93.31-8,.74-12,.35-3.17.75-6.35,1.39-9.48a15.12,15.12,0,0,0-.16-3.78c-.08-2.45-1.47-4.87-.37-7.32A14.23,14.23,0,0,0,12.73,94a1.94,1.94,0,0,1,.74-1.22A18.43,18.43,0,0,0,19,85.18a47.21,47.21,0,0,1,4.75-9.34c1-1.45,2.79-1.3,3.86-2.44,1.12-.06,2.18-.38,3.33-.38,2.12,0,2.15,2.16,3.46,3-.07,1,.15,2.11-.41,3.11-1.9,3.36-2.92,7.1-4.6,10.58-.65,1.33-2,2.58-1.92,4.18a6.17,6.17,0,0,1-1.14,3.72,4.93,4.93,0,0,0,.25,6.09,1.53,1.53,0,0,1-.09,2.26c-.57.6-1.32,1.13-2.21.45-1.3-1-1.21.16-1.27.85-.09,1,.75,1.23,1.4,1.64a1.28,1.28,0,0,1,.49,1.68c-.28.68-.76.39-1.22.14-.73-.39-1,0-1.18.68a12.28,12.28,0,0,0-.65,3.31,56.46,56.46,0,0,1-.88,12.58c-.28,1.85-1.3,3.43-1.39,5.23A75.24,75.24,0,0,0,20.3,146c.43,3.26,1.94,6.3,1.93,9.69,0,1,.62,2.35,1.79,2.36,3.08,0,3.26,2.52,3.85,4.44a10,10,0,0,0,1.57,3.39,61.38,61.38,0,0,1,3.63,5.68c1.8,2.95,2.45,6.42,4.52,9.28A26.78,26.78,0,0,1,40.53,186c.62,1.46,1.38,2.61,2.63,3,2.36.73,3,2.35,3.1,4.48a4.17,4.17,0,0,0,2.5,3.56c3.1,1.81,6.46,3.56,8.78,6.17a9.49,9.49,0,0,0,7.29,3.43,3.17,3.17,0,0,1,1.92.77c1.73,1.45,2.62,3.89,5.16,4.4.11,0,.22.18.27.31.62,1.55,2.1,1.93,3.39,2.65,2.3,1.27,5.09,1.68,6.82,4,.39.52,1.26.48,2,.51,4.23.19,8.64-.54,12.38,2.3a2.08,2.08,0,0,0,1.84.25c2-.54,4.08-.26,6.12-.34a53.86,53.86,0,0,0,17.44-3.39c4.1,2.54,8.24,1.09,12.38-.44l.05.65-3.19,2.14c1.39,2.05,3,1.55,4.68.85,2.54-1,5.15-1.88,7.65-3a9.37,9.37,0,0,1,3.75-1.26,31.17,31.17,0,0,0,9-1.37c1.41-.41,2.87-.68,4.3-1a5.9,5.9,0,0,0,2.23.55c.71.12,1.39.9.63,1.19-1.59.63-1.94,2.29-3.28,3.12a71.8,71.8,0,0,0-10.15,7A4.25,4.25,0,0,0,148.48,229.47Z"/><path class="cls-10" d="M148.48,229.47a4.25,4.25,0,0,1,1.73-3,71.8,71.8,0,0,1,10.15-7c1.34-.83,1.69-2.49,3.28-3.12.76-.29.08-1.07-.63-1.19a5.9,5.9,0,0,1-2.23-.55c.55-1,2.19-1.55,1.94-2.87-.29-1.52.54-2,1.53-2.64A10.58,10.58,0,0,0,168.8,204a19.67,19.67,0,0,1-7.69,1.87,4.85,4.85,0,0,1-3.23-.71c-.41-.28-.86-.59-.32-1.17a43.89,43.89,0,0,1,3.63-3.83c1.19-1,2.43-1.7,1.38-3.55-.22-.38.07-1.1.23-1.62.72-2.3.38-2.93-2-3.21a5.11,5.11,0,0,1-3-.91c.07-.82.78-1.11,1.28-1.59,1.42-1.36,3.14-2.52,4-4.3,1.68-3.33,1.22-7.65,4.71-10.17a1.1,1.1,0,0,0,.29-.78c.06-1.77,1.14-3.08,1.91-4.57a35.4,35.4,0,0,1,5.86-8.47,4,4,0,0,0-.26-6c-.56-.51-1.13-1.19-.72-1.83,1.48-2.27-.21-4.48,0-6.74.37-4.06-2.49-8-.67-12.17.07-.16-.05-.41-.09-.62-.72-3.07,2-6.17-.06-9.26-.1-.16.36-.71.56-1.07a7.47,7.47,0,0,0-.49-6.34,14.9,14.9,0,0,1-2.73-5.79,71.87,71.87,0,0,0-4.67-13.42c-.58-1.28-.57-2.28.69-3.12A1.8,1.8,0,0,0,168,91.9c-1.54-2.25-3.11-4.48-4.75-6.66-2.61-3.45-3.47-8.1-7.33-10.69a.91.91,0,0,1-.39-.72c.59-2.56-1.54-2.66-3-3.53s-3.9-1.09-3.72-3.73c1.4-.61,1.46-1.74,1.18-3a3.83,3.83,0,0,0-3.19-3.27c-1.34-.25-2.71-.5-3.38-1.84-.55-1.11-1.47-1.33-2.53-1.63-2.48-.71-4.89-1.65-7.44-2.19-1.65-.35-2.28-1.8-3.23-3.1a9,9,0,0,0-6-3.29c-1-.16-2-.66-1.95-1.88a2.44,2.44,0,0,1,1.86-2.1,8,8,0,0,1,4.38-.37,10.06,10.06,0,0,0,2.52.2c1.49,0,2.13-1.12,2.37-2.31.3-1.46-1-1.15-1.82-1.3a4,4,0,0,1-1.08-.63c-2.49-1.44-5.46-1.81-7.8-3.59-.34-.26-1-.14-1.45-.2,0-1,2-.89,1.3-2.06a4,4,0,0,0-3.19-1.77c-3.43-.4-7-.47-10.43-2.67,3.83-1.08,7.29-.79,10.75-.46,1.37.13,2.85.66,3.66-1.1,5.82-.08,11.67-.1,17.24,1.86a18.25,18.25,0,0,1,4.49,2.83c2,1.46,4.44,1.54,6.31,3,1.43,1.76,3.57,2.81,4.85,4.76.42.65,1.12,1.19.86,2s-1.16.41-1.81.46c-1.9.16-3.79.39-5.69.59l-.16.54c3,1.25,4.37,4.5,7.26,5.89,2,.94,3,3.44,5.64,3.34.62,0,.93.88.52,1.54-.66,1.07,0,1.45.79,1.93a19.65,19.65,0,0,1,4.88,4.35c.84,1,.25,4.8-.85,5.37a1.84,1.84,0,0,1-1.64-.15c-.95-.46-1.85-1-2.79-1.5a3.12,3.12,0,0,0-3.7.78c-.84.83.3,1.78.83,2.53s1.4,1.34,1,2.39a2.11,2.11,0,0,0,1.4,2.89c3.47.12,4.7,2.89,6.73,4.83a35.65,35.65,0,0,1,6.05,7.27c.84,1.39,1.41,3,2.83,3.68,1.89.88,3.38,2.3,5.17,3.24,2.17,1.13,1.27,3.79,2.83,5.17.06,0,0,.28-.07.4-.92,1.83-.05,3.29,1.05,4.64a3.36,3.36,0,0,1,.86,2.53,12.47,12.47,0,0,0,1.63,7.12,2.9,2.9,0,0,1,.37,1.62,13.27,13.27,0,0,0,.88,4.74c.47,1.69,1.67,3.37,0,5.09-.41.42,0,.91.17,1.38a30.18,30.18,0,0,1,1.36,5.69,8.83,8.83,0,0,0,1.36,4.56c1.5,2.24.38,4.72-.08,6.73-.3,1.25-1.07,2.48-.76,3.94.14.66.22,1.35-.31,1.79-1.42,1.2-1.88,2.94-2.76,4.46-2.21,3.82-1.63,7.81-.67,11.76.34,1.39.65,2.59-.34,3.78a19,19,0,0,0-3.51,6.91,22.69,22.69,0,0,1-2.93,6.07c-.93,1.39-.39,1.69.75,2,.84.23,2.14.65,1.94,1.32-.53,1.72.32,3.53-.54,5.16-1.29,2.42-3.83,4.2-3.51,7.47.07.72-.38,1.25.28,2.13.95,1.28,1.22,3.36.28,4.49-1.29,1.54-1.22,3.22-1.62,4.88,0,4.16-2.69,6.34-6,8a2.79,2.79,0,0,0-1.25,1.09c-1.84,4.09-5.75,6.2-8.68,9.24-.09.1-.17.23-.25.34a40.15,40.15,0,0,0-11.87,2.33C151.05,229.76,149.74,229.46,148.48,229.47Z"/><path class="cls-11" d="M121.35,36.06c.49.06,1.11-.06,1.45.2,2.34,1.78,5.31,2.15,7.8,3.59a4,4,0,0,0,1.08.63c.86.15,2.12-.16,1.82,1.3-.24,1.19-.88,2.3-2.37,2.31a10.06,10.06,0,0,1-2.52-.2,8,8,0,0,0-4.38.37,2.44,2.44,0,0,0-1.86,2.1c-.1,1.22,1,1.72,1.95,1.88a9,9,0,0,1,6,3.29c.95,1.3,1.58,2.75,3.23,3.1,2.55.54,5,1.48,7.44,2.19,1.06.3,2,.52,2.53,1.63.67,1.34,2,1.59,3.38,1.84a3.83,3.83,0,0,1,3.19,3.27c.28,1.27.22,2.4-1.18,3a7,7,0,0,1-2.74.75c-1.6.16-2.63-1.13-4-1.07-2.36.12-4-1.23-5.63-2.53a5.76,5.76,0,0,0-1.42-.89,65.35,65.35,0,0,0-9.34-2.52c-3.73-.9-7.29-2.51-11-3.4-2.7-.64-5.52-1.66-8.29-1.13-5.33,1-10.46,1.35-15.31-1.71a6.64,6.64,0,0,0-3.2-1c-1-.07-2.74-.49-3-.06-.89,1.46-1.84.9-2.89.61a2.18,2.18,0,0,0-1.64.2c-.44.24-.92.5-.84,1.1s.67.65,1.16.66c.92,0,1.84,0,2.76,0,.75,0,1.55.19,1.48,1.1s-1,1-1.64.93a15,15,0,0,1-2.85-.76c-2.24-.82-3.9-.33-5.07,1.65-.32.56-.78.95-1.35.8-2.38-.63-4.84.23-7.27-.77-1.73-.71-3.42,1-5.19,1.43-.2.05-.42.62-.39.93.17,1.74-.72,2.82-2,3.85-2.09,1.66-4,3.46-7,2.5a4.66,4.66,0,0,0-5.35,1.54c-.46.54-1.22.8-1.66,1.28-1.6,1.74-4,3-4,5.84-1.19,1-2.73-.52-3.77.39-1.28,1.12-2.09.4-3-.34-1.31-.79-1.34-3-3.46-3-1.15,0-2.21.32-3.33.38-.19-1.39-.38-2.78-.59-4.17a1.16,1.16,0,0,1,.31-1.17c1.88-1.46,2.33-4.18,4.69-5.25a7.07,7.07,0,0,0,2.85-3c1,0,2-.67,3.12-.27,1.55.57,2.45-.23,3-1.48a6,6,0,0,1,2.9-2.89c1.1-.56,2.56-1.13,2.09-2.95a.69.69,0,0,1,.74-.84c1.44.06,2.84-.88,4.33.07.77.49,2.28.58,2.41-.32.33-2.12,1.38-2,3-1.67a5,5,0,0,0,1.86-.29c.44-.07.87-.19.95-.69s-.39-.8-.86-1a12.81,12.81,0,0,0-3.8-1.23,3.58,3.58,0,0,1-2.8-1.67c0-.17,0-.33,0-.49,1.93-.84,3.73,0,5.56.41.89.2,1.72.61,2.65.09a5.34,5.34,0,0,1,4.52-.29c4.19,1.68,8.56,1.1,12.85,1.54,1.77.19,3.58.14,4.73-1.06,1.34-1.36,2.88-1.57,4.51-1.91A31.39,31.39,0,0,1,95.33,42c.58,0,1.45.11,1.44-.8,0-.68-.75-.72-1.3-.82-.27-.06-.56,0-.84-.09-.83-.13-1.55-.52-1.54-1.44s.84-.94,1.55-1.07c1-.2,2.4,0,2.45-1.69,2.92-.14,5.84-.25,8.76-.43C111,35.3,116.18,36.21,121.35,36.06Z"/><path class="cls-9" d="M97.09,36.06c0,1.68-1.41,1.49-2.45,1.69-.71.13-1.54.14-1.55,1.07s.71,1.31,1.54,1.44c.28.05.57,0,.84.09.55.1,1.29.14,1.3.82,0,.91-.86.84-1.44.8a31.39,31.39,0,0,0-8.75.91c-1.63.34-3.17.55-4.51,1.91-1.15,1.2-3,1.25-4.73,1.06-4.29-.44-8.66.14-12.85-1.54A5.34,5.34,0,0,0,60,44.6c-.93.52-1.76.11-2.65-.09-1.83-.4-3.63-1.25-5.56-.41-.92-1.56-.11-2.26,1.27-2.87,4.45-1.94,9.24-2.93,13.61-5a8.41,8.41,0,0,1,3.71-.51,87.51,87.51,0,0,0,17.81-1.94,7.36,7.36,0,0,1,6,1.17A5,5,0,0,0,97.09,36.06Z"/><path class="cls-10" d="M51.77,44.59a3.58,3.58,0,0,0,2.8,1.67,12.81,12.81,0,0,1,3.8,1.23c.47.21,1,.37.86,1s-.51.62-.95.69a5,5,0,0,1-1.86.29c-1.57-.37-2.62-.45-3,1.67-.13.9-1.64.81-2.41.32-1.49-.95-2.89,0-4.33-.07a.69.69,0,0,0-.74.84c.47,1.82-1,2.39-2.09,2.95A6,6,0,0,0,41,58.08c-.59,1.25-1.49,2.05-3,1.48-1.07-.4-2.08.23-3.12.27,1-2.63,1.93-5.2,4.44-6.93,1.8-1.24,1.89-3.8,3.55-5.31.8-.72,1.47-1.61,2.54-1.69A42,42,0,0,0,51.77,44.59Z"/><path class="cls-10" d="M103.38,30.43c1.31-1.55,2.41-1,3.43-.91C106,30.34,105,30.24,103.38,30.43Z"/><path class="cls-10" d="M99.58,29.67a1.42,1.42,0,0,1,1.87-.05.42.42,0,0,1-.13.7A1.31,1.31,0,0,1,99.58,29.67Z"/><path class="cls-12" d="M180.34,208.26c.4-1.66.33-3.34,1.62-4.88.94-1.13.67-3.21-.28-4.49-.66-.88-.21-1.41-.28-2.13-.32-3.27,2.22-5,3.51-7.47.86-1.63,0-3.44.54-5.16.2-.67-1.1-1.09-1.94-1.32-1.14-.32-1.68-.62-.75-2a22.69,22.69,0,0,0,2.93-6.07,19,19,0,0,1,3.51-6.91c1-1.19.68-2.39.34-3.78-1-3.95-1.54-7.94.67-11.76.88-1.52,1.34-3.26,2.76-4.46.53-.44.45-1.13.31-1.79-.31-1.46.46-2.69.76-3.94.46-2,1.58-4.49.08-6.73a8.83,8.83,0,0,1-1.36-4.56,30.18,30.18,0,0,0-1.36-5.69c-.13-.47-.58-1-.17-1.38,1.67-1.72.47-3.4,0-5.09a13.27,13.27,0,0,1-.88-4.74,2.9,2.9,0,0,0-.37-1.62,12.47,12.47,0,0,1-1.63-7.12,3.36,3.36,0,0,0-.86-2.53c-1.1-1.35-2-2.81-1.05-4.64.06-.12.13-.36.07-.4-1.56-1.38-.66-4-2.83-5.17-1.79-.94-3.28-2.36-5.17-3.24-1.42-.66-2-2.29-2.83-3.68a35.65,35.65,0,0,0-6.05-7.27c-2-1.94-3.26-4.71-6.73-4.83a2.11,2.11,0,0,1-1.4-2.89c.37-1.05-.51-1.64-1-2.39s-1.67-1.7-.83-2.53a3.12,3.12,0,0,1,3.7-.78c.94.49,1.84,1,2.79,1.5a1.84,1.84,0,0,0,1.64.15c1.1-.57,1.69-4.39.85-5.37a19.65,19.65,0,0,0-4.88-4.35c-.82-.48-1.45-.86-.79-1.93.41-.66.1-1.56-.52-1.54-2.66.1-3.66-2.4-5.64-3.34-2.89-1.39-4.22-4.64-7.26-5.89l.16-.54c1.9-.2,3.79-.43,5.69-.59.65,0,1.5.52,1.81-.46s-.44-1.38-.86-2c-1.28-2-3.42-3-4.85-4.76,2.41-2.53,5-1.21,7.63-.42a2,2,0,0,0,1.67,2.14c2.63.62,4.34,2.5,5.73,4.55a5.59,5.59,0,0,0,3.4,2.25c2.05.62,3.87,1.38,4.3,4a5.16,5.16,0,0,0,3.12,3.74,4.06,4.06,0,0,1,1.42,1.22c.51.67.87,1.44-.49,1.62-.47.07-1.09,0-1.1.7s.61.68,1,1c1,.65,1.87,1.34,1.12,2.73-.29.53,0,.92.43,1.28s1,1,1.53,1.45a1.83,1.83,0,0,1,.63,1.91c-.25.79-1,.68-1.59.75s-1.43-.16-1.45.79c0,.73.61,1.07,1.25,1.25s1.38.3,2.06.49c1.5.42,3,.68,2.55,3a3.13,3.13,0,0,0,1.69,3c2.18,1.46,4.39,2.74,4.61,6,.13,2,1.34,4,2.31,5.8,1.07,2,1.46,4.33,3,6.21.82,1,1.29,2.78-.53,3.86-.51.3-.47.82-.23,1.32,3.74,7.71,5.43,16,7.22,24.34.71,3.3,1.55,6.58,2.41,9.83.53,2,1.43,3.81,1.64,5.94a17.71,17.71,0,0,1-1.34,8.73c-.94,2.24-1.2,4.6-1.85,6.88a10.72,10.72,0,0,0,.62,6.82,4.27,4.27,0,0,1-.73,4.13,18,18,0,0,0-2,5.26c-1,3.42-1,7.27-3.91,9.91a24.41,24.41,0,0,0-4.8,6.4,46.81,46.81,0,0,0-2.88,6.77c-.38,1,0,1.34,1,1.08s2.18-.63,3.28-.85c.6-.12,1.36-.28,1.79.28s-.18,1-.32,1.57c-.7,2.67-3,4.61-3.41,7.41,0,.28-.06.56-.09.84a6.06,6.06,0,0,0-2.25,3c-.24.73-.74,1.47-1.63,1.43s-1.08-.78-1.21-1.51c-.26-1.48-.93-.85-1.53-.27A21.77,21.77,0,0,1,180.34,208.26Z"/><path class="cls-12" d="M180.44,56.69a.8.8,0,0,1-.82-.76c0-.32.2-.58.49-.46a1.54,1.54,0,0,1,.71.67C181,56.41,180.79,56.66,180.44,56.69Z"/><path class="cls-13" d="M34.37,76c.93.74,1.74,1.46,3,.34,1-.91,2.58.58,3.77-.39,1.33,1.23,2.3,3.22,4.68,2.15a15,15,0,0,0,2.26,4c.51.64,1,1.54.4,2.1-1.62,1.47-1.94,3.94-4,5a1.76,1.76,0,0,0-.91,2.48c.46,1,1.09,1.84,2.43,1.42a1.9,1.9,0,0,1,1.62.19c1.9,1.13,3.57,5.68,2.77,7.69a7.5,7.5,0,0,1-2.92,3.22c-1.28.94-2.72,2-2.25,3.91a13.62,13.62,0,0,1,.22,5.61c-2.38,3.87-3.58,8.47-7.12,11.64a1.62,1.62,0,0,0-.44.93c-.54,3.18-1.06,6.37.36,9.48A10.21,10.21,0,0,0,39.45,144a9.76,9.76,0,0,1,1.14,6.73,7.16,7.16,0,0,0,1,5.39,5.48,5.48,0,0,0,2.27,4.74c1.14.94,2.1,1.87,2,3.5,0,.59.21,1.3.82,1.32,2.6.07,3.9,2.15,5.52,3.59,3.37,3,7.08,5.74,9.14,10a1.34,1.34,0,0,0,1,.63c-.31.65-1.3,1.36-.4,2,2.29,1.66,1.63,2.89-.35,4.11a.52.52,0,0,0-.08.79A5.71,5.71,0,0,0,64.7,186a2.87,2.87,0,0,1,4,.45,4,4,0,0,0,3.78,1.48c3-.5,5,1.67,7.3,2.74,2.65,1.23,3.56,4.56,5.84,6.45a2,2,0,0,1,.46,1.35c0,1.7.62,2.11,2,1,.33-.28.76-.48,1.13-.07a.68.68,0,0,1-.11,1c-1.18,1.3-.46,1.49.8,1.4,3.57-.24,7.16.57,10.74-.13.95-.19,2.22-.2,2.52,1s-.85,1.55-1.77,1.95c-2.2.95-4.39,1.92-6.54,3-1.59.77-3,1.83-4.86.41-.88-.68-1.29.5-1.85.93a1.17,1.17,0,0,0-.55,1.46c.34.72,1.07.61,1.68.58,2.64-.13,5.19-1.24,7.89-.66a1,1,0,0,0,.6-.19c1.89-1,4-.86,5.93-.64,2.77.3,5.62-.57,8.32.56a1,1,0,0,0,.62-.09,21.73,21.73,0,0,1,9.53-1.09c.26,2.19-.92,3.53-2.62,4.65-.69.45-1.48,1.14-.91,2.08s1.36.38,2.09.15l4.41-1.34c-1.14,1.6-2.46,2.4-3,3.8a53.86,53.86,0,0,1-17.44,3.39c-2,.08-4.1-.2-6.12.34a2.08,2.08,0,0,1-1.84-.25c-3.74-2.84-8.15-2.11-12.38-2.3-.73,0-1.6,0-2-.51-1.73-2.31-4.52-2.72-6.82-4-1.29-.72-2.77-1.1-3.39-2.65-.05-.13-.16-.29-.27-.31-2.54-.51-3.43-2.95-5.16-4.4a3.17,3.17,0,0,0-1.92-.77,9.49,9.49,0,0,1-7.29-3.43c-2.32-2.61-5.68-4.36-8.78-6.17a4.17,4.17,0,0,1-2.5-3.56c-.14-2.13-.74-3.75-3.1-4.48-1.25-.39-2-1.54-2.63-3a26.78,26.78,0,0,0-2.94-5.17c-2.07-2.86-2.72-6.33-4.52-9.28a61.38,61.38,0,0,0-3.63-5.68,10,10,0,0,1-1.57-3.39c-.59-1.92-.77-4.41-3.85-4.44-1.17,0-1.8-1.35-1.79-2.36,0-3.39-1.5-6.43-1.93-9.69a75.24,75.24,0,0,1-.75-13.5c.09-1.8,1.11-3.38,1.39-5.23a56.46,56.46,0,0,0,.88-12.58,12.28,12.28,0,0,1,.65-3.31c.14-.64.45-1.07,1.18-.68.46.25.94.54,1.22-.14a1.28,1.28,0,0,0-.49-1.68c-.65-.41-1.49-.68-1.4-1.64.06-.69,0-1.87,1.27-.85.89.68,1.64.15,2.21-.45a1.53,1.53,0,0,0,.09-2.26,4.93,4.93,0,0,1-.25-6.09,6.17,6.17,0,0,0,1.14-3.72c-.1-1.6,1.27-2.85,1.92-4.18,1.68-3.48,2.7-7.22,4.6-10.58C34.52,78.08,34.3,77,34.37,76Z"/><path class="cls-11" d="M122.16,218.07c.52-1.4,1.84-2.2,3-3.8l-4.41,1.34c-.73.23-1.59.68-2.09-.15s.22-1.63.91-2.08c1.7-1.12,2.88-2.46,2.62-4.65.85-1.14,3.13-.95,3.24-2,.2-1.86,1.59-2.6,2.35-3.88a11.13,11.13,0,0,1,4.4-4,24.87,24.87,0,0,0,4.47-3.66,20.47,20.47,0,0,0,9-1.64c3.88-1.49,7.88-2.94,12.21-2.61a5.11,5.11,0,0,0,3,.91c2.37.28,2.71.91,2,3.21-.16.52-.45,1.24-.23,1.62,1.05,1.85-.19,2.56-1.38,3.55a43.89,43.89,0,0,0-3.63,3.83c-.54.58-.09.89.32,1.17a4.85,4.85,0,0,0,3.23.71A19.67,19.67,0,0,0,168.8,204a10.58,10.58,0,0,1-4.55,5.08c-1,.59-1.82,1.12-1.53,2.64.25,1.32-1.39,1.83-1.94,2.87-1.43.34-2.89.61-4.3,1a31.17,31.17,0,0,1-9,1.37,9.37,9.37,0,0,0-3.75,1.26c-2.5,1.11-5.11,2-7.65,3-1.69.7-3.29,1.2-4.68-.85l3.19-2.14-.05-.65C130.4,219.16,126.26,220.61,122.16,218.07Z"/><path class="cls-14" d="M157.84,190.91c-4.33-.33-8.33,1.12-12.21,2.61a20.47,20.47,0,0,1-9,1.64,3.16,3.16,0,0,1,.36-5.35c.56-.28,1.18-.44,1.75-.72.88-.43,1.51-1,.41-1.85s-1.73-1.88-3.06-2.2-.88-.87-.13-1.48c1.88-1.49,3.69-3.05,5.58-4.51,1-.76,1.94-1.51,1.79-2.9s-1.77.07-2.21-1.14c1.14-.64.49-2,1-2.95a23.3,23.3,0,0,1,7.85-8.93c1.43-.94,2.88-2.07,2.48-4.29-.17-.91.55-1.65,1.27-2.31,1.46-1.35,1.85-3.27,2.37-5.08.42-1.5-.76-2.1-1.67-2.86a1.34,1.34,0,0,1-.35-.75c-.29-1.85-1.43-1.59-2.68-1.13-2.15.79-4,.39-4.38-1.74s-.73-4.58-1.24-6.84c-.62-2.79.85-5.47.31-8.33-.3-1.65-.25-3.79,2-4.64,2-.73,2-2.14,1-3.55a3.44,3.44,0,0,1-.44-3.17c-1.76,1-2.34.28-2.82-1.15s-.07-2.8-.16-4.18c-.11-1.84-.9-3.55-.78-5.39a3.38,3.38,0,0,0-2.87-3.91c-1.54-.35-3.57.49-4.35-1.81-.07-.21-.79-.17-1.19-.32a16.7,16.7,0,0,1-8.26-6.47c-1.21-1.83-3.08-3.16-3.86-5.32-.24-.67-1.13-.75-1.85-.85s-1.41-.27-1.35-.81c.26-2.43-1.36-2.26-2.94-2.46a6.85,6.85,0,0,1-2.74-1,3,3,0,0,0-3.21-.22c-1.32.68-2.27.69-3.27-.56-.46-.57-1.94-1.35-2.11-.78-.68,2.37-1.69.43-2.47.32a13,13,0,0,1-2-.58,51.12,51.12,0,0,0-9.08-1.76c-2.29-.26-4.51,1-6.82.23-.07,0-.37.38-.45.63-.61,1.9-1.82,1.5-3,.68a6,6,0,0,0-4.78-1c-2.69.39-5.45-.23-8.19.12-.93.12-1.57-.61-2.11-1.26-.85-1-1.84-1.38-3-.6s-1.95.4-2.87-.27a16.44,16.44,0,0,1-2.83-2.23c-1.1-1.21-2.17-2.53-4.1-1.3-.52.33-1.06-.21-1.58-.39-1.93-.7-3.73-.81-5.08,1.15a3.1,3.1,0,0,1-2.83,1.14c-2.38,1.07-3.35-.92-4.68-2.15,0-2.84,2.37-4.1,4-5.84.44-.48,1.2-.74,1.66-1.28a4.66,4.66,0,0,1,5.35-1.54c3,1,5-.84,7-2.5,1.29-1,2.18-2.11,2-3.85,0-.31.19-.88.39-.93,1.77-.44,3.46-2.14,5.19-1.43,2.43,1,4.89.14,7.27.77.57.15,1-.24,1.35-.8,1.17-2,2.83-2.47,5.07-1.65a15,15,0,0,0,2.85.76c.68.09,1.58,0,1.64-.93s-.73-1.08-1.48-1.1c-.92,0-1.84,0-2.76,0-.49,0-1.06,0-1.16-.66s.4-.86.84-1.1A2.18,2.18,0,0,1,82,53.6c1,.29,2,.85,2.89-.61.26-.43,2,0,3,.06a6.64,6.64,0,0,1,3.2,1c4.85,3.06,10,2.73,15.31,1.71,2.77-.53,5.59.49,8.29,1.13,3.73.89,7.29,2.5,11,3.4a65.35,65.35,0,0,1,9.34,2.52,5.76,5.76,0,0,1,1.42.89c1.67,1.3,3.27,2.65,5.63,2.53,1.37-.06,2.4,1.23,4,1.07a7,7,0,0,0,2.74-.75c-.18,2.64,2.21,2.82,3.72,3.73s3.57,1,3,3.53a.91.91,0,0,0,.39.72c3.86,2.59,4.72,7.24,7.33,10.69,1.64,2.18,3.21,4.41,4.75,6.66a1.8,1.8,0,0,1-.55,2.75c-1.26.84-1.27,1.84-.69,3.12a71.87,71.87,0,0,1,4.67,13.42A14.9,14.9,0,0,0,174.2,117a7.47,7.47,0,0,1,.49,6.34c-.2.36-.66.91-.56,1.07,2.1,3.09-.66,6.19.06,9.26,0,.21.16.46.09.62-1.82,4.19,1,8.11.67,12.17-.21,2.26,1.48,4.47,0,6.74-.41.64.16,1.32.72,1.83a4,4,0,0,1,.26,6,35.4,35.4,0,0,0-5.86,8.47c-.77,1.49-1.85,2.8-1.91,4.57a1.1,1.1,0,0,1-.29.78c-3.49,2.52-3,6.84-4.71,10.17-.9,1.78-2.62,2.94-4,4.3C158.62,189.8,157.91,190.09,157.84,190.91Z"/><path class="cls-15" d="M62.38,179.88a1.34,1.34,0,0,1-1-.63c-2.06-4.23-5.77-7-9.14-10-1.62-1.44-2.92-3.52-5.52-3.59-.61,0-.86-.73-.82-1.32.11-1.63-.85-2.56-2-3.5a5.48,5.48,0,0,1-2.27-4.74c1.21.74,2.75.61,3.89,1.57,1.95,1.65,2.26,1.52,3.34-.82.62-1.36-.07-2.4-.81-3.29a8.35,8.35,0,0,1-1.77-4.88,4.56,4.56,0,0,0-.52-2c-1.39-2.28-.78-4.49.38-6.56a1.54,1.54,0,0,0-.06-1.89c-1.41-2.1-3.6-3.52-4.92-5.73a1.62,1.62,0,0,0-2.31-.17c-.86.58-.42,1.2,0,1.78.72.92.33,1.4-.65,1.64-1.42-3.11-.9-6.3-.36-9.48a1.62,1.62,0,0,1,.44-.93c3.54-3.17,4.74-7.77,7.12-11.64,1.81,1.19,3,3,4.29,4.62.5.59,1,1,1.83.56.48-.27,1.4-.5,1.18-1-.7-1.65.65-2.2,1.35-3.17.88-1.24,1.55-1.87,2.49-.06.37.71,1.35.77,1.34-.08,0-3.45,2.64-2.42,4.43-2.75.46-.09,1.06.13,1.31-.39.83-1.73,1.71-1.49,2.82-.25.76.85,1.35.73,1.41-.52,0-.71-.06-1.43,0-2.12.25-1.63.83-3.13,2.86-3,2.45.22,5.2-1.17,7.29,1.27a1.36,1.36,0,0,0,1.16.38c1.48-.63,3.44.64,4.61-1.24.33-.52,1-.3,1.56,0,1,.65,2,.35,3,0,1.31-.42,2.65-1.06,4.09-.35,2.84,1.42,5.56,3.48,9,1.72.34-.18.84,0,1.26-.06a1.85,1.85,0,0,0,1.68-.7c.8-1.15,1.62-1.33,2.43,0,.4.65.77.63,1.34.12,2.21-2,4.16-2.16,6.56-.49s4.7,3.62,7.8,4a1.91,1.91,0,0,1,1.58,1.27,6.13,6.13,0,0,0,1.88,2.77,1.27,1.27,0,0,1,.44,1.52c-.37.65-1,.33-1.51.11-.89-.39-1.5-.49-2,.68-1.42,3.62-2.81,4.22-6.5,3.61-1.21-.19-2.52-1.37-3.14-1-1.07.64,0,2.28-.5,3.51-.7,1.62.19,2.42,1.81,2.4a4.91,4.91,0,0,1,3.33,1.34c1.66,1.31,3.92,1.81,5.36,3.56a.65.65,0,0,0,.6,0c2-1.1,4.19-.36,6.24-.89,1.83-.47,2.81.15,3.08,2.08a6.84,6.84,0,0,0,1.62,2.89c1.55,2.2,3,4.48,2.27,7.51-.56,2.32-1.2,4.61-1.56,7-.43,2.83-1,5.94-4.79,6.58-1.17.2-1.33,1.08-1.14,2.28.51,3.29-.55,4.57-3.83,5.18-1.16.22-2.24.82-2.32,2.14-.12,2.18-1.28,3.27-3.3,3.8-1.17.31-2,1.35-1.12,2.37,1.42,1.54.26,1.72-.77,2a5.13,5.13,0,0,0-3.68,4,10.7,10.7,0,0,1-2.59,5c-1.24,1.33-2,2.4.55,3,.35.09.71.29.71.69s-.42.52-.78.54c-2.08.09-3.71,2.67-6.11,1.12-.1-.07-.44.07-.56.21-1,1.05-2.05.56-3.14.23a4.46,4.46,0,0,0-5.16,1.39,4,4,0,0,1-4.45,1.1c-1-.27-1.78-.54-2.73.23s-1.81.44-2.5-.58A5.21,5.21,0,0,0,85,188c-2.33-.74-4.85-1.09-6.52-3.25a4.11,4.11,0,0,0-3-1.47,4,4,0,0,1-2.93-1.92c-2.46-3.61-6.41-5.93-8.51-9.86-.35-.66-.93-1.05-1.23.11-.44,1.7-1.67,3.3,0,5.14C63.61,177.61,62.9,178.86,62.38,179.88Z"/><path class="cls-16" d="M62.38,179.88c.52-1,1.23-2.27.43-3.17-1.65-1.84-.42-3.44,0-5.14.3-1.16.88-.77,1.23-.11,2.1,3.93,6,6.25,8.51,9.86a4,4,0,0,0,2.93,1.92,4.11,4.11,0,0,1,3,1.47c1.67,2.16,4.19,2.51,6.52,3.25a5.21,5.21,0,0,1,2.93,2c.69,1,1.59,1.32,2.5.58s1.73-.5,2.73-.23a4,4,0,0,0,4.45-1.1,4.46,4.46,0,0,1,5.16-1.39c1.09.33,2.15.82,3.14-.23.12-.14.46-.28.56-.21,2.4,1.55,4-1,6.11-1.12.36,0,.77-.11.78-.54s-.36-.6-.71-.69c-2.5-.58-1.79-1.65-.55-3a10.7,10.7,0,0,0,2.59-5,5.13,5.13,0,0,1,3.68-4c1-.28,2.19-.46.77-2-.92-1,0-2.06,1.12-2.37,2-.53,3.18-1.62,3.3-3.8.08-1.32,1.16-1.92,2.32-2.14,3.28-.61,4.34-1.89,3.83-5.18-.19-1.2,0-2.08,1.14-2.28,3.78-.64,4.36-3.75,4.79-6.58.36-2.39,1-4.68,1.56-7,.73-3-.72-5.31-2.27-7.51a6.84,6.84,0,0,1-1.62-2.89c-.27-1.93-1.25-2.55-3.08-2.08-2.05.53-4.27-.21-6.24.89a.65.65,0,0,1-.6,0c-1.44-1.75-3.7-2.25-5.36-3.56a4.91,4.91,0,0,0-3.33-1.34c-1.62,0-2.51-.78-1.81-2.4.53-1.23-.57-2.87.5-3.51.62-.37,1.93.81,3.14,1,3.69.61,5.08,0,6.5-3.61.47-1.17,1.08-1.07,2-.68.5.22,1.14.54,1.51-.11a1.27,1.27,0,0,0-.44-1.52,6.13,6.13,0,0,1-1.88-2.77,1.91,1.91,0,0,0-1.58-1.27c-3.1-.39-5.37-2.32-7.8-4s-4.35-1.49-6.56.49c-.57.51-.94.53-1.34-.12-.81-1.32-1.63-1.14-2.43,0a1.85,1.85,0,0,1-1.68.7c-.42,0-.92-.12-1.26.06-3.47,1.76-6.19-.3-9-1.72-1.44-.71-2.78-.07-4.09.35-1,.34-2,.64-3,0-.51-.32-1.23-.54-1.56,0-1.17,1.88-3.13.61-4.61,1.24a1.36,1.36,0,0,1-1.16-.38c-2.09-2.44-4.84-1-7.29-1.27-2-.18-2.61,1.32-2.86,3-.11.69,0,1.41,0,2.12-.06,1.25-.65,1.37-1.41.52-1.11-1.24-2-1.48-2.82.25-.25.52-.85.3-1.31.39-1.79.33-4.44-.7-4.43,2.75,0,.85-1,.79-1.34.08-.94-1.81-1.61-1.18-2.49.06-.7,1-2.05,1.52-1.35,3.17.22.52-.7.75-1.18,1-.79.43-1.33,0-1.83-.56-1.34-1.62-2.48-3.43-4.29-4.62a13.62,13.62,0,0,0-.22-5.61c-.47-1.93,1-3,2.25-3.91A7.5,7.5,0,0,0,50.36,101c.8-2-.87-6.56-2.77-7.69A1.9,1.9,0,0,0,46,93.09c-1.34.42-2-.37-2.43-1.42a1.76,1.76,0,0,1,.91-2.48c2.11-1.07,2.43-3.54,4-5,.62-.56.11-1.46-.4-2.1a15,15,0,0,1-2.26-4,3.1,3.1,0,0,0,2.83-1.14c1.35-2,3.15-1.85,5.08-1.15.52.18,1.06.72,1.58.39,1.93-1.23,3,.09,4.1,1.3a16.44,16.44,0,0,0,2.83,2.23c.92.67,1.77,1,2.87.27s2.1-.42,3,.6c.54.65,1.18,1.38,2.11,1.26,2.74-.35,5.5.27,8.19-.12a6,6,0,0,1,4.78,1c1.14.82,2.35,1.22,3-.68.08-.25.38-.66.45-.63,2.31.82,4.53-.49,6.82-.23a51.12,51.12,0,0,1,9.08,1.76,13,13,0,0,0,2,.58c.78.11,1.79,2,2.47-.32.17-.57,1.65.21,2.11.78,1,1.25,2,1.24,3.27.56a3,3,0,0,1,3.21.22,6.85,6.85,0,0,0,2.74,1c1.58.2,3.2,0,2.94,2.46-.06.54.78.74,1.35.81s1.61.18,1.85.85c.78,2.16,2.65,3.49,3.86,5.32a16.7,16.7,0,0,0,8.26,6.47c.4.15,1.12.11,1.19.32.78,2.3,2.81,1.46,4.35,1.81a3.38,3.38,0,0,1,2.87,3.91c-.12,1.84.67,3.55.78,5.39.09,1.38-.31,2.76.16,4.18s1.06,2.13,2.82,1.15a3.44,3.44,0,0,0,.44,3.17c.95,1.41.91,2.82-1,3.55-2.23.85-2.28,3-2,4.64.54,2.86-.93,5.54-.31,8.33.51,2.26.78,4.59,1.24,6.84s2.23,2.53,4.38,1.74c1.25-.46,2.39-.72,2.68,1.13a1.34,1.34,0,0,0,.35.75c.91.76,2.09,1.36,1.67,2.86-.52,1.81-.91,3.73-2.37,5.08-.72.66-1.44,1.4-1.27,2.31.4,2.22-1.05,3.35-2.48,4.29a23.3,23.3,0,0,0-7.85,8.93c-.52,1,.13,2.31-1,2.95.44,1.21,2-.3,2.21,1.14s-.8,2.14-1.79,2.9c-1.89,1.46-3.7,3-5.58,4.51-.75.61-1.29,1.12.13,1.48s2.09,1.4,3.06,2.2.47,1.42-.41,1.85c-.57.28-1.19.44-1.75.72a3.16,3.16,0,0,0-.36,5.35,24.87,24.87,0,0,1-4.47,3.66,11.13,11.13,0,0,0-4.4,4c-.76,1.28-2.15,2-2.35,3.88-.11,1.07-2.39.88-3.24,2a21.73,21.73,0,0,0-9.53,1.09,1,1,0,0,1-.62.09c-2.7-1.13-5.55-.26-8.32-.56-2-.22-4-.37-5.93.64a1,1,0,0,1-.6.19c-2.7-.58-5.25.53-7.89.66-.61,0-1.34.14-1.68-.58a1.17,1.17,0,0,1,.55-1.46c.56-.43,1-1.61,1.85-.93,1.83,1.42,3.27.36,4.86-.41,2.15-1,4.34-2,6.54-3,.92-.4,2.07-.75,1.77-1.95s-1.57-1.17-2.52-1c-3.58.7-7.17-.11-10.74.13-1.26.09-2-.1-.8-1.4a.68.68,0,0,0,.11-1c-.37-.41-.8-.21-1.13.07-1.38,1.15-2,.74-2-1a2,2,0,0,0-.46-1.35c-2.28-1.89-3.19-5.22-5.84-6.45-2.31-1.07-4.33-3.24-7.3-2.74a4,4,0,0,1-3.78-1.48,2.87,2.87,0,0,0-4-.45,5.71,5.71,0,0,1-3.15.81.52.52,0,0,1,.08-.79c2-1.22,2.64-2.45.35-4.11C61.08,181.24,62.07,180.53,62.38,179.88Z"/><path class="cls-16" d="M38.21,135.76c1-.24,1.37-.72.65-1.64-.46-.58-.9-1.2,0-1.78a1.62,1.62,0,0,1,2.31.17c1.32,2.21,3.51,3.63,4.92,5.73a1.54,1.54,0,0,1,.06,1.89c-1.16,2.07-1.77,4.28-.38,6.56a4.56,4.56,0,0,1,.52,2A8.35,8.35,0,0,0,48,153.59c.74.89,1.43,1.93.81,3.29-1.08,2.34-1.39,2.47-3.34.82-1.14-1-2.68-.83-3.89-1.57a7.16,7.16,0,0,1-1-5.39A9.76,9.76,0,0,0,39.45,144,10.21,10.21,0,0,1,38.21,135.76Z"/></g></g></g></svg>