<?xml version="1.0" encoding="utf-8"?>
<!-- Generator: Adobe Illustrator 23.0.2, SVG Export Plug-In . SVG Version: 6.00 Build 0)  -->
<svg version="1.1" id="Layer_1" xmlns="http://www.w3.org/2000/svg" xmlns:xlink="http://www.w3.org/1999/xlink" x="0px" y="0px"
	 viewBox="0 0 510 510" style="enable-background:new 0 0 510 510;" xml:space="preserve">
<style type="text/css">
	.st0{fill:#E68B1E;}
	.st1{fill:#E2891D;}
	.st2{fill:#E78C1E;}
	.st3{fill:#DF871D;}
	.st4{fill:#819697;}
	.st5{fill:#878A8A;}
	.st6{fill:#0B0302;}
	.st7{fill:#809091;}
	.st8{fill:#040302;}
	.st9{fill:#FFFFFF;}
</style>
<path class="st0" d="M318.9,296.4c-0.8,0.1-1.4-0.4-2-0.8c-8.5-4.5-16.9-9.1-25.3-13.6c-3-1.6-6.1-3.3-9.1-4.9
	c-2.1-1.1-3.6-2.8-4.4-5.1c-0.4-1.2-0.5-2.4-0.5-3.6c0-5.8,0-11.5-0.1-17.3c0-5-0.1-10,0-14.9c0-1.1-0.4-1.7-1.3-2.2
	c-6.3-3.6-12.6-7.3-18.9-10.9c-0.8-0.5-1.5-0.5-2.4,0c-6.5,3.8-13,7.6-19.4,11.3c-0.2,0.1-0.5,0.3-0.7,0.4c-0.3,0.2-0.5,0.5-0.5,0.9
	c0,0.4,0,0.9,0,1.3c0,14.8,0.1,29.6,0.1,44.4c0,1.8,0,3.6,0.1,5.4c0,2.2-0.1,2,1.8,3c3.5,1.9,7,3.7,10.5,5.6
	c22.5,11.9,44.9,23.9,67.4,35.8c2.7,1.4,4.5,3.5,5.2,6.5c0.2,0.9,0.2,1.7,0.2,2.6c0,15.3,0,30.6,0.1,45.9c0,9.8,0,19.6,0,29.4
	c0,1.1,0,2.2-0.2,3.2c-0.6,2.6-2.1,4.6-4.4,5.8c-2.7,1.5-5.5,2.9-8.2,4.4c-15.2,8.1-30.4,16.3-45.6,24.4c-0.3,0.2-0.6,0.3-1,0.5
	c-2.8,1.4-5.6,1.4-8.3,0c-2.9-1.5-5.7-3.1-8.6-4.6c-14.8-8-29.7-16.1-44.5-24.1c-0.6-0.3-1.2-0.6-1.7-0.9c-2.8-1.7-4.3-4.2-4.4-7.5
	c-0.1-3.3-0.1-6.6-0.1-10c0-21.3,0-42.6,0-63.8c0-2.6-0.3-2.8,2.2-1.4c11.4,6.1,22.7,12.2,34.1,18.3c0.1,0.1,0.3,0.1,0.4,0.2
	c3.6,1.8,5.2,4.8,5.2,8.8c0,2.7,0,5.5,0,8.2c0,7.6,0,15.3,0.1,22.9c0,0.4,0,0.9,0,1.3c0,0.6,0.2,1,0.7,1.2c0.3,0.1,0.5,0.3,0.8,0.4
	c6.1,3.4,12.3,6.7,18.4,10.1c0.1,0.1,0.3,0.1,0.4,0.2c0.8,0.6,1.5,0.5,2.4,0c3.7-2.1,7.5-4.1,11.2-6.1c2.8-1.5,5.6-3.1,8.4-4.5
	c0.9-0.5,1.2-1,1.2-2c-0.1-6.9-0.1-13.9-0.1-20.8c0-4.8,0-9.7-0.1-14.5c0-1.4-0.1-2.9,0-4.3c0.1-1-0.4-1.6-1.3-2
	c-3.3-1.7-6.5-3.5-9.7-5.2c-22.8-12.2-45.6-24.5-68.4-36.7c-0.3-0.1-0.5-0.3-0.8-0.4c-3.2-1.8-4.8-4.5-4.9-8.1c-0.1-4.3,0-8.7,0-13
	c0-14,0-28-0.1-42c0-8.6,0-17.2-0.1-25.8c0-0.6,0-1.2,0-1.7c0-3.5,1.6-6.1,4.6-7.8c2.1-1.2,4.2-2.3,6.3-3.4
	c15.6-8.5,31.3-17,46.9-25.5c0.5-0.3,1-0.6,1.5-0.8c2.8-1.4,5.5-1.4,8.3,0c3.1,1.6,6.2,3.3,9.4,5c14.6,7.8,29.1,15.6,43.6,23.4
	c0.6,0.3,1.2,0.6,1.7,0.9c2.6,1.7,4.1,4,4.3,7.1c0,0.8,0.1,1.6,0.1,2.4c0,22.1,0,44.3-0.1,66.4C319,294.7,319.1,295.6,318.9,296.4z
	 M315.7,292.9c1.5,0.7,1.5,0.7,1.4-1c0-0.1,0-0.1-0.1-0.2c0-0.3,0.1-0.6,0.1-0.9c0-3.4,0-6.8,0-10.3c0-0.3-0.1-0.7-0.2-1
	c0-0.3,0.1-0.5,0.1-0.8c0-0.2,0-0.4,0-0.6c0-15.8,0-31.6,0-47.4c0-0.6,0.1-1.2-0.2-1.7c0-0.3,0.1-0.5,0.1-0.8c0-0.9,0.1-1.9,0-2.8
	c-0.1-2.4-1.2-4.3-3.2-5.6c-0.6-0.4-1.2-0.7-1.9-1.1c-3.1-1.7-6.2-3.3-9.3-5c-8.2-4.4-16.3-8.7-24.5-13.1c-0.1-0.3-0.3-0.5-0.7-0.4
	c-1.5-0.8-3.1-1.6-4.6-2.4c-4.5-2.4-9-4.8-13.5-7.3c-1.4-0.8-2.9-1.1-4.6-1c-1.2,0.1-2.2,0.6-3.2,1.2c-5.5,3-11,6-16.5,9
	c-0.4,0.2-0.8,0.5-1.3,0.8c-0.3,0-0.4,0.2-0.6,0.4c-0.8,0.1-1.5,0.6-2.2,1c-10.9,5.9-21.8,11.8-32.7,17.8c-0.4,0.2-0.9,0.5-1.3,0.8
	c-2,1.3-3,3.2-3.2,5.6c0,0.7,0,1.4,0,2.2c-0.1,0.3,0,0.5,0.1,0.7c-0.3,0.7-0.2,1.4-0.2,2.1c0,3.1,0,6.2,0,9.3c0,9.8,0,19.6,0.1,29.4
	l0-0.1c0,3.1,0,6.2,0.1,9.3c0,0.4,0,0.8,0,1.2c0,3.6,0,7.2,0.1,10.8c-0.2,0.4,0.1,0.6,0.3,0.9c-0.5,0.5-0.3,1.1-0.3,1.6
	c0,3.8,0,7.6,0,11.5c0,1.4,0.1,2.9,0.1,4.3c0.1,2.4,1.3,4.2,3.3,5.5c0.5,0.3,1.1,0.6,1.7,0.9c8.3,4.4,16.5,8.9,24.8,13.3
	c0.3,0.1,0.5,0.3,0.8,0.4c12.6,6.7,25.1,13.5,37.7,20.2c0.8,0.4,1.5,0.8,2.3,1.1c0.4,0.5,0.9,0.6,1.5,0.7c0.6,0.6,1.3,0.9,2,1.3
	c3,1.6,6.1,3.3,9.1,4.9c0.4,0.2,0.8,0.4,1.1,0.6c0.4,0.2,0.6,0.6,0.6,1.1c0,0.6,0,1.2,0,1.7c0,5.9,0.1,11.8,0.1,17.7
	c-0.1,0.2-0.1,0.5,0.1,0.7c0,0.8-0.1,1.6-0.1,2.4c0,6.2,0.1,12.5,0.1,18.7c0,3.1,0.4,2.4-2.2,3.8c-2.3,1.3-4.7,2.6-7,3.8
	c-0.3,0.1-0.8,0.1-0.8,0.6c-0.3,0-0.6,0.1-0.7,0.4c-0.5,0.2-1.1,0.4-1.6,0.7c-3.2,1.7-6.4,3.5-9.6,5.2c-2.3,1.2-1.5,1.2-3.7,0
	c-3.2-1.7-6.4-3.5-9.6-5.3c-0.5-0.3-1-0.5-1.6-0.7c-0.2-0.3-0.4-0.3-0.7-0.4c-0.1-0.5-0.5-0.5-0.8-0.6c-2.5-1.4-4.9-2.8-7.4-4.1
	c-1.1-0.6-1.7-1.3-1.5-2.5c0-0.3,0-0.6,0-0.9c0-6.3,0-12.7-0.1-19c0-0.7,0.1-1.4-0.2-2.1c0.2-0.2,0.5-0.4,0.2-0.7c0-3.5,0-7,0-10.6
	c0-2.8-1.3-4.9-3.8-6.3c-2.3-1.2-4.5-2.5-6.8-3.7c-0.2-0.1-0.5-0.2-0.8-0.2c-0.1-0.3-0.4-0.4-0.7-0.5c-1.8-1.1-3.6-2.2-5.6-3
	c-0.1-0.3-0.4-0.4-0.7-0.4c-2.1-1.4-4.3-2.6-6.7-3.6c-0.2-0.3-0.5-0.6-1-0.6c-3.5-1.9-7-3.8-10.4-5.7c-1.5-0.8-1.6-0.7-1.6,1.1
	c0,11.1,0,22.2,0,33.3l0,0c0,0.8,0,1.6,0.1,2.3c0,0.7,0,1.5,0,2.2c0,6,0,11.9,0,17.9c0,0.6,0,1.2,0,1.9c0,0.2,0,0.4,0.1,0.6
	c0,2.5-0.1,5-0.1,7.5c0,1.9,0.1,3.7,0.1,5.6c-0.1,0.2-0.1,0.5,0.1,0.6c0.1,2.5,1.3,4.3,3.5,5.4c0.1,0.2,0.2,0.3,0.4,0.3
	c0.1,0.1,0.3,0.2,0.4,0.2c0.2,0.3,0.5,0.3,0.9,0.3c0.4,0.7,1.1,0.9,1.7,1.2c13.3,7.2,26.6,14.4,39.9,21.6c3.5,1.9,7.1,3.8,10.6,5.8
	c1.6,0.9,3.2,1.2,5,1c1.1-0.2,2-0.7,3-1.2c5-2.7,10-5.4,15.1-8.1c11.7-6.3,23.4-12.5,35.1-18.8c0.7-0.4,1.6-0.6,2.2-1.4
	c0.4-0.1,0.8,0,1.1-0.3c3-1.6,4.3-4.1,4.1-7.5c-0.1-1.6,0-3.2,0-4.8c0-2.6-0.1-5.2-0.1-7.8c0-0.6,0-1.2,0.1-1.8c0-3.7,0-7.3,0-11
	c0-2.4,0-4.7-0.1-7.1c0-0.8,0-1.5,0-2.3c0-8.3,0-16.7,0-25l0,0c0-5.2,0-10.3,0-15.5c0-1,0-2-0.3-3c-0.4-1.5-1-3-2.6-3.7
	c-0.1-0.3-0.2-0.5-0.5-0.5c-0.4-0.2-0.7-0.5-1.1-0.7c-7.1-3.8-14.3-7.6-21.4-11.4c-0.4-0.2-0.9-0.4-1.4-0.6
	c-0.1-0.3-0.4-0.4-0.7-0.4c-2.1-1.2-4.3-2.3-6.4-3.5c-0.3-0.1-0.5-0.2-0.8,0c-0.1-0.5-0.5-0.8-1-0.8c-0.4-0.3-0.8-0.6-1.3-0.8
	c-11.2-5.9-22.3-11.9-33.5-17.8c-0.2-0.5-0.8-0.5-1.2-0.6c-1.8-1.1-3.6-2.2-5.6-2.9c-0.1-0.3-0.3-0.4-0.6-0.4
	c-0.4-0.2-0.7-0.5-1.1-0.7c-1.6-0.9-3.2-1.7-4.8-2.5c-0.6-0.3-0.9-0.7-0.8-1.4c0-0.4,0-0.7,0-1.1c0-7.1,0-14.3-0.1-21.4
	c0-0.8,0.1-1.6-0.1-2.4c0-0.3,0.1-0.5,0.1-0.8c0-5,0-10.1,0-15.1l0,0.1c0-1.3-0.1-2.5-0.1-3.8c0-0.3,0-0.6,0-0.9c0-2.9,0-5.8,0-8.7
	c0-0.7,0.3-1.2,0.9-1.6c1.6-0.9,3.1-1.8,4.7-2.7c2.2-1.3,4.3-2.6,6.5-3.9c0.3,0,0.5-0.1,0.7-0.4c0.7-0.4,1.4-0.7,2.1-1.1
	c2.5-1.5,5.1-2.9,7.6-4.4c0.9-0.5,1.7-0.7,2.5,0c0.8,0.5,1.6,0.9,2.4,1.4c2.4,1.4,4.9,2.8,7.3,4.1c0.2,0.1,0.4,0.1,0.6,0.2
	c0.4,0.6,1.1,0.9,1.8,1.2c3,1.7,6,3.5,9,5.2c0.7,0.4,1.1,0.9,1,1.7c-0.1,0.8,0,1.6,0,2.4c0,0,0-0.1,0-0.1c0,2.2,0.1,4.5,0.1,6.7
	c-0.1,0.3,0,0.5,0.3,0.6c-0.4,0.6-0.4,1.2-0.4,1.9c0,1.5,0.1,3,0.1,4.5c0,4.2,0,8.4,0.1,12.6c-0.2,0.3,0.1,0.6,0.2,0.8
	c-0.3,2.1-0.2,4.2,0,6.2c0.1,1.6,0.9,2.8,2.1,3.9c0.6,0.6,1.4,1,2.1,1.4c2.3,1.2,4.6,2.5,6.8,3.7c0.3,0.3,0.6,0.2,1,0.3
	c0.3,0.5,0.9,0.7,1.4,0.9c7.3,3.9,14.5,7.8,21.8,11.7C315.1,292.6,315.4,292.7,315.7,292.9z"/>
<path class="st0" d="M334.6,413.3c-0.4-0.8-0.2-1.5-0.2-2.2c0-6.5,0-13,0-19.5c0-11.1,0-22.2,0-33.3c0-23.7,0-47.3,0.1-71
	c0-17.4,0.1-34.8,0.1-52.2c0-0.9,0-1.9,0.2-2.8c0.7-4,4.9-6.4,8.7-5c0.5,0.2,1,0.5,1.6,0.8c9.9,5.3,19.7,10.5,29.6,15.8
	c0.3,0.1,0.5,0.3,0.8,0.4c0.5,0.3,0.8,0.6,0.8,1.2c0,0.5,0,1,0,1.5c0,32.5-0.1,65.1-0.1,97.6c0,1.4,0,2.7,0,4.1
	c0.4,0.3,0.7,0.1,1-0.1c4.3-2.3,8.6-4.6,13-6.9c0.8-0.4,1.2-0.9,1.1-1.9c-0.1-0.4,0-0.9,0-1.3c0-24.9,0-49.8,0-74.7
	c0-0.7,0-1.4,0-2.2c0.4-3.9,4.2-6.1,7.8-4.6c0.4,0.2,0.8,0.4,1.2,0.6c8.4,4.5,16.8,9,25.2,13.5c0.3,0.1,0.5,0.3,0.8,0.4
	c0.9,0.3,1.2,1,1.1,1.9c0,0.4,0,0.9,0,1.3c0,27.6,0,55.1,0,82.7c0,0.6,0,1.2,0,1.7c-0.1,3.1-1.6,5.5-4.1,7.2
	c-0.6,0.4-1.2,0.7-1.9,1.1c-28.3,15-56.5,30-84.8,45.1C335.9,412.7,335.3,413,334.6,413.3z M383.9,347.3c-0.3-0.1-0.5-0.2-0.7,0.1
	c-0.7,0.4-1.4,0.6-2,1.1c-0.7,0.5-1.7,0.7-2.2,1.6c-0.2,0-0.3,0.1-0.5,0.1c-1,0.2-1.9,0.7-2.7,1.4c-0.2,0.1-0.4,0.1-0.6,0.2
	c-0.7,0.2-0.9,0.1-0.9-0.4c0-0.6,0-1.3,0-1.9c0-9.2,0-18.4,0-27.6c0-0.9-0.1-1.7-0.1-2.6c0-0.2,0.1-0.4,0.1-0.7c0-4.8,0-9.6,0-14.3
	c0-0.4-0.1-0.7-0.2-1.1c0-0.2,0.1-0.4,0.1-0.6c0-3.5,0.1-7.1,0.1-10.6c0-14.6,0-29.2,0-43.8c0-0.5,0-1,0-1.5c0-0.6-0.2-1-0.7-1.2
	c-0.3-0.1-0.5-0.3-0.8-0.4c-5.6-3-11.3-6-16.9-9c-0.4-0.2-0.9-0.5-1.4-0.5c-0.2-0.1-0.4-0.3-0.5-0.4c-0.1-0.2-0.2-0.3-0.4-0.3
	c-3.4-1.8-6.7-3.6-10.1-5.4c-0.2-0.1-0.4-0.2-0.6-0.3c-3.1-1-6.1,1.1-6.3,4.3c0,0.4,0,0.9,0,1.3c0,16.2,0,32.4-0.1,48.6
	c0,0.9-0.1,1.9-0.1,2.8c-0.1,0.6-0.1,1.2,0.3,1.7c-0.3,0.5-0.2,1-0.2,1.5c0,7.3,0,14.6,0,21.9c-0.2,0.3-0.1,0.5,0.2,0.6
	c-0.1,0.2-0.2,0.4-0.3,0.6c-0.1,0.7-0.1,1.4,0,2.1c0,1.1,0,2.2,0,3.2c0,8.9,0,17.8,0,26.7l0,0c0,0.6,0,1.2,0,1.8c0,0.5,0,1,0,1.5
	c0,9.3,0,18.6-0.1,27.9l0,0c0,11.1,0,22.2,0,33.3c0,0.2-0.1,0.4,0,0.6c0,0.7,0.1,0.7,0.7,0.6c0.1,0,0.2-0.1,0.4-0.2
	c5-2.7,9.9-5.3,14.9-8c21.8-11.6,43.5-23.1,65.3-34.7c1.4-0.7,2.8-1.5,4.2-2.2c1.8-1,2.9-2.5,3.5-4.5c0.2-0.7,0.2-1.4,0.2-2.1
	c0-8.2,0-16.4,0-24.7c0-0.6,0.1-1.2-0.2-1.7c0-0.3,0.1-0.5,0.1-0.8c0-2.3,0.2-4.5-0.1-6.8c0.2-0.2,0.2-0.5,0.1-0.8
	c0-2.9,0-5.9,0-8.8c0-1.2-0.1-2.4-0.1-3.6c0-0.4,0.1-0.9,0.1-1.3c0-0.2,0-0.4,0-0.6c0-11.4,0-22.9,0-34.3c0-0.3,0-0.6,0-0.9
	c0-0.5-0.2-0.8-0.6-1.1c-0.3-0.2-0.6-0.4-0.9-0.5c-4.4-2.3-8.8-4.7-13.2-7c-0.3-0.2-0.5-0.5-0.9-0.4c-3.5-1.9-6.9-3.8-10.4-5.6
	c-0.4-0.2-0.8-0.4-1.1-0.6c-1.6-0.8-3.8-0.2-4.7,1.7c-0.2,0.4-0.3,0.8-0.4,1.2l0,0c0,8.1,0,16.2,0,24.3c-0.2,6.5-0.1,12.9,0,19.4
	c0.1,0.4,0.1,0.7,0.2,1.1c0,0,0,0.1,0,0.1c-0.4,0.3-0.2,0.7-0.1,1c-0.2,0.9-0.2,1.9,0,2.8c0.1,0.3,0.1,0.6,0.2,0.9
	c-0.4,0.3-0.2,0.7-0.2,1.1c0,0.4-0.1,0.7-0.1,1.1c0,8.9,0,17.9,0,26.8c0.1,0.4,0.1,0.7,0.2,1.1c0.1,0.2,0.3,0.3,0.6,0.4
	c-2.6,1.4-5.2,2.8-7.8,4.2C385.2,346,384.3,346.2,383.9,347.3C383.9,347.2,383.9,347.3,383.9,347.3z"/>
<path class="st1" d="M84.7,262.7c0-0.8,0-1.4,0-2.1c0-2.9,0-5.8,0-8.7c0-27.1,0-54.1-0.1-81.2c0-7.6,0-15.2-0.1-22.7
	c0-0.7,0-1.4,0-2.2c0.2-2.7,1.5-4.8,3.8-6.2c0.4-0.3,0.9-0.5,1.3-0.7c9.6-5.1,19.2-10.2,28.8-15.3c0.6-0.3,1.2-0.8,2.1-0.7
	c0,8.5,0,16.9,0,25.4c0,8.3,0,16.7,0,25c0.7,0.2,1-0.1,1.4-0.3c1.5-0.8,2.9-1.6,4.4-2.3c2.4-1.2,3.5-3.1,3.4-5.8
	c0-8.4,0-16.9,0-25.3c0-5.6,0-11.3,0-16.9c0-1.6,0.3-3,1.1-4.3c0.8-1.4,1.9-2.3,3.3-3.1c2.4-1.3,4.7-2.5,7.1-3.8
	c7.4-4,14.9-7.9,22.3-11.9c0.4-0.2,0.9-0.5,1.3-0.7c0.6-0.3,0.9-0.1,0.9,0.5c0,1.6,0,3.2,0,4.8c0,10.1,0.1,20.2,0.1,30.3
	c0,16.1,0.1,32.2,0.1,48.3c0,10.5,0,21.1,0.1,31.6c0,1.1-0.1,2.2-0.4,3.2c-0.7,2-2,3.5-3.9,4.5c-2,1.1-3.9,2.1-5.9,3.2
	c-8.1,4.3-16.3,8.7-24.4,13c-0.3,0.2-0.6,0.4-1,0.5c-0.3,0.1-0.6,0-0.6-0.3c0-0.6,0-1.3,0-1.9c0-15.3,0-30.6-0.1-45.9
	c0-0.6,0-1.2,0-1.7c0-0.4-0.3-0.5-0.6-0.3c-2.1,1.1-4.2,2.2-6.3,3.4c-1.3,0.8-2.1,2.2-2.3,3.8c-0.1,0.9-0.1,1.7-0.1,2.6
	c0,13.2,0,26.4,0,39.6c0,0.7,0,1.4,0,2.2c-0.2,2.6-1.4,4.6-3.6,6.1c-0.4,0.2-0.7,0.4-1.1,0.6c-9.6,5.1-19.2,10.2-28.9,15.3
	C86.2,262.2,85.6,262.6,84.7,262.7z M118.5,196.5c0-0.4-0.1-0.8-0.1-1.2c0.2-0.1,0.4-0.3,0.3-0.6c0.6-2.2,1.8-3.9,3.7-5
	c2.8-1.5,5.7-3,8.5-4.5c0.1,0,0.3-0.1,0.4-0.1c0.3,0.4,0.3,0.9,0.3,1.4c0,1.4,0,2.9,0.1,4.3c-0.1,0.3-0.1,0.5,0.1,0.7
	c-0.3,1-0.1,2-0.1,3c0,2.4-0.1,4.8-0.1,7.2c0,0.4,0.1,0.8,0.4,1.2c-0.3,0.6-0.2,1.3-0.2,1.9c0,9.4,0,18.9,0,28.3c0,0.5,0,1,0.1,1.5
	c0.1,0.6,0.3,0.8,0.8,0.6c0.4-0.2,0.8-0.4,1.1-0.6c6.1-3.3,12.2-6.5,18.3-9.8c0.6-0.3,1.2-0.5,1.6-1.1c0.3-0.1,0.6-0.2,0.9-0.2
	c1.9-1,3.8-2.1,5.7-3.1c0.6-0.3,1.2-0.6,1.6-1c1-0.9,2-1.9,1.9-3.4c0.3-0.1,0.4-0.3,0.3-0.6c0-3.4,0-6.8,0-10.2c0-2.8,0-5.5,0-8.3
	c0-0.9-0.1-1.7-0.1-2.6c0-6.4,0-12.8,0-19.2c0-0.8,0.1-1.6-0.2-2.3c0-0.2-0.1-0.4-0.1-0.6c0.5-0.7,0.3-1.5,0.3-2.3
	c0-6.6,0-13.3,0-19.9c0-7.4,0-14.7,0-22.1c0-1.1-0.1-2.2-0.1-3.2c0-0.4,0-0.9,0.1-1.3c0.2-7,0.1-19.6-0.2-21.6
	c-0.7,0.1-1.3,0.6-1.9,0.9c-8.7,4.6-17.4,9.3-26.1,13.9c-2.1,1.1-3.4,2.6-4,4.8l0,0c0,0.6-0.1,1.3-0.1,1.9c0,10.9,0,21.8,0,32.7
	c0,0.5,0,1,0,1.5c-0.1,0.3,0,0.6,0.2,0.8c-0.3,0.7-0.2,1.4-0.2,2.1c0,1.7,0,3.4,0,5.2c0,1.7-0.6,3.2-1.7,4.5
	c-0.7,0.9-1.7,1.6-2.7,2.1c-2.3,1.2-4.6,2.4-6.9,3.6c-0.3,0.1-0.5,0.3-0.8,0.4c-0.7,0.3-0.9,0.2-0.9-0.6c0-2.3,0-4.6,0-6.9
	c0-0.9,0.1-1.7-0.1-2.6c0.2-0.2,0.3-0.4,0.1-0.7c0-0.4,0.1-0.9,0.1-1.3c0-12.3,0-24.5,0-36.8c0-0.5,0.1-1-0.2-1.4
	c-0.6-0.2-1,0.2-1.4,0.4c-9,4.8-18.1,9.6-27.1,14.4c-2.3,1.2-3.5,3.1-3.5,5.7c0,9.7,0,19.3,0.1,29c0,0.5,0.3,0.5,0.7,0.5
	c0,0.1,0,0.2,0,0.3c-0.6,0-0.7,0.4-0.7,0.9c0,2,0,4,0,6c-0.1,0.3,0,0.5,0.1,0.8c-0.1,0.3-0.2,0.7-0.2,1c0,3.9,0,7.7,0,11.6
	c0,0.4,0,0.9,0.1,1.3c0,0.8-0.1,1.6-0.1,2.4c0,17.1,0,34.3,0,51.4c0,2.2,0,4.5,0,6.7c0,0.3-0.1,0.7,0.5,0.9
	c4.9-2.6,9.8-5.2,14.8-7.8c0.3-0.2,0.6-0.3,1-0.5c3.8-2,7.5-4,11.3-6c0.6-0.3,1.2-0.6,1.7-0.9c1.8-1.1,2.7-2.7,2.8-4.8
	c0-0.4,0-0.9,0-1.3c0-11.5,0-23.1,0-34.6c0-0.8-0.1-1.6-0.1-2.4c0-0.4,0.1-0.8,0.1-1.2c0-1,0.2-1.9-0.2-2.8
	C118.5,197,118.5,196.8,118.5,196.5z"/>
<path class="st2" d="M345.8,162.1c0-18.4,0-36.8,0-55.2c0-0.5,0-1,0-1.5c0.3-3.5,3.8-5,6.3-3.7c2.4,1.3,4.8,2.6,7.3,3.9
	c6.7,3.6,13.5,7.2,20.2,10.8c0.5,0.3,1,0.6,1.5,0.8c0.6,0.3,0.8,0.7,0.8,1.4c0,2.9,0,5.8,0,8.7c0,0.7-0.1,1.4-0.1,2.2
	c0,12.3,0,24.5,0,36.8c0,0.1,0,0.1,0,0.2c0,2.4-0.2,2,1.9,3.2c1.3,0.8,2.7,1.4,4,2.2c1.8,1.1,3.9-0.1,3.9-2.3c0-1.4,0-2.9,0-4.3
	c0-4.2,0-8.4,0-12.6c0-7.1-0.1-14.1-0.2-21.2c0-0.6,0-1.3,0.1-1.9c0.4-3.1,3.6-4.7,6.1-3.5c0.5,0.2,0.9,0.5,1.3,0.7
	c8.8,4.7,17.7,9.5,26.5,14.2c2.1,1.1,1.9,0.6,1.9,3.1c0,13.9,0,27.9,0,41.8c0,0.3,0,0.6,0,0.9c0.1,0.9-0.3,1.4-1.1,1.9
	c-4,2.1-8,4.3-12,6.4c-0.5,0.3-1,0.6-1.5,0.9c-0.3,0.2-0.2,0.5,0.1,0.7c0.4,0.3,0.9,0.5,1.3,0.8c2.7,1.5,5.4,3,8.2,4.5
	c3.4,1.8,5,4.6,5,8.4c0,15,0.1,30,0.1,45c0,0.3,0,0.6,0,0.9c0.1,2.7-2.9,5.3-6.2,3.8c-0.3-0.1-0.6-0.3-1-0.5
	c-9-4.8-18.1-9.6-27.1-14.4c-0.3-0.1-0.5-0.3-0.8-0.4c-0.6-0.3-0.9-0.7-0.8-1.4c0.1-1.4,0.1-2.9,0.1-4.3c0.1-14.6,0.1-29.3,0.2-43.9
	c0-0.2,0-0.4,0-0.6c0.1-0.8-0.3-1.2-0.9-1.5c-1.7-0.9-3.3-1.8-4.9-2.7c-0.4-0.2-0.8-0.4-1.2-0.5c-1.5-0.3-2.8,0.6-2.9,2.1
	c-0.1,0.6,0,1.3,0,1.9c0,12.2,0,24.4,0,36.6c0,0.6,0,1.3,0,1.9c-0.3,2.9-3.1,4.7-5.8,3.7c-0.5-0.2-0.9-0.4-1.4-0.7
	c-9.1-4.9-18.3-9.8-27.4-14.8c-0.3-0.1-0.5-0.3-0.8-0.4c-0.4-0.2-0.6-0.6-0.6-1c0-0.6,0-1.3,0-1.9c0-18.3,0-36.7,0-55
	C345.7,162.1,345.7,162.1,345.8,162.1z M393.7,197.1c-0.1,0.7-0.1,1.3-0.2,2c-0.1,0.4-0.1,0.9,0.1,1.3c-0.1,0.6-0.1,1.3-0.2,1.9
	c0,1.6,0,3.3-0.1,4.9l0,0c0,2.6,0,5.2,0,7.8l0,0c0,8.8-0.1,17.6-0.1,26.3c0,2-0.1,1.7,1.6,2.6c4.7,2.5,9.4,5,14.1,7.5
	c0.3,0.1,0.5,0.2,0.8,0.2c0.3,0.4,0.8,0.6,1.2,0.8c3.2,1.7,6.5,3.4,9.7,5.2c0.4,0.2,0.8,0.4,1.2,0.6c1.4,0.8,3.4-0.4,3.5-2
	c0-0.5,0-1,0-1.5c0-14.5-0.1-29.1-0.1-43.6c0-0.6,0-1.2,0-1.7c-0.3-2.3-1.2-4.3-3.4-5.4c-0.1-0.3-0.4-0.4-0.7-0.4
	c-0.6-0.3-1.1-0.7-1.7-1c-3.2-1.8-6.4-3.5-9.6-5.3c-0.4-0.2-0.9-0.5-1.3-0.7c-0.2-0.1-0.2-0.6,0-0.7c0.5-0.3,1-0.6,1.5-0.8
	c4.5-2.4,9-4.8,13.5-7.2c1.9-1,1.8-0.6,1.7-3.2c0-0.1-0.1-0.3-0.1-0.4c0-0.3,0.1-0.5,0.1-0.8c0-1.9,0-3.9,0-5.8
	c0-0.6-0.3-0.9-0.7-1.2c0.4,0,0.7-0.1,0.7-0.5c0-10.5,0-20.9,0-31.4c0-1-0.4-1.5-1.2-2c-8.8-4.7-17.7-9.4-26.5-14.2
	c-0.4-0.2-0.9-0.5-1.4-0.6c-1.5-0.4-2.8,0.5-3,2c-0.1,0.7-0.1,1.4-0.1,2.2c0,8.5,0,17,0.1,25.5c0,2.8,0,5.6,0.1,8.4
	c-0.1,0.3,0,0.5,0.1,0.7c-0.3,1.1-0.2,2.1-0.2,3.2c0,3.4-3.5,5.6-6.6,3.9c-2-1.1-3.9-2.2-5.9-3.2c-0.8-0.4-1.1-1-1-1.9
	c0.1-2.4,0.1-4.7,0-7.1c0-1,0.2-2-0.2-3c0.1-0.2,0.2-0.5,0.1-0.8c0-0.4,0.1-0.7,0.1-1.1c0-12,0-23.9,0-35.9c0-0.4,0-0.7,0-1.1
	c0-0.5-0.2-0.8-0.6-1c-0.4-0.2-0.8-0.4-1.1-0.6c-8.6-4.6-17.3-9.3-25.9-13.9c-0.4-0.2-0.9-0.5-1.4-0.7c-1.4-0.5-2.8,0.3-3.1,1.8
	c-0.1,0.4-0.1,0.9-0.1,1.3c-0.1,5.1-0.1,10.2-0.1,15.3c0,0.6-0.1,1.3,0.3,1.9c-0.1,0.4-0.2,0.7-0.3,1.1c0,3.4,0,6.8-0.1,10.2v0
	c0,8,0,15.9,0,23.9l0-0.1c0,4.4,0,8.8,0,13.2c0,0.3,0.1,0.6,0.1,0.9c-0.2,0.7-0.1,1.4-0.1,2.1c0,6.6,0,13.1,0,19.7c0,2.5,0,5,0,7.6
	c-0.1,0.3,0,0.5,0.2,0.7c-0.1,0.3-0.2,0.5-0.2,0.8c0,3.9,0,7.9,0,11.8c0,0.2,0.1,0.4,0.1,0.6c0,0.2-0.1,0.4-0.1,0.6
	c-0.1,1.8-0.1,1.8,1.5,2.7c2.6,1.4,5.2,2.8,7.8,4.2c0.3,0.1,0.7,0.2,1,0.3c0.3,0.4,0.6,0.6,1,0.8c5.5,3,11,5.9,16.5,8.9
	c0.4,0.2,0.8,0.4,1.2,0.6c1.1,0.4,2.1,0,2.9-0.9c0.2-0.3,0.3-0.6,0.5-1l0,0c0-0.2,0-0.4,0-0.6c0-9,0-18.1,0-27.1
	c0-0.5,0.1-1-0.2-1.5c0.1-0.3,0.2-0.6,0.1-0.9c0-3.3,0-6.7,0-10c0-0.3-0.1-0.6-0.1-0.8c0.1-0.3,0.2-0.5,0.3-0.8
	c0.5-1.3,1.5-2.1,2.6-2.8c0.5,0,0.9-0.1,1.3-0.3c1,0.2,2,0.4,2.9,0.9c1.9,1.1,3.9,2.2,5.8,3.2c0.4,0.2,0.8,0.4,1,0.8
	c0,1-0.2,2,0.1,2.9c0,0.3,0,0.7-0.1,1C393.6,196.6,393.7,196.8,393.7,197.1z"/>
<path class="st1" d="M306.2,156.9c0.6-0.1,1,0.2,1.4,0.5c9.1,4.8,18.2,9.6,27.3,14.5c0.3,0.1,0.5,0.3,0.8,0.4c0.4,0.2,0.6,0.6,0.6,1
	c0,0.5,0,1,0,1.5c0,8.9,0,17.7,0,26.6c0,1.6,0,3.2,0.1,4.8c0,0.6,0,1.2,0,1.7c0,2.4-2.8,4.9-6,3.6c-0.5-0.2-0.9-0.4-1.3-0.7
	c-14-7.5-27.9-15-41.9-22.6c-8.1-4.3-16.1-8.7-24.2-13c-0.2-0.1-0.4-0.2-0.6-0.3c-1.2-0.4-1.5-1.2-1.5-2.5c0-10.7,0-21.4,0-32
	c0-15.7,0-31.5-0.1-47.2c0-10.5-0.1-21.1-0.1-31.6c0-0.8,0-1.6,0.1-2.4c0.4-2.4,2.8-4.3,5.9-3.3c0.5,0.2,0.9,0.4,1.4,0.7
	c22.2,11.8,44.4,23.6,66.6,35.4c0.3,0.2,0.6,0.3,1,0.5c0.4,0.2,0.6,0.6,0.6,1c0,0.4,0,0.7,0,1.1c0,12.8,0,25.7,0,38.5
	c0,0.4,0,0.9-0.1,1.2c-0.5,0.2-0.8,0-1.1-0.1c-9.3-5-18.5-10-27.8-15c-0.3-0.2-0.6-0.3-0.9-0.5c-0.3-0.2-0.5-0.5-0.5-0.9
	c0-0.7,0-1.4,0-2.2c0-3.9,0.1-7.8,0.1-11.7c0-0.5,0-1,0-1.5c0-0.6-0.3-0.9-0.8-1.2c-0.3-0.1-0.5-0.3-0.8-0.4c-3-1.6-6-3.1-9-4.6
	c-0.4-0.2-0.9-0.5-1.4-0.6c-1.5-0.4-2.8,0.5-3,2c-0.1,0.5-0.1,1-0.1,1.5c0,20.8,0,41.6,0.1,62.3c0,0.7,0,1.4,0,2.2
	c0,1.2,0.6,2.1,1.5,2.7c0.2,0.2,0.5,0.3,0.7,0.5c3.8,2,7.7,4,11.5,6c0.1,0.1,0.3,0.1,0.4,0.2c0.4,0.1,0.7-0.1,0.7-0.5
	c0-2.5,0-4.9,0-7.4c0-2.4,0-4.8,0-7.1C306,157.7,305.8,157.2,306.2,156.9z M280.8,182.4c0.9,1.1,2.2,1.5,3.4,2.1
	c0.2,0.1,0.4,0.2,0.6,0.3c1.3,0.9,2.8,1.7,4.3,2.4c0.3,0.4,0.8,0.4,1.2,0.5c0.1,0.1,0.2,0.2,0.3,0.3c3.5,1.9,6.9,3.8,10.4,5.7
	c9.7,5.2,19.4,10.4,29,15.7c2.2,1.7,4.8,0.4,4.6-2.8c-0.2-3.4-0.1-6.9-0.1-10.4c0-0.4-0.1-0.9-0.1-1.3c0-0.3,0.1-0.6,0.1-0.9
	c0-6.3,0-12.5,0-18.8c0-0.2,0-0.4,0-0.6c0-0.5-0.2-0.8-0.6-1c-0.3-0.2-0.6-0.3-0.9-0.5c-7.7-4.1-15.4-8.2-23.1-12.2
	c-0.6-0.3-1.1-0.7-1.8-0.8c-0.4,0.3-0.2,0.6-0.2,1c0,1.1,0,2.3-0.1,3.4c0.1,0.2,0.1,0.3,0.2,0.5c0,0.1,0.1,0.1,0.1,0.2
	c0,3.7,0,7.3,0,11c0,0.1,0,0.1-0.1,0.2c0,0.1-0.1,0.1-0.2,0.2c-0.7,0-1.3-0.5-1.9-0.8c-4.1-2.1-8.1-4.3-12.2-6.4
	c-0.6-0.3-1.2-0.8-2-0.8c-0.2-0.2-0.3-0.3-0.5-0.5c-1.6-1.6-2.1-3.5-2.1-5.7c0.1-2.9,0-5.9,0-8.8c0-0.7,0.1-1.4-0.2-2.1
	c0.3-0.2,0.4-0.4,0.1-0.7c0-0.1,0.1-0.3,0.1-0.4c0-7.6,0-15.1,0-22.7c0-0.4,0-0.9-0.2-1.3c0.2-0.2,0.5-0.4,0.2-0.7
	c0-0.4,0.1-0.7,0.1-1.1c0-8.2,0-16.5-0.1-24.7c0-1.5,0.2-3,0.8-4.4l-0.1-0.1c0.4-0.2,0.9-0.4,1.1-0.9c0.5-0.2,1-0.3,1.4-0.5
	c0.5,0,1,0,1.5-0.3c0.2,0.1,0.3,0.1,0.5,0.2c1.5,0.7,3,1.4,4.5,2.2c2.8,1.4,5.5,2.8,8.3,4.2c0.7,0.3,1,0.8,0.9,1.5
	c-0.1,2.7-0.2,5.5-0.2,8.2c0,0.2,0,0.4,0,0.6c0,1.6-0.1,3.3-0.1,4.9l0-0.1c0,0.4,0,0.7,0,1.1c-0.1,0.3-0.1,0.6,0.3,0.8
	c0,0.3,0.2,0.5,0.5,0.6c0.8,0.4,1.7,0.9,2.5,1.3c0.3,0.1,0.6,0.2,0.8,0.3c0.9,0.9,2.1,1.2,3.1,1.9c0.4,0.2,0.9,0.4,1.3,0.6
	c0.2,0.2,0.5,0.3,0.7,0.5c5.2,2.8,10.5,5.7,15.7,8.5c0.3,0.2,0.6,0.4,1,0.5c0.3,0.1,0.6,0.1,0.6-0.3c0-0.6,0-1.1,0-1.7
	c0-11,0-22,0-33c0-0.4,0-0.7,0-1.1c0.1-0.8-0.3-1.3-1-1.7c-2.7-1.4-5.5-2.9-8.2-4.3c-0.2-0.1-0.4-0.1-0.6-0.1
	c-0.1-0.3-0.4-0.4-0.7-0.5c-3-1.8-6.1-3.4-9.3-5c-0.1-0.4-0.4-0.5-0.7-0.4c-15.6-8.3-31.3-16.6-46.9-25c-0.3-0.2-0.6-0.4-1-0.5
	c-1.6-0.6-3.1,0.3-3.3,2c-0.1,0.6,0,1.2,0,1.7c0,8.4,0,16.9,0,25.3c0,4.3,0,8.5,0,12.8c0.1,0.3,0.1,0.5,0.2,0.8
	c-0.3,0.5-0.2,1.1-0.2,1.7c0,9.6,0,19.1,0.1,28.7c0,0.3,0.1,0.6,0.1,0.8c0,0.5-0.1,1-0.1,1.5c0,7.9,0,15.7,0,23.6
	c0,0.3,0.1,0.6,0.1,0.9c0,0.2-0.1,0.4-0.1,0.6c0,4.5,0,9,0,13.6c0,0.9,0.4,1.4,1.1,1.8c5.4,2.9,10.8,5.7,16.1,8.6
	C280.2,182.3,280.5,182.3,280.8,182.4z"/>
<path class="st3" d="M174.9,214.7c-0.3-0.5-0.1-1.1-0.1-1.7c0-17,0-34,0.1-51.1c0-12.2,0.1-24.4,0.1-36.6c0-8.9,0.1-17.9,0.1-26.8
	c0-3.5,1.5-5.9,4.5-7.5c0.1-0.1,0.3-0.1,0.4-0.2c3.9-2.1,7.7-4.2,11.6-6.3c18.8-10.1,37.6-20.2,56.4-30.3c0.8-0.4,1.7-0.9,2.5-1.3
	c0.3-0.1,0.6,0,0.6,0.3c0,0.1,0,0.3,0,0.4c0,0.4,0,0.9,0,1.3c0,18.2,0.1,36.5,0.1,54.7c0,19.3,0,38.5,0.1,57.8c0,0.6,0,1.3,0,1.9
	c-0.1,3.2-1.5,5.7-4.4,7.2c-1.5,0.8-3,1.6-4.6,2.5c-6.6,3.5-13.2,7-19.9,10.5c-0.1,0.1-0.3,0.1-0.4,0.2c-1.1,0.6-1.3,0.5-1.3-0.7
	c0-0.5,0-1,0-1.5c0-14.9,0-29.9,0-44.8c0-2.5,0.1-2.7-2.4-1.3c-3,1.6-5.9,3.2-8.9,4.9c-0.1,0-0.1,0.1-0.2,0.1
	c-2.5,1.3-3.7,3.3-3.6,6.1c0,3.4,0,6.8,0,10.2c0,0.1,0,0.3,0,0.4c0,9.7,0.1,19.5,0.1,29.2c0,0.6,0,1.3-0.1,1.9
	c-0.3,2.8-1.6,4.9-4.1,6.2c-0.6,0.3-1.1,0.6-1.7,0.9c-7.9,4.2-15.8,8.4-23.6,12.7C175.8,214.5,175.4,214.9,174.9,214.7z
	 M247.5,131.2c0.6,0.1,1.3,0.4,1.8-0.4c0-9.7,0-19.5,0-29.2c0-0.4-0.1-0.8-0.2-1.3c0-0.3,0.1-0.5,0.1-0.8c0-4.9,0-9.8,0-14.7
	c0-9,0-18,0-27c0-0.6,0.2-1.2-0.3-1.9c-0.8,0.4-1.4,0.7-2,1c-5.3,2.8-10.5,5.7-15.8,8.5c-11.1,6-22.2,12-33.3,17.9
	c-0.2,0.1-0.5,0.1-0.6,0.4c-3,1.4-5.9,3.1-8.8,4.6c-0.2,0.1-0.3,0.3-0.5,0.4c-0.4-0.1-0.6,0.1-0.7,0.4c-2.8,1.1-5.3,2.6-7.8,4.1
	c-1.6,1-2.4,2.6-2.5,4.6c0,0.4,0,0.7,0,1.1c0,7,0,14,0,21c0,7.8-0.1,15.6-0.1,23.3c0,4.9,0,9.8,0,14.7c-0.1,0.3-0.3,0.7,0.2,0.9
	c-0.1,0.8-0.2,1.6-0.3,2.4c0,0.5-0.1,1-0.1,1.5c0,4.8,0,9.6,0,14.4c0,0.7,0.1,1.4,0.1,2.1c0,5,0,10,0,15c0,0.4,0,0.8,0,1.3
	c0,4.6,0,9.2,0,13.8c0,0.7,0.1,1.4,0.1,2.1l0.2,0c0,0,0.2,0,0.2,0c6.2-3.3,12.3-6.6,18.5-9.9c1.7-0.9,3.4-1.8,5.1-2.8
	c2.1-1.2,3.1-2.9,3.1-5.3c0-0.3,0-0.6,0-0.9c0-8.7,0-17.5,0-26.2c0-0.6,0-1.3-0.1-1.9c0-0.5,0-1,0-1.5c0-3.6,0-7.2,0-10.8
	c0-3.3,1.4-5.8,4.3-7.4c0.6-0.3,1.3-0.6,1.8-1.2c0.3-0.1,0.6-0.2,0.8-0.3c3.2-1.7,6.5-3.5,9.7-5.2c2.4-1.3,2.3-1.4,2.3,1.3
	c0,3.7,0,7.5,0,11.2c0,0.2,0.1,0.5,0.1,0.7c-0.3,0.8-0.2,1.6-0.2,2.4c0,5.3,0,10.7,0,16c0,1.2,0,2.4,0.1,3.7
	c-0.3,0.6,0.1,1.2,0.1,1.8c-0.3,3.1-0.1,6.1-0.1,9.2c0,0.4-0.4,0.9,0.1,1.3c0,0.1-0.1,0.3-0.1,0.4c-0.2,0.7,0.2,1,0.7,0.7
	c1.1-0.6,2.2-1.2,3.4-1.8c0.4-0.2,0.7-0.4,1.1-0.5c1-0.7,2.2-1,3-1.8c0.4,0,0.7-0.1,1-0.4c4.6-2.4,9.1-4.9,13.7-7.2
	c2.5-1.3,3.7-3.3,3.6-6.1c-0.1-2.8,0-5.6,0-8.4c0-1,0.1-2-0.2-3c0-0.3,0.1-0.5,0.1-0.8c0-7.8,0-15.7,0-23.5c0-0.3,0-0.6,0-0.9
	c0-0.5-0.3-0.7-0.8-0.8c-0.8-0.1-1.6-0.2-2.4-0.3C246.5,131.2,247,131.2,247.5,131.2z"/>
<path class="st2" d="M177.3,228.7c0.3,0.8,0.2,1.6,0.2,2.4c0,26.4-0.1,52.8-0.1,79.2c0,8.9-0.1,17.7,0,26.6c0,1.4-0.4,2.2-1.7,2.9
	c-2.8,1.5-5.5,3.2-8.2,4.9c-0.8,0.5-1.5,0.6-2.4,0.1c-3.5-1.9-7-3.7-10.5-5.6c-10.8-5.8-21.6-11.6-32.4-17.4c-1.9-1-2-1-2,1.1
	c0,17.2,0,34.3,0,51.5c0,0.7,0,1.4,0,2.2c-0.3,2.8-3,4.5-5.7,3.6c-0.5-0.2-0.9-0.4-1.4-0.6c-9.1-4.9-18.1-9.8-27.2-14.7
	c-0.3-0.1-0.5-0.3-0.8-0.4c-0.4-0.2-0.6-0.6-0.6-1c0-0.4,0-0.9,0-1.3c0-26,0-51.9,0-77.9c0-1.1-0.1-2.2,0.2-3.2
	c0.7-2.3,2-4.1,4.1-5.4c1-0.6,2-1.1,3-1.7c27.7-14.8,55.5-29.6,83.2-44.3C175.8,229.3,176.4,228.7,177.3,228.7z M86.6,332
	c0,0.2,0,0.3,0,0.5c0,0.4-0.1,0.7-0.1,1.1c0,9.3,0,18.7,0,28c0,0.4,0.1,0.8,0.2,1.3l0,0.2l0.2,0.1c0.2,0.1,0.3,0.3,0.5,0.4
	c8.9,4.8,17.8,9.7,26.8,14.5c0.4,0.2,0.8,0.4,1.2,0.5c1.5,0.4,2.9-0.5,3.1-2.1c0.1-0.5,0-1,0-1.5c0-10.2,0-20.4,0-30.7
	c0-0.7-0.1-1.4-0.1-2.1c0-0.2,0.1-0.5,0.1-0.7c0-2.6,0-5.2,0-7.8c0-2.6,0-5.2,0-7.8c0-2.6-0.1-5.1,0.1-7.8c0.9,0.1,1.6,0.6,2.2,1
	c14,7.5,28,15,42.1,22.5c1.1,0.6,2.2,1.4,3.5,1.7c1-0.6,2-1.1,3-1.7c0.3-0.2,0.6-0.4,0.9-0.6c1.3-0.8,2.6-1.6,3.9-2.4
	c0.5-0.3,1-0.6,1.2-1.1c0.1-1.4,0.1-2.8,0-4.2c0-4.2,0-8.5,0-12.7c0-2.7-0.1-5.5-0.1-8.2c0.2-0.3,0.2-0.6,0.1-0.9
	c0-7.3,0-14.6,0.1-21.9c0,0,0,0,0,0c0-0.6-0.1-1.3-0.1-1.9c0-0.2,0-0.4,0.1-0.6c0-0.7,0.1-1.4,0.1-2.2c0-17.1,0-34.1,0.1-51.2
	c0-0.6,0.2-1.1-0.2-1.7c-0.6-0.1-1,0.2-1.4,0.5c-4.8,2.6-9.7,5.1-14.5,7.7c-0.3,0.2-0.6,0.4-0.9,0.6c-0.2,0.1-0.4,0.3-0.5,0.4
	c-0.8,0-1.3,0.5-2,0.8c-3.6,1.9-7.2,3.8-10.8,5.7c-3.9,2.1-7.8,4.2-11.7,6.3c-0.3,0-0.4,0.2-0.6,0.4c-0.5,0.2-0.9,0.4-1.4,0.6
	c-9.7,5.2-19.5,10.4-29.2,15.6c-0.5,0.3-1,0.6-1.5,0.9c-0.3,0-0.6,0.1-0.8,0.5c-0.2,0.1-0.4,0.1-0.6,0.2c-3.2,1.7-6.4,3.4-9.5,5.1
	c-2.5,1.4-3.8,3.5-3.8,6.3c0,8.8,0,17.5,0,26.3c0,0.4,0.1,0.8,0.1,1.2c0,0.4-0.1,0.7-0.1,1.1c0,3.9,0,7.7,0,11.6
	c-0.1,0.3-0.1,0.5,0.1,0.7c-0.3,0.7-0.2,1.4-0.2,2.1c0,1.6,0,3.1,0.1,4.7C86.5,331.5,86.5,331.7,86.6,332z"/>
<path class="st4" d="M299.4,272.8c0-0.1,0.1-0.3,0-0.4c-0.2-0.2-0.5-0.3-0.7-0.4c-6.4-2.6-12.8-5.3-19.2-7.9
	c-0.1-0.3-0.4-0.5-0.2-0.8c6.8,2.8,13.6,5.7,20.7,8.6c-0.3-3.1-0.9-6-1.3-8.8c-0.3-3-0.4-6-0.5-9.1c-0.1-2.9,0.1-5.9,0.4-8.9
	c0.3-2.9,0.7-5.8,1.1-8.7c-1-0.2-1.6,0.3-2.3,0.6c-5.7,2.3-11.3,4.7-16.9,7c-0.3,0.1-0.7,0.2-1,0.3c-0.3-0.1-0.4-0.3-0.3-0.6
	c0.4-0.1,0.8-0.2,1.2-0.4c6.2-2.5,12.3-5.1,18.5-7.6c0.2-0.1,0.4-0.2,0.7-0.3c-0.3-0.8-1.3-0.9-1.6-1.5c0.2,0,0.4-0.1,0.6-0.1
	c0.7,0.4,1.4,1,2.1,1c0.8,0,1.6-0.5,2.4-0.8c4.7-1.9,9.4-3.9,14.1-5.8c0,0.3-0.1,0.5-0.1,0.8c-5.1,2.1-10.1,4.2-15.2,6.2
	c-0.7,0.3-1.1,0.8-1.2,1.6c-0.3,2.3-0.8,4.7-1.1,7c-0.5,4.2-0.6,8.5-0.5,12.7c0.1,4.9,0.7,9.8,1.7,14.6c0.2,0.8,0.5,1.3,1.2,1.6
	c4.3,1.7,8.5,3.5,12.8,5.2c0.8,0.3,1.5,0.8,2.4,0.8c0,0.3-0.1,0.5-0.1,0.8c-4.9-2-9.7-4-14.6-6c-0.4-0.2-0.8-0.3-1.2-0.5
	c-0.5-0.3-1,0-1.4,0.1C299.7,273,299.6,272.9,299.4,272.8z"/>
<path class="st5" d="M194.4,380.9c1.1,2,1.4,4.2,2,6.3c0.4,1.4,0.7,2.9,1,4.4c0.1,0.4,0.2,0.7,0.5,0.9c0.6-0.4,0.7-1.1,0.9-1.7
	c3.7-8.8,7.3-17.7,11-26.5c0.6-1.3,0.7-2.5,0.2-3.9c-1-3.2-2.1-6.4-3.3-9.6c-0.1-0.3-0.2-0.7-0.3-1c0.5,0,0.7,0.3,1,0.6
	c1.2,3.4,2.5,6.9,3.5,10.4c0.2-0.1,0.4-0.2,0.4-0.3c0.9-2.2,1.8-4.4,2.7-6.6c0.3,0,0.6,0.1,0.7,0.4c-1.1,2.4-2.2,4.8-3,7.3
	c-0.2,0-0.4,0-0.6,0.1c-0.4,0.4-0.4,0.5,0,0.8c0,0.1,0.1,0.1,0.2,0.2c-1.1,2-1.8,4.2-2.7,6.3c-3.2,7.7-6.4,15.4-9.6,23.1
	c-0.1,0.3-0.4,0.6-0.3,1c0,0.1,0.1,0.1,0.1,0.2c0.1,0,0.2,0,0.2,0c0.9-0.5,1.7-1,2.6-1.6c0,0.2,0.1,0.3,0.1,0.5
	c-1.2,0.8-2.4,1.7-3.6,2.5c0.1-0.8,0-1.5-0.9-1.7c-0.6-1-0.5-2.2-0.8-3.3c-0.6-2.2-0.9-4.6-2-6.7
	C194.3,382.4,194.4,381.6,194.4,380.9z"/>
<path class="st5" d="M290.2,320.8c-1,1.8-1.9,3.7-2.9,5.5c-0.5,0.8-0.4,1.6-0.1,2.4c2,4.8,4,9.6,5.9,14.4c2.5,6.1,5.1,12.2,7.6,18.3
	c0,0-0.1,0.1-0.1,0.1c-0.4,0.1-0.7,0.4-0.8,0.8c-0.3-0.2-0.6-0.3-0.9-0.5c0.1-0.3,0.5-0.6-0.1-0.7c0.4-0.1,0.6-0.4,0.5-0.8
	c-0.1-0.6-0.3-1.1-0.5-1.6c-3.6-8.6-7.1-17.2-10.7-25.8c-0.5-1.3-1.1-2.6-1.6-4c-0.2-0.4-0.4-0.8-0.1-1.2c-0.2-0.7-0.3-0.8-0.8-0.5
	c-1.1,0-2.1-0.6-3.1-0.9c0-0.2,0.1-0.3,0.1-0.5c0.9-0.1,1.7,0.7,2.8,0.4c-1.4-3.4-2.8-6.9-4.2-10.3c0.6,0,0.9,0.3,1,0.8
	c0.7,1.6,1.3,3.2,2,4.8c0.6,1.5,1.2,3.1,2.1,4.9c1.1-2.2,2.1-4.2,3.1-6.1C289.8,320.4,290.1,320.4,290.2,320.8z"/>
<path class="st5" d="M224.3,328.9c0.8-0.9,0.8-1.9,0.2-3c-2-4-4.2-7.8-6.8-11.5c-0.5-0.6-0.9-1.3-1.3-2c0.1-0.1,0.2-0.2,0.4-0.4
	c2.6,3.1,4.6,6.6,6.6,10.1c0.5,0.9,1,1.9,1.5,2.9c0.2,0.3,0.2,0.7,0.7,0.8c0.5-0.3,0.5-0.8,0.7-1.2c3.4-8.1,6.7-16.2,10-24.3
	c0.3-0.7,0.6-1.3,0.6-2.1c0.3,0.3,0.3,0.7,0.3,1.1c0.1,0.8-0.4,1.4-0.6,2c-3.2,7.8-6.4,15.5-9.6,23.3c-0.2,0.6-0.7,1.1-0.6,1.9
	c1.4-0.1,2.7-0.8,4-1.2c1.4-0.3,2.8-0.7,4.1-1.1c0.2,0.1,0.3,0.3,0.5,0.4c-0.1,0.1-0.2,0.2-0.3,0.3c-1,0-1.9,0.4-2.9,0.7
	c-0.2,0-0.3,0-0.4,0.2c-1.8,0.3-3.4,1-5.1,1.5c-0.9,0.3-1,1.1-1.3,1.9C224.8,329.2,224.5,329.1,224.3,328.9z"/>
<path class="st4" d="M222.5,226.9c-2.6,2.6-5.5,4.8-8.5,7c-0.6,0.5-1.3,0.9-2,1.4c0.7,0.3,1.3,0.6,1.9,0.9
	c5.4,2.2,10.9,4.5,16.3,6.7c0.7,0.3,1.3,0.5,2,0.7c0,0.3,0,0.6,0,0.9c-3.4-1.4-6.8-2.9-10.2-4.3c-2.8-1.2-5.7-2.4-8.5-3.5
	c-0.3-0.1-0.7-0.2-1-0.3c-0.2-0.2-0.4-0.4-0.7-0.3c-0.3,0.2-0.1,0.5,0,0.7c0.1,0.8,0.4,1.7,0.3,2.5c-0.2,0-0.3,0-0.5,0
	c-0.2-0.8-0.4-1.7-0.5-2.5c-0.1-0.9-0.5-1.4-1.4-1.7c-1.4-0.5-2.8-1.1-4.2-1.7c-3.7-1.5-7.4-3.1-11.1-4.7c-0.2-0.2-0.2-0.4-0.1-0.7
	c5,2.1,10.1,4.1,15.1,6.2c0.3,0.1,0.7,0.2,1,0.4c0.5,0.3,1,0.2,1.4-0.1c1.2-0.9,2.5-1.7,3.7-2.6c2.2-1.7,4.3-3.4,6.4-5.1
	C222.1,226.8,222.3,226.9,222.5,226.9z"/>
<path class="st6" d="M194.3,383.1c1.1,2.1,1.4,4.5,2,6.7c0.3,1.1,0.3,2.3,0.8,3.3c0,0.7-0.1,1.4-0.1,2.1c-0.5,1.2-1.1,2.5-1.6,3.7
	c-0.3,0.7-0.6,1.5-1.1,2.1C194.3,395,194.3,389.1,194.3,383.1z"/>
<path class="st6" d="M317.5,383.3c0,2.4,0.1,4.7,0.1,7.1c0,3.7,0,7.3,0,11c-0.6-0.6-0.8-1.5-1.2-2.3c-0.6-1.3-1-2.7-1.7-3.9
	c0.1-0.6,0.2-1.1,0.2-1.7c0.1-1.3,0.7-2.6,0.7-3.9c0.1-0.3,0.3-0.6,0.4-1C316.4,386.9,316.7,385,317.5,383.3z"/>
<path class="st6" d="M213.9,354.1c-0.9,2.2-1.8,4.4-2.7,6.6c0,0.1-0.2,0.2-0.4,0.3c-1-3.5-2.3-7-3.5-10.4
	C209.6,351.5,211.8,352.8,213.9,354.1z"/>
<path class="st6" d="M289.5,320.4c-1,2-2,3.9-3.1,6.1c-0.9-1.7-1.5-3.3-2.1-4.9c-0.7-1.6-1.3-3.2-2-4.8c0.3-0.1,0.6-0.1,0.8,0
	C285.3,318.1,287.4,319.2,289.5,320.4z"/>
<path class="st5" d="M238,210c2.2,5.2,4.3,10.3,6.5,15.5c0.1,0.3,0.3,0.6,0.5,1c-0.2,0.2-0.4,0.4-0.7,0.4c-2.3-5.6-4.6-11.1-7-16.9
	c-2,2.6-3.6,5.3-5.8,7.5c0-0.2,0-0.4-0.1-0.6c1.3-1.9,2.7-3.7,4-5.6c0.3-0.4,0.5-0.9,0.8-1.2c0.5-0.6,0.5-1.3,0.2-2
	c-1-2.4-2-4.8-3-7.2c0.1-0.2,0.3-0.4,0.6-0.4c1.2,2.9,2.4,5.7,3.6,8.6c-0.1,0.1-0.3,0.2-0.2,0.2c0,0.3,0.3,0.3,0.6,0.3
	C238,209.7,238,209.8,238,210z"/>
<path class="st7" d="M298.9,361.1c0.6,0.2,0.2,0.5,0.1,0.7c-3.6-1.9-7.3-3.7-11.1-5.2c-6-2.3-12.2-3.9-18.5-4.9
	c-0.9-0.2-1.9-0.2-2.8-0.3c-0.5-0.1-1.1-0.2-1.5-0.7c1.7-0.3,3.4,0.2,5.1,0.5c9.8,1.6,19.2,4.7,27.9,9.5
	C298.4,360.8,298.7,360.9,298.9,361.1z"/>
<path class="st6" d="M211.6,361.9c0.8-2.5,1.9-4.9,3-7.3c2,0.7,3.8,1.8,5.6,3C217.4,359,214.5,360.4,211.6,361.9z"/>
<path class="st5" d="M300.8,361.4c0.6-0.3,0.5-0.8,0.6-1.3c2.6-9.4,6.8-18.1,12.4-26.2c0.1-0.2,0.2-0.4,0.3-0.5
	c0.3,0,0.5,0.2,0.5,0.5c-5.8,8.3-10,17.4-12.8,27.1c-0.2,0.7-0.3,1.4-0.4,2.1C301,362.7,301.2,362,300.8,361.4L300.8,361.4z"/>
<path class="st5" d="M266.9,226.4c1.7-4.2,3.5-8.3,5.2-12.5c0.6-1.4,1.1-2.8,1.7-4.2c-0.1-0.2-0.2-0.4-0.3-0.6
	c0.6-0.2,0.9-0.7,1.1-1.2c1-2.6,2.1-5.1,3.1-7.7c0.3,0,0.5,0.1,0.7,0.4c-1.1,2.6-2.1,5.1-3.2,7.7c-0.3,0.7-0.3,1.2,0.1,1.8
	c0.3,0.4,0.5,0.8,0.8,1.3c-0.1,0.1-0.2,0.3-0.3,0.4c-0.4-0.5-0.8-1-1.2-1.5c-0.6,0.5-0.7,1.3-1,1.9c-1.9,4.4-3.7,8.9-5.5,13.3
	c-0.2,0.4-0.4,0.8-0.6,1.1C267.2,226.5,267,226.4,266.9,226.4z"/>
<path class="st4" d="M198.9,423c7.2-4.4,14.8-7.8,22.8-10.4c0.2-0.1,0.4,0,0.6-0.1c0,0.2,0,0.3,0,0.5c-2.7,1-5.5,2-8.2,3.1
	c-4.8,1.9-9.4,4.2-13.8,6.9c-0.2,0.1-0.3,0.3-0.5,0.4C199.5,423.4,199.1,423.3,198.9,423z"/>
<path class="st4" d="M232.2,264.1c-5.1,2.1-10.2,4.2-15.3,6.3c-1.6,0.7-3.2,1.3-4.8,1.9c-0.5,0.1-0.9,0.2-1.4,0.4c0-0.1,0-0.3,0-0.4
	c0.5-0.5,0.4-1.2,0.4-1.8c0.1,0,0.1-0.1,0.2-0.1c0.1,0.1,0.3,0.2,0.4,0.3c0,0.1,0,0.3,0,0.4c0,0.2,0,0.5,0.1,0.6
	c0.2,0.2,0.5,0,0.6-0.2c2.4-0.7,4.7-1.8,7-2.8c4.3-1.7,8.6-3.6,12.9-5.4C232.2,263.6,232.2,263.8,232.2,264.1z"/>
<path class="st4" d="M290.4,412.9c1.7,0.2,3.3,1,4.9,1.6c5.7,2.2,11.2,4.8,16.5,7.9c0.6,0.3,1.1,0.7,1.7,0.8
	c-0.3,0.3-0.7,0.3-1.1,0.3c-6.5-3.9-13.3-7.1-20.4-9.6c-0.5-0.2-1.1-0.4-1.6-0.6C290.4,413.2,290.4,413,290.4,412.9z"/>
<path class="st6" d="M239.7,294c2,0.7,3.8,1.8,5.6,2.9c-0.8,0.2-1.7,0.4-2.5,0.5c-1.3,0.2-2.7,0.2-4,0.8c-0.2,0-0.5,0-0.7,0
	C238.3,296.7,239.1,295.3,239.7,294z"/>
<path class="st7" d="M194.4,278.8c0.8,0,1.5-0.4,2.2-0.7c4.2-1.7,8.3-3.5,12.5-5.2c0.3-0.1,0.7-0.2,1-0.3c0,0.2,0.1,0.3,0.1,0.5
	c-4.6,1.9-9.3,3.9-13.9,5.8c-0.7,0.3-1.5,0.4-2,1.1C194.4,279.6,194.4,279.2,194.4,278.8z"/>
<path class="st4" d="M270.5,408.1c3.1,0.6,6.3,1.2,9.4,1.8c1.5,0.3,2.9,0.7,4.3,1.1c-0.2,0.1-0.3,0.2-0.5,0.4
	c-0.1,0-0.2,0.1-0.3,0.1c-0.4-0.1-0.8-0.1-1.2-0.2c-0.1-0.2-0.3-0.3-0.6-0.2c-0.4-0.1-0.8-0.1-1.2-0.2c-0.3-0.3-0.6-0.3-1-0.3
	c-0.4-0.1-0.7-0.1-1.1-0.2c-0.1-0.2-0.4-0.3-0.6-0.2c-0.5-0.1-1-0.1-1.6-0.2c-0.3-0.4-0.7-0.3-1-0.3c-0.5-0.1-1-0.3-1.5-0.2
	c-0.3-0.4-0.7-0.3-1.1-0.3c-0.5-0.1-1.1-0.1-1.6-0.2c-0.4-0.4-0.9-0.2-1.3-0.4C269.7,408.2,270.2,408.2,270.5,408.1z"/>
<path class="st7" d="M299.4,272.8c0.1,0.1,0.3,0.2,0.4,0.4c-1.6,1.2-3.3,2.4-4.8,3.6c-1.2,0.9-2.3,1.9-3.4,2.9c-0.3,0-0.7,0-1-0.3
	c0.6-0.4,1.1-0.8,1.7-1.3C294.6,276.2,296.9,274.4,299.4,272.8z"/>
<path class="st4" d="M211.6,361.9c2.9-1.5,5.8-2.9,8.6-4.4c0.3,0.1,0.6,0.1,0.7,0.5c-3.4,1.4-6.5,3.2-9.7,4.9
	c-0.1-0.1-0.1-0.1-0.2-0.2c0-0.3,0-0.5,0-0.8C211.2,361.9,211.4,361.9,211.6,361.9z"/>
<path class="st5" d="M314.6,395.2c0.8,1.2,1.1,2.6,1.7,3.9c0.4,0.8,0.6,1.6,1.2,2.3c0,0.6,0,1.2-0.1,1.8c-1.3-2.2-2-4.6-3-6.9
	c-0.1-0.3-0.2-0.7-0.3-1C314.3,395.2,314.5,395.2,314.6,395.2z"/>
<path class="st5" d="M317.5,383.3c-0.8,1.7-1.1,3.5-1.6,5.3c-0.1,0.3-0.3,0.7-0.4,1c-0.2,0-0.3,0-0.5,0c0.5-2.6,1.2-5.1,2-7.6
	c0.1-0.3,0.3-0.6,0.4-0.9C317.5,381.8,317.5,382.6,317.5,383.3z"/>
<path class="st7" d="M238.8,298.2c1.3-0.6,2.6-0.7,4-0.8c0.9-0.1,1.7-0.3,2.5-0.5c0.4,0.1,1,0,1.2,0.6c-2.6,0.4-5.1,0.8-7.7,1.2
	C238.8,298.5,238.8,298.4,238.8,298.2z"/>
<path class="st7" d="M224.1,381.3c2-1.1,4.3-1.4,6.5-2.1c0.6-0.2,1.2-0.3,1.9-0.5c0.3,0.3,0,0.5-0.2,0.7c-0.4,0.1-0.8,0.2-1.2,0.3
	c-0.2,0-0.4,0-0.5,0.2c-0.3,0.1-0.5,0.1-0.8,0.2c-0.3,0-0.7,0-0.9,0.3c-1.6,0.2-3.1,0.9-4.7,1.3
	C224.1,381.6,224.1,381.4,224.1,381.3z"/>
<path class="st5" d="M194.3,401c0.6-0.6,0.8-1.4,1.1-2.1c0.5-1.2,1.1-2.5,1.6-3.7c0.2,0,0.4,0,0.6,0c-1,2.6-2.1,5.1-3.1,7.7
	c-0.1,0-0.2,0-0.2,0C194.4,402.2,194.4,401.6,194.3,401z"/>
<path class="st5" d="M239.7,294c-0.6,1.4-1.4,2.7-1.6,4.2c-0.3-0.1-0.5-0.3-0.6-0.5c0.5-1.4,1.1-2.8,1.6-4.1
	C239.4,293.5,239.6,293.6,239.7,294z"/>
<path class="st7" d="M279.6,378.7c1.4,0.5,3,0.6,4.4,1.3c-0.1,0.1-0.3,0.2-0.4,0.3c-1.3-0.3-2.6-0.6-3.8-1
	C279.5,379.2,279.5,379,279.6,378.7z"/>
<path class="st4" d="M238,408.7c1.1-0.2,2.3-0.4,3.4-0.6c0.3,0.1,0.7,0.1,0.8,0.6c-0.4,0.1-1,0-1.3,0.4c-0.5,0.1-1.1,0.1-1.6,0.2
	c-0.3,0-0.5-0.1-0.8-0.1C238.3,409,238.1,408.9,238,408.7z"/>
<path class="st6" d="M317.1,291.7c0,0.1,0.1,0.1,0.1,0.2c0.1,1.7,0.1,1.7-1.4,1C315.9,292.2,316.5,292,317.1,291.7z"/>
<path class="st5" d="M317.1,291.7c-0.6,0.2-1.1,0.5-1.3,1.2c-0.3-0.2-0.7-0.4-1-0.6c0.8-0.5,1.6-1,2.4-1.5
	C317.1,291.1,317.1,291.4,317.1,291.7z"/>
<path class="st6" d="M269.7,408.7c0.4,0.1,1,0,1.3,0.4c-0.7,0-1.4,0-2,0C269.1,408.8,269.4,408.7,269.7,408.7z"/>
<path class="st6" d="M240.8,409c0.4-0.4,0.9-0.2,1.3-0.4c0.3,0,0.6,0.1,0.7,0.4C242.2,409,241.5,409,240.8,409z"/>
<path class="st4" d="M195,291.8c-0.1,0-0.2,0-0.4-0.1c-0.1-0.3-0.4-0.6-0.3-0.9c0.5,0.2,0.9,0.5,1.2,0.9
	C195.4,291.8,195.2,291.8,195,291.8z"/>
<polygon class="st5" points="194.3,378.6 194.4,378.6 194.3,378.6 "/>
<path class="st5" d="M317.5,356C317.5,356,317.5,356.1,317.5,356C317.5,356.1,317.5,356,317.5,356z"/>
<polygon class="st4" points="279.2,237 279.3,237 279.2,237 "/>
<polygon class="st4" points="232.3,248.2 232.1,248.3 232.3,248.3 "/>
<polygon class="st7" points="194.3,269.5 194.4,269.5 194.3,269.5 "/>
<path class="st6" d="M194.4,402.9c0.1,0,0.2,0,0.2,0c-0.1,0.2-0.1,0.4-0.2,0.6C194.4,403.2,194.4,403.1,194.4,402.9z"/>
<path class="st6" d="M194.4,416.5c0,0.2,0.1,0.4,0.1,0.6C194.4,417,194.3,416.7,194.4,416.5z"/>
<path class="st6" d="M198.1,422.6c0.1,0.1,0.3,0.2,0.4,0.3C198.3,422.9,198.2,422.8,198.1,422.6z"/>
<path class="st4" d="M425.3,324.4c-4.4-1.8-8.9-3.6-13.3-5.5c-4.6-1.9-9.3-3.9-13.9-5.8c-0.7-0.3-1.4-0.6-2.3-0.5
	c-2.3,0.2-2.5,0.4-2.5,2.7c0,7.6,0,15.3,0,22.9c0,0.7-0.1,1.4-0.1,2.1c0-8.9,0-17.9,0-26.8c0-0.4,0.1-0.7,0.1-1.1
	c0.6,0,1.2-0.2,1.8-0.5c-0.6-0.2-1.1-0.4-1.6-0.6c-0.1-0.3-0.1-0.6-0.2-0.9c0.5,0.2,1,0.5,1.5,0.7c0.2,0.1,0.4,0.1,0.6,0
	c0.2-0.1,0.1-0.4,0-0.5c-0.7-1-1.3-2-2-3c0-0.3,0-0.7,0-1c0,0,0-0.1,0-0.1c1.2,1.7,2.4,3.5,3.4,5.3c-0.1,0-0.3,0-0.4,0
	c-0.1,0-0.2,0.1-0.3,0.2c0.1,0,0.2,0.1,0.3,0.1c0.2,0,0.4,0,0.6,0c2.4,0.7,4.6,1.8,7,2.8c6.6,2.7,13.2,5.4,19.9,8.1
	c0.5,0.2,1.1,0.4,1.6,0.6C425.4,323.8,425.5,324.1,425.3,324.4z"/>
<path class="st5" d="M336.3,408.8c0.6-0.8,0.8-1.7,1-2.6c5-15.2,12.9-28.6,23.7-40.4c0.5-0.6,1.1-1.1,1.7-1.7
	c0.1,0.1,0.3,0.2,0.4,0.4c-2.7,3-5.4,6-7.8,9.2c-8,10.4-13.9,21.9-17.8,34.5c-0.2,0.6-0.4,1.1-0.1,1.6c-0.1,0.1-0.2,0.1-0.4,0.2
	c-0.6,0.1-0.7,0.1-0.7-0.6C336.2,409.2,336.3,409,336.3,408.8z"/>
<path class="st5" d="M410.7,265.4c-0.3,2,0.2,4,0.6,6c2.1,12.7,6.2,24.7,12.5,35.9c0.5,0.9,0.8,1.8,1.6,2.5c0,0.4-0.1,0.9-0.1,1.3
	c-0.8-0.9-1.3-2-1.9-3.1c-6-10.7-10.2-22.2-12.3-34.3c-0.5-2.9-1-5.8-1.2-8.7C410.2,265,410.4,265.3,410.7,265.4z"/>
<path class="st4" d="M363.1,298.7c-5.8-2.4-11.6-4.9-17.4-7.3c-3-1.2-6-2.4-8.9-3.7c-0.5-0.5-0.4-1.1-0.3-1.7
	c0.1,0.7,0.6,1.1,1.2,1.3c3,1.2,5.9,2.5,8.9,3.7c5,2.1,9.9,4.1,14.9,6.2c0.6,0.2,1.2,0.5,1.8,0.6c0.2,0,0.4-0.1,0.6-0.2
	c0.1-0.1,0.2-0.2,0.4-0.3c0.4,0.5,0.8,1,1.1,1.6c0,0-0.1,0.2-0.1,0.2C364.5,299.2,363.8,299.1,363.1,298.7z"/>
<path class="st4" d="M393.3,341.4c4.9-2.3,9.9-4.5,15.1-6.1c3.9-1.3,7.8-2.3,11.8-3.1c0.6-0.1,1.1-0.1,1.7-0.1c0,0.1,0,0.3,0,0.4
	c-9.5,1.9-18.6,4.8-27.2,9.1c-0.3,0.1-0.5,0.2-0.8,0.3C393.6,341.8,393.4,341.6,393.3,341.4z"/>
<path class="st5" d="M393.1,286c0,0.3,0.1,0.6,0.1,0.8c0,5.8,0,11.5,0,17.3c0,0.4-0.1,0.9-0.1,1.3C393,298.9,393,292.4,393.1,286z"
	/>
<path class="st4" d="M374.1,303.1c-3-1.2-5.9-2.4-8.9-3.6c0-0.1,0-0.2,0-0.4c0,0,0.1-0.2,0.1-0.2c2,0.5,3.8,1.5,5.7,2.3
	c1.1,0.4,2.1,0.8,3.2,1.2C374.2,302.7,374.2,302.9,374.1,303.1z"/>
<path class="st4" d="M365.7,323c0-0.2,0.1-0.4,0.3-0.5c2.7-1.4,5.4-2.9,8.3-3.9c0,0.2-0.1,0.4-0.1,0.7c-2.4,1.1-4.8,2.3-7.1,3.4
	C366.6,322.8,366.2,323.2,365.7,323z"/>
<path class="st6" d="M393.3,307.6c0.7,1,1.3,2,2,3c0.1,0.2,0.3,0.4,0,0.5c-0.1,0.1-0.4,0.1-0.6,0c-0.5-0.2-1-0.5-1.5-0.7
	C393.1,309.5,393.1,308.5,393.3,307.6C393.3,307.6,393.3,307.6,393.3,307.6z"/>
<path class="st5" d="M336.3,346.2c0.5-0.2,0.9-0.6,1.3-1c0.7-0.8,1.4-1.5,2.1-2.3c0.2,0,0.5,0,0.7,0c-1.4,1.6-2.8,3.2-4.1,4.8
	C336.3,347.2,336.3,346.7,336.3,346.2z"/>
<path class="st7" d="M373.8,354c0.9-0.8,1.8-1.6,2.7-2.4c0.8-0.3,1.3-0.8,1.9-1.4c0.2,0,0.3-0.1,0.5-0.1c0,0.2,0.1,0.4,0.1,0.6
	c-1.7,1.3-3.5,2.6-5.2,3.9C373.9,354.3,373.9,354.1,373.8,354z"/>
<path class="st5" d="M379.1,350.6c0-0.2-0.1-0.4-0.1-0.6c0.4-0.9,1.4-1.1,2.2-1.6c0.6-0.4,1.4-0.7,2-1.1c0.1,0.1,0.3,0.1,0.4,0.2
	C382.1,348.6,380.6,349.6,379.1,350.6z"/>
<path class="st5" d="M353.2,239.4c0.1-1,0.3-2,0.4-3c0.4-0.4,0.3-0.9,0.4-1.3c0.2,0.1,0.4,0.3,0.5,0.4c-0.3,1.3-0.3,2.7-0.9,4
	C353.5,239.4,353.3,239.4,353.2,239.4z"/>
<path class="st7" d="M421.9,332.4c0-0.1,0-0.3,0-0.4c0.3-0.3,0.6-0.3,1-0.4c0.8-0.1,1.7-0.3,2.5-0.5c0,0.3-0.1,0.5-0.1,0.8
	C424.1,332.1,423,332.3,421.9,332.4z"/>
<path class="st6" d="M393.4,311.3c0.5,0.2,1,0.4,1.6,0.6c-0.6,0.3-1.2,0.6-1.8,0.5C393.2,312,393,311.6,393.4,311.3z"/>
<path class="st6" d="M378.5,350.2c-0.6,0.5-1.1,1.1-1.9,1.4c-0.3,0-0.5,0-0.8,0C376.6,350.9,377.5,350.4,378.5,350.2z"/>
<path class="st4" d="M336.5,311.1c0.6-0.3,1.2-0.7,1.8-1c0,0.2,0,0.4,0.1,0.6c-0.5,0.4-1.1,0.7-1.6,1.1
	C336.4,311.7,336.3,311.4,336.5,311.1z"/>
<path class="st2" d="M386.1,345.9c-0.6,0.6-1.3,1.1-2.2,1.3C384.3,346.2,385.2,346,386.1,345.9z"/>
<path class="st5" d="M336.4,312.4c0.2,0.7,0.2,1.4,0,2.1C336.3,313.8,336.3,313.1,336.4,312.4z"/>
<path class="st6" d="M354,235c-0.1,0.5,0,1-0.4,1.3c0-0.5,0-1.1,0-1.6C353.8,234.7,353.9,234.9,354,235z"/>
<path class="st2" d="M383.6,347.6c-0.1-0.1-0.3-0.1-0.4-0.2c0.2-0.3,0.5-0.2,0.7-0.1C383.9,347.5,383.8,347.6,383.6,347.6z"/>
<path class="st5" d="M393.3,307.6C393.3,307.6,393.3,307.6,393.3,307.6c-0.2-0.4-0.4-0.7,0-1C393.3,306.9,393.3,307.2,393.3,307.6z"
	/>
<polygon class="st5" points="336.3,375.6 336.4,375.5 336.3,375.5 "/>
<path class="st5" d="M393.1,261.7C393.1,261.7,393.1,261.7,393.1,261.7C393.1,261.7,393.1,261.7,393.1,261.7z"/>
<path class="st5" d="M336.3,344.4C336.3,344.4,336.3,344.4,336.3,344.4C336.3,344.4,336.3,344.4,336.3,344.4z"/>
<path class="st5" d="M101.8,251.8c-0.3-18.3-5-35.5-13.8-51.5c-0.4-0.7-0.9-1.4-1.4-2.2c0-0.4,0-0.9-0.1-1.3c0.5,0.3,0.7,0.9,1,1.4
	c5.8,9.9,9.9,20.5,12.4,31.8c1.5,6.6,2.3,13.3,2.6,20.1c0,0.4,0,0.9,0.3,1.2C102.4,251.5,102.1,251.6,101.8,251.8z"/>
<path class="st7" d="M134,156.2c0.5-0.4,1-0.8,1.5-1.2c11-8.4,20.1-18.4,27.4-30.2c0.3-0.5,0.5-1,1-1.4c0,0.4,0,0.9-0.1,1.3
	c-0.5,0.8-1.1,1.5-1.6,2.3c-7.1,10.9-15.8,20.3-26.1,28.2c-0.5,0.4-1.1,0.7-1.6,1.1C134.4,156.3,134.2,156.3,134,156.2z"/>
<path class="st7" d="M153.1,207.4c-1.4,0.5-2.8,1-4.3,1.5c0.1,0.2,0.2,0.4,0.4,0.5c4.6,1.9,9.3,3.8,13.9,5.8c0.3,0.1,0.7,0.2,1,0.3
	c0.1,0.3-0.1,0.5-0.3,0.6c-4.8-2-9.5-3.9-14.3-5.9c-0.4-0.2-0.9-0.3-1.3-0.5c-0.4,0.4-0.1,0.6,0.1,0.8c2.1,3.8,4,7.6,5.5,11.7
	c0.2,0.5,0.3,1.1,0.8,1.5c-0.3,0.1-0.6,0.2-0.9,0.2c-1.7-4.6-3.7-9-6.2-13.2c-0.2-0.4-0.5-0.7-0.5-1.2c0.2-0.1,0.3-0.3,0.5-0.4
	c0.3-0.2,0-0.3-0.1-0.4c1.7-0.8,3.5-1,5.2-1.7C152.8,207.1,153,207.2,153.1,207.4z"/>
<path class="st4" d="M114.9,196.1c-0.6-0.6-1.3-0.8-2.1-1.1c-8.7-3.6-17.5-7.2-26.2-10.8c-0.2-0.2-0.2-0.5-0.1-0.8
	c5,2.1,10.1,4.1,15.1,6.2c4,1.6,7.9,3.3,11.9,5c1.3,0.6,2.6,0.8,3.9,0.3c0.4-0.1,0.8-0.1,1.3-0.2c0,0.3-0.1,0.5-0.3,0.6
	c-0.5,0.1-1,0.2-1.6,0.4c-0.2,0-0.4,0-0.6,0c-0.4,0.1-0.8-0.2-1.1,0.3C115,196,115,196.1,114.9,196.1z"/>
<path class="st5" d="M146.7,209c-3.3-1.3-6.5-2.7-9.8-4c-1.7-0.7-3.3-1.3-5-2c-0.2-0.4-0.4-0.8-0.4-1.2c0-2.4,0.1-4.8,0.1-7.2
	c0,1.9,0.1,3.7,0.1,5.6c0,2.3,0,1.9,1.7,2.7c3.9,1.7,7.9,3.3,11.9,4.9c0.6,0.2,1.3,0.3,1.7,0.9C146.9,208.8,146.8,208.9,146.7,209z"
	/>
<path class="st4" d="M153.1,207.4c-0.1-0.1-0.3-0.3-0.4-0.4c3.1-1.1,6.2-2.2,9.1-3.6c2.6-1.2,2.2-0.5,2.3-3.4c0-1,0.1-2,0.1-3
	c0,2.8,0,5.5,0,8.3c0-0.6-0.1-1.3-0.1-1.9c-0.6-0.3-1,0.1-1.4,0.3c-2.8,1.3-5.7,2.5-8.7,3.5C153.7,207.3,153.4,207.3,153.1,207.4z"
	/>
<path class="st4" d="M103.3,171.9c5.2-1.7,10.2-3.9,15.2-6.2c0.2,0.2,0.2,0.5-0.1,0.7c-4.6,2.2-9.2,4.2-14.1,5.8
	c-0.3,0.1-0.7,0.1-1,0.2C103.3,172.2,103.3,172,103.3,171.9z"/>
<path class="st7" d="M163.8,172.8c-2.2,1.8-4.4,3.5-6.7,5.3c-0.6,0.4-1.2,0.8-1.8,1.1c-0.2,0-0.4-0.1-0.6-0.1c3-2.3,6-4.6,9-6.9
	C163.8,172.5,163.8,172.7,163.8,172.8z"/>
<path class="st5" d="M116.2,195.7c0.2,0,0.4,0,0.6,0c-0.1,0.1-0.1,0.2,0,0.3c0,0.2,0,0.3,0,0.5c-0.2,0.1-0.7,0-0.5,0.4
	c0.7,1.1,1.2,2.3,2.2,3.1c0,0.4-0.1,0.8-0.1,1.2c-1.1-1.7-2.3-3.4-3.4-5.2c0.1,0,0.1-0.1,0.2-0.1C115.5,196.1,115.9,196,116.2,195.7
	z"/>
<path class="st6" d="M118.5,200c-1-0.8-1.5-2-2.2-3.1c-0.2-0.4,0.3-0.3,0.5-0.4c0.5,0.2,1,0.4,1.5,0.7
	C118.7,198.1,118.4,199.1,118.5,200z"/>
<path class="st4" d="M86.5,175.7c1.6,0.1,3.1-0.4,4.6-0.7c0.6-0.1,1.2-0.3,1.9-0.2c0,0.1,0,0.3,0,0.4c-0.2,0.1-0.3,0.1-0.5,0.2
	c-0.3,0-0.5,0-0.6,0.2c-0.4,0.1-0.7,0.1-1.1,0.2c-0.4,0-0.8-0.1-1.1,0.3c-0.5,0.1-1,0.1-1.6,0.2c-0.3,0-0.7,0-1,0
	C86.8,176.3,86.5,176.2,86.5,175.7z"/>
<path class="st4" d="M134,156.2c0.2,0,0.4,0.1,0.6,0.1c-0.8,0.9-1.9,1.4-2.8,2.1c-0.2-0.3-0.2-0.5-0.1-0.8
	C132.6,157.4,133.1,156.6,134,156.2z"/>
<path class="st6" d="M116.8,196c-0.1-0.1,0-0.2,0-0.3c0.5-0.1,1-0.2,1.6-0.4c0,0.4,0.1,0.8,0.1,1.2C117.8,196.6,117.4,196,116.8,196
	z"/>
<path class="st4" d="M116.8,196c0.6,0,1.1,0.6,1.7,0.5c0.1,0.3,0,0.5-0.2,0.7c-0.5-0.2-1-0.4-1.5-0.7
	C116.7,196.4,116.8,196.2,116.8,196z"/>
<path class="st5" d="M132.3,191.3c-0.2,0.1-0.4,0.2-0.5,0.2c-0.2-0.2-0.2-0.5-0.1-0.7c0.1,0,0.2,0,0.2,0
	C132,191,132.2,191.2,132.3,191.3z"/>
<path class="st6" d="M87.1,176.3c0.3,0,0.7,0,1,0c-0.3,0.3-0.6,0.3-1,0.2C87.2,176.5,87.2,176.4,87.1,176.3z"/>
<path class="st5" d="M130.9,185.2c0.1-0.2,0.2-0.3,0.4-0.1C131.2,185.2,131.1,185.2,130.9,185.2z"/>
<path class="st4" d="M131.6,121.4C131.6,121.4,131.7,121.4,131.6,121.4C131.7,121.4,131.6,121.4,131.6,121.4z"/>
<path class="st8" d="M356.8,223.7c-2.6-1.4-5.2-2.8-7.8-4.2c-1.6-0.9-1.6-0.9-1.5-2.7c0-0.2,0.1-0.4,0.1-0.6c0.2,0,0.4-0.1,0.6-0.1
	c4.3-1.8,8.6-3.6,12.9-5.3c0.8-0.3,1.5-0.8,2.4-0.8c-2.3,4.2-4.3,8.4-6,12.9C357.4,223.1,357.2,223.5,356.8,223.7z"/>
<path class="st8" d="M347.5,215.5c0-3.9,0-7.9,0-11.8c0-0.3,0.1-0.5,0.2-0.8c3.3,1.6,6.7,3.1,10.2,4.1c1.7,0.8,3.5,1.2,5.2,1.6
	c0.2,0.1,0.4,0.2,0.6,0.1c0.2,0.2,0,0.4-0.2,0.5c-0.3-0.1-0.5,0-0.8,0.1c-1.4,0.6-2.8,1.1-4.2,1.7
	C354.9,212.5,351.2,214,347.5,215.5z"/>
<path class="st5" d="M421.9,203.9c-3,5.6-5.3,11.6-7.2,17.7c-1.8,5.7-3,11.5-3.8,17.5c-0.3,2-0.4,4-0.6,6c-0.1,0.9,0,1.7-0.4,2.5
	c-0.1,0-0.3,0-0.4,0c-0.1-2.1,0.2-4.2,0.5-6.2c0.6-5.1,1.5-10.1,2.8-15c1.9-7.5,4.6-14.6,8-21.5c0.2-0.4,0.4-0.9,0.6-1.4
	C421.6,203.5,421.8,203.6,421.9,203.9z"/>
<path class="st4" d="M425.3,184.1c-8.9,3.7-17.9,7.4-26.8,11.1c-0.5,0.2-1,0.6-1.6,0.5c0-0.1,0-0.3-0.1-0.4c2.4-1,4.9-2.1,7.3-3.1
	c6.7-2.8,13.4-5.6,20.1-8.4c0.4-0.2,0.8-0.3,1.2-0.5C425.4,183.5,425.3,183.8,425.3,184.1z"/>
<path class="st7" d="M347.9,123.6c0.2,0.3,0.5,0.5,0.6,0.8c4,6.5,8.6,12.5,13.8,18.1c0.2,0.3,0.5,0.5,0.7,0.8
	c-0.1,0.1-0.2,0.2-0.4,0.4c-3.3-3.3-6.3-6.9-9-10.6c-1.6-2.2-3.1-4.5-4.6-6.7c-0.4-0.6-0.7-1.2-1.3-1.7
	C347.7,124.3,347.8,123.9,347.9,123.6z"/>
<path class="st4" d="M379.7,191.3c-7-2.6-13.7-5.8-20-9.8c-1.1-0.7-2.2-1.3-3.2-2.2c0.2,0,0.4-0.1,0.6-0.1c0.6,0.4,1.2,0.7,1.8,1.1
	c6,3.9,12.3,7.1,19,9.7c0.7,0.3,1.3,0.6,2.1,0.6C379.9,190.8,379.8,191,379.7,191.3z"/>
<path class="st4" d="M363.7,208.7c-0.2,0.1-0.4,0-0.6-0.1c0.2-0.1,0.3-0.3,0.5-0.4c0.8,0,1.5,0.1,2.3-0.2c4.6-2,9.3-3.9,13.9-5.8
	c0.1,0.3,0,0.6-0.1,0.9c-3.8,1.5-7.5,3.1-11.3,4.6c-1.2,0.5-2.4,0.9-3.6,1.4C364.5,208.6,364,208.9,363.7,208.7z"/>
<path class="st4" d="M393.4,165.7c4.9,2.4,9.9,4.4,15.1,6.2c-0.1,0.1-0.3,0.3-0.4,0.4c-4.3-1.2-8.3-3-12.4-4.8
	c-0.7-0.3-1.4-0.7-2.1-1C393.4,166.2,393.3,166,393.4,165.7z"/>
<path class="st4" d="M347.5,215.5c3.7-1.5,7.4-3,11.1-4.5c1.4-0.6,2.8-1.1,4.2-1.7c0.3-0.1,0.5-0.2,0.8-0.1c0,0,0.1,0.2,0.1,0.2
	c0,0.2,0,0.3-0.1,0.5c-0.9,0-1.6,0.5-2.4,0.8c-4.3,1.8-8.6,3.6-12.9,5.3c-0.2,0.1-0.4,0.1-0.6,0.1
	C347.6,215.9,347.5,215.7,347.5,215.5z"/>
<path class="st5" d="M363.5,209.8c0-0.2,0-0.3,0.1-0.5c0.2,0.1,0.5,0.1,0.7,0.2c-0.1,0.2-0.1,0.4-0.2,0.6c-2.5,4.4-4.6,9.1-6.4,13.8
	c-0.3-0.1-0.7-0.2-1-0.3c0.5-0.2,0.6-0.5,0.8-1C359.2,218.2,361.3,214,363.5,209.8z"/>
<path class="st4" d="M357.9,206.9c-3.5-1-6.9-2.5-10.2-4.1c-0.2-0.2-0.2-0.5-0.2-0.7c3.5,1.6,7.1,3.1,10.8,4.4
	C358.2,206.7,358,206.8,357.9,206.9z"/>
<path class="st5" d="M396.4,196.1c-0.7,1.5-1.8,2.9-2.7,4.3c-0.3-0.4-0.2-0.8-0.1-1.3c0.7-0.7,1.3-1.4,1.7-2.5
	c-0.6,0.2-1.1,0.3-1.5,0.5c0-0.2-0.1-0.5-0.1-0.7c0.4-0.1,0.8-0.3,1.2-0.4c0.1,0,0.2-0.2,0.2-0.3c0-0.1-0.2-0.2-0.3-0.3
	c-0.4,0-0.7,0-1.1,0c-0.3-1-0.2-1.9-0.1-2.9c0.1,0.1,0.1,0.3,0.1,0.4c0.2,1.7,0.2,1.7,1.8,2c0.3,0.1,0.6,0.3,0.9,0.4
	c-0.2,0.2-0.4,0.4-0.6,0.6C396,195.9,396.2,196,396.4,196.1z"/>
<path class="st7" d="M373.5,152.9c1.6,1.2,3.1,2.3,4.7,3.5c0.6,0.4,1.1,0.9,1.8,1.1c0.1,0.3,0,0.5-0.1,0.8c-2.4-1.5-4.6-3.2-6.7-5.1
	C373.2,153.1,373.3,153,373.5,152.9z"/>
<path class="st4" d="M421.2,175.3c0.7-0.1,1.3,0,1.9,0.2c0.8,0.2,1.6,0.2,2.3,0.3c0,0.4-0.3,0.5-0.7,0.5c-1.4,0-2.7-0.4-4-0.6
	C420.9,175.5,421,175.4,421.2,175.3z"/>
<path class="st6" d="M393.7,197.1c0.4-0.1,0.9-0.3,1.5-0.5c-0.4,1.1-1,1.8-1.7,2.5C393.6,198.4,393.7,197.7,393.7,197.1z"/>
<path class="st6" d="M393.7,195.3c0.4,0,0.7,0,1.1,0c0.1,0,0.2,0.2,0.3,0.3c0,0.1-0.1,0.3-0.2,0.3c-0.4,0.2-0.8,0.3-1.2,0.4
	C393.6,196,393.6,195.7,393.7,195.3z"/>
<path class="st4" d="M409.4,247.6c0.1,0,0.3,0,0.4,0c0,1.3,0,2.6-0.1,3.9c-0.3-0.1-0.5-0.2-0.8-0.2c0.3-0.4,0.3-0.9,0.3-1.4
	C409.4,249.1,409.4,248.4,409.4,247.6z"/>
<path class="st4" d="M348.4,173.1c-0.2-0.1-0.5-0.3-0.7-0.4c0-0.3-0.1-0.6-0.1-0.9c0.4,0.3,0.8,0.7,1.2,1
	C348.7,172.9,348.5,173,348.4,173.1z"/>
<path class="st6" d="M382.6,187.8c0.3-0.4,0.8-0.3,1.3-0.3C383.5,187.7,383,187.8,382.6,187.8z"/>
<polygon class="st5" points="393.4,214.9 393.6,214.9 393.4,214.9 "/>
<path class="st5" d="M393.5,207.2C393.5,207.2,393.5,207.1,393.5,207.2C393.5,207.1,393.5,207.2,393.5,207.2z"/>
<path class="st4" d="M379.8,232.2C379.8,232.2,379.8,232.2,379.8,232.2C379.8,232.2,379.8,232.2,379.8,232.2z"/>
<polygon class="st7" points="347.6,158.7 347.7,158.6 347.6,158.6 "/>
<path class="st7" d="M347.6,134.9C347.6,134.9,347.6,134.8,347.6,134.9C347.6,134.8,347.6,134.9,347.6,134.9z"/>
<path class="st5" d="M313.8,113c1.5-3.4,2.9-6.9,4.3-10.3c1.9-4.7,3.8-9.3,5.7-14c0.3,0,0.6,0.1,0.7,0.5c-2,4.8-4,9.5-6,14.3
	c-1.2,2.8-2.3,5.6-3.5,8.3c-0.5,1.2-0.6,2.3-0.3,3.6c0.5,2.2,1,4.5,1.5,6.7c-0.4-0.2-0.9-0.4-1.3-0.6c0.3-0.2,0.4-0.4,0.3-0.7
	c-0.4-1.9-0.9-3.8-1.4-6c-0.9,1.7-1.5,3.3-2.1,4.8c-0.3-0.1-0.6-0.2-0.8-0.3c1-1.3,1.3-3,2.1-4.4c0.1-0.2,0.2-0.4-0.1-0.5
	c-0.2-0.1-0.4,0.1-0.6,0.1c0-0.2,0-0.3,0-0.5C312.8,113.5,313.2,113.1,313.8,113c0,0.2,0,0.4,0,0.6c0,0.1,0.1,0.1,0.2,0.2
	c0-0.1,0.1-0.1,0.1-0.2C314.1,113.4,314,113.1,313.8,113z"/>
<path class="st7" d="M314.6,83.7c-5.6,3.6-11.6,6.6-17.8,9.1c-0.8,0.3-1.6,0.7-2.4,1c-0.2-0.1-0.4-0.1-0.5-0.2c-0.2,0-0.3,0-0.5-0.1
	c0.5-0.5,1.3-0.6,1.9-0.9c5.8-2.3,11.4-4.9,16.7-8.2c0.6-0.4,1.2-0.8,1.8-1.2C314.2,83.2,314.5,83.2,314.6,83.7z"/>
<path class="st7" d="M288.9,126.2c-5.2,1.8-10.5,3.2-15.9,4c0-0.1,0-0.3,0-0.4c0.9-0.7,2.1-0.5,3.1-0.7c4.4-0.9,8.7-2.1,13-3.6
	C289.4,125.8,289.1,126,288.9,126.2z"/>
<path class="st6" d="M312.4,114.3c0.2,0,0.4-0.2,0.6-0.1c0.2,0.1,0.2,0.4,0.1,0.5c-0.8,1.5-1,3.1-2.1,4.4c-0.8-0.4-1.7-0.9-2.5-1.3
	c-0.3-0.1-0.5-0.3-0.5-0.6C309.5,116.3,311.1,115.5,312.4,114.3z"/>
<path class="st6" d="M311.9,119.5c0.6-1.5,1.1-3,2.1-4.8c0.5,2.2,1,4.1,1.4,6c0.1,0.3-0.1,0.6-0.3,0.7
	C314,120.7,312.8,120.4,311.9,119.5z"/>
<path class="st7" d="M281.3,181.8c0.9-0.3,1.7-0.6,2.6-0.9c0.8-0.3,1.7-0.7,2.5-1.1c0.1,0.3,0.1,0.6,0.2,0.9c0.1,0,0.2,0,0.2,0.1
	c1.2,2.3,2.4,4.5,3.6,6.8c-0.4-0.2-0.9-0.2-1.2-0.5c0-0.5-0.2-0.8-0.4-1.2c-0.8-1.4-1.5-2.9-2.4-4.5c-0.5,1.2-1,2.3-1.5,3.3
	c-0.2-0.1-0.4-0.2-0.6-0.3c0.2-0.5,0.5-1,0.7-1.6c0.2-0.6,0.7-1.1,0.5-1.8c-1.5,0.4-2.8,0.8-4.2,1.2
	C281.2,182.1,281.3,181.9,281.3,181.8z"/>
<path class="st6" d="M284.8,184.7c0.5-1,0.9-2.1,1.5-3.3c0.8,1.6,1.6,3,2.4,4.5c0.2,0.4,0.4,0.7,0.4,1.2
	C287.6,186.4,286.1,185.7,284.8,184.7z"/>
<path class="st7" d="M289.9,95.3c-3,0.8-5.9,1.6-8.9,2.4c-1,0.3-2.1,0.4-3.1,0.6c-0.4,0-0.7-0.1-0.9-0.4c4.1-0.8,8.1-1.9,12.1-3.1
	C289.2,95.1,289.5,95.2,289.9,95.3L289.9,95.3z"/>
<path class="st5" d="M286.5,180.7c-0.1-0.3-0.1-0.6-0.2-0.9c0.3-1.5,1.1-2.8,1.6-4.2c1.1-2.6,2.2-5.2,3.3-7.7
	c0.2,0.2,0.3,0.3,0.5,0.5c-1.6,3.9-3.2,7.8-4.8,11.6C286.7,180.2,286.6,180.5,286.5,180.7z"/>
<path class="st7" d="M288.9,151.2c-3.6,1.5-7.3,2.8-11.2,3.7c0-0.2,0-0.3,0-0.5c0.4-0.4,0.9-0.4,1.4-0.5c3.4-1,6.7-2.1,9.9-3.4
	C289.3,150.9,289.2,151.1,288.9,151.2z"/>
<path class="st5" d="M308,159.9c0,0.3,0,0.6-0.1,0.9c-0.1,1.5,0.2,2.9,1,4.3c1.3,2.1,2.5,4.3,3.8,6.4c-0.1,0.1-0.2,0.3-0.3,0.4
	c-1.2-1.5-2.1-3.2-3.1-4.9c-0.4-0.7-0.6-1.4-1.3-2c0-0.1-0.1-0.2-0.1-0.2c0.1-0.2,0-0.3-0.2-0.5c0-1.1,0-2.3,0.1-3.4
	C307.8,160.6,307.6,160.2,308,159.9z"/>
<path class="st6" d="M281.2,182.3c1.3-0.4,2.7-0.8,4.2-1.2c0.1,0.8-0.3,1.3-0.5,1.8c-0.2,0.5-0.5,1-0.7,1.6
	c-1.2-0.5-2.5-0.9-3.4-2.1C281,182.3,281.1,182.3,281.2,182.3z"/>
<path class="st4" d="M270.4,99.5c-2.5,0.5-5.1,0.5-7.6,0.8c0-0.3-0.1-0.5-0.1-0.8c1.8,0,3.5,0,5.3-0.4c0.8-0.1,1.7-0.1,2.5-0.1
	C270.4,99.2,270.4,99.4,270.4,99.5z"/>
<path class="st7" d="M269.6,130.7c-2.2,0.5-4.5,0.5-6.8,0.8c0-0.3-0.1-0.6-0.1-0.8c2,0.1,4-0.2,6-0.4
	C268.9,130.7,269.2,130.7,269.6,130.7z"/>
<path class="st5" d="M268.7,156.7c-1.9,0.6-4,0.4-6,0.8c0-0.3-0.1-0.6-0.1-0.9c1,0,2-0.1,3-0.1c0.2,0,0.5,0.1,0.7,0.1
	C267.2,156.7,268,156.7,268.7,156.7z"/>
<path class="st4" d="M312.4,114.3c-1.3,1.2-2.9,1.9-4.3,2.9c-0.4-0.2-0.4-0.5-0.3-0.8c0.8-0.1,1.3-0.6,1.9-0.9
	c0.9-0.5,1.8-1.1,2.7-1.7C312.4,114,312.4,114.2,312.4,114.3z"/>
<path class="st4" d="M332.8,193c0.6,0.2,1,0.8,1.6,0.9c0,0.3-0.1,0.6-0.1,0.9c-0.6-0.5-1.3-1-1.9-1.5
	C332.5,193.2,332.7,193.1,332.8,193z"/>
<path class="st4" d="M289.8,95.2c-0.3-0.1-0.6-0.1-0.8-0.4c0.6-0.1,1.2-0.6,1.9-0.5C290.7,94.8,290.3,95,289.8,95.2z"/>
<path class="st5" d="M293.4,93.5c0.2,0,0.3,0,0.5,0.1c-0.4,0.3-1,0.3-1.5,0.3C292.7,93.6,293,93.5,293.4,93.5z"/>
<path class="st4" d="M307.8,109.9c0,0.2,0,0.4,0,0.6C307.8,110.3,307.8,110.1,307.8,109.9z"/>
<path class="st4" d="M281.2,182.3c-0.1,0-0.3,0.1-0.4,0.1c-0.3-0.1-0.6-0.1-0.9-0.2c0.4-0.3,0.8-0.5,1.3-0.4
	C281.3,181.9,281.2,182.1,281.2,182.3z"/>
<path class="st3" d="M307.7,164.3c0.1,0.1,0.3,0.3,0.2,0.5C307.8,164.6,307.8,164.5,307.7,164.3z"/>
<path class="st4" d="M307.8,115.4C307.8,115.4,307.8,115.3,307.8,115.4C307.8,115.3,307.8,115.4,307.8,115.4z"/>
<path class="st5" d="M176.9,158c0.6-0.2,0.8-0.8,1.2-1.2c8.7-11.5,14.7-24.3,18-38.4c0.2-1,0.2-2,0.8-2.9c0.2,0,0.3,0,0.5,0
	c-2.3,12.3-7,23.7-13.6,34.3c-1.7,2.7-3.5,5.3-5.4,7.8c-0.3,0.5-0.8,0.9-1.1,1.3C176.5,158.7,176.7,158.4,176.9,158z"/>
<path class="st5" d="M187.9,88.9c1.5,3.6,3,7.3,4.5,10.9c1.7,4.2,3.5,8.5,5.2,12.7c-0.4,0.3-0.3,0.8-0.3,1.3l0,0c-0.1,0-0.2,0-0.3,0
	c0.2-1.1-0.4-2.1-0.8-3.1c-2.8-6.6-5.5-13.3-8.3-19.9c-0.2-0.5-0.4-1.1-0.7-1.6C187.4,88.9,187.6,88.8,187.9,88.9z"/>
<path class="st4" d="M249.1,100.3c-3.3-0.3-6.7-0.6-10-1.1c-5.1-0.8-10.1-1.9-15-3.4c-0.3-0.1-0.7-0.2-1-0.3c0-0.3-0.1-0.5-0.1-0.8
	c4.6,1.5,9.4,2.6,14.2,3.4c3.8,0.6,7.5,1.2,11.3,1.3c0.3,0,0.6,0,0.9,0C249.2,99.8,249.1,100.1,249.1,100.3z"/>
<path class="st7" d="M249.1,157.5c-6.3-0.5-12.5-1.6-18.6-3.4c-0.4-0.1-0.8-0.3-1.2-0.5c0.1-0.1,0.3-0.3,0.4-0.4
	c4,1.2,8.1,2.2,12.3,2.8c2.4,0.4,4.8,0.8,7.2,0.7C249.2,157,249.2,157.3,249.1,157.5z"/>
<path class="st4" d="M209.8,90.5c-3.8-1.5-7.3-3.5-10.8-5.6c-0.6-0.4-1.2-0.7-1.8-1.1c0.1-0.3,0.4-0.3,0.6-0.4
	c3.6,2.3,7.4,4.3,11.2,6.2c0.4,0.2,0.8,0.4,1.2,0.6C210.1,90.2,210,90.3,209.8,90.5z"/>
<path class="st5" d="M205.2,130.8c1.6,4,3.3,7.9,4.9,11.9c0.1,0.3,0.4,0.6,0.6,0.9c-0.3,0.1-0.6,0.2-0.8,0.3
	c-1.8-4.2-3.5-8.4-5.3-12.6C204.7,130.9,204.9,130.8,205.2,130.8z"/>
<path class="st5" d="M222.8,184.5c0.7-0.7,1-1.7,1.5-2.6c0.2-0.3,0.2-0.9,0.8-1c0.4-0.1,0.9,0,1.2-0.4c2,0.3,3.9,1.2,5.8,1.7
	c-0.3,0.3-0.6,0.4-1,0.4c-1.4-0.5-2.8-0.9-4.2-1.4c-0.1,0-0.2,0.1-0.4,0.2c0.2,0.9,0.7,1.8,1.1,2.7c0.1,0.2,0.3,0.2,0.5,0.3
	c-0.4,0.2-0.7,0.4-1.1,0.5c-0.3-1.2-0.8-2.4-1.5-3.7c-1,1.5-1.4,3.1-2.5,4.3C222.4,185.4,222.8,184.9,222.8,184.5z"/>
<path class="st5" d="M176.7,161.3c0,2.3,0.1,4.6,0.1,6.9c0,3.7-0.1,7.5-0.1,11.2c0-0.7-0.1-1.4-0.1-2.2c0-4.8,0-9.6,0-14.4
	C176.6,162.3,176.7,161.8,176.7,161.3z"/>
<path class="st6" d="M227.9,184.6c-0.2-0.1-0.4-0.2-0.5-0.3c-0.4-0.9-0.8-1.7-1.1-2.7c0.2-0.1,0.3-0.2,0.4-0.2
	c1.4,0.4,2.8,0.9,4.2,1.4C230.1,183.6,228.9,183.9,227.9,184.6z"/>
<path class="st4" d="M229.7,153.3c-0.1,0.1-0.3,0.3-0.4,0.4c-2.2-0.5-4.3-1.5-6.4-2.2c0-0.2-0.1-0.5-0.1-0.7
	C225.1,151.6,227.4,152.4,229.7,153.3z"/>
<path class="st7" d="M225,180.6c-0.6-1.8-1.3-3.6-2.2-5.2c0-0.6-0.4-1.2-0.1-1.8c0.8,1.2,1.2,2.6,1.7,3.8c0.5,1,0.9,2.1,1.3,3.1
	C225.6,180.5,225.3,180.5,225,180.6z"/>
<path class="st5" d="M203.7,164.7c-0.8,0.9-1.2,2.1-1.9,3.1c-0.4,0.7-0.8,1.3-1.2,2c-0.1-0.2-0.2-0.3-0.3-0.5c1.1-2,2.3-4,3.4-6.1
	C203.7,163.7,203.7,164.2,203.7,164.7z"/>
<path class="st5" d="M178.6,193.9c-0.7,0.6-1.4,1.2-2,1.8c0-0.4,0-0.9,0-1.3c0.4-0.2,0.8-0.3,1.2-0.5
	C178.1,193.9,178.3,193.9,178.6,193.9z"/>
<path class="st4" d="M244.9,130.7c0.9-0.1,1.7-0.1,2.6,0.1c0,0.1,0,0.2,0,0.3c-0.5,0-0.9,0-1.4,0c-0.4,0-0.8-0.1-1.2-0.1
	C244.9,131,244.9,130.9,244.9,130.7z"/>
<path class="st7" d="M247.5,131.2c0-0.1,0-0.2,0-0.3c0.6,0,1.2,0,1.7,0C248.8,131.6,248.1,131.3,247.5,131.2z"/>
<path class="st5" d="M176.7,211.6c0.1-0.1,0.2-0.1,0.4,0c0,0-0.2,0-0.2,0L176.7,211.6z"/>
<path class="st5" d="M86.4,309.7c0.6-0.4,0.8-1,1.1-1.6c5.9-10.5,10.1-21.7,12.3-33.6c0.2-0.9,0.4-1.8,0.4-2.8
	c0.2-0.3,0.5-0.4,0.8-0.5C99,285.1,94.3,298,87.3,310c-0.2,0.4-0.3,0.8-0.8,1C86.5,310.6,86.5,310.1,86.4,309.7z"/>
<path class="st4" d="M114.1,312.9c-6.7,2.8-13.3,5.6-20,8.4c-2.5,1-5,2-7.5,3.1c-0.2-0.2-0.2-0.5-0.1-0.7c5-2,10-4.1,15-6.1
	c3.9-1.6,7.7-3.2,11.6-4.8c0.3-0.1,0.7-0.2,1-0.3C114,312.6,114.1,312.8,114.1,312.9z"/>
<path class="st4" d="M175.4,287.5c-8.6,3.6-17.1,7.1-25.7,10.7c-0.3,0.1-0.5,0.2-0.8,0.3c0-0.2,0-0.5-0.1-0.7c2.4-0.7,4.7-1.8,7-2.8
	c6.3-2.6,12.6-5.2,18.9-7.8c0.3-0.1,0.5-0.2,0.8-0.3C175.5,287.1,175.5,287.3,175.4,287.5z"/>
<path class="st4" d="M108.1,337.1c1.9,0.4,3.6,1.3,5.4,2.1c1.7,0.7,3.3,1.4,4.9,2.1c0,0.2-0.1,0.5-0.1,0.7c-3.4-1.5-6.8-3-10.2-4.5
	C108.1,337.5,108.1,337.3,108.1,337.1z"/>
<path class="st5" d="M169.4,341.4c-0.1-0.7-0.7-1.1-1.1-1.5c-0.9-0.9-1.8-1.8-2.7-2.7c0.2,0,0.4,0,0.6-0.1c1.4,1.2,2.7,2.4,4.1,3.7
	C170,341,169.7,341.2,169.4,341.4z"/>
<path class="st5" d="M171.7,309.2c0.8,0.5,1.5,0.9,2.3,1.4c0.5,0.3,0.9,0.6,1.5,0.7c0.1,0.3,0.1,0.6-0.1,0.9
	c-1.4-0.9-2.8-1.8-4.1-2.7C171.4,309.4,171.6,309.3,171.7,309.2z"/>
<path class="st4" d="M133.7,253.9c0,1.8-0.1,3.6-0.1,5.4c-0.2,0-0.3,0-0.5,0c0-1.7,0-3.3,0-5C133.2,254.1,133.4,253.9,133.7,253.9z"
	/>
<path class="st5" d="M175.4,337.4c-0.2-1.4-0.2-2.8,0-4.2C175.6,334.6,175.6,336,175.4,337.4z"/>
<path class="st4" d="M86.5,331.2c0.7,0.2,1.4,0.3,2.1,0.5c-0.2,0.1-0.3,0.3-0.5,0.4c-0.1,0-0.2,0.1-0.3,0.1c-0.3,0-0.6,0-0.9,0
	c-0.1-0.1-0.2-0.1-0.3-0.1C86.5,331.7,86.5,331.5,86.5,331.2z"/>
<path class="st4" d="M158.3,242.4c-0.1-0.4-0.1-0.9-0.2-1.3c0.2-0.1,0.4-0.3,0.5-0.4c0,0.6,0.1,1.1,0.1,1.7
	C158.6,242.4,158.5,242.4,158.3,242.4z"/>
<path class="st6" d="M86.6,362.8c0.1,0,0.2,0.1,0.2,0.2c0,0-0.2-0.1-0.2-0.1L86.6,362.8z"/>
<polygon class="st5" points="175.5,289.4 175.4,289.4 175.5,289.4 "/>
<path class="st6" d="M86.6,332c0.1,0,0.2,0.1,0.3,0.1c-0.1,0.1-0.2,0.2-0.3,0.3C86.5,332.3,86.6,332.2,86.6,332z"/>
<path class="st4" d="M227.6,410.9c1.8-0.4,3.6-0.9,5.4-1.3c0.5-0.1,1-0.1,1.5-0.1c0,0.1,0,0.3,0,0.4c-0.2,0.1-0.3,0.1-0.5,0.2
	c-0.3,0-0.5,0-0.6,0.2c-0.4,0.1-0.7,0.1-1.1,0.2c-0.4,0-0.7-0.1-1,0.3c-0.4,0.1-0.8,0.1-1.2,0.2c-0.3,0-0.5,0-0.6,0.2
	c-0.5,0-1,0.1-1.4,0.1C227.9,411.2,227.7,411.1,227.6,410.9z"/>
<path class="st7" d="M283.8,411.3c0.2-0.1,0.3-0.2,0.5-0.4c2.1,0.6,4.2,0.9,6.1,1.9c0,0.2,0,0.3,0,0.5c-1.6-0.4-3.1-1.1-4.7-1.3
	c-0.1-0.2-0.2-0.3-0.5-0.2c-0.4-0.1-0.8-0.2-1.2-0.2C284,411.5,283.9,411.4,283.8,411.3z"/>
<path class="st7" d="M227.6,410.9c0.2,0.1,0.3,0.2,0.5,0.4c-0.5,0.2-0.9,0.4-1.4,0.5c-0.2,0-0.4,0-0.5,0.2c-0.8,0.2-1.7,0.4-2.5,0.7
	c-0.2,0-0.4,0-0.5,0.2c-0.3,0-0.5,0-0.8,0.1c0-0.2,0-0.3,0-0.5C224,411.7,225.8,411.4,227.6,410.9z"/>
<path class="st7" d="M234.5,409.9c0-0.1,0-0.3,0-0.4c1.1-0.6,2.3-0.5,3.5-0.8c0.2,0.1,0.3,0.3,0.5,0.4c-0.1,0.1-0.2,0.2-0.3,0.3
	c-0.5,0.1-1,0.1-1.5,0.2c-0.4,0-0.8-0.1-1,0.3C235.2,409.9,234.9,409.9,234.5,409.9z"/>
<path class="st6" d="M238.2,409.5c0.1-0.1,0.2-0.2,0.3-0.3c0.3,0,0.5,0.1,0.8,0.1C238.9,409.6,238.6,409.5,238.2,409.5z"/>
<path class="st6" d="M272.6,409.2c0.4,0,0.8-0.1,1.1,0.3C273.3,409.5,272.9,409.6,272.6,409.2z"/>
<path class="st6" d="M235.6,409.9c0.3-0.4,0.7-0.3,1-0.3C236.3,410,236,409.9,235.6,409.9z"/>
<path class="st6" d="M275.2,409.7c0.4,0,0.8-0.1,1,0.3C275.9,410,275.5,410,275.2,409.7z"/>
<path class="st6" d="M231.3,410.8c0.3-0.3,0.6-0.3,1-0.3C232,410.8,231.7,410.8,231.3,410.8z"/>
<path class="st6" d="M279.5,410.5c0.4,0,0.7-0.1,1,0.3C280.1,410.8,279.8,410.8,279.5,410.5z"/>
<path class="st6" d="M233.4,410.3c0.1-0.3,0.4-0.3,0.6-0.2C233.8,410.2,233.6,410.3,233.4,410.3z"/>
<path class="st6" d="M277.8,410.1c0.2,0,0.5,0,0.6,0.2C278.2,410.3,278,410.2,277.8,410.1z"/>
<path class="st6" d="M229.5,411.2c0.1-0.3,0.4-0.3,0.6-0.2C229.9,411,229.7,411.1,229.5,411.2z"/>
<path class="st6" d="M281.7,411c0.2,0,0.4,0,0.6,0.2C282.1,411.1,281.9,411,281.7,411z"/>
<path class="st6" d="M283.8,411.3c0.1,0.1,0.2,0.2,0.2,0.3c-0.2,0-0.4,0-0.5-0.2C283.6,411.4,283.7,411.3,283.8,411.3z"/>
<path class="st6" d="M226.2,412.1c0.1-0.2,0.3-0.3,0.5-0.2C226.5,411.9,226.3,412,226.2,412.1z"/>
<path class="st6" d="M285.2,411.9c0.2,0,0.4,0,0.5,0.2C285.5,412,285.3,411.9,285.2,411.9z"/>
<path class="st6" d="M223.2,412.9c0.1-0.2,0.2-0.3,0.5-0.2C223.5,412.8,223.3,412.9,223.2,412.9z"/>
<path class="st7" d="M235,324.7c-0.2-0.1-0.3-0.3-0.5-0.4c4.3-1.1,8.6-1.9,13-2.2c0,0.2,0,0.3,0,0.5c-0.1,0.1-0.2,0.2-0.2,0.3
	c-0.7-0.1-1.3,0.1-2,0.2c-0.5,0-1.1-0.2-1.5,0.3c-0.7-0.2-1.3,0.1-2,0.2c-0.4,0-0.7-0.1-1,0.2c-0.5,0.1-1.1,0.1-1.6,0.2
	c-0.2,0-0.5,0-0.6,0.2c-0.5,0.1-1,0.1-1.6,0.2c-0.2,0-0.4,0-0.5,0.2c-0.4,0.1-0.8,0.1-1.2,0.2C235.2,324.8,235.1,324.7,235,324.7z"
	/>
<path class="st7" d="M282.6,325.9c0,0.2-0.1,0.3-0.1,0.5c-2.9-0.8-5.9-1.7-8.9-2.3c-0.8-0.2-1.7-0.2-2.5-0.3
	c-0.1-0.1-0.2-0.2-0.3-0.3c0.2-0.1,0.3-0.3,0.5-0.4c3.6,0.6,7.1,1.4,10.6,2.5C282.1,325.6,282.4,325.7,282.6,325.9z"/>
<path class="st4" d="M251.8,321.8c3.1-0.4,6.1-0.2,9.2-0.1c1.3,0.1,2.6,0.2,3.8,0.3c0,0.1,0,0.2,0,0.3c-0.5,0-0.9,0-1.4,0.1
	c-0.6,0-1.1-0.1-1.7-0.1c-0.5-0.6-1.2-0.4-1.8-0.4c-2.7,0-5.4-0.1-8.1-0.1C251.8,322,251.8,321.8,251.8,321.8z"/>
<path class="st5" d="M251.8,322c2.7,0,5.4,0,8.1,0.1c0.6,0,1.3-0.2,1.8,0.4c-2.6,0-5.3-0.1-7.9-0.1c-1.1,0-2.3,0.1-3.4,0.1
	c0-0.1,0-0.2,0-0.3C250.9,322.1,251.4,322,251.8,322z"/>
<path class="st4" d="M271.3,323c-0.2,0.1-0.3,0.3-0.5,0.4c-0.1,0-0.2,0.1-0.4,0.1c-0.7-0.1-1.3-0.3-2-0.2c-0.4-0.5-1-0.3-1.5-0.3
	c-0.3-0.1-0.6-0.1-0.8-0.2c0-0.1,0-0.2,0-0.2c0.3,0,0.6-0.1,0.9-0.1C268.5,322.3,269.9,322.8,271.3,323z"/>
<path class="st4" d="M250.5,322.1c0,0.1,0,0.2,0,0.3c-0.1,0.1-0.3,0.1-0.4,0.2c-0.9,0-1.7,0-2.6,0c0-0.2,0-0.3,0-0.5
	c0.6,0,1.1,0,1.7,0C249.6,322.1,250,322.1,250.5,322.1z"/>
<path class="st5" d="M266.1,322.6c0,0.1,0,0.2,0,0.2c-0.9-0.1-1.8-0.2-2.7-0.3c0.5,0,0.9,0,1.4-0.1
	C265.2,322.5,265.7,322.5,266.1,322.6z"/>
<path class="st6" d="M247.5,322.6c0.9,0,1.7,0,2.6,0c-0.9,0.6-1.9,0.3-2.8,0.3C247.3,322.7,247.4,322.6,247.5,322.6z"/>
<path class="st9" d="M285.6,327.2c0.5-0.3,0.6-0.3,0.8,0.5C286.2,327.5,285.9,327.4,285.6,327.2z"/>
<path class="st6" d="M267,323.1c0.5,0,1.1-0.2,1.5,0.3C268,323.3,267.4,323.5,267,323.1z"/>
<path class="st6" d="M243.8,323.3c0.4-0.5,1-0.3,1.5-0.3C244.9,323.5,244.3,323.3,243.8,323.3z"/>
<path class="st6" d="M240.8,323.7c0.3-0.3,0.6-0.3,1-0.2C241.5,323.8,241.2,323.8,240.8,323.7z"/>
<path class="st6" d="M231.4,325.9c0.1-0.2,0.2-0.3,0.4-0.2C231.7,325.8,231.6,325.9,231.4,325.9z"/>
<path class="st6" d="M270.5,323.5c0.1,0,0.2-0.1,0.4-0.1c0.1,0.1,0.2,0.2,0.3,0.3C270.9,323.7,270.7,323.6,270.5,323.5z"/>
<path class="st6" d="M238.6,324.2c0.1-0.3,0.4-0.3,0.6-0.2C239,324,238.8,324.1,238.6,324.2z"/>
<path class="st6" d="M236.5,324.6c0.1-0.2,0.3-0.3,0.5-0.2C236.9,324.6,236.7,324.6,236.5,324.6z"/>
<path class="st6" d="M235,324.7c0.1,0,0.2,0.1,0.3,0.1c-0.2,0.1-0.4,0.2-0.6,0.2C234.8,324.9,234.9,324.8,235,324.7z"/>
<path class="st4" d="M283.5,380.3c0.1-0.1,0.3-0.2,0.4-0.3c1-0.1,1.8,0.4,2.7,0.6c8.7,2.8,17,6.6,24.7,11.6c0.4,0.2,0.7,0.5,1.1,0.7
	c0.1,0,0.3,0,0.4-0.1c0.1-0.1,0.1-0.3,0.1-0.4c-0.2-0.5-0.3-1-0.5-1.4c-2.6-6.4-5.3-12.7-7.9-19.1c-1.1-2.6-2.2-5.2-3.2-7.8
	c-0.3-0.7-0.6-1.5-1.3-1.9c0.1-0.4,0.4-0.7,0.8-0.8c0.5,0.4,0.3,1.1,0.7,1.6c2.7,6.4,5.3,12.7,8,19.1c1.4,3.3,2.7,6.6,4.1,10
	c0.1,0.3,0.2,0.5,0.3,0.8c0,0.2,0.1,0.3,0.3,0.3c0.4-0.4,0.4-1,0.5-1.5c0.1-0.7,0.3-1.5,0.5-2.2c0.2,0,0.3,0,0.5,0
	c0.1,1.4-0.5,2.6-0.7,3.9c0,0.6-0.1,1.1-0.2,1.7c-0.2,0-0.3,0-0.5,0c-0.5-0.8-1.3-1.2-2-1.6c-8.6-5.8-17.9-10-27.8-13
	C284.1,380.5,283.8,380.4,283.5,380.3z"/>
<path class="st4" d="M224.1,381.3c0,0.2,0,0.3,0,0.5c-4.2,1.5-8.3,3.1-12.2,5c-0.4,0.2-0.7,0.4-1.2,0.3c0-0.2,0.1-0.4,0.3-0.5
	c4-2,8.2-3.7,12.5-5.2C223.6,381.3,223.8,381.3,224.1,381.3z"/>
<path class="st4" d="M201.7,392.3c0-0.2-0.1-0.3-0.1-0.5c2.5-1.7,5.2-3.2,7.9-4.6c0.4-0.2,0.7-0.4,1.2-0.3c0,0.1,0,0.3-0.1,0.4
	C207.6,389,204.6,390.7,201.7,392.3z"/>
<path class="st4" d="M197.7,395.2c-0.2,0-0.4,0-0.6,0c0-0.7,0.1-1.4,0.1-2.1c0.9,0.3,1,0.9,0.9,1.7C198,395,197.8,395.1,197.7,395.2
	z"/>
<path class="st6" d="M228.8,380.5c0.2-0.3,0.6-0.3,0.9-0.3C229.5,380.5,229.2,380.5,228.8,380.5z"/>
<path class="st6" d="M230.5,380c0.1-0.2,0.3-0.3,0.5-0.2C230.8,379.9,230.7,380,230.5,380z"/>
<path class="st5" d="M210.2,273.1c0-0.2-0.1-0.3-0.1-0.5c0,0,0,0,0,0c0.2,0,0.3,0,0.5,0c0.5-0.1,0.9-0.2,1.4-0.4
	c0,0.7,0.7,0.9,1.1,1.2c3.7,2.5,7.2,5.3,10.4,8.3c0.6,0.6,1.2,1.2,1.8,1.8c0.2,0.2,0.1,0.4,0,0.6c-0.7-0.3-1.1-0.9-1.6-1.4
	c-3.5-3.2-7.1-6.2-11.1-8.9c-0.5-0.3-1-0.6-1.5-0.9C210.9,272.8,210.6,273.1,210.2,273.1z"/>
<path class="st7" d="M205.5,300.3c-3-2.7-6.1-5.1-9.2-7.6c0.2,0,0.4-0.1,0.6-0.1c3.1,2,5.9,4.4,8.6,7
	C205.5,299.8,205.5,300,205.5,300.3z"/>
<path class="st5" d="M226.2,285.1c0.3-0.3,0.5-0.2,0.7,0c0.8,0.8,1.6,1.6,2.4,2.5c1.5,1.7,3.1,3.4,4.3,5.4c0,0.2-0.1,0.4-0.1,0.7
	c-2.2-2.5-4.1-5.1-6.4-7.4C226.8,285.9,226.4,285.6,226.2,285.1z"/>
<path class="st5" d="M214.5,310c-1.5-1.8-3.1-3.5-4.6-5.3c0.2,0,0.5,0,0.7,0c1.6,1.6,3.1,3.3,4.4,5.2C214.9,310,214.7,310,214.5,310
	z"/>
<path class="st4" d="M210.7,304.8c-0.2,0-0.5,0-0.7,0c-1.5-1.5-3-3-4.4-4.5c0-0.2,0-0.5,0-0.7C207.4,301.1,209.1,302.9,210.7,304.8z
	"/>
<path class="st7" d="M233.6,293.6c0-0.2,0.1-0.4,0.1-0.7c1,1.1,1.9,2.3,2.6,3.5c-0.2,0-0.3,0-0.5,0
	C234.9,295.7,234.2,294.7,233.6,293.6z"/>
<path class="st4" d="M235.7,296.6c0.2,0,0.3,0,0.5,0c0.5,0.3,0.5,1.1,1.2,1.1c0.1,0.3,0.3,0.5,0.6,0.5c0.2,0,0.5,0,0.7,0
	c0,0.1,0,0.3,0,0.4c-0.6,0.1-1.2,0.3-1.7,0.7c0-0.4,0-0.8-0.3-1.1C236.5,297.7,236.1,297.2,235.7,296.6z"/>
<path class="st4" d="M214.5,310c0.2,0,0.3,0,0.5-0.1c0.7,0.7,1.3,1.4,1.7,2.2c-0.1,0.1-0.2,0.2-0.4,0.4
	C215.8,311.7,215.1,310.8,214.5,310z"/>
<path class="st4" d="M196.9,292.6c-0.2,0-0.4,0.1-0.6,0.1c-0.1,0-0.2,0-0.3-0.2c0-0.2,0-0.4,0-0.7
	C196.3,292.1,196.6,292.4,196.9,292.6z"/>
<path class="st7" d="M196,291.9c0,0.2,0,0.4,0,0.7c-0.4-0.2-0.7-0.3-1-0.7c0.2,0,0.4-0.1,0.6-0.1C195.8,291.7,195.9,291.8,196,291.9
	z"/>
<path class="st7" d="M250.5,322.1c-0.4,0-0.9-0.1-1.3-0.1c0.9-0.2,1.7-0.4,2.6-0.2c0,0,0,0.2,0,0.2
	C251.4,322,250.9,322.1,250.5,322.1z"/>
<path class="st7" d="M266.1,322.6c-0.5,0-0.9-0.1-1.4-0.1c0-0.1,0-0.2,0-0.3c0.8-0.1,1.5,0,2.2,0.4
	C266.7,322.5,266.4,322.6,266.1,322.6z"/>
<path class="st5" d="M211.6,239.4c0.2,0,0.3,0,0.5,0c0.7,1.5,0.6,3.1,0.8,4.6c0.5,3.8,0.6,7.7,0.5,11.6c0,4.5-0.5,8.9-1.2,13.3
	c-0.1,0.6-0.1,1.1-0.1,1.7c-0.1,0.1-0.2,0.1-0.3,0.1c-0.1-0.1-0.3-0.2-0.4-0.3c0,0-0.2,0-0.2,0c0.5-0.9,0.4-2,0.6-2.9
	c0.9-6.1,1.3-12.2,0.9-18.4C212.3,245.8,212,242.6,211.6,239.4z"/>
<path class="st6" d="M211.1,270.3c0,0,0.2,0,0.2,0c-0.1,0-0.1,0.1-0.2,0.1C211.1,270.5,211.1,270.3,211.1,270.3z"/>
<path class="st7" d="M210.7,272.7c-0.2,0-0.3,0-0.5,0c0.1-0.3,0.3-0.3,0.5-0.4C210.7,272.4,210.7,272.6,210.7,272.7z"/>
<path class="st7" d="M275.7,211.7c0.1-0.1,0.2-0.3,0.3-0.4c2.3,3.1,4.7,6.2,7.3,9.1c-0.2,0-0.5,0-0.7,0
	C280.1,217.7,277.8,214.8,275.7,211.7z"/>
<path class="st7" d="M296.8,232.9c-2.8-1.7-5.2-3.8-7.6-6c-0.2-0.1-0.2-0.3-0.2-0.6c0.2,0,0.4,0,0.6,0.1c2.6,2.1,5.2,4.2,7.8,6.3
	C297.2,232.9,297,232.9,296.8,232.9z"/>
<path class="st5" d="M282.6,220.3c0.2,0,0.5,0,0.7,0c1.6,1.7,3.3,3.3,4.9,5c0,0.2,0,0.4,0,0.6C286.1,224.3,284.3,222.4,282.6,220.3z
	"/>
<path class="st4" d="M296.8,232.9c0.2,0,0.4-0.1,0.6-0.1c0.2,0,0.4,0.1,0.4,0.3c0,0.2-0.1,0.4-0.1,0.5
	C297.4,233.4,297.1,233.2,296.8,232.9z"/>
<path class="st7" d="M297.7,233.7c0-0.2,0.1-0.4,0.1-0.5c0.3,0.1,0.7,0.3,0.9,0.6c-0.2,0-0.4,0.1-0.6,0.1
	C297.9,233.8,297.8,233.8,297.7,233.7z"/>
<path class="st7" d="M288.2,226c0-0.2,0-0.4,0-0.6c0.3,0.1,0.5,0.3,0.4,0.6C288.5,226.1,288.3,226.1,288.2,226z"/>
<path class="st7" d="M289.1,226.4c-0.4,0.1-0.6,0-0.5-0.5C289,225.9,289.1,226,289.1,226.4z"/>
<path class="st7" d="M231.4,216.8c0,0.2,0,0.4,0.1,0.6c-1.4,2-3.1,3.7-4.7,5.4c-0.2,0.2-0.5,0.3-0.7,0.1c0.4-0.9,1.2-1.4,1.8-2.1
	C229,219.5,230.2,218.1,231.4,216.8z"/>
<path class="st7" d="M222.5,226.9c-0.2,0-0.4-0.1-0.6-0.1c0.7-0.7,1.4-1.4,2.1-2c0.2-0.1,0.4-0.1,0.5,0.1
	C224.1,225.7,223.3,226.4,222.5,226.9z"/>
<path class="st7" d="M238,210c0-0.1,0-0.3,0-0.4c0.1-0.1,0.3-0.3,0.4-0.4c3.2,0.5,6.5,1.1,9.8,1.3c1.1,0.1,2.1,0.3,3.2,0.4
	c0,0.1,0,0.3,0,0.4c-2.5,0.1-5-0.3-7.5-0.6c-1.7-0.2-3.4-0.5-5.1-0.8C238.5,209.8,238.2,209.8,238,210z"/>
<path class="st7" d="M273.5,209.1c0.1,0.2,0.2,0.4,0.3,0.6c-2.2,0.3-4.3,0.7-6.5,1c-0.7,0.1-1.4,0.1-2.1,0.2c0-0.2,0-0.3,0-0.5
	C268,209.9,270.7,209.5,273.5,209.1z"/>
<path class="st4" d="M251.4,211.2c0-0.1,0-0.3,0-0.4c3,0,6,0,9,0c0.1,0,0.3,0.1,0.4,0.1c0,0.1,0,0.2,0,0.3
	C257.7,211.4,254.5,211.4,251.4,211.2z"/>
<path class="st7" d="M260.9,210.9c-0.1,0-0.3-0.1-0.4-0.1c1-0.3,2-0.4,3.1-0.3c0,0.1,0,0.2,0,0.3
	C262.6,210.8,261.8,210.8,260.9,210.9z"/>
<path class="st4" d="M263.5,210.7c0-0.1,0-0.2,0-0.3c0.6,0,1.2-0.1,1.7-0.1c0,0.2,0,0.3,0,0.5c0,0-0.2,0-0.2,0s-0.2,0-0.2,0
	C264.4,210.8,264,210.8,263.5,210.7z"/>
<path class="st4" d="M238.4,209.1c-0.1,0.1-0.3,0.3-0.4,0.4c-0.2,0-0.5,0-0.6-0.3c0-0.1,0.2-0.2,0.2-0.2
	C237.9,209,238.1,209.1,238.4,209.1z"/>
<path class="st5" d="M314,393.4c-0.2,0-0.3-0.1-0.3-0.3C313.8,393.1,313.9,393.3,314,393.4z"/>
<path class="st6" d="M211.7,236.9c-0.1-0.3-0.2-0.6,0-0.7c0.3-0.2,0.5,0,0.7,0.3C212.3,236.6,212,236.8,211.7,236.9z"/>
<path class="st6" d="M211.7,270.7c0.1,0,0.2-0.1,0.3-0.1c0,0.3,0.1,0.6,0.4,0.8c-0.2,0.2-0.4,0.4-0.6,0.2c-0.1-0.1-0.1-0.4-0.1-0.6
	C211.7,270.9,211.7,270.8,211.7,270.7z"/>
<path class="st5" d="M263.5,210.7c0.5,0,0.9,0.1,1.4,0.1c-1.3,0.2-2.6,0.5-4,0.4c0-0.1,0-0.2,0-0.3
	C261.8,210.8,262.6,210.8,263.5,210.7z"/>
<path class="st9" d="M211.1,361.9c0,0.3,0,0.5,0,0.8C210.7,362.4,210.7,362.3,211.1,361.9z"/>
<path class="st5" d="M366.2,360.6c1.5-1.5,3-3,4.7-4.3c0.1,0.1,0.3,0.2,0.4,0.3c-1.6,1.4-3.2,2.9-4.8,4.3
	C366.4,360.9,366.3,360.7,366.2,360.6z"/>
<path class="st7" d="M366.2,360.6c0.1,0.1,0.2,0.3,0.3,0.4c-1.2,1.2-2.3,2.3-3.5,3.5c-0.1-0.1-0.3-0.2-0.4-0.4
	C363.7,362.9,364.9,361.7,366.2,360.6z"/>
<path class="st4" d="M371.3,356.7c-0.1-0.1-0.3-0.2-0.4-0.3c0.9-0.9,1.9-1.7,3-2.4c0,0.2,0,0.4,0.1,0.6
	C373,355.2,372.1,356,371.3,356.7z"/>
<path class="st7" d="M340.5,342.8c-0.2,0-0.5,0-0.7,0c2.5-2.9,5.4-5.6,8.3-8.1c4.5-3.9,9.3-7.4,14.5-10.4c0.7-0.4,1.3-0.9,2.1-1.1
	c0.2,0,0.5,0.1,0.7,0.1c-0.3,0.2-0.6,0.4-0.9,0.6c-8.5,4.9-16.2,10.9-23,17.9C341.1,342.3,340.8,342.5,340.5,342.8z"/>
<path class="st4" d="M365.3,323.4c-0.2,0-0.5-0.1-0.7-0.1c0.3-0.3,0.6-0.5,1-0.4C365.9,323.3,365.6,323.4,365.3,323.4z"/>
<path class="st9" d="M396.9,312.1c-0.2,0-0.4,0-0.6,0c-0.1,0-0.2-0.1-0.3-0.1c0.1-0.1,0.2-0.1,0.3-0.2c0.1,0,0.3,0,0.4,0
	C396.8,311.9,396.9,312,396.9,312.1z"/>
<path class="st5" d="M364.2,297.4c-0.1,0.1-0.2,0.2-0.4,0.3c-0.6-0.6-0.9-1.4-1.3-2.2c-3.8-7-6.5-14.3-8.3-22c0.1-0.2,0-0.3-0.2-0.4
	c-0.2-1.3-0.4-2.5-0.6-3.8c-1.2-6.4-1.6-12.9-1.3-19.5c0.1-2.4,0.3-4.9,0.6-7.3c0.1-0.6,0.1-1.3,0.4-1.9c0.2,0,0.3,0,0.5,0
	c-0.1,1.6-0.3,3.1-0.5,4.7c-0.6,5.5-0.5,11,0,16.6c0.8,9.5,3.3,18.6,7.1,27.4C361.4,292.1,362.9,294.7,364.2,297.4z"/>
<path class="st4" d="M353.5,240.7c-0.2,0-0.3,0-0.5,0c0-0.4,0.1-0.9,0.1-1.3c0.2,0,0.3,0,0.5,0C353.6,239.8,353.6,240.3,353.5,240.7
	z"/>
<path class="st8" d="M354,273.1c0.2,0.1,0.3,0.2,0.2,0.4C354.1,273.4,354.1,273.3,354,273.1z"/>
<path class="st7" d="M338.4,310.7c0-0.2,0-0.4-0.1-0.6c2.9-2.1,6.1-3.8,9.3-5.4c3.5-1.7,7-3.2,10.7-4.3c0.1,0.1,0.3,0.3,0.4,0.4
	c-2.1,0.8-4.2,1.6-6.2,2.4c-4.4,1.8-8.6,4-12.6,6.6C339.4,310.2,338.9,310.4,338.4,310.7z"/>
<path class="st7" d="M365.2,299.1c0,0.1,0,0.2,0,0.4c-0.5-0.1-0.9-0.2-1.5-0.1c-1.2,0.4-2.5,0.7-3.7,1c0-0.2,0-0.3,0-0.5
	c0.7-0.5,1.6-0.5,2.4-0.9c0.3-0.1,0.6-0.1,0.7-0.4C363.8,299.1,364.5,299.2,365.2,299.1z"/>
<path class="st4" d="M360,300c0,0.2,0,0.3,0,0.5c-0.4,0.1-0.9,0.3-1.3,0.4c-0.1-0.1-0.3-0.3-0.4-0.4
	C358.9,300.3,359.4,299.9,360,300z"/>
<path class="st4" d="M132.3,191.3c-0.1-0.2-0.3-0.3-0.4-0.5c7.9-2.9,15.3-6.7,22.3-11.4c0.2-0.1,0.4-0.2,0.6-0.3
	c0.2,0,0.4,0.1,0.6,0.1c-1,1-2.3,1.7-3.5,2.4C145.7,185.6,139.2,188.9,132.3,191.3z"/>
<path class="st7" d="M92.9,175.3c0-0.1,0-0.3,0-0.4c0.6-0.6,1.3-0.4,2-0.6c2.8-0.8,5.6-1.6,8.4-2.3c0,0.2,0,0.3,0,0.5
	c-0.9,0.7-2,0.8-3,1.1C97.9,174.1,95.4,174.8,92.9,175.3z"/>
<path class="st6" d="M89.7,176.1c0.3-0.4,0.7-0.3,1.1-0.3C90.5,176.2,90.1,176.2,89.7,176.1z"/>
<path class="st6" d="M91.8,175.7c0.1-0.3,0.4-0.3,0.6-0.2C92.3,175.5,92.1,175.6,91.8,175.7z"/>
<path class="st9" d="M146.7,209c0.1-0.1,0.2-0.2,0.4-0.3c0.1,0,0.3,0,0.4,0c0.1,0.1,0.4,0.2,0.1,0.4c-0.2,0.1-0.3,0.3-0.5,0.4
	C147,209.3,146.8,209.1,146.7,209z"/>
<path class="st9" d="M116.2,195.7c-0.3,0.3-0.7,0.3-1.1,0.3C115.4,195.5,115.8,195.8,116.2,195.7z"/>
<path class="st7" d="M421.2,175.3c-0.2,0.1-0.3,0.2-0.5,0.4c-4-0.7-7.9-1.8-11.8-3c-0.3-0.1-0.5-0.2-0.8-0.4
	c0.1-0.1,0.3-0.3,0.4-0.4c4,1.2,8,2.3,12.1,3.1C420.8,175,421,175.2,421.2,175.3z"/>
<path class="st7" d="M348.4,173.1c0.1-0.1,0.2-0.2,0.4-0.3c2.3,1.8,4.7,3.7,7,5.5c-0.2,0-0.4,0.1-0.6,0.1
	C352.8,176.9,350.5,175.1,348.4,173.1z"/>
<path class="st4" d="M373.5,152.9c-0.1,0.1-0.3,0.2-0.4,0.3c-1.6-1.2-3.1-2.4-4.5-3.8c0.2,0,0.4-0.1,0.6-0.1
	C370.6,150.5,372,151.7,373.5,152.9z"/>
<path class="st5" d="M362.6,143.7c0.1-0.1,0.2-0.2,0.4-0.4c1.2,1.2,2.3,2.3,3.5,3.5c-0.1,0.1-0.2,0.3-0.3,0.4
	C364.9,146.1,363.7,144.9,362.6,143.7z"/>
<path class="st7" d="M366.2,147.2c0.1-0.1,0.2-0.3,0.3-0.4c0.9,0.8,1.9,1.6,2.7,2.5c-0.2,0-0.4,0.1-0.6,0.1
	C367.7,148.8,366.9,148,366.2,147.2z"/>
<path class="st9" d="M396.4,196.1c-0.2-0.1-0.4-0.2-0.5-0.2c0.2-0.2,0.4-0.4,0.6-0.6c0.1,0,0.3,0,0.4,0c0,0.1,0.1,0.3,0.1,0.4
	C396.7,195.8,396.5,195.9,396.4,196.1z"/>
<path class="st7" d="M357.1,179.2c-0.2,0-0.4,0.1-0.6,0.1c-0.2,0-0.3,0-0.3-0.2c0-0.2,0-0.4,0-0.6
	C356.5,178.7,356.9,178.8,357.1,179.2z"/>
<path class="st4" d="M356.1,178.5c0,0.2,0,0.4,0,0.6c-0.3-0.2-0.7-0.3-0.9-0.7c0.2,0,0.4-0.1,0.6-0.1
	C356,178.3,356.1,178.3,356.1,178.5z"/>
<path class="st7" d="M357.9,206.9c0.1-0.1,0.3-0.3,0.4-0.4c1.7,0.6,3.5,1.1,5.2,1.7c-0.2,0.1-0.3,0.3-0.5,0.4
	C361.3,208.1,359.5,207.7,357.9,206.9z"/>
<path class="st9" d="M364.3,209.5c-0.2-0.1-0.5-0.1-0.7-0.2c0,0-0.1-0.2-0.1-0.2c0.2-0.1,0.4-0.2,0.2-0.5c0.3,0.3,0.8,0,1.1,0.4
	C364.6,209.2,364.5,209.3,364.3,209.5z"/>
<path class="st5" d="M270.4,99.5c0-0.2,0-0.3,0-0.5c1.3-0.6,2.8-0.4,4.2-0.8c0.7-0.2,1.5-0.3,2.3-0.4c0.2,0.3,0.6,0.4,0.9,0.4
	C275.4,98.9,272.9,99.3,270.4,99.5z"/>
<path class="st7" d="M312.4,171.9c0.1-0.1,0.2-0.3,0.3-0.4c3,4.3,6.1,8.4,9.7,12.2c0.1,0.1,0.2,0.4,0.3,0.5
	c-0.1,0.1-0.3,0.2-0.3,0.2c-0.2-0.1-0.4-0.2-0.5-0.4C318.4,180.2,315.1,176.3,312.4,171.9z"/>
<path class="st7" d="M332.8,193c-0.1,0.1-0.3,0.2-0.4,0.3c-2.6-1.8-4.9-3.9-7.1-6c-0.2-0.2-0.4-0.4-0.3-0.7c0.2,0,0.4,0,0.6,0.1
	C328,188.8,330.4,190.9,332.8,193z"/>
<path class="st5" d="M322.8,184.2c0.9,0.7,1.8,1.3,2.2,2.4c-1.2-0.5-1.9-1.2-2.3-2.2C322.7,184.3,322.8,184.2,322.8,184.2z"/>
<path class="st4" d="M269.6,130.7c-0.3,0-0.7-0.1-0.9-0.4c0.4-0.1,0.9-0.1,1.3-0.2c0.3,0.1,0.6,0,0.8-0.2c0.7,0,1.5,0,2.2-0.1
	c0,0.1,0,0.3,0,0.4C271.9,130.4,270.8,130.8,269.6,130.7z"/>
<path class="st6" d="M270.8,129.9c-0.2,0.2-0.5,0.3-0.8,0.2C270.3,129.9,270.5,129.8,270.8,129.9z"/>
<path class="st4" d="M268.7,156.7c-0.8,0-1.6-0.1-2.3-0.1c0.1-0.1,0.1-0.2,0.2-0.3c3.3-0.1,6.5-1,9.7-1.7c0.5-0.1,1-0.1,1.5-0.2
	c0,0.2,0,0.3,0,0.5C274.8,155.7,271.8,156.4,268.7,156.7z"/>
<path class="st6" d="M266.6,156.3c-0.1,0.1-0.1,0.2-0.2,0.3c-0.2,0-0.5-0.1-0.7-0.1C266,156.3,266.3,156.3,266.6,156.3z"/>
<path class="st9" d="M313.8,113c0.3,0.1,0.3,0.4,0.3,0.7c0,0.1-0.1,0.1-0.1,0.2c-0.1-0.1-0.2-0.1-0.2-0.2
	C313.7,113.4,313.7,113.2,313.8,113C313.7,113,313.8,113,313.8,113z"/>
<path class="st0" d="M205.2,130.8c-0.3,0-0.5,0.1-0.6,0.4c-0.3-0.1-0.7-0.1-0.8-0.6c-0.1-0.7-0.1-1.4-0.1-2.2c0-0.6,0.1-1.1,0.1-1.7
	c0-2.6,0-5.3,0-7.9c0-0.5-0.1-1-0.2-1.5c0-0.2,0.1-0.4,0.1-0.6c0-4.8,0-9.5,0-14.3c0-1,0-2,0-3c0.1-2.8,1.3-5,3.7-6.4
	c0.7-0.5,1.5-0.8,2.3-1.2c0.4-0.2,0.8-0.4,1-0.8c0.3-0.1,0.7-0.2,1-0.2c3.4-1.8,6.9-3.6,10.3-5.4c0.1-0.1,0.3,0,0.4,0
	c0.1,0,0.1,0,0.2,0.1c0,0.1,0.1,0.1,0.1,0.2c0,0.1,0,0.3,0,0.4c0,2.9,0,5.9,0,8.8c0,0.3,0.1,0.5,0.1,0.8c-0.3,0.8-0.2,1.6-0.2,2.4
	c0,6,0,12.1,0,18.1c0,0.7,0,1.4-0.1,2.1c-0.5,2.6-1.9,4.5-4.2,5.7c-0.4,0-0.7,0-0.9,0.5C213.5,126.5,209.3,128.6,205.2,130.8z
	 M205.6,113.4c0,0,0.1,0,0.1,0c0,4.6,0,9.2,0,13.8c0,0.8,0.3,0.9,0.9,0.6c2-1,4-2,6-3c1.7-0.9,3.3-1.7,5-2.6c1.9-1,2.9-2.5,3.2-4.6
	c0.1-0.8,0.1-1.6,0.1-2.4c0-7.5,0-15,0-22.5c0-1.2,0-2.4,0-3.7c0-0.7-0.3-0.9-0.9-0.6c-3.8,2-7.5,3.9-11.3,5.9
	c-1.9,1-2.9,2.7-3.1,4.9c-0.1,0.6,0,1.2,0,1.7C205.6,105.2,205.6,109.3,205.6,113.4z"/>
<path class="st7" d="M178.6,193.9c-0.3,0-0.6,0-0.8,0c2-1.7,4-3.3,5.9-5c6-5.3,11.1-11.4,15.5-18.1c0.3-0.5,0.7-1.1,1.1-1.6
	c0.1,0.2,0.2,0.3,0.3,0.5c-2.5,4.3-5.5,8.2-8.8,12c-3.5,4-7.3,7.7-11.5,11C179.8,193.1,179.2,193.5,178.6,193.9z"/>
<path class="st5" d="M203.8,126.8c0,0.6-0.1,1.1-0.1,1.7c-1.1-1.8-1.7-3.9-2.6-5.9c-1.1-2.4-2-4.9-3-7.3c-0.1-0.4-0.3-0.6-0.8-0.5
	c0-0.3,0-0.6,0-0.9c0,0,0,0,0,0c0.8,0.3,0.8,0.3,0.9-0.5c1.4,1,2.9,1.9,4.3,2.9c0,0.2,0,0.4,0,0.6c-1.2-0.7-2.5-1.5-3.8-2.3
	c0.1,0.4,0.1,0.6,0.1,0.8c1.4,3.5,2.9,7,4.4,10.5C203.3,126.1,203.3,126.6,203.8,126.8z"/>
<path class="st4" d="M197.3,113.8c0,0.3,0,0.6,0,0.9c0,0.3-0.1,0.5-0.1,0.8c-0.2,0-0.3,0-0.5,0c0.1-0.6,0.1-1.1,0.2-1.7
	C197.1,113.8,197.2,113.8,197.3,113.8z"/>
<path class="st7" d="M211.8,90.7c-0.3,0.1-0.7,0.2-1,0.2c-0.3-0.2-0.6-0.4-0.9-0.5c0.1-0.1,0.3-0.3,0.4-0.4
	C210.8,90.3,211.3,90.5,211.8,90.7z"/>
<path class="st7" d="M244.9,130.7c0,0.2,0,0.3,0,0.5c-2.4,0-4.7-0.5-7-0.9c-3.7-0.6-7.3-1.5-10.9-2.5c-0.4-0.1-0.8-0.3-1.2-0.5
	c0.1-0.1,0.3-0.3,0.4-0.4c3.9,1.1,7.9,2.1,11.9,2.8c1.5,0.3,3,0.4,4.4,0.6C243.3,130.4,244.1,130.6,244.9,130.7z"/>
<path class="st5" d="M217.6,124.4c0.1-0.5,0.5-0.5,0.9-0.5c1,0.5,2.1,1,3.1,1.5c0,0.2,0,0.3,0,0.5
	C220.2,125.4,218.9,124.9,217.6,124.4z"/>
<path class="st4" d="M221.5,125.9c0-0.2,0-0.3,0-0.5c0.8,0,1.4,0.4,2.1,0.6c-0.2,0.1-0.3,0.3-0.5,0.4
	C222.6,126.5,222.1,126,221.5,125.9z"/>
<path class="st4" d="M226.3,126.9c-0.1,0.1-0.3,0.3-0.4,0.4c-0.6-0.2-1.1-0.3-1.7-0.5c0-0.2,0-0.3,0-0.5
	C224.9,126.2,225.6,126.7,226.3,126.9z"/>
<path class="st7" d="M224.1,126.3c0,0.2,0,0.3,0,0.5c-0.3-0.1-0.6-0.2-0.9-0.4c0.2-0.1,0.3-0.3,0.5-0.4
	C223.9,126,224,126.1,224.1,126.3z"/>
<path class="st9" d="M225,180.6c0.3,0,0.6,0,0.8-0.1c0.1,0,0.2,0.1,0.3,0.1c-0.3,0.4-0.8,0.3-1.2,0.4C225,180.8,225,180.7,225,180.6
	z"/>
<path class="st4" d="M198.2,113.3c-0.2,0.8-0.2,0.8-0.9,0.5c0-0.5-0.1-0.9,0.3-1.3C197.8,112.8,198,113.1,198.2,113.3z"/>
<path class="st4" d="M202.5,116.8c0-0.2,0-0.4,0-0.6c0.4,0.2,0.8,0.4,1.2,0.5c0,0.2-0.1,0.4-0.1,0.6
	C203.2,117.2,202.9,117,202.5,116.8z"/>
<path class="st2" d="M148.8,297.8c0,0.2,0,0.5,0.1,0.7c0,0.2-0.1,0.5-0.1,0.7c0,0.3,0.1,0.6,0.1,0.8c0,0.7-0.1,1.4-0.1,2.1
	c0,2.8,0,5.6,0,8.4c0,0.7,0,1.4,0,2.1c-0.8,0.2-1.2-0.2-1.7-0.5c-3.9-2.1-7.7-4.1-11.6-6.2c-0.7-0.4-1.4-0.7-2.1-1
	c-0.1-0.4-0.4-0.5-0.8-0.6c-1.8-1-3.7-2-5.5-2.9c-1.3-0.6-2.5-1.5-3.9-1.9c-0.1-0.3-0.3-0.4-0.7-0.4c-0.9-0.5-1.9-1.1-2.8-1.6
	c-0.7-0.3-0.9-0.8-0.9-1.5c0-2.9,0-5.7-0.1-8.6c0-1.1,0.1-2.3,0-3.4c-0.1-1,0.4-1.5,1.2-2c3.1-1.6,6.2-3.3,9.3-5
	c0.6-0.3,1.3-0.6,1.8-1.2c0.2-0.1,0.4-0.2,0.6-0.2c2.6-1.4,5.2-2.8,7.8-4.1c0.6-0.3,1.1-0.6,1.7-0.9c3.9-1.8,7.9,1.1,7.8,4.9
	c-0.1,3.5,0,7,0,10.6c0,2.9,0,5.9,0,8.8c-0.1,0.5-0.1,0.9,0.1,1.4C148.9,296.7,148.9,297.3,148.8,297.8z M147,291.4
	c0-4.4,0-9.5,0-14.6c0-0.6,0-1.2,0-1.7c-0.2-2.4-3-3.8-4.8-2.9c-0.5,0.3-1,0.5-1.5,0.8c-6.1,3.3-12.2,6.6-18.2,9.8
	c-0.4,0.2-0.7,0.4-1.1,0.6c-0.5,0.2-0.7,0.7-0.7,1.2c0,3.5,0,7.1,0,10.6c0,0.5,0.2,0.8,0.6,1c0.3,0.2,0.6,0.4,0.9,0.5
	c7.6,4.1,15.2,8.1,22.9,12.2c0.4,0.2,0.8,0.4,1.2,0.5c0.3,0.1,0.6,0,0.6-0.3c0.1-0.4,0.1-0.9,0.1-1.3c-0.1-2.9,0-5.9-0.1-8.8
	C146.8,296.8,146.9,294.5,147,291.4z"/>
<path class="st7" d="M132.5,304.4c0.3,0.1,0.7,0.1,0.8,0.6c-5,2.1-9.9,4.1-14.9,6.2c-0.5,0.2-0.9,0.4-1.4,0.6
	c-0.1,0-0.1,0.2-0.2,0.3c0,0.2,0.1,0.2,0.3,0.3c0.8,0.2,1.7,0.3,2.5,0.5c3,0.7,6,1.5,8.9,2.4c0.1,0,0.2,0.1,0.4,0.2
	c-0.1,0.1-0.3,0.3-0.4,0.4c-3.4-1-6.8-2-10.3-2.7c-0.9-0.2-1.8-0.4-2.7-0.5c-0.4-0.1-0.8,0.1-1.3,0.2c0-0.2-0.1-0.3-0.1-0.5
	c0,0,0.1,0,0.1,0c0.3,0,0.5,0,0.8,0c1.1-0.2,1.1-0.2,0.7-1.1c0.1-0.7,0.6-1.1,0.9-1.7c2-3,3.8-6.1,5.4-9.3c0.2-0.4,0.3-0.8,0.5-1.2
	c0.3,0,0.6,0.1,0.7,0.4c-0.3,0.6-0.7,1.3-1,1.9c-0.4,0.7-0.7,1.4-1.1,2.1c-0.3,0.6-0.7,1.2-1.1,1.9c-0.4,0.6-0.7,1.2-1.1,1.9
	c-0.4,0.7-0.9,1.3-1.3,2c-0.3,0.6-0.8,1-1,1.9c0.4-0.1,0.6-0.2,0.7-0.3c4.5-1.9,9-3.7,13.5-5.6C131.4,305.1,132,304.9,132.5,304.4z"
	/>
<path class="st5" d="M133.1,259.3c0.2,0,0.3,0,0.5,0c0.1,2.2-0.3,4.3-0.5,6.4c-0.3,2.7-0.8,5.4-1.2,8c-0.1,0.4-0.3,0.8-0.4,1.2
	c-0.1-0.2-0.3-0.3-0.4-0.5c0.8-4.4,1.5-8.8,1.7-13.3C132.8,260.5,132.8,259.9,133.1,259.3z"/>
<path class="st9" d="M115.6,311.4c0.4,0.9,0.3,0.9-0.7,1.1c-0.1-0.1-0.1-0.2-0.2-0.3C115.1,312,115.3,311.7,115.6,311.4z"/>
<path class="st4" d="M131.1,274.5c0.1,0.2,0.3,0.3,0.4,0.5c0,0.2,0.1,0.5,0.1,0.7c-0.2,0.1-0.4,0.2-0.6,0.2
	C131,275.4,131,274.9,131.1,274.5z"/>
<path class="st4" d="M114.7,312.2c0,0.1,0.1,0.2,0.2,0.3c-0.3,0-0.5,0-0.8,0C114.2,312.2,114.4,312.1,114.7,312.2z"/>
<path class="st5" d="M108.1,337.1c0,0.2,0,0.3,0,0.5c-2.4-0.8-4.7-1.7-7.1-2.5c0.4,0,0.7-0.1,1.1-0.1
	C104.2,335.5,106.2,336.1,108.1,337.1z"/>
<path class="st7" d="M102.1,335c-0.4,0-0.7,0.1-1.1,0.1c-0.9-0.2-1.9-0.4-2.8-0.6c-0.1-0.2-0.3-0.3-0.5-0.2
	c-0.6-0.2-1.2-0.4-1.7-0.6c0-0.2,0-0.3,0-0.5C98.1,333.7,100.1,334.2,102.1,335z"/>
<path class="st5" d="M96,333.3c0,0.2,0,0.3,0,0.5c-0.4,0-0.8-0.1-1.2-0.1c-0.1-0.2-0.3-0.3-0.6-0.2c-1.1-0.3-2.2-0.6-3.4-0.6
	c-0.1-0.1-0.1-0.2-0.2-0.3c0.5,0,1-0.1,1.5-0.1C93.5,332.5,94.7,332.8,96,333.3z"/>
<path class="st7" d="M92.2,332.4c-0.5,0-1,0.1-1.5,0.1c-0.2,0-0.5,0-0.7,0.1c-0.5-0.1-1-0.1-1.5-0.2c-0.1-0.1-0.2-0.2-0.3-0.3
	c0.2-0.1,0.3-0.3,0.5-0.4C89.8,331.9,91,331.9,92.2,332.4z"/>
<path class="st6" d="M89.9,332.6c0.2,0,0.5,0,0.7-0.1c0.1,0.1,0.2,0.2,0.2,0.3C90.5,332.9,90.2,332.9,89.9,332.6z"/>
<path class="st6" d="M97.7,334.3c0.2,0,0.4,0,0.5,0.2C98.1,334.5,97.9,334.4,97.7,334.3z"/>
<path class="st6" d="M94.3,333.5c0.2,0,0.4,0,0.6,0.2C94.6,333.6,94.4,333.6,94.3,333.5z"/>
<path class="st6" d="M88.1,332.1c0.1,0.1,0.2,0.2,0.3,0.3c-0.2-0.1-0.4-0.2-0.6-0.2C87.9,332.1,88,332.1,88.1,332.1z"/>
<path class="st7" d="M161.4,333.7c-2.4-1.8-4.8-3.6-7.3-5.3c-6.7-4.5-13.8-8.2-21.4-11c-0.4-0.1-0.8-0.3-1.2-0.5
	c0.1-0.1,0.3-0.3,0.4-0.4c10.7,3.7,20.4,9.2,29.2,16.3c0.2,0.2,0.4,0.4,0.6,0.6C161.6,333.5,161.5,333.6,161.4,333.7z"/>
<path class="st4" d="M171.7,309.2c-0.2,0.1-0.3,0.2-0.5,0.3c-3.4-1.9-6.9-3.9-10.5-5.4c-1.3-0.5-2.5-1.1-3.8-1.6c0-0.2,0-0.3,0-0.5
	c0.4,0,0.8,0.2,1.2,0.3C163,304.3,167.5,306.5,171.7,309.2z"/>
<path class="st7" d="M157,302.1c0,0.2,0,0.3,0,0.5c-2.3-0.7-4.6-1.5-6.8-2.2c-0.4-0.1-0.8-0.2-1.2-0.3c0-0.3-0.1-0.6-0.1-0.8
	c2.5,0.8,5,1.7,7.5,2.5C156.6,301.7,156.8,301.9,157,302.1z"/>
<path class="st4" d="M161.4,333.7c0.1-0.1,0.3-0.2,0.4-0.3c1.6,1.2,3.1,2.4,4.5,3.9c-0.2,0-0.4,0-0.6,0.1
	C164.2,336.1,162.8,334.9,161.4,333.7z"/>
<path class="st4" d="M131.9,316.5c-0.1,0.1-0.3,0.3-0.4,0.4c-1-0.3-2-0.6-3-1c0.1-0.1,0.3-0.3,0.4-0.4
	C130,315.6,130.9,316.1,131.9,316.5z"/>
<path class="st5" d="M148.9,296.2c-0.1-0.5-0.2-0.9-0.1-1.4c0.6-0.5,0.9-1.3,1.2-2c2.6-5.1,4.5-10.5,6-16c0.1-0.4,0.3-0.8,0.4-1.2
	c0.1,0.2,0.3,0.3,0.4,0.5c-1.6,6.8-4.2,13.3-7.5,19.4C149.3,295.8,149.1,296,148.9,296.2z"/>
<path class="st5" d="M156.6,274.9c0.8-3.7,1.5-7.4,1.9-11.2c0.1-0.7,0.1-1.4,0.1-2.1c0.1-0.8,0-1.6,0.4-2.3c0.2,0,0.3,0,0.5,0
	c0.1,1.9-0.3,3.7-0.4,5.6c-0.3,3.3-1,6.5-1.7,9.7c-0.1,0.3-0.2,0.5-0.3,0.8C156.9,275.2,156.8,275.1,156.6,274.9z"/>
<path class="st5" d="M158.3,242.4c0.2,0,0.3,0,0.5,0c0.1,0.2,0.2,0.4,0.3,0.6c0.1,2.1,0.6,4.2,0.5,6.4c-0.2,0-0.3,0-0.5,0
	c-0.1-0.3-0.2-0.5-0.2-0.8C158.7,246.5,158.5,244.5,158.3,242.4z"/>
<path class="st4" d="M159.1,249.4c0.2,0,0.3,0,0.5,0c0.2,3.3,0.2,6.6,0,9.9c-0.2,0-0.3,0-0.5,0C159.1,256,159.1,252.7,159.1,249.4z"
	/>
<path class="st4" d="M156.6,274.9c0.1,0.2,0.3,0.3,0.4,0.5c0,0.3-0.1,0.5-0.1,0.8c-0.1-0.2-0.3-0.3-0.4-0.5
	C156.6,275.4,156.6,275.2,156.6,274.9z"/>
</svg>
