<?xml version="1.0" encoding="utf-8"?>
<!-- Generator: Adobe Illustrator 23.0.2, SVG Export Plug-In . SVG Version: 6.00 Build 0)  -->
<svg version="1.1" id="Layer_1" xmlns="http://www.w3.org/2000/svg" xmlns:xlink="http://www.w3.org/1999/xlink" x="0px" y="0px"
	 viewBox="0 0 1889.7 1126.2" style="enable-background:new 0 0 1889.7 1126.2;" xml:space="preserve">
<style type="text/css">
	.st0{fill:#FFFFFF;}
	.st1{fill:#050505;}
	.st2{fill:#FDFDFD;}
	.st3{fill:#EBB022;}
	.st4{fill:#F6B822;}
	.st5{fill:#030203;}
	.st6{fill:#ECB022;}
	.st7{fill:#F7B922;}
	.st8{fill:#030202;}
	.st9{fill:#050405;}
	.st10{fill:#E57A7A;}
	.st11{fill:#CF991F;}
	.st12{fill:#D39C1F;}
	.st13{fill:#040404;}
</style>
<symbol  id="Star-3-3" viewBox="-41.7 -41.7 83.3 83.3">
	<path class="st0" d="M4.6-4.1L0.1-3H0.1l-3.5-3.1h-0.1V-6l-0.4,4.6v0.1l-4,2.3c0,0-0.1,0.1,0,0.1l0,0l4.2,1.8L-3.7,3l1,4.5
		c0,0,0.1,0.1,0.1,0l0,0l3-3.5h0.1l4.6,0.5c0.1,0,0.1,0,0.1-0.1V4.3l-2.4-4V0.2l2-4.2C4.8-4,4.7-4,4.6-4.1z"/>
	<g id="image-3_1_" transform="matrix(0.98, 0, 0, -0.98, 0, 83)">
		
			<image style="overflow:visible;enable-background:new    ;" width="86" height="86" id="image-2_2_" xlink:href="7A161F73276F188D.png"  transform="matrix(0.9686 0 0 -0.9686 -41.65 41.65)">
		</image>
	</g>
</symbol>
<title>stars_1</title>
<use xlink:href="#Star-3-3"  width="83.3" height="83.3" x="-41.7" y="-41.7" transform="matrix(0.5679 -2.989196e-02 -3.985594e-02 -0.4583 1325.1849 351.745)" style="overflow:visible;"/>
<use xlink:href="#Star-3-3"  width="83.3" height="83.3" x="-41.7" y="-41.7" transform="matrix(0.558 0 0 -0.4484 750.89 485.935)" style="overflow:visible;"/>
<use xlink:href="#Star-3-3"  width="83.3" height="83.3" x="-41.7" y="-41.7" transform="matrix(0.7772 0.1096 0.1295 -0.6277 149.365 361.09)" style="overflow:visible;"/>
<use xlink:href="#Star-3-3"  width="83.3" height="83.3" x="-41.7" y="-41.7" transform="matrix(0.8569 0 0 -0.6975 526.62 368.82)" style="overflow:visible;"/>
<use xlink:href="#Star-3-3"  width="83.3" height="83.3" x="-41.7" y="-41.7" transform="matrix(0.8469 4.981993e-02 6.974790e-02 -0.6875 384.27 421.94)" style="overflow:visible;"/>
<use xlink:href="#Star-3-3"  width="83.3" height="83.3" x="-41.7" y="-41.7" transform="matrix(0.548 0 0 -0.4484 1115.4349 283.335)" style="overflow:visible;"/>
<use xlink:href="#Star-3-3"  width="83.3" height="83.3" x="-41.7" y="-41.7" transform="matrix(0.8569 0 0 -0.6975 1714.45 908.1)" style="overflow:visible;"/>
<use xlink:href="#Star-3-3"  width="83.3" height="83.3" x="-41.7" y="-41.7" transform="matrix(0.8669 0 0 -0.7074 1687.385 1030.115)" style="overflow:visible;"/>
<use xlink:href="#Star-3-3"  width="83.3" height="83.3" x="-41.7" y="-41.7" transform="matrix(0.8469 1.992797e-02 2.989196e-02 -0.6975 239.29 377.6)" style="overflow:visible;"/>
<use xlink:href="#Star-3-3"  width="83.3" height="83.3" x="-41.7" y="-41.7" transform="matrix(0.7473 0 0 -0.6078 399.565 342.025)" style="overflow:visible;"/>
<use xlink:href="#Star-3-3"  width="83.3" height="83.3" x="-41.7" y="-41.7" transform="matrix(0.6078 0 0 -0.4982 1140.8849 201.99)" style="overflow:visible;"/>
<use xlink:href="#Star-3-3"  width="83.3" height="83.3" x="-41.7" y="-41.7" transform="matrix(0.4783 0 0 -0.3886 1095.2301 184.565)" style="overflow:visible;"/>
<use xlink:href="#Star-3-3"  width="83.3" height="83.3" x="-41.7" y="-41.7" transform="matrix(0.6576 -0.1395 -0.1794 -0.5381 164.25 293.03)" style="overflow:visible;"/>
<use xlink:href="#Star-3-3"  width="83.3" height="83.3" x="-41.7" y="-41.7" transform="matrix(0.4185 0.3487 0.4185 -0.3487 213.59 479.12)" style="overflow:visible;"/>
<use xlink:href="#Star-3-3"  width="83.3" height="83.3" x="-41.7" y="-41.7" transform="matrix(0.6477 0 0 -0.5281 474.875 491.715)" style="overflow:visible;"/>
<use xlink:href="#Star-3-3"  width="83.3" height="83.3" x="-41.7" y="-41.7" transform="matrix(0.7473 5.978391e-02 7.971188e-02 -0.6178 385.645 494.57)" style="overflow:visible;"/>
<use xlink:href="#Star-3-3"  width="83.3" height="83.3" x="-41.7" y="-41.7" transform="matrix(0.6277 0 0 -0.5082 1547.0551 847.275)" style="overflow:visible;"/>
<use xlink:href="#Star-3-3"  width="83.3" height="83.3" x="-41.7" y="-41.7" transform="matrix(0.8569 0 0 -0.6975 1791.62 561.34)" style="overflow:visible;"/>
<use xlink:href="#Star-3-3"  width="83.3" height="83.3" x="-41.7" y="-41.7" transform="matrix(0.6178 0.2292 0.289 -0.5082 1646.465 419.02)" style="overflow:visible;"/>
<use xlink:href="#Star-3-3"  width="83.3" height="83.3" x="-41.7" y="-41.7" transform="matrix(0.7672 4.981993e-02 1.992797e-02 -0.6277 1365.485 599.16)" style="overflow:visible;"/>
<use xlink:href="#Star-3-3"  width="83.3" height="83.3" x="-41.7" y="-41.7" transform="matrix(0.7074 0 0 -0.5779 1347.575 466.42)" style="overflow:visible;"/>
<use xlink:href="#Star-3-3"  width="83.3" height="83.3" x="-41.7" y="-41.7" transform="matrix(0.6875 0 0 -0.5181 1496.3051 564.53)" style="overflow:visible;"/>
<use xlink:href="#Star-3-3"  width="83.3" height="83.3" x="-41.7" y="-41.7" transform="matrix(0.7074 0.1196 0.1395 -0.5779 1511.775 475.98)" style="overflow:visible;"/>
<use xlink:href="#Star-3-3"  width="83.3" height="83.3" x="-41.7" y="-41.7" transform="matrix(0.7473 0 0 -0.5779 1275.355 497.09)" style="overflow:visible;"/>
<use xlink:href="#Star-3-3"  width="83.3" height="83.3" x="-41.7" y="-41.7" transform="matrix(0.6975 -0.1196 -0.1395 -0.5879 1494.22 450.875)" style="overflow:visible;"/>
<use xlink:href="#Star-3-3"  width="83.3" height="83.3" x="-41.7" y="-41.7" transform="matrix(0.5181 0 0 -0.3288 1386.39 514.875)" style="overflow:visible;"/>
<use xlink:href="#Star-3-3"  width="83.3" height="83.3" x="-41.7" y="-41.7" transform="matrix(0.7473 0 0 -0.6576 1283.865 314.54)" style="overflow:visible;"/>
<use xlink:href="#Star-3-3"  width="83.3" height="83.3" x="-41.7" y="-41.7" transform="matrix(0.7373 -2.989196e-02 -3.985594e-02 -0.6078 1242.41 461.39)" style="overflow:visible;"/>
<use xlink:href="#Star-3-3"  width="83.3" height="83.3" x="-41.7" y="-41.7" transform="matrix(0.6676 -4.981993e-02 -5.978391e-02 -0.5381 1298.9149 725.185)" style="overflow:visible;"/>
<use xlink:href="#Star-3-3"  width="83.3" height="83.3" x="-41.7" y="-41.7" transform="matrix(1.1758 0.9067 1.0064 -1.0462 1090.845 823.27)" style="overflow:visible;"/>
<use xlink:href="#Star-3-3"  width="83.3" height="83.3" x="-41.7" y="-41.7" transform="matrix(0.7174 0.1794 0.2092 -0.6078 1342.745 611.855)" style="overflow:visible;"/>
<use xlink:href="#Star-3-3"  width="83.3" height="83.3" x="-41.7" y="-41.7" transform="matrix(0.3886 0.3188 0.3886 -0.3188 1512.04 546.98)" style="overflow:visible;"/>
<use xlink:href="#Star-3-3"  width="83.3" height="83.3" x="-41.7" y="-41.7" transform="matrix(0.548 -2.989196e-02 -2.989196e-02 -0.4683 1227.0299 394.1)" style="overflow:visible;"/>
<use xlink:href="#Star-3-3"  width="83.3" height="83.3" x="-41.7" y="-41.7" transform="matrix(0.6776 -9.963986e-03 -9.963986e-03 -0.548 1234.5851 325.09)" style="overflow:visible;"/>
<use xlink:href="#Star-3-3"  width="83.3" height="83.3" x="-41.7" y="-41.7" transform="matrix(0.8569 0 0 -0.6875 1422.62 711.005)" style="overflow:visible;"/>
<use xlink:href="#Star-3-3"  width="83.3" height="83.3" x="-41.7" y="-41.7" transform="matrix(0.9366 0 0 -0.7672 1577.27 381.655)" style="overflow:visible;"/>
<use xlink:href="#Star-3-3"  width="83.3" height="83.3" x="-41.7" y="-41.7" transform="matrix(0.5779 0 0 -0.4185 1207.08 402.12)" style="overflow:visible;"/>
<use xlink:href="#Star-3-3"  width="83.3" height="83.3" x="-41.7" y="-41.7" transform="matrix(0.2391 -0.5679 -0.6975 -0.1893 1519.13 505.23)" style="overflow:visible;"/>
<use xlink:href="#Star-3-3"  width="83.3" height="83.3" x="-41.7" y="-41.7" transform="matrix(0.7872 0 0 -0.7174 1318.0851 628.85)" style="overflow:visible;"/>
<use xlink:href="#Star-3-3"  width="83.3" height="83.3" x="-41.7" y="-41.7" transform="matrix(0.8569 0 0 -0.6975 368.73 726.92)" style="overflow:visible;"/>
<use xlink:href="#Star-3-3"  width="83.3" height="83.3" x="-41.7" y="-41.7" transform="matrix(0.7672 0 0 -0.6178 283.915 769.74)" style="overflow:visible;"/>
<use xlink:href="#Star-3-3"  width="83.3" height="83.3" x="-41.7" y="-41.7" transform="matrix(0.7772 0 0 -0.6377 170.56 970.39)" style="overflow:visible;"/>
<use xlink:href="#Star-3-3"  width="83.3" height="83.3" x="-41.7" y="-41.7" transform="matrix(0.817 0 0 -0.6676 34.03 883.805)" style="overflow:visible;"/>
<use xlink:href="#Star-3-3"  width="83.3" height="83.3" x="-41.7" y="-41.7" transform="matrix(0.7373 -0.2491 -0.2292 -0.6576 321.465 737.515)" style="overflow:visible;"/>
<use xlink:href="#Star-3-3"  width="83.3" height="83.3" x="-41.7" y="-41.7" transform="matrix(0.9964 0 0 -0.8071 247.43 1049.245)" style="overflow:visible;"/>
<use xlink:href="#Star-3-3"  width="83.3" height="83.3" x="-41.7" y="-41.7" transform="matrix(0.8569 0 0 -0.6975 102.51 891.16)" style="overflow:visible;"/>
<use xlink:href="#Star-3-3"  width="83.3" height="83.3" x="-41.7" y="-41.7" transform="matrix(0.9565 0 0 -0.7772 252.86 739.42)" style="overflow:visible;"/>
<use xlink:href="#Star-3-3"  width="83.3" height="83.3" x="-41.7" y="-41.7" transform="matrix(0.7573 0 0 -0.6178 455.69 765.92)" style="overflow:visible;"/>
<use xlink:href="#Star-3-3"  width="83.3" height="83.3" x="-41.7" y="-41.7" transform="matrix(0.8569 -0.1096 -0.1395 -0.6975 301.68 706.695)" style="overflow:visible;"/>
<use xlink:href="#Star-3-3"  width="83.3" height="83.3" x="-41.7" y="-41.7" transform="matrix(0.9267 0 0 -0.7573 167.965 1022.8901)" style="overflow:visible;"/>
<use xlink:href="#Star-3-3"  width="83.3" height="83.3" x="-41.7" y="-41.7" transform="matrix(0.6676 0.289 0.3487 -0.5381 279.03 1001.165)" style="overflow:visible;"/>
<use xlink:href="#Star-3-3"  width="83.3" height="83.3" x="-41.7" y="-41.7" transform="matrix(0.4982 -0.5281 -0.6477 -0.4085 416.455 744.63)" style="overflow:visible;"/>
<use xlink:href="#Star-3-3"  width="83.3" height="83.3" x="-41.7" y="-41.7" transform="matrix(0.6477 0 0 -0.5281 135.595 925.875)" style="overflow:visible;"/>
<use xlink:href="#Star-3-3"  width="83.3" height="83.3" x="-41.7" y="-41.7" transform="matrix(0.8569 0 0 -0.6975 1797.95 181.54)" style="overflow:visible;"/>
<use xlink:href="#Star-3-3"  width="83.3" height="83.3" x="-41.7" y="-41.7" transform="matrix(0.8569 0 0 -0.6975 564.26 1056.26)" style="overflow:visible;"/>
<use xlink:href="#Star-3-3"  width="83.3" height="83.3" x="-41.7" y="-41.7" transform="matrix(0.8569 0 0 -0.6975 1037.9299 39.57)" style="overflow:visible;"/>
<use xlink:href="#Star-3-3"  width="83.3" height="83.3" x="-41.7" y="-41.7" transform="matrix(0.8569 0 0 -0.6975 1272.9199 29.05)" style="overflow:visible;"/>
<use xlink:href="#Star-3-3"  width="83.3" height="83.3" x="-41.7" y="-41.7" transform="matrix(0.8569 0 0 -0.6975 1455.33 42.51)" style="overflow:visible;"/>
<use xlink:href="#Star-3-3"  width="83.3" height="83.3" x="-41.7" y="-41.7" transform="matrix(0.8569 0 0 -0.6975 1634.5 67.06)" style="overflow:visible;"/>
<path class="st1" d="M269.5,479.6c0.1,0.2,0.3,0.4,0.4,0.6c-0.1,0-0.2,0.1-0.2,0C269.7,480,269.6,479.8,269.5,479.6L269.5,479.6z"/>
<path class="st2" d="M243.6,378c-0.3,0.7-0.9,0.9-1.3,0.4s0.3-0.7,0.7-1C243.1,377.6,243.4,377.8,243.6,378z"/>
<path class="st2" d="M469.8,392c-0.5,0.7-1.3,0.8-1.7,0.3c-0.6-0.8,0-0.9,0.7-0.7C469.2,391.7,469.5,391.8,469.8,392z"/>
<path class="st3" d="M924.6,748.1c-0.7-0.9-1.1-1.4-1.5-2c-1.9-2.7-0.3-5.9,3.1-6.5c1.2-0.2,1.1,0.6,1.2,1.3
	C927.8,743.1,927,745.2,924.6,748.1z"/>
<path class="st4" d="M938.1,743.5c0.8,1.2,0.4,2.3,0.3,3.3c0.1,2-1.5,3.7-3.5,3.7c-0.7,0-1.4-0.2-2-0.5c-1-0.5-0.5-1.2-0.3-1.8
	C933.2,746.3,934.9,744.8,938.1,743.5z"/>
<path class="st5" d="M822.4,666.4c17.8,10.6,36.1,18.1,57.6,9.5c-4.1,34.5,16.2,56,39.2,76.6c0.3-3.2-1.8-4.8-3.1-6.5
	c-3.2-4-3.4-6.6,0.4-11.4c2.8-3.4,6.1-6.4,9.8-8.9c0.3,1.5,0.7,2.6,0.9,3.8c0.6,3.6,0.8,7.4,6.3,6c1.7-0.4,3.1,0.9,3.8,2.3
	c1.2,2.7,2.3,1.5,3.6,0.2c1.6-1.6,3.3-3.1,5.4-5.1c0.2,7.5-0.2,14.3-2.9,20.8c-0.8,1.9-2.2,2.1-3.8,2.1c-3.7,0-7.5,0-11.2,0.3
	c11.8,3.6,24.5,3,35.9-1.8c8.4-3.4,16-8.3,23.6-13.1c3.8-2.4,7.7-4.7,11.4-7.2c1.4-0.9,2.2-1.1,3,0.7c5.8,13.2,16.3,22.2,27.4,30.7
	c3.6,2.8,7.4,5.4,10.8,8.5c-2.7-0.6-5.4-1.2-8.1-1.7c-10.1-1.9-18.2,1.5-24.6,9.3c-1.5,1.9-2.9,4.7-4.9,5.2c-1.6,0.4-3.9-1.9-6-2.9
	c-0.9-0.4-1.8-0.8-2.6-1.3c-13.2-6.2-22.5-4-31.5,7.5l-6.9,9.1c-0.8-6.9-5.5-8.5-10.8-9c-10.8-1-21,1.8-31,5.5
	c-5.8,2.1-11.7,4.3-16.1,9.7c-0.5-4.7-0.8-9-1.4-13.3c-1.3-9.1-2.6-18.1-7.2-26.2c-4.2-7.5-9.1-9.6-17.2-7.1
	c-2.6,0.8-2.2-0.7-2.2-2.1c-0.3-8-0.7-16-2.4-24c-2-9.4-6.6-16.1-16.7-17.9c-0.7-0.2-1.4-0.4-2.1-0.6c-3.6-0.8-5.8-2.4-6-6.8
	c-0.3-8.2-3.8-15.5-8.4-22.3C830.4,679.1,825.9,673.4,822.4,666.4z M924.6,748.1c2.4-2.9,3.2-5,2.8-7.2c-0.1-0.7-0.1-1.4-1.2-1.3
	c-3.4,0.5-5,3.7-3.1,6.5C923.6,746.8,924.1,747.5,924.6,748.1z M938.1,743.5c-3.2,1.3-5,2.8-5.5,4.7c-0.2,0.6-0.7,1.3,0.3,1.8
	c2.7,1.4,5.4-0.1,5.5-3.2C938.5,745.8,938.9,744.7,938.1,743.5z"/>
<path class="st6" d="M246.8,362c1.7,1.1,4.3,1.9,5.1,3.6c1,2-1.5,3.8-2.9,5.2s-1.9-0.8-2.4-1.6c-1.2-1.7-1.6-3.9-1.2-5.9
	C245.6,362.7,245.5,361.8,246.8,362z"/>
<path class="st7" d="M239.9,373.4c-0.7,0.1-1.5,0.2-2.2,0.2c-4.9,0.3-6.2-1.4-5.2-6.2c0.3-1.4,1-1.1,1.8-0.7
	C237.3,367.7,239.4,370.3,239.9,373.4z"/>
<path class="st8" d="M254.1,376.7c17.2-14.2,33.4-29.3,41.9-50.6c4-9.8,5.4-20.3,4.3-30.8c-0.1-1.1-0.1-2.2-0.2-3.8
	c24.3,9.2,45.6,1.3,66.3-10.9c-3.2,7.1-8,12.9-12.4,18.8c-6.6,8.9-11,18.6-11.6,29.8c0,1.3-0.8,2.5-2.1,3c-2.4,1.2-5,2-7.6,2.5
	c-10.7,1.9-15.9,9-18.2,19c-1.8,8.4-2.7,16.9-2.8,25.4v4.5c-0.5,0.1-0.7,0.2-0.8,0.2c-12.3-5.3-19.5,1.5-24,11.9
	c-4.7,10.9-6,22.5-7.1,34.2c-0.1,1.2,0.6,3-0.9,3.6s-2.2-1.1-3.2-1.9c-5-3.6-10.7-5.8-16.5-7.7c-9.9-3.4-20.1-5.9-30.7-5.8
	c-2.6-0.1-5.1,0.3-7.6,0.9c-4.5,1.3-8.1,3.4-8.3,9.2c-4.4-4.6-7.5-9.6-11.5-13.8c-7.7-8.2-16.9-10-27.3-6.7
	c-4.6,1.5-9.1,3.5-13.2,6.1c-1.8,1.2-2.8,0.9-4.2-0.7c-3.5-4.2-6.9-8.5-11.7-11.5c-7.4-4.6-15.2-4.5-23.3-3
	c-1.8,0.4-3.7,0.6-5.5,0.6c8.9-6.3,17.7-12.6,25.7-20c7.1-6.6,13.6-13.6,17.4-22.7c1-2.3,1.9-1.7,3.5-0.8
	c11.6,6.6,22.6,14.4,34.7,20.2c13.9,6.6,28.3,8.7,43.4,5.7c1-0.2,2.2-0.1,3.2-1.5h-12.6c-2.5,0-3.9-1-4.8-3.5c-2.6-6.9-2.9-14-3-22
	c3.2,2.8,5.9,5.2,8.9,7.8c2.1-4.4,5.6-5.8,10.2-4.8c1.4,0.3,1.9-0.5,2.1-1.8c0.6-3,1.3-5.9,2.1-9.4c4.7,3.8,9.3,7.1,12.6,11.8
	c2.8,3.9,2.6,6.3-0.3,10.2c-1.9,2.6-3.7,5.1-5.5,7.7c-0.3,0.3-1,0.6-0.7,1S253.8,377.4,254.1,376.7z M246.8,362
	c-1.3-0.3-1.2,0.7-1.4,1.3c-0.4,2,0,4.2,1.2,5.9c0.5,0.8,1.1,2.9,2.4,1.6s3.9-3.2,2.9-5.2C251.1,363.9,248.5,363.1,246.8,362
	L246.8,362z M239.9,373.4c-0.5-3.1-2.7-5.7-5.6-6.7c-0.8-0.3-1.5-0.7-1.8,0.7c-1,4.9,0.3,6.5,5.2,6.2
	C238.5,373.6,239.2,373.5,239.9,373.4L239.9,373.4z"/>
<path class="st9" d="M1201.4,476.9c5.2,4.9,11.6,5.5,18.2,4.8c3.3-0.5,6.5-1.1,9.7-2c-2,2.8-4.4,4.5-6.6,6.4
	c-3.6,3-6.8,6.3-8.3,10.9c-0.7,2.1-2.2,2.6-4,2.4c-6.5-0.7-9.9,3-12.1,8.4l-3.9,10.2c-5.6-2.6-8.4-1.8-12,3.2
	c-3.3,4.6-5.2,9.8-7.3,15.3c-5.1-6.2-12.1-10.6-19.8-12.6c-2.8-0.8-5.6-0.8-7.7,2.2c-0.8-1.9-1.4-3.4-2.1-4.9c-3-6.8-7.7-9.3-15-7.4
	c-2.9,0.8-4.4,0.6-5.7-2.6c-2.4-5.8-5.5-7.2-14.6-8c4.1-1.8,7.8-3.3,11.5-5.1c4.3-2,8.4-4.5,11.5-8.3c1.2-1.5,1.8-0.9,2.7,0.1
	c3.7,3.9,7.3,7.9,11.2,11.5s8.1,6.2,13.9,7c-2.5-4.3-1.3-8.2,0-12.3c3.5,4.4,7.7,3.9,10.5-1c4.4,4.2,5.2,7.3,2.9,10.6
	c9.3,0,21.6-13.6,26.1-29.1C1200.7,476.8,1201,476.9,1201.4,476.9z"/>
<path class="st7" d="M1165.7,503.9c-0.4,0-0.7-0.1-1-0.1c-2.2-0.3-2.7-1.2-1.7-3.3c0.3-0.6,0.5-0.4,0.9-0.2
	C1165.1,501.1,1165.7,502.5,1165.7,503.9z"/>
<path class="st6" d="M1171.8,499.4c0.4,0.8,1.2,1.8,1.2,2.6c-0.1,1-1.5,1.1-2.4,1.4s-0.5-0.8-0.6-1.2c-0.1-1,0.3-1.9,0.9-2.6
	C1171.2,499.4,1171.4,498.9,1171.8,499.4z"/>
<path class="st1" d="M97.3,660.8c0.2-0.1,0.4-0.4,0.6-0.4c2.3,0.4,3.7,0,5.8-1.9c2.7-2.3,0.9-4,1-6c6.8,0.1,9,1.8,9.6,7.4
	c5.3-11.8,8-27-1.1-40.6c11-1.6,17.6-8.6,22.9-18.7c-0.1,3.2,0.1,5.4-0.3,7.4c-0.9,5.7-1.3,11.4,1.3,16.8c0.8,1.8-0.2,2.9-1.3,3.7
	c-5.3,4.1-5.3,9.2-3,14.7c1.3,3.3,2.7,6.5,4.2,10c-2.5,0.6-5.1,1.3-6.1,4.1c-0.9,2.5-0.6,5-0.2,7.6c0.8,5.2,3,10,5,15.1
	c-8.3-1.3-16.8,0.4-24,4.8c-1.6,0.9-3,2-2.8,4.3c0.2,1.9-0.8,2-2.2,1.3c-0.5-0.3-1.1-0.5-1.7-0.8c-8.4-3.8-12.9-2.5-18,5.1
	c-0.8,1.3-1.3,3-3.5,1.9c-6.4-3.3-12.1-2.1-17.5,2.7c1.2-2.7,2.4-5.5,3.6-8.2c2.2-5.3,4-10.7,3.7-16.6c-0.1-1.9,0.9-1.6,2-1.5
	c5.2,0.2,10.5,0.6,15.7,0.7c5.9,0.1,11.6-1.6,16.5-4.9C101.1,669.3,100.4,663.7,97.3,660.8L97.3,660.8z"/>
<path class="st7" d="M106.8,663.3c-0.3,0.2-0.5,0.4-0.7,0.6c-1.6,1.1-2.4,0.8-3-1c-0.2-0.5,0.1-0.6,0.4-0.6
	C104.7,661.9,106,662.3,106.8,663.3z"/>
<path class="st6" d="M107.9,656.8c0.8,0.3,1.8,0.4,2.3,0.9c0.6,0.7-0.2,1.6-0.7,2.3s-0.8-0.2-1.1-0.4c-0.6-0.6-1-1.4-1-2.2
	C107.4,657.2,107.3,656.8,107.9,656.8z"/>
<polygon class="st10" points="1889.7,1126.2 1807.5,1126.2 1807.5,1126.2 "/>
<path class="st11" d="M621,597.8c0.1,0.9-0.5,1-1.1,0.9c-1-0.1-1.9-0.4-1.7-1.7c0.1-0.7,0.1-1.7,1-1.6
	C620.4,595.6,620.7,596.7,621,597.8z"/>
<path class="st12" d="M625.1,594.6c0.6,1,2.6,1.4,1.3,3.1c-0.3,0.5-1,1.5-1.7,0.7C623.8,597.2,624,595.9,625.1,594.6z"/>
<path class="st13" d="M616,601.5c-1.9-4.4-0.7-8.3,0.3-12.6c1.5,2.3,2.6,3.2,5.6,3.2c3.6,0,3.5-2.4,5.2-4.1c1.9,3.6,5.7,6.1,3,10.7
	c9.2-0.1,21.3-13.5,25.7-28.7c8.5,6.2,17.7,5.6,27.5,2.8c-0.6,2.6-2.3,3.6-3.7,4.7c-4.4,3.5-8.5,7.3-10.3,12.9
	c-0.3,1.2-1.5,2-2.8,1.8c-8.1-0.9-11.5,4.2-14,10.7c-0.4,1-0.7,2.1-1.1,3.1c-0.9,2.8-0.9,6-5.7,3.7c-3-1.5-5.6,1.4-7.5,3.9
	c-3.1,4-5,8.6-6.8,13.3c-0.3,0.9-0.7,1.8-1,2.8c-5.3-6.5-12.7-11.1-20.9-12.9c-2.6-0.6-4.8-0.2-6.3,2.4c-1.2-1.2-1.4-2.7-2-4.2
	c-3.2-7.6-7.6-10-15.6-8c-3,0.8-4.2,0.2-5.4-2.6c-2.7-6.1-6-7.8-15.3-7.9c6.5-2.8,12.7-4.9,18.1-8.7c1.9-1.4,3.9-2.6,5.2-4.5
	s2.1-1.2,3.3,0.1c4.7,4.9,8.9,10.3,14.7,14.2C609,599.7,612.4,601.1,616,601.5z M621,597.8c-0.2-1.1-0.6-2.2-1.8-2.4
	c-0.9-0.1-0.8,0.9-1,1.6c-0.3,1.4,0.7,1.6,1.7,1.7C620.5,598.8,621.1,598.6,621,597.8z M625.2,594.6c-1.2,1.3-1.3,2.6-0.3,3.8
	c0.7,0.8,1.3-0.2,1.7-0.7C627.7,595.9,625.8,595.6,625.2,594.6L625.2,594.6z M616.2,601.6c0.4,0.5,1.2,0.4,1.7-0.3"/>
<path class="st13" d="M616.7,599.8c-1.3,0.7-0.6,1.5-0.4,2.1c0.4,1.4,1.8,0.8,3.1,0"/>
<use xlink:href="#Star-3-3"  width="83.3" height="83.3" x="-41.7" y="-41.7" transform="matrix(0.4783 0 0 -0.3886 38.32 582.095)" style="overflow:visible;"/>
<use xlink:href="#Star-3-3"  width="83.3" height="83.3" x="-41.7" y="-41.7" transform="matrix(0.4783 0 0 -0.3886 24.58 115.965)" style="overflow:visible;"/>
<use xlink:href="#Star-3-3"  width="83.3" height="83.3" x="-41.7" y="-41.7" transform="matrix(0.4783 0 0 -0.3886 647.78 426.945)" style="overflow:visible;"/>
<use xlink:href="#Star-3-3"  width="83.3" height="83.3" x="-41.7" y="-41.7" transform="matrix(0.4783 0 0 -0.3886 366.45 154.605)" style="overflow:visible;"/>
<use xlink:href="#Star-3-3"  width="83.3" height="83.3" x="-41.7" y="-41.7" transform="matrix(0.4783 0 0 -0.3886 822.94 160.985)" style="overflow:visible;"/>
<use xlink:href="#Star-3-3"  width="83.3" height="83.3" x="-41.7" y="-41.7" transform="matrix(0.4783 0 0 -0.3886 499.39 186.615)" style="overflow:visible;"/>
<use xlink:href="#Star-3-3"  width="83.3" height="83.3" x="-41.7" y="-41.7" transform="matrix(0.4783 0 0 -0.3886 687.29 185.555)" style="overflow:visible;"/>
<use xlink:href="#Star-3-3"  width="83.3" height="83.3" x="-41.7" y="-41.7" transform="matrix(0.4783 0 0 -0.3886 1013.63 433.395)" style="overflow:visible;"/>
<use xlink:href="#Star-3-3"  width="83.3" height="83.3" x="-41.7" y="-41.7" transform="matrix(0.4783 0 0 -0.3886 547.05 738.625)" style="overflow:visible;"/>
<use xlink:href="#Star-3-3"  width="83.3" height="83.3" x="-41.7" y="-41.7" transform="matrix(0.4783 0 0 -0.3886 754.8 823.315)" style="overflow:visible;"/>
<use xlink:href="#Star-3-3"  width="83.3" height="83.3" x="-41.7" y="-41.7" transform="matrix(0.4783 0 0 -0.3886 545.71 971.015)" style="overflow:visible;"/>
<use xlink:href="#Star-3-3"  width="83.3" height="83.3" x="-41.7" y="-41.7" transform="matrix(0.4783 0 0 -0.3886 627.5 286.175)" style="overflow:visible;"/>
<use xlink:href="#Star-3-3"  width="83.3" height="83.3" x="-41.7" y="-41.7" transform="matrix(0.4783 0 0 -0.3886 880.13 463.815)" style="overflow:visible;"/>
<use xlink:href="#Star-3-3"  width="83.3" height="83.3" x="-41.7" y="-41.7" transform="matrix(0.4783 0 0 -0.3886 613.7637 624.1198)" style="overflow:visible;"/>
<use xlink:href="#Star-3-3"  width="83.3" height="83.3" x="-41.7" y="-41.7" transform="matrix(0.4783 0 0 -0.3886 33.38 733.785)" style="overflow:visible;"/>
<use xlink:href="#Star-3-3"  width="83.3" height="83.3" x="-41.7" y="-41.7" transform="matrix(0.4783 0 0 -0.3886 619.8 881.565)" style="overflow:visible;"/>
<use xlink:href="#Star-3-3"  width="83.3" height="83.3" x="-41.7" y="-41.7" transform="matrix(0.4783 0 0 -0.3886 1292.36 170.705)" style="overflow:visible;"/>
<use xlink:href="#Star-3-3"  width="83.3" height="83.3" x="-41.7" y="-41.7" transform="matrix(0.4783 0 0 -0.3886 1520.5601 356.895)" style="overflow:visible;"/>
<use xlink:href="#Star-3-3"  width="83.3" height="83.3" x="-41.7" y="-41.7" transform="matrix(0.4783 0 0 -0.3886 1224.0801 482.675)" style="overflow:visible;"/>
<use xlink:href="#Star-3-3"  width="83.3" height="83.3" x="-41.7" y="-41.7" transform="matrix(0.4783 0 0 -0.3886 1050.3401 661.015)" style="overflow:visible;"/>
<use xlink:href="#Star-3-3"  width="83.3" height="83.3" x="-41.7" y="-41.7" transform="matrix(0.4783 0 0 -0.3886 899.23 840.505)" style="overflow:visible;"/>
<use xlink:href="#Star-3-3"  width="83.3" height="83.3" x="-41.7" y="-41.7" transform="matrix(0.4783 0 0 -0.3886 1146.41 917.825)" style="overflow:visible;"/>
<use xlink:href="#Star-3-3"  width="83.3" height="83.3" x="-41.7" y="-41.7" transform="matrix(0.4783 0 0 -0.3886 20.45 286.175)" style="overflow:visible;"/>
<use xlink:href="#Star-3-3"  width="83.3" height="83.3" x="-41.7" y="-41.7" transform="matrix(0.8669 0 0 -0.7074 830.865 689.465)" style="overflow:visible;"/>
<use xlink:href="#Star-3-3"  width="83.3" height="83.3" x="-41.7" y="-41.7" transform="matrix(0.8669 0 0 -0.7074 229.735 615.335)" style="overflow:visible;"/>
<use xlink:href="#Star-3-3"  width="83.3" height="83.3" x="-41.7" y="-41.7" transform="matrix(0.8669 0 0 -0.7074 581.725 143.695)" style="overflow:visible;"/>
<use xlink:href="#Star-3-3"  width="83.3" height="83.3" x="-41.7" y="-41.7" transform="matrix(0.8669 0 0 -0.7074 192.025 157.535)" style="overflow:visible;"/>
<path class="st1" d="M332,942.6c0.1,0.2,0.4,0.4,0.4,0.6c-0.3,2.3,0.1,3.7,2,5.7c2.4,2.6,4.1,0.8,6,0.8c0.1,6.8-1.5,9-7.1,9.8
	c11.9,5,27.3,7.2,40.5-2.3c1.9,10.9,9.1,17.3,19.3,22.4c-3.2,0-5.4,0.2-7.4,0c-5.8-0.8-11.4-0.9-16.8,1.8c-1.8,0.9-2.9-0.1-3.8-1.2
	c-4.2-5.2-9.3-5-14.8-2.6c-3.2,1.4-6.4,2.9-9.9,4.5c-0.7-2.5-1.4-5-4.3-6c-2.6-0.9-5-0.5-7.6,0c-5.2,0.9-9.9,3.3-14.9,5.4
	c1-8.4-0.9-16.8-5.5-23.9c-1-1.6-2.1-3-4.3-2.7c-1.9,0.3-2-0.7-1.3-2.2c0.3-0.5,0.5-1.1,0.7-1.7c3.5-8.5,2.1-13-5.6-17.8
	c-1.3-0.8-3-1.2-2-3.5c3.1-6.5,1.8-12.2-3.3-17.4c2.8,1.1,5.5,2.3,8.3,3.3c5.4,2.1,10.9,3.7,16.7,3.2c1.9-0.2,1.6,0.9,1.6,2
	c-0.1,5.2-0.3,10.5-0.2,15.7c0.1,5.9,2,11.6,5.4,16.4C323.6,946.7,329.1,945.8,332,942.6L332,942.6z"/>
<path class="st7" d="M329.8,952.2c-0.2-0.3-0.4-0.5-0.6-0.7c-1.2-1.5-0.9-2.3,0.9-3.1c0.5-0.2,0.6,0.1,0.6,0.4
	C331.1,950,330.7,951.3,329.8,952.2z"/>
<path class="st6" d="M336.3,953.1c-0.3,0.8-0.3,1.8-0.9,2.3s-1.6-0.2-2.3-0.6s0.1-0.8,0.4-1.1c0.5-0.6,1.3-1,2.1-1.1
	C335.9,952.6,336.3,952.5,336.3,953.1z"/>
<path class="st1" d="M1515.4,944.4c0.2,0,0.6-0.1,0.7,0c1.7,1.6,3.1,2.1,5.8,1.8c3.5-0.4,3.1-2.8,4.3-4.4c5.5,4,6.3,6.6,3.6,11.5
	c11.1-6.6,22-17.6,22.3-34c9.9,5,19.3,3,29.5-2.2c-1.9,2.6-3,4.5-4.5,6c-4.1,4.2-7.5,8.7-8.6,14.6c-0.3,1.9-1.8,2.3-3.2,2.3
	c-6.7,0.3-9.6,4.5-10.9,10.4c-0.8,3.4-1.5,6.9-2.3,10.7c-2.4-1-4.9-1.9-7.4-0.1c-2.2,1.5-3.4,3.8-4.5,6.1c-2.3,4.7-3.2,9.9-4.5,15.2
	c-6.1-5.8-14-9.2-22.4-9.8c-1.9-0.2-3.7-0.1-4.7,1.9c-0.9,1.7-1.8,1.2-2.5-0.2c-0.3-0.5-0.6-1.1-0.9-1.6c-4.7-7.9-9.1-9.4-17.7-6.1
	c-1.4,0.5-2.8,1.7-4-0.5c-3.4-6.3-8.8-8.7-15.9-7.8c2.5-1.6,5.1-3.1,7.6-4.7c4.8-3.1,9.4-6.5,12.5-11.5c1-1.6,1.6-0.8,2.5-0.1
	c4.2,3.2,8.3,6.5,12.5,9.5c4.8,3.5,10.5,5.3,16.4,5.4C1513.7,953.5,1516.2,948.5,1515.4,944.4L1515.4,944.4z"/>
<path class="st7" d="M1521.8,951.8c-0.3,0-0.6,0.1-0.9,0.1c-1.9,0-2.4-0.7-1.9-2.6c0.1-0.6,0.4-0.4,0.7-0.3
	C1520.9,949.6,1521.6,950.6,1521.8,951.8z"/>
<path class="st6" d="M1526.3,947.1c0.5,0.7,1.3,1.3,1.4,2.1s-1.1,1.2-1.8,1.5s-0.6-0.6-0.6-0.9c-0.2-0.8,0-1.6,0.4-2.3
	C1525.8,947.2,1525.9,946.8,1526.3,947.1z"/>
<path class="st3" d="M1362.5,818.2c-0.8-0.2-1.7-0.4-2.5-0.6c-3.2-0.9-4-4.4-1.7-7c0.8-0.9,1.2-0.2,1.8,0.2
	C1361.8,812.2,1362.5,814.4,1362.5,818.2z"/>
<path class="st4" d="M1370,806c1.4,0.4,1.7,1.5,2.4,2.4c1.9,2.4,0.7,5.3-2.2,6c-1.1,0.2-1.2-0.6-1.4-1.2
	C1367.9,811.3,1368.3,809.1,1370,806z"/>
<path class="st5" d="M1231.7,820.5c20.4-3.2,39.3-9.1,50.4-29.4c18.8,29.1,48.2,32.8,79.1,33.9c-1.8-2.6-4.4-2.6-6.6-3
	c-5-1-6.8-2.9-7-9c0-4.5,0.6-8.9,1.9-13.2c1.2,0.9,2.2,1.6,3.1,2.3c2.8,2.4,5.3,5.2,8.7,0.6c1-1.4,3-1.3,4.4-0.6
	c2.6,1.3,2.7-0.3,2.9-2.2c0.2-2.3,0.6-4.5,0.9-7.4c5,5.6,9,11.1,11,17.8c0.6,1.9-0.4,3-1.6,4.1c-2.9,2.4-5.7,4.8-8.4,7.4
	c11.4-4.8,20.8-13.4,26.5-24.3c4.3-8,7-16.6,9.8-25.2c1.4-4.3,2.9-8.5,4.2-12.8c0.5-1.6,0.9-2.2,2.8-1.3c12.9,6.4,26.8,6.7,40.7,6.2
	c4.6-0.3,9.1-0.4,13.7-0.3c-2.4,1.3-4.9,2.5-7.3,3.9c-9,5-13,12.7-12.9,22.9c0,2.4,0.7,5.4-0.4,7.1c-1,1.4-4.2,1.1-6.5,1.6
	c-1,0.2-1.9,0.5-2.8,0.7c-14.1,3.7-19.9,11.3-19.4,25.9c0.1,3.6,0.3,7.3,0.5,11.4c-5-4.8-9.7-3.1-14.1,0c-8.9,6.1-15.1,14.8-20.4,24
	c-3.1,5.4-6.2,10.8-6.2,17.8c-3.4-3.3-6.3-6.4-9.5-9.4c-6.8-6.2-13.6-12.2-22.3-15.6c-8.1-3.1-13.2-1.6-17.8,5.5
	c-1.5,2.3-2.1,0.8-3.1-0.2c-5.2-6.1-10.9-11.8-17.1-16.9c-7.5-6-15.4-8.2-24.3-3.1c-0.6,0.3-1.3,0.6-2,0.9c-3.3,1.7-6,1.8-8.9-1.4
	c-5.5-6.1-12.8-9.6-20.7-11.8C1245.9,825.2,1238.8,823.7,1231.7,820.5z M1362.5,818.2c0-3.8-0.7-5.9-2.4-7.3c-0.5-0.4-1-1.1-1.8-0.2
	c-2.3,2.6-1.5,6,1.7,7C1360.9,817.8,1361.7,818,1362.5,818.2z M1370,806c-1.6,3.1-2,5.3-1.3,7.1c0.3,0.6,0.3,1.4,1.4,1.2
	c2-0.2,3.4-2,3.1-4c-0.1-0.7-0.4-1.4-0.9-2C1371.7,807.5,1371.3,806.4,1370,806z"/>
<path class="st9" d="M772.3,104.7c5.2,4.9,11.6,5.5,18.2,4.8c3.3-0.5,6.5-1.1,9.7-2c-2,2.8-4.4,4.5-6.6,6.4c-3.6,3-6.8,6.3-8.3,10.9
	c-0.7,2.1-2.2,2.6-4,2.4c-6.5-0.7-9.9,3-12.1,8.4l-3.9,10.2c-5.6-2.6-8.4-1.8-12,3.2c-3.3,4.6-5.2,9.8-7.3,15.3
	c-5.1-6.2-12.1-10.6-19.8-12.6c-2.8-0.8-5.6-0.8-7.7,2.2c-0.8-1.9-1.4-3.4-2.1-4.9c-3-6.8-7.7-9.3-15-7.4c-2.9,0.8-4.4,0.6-5.7-2.6
	c-2.4-5.8-5.5-7.2-14.6-8c4.1-1.8,7.8-3.3,11.5-5.1c4.3-2,8.4-4.5,11.5-8.3c1.2-1.5,1.8-0.9,2.7,0.1c3.7,3.9,7.3,7.9,11.2,11.5
	c3.9,3.6,8.1,6.2,13.9,7c-2.5-4.3-1.3-8.2,0-12.3c3.5,4.4,7.7,3.9,10.5-1c4.4,4.2,5.2,7.3,2.9,10.6c9.3,0,21.6-13.6,26.1-29.1
	C771.6,104.6,772,104.8,772.3,104.7z"/>
<path class="st7" d="M736.6,131.8c-0.4,0-0.7-0.1-1-0.1c-2.2-0.3-2.7-1.2-1.7-3.3c0.3-0.6,0.5-0.4,0.9-0.2
	C736,129,736.6,130.4,736.6,131.8z"/>
<path class="st6" d="M742.7,127.3c0.4,0.8,1.2,1.8,1.2,2.6c-0.1,1-1.5,1.1-2.4,1.4c-0.9,0.3-0.5-0.8-0.6-1.2c-0.1-1,0.3-1.9,0.9-2.6
	C742.1,127.3,742.3,126.8,742.7,127.3z"/>
<path class="st3" d="M1485.4,300.7c-0.7-0.9-1.1-1.4-1.5-2c-1.9-2.7-0.3-5.9,3.1-6.5c1.2-0.2,1.1,0.6,1.2,1.3
	C1488.6,295.7,1487.8,297.9,1485.4,300.7z"/>
<path class="st4" d="M1498.9,296.1c0.8,1.2,0.4,2.3,0.3,3.3c0.1,2-1.5,3.7-3.5,3.7c-0.7,0-1.4-0.2-2-0.5c-1-0.5-0.5-1.2-0.3-1.8
	C1494,298.9,1495.7,297.4,1498.9,296.1z"/>
<path class="st5" d="M1383.2,219c17.8,10.6,36.1,18.1,57.6,9.5c-4.1,34.5,16.2,56,39.2,76.6c0.3-3.2-1.8-4.8-3.1-6.5
	c-3.2-4-3.4-6.6,0.4-11.4c2.8-3.4,6.1-6.4,9.8-8.9c0.3,1.5,0.7,2.6,0.9,3.8c0.6,3.6,0.8,7.4,6.3,6c1.7-0.4,3.1,0.9,3.8,2.3
	c1.2,2.7,2.3,1.5,3.6,0.2c1.6-1.6,3.3-3.1,5.4-5.1c0.2,7.5-0.2,14.3-2.9,20.8c-0.8,1.9-2.2,2.1-3.8,2.1c-3.7,0-7.5,0-11.2,0.3
	c11.8,3.6,24.5,3,35.9-1.8c8.4-3.4,16-8.3,23.6-13.1c3.8-2.4,7.7-4.7,11.4-7.2c1.4-0.9,2.2-1.1,3,0.7c5.8,13.2,16.3,22.2,27.4,30.7
	c3.6,2.8,7.4,5.4,10.8,8.5c-2.7-0.6-5.4-1.2-8.1-1.7c-10.1-1.9-18.2,1.5-24.6,9.3c-1.5,1.9-2.9,4.7-4.9,5.2c-1.6,0.4-3.9-1.9-6-2.9
	c-0.9-0.4-1.8-0.8-2.6-1.3c-13.2-6.2-22.5-4-31.5,7.5l-6.9,9.1c-0.8-6.9-5.5-8.5-10.8-9c-10.8-1-21,1.8-31,5.5
	c-5.8,2.1-11.7,4.3-16.1,9.7c-0.5-4.7-0.8-9-1.4-13.3c-1.3-9.1-2.6-18.1-7.2-26.2c-4.2-7.5-9.1-9.6-17.2-7.1
	c-2.6,0.8-2.2-0.7-2.2-2.1c-0.3-8-0.7-16-2.4-24c-2-9.4-6.6-16.1-16.7-17.9c-0.7-0.2-1.4-0.4-2.1-0.6c-3.6-0.8-5.8-2.4-6-6.8
	c-0.3-8.2-3.8-15.5-8.4-22.3C1391.2,231.7,1386.7,226,1383.2,219z M1485.4,300.7c2.4-2.9,3.2-5,2.8-7.2c-0.1-0.7-0.1-1.4-1.2-1.3
	c-3.4,0.5-5,3.7-3.1,6.5C1484.4,299.4,1484.9,300.1,1485.4,300.7L1485.4,300.7z M1498.9,296.1c-3.2,1.3-5,2.8-5.5,4.7
	c-0.2,0.6-0.7,1.3,0.3,1.8c2.7,1.4,5.4-0.1,5.5-3.2C1499.3,298.4,1499.7,297.3,1498.9,296.1L1498.9,296.1z"/>
<use xlink:href="#Star-3-3"  width="83.3" height="83.3" x="-41.7" y="-41.7" transform="matrix(0.4783 0 0 -0.3886 1193.64 699.195)" style="overflow:visible;"/>
<path class="st9" d="M241.6,81.2c6,7.6,14.2,9.2,22.7,8.9c4-0.1,8.1-1.1,12.6-1.8c-2.9,3.8-6.2,6-9.2,8.5c-5,3.9-9.5,8.3-12,14.8
	c-1.2,3-3.1,3.5-5.4,3c-8.2-1.7-13,3.2-16.5,10.8c-2.1,4.8-4.2,9.5-6.3,14.3c-6.8-4.4-10.5-3.5-15.7,3.3
	c-4.8,6.3-7.9,13.6-11.2,21.3c-6.2-9.8-14.1-16.5-23.8-20.4c-3.5-1.5-7.1-1.8-10.1,2.3c-0.8-2.8-1.4-5.1-2.1-7.3
	c-3-10.1-8.7-14.3-18.3-12.3c-3.8,0.8-5.7,0.4-7-4.4c-2.4-8.6-6.1-11-17.7-13.2c5.5-2.1,10.4-3.9,15.4-6.1
	c5.8-2.4,11.3-5.6,15.7-10.7c1.7-2,2.4-1.1,3.4,0.4c4.2,6,8.4,12.2,12.9,17.8c4.4,5.5,9.6,9.8,16.9,11.6c-2.7-6.5-0.6-12,1.5-17.7
	c3.9,6.7,9.4,6.5,13.6-0.3c5.1,6.5,5.8,11.1,2.4,15.6c11.9,1,29.3-17.2,37-39.1C240.7,81,241.2,81.2,241.6,81.2z"/>
<path class="st7" d="M192.6,116.4c-0.5,0-0.9-0.2-1.3-0.3c-2.8-0.7-3.3-2-1.8-4.9c0.5-0.8,0.7-0.5,1.2-0.2
	C192.2,112.4,192.9,114.4,192.6,116.4z"/>
<path class="st6" d="M201,110.4c0.4,1.2,1.3,2.7,1.2,3.9c-0.2,1.4-2,1.4-3.2,1.8s-0.5-1.2-0.6-1.8c0-1.4,0.5-2.7,1.5-3.7
	C200.2,110.3,200.5,109.8,201,110.4z"/>
</svg>
