<svg id="Layer_1" data-name="Layer 1" xmlns="http://www.w3.org/2000/svg" xmlns:xlink="http://www.w3.org/1999/xlink" viewBox="0 0 1888.74 1126.19"><defs><style>.cls-1{fill:#fff;}.cls-2{fill:#050505;}.cls-3{fill:#fdfdfd;}.cls-4{fill:#ebb022;}.cls-5{fill:#f6b822;}.cls-6{fill:#030203;}.cls-7{fill:#ecb022;}.cls-8{fill:#f7b922;}.cls-9{fill:#030202;}.cls-10{fill:#050405;}.cls-11{fill:#e57a7a;}.cls-12{fill:#cf991f;}.cls-13{fill:#d39c1f;}.cls-14{fill:#040404;}</style><symbol id="Star-3" data-name="Star-3" viewBox="0 0 13.24 13.64"><path class="cls-1" d="M12.64,2,8.14,3.1H8L4.54,0h-.1V.1L4,4.7v.1L0,7.1s-.1.1,0,.1H0L4.24,9l.1.1,1,4.5s.1.1.1,0h0l3-3.5h.1l4.6.5a.1.1,0,0,0,.1-.1v-.1l-2.4-4V6.3l2-4.2a.35.35,0,0,0-.2-.1Z"/></symbol></defs><title>stars_bats</title><use width="13.24" height="13.64" transform="matrix(4.44, 0, 0, -3.65, 868.5, 329.93)" xlink:href="#Star-3"/><use width="13.24" height="13.64" transform="matrix(3.47, -0.18, -0.24, -2.8, 1302.89, 372.04)" xlink:href="#Star-3"/><use width="13.24" height="13.64" transform="matrix(3.41, 0, 0, -2.74, 727.34, 504.61)" xlink:href="#Star-3"/><use width="13.24" height="13.64" transform="matrix(4.74, 0.67, 0.79, -3.83, 111.56, 382.8)" xlink:href="#Star-3"/><use width="13.24" height="13.64" transform="matrix(5.23, 0, 0, -4.26, 490.98, 397.87)" xlink:href="#Star-3"/><use width="13.24" height="13.64" transform="matrix(5.17, 0.3, 0.43, -4.2, 346.13, 448.56)" xlink:href="#Star-3"/><use width="13.24" height="13.64" transform="matrix(3.35, 0, 0, -2.74, 1092.29, 302.01)" xlink:href="#Star-3"/><use width="13.24" height="13.64" transform="matrix(5.23, 0, 0, -4.26, 1678.81, 937.15)" xlink:href="#Star-3"/><use width="13.24" height="13.64" transform="matrix(5.29, 0, 0, -4.32, 1651.34, 1059.58)" xlink:href="#Star-3"/><use width="13.24" height="13.64" transform="matrix(5.17, 0.12, 0.18, -4.26, 202.81, 405.84)" xlink:href="#Star-3"/><use width="13.24" height="13.64" transform="matrix(4.56, 0, 0, -3.71, 368.36, 367.34)" xlink:href="#Star-3"/><use width="13.24" height="13.64" transform="matrix(3.71, 0, 0, -3.04, 1115.32, 222.74)" xlink:href="#Star-3"/><use width="13.24" height="13.64" transform="matrix(2.91, 0, 0, -2.34, 1074.9, 200.75)" xlink:href="#Star-3"/><use width="13.24" height="13.64" transform="matrix(4.2, 0, 0, -3.41, 845.98, 286.19)" xlink:href="#Star-3"/><use width="13.24" height="13.64" transform="matrix(4.01, -0.85, -1.09, -3.28, 144.14, 321.08)" xlink:href="#Star-3"/><use width="13.24" height="13.64" transform="matrix(2.55, 2.13, 2.55, -2.13, 178.25, 479.55)" xlink:href="#Star-3"/><use width="13.24" height="13.64" transform="matrix(3.95, 0, 0, -3.22, 447.7, 513.71)" xlink:href="#Star-3"/><use width="13.24" height="13.64" transform="matrix(4.56, 0.36, 0.49, -3.77, 351.12, 517.88)" xlink:href="#Star-3"/><use width="13.24" height="13.64" transform="matrix(3.83, 0, 0, -3.1, 1520.68, 868.44)" xlink:href="#Star-3"/><use width="13.24" height="13.64" transform="matrix(5.23, 0, 0, -4.26, 1755.98, 590.39)" xlink:href="#Star-3"/><use width="13.24" height="13.64" transform="matrix(3.77, 1.4, 1.76, -3.1, 1608.46, 430.92)" xlink:href="#Star-3"/><use width="13.24" height="13.64" transform="matrix(4.08, -0.21, -0.28, -3.32, 1334.92, 626.81)" xlink:href="#Star-3"/><use width="13.24" height="13.64" transform="matrix(4.35, 0, 0, -3.53, 1317.98, 490.49)" xlink:href="#Star-3"/><use width="13.24" height="13.64" transform="matrix(4.18, 0, 0, -3.14, 1467.51, 586.11)" xlink:href="#Star-3"/><use width="13.24" height="13.64" transform="matrix(4.34, 0.71, 0.87, -3.52, 1476.37, 495.21)" xlink:href="#Star-3"/><use width="13.24" height="13.64" transform="matrix(4.57, 0, 0, -3.53, 1244.15, 521.16)" xlink:href="#Star-3"/><use width="13.24" height="13.64" transform="matrix(4.29, -0.7, -0.84, -3.62, 1470.84, 480.2)" xlink:href="#Star-3"/><use width="13.24" height="13.64" transform="matrix(3.17, 0, 0, -2.02, 1364.45, 528.57)" xlink:href="#Star-3"/><use width="13.24" height="13.64" transform="matrix(4.53, 0, 0, -4.04, 1252.65, 341.93)" xlink:href="#Star-3"/><use width="13.24" height="13.64" transform="matrix(4.52, -0.21, -0.26, -3.71, 1213.27, 487.91)" xlink:href="#Star-3"/><use width="13.24" height="13.64" transform="matrix(4.06, -0.31, -0.37, -3.31, 1273.42, 749.61)" xlink:href="#Star-3"/><use width="13.24" height="13.64" transform="matrix(7.17, 5.52, 6.17, -6.38, 1000.4, 830.18)" xlink:href="#Star-3"/><use width="13.24" height="13.64" transform="matrix(3.69, 0.91, 1.09, -3.1, 1310.89, 628.27)" xlink:href="#Star-3"/><use width="13.24" height="13.64" transform="matrix(2.37, 1.94, 2.37, -1.94, 1479.15, 547.37)" xlink:href="#Star-3"/><use width="13.24" height="13.64" transform="matrix(3.32, -0.17, -0.21, -2.84, 1205.11, 414.82)" xlink:href="#Star-3"/><use width="13.24" height="13.64" transform="matrix(4.14, -0.06, -0.07, -3.35, 1206.61, 348.32)" xlink:href="#Star-3"/><use width="13.24" height="13.64" transform="matrix(5.25, 0, 0, -4.23, 1386.98, 739.64)" xlink:href="#Star-3"/><use width="13.24" height="13.64" transform="matrix(5.74, 0, 0, -4.7, 1538.42, 413.61)" xlink:href="#Star-3"/><use width="13.24" height="13.64" transform="matrix(3.54, 0, 0, -2.53, 1182.73, 419.55)" xlink:href="#Star-3"/><use width="13.24" height="13.64" transform="matrix(1.44, -3.5, -4.24, -1.19, 1537.51, 536.07)" xlink:href="#Star-3"/><use width="13.24" height="13.64" transform="matrix(4, 0, 0, -3.65, 1296.43, 648.39)" xlink:href="#Star-3"/><use width="13.24" height="13.64" transform="matrix(5.23, 0, 0, -4.26, 333.09, 755.97)" xlink:href="#Star-3"/><use width="13.24" height="13.64" transform="matrix(4.66, 0, 0, -3.8, 251.9, 795.47)" xlink:href="#Star-3"/><use width="13.24" height="13.64" transform="matrix(4.74, 0, 0, -3.89, 138.14, 996.95)" xlink:href="#Star-3"/><use width="13.24" height="13.64" transform="matrix(4.99, 0, 0, -4.08, 0, 911.61)" xlink:href="#Star-3"/><use width="13.24" height="13.64" transform="matrix(4.51, -1.55, -1.38, -4.03, 300.21, 774.97)" xlink:href="#Star-3"/><use width="13.24" height="13.64" transform="matrix(6.05, 0, 0, -4.93, 206.15, 1082.86)" xlink:href="#Star-3"/><use width="13.24" height="13.64" transform="matrix(5.23, 0, 0, -4.26, 66.87, 920.21)" xlink:href="#Star-3"/><use width="13.24" height="13.64" transform="matrix(5.85, 0, 0, -4.76, 213.19, 771.79)" xlink:href="#Star-3"/><use width="13.24" height="13.64" transform="matrix(4.62, 0, 0, -3.77, 424.07, 791.65)" xlink:href="#Star-3"/><use width="13.24" height="13.64" transform="matrix(5.23, -0.67, -0.85, -4.26, 271.85, 740.18)" xlink:href="#Star-3"/><use width="13.24" height="13.64" transform="matrix(5.67, 0, 0, -4.61, 129.51, 1054.43)" xlink:href="#Star-3"/><use width="13.24" height="13.64" transform="matrix(4.07, 1.75, 2.11, -3.3, 236.52, 1011.9)" xlink:href="#Star-3"/><use width="13.24" height="13.64" transform="matrix(3.04, -3.22, -3.95, -2.49, 422.29, 783)" xlink:href="#Star-3"/><use width="13.24" height="13.64" transform="matrix(3.95, 0, 0, -3.24, 108.42, 947.87)" xlink:href="#Star-3"/><use width="13.24" height="13.64" transform="matrix(5.23, 0, 0, -4.26, 1762.31, 210.59)" xlink:href="#Star-3"/><use width="13.24" height="13.64" transform="matrix(5.23, 0, 0, -4.26, 528.61, 1085.31)" xlink:href="#Star-3"/><use width="13.24" height="13.64" transform="matrix(5.23, 0, 0, -4.26, 1002.29, 68.62)" xlink:href="#Star-3"/><use width="13.24" height="13.64" transform="matrix(5.23, 0, 0, -4.26, 1237.28, 58.1)" xlink:href="#Star-3"/><use width="13.24" height="13.64" transform="matrix(5.23, 0, 0, -4.26, 1419.69, 71.56)" xlink:href="#Star-3"/><use width="13.24" height="13.64" transform="matrix(5.23, 0, 0, -4.26, 1598.86, 96.11)" xlink:href="#Star-3"/><path class="cls-2" d="M299.4,482.3c.1.2.3.4.4.6-.1,0-.2.1-.2,0a1.42,1.42,0,0,0-.2-.6Z" transform="translate(-30.86 -2.71)"/><path class="cls-3" d="M273.5,380.7c-.3.7-.9.9-1.3.4s.3-.7.7-1C273,380.3,273.3,380.5,273.5,380.7Z" transform="translate(-30.86 -2.71)"/><path class="cls-3" d="M499.7,394.7c-.5.7-1.3.8-1.7.3-.6-.8,0-.9.7-.7A3,3,0,0,1,499.7,394.7Z" transform="translate(-30.86 -2.71)"/><path class="cls-4" d="M954.5,783.8c-.7-.9-1.1-1.4-1.5-2-1.9-2.7-.3-5.9,3.1-6.5,1.2-.2,1.1.6,1.2,1.3C957.7,778.8,956.9,780.9,954.5,783.8Z" transform="translate(-30.86 -2.71)"/><path class="cls-5" d="M968,779.2c.8,1.2.4,2.3.3,3.3a3.6,3.6,0,0,1-5.5,3.2c-1-.5-.5-1.2-.3-1.8C963.1,782,964.8,780.5,968,779.2Z" transform="translate(-30.86 -2.71)"/><path class="cls-6" d="M852.3,702.1c17.8,10.6,36.1,18.1,57.6,9.5-4.1,34.5,16.2,56,39.2,76.6.3-3.2-1.8-4.8-3.1-6.5-3.2-4-3.4-6.6.4-11.4a46.66,46.66,0,0,1,9.8-8.9c.3,1.5.7,2.6.9,3.8.6,3.6.8,7.4,6.3,6,1.7-.4,3.1.9,3.8,2.3,1.2,2.7,2.3,1.5,3.6.2,1.6-1.6,3.3-3.1,5.4-5.1.2,7.5-.2,14.3-2.9,20.8-.8,1.9-2.2,2.1-3.8,2.1-3.7,0-7.5,0-11.2.3a52.76,52.76,0,0,0,35.9-1.8c8.4-3.4,16-8.3,23.6-13.1,3.8-2.4,7.7-4.7,11.4-7.2,1.4-.9,2.2-1.1,3,.7,5.8,13.2,16.3,22.2,27.4,30.7,3.6,2.8,7.4,5.4,10.8,8.5-2.7-.6-5.4-1.2-8.1-1.7-10.1-1.9-18.2,1.5-24.6,9.3-1.5,1.9-2.9,4.7-4.9,5.2-1.6.4-3.9-1.9-6-2.9a21,21,0,0,1-2.6-1.3c-13.2-6.2-22.5-4-31.5,7.5l-6.9,9.1c-.8-6.9-5.5-8.5-10.8-9-10.8-1-21,1.8-31,5.5-5.8,2.1-11.7,4.3-16.1,9.7-.5-4.7-.8-9-1.4-13.3-1.3-9.1-2.6-18.1-7.2-26.2-4.2-7.5-9.1-9.6-17.2-7.1-2.6.8-2.2-.7-2.2-2.1-.3-8-.7-16-2.4-24-2-9.4-6.6-16.1-16.7-17.9a16.55,16.55,0,0,1-2.1-.6c-3.6-.8-5.8-2.4-6-6.8-.3-8.2-3.8-15.5-8.4-22.3C860.3,714.8,855.8,709.1,852.3,702.1Zm102.2,81.7c2.4-2.9,3.2-5,2.8-7.2-.1-.7-.1-1.4-1.2-1.3-3.4.5-5,3.7-3.1,6.5A17.2,17.2,0,0,0,954.5,783.8Zm13.5-4.6c-3.2,1.3-5,2.8-5.5,4.7-.2.6-.7,1.3.3,1.8,2.7,1.4,5.4-.1,5.5-3.2C968.4,781.5,968.8,780.4,968,779.2Z" transform="translate(-30.86 -2.71)"/><path class="cls-7" d="M276.7,364.7c1.7,1.1,4.3,1.9,5.1,3.6,1,2-1.5,3.8-2.9,5.2s-1.9-.8-2.4-1.6a7.64,7.64,0,0,1-1.2-5.9C275.5,365.4,275.4,364.5,276.7,364.7Z" transform="translate(-30.86 -2.71)"/><path class="cls-8" d="M269.8,376.1a18,18,0,0,1-2.2.2c-4.9.3-6.2-1.4-5.2-6.2.3-1.4,1-1.1,1.8-.7A8.6,8.6,0,0,1,269.8,376.1Z" transform="translate(-30.86 -2.71)"/><path class="cls-9" d="M284,379.4c17.2-14.2,33.4-29.3,41.9-50.6a63.59,63.59,0,0,0,4.3-30.8c-.1-1.1-.1-2.2-.2-3.8,24.3,9.2,45.6,1.3,66.3-10.9-3.2,7.1-8,12.9-12.4,18.8-6.6,8.9-11,18.6-11.6,29.8a3.16,3.16,0,0,1-2.1,3,29.47,29.47,0,0,1-7.6,2.5c-10.7,1.9-15.9,9-18.2,19a127.49,127.49,0,0,0-2.8,25.4v4.5c-.5.1-.7.2-.8.2-12.3-5.3-19.5,1.5-24,11.9-4.7,10.9-6,22.5-7.1,34.2-.1,1.2.6,3-.9,3.6s-2.2-1.1-3.2-1.9c-5-3.6-10.7-5.8-16.5-7.7-9.9-3.4-20.1-5.9-30.7-5.8a27.75,27.75,0,0,0-7.6.9c-4.5,1.3-8.1,3.4-8.3,9.2-4.4-4.6-7.5-9.6-11.5-13.8-7.7-8.2-16.9-10-27.3-6.7a56.61,56.61,0,0,0-13.2,6.1c-1.8,1.2-2.8.9-4.2-.7-3.5-4.2-6.9-8.5-11.7-11.5-7.4-4.6-15.2-4.5-23.3-3a33.07,33.07,0,0,1-5.5.6c8.9-6.3,17.7-12.6,25.7-20,7.1-6.6,13.6-13.6,17.4-22.7,1-2.3,1.9-1.7,3.5-.8,11.6,6.6,22.6,14.4,34.7,20.2,13.9,6.6,28.3,8.7,43.4,5.7,1-.2,2.2-.1,3.2-1.5H261.1c-2.5,0-3.9-1-4.8-3.5-2.6-6.9-2.9-14-3-22,3.2,2.8,5.9,5.2,8.9,7.8,2.1-4.4,5.6-5.8,10.2-4.8,1.4.3,1.9-.5,2.1-1.8.6-3,1.3-5.9,2.1-9.4,4.7,3.8,9.3,7.1,12.6,11.8,2.8,3.9,2.6,6.3-.3,10.2-1.9,2.6-3.7,5.1-5.5,7.7-.3.3-1,.6-.7,1S283.7,380.1,284,379.4Zm-7.3-14.7c-1.3-.3-1.2.7-1.4,1.3a7.73,7.73,0,0,0,1.2,5.9c.5.8,1.1,2.9,2.4,1.6s3.9-3.2,2.9-5.2C281,366.6,278.4,365.8,276.7,364.7Zm-6.9,11.4a8.6,8.6,0,0,0-5.6-6.7c-.8-.3-1.5-.7-1.8.7-1,4.9.3,6.5,5.2,6.2A18,18,0,0,0,269.8,376.1Z" transform="translate(-30.86 -2.71)"/><path class="cls-10" d="M1088.7,464.1c5.2,4.9,11.6,5.5,18.2,4.8a79.92,79.92,0,0,0,9.7-2c-2,2.8-4.4,4.5-6.6,6.4-3.6,3-6.8,6.3-8.3,10.9-.7,2.1-2.2,2.6-4,2.4-6.5-.7-9.9,3-12.1,8.4l-3.9,10.2c-5.6-2.6-8.4-1.8-12,3.2-3.3,4.6-5.2,9.8-7.3,15.3a38.66,38.66,0,0,0-19.8-12.6c-2.8-.8-5.6-.8-7.7,2.2-.8-1.9-1.4-3.4-2.1-4.9-3-6.8-7.7-9.3-15-7.4-2.9.8-4.4.6-5.7-2.6-2.4-5.8-5.5-7.2-14.6-8,4.1-1.8,7.8-3.3,11.5-5.1,4.3-2,8.4-4.5,11.5-8.3,1.2-1.5,1.8-.9,2.7.1,3.7,3.9,7.3,7.9,11.2,11.5s8.1,6.2,13.9,7c-2.5-4.3-1.3-8.2,0-12.3,3.5,4.4,7.7,3.9,10.5-1,4.4,4.2,5.2,7.3,2.9,10.6,9.3,0,21.6-13.6,26.1-29.1A1.33,1.33,0,0,0,1088.7,464.1Z" transform="translate(-30.86 -2.71)"/><path class="cls-8" d="M1053,491.2c-.4,0-.7-.1-1-.1-2.2-.3-2.7-1.2-1.7-3.3.3-.6.5-.4.9-.2A4,4,0,0,1,1053,491.2Z" transform="translate(-30.86 -2.71)"/><path class="cls-7" d="M1059.1,486.6c.4.8,1.2,1.8,1.2,2.6-.1,1-1.5,1.1-2.4,1.4s-.5-.8-.6-1.2a3.46,3.46,0,0,1,.9-2.6C1058.5,486.6,1058.7,486.2,1059.1,486.6Z" transform="translate(-30.86 -2.71)"/><path class="cls-2" d="M127.2,663.5c.2-.1.4-.4.6-.4,2.3.4,3.7,0,5.8-1.9,2.7-2.3.9-4,1-6,6.8.1,9,1.8,9.6,7.4,5.3-11.8,8-27-1.1-40.6,11-1.6,17.6-8.6,22.9-18.7-.1,3.2.1,5.4-.3,7.4-.9,5.7-1.3,11.4,1.3,16.8.8,1.8-.2,2.9-1.3,3.7-5.3,4.1-5.3,9.2-3,14.7,1.3,3.3,2.7,6.5,4.2,10-2.5.6-5.1,1.3-6.1,4.1-.9,2.5-.6,5-.2,7.6.8,5.2,3,10,5,15.1a35.83,35.83,0,0,0-24,4.8c-1.6.9-3,2-2.8,4.3.2,1.9-.8,2-2.2,1.3-.5-.3-1.1-.5-1.7-.8-8.4-3.8-12.9-2.5-18,5.1-.8,1.3-1.3,3-3.5,1.9-6.4-3.3-12.1-2.1-17.5,2.7,1.2-2.7,2.4-5.5,3.6-8.2,2.2-5.3,4-10.7,3.7-16.6-.1-1.9.9-1.6,2-1.5,5.2.2,10.5.6,15.7.7a28.88,28.88,0,0,0,16.5-4.9c-6.4.5-7.1-5.1-10.2-8Z" transform="translate(-30.86 -2.71)"/><path class="cls-8" d="M136.7,666a4.35,4.35,0,0,0-.7.6c-1.6,1.1-2.4.8-3-1-.2-.5.1-.6.4-.6A3.17,3.17,0,0,1,136.7,666Z" transform="translate(-30.86 -2.71)"/><path class="cls-7" d="M137.8,659.5c.8.3,1.8.4,2.3.9.6.7-.2,1.6-.7,2.3s-.8-.2-1.1-.4a3,3,0,0,1-1-2.2C137.3,659.9,137.2,659.5,137.8,659.5Z" transform="translate(-30.86 -2.71)"/><polygon class="cls-11" points="1888.74 1126.19 1806.54 1126.19 1806.54 1126.19 1888.74 1126.19"/><path class="cls-12" d="M668,475.4c.1.9-.5,1-1.1.9-1-.1-1.9-.4-1.7-1.7.1-.7.1-1.7,1-1.6C667.4,473.2,667.7,474.3,668,475.4Z" transform="translate(-30.86 -2.71)"/><path class="cls-13" d="M672.2,472.2c.6,1,2.6,1.4,1.3,3.1-.3.5-1,1.5-1.7.7C670.8,474.8,671,473.5,672.2,472.2Z" transform="translate(-30.86 -2.71)"/><path class="cls-14" d="M663,479.1c-1.9-4.4-.7-8.3.3-12.6,1.5,2.3,2.6,3.2,5.6,3.2,3.6,0,3.5-2.4,5.2-4.1,1.9,3.6,5.7,6.1,3,10.7,9.2-.1,21.3-13.5,25.7-28.7,8.5,6.2,17.7,5.6,27.5,2.8-.6,2.6-2.3,3.6-3.7,4.7-4.4,3.5-8.5,7.3-10.3,12.9a2.5,2.5,0,0,1-2.8,1.8c-8.1-.9-11.5,4.2-14,10.7-.4,1-.7,2.1-1.1,3.1-.9,2.8-.9,6-5.7,3.7-3-1.5-5.6,1.4-7.5,3.9-3.1,4-5,8.6-6.8,13.3-.3.9-.7,1.8-1,2.8a37.24,37.24,0,0,0-20.9-12.9c-2.6-.6-4.8-.2-6.3,2.4-1.2-1.2-1.4-2.7-2-4.2-3.2-7.6-7.6-10-15.6-8-3,.8-4.2.2-5.4-2.6-2.7-6.1-6-7.8-15.3-7.9,6.5-2.8,12.7-4.9,18.1-8.7,1.9-1.4,3.9-2.6,5.2-4.5s2.1-1.2,3.3.1c4.7,4.9,8.9,10.3,14.7,14.2A20.5,20.5,0,0,0,663,479.1Zm5-3.7c-.2-1.1-.6-2.2-1.8-2.4-.9-.1-.8.9-1,1.6-.3,1.4.7,1.6,1.7,1.7C667.5,476.4,668.1,476.2,668,475.4Zm4.2-3.2c-1.2,1.3-1.3,2.6-.3,3.8.7.8,1.3-.2,1.7-.7C674.7,473.5,672.8,473.2,672.2,472.2Zm-9,7c.4.5,1.2.4,1.7-.3" transform="translate(-30.86 -2.71)"/><path class="cls-14" d="M663.7,477.4c-1.3.7-.6,1.5-.4,2.1.4,1.4,1.8.8,3.1,0" transform="translate(-30.86 -2.71)"/><use width="13.24" height="13.64" transform="matrix(2.91, 0, 0, -2.34, 17.99, 598.28)" xlink:href="#Star-3"/><use width="13.24" height="13.64" transform="matrix(2.91, 0, 0, -2.34, 627.44, 443.13)" xlink:href="#Star-3"/><use width="13.24" height="13.64" transform="matrix(2.91, 0, 0, -2.34, 346.11, 170.79)" xlink:href="#Star-3"/><use width="13.24" height="13.64" transform="matrix(2.91, 0, 0, -2.34, 802.61, 177.17)" xlink:href="#Star-3"/><use width="13.24" height="13.64" transform="matrix(2.91, 0, 0, -2.34, 479.06, 202.8)" xlink:href="#Star-3"/><use width="13.24" height="13.64" transform="matrix(2.91, 0, 0, -2.34, 666.96, 201.74)" xlink:href="#Star-3"/><use width="13.24" height="13.64" transform="matrix(2.91, 0, 0, -2.34, 993.29, 449.58)" xlink:href="#Star-3"/><use width="13.24" height="13.64" transform="matrix(2.91, 0, 0, -2.34, 526.71, 754.81)" xlink:href="#Star-3"/><use width="13.24" height="13.64" transform="matrix(2.91, 0, 0, -2.34, 734.46, 839.5)" xlink:href="#Star-3"/><use width="13.24" height="13.64" transform="matrix(2.91, 0, 0, -2.34, 525.38, 987.2)" xlink:href="#Star-3"/><use width="13.24" height="13.64" transform="matrix(2.91, 0, 0, -2.34, 607.16, 302.36)" xlink:href="#Star-3"/><use width="13.24" height="13.64" transform="matrix(2.91, 0, 0, -2.34, 859.79, 480)" xlink:href="#Star-3"/><use width="13.24" height="13.64" transform="matrix(2.91, 0, 0, -2.34, 594.09, 630.13)" xlink:href="#Star-3"/><use width="13.24" height="13.64" transform="matrix(2.91, 0, 0, -2.34, 13.04, 749.97)" xlink:href="#Star-3"/><use width="13.24" height="13.64" transform="matrix(2.91, 0, 0, -2.34, 599.46, 897.75)" xlink:href="#Star-3"/><use width="13.24" height="13.64" transform="matrix(2.91, 0, 0, -2.34, 1272.03, 186.89)" xlink:href="#Star-3"/><use width="13.24" height="13.64" transform="matrix(2.91, 0, 0, -2.34, 1500.23, 373.08)" xlink:href="#Star-3"/><use width="13.24" height="13.64" transform="matrix(2.91, 0, 0, -2.34, 1203.74, 498.86)" xlink:href="#Star-3"/><use width="13.24" height="13.64" transform="matrix(2.91, 0, 0, -2.34, 1030.01, 677.2)" xlink:href="#Star-3"/><use width="13.24" height="13.64" transform="matrix(2.91, 0, 0, -2.34, 878.89, 856.69)" xlink:href="#Star-3"/><use width="13.24" height="13.64" transform="matrix(2.91, 0, 0, -2.34, 1126.07, 934.01)" xlink:href="#Star-3"/><use width="13.24" height="13.64" transform="matrix(2.91, 0, 0, -2.34, 0.11, 302.36)" xlink:href="#Star-3"/><use width="13.24" height="13.64" transform="matrix(2.91, 0, 0, -2.34, 753.59, 302.36)" xlink:href="#Star-3"/><use width="13.24" height="13.64" transform="matrix(5.29, 0, 0, -4.32, 794.82, 718.93)" xlink:href="#Star-3"/><use width="13.24" height="13.64" transform="matrix(5.29, 0, 0, -4.32, 193.69, 644.8)" xlink:href="#Star-3"/><use width="13.24" height="13.64" transform="matrix(5.29, 0, 0, -4.32, 545.68, 173.16)" xlink:href="#Star-3"/><use width="13.24" height="13.64" transform="matrix(5.29, 0, 0, -4.32, 155.98, 187)" xlink:href="#Star-3"/><path class="cls-2" d="M362,974.2c.1.2.4.4.4.6-.3,2.3.1,3.7,2,5.7,2.4,2.6,4.1.8,6,.8.1,6.8-1.5,9-7.1,9.8,11.9,5,27.3,7.2,40.5-2.3,1.9,10.9,9.1,17.3,19.3,22.4-3.2,0-5.4.2-7.4,0-5.8-.8-11.4-.9-16.8,1.8-1.8.9-2.9-.1-3.8-1.2-4.2-5.2-9.3-5-14.8-2.6-3.2,1.4-6.4,2.9-9.9,4.5-.7-2.5-1.4-5-4.3-6-2.6-.9-5-.5-7.6,0-5.2.9-9.9,3.3-14.9,5.4a36.26,36.26,0,0,0-5.5-23.9c-1-1.6-2.1-3-4.3-2.7-1.9.3-2-.7-1.3-2.2a8.65,8.65,0,0,0,.7-1.7c3.5-8.5,2.1-13-5.6-17.8-1.3-.8-3-1.2-2-3.5,3.1-6.5,1.8-12.2-3.3-17.4,2.8,1.1,5.5,2.3,8.3,3.3,5.4,2.1,10.9,3.7,16.7,3.2,1.9-.2,1.6.9,1.6,2-.1,5.2-.3,10.5-.2,15.7a29.18,29.18,0,0,0,5.4,16.4c-.5-6.2,5-7.1,7.9-10.3Z" transform="translate(-30.86 -2.71)"/><path class="cls-8" d="M359.8,983.8a4.35,4.35,0,0,0-.6-.7c-1.2-1.5-.9-2.3.9-3.1.5-.2.6.1.6.4A3.34,3.34,0,0,1,359.8,983.8Z" transform="translate(-30.86 -2.71)"/><path class="cls-7" d="M366.3,984.7c-.3.8-.3,1.8-.9,2.3s-1.6-.2-2.3-.6.1-.8.4-1.1a3.33,3.33,0,0,1,2.1-1.1C365.9,984.2,366.3,984.1,366.3,984.7Z" transform="translate(-30.86 -2.71)"/><path class="cls-2" d="M1635.1,932c.2,0,.6-.1.7,0,1.7,1.6,3.1,2.1,5.8,1.8,3.5-.4,3.1-2.8,4.3-4.4,5.5,4,6.3,6.6,3.6,11.5,11.1-6.6,22-17.6,22.3-34,9.9,5,19.3,3,29.5-2.2-1.9,2.6-3,4.5-4.5,6-4.1,4.2-7.5,8.7-8.6,14.6-.3,1.9-1.8,2.3-3.2,2.3-6.7.3-9.6,4.5-10.9,10.4-.8,3.4-1.5,6.9-2.3,10.7-2.4-1-4.9-1.9-7.4-.1-2.2,1.5-3.4,3.8-4.5,6.1-2.3,4.7-3.2,9.9-4.5,15.2a36,36,0,0,0-22.4-9.8c-1.9-.2-3.7-.1-4.7,1.9-.9,1.7-1.8,1.2-2.5-.2-.3-.5-.6-1.1-.9-1.6-4.7-7.9-9.1-9.4-17.7-6.1-1.4.5-2.8,1.7-4-.5-3.4-6.3-8.8-8.7-15.9-7.8,2.5-1.6,5.1-3.1,7.6-4.7,4.8-3.1,9.4-6.5,12.5-11.5,1-1.6,1.6-.8,2.5-.1,4.2,3.2,8.3,6.5,12.5,9.5a28.48,28.48,0,0,0,16.4,5.4c-5.5-3.3-2.9-8.3-3.7-12.4Z" transform="translate(-30.86 -2.71)"/><path class="cls-8" d="M1641.5,939.4c-.3,0-.6.1-.9.1-1.9,0-2.4-.7-1.9-2.6.1-.6.4-.4.7-.3A3.8,3.8,0,0,1,1641.5,939.4Z" transform="translate(-30.86 -2.71)"/><path class="cls-7" d="M1646,934.7c.5.7,1.3,1.3,1.4,2.1s-1.1,1.2-1.8,1.5-.6-.6-.6-.9a3.1,3.1,0,0,1,.4-2.3C1645.5,934.8,1645.6,934.4,1646,934.7Z" transform="translate(-30.86 -2.71)"/><path class="cls-4" d="M1392.4,820.9a23.32,23.32,0,0,1-2.5-.6c-3.2-.9-4-4.4-1.7-7,.8-.9,1.2-.2,1.8.2C1391.7,814.9,1392.4,817.1,1392.4,820.9Z" transform="translate(-30.86 -2.71)"/><path class="cls-5" d="M1399.9,808.7c1.4.4,1.7,1.5,2.4,2.4,1.9,2.4.7,5.3-2.2,6-1.1.2-1.2-.6-1.4-1.2C1397.8,814,1398.2,811.8,1399.9,808.7Z" transform="translate(-30.86 -2.71)"/><path class="cls-6" d="M1261.6,823.2c20.4-3.2,39.3-9.1,50.4-29.4,18.8,29.1,48.2,32.8,79.1,33.9-1.8-2.6-4.4-2.6-6.6-3-5-1-6.8-2.9-7-9a47.33,47.33,0,0,1,1.9-13.2c1.2.9,2.2,1.6,3.1,2.3,2.8,2.4,5.3,5.2,8.7.6,1-1.4,3-1.3,4.4-.6,2.6,1.3,2.7-.3,2.9-2.2.2-2.3.6-4.5.9-7.4,5,5.6,9,11.1,11,17.8.6,1.9-.4,3-1.6,4.1-2.9,2.4-5.7,4.8-8.4,7.4a53.18,53.18,0,0,0,26.5-24.3c4.3-8,7-16.6,9.8-25.2,1.4-4.3,2.9-8.5,4.2-12.8.5-1.6.9-2.2,2.8-1.3,12.9,6.4,26.8,6.7,40.7,6.2a125.31,125.31,0,0,1,13.7-.3c-2.4,1.3-4.9,2.5-7.3,3.9-9,5-13,12.7-12.9,22.9,0,2.4.7,5.4-.4,7.1-1,1.4-4.2,1.1-6.5,1.6-1,.2-1.9.5-2.8.7-14.1,3.7-19.9,11.3-19.4,25.9.1,3.6.3,7.3.5,11.4-5-4.8-9.7-3.1-14.1,0-8.9,6.1-15.1,14.8-20.4,24-3.1,5.4-6.2,10.8-6.2,17.8-3.4-3.3-6.3-6.4-9.5-9.4-6.8-6.2-13.6-12.2-22.3-15.6-8.1-3.1-13.2-1.6-17.8,5.5-1.5,2.3-2.1.8-3.1-.2a136.51,136.51,0,0,0-17.1-16.9c-7.5-6-15.4-8.2-24.3-3.1a17.6,17.6,0,0,1-2,.9c-3.3,1.7-6,1.8-8.9-1.4-5.5-6.1-12.8-9.6-20.7-11.8C1275.8,827.9,1268.7,826.4,1261.6,823.2Zm130.8-2.3c0-3.8-.7-5.9-2.4-7.3-.5-.4-1-1.1-1.8-.2-2.3,2.6-1.5,6,1.7,7A18.14,18.14,0,0,1,1392.4,820.9Zm7.5-12.2c-1.6,3.1-2,5.3-1.3,7.1.3.6.3,1.4,1.4,1.2a3.59,3.59,0,0,0,2.2-6C1401.6,810.2,1401.2,809.1,1399.9,808.7Z" transform="translate(-30.86 -2.71)"/><path class="cls-10" d="M798.9,144.4c5.2,4.9,11.6,5.5,18.2,4.8a79.92,79.92,0,0,0,9.7-2c-2,2.8-4.4,4.5-6.6,6.4-3.6,3-6.8,6.3-8.3,10.9-.7,2.1-2.2,2.6-4,2.4-6.5-.7-9.9,3-12.1,8.4l-3.9,10.2c-5.6-2.6-8.4-1.8-12,3.2-3.3,4.6-5.2,9.8-7.3,15.3a38.66,38.66,0,0,0-19.8-12.6c-2.8-.8-5.6-.8-7.7,2.2-.8-1.9-1.4-3.4-2.1-4.9-3-6.8-7.7-9.3-15-7.4-2.9.8-4.4.6-5.7-2.6-2.4-5.8-5.5-7.2-14.6-8,4.1-1.8,7.8-3.3,11.5-5.1,4.3-2,8.4-4.5,11.5-8.3,1.2-1.5,1.8-.9,2.7.1,3.7,3.9,7.3,7.9,11.2,11.5s8.1,6.2,13.9,7c-2.5-4.3-1.3-8.2,0-12.3,3.5,4.4,7.7,3.9,10.5-1,4.4,4.2,5.2,7.3,2.9,10.6,9.3,0,21.6-13.6,26.1-29.1A1.33,1.33,0,0,0,798.9,144.4Z" transform="translate(-30.86 -2.71)"/><path class="cls-8" d="M763.2,171.5c-.4,0-.7-.1-1-.1-2.2-.3-2.7-1.2-1.7-3.3.3-.6.5-.4.9-.2A4.15,4.15,0,0,1,763.2,171.5Z" transform="translate(-30.86 -2.71)"/><path class="cls-7" d="M769.3,166.9c.4.8,1.2,1.8,1.2,2.6-.1,1-1.5,1.1-2.4,1.4s-.5-.8-.6-1.2a3.46,3.46,0,0,1,.9-2.6C768.7,166.9,768.9,166.5,769.3,166.9Z" transform="translate(-30.86 -2.71)"/><path class="cls-4" d="M1515.3,303.4c-.7-.9-1.1-1.4-1.5-2-1.9-2.7-.3-5.9,3.1-6.5,1.2-.2,1.1.6,1.2,1.3C1518.5,298.4,1517.7,300.6,1515.3,303.4Z" transform="translate(-30.86 -2.71)"/><path class="cls-5" d="M1528.8,298.8c.8,1.2.4,2.3.3,3.3a3.6,3.6,0,0,1-5.5,3.2c-1-.5-.5-1.2-.3-1.8C1523.9,301.6,1525.6,300.1,1528.8,298.8Z" transform="translate(-30.86 -2.71)"/><path class="cls-6" d="M1413.1,221.7c17.8,10.6,36.1,18.1,57.6,9.5-4.1,34.5,16.2,56,39.2,76.6.3-3.2-1.8-4.8-3.1-6.5-3.2-4-3.4-6.6.4-11.4a46.66,46.66,0,0,1,9.8-8.9c.3,1.5.7,2.6.9,3.8.6,3.6.8,7.4,6.3,6,1.7-.4,3.1.9,3.8,2.3,1.2,2.7,2.3,1.5,3.6.2,1.6-1.6,3.3-3.1,5.4-5.1.2,7.5-.2,14.3-2.9,20.8-.8,1.9-2.2,2.1-3.8,2.1-3.7,0-7.5,0-11.2.3a52.76,52.76,0,0,0,35.9-1.8c8.4-3.4,16-8.3,23.6-13.1,3.8-2.4,7.7-4.7,11.4-7.2,1.4-.9,2.2-1.1,3,.7,5.8,13.2,16.3,22.2,27.4,30.7,3.6,2.8,7.4,5.4,10.8,8.5-2.7-.6-5.4-1.2-8.1-1.7-10.1-1.9-18.2,1.5-24.6,9.3-1.5,1.9-2.9,4.7-4.9,5.2-1.6.4-3.9-1.9-6-2.9a21,21,0,0,1-2.6-1.3c-13.2-6.2-22.5-4-31.5,7.5l-6.9,9.1c-.8-6.9-5.5-8.5-10.8-9-10.8-1-21,1.8-31,5.5-5.8,2.1-11.7,4.3-16.1,9.7-.5-4.7-.8-9-1.4-13.3-1.3-9.1-2.6-18.1-7.2-26.2-4.2-7.5-9.1-9.6-17.2-7.1-2.6.8-2.2-.7-2.2-2.1-.3-8-.7-16-2.4-24-2-9.4-6.6-16.1-16.7-17.9a16.55,16.55,0,0,1-2.1-.6c-3.6-.8-5.8-2.4-6-6.8-.3-8.2-3.8-15.5-8.4-22.3C1421.1,234.4,1416.6,228.7,1413.1,221.7Zm102.2,81.7c2.4-2.9,3.2-5,2.8-7.2-.1-.7-.1-1.4-1.2-1.3-3.4.5-5,3.7-3.1,6.5A17.2,17.2,0,0,0,1515.3,303.4Zm13.5-4.6c-3.2,1.3-5,2.8-5.5,4.7-.2.6-.7,1.3.3,1.8,2.7,1.4,5.4-.1,5.5-3.2C1529.2,301.1,1529.6,300,1528.8,298.8Z" transform="translate(-30.86 -2.71)"/></svg>