<?xml version="1.0" encoding="utf-8"?>
<!-- Generator: Adobe Illustrator 21.1.0, SVG Export Plug-In . SVG Version: 6.00 Build 0)  -->
<svg version="1.0" id="Layer_1" xmlns="http://www.w3.org/2000/svg" xmlns:xlink="http://www.w3.org/1999/xlink" x="0px" y="0px"
	 viewBox="0 0 512 512" enable-background="new 0 0 512 512" xml:space="preserve">
<g>
	<g>
		<g>
			<path fill="#FFFFFF" d="M108.1,299.7c-7.7,0-13.9,6.2-13.9,13.9c0,7.7,6.2,13.9,13.9,13.9c7.7,0,13.9-6.2,13.9-13.9
				C121.9,306,115.7,299.7,108.1,299.7z"/>
			<path fill="#FFFFFF" d="M477.3,193.3l-97.6-39.1c-16.2-6.5-33.3-9.8-50.9-9.8h-59.8c-21.4,0-42.8,5.1-61.9,14.8l-88.4,44.9
				l-63.4,9.2c-15.4,2.2-29.4,9.9-39.6,21.7C5.6,246.9,0,261.9,0,277.5v37.4c0,5.8,4.7,10.5,10.5,10.5h44.9
				c2.3,10.2,7.4,19.5,15,26.9c10.1,9.9,23.5,15.3,37.7,15.3c14.1,0,27.5-5.4,37.6-15.3c7.6-7.4,12.8-16.8,15-26.9h187.7
				c2.3,10.2,7.4,19.5,15,26.9c10.1,9.9,23.5,15.3,37.6,15.3c14.1,0,27.5-5.4,37.6-15.3c7.6-7.4,12.8-16.8,15-26.9h47.7
				c5.8,0,10.5-4.7,10.5-10.5v-70.2C512,221.9,498.4,201.8,477.3,193.3z M371.9,173.7l75.3,30.2h-56.8l-25-32.6
				C367.6,172,369.8,172.8,371.9,173.7z M278.9,165.4h50c1.9,0,3.8,0,5.7,0.1l29.5,38.4h-85.1V165.4z M216.6,177.9
				c12.9-6.5,27-10.6,41.3-12v37.9h-92.3L216.6,177.9z M56.7,234.5C52.4,249,39.6,260,24,261.4C29.5,247.8,41.7,237.2,56.7,234.5z
				 M108.1,346.6c-18.2,0-33-14.8-33-33s14.8-33,33-33s33,14.8,33,33C141.1,331.9,126.3,346.6,108.1,346.6z M401.1,346.6
				c-18.2,0-33-14.8-33-33s14.8-33,33-33c18.2,0,33,14.8,33,33C434.1,331.9,419.3,346.6,401.1,346.6z M491.1,304.4h-36.8
				c-4.4-25.4-26.5-44.8-53.2-44.8c-26.6,0-48.8,19.4-53.2,44.8H161.2c-4.4-25.4-26.6-44.8-53.2-44.8c-26.6,0-48.8,19.4-53.2,44.8
				h-34v-21.9c29.7-0.3,54.1-22.6,57.8-51.3l44-6.4h262.5c0,0,0,0,0,0c0,0,0,0,0,0h66.3v13.6c0,19.2,15.6,34.8,34.7,34.8h4.8
				L491.1,304.4L491.1,304.4z M491.1,252.2h-4.8c-7.6,0-13.8-6.2-13.8-13.8v-13.6h12.3c4,5.7,6.3,12.5,6.3,19.9L491.1,252.2
				L491.1,252.2z"/>
			<path fill="#FFFFFF" d="M401.1,299.7c-7.7,0-13.9,6.2-13.9,13.9c0,7.7,6.2,13.9,13.9,13.9c7.7,0,13.9-6.2,13.9-13.9
				C415,306,408.8,299.7,401.1,299.7z"/>
		</g>
	</g>
</g>
<g>
	<g>
		<path fill="#FFFFFF" d="M290.2,254.1h-69.4c-5.8,0-10.5,4.7-10.5,10.5s4.7,10.5,10.5,10.5h69.4c5.8,0,10.5-4.7,10.5-10.5
			S296,254.1,290.2,254.1z"/>
	</g>
</g>
<g id="SVGCleanerId_0">
	<g>
		<path fill="#FFFFFF" d="M108.1,299.7c-7.7,0-13.9,6.2-13.9,13.9c0,7.7,6.2,13.9,13.9,13.9c7.7,0,13.9-6.2,13.9-13.9
			C121.9,306,115.7,299.7,108.1,299.7z"/>
	</g>
</g>
<g id="SVGCleanerId_1">
	<g>
		<path fill="#FFFFFF" d="M401.1,299.7c-7.7,0-13.9,6.2-13.9,13.9c0,7.7,6.2,13.9,13.9,13.9c7.7,0,13.9-6.2,13.9-13.9
			C415,306,408.8,299.7,401.1,299.7z"/>
	</g>
</g>
<g>
	<g>
		<path fill="#FFFFFF" d="M108.1,299.7c-7.7,0-13.9,6.2-13.9,13.9c0,7.7,6.2,13.9,13.9,13.9c7.7,0,13.9-6.2,13.9-13.9
			C121.9,306,115.7,299.7,108.1,299.7z"/>
	</g>
</g>
<g>
	<g>
		<path fill="#FFFFFF" d="M401.1,299.7c-7.7,0-13.9,6.2-13.9,13.9c0,7.7,6.2,13.9,13.9,13.9c7.7,0,13.9-6.2,13.9-13.9
			C415,306,408.8,299.7,401.1,299.7z"/>
	</g>
</g>
</svg>
