<?xml version="1.0" encoding="utf-8"?>
<!-- Generator: Adobe Illustrator 25.4.1, SVG Export Plug-In . SVG Version: 6.00 Build 0)  -->
<svg version="1.1" id="Layer_1" xmlns="http://www.w3.org/2000/svg" xmlns:xlink="http://www.w3.org/1999/xlink" x="0px" y="0px"
	 viewBox="0 0 595.28 841.89" style="enable-background:new 0 0 595.28 841.89;" xml:space="preserve">
<style type="text/css">
	.st0{fill:#C49A6C;}
	.st1{fill:#603913;}
	.st2{fill:#754C29;}
	.st3{fill:#A97C50;}
	.st4{fill:#8B5E3C;}
</style>
<g>
	<g>
		<g>
			<g>
				<path class="st0" d="M169.06,385.99c-9.71,11.52-12.61,27.07-12.47,41.76c0.15,15.01,3.34,29.96,9.12,43.8
					c5.77,13.82,14.11,26.56,24.58,37.28c10.71,10.97,23.64,19.79,37.61,26.07c13.84,6.22,28.81,9.98,43.98,10.71
					c1.9,0.09,3.8,0.13,5.7,0.13c1.06,0,0.03-1.01-0.31-1.29c-0.78-0.63-2.05-1.44-3.11-1.44c-14.52,0.01-28.94-2.77-42.43-8.12
					c-13.25-5.26-25.47-13.14-35.71-23.06c-10.41-10.09-18.79-22.25-24.72-35.47c-5.91-13.2-9.44-27.48-10.18-41.93
					c-0.74-14.25,1.07-29.5,9.06-41.68c0.99-1.51,2.07-2.95,3.24-4.33C173.93,387.83,169.87,385.03,169.06,385.99L169.06,385.99z"/>
			</g>
		</g>
		<g>
			<g>
				<path class="st0" d="M188.33,528.07c20.67,3.69,41.3,7.78,62.18,10.12c19.42,2.17,39.1,2.77,58.49,0.01
					c17.66-2.51,35.11-7.74,50.6-16.7c14.76-8.54,27.29-20.53,35.94-35.27c8.24-14.03,12.85-30.45,11.53-46.78
					c-0.16-2.03-0.43-4.05-0.77-6.07c-0.16-0.91-1.36-1.8-2.04-2.34c-0.16-0.12-1.87-1.28-1.76-0.65
					c2.76,16.29-0.58,32.97-8.02,47.61c-7.59,14.93-19.18,27.58-33.14,36.78c-14.96,9.86-32.16,15.89-49.73,19.03
					c-18.89,3.37-38.18,3.41-57.24,1.69c-20.76-1.87-41.27-5.74-61.76-9.47c-2.56-0.47-5.13-0.93-7.69-1.39
					c-0.68-0.12,0.78,1.61,0.85,1.68C186.44,526.99,187.35,527.9,188.33,528.07L188.33,528.07z"/>
			</g>
		</g>
		<g>
			<g>
				<path class="st0" d="M198.74,394.19c-9.23,22.53-7.98,47.49-5.2,71.18c2.71,23.16,6.35,47.6,20.4,66.94
					c6.74,9.28,15.69,17.02,26.44,21.24c0.78,0.31,2.26-0.87,2.83-1.3c0.25-0.19,1.73-1.36,1.01-1.64
					c-20.13-7.9-32.66-27.43-38.88-47.32c-3.65-11.68-5.52-23.83-7.04-35.94c-1.51-11.99-2.71-24.07-2.55-36.17
					c0.17-13.42,2.11-26.87,7.22-39.34c0.3-0.73-1.81,0.22-1.91,0.27C200.21,392.58,199.12,393.25,198.74,394.19L198.74,394.19z"/>
			</g>
		</g>
		<g>
			<g>
				<path class="st0" d="M191.83,523.91c15.47,4.48,31.65,5.65,47.67,4.39c16.19-1.28,32.13-4.9,47.61-9.73
					c14.28-4.45,28.68-9.6,41.67-17.12c12.59-7.29,23.22-17.19,30.02-30.16c6.81-13.01,9.83-27.68,11.33-42.19
					c0.19-1.85,0.36-3.7,0.5-5.56c0.05-0.67-1.27-1.51-1.74-1.85c-0.14-0.1-2.25-1.4-2.27-1.14c-1.15,14.5-3.52,29.18-9.37,42.6
					c-2.85,6.54-6.56,12.73-11.21,18.15c-4.64,5.41-10.15,10.03-16.09,13.96c-12.26,8.11-26.19,13.44-40.05,18.12
					c-15.43,5.2-31.32,9.29-47.52,11.2c-15.91,1.88-32.17,1.58-47.82-2.05c-1.98-0.46-3.95-0.98-5.91-1.55
					c-0.97-0.28,0.16,0.85,0.35,1.02C189.75,522.69,190.8,523.61,191.83,523.91L191.83,523.91z"/>
			</g>
		</g>
		<g>
			<g>
				<path class="st0" d="M175.76,422.07c-1.63-12.19,5.73-23.07,13.44-31.78c8.14-9.19,17.2-17.84,26.73-25.58
					c9.33-7.57,19.57-14.21,30.84-18.49c5.86-2.23,12.15-4.03,18.44-4.3c3.24-0.14,6.44,0.16,9.55,1.13
					c2.91,0.91,5.62,2.52,8.1,4.26c6.56,4.62,12.75,9.83,19.07,14.77c6.56,5.13,13.12,10.25,19.68,15.38
					c0.99,0.78,2.53,0.94,3.51,0.02c0.91-0.85,0.79-2.35-0.18-3.12c-12.09-9.45-24.07-19.05-36.28-28.33
					c-5.67-4.31-11.62-7.66-18.82-8.39c-6.84-0.69-13.79,0.76-20.29,2.8c-24.38,7.68-44.35,25.6-61.5,43.91
					c-9.48,10.12-19.21,22.99-17.24,37.71c0.17,1.3,1.35,2.2,2.64,2.19C174.59,424.28,175.93,423.37,175.76,422.07L175.76,422.07z"
					/>
			</g>
		</g>
		<g>
			<g>
				<path class="st0" d="M415.78,481.55c-0.17-15.03-4.74-29.7-12.19-42.69c-7.62-13.28-18.07-24.72-30.09-34.14
					c-12.97-10.16-27.59-18.01-42.71-24.47c-15.75-6.73-32.07-11.95-48.4-17.05c-17.17-5.37-34.42-10.63-51.1-17.41
					c-2.05-0.83-4.08-1.69-6.11-2.57c-0.88-0.38-2.29,0.56-2.95,1.06c-0.31,0.23-1.78,1.46-0.93,1.83
					c16.38,7.1,33.4,12.54,50.42,17.86c16.44,5.14,32.94,10.19,48.94,16.59c15.17,6.07,29.95,13.36,43.3,22.84
					c12.61,8.96,23.77,19.95,32.23,32.94c8.13,12.5,13.77,26.82,14.98,41.75c0.15,1.84,0.23,3.69,0.25,5.54
					C411.42,484.85,415.79,482.91,415.78,481.55L415.78,481.55z"/>
			</g>
		</g>
		<g>
			<g>
				<path class="st0" d="M188.84,418.14c-5.71-13.94-0.49-29.33,7.1-41.43c8.24-13.15,19.95-24.01,32.19-33.4
					c12.38-9.5,25.95-17.39,40.34-23.43c7.27-3.05,14.73-5.64,22.33-7.72c7.93-2.17,16.38-4,24.65-2.95
					c7.23,0.92,13.63,4.24,18.69,9.46c4.94,5.1,8.64,11.23,12,17.45c0.84,1.55,1.66,3.11,2.47,4.67c0.52,1.01,1.83,1.94,3,1.51
					c1.18-0.44,1.21-1.9,0.71-2.86c-6.74-12.98-14.84-27.55-29.41-32.84c-8.47-3.07-17.53-2.52-26.22-0.78
					c-8.15,1.64-16.17,4.17-23.95,7.09c-15.3,5.75-29.86,13.56-43.13,23.09c-13.07,9.39-25.62,20.49-34.91,33.72
					c-8.88,12.64-15.36,28.61-11.45,44.19c0.48,1.91,1.14,3.76,1.89,5.59c0.43,1.04,1.89,1.92,3,1.51
					C189.38,420.53,189.24,419.13,188.84,418.14L188.84,418.14z"/>
			</g>
		</g>
		<g>
			<g>
				<path class="st0" d="M378.61,486.99c11.8-11.3,20.11-25.74,25.36-41.13c2.66-7.79,4.57-15.82,5.84-23.94
					c1.34-8.5,2.17-17.21,1.95-25.82c-0.24-9.29-2.35-18.12-7.35-26.03c-4.63-7.34-10.79-13.71-16.93-19.79
					c-12.08-11.95-25.53-22.51-39.97-31.45c-14.51-8.98-30.03-16.33-46.19-21.8c-1.96-0.66-3.94-1.3-5.92-1.91
					c-0.91-0.28-2.22,0.42-2.99,0.84c-0.19,0.1-1.97,1.23-1.26,1.45c16.11,4.97,31.64,11.76,46.23,20.2
					c14.71,8.51,28.47,18.67,40.9,30.27c6.23,5.81,12.34,11.93,17.6,18.65c5.59,7.14,9.47,15.06,10.73,24.1
					c1.23,8.84,0.56,17.96-0.49,26.79c-0.97,8.17-2.54,16.29-4.83,24.19c-4.48,15.49-11.8,30.33-22.73,42.3
					c-1.34,1.47-2.73,2.88-4.16,4.26c-0.8,0.76,0.91,0.53,1.19,0.45C376.68,488.31,377.79,487.78,378.61,486.99L378.61,486.99z"/>
			</g>
		</g>
		<g>
			<g>
				<path class="st0" d="M187.26,405.7c-11.53-2.99-14.99-16.95-12.19-27.27c1.93-7.11,6.12-13.36,10.84-18.92
					c5.04-5.94,10.75-11.33,16.48-16.61c12-11.06,24.81-21.24,38.3-30.43c12.95-8.83,26.84-17.77,42.51-20.66
					c12.44-2.3,27.22-0.2,36.49,9.14c1.07,1.07,2.06,2.22,2.94,3.45c0.51,0.71,1.59,1.92,2.58,1.33c0.94-0.56,0.38-2.25-0.08-2.9
					c-8.36-11.78-22.84-17.05-36.95-16.34c-16.67,0.84-31.83,9.66-45.44,18.6c-14.4,9.46-28.06,20.04-40.83,31.6
					c-6.13,5.55-12.22,11.26-17.73,17.45c-5.16,5.79-9.71,12.26-12.14,19.69c-3.99,12.24-0.1,28.36,11.96,34.69
					c1.36,0.71,2.82,1.25,4.31,1.64c1.13,0.29,1.42-1,1.23-1.83C189.28,407.21,188.4,406,187.26,405.7L187.26,405.7z"/>
			</g>
		</g>
		<g>
			<g>
				<path class="st0" d="M164.02,435.73c3.63,14.53,10.12,28.2,18.85,40.36c8.7,12.12,19.54,22.75,31.77,31.28
					c13.61,9.49,28.79,16.51,44.7,21.18c15.85,4.65,32.69,7.23,49.22,7.06c8.42-0.09,16.98-1.3,24.6-5.06
					c6.38-3.15,12-8.25,15.13-14.71c0.78-1.62,1.33-3.29,1.78-5.02c0.33-1.25-0.98-2.57-2.1-2.81c-1.36-0.3-2.32,0.51-2.65,1.75
					c-1.65,6.29-6.31,11.43-11.68,14.86c-6.57,4.19-14.38,5.79-22.07,6.19c-8,0.42-16.11-0.17-24.06-1.15
					c-7.83-0.97-15.6-2.44-23.23-4.46c-15.22-4.02-29.86-10.26-43.11-18.78c-11.92-7.67-22.6-17.38-31.34-28.54
					c-8.76-11.17-15.57-23.83-19.72-37.42c-0.49-1.61-0.94-3.24-1.35-4.87c-0.32-1.26-1.32-2.32-2.71-2.28
					C164.88,433.36,163.71,434.49,164.02,435.73L164.02,435.73z"/>
			</g>
		</g>
		<g>
			<g>
				<path class="st0" d="M188.71,493.72c26.27-1.39,52.7-4.79,77.68-13.36c21.63-7.42,42.05-18.86,58.45-34.93
					c8.88-8.7,16.47-18.71,22.13-29.8c0.19-0.36-4.31-2.54-4.59-1.99c-10.09,19.74-26.19,35.83-44.78,47.69
					c-20.9,13.34-44.78,21.13-69.07,25.49c-14.59,2.62-29.38,4.03-44.18,4.81c-0.43,0.02,1.33,1.04,1.43,1.08
					C186.6,493.11,187.76,493.77,188.71,493.72L188.71,493.72z"/>
			</g>
		</g>
		<g>
			<g>
				<path class="st0" d="M213.94,383.16c-2.26,14.37-4.51,28.74-6.12,43.2c-1.55,13.9-2.62,27.96-2.21,41.96
					c0.34,11.63,1.91,23.63,7.07,34.2c5.19,10.62,14.09,19.03,25.11,23.39c11.18,4.42,26.92,5.86,35.82-3.95
					c1.06-1.16-3.58-2.57-4.66-1.38c-7.04,7.76-18.9,7.41-27.98,3.95c-10.49-4-18.78-12.1-23.61-22.17
					c-4.88-10.19-6.45-21.63-6.81-32.81c-0.42-13.23,0.52-26.52,1.9-39.67c1.62-15.36,4.02-30.63,6.41-45.89
					C219.12,382.39,214.18,381.58,213.94,383.16L213.94,383.16z"/>
			</g>
		</g>
		<g>
			<g>
				<path class="st0" d="M162.68,373.16c-5.17,15.49-8.22,31.66-9.04,47.96c-0.8,15.89,0.3,32.18,4,47.68
					c1.65,6.91,4.06,13.8,8.3,19.57c4.28,5.83,10.31,9.97,16.78,13.05c7.05,3.36,14.6,5.75,22.13,7.77
					c8.23,2.21,16.58,3.86,25.04,4.92c6.85,0.86,13.85,1.49,20.74,0.67c5.93-0.7,11.9-2.47,16.43-6.52c1.11-0.99,2.08-2.1,2.95-3.3
					c0.14-0.2-4.11-2.37-4.8-1.41c-7.33,10.16-21.54,10.53-32.84,9.48c-7.91-0.73-15.77-2.03-23.5-3.89
					c-7.12-1.71-14.28-3.8-21-6.73c-6.29-2.74-12.2-6.54-16.49-11.98c-4.32-5.48-6.88-12.12-8.6-18.83
					c-3.77-14.77-4.96-30.41-4.49-45.62c0.49-15.54,2.98-31.02,7.44-45.92c0.55-1.84,1.14-3.68,1.75-5.5
					C167.7,373.91,162.94,372.38,162.68,373.16L162.68,373.16z"/>
			</g>
		</g>
		<g>
			<g>
				<path class="st0" d="M281.4,360.69c-10.69,20.17-22.33,39.83-34.9,58.9c-5.86,8.9-11.77,17.86-18.54,26.1
					c-6.35,7.72-13.7,14.82-22.61,19.5c-9.42,4.95-20.8,7.08-31.11,3.76c-1.16-0.37-2.47-0.07-3.38,0.74
					c-0.6,0.53-1.23,1.91-0.06,2.29c10.07,3.25,20.86,2.17,30.63-1.64c10.09-3.94,18.64-10.69,25.96-18.57
					c7.48-8.05,13.67-17.2,19.78-26.3c6.63-9.88,13.01-19.91,19.15-30.11c6.87-11.42,13.43-23.03,19.67-34.81
					c0.56-1.06-0.78-1.65-1.61-1.63C283.17,358.95,281.97,359.61,281.4,360.69L281.4,360.69z"/>
			</g>
		</g>
		<g>
			<g>
				<path class="st0" d="M381.57,437.49c-9.29,4.49-17.13,11.19-24.56,18.23c-7.64,7.24-15.25,14.47-23.35,21.22
					c-7.99,6.66-16.24,13.16-24.97,18.82c-8.16,5.29-17.12,9.65-26.87,10.84c-8.49,1.04-19.84-0.71-23.39-9.74
					c-0.19-0.49-4.58,1.72-4.18,2.74c3.02,7.68,12.23,10.37,19.79,10.18c10.17-0.25,19.84-4.1,28.6-9.03
					c9.4-5.29,18.08-11.88,26.51-18.56c8.69-6.89,17.05-14.17,25.08-21.83c7.94-7.57,15.77-15.85,25.78-20.68
					c0.82-0.4,2.39-1.14,2.75-2.05C383.09,436.78,382.04,437.27,381.57,437.49L381.57,437.49z"/>
			</g>
		</g>
		<g>
			<g>
				<path class="st0" d="M216.07,315.66c17.57-0.56,35.11-2.18,52.69-2.21c16.84-0.03,34.06,1.45,49.93,7.44
					c13.8,5.2,25.77,13.71,34.87,25.34c8.43,10.79,14.14,23.63,16.75,37.06c2.62,13.48,2.04,27.6-2.28,40.66
					c-0.54,1.62-1.13,3.21-1.77,4.79c-1.07,2.63,3.31,4.79,4.48,1.91c5.45-13.42,6.91-28.18,5.03-42.49
					c-1.9-14.39-7.29-28.26-15.46-40.25c-8.44-12.38-20-22.25-33.55-28.61c-15.93-7.48-33.59-10.03-51.03-10.52
					c-18.05-0.51-36.06,1.05-54.08,1.85c-2.19,0.1-4.38,0.18-6.57,0.25c-1.29,0.04-2.03,1.48-1.79,2.63
					C213.56,314.84,214.76,315.7,216.07,315.66L216.07,315.66z"/>
			</g>
		</g>
		<g>
			<g>
				<path class="st0" d="M212.54,313.5c-0.55,17.61,0.78,35.54,6.09,52.42c4.97,15.83,13.4,30.53,25.87,41.63
					c11.31,10.07,25.62,17.12,40.93,17.74c15.62,0.63,30.57-5.62,42.92-14.83c6.35-4.73,12.12-10.23,17.37-16.15
					c2.65-2.98,5.16-6.09,7.55-9.28c2.36-3.16,4.89-6.65,5.17-10.72c0.14-2.13-0.42-4.23-1.55-6.04c-0.39-0.63-1.37-2.06-2.3-1.57
					c-0.89,0.47-0.19,2.24,0.15,2.79c0.84,1.35,0.42,3.07-0.07,4.49c-0.64,1.85-1.71,3.56-2.84,5.15c-2.18,3.08-4.54,6.05-6.98,8.94
					c-4.89,5.78-10.26,11.16-16.17,15.9c-11.47,9.2-25.21,16.04-40.09,16.79c-14.54,0.73-28.57-4.67-39.96-13.51
					c-11.9-9.25-20.34-21.97-25.49-36.03c-5.74-15.67-7.52-32.56-7.46-49.16c0.01-2.11,0.05-4.21,0.12-6.32
					c0.03-1.1-0.82-2.5-1.73-3.08C213.16,312.07,212.57,312.49,212.54,313.5L212.54,313.5z"/>
			</g>
		</g>
		<g>
			<g>
				<path class="st0" d="M321.23,352.02c14.57,8.43,28.8,17.43,42.65,26.99c6.92,4.78,13.74,9.69,20.47,14.74
					c6.24,4.69,12.39,9.52,18.07,14.88c5.56,5.25,10.77,11.05,14.8,17.58c3.89,6.3,6.78,14.08,4.59,21.48
					c-1.05,3.57-3.29,6.72-5.56,9.62c-2.43,3.1-4.91,6.17-7.41,9.21c-4.97,6.05-10.16,11.97-15.97,17.24
					c-10.85,9.86-24.89,17.73-39.97,17.03c-1.85-0.09-3.67-0.3-5.49-0.65c-1.15-0.22-2.59,0.08-3.4,0.97
					c-0.67,0.74-0.53,1.76,0.56,1.97c15.99,3.09,32.34-2.84,45.09-12.38c6.54-4.89,12.34-10.68,17.72-16.8
					c2.72-3.09,5.33-6.27,7.92-9.47c2.55-3.15,5.19-6.27,7.49-9.61c2.24-3.24,4.01-6.85,4.49-10.79c0.46-3.79-0.18-7.68-1.43-11.26
					c-2.62-7.53-7.67-14.2-12.98-20.05c-5.38-5.94-11.46-11.19-17.74-16.15c-6.64-5.24-13.47-10.24-20.36-15.14
					c-14.29-10.16-29.01-19.72-44.1-28.66c-1.89-1.12-3.8-2.23-5.7-3.34c-1.01-0.58-2.54-0.19-3.43,0.44
					C320.81,350.38,320.22,351.43,321.23,352.02L321.23,352.02z"/>
			</g>
		</g>
		<g>
			<g>
				<path class="st0" d="M245.53,408.37c1.72,24.45,8.36,49.94,25.86,68c7.8,8.05,17.54,14.38,28.3,17.64
					c11.03,3.34,24.96,4.17,34.57-3.21c9.33-7.16,11.69-19.79,13.24-30.75c0.15-1.09-1.69-0.8-2.23-0.63
					c-0.93,0.29-2.25,1.01-2.41,2.1c-1.28,9-2.91,19.57-9.49,26.4c-3.69,3.83-8.71,5.15-13.9,5.33c-5.24,0.18-10.46-0.52-15.5-1.95
					c-10.32-2.94-19.66-8.86-27.28-16.35c-8.15-8.02-14.13-17.99-18.28-28.6c-4.92-12.59-7.3-26.01-8.25-39.45
					C250.03,404.99,245.41,406.74,245.53,408.37L245.53,408.37z"/>
			</g>
		</g>
		<g>
			<g>
				<path class="st0" d="M195.6,440.54c12.58,22.21,30.52,40.62,50.51,56.28c10.04,7.87,20.58,15.08,31.31,21.95
					c5.33,3.42,10.71,6.75,16.12,10.04c2.74,1.67,5.49,3.33,8.25,4.99c2.66,1.6,5.3,3.47,8.18,4.66c7.31,3.02,13.59-2.89,17.97-8.12
					c4.72-5.64,8.16-12.27,10.02-19.39c0.26-0.98-0.58-2.2-1.17-2.91c-0.2-0.24-1.65-1.76-1.88-0.85
					c-1.6,6.14-4.36,11.98-8.18,17.05c-1.88,2.5-4,4.87-6.38,6.91c-2.32,1.99-5.16,3.84-8.31,3.92c-3.27,0.08-6.08-1.91-8.77-3.52
					c-2.64-1.58-5.27-3.16-7.9-4.76c-5.28-3.2-10.54-6.42-15.75-9.73c-20.56-13.01-40.68-27.18-57.7-44.68
					c-9.28-9.54-17.55-20.1-24.12-31.7c-0.36-0.64-1.29-2.32-2.22-2.22C194.65,438.56,195.39,440.16,195.6,440.54L195.6,440.54z"/>
			</g>
		</g>
		<g>
			<g>
				<path class="st0" d="M305.44,412.22c13.67,13.15,32.85,17.09,48.44,27.19c6.87,4.45,13.29,10.24,16.7,17.83
					c4.01,8.91,2.93,19.07-0.67,27.92c-4.28,10.52-12.01,19.16-19.73,27.29c-1.9,2,1.94,5.2,3.85,3.18
					c7.21-7.6,14.24-15.59,18.88-25.08c4.52-9.25,6.54-20.28,3.5-30.29c-5.58-18.36-24.12-27.46-40.32-34.71
					c-9.92-4.44-20.02-8.97-27.96-16.6c-0.85-0.82-2.49-0.91-3.27,0.04C303.99,410.05,304.59,411.4,305.44,412.22L305.44,412.22z"/>
			</g>
		</g>
		<g>
			<g>
				<path class="st0" d="M191.8,396.03c-0.36-15.03,8.29-28.09,18.93-37.97c5.64-5.24,11.91-9.79,18.49-13.79
					c7.44-4.52,15.27-8.51,23.49-11.42c8.14-2.88,16.7-4.61,25.36-4.42c8.82,0.2,17.48,2.61,25.58,6
					c15.5,6.47,29.98,15.87,43.11,26.28c12.89,10.22,24.56,21.91,34.76,34.82c1.3,1.65,2.58,3.32,3.83,5
					c0.69,0.92,2.22,1.41,3.17,0.62c1.03-0.85,0.68-2.31,0-3.24c-10.25-13.77-22.14-26.31-35.31-37.3
					c-13.28-11.09-27.99-20.9-43.67-28.27c-8.29-3.9-17.12-7.01-26.25-8.11c-9.05-1.09-18.13-0.1-26.89,2.33
					c-8.74,2.43-17.05,6.24-24.94,10.68c-7.12,4-13.99,8.47-20.25,13.73c-11.75,9.88-21.89,22.89-23.66,38.58
					c-0.21,1.86-0.28,3.73-0.23,5.6c0.03,1.26,0.99,2.49,2.25,2.73C190.73,398.1,191.83,397.25,191.8,396.03L191.8,396.03z"/>
			</g>
		</g>
		<g>
			<g>
				<path class="st0" d="M280.9,290.79c13.99,26.28,24.18,54.61,30.01,83.81c1.43,7.18,2.67,14.42,3.51,21.7
					c0.78,6.8,1.14,13.84-0.24,20.59c-1.33,6.54-4.45,12.3-9.19,16.99c-4.65,4.59-10.24,8.09-15.73,11.57
					c-15.44,9.79-30.89,19.57-46.33,29.35c-0.71,0.45-1.64,1.57-0.83,2.34c0.81,0.78,2.46,0.07,3.21-0.41
					c14.04-8.89,28.08-17.79,42.12-26.68c11.52-7.3,24.6-14.69,29.68-28.14c2.47-6.54,2.92-13.68,2.55-20.6
					c-0.4-7.31-1.59-14.6-2.87-21.8c-2.66-14.92-6.4-29.66-11.22-44.03c-5.4-16.13-12.15-31.79-20.13-46.8
					C284.49,286.9,279.99,289.07,280.9,290.79L280.9,290.79z"/>
			</g>
		</g>
		<g>
			<g>
				<path class="st0" d="M200.49,342.75c-5.58,5.58-8.07,13.29-9.21,20.92c-1.14,7.64-1.35,15.49-1.38,23.2
					c-0.05,15.38,1.46,30.94,5.71,45.76c4.12,14.37,10.96,28.15,21.29,39.08c5.67,6,12.26,11.32,19.86,14.66
					c8.2,3.62,17.14,4.34,25.87,2.41c8.83-1.95,17.06-6.02,24.72-10.74c7.57-4.66,14.68-10.13,21.12-16.25
					c1.59-1.52,3.14-3.07,4.66-4.67c1.74-1.83-1.22-5.83-3.13-3.81c-5.88,6.2-12.37,11.82-19.4,16.68
					c-7.04,4.86-14.6,9.23-22.67,12.13c-8,2.87-16.67,3.97-24.97,1.74c-7.64-2.05-14.41-6.67-20.15-12
					c-10.26-9.5-17.37-21.99-21.75-35.17c-4.6-13.86-6.51-28.48-6.88-43.04c-0.19-7.31-0.03-14.65,0.54-21.95
					c0.56-7.23,1.71-14.78,5.61-21.04c0.93-1.5,2.06-2.85,3.31-4.1C205.41,344.78,202.46,340.78,200.49,342.75L200.49,342.75z"/>
			</g>
		</g>
		<g>
			<g>
				<path class="st0" d="M266.37,391.61c25.22,4.28,45.56,22.6,58.24,44.07c7.17,12.13,12.25,25.37,16.25,38.84
					c2.06,6.93,3.93,13.95,5.45,21.02c1.49,6.94,2.39,14.47-0.29,21.24c-1.16,2.92-2.93,5.69-5.33,7.75
					c-0.66,0.56-1.37,1.07-2.12,1.5c-0.29,0.17-0.61,0.36-0.94,0.47c-0.31,0.11-0.11,0.04-0.03,0.02c-1.03,0.26-2.33,0.07-3.35-0.12
					c-5.24-0.97-10.19-5.11-10.02-10.79c0.01-0.22-4.79,0.25-4.82,1.33c-0.15,5.1,3.89,9.03,8.49,10.52
					c5.57,1.81,12.36,0.14,16.87-3.48c12.04-9.65,7.22-27.02,3.99-39.63c-3.7-14.42-8.28-28.72-14.98-42.05
					c-6.19-12.31-14.23-23.69-24.52-32.91c-9.58-8.58-21.01-15.29-33.57-18.35c-1.57-0.38-3.15-0.7-4.74-0.97
					c-0.99-0.17-2.12,0.19-3.05,0.51C267.69,390.67,265.93,391.54,266.37,391.61L266.37,391.61z"/>
			</g>
		</g>
		<g>
			<g>
				<path class="st0" d="M369.32,389.01c-11.04,16.73-25.28,31.33-41.5,43.08c-16.29,11.8-34.6,20.75-53.94,26.31
					c-10.83,3.11-22,5.06-33.24,5.89c-1.14,0.08-2.33,1.23-2.14,2.42c0.22,1.34,1.66,1.69,2.8,1.61c20.6-1.52,40.9-6.94,59.63-15.62
					c18.82-8.72,36.09-20.67,50.83-35.27c8.31-8.24,15.71-17.32,22.15-27.08c0.7-1.06-0.33-2.31-1.34-2.61
					C371.28,387.35,370.03,387.93,369.32,389.01L369.32,389.01z"/>
			</g>
		</g>
		<g>
			<g>
				<path class="st0" d="M235.33,395.59c-4.02,24.08,7.33,48.4,24.18,65.16c18.43,18.33,42.89,29.03,67.39,36.62
					c7.07,2.19,15.36,4.59,22.58,1.6c5.4-2.24,10.08-7.81,8.91-13.95c-0.2-1.05-1.26-1.83-2.16-2.3c-0.27-0.14-2.32-0.94-2.13,0.04
					c1.01,5.25-2.52,10.07-7,12.45c-5.78,3.07-12.67,1.8-18.67,0.11c-11.7-3.3-23.3-7.61-34.23-12.93
					c-10.75-5.23-20.92-11.67-29.71-19.82c-8.29-7.69-15.09-17.1-19.65-27.45c-5.15-11.69-7.33-24.61-5.21-37.28
					C239.85,396.49,235.58,394.08,235.33,395.59L235.33,395.59z"/>
			</g>
		</g>
		<g>
			<g>
				<path class="st0" d="M195.29,310.28c-4.51,3.44-7.03,8.63-8.53,13.98c-1.57,5.59-2.4,11.45-3.14,17.2
					c-1.51,11.72-1.97,23.63-0.98,35.42c0.99,11.7,3.45,23.34,7.92,34.23c4.32,10.51,10.53,20.89,19.06,28.54
					c9.72,8.72,23.23,14.2,35.98,8.93c0.64-0.26,1.97-1,1.33-1.85c-0.6-0.8-2.48-0.34-3.19-0.05c-10.02,4.13-21.13-1.56-28.72-8.06
					c-8.41-7.21-14.58-17.05-18.94-27.14c-9.01-20.83-10.5-44.29-8.1-66.63c0.67-6.22,1.54-12.5,2.96-18.6
					c1.32-5.68,3.41-11.56,8.2-15.22c0.82-0.63,0.5-1.41-0.41-1.63C197.59,309.14,196.19,309.6,195.29,310.28L195.29,310.28z"/>
			</g>
		</g>
		<g>
			<g>
				<path class="st0" d="M243.83,275.37c-8.89,21.15-13.84,43.77-14.8,66.68c-0.96,22.68,2.11,45.53,9.13,67.12
					c0.91,2.79,1.79,5.84,4.36,7.57c2.38,1.6,5.4,1.56,8.05,0.78c2.82-0.83,5.11-2.5,7.29-4.4c2.1-1.83,4.14-3.77,6.87-4.59
					c1.15-0.35,1.95-1.83,1.48-2.95c-0.54-1.29-1.99-1.37-3.13-1.03c-2.47,0.74-4.6,2.27-6.54,3.94c-1.66,1.42-3.26,3.1-5.22,4.12
					c-1.54,0.81-3.65,1.54-5.33,0.68c-1.93-0.99-2.48-3.75-3.09-5.61c-3.35-10.23-5.77-20.75-7.28-31.42
					c-3.03-21.46-2.39-43.38,1.93-64.62c2.42-11.92,5.99-23.59,10.7-34.81C249.49,273.9,244.91,272.8,243.83,275.37L243.83,275.37z"
					/>
			</g>
		</g>
		<g>
			<g>
				<path class="st0" d="M346.07,304.18c3.39,13.3,6.41,26.69,9.05,40.17c2.52,12.85,5.82,26.7,1.71,39.57
					c-3.67,11.49-12.06,20.82-19.93,29.66c-4.44,4.99-9.01,9.87-13.68,14.64c-4.43,4.52-8.85,9.26-13.86,13.15
					c-5.34,4.14-11.49,6.34-18.29,5.87c-6.73-0.46-13.17-3.13-18.89-6.6c-0.31-0.19,0.66,1.52,0.74,1.63
					c0.54,0.78,1.18,1.83,2.01,2.34c9.95,6.05,22.79,9.63,33.53,3.41c5.35-3.1,9.71-7.74,14.05-12.06
					c4.74-4.71,9.36-9.54,13.86-14.47c8.23-9.01,17.2-18.41,22.04-29.79c5.25-12.34,3.13-25.53,0.73-38.27
					c-2.87-15.26-6.23-30.42-10.06-45.46c-0.24-0.94-1.07-1.85-1.67-2.59c-0.27-0.34-0.62-0.93-1.01-1.11
					C346.35,304.22,345.99,303.88,346.07,304.18L346.07,304.18z"/>
			</g>
		</g>
		<g>
			<g>
				<path class="st0" d="M153.96,378.99c1.95,17.2,7.86,33.72,16.58,48.64c8.81,15.08,20.53,28.46,34.05,39.5
					c14.54,11.88,31.29,20.95,48.97,27.23c18.38,6.53,37.69,10.14,57.15,11.29c9.49,0.56,19.09,0.63,28.58-0.08
					c7.76-0.58,16.16-2.02,22.3-7.17c1.49-1.25,2.76-2.71,3.82-4.34c0.97-1.51-2.99-4.54-3.88-3.15c-4.29,6.65-12.11,9.31-19.6,10.4
					c-8.76,1.27-17.83,1.2-26.66,0.95c-18.85-0.52-37.68-3.37-55.71-8.96c-17.33-5.37-34.02-13.41-48.56-24.32
					c-13.26-9.95-24.81-22.15-33.83-36.07c-9.05-13.97-15.46-29.68-18.21-46.13c-0.34-2.01-0.61-4.02-0.84-6.05
					c-0.13-1.11-1.42-2.11-2.37-2.5C154.96,377.92,153.83,377.87,153.96,378.99L153.96,378.99z"/>
			</g>
		</g>
		<g>
			<g>
				<path class="st0" d="M331.65,447.9c12.63,8.91,26.63,15.87,41.4,20.47c14.06,4.38,30.51,7.26,43.88-0.7
					c6.06-3.61,10.96-9.2,12.73-16.12c0.15-0.6-1.05-1.71-1.41-2.1c-0.12-0.14-1.91-1.75-1.94-1.61
					c-3.33,13.04-16.71,20.22-29.33,21.04c-8.12,0.53-16.25-1.08-24.02-3.31c-7.35-2.12-14.54-4.82-21.47-8.05
					c-7.86-3.67-15.37-8.05-22.46-13.06c-0.83-0.59,0.14,0.87,0.23,1C329.93,446.34,330.73,447.25,331.65,447.9L331.65,447.9z"/>
			</g>
		</g>
		<g>
			<g>
				<path class="st0" d="M430.98,386.67c-7.81,10.03-15.61,20.07-23.42,30.1c-6.22,8-12.43,16.3-20.43,22.65
					c-3.73,2.96-7.85,5.5-12.38,7.03c-5.14,1.74-10.57,2.04-15.94,1.46c-5.78-0.62-11.42-2.22-16.91-4.07
					c-5.55-1.88-11.01-4.03-16.4-6.3c-12.31-5.19-24.23-11.25-35.69-18.11c-1.63-0.98-5.89,0.87-3.35,2.39
					c10.52,6.3,21.44,11.93,32.69,16.83c5.72,2.49,11.52,4.79,17.39,6.89c5.67,2.03,11.44,3.83,17.39,4.81
					c6.19,1.02,12.51,1.18,18.67-0.15c5.07-1.09,9.85-3.26,14.18-6.07c8.67-5.63,15.43-13.77,21.76-21.83
					c9-11.46,17.9-23,26.85-34.5c0.71-0.91-0.18-1.71-1.07-1.94C433.31,385.58,431.7,385.75,430.98,386.67L430.98,386.67z"/>
			</g>
		</g>
		<g>
			<g>
				<path class="st0" d="M295.13,356.1c0.21,18.37,0.45,37.8,8.89,54.59c6.92,13.76,19.76,26.09,35.63,27.93
					c8.2,0.95,17.05-1.03,22.42-7.71c0.89-1.11-3.37-3.6-4.48-2.21c-4.31,5.36-11.39,7.42-18.06,7.07
					c-6.6-0.35-12.9-3.27-17.97-7.42c-12.1-9.9-17.87-25.11-20.09-40.18c-1.49-10.09-1.62-20.32-1.74-30.5
					C299.71,356.09,295.11,354.35,295.13,356.1L295.13,356.1z"/>
			</g>
		</g>
		<g>
			<g>
				<path class="st0" d="M250.28,364.47c-3.26,19.86,3.66,40.23,15.27,56.26c5.86,8.09,12.92,15.28,20.53,21.72
					c7.55,6.38,15.71,12.37,24.24,17.37c4.59,2.69,10.01,4.91,15.39,3.45c4.79-1.29,9.15-4.97,9.56-10.17
					c0.1-1.24-1.17-1.88-2.25-1.7c-1.22,0.2-2.33,1.25-2.43,2.5c-0.26,3.25-3.38,5.12-6.36,5.5c-4.32,0.55-8.68-1.98-12.19-4.18
					c-7.87-4.93-15.48-10.36-22.57-16.35c-14.09-11.91-26.16-26.69-31.9-44.46c-3.21-9.93-4.32-20.42-2.63-30.75
					c0.2-1.24-1.24-1.87-2.25-1.7C251.4,362.18,250.48,363.21,250.28,364.47L250.28,364.47z"/>
			</g>
		</g>
		<g>
			<g>
				<path class="st0" d="M202.92,408.82c-1.56,9.33,1.92,18.45,6.81,26.26c4.95,7.91,11.27,15.07,17.95,21.55
					c6.76,6.54,14.2,12.57,22.25,17.45c7.78,4.72,16.47,8.05,25.67,7.95c9.03-0.09,18.7-2.89,24.12-10.61
					c0.38-0.54-1.56-0.54-1.77-0.54c-0.61-0.01-2.62-0.12-3.05,0.5c-4.02,5.73-11,9.42-18.01,9.6c-8.33,0.21-16.57-3.88-23.43-8.21
					c-7.43-4.68-14.33-10.27-20.65-16.35c-6.38-6.14-12.4-12.89-17.25-20.3c-5.31-8.11-9.28-17.69-7.63-27.55
					C207.98,408.16,203.09,407.8,202.92,408.82L202.92,408.82z"/>
			</g>
		</g>
		<g>
			<g>
				<path class="st0" d="M230.3,475.04c-3.2,10.39,6.28,19.47,14.22,24.5c9.5,6.01,20.17,10.38,30.87,13.71
					c22.18,6.9,45.52,9.16,68.62,10.33c6.45,0.33,12.9,0.58,19.35,0.8c5.63,0.19,12.22,0.3,16.68-3.71
					c0.61-0.55-1.38-1.03-1.62-1.08c-0.74-0.16-2.44-0.52-3.11,0.08c-3.66,3.29-8.63,3.36-13.28,3.2c-5.45-0.19-10.9-0.4-16.35-0.65
					c-10.87-0.51-21.73-1.23-32.53-2.57c-21.2-2.63-42.38-7.75-61.09-18.36c-8.7-4.93-20.33-14.11-16.8-25.59
					C235.48,474.95,230.65,473.89,230.3,475.04L230.3,475.04z"/>
			</g>
		</g>
		<g>
			<g>
				<path class="st0" d="M249.85,355.5c-7.32,23.91-12.84,49.17-9.95,74.3c1.24,10.76,4.01,21.39,8.54,31.25
					c2.25,4.91,4.96,9.59,8.1,13.99c3.22,4.51,6.92,9.17,11.51,12.35c2.5,1.73,5.52,3.2,8.64,2.85c3.09-0.34,5.77-2.63,8.15-4.45
					c5.42-4.15,10.38-8.87,14.82-14.06c0.61-0.71-3.33-3.75-4.12-2.83c-3.71,4.33-7.78,8.34-12.18,11.96
					c-2.18,1.79-4.44,3.71-6.91,5.09c-2.12,1.18-4.7,1.8-6.95,0.59c-1.96-1.06-3.51-3-4.95-4.65c-1.68-1.93-3.26-3.95-4.74-6.05
					c-2.91-4.12-5.39-8.56-7.48-13.15c-9.16-20.07-10.51-42.71-7.62-64.34c1.82-13.6,5.24-26.92,9.25-40.02
					C254.37,357.02,250.05,354.84,249.85,355.5L249.85,355.5z"/>
			</g>
		</g>
		<g>
			<g>
				<path class="st0" d="M292.94,340.47c-13.01,10.89-20.27,26.92-24.03,43.15c-2.17,9.37-3.3,18.94-4.21,28.51
					c-0.42,4.44-0.98,8.91-1.04,13.38c-0.05,3.96,0.46,8.14,2.72,11.51c2.25,3.34,6.51,4.95,10.28,5.77
					c3.29,0.72,6.89,0.42,8.99-2.52c0.01-0.02-4.2-2.33-4.75-1.56c-0.82,1.14-1.9,1.99-3.25,2.41c-0.63,0.2-1.3,0.31-1.96,0.34
					c-0.3,0.01-0.6,0.01-0.91-0.01c-0.21-0.02-0.98-0.23-0.6-0.05c0.35,0.16,0.8,0.35,0.18,0.02c-0.3-0.17-0.6-0.34-0.88-0.54
					c-0.6-0.42-1.15-0.91-1.64-1.45c-1.21-1.33-2-3.01-2.53-4.72c-1.13-3.66-1.02-7.58-0.74-11.36c0.32-4.33,0.75-8.66,1.18-12.98
					c1.69-16.62,4.42-33.5,12.25-48.46c3.94-7.53,9.12-14.4,15.66-19.87c0.14-0.12-2.1-1.05-2.27-1.1
					C294.94,340.76,293.41,340.07,292.94,340.47L292.94,340.47z"/>
			</g>
		</g>
		<g>
			<g>
				<path class="st0" d="M319.97,364.1c1.56,8.46-3.19,16.52-7.82,23.19c-4.23,6.1-8.92,11.91-14.17,17.16
					c-5.19,5.19-10.96,9.84-17.35,13.49c-6.02,3.44-12.85,6.31-19.81,7.02c-3.46,0.35-7.02,0.2-10.35-0.86
					c-1.33-0.42-2.68-1-3.79-1.83c-0.86-0.65-1.48-1.57-2.03-2.87c-0.43-1.01-1.49-2.06-2.47-2.53c-0.85-0.41-1.19-0.07-0.82,0.8
					c2.79,6.55,9.41,10.3,16.25,11.05c7.19,0.79,14.35-1.39,20.84-4.31c14.53-6.52,26.14-18.26,35.37-30.99
					c5.59-7.71,11.59-16.83,9.75-26.81c-0.19-1.04-1.35-2.08-2.18-2.65C320.93,363.65,319.77,363.04,319.97,364.1L319.97,364.1z"/>
			</g>
		</g>
		<g>
			<g>
				<path class="st0" d="M371.27,300.63c3.7,20.4,2.44,41.51-3.2,61.44c-5.62,19.85-15.53,38.53-29.08,54.11
					c-3.82,4.39-7.93,8.54-12.3,12.38c-2.42,2.13-4.91,4.19-7.8,5.67c-2.67,1.37-5.85,2.35-8.77,1.22c-0.54-0.21-1.72-0.42-1.3,0.5
					c0.42,0.93,1.98,1.57,2.85,1.91c5.76,2.22,11.28-0.4,15.86-3.92c4.21-3.23,8.08-7,11.74-10.84c7.25-7.6,13.58-16.07,18.9-25.12
					c10.69-18.21,17.26-38.79,19.11-59.82c1.04-11.86,0.54-23.83-1.59-35.55c-0.17-0.92-1.67-1.64-2.42-1.97
					C372.98,300.51,371.11,299.78,371.27,300.63L371.27,300.63z"/>
			</g>
		</g>
		<g>
			<g>
				<path class="st0" d="M302.88,265.56c-17.4,14.2-25.79,37.08-29.66,58.58c-4.11,22.83-1.99,47.24,10.92,67.04
					c3.24,4.97,7.12,9.53,11.59,13.43c4.77,4.17,10.18,7.68,16.59,8.46c1.02,0.13,2.66-0.19,3.27-1.12
					c0.63-0.96-0.38-1.46-1.22-1.56c-5.36-0.66-10.07-3.92-14.04-7.39c-3.87-3.38-7.3-7.26-10.26-11.47
					c-5.88-8.38-9.83-18.02-11.95-28.01c-2.5-11.79-2.44-24.01-0.65-35.9c1.68-11.21,4.7-22.38,9.16-32.82
					c4.56-10.69,11.01-20.73,20.08-28.14c0.8-0.65,0.6-1.48-0.35-1.8C305.29,264.52,303.74,264.85,302.88,265.56L302.88,265.56z"/>
			</g>
		</g>
		<g>
			<g>
				<path class="st0" d="M415.59,402.56c-20.9,17.75-42.36,35.58-67.1,47.79c-11.68,5.76-24.12,10.16-37.04,12.09
					c-14.99,2.23-30.1,0.61-44.81-2.63c-8.66-1.9-17.2-4.28-25.73-6.7c-5.16-1.46-12.93-4.35-12.47-10.95
					c0.08-1.19-4.87-1.05-4.98,0.48c-0.41,5.98,5.8,9.28,10.58,11.06c3.39,1.27,6.97,2.1,10.46,3.07c3.96,1.09,7.94,2.16,11.93,3.15
					c15.87,3.92,32.15,6.55,48.53,5.21c14.02-1.15,27.67-5.02,40.52-10.65c12.96-5.67,25.09-13.1,36.61-21.26
					c11.71-8.28,22.82-17.37,33.77-26.61c1.37-1.16,2.74-2.32,4.11-3.48c0.84-0.71-0.43-1.16-1.02-1.24
					C417.94,401.75,416.42,401.86,415.59,402.56L415.59,402.56z"/>
			</g>
		</g>
		<g>
			<g>
				<path class="st0" d="M226.73,348.47c-7.02,13.7-10.39,29.05-10.18,44.41c0.21,15.19,4.07,30.34,11.37,43.68
					c6.73,12.3,16.24,23,27.48,31.36c11.17,8.3,24.51,14.59,38.29,16.91c4.13,0.69,8.52,0.84,12.54-0.52
					c2.86-0.97,5.47-2.59,7.65-4.68c4.7-4.49,7.59-10.55,9.89-16.53c0.57-1.48,1.1-2.96,1.62-4.46c0.38-1.1-0.27-2.3-1.08-3.06
					c-0.48-0.44-2.1-1.39-2.49-0.28c-3.91,11.22-9.87,25.52-23.83,25.71c-7.01,0.1-14.27-2.27-20.75-4.78
					c-6.12-2.37-11.95-5.42-17.41-9.06c-10.66-7.11-19.9-16.48-26.62-27.41c-7.46-12.13-11.69-25.95-12.66-40.14
					c-1-14.61,1.51-29.51,7.4-42.92c0.73-1.66,1.51-3.29,2.34-4.9C231.16,350.12,227.72,346.55,226.73,348.47L226.73,348.47z"/>
			</g>
		</g>
		<g>
			<g>
				<path class="st0" d="M216.75,374.14c-9.04,12.47-13.93,27.44-15.28,42.71c-1.43,16.23,1.22,32.58,6.12,48.04
					c4.97,15.7,12.09,30.81,20.25,45.09c7.63,13.36,16.82,26.05,28.61,36.05c2.91,2.47,6.05,5.4,10,5.87
					c4.33,0.51,7.85-2.35,10.86-5.04c5.98-5.34,11.28-11.42,15.68-18.13c1.12-1.7,2.18-3.44,3.19-5.21c0.6-1.04-0.64-1.78-1.52-1.84
					c-1.21-0.07-2.48,0.53-3.09,1.59c-3.76,6.59-8.39,12.66-13.71,18.07c-1.28,1.3-2.6,2.55-3.96,3.76
					c-1.28,1.14-2.67,2.58-4.29,3.21c-1.48,0.58-3.04-0.27-4.28-1.05c-1.5-0.95-2.88-2.11-4.23-3.25
					c-11.3-9.5-20.22-21.48-27.67-34.15c-7.91-13.46-14.72-27.82-19.79-42.59c-5.08-14.8-8.24-30.4-7.63-46.1
					c0.56-14.55,4.22-29.08,11.86-41.57c0.92-1.5,1.9-2.95,2.93-4.37c0.63-0.87,0.4-1.87-0.69-2.18
					C219.04,372.77,217.43,373.21,216.75,374.14L216.75,374.14z"/>
			</g>
		</g>
		<g>
			<g>
				<path class="st0" d="M320.33,374.01c13.19,4.74,25.78,11.04,37.46,18.78c11.19,7.42,21.87,16.09,30.56,26.37
					c8.39,9.93,15.35,21.82,17.15,34.88c0.89,6.51,0.43,13.17-1.49,19.47c-1.95,6.37-5.18,12.27-8.92,17.76
					c-2.22,3.26-4.63,6.39-7.12,9.46c-2.32,2.86-4.59,5.9-7.2,8.51c-2.12,2.11-5.6,3.6-8.18,1.34c-2.73-2.4-3.61-6.69-4.44-10.06
					c-0.26-1.04-1.3-1.78-2.21-2.24c-0.25-0.12-2.35-0.9-2.12,0.06c0.87,3.54,1.79,7.13,3.92,10.16c2.1,2.99,5.44,5.36,9.02,6.15
					c3.52,0.78,6.39-0.71,8.75-3.26c2.44-2.63,4.68-5.48,6.93-8.27c9.04-11.2,17.24-23.88,17.8-38.7
					c0.53-14.04-5.52-27.47-13.6-38.64c-8.73-12.05-20.07-22.01-32.09-30.66c-12.4-8.92-25.94-16.28-40.15-21.89
					c-1.74-0.69-3.5-1.35-5.27-1.98c-0.66-0.24-1.76-0.38-1.48,0.63C317.92,372.84,319.46,373.7,320.33,374.01L320.33,374.01z"/>
			</g>
		</g>
		<g>
			<g>
				<path class="st0" d="M323.47,325.9c-13.24,22.39-25.77,45.52-32.57,70.78c-3.46,12.85-5.53,26.09-6.16,39.38
					c-0.28,5.79-0.93,12.53,2.15,17.73c2.92,4.93,8.49,7.12,14.03,7.19c13.29,0.17,24.19-9.01,33.17-17.79
					c1.96-1.92-1.03-5.89-3.13-3.84c-7.47,7.3-16.19,15.13-26.96,16.56c-4.31,0.57-9.85,0.24-12.81-3.43
					c-1.51-1.87-1.99-4.37-2.13-6.71c-0.18-2.85-0.03-5.73,0.1-8.58c1.13-25.04,7.77-49.25,18.4-71.89
					c5.88-12.52,12.71-24.56,19.75-36.46C328.69,326.49,325.03,323.26,323.47,325.9L323.47,325.9z"/>
			</g>
		</g>
		<g>
			<g>
				<path class="st0" d="M373.53,352.94c3.56,8.85,7.41,18.38,6.54,28.12c-0.77,8.56-5.32,16.12-10.76,22.55
					c-5.9,6.97-12.68,13.24-19.28,19.53c-7.15,6.82-14.45,13.49-21.87,20.01c-8.32,7.3-16.81,14.41-25.45,21.32
					c-1.2,0.96,3.1,3.19,4.32,2.22c15.56-12.44,30.61-25.52,45.09-39.2c6.83-6.46,13.79-12.92,20.04-19.96
					c5.53-6.23,10.57-13.37,12.18-21.7c2.12-10.97-2.05-21.74-6.07-31.76c-0.41-1.01-1.62-1.55-2.62-1.78
					C375.27,352.2,373.13,351.96,373.53,352.94L373.53,352.94z"/>
			</g>
		</g>
		<g>
			<g>
				<path class="st0" d="M399.42,410.63c1.33,12.97-7.47,23.88-17.11,31.37c-5.26,4.09-10.92,7.64-16.47,11.31
					c-6.08,4.02-12.16,8.04-18.24,12.07c-6.91,4.57-13.82,9.14-20.72,13.71c-0.9,0.59,0.82,0.53,1.07,0.5
					c1.1-0.15,2.31-0.48,3.25-1.1c12.43-8.23,24.87-16.46,37.3-24.68c10.73-7.1,22.93-13.9,30.24-24.84
					c3.85-5.77,6.21-12.67,5.5-19.66C404.19,408.74,399.32,409.6,399.42,410.63L399.42,410.63z"/>
			</g>
		</g>
		<g>
			<g>
				<path class="st0" d="M383.84,501.37c-5.28,10.35-14.77,17.12-25.45,21.16c-11.2,4.24-23.36,5.59-35.25,5.79
					c-13.28,0.22-26.74-1.13-39.47-5.02c-12.77-3.9-24.69-10.34-34.25-19.75c-10.1-9.94-17.27-22.37-23.13-35.16
					c-0.73-1.59-1.43-3.18-2.13-4.79c-0.7-1.62-5.44-0.09-4.81,1.35c5.79,13.36,12.7,26.54,22.58,37.37
					c9.39,10.29,21.41,17.7,34.54,22.22c13.29,4.57,27.4,6.41,41.41,6.48c12.94,0.06,26.12-1.19,38.47-5.22
					c11.6-3.79,22.88-10.16,29.75-20.56c0.82-1.25,1.57-2.54,2.24-3.87C389.34,499.39,384.54,500,383.84,501.37L383.84,501.37z"/>
			</g>
		</g>
		<g>
			<g>
				<path class="st0" d="M246.19,353.32c-0.9,16.2,1,32.47,5.71,48.01c2.33,7.71,5.34,15.22,8.96,22.41c1.77,3.52,3.67,7,5.8,10.31
					c1.97,3.07,4.29,6.02,7.27,8.18c6.03,4.37,16.14,4.7,20.82-1.89c0.67-0.95-0.36-1.67-1.23-1.81c-1.08-0.18-2.6,0.15-3.28,1.1
					c-3.45,4.86-9.99,2.54-13.7-0.7c-2.55-2.23-4.48-5.14-6.22-8.01c-1.92-3.17-3.69-6.44-5.33-9.76
					c-6.6-13.37-10.94-27.84-12.9-42.62c-1.11-8.37-1.47-16.86-1-25.3c0.06-1.12-1.06-1.48-2.03-1.47
					C248.27,351.79,246.25,352.23,246.19,353.32L246.19,353.32z"/>
			</g>
		</g>
		<g>
			<g>
				<path class="st0" d="M267.78,389.63c-1.34,13.81-2.65,27.83-0.73,41.65c1.73,12.4,6.46,23.98,14.2,33.85
					c7.31,9.32,16.64,16.91,26.66,23.15c5.16,3.21,10.53,6.07,16.03,8.66c5.64,2.65,11.58,5.48,17.67,6.9
					c3.35,0.78,6.89,0.92,10.14-0.37c2.54-1.01,4.72-2.76,6.48-4.84c3.84-4.56,5.9-10.42,7.6-16.04c0.37-1.21-4.04-3.27-4.22-2.69
					c-2.66,8.81-7.2,21.05-18.07,21.63c-3.49,0.19-6.91-0.97-10.12-2.21c-2.64-1.02-5.25-2.12-7.83-3.27
					c-4.9-2.18-9.69-4.59-14.32-7.3c-9.41-5.51-18.13-12.31-25.1-20.74c-7.54-9.11-12.38-19.92-14.41-31.56
					c-2.57-14.72-1.15-29.77,0.28-44.53C272.15,390.81,267.87,388.72,267.78,389.63L267.78,389.63z"/>
			</g>
		</g>
		<g>
			<g>
				<path class="st0" d="M321.65,333.76c-13.36,19.25-18.72,42.53-30.39,62.67c-3.22,5.55-6.93,10.8-11.31,15.51
					c-1.44,1.55,3.14,3.41,4.46,2c16-17.22,22.22-40.54,32.1-61.31c2.78-5.85,5.9-11.54,9.6-16.87
					C327.38,333.93,322.73,332.2,321.65,333.76L321.65,333.76z"/>
			</g>
		</g>
		<g>
			<g>
				<path class="st0" d="M341.41,357.78c-9.79,13.73-19.28,27.76-29.91,40.86c-10.1,12.45-21.51,23.69-35.23,32.13
					c-8.15,5.01-16.79,9.18-25.4,13.33c-0.91,0.44,1.01,1.59,1.28,1.71c0.93,0.43,2.17,0.77,3.14,0.3
					c7.72-3.72,15.45-7.45,22.84-11.8c7.08-4.16,13.73-8.94,19.83-14.43c11.84-10.67,21.58-23.4,30.88-36.28
					c5.82-8.05,11.55-16.17,17.32-24.26C346.77,358.48,342.36,356.45,341.41,357.78L341.41,357.78z"/>
			</g>
		</g>
		<g>
			<g>
				<path class="st0" d="M269.94,354.89c-3.87,20.97-0.74,42.98,7.85,62.43c8.62,19.5,22.7,36.7,40.76,48.16
					c5.76,3.65,12.27,7.49,19.26,7.73c6.27,0.22,13.03-2.79,15.49-8.87c0.46-1.13-0.63-2-1.66-2.08c-1.21-0.1-2.56,0.57-3.02,1.73
					c-1.82,4.5-6.98,5.86-11.39,5.24c-5.54-0.78-10.71-4.04-15.34-6.99c-8.51-5.43-16.12-12.17-22.65-19.86
					c-13.04-15.37-21.71-34.33-24.85-54.24c-1.77-11.2-1.62-22.73,0.44-33.88c0.23-1.23-1.5-1.68-2.38-1.57
					C271.19,352.85,270.17,353.65,269.94,354.89L269.94,354.89z"/>
			</g>
		</g>
		<g>
			<g>
				<path class="st0" d="M235.06,394.76c-6.01,15.58-8.99,32.35-8.39,49.06c0.56,15.68,4.32,31.22,11.44,45.23
					c6.4,12.58,15.35,23.92,26.28,32.88c10.76,8.82,24.13,16.46,38.28,17.37c7.15,0.46,14.9-0.86,20.66-5.37
					c5.64-4.43,8.34-11.33,12.23-17.14c0.98-1.47,2.06-2.87,3.25-4.17c0.52-0.56-1.67-0.57-1.82-0.57
					c-0.84,0.03-2.38,0.08-3.01,0.77c-4.66,5.07-7.12,11.63-11.31,17.03c-3.91,5.04-9.44,8.26-15.91,8.18
					c-6.9-0.09-13.69-2.45-19.82-5.47c-6.07-2.98-11.79-6.66-17.06-10.89c-10.68-8.57-19.5-19.39-25.93-31.48
					c-7.04-13.25-11.05-27.95-12.1-42.91c-1.12-15.99,1.06-32.19,6.13-47.39c0.64-1.91,1.32-3.8,2.05-5.68
					c0.19-0.48-2.36-0.36-2.55-0.34C236.83,393.95,235.34,394.03,235.06,394.76L235.06,394.76z"/>
			</g>
		</g>
		<g>
			<g>
				<path class="st0" d="M307.9,513.87c-22.69-18.69-46.87-35.55-72.27-50.34c-7.24-4.22-14.57-8.26-22-12.14
					c-1.01-0.53-2.3-0.05-3.16,0.58c-0.46,0.34-1.8,1.75-0.78,2.28c26.05,13.61,51,29.32,74.52,46.95
					c6.7,5.02,13.29,10.2,19.75,15.53C305.32,517.86,309.49,515.18,307.9,513.87L307.9,513.87z"/>
			</g>
		</g>
		<g>
			<g>
				<path class="st0" d="M183.21,454.19c-0.35-18.51-0.71-37.02-0.24-55.53c0.23-9.07,0.6-18.16,1.4-27.2
					c0.72-8.07,2.02-16.42,6.16-23.52c3.46-5.93,9.89-12.42,17.28-12.11c1.13,0.05,2.45-0.2,3.46-0.71
					c0.76-0.38,0.78-0.78-0.17-0.82c-7.82-0.32-15.5,2.91-20.93,8.48c-5.74,5.89-8.43,13.88-9.74,21.84
					c-1.52,9.16-1.78,18.6-2.13,27.87c-0.37,9.82-0.48,19.66-0.45,29.49c0.04,11.08,0.25,22.15,0.46,33.22
					C178.32,455.8,183.23,455.29,183.21,454.19L183.21,454.19z"/>
			</g>
		</g>
		<g>
			<g>
				<path class="st0" d="M240.57,343.2c25.43-13.07,51.39-26.42,79.71-31.85c3.74-0.72,7.52-1.38,11.33-1.63
					c3.49-0.24,7.01-0.07,10.15,1.6c1,0.53,2.38,0.82,3.49,0.54c0.87-0.21,1.1-0.84,0.2-1.31c-6.71-3.57-14.44-3.23-21.74-2.18
					c-7.48,1.08-14.88,2.76-22.13,4.88C287,317.51,273,323.5,259.33,330.09c-7.69,3.71-15.29,7.6-22.88,11.5
					c-0.96,0.5,0.13,1.19,0.69,1.41C238.06,343.37,239.62,343.69,240.57,343.2L240.57,343.2z"/>
			</g>
		</g>
		<g>
			<g>
				<path class="st0" d="M305.14,347.34c15.43-4.9,31.99-6.24,47.97-3.5c3.69,0.63,7.55,1.29,10.77,3.31
					c2.66,1.66,4.75,4.1,6.37,6.76c3.64,6,5.17,13.09,6.38,19.92c1.68,9.46,2.31,19.09,1.93,28.69c-0.06,1.46,4.92,1.84,4.98,0.47
					c0.35-9.04-0.18-18.11-1.65-27.04c-1.2-7.31-2.7-15-6.42-21.5c-1.67-2.91-3.87-5.6-6.63-7.53c-3.36-2.36-7.3-3.52-11.29-4.33
					c-8.67-1.76-17.59-2.45-26.43-2.1c-9.96,0.39-19.85,2.1-29.36,5.11c-0.92,0.29-0.95,0.95-0.13,1.41
					C302.57,347.54,304.1,347.67,305.14,347.34L305.14,347.34z"/>
			</g>
		</g>
		<g>
			<g>
				<path class="st0" d="M382.23,404.64c2.21,17.19,4.32,34.71,2.21,52.03c-1.04,8.56-3.17,17.01-6.86,24.82
					c-3.6,7.62-8.67,14.38-14.1,20.78c-6.18,7.28-12.83,14.17-18.58,21.8c-0.39,0.52,1.73,0.2,1.85,0.18
					c0.79-0.15,2.36-0.38,2.9-1.09c10.21-13.55,23.5-24.9,31.44-40.09c8.02-15.34,9.63-32.94,8.89-49.98
					c-0.43-9.93-1.63-19.81-2.89-29.67C387,402.86,382.11,403.73,382.23,404.64L382.23,404.64z"/>
			</g>
		</g>
		<g>
			<g>
				<path class="st0" d="M185.52,422.29c-0.9,12.87,2.14,25.47,6.56,37.48c2.22,6.03,4.78,11.94,7.38,17.81
					c2.42,5.47,4.79,11.09,8.36,15.93c3.54,4.81,8.18,8.43,13.56,10.97c5.21,2.46,10.85,3.9,16.45,5.16
					c13.02,2.94,26.26,4.95,39.57,6.03c15.04,1.23,30.18,1.23,45.22,0.04c3.03-0.24,0.53-4.09-1.59-3.92
					c-25.66,2.03-51.59,0.57-76.83-4.47c-5.72-1.14-11.5-2.32-17.03-4.18c-4.93-1.65-9.71-4.04-13.36-7.82
					c-3.83-3.97-6.25-9.07-8.49-14.04c-2.51-5.58-4.98-11.18-7.24-16.87c-5.06-12.73-9.04-26.28-8.07-40.11
					c0.08-1.21-0.82-2.21-1.88-2.69C187.41,421.3,185.61,421.07,185.52,422.29L185.52,422.29z"/>
			</g>
		</g>
		<g>
			<g>
				<path class="st1" d="M238.49,329.51c-11.8,8.55-20.26,20.82-24.89,34.58c-4.59,13.63-5.67,28.7-2.82,42.82
					c0.83,4.11,2.43,8.57,6.33,10.69c3.76,2.03,8.42,1.3,11.12-2.04c0.75-0.93,0.4-2.43-0.67-2.93c-1.24-0.58-2.55,0.1-3.33,1.07
					c-0.42,0.52-1.33,0.7-2.28,0.61c-1.32-0.13-2.47-0.76-3.39-1.69c-2.28-2.32-2.87-5.95-3.4-9.02c-1.09-6.37-1.37-12.85-0.9-19.29
					c0.93-12.69,4.8-25.26,11.85-35.9c3.89-5.87,8.76-11.14,14.47-15.28c0.95-0.69,1.8-1.88,1.11-3.07
					C241.1,329.02,239.44,328.82,238.49,329.51L238.49,329.51z"/>
			</g>
		</g>
		<g>
			<g>
				<path class="st1" d="M211.25,377.06c-3.87,24-7.66,50.17,4.29,72.63c11.03,20.7,33.97,30.23,55.5,36.02
					c6.67,1.79,13.5,3.33,20.36,4.19c5.87,0.73,12.25,0.65,16.94-3.45c1.97-1.72-2.19-4.46-3.99-2.89
					c-3.54,3.1-8.66,3.02-13.06,2.46c-5.79-0.74-11.56-2-17.22-3.43c-10.69-2.69-21.36-6.23-31.07-11.51
					c-8.99-4.88-16.95-11.64-22.14-20.55c-5.33-9.15-7.86-19.78-8.48-30.29c-0.84-14.14,1.43-28.21,3.67-42.12
					C216.43,375.8,211.68,374.41,211.25,377.06L211.25,377.06z"/>
			</g>
		</g>
		<g>
			<g>
				<path class="st1" d="M202.72,416.28c-1.8,7.76-3.47,15.86-2.74,23.87c0.72,8.01,4.13,15.52,10.74,20.35
					c6.51,4.77,14.68,6.53,22.6,7.03c9.18,0.58,18.67-0.21,27.2-3.87c8.14-3.49,15.18-10.11,17.93-18.67
					c0.73-2.26-3.61-4.69-4.42-2.16c-2.21,6.89-7.48,12.27-13.76,15.67c-7.36,3.99-15.96,5.05-24.22,4.93
					c-7.1-0.11-14.52-0.97-20.83-4.46c-6.05-3.35-9.52-9.35-10.48-16.09c-1.16-8.16,0.58-16.51,2.42-24.43
					c0.28-1.22-0.57-2.39-1.64-2.91C204.63,415.11,203,415.05,202.72,416.28L202.72,416.28z"/>
			</g>
		</g>
		<g>
			<g>
				<path class="st1" d="M197.4,353.8c-7.26,14.15-12.2,29.44-14.62,45.16c-1.22,7.89-1.8,15.88-1.74,23.86
					c0.03,3.99,0.23,7.98,0.58,11.95c0.28,3.07,0.22,6.98,2.05,9.63c1.09,1.58,2.73,2.04,4.57,2.19c2.55,0.21,4.88-0.15,7.3-0.92
					c4.41-1.4,8.67-3.19,12.76-5.34c0.41-0.22-1.63-0.47-1.74-0.48c-0.87-0.05-2.26-0.24-3.08,0.19c-3.37,1.78-6.87,3.32-10.47,4.58
					c-0.92,0.32-1.85,0.64-2.79,0.92c-0.14,0.04-1.33,0.29-1.35,0.36c0.08-0.39,1.94,0.58,1.43,0c-0.1-0.12-0.42-0.21-0.56-0.31
					c-1.16-0.78-1.77-2.16-2.14-3.46c-0.92-3.22-1-6.81-1.23-10.13c-0.26-3.69-0.38-7.38-0.36-11.08
					c0.08-14.86,2.41-29.7,6.86-43.87c2.5-7.97,5.69-15.72,9.5-23.15c0.11-0.22-2.31-0.41-2.49-0.41
					C199.45,353.49,197.67,353.28,197.4,353.8L197.4,353.8z"/>
			</g>
		</g>
		<g>
			<g>
				<path class="st1" d="M244.29,402.31c-13.44,12.44-29.21,22.41-46.3,29.03c-5.25,2.03-10.78,3.71-16.47,3.64
					c-0.92-0.01-1.16,0.46-0.48,1.12c0.75,0.74,2.18,1.39,3.25,1.4c9.81,0.12,19.26-4,27.95-8.17c8.44-4.05,16.5-8.9,24.01-14.48
					c4.28-3.18,8.38-6.59,12.29-10.21C249.49,403.75,245.22,401.45,244.29,402.31L244.29,402.31z"/>
			</g>
		</g>
		<g>
			<g>
				<path class="st1" d="M293.39,424.82c2.21,6.05-2.71,12.06-6.6,16.15c-4.43,4.66-9.26,8.9-14.37,12.8
					c-10.2,7.78-21.36,14.21-32.7,20.19c-3.12,1.65-6.27,3.26-9.41,4.86c-1.51,0.77-3.07,1.78-4.68,2.34
					c-0.04,0.01-0.78,0.18-0.54,0.1c0.32-0.1,0.15,0.35,0.16-0.31c0.02-1.92-4.97-1.7-4.99,0.32c-0.04,3.12,4.58,3.09,6.66,2.62
					c1.56-0.35,2.94-1.18,4.35-1.89c1.65-0.84,3.31-1.68,4.96-2.53c6.4-3.28,12.77-6.64,19-10.23
					c12.36-7.13,24.25-15.28,34.33-25.43c5.1-5.14,11.44-12.27,8.59-20.07C297.53,422.04,292.63,422.73,293.39,424.82L293.39,424.82
					z"/>
			</g>
		</g>
		<g>
			<g>
				<path class="st1" d="M342.74,460.78c-4.46,12.08-13.61,21.65-24.51,28.25c-12.6,7.63-27.15,10.93-41.71,12.07
					c-8.99,0.7-18.02,0.61-27.03,0.3c-1.08-0.04-0.51,1.77-0.29,2.25c0.4,0.86,1.26,2.12,2.34,2.16c16.06,0.56,32.4,0.42,48.04-3.71
					c12.94-3.41,25.26-9.67,34.62-19.38c5.05-5.24,9.12-11.36,11.64-18.2c0.38-1.03-0.3-2.26-0.95-3.04
					C344.6,461.13,343.11,459.77,342.74,460.78L342.74,460.78z"/>
			</g>
		</g>
		<g>
			<g>
				<path class="st1" d="M280.1,519.51c15.43,3.13,31.39,3.72,47.03,1.84c15.76-1.89,31.17-6.22,45.6-12.81
					c8.05-3.68,15.74-8.08,22.98-13.17c0.95-0.67,1.69-1.86,0.92-2.97c-0.69-0.99-2.4-1.18-3.37-0.5
					c-12.5,8.78-26.35,15.5-40.97,19.93c-14.68,4.45-30.01,6.58-45.35,6.31c-8.56-0.15-17.1-1.12-25.49-2.83
					C278.68,514.76,276.92,518.87,280.1,519.51L280.1,519.51z"/>
			</g>
		</g>
		<g>
			<g>
				<path class="st1" d="M227.71,426.93c-3.44,1.35-4.29,5.35-4.6,8.64c-0.46,4.92-0.51,9.88-0.27,14.81
					c0.49,9.98,2.27,19.87,4.86,29.51c1.25,4.64,2.66,9.23,4.26,13.76c1.26,3.59,2.72,7.14,4.69,10.41c1.9,3.16,4.32,6.07,7.41,8.12
					c3.57,2.36,7.97,3.8,12.25,3.99c9.85,0.43,18.29-6.68,24.53-13.54c0.29-0.32-2.05-1.18-2.23-1.24
					c-0.53-0.16-2.07-0.77-2.54-0.25c-5.3,5.82-12.11,11.83-20.18,13.08c-1.72,0.27-3.66,0.38-5.35-0.14
					c-1.26-0.39-2.42-1.19-3.45-2c-2.69-2.11-4.74-4.96-6.39-7.93c-1.74-3.12-3.06-6.45-4.23-9.82c-1.53-4.42-2.91-8.88-4.11-13.4
					c-2.34-8.82-4-17.83-4.62-26.94c-0.35-5.16-0.36-10.35,0.03-15.51c0.26-3.49,0.68-8.36,4.46-9.85c0.62-0.24-1.36-1.09-1.48-1.13
					C230,427.22,228.55,426.6,227.71,426.93L227.71,426.93z"/>
			</g>
		</g>
		<g>
			<g>
				<path class="st1" d="M272.55,462.47c-6.35,11.81-7.87,26.56-0.97,38.47c5.99,10.34,17.65,16.83,29.66,14.67
					c6.34-1.14,12.39-4.47,16.05-9.88c1.64-2.43-2.82-4.23-4.17-2.23c-5.46,8.07-16.63,10.92-25.42,6.81
					c-9.94-4.65-15.6-15.48-15.7-26.19c-0.07-7.13,1.94-14.06,5.3-20.3C278.55,461.47,273.71,460.32,272.55,462.47L272.55,462.47z"
					/>
			</g>
		</g>
		<g>
			<g>
				<path class="st1" d="M321.81,487.92c-1.81,7.48,6.86,12.36,12.38,15.04c7.21,3.51,14.97,5.68,22.92,6.63
					c0.98,0.12,2.29-0.49,2.17-1.63c-0.13-1.24-1.73-1.72-2.73-1.84c-6.62-0.79-13.08-2.66-19.13-5.46
					c-4.28-1.98-12.19-5.64-10.74-11.62C327.21,486.85,322.35,485.7,321.81,487.92L321.81,487.92z"/>
			</g>
		</g>
		<g>
			<g>
				<path class="st1" d="M261.88,484.17c-4.24-14.43-12.42-27.32-21.85-38.9c-4.76-5.85-9.86-11.43-15.06-16.89
					c-5.05-5.3-10.24-10.48-14.91-16.13c-5.21-6.31-9.65-13.22-11.98-21.13c-0.8-2.73-5.46-0.92-4.65,1.83
					c4.2,14.3,14.94,25.24,25,35.7c10.36,10.76,20.55,21.9,28.46,34.63c4.41,7.09,7.97,14.71,10.33,22.72
					C258.02,488.73,262.68,486.92,261.88,484.17L261.88,484.17z"/>
			</g>
		</g>
		<g>
			<g>
				<path class="st1" d="M202.17,370.13c-1.33,17.05-2.59,34.18-1.57,51.28c0.99,16.58,4.21,33.24,11.53,48.26
					c6.34,13.01,15.49,24.67,26.58,33.98c11.02,9.26,23.83,16.31,37.69,20.28c12.3,3.52,27.99,4.82,38.57-3.83
					c1.25-1.02,2.37-2.17,3.38-3.42c1.12-1.38-2.23-5.02-3.16-3.88c-8.49,10.43-23.5,10.9-35.65,8.28
					c-13.25-2.86-25.82-9.07-36.56-17.26c-10.7-8.15-19.64-18.55-26.06-30.37c-7.48-13.8-11.02-29.45-12.33-44.99
					c-1.4-16.54-0.45-33.18,0.79-49.69c0.15-2.01,0.31-4.02,0.46-6.04c0.09-1.1-1-2.34-1.83-2.92
					C203.34,369.34,202.25,369.02,202.17,370.13L202.17,370.13z"/>
			</g>
		</g>
		<g>
			<g>
				<path class="st1" d="M229.44,339.17c-10.72,8.73-19.51,19.72-25.89,31.98c-6.33,12.17-10.28,25.65-11.41,39.33
					c-1.12,13.48,0.62,27.13,5.09,39.9c4.37,12.49,11.26,24.05,19.98,33.99c8.78,10,19.47,18.26,31.42,24.11
					c1.49,0.73,3.01,1.42,4.53,2.07c1.51,0.64,5.6-2.01,3.43-2.93c-11.94-5.1-22.72-12.7-31.74-22.01
					c-9.04-9.32-16.28-20.37-21.21-32.39c-5-12.21-7.46-25.3-7.11-38.5c0.36-13.48,3.51-26.82,9.08-39.09
					c5.5-12.12,13.37-23.22,23.27-32.15c1.23-1.11,2.49-2.18,3.77-3.23c0.68-0.55,1.12-1.57,0.11-2
					C231.73,337.8,230.22,338.54,229.44,339.17L229.44,339.17z"/>
			</g>
		</g>
		<g>
			<g>
				<path class="st1" d="M239.25,521.72c2.79-14.17,8.4-27.79,16.52-39.74c2.3-3.39,4.8-6.64,7.47-9.75
					c0.72-0.84-0.71-0.94-1.23-0.89c-1.04,0.1-2.44,0.52-3.16,1.35c-9.51,11.07-16.79,24.04-21.24,37.94
					c-1.27,3.97-2.3,8.01-3.1,12.1C234.27,523.98,238.99,523.05,239.25,521.72L239.25,521.72z"/>
			</g>
		</g>
		<g>
			<g>
				<path class="st1" d="M316.19,475.64c-1.6,10.9-5.02,21.72-11.25,30.89c-6.33,9.31-15.45,15.76-25.49,20.59
					c-5.74,2.76-11.69,5.05-17.64,7.31c-0.13,0.05,1.56,1.74,1.69,1.86c0.32,0.28,1.57,1.63,2.06,1.44
					c10.39-3.95,20.97-8,30.05-14.55c9.07-6.55,15.59-15.59,19.63-25.98c2.28-5.87,3.77-12.03,4.69-18.26
					c0.08-0.53-1.35-1.55-1.69-1.86C318.1,476.95,316.2,475.59,316.19,475.64L316.19,475.64z"/>
			</g>
		</g>
		<g>
			<g>
				<path class="st1" d="M376.23,497.33c-17.6,14.24-36.91,26.34-57.43,35.92c-2.81,1.31-5.64,2.58-8.49,3.79
					c-2.48,1.05-5.86,3.05-8.57,1.92c-0.96-0.4-2.54-0.25-2.96,0.86c-0.44,1.19,0.83,2.15,1.75,2.53c2.94,1.21,6.09,0.7,8.97-0.38
					c2.8-1.05,5.55-2.31,8.28-3.52c5.31-2.36,10.54-4.89,15.68-7.58c10.43-5.45,20.51-11.56,30.16-18.29
					c5.5-3.83,10.85-7.87,16.06-12.08C381.91,498.7,377.99,495.91,376.23,497.33L376.23,497.33z"/>
			</g>
		</g>
		<g>
			<g>
				<path class="st1" d="M258.06,349.73c-17.18,21.47-26.5,49.15-25.2,76.68c0.18,3.74,0.7,7.73,3.11,10.75
					c2.35,2.93,6.02,4.25,9.67,3.35c1.01-0.25,2.34-1.24,2.24-2.41c-0.11-1.23-1.57-1.31-2.48-1.09c-2.47,0.61-4.97-1.71-6.05-3.69
					c-1.57-2.89-1.71-6.28-1.82-9.49c-0.21-6.26,0.12-12.55,1-18.75c1.79-12.56,5.68-24.82,11.53-36.07
					c3.27-6.28,7.12-12.24,11.54-17.77c0.63-0.79,0.9-1.95-0.21-2.46C260.36,348.28,258.74,348.88,258.06,349.73L258.06,349.73z"/>
			</g>
		</g>
		<g>
			<g>
				<path class="st1" d="M247.51,372.98c5.95,17.35,11.89,34.71,17.84,52.06c2.91,8.48,6.03,16.93,8.62,25.52
					c2.33,7.74,4,15.99,2.57,24.06c-1.33,7.5-5.23,14.73-12.04,18.53c-0.47,0.26,1.68,0.45,1.77,0.45c0.94,0,2.2,0.04,3.06-0.44
					c5.86-3.28,9.67-9.17,11.47-15.54c2.17-7.7,1.23-15.78-0.75-23.41c-2.27-8.77-5.56-17.3-8.5-25.87
					c-2.99-8.72-5.97-17.43-8.96-26.15c-3.36-9.82-6.73-19.63-10.09-29.45C252.17,371.8,247.44,372.78,247.51,372.98L247.51,372.98z
					"/>
			</g>
		</g>
		<g>
			<g>
				<path class="st1" d="M338.87,422.26c-11.64,19.7-29.71,35.4-50.69,44.47c-5.84,2.52-11.88,4.52-18.07,5.95
					c-2.98,0.69,0.09,4.14,2.23,3.65c22.92-5.29,43.97-18,59.4-35.76c4.38-5.04,8.29-10.49,11.69-16.24
					C344.56,422.41,340.05,420.27,338.87,422.26L338.87,422.26z"/>
			</g>
		</g>
		<g>
			<g>
				<path class="st1" d="M376.17,475.04c-18.46,11.93-40.93,17.28-62.8,15.39c-6.26-0.54-12.44-1.67-18.47-3.4
					c-1.25-0.36-2.68,0.12-3.27,1.34c-0.53,1.09-0.03,2.57,1.2,2.92c22.52,6.48,47.05,5.08,68.77-3.69
					c6.08-2.46,11.92-5.51,17.43-9.07c1.04-0.67,1.37-2.23,0.57-3.21C378.73,474.25,377.22,474.36,376.17,475.04L376.17,475.04z"/>
			</g>
		</g>
		<g>
			<g>
				<path class="st1" d="M292.99,425.39c-1.5,12.06-0.19,24.4,3.81,35.88c1.92,5.5,4.4,10.9,7.62,15.76
					c2.93,4.42,6.7,8.43,11.67,10.51c3.12,1.31,6.64,1.9,10.01,2c3.1,0.1,6.12-0.46,8.77-2.13c0.38-0.24-1.54-0.61-1.68-0.63
					c-0.68-0.12-2.42-0.61-3.08-0.2c-2.09,1.32-4.58,2.13-7.07,2.03c-0.41-0.02,0.03,0.07-0.5-0.08c-0.54-0.15-1.06-0.31-1.59-0.51
					c-1.21-0.46-2.36-1.07-3.44-1.79c-4.23-2.79-7.33-6.93-9.84-11.27c-5.38-9.32-8.71-19.84-9.88-30.52
					c-0.67-6.11-0.62-12.28,0.14-18.38C298,425.59,293.05,424.93,292.99,425.39L292.99,425.39z"/>
			</g>
		</g>
		<g>
			<g>
				<path class="st1" d="M255.05,394.88c2.04,11.29,4.3,22.54,6.79,33.74c1.24,5.6,2.55,11.19,3.9,16.76
					c0.66,2.71,1.33,5.41,2.02,8.11c0.61,2.39,1.14,4.86,2.18,7.11c2.16,4.71,7.7,8.34,12.79,5.55c1.02-0.56,1.96-1.72,1.39-2.94
					c-0.52-1.12-2.12-1.4-3.14-0.84c-3.5,1.92-6.25-2.89-7.16-5.53c-1.63-4.72-2.58-9.77-3.75-14.62
					c-2.45-10.2-4.72-20.44-6.8-30.72c-1.19-5.86-2.31-11.74-3.37-17.63C259.38,391.03,254.57,392.26,255.05,394.88L255.05,394.88z"
					/>
			</g>
		</g>
		<g>
			<g>
				<path class="st1" d="M228.47,347.72c4.33,1.56,8.65,3.12,12.98,4.68c1.98,0.71,4.18,1.26,6.04,2.25
					c0.13,0.07,0.66,0.46,0.7,0.46c-0.42-0.02-0.89-2.39-1.13-1.58c-0.12,0.41-0.07,0.96-0.17,1.39c-0.22,0.97-0.62,1.89-0.98,2.82
					c-3.37,8.62-6.75,17.23-10.12,25.85c-1.93,4.92-3.86,9.85-5.78,14.77c-0.29,0.74,0.83,2.28,1.21,2.85
					c0.15,0.22,1.2,1.79,1.44,1.19c3.8-9.69,7.59-19.38,11.39-29.08c0.93-2.38,1.87-4.77,2.8-7.15c0.88-2.24,1.96-4.49,2.6-6.81
					c0.66-2.39-0.15-4.51-1.48-6.53c-1.31-1.99-3.02-2.7-5.19-3.48c-5.49-1.98-10.97-3.95-16.46-5.93c-0.64-0.23,0.24,1.72,0.3,1.84
					C226.97,345.96,227.63,347.42,228.47,347.72L228.47,347.72z"/>
			</g>
		</g>
		<g>
			<g>
				<path class="st2" d="M255.64,347.35c-9.61,16.13-15.03,34.7-15.83,53.45c-0.4,9.31,0.35,18.67,2.27,27.79
					c0.9,4.24,1.8,8.73,4.51,12.24c2.87,3.71,7.53,5.15,11.95,6.04c11.87,2.41,24.11,2.97,36.16,2.01c0.82-0.07,2.16-0.67,1.78-1.69
					c-0.39-1.06-2.18-1.11-3.06-1.04c-9.96,0.8-20.01,0.36-29.86-1.29c-4.11-0.69-8.88-1.27-11.88-4.47
					c-2.83-3.02-3.72-7.57-4.56-11.48c-3.74-17.45-3.15-35.91,1.58-53.12c2.66-9.68,6.61-18.97,11.74-27.59
					C261.47,346.47,256.59,345.75,255.64,347.35L255.64,347.35z"/>
			</g>
		</g>
		<g>
			<g>
				<path class="st2" d="M306.55,381.08c2.84,9.72,5.22,19.56,7.11,29.51c0.91,4.8,1.74,9.62,2.39,14.47
					c0.6,4.43,1.02,8.96,0.48,13.42c-0.5,4.14-1.82,8.11-4.33,11.48c-2.12,2.84-4.89,5.05-7.94,6.81
					c-6.31,3.64-13.66,5.3-20.75,6.64c-1.64,0.31-4.15,0.98-5.39-0.1c-1.1-0.97-1.42-2.59-1.63-3.97c-0.57-3.68-0.28-7.5-1.92-10.96
					c-0.89-1.88-5.77-1.88-4.6,0.58c1.49,3.15,1.11,6.84,1.65,10.21c0.61,3.78,2.72,6.9,6.61,7.85c2.45,0.6,4.93,0.2,7.36-0.27
					c2.06-0.39,4.1-0.83,6.14-1.31c3.84-0.9,7.66-1.99,11.3-3.53c7.48-3.16,14.08-8.28,16.93-16.13c3.34-9.19,1.24-19.64-0.35-28.96
					c-2.04-11.96-4.78-23.79-8.18-35.44c-0.34-1.17-1.52-1.81-2.7-1.88C307.97,379.46,306.21,379.9,306.55,381.08L306.55,381.08z"/>
			</g>
		</g>
		<g>
			<g>
				<path class="st2" d="M340.46,434.48c7.46,6.26,8.66,18.21,5.04,26.77c-2.04,4.82-5.64,8.55-10.27,10.95
					c-5.67,2.94-12.18,3.8-18.46,4.38c-3.11,0.29-6.24,0.59-9.37,0.35c-1.43-0.11-2.88-0.33-4.23-0.8
					c-0.16-0.06-0.44-0.22-0.59-0.23c-0.29-0.02-0.05-0.2,0.19,0.14c-0.39-0.53-0.87-0.96-1.21-1.54c-0.51-0.85-1.59-1.44-2.43-1.91
					c-0.19-0.1-2.01-0.84-1.78-0.45c3.24,5.41,10.1,7.61,16.08,7.67c3.26,0.03,6.53-0.33,9.77-0.68c3.54-0.39,7.09-0.94,10.51-1.96
					c5.94-1.77,11.4-5.04,14.63-10.47c2.76-4.63,3.77-10.17,3.22-15.51c-0.65-6.34-3.66-11.93-8.53-16.02
					c-0.69-0.58-2.03-1.67-2.98-1.68C339.13,433.46,340.11,434.19,340.46,434.48L340.46,434.48z"/>
			</g>
		</g>
		<g>
			<g>
				<path class="st2" d="M286.62,359.77c-0.66,11.11,3.68,21.64,8.67,31.33c4.72,9.16,10.08,18,16.27,26.24
					c12.29,16.36,28.07,30.27,47.12,38.16c10.6,4.39,22,6.77,33.48,6.56c1.13-0.02,2.29-0.26,3.38-0.56c0.24-0.07,1.76-0.6,0.8-0.58
					c-20.61,0.36-40.65-7.88-56.69-20.5c-16.03-12.61-28.3-29.41-37.87-47.28c-5.65-10.56-10.98-22.08-10.25-34.34
					C291.53,358.76,286.67,358.94,286.62,359.77L286.62,359.77z"/>
			</g>
		</g>
		<g>
			<g>
				<path class="st2" d="M278.21,366.29c-15.97,9.23-23.58,26.65-27.43,43.94c-2.05,9.23-3.76,18.77-4.25,28.23
					c-0.46,8.87,0.42,18.43,5.13,26.18c1.39,2.28,3.12,3.03,5.73,2.44c2.73-0.61,5.37-1.81,7.79-3.19c4.28-2.43,7.96-5.74,10.75-9.8
					c0.3-0.44-1.7,0.06-1.81,0.1c-0.74,0.21-2.34,0.53-2.83,1.24c-2.3,3.34-5.2,6.23-8.62,8.43c-0.79,0.51-1.6,0.97-2.43,1.39
					c-0.34,0.17-0.73,0.44-1.1,0.51c-0.04,0.02-0.08,0.03-0.12,0.05c0.47-0.18,0.53-0.28,0.17-0.3c-0.14-0.12-0.65-0.21-0.83-0.31
					c-1.7-0.93-2.62-3.23-3.4-4.89c-3.53-7.55-4.15-16.07-3.65-24.29c0.53-8.73,2.08-17.48,3.9-26.02
					c1.86-8.73,4.45-17.41,8.78-25.25c4.22-7.64,10.1-14.65,17.73-19.06c0.72-0.42,0.67-0.65-0.18-0.53
					C280.46,365.32,279.17,365.73,278.21,366.29L278.21,366.29z"/>
			</g>
		</g>
		<g>
			<g>
				<path class="st2" d="M228.17,349.14c3.35,22.87,12.87,44.35,26.08,63.21c13.35,19.06,30.22,35.51,48.68,49.6
					c5.24,4,10.63,7.83,16.14,11.45c3,1.97,6.17,3.87,9.66,4.83c3.81,1.05,7.65,0.56,11.36-0.68c0.44-0.15,1.56-0.48,0.74-0.78
					c-0.83-0.3-2.59,0.39-3.36,0.65c0.52-0.17-0.04-0.02-0.28-0.01c-0.41,0.02-0.82-0.01-1.23-0.04c-0.74-0.06-1.46-0.2-2.18-0.38
					c-1.53-0.38-3-0.97-4.42-1.65c-2.78-1.34-5.34-3.07-7.9-4.79c-4.67-3.14-9.26-6.42-13.74-9.84
					c-9.13-6.96-17.82-14.49-25.92-22.62c-15.71-15.78-29.27-33.97-38.34-54.39c-5.05-11.39-8.63-23.4-10.43-35.74
					C232.96,347.49,228.06,348.38,228.17,349.14L228.17,349.14z"/>
			</g>
		</g>
		<g>
			<g>
				<path class="st2" d="M380.02,452.17c-0.97,12.75-9.4,23.63-19.71,30.62c-12.28,8.33-27.29,11.45-41.63,14.19
					c-1.02,0.2-2.06,0.42-3.11,0.42c-0.72,0-1.31-0.31-1.98-0.39c-0.23-0.03,0.03-0.04,0.15,0.12c0.1,0.13-0.18-0.23-0.22-0.3
					c-0.33-0.54-0.58-1.09-0.79-1.68c-0.98-2.8-1-5.89-0.77-8.81c0.08-0.95-1.29-1.98-1.97-2.44c-0.31-0.21-1.95-1.22-2.02-0.31
					c-0.48,6.07,0.58,12.6,6.24,15.98c3.3,1.97,6.72,1.09,10.26,0.4c4.02-0.78,8.03-1.62,12-2.6c14.57-3.6,29.15-9.59,38.82-21.56
					c4.82-5.97,8.11-13.19,8.69-20.89c0.07-0.95-1.29-1.98-1.97-2.44C381.73,452.27,380.09,451.26,380.02,452.17L380.02,452.17z"/>
			</g>
		</g>
		<g>
			<g>
				<path class="st2" d="M318.25,397.11c-0.29,14.16-0.57,28.35,0.51,42.48c0.54,7.04,1.42,14.06,2.81,20.98
					c1.05,5.23,2.43,11.77,7.59,14.55c4.73,2.55,12.23,0.98,13.57-4.84c0.68-2.96-4.2-3-4.8-0.39c-0.16,0.71-0.46,1.12-0.82,1.38
					c-0.58,0.43-0.96,0.56-1.83,0.68c-1.54,0.21-3.18-0.31-4.44-1.53c-3.64-3.52-4.25-9.67-5.07-14.38
					c-2.18-12.52-2.8-25.24-2.87-37.93c-0.04-7.25,0.11-14.5,0.26-21.75c0.03-1.29-1.5-1.93-2.58-1.77
					C319.28,394.8,318.27,395.81,318.25,397.11L318.25,397.11z"/>
			</g>
		</g>
		<g>
			<g>
				<path class="st2" d="M268.39,379.03c6.4,17.85,15.63,34.64,27.18,49.67c11.66,15.16,25.57,28.53,41.18,39.57
					c8.89,6.28,18.33,11.76,28.18,16.41c0.43,0.2,1.94,0.84,2-0.01c0.06-0.81-1.91-1.74-2.42-1.98
					c-16.36-7.72-31.46-18.09-44.66-30.45c-13.43-12.58-24.96-27.14-34.09-43.11c-5.13-8.98-9.47-18.39-12.96-28.12
					c-0.34-0.96-1.54-1.59-2.42-1.98C270.18,378.93,268.1,378.22,268.39,379.03L268.39,379.03z"/>
			</g>
		</g>
		<g>
			<g>
				<path class="st2" d="M397.88,443.84c-9.6,11.94-23.83,19.93-38.98,22.16c-16.23,2.39-33.61-1.44-47.22-10.66
					c-6.62-4.48-12.28-10.48-14.92-18.14c-0.37-1.07-1.5-2.13-2.61-2.38c-1-0.23-1.6,0.38-1.26,1.38
					c5.5,15.99,21.72,26.17,37.11,31.02c16.49,5.2,34.72,4.43,50.34-3.19c8.18-4,15.52-9.71,21.23-16.81
					C402.74,445.76,399,442.44,397.88,443.84L397.88,443.84z"/>
			</g>
		</g>
		<g>
			<g>
				<path class="st2" d="M289.84,373.43c0.88,22.47,9.06,45.23,27.59,59.06c4.7,3.51,9.99,6.29,15.58,8.09
					c1.16,0.38,2.64,0.08,3.12-1.19c0.45-1.19-0.39-2.57-1.56-2.95c-19.62-6.34-32.42-24.37-37.22-43.77
					c-1.51-6.1-2.34-12.36-2.58-18.64c-0.05-1.31-1.01-2.37-2.33-2.53C291.32,371.37,289.79,372.12,289.84,373.43L289.84,373.43z"/>
			</g>
		</g>
		<g>
			<g>
				<path class="st2" d="M248.45,356.14c-0.62,18.77-1.19,38.03,4.71,56.12c5.08,15.59,15.15,30.01,30.9,36.08
					c7.8,3,16.59,3.37,24.08-0.66c1.01-0.54-0.31-1.93-0.8-2.28c-0.88-0.63-2.16-1.08-3.17-0.54c-12.26,6.58-27.01-0.69-35.13-10.5
					c-10.51-12.71-14.68-29.34-15.88-45.49c-0.77-10.38-0.42-20.81-0.08-31.2C253.13,355.89,248.51,354.1,248.45,356.14
					L248.45,356.14z"/>
			</g>
		</g>
		<g>
			<g>
				<path class="st2" d="M279.86,365.24c-7.63,25.71-16.22,51.14-25.75,76.22c-2.7,7.1-5.47,14.17-8.32,21.21
					c-0.42,1.04,1.39,1.96,2.09,2.07c4.5,0.74,9.19-0.62,11.96-4.41c1.35-1.84-3.33-3.5-4.52-1.87c-1.49,2.04-4.13,3.68-6.76,3.25
					c0.7,0.69,1.4,1.38,2.09,2.07c10.06-24.87,19.19-50.1,27.36-75.65c2.31-7.23,4.55-14.49,6.71-21.77
					C285.33,364.36,280.47,363.18,279.86,365.24L279.86,365.24z"/>
			</g>
		</g>
		<g>
			<g>
				<path class="st2" d="M256.88,385.54c-0.61,20.13-1.11,41.25,6.58,60.26c7.51,18.56,22.81,31.9,39.67,41.95
					c10.34,6.16,21.4,11.66,33.4,13.53c1.11,0.17,2.27-0.51,2.2-1.73c-0.08-1.25-1.31-2.27-2.49-2.45
					c-10.14-1.58-19.53-5.99-28.37-11.06c-8.04-4.6-15.81-9.81-22.62-16.12c-6.79-6.3-12.56-13.68-16.35-22.16
					c-3.96-8.85-5.95-18.39-6.88-28c-1.07-11.13-0.8-22.34-0.46-33.5C261.64,383.83,256.97,382.6,256.88,385.54L256.88,385.54z"/>
			</g>
		</g>
		<g>
			<g>
				<path class="st2" d="M369.01,470.5c-15.34,12.11-34.81,18.87-54.36,18.82c-5.54-0.02-11.06-0.57-16.49-1.65
					c-1.09-0.22-1.63,0.76-1.31,1.69c0.41,1.17,1.65,1.93,2.8,2.16c19.66,3.89,40.56,0.83,58.4-8.27c5.05-2.58,9.84-5.65,14.29-9.17
					C374.15,472.65,370.51,469.32,369.01,470.5L369.01,470.5z"/>
			</g>
		</g>
		<g>
			<g>
				<path class="st3" d="M281.35,339.61c-0.68,18.7,2.01,37.4,7.89,55.16c1.39,4.19,2.83,8.48,4.8,12.44
					c1.95,3.93,4.83,7.5,8.91,9.33c3.6,1.61,7.59,1.81,11.48,1.82c4.52,0,9.09-0.08,13.53-1.01c8.15-1.71,16.75-7.45,17.03-16.6
					c0.03-1.03-0.91-2.04-1.63-2.68c-0.21-0.18-1.97-1.46-2-0.52c-0.22,7.22-6.21,12.75-12.69,14.96
					c-3.95,1.35-8.14,1.78-12.29,1.92c-3.83,0.13-7.84,0.32-11.63-0.4c-1.67-0.32-3.4-0.81-4.82-1.78
					c-1.23-0.85-1.99-2.18-2.64-3.49c-1.82-3.7-3.18-7.7-4.49-11.61c-2.75-8.19-4.77-16.63-6.09-25.17
					c-1.5-9.65-2.07-19.41-1.72-29.17c0.04-1.03-0.91-2.05-1.63-2.68C283.14,339.95,281.38,338.67,281.35,339.61L281.35,339.61z"/>
			</g>
		</g>
		<g>
			<g>
				<path class="st3" d="M284.84,353.3c0.96,17.8,12.45,32.68,26.28,42.98c7.11,5.29,14.89,9.71,22.79,13.71
					c8.16,4.13,16.6,7.71,25.24,10.71c9.77,3.39,19.79,6.03,29.95,7.93c1.1,0.21,0.78-1.77,0.61-2.27
					c-0.34-1.01-1.07-2.13-2.19-2.34c-17.11-3.21-33.79-8.64-49.53-16.08c-7.68-3.63-15.21-7.69-22.28-12.41
					c-6.71-4.48-13.12-9.68-18.09-16.08c-5.33-6.87-9.1-15.05-9.57-23.82c-0.06-1.15-0.61-2.48-1.6-3.15
					C285.66,351.95,284.79,352.22,284.84,353.3L284.84,353.3z"/>
			</g>
		</g>
		<g>
			<g>
				<path class="st3" d="M381.74,432.7c-12.52,6.15-27.01,12.1-41.02,7.45c-6.45-2.14-12.18-5.93-17.8-9.68
					c-5.92-3.94-11.72-8.08-17.38-12.38c-6.39-4.85-12.59-9.93-18.63-15.21c-0.27-0.23-1.5-1.37-1.73-0.73
					c-0.22,0.6,1.62,2.15,1.93,2.42c11.36,9.95,23.34,19.18,35.86,27.63c5.85,3.95,11.8,8.03,18.41,10.62
					c6.72,2.64,13.82,3.13,20.89,1.83c8.09-1.49,15.7-4.86,23.05-8.47C385.6,436.05,382.85,432.16,381.74,432.7L381.74,432.7z"/>
			</g>
		</g>
		<g>
			<g>
				<path class="st3" d="M300.59,378.02c10.16-2.71,20.78,0.65,30.35,4.04c8.7,3.08,20.36,8.65,28.31,0.97
					c3.33-3.21,5.03-8.33,2.54-12.53c-1.41-2.38-5.61,0.32-4.2,2.71c1.55,2.61,0.04,5.85-2.17,7.57c-3.21,2.5-7.93,1.79-11.59,0.76
					c-4.66-1.31-9.15-3.22-13.74-4.75c-4.63-1.55-9.36-2.93-14.19-3.66c-5.5-0.83-11.03-0.68-16.41,0.76
					c-1.16,0.31-2.1,1.73-1.78,2.91C298.07,378.11,299.46,378.32,300.59,378.02L300.59,378.02z"/>
			</g>
		</g>
		<g>
			<g>
				<path class="st3" d="M280,355.38c-2.73,6.04-2.7,12.66-0.8,18.94c1.99,6.57,6.01,12.19,10.91,16.92
					c5.1,4.92,11.08,8.81,17.12,12.47c6.35,3.85,13.04,7.51,20.68,7.53c6.3,0.01,13.44-3.04,15.27-9.56
					c0.33-1.17-4.55-1.9-4.99-0.36c-1.33,4.73-6.33,7.89-11.13,7.88c-6.09-0.01-11.93-4.05-16.93-7.1
					c-10.44-6.37-21.05-14.17-25.45-26.07c-2.33-6.3-2.73-13.54,0.08-19.76C285.43,354.8,280.56,354.13,280,355.38L280,355.38z"/>
			</g>
		</g>
		<g>
			<g>
				<path class="st3" d="M299.12,341.57c-1.41,17.33-0.92,34.77,1.44,51.99c0.1,0.75,5.06,0.08,4.95-0.7
					c-2.37-17.22-2.85-34.66-1.44-51.99C304.11,340.42,299.21,340.5,299.12,341.57L299.12,341.57z"/>
			</g>
		</g>
		<g>
			<g>
				<path class="st3" d="M257.54,350.3c7.31,18.5,18.4,35.37,32.27,49.61c13.79,14.16,30.25,25.65,48.29,33.7
					c10.11,4.51,20.7,7.88,31.57,9.98c1.21,0.23,2.51-0.18,2.79-1.54c0.25-1.17-0.62-2.74-1.86-2.98
					c-18.91-3.64-36.9-11.16-52.93-21.81c-15.8-10.49-29.67-24-40.45-39.62c-6.09-8.83-11.23-18.32-15.17-28.3
					c-0.47-1.19-1.65-2.13-2.99-1.84C257.86,347.75,257.08,349.12,257.54,350.3L257.54,350.3z"/>
			</g>
		</g>
		<g>
			<g>
				<path class="st3" d="M369.05,446.82c-18.91-0.09-36.36-11.8-45.06-28.36c-2.49-4.74-4.17-9.9-5.02-15.18
					c-0.27-1.66-4.82-3.35-4.43-0.93c3.32,20.7,19.7,38.18,39.28,44.88c5.59,1.91,11.45,2.98,17.36,3c1.05,0.01,1.45-0.78,0.94-1.67
					C371.57,447.58,370.17,446.82,369.05,446.82L369.05,446.82z"/>
			</g>
		</g>
		<g>
			<g>
				<path class="st3" d="M322.97,355.97c0.26,9.44,6.46,18.61,15.43,21.88c2.86,1.04,2.16-3.5,0.15-4.23
					c-1.74-0.63-3.3-1.45-4.73-2.53c-1.41-1.06-2.72-2.39-3.7-3.74c-1.01-1.39-1.76-2.83-2.36-4.5c-0.55-1.53-0.91-3.32-0.96-5.06
					c-0.03-1.21-0.7-2.5-1.84-3.02C324.01,354.32,322.93,354.83,322.97,355.97L322.97,355.97z"/>
			</g>
		</g>
		<g>
			<g>
				<path class="st3" d="M308.61,336.7c-3.93,14.45-1.63,30.1,5.08,43.38c6.63,13.12,17.62,23.63,30.3,30.88
					c7.4,4.23,15.34,7.38,23.56,9.6c0.45,0.12,2.44,0.55,2.61-0.19c0.17-0.75-1.89-1.23-2.26-1.33
					c-13.29-3.6-25.82-10.37-35.77-19.92c-10.38-9.96-17.64-23.14-19.87-37.41c-1.24-7.95-0.9-16.1,1.21-23.87
					C313.77,336.8,308.92,335.56,308.61,336.7L308.61,336.7z"/>
			</g>
		</g>
		<g>
			<g>
				<path class="st1" d="M190.64,380.4c-10.7,22.35-11.33,47.98-7.1,72.02c2.05,11.66,4.94,23.52,9.54,34.45
					c4.12,9.81,10.52,19.53,20.5,24.09c10.31,4.71,23.91,4.17,32.36-4.05c0.79-0.77-0.7-0.91-1.17-0.88
					c-1.06,0.07-2.43,0.42-3.22,1.19c-3.07,2.99-6.85,4.5-11.11,4.65c-4.55,0.17-9.22-1.04-13.28-3.06
					c-9.48-4.72-15.47-14.12-19.41-23.62c-4.34-10.44-7.11-21.7-9.15-32.79c-2.12-11.54-3.15-23.33-2.5-35.05
					c0.72-13.05,3.65-25.96,9.31-37.78c0.4-0.83-1.67-0.6-1.96-0.55C192.62,379.17,191.07,379.52,190.64,380.4L190.64,380.4z"/>
			</g>
		</g>
		<g>
			<g>
				<path class="st1" d="M300.77,516.24c-6.02,3.84-12.92,5.96-19.91,7.21c-6.9,1.24-14.04,1.95-21.05,2.11
					c-3.13,0.07-6.46,0.09-9.5-0.75c-2.71-0.75-5.19-2.47-7.17-4.42c-4.09-4.04-6.2-9.53-7.88-14.92
					c-1.95-6.26-3.39-12.75-6.5-18.57c-0.32-0.6-1.72-0.83-2.32-1c-0.57-0.15-1.15-0.31-1.73-0.37c-0.07-0.01-0.82-0.05-0.77,0.05
					c3.02,5.67,4.47,11.97,6.35,18.07c1.76,5.72,3.97,11.66,8.39,15.88c5.3,5.06,13.18,6.97,20.3,7.43c3.7,0.24,7.41,0.03,11.1-0.26
					c3.81-0.3,7.61-0.65,11.4-1.17c8.46-1.18,16.85-3.34,24.12-7.97c0.09-0.06-2.12-0.95-2.32-1
					C302.67,516.39,301.36,515.86,300.77,516.24L300.77,516.24z"/>
			</g>
		</g>
		<g>
			<g>
				<path class="st1" d="M258.57,507.22c16.61,11.52,34.55,21.13,53.35,28.55c9.42,3.72,19.05,6.89,28.84,9.48
					c2.58,0.68,5.19,1.4,7.88,1.33c2.62-0.06,5.05-0.91,7.22-2.36c3.93-2.63,7.04-6.71,9.9-10.41c6.81-8.81,12.15-18.63,15.82-29.15
					c0.4-1.16-0.49-2.29-1.65-2.4c-1.31-0.12-2.5,0.81-2.92,2c-3.04,8.7-7.33,16.94-12.68,24.44c-2.63,3.7-5.54,7.38-8.82,10.52
					c-1.35,1.29-2.96,2.48-4.83,2.83c-2.45,0.46-4.98-0.28-7.33-0.9c-18.58-4.9-36.61-11.89-53.66-20.76
					c-9.61-5-18.88-10.64-27.78-16.81C259.77,502.09,256.23,505.6,258.57,507.22L258.57,507.22z"/>
			</g>
		</g>
		<g>
			<g>
				<path class="st1" d="M300.15,511.99c-0.12,0.12-0.94-0.06-1.4-0.22c-1.12-0.39-2.09-1.01-3.06-1.68
					c-2.36-1.65-4.68-3.35-6.97-5.09c-4.64-3.52-9.15-7.21-13.52-11.06c-8.67-7.64-16.76-15.93-24.21-24.76
					c-4.17-4.95-8.14-10.07-11.89-15.34c-1.31-1.84-5.89,0.1-4.4,2.19c14.45,20.27,32.08,38.28,52.05,53.14
					c4.55,3.38,12.11,10.08,17.47,4.3c0.78-0.85,0.34-2.04-0.67-2.42C302.37,510.6,300.98,511.09,300.15,511.99L300.15,511.99z"/>
			</g>
		</g>
		<g>
			<g>
				<path class="st1" d="M192.86,368.72c-5.66,5.79-8.41,13.53-10.12,21.29c-2.01,9.14-3.24,18.51-4.37,27.8
					c-1.19,9.8-2.1,19.65-2.56,29.51c-0.23,4.96-0.3,9.93-0.08,14.89c0.19,4.14,0.31,8.55,1.63,12.52c1.25,3.78,3.82,6.75,7.99,7.1
					c5.27,0.44,9.54-2.78,13.04-6.34c0.8-0.81-0.42-1.37-1.11-1.47c-1.07-0.15-2.54,0.07-3.33,0.88c-1.35,1.37-2.75,2.71-4.4,3.71
					c-1.19,0.73-2.23,1.11-3.55,0.46c-2.7-1.32-3.79-4.76-4.34-7.48c-0.82-4.08-0.97-8.36-1.08-12.51
					c-0.12-4.64-0.01-9.28,0.24-13.91c0.47-9.13,1.31-18.24,2.4-27.32c1.05-8.74,2.25-17.5,3.99-26.13
					c1.63-8.09,4.16-16.38,10.06-22.42c0.79-0.81-0.42-1.37-1.11-1.47C195.12,367.69,193.65,367.91,192.86,368.72L192.86,368.72z"/>
			</g>
		</g>
		<g>
			<g>
				<path class="st1" d="M183.6,348.51c-2.18,16.82-3.53,33.75-4.01,50.7c-0.47,16.46-0.34,33.05,1.17,49.45
					c1.43,15.41,4.39,31.12,11.25,45.12c3.14,6.4,7.31,12.41,12.82,16.99c5.52,4.6,12,7.83,18.8,10.08
					c6.67,2.2,13.58,3.52,20.49,4.7c5.02,0.86,11.63,1.97,15.98-1.44c1.01-0.79,1.74-1.76,2.23-2.93c0.53-1.26-3.88-3.56-4.31-2.54
					c-2.16,5.14-8.79,5.16-13.49,4.52c-6.38-0.87-12.84-2.13-19.04-3.88c-6.04-1.7-11.94-4.07-16.95-7.9
					c-5.29-4.04-9.14-9.71-12.09-15.6c-6.73-13.43-9.67-28.61-11.15-43.45c-1.56-15.62-1.75-31.43-1.43-47.12
					c0.37-18.28,1.75-36.52,4.11-54.65C188.15,349.33,183.77,347.17,183.6,348.51L183.6,348.51z"/>
			</g>
		</g>
		<g>
			<g>
				<path class="st1" d="M211.24,483.99c-1.12,3.54,0.69,7.3,3.35,9.64c2.74,2.41,6.46,3.29,9.93,4.08c8,1.83,16.15,3.01,24.33,3.59
					c8.16,0.58,16.37,0.52,24.52-0.18c6.76-0.58,13.66-1.43,20.09-3.69c6.39-2.25,12.43-6.14,15.53-12.35
					c0.57-1.14,0.07-2.49-0.89-3.25c-0.79-0.63-2.4-0.96-2.98,0.18c-5.24,10.48-18.39,12.93-28.93,14.11
					c-14.82,1.66-29.86,1.2-44.53-1.44c-3.83-0.69-7.84-1.32-11.53-2.6c-2.59-0.89-5.61-2.86-4.62-6.02
					C216.26,483.7,212.13,481.17,211.24,483.99L211.24,483.99z"/>
			</g>
		</g>
		<g>
			<g>
				<path class="st1" d="M235.01,460.2c-1.68,10.67,4.45,20.58,11.33,28.16c7.21,7.94,15.79,14.83,24.76,20.67
					c9.02,5.86,18.69,10.72,28.81,14.35c10.81,3.87,22.44,6.92,33.8,3.57c11.47-3.37,20.74-11.46,29.47-19.27
					c1.97-1.77-2.17-4.52-3.97-2.91c-7.34,6.56-14.94,13.26-24.15,17.06c-4.71,1.94-9.73,2.81-14.82,2.54
					c-5.54-0.3-10.97-1.82-16.21-3.55c-19-6.27-36.65-17.09-50.9-31.13c-7.51-7.4-15.08-17.22-13.32-28.42
					C240.19,458.91,235.43,457.53,235.01,460.2L235.01,460.2z"/>
			</g>
		</g>
		<g>
			<g>
				<path class="st1" d="M363.83,497.33c-11.22,5.77-23.87,9.57-36.52,10c-11.56,0.4-23.47-2.58-31.65-11.19
					c-3.95-4.15-6.72-9.35-7.51-15.06c-0.06-0.45-2.23,0.79-2.4,0.89c-0.48,0.3-1.92,1.09-1.82,1.8
					c1.48,10.68,9.77,19.19,19.48,23.18c12,4.93,25.74,3.64,38.01,0.46c7.2-1.87,14.17-4.54,20.78-7.94c0.83-0.42,2.39-1.1,2.78-2
					C365.34,496.63,364.28,497.09,363.83,497.33L363.83,497.33z"/>
			</g>
		</g>
		<g>
			<g>
				<path class="st1" d="M219.32,322.68c19.05-8.43,39.58-13.49,60.36-14.99c5.96-0.43,11.93-0.56,17.9-0.41
					c1.16,0.03,2.51-1.02,2.55-2.21c0.05-1.35-1.26-1.84-2.37-1.86c-21.49-0.53-43.08,2.69-63.48,9.45
					c-5.88,1.95-11.65,4.2-17.32,6.71c-1.03,0.46-1.66,1.88-0.98,2.85C216.76,323.32,218.26,323.15,219.32,322.68L219.32,322.68z"/>
			</g>
		</g>
		<g>
			<g>
				<path class="st1" d="M378.14,391.81c-6.01,12.35-5.91,26.58-11.2,39.2c-4.51,10.76-11.98,20.25-21.21,27.37
					c-5.23,4.03-11.02,7.26-17.21,9.56c-1.55,0.58,1.63,4.3,3.06,3.77c11.15-4.14,21.1-11.28,28.7-20.42
					c3.79-4.56,6.98-9.6,9.48-14.97c2.78-5.95,4.41-12.25,5.74-18.67c1.61-7.79,3-15.7,6.51-22.91
					C382.64,393.46,378.92,390.21,378.14,391.81L378.14,391.81z"/>
			</g>
		</g>
		<g>
			<g>
				<path class="st1" d="M368.91,389.6c1.12,12.8,3.19,25.51,6.22,37.99c0.69,2.83,5.48,1.42,4.79-1.42
					c-2.93-12.1-4.96-24.4-6.05-36.8c-0.11-1.3-1.13-2.2-2.46-2.14C370.27,387.28,368.8,388.29,368.91,389.6L368.91,389.6z"/>
			</g>
		</g>
		<g>
			<g>
				<path class="st1" d="M377,510.96c15.36-9.21,26.33-24.86,30.37-42.25c1.14-4.91,1.69-9.93,1.65-14.97
					c-0.01-0.91-1.35-1.91-2-2.39c-0.21-0.16-1.88-1.3-1.87-0.51c0.16,17.75-7.37,35.2-20,47.61c-3.59,3.53-7.59,6.63-11.91,9.22
					C372.75,507.96,375.85,511.65,377,510.96L377,510.96z"/>
			</g>
		</g>
		<g>
			<g>
				<path class="st1" d="M316.95,511.3c-7.58,0.5-15.29-0.84-22.57-2.85c-7.71-2.13-15.14-5.18-22.31-8.7
					c-7.05-3.46-13.95-7.31-20.56-11.55c-6.56-4.21-12.83-9.04-17.78-15.1c-5.14-6.29-8.82-13.87-9.49-22.04
					c-0.04-0.49-5.02-0.21-5,0.1c1.33,16.2,13.65,28.27,26.53,36.69c6.94,4.53,14.24,8.6,21.68,12.24
					c7.57,3.71,15.44,6.89,23.61,9.01c9.3,2.41,18.83,3.26,28.42,2.63c0.07,0,1.05-0.04,1.15-0.19c0.13-0.2-0.04-0.09-0.26-0.2
					C319.61,510.91,317.77,511.24,316.95,511.3L316.95,511.3z"/>
			</g>
		</g>
		<g>
			<g>
				<path class="st1" d="M274.2,371.64c-1.17,11.96-4.69,23.54-8.74,34.81c-4.2,11.7-8.77,23.27-13.19,34.88
					c-2.53,6.65-5.06,13.3-7.59,19.95c-0.82,2.16,4.14,2.37,4.88,0.44c4.53-11.91,9.07-23.82,13.6-35.73
					c4.34-11.41,8.91-22.79,12.17-34.57c1.83-6.63,3.19-13.37,3.86-20.21c0.11-1.15-1.87-1.45-2.63-1.38
					C275.47,369.93,274.32,370.46,274.2,371.64L274.2,371.64z"/>
			</g>
		</g>
		<g>
			<g>
				<path class="st1" d="M210.4,405.81c-0.98,16.36,0.14,32.85,3.35,48.92c1.61,8.05,3.74,15.99,6.35,23.77
					c2.34,6.97,4.84,14.11,8.8,20.34c3.69,5.8,9.44,12.1,16.92,11.74c0.81-0.04-0.23-1.65-0.39-1.91c-0.37-0.57-1.42-2.17-2.27-2.13
					c-5.68,0.28-9.87-3.32-12.67-7.93c-3.45-5.68-5.58-12.3-7.67-18.58c-4.79-14.44-7.79-29.52-8.97-44.69
					c-0.67-8.63-0.73-17.31-0.21-25.96c0.06-0.97-0.89-2.06-1.5-2.73C212,406.51,210.45,405.03,210.4,405.81L210.4,405.81z"/>
			</g>
		</g>
		<g>
			<g>
				<path class="st1" d="M205.72,422.8c-0.98,12.45-1.32,24.94-1,37.42c0.14,5.63,0.31,11.3,0.88,16.91
					c0.44,4.31,1.18,8.65,2.78,12.7c1.74,4.4,4.64,8.31,8.89,10.55c0.93,0.49,2.3-0.16,3.09-0.66c0.37-0.23,1.92-1.46,1-1.94
					c-7.73-4.07-10.16-13.3-11.08-21.36c-0.62-5.4-0.77-10.87-0.93-16.3c-0.18-6.08-0.2-12.16-0.07-18.23
					c0.15-6.9,0.5-13.79,1.04-20.67C210.43,419.71,205.84,421.28,205.72,422.8L205.72,422.8z"/>
			</g>
		</g>
	</g>
	<g>
		<g>
			<path class="st4" d="M271.79,360.35c2.82,10.42,5.7,21.05,11.33,30.36c5.02,8.32,12.54,15.31,21.91,18.36
				c5.13,1.67,10.59,1.92,15.82,0.57c1.08-0.28,2.29-0.98,3.03-1.82c0.58-0.66,0.41-1.09-0.52-0.86
				c-9.21,2.36-18.91-1.34-26.05-7.17c-7.85-6.41-12.7-15.58-16.1-24.97c-2.03-5.59-3.59-11.33-5.14-17.07
				C275.91,357.15,271.44,359.07,271.79,360.35L271.79,360.35z"/>
		</g>
	</g>
	<g>
		<g>
			<path class="st4" d="M259.92,365.36c3.07,21.58,14.15,40.86,27.61,57.64c6.86,8.55,14.32,16.6,21.98,24.43
				c3.89,3.97,7.75,8.04,11.96,11.68c4.18,3.61,8.97,7.06,14.37,8.56c5.31,1.47,11.63,0.9,14.89-4.09
				c2.87-4.4,2.46-10.18,5.55-14.43c1.51-2.08-1.94-5.65-3.59-3.39c-2.72,3.73-2.96,8.34-4.6,12.51c-0.75,1.92-1.95,3.61-3.83,4.57
				c-1.93,0.98-4.29,1.03-6.39,0.68c-4.84-0.8-9.26-3.79-12.96-6.87c-4.08-3.39-7.77-7.26-11.49-11.04
				c-14.43-14.65-28.52-30.11-38.39-48.29c-5.38-9.91-9.22-20.65-10.81-31.83c-0.17-1.2-1.26-2.39-2.52-2.42
				C260.43,363.04,259.76,364.21,259.92,365.36L259.92,365.36z"/>
		</g>
	</g>
	<g>
		<g>
			<path class="st4" d="M343.95,445.29c-6.86,2.32-14.43,2.25-21.22-0.32c-6.91-2.61-12.51-7.48-16.16-13.89
				c-3.5-6.15-5.05-13.77-3.87-20.77c0.63-3.71,2.2-6.73,5.71-8.36c3.12-1.45,6.74-1.65,10.13-1.6c8.85,0.15,17.55,3.31,24.54,8.72
				c1,0.77,2.58,0.76,3.53-0.08c0.92-0.8,0.91-2.16-0.06-2.91c-7.26-5.62-16.04-8.94-25.18-9.7c-7.96-0.66-18.36,0.39-22.19,8.57
				c-1.78,3.81-2.04,8.47-1.74,12.62c0.3,4.11,1.31,8.2,2.97,11.97c3.39,7.69,9.28,14.02,16.84,17.74c8.63,4.25,19,5.05,28.12,1.97
				c1.08-0.37,2.14-1.31,1.69-2.57C346.65,445.52,345.06,444.92,343.95,445.29L343.95,445.29z"/>
		</g>
	</g>
	<g>
		<g>
			<path class="st4" d="M318.89,389.59c-14.83-11.35-28.92-23.67-42.15-36.85c-3.81-3.8-7.55-7.66-11.22-11.6
				c-0.79-0.84-2.33-1.33-3.32-0.57c-1.02,0.78-0.66,2.18,0.09,2.99c13.05,13.99,27.01,27.1,41.76,39.27
				c4.15,3.42,8.36,6.77,12.63,10.04c0.89,0.68,2.5,0.76,3.18-0.25C320.6,391.53,319.77,390.27,318.89,389.59L318.89,389.59z"/>
		</g>
	</g>
	<g>
		<g>
			<path class="st4" d="M323.18,441.95c3.07,2.04,7,2.1,10.49,1.33c3.51-0.77,7.03-2.43,8.91-5.65c0.39-0.67-1.65-0.47-1.87-0.44
				c-0.64,0.09-1.27,0.21-1.88,0.43c-0.33,0.12-0.87,0.28-1.05,0.6c-0.61,1.04-1.4,1.96-2.37,2.68c-0.5,0.37-0.89,0.6-1.4,0.84
				c-0.04,0.02-0.49,0.22-0.27,0.13c0.2-0.08-0.3,0.11-0.28,0.1c-0.41,0.16,0.22-0.04-0.05,0.02c-0.15,0.04-0.3,0.08-0.45,0.12
				c0.17-0.05,0.41-0.09,0.1-0.03c-0.62,0.13,0.55-0.05-0.08,0.02c-0.12,0.01-0.25,0.03-0.37,0.04c0.56-0.05-0.07-0.01-0.15-0.01
				c-0.15,0.01-0.25,0-0.04,0c-0.19,0-0.37-0.01-0.56-0.03c-0.29-0.02-0.34-0.03-0.6-0.07c-1.24-0.22-2.36-0.67-3.4-1.37
				c-0.3-0.2-0.89-0.17-1.2-0.16c-0.63,0.02-1.3,0.13-1.9,0.31C324.52,440.9,322.56,441.54,323.18,441.95L323.18,441.95z"/>
		</g>
	</g>
	<g>
		<g>
			<path class="st4" d="M322.36,428.31c-7.15-0.9-14.11-3.49-20.06-7.57c-5.78-3.97-10.41-9.46-13.67-15.64
				c-0.51-0.96-1.66-1.74-2.58-2.26c-0.33-0.19-1.7-0.83-1.21,0.1c6.32,11.96,17.65,21.35,30.3,25.97c3.51,1.28,7.13,2.13,10.84,2.6
				c0.71,0.09-0.87-1.59-0.94-1.64C324.31,429.21,323.36,428.43,322.36,428.31L322.36,428.31z"/>
		</g>
	</g>
	<g>
		<g>
			<path class="st4" d="M279.96,388.04c13.88,23.25,32.86,43.38,55.24,58.63c3.04,2.07,6.15,4.05,9.31,5.94
				c2.58,1.53,7.01,4.03,9.54,1.14c1.05-1.2-2.95-4.16-4.13-2.82c-1.68,1.92-4.98-0.89-6.49-1.82c-2.67-1.65-5.3-3.36-7.88-5.15
				c-5.03-3.48-9.88-7.22-14.53-11.21c-9.37-8.05-17.89-17.04-25.43-26.83c-4.26-5.53-8.17-11.32-11.75-17.31
				c-0.58-0.98-1.77-1.86-2.92-1.99C279.96,386.5,279.42,387.13,279.96,388.04L279.96,388.04z"/>
		</g>
	</g>
	<g>
		<g>
			<path class="st4" d="M328.53,400.28c-17-9.67-35.18-17.21-54.06-22.34c-2.9-0.79-1.53,3.62,0.43,4.16
				c18.52,5.03,36.37,12.36,53.05,21.85c0.84,0.48,2.02,0.54,2.25-0.63C330.42,402.19,329.46,400.8,328.53,400.28L328.53,400.28z"/>
		</g>
	</g>
	<g>
		<g>
			<path class="st4" d="M287.79,342.51c0.8,0,1.61,0,2.41,0c0.26,0,0.52-0.05,0.76-0.15c0.21-0.05,0.38-0.15,0.53-0.31
				c0.14-0.14,0.19-0.29,0.16-0.47c0.02-0.19-0.04-0.36-0.18-0.51c-0.11-0.11-0.22-0.22-0.32-0.33c-0.3-0.24-0.64-0.43-1-0.56
				c-0.21-0.06-0.42-0.13-0.64-0.19c-0.42-0.1-0.84-0.14-1.27-0.12c-0.8,0-1.61,0-2.41,0c-0.26,0-0.52,0.05-0.76,0.15
				c-0.21,0.05-0.38,0.15-0.53,0.31c-0.14,0.14-0.19,0.29-0.16,0.47c-0.02,0.19,0.04,0.36,0.18,0.51c0.11,0.11,0.22,0.22,0.32,0.33
				c0.3,0.24,0.64,0.43,1,0.56c0.21,0.06,0.42,0.13,0.64,0.19C286.94,342.49,287.37,342.53,287.79,342.51L287.79,342.51z"/>
		</g>
	</g>
	<g>
		<g>
			<path class="st4" d="M259.7,336.56c8.17-6.94,18.1-11.78,28.58-14c2.54-0.54-0.58-4.27-2.46-3.87
				c-11.13,2.36-21.41,7.45-30.07,14.81c-0.86,0.73,0.47,2.31,1.04,2.75C257.63,336.9,258.81,337.32,259.7,336.56L259.7,336.56z"/>
		</g>
	</g>
	<g>
		<g>
			<path class="st4" d="M233.02,315.78c2.45,19.12,10.31,37.41,22.08,52.65c5.86,7.6,12.7,14.44,20.33,20.26
				c3.78,2.89,7.77,5.49,11.91,7.82c4.68,2.64,9.58,5.01,14.79,6.4c5.59,1.49,11.43,1.8,16.94-0.15c4.84-1.7,9.12-5.11,11.24-9.86
				c0.43-0.97-0.3-2.29-0.88-3.05c-0.28-0.37-1.64-1.78-2.06-0.82c-3.9,8.76-14.26,11.67-23.08,10.28
				c-5.35-0.84-10.42-3.02-15.19-5.51c-3.95-2.06-7.75-4.4-11.38-6.99c-14.34-10.21-25.96-24.23-33.31-40.23
				c-4.16-9.05-6.97-18.68-8.24-28.57c-0.14-1.12-0.83-2.42-1.78-3.05C233.59,314.46,232.89,314.75,233.02,315.78L233.02,315.78z"/>
		</g>
	</g>
	<g>
		<g>
			<path class="st4" d="M353.17,412.35c5.07,13.41,11.51,26.27,19.25,38.35c0.21,0.33,1.31,2.13,1.86,1.78
				c0.54-0.34-0.65-2.22-0.8-2.45c-7.09-11.07-13.03-22.86-17.68-35.16c-0.41-1.08-1.01-2.22-1.88-2.99
				C353.32,411.34,352.82,411.43,353.17,412.35L353.17,412.35z"/>
		</g>
	</g>
	<g>
		<g>
			<path class="st4" d="M385.01,398.05c-0.56,8.7-1.41,17.39-2.55,26.03c-0.88,6.67-1.38,14.67-6.22,19.86
				c-4.89,5.25-12.68,4.79-19.11,3.47c-6-1.23-12.01-3.04-17.44-5.92c-5.69-3.01-10.23-7.55-12.12-13.82c-0.3-0.99-1.8-1.8-2.7-2.13
				c-0.65-0.24-1.74-0.44-1.43,0.57c4.05,13.45,19.06,19.98,31.5,23.24c6.72,1.76,14.86,3.55,21.43,0.32
				c6.81-3.36,8.63-11.07,9.66-17.95c1.56-10.44,2.63-20.95,3.31-31.48C389.41,398.89,385.09,396.73,385.01,398.05L385.01,398.05z"
				/>
		</g>
	</g>
	<g>
		<g>
			<path class="st4" d="M288.34,366.29c6.12,6.89,12.23,13.79,18.35,20.68c3.03,3.42,6.06,6.83,9.09,10.25
				c2.56,2.89,5.09,5.9,8.23,8.19c3.53,2.58,7.93,4.35,12.36,3.67c0.94-0.14,1.15-0.74,0.41-1.38c-0.8-0.69-2.33-1.17-3.39-1.01
				c-3.8,0.58-6.87-2.41-9.32-4.95c-3.52-3.64-6.79-7.57-10.15-11.36c-7.05-7.95-14.11-15.9-21.16-23.85
				c-0.76-0.85-2.06-1.27-3.17-1.33C289.03,365.19,287.57,365.43,288.34,366.29L288.34,366.29z"/>
		</g>
	</g>
	<g>
		<g>
			<path class="st4" d="M265.5,336.49c4.61,23.6,13.79,46.2,26.85,66.39c6.32,9.77,13.41,19.61,22.51,26.98
				c9.15,7.4,21.54,11.94,33.31,9.11c5.81-1.4,10.96-4.67,14.45-9.56c3.25-4.55,4.7-10.18,3.52-15.68
				c-0.37-1.72-5.32-1.88-4.87,0.22c2.01,9.38-4.8,18.83-13.49,21.86c-10.31,3.6-21.36-1.1-29.36-7.63
				c-8.52-6.95-15.19-16.34-21.16-25.49c-6.18-9.46-11.46-19.5-15.82-29.92c-4.91-11.75-8.62-23.99-11.06-36.48
				C270.04,334.56,265.09,334.38,265.5,336.49L265.5,336.49z"/>
		</g>
	</g>
	<g>
		<g>
			<path class="st2" d="M272.05,377.05c1.68,11,5.23,21.7,10.44,31.53c2.59,4.89,5.59,9.58,8.96,13.97
				c3.38,4.41,7.13,8.73,11.36,12.35c4.6,3.92,10.45,7.36,16.72,6.27c0.61-0.11,1.03-0.62,1-1.26c-0.12-2.77-0.24-5.54-0.37-8.31
				c-0.05-1.19-0.55-2.51-1.65-3.13c-0.85-0.48-1.95-0.14-1.9,1c0.12,2.77,0.24,5.54,0.37,8.31c0.33-0.42,0.67-0.84,1-1.26
				c-5.08,0.88-9.74-1.52-13.57-4.68c-3.88-3.21-7.29-7.07-10.39-11.03c-6.2-7.91-11.09-16.83-14.41-26.32
				c-1.87-5.35-3.23-10.84-4.09-16.44c-0.16-1.07-0.93-2.5-2.08-2.77C272.34,375.02,271.9,376.1,272.05,377.05L272.05,377.05z"/>
		</g>
	</g>
	<g>
		<g>
			<path class="st2" d="M265.9,375.89c2.33,16.77,10.12,32.34,21.13,45.09c5.56,6.43,12,12.19,19.05,16.96
				c7.65,5.18,16.35,9.35,25.59,10.58c9.84,1.31,20.53-0.91,27.69-8.16c1.71-1.73-1.77-5.32-3.48-3.59
				c-5.82,5.89-14.38,8.26-22.51,7.67c-8.58-0.63-16.7-4.09-23.89-8.69c-13.21-8.44-24.29-20.51-31.45-34.46
				c-3.96-7.71-6.64-16.05-7.83-24.63c-0.17-1.2-1.26-2.34-2.46-2.54C266.61,373.92,265.74,374.74,265.9,375.89L265.9,375.89z"/>
		</g>
	</g>
	<g>
		<g>
			<path class="st2" d="M263.24,396.11c-1.68,16.68,0.43,34.6,11.57,47.85c4.73,5.62,10.93,10.09,17.98,12.26
				c8.25,2.54,17.43,1.46,23.43-5.21c6.67-7.42,6.58-17.66,6.18-27.03c-0.08-1.88-4.76-0.32-4.7,1.27
				c0.34,7.85,0.71,16.37-3.67,23.29c-1.59,2.52-3.9,4.81-6.83,5.63c-3.67,1.03-7.7,0.3-11.25-0.84
				c-13.7-4.39-22.86-17.21-26.41-30.67c-2.39-9.06-2.54-18.54-1.61-27.81C268.11,393.09,263.41,394.46,263.24,396.11L263.24,396.11
				z"/>
		</g>
	</g>
	<g>
		<g>
			<path class="st2" d="M258.91,349.5c-5.58-0.29-11.54,2.17-15.71,5.83c-4.37,3.83-6.78,9.05-8.03,14.65
				c-0.71,3.18-1.06,6.42-1.31,9.67c-0.23,2.89-0.48,5.8-0.42,8.69c0.1,4.79,1.47,10.3,6.46,12.11c2.33,0.85,4.8,0.63,7.12-0.11
				c2.44-0.79,5.22-2.01,6.16-4.59c0.2-0.56-1.65,0.06-1.83,0.11c-0.6,0.2-2.5,0.69-2.76,1.4c-0.27,0.73-0.66,1.26-1.14,1.85
				c-0.24,0.3-0.85,0.49,0.23,0.07c1.15-0.45,0.22-0.16-0.24-0.15c-1.57,0.05-3.2-0.4-4.55-1.19c-3.68-2.15-4.66-6.98-4.79-10.9
				c-0.16-4.83,0.32-9.84,0.99-14.62c0.69-4.91,1.96-9.89,4.76-14.06c1.35-2.01,3.02-3.81,4.99-5.23c1.77-1.27,3.44-1.69,5.64-1.57
				c1.01,0.05,2.08-0.41,2.98-0.81c0.38-0.17,1.09-0.39,1.32-0.73C258.84,349.85,259.25,349.51,258.91,349.5L258.91,349.5z"/>
		</g>
	</g>
	<g>
		<g>
			<path class="st2" d="M231.13,331.94c-4.83,14.47-5.91,29.91-5.02,45.06c0.81,13.9,3.21,27.91,8.92,40.69
				c4.99,11.17,12.68,20.79,22.69,27.86c9.49,6.69,20.62,11.04,32.09,12.76c12.64,1.9,25.74,0.49,37.5-4.61
				c1.08-0.47,0.34-1.66-0.31-2.12c-0.95-0.67-2.33-0.96-3.42-0.48c-19.43,8.44-42.78,5.79-60.45-5.63
				c-9.67-6.25-17.19-14.91-22.28-25.22c-5.92-11.97-8.53-25.33-9.62-38.56c-1.33-16.22-0.49-32.79,4.69-48.33
				C236.54,331.53,231.76,330.06,231.13,331.94L231.13,331.94z"/>
		</g>
	</g>
	<g>
		<g>
			<path class="st2" d="M349.59,442.35c-2.22,4.33-7.76,4.49-11.96,3.34c-2.98-0.81-5.76-2.18-8.55-3.48
				c-2.74-1.27-5.56-2.36-8.33-3.55c-2.64-1.13-5.23-2.48-7.4-4.38c-2.18-1.91-3.76-4.44-5.19-6.93
				c-3.48-6.06-6.76-12.23-10.13-18.35c-3.85-6.98-7.7-13.97-11.55-20.95c-1.12-2.02-5.27,0.75-4.12,2.84
				c3.69,6.69,7.38,13.39,11.07,20.08c3.6,6.53,7.07,13.14,10.82,19.58c1.62,2.78,3.48,5.42,5.96,7.5c2.41,2.02,5.29,3.38,8.17,4.6
				c2.83,1.2,5.68,2.33,8.46,3.63c3.07,1.43,6.18,2.92,9.51,3.63c6.19,1.32,13.92-0.45,17.02-6.5
				C354.88,440.52,350.73,440.14,349.59,442.35L349.59,442.35z"/>
		</g>
	</g>
	<g>
		<g>
			<path class="st2" d="M299.46,386.6c5.28,8.1,11.1,15.83,17.52,23.06c3.1,3.5,6.24,7.08,9.76,10.17c3.32,2.92,7.5,5.69,12.13,5.26
				c1.09-0.1,0.69-1.17,0.23-1.77c-0.59-0.77-1.89-1.86-2.96-1.76c-3.64,0.34-6.35-1.91-8.81-4.32c-3.02-2.97-5.89-6.1-8.66-9.3
				c-5.59-6.46-10.77-13.3-15.43-20.45c-0.63-0.97-1.63-1.92-2.81-2.15C299.55,385.16,298.87,385.7,299.46,386.6L299.46,386.6z"/>
		</g>
	</g>
	<g>
		<g>
			<path class="st2" d="M240.14,365.09c-3.57-6.46-4.59-14.17-2.79-21.34c0.38-1.5-4.06-3.51-4.3-2.55
				c-1.92,7.58-0.89,15.64,2.9,22.49c0.54,0.98,1.73,1.69,2.77,2.03C239.21,365.88,240.69,366.09,240.14,365.09L240.14,365.09z"/>
		</g>
	</g>
	<g>
		<g>
			<path class="st2" d="M266.87,301.91c2.84,1.57,5.68,3.14,8.52,4.71c0.86,0.47,2.43,0.57,2.78-0.61c0.35-1.2-0.54-2.4-1.54-2.95
				c-2.84-1.57-5.68-3.14-8.52-4.71c-0.86-0.47-2.43-0.57-2.78,0.61C264.97,300.16,265.87,301.36,266.87,301.91L266.87,301.91z"/>
		</g>
	</g>
	<g>
		<g>
			<path class="st2" d="M248.38,307.86c-8.32,27.45-8.41,57.3-0.15,84.78c0.49,1.62,0.97,3.28,1.83,4.75
				c0.91,1.56,2.25,2.78,3.7,3.83c2.17,1.56,6.07,3.36,7.98,0.4c0.37-0.58-3.75-3.4-4.04-2.95c-0.66,1.02-1.69,1.52-2.91,1.52
				c-0.4,0-1.19-0.36-1.5-0.27c0.25,0.18,0.5,0.36,0.75,0.55c0.8,0.66,0.97,0.76,0.52,0.29c-0.23-0.47-0.61-0.88-0.85-1.36
				c-1.32-2.63-1.97-5.68-2.73-8.51c-1.67-6.29-2.91-12.68-3.73-19.14c-1.65-13.09-1.53-26.4,0.35-39.45
				c1.05-7.27,2.66-14.46,4.79-21.49C252.72,309.8,248.41,307.77,248.38,307.86L248.38,307.86z"/>
		</g>
	</g>
	<g>
		<g>
			<path class="st2" d="M245.53,318.76c-1.14,12.33-2.13,24.95,0.07,37.22c1.06,5.89,2.87,11.71,5.81,16.95
				c3.08,5.48,7.33,10.17,12.35,13.93c5.84,4.37,12.43,7.57,19.17,10.28c1.15,0.46,2.56-0.02,3.35-0.94
				c0.66-0.77,0.86-2.13-0.28-2.6c-11.27-4.54-22.54-10.63-29.14-21.25c-6.25-10.05-7.8-22.1-7.8-33.72
				c0-6.74,0.52-13.46,1.14-20.16C250.47,315.64,245.74,316.52,245.53,318.76L245.53,318.76z"/>
		</g>
	</g>
	<g>
		<g>
			<path class="st2" d="M378.38,408.73c-0.06-0.09-0.86-2.07-0.69-1.03c0.03,0.19,0.1,0.37,0.14,0.56c0.08,0.38,0.14,0.77,0.17,1.16
				c0.08,0.98,0.02,1.97-0.17,2.93c-0.33,1.72-1.04,3.37-2,4.83c-2.14,3.26-5.6,5.34-9.18,6.7c-4.05,1.54-8.37,2.34-12.59,3.2
				c-4.82,0.98-9.66,1.86-14.52,2.63c-5.51,0.87-11.03,1.61-16.57,2.22c-0.17,0.02,0.9,2.16,0.98,2.31c0.18,0.33,0.98,2.1,1.46,2.05
				c10.92-1.19,21.78-2.9,32.53-5.14c8.09-1.69,18.51-3.62,21.76-12.42c0.72-1.95,1.03-4.1,0.64-6.16
				c-0.48-2.57-1.92-4.96-3.37-7.09c-0.48-0.7-0.64-0.56-0.34,0.19C377.09,406.73,377.73,407.76,378.38,408.73L378.38,408.73z"/>
		</g>
	</g>
	<g>
		<g>
			<path class="st2" d="M293.76,466.31c-19.93-10.54-38.61-23.34-55.59-38.16c-4.87-4.25-9.59-8.66-14.17-13.21
				c-0.86-0.86-2.52-1.02-3.42-0.15c-0.97,0.93-0.59,2.32,0.26,3.17c16.28,16.21,34.46,30.51,54.03,42.55
				c5.5,3.38,11.11,6.58,16.82,9.6c1.06,0.56,2.6,0.45,3.23-0.7C295.54,468.27,294.82,466.87,293.76,466.31L293.76,466.31z"/>
		</g>
	</g>
	<g>
		<g>
			<path class="st2" d="M229.03,440.39c7.34,20.31,17.84,39.41,30.96,56.56c6.51,8.51,13.68,16.49,21.4,23.91
				c3.88,3.73,7.9,7.32,12.07,10.73c4.3,3.53,8.71,7,13.43,9.95c5.21,3.24,10.98,5.67,17.21,5.6c5.38-0.06,10.86-2.19,14.22-6.52
				c1.4-1.8-1.62-5.76-3.19-3.74c-2.77,3.57-7.06,5.27-11.48,5.55c-5.15,0.32-10.1-1.59-14.49-4.13c-4.56-2.63-8.75-5.98-12.84-9.27
				c-4.03-3.25-7.94-6.66-11.72-10.21c-14.78-13.9-27.45-30.09-37.49-47.71c-5.69-9.99-10.52-20.44-14.43-31.25
				c-0.37-1.02-1.36-2.26-2.59-2.07C228.9,437.98,228.69,439.45,229.03,440.39L229.03,440.39z"/>
		</g>
	</g>
	<g>
		<g>
			<path class="st2" d="M219.5,408c4.63,18.88,11.08,37.29,19.34,54.89c6.5,13.83,15.37,30.27,32.45,31.67
				c7.98,0.65,16.16-2.47,20.35-9.52c0.64-1.07-0.17-2.41-1.26-2.71c-1.33-0.37-2.55,0.39-3.21,1.49
				c-2.95,4.96-8.93,6.71-14.49,6.41c-6.83-0.37-12.6-4.11-17.08-9.09c-5.23-5.8-8.72-12.92-12.03-19.93
				c-3.84-8.13-7.3-16.45-10.36-24.9c-3.48-9.6-6.44-19.39-8.87-29.31c-0.3-1.24-1.42-1.89-2.68-1.62
				C220.6,405.58,219.19,406.74,219.5,408L219.5,408z"/>
		</g>
	</g>
	<g>
		<g>
			<path class="st2" d="M330.36,474.83c-14.17,1.56-28.33,3.13-42.5,4.69c-3.46,0.38-6.92,0.76-10.38,1.15
				c-3.51,0.39-7.06,0.95-10.6,0.9c-3.12-0.05-6.16-0.71-8.86-2.31c-2.55-1.51-4.71-3.61-6.77-5.71
				c-5.37-5.47-10.52-11.15-15.47-17.01c-0.6-0.71-1.03-0.42-0.92,0.43c0.14,1.12,0.79,2.34,1.51,3.2c4.49,5.32,9.16,10.49,14,15.5
				c4.24,4.39,8.75,9.14,15.06,10.16c3.23,0.52,6.54,0.2,9.77-0.15c3.61-0.39,7.22-0.8,10.83-1.2c7.25-0.8,14.5-1.6,21.74-2.4
				c8.24-0.91,16.47-1.82,24.71-2.73C333.07,479.29,331.73,474.68,330.36,474.83L330.36,474.83z"/>
		</g>
	</g>
	<g>
		<g>
			<path class="st2" d="M256.63,432.15c5.14,8.4,10.49,16.79,17.35,23.91c6.72,6.97,14.94,12.42,24.33,14.98
				c5.23,1.43,10.75,1.76,16.1,0.85c1.01-0.17,1.87-1.03,1.32-2.06c-0.57-1.06-2.15-1.43-3.24-1.24
				c-17.98,3.07-33.11-10.6-42.76-24.12c-3.03-4.25-5.8-8.68-8.53-13.14c-0.63-1.03-2.1-1.46-3.24-1.24
				C257,430.27,256,431.12,256.63,432.15L256.63,432.15z"/>
		</g>
	</g>
	<g>
		<g>
			<path class="st1" d="M195.93,429.01c17.93-3.34,35.19,7.94,46.5,20.85c6.29,7.18,11.49,15.2,16.65,23.2
				c2.59,4.02,5.17,8.04,7.88,11.98c2.49,3.61,5.01,7.43,8.43,10.24c3.31,2.71,7.19,3.92,11.4,2.93c3.95-0.93,8.67-2.99,9.8-7.27
				c0.07-0.26-2.32,0.45-2.49,0.52c-0.59,0.24-1.96,0.64-2.15,1.35c-0.42,1.61-1.38,2.62-2.61,3.65c-0.17,0.14,0.38-0.12,0.3-0.11
				c-0.31,0.02-0.65,0.13-0.96,0.16c-0.85,0.09-1.71,0.06-2.56-0.09c-3.93-0.67-7.09-3.57-9.56-6.51
				c-2.77-3.31-5.16-6.97-7.55-10.57c-2.52-3.8-4.96-7.65-7.45-11.47c-9.43-14.51-19.96-28.95-35.93-36.71
				c-8.31-4.04-17.52-5.75-26.66-4.05c-1.12,0.21-2.33,0.69-3.28,1.32C195.01,428.87,195.01,429.18,195.93,429.01L195.93,429.01z"/>
		</g>
	</g>
	<g>
		<g>
			<path class="st1" d="M245.6,405.68c3.72,17.28,7.65,35.24,18.31,49.77c4.63,6.31,10.47,11.87,17.38,15.62
				c6.78,3.68,14.47,5.39,22.17,4.93c8.69-0.53,17.12-3.84,23.24-10.12c0.82-0.85-0.58-1.47-1.24-1.53
				c-1.2-0.11-2.42,0.31-3.25,1.16c-9.71,9.95-25.59,9.64-37.13,3.31c-13.57-7.45-22.09-21.4-27.14-35.61
				c-3.29-9.28-5.37-18.94-7.44-28.55C250.12,402.9,245.22,403.93,245.6,405.68L245.6,405.68z"/>
		</g>
	</g>
	<g>
		<g>
			<path class="st1" d="M315.83,468.17c-4.32,0.79-8.46,2.24-12.63,3.56c-3.82,1.21-7.93,2.51-11.99,2.17
				c-4.17-0.36-7.58-2.88-10.77-5.4c-3.56-2.81-6.99-5.81-10.25-8.97c-3.64-3.53-7.06-7.26-10.28-11.17
				c-0.92-1.12-5.77-0.92-4.41,0.73c6.15,7.48,13.09,14.29,20.7,20.28c3.76,2.95,7.71,5.61,12.5,6.47c4.76,0.86,9.5,0.18,14.12-1.07
				c5.13-1.39,10.08-3.46,15.32-4.42c0.75-0.14,1.76-0.64,1.04-1.46C318.5,468.1,316.78,468,315.83,468.17L315.83,468.17z"/>
		</g>
	</g>
	<g>
		<g>
			<path class="st1" d="M321.97,490.43c6.84-5.63,12.97-12.07,18.24-19.18c0.73-0.98-2.64-4.42-2.89-4.08
				c-5.28,7.11-11.4,13.55-18.24,19.18C318.35,486.96,321.37,490.93,321.97,490.43L321.97,490.43z"/>
		</g>
	</g>
	<g>
		<g>
			<path class="st1" d="M227.27,359.57c0.32,20.89,3.05,41.72,8.18,61.97c1.06,4.19,2.51,9.14,7.57,9.64
				c1.08,0.11,2.63-0.39,2.93-1.58c0.3-1.2-0.95-1.94-1.97-2.04c-1.11-0.11-1.87-1.58-2.32-2.56c-0.84-1.85-1.23-3.89-1.72-5.85
				c-1.17-4.78-2.22-9.58-3.12-14.42c-1.8-9.59-3.08-19.27-3.83-29c-0.43-5.55-0.68-11.11-0.76-16.67
				C232.2,356.67,227.23,357.12,227.27,359.57L227.27,359.57z"/>
		</g>
	</g>
	<g>
		<g>
			<path class="st1" d="M187.42,420.7c-2.24,8.22-2.2,16.85-1.02,25.24c1.09,7.74,2.94,15.53,5.59,22.89
				c2.38,6.61,5.57,12.98,10.49,18.07c5.09,5.26,11.84,8.45,18.96,9.85c8.29,1.64,16.79,1.25,25.17,0.71
				c1.17-0.08,2.57-0.64,2.74-1.97c0.15-1.19-1.06-2.15-2.19-2.08c-13.22,0.85-28.62,1.74-39.2-7.76
				c-4.93-4.42-8.19-10.36-10.56-16.47c-2.64-6.78-4.38-14.04-5.62-21.19c-1.55-9.03-1.84-18.28,0.58-27.18
				c0.33-1.23-1.2-2.06-2.19-2.08C188.86,418.7,187.76,419.46,187.42,420.7L187.42,420.7z"/>
		</g>
	</g>
	<g>
		<g>
			<path class="st1" d="M221.13,512.82c13.74,3.36,27.78,5.34,41.92,5.81c6.98,0.23,13.98,0.1,20.95-0.4
				c6.03-0.43,12.24-0.88,18.11-2.43c5.35-1.41,10.76-4.11,13.16-9.38c0.47-1.03-4.03-3.21-4.47-2.23
				c-2.1,4.59-6.48,7.14-11.13,8.61c-5.48,1.73-11.35,2.18-17.05,2.65c-13.55,1.12-27.22,0.87-40.72-0.81
				c-7.55-0.94-15.05-2.3-22.44-4.11c-0.53-0.13-1.75-0.39-1.27,0.53C218.63,511.89,220.27,512.61,221.13,512.82L221.13,512.82z"/>
		</g>
	</g>
	<g>
		<g>
			<path class="st1" d="M310.83,512.93c-7.18,0.29-14.84,0.3-21.02-3.9c-1.44,0.54-2.87,1.08-4.31,1.62
				c31.45,4.11,63.26,5.23,94.92,3.28c4.3-0.27,8.8-0.36,12.83-2.08c3.1-1.33,6.09-3.95,5.82-7.62c-0.06-0.83-4.95-0.06-4.86,1.18
				c0.21,2.79-1.87,5.48-4.59,6.09c-3.2,0.72-6.72,0.62-9.99,0.8c-7.21,0.4-14.43,0.65-21.66,0.72
				c-14.63,0.15-29.26-0.35-43.85-1.51c-8.22-0.65-16.42-1.51-24.59-2.58c-1.04-0.14-2.13,0.07-3.1,0.45
				c-0.25,0.1-1.83,0.75-1.21,1.17c6.84,4.65,15.53,4.51,23.45,4.19c0.96-0.04,2.58-0.31,3.26-1.06
				C312.63,512.92,311.34,512.91,310.83,512.93L310.83,512.93z"/>
		</g>
	</g>
	<g>
		<g>
			<path class="st1" d="M304.16,512.45c12.17,0.84,24.46,1.21,36.57-0.58c10.36-1.54,20.44-4.78,29.51-10.07
				c5.33-3.11,10.34-6.82,14.68-11.23c0.71-0.72-0.87,0.04-1,0.12c-0.98,0.54-1.99,1.19-2.78,1.99
				c-13.88,14.1-35.29,17.51-54.24,17.65c-6.28,0.05-12.55-0.26-18.81-0.7c-0.81-0.06-2.07,1.06-2.69,1.51
				C305.19,511.28,303.79,512.42,304.16,512.45L304.16,512.45z"/>
		</g>
	</g>
	<g>
		<g>
			<path class="st1" d="M321.74,509.87c14.61-2.49,28.78-7.6,41.57-15.1c3.65-2.14,7.19-4.47,10.6-6.97
				c0.78-0.57,1.15-1.66,0.19-2.24c-1.01-0.61-2.57-0.04-3.41,0.58c-14.36,10.5-31.08,17.57-48.62,20.55
				c-0.96,0.16-2.5,0.83-2.58,1.98C319.41,509.83,320.91,510.01,321.74,509.87L321.74,509.87z"/>
		</g>
	</g>
</g>
</svg>
