<?xml version="1.0" encoding="utf-8"?>
<!-- Generator: Adobe Illustrator 25.4.1, SVG Export Plug-In . SVG Version: 6.00 Build 0)  -->
<svg version="1.1" id="Layer_1" xmlns="http://www.w3.org/2000/svg" xmlns:xlink="http://www.w3.org/1999/xlink" x="0px" y="0px"
	 viewBox="0 0 595.28 841.89" style="enable-background:new 0 0 595.28 841.89;" xml:space="preserve">
<style type="text/css">
	.st0{fill:#754C29;}
	.st1{fill:#A97C50;}
	.st2{fill:#C49A6C;}
</style>
<g>
	<g>
		<g>
			<path class="st0" d="M234.03,366.5c-13.57,12.82-24.57,28.74-30.37,46.57c-5.62,17.26-5.89,36.02,0.07,53.23
				c2.88,8.31,7.23,16.11,12.95,22.81c6.19,7.25,14.02,12.96,22.41,17.41c8.72,4.63,18.07,8.03,27.51,10.85
				c10.26,3.06,20.76,5.38,31.36,6.92c21.25,3.09,42.91,3.04,64.16-0.06c2.6-0.38,5.19-0.81,7.78-1.29
				c0.94-0.17,2.09-1.02,1.65-2.08c-0.46-1.11-2.17-1.16-3.13-0.98c-20.31,3.72-41.16,4.44-61.69,2.19
				c-10.24-1.12-20.4-2.96-30.37-5.56c-9.45-2.46-18.88-5.44-27.78-9.48c-8.57-3.89-16.75-8.81-23.55-15.39
				c-6.18-5.97-10.99-13.19-14.42-21.05c-6.97-15.99-8.04-34.22-3.77-51.06c4.49-17.71,14.27-33.71,26.83-46.86
				c1.55-1.62,3.14-3.19,4.76-4.73c0.88-0.83-0.2-1.91-1-2.18C236.23,365.35,234.93,365.65,234.03,366.5L234.03,366.5z"/>
		</g>
	</g>
	<g>
		<g>
			<path class="st0" d="M200.82,386.4c0.36,15.21,2.75,30.4,7.78,44.78c4.9,14,12.17,27.11,22.07,38.19
				c9.22,10.32,20.67,18.78,33.39,24.28c12.23,5.3,26.06,8.09,39.37,6.35c12.3-1.6,24.93-7.07,31.96-17.73
				c0.86-1.3,1.6-2.68,2.28-4.09c0.53-1.1-0.36-2.29-1.47-2.45c-1.34-0.2-2.48,0.67-3.03,1.81c-4.96,10.24-15.97,15.85-26.75,17.77
				c-12.37,2.2-25.23,0.09-36.84-4.45c-12.29-4.81-23.35-12.44-32.53-21.89c-9.72-10.01-17.12-22.19-22.21-35.15
				c-5.31-13.51-8.2-27.99-9.05-42.46c-0.11-1.81-0.17-3.62-0.21-5.43C205.5,382.95,200.76,383.84,200.82,386.4L200.82,386.4z"/>
		</g>
	</g>
	<g>
		<g>
			<path class="st0" d="M385.63,459.61c-8.93,10.2-18.46,19.88-28.54,28.95c-5.05,4.54-10.23,8.93-15.54,13.16
				c-5.14,4.09-10.35,8.2-15.96,11.63c-5.12,3.13-10.86,5.83-16.95,6.07c-6.61,0.26-13.15-2.01-19.1-4.68
				c-6.1-2.74-11.96-6.06-17.75-9.4c-5.98-3.44-11.86-7.05-17.64-10.82c-12.75-8.32-25-17.4-36.67-27.18
				c-0.75-0.63-2.21-0.46-3.1-0.32c-0.24,0.04-2.32,0.51-1.68,1.05c10.85,9.09,22.2,17.59,34,25.42c5.92,3.93,11.95,7.7,18.08,11.3
				c6.03,3.54,12.12,7.03,18.43,10.04c6.38,3.04,13.17,5.49,20.27,6.03c6.93,0.52,13.8-0.74,20.12-3.63
				c6.13-2.81,11.6-6.77,16.94-10.84c5.5-4.2,10.87-8.57,16.11-13.09c12.04-10.4,23.34-21.64,33.82-33.61
				c0.57-0.66-1.58-0.81-1.8-0.81C387.8,458.86,386.26,458.88,385.63,459.61L385.63,459.61z"/>
		</g>
	</g>
	<g>
		<g>
			<path class="st0" d="M204.72,413.16c6.22,10.64,15.96,18.26,26.39,24.5c11.17,6.68,23.07,12.27,35.16,17.08
				c24.67,9.81,50.75,16.08,77.2,18.4c3.71,0.33,7.43,0.58,11.16,0.76c2.71,0.13,5.43,0.1,8.12-0.33
				c5.31-0.86,10.63-3.24,12.29-8.79c0.74-2.48-3.47-4.93-4.32-2.05c-1.21,4.06-5.58,5.66-9.41,6.24
				c-5.27,0.79-10.74,0.19-16.02-0.24c-12.68-1.03-25.29-2.96-37.7-5.76c-24.74-5.58-48.76-14.62-70.93-26.96
				c-10.81-6.02-21.67-13.4-28.04-24.31c-0.6-1.02-1.8-1.96-3.05-1.49C204.43,410.65,204.14,412.16,204.72,413.16L204.72,413.16z"/>
		</g>
	</g>
	<g>
		<g>
			<path class="st0" d="M368.24,419.61c-16.3,17.53-33.68,34.82-54.81,46.48c-19.84,10.95-43.53,16.51-65.94,11.21
				c-10.71-2.53-20.64-7.75-28.65-15.32c-7.89-7.46-13.98-16.67-18.49-26.51c-2.4-5.24-4.67-10.76-5.99-16.38
				c-1.34-5.74-1.31-11.68,2.16-16.68c2.69-3.88,6.9-6.55,11.09-8.55c4.81-2.29,9.93-3.93,15.02-5.47
				c6.01-1.82,12.48-3.43,18.8-2.56c6.27,0.86,11.16,4.44,15.93,8.35c10.69,8.8,21.33,17.66,31.99,26.49
				c2.68,2.22,5.35,4.43,8.03,6.65c0.79,0.66,2.22,0.83,2.77-0.2c0.6-1.11-0.4-2.43-1.2-3.09c-11.22-9.29-22.44-18.58-33.66-27.87
				c-5.13-4.25-10.16-9.01-16.16-12.03c-5.99-3.02-12.75-3.4-19.27-2.31c-6.2,1.04-12.29,3.02-18.2,5.14
				c-4.91,1.77-9.8,3.91-13.96,7.12c-4.21,3.25-7.3,7.74-8.2,13.04c-1.11,6.58,0.96,13.29,3.16,19.42
				c7.85,21.81,22.34,42.3,44.32,51.45c22.03,9.18,47.71,6.56,69.21-2.86c22.91-10.05,41.86-27.14,58.99-45.01
				c2.17-2.27,4.32-4.56,6.46-6.85C373.26,421.53,369.83,417.9,368.24,419.61L368.24,419.61z"/>
		</g>
	</g>
	<g>
		<g>
			<path class="st0" d="M305.31,417.4c-4.36,9.66-10.25,18.58-17.41,26.39c-3.46,3.78-7.18,7.45-11.61,10.07
				c-4.8,2.84-10.05,3.7-15.56,3.01c-3.27-0.41-6.49-1.23-9.65-2.14c-1.92-0.55-5.24-1-6.36-2.89c-0.25,1.09-0.5,2.18-0.76,3.26
				c3.22-0.89,6.15,0.65,8.76,2.42c2.64,1.79,5.16,3.78,7.74,5.66c5.3,3.88,10.64,7.69,16.12,11.31
				c10.88,7.18,22.37,13.66,34.72,17.95c3.43,1.19,6.92,2.24,10.46,3.05c3.56,0.81,7.34,1.09,10.66-0.7
				c2.14-1.16-0.4-5.46-2.57-4.29c-2.82,1.53-6.14,0.95-9.12,0.24c-3.05-0.72-6.05-1.64-9.01-2.66c-6.06-2.1-11.91-4.74-17.58-7.73
				c-11.48-6.05-22.14-13.56-32.59-21.21c-2.87-2.1-5.66-4.39-8.69-6.25c-3.15-1.93-6.8-3.45-10.53-2.42
				c-1.48,0.41-1.4,2.17-0.76,3.26c1.39,2.36,3.7,3.7,6.25,4.53c2.91,0.95,5.9,1.76,8.89,2.44c6.11,1.38,12.38,1.68,18.29-0.64
				c5.18-2.04,9.52-5.77,13.41-9.67c4.09-4.12,7.82-8.59,11.15-13.35c3.71-5.31,6.91-10.98,9.57-16.88
				C310.07,418.05,306.49,414.78,305.31,417.4L305.31,417.4z"/>
		</g>
	</g>
	<g>
		<g>
			<path class="st0" d="M281.39,349.78c19.23,8.2,38.46,16.4,57.69,24.6c9.65,4.12,19.31,8.23,28.96,12.35
				c7.99,3.41,16.71,6.4,23.61,11.84c6.48,5.11,11.49,13.04,11.41,21.51c-0.07,7.47-4.51,13.66-10.58,17.66
				c-6.33,4.17-13.8,6.19-21.19,7.51c-9.08,1.63-18.31,2.35-27.53,2.18c-18.44-0.33-36.82-4.19-53.76-11.49
				c-2.06-0.89-4.1-1.84-6.11-2.83c-0.39-0.19-1.44-0.79-1.05,0c0.4,0.78,2.11,1.53,2.85,1.9c17.18,8.46,35.95,13.55,55.06,14.82
				c9.49,0.63,19.05,0.33,28.48-0.94c8.01-1.07,16.17-2.64,23.48-6.25c6.61-3.26,12.54-8.52,14.18-15.98
				c1.82-8.3-2.06-16.86-7.67-22.83c-6.48-6.9-15.3-11.33-23.86-15.1c-9.66-4.25-19.42-8.3-29.13-12.44
				c-20.07-8.56-40.15-17.12-60.22-25.68c-2.45-1.05-4.9-2.09-7.36-3.14c-0.79-0.34-0.9-0.07-0.29,0.48
				C279.23,348.71,280.33,349.33,281.39,349.78L281.39,349.78z"/>
		</g>
	</g>
	<g>
		<g>
			<path class="st0" d="M368.96,372.39c0.41,14.96,4.26,29.5,9.06,43.59c4.86,14.29,10.67,28.25,15.04,42.71
				c1.07,3.54,2.06,7.11,2.91,10.72c0.91,3.83,1.8,7.72,1.99,11.66c0.19,3.8-0.47,7.63-2.38,10.96c-1.7,2.97-4.08,5.49-6.66,7.72
				c-10.86,9.36-24.48,15.79-38.44,18.88c-3.54,0.78-7.12,1.36-10.73,1.7c-3.68,0.35-7.43,0.57-10.68-1.5
				c-3.06-1.96-5.33-5.2-7.53-8.03c-2.48-3.19-4.84-6.49-7.05-9.87c-1.11-1.69-2.18-3.41-3.21-5.15c-0.82-1.37-5.58-0.01-4.57,1.68
				c4.21,7.04,8.92,14.12,14.51,20.16c2.72,2.94,5.89,4.86,9.89,5.41c3.91,0.53,8.01-0.01,11.9-0.55
				c15.46-2.15,30.3-7.87,43.15-16.74c5.87-4.06,11.97-8.84,14.99-15.49c3.36-7.39,1.21-15.9-0.64-23.39
				c-3.79-15.3-9.73-29.94-15.06-44.74c-5.24-14.55-9.98-29.47-11.27-44.96c-0.16-1.94-0.27-3.89-0.32-5.84
				C373.8,369.77,368.91,370.55,368.96,372.39L368.96,372.39z"/>
		</g>
	</g>
	<g>
		<g>
			<path class="st0" d="M242.69,474.13c12.91,10.05,27.53,17.9,43.04,23.13c15.77,5.32,32.59,8.2,49.26,7.45
				c16.01-0.72,32.12-5.3,44.75-15.47c10.96-8.83,19.11-21.72,20-35.99c0.85-13.75-4.86-28.05-15.64-36.78
				c-1.34-1.09-2.75-2.08-4.23-2.97c-0.69-0.41-1.75-0.77-1.86,0.36c-0.1,1.03,1.01,2.43,1.83,2.92
				c10.88,6.49,16.35,19.06,16.29,31.44c-0.06,13.73-7.3,26.39-17.41,35.33c-11.6,10.25-26.56,15.35-41.82,16.72
				c-15.98,1.43-32.32-0.87-47.65-5.44c-14.91-4.44-29.1-11.38-41.76-20.42c-1.62-1.16-3.21-2.35-4.78-3.57
				c-0.66-0.51-1.76-0.7-1.86,0.36C240.75,472.33,241.9,473.52,242.69,474.13L242.69,474.13z"/>
		</g>
	</g>
	<g>
		<g>
			<path class="st0" d="M247,378.9c21.04-7.62,43.73-8.61,65.82-6.3c11.26,1.17,22.42,3.15,33.49,5.5c5.51,1.17,11,2.44,16.48,3.76
				c5.11,1.23,10.27,2.48,15.14,4.49c5.13,2.12,9.96,5.05,13.41,9.48c3.24,4.16,5,9.21,4.21,14.5c-0.39,2.6,3.97,4.15,4.43,1.04
				c1.63-10.85-5.9-20.75-14.73-26.1c-4.76-2.89-10.11-4.72-15.45-6.2c-5.58-1.54-11.25-2.82-16.9-4.1
				c-22.8-5.15-46.25-9.1-69.71-7.94c-13.03,0.64-26.01,2.95-38.29,7.4C242.25,375.39,244.57,379.78,247,378.9L247,378.9z"/>
		</g>
	</g>
	<g>
		<g>
			<path class="st0" d="M243.99,423.36c11.38-15.27,23.66-30.73,41.02-39.47c9.03-4.54,18.83-7.3,28.68-9.41
				c5.16-1.1,10.47-2.15,15.76-1.66c5.22,0.48,9.91,2.91,14.55,5.17c11.27,5.48,22.54,10.96,33.81,16.44
				c1.06,0.52,1.45-0.87,1.37-1.64c-0.13-1.17-0.84-2.36-1.92-2.88c-10.23-4.98-20.47-9.95-30.7-14.93
				c-4.66-2.26-9.34-4.93-14.4-6.16c-5.34-1.3-10.78-0.79-16.13,0.22c-10.06,1.89-20.15,4.45-29.53,8.61
				c-9,3.99-16.98,9.71-24.06,16.52c-7.92,7.62-14.65,16.35-21.2,25.15C240.14,420.8,242.75,425.01,243.99,423.36L243.99,423.36z"/>
		</g>
	</g>
	<g>
		<g>
			<path class="st0" d="M233.6,380.11c-1.38-14.31,3.8-28.43,12.63-39.59c9.03-11.41,21.71-20.04,35.71-24.05
				c16.22-4.65,33.66-3.46,49.72,1.23c8.16,2.38,16.02,5.69,23.51,9.68c7.29,3.88,14.41,8.36,20.7,13.74
				c5.88,5.03,10.99,11.3,12.78,18.98c2.13,9.12-0.36,18.73-3.32,27.36c-0.76,2.21-1.56,4.4-2.38,6.59
				c-0.43,1.16,0.14,2.4,1.09,3.13c0.67,0.52,2.35,1.06,2.79-0.11c3.45-9.27,6.88-18.85,6.81-28.87c-0.07-9.13-3.81-17.45-9.8-24.23
				c-5.74-6.5-12.97-11.55-20.31-16.08c-7.68-4.74-15.81-8.73-24.29-11.86c-16.72-6.17-34.9-8.74-52.54-5.51
				c-15.38,2.82-29.61,10.66-40.25,22.12c-10.31,11.1-17.1,25.43-17.31,40.73c-0.03,1.9,0.06,3.79,0.25,5.68
				c0.12,1.2,1.14,2.39,2.32,2.67C232.83,382.01,233.71,381.25,233.6,380.11L233.6,380.11z"/>
		</g>
	</g>
	<g>
		<g>
			<path class="st0" d="M356.79,434.21c14.64,0.95,29.75-4.13,40.65-13.99c11.32-10.23,17.19-25.1,16.99-40.26
				c-0.12-8.74-2.2-17.42-6.1-25.24c-0.46-0.93-5.01,0.6-4.95,0.72c6.49,13.02,7.94,28.47,3.71,42.41
				c-4.06,13.38-13.6,24.61-26.14,30.82c-6.53,3.23-13.46,4.91-20.75,4.44c-1.13-0.07-2.43,0.14-3.5,0.51
				C355.92,433.91,355.88,434.16,356.79,434.21L356.79,434.21z"/>
		</g>
	</g>
	<g>
		<g>
			<path class="st0" d="M367.04,369.82c18.95,3.32,29.24,23.11,36.35,38.99c2.35,5.25,4.48,10.61,6.38,16.04
				c1.87,5.33,3.88,10.86,4.44,16.52c0.51,5.12-0.66,9.98-3.74,14.12c-2.59,3.48-6.07,6.15-9.68,8.5
				c-11.17,7.28-22.55,14.26-33.83,21.39c-0.19,0.12-2.12,1.33-1.96,1.57c0.15,0.24,2.17-1.11,2.23-1.15
				c10.54-6.66,21.08-13.31,31.61-19.97c7.59-4.8,16.83-10.55,19.13-19.88c1.41-5.7-0.1-11.62-1.79-17.08
				c-1.75-5.65-3.76-11.21-6-16.69c-3.95-9.66-8.43-19.39-14.59-27.86c-5.99-8.23-14.04-15.42-24.36-17.23
				c-0.62-0.11-1.74,0.83-2.23,1.15c-0.49,0.32-0.99,0.65-1.44,1.02C367.5,369.32,366.99,369.81,367.04,369.82L367.04,369.82z"/>
		</g>
	</g>
	<g>
		<g>
			<path class="st0" d="M304.97,339.73c-22.91-11.16-49.38-2.91-70.87,7.67c-10.78,5.31-20.96,11.84-29.63,20.21
				c-8.3,8.01-14.73,17.73-18.9,28.49c-8.09,20.86-7.72,44.9,1.42,65.36c8.81,19.73,24.99,35.98,44.47,45.26
				c10.84,5.17,23.2,8.9,35.32,7.83c11.18-0.98,22.01-6.82,26.88-17.3c1.08-2.32,1.72-4.8,2.01-7.34c0.28-2.5-3.9-4.53-4.25-1.41
				c-1.12,9.95-9.8,17.53-19.03,20.15c-11.57,3.29-24.1,0.44-35-3.92c-18.62-7.45-34.57-21.55-44.09-39.22
				c-9.95-18.45-11.81-40.65-5.84-60.68c3.06-10.27,8.14-19.88,15.12-28.04c7.4-8.65,16.65-15.52,26.51-21.12
				c10.17-5.77,21.08-10.58,32.38-13.62c11.13-3,23.16-4.31,34.42-1.22c2.64,0.73,5.23,1.67,7.69,2.86
				C306.51,345.12,307.39,340.91,304.97,339.73L304.97,339.73z"/>
		</g>
	</g>
	<g>
		<g>
			<path class="st0" d="M328.67,381.77c-6.78-4.03-15.41-4.2-22.8-1.93c-7.69,2.37-14.48,6.85-21.21,11.14
				c-13.75,8.76-27.47,17.98-38.53,30.1c-10.49,11.5-18.47,26.12-19.73,41.85c-0.61,7.59-0.01,16.55,4.52,22.96
				c4.36,6.18,12.05,8.88,19.17,10.27c14.86,2.89,30.74-0.26,42.84-9.52c1.4-1.07,2.73-2.22,4.01-3.42
				c0.19-0.18-2.21-0.84-2.39-0.87c-0.62-0.11-2.01-0.5-2.54,0c-10.02,9.45-24.37,14.76-38.16,13.49
				c-6.29-0.58-12.71-2.98-16.97-7.82c-4.92-5.6-5.88-13.96-5.72-21.13c0.31-14.61,6.72-28.59,15.65-39.93
				c9.4-11.95,21.73-21.21,34.31-29.55c6.26-4.15,12.56-8.41,19.16-12c3.23-1.75,6.58-3.32,10.09-4.41
				c3.04-0.95,6.66-1.85,9.86-1.27c1.46,0.27,2.84,1,4.11,1.75c0.93,0.55,2.29,0.68,3.34,0.75
				C328.01,382.22,329.52,382.27,328.67,381.77L328.67,381.77z"/>
		</g>
	</g>
	<g>
		<g>
			<path class="st0" d="M256.49,379.84c17.63,10.35,33.93,23.21,53.43,30.01c16.96,5.91,36.72,6.93,51.78-4.25
				c7.07-5.25,12.48-12.74,14.01-21.52c0.23-1.32-4.47-2.76-4.61-1.94c-2.64,15.15-16.57,26.2-31.19,28.91
				c-18.86,3.49-37.13-4.49-52.92-14.06c-9.32-5.64-18.26-11.88-27.66-17.4c-0.86-0.5-2.22-1.3-3.26-1.07
				C255.09,378.74,256.01,379.55,256.49,379.84L256.49,379.84z"/>
		</g>
	</g>
	<g>
		<g>
			<path class="st0" d="M252.12,402.44c15.17,17.98,33.24,33.37,53.35,45.57c9.98,6.05,20.46,11.3,31.31,15.61
				c3.2,1.27,6.43,2.44,9.87,2.81c3.18,0.35,6.29-0.2,9.27-1.33c5.57-2.12,10.59-5.96,15.29-9.55c10.72-8.18,20-18.07,27.65-29.17
				c0.72-1.05-0.41-2.49-1.32-2.95c-1.15-0.58-2.42-0.36-3.15,0.7c-6.54,9.49-14.45,18.05-23.35,25.38
				c-4.32,3.56-8.89,6.99-13.78,9.75c-2.47,1.4-5.13,2.61-7.98,2.92c-3.04,0.33-6.08-0.53-8.91-1.56
				c-10.48-3.81-20.61-8.96-30.21-14.58c-9.64-5.64-18.81-12.07-27.43-19.18c-9.7-8-18.66-16.84-26.76-26.45
				c-0.79-0.94-2.23-1.5-3.39-0.88C251.49,400.12,251.36,401.54,252.12,402.44L252.12,402.44z"/>
		</g>
	</g>
	<g>
		<g>
			<path class="st0" d="M285.85,480.8c0.63-21.53,13.89-41.47,32.45-51.96c4.52-2.56,9.44-4.55,14.49-5.77
				c2.62-0.63,5.27-1.06,7.95-1.32c3.27-0.32,6.5-0.69,9.4-2.35c4.57-2.6,6.98-7.92,7.2-13.02c0.26-5.89-2.57-11.4-6.35-15.74
				c-4.19-4.81-9.47-8.72-14.83-12.13c-5.72-3.65-11.83-6.89-18.31-8.98c-6.03-1.94-12.76-2.75-18.85-0.61
				c-5.89,2.07-9.81,6.87-12.74,12.17c-3.27,5.9-5.96,12.2-8.5,18.43c-2.65,6.49-5,13.11-6.91,19.86
				c-3.68,12.99-5.79,26.49-5.27,40.02c0.5,12.88,3.26,25.81,8.9,37.44c1.43,2.94,3.02,5.83,4.81,8.57c1.63,2.5,3.79,4.94,6.6,6.1
				c3.16,1.31,6.58,0.68,9.16-1.52c2.6-2.22,4.81-5.02,6.96-7.66c2.14-2.62,4.16-5.34,6.07-8.14c1.6-2.34-3.01-3.76-4.27-1.91
				c-1.91,2.8-3.93,5.51-6.07,8.14c-2,2.45-4.05,5.15-6.46,7.22c-0.67,0.57-1.47,1.14-2.38,0.99c-1.2-0.19-2.34-1.28-3.13-2.12
				c-1.92-2.06-3.36-4.63-4.7-7.09c-5.92-10.79-9.19-22.96-10.21-35.19c-2.19-26.29,5.87-52.05,16.96-75.57
				c2.37-5.03,4.82-10.72,9.33-14.24c4.49-3.5,10.13-3.74,15.5-2.54c5.99,1.33,11.66,4.16,16.93,7.22
				c5.33,3.1,10.61,6.73,15.02,11.06c3.8,3.73,7.32,8.58,7.71,14.07c0.32,4.43-1.11,9.54-4.96,12.13c-2.36,1.59-5.33,1.67-8.07,1.94
				c-2.6,0.26-5.18,0.69-7.73,1.3c-5.19,1.25-10.15,3.14-14.87,5.61c-18.19,9.52-31.91,27.71-35.16,48.08
				c-0.39,2.44-0.61,4.9-0.68,7.36C280.78,483.04,285.78,483.19,285.85,480.8L285.85,480.8z"/>
		</g>
	</g>
	<g>
		<g>
			<path class="st0" d="M362.92,446.79c-0.19,10.17-2.55,20.8-8.71,29.09c-5.37,7.24-13.76,12.77-22.92,13.24
				c-10.65,0.56-20.5-5.23-29.51-10.19c-9.02-4.97-17.93-10.51-25.21-17.88c-6.47-6.55-11.52-14.73-13.15-23.89
				c-1.7-9.56,0.59-19.22,5.22-27.63c10.06-18.27,29.19-28.34,47.18-37.28c2.2-1.1,4.72-2.76,7.12-1.23
				c0.86,0.55,1.57,1.34,2.31,2.04c1.04,1,2.1,1.99,3.16,2.97c3.91,3.6,7.99,7.01,12.23,10.22c4.29,3.25,8.73,6.3,13.3,9.13
				c3.89,2.41,8.14,5.38,12.82,5.85c2.01,0.2,3.98-0.23,5.56-1.52c0.96-0.79-1.96-4.82-2.76-4.17c-3.81,3.13-9.03,0.68-12.71-1.44
				c-4.81-2.76-9.48-5.78-13.97-9.02c-4.49-3.24-8.82-6.7-12.98-10.36c-2.09-1.84-4.08-3.77-6.11-5.68
				c-1.71-1.61-3.71-3.27-6.21-2.84c-2.46,0.42-4.86,2.05-7.07,3.15c-2.43,1.22-4.85,2.45-7.25,3.72c-4.79,2.53-9.5,5.21-14.01,8.23
				c-8.58,5.73-16.31,12.72-21.86,21.48c-5.27,8.32-8.36,18.12-7.44,28.03c0.95,10.23,5.8,19.85,12.16,27.79
				c6.72,8.39,15.39,14.9,24.54,20.42c4.65,2.81,9.44,5.42,14.27,7.9c4.85,2.49,9.92,4.76,15.29,5.85
				c9.75,1.97,19.41-1.27,26.59-8.03c7.51-7.07,11.39-17.1,12.66-27.18c0.32-2.53,0.48-5.08,0.53-7.63c0.02-1.05-0.96-2.3-1.65-3.01
				C363.92,446.54,362.94,445.74,362.92,446.79L362.92,446.79z"/>
		</g>
	</g>
	<g>
		<g>
			<path class="st0" d="M323.71,342.29c-4.93-10.12-15.4-15.77-25.81-18.77c-5.52-1.59-11.22-2.46-16.94-2.97
				c-7.56-0.68-15.17-0.84-22.75-0.5c-11.67,0.53-26.96,1.12-33.31,12.75c-1.52,2.78-2.44,5.85-3.17,8.92
				c-0.84,3.53-1.51,7.1-2.07,10.68c-1.12,7.17-1.77,14.45-1.82,21.71c-0.09,12.27,2.31,26.02,12.83,33.76
				c0.82,0.6,2.31,1.28,3.34,0.87c1.02-0.41,0.4-1.35-0.24-1.82c-8.5-6.25-10.75-17.67-11.15-27.6c-0.26-6.43,0.16-12.92,0.91-19.3
				c0.78-6.65,1.81-13.45,3.78-19.86c1.74-5.65,4.84-10.47,10.26-13.15c5.07-2.51,10.87-3.16,16.43-3.65
				c7.04-0.62,14.12-0.8,21.18-0.49c5.93,0.26,11.9,0.73,17.72,1.92c10.59,2.17,21.38,6.78,26.37,17.01c0.48,0.99,2,1.55,3.03,1.65
				C323.06,343.54,324.2,343.3,323.71,342.29L323.71,342.29z"/>
		</g>
	</g>
	<g>
		<g>
			<path class="st0" d="M221.4,326.58c-1.16,5.66-1.91,11.4-2.22,17.17c-0.28,5.24-0.4,10.64,0.54,15.82
				c0.89,4.92,2.98,9.31,6.39,12.98c3.18,3.43,7.08,6.1,11.01,8.61c17.65,11.27,36.88,20.04,56.93,26.06
				c11.3,3.39,22.86,5.89,34.54,7.49c0.99,0.14,2.11-0.25,3.04-0.57c0.39-0.14,1.12-0.29,1.38-0.61c0.05-0.06,0.49-0.35,0.15-0.39
				c-20.6-2.82-40.79-8.47-59.87-16.75c-9.6-4.17-18.92-9-27.85-14.45c-8.17-4.99-17.07-10.53-20.06-20.2
				c-1.73-5.6-1.69-11.66-1.48-17.46c0.24-6.42,1.02-12.8,2.31-19.1c0.07-0.32-2.35,0.23-2.52,0.28
				C223.17,325.6,221.54,325.93,221.4,326.58L221.4,326.58z"/>
		</g>
	</g>
	<g>
		<g>
			<path class="st0" d="M410.88,379.58c-26.43,4.13-53.08,6.81-79.81,7.92c-7.56,0.31-15.12,0.5-22.69,0.58
				c-0.87,0.01-2.62,0.21-2.95,1.23c-0.33,1.02,1.25,1.31,1.92,1.31c27.11-0.27,54.2-2.05,81.11-5.38c7.59-0.94,15.16-2,22.72-3.19
				c0.74-0.12,2.43-0.48,2.33-1.53C413.42,379.51,411.52,379.48,410.88,379.58L410.88,379.58z"/>
		</g>
	</g>
	<g>
		<g>
			<path class="st0" d="M268.59,344.05c8.78-4.46,18.48-6.78,28.25-7.71c9.85-0.94,20.09-0.97,29.77,1.3
				c17.51,4.11,30.83,17.31,39.04,32.84c5.16,9.75,8.62,20.27,11.6,30.85c0.27,0.96,0.84,2.47,1.84,2.91
				c0.96,0.42,0.96-0.73,0.77-1.39c-5.46-19.34-12.71-38.87-27.02-53.5c-6.31-6.45-13.89-11.67-22.44-14.66
				c-9.9-3.46-20.65-3.83-31.02-3.23c-11.39,0.67-22.8,2.91-33.04,8.1C265.14,340.19,267.37,344.67,268.59,344.05L268.59,344.05z"/>
		</g>
	</g>
	<g>
		<g>
			<path class="st0" d="M284.48,358.79c11.51,0.46,21.22,7.69,29.9,14.58c10.19,8.08,20.47,16.03,31.08,23.56
				c6.08,4.32,12.24,8.52,18.48,12.61c2.08,1.36,5.79-1.42,3.17-3.14c-11.28-7.4-22.31-15.16-33.07-23.29
				c-5.27-3.98-10.44-8.1-15.62-12.2c-4.59-3.64-9.26-7.24-14.37-10.13c-5.75-3.25-12.07-5.56-18.72-5.83
				c-1.14-0.05-2.61,0.46-2.88,1.72C282.19,357.86,283.4,358.75,284.48,358.79L284.48,358.79z"/>
		</g>
	</g>
	<g>
		<g>
			<path class="st0" d="M252.72,418.58c-3.18,6.84-2.21,14.67,0.8,21.38c3.21,7.15,8.9,12.85,15.72,16.61
				c7.33,4.04,15.55,6,23.75,7.28c9.35,1.46,18.81,2.36,28.25,2.94c19.45,1.2,38.98,0.82,58.41-0.56c9.26-0.66,18.6-1.34,27.72-3.18
				c8.03-1.62,16.67-4.01,23.19-9.2c5.62-4.48,9.39-11.52,6.45-18.67c-2.45-5.94-8.73-10.63-15.33-10.18
				c-1.54,0.1-3.07,0.54-4.46,1.22c-1.82,0.91,0.46,5.36,2.31,4.43c4.74-2.36,11.08-0.42,13.9,4.01c0.48,0.76,0.91,1.81,1.05,2.96
				c0.18,1.44-0.09,2.93-0.56,4.29c-1.05,3.05-3.31,5.64-5.82,7.61c-6.07,4.76-13.92,7.12-21.35,8.69
				c-8.44,1.79-17.08,2.5-25.68,3.15c-18.04,1.38-36.16,1.91-54.25,1.15c-8.99-0.38-17.97-1.08-26.9-2.16
				c-7.87-0.95-15.81-2.11-23.31-4.75c-6.66-2.34-13.07-6-17.34-11.75c-3.69-4.96-5.87-11.37-4.72-17.57
				c0.29-1.58,0.83-3.12,1.51-4.58C256.84,420.02,253.81,416.23,252.72,418.58L252.72,418.58z"/>
		</g>
	</g>
	<g>
		<g>
			<path class="st0" d="M323.15,410c-1.97,4.91-2.97,10.08-2.92,15.37c0.02,2.58,0.12,5.3,1.69,7.47c1.49,2.06,3.7,2.7,6.07,3.2
				c9.34,1.98,19.24,0.84,27.9-3.19c8.09-3.77,14.87-10.2,19.28-17.94c2.16-3.79,3.77-7.93,4.71-12.19
				c1.08-4.9,0.4-10.19-3.82-13.44c-4.08-3.14-10.15-3.26-15.07-3.1c-5.87,0.2-11.67,1.54-17.07,3.84
				c-1.49,0.63,0.93,4.97,2.64,4.25c4.22-1.8,8.67-2.95,13.24-3.42c4.21-0.43,8.8-0.5,12.92,0.6c1.27,0.34,3.02,0.85,3.79,2.02
				c0.93,1.41,0.5,3.72,0.22,5.26c-0.69,3.8-2.06,7.49-3.84,10.92c-7.53,14.53-22.86,23.46-39.22,22.88
				c-2.38-0.08-4.75-0.37-7.08-0.87c-0.53-0.12-1.07-0.24-1.59-0.38c-0.21-0.06-1.16-0.52-1.36-0.47c-0.16,0.04-0.33-0.56,0.07,0.26
				c0.37,0.74,0.11-0.07,0.08-0.28c-0.08-0.58-0.1-1.17-0.14-1.75c-0.27-5.21,0.66-10.46,2.6-15.3c0.42-1.04-0.21-2.28-0.87-3.08
				C325.06,410.27,323.57,408.96,323.15,410L323.15,410z"/>
		</g>
	</g>
	<g>
		<g>
			<path class="st0" d="M195.08,359.26c-2.12,15.33-4.01,31.02-2.16,46.48c1.81,15.11,7.84,29.42,19.15,39.87
				c10.84,10.01,24.95,15.63,39.3,18.28c7.54,1.39,15.24,1.98,22.9,1.84c8.35-0.15,16.78-1.24,24.68-4.03
				c13.76-4.85,26.2-15.77,29.36-30.5c0.38-1.75,0.6-3.53,0.68-5.32c0.05-1.12-0.82-2.09-1.69-2.7c-0.35-0.25-2.23-1.2-2.28-0.1
				c-0.65,14.18-10.78,26.28-23.16,32.36c-14.1,6.93-30.73,7.51-46.07,5.67c-13.53-1.62-27.23-5.74-38.23-14.02
				c-11.29-8.5-17.67-21.26-20.02-35.01c-2.51-14.69-1.13-29.76,0.77-44.44c0.24-1.86,0.49-3.71,0.75-5.57
				c0.15-1.08-0.88-2.14-1.69-2.7C196.95,359.07,195.23,358.18,195.08,359.26L195.08,359.26z"/>
		</g>
	</g>
	<g>
		<g>
			<path class="st0" d="M251.24,476.38c13.03,5.58,26.65,9.58,40.63,11.87c13.66,2.24,27.9,2.98,41.45-0.38
				c11.27-2.79,22-8.77,29.4-17.85c6.97-8.54,10.28-19.38,8.69-30.35c-1.76-12.09-8.69-23.52-19.13-30.04
				c-0.66-0.41-1.96-1.11-2.41-0.05c-0.4,0.95,0.81,2.4,1.51,2.84c8.39,5.24,13.82,13.96,15.73,23.59
				c2.02,10.16-0.55,20.6-6.69,28.88c-6.51,8.78-16.11,14.89-26.49,18.08c-12.71,3.91-26.27,3.72-39.33,1.97
				c-14.94-2-29.64-6.08-43.5-12.02c-0.8-0.34-1.9-0.48-1.94,0.68C249.12,474.69,250.34,475.99,251.24,476.38L251.24,476.38z"/>
		</g>
	</g>
	<g>
		<g>
			<path class="st0" d="M247.69,397.62c17.4,5.86,35.26,10.39,53.36,13.51c18.13,3.12,36.49,4.81,54.89,5.07
				c4.98,0.07,10.02,0.18,14.99-0.11c3.81-0.23,8.12-1.21,10.21-4.73c0.86-1.44-0.06-2.87-1.4-3.53
				c-7.67-3.78-16.12-5.58-24.65-5.48c-1.26,0.01-2.04,1.41-1.76,2.53c0.33,1.35,1.61,2.03,2.91,2.01c7.7-0.09,15.3,1.75,22.2,5.15
				c-0.47-1.18-0.94-2.35-1.4-3.53c-1.55,2.6-4.84,2.92-7.6,3.05c-4.27,0.21-8.58,0.16-12.86,0.12c-8.87-0.09-17.74-0.55-26.58-1.33
				c-17.61-1.55-35.11-4.43-52.29-8.6c-9.69-2.35-19.27-5.15-28.72-8.34c-1.14-0.38-2.56-0.06-2.96,1.21
				C245.65,395.82,246.53,397.23,247.69,397.62L247.69,397.62z"/>
		</g>
	</g>
	<g>
		<g>
			<path class="st0" d="M217.44,380.08c4.66,17.55,15.23,33.26,29.2,44.78c7.01,5.78,14.92,10.53,23.36,13.91
				c9.67,3.87,20.59,6.52,31,4.68c9.97-1.76,19.46-8.74,21.36-19.12c0.31-1.71-4.14-3.88-4.52-1.83
				c-1.51,8.26-8.72,14.55-16.55,16.82c-9.57,2.76-19.92,0.7-29.06-2.68c-15.48-5.72-29.01-16.4-38.43-29.92
				c-5.43-7.79-9.5-16.44-11.94-25.62c-0.29-1.11-1.65-1.92-2.7-2.16C218.32,378.75,217.14,378.96,217.44,380.08L217.44,380.08z"/>
		</g>
	</g>
	<g>
		<g>
			<path class="st0" d="M231.61,367.21c13.96-17.4,35.42-30.45,58.07-31.41c10.79-0.46,21.75,1.9,30.82,7.95
				c8.54,5.7,14.98,14.06,19.05,23.43c2.29,5.27,3.83,10.84,4.59,16.53c0.38,2.83,0.58,5.69,0.55,8.54
				c-0.01,1.3-0.19,2.58-0.72,3.78c-0.24,0.54-0.53,1.11-0.93,1.54c-0.08,0.09-0.28,0.21-0.33,0.29c-0.28,0.18-0.28,0.2,0.01,0.06
				c1.33,0.14,1.65,0.12,0.98-0.08c-0.94-0.31-2.65-0.33-3.42,0.39c-0.83,0.77,0.16,1.34,0.89,1.58c2.66,0.88,5.71,0.13,7.2-2.32
				c1.3-2.15,1.37-4.64,1.31-7.07c-0.14-5.65-1.08-11.24-2.68-16.65c-3.15-10.63-9.14-20.49-17.61-27.71
				c-19.34-16.48-48.09-15.31-70.05-5.06c-12.64,5.9-23.8,14.71-32.52,25.58c-0.67,0.84,1.29,1.37,1.74,1.43
				C229.53,368.14,230.93,368.06,231.61,367.21L231.61,367.21z"/>
		</g>
	</g>
	<g>
		<g>
			<path class="st0" d="M265.74,333.01c-1.61,3.38-0.55,7.29,1.58,10.18c2.51,3.4,6.47,5.36,10.3,6.88
				c8.33,3.3,17.1,5.64,25.86,7.45c8.96,1.86,18.03,3.06,27.14,3.89c4.5,0.41,9.01,0.72,13.52,0.95c4.26,0.22,8.61,0.61,12.87,0.27
				c3.85-0.3,8.07-1.74,9.61-5.61c1.35-3.4,0.1-6.89-3.1-8.63c-0.8-0.44-2.48-0.9-3.22-0.1c-0.77,0.83,0.46,1.8,1.11,2.15
				c0.54,0.29,0.88,1.44,0.94,2.24c0.09,1.2-0.24,2.46-0.83,3.51c-1.5,2.65-4.87,3.38-7.68,3.48c-3.84,0.14-7.73-0.17-11.56-0.37
				c-4.05-0.21-8.09-0.48-12.12-0.83c-15.8-1.37-31.59-4.02-46.63-9.15c-3.62-1.23-7.69-2.41-10.61-5c-2.7-2.39-4.06-6.32-2.45-9.69
				C271.25,333.02,266.58,331.26,265.74,333.01L265.74,333.01z"/>
		</g>
	</g>
	<g>
		<g>
			<path class="st0" d="M266.27,326.46c8.25-4.01,16.78-7.42,25.5-10.25c8.6-2.78,17.48-5.18,26.43-6.53
				c4.34-0.66,8.72-0.82,12.92,0.67c3.91,1.39,7.38,3.91,10.58,6.49c5.93,4.78,11.5,10.02,16.69,15.6
				c10.36,11.15,19.12,23.72,26.13,37.23c7.01,13.52,12.26,27.94,15.5,42.81c3.22,14.77,4.55,30.04,3.62,45.14
				c-0.12,1.93-0.27,3.86-0.46,5.78c-0.12,1.23,0.84,2.01,2.01,2.11c0.99,0.09,2.78-0.45,2.9-1.68c1.52-15.69,0.8-31.54-2.11-47.03
				c-2.9-15.48-7.91-30.59-14.8-44.75c-6.89-14.15-15.7-27.41-26.14-39.19c-5.21-5.88-10.84-11.38-16.84-16.44
				c-6.86-5.78-14.18-11.04-23.52-11.07c-4.82-0.01-9.56,0.93-14.26,1.93c-4.69,1-9.35,2.15-13.96,3.47
				c-9.09,2.6-17.99,5.86-26.62,9.72c-2.17,0.97-4.33,1.98-6.47,3.02c-1.01,0.49-1.38,1.86-0.58,2.69
				C263.71,327.15,265.19,326.99,266.27,326.46L266.27,326.46z"/>
		</g>
	</g>
	<g>
		<g>
			<path class="st0" d="M249.39,435.01c15.02,8.6,30.04,17.21,45.26,25.46c14.42,7.82,29,15.5,44.23,21.66
				c7.46,3.02,15.09,5.66,22.88,7.69c7.6,1.98,15.64,3.82,23.53,3.78c3.85-0.02,7.72-0.64,11.26-2.2c3.38-1.49,6.32-3.78,9.04-6.24
				c5.36-4.85,10.45-10.11,15.16-15.6c8.97-10.46,16.97-23.18,16.25-37.49c-0.09-1.7-0.31-3.38-0.64-5.04
				c-0.23-1.13-0.89-2.38-1.93-2.96c-0.81-0.45-1.63-0.13-1.42,0.92c2.76,13.77-4.11,26.7-12.4,37.2
				c-4.43,5.62-9.43,10.76-14.56,15.75c-5.3,5.16-10.87,9.92-18.46,10.97c-7.7,1.06-15.74-0.65-23.22-2.39
				c-7.69-1.79-15.23-4.19-22.6-7c-14.89-5.67-29.09-12.98-43.12-20.5c-14.9-7.99-29.59-16.34-44.26-24.74
				c-1.84-1.05-3.68-2.11-5.53-3.17c-0.87-0.5-1.51-0.06-1.42,0.92C247.57,433.14,248.44,434.46,249.39,435.01L249.39,435.01z"/>
		</g>
	</g>
	<g>
		<g>
			<path class="st0" d="M257.43,348.51c7.01-0.44,13.48-3.23,20.07-5.4c3.1-1.02,6.25-1.89,9.51-2.16c3.5-0.29,7,0.31,10.34,1.35
				c6.6,2.07,12.71,5.89,18.31,9.87c5.72,4.07,11.06,8.68,15.91,13.76c2.65,2.77,5.12,5.68,7.48,8.69c2.34,3,4.73,5.95,8.16,7.76
				c1.06,0.56,2.62,0.37,3.51-0.42c0.85-0.75,0.71-1.84-0.29-2.37c-2.92-1.54-4.97-4.2-6.96-6.75c-2.2-2.82-4.5-5.56-6.94-8.18
				c-4.89-5.24-10.29-10-16.1-14.19c-5.96-4.31-12.31-8.29-19.25-10.79c-7.16-2.58-14.46-2.7-21.78-0.73
				c-7.47,2.01-14.55,5.72-22.38,6.21c-0.98,0.06-2.4,0.83-2.28,1.97C254.87,348.36,256.5,348.56,257.43,348.51L257.43,348.51z"/>
		</g>
	</g>
	<g>
		<g>
			<path class="st0" d="M245.35,324.27c5.74,20.99,22.15,36.74,40.09,47.99c10.21,6.4,21.21,11.63,32.43,16
				c12.1,4.71,24.64,8.31,37.39,10.75c6.99,1.34,14.61,2.94,21.62,0.86c5.43-1.61,10.91-6.39,10.01-12.6
				c-0.21-1.42-5.17-1.09-5,0.11c0.72,4.94-3.06,9.52-7.64,10.96c-2.64,0.83-5.43,0.7-8.14,0.39c-2.95-0.33-5.89-0.91-8.8-1.47
				c-11.96-2.32-23.7-5.7-35.07-10.06c-20.05-7.69-40.17-18.27-55.03-34.1c-7.73-8.23-13.86-17.98-16.86-28.93
				C249.94,322.69,245.07,323.25,245.35,324.27L245.35,324.27z"/>
		</g>
	</g>
	<g>
		<g>
			<path class="st0" d="M227.57,386.57c4.97,11.23,9.94,22.46,14.91,33.7c3.72,8.41,7.51,17.03,13.67,23.98
				c6.52,7.37,15.12,12.76,25.23,12.37c10.13-0.4,19.97-5.17,28.11-10.94c8.93-6.33,16.34-14.7,21.53-24.33
				c0.41-0.75-3.7-3.45-3.83-3.22c-4.35,8.07-10.26,15.26-17.33,21.1c-7.24,5.99-15.88,10.92-25.07,13.12
				c-8.47,2.03-18.4,1.23-24.75-5.34c-5.81-6.01-9.4-13.99-12.75-21.53c-5.31-11.99-10.62-23.98-15.92-35.97
				c-0.39-0.88-1.44-1.61-2.18-2.19C229.03,387.18,227.42,386.24,227.57,386.57L227.57,386.57z"/>
		</g>
	</g>
	<g>
		<g>
			<path class="st0" d="M277.4,367.84c-4.78,1.01-4.95,7.14-5.44,11.01c-0.7,5.44-1.09,10.99-0.48,16.46
				c1.01,9.16,5.26,18.22,13.14,23.4c8.91,5.85,19.43,3.33,28.44-0.89c9.36-4.39,17.88-10.66,26.07-16.9
				c4.14-3.16,8.2-6.93,9.73-12.08c1.42-4.78,0.56-10.22-3.18-13.72c-0.82-0.77-2.28-1.25-3.18-0.33c-0.88,0.89-0.43,2.41,0.38,3.18
				c2.38,2.23,2.52,5.87,1.62,8.85c-1.18,3.87-4.26,6.86-7.32,9.33c-3.46,2.81-7.14,5.38-10.79,7.94
				c-3.82,2.67-7.72,5.23-11.81,7.46c-7.39,4.02-16.92,8.41-25.34,5.02c-6.6-2.66-10.9-9.5-12.49-16.19
				c-1.26-5.29-1.22-10.8-0.72-16.18c0.25-2.65,0.59-5.31,1.01-7.94c0.2-1.23,0.53-3.63,2.03-3.94
				C281.98,371.69,279.87,367.32,277.4,367.84L277.4,367.84z"/>
		</g>
	</g>
	<g>
		<g>
			<path class="st0" d="M263.46,366.22c15.91,11.29,32.2,22.09,49.32,31.48c17.02,9.33,34.93,17.22,53.69,22.36
				c2.62,0.72,5.43,1.03,7.88-0.43c1.92-1.14,3.25-3.08,3.86-5.21c1.43-5.06-1.66-9.7-4.53-13.59c-1.57-2.13-6.01-0.12-4.21,2.32
				c2.15,2.91,4.96,6.55,3.87,10.4c-0.31,1.08-1,2.41-2.07,2.83c-0.83,0.32-1.75,0.08-2.58-0.12c-1.15-0.27-2.3-0.62-3.43-0.95
				c-8.59-2.49-17.01-5.61-25.22-9.13c-16.65-7.14-32.48-16.05-47.72-25.81c-8.64-5.53-17.09-11.33-25.46-17.26
				c-1.03-0.73-2.58-0.71-3.53,0.17C262.43,364.09,262.45,365.51,263.46,366.22L263.46,366.22z"/>
		</g>
	</g>
	<g>
		<g>
			<path class="st0" d="M290.83,354.43c-14.17-5.01-28.93,2.06-39.11,11.87c-5.35,5.15-9.88,11.07-14.27,17.04
				c-4.49,6.11-8.77,12.4-12.57,18.96c-7.41,12.78-13.11,26.88-13.82,41.78c-0.3,6.32,0.2,12.8,2.87,18.62
				c2.54,5.53,7.27,10.21,13.09,12.18c6.85,2.32,14.77-0.62,20.74-4.05c6.16-3.54,11.44-8.41,16.42-13.43
				c1.24-1.25,2.46-2.51,3.68-3.78c0.4-0.42-3.37-3.64-4.05-2.93c-9.1,9.45-19.84,20.61-33.71,21.85c-2.64,0.24-6.28-0.02-8.2-1.63
				c-1.81-1.52-3.1-3.79-4.04-5.92c-2.46-5.55-2.99-11.68-2.76-17.68c0.54-14.18,5.8-27.75,12.65-40.01
				c3.53-6.32,7.52-12.37,11.73-18.25c4.07-5.68,8.26-11.34,13.01-16.48c5.32-5.76,11.51-10.91,18.82-13.93
				c7.16-2.96,15.3-3.87,22.7-1.25c1.01,0.36-0.13-0.97-0.3-1.12C292.89,355.51,291.89,354.81,290.83,354.43L290.83,354.43z"/>
		</g>
	</g>
	<g>
		<g>
			<path class="st0" d="M294.19,332.4c12.4-3.93,25.47-5.93,38.49-5.76c5.16,0.07,10.93,0,15.74,2.12
				c5.23,2.31,7.38,7.27,7.96,12.69c0.66,6.24,0.51,12.63,0.62,18.9c0.12,6.59,0.15,13.19-0.02,19.79
				c-0.34,12.94-1.47,25.9-4.32,38.55c-1.49,6.59-3.12,13.64-6.65,19.47c-2.62,4.34-8.12,9.76-13.76,8c-0.97-0.3-2.59-0.5-3.44,0.22
				c-0.83,0.7,0.05,1.41,0.8,1.64c5.95,1.85,12.57,0.25,17.14-3.97c4.64-4.28,6.84-10.35,8.59-16.25c4-13.47,5.76-27.49,6.41-41.5
				c0.33-7.06,0.38-14.12,0.3-21.18c-0.08-6.97-0.12-13.98-0.5-20.94c-0.32-5.87-1.68-11.76-6.78-15.3
				c-4.85-3.36-11.04-4.09-16.79-4.4c-15.96-0.86-31.99,1.24-47.22,6.07c-0.99,0.31-0.88,1.18-0.1,1.64
				C291.68,332.79,293.1,332.75,294.19,332.4L294.19,332.4z"/>
		</g>
	</g>
	<g>
		<g>
			<path class="st0" d="M318.87,507.34c9.56,3.35,19.23,6.58,29.41,7.23c8.41,0.53,17.45-0.75,24.7-5.27
				c7.79-4.86,12.05-13.17,16.28-21.01c4.57-8.48,8.78-17.22,11.7-26.42c3.24-10.21,4.72-20.98,2.94-31.61
				c-0.21-1.25-5.13-0.96-5-0.16c3.07,18.26-3.5,36.29-11.67,52.35c-2.04,4.01-4.18,7.97-6.42,11.87c-2.1,3.65-4.39,7.24-7.36,10.25
				c-5.63,5.71-13.49,8.41-21.4,8.64c-10.18,0.3-20.16-3.46-29.62-6.77c-1.05-0.37-2.46-0.43-3.53-0.12
				C318.05,506.56,317.97,507.02,318.87,507.34L318.87,507.34z"/>
		</g>
	</g>
	<g>
		<g>
			<path class="st0" d="M412.17,382.19c4.81,7.58,10.2,16.57,7.02,25.84c-1.4,4.06-4.63,6.57-8.54,8.03
				c-4.5,1.68-9.38,2.65-14.09,3.54c-18.78,3.54-38.88,2.85-55.53-7.44c-7.91-4.89-14.66-11.81-18.69-20.24
				c-0.84-1.76-5.56-0.21-4.81,1.37c7.99,16.71,25.25,26.98,43.07,30.05c11.25,1.94,22.8,1.39,34-0.6
				c5.32-0.94,10.71-2.06,15.85-3.74c4.67-1.53,9.28-3.88,11.98-8.16c6.42-10.21-0.23-21.86-5.81-30.66
				C415.69,378.72,411.03,380.39,412.17,382.19L412.17,382.19z"/>
		</g>
	</g>
	<g>
		<g>
			<path class="st0" d="M244.77,313.61c8.34,16.15,17.48,33.3,33.32,43.28c8.62,5.43,18.72,7.91,28.76,8.95
				c9.17,0.94,18.72,1.39,27.88,0.13c9.38-1.29,18.71-4.92,23.68-13.46c0.61-1.05-0.16-2.27-1.25-2.51
				c-1.3-0.28-2.53,0.49-3.17,1.58c-3.71,6.38-11,8.96-17.94,10.11c-3.78,0.62-7.65,0.79-11.48,0.79c-4.81,0-9.64-0.16-14.44-0.58
				c-9.52-0.84-19.09-2.89-27.44-7.71c-7.39-4.26-13.43-10.5-18.48-17.3c-5.88-7.92-10.47-16.74-14.99-25.48
				C248.04,309.05,243.56,311.28,244.77,313.61L244.77,313.61z"/>
		</g>
	</g>
	<g>
		<g>
			<path class="st0" d="M189.43,338.62c13.49-1.94,25.74,7.95,32.16,18.99c7.59,13.05,9.76,28.38,14.44,42.55
				c4.68,14.17,11.03,27.8,19.09,40.36c3.95,6.16,8.26,12.26,13.18,17.69c2.27,2.51,4.84,4.84,7.93,6.28
				c2.99,1.39,6.22,1.78,9.47,1.33c7-0.97,13.91-5.08,18.93-9.93c5.19-5.01,9.02-11.2,13.73-16.63c1.25-1.44,2.57-2.8,3.97-4.09
				c0.75-0.69-0.86-0.18-1.05-0.11c-1.01,0.38-2.2,0.88-3.01,1.63c-5.25,4.8-9.14,10.78-13.64,16.24
				c-4.02,4.87-8.86,9.84-15.42,10.66c-7.15,0.9-12.78-3.35-17.23-8.47c-4.69-5.41-8.89-11.3-12.73-17.33
				c-7.7-12.1-13.82-25.19-18.4-38.78c-4.65-13.81-6.81-28.69-13.72-41.66c-6.52-12.25-19.32-23.09-34.02-20.98
				c-1.09,0.16-2.22,0.8-3.14,1.37C189.74,337.89,188.45,338.76,189.43,338.62L189.43,338.62z"/>
		</g>
	</g>
	<g>
		<g>
			<path class="st0" d="M437.39,369.22c0.04,6.97,0.08,13.93,0.13,20.9c0.02,3.37,0.13,6.76,0.04,10.13
				c-0.08,2.72-0.52,5.41-2.41,7.49c-1.82,2.01-4.24,3.33-6.59,4.61c-2.61,1.41-5.27,2.73-7.98,3.94
				c-5.24,2.36-10.63,4.36-16.13,6.03c-22.59,6.86-46.56,8-70.02,7.29c-13.45-0.41-26.87-1.45-40.28-2.57
				c-1.08-0.09-2.15,0.57-1.95,1.76c0.2,1.2,1.58,2.09,2.71,2.18c24.38,2.03,48.92,3.84,73.37,2c11.99-0.91,23.9-2.76,35.5-5.97
				c5.8-1.6,11.51-3.55,17.05-5.9c5.29-2.24,10.82-4.69,15.53-8.02c2.67-1.89,4.67-4.36,5.47-7.57c0.87-3.52,0.45-7.4,0.43-10.99
				c-0.05-7.96-0.1-15.92-0.14-23.88c-0.01-1.25-0.95-2.21-2.12-2.56C439.14,367.83,437.38,367.96,437.39,369.22L437.39,369.22z"/>
		</g>
	</g>
	<g>
		<g>
			<path class="st0" d="M175.94,391.59c0.14,27.88,4.09,56.92,21.43,79.72c7.75,10.19,17.94,18.32,29.86,23.07
				c13.11,5.23,27.44,6.41,41.43,6.31c11.03-0.07,28.94,0.3,32.91-12.91c0.36-1.21-1.26-2.16-2.22-2.28
				c-1.26-0.17-2.37,0.4-2.74,1.62c-1.33,4.43-5.67,6.75-9.82,7.95c-5.28,1.52-10.87,1.54-16.32,1.64
				c-12.97,0.24-26.26-0.56-38.6-4.88c-11.37-3.98-21.07-11.14-28.71-20.41c-7.69-9.34-13.06-20.46-16.45-32.03
				c-4.47-15.28-5.74-31.29-5.82-47.15c-0.01-1.27-0.99-2.12-2.22-2.28C177.72,389.84,175.93,390.32,175.94,391.59L175.94,391.59z"
				/>
		</g>
	</g>
	<g>
		<g>
			<path class="st0" d="M417.1,494.59c-22-3.98-43.73-9.37-65.03-16.15c-21.27-6.77-42.09-14.91-62.31-24.36
				c-5.12-2.39-10.43-4.68-15.27-7.62c-4-2.43-7.37-5.72-8.36-10.45c-0.18-0.87-1.67-1.62-2.38-2c-0.21-0.11-2.03-0.99-1.88-0.29
				c0.96,4.6,4.18,8.12,7.79,10.92c4.08,3.16,8.72,5.43,13.33,7.68c10.51,5.15,21.2,9.94,32.04,14.37
				c21.69,8.86,43.96,16.29,66.64,22.18c12.81,3.33,25.73,6.18,38.75,8.53c1.06,0.19-0.08-0.99-0.31-1.19
				C419.29,495.52,418.18,494.78,417.1,494.59L417.1,494.59z"/>
		</g>
	</g>
	<g>
		<g>
			<path class="st0" d="M185.12,343.25c6.5,10.54,13.95,20.48,22.26,29.67c4.15,4.59,8.51,9,13.06,13.19
				c4.4,4.05,9.13,7.69,13.63,11.62c4.34,3.79,9.14,8.97,7.77,15.22c-0.05,0.23,2.33-0.33,2.5-0.38c0.47-0.14,2.15-0.48,2.28-1.08
				c1.2-5.49-2.4-10.19-6.16-13.76c-4.32-4.11-9.21-7.62-13.64-11.62c-9.14-8.24-17.53-17.32-25.03-27.08
				c-4.26-5.54-8.22-11.29-11.89-17.24C189.43,341.02,185.04,343.12,185.12,343.25L185.12,343.25z"/>
		</g>
	</g>
	<g>
		<g>
			<path class="st0" d="M275.72,315.57c15.48-6.13,32.54-3.19,47.57,2.82c7.81,3.12,15.31,6.99,22.71,10.96
				c6.98,3.74,13.93,7.85,19.61,13.44c5.67,5.59,9.79,13,10.2,21.06c0.06,1.15,0.97,2.27,1.9,2.88c0.59,0.38,1.91,0.75,1.85-0.41
				c-0.88-17.28-15.07-29.68-29.02-37.71c-7.7-4.43-15.67-8.55-23.8-12.14c-8.04-3.55-16.47-6.45-25.19-7.71
				c-9.54-1.38-19.47-0.83-28.49,2.74C271.28,312.2,274.24,316.16,275.72,315.57L275.72,315.57z"/>
		</g>
	</g>
	<g>
		<g>
			<path class="st0" d="M406.21,330.15c-7.34,23.86-9.61,50.21-24.27,71.18c-5.93,8.48-13.74,15.37-23.33,19.39
				c-8.92,3.74-18.74,5.08-28.34,4.05c-10.64-1.14-20.83-5.32-28.91-12.38c-0.86-0.75-2.51-1.02-3.47-0.32
				c-1.01,0.74-0.6,1.89,0.2,2.59c15.76,13.77,38.93,17.46,58.65,11.13c10.26-3.29,19.2-9.42,26.1-17.68
				c7.63-9.13,12.64-20.22,16.27-31.47c4.79-14.83,7.34-30.26,11.92-45.14C411.72,329.24,406.91,327.86,406.21,330.15L406.21,330.15
				z"/>
		</g>
	</g>
	<g>
		<g>
			<path class="st0" d="M294.21,274.19c-7.34,23.1-6.91,48.28,0.18,71.38c7.03,22.92,20.83,44.59,40.13,59.08
				c5.96,4.48,12.76,7.95,20.32,8.33c7.13,0.36,14.93-0.8,20.15-6.08c0.08-0.08-0.9-0.17-0.74-0.16c-0.58-0.04-1.19-0.01-1.77,0.02
				c-0.64,0.04-1.98-0.06-2.48,0.44c-2.15,2.18-4.88,3.75-7.82,4.6c-2.43,0.7-4.68,0.64-7.16,0.14c-6.57-1.32-12.46-5.07-17.61-9.22
				c-9.06-7.3-16.88-16.17-23.26-25.89c-12.58-19.19-19.65-41.96-20.25-64.89c-0.34-12.87,1.4-25.78,5.3-38.06
				c0.06-0.19-2.33-0.15-2.51-0.14C296.33,273.78,294.36,273.73,294.21,274.19L294.21,274.19z"/>
		</g>
	</g>
	<g>
		<g>
			<path class="st0" d="M249.43,299.64c-0.01,12.99,1.46,25.98,4.39,38.63c2.78,12.02,6.69,24.18,12.55,35.08
				c5.42,10.09,13.47,19.13,24.4,23.26c10.3,3.89,21.74,3.23,32.16,0.11c5.83-1.75,11.81-4.18,16.83-7.67
				c4.65-3.23,8.91-8.09,7.67-14.13c-0.21-1.03-1.47-2.02-2.33-2.53c-0.52-0.31-1.67-0.78-1.45,0.27c1.04,5.05-2.77,9.39-6.5,12.23
				c-4.06,3.1-8.92,5.24-13.69,6.98c-9.66,3.52-20.42,5.14-30.53,2.67c-4.79-1.17-9.4-3.33-13.15-6.59
				c-3.78-3.29-6.74-7.38-9.2-11.73c-5.69-10.05-9.41-21.39-12.22-32.55c-3.39-13.45-5.08-27.29-5.06-41.16
				c0-0.99-1.15-1.97-1.88-2.51C251.19,299.85,249.43,298.72,249.43,299.64L249.43,299.64z"/>
		</g>
	</g>
	<g>
		<g>
			<path class="st0" d="M275.78,305.05c-1.49,17.97-2.9,36.06-1.5,54.08c0.69,8.85,2.07,17.66,4.5,26.2
				c1.21,4.25,2.65,8.44,4.38,12.51c0.77,1.82,1.47,4.18,3.32,5.19c2.22,1.21,4.96,0.4,6.87-0.99c7.3-5.3,12.5-13.44,14.39-22.25
				c0.46-2.16-4.48-2.28-4.85-0.52c-1.56,7.29-5.32,13.97-10.83,18.99c-0.65,0.59-1.32,1.16-2.02,1.69
				c-0.29,0.22-0.78,0.44-1.01,0.71c-0.09,0.04-0.17,0.09-0.26,0.13c0.42,0.03,0.84,0.07,1.26,0.1c-0.01,0.03-0.39-0.44-0.42-0.48
				c-1.12-1.62-1.78-3.79-2.5-5.61c-1.54-3.86-2.84-7.81-3.9-11.83c-4.26-16.21-4.9-33.13-4.3-49.8c0.34-9.48,1.09-18.94,1.88-28.39
				C280.93,302.95,275.95,303.03,275.78,305.05L275.78,305.05z"/>
		</g>
	</g>
	<g>
		<g>
			<path class="st0" d="M236.49,327.47c1.05,0,2.29-0.97,3-1.66c0.39-0.38,1.21-1.39,0.15-1.39c-1.05,0-2.29,0.97-3,1.66
				C236.25,326.47,235.43,327.47,236.49,327.47L236.49,327.47z"/>
		</g>
	</g>
	<g>
		<g>
			<path class="st0" d="M222.36,315.15c12.34,20.91,26.21,41.07,43.5,58.23c16.14,16.02,35.39,29.22,57.02,36.59
				c3.29,1.12,6.86,2.45,10.35,1.43c2.91-0.86,4.93-3.27,6.29-5.87c3.18-6.09,4.57-13.24,4.36-20.07c-0.04-1.19-1.27-1.79-2.33-1.89
				c-0.82-0.08-2.68,0.23-2.64,1.42c0.19,5.95-0.85,11.9-3.23,17.38c-0.88,2.02-1.96,4.38-3.91,5.58c-0.98,0.61-2,0.55-3.09,0.27
				c-1.47-0.38-2.92-0.88-4.36-1.37c-10.01-3.43-19.58-8.26-28.44-14.05c-18.72-12.23-34.37-28.5-47.68-46.36
				c-7.76-10.41-14.77-21.36-21.36-32.54C225.77,312.11,220.97,312.8,222.36,315.15L222.36,315.15z"/>
		</g>
	</g>
	<g>
		<g>
			<path class="st0" d="M269.08,300.91c4.54,21.28,19.12,39.73,38.14,50.05c5.37,2.91,11.09,5.07,17.02,6.55
				c2.78,0.69,4.44-3.46,1.3-4.24c-19.76-4.91-36.87-19.27-45.94-37.4c-2.61-5.22-4.54-10.77-5.75-16.48
				C273.27,296.7,268.5,298.2,269.08,300.91L269.08,300.91z"/>
		</g>
	</g>
	<g>
		<g>
			<path class="st0" d="M425.55,354.27c-15.09,9.74-31.87,16.8-49.35,20.91c-17.6,4.13-35.82,5.36-53.81,3.55
				c-10.06-1.01-19.99-3.02-29.66-5.96c-1.18-0.36-2.67,0.25-3.28,1.31c-0.6,1.04-0.12,2.2,1.02,2.55
				c17.79,5.41,36.53,7.66,55.1,6.77c18.69-0.89,37.2-4.8,54.6-11.72c9.77-3.89,19.17-8.73,28.01-14.44
				c0.92-0.59,1.55-1.93,0.74-2.86C428.08,353.42,426.51,353.65,425.55,354.27L425.55,354.27z"/>
		</g>
	</g>
	<g>
		<g>
			<path class="st0" d="M429.45,482.41c-10.32,3.53-21.31,2.52-31.85,0.63c-11.13-1.99-22.2-4.51-33.2-7.12
				c-22.11-5.25-44.01-11.41-65.61-18.46c-12.15-3.97-24.21-8.23-36.17-12.76c-1.19-0.45-2.66-0.33-3.41,0.85
				c-0.64,1.01-0.23,2.58,0.95,3.03c21.67,8.22,43.67,15.56,65.95,21.96c22.17,6.36,44.63,11.91,67.28,16.27
				c12.29,2.37,25.35,4.02,37.46-0.13c1.16-0.4,2.12-1.46,1.7-2.76C432.17,482.73,430.63,482.01,429.45,482.41L429.45,482.41z"/>
		</g>
	</g>
	<g>
		<g>
			<path class="st1" d="M247.48,382.75c0.85,8.4,2.69,16.71,5.49,24.67c1.44,4.09,3.13,8.11,5.05,12c1.73,3.51,3.71,7.01,7.03,9.24
				c3.15,2.12,7.08,2.53,10.78,2.53c3.68,0,7.36-0.32,10.99-0.92c7.27-1.21,14.37-3.54,20.94-6.87c7.47-3.79,14.26-8.91,19.96-15.05
				c1.4-1.51-1.36-5.63-3-3.87c-9.41,10.13-21.96,17.31-35.44,20.35c-3.33,0.75-6.71,1.26-10.11,1.51c-3.42,0.25-7.05,0.46-10.4-0.4
				c-3.39-0.87-5.34-3.15-6.93-6.13c-1.77-3.32-3.29-6.78-4.63-10.29c-3.15-8.31-5.19-16.98-6.09-25.82c-0.11-1.1-0.95-2.5-2.1-2.76
				C247.85,380.66,247.38,381.77,247.48,382.75L247.48,382.75z"/>
		</g>
	</g>
	<g>
		<g>
			<path class="st1" d="M231.03,434.85c10.88,16.61,29.62,25.37,47.69,31.88c20.91,7.53,42.88,12.19,65.04,13.84
				c6.12,0.46,12.29,0.75,18.43,0.65c5.57-0.09,11.33-0.77,16.14-3.82c1.12-0.71-1.67-4.85-2.89-4.08
				c-4.24,2.69-9.19,3.45-14.13,3.62c-5.15,0.18-10.33-0.04-15.47-0.33c-10.77-0.6-21.5-1.92-32.09-3.94
				c-10.64-2.03-21.14-4.78-31.4-8.21c-9.25-3.09-18.51-6.58-27.09-11.26c-8.84-4.82-17.06-10.99-22.63-19.49
				c-0.31-0.48-1.52-1.98-2.24-1.47C229.65,432.77,230.76,434.43,231.03,434.85L231.03,434.85z"/>
		</g>
	</g>
	<g>
		<g>
			<path class="st1" d="M284.29,363.56c-5.72,7.26-10.58,15.2-14.43,23.6c-3.8,8.3-6.83,17.2-8.33,26.22
				c-0.73,4.42-1.01,9.12,0.72,13.36c1.69,4.15,5.09,7.28,8.95,9.42c8.18,4.52,18.33,5.53,27.23,2.62
				c8.98-2.94,16.38-9.73,20.16-18.37c0.95-2.17-3.74-3.89-4.71-1.67c-2.98,6.81-8.51,12.41-15.29,15.46
				c-7.38,3.31-16.26,3.28-23.59-0.15c-3.32-1.55-6.52-3.92-7.99-7.39c-1.57-3.7-1.38-7.93-0.72-11.82
				c1.4-8.32,4.12-16.54,7.51-24.26c3.84-8.77,8.8-17,14.73-24.52C290.12,364.03,285.71,361.76,284.29,363.56L284.29,363.56z"/>
		</g>
	</g>
	<g>
		<g>
			<path class="st1" d="M390.46,435.37c-19.64,7.85-32.94,24.91-48.71,38.18c-8.48,7.13-17.8,13.02-28.58,15.94
				c-6.07,1.65-12.36,2.35-18.64,2.13c-2.93-0.1-5.99-0.34-8.79-1.28c-2.65-0.89-4.83-2.46-6.78-4.45
				c-2.32-2.37-4.26-5.13-6.15-7.84c-1.96-2.8-3.81-5.68-5.54-8.63c-3.6-6.11-6.66-12.53-9.23-19.14c-0.44-1.12-1.77-1.98-2.97-1.92
				c-1.15,0.06-1.77,1.03-1.36,2.09c4.65,11.99,10.96,23.54,18.91,33.67c1.96,2.5,4.08,4.84,6.63,6.75
				c2.62,1.97,5.66,3.22,8.86,3.91c6.22,1.34,12.98,1.14,19.25,0.26c12.06-1.69,23.05-6.7,32.75-13.97
				c8.6-6.45,16.13-14.18,23.97-21.5c8.66-8.08,17.92-15.92,29.04-20.37C395.73,438.17,392.52,434.55,390.46,435.37L390.46,435.37z"
				/>
		</g>
	</g>
	<g>
		<g>
			<path class="st1" d="M246.3,405.47c-2.69,13.75-1.62,28.26,3.17,41.43c2,5.5,4.54,12.43,10.71,14.36
				c5.76,1.81,12.43-0.16,17.19-3.6c5.32-3.85,9.14-9.73,9.76-16.35c0.27-2.88-4.46-1.74-4.68,0.62c-0.44,4.75-2.83,9-6.47,12.04
				c-3.45,2.89-8.86,4.86-13.31,3.35c-5.14-1.75-7.25-8.31-8.87-12.93c-2.09-5.97-3.43-12.21-3.99-18.51
				c-0.63-7.03-0.2-14.13,1.16-21.05c0.24-1.21-1.1-1.86-2.11-1.73C247.61,403.27,246.54,404.23,246.3,405.47L246.3,405.47z"/>
		</g>
	</g>
	<g>
		<g>
			<path class="st1" d="M259.72,373.97c-15.65,12.1-18.24,32.9-19.45,51.31c-0.39,5.96-0.81,12-0.65,17.98
				c0.07,2.42,0.36,4.95,1.46,7.13c1.11,2.22,3.07,3.85,5.2,5.07c4.73,2.71,10.25,4.43,15.47,5.92c5.39,1.53,10.97,2.73,16.56,3.24
				c6.13,0.56,12.47-0.4,17.32-4.46c3.65-3.06,6.31-8.11,4.26-12.82c-0.47-1.07-4.88,1.23-4.31,2.54c1.5,3.43,0.17,7.72-2.74,10.03
				c-1.55,1.22-3.75,1.61-5.66,1.79c-2.44,0.23-4.93,0.04-7.35-0.26c-5.25-0.66-10.45-1.81-15.52-3.32
				c-4.77-1.43-9.78-3.04-14.12-5.53c-2-1.15-3.75-2.65-4.79-4.74c-1.06-2.11-1.32-4.49-1.37-6.83c-0.12-5.42,0.23-10.89,0.56-16.29
				c0.55-8.99,1.31-18.05,3.6-26.78c2.28-8.7,6.3-17.51,13.58-23.13c0.42-0.32,1.71-1.32,0.93-1.86
				C261.98,372.47,260.21,373.58,259.72,373.97L259.72,373.97z"/>
		</g>
	</g>
	<g>
		<g>
			<path class="st1" d="M300.02,370.89c-10.23-0.48-19.54,3.92-27.63,9.81c-7.77,5.66-14.84,12.29-20.96,19.71
				c-3.01,3.64-5.82,7.47-8.32,11.49c-2.53,4.06-4.74,8.5-5.47,13.27c-0.75,4.91,0.43,9.74,2.42,14.21c1.9,4.29,4.28,8.6,6.97,12.45
				c2.68,3.82,6.13,6.56,10.96,6.45c3.88-0.09,9.18-1.37,10.19-5.73c0.07-0.3-4.64-0.49-4.94,0.78c-0.33,1.42-1.26,2.64-2.56,3.31
				c-0.09,0.05-0.7,0.29-0.36,0.22c-0.58,0.11-1.37-0.12-1.91-0.3c-3.62-1.18-6.06-4.73-7.93-7.82c-4.33-7.15-9.11-15.24-7.96-23.93
				c1.11-8.42,6.75-15.99,11.84-22.5c5.25-6.71,11.24-12.83,17.85-18.2c3.71-3.02,7.62-5.88,11.82-8.18
				c3.87-2.12,8.14-3.86,12.63-3.65c1.14,0.05,2.44-0.08,3.49-0.55C300.89,371.39,301,370.94,300.02,370.89L300.02,370.89z"/>
		</g>
	</g>
	<g>
		<g>
			<path class="st1" d="M270.39,343.31c-16.61,8.75-32.94,19.59-43.74,35.3c-5.21,7.58-9.01,16.3-10.63,25.37
				c-0.8,4.47-1.1,9.05-0.75,13.58c0.36,4.59,1.23,9.45,3.23,13.63c2.23,4.67,6.7,7.19,11.82,7.03c4.54-0.15,9.04-2.34,12.35-5.38
				c2.13-1.96-1.51-5.33-3.49-3.51c-2.6,2.39-5.88,4.13-9.44,4.45c-3.34,0.3-5.82-1.26-7.16-4.32c-3.26-7.46-3.26-16.59-1.78-24.45
				c3.22-17.04,13.98-31.13,27.28-41.78c7.68-6.15,16.13-11.24,24.82-15.82C275.6,345.99,272.75,342.07,270.39,343.31L270.39,343.31
				z"/>
		</g>
	</g>
	<g>
		<g>
			<path class="st1" d="M240.9,361.23c-10.71,14.83-14.42,33.81-11.53,51.76c1.49,9.23,4.62,18.19,8.93,26.47
				c2.15,4.13,4.6,8.12,7.33,11.89c2.52,3.47,5.41,6.74,9.17,8.87c4.02,2.29,8.76,2.68,13.11,1.15c3.77-1.33,6.95-4.25,7.32-8.38
				c0.16-1.76-4.81-1.58-4.98,0.4c-0.25,2.81-2.45,4.99-5.06,5.81c-2.9,0.91-5.88-0.27-8.38-2.11c-3.16-2.33-5.54-5.5-7.74-8.72
				c-2.45-3.58-4.66-7.31-6.61-11.18c-7.63-15.14-11.07-32.59-7.89-49.38c1.73-9.14,5.29-17.97,10.75-25.52
				C246.75,360.29,241.92,359.82,240.9,361.23L240.9,361.23z"/>
		</g>
	</g>
	<g>
		<g>
			<path class="st1" d="M259.04,447.03c1.94,9.86,7.48,18.57,14.65,25.49c7.85,7.57,17.62,12.64,27.91,16.04
				c11.23,3.7,23.12,5.41,34.87,6.43c5.6,0.49,11.45,0.58,16.86-1.17c5.47-1.77,9.72-5.32,13.22-9.82
				c7.69-9.9,13.47-22.88,11.6-35.64c-0.18-1.26-1.24-2-2.5-2c-0.97,0-2.69,0.73-2.5,2c1.58,10.79-2.54,21.35-8.46,30.2
				c-2.78,4.15-6.01,8.32-10.61,10.54c-4.6,2.22-9.84,2.38-14.85,2.1c-10.87-0.6-21.97-2.32-32.45-5.3
				c-9.83-2.8-19.24-7.2-27.03-13.89c-7.88-6.77-13.86-15.73-15.88-26.01C263.37,443.49,258.49,444.28,259.04,447.03L259.04,447.03z
				"/>
		</g>
	</g>
	<g>
		<g>
			<path class="st1" d="M335.32,402.89c2.52-1.27,5,0.38,6.41,2.42c1.75,2.52,3.15,5.44,4.35,8.26c2.32,5.47,2.25,11.43,0.29,17
				c-4.11,11.69-14.66,19.05-25.5,23.98c-2.86,1.3-5.86,2.78-8.92,3.53c-1.12,0.28-2.31,0.47-3.47,0.35
				c-0.47-0.05-0.91-0.25-1.35-0.32c0.03,0-0.2,0.05-0.07-0.01c0.11-0.05,0.34,0.84,0.14,0.1c-0.29-1.03-1.26-2.36-2.41-2.48
				c-1.16-0.13-1.38,1-1.13,1.9c0.82,2.95,3.35,5.02,6.4,5.23c2.96,0.2,5.6-0.82,8.3-1.9c6.74-2.71,13.39-5.88,19.11-10.41
				c5.46-4.32,9.96-9.9,12.34-16.49c2.5-6.94,2.31-14.03-0.53-20.83c-1.62-3.87-3.65-8.03-6.38-11.23
				c-2.53-2.96-6.68-5.08-10.45-3.17C330.72,399.67,333.46,403.83,335.32,402.89L335.32,402.89z"/>
		</g>
	</g>
	<g>
		<g>
			<path class="st1" d="M283.16,365.43c19.14,8.69,38.23,17.51,57.26,26.44c4.79,2.25,9.57,4.51,14.36,6.77
				c4.37,2.07,8.85,4,13.09,6.34c3.44,1.9,6.68,4.31,8.11,8.11c1.69,4.5,1.84,9.69,2.08,14.45c0.28,5.6,0.4,11.43-0.4,17
				c-0.54,3.76-2.9,9.47-7.66,8.68c-1.12-0.19-2.45,0.57-2.46,1.79c-0.01,1.33,1.3,2.14,2.45,2.33c4.71,0.78,8.97-2.28,10.97-6.38
				c2.21-4.54,2.08-10.21,2.15-15.14c0.07-5.45-0.2-10.92-0.88-16.33c-0.63-4.96-1.93-9.63-5.57-13.25
				c-3.24-3.23-7.44-5.2-11.51-7.14c-5.08-2.41-10.16-4.82-15.24-7.22c-10.22-4.82-20.46-9.61-30.71-14.36
				c-11.55-5.35-23.12-10.66-34.71-15.93c-1.04-0.47-2.63-0.03-3.02,1.11C281.01,364,282.13,364.96,283.16,365.43L283.16,365.43z"/>
		</g>
	</g>
	<g>
		<g>
			<path class="st1" d="M308.5,372.57c-5.18,5.44-8.49,12.31-10.62,19.45c-2.28,7.65-3.7,15.84-3.93,23.82
				c-0.22,7.71,1.14,15.48,5.31,22.08c3.69,5.84,9.45,10.11,16.34,11.18c7.22,1.12,15.79-1.21,20.21-7.34
				c1.25-1.73-3.58-1.64-4.45-0.43c-3.15,4.37-8.33,6.27-13.6,5.4c-6.1-1.01-11.03-5.56-14.14-10.69
				c-3.73-6.15-4.89-13.45-4.74-20.56c0.16-7.41,1.46-14.94,3.42-22.08c2.05-7.48,5.26-14.72,10.66-20.4
				c0.78-0.82-0.47-1.33-1.14-1.4C310.73,371.49,309.28,371.75,308.5,372.57L308.5,372.57z"/>
		</g>
	</g>
	<g>
		<g>
			<path class="st1" d="M212.82,415.42c-5.99,15.5-6.84,32.47-4.25,48.78c1.31,8.25,3.5,16.38,6.33,24.24
				c2.64,7.32,5.93,14.71,12.14,19.7c5.9,4.74,15.27,6.31,21.34,1.05c1.77-1.53-1.73-5.1-3.54-3.53c-4.49,3.89-11.42,2.9-15.88-0.52
				c-5.39-4.13-7.99-11.13-10.2-17.29c-5.11-14.24-7.98-29.52-7.14-44.68c0.48-8.56,2.16-17,5.26-25.01
				C217.71,416.05,213.73,413.06,212.82,415.42L212.82,415.42z"/>
		</g>
	</g>
	<g>
		<g>
			<path class="st1" d="M240.72,479.66c15.25,10.27,32.02,18.23,49.6,23.62c17.93,5.5,36.65,8.5,55.41,8.73
				c2.6,0.03,5.2,0.03,7.8-0.07c1.96-0.08,4.14-0.42,5.07-2.39c0.73-1.56,0.48-3.47,0.35-5.13c-0.15-1.95-0.33-3.96,0.4-5.83
				c0.1-0.26-4.6-1.66-4.93-0.81c-1.2,3.04,0.05,6.26-0.34,9.39c-0.18,1.48-0.88,2.77-2.33,3.32c-1.05,0.4-2.24,0.33-3.34,0.35
				c-1.08,0.02-2.17,0.04-3.26,0.04c-8.45,0.03-16.91-0.54-25.27-1.77c-16.9-2.47-33.4-7.44-48.91-14.58
				c-8.86-4.08-17.37-8.86-25.46-14.31c-0.82-0.55-2.03-0.67-2.99-0.78C242.29,479.41,240.4,479.44,240.72,479.66L240.72,479.66z"/>
		</g>
	</g>
	<g>
		<g>
			<path class="st1" d="M248.5,331.65c10.74,0.05,21.48,0.1,32.23,0.15c5.33,0.02,10.66,0.05,15.99,0.07
				c5.13,0.02,10.38-0.27,15.49,0.26c4.3,0.45,8.8,2.02,10.29,6.48c0.72,2.16,5.29,2.6,4.31-0.32c-1.45-4.32-5.46-7.42-9.65-8.87
				c-5.25-1.81-10.98-1.45-16.45-1.48c-11.49-0.05-22.98-0.11-34.47-0.16c-6.5-0.03-12.99-0.06-19.49-0.09
				c-1.15-0.01-1.7,1.16-1.28,2.14C245.98,331.01,247.28,331.65,248.5,331.65L248.5,331.65z"/>
		</g>
	</g>
	<g>
		<g>
			<path class="st1" d="M391.43,413.89c1.59,11.45,3,23.37-2.19,34.16c-2.23,4.64-5.34,8.8-8.73,12.65
				c-3.37,3.84-6.96,7.69-10.81,11.06c-1.97,1.73-4.53,3.52-7.26,3.57c-0.56,0.01-1.64-0.09-1.93-0.31c-0.8-0.58-1.06-1.79-1.11-2.7
				c-0.08-1.27-4.47-2.99-4.41-1.98c0.15,2.56,2.12,4.43,4.19,5.71c2.24,1.39,4.95,2.33,7.61,1.98c5.43-0.71,9.52-5.91,13.12-9.58
				c4.14-4.24,8.17-8.66,11.33-13.7c3.24-5.16,5.23-10.82,5.86-16.89c0.75-7.35-0.24-14.72-1.24-22c-0.13-0.91-1.7-1.65-2.42-1.97
				C393.12,413.77,391.31,413.04,391.43,413.89L391.43,413.89z"/>
		</g>
	</g>
	<g>
		<g>
			<path class="st1" d="M301.61,342.98c20.5-0.62,40.04,6.87,58.23,15.61c5.19,2.49,10.32,5.11,15.44,7.75
				c0.9,0.46,1.37-0.15,1.1-1.01c-0.35-1.1-1.4-2.08-2.4-2.6c-18.39-9.45-37.34-19.09-57.95-22.49c-5.71-0.94-11.49-1.35-17.27-1.18
				c-1.04,0.03,0.01,1.86,0.23,2.16C299.56,342.02,300.54,343.01,301.61,342.98L301.61,342.98z"/>
		</g>
	</g>
	<g>
		<g>
			<path class="st2" d="M261.32,400.75c1.09,9.12,5.43,17.59,10.78,24.93c5.04,6.93,10.99,13.28,17.85,18.44
				c6.58,4.94,14.12,8.77,22.22,10.42c7.24,1.48,14.89,0.99,21.88-1.42c7.76-2.68,14.53-7.8,18.56-15.02c0.56-1-2.35-4.67-2.74-3.98
				c-6.85,12.26-21.85,18-35.38,16.76c-15.46-1.42-29.02-11.23-38.73-22.82c-5.8-6.92-10.59-14.79-11.68-23.91
				c-0.13-1.1-0.85-2.23-1.54-3.06C262.29,400.79,261.19,399.69,261.32,400.75L261.32,400.75z"/>
		</g>
	</g>
	<g>
		<g>
			<path class="st2" d="M310.28,378.22c6.46-2.38,13.6-2.74,20.3-1.25c3.29,0.73,6.52,1.93,9.47,3.58c3.02,1.69,5.9,3.79,7.44,6.98
				c3.07,6.34,1.73,14.11-1.33,20.18c-3.3,6.56-8.62,11.62-14.55,15.82c-3.43,2.43-7.07,4.55-10.73,6.62
				c-1.7,0.96-3.38,2.01-5.2,2.74c-1.27,0.51-2.6,0.94-3.68,0c-1.99-1.72-5.57,0.58-3.11,2.71c3.24,2.8,7.88,1.63,11.3-0.12
				c3.72-1.91,7.35-4.08,10.89-6.32c7.02-4.44,13.7-9.7,18.12-16.86c4.15-6.72,6.34-15.16,4-22.91c-1.27-4.21-3.85-7.45-7.45-9.94
				c-3.44-2.38-7.28-4.14-11.27-5.35c-8.89-2.7-18.44-2.4-27.15,0.81c-1.12,0.41-1.23,1.81-0.52,2.62
				C307.68,378.53,309.11,378.65,310.28,378.22L310.28,378.22z"/>
		</g>
	</g>
	<g>
		<g>
			<path class="st2" d="M317.83,362.5c7.91,7.46,18.49,11.7,29.41,11.18c1.09-0.05-0.98-4.33-2.29-4.27
				c-9.91,0.48-20.06-2.95-27.33-9.8c-0.43-0.4-1.35-1.18-1.43-0.13C316.12,360.44,317.18,361.88,317.83,362.5L317.83,362.5z"/>
		</g>
	</g>
	<g>
		<g>
			<path class="st2" d="M321.47,339.79c7.97,2.86,15.61,6.98,21.53,13.14c5.82,6.05,9.59,14.24,9.56,22.71
				c-0.01,2.39-0.34,4.75-1.03,7.04c-0.29,0.97-0.65,1.95-1.19,2.8c-0.3,0.48-0.93,1.47-1.55,1.55c-0.83,0.1-2.43,0.56-2.34,1.66
				c0.09,1.09,1.88,1.21,2.63,1.13c5.06-0.58,7.15-5.1,7.97-9.61c0.84-4.58,0.53-9.27-0.78-13.73c-2.69-9.17-9.01-16.58-16.88-21.82
				c-4.54-3.02-9.49-5.37-14.61-7.21c-1.1-0.39-2.55-0.35-3.52,0.38C320.48,338.41,320.43,339.41,321.47,339.79L321.47,339.79z"/>
		</g>
	</g>
	<g>
		<g>
			<path class="st2" d="M244.97,387.04c1.25,8.68,3.52,17.25,6.95,25.33c3.01,7.08,7.21,13.9,14.11,17.74
				c6.93,3.86,15.17,3.25,22.46,0.84c7.85-2.6,15.08-7.1,21.83-11.81c3.75-2.61,7.89-5.33,10.86-8.84c2.6-3.07,4.24-7.15,1.86-10.84
				c-0.58-0.9-1.62-2.07-2.82-2c-1.09,0.06-1.15,1.22-0.65,1.99c1.69,2.63-0.64,5.9-2.4,7.86c-2.46,2.73-5.63,4.91-8.59,7.06
				c-6.12,4.43-12.68,8.6-19.7,11.48c-6.28,2.58-13.59,4.34-20.23,2.08c-6.21-2.11-9.83-7.92-12.41-13.6
				c-3.62-7.98-5.93-16.67-7.18-25.32c-0.17-1.18-1.07-2.22-2.14-2.72C246.25,385.97,244.8,385.85,244.97,387.04L244.97,387.04z"/>
		</g>
	</g>
	<g>
		<g>
			<path class="st2" d="M286.65,403.99c2.99,9.61,10.04,17.5,18.74,22.42c8.71,4.93,19.1,5.99,28.6,2.78
				c5.34-1.81,10.23-4.86,14.11-8.95c0.63-0.67-3.13-3.93-3.94-3.08c-11.87,12.5-33.87,14.9-46.27,1.79
				c-3.29-3.48-5.79-7.71-7.21-12.29c-0.31-0.99-1.28-1.74-2.11-2.29C288.42,404.27,286.42,403.25,286.65,403.99L286.65,403.99z"/>
		</g>
	</g>
</g>
</svg>
