<?xml version="1.0" encoding="utf-8"?>
<!-- Generator: Adobe Illustrator 21.1.0, SVG Export Plug-In . SVG Version: 6.00 Build 0)  -->
<svg version="1.0" id="Capa_1" xmlns="http://www.w3.org/2000/svg" xmlns:xlink="http://www.w3.org/1999/xlink" x="0px" y="0px"
	 viewBox="0 0 290.2 290.2" enable-background="new 0 0 290.2 290.2" xml:space="preserve">
<path color-interpolation="sRGB" shape-rendering="auto" color-rendering="auto" image-rendering="auto" fill="#FFFFFF" d="
	M145.3,59.3c-0.6,0-1.3,0.1-1.9,0.3l-140,50.1c-4.6,1.5-4.6,8,0,9.5l16.7,6v35.2c-5.8,2.1-10,7.6-10,14.1s4.2,12,10,14.1v15.9
	c-0.1,6.8,10.1,6.8,10,0v-15.9c5.8-2.1,10-7.6,10-14.1s-4.2-12-10-14.1v-31.6l30,10.7v74.2c-0.4,2.5,1.1,5,3.6,5.6
	c53.5,15.3,114.2,15.4,162.9,0c2.4-0.7,3.9-3.2,3.5-5.7v-74.1l56.7-20.2c4.6-1.6,4.5-8.2-0.3-9.5v0L146.8,59.6
	C146.3,59.4,145.8,59.3,145.3,59.3L145.3,59.3z M145.1,69.6l125.4,44.8l-125.4,44.8L19.7,114.4L145.1,69.6z M145.1,109.5
	c-5.5,0-10,2.2-10,5s4.5,5,10,5s10-2.2,10-5S150.6,109.5,145.1,109.5z M70.1,143l73.3,26.2c1.1,0.4,2.3,0.4,3.4,0l73.3-26.2v67.8
	c-44.7,13.3-100.6,13.3-150-0.1L70.1,143z M25.1,169.5c2.8,0,5,2.2,5,5s-2.2,5-5,5s-5-2.2-5-5C20.1,171.7,22.3,169.5,25.1,169.5z"/>
</svg>
