<?xml version="1.0" encoding="utf-8"?>
<!-- Generator: Adobe Illustrator 21.1.0, SVG Export Plug-In . SVG Version: 6.00 Build 0)  -->
<svg version="1.1" id="Layer_1" xmlns="http://www.w3.org/2000/svg" xmlns:xlink="http://www.w3.org/1999/xlink" x="0px" y="0px"
	 viewBox="0 0 500 250" style="enable-background:new 0 0 500 250;" xml:space="preserve">
<style type="text/css">
	.st0{fill:#F37024;}
</style>
<title  id="title4193">AccuWeather</title>
<g id="g3990_1_" transform="translate(434.8402,492.4554)">
</g>
<g id="g3994_1_" transform="translate(450.2328,502.0917)">
</g>
<g id="g3998_1_" transform="translate(463.374,498.4684)">
</g>
<g id="g4002_1_" transform="translate(476.4785,505.0357)">
</g>
<g id="g4006_1_" transform="translate(481.7784,509.8289)">
</g>
<g id="g4010_1_" transform="translate(499.5084,502.0917)">
</g>
<g id="g4014_1_" transform="translate(508.3068,505.0357)">
</g>
<g id="g4018_1_" transform="translate(387.8889,502.9403)">
</g>
<g id="g4022_1_" transform="translate(401.5725,502.9403)">
</g>
<g id="g4026_1_" transform="translate(370.8601,499.1707)">
</g>
<g id="g4030_1_" transform="translate(416.8361,505.2062)">
</g>
<g id="layer1" transform="translate(585.21434,-174.53635)">
	<g>
		<g>
			<path class="st0" d="M-394.8,315.3c-1.3,1.3-3,2-5.4,2c-1.5,0-2.8-0.3-3.9-1c-1-0.7-1.9-1.6-2.5-2.6c-0.6-1.1-1.1-2.3-1.3-3.6
				c-0.3-1.3-0.4-2.6-0.4-3.9s0.1-2.7,0.4-4c0.3-1.4,0.7-2.6,1.4-3.7c0.7-1.1,1.5-2,2.6-2.8c1-0.7,2.3-1.1,3.9-1.1
				c4.2,0,6.6,2,7.2,6.1h9.5c-0.1-2.3-0.7-4.3-1.7-5.9c-1-1.7-2.2-3.1-3.7-4.2s-3.3-2-5.2-2.5c-1.9-0.6-4-0.8-6.1-0.8
				c-2.9,0-5.5,0.5-7.7,1.4c-2.2,1-4.2,2.3-5.7,4c-1.6,1.7-2.7,3.8-3.5,6.1c-0.8,2.4-1.2,4.9-1.2,7.7c0,2.7,0.4,5.1,1.3,7.3
				c0.9,2.2,2.1,4.1,3.6,5.7c1.6,1.6,3.4,2.9,5.7,3.7c2.2,0.9,4.7,1.3,7.3,1.3c4.7,0,8.6-1.2,11.6-3.7s4.9-6.1,5.5-10.8h-9.4
				C-392.7,312.2-393.5,314-394.8,315.3z"/>
			<path class="st0" d="M-433.3,315.3c-1.3,1.3-3,2-5.4,2c-1.5,0-2.8-0.3-3.9-1s-1.9-1.6-2.5-2.6c-0.6-1.1-1.1-2.3-1.3-3.6
				c-0.3-1.3-0.4-2.6-0.4-3.9s0.1-2.7,0.4-4c0.3-1.4,0.7-2.6,1.4-3.7c0.7-1.1,1.5-2,2.6-2.8c1-0.7,2.3-1.1,3.9-1.1
				c4.2,0,6.6,2,7.2,6.1h9.5c-0.1-2.3-0.7-4.3-1.7-5.9c-1-1.7-2.2-3.1-3.7-4.2s-3.3-2-5.2-2.5c-1.9-0.6-4-0.8-6.1-0.8
				c-2.9,0-5.5,0.5-7.7,1.4c-2.2,1-4.2,2.3-5.7,4s-2.7,3.8-3.5,6.1c-0.8,2.4-1.2,4.9-1.2,7.7c0,2.7,0.4,5.1,1.3,7.3
				c0.9,2.2,2.1,4.1,3.6,5.7c1.6,1.6,3.4,2.9,5.7,3.7c2.2,0.9,4.7,1.3,7.3,1.3c4.7,0,8.6-1.2,11.6-3.7s4.8-6.1,5.5-10.8h-9.4
				C-431.3,312.2-432.1,314-433.3,315.3z"/>
			<path class="st0" d="M-485.4,275.1l-18.5,48.9h10.4l4-10.9h18.9l3.9,10.9h10.6l-18.3-48.9H-485.4z M-486.5,305.1l6.6-18l6.5,18
				H-486.5z"/>
			<path class="st0" d="M-521.8,292.1l3.3-10.4l-10.6-2.3l-2.4-10.6l-10.4,3.3l-7.4-8l-7.3,8.1l-10.4-3.3l-2.3,10.6l-10.6,2.4
				l3.3,10.4l-8,7.4l8.1,7.3l-3.3,10.4l10.6,2.3l2.4,10.6l10.4-3.3l7.4,8l7.3-8.1l10.4,3.3l2.3-10.6l10.6-2.4l-3.3-10.4l8-7.4
				L-521.8,292.1z M-549.2,324.1c-13.5,0-24.5-11-24.5-24.5s11-24.5,24.5-24.5s24.5,11,24.5,24.5
				C-524.6,313.1-535.7,324.1-549.2,324.1z"/>
			<path class="st0" d="M-564.7,284.2c-8.5,8.5-8.5,22.4,0,31s22.4,8.5,31,0c8.5-8.5,8.5-22.4,0-31
				C-542.2,275.7-556.1,275.7-564.7,284.2z"/>
			<path class="st0" d="M-115.6,294.1c-1.4-2-3.3-3.5-5.5-4.7s-4.9-1.8-7.9-1.8c-2.7,0-5.1,0.5-7.4,1.4c-2.2,1-4.1,2.3-5.7,3.9
				c-1.6,1.7-2.8,3.6-3.7,5.9s-1.3,4.8-1.3,7.4c0,2.7,0.4,5.3,1.3,7.5c0.8,2.3,2,4.2,3.6,5.9c1.6,1.6,3.4,2.9,5.7,3.8
				c2.2,0.9,4.8,1.3,7.5,1.3c4,0,7.4-0.9,10.3-2.7c2.8-1.8,4.9-4.9,6.3-9.1h-8.6c-0.3,1.1-1.2,2.1-2.6,3.1s-3.1,1.5-5.1,1.5
				c-2.7,0-4.8-0.7-6.3-2.1l0,0c-1.5-1.4-2.3-3.7-2.4-6.9h25.6c0.2-2.7,0-5.4-0.7-7.9C-113.2,298.3-114.2,296-115.6,294.1z
				 M-137.4,302.5c0-0.7,0.2-1.5,0.4-2.3c0.2-0.9,0.7-1.7,1.3-2.5s1.4-1.4,2.5-1.9c1-0.5,2.3-0.8,3.9-0.8c2.4,0,4.2,0.6,5.3,1.9
				c1.2,1.3,2,3.2,2.4,5.6L-137.4,302.5L-137.4,302.5z"/>
			<path class="st0" d="M-196,278h-9.7v10.6h-5.9v6.5h5.9V316c0,1.8,0.3,3.2,0.9,4.3c0.6,1.1,1.4,1.9,2.4,2.5s2.2,1,3.6,1.2
				c1.3,0.2,2.8,0.3,4.3,0.3c1,0,1.9,0,2.9-0.1c1,0,1.9-0.1,2.7-0.3v-7.5c-0.5,0.1-0.9,0.2-1.4,0.2c-0.5,0.1-1,0.1-1.6,0.1
				c-1.6,0-2.7-0.3-3.3-0.8c-0.5-0.5-0.8-1.6-0.8-3.3v-17.5h7.1v-6.5h-7.1L-196,278L-196,278z"/>
			<path class="st0" d="M-153,291.6c-1-1.3-2.3-2.2-3.9-2.9c-1.7-0.7-3.8-1.1-6.4-1.1c-1.8,0-3.7,0.5-5.6,1.4
				c-1.9,0.9-3.5,2.4-4.7,4.5h-0.2v-18.4h-9.3v49h9.3v-18.6c0-3.6,0.6-6.2,1.8-7.8c1.2-1.6,3.1-2.4,5.8-2.4c2.3,0,4,0.7,4.9,2.2
				c0.9,1.4,1.4,3.6,1.4,6.5v20h9.7v-21.8c0-2.2-0.2-4.2-0.6-6C-151.4,294.4-152.1,292.9-153,291.6z"/>
			<path class="st0" d="M-87.8,287.6c-1.2,0-2.4,0.2-3.6,0.6c-1.1,0.4-2.2,0.9-3.2,1.5c-1,0.7-1.9,1.5-2.7,2.4
				c-0.8,0.9-1.4,2-1.9,3.1h-0.1v-6.6h-9.3V324h9.7v-16c0-1.6,0.2-3.1,0.5-4.5s0.9-2.6,1.6-3.6c0.8-1,1.7-1.8,3-2.4
				c1.2-0.6,2.7-0.9,4.5-0.9c0.6,0,1.2,0,1.8,0.1c0.6,0.1,1.2,0.1,1.6,0.2V288C-86.4,287.8-87.1,287.6-87.8,287.6z"/>
			<path class="st0" d="M-214.5,315.7v-18.4c0-2.1-0.5-3.9-1.4-5.2c-1-1.3-2.2-2.3-3.7-3.1c-1.5-0.7-3.2-1.2-5-1.5s-3.6-0.4-5.4-0.4
				c-2,0-3.9,0.2-5.9,0.6c-1.9,0.4-3.7,1-5.2,2c-1.5,0.9-2.8,2.1-3.8,3.6s-1.6,3.4-1.7,5.7h9.7c0.2-1.9,0.8-3.3,1.9-4.1
				c1.1-0.8,2.6-1.2,4.5-1.2c0.9,0,1.7,0.1,2.4,0.2c0.8,0.1,1.4,0.3,2,0.7c0.6,0.3,1,0.8,1.4,1.4c0.3,0.6,0.5,1.4,0.5,2.5
				c0,1-0.3,1.8-0.9,2.3c-0.6,0.5-1.5,0.9-2.6,1.2c-1.1,0.3-2.4,0.5-3.8,0.6c-1.4,0.1-2.9,0.3-4.3,0.5c-1.5,0.2-2.9,0.5-4.4,0.9
				c-1.4,0.4-2.7,1-3.8,1.7c-1.1,0.8-2,1.8-2.7,3.1c-0.7,1.3-1.1,3-1.1,5c0,1.8,0.3,3.4,0.9,4.7c0.6,1.3,1.5,2.4,2.6,3.3
				s2.4,1.5,3.8,1.9c1.5,0.4,3,0.6,4.7,0.6c2.2,0,4.3-0.3,6.4-1c2.1-0.6,3.9-1.8,5.5-3.4c0,0.6,0.1,1.2,0.2,1.8
				c0.1,0.6,0.3,1.1,0.4,1.7h9.9c-0.5-0.7-0.8-1.8-1-3.3C-214.4,318.8-214.5,317.3-214.5,315.7z M-224.3,309.9
				c0,0.5-0.1,1.3-0.2,2.2c-0.1,0.9-0.4,1.8-0.9,2.7c-0.5,0.9-1.3,1.7-2.3,2.3c-1.1,0.6-2.5,1-4.5,1c-0.8,0-1.5-0.1-2.3-0.2
				c-0.7-0.1-1.4-0.4-1.9-0.7c-0.6-0.3-1-0.8-1.3-1.4s-0.5-1.3-0.5-2.2c0-0.9,0.2-1.7,0.5-2.3c0.3-0.6,0.7-1.1,1.3-1.5
				c0.5-0.4,1.1-0.7,1.9-0.9c0.7-0.2,1.4-0.4,2.2-0.5s1.6-0.3,2.3-0.3c0.8-0.1,1.5-0.2,2.2-0.3c0.7-0.1,1.4-0.3,2-0.5
				s1.1-0.5,1.5-0.9V309.9z"/>
			<polygon class="st0" points="-292.9,275.1 -300.9,308.8 -301.1,308.8 -309.4,275.1 -319.5,275.1 -328,308.4 -328.2,308.4 
				-335.9,275.1 -346.7,275.1 -333.7,324 -322.8,324 -314.6,290.7 -314.5,290.7 -306.2,324 -295.5,324 -282.4,275.1 			"/>
			<path class="st0" d="M-356.9,306.7c0,3.6-0.6,6.2-1.7,7.8c-1.1,1.6-3,2.4-5.5,2.4c-2.2,0-3.8-0.7-4.7-2.2
				c-0.9-1.4-1.3-3.6-1.3-6.6v-20h-9.3v21.8c0,2.2,0.2,4.2,0.6,6s1,3.3,1.9,4.6c0.9,1.3,2.2,2.2,3.8,2.9c1.6,0.7,3.6,1,6.1,1
				c2,0,3.9-0.5,5.8-1.4c1.8-0.9,3.2-2.3,4.4-4.1v4.6h9.3V288h-9.3L-356.9,306.7L-356.9,306.7z"/>
			<path class="st0" d="M-254.5,294.1c-1.4-2-3.3-3.5-5.5-4.7s-4.9-1.8-7.9-1.8c-2.7,0-5.2,0.5-7.4,1.4c-2.2,1-4.1,2.3-5.7,3.9
				c-1.6,1.7-2.8,3.6-3.7,5.9c-0.9,2.3-1.3,4.8-1.3,7.4c0,2.7,0.4,5.3,1.3,7.5c0.8,2.3,2,4.2,3.6,5.9c1.6,1.6,3.4,2.9,5.7,3.8
				c2.2,0.9,4.8,1.3,7.5,1.3c4,0,7.4-0.9,10.3-2.7c2.8-1.8,4.9-4.9,6.3-9.1h-8.6c-0.3,1.1-1.2,2.1-2.6,3.1s-3.1,1.5-5.1,1.5
				c-2.7,0-4.8-0.7-6.3-2.1l0,0c-1.5-1.4-2.3-3.7-2.4-6.9h25.6c0.2-2.7-0.1-5.4-0.7-7.9C-252,298.3-253,296-254.5,294.1z
				 M-276.2,302.5c0-0.7,0.2-1.5,0.4-2.3c0.3-0.9,0.7-1.7,1.3-2.5c0.6-0.8,1.4-1.4,2.5-1.9c1-0.5,2.3-0.8,3.9-0.8
				c2.4,0,4.2,0.6,5.3,1.9c1.2,1.3,2,3.2,2.4,5.6L-276.2,302.5L-276.2,302.5z"/>
		</g>
	</g>
</g>
</svg>
