<?xml version="1.0" encoding="utf-8"?>
<!-- Generator: Adobe Illustrator 23.0.2, SVG Export Plug-In . SVG Version: 6.00 Build 0)  -->
<svg version="1.1"
	 id="Layer_1" xmlns:cc="http://creativecommons.org/ns#" xmlns:dc="http://purl.org/dc/elements/1.1/" xmlns:inkscape="http://www.inkscape.org/namespaces/inkscape" xmlns:rdf="http://www.w3.org/1999/02/22-rdf-syntax-ns#" xmlns:sodipodi="http://sodipodi.sourceforge.net/DTD/sodipodi-0.dtd" xmlns:svg="http://www.w3.org/2000/svg"
	 xmlns="http://www.w3.org/2000/svg" xmlns:xlink="http://www.w3.org/1999/xlink" x="0px" y="0px" viewBox="0 0 650 500"
	 style="enable-background:new 0 0 650 500;" xml:space="preserve">
<style type="text/css">
	.st0{fill:#F37024;}
</style>
<sodipodi:namedview  bordercolor="#666666" borderopacity="1" gridtolerance="10" guidetolerance="10" id="namedview48" inkscape:current-layer="Layer_1" inkscape:cx="250" inkscape:cy="125" inkscape:pageopacity="0" inkscape:pageshadow="2" inkscape:window-height="1719" inkscape:window-maximized="1" inkscape:window-width="2736" inkscape:window-x="-13" inkscape:window-y="-13" inkscape:zoom="0.944" objecttolerance="10" pagecolor="#ffffff" showgrid="false">
	</sodipodi:namedview>
<title  id="title4193">AccuWeather</title>
<g id="g3990_1_" transform="translate(434.8402,742.4554)">
</g>
<g id="g3994_1_" transform="translate(450.2328,752.0917)">
</g>
<g id="g3998_1_" transform="translate(463.374,748.4684)">
</g>
<g id="g4002_1_" transform="translate(476.4785,755.0357)">
</g>
<g id="g4006_1_" transform="translate(481.7784,759.8289)">
</g>
<g id="g4010_1_" transform="translate(499.5084,752.0917)">
</g>
<g id="g4014_1_" transform="translate(508.3068,755.0357)">
</g>
<g id="g4018_1_" transform="translate(387.8889,752.9403)">
</g>
<g id="g4022_1_" transform="translate(401.5725,752.9403)">
</g>
<g id="g4026_1_" transform="translate(370.8601,749.1707)">
</g>
<g id="g4030_1_" transform="translate(416.8361,755.2062)">
</g>
<g id="layer1" transform="translate(585.21434,-58.010926)">
	<g id="g44">
		<g id="g42">
			<path id="path16" inkscape:connector-curvature="0" class="st0" d="M-336.8,486.9c-1.7,1.7-3.8,2.5-6.9,2.5c-1.9,0-3.6-0.4-5-1.3
				c-1.3-0.9-2.4-2-3.2-3.3c-0.8-1.4-1.4-2.9-1.7-4.6c-0.4-1.7-0.5-3.3-0.5-5c0-1.7,0.1-3.4,0.5-5.1c0.4-1.8,0.9-3.3,1.8-4.7
				s1.9-2.5,3.3-3.6c1.3-0.9,2.9-1.4,5-1.4c5.4,0,8.4,2.5,9.2,7.8h12.1c-0.1-2.9-0.9-5.5-2.2-7.5c-1.3-2.2-2.8-3.9-4.7-5.4
				c-1.9-1.4-4.2-2.5-6.6-3.2c-2.4-0.8-5.1-1-7.8-1c-3.7,0-7,0.6-9.8,1.8c-2.8,1.3-5.4,2.9-7.3,5.1c-2,2.2-3.4,4.8-4.5,7.8
				c-1,3.1-1.5,6.2-1.5,9.8c0,3.4,0.5,6.5,1.7,9.3c1.2,2.8,2.7,5.2,4.6,7.3c2,2,4.3,3.7,7.3,4.7c2.8,1.1,6,1.7,9.3,1.7
				c6,0,11-1.5,14.8-4.7c3.8-3.2,6.2-7.8,7-13.8h-12C-334.1,483-335.1,485.2-336.8,486.9L-336.8,486.9z"/>
			<path id="path18" inkscape:connector-curvature="0" class="st0" d="M-385.8,486.9c-1.7,1.7-3.8,2.5-6.9,2.5c-1.9,0-3.6-0.4-5-1.3
				c-1.4-0.9-2.4-2-3.2-3.3c-0.8-1.4-1.4-2.9-1.7-4.6c-0.4-1.7-0.5-3.3-0.5-5c0-1.7,0.1-3.4,0.5-5.1c0.4-1.8,0.9-3.3,1.8-4.7
				s1.9-2.5,3.3-3.6c1.3-0.9,2.9-1.4,5-1.4c5.4,0,8.4,2.5,9.2,7.8h12.1c-0.1-2.9-0.9-5.5-2.2-7.5c-1.3-2.2-2.8-3.9-4.7-5.4
				c-1.9-1.4-4.2-2.5-6.6-3.2c-2.4-0.8-5.1-1-7.8-1c-3.7,0-7,0.6-9.8,1.8c-2.8,1.3-5.4,2.9-7.3,5.1s-3.4,4.8-4.5,7.8
				c-1,3.1-1.5,6.2-1.5,9.8c0,3.4,0.5,6.5,1.7,9.3c1.2,2.8,2.7,5.2,4.6,7.3c2,2,4.3,3.7,7.3,4.7c2.8,1.1,6,1.7,9.3,1.7
				c6,0,11-1.5,14.8-4.7c3.8-3.2,6.1-7.8,7-13.8h-12C-383.3,483-384.3,485.2-385.8,486.9L-385.8,486.9z"/>
			<path id="path20" inkscape:connector-curvature="0" class="st0" d="M-452.2,435.7l-23.6,62.3h13.3l5.1-13.9h24.1l5,13.9h13.5
				l-23.3-62.3H-452.2z M-453.6,473.9l8.4-22.9l8.3,22.9H-453.6z"/>
			<path id="path22" inkscape:connector-curvature="0" class="st0" d="M-498.6,457.3l4.2-13.3l-13.5-2.9l-3.1-13.5l-13.3,4.2
				l-9.4-10.2l-9.3,10.3l-13.3-4.2l-2.9,13.5l-13.5,3.1l4.2,13.3l-10.2,9.4l10.3,9.3l-4.2,13.3l13.5,2.9l3.1,13.5l13.3-4.2l9.4,10.2
				l9.3-10.3l13.3,4.2l2.9-13.5l13.5-3.1l-4.2-13.3l10.2-9.4L-498.6,457.3z M-533.5,498.1c-17.2,0-31.2-14-31.2-31.2
				c0-17.2,14-31.2,31.2-31.2s31.2,14,31.2,31.2C-502.2,484.1-516.3,498.1-533.5,498.1z"/>
			<path id="path24" inkscape:connector-curvature="0" class="st0" d="M-553.2,447.3c-10.8,10.8-10.8,28.5,0,39.5s28.5,10.8,39.5,0
				c10.8-10.8,10.8-28.5,0-39.5C-524.6,436.4-542.3,436.4-553.2,447.3z"/>
			<path id="path26" inkscape:connector-curvature="0" class="st0" d="M18.9,459.9c-1.8-2.5-4.2-4.5-7-6s-6.2-2.3-10.1-2.3
				c-3.4,0-6.5,0.6-9.4,1.8c-2.8,1.3-5.2,2.9-7.3,5c-2,2.2-3.6,4.6-4.7,7.5s-1.7,6.1-1.7,9.4c0,3.4,0.5,6.8,1.7,9.6
				c1,2.9,2.5,5.4,4.6,7.5c2,2,4.3,3.7,7.3,4.8c2.8,1.1,6.1,1.7,9.6,1.7c5.1,0,9.4-1.1,13.1-3.4c3.6-2.3,6.2-6.2,8-11.6H12
				c-0.4,1.4-1.5,2.7-3.3,3.9c-1.8,1.3-3.9,1.9-6.5,1.9c-3.4,0-6.1-0.9-8-2.7l0,0c-1.9-1.8-2.9-4.7-3.1-8.8h32.6
				c0.3-3.4,0-6.9-0.9-10.1C22,465.2,20.7,462.3,18.9,459.9L18.9,459.9z M-8.8,470.6c0-0.9,0.3-1.9,0.5-2.9c0.3-1.1,0.9-2.2,1.7-3.2
				s1.8-1.8,3.2-2.4c1.3-0.6,2.9-1,5-1c3.1,0,5.4,0.8,6.8,2.4c1.5,1.7,2.5,4.1,3.1,7.1H-8.8L-8.8,470.6z"/>
			<path id="path28" inkscape:connector-curvature="0" class="st0" d="M-83.5,439.4h-12.4v13.5h-7.5v8.3h7.5v26.6
				c0,2.3,0.4,4.1,1.1,5.5c0.8,1.4,1.8,2.4,3.1,3.2c1.3,0.8,2.8,1.3,4.6,1.5c1.7,0.3,3.6,0.4,5.5,0.4c1.3,0,2.4,0,3.7-0.1
				c1.3,0,2.4-0.1,3.4-0.4v-9.6c-0.6,0.1-1.1,0.3-1.8,0.3c-0.6,0.1-1.3,0.1-2,0.1c-2,0-3.4-0.4-4.2-1c-0.6-0.6-1-2-1-4.2v-22.3h9
				v-8.3h-9L-83.5,439.4z"/>
			<path id="path30" inkscape:connector-curvature="0" class="st0" d="M-28.7,456.7c-1.3-1.7-2.9-2.8-5-3.7
				c-2.2-0.9-4.8-1.4-8.2-1.4c-2.3,0-4.7,0.6-7.1,1.8c-2.4,1.1-4.5,3.1-6,5.7h-0.3v-23.4h-11.8v62.4h11.8v-23.7
				c0-4.6,0.8-7.9,2.3-9.9s3.9-3.1,7.4-3.1c2.9,0,5.1,0.9,6.2,2.8c1.1,1.8,1.8,4.6,1.8,8.3V498h12.4v-27.8c0-2.8-0.3-5.4-0.8-7.6
				C-26.7,460.3-27.6,458.4-28.7,456.7L-28.7,456.7z"/>
			<path id="path32" inkscape:connector-curvature="0" class="st0" d="M54.4,451.6c-1.5,0-3.1,0.3-4.6,0.8c-1.4,0.5-2.8,1.1-4.1,1.9
				c-1.3,0.9-2.4,1.9-3.4,3.1c-1,1.1-1.8,2.5-2.4,3.9h-0.1v-8.4H27.9V498h12.4v-20.4c0-2,0.3-3.9,0.6-5.7c0.4-1.8,1.1-3.3,2-4.6
				c1-1.3,2.2-2.3,3.8-3.1c1.5-0.8,3.4-1.1,5.7-1.1c0.8,0,1.5,0,2.3,0.1s1.5,0.1,2,0.3v-11.3C56.1,451.9,55.3,451.6,54.4,451.6z"/>
			<path id="path34" inkscape:connector-curvature="0" class="st0" d="M-107.1,487.4V464c0-2.7-0.6-5-1.8-6.6
				c-1.3-1.7-2.8-2.9-4.7-3.9c-1.9-0.9-4.1-1.5-6.4-1.9s-4.6-0.5-6.9-0.5c-2.5,0-5,0.3-7.5,0.8c-2.4,0.5-4.7,1.3-6.6,2.5
				c-1.9,1.1-3.6,2.7-4.8,4.6c-1.3,1.9-2,4.3-2.2,7.3h12.4c0.3-2.4,1-4.2,2.4-5.2s3.3-1.5,5.7-1.5c1.1,0,2.2,0.1,3.1,0.3
				c1,0.1,1.8,0.4,2.5,0.9c0.8,0.4,1.3,1,1.8,1.8c0.4,0.8,0.6,1.8,0.6,3.2c0,1.3-0.4,2.3-1.1,2.9c-0.8,0.6-1.9,1.1-3.3,1.5
				s-3.1,0.6-4.8,0.8c-1.8,0.1-3.7,0.4-5.5,0.6c-1.9,0.3-3.7,0.6-5.6,1.1c-1.8,0.5-3.4,1.3-4.8,2.2c-1.4,1-2.5,2.3-3.4,3.9
				c-0.9,1.7-1.4,3.8-1.4,6.4c0,2.3,0.4,4.3,1.1,6c0.8,1.7,1.9,3.1,3.3,4.2c1.4,1.1,3.1,1.9,4.8,2.4c1.9,0.5,3.8,0.8,6,0.8
				c2.8,0,5.5-0.4,8.2-1.3c2.7-0.8,5-2.3,7-4.3c0,0.8,0.1,1.5,0.3,2.3c0.1,0.8,0.4,1.4,0.5,2.2h12.6c-0.6-0.9-1-2.3-1.3-4.2
				C-106.9,491.4-107.1,489.4-107.1,487.4L-107.1,487.4z M-119.5,480c0,0.6-0.1,1.7-0.3,2.8c-0.1,1.1-0.5,2.3-1.1,3.4
				c-0.6,1.1-1.7,2.2-2.9,2.9c-1.4,0.8-3.2,1.3-5.7,1.3c-1,0-1.9-0.1-2.9-0.3c-0.9-0.1-1.8-0.5-2.4-0.9c-0.8-0.4-1.3-1-1.7-1.8
				c-0.4-0.8-0.6-1.7-0.6-2.8s0.3-2.2,0.6-2.9c0.4-0.8,0.9-1.4,1.7-1.9c0.6-0.5,1.4-0.9,2.4-1.1c0.9-0.3,1.8-0.5,2.8-0.6
				s2-0.4,2.9-0.4c1-0.1,1.9-0.3,2.8-0.4s1.8-0.4,2.5-0.6c0.8-0.3,1.4-0.6,1.9-1.1L-119.5,480L-119.5,480z"/>
			<polygon id="polygon36" class="st0" points="-228,435.7 -240.8,435.7 -251.7,478.1 -251.9,478.1 -261.7,435.7 -275.5,435.7 
				-258.9,498 -245,498 -234.6,455.6 -234.5,455.6 -223.9,498 -210.3,498 -193.6,435.7 -206.9,435.7 -217.1,478.6 -217.4,478.6 			
				"/>
			<path id="path38" inkscape:connector-curvature="0" class="st0" d="M-288.5,475.9c0,4.6-0.8,7.9-2.2,9.9c-1.4,2-3.8,3.1-7,3.1
				c-2.8,0-4.8-0.9-6-2.8c-1.1-1.8-1.7-4.6-1.7-8.4v-25.5h-11.8V480c0,2.8,0.3,5.4,0.8,7.6c0.5,2.3,1.3,4.2,2.4,5.9
				c1.1,1.7,2.8,2.8,4.8,3.7s4.6,1.3,7.8,1.3c2.5,0,5-0.6,7.4-1.8c2.3-1.1,4.1-2.9,5.6-5.2v5.9h11.8v-45.2h-11.8L-288.5,475.9z"/>
			<path id="path40" inkscape:connector-curvature="0" class="st0" d="M-158,459.9c-1.8-2.5-4.2-4.5-7-6s-6.2-2.3-10.1-2.3
				c-3.4,0-6.6,0.6-9.4,1.8c-2.8,1.3-5.2,2.9-7.3,5c-2,2.2-3.6,4.6-4.7,7.5c-1.1,2.9-1.7,6.1-1.7,9.4c0,3.4,0.5,6.8,1.7,9.6
				c1,2.9,2.5,5.4,4.6,7.5c2,2,4.3,3.7,7.3,4.8c2.8,1.1,6.1,1.7,9.6,1.7c5.1,0,9.4-1.1,13.1-3.4c3.6-2.3,6.2-6.2,8-11.6h-11
				c-0.4,1.4-1.5,2.7-3.3,3.9c-1.8,1.3-3.9,1.9-6.5,1.9c-3.4,0-6.1-0.9-8-2.7l0,0c-1.9-1.8-2.9-4.7-3.1-8.8h32.6
				c0.3-3.4-0.1-6.9-0.9-10.1C-154.8,465.2-156.1,462.3-158,459.9L-158,459.9z M-185.7,470.6c0-0.9,0.3-1.9,0.5-2.9
				c0.4-1.1,0.9-2.2,1.7-3.2s1.8-1.8,3.2-2.4c1.3-0.6,2.9-1,5-1c3.1,0,5.4,0.8,6.8,2.4c1.5,1.7,2.5,4.1,3.1,7.1H-185.7L-185.7,470.6
				z"/>
		</g>
	</g>
</g>
</svg>
