<?xml version="1.0" encoding="utf-8"?>
<!-- Generator: Adobe Illustrator 23.0.2, SVG Export Plug-In . SVG Version: 6.00 Build 0)  -->
<svg version="1.1"
	 id="Layer_1" xmlns:cc="http://creativecommons.org/ns#" xmlns:dc="http://purl.org/dc/elements/1.1/" xmlns:inkscape="http://www.inkscape.org/namespaces/inkscape" xmlns:rdf="http://www.w3.org/1999/02/22-rdf-syntax-ns#" xmlns:sodipodi="http://sodipodi.sourceforge.net/DTD/sodipodi-0.dtd" xmlns:svg="http://www.w3.org/2000/svg"
	 xmlns="http://www.w3.org/2000/svg" xmlns:xlink="http://www.w3.org/1999/xlink" x="0px" y="0px" viewBox="0 0 650 500"
	 style="enable-background:new 0 0 650 500;" xml:space="preserve">
<style type="text/css">
	.st0{fill:#F2F2F2;}
</style>
<sodipodi:namedview  bordercolor="#666666" borderopacity="1" gridtolerance="10" guidetolerance="10" id="namedview48" inkscape:current-layer="Layer_1" inkscape:cx="270.74143" inkscape:cy="249.41938" inkscape:pagecheckerboard="false" inkscape:pageopacity="0" inkscape:pageshadow="2" inkscape:window-height="1719" inkscape:window-maximized="1" inkscape:window-width="2736" inkscape:window-x="-13" inkscape:window-y="-13" inkscape:zoom="2.6700352" objecttolerance="10" pagecolor="#003366" showgrid="false">
	</sodipodi:namedview>
<title  id="title4193">AccuWeather</title>
<g id="g3990_1_" transform="translate(434.8402,492.4554)">
</g>
<g id="g3994_1_" transform="translate(450.2328,502.0917)">
</g>
<g id="g3998_1_" transform="translate(463.374,498.4684)">
</g>
<g id="g4002_1_" transform="translate(476.4785,505.0357)">
</g>
<g id="g4006_1_" transform="translate(481.7784,509.8289)">
</g>
<g id="g4010_1_" transform="translate(499.5084,502.0917)">
</g>
<g id="g4014_1_" transform="translate(508.3068,505.0357)">
</g>
<g id="g4018_1_" transform="translate(387.8889,502.9403)">
</g>
<g id="g4022_1_" transform="translate(401.5725,502.9403)">
</g>
<g id="g4026_1_" transform="translate(370.8601,499.1707)">
</g>
<g id="g4030_1_" transform="translate(416.8361,505.2062)">
</g>
<g id="layer1" transform="translate(585.21434,-174.53635)">
	<g id="g44">
		<g id="g42">
			<path id="path16" class="st0" d="M-337.5,613.7c-1.7,1.7-3.9,2.6-6.9,2.6c-1.9,0-3.6-0.4-5-1.3c-1.3-0.9-2.4-2.1-3.2-3.3
				c-0.8-1.4-1.4-3-1.7-4.6c-0.4-1.7-0.5-3.3-0.5-5s0.1-3.5,0.5-5.1c0.4-1.8,0.9-3.3,1.8-4.8c0.9-1.4,1.9-2.6,3.3-3.6
				c1.3-0.9,3-1.4,5-1.4c5.4,0,8.5,2.6,9.3,7.8h12.2c-0.1-3-0.9-5.5-2.2-7.6c-1.3-2.2-2.8-4-4.8-5.4c-2-1.4-4.2-2.6-6.7-3.2
				c-2.4-0.8-5.1-1-7.8-1c-3.7,0-7.1,0.6-9.9,1.8c-2.8,1.3-5.4,3-7.3,5.1c-2.1,2.2-3.5,4.9-4.5,7.8c-1,3.1-1.5,6.3-1.5,9.9
				c0,3.5,0.5,6.6,1.7,9.4s2.7,5.3,4.6,7.3c2.1,2.1,4.4,3.7,7.3,4.8c2.8,1.2,6,1.7,9.4,1.7c6,0,11.1-1.5,14.9-4.8
				c3.9-3.2,6.3-7.8,7.1-13.9h-12.1C-334.8,609.7-335.8,612-337.5,613.7z"/>
			<path id="path18" class="st0" d="M-387,613.7c-1.7,1.7-3.9,2.6-6.9,2.6c-1.9,0-3.6-0.4-5-1.3c-1.4-0.9-2.4-2.1-3.2-3.3
				c-0.8-1.4-1.4-3-1.7-4.6c-0.4-1.7-0.5-3.3-0.5-5s0.1-3.5,0.5-5.1c0.4-1.8,0.9-3.3,1.8-4.8s1.9-2.6,3.3-3.6c1.3-0.9,3-1.4,5-1.4
				c5.4,0,8.5,2.6,9.3,7.8h12.2c-0.1-3-0.9-5.5-2.2-7.6c-1.3-2.2-2.8-4-4.8-5.4c-2-1.4-4.2-2.6-6.7-3.2c-2.4-0.8-5.1-1-7.8-1
				c-3.7,0-7.1,0.6-9.9,1.8c-2.8,1.3-5.4,3-7.3,5.1c-1.9,2.2-3.5,4.9-4.5,7.8c-1,3.1-1.5,6.3-1.5,9.9c0,3.5,0.5,6.6,1.7,9.4
				s2.7,5.3,4.6,7.3c2.1,2.1,4.4,3.7,7.3,4.8c2.8,1.2,6,1.7,9.4,1.7c6,0,11.1-1.5,14.9-4.8c3.9-3.2,6.2-7.8,7.1-13.9H-384
				C-384.4,609.7-385.5,612-387,613.7z"/>
			<path id="path20" class="st0" d="M-454,562l-23.8,62.9h13.4l5.1-14h24.3l5,14h13.6l-23.5-62.9H-454z M-455.4,600.5l8.5-23.2
				l8.4,23.2H-455.4z"/>
			<path id="path22" class="st0" d="M-500.8,583.8l4.2-13.4l-13.6-3l-3.1-13.6l-13.4,4.2l-9.5-10.3l-9.4,10.4L-559,554l-3,13.6
				l-13.6,3.1l4.2,13.4l-10.3,9.5l10.4,9.4l-4.2,13.4l13.6,3l3.1,13.6l13.4-4.2l9.5,10.3l9.4-10.4l13.4,4.2l3-13.6l13.6-3.1
				l-4.2-13.4l10.3-9.5L-500.8,583.8z M-536.1,625c-17.4,0-31.5-14.1-31.5-31.5c0-17.4,14.1-31.5,31.5-31.5s31.5,14.1,31.5,31.5
				C-504.4,610.8-518.7,625-536.1,625z"/>
			<path id="path24" class="st0" d="M-556,573.7c-10.9,10.9-10.9,28.8,0,39.9c10.9,11.1,28.8,10.9,39.9,0
				c10.9-10.9,10.9-28.8,0-39.9C-527.1,562.7-544.9,562.7-556,573.7z"/>
			<path id="path26" class="st0" d="M21.6,586.4c-1.8-2.6-4.2-4.5-7.1-6c-2.8-1.5-6.3-2.3-10.2-2.3c-3.5,0-6.6,0.6-9.5,1.8
				c-2.8,1.3-5.3,3-7.3,5c-2.1,2.2-3.6,4.6-4.8,7.6c-1.2,3-1.7,6.2-1.7,9.5c0,3.5,0.5,6.8,1.7,9.6c1,3,2.6,5.4,4.6,7.6
				c2.1,2.1,4.4,3.7,7.3,4.9c2.8,1.2,6.2,1.7,9.6,1.7c5.1,0,9.5-1.2,13.2-3.5c3.6-2.3,6.3-6.3,8.1-11.7H14.6c-0.4,1.4-1.5,2.7-3.3,4
				s-4,1.9-6.6,1.9c-3.5,0-6.2-0.9-8.1-2.7l0,0c-1.9-1.8-3-4.8-3.1-8.9h32.9c0.3-3.5,0-6.9-0.9-10.2
				C24.7,591.8,23.4,588.8,21.6,586.4z M-6.4,597.2c0-0.9,0.3-1.9,0.5-3C-5.6,593-5,592-4.2,591s1.8-1.8,3.2-2.4c1.3-0.6,3-1,5-1
				c3.1,0,5.4,0.8,6.8,2.4c1.5,1.7,2.6,4.1,3.1,7.2H-6.4L-6.4,597.2z"/>
			<path id="path28" class="st0" d="M-81.8,565.7h-12.5v13.6h-7.6v8.4h7.6v26.9c0,2.3,0.4,4.1,1.2,5.5c0.8,1.4,1.8,2.4,3.1,3.2
				c1.3,0.8,2.8,1.3,4.6,1.5c1.7,0.3,3.6,0.4,5.5,0.4c1.3,0,2.4,0,3.7-0.1c1.3,0,2.4-0.1,3.5-0.4v-9.6c-0.6,0.1-1.2,0.3-1.8,0.3
				c-0.6,0.1-1.3,0.1-2.1,0.1c-2.1,0-3.5-0.4-4.2-1c-0.6-0.6-1-2.1-1-4.2v-22.5h9.1v-8.4h-9.1L-81.8,565.7L-81.8,565.7z"/>
			<path id="path30" class="st0" d="M-26.5,583.2c-1.3-1.7-3-2.8-5-3.7c-2.2-0.9-4.9-1.4-8.2-1.4c-2.3,0-4.8,0.6-7.2,1.8
				c-2.4,1.2-4.5,3.1-6,5.8h-0.3V562h-12v63h12v-23.9c0-4.6,0.8-8,2.3-10c1.5-2.1,4-3.1,7.5-3.1c3,0,5.1,0.9,6.3,2.8
				c1.2,1.8,1.8,4.6,1.8,8.4v25.7h12.5v-28c0-2.8-0.3-5.4-0.8-7.7C-24.5,586.8-25.4,584.9-26.5,583.2z"/>
			<path id="path32" class="st0" d="M57.3,578c-1.5,0-3.1,0.3-4.6,0.8c-1.4,0.5-2.8,1.2-4.1,1.9c-1.3,0.9-2.4,1.9-3.5,3.1
				c-1,1.2-1.8,2.6-2.4,4h-0.1v-8.5h-12v45.5h12.5v-20.6c0-2.1,0.3-4,0.6-5.8c0.4-1.8,1.2-3.3,2.1-4.6c1-1.3,2.2-2.3,3.9-3.1
				c1.5-0.8,3.5-1.2,5.8-1.2c0.8,0,1.5,0,2.3,0.1c0.8,0.1,1.5,0.1,2.1,0.3v-11.4C59.1,578.3,58.2,578,57.3,578z"/>
			<path id="path34" class="st0" d="M-105.6,614.2v-23.7c0-2.7-0.6-5-1.8-6.7c-1.3-1.7-2.8-3-4.8-4c-1.9-0.9-4.1-1.5-6.4-1.9
				c-2.3-0.4-4.6-0.5-6.9-0.5c-2.6,0-5,0.3-7.6,0.8c-2.4,0.5-4.8,1.3-6.7,2.6c-1.9,1.2-3.6,2.7-4.9,4.6c-1.3,1.9-2.1,4.4-2.2,7.3
				h12.5c0.3-2.4,1-4.2,2.4-5.3c1.4-1,3.3-1.5,5.8-1.5c1.2,0,2.2,0.1,3.1,0.3c1,0.1,1.8,0.4,2.6,0.9c0.8,0.4,1.3,1,1.8,1.8
				c0.4,0.8,0.6,1.8,0.6,3.2c0,1.3-0.4,2.3-1.2,3c-0.8,0.6-1.9,1.2-3.3,1.5s-3.1,0.6-4.9,0.8c-1.8,0.1-3.7,0.4-5.5,0.6
				c-1.9,0.3-3.7,0.6-5.7,1.2c-1.8,0.5-3.5,1.3-4.9,2.2c-1.4,1-2.6,2.3-3.5,4s-1.4,3.9-1.4,6.4c0,2.3,0.4,4.4,1.2,6
				c0.8,1.7,1.9,3.1,3.3,4.2c1.4,1.1,3.1,1.9,4.9,2.4c1.9,0.5,3.9,0.8,6,0.8c2.8,0,5.5-0.4,8.2-1.3c2.7-0.8,5-2.3,7.1-4.4
				c0,0.8,0.1,1.5,0.3,2.3c0.1,0.8,0.4,1.4,0.5,2.2h12.7c-0.6-0.9-1-2.3-1.3-4.2C-105.5,618.2-105.6,616.2-105.6,614.2z
				 M-118.2,606.7c0,0.6-0.1,1.7-0.3,2.8c-0.1,1.2-0.5,2.3-1.2,3.5c-0.6,1.2-1.7,2.2-3,3c-1.4,0.8-3.2,1.3-5.8,1.3
				c-1,0-1.9-0.1-3-0.3c-0.9-0.1-1.8-0.5-2.4-0.9c-0.8-0.4-1.3-1-1.7-1.8s-0.6-1.7-0.6-2.8c0-1.2,0.3-2.2,0.6-3
				c0.4-0.8,0.9-1.4,1.7-1.9c0.6-0.5,1.4-0.9,2.4-1.2c0.9-0.3,1.8-0.5,2.8-0.6c1-0.1,2.1-0.4,3-0.4c1-0.1,1.9-0.3,2.8-0.4
				c0.9-0.1,1.8-0.4,2.6-0.6s1.4-0.6,1.9-1.2v4.5H-118.2z"/>
			<polygon id="polygon36" class="st0" points="-206.4,562 -216.7,605.3 -217,605.3 -227.7,562 -240.7,562 -251.6,604.8 
				-251.8,604.8 -261.7,562 -275.6,562 -258.9,624.9 -244.9,624.9 -234.3,582 -234.2,582 -223.5,624.9 -209.8,624.9 -192.9,562 			
				"/>
			<path id="path38" class="st0" d="M-288.8,602.6c0,4.6-0.8,8-2.2,10c-1.4,2.1-3.9,3.1-7.1,3.1c-2.8,0-4.9-0.9-6-2.8
				c-1.2-1.8-1.7-4.6-1.7-8.5v-25.7h-12v28c0,2.8,0.3,5.4,0.8,7.7c0.5,2.3,1.3,4.2,2.4,5.9c1.2,1.7,2.8,2.8,4.9,3.7s4.6,1.3,7.8,1.3
				c2.6,0,5-0.6,7.5-1.8c2.3-1.2,4.1-3,5.7-5.3v5.9h12v-45.7h-12L-288.8,602.6L-288.8,602.6z"/>
			<path id="path40" class="st0" d="M-157.1,586.4c-1.8-2.6-4.2-4.5-7.1-6c-2.8-1.5-6.3-2.3-10.2-2.3c-3.5,0-6.7,0.6-9.5,1.8
				c-2.8,1.3-5.3,3-7.3,5c-2.1,2.2-3.6,4.6-4.8,7.6s-1.7,6.2-1.7,9.5c0,3.5,0.5,6.8,1.7,9.6c1,3,2.6,5.4,4.6,7.6
				c2.1,2.1,4.4,3.7,7.3,4.9c2.8,1.2,6.2,1.7,9.6,1.7c5.1,0,9.5-1.2,13.2-3.5c3.6-2.3,6.3-6.3,8.1-11.7H-164c-0.4,1.4-1.5,2.7-3.3,4
				s-4,1.9-6.6,1.9c-3.5,0-6.2-0.9-8.1-2.7l0,0c-1.9-1.8-3-4.8-3.1-8.9h32.9c0.3-3.5-0.1-6.9-0.9-10.2
				C-153.8,591.8-155.1,588.8-157.1,586.4z M-185,597.2c0-0.9,0.3-1.9,0.5-3c0.4-1.2,0.9-2.2,1.7-3.2s1.8-1.8,3.2-2.4
				c1.3-0.6,3-1,5-1c3.1,0,5.4,0.8,6.8,2.4c1.5,1.7,2.6,4.1,3.1,7.2H-185L-185,597.2z"/>
		</g>
	</g>
</g>
</svg>
