<?xml version="1.0" encoding="UTF-8" standalone="no"?>
<!-- Generator: Adobe Illustrator 21.1.0, SVG Export Plug-In . SVG Version: 6.00 Build 0)  -->

<svg
   xmlns:dc="http://purl.org/dc/elements/1.1/"
   xmlns:cc="http://creativecommons.org/ns#"
   xmlns:rdf="http://www.w3.org/1999/02/22-rdf-syntax-ns#"
   xmlns:svg="http://www.w3.org/2000/svg"
   xmlns="http://www.w3.org/2000/svg"
   xmlns:sodipodi="http://sodipodi.sourceforge.net/DTD/sodipodi-0.dtd"
   xmlns:inkscape="http://www.inkscape.org/namespaces/inkscape"
   version="1.1"
   id="Layer_1"
   x="0px"
   y="0px"
   viewBox="0 0 500 500"
   xml:space="preserve"
   sodipodi:docname="Accuweather-day.svg"
   width="500"
   height="500"
   inkscape:version="0.92.3 (2405546, 2018-03-11)"><metadata
   id="metadata52"><rdf:RDF><cc:Work
       rdf:about=""><dc:format>image/svg+xml</dc:format><dc:type
         rdf:resource="http://purl.org/dc/dcmitype/StillImage" /><dc:title>AccuWeather</dc:title></cc:Work></rdf:RDF></metadata><defs
   id="defs50" /><sodipodi:namedview
   pagecolor="#ffffff"
   bordercolor="#666666"
   borderopacity="1"
   objecttolerance="10"
   gridtolerance="10"
   guidetolerance="10"
   inkscape:pageopacity="0"
   inkscape:pageshadow="2"
   inkscape:window-width="2736"
   inkscape:window-height="1719"
   id="namedview48"
   showgrid="false"
   inkscape:zoom="0.944"
   inkscape:cx="250"
   inkscape:cy="125"
   inkscape:window-x="-13"
   inkscape:window-y="-13"
   inkscape:window-maximized="1"
   inkscape:current-layer="Layer_1" />
<style
   type="text/css"
   id="style2">
	.st0{fill:#F37024;}
</style>
<title
   id="title4193">AccuWeather</title>
<g
   id="g3990_1_"
   transform="translate(434.8402,742.4554)">
</g>
<g
   id="g3994_1_"
   transform="translate(450.2328,752.0917)">
</g>
<g
   id="g3998_1_"
   transform="translate(463.374,748.4684)">
</g>
<g
   id="g4002_1_"
   transform="translate(476.4785,755.0357)">
</g>
<g
   id="g4006_1_"
   transform="translate(481.7784,759.8289)">
</g>
<g
   id="g4010_1_"
   transform="translate(499.5084,752.0917)">
</g>
<g
   id="g4014_1_"
   transform="translate(508.3068,755.0357)">
</g>
<g
   id="g4018_1_"
   transform="translate(387.8889,752.9403)">
</g>
<g
   id="g4022_1_"
   transform="translate(401.5725,752.9403)">
</g>
<g
   id="g4026_1_"
   transform="translate(370.8601,749.1707)">
</g>
<g
   id="g4030_1_"
   transform="translate(416.8361,755.2062)">
</g>
<g
   id="layer1"
   transform="translate(585.21434,-58.010926)">
	<g
   id="g44">
		<g
   id="g42">
			<path
   class="st0"
   d="m -394.8,315.3 c -1.3,1.3 -3,2 -5.4,2 -1.5,0 -2.8,-0.3 -3.9,-1 -1,-0.7 -1.9,-1.6 -2.5,-2.6 -0.6,-1.1 -1.1,-2.3 -1.3,-3.6 -0.3,-1.3 -0.4,-2.6 -0.4,-3.9 0,-1.3 0.1,-2.7 0.4,-4 0.3,-1.4 0.7,-2.6 1.4,-3.7 0.7,-1.1 1.5,-2 2.6,-2.8 1,-0.7 2.3,-1.1 3.9,-1.1 4.2,0 6.6,2 7.2,6.1 h 9.5 c -0.1,-2.3 -0.7,-4.3 -1.7,-5.9 -1,-1.7 -2.2,-3.1 -3.7,-4.2 -1.5,-1.1 -3.3,-2 -5.2,-2.5 -1.9,-0.6 -4,-0.8 -6.1,-0.8 -2.9,0 -5.5,0.5 -7.7,1.4 -2.2,1 -4.2,2.3 -5.7,4 -1.6,1.7 -2.7,3.8 -3.5,6.1 -0.8,2.4 -1.2,4.9 -1.2,7.7 0,2.7 0.4,5.1 1.3,7.3 0.9,2.2 2.1,4.1 3.6,5.7 1.6,1.6 3.4,2.9 5.7,3.7 2.2,0.9 4.7,1.3 7.3,1.3 4.7,0 8.6,-1.2 11.6,-3.7 3,-2.5 4.9,-6.1 5.5,-10.8 h -9.4 c -0.2,2.2 -1,4 -2.3,5.3 z"
   id="path16"
   inkscape:connector-curvature="0"
   style="fill:#f37024" />
			<path
   class="st0"
   d="m -433.3,315.3 c -1.3,1.3 -3,2 -5.4,2 -1.5,0 -2.8,-0.3 -3.9,-1 -1.1,-0.7 -1.9,-1.6 -2.5,-2.6 -0.6,-1.1 -1.1,-2.3 -1.3,-3.6 -0.3,-1.3 -0.4,-2.6 -0.4,-3.9 0,-1.3 0.1,-2.7 0.4,-4 0.3,-1.4 0.7,-2.6 1.4,-3.7 0.7,-1.1 1.5,-2 2.6,-2.8 1,-0.7 2.3,-1.1 3.9,-1.1 4.2,0 6.6,2 7.2,6.1 h 9.5 c -0.1,-2.3 -0.7,-4.3 -1.7,-5.9 -1,-1.7 -2.2,-3.1 -3.7,-4.2 -1.5,-1.1 -3.3,-2 -5.2,-2.5 -1.9,-0.6 -4,-0.8 -6.1,-0.8 -2.9,0 -5.5,0.5 -7.7,1.4 -2.2,1 -4.2,2.3 -5.7,4 -1.5,1.7 -2.7,3.8 -3.5,6.1 -0.8,2.4 -1.2,4.9 -1.2,7.7 0,2.7 0.4,5.1 1.3,7.3 0.9,2.2 2.1,4.1 3.6,5.7 1.6,1.6 3.4,2.9 5.7,3.7 2.2,0.9 4.7,1.3 7.3,1.3 4.7,0 8.6,-1.2 11.6,-3.7 3,-2.5 4.8,-6.1 5.5,-10.8 h -9.4 c -0.3,2.2 -1.1,4 -2.3,5.3 z"
   id="path18"
   inkscape:connector-curvature="0"
   style="fill:#f37024" />
			<path
   class="st0"
   d="m -485.4,275.1 -18.5,48.9 h 10.4 l 4,-10.9 h 18.9 l 3.9,10.9 h 10.6 l -18.3,-48.9 z m -1.1,30 6.6,-18 6.5,18 z"
   id="path20"
   inkscape:connector-curvature="0"
   style="fill:#f37024" />
			<path
   class="st0"
   d="m -521.8,292.1 3.3,-10.4 -10.6,-2.3 -2.4,-10.6 -10.4,3.3 -7.4,-8 -7.3,8.1 -10.4,-3.3 -2.3,10.6 -10.6,2.4 3.3,10.4 -8,7.4 8.1,7.3 -3.3,10.4 10.6,2.3 2.4,10.6 10.4,-3.3 7.4,8 7.3,-8.1 10.4,3.3 2.3,-10.6 10.6,-2.4 -3.3,-10.4 8,-7.4 z m -27.4,32 c -13.5,0 -24.5,-11 -24.5,-24.5 0,-13.5 11,-24.5 24.5,-24.5 13.5,0 24.5,11 24.5,24.5 0.1,13.5 -11,24.5 -24.5,24.5 z"
   id="path22"
   inkscape:connector-curvature="0"
   style="fill:#f37024" />
			<path
   class="st0"
   d="m -564.7,284.2 c -8.5,8.5 -8.5,22.4 0,31 8.5,8.6 22.4,8.5 31,0 8.5,-8.5 8.5,-22.4 0,-31 -8.5,-8.5 -22.4,-8.5 -31,0 z"
   id="path24"
   inkscape:connector-curvature="0"
   style="fill:#f37024" />
			<path
   class="st0"
   d="m -115.6,294.1 c -1.4,-2 -3.3,-3.5 -5.5,-4.7 -2.2,-1.2 -4.9,-1.8 -7.9,-1.8 -2.7,0 -5.1,0.5 -7.4,1.4 -2.2,1 -4.1,2.3 -5.7,3.9 -1.6,1.7 -2.8,3.6 -3.7,5.9 -0.9,2.3 -1.3,4.8 -1.3,7.4 0,2.7 0.4,5.3 1.3,7.5 0.8,2.3 2,4.2 3.6,5.9 1.6,1.6 3.4,2.9 5.7,3.8 2.2,0.9 4.8,1.3 7.5,1.3 4,0 7.4,-0.9 10.3,-2.7 2.8,-1.8 4.9,-4.9 6.3,-9.1 h -8.6 c -0.3,1.1 -1.2,2.1 -2.6,3.1 -1.4,1 -3.1,1.5 -5.1,1.5 -2.7,0 -4.8,-0.7 -6.3,-2.1 v 0 c -1.5,-1.4 -2.3,-3.7 -2.4,-6.9 h 25.6 c 0.2,-2.7 0,-5.4 -0.7,-7.9 -0.7,-2.3 -1.7,-4.6 -3.1,-6.5 z m -21.8,8.4 c 0,-0.7 0.2,-1.5 0.4,-2.3 0.2,-0.9 0.7,-1.7 1.3,-2.5 0.6,-0.8 1.4,-1.4 2.5,-1.9 1,-0.5 2.3,-0.8 3.9,-0.8 2.4,0 4.2,0.6 5.3,1.9 1.2,1.3 2,3.2 2.4,5.6 z"
   id="path26"
   inkscape:connector-curvature="0"
   style="fill:#f37024" />
			<path
   class="st0"
   d="m -196,278 h -9.7 v 10.6 h -5.9 v 6.5 h 5.9 V 316 c 0,1.8 0.3,3.2 0.9,4.3 0.6,1.1 1.4,1.9 2.4,2.5 1,0.6 2.2,1 3.6,1.2 1.3,0.2 2.8,0.3 4.3,0.3 1,0 1.9,0 2.9,-0.1 1,0 1.9,-0.1 2.7,-0.3 v -7.5 c -0.5,0.1 -0.9,0.2 -1.4,0.2 -0.5,0.1 -1,0.1 -1.6,0.1 -1.6,0 -2.7,-0.3 -3.3,-0.8 -0.5,-0.5 -0.8,-1.6 -0.8,-3.3 v -17.5 h 7.1 v -6.5 h -7.1 z"
   id="path28"
   inkscape:connector-curvature="0"
   style="fill:#f37024" />
			<path
   class="st0"
   d="m -153,291.6 c -1,-1.3 -2.3,-2.2 -3.9,-2.9 -1.7,-0.7 -3.8,-1.1 -6.4,-1.1 -1.8,0 -3.7,0.5 -5.6,1.4 -1.9,0.9 -3.5,2.4 -4.7,4.5 h -0.2 v -18.4 h -9.3 v 49 h 9.3 v -18.6 c 0,-3.6 0.6,-6.2 1.8,-7.8 1.2,-1.6 3.1,-2.4 5.8,-2.4 2.3,0 4,0.7 4.9,2.2 0.9,1.4 1.4,3.6 1.4,6.5 v 20 h 9.7 v -21.8 c 0,-2.2 -0.2,-4.2 -0.6,-6 -0.6,-1.8 -1.3,-3.3 -2.2,-4.6 z"
   id="path30"
   inkscape:connector-curvature="0"
   style="fill:#f37024" />
			<path
   class="st0"
   d="m -87.8,287.6 c -1.2,0 -2.4,0.2 -3.6,0.6 -1.1,0.4 -2.2,0.9 -3.2,1.5 -1,0.7 -1.9,1.5 -2.7,2.4 -0.8,0.9 -1.4,2 -1.9,3.1 h -0.1 v -6.6 h -9.3 V 324 h 9.7 v -16 c 0,-1.6 0.2,-3.1 0.5,-4.5 0.3,-1.4 0.9,-2.6 1.6,-3.6 0.8,-1 1.7,-1.8 3,-2.4 1.2,-0.6 2.7,-0.9 4.5,-0.9 0.6,0 1.2,0 1.8,0.1 0.6,0.1 1.2,0.1 1.6,0.2 V 288 c -0.5,-0.2 -1.2,-0.4 -1.9,-0.4 z"
   id="path32"
   inkscape:connector-curvature="0"
   style="fill:#f37024" />
			<path
   class="st0"
   d="m -214.5,315.7 v -18.4 c 0,-2.1 -0.5,-3.9 -1.4,-5.2 -1,-1.3 -2.2,-2.3 -3.7,-3.1 -1.5,-0.7 -3.2,-1.2 -5,-1.5 -1.8,-0.3 -3.6,-0.4 -5.4,-0.4 -2,0 -3.9,0.2 -5.9,0.6 -1.9,0.4 -3.7,1 -5.2,2 -1.5,0.9 -2.8,2.1 -3.8,3.6 -1,1.5 -1.6,3.4 -1.7,5.7 h 9.7 c 0.2,-1.9 0.8,-3.3 1.9,-4.1 1.1,-0.8 2.6,-1.2 4.5,-1.2 0.9,0 1.7,0.1 2.4,0.2 0.8,0.1 1.4,0.3 2,0.7 0.6,0.3 1,0.8 1.4,1.4 0.3,0.6 0.5,1.4 0.5,2.5 0,1 -0.3,1.8 -0.9,2.3 -0.6,0.5 -1.5,0.9 -2.6,1.2 -1.1,0.3 -2.4,0.5 -3.8,0.6 -1.4,0.1 -2.9,0.3 -4.3,0.5 -1.5,0.2 -2.9,0.5 -4.4,0.9 -1.4,0.4 -2.7,1 -3.8,1.7 -1.1,0.8 -2,1.8 -2.7,3.1 -0.7,1.3 -1.1,3 -1.1,5 0,1.8 0.3,3.4 0.9,4.7 0.6,1.3 1.5,2.4 2.6,3.3 1.1,0.9 2.4,1.5 3.8,1.9 1.5,0.4 3,0.6 4.7,0.6 2.2,0 4.3,-0.3 6.4,-1 2.1,-0.6 3.9,-1.8 5.5,-3.4 0,0.6 0.1,1.2 0.2,1.8 0.1,0.6 0.3,1.1 0.4,1.7 h 9.9 c -0.5,-0.7 -0.8,-1.8 -1,-3.3 0,-1.3 -0.1,-2.8 -0.1,-4.4 z m -9.8,-5.8 c 0,0.5 -0.1,1.3 -0.2,2.2 -0.1,0.9 -0.4,1.8 -0.9,2.7 -0.5,0.9 -1.3,1.7 -2.3,2.3 -1.1,0.6 -2.5,1 -4.5,1 -0.8,0 -1.5,-0.1 -2.3,-0.2 -0.7,-0.1 -1.4,-0.4 -1.9,-0.7 -0.6,-0.3 -1,-0.8 -1.3,-1.4 -0.3,-0.6 -0.5,-1.3 -0.5,-2.2 0,-0.9 0.2,-1.7 0.5,-2.3 0.3,-0.6 0.7,-1.1 1.3,-1.5 0.5,-0.4 1.1,-0.7 1.9,-0.9 0.7,-0.2 1.4,-0.4 2.2,-0.5 0.8,-0.1 1.6,-0.3 2.3,-0.3 0.8,-0.1 1.5,-0.2 2.2,-0.3 0.7,-0.1 1.4,-0.3 2,-0.5 0.6,-0.2 1.1,-0.5 1.5,-0.9 z"
   id="path34"
   inkscape:connector-curvature="0"
   style="fill:#f37024" />
			<polygon
   class="st0"
   points="-309.4,275.1 -319.5,275.1 -328,308.4 -328.2,308.4 -335.9,275.1 -346.7,275.1 -333.7,324 -322.8,324 -314.6,290.7 -314.5,290.7 -306.2,324 -295.5,324 -282.4,275.1 -292.9,275.1 -300.9,308.8 -301.1,308.8 "
   id="polygon36"
   style="fill:#f37024" />
			<path
   class="st0"
   d="m -356.9,306.7 c 0,3.6 -0.6,6.2 -1.7,7.8 -1.1,1.6 -3,2.4 -5.5,2.4 -2.2,0 -3.8,-0.7 -4.7,-2.2 -0.9,-1.4 -1.3,-3.6 -1.3,-6.6 v -20 h -9.3 v 21.8 c 0,2.2 0.2,4.2 0.6,6 0.4,1.8 1,3.3 1.9,4.6 0.9,1.3 2.2,2.2 3.8,2.9 1.6,0.7 3.6,1 6.1,1 2,0 3.9,-0.5 5.8,-1.4 1.8,-0.9 3.2,-2.3 4.4,-4.1 v 4.6 h 9.3 V 288 h -9.3 z"
   id="path38"
   inkscape:connector-curvature="0"
   style="fill:#f37024" />
			<path
   class="st0"
   d="m -254.5,294.1 c -1.4,-2 -3.3,-3.5 -5.5,-4.7 -2.2,-1.2 -4.9,-1.8 -7.9,-1.8 -2.7,0 -5.2,0.5 -7.4,1.4 -2.2,1 -4.1,2.3 -5.7,3.9 -1.6,1.7 -2.8,3.6 -3.7,5.9 -0.9,2.3 -1.3,4.8 -1.3,7.4 0,2.7 0.4,5.3 1.3,7.5 0.8,2.3 2,4.2 3.6,5.9 1.6,1.6 3.4,2.9 5.7,3.8 2.2,0.9 4.8,1.3 7.5,1.3 4,0 7.4,-0.9 10.3,-2.7 2.8,-1.8 4.9,-4.9 6.3,-9.1 h -8.6 c -0.3,1.1 -1.2,2.1 -2.6,3.1 -1.4,1 -3.1,1.5 -5.1,1.5 -2.7,0 -4.8,-0.7 -6.3,-2.1 v 0 c -1.5,-1.4 -2.3,-3.7 -2.4,-6.9 h 25.6 c 0.2,-2.7 -0.1,-5.4 -0.7,-7.9 -0.6,-2.3 -1.6,-4.6 -3.1,-6.5 z m -21.7,8.4 c 0,-0.7 0.2,-1.5 0.4,-2.3 0.3,-0.9 0.7,-1.7 1.3,-2.5 0.6,-0.8 1.4,-1.4 2.5,-1.9 1,-0.5 2.3,-0.8 3.9,-0.8 2.4,0 4.2,0.6 5.3,1.9 1.2,1.3 2,3.2 2.4,5.6 z"
   id="path40"
   inkscape:connector-curvature="0"
   style="fill:#f37024" />
		</g>
	</g>
</g>
</svg>