<?xml version="1.0" encoding="utf-8"?>
<!-- Generator: Adobe Illustrator 23.0.2, SVG Export Plug-In . SVG Version: 6.00 Build 0)  -->
<svg version="1.1" id="Layer_1" xmlns="http://www.w3.org/2000/svg" xmlns:xlink="http://www.w3.org/1999/xlink" x="0px" y="0px"
	 viewBox="0 0 203.6 290" style="enable-background:new 0 0 203.6 290;" xml:space="preserve">
<style type="text/css">
	.st0{fill:#FFFFFF;}
</style>
<title>agora-day</title>
<path class="st0" d="M173.8,85.9c-1.7-0.1-3.3-1-4.1-2.6c-15.1-27.6-41.5-44.7-72.8-47.9c-2.7-0.3-4.7-2.7-4.4-5.4c0,0,0,0,0,0
	c0.3-2.7,2.7-4.6,5.4-4.4c33.8,3.3,63.9,22.4,80.6,52.9c1.2,2.5,0.3,5.5-2.1,6.8C175.6,85.8,174.7,86,173.8,85.9z"/>
<path class="st0" d="M198.4,77.2c-1.8-0.1-3.4-1.1-4.2-2.7c-19-37.2-56.1-61.8-97.8-64.7c-2.7-0.2-4.7-2.6-4.5-5.3
	c0.2-2.6,2.4-4.6,5-4.5h0.1c45.2,3.2,85.3,29.8,105.9,70.1c1.2,2.4,0.3,5.4-2.1,6.6C200.2,77.1,199.3,77.3,198.4,77.2L198.4,77.2z"
	/>
<path class="st0" d="M171.6,132.8c0-23.5-8.4-43.7-25.3-60.5C129.5,55.4,109.3,47,85.8,47C62,47,41.7,55.5,25,72.3s-25,37-25,60.5
	c0,23.8,8.3,44.1,25,60.8s36.9,25,60.8,25c16.1,0.2,32-4.3,45.5-13c0.7,0.8,1.3,1.5,2,2.3c6.7,7,16,10.9,25.7,10.7h12.5v-84.5h0
	C171.6,133.7,171.6,133.3,171.6,132.8z M139.8,185c0,0-13.2-4.1-20.6-6.7c-25.7,18.3-61.4,12.4-79.7-13.3
	c-18.3-25.7-12.4-61.4,13.3-79.7s61.4-12.4,79.7,13.3c13.3,18.7,14.2,43.5,2.2,63.1C134.9,163.3,139.8,185,139.8,185L139.8,185z
	 M145.9,95.4c-0.8,0.6-1.9,1-2.9,1c-1.6,0-3.1-0.8-4-2.1c-10.2-14.2-25.5-23.7-42.8-26.6c-2.7-0.3-4.8-2.7-4.5-5.5s2.7-4.8,5.5-4.5
	c0.2,0,0.4,0.1,0.6,0.1c19.8,3.3,37.5,14.2,49.2,30.5C148.6,90.6,148.1,93.7,145.9,95.4C145.9,95.3,145.9,95.3,145.9,95.4
	L145.9,95.4z"/>
<path class="st0" d="M96.6,253.9c0,0-1.9,0-3.3,0c-2,0.1-3.3,0.9-4.8,3h-0.1v-0.4l0,0c0-0.8-0.4-1.5-0.9-2c-0.7-0.5-1.6-0.8-2.4-0.6
	H84v20.9v0.4c0,0.1,0,0.3,0,0.4l0,0l0,0c0.1,0.8,0.4,1.5,1,2.1c0.6,0.7,1.5,1,2.4,1h1.1v-3.1l0,0v-9c-0.1-2.4,0.8-4.8,2.5-6.5
	c2.4-2.2,3.4-1.4,4.6-2.4c0.3-0.2,1.1-0.8,1.1-2.8L96.6,253.9z"/>
<path class="st0" d="M25.1,259.4c-0.2,0-0.5-0.1-0.6-0.4c-2.1-3.9-6.1-6.5-10.5-6.9c-0.4,0-0.7-0.4-0.6-0.8c0,0,0,0,0,0
	c0-0.4,0.4-0.7,0.8-0.6c4.9,0.5,9.3,3.3,11.6,7.7c0.2,0.4,0,0.8-0.3,1C25.3,259.5,25.2,259.5,25.1,259.4z"/>
<path class="st0" d="M28.6,258.2c-0.3,0-0.5-0.2-0.6-0.4c-2.7-5.4-8.1-8.9-14.1-9.3c-0.4,0-0.7-0.4-0.7-0.8c0,0,0,0,0,0
	c0-0.4,0.4-0.7,0.7-0.7c0,0,0,0,0,0l0,0c6.5,0.5,12.3,4.3,15.3,10.1c0.2,0.4,0.1,0.8-0.3,1c0,0,0,0,0,0
	C28.9,258.2,28.7,258.2,28.6,258.2z"/>
<path class="st0" d="M141,257L141,257c-0.1-0.8-0.4-1.5-1-2.1c-0.6-0.7-1.5-1-2.4-1h-1.1v20.4v0.9c0,0.1,0,0.3,0,0.4l0,0
	c0.1,0.8,0.4,1.5,1,2.1c0.6,0.7,1.5,1,2.4,1h1.1v-3.1v-17C141,257.6,141,257.1,141,257z"/>
<path class="st0" d="M130.6,276.2c0,1.2-1,2.2-2.2,2.2s-2.2-1-2.2-2.2c0-1.2,1-2.2,2.2-2.2C129.6,274.1,130.6,275,130.6,276.2z"/>
<path class="st0" d="M156.4,253.6c-6.8,0-12.3,5.4-12.4,12.2c0,6.9,5.5,12.5,12.4,12.5c7.8,0,12.4-6.7,12.4-12.4
	C168.8,259.1,163.2,253.6,156.4,253.6C156.4,253.6,156.4,253.6,156.4,253.6z M156.3,274.2c-4.6,0-8.3-3.7-8.3-8.2
	c0-4.6,3.7-8.3,8.2-8.3c4.6,0,8.3,3.7,8.3,8.2c0,0,0,0,0,0C164.6,270.5,160.9,274.2,156.3,274.2
	C156.3,274.2,156.3,274.2,156.3,274.2z"/>
<path class="st0" d="M116.8,257.4c-4.8-4.8-12.7-4.8-17.5,0.1c-4.8,4.8-4.8,12.7,0.1,17.5c4.1,4,10.4,4.7,15.2,1.7l0.3,0.3
	c1,1,2.3,1.6,3.7,1.5h1.8v-12.3C120.5,262.9,119.1,259.7,116.8,257.4z M108,274.3c-4.6,0-8.2-3.7-8.2-8.2s3.7-8.2,8.2-8.2
	s8.2,3.7,8.2,8.2l0,0C116.3,270.6,112.6,274.3,108,274.3C108,274.4,108,274.4,108,274.3L108,274.3z"/>
<path class="st0" d="M68.5,253.8c-6.8,0-12.3,5.4-12.4,12.2c0,5.9,4.7,12.5,12.4,12.5c6.8-0.1,12.4-5.6,12.4-12.4
	C80.9,259.3,75.4,253.8,68.5,253.8C68.5,253.8,68.5,253.8,68.5,253.8z M68.5,274.4c-4.5,0-8.2-3.7-8.2-8.2s3.7-8.2,8.2-8.2
	c4.5,0,8.2,3.7,8.2,8.2C76.7,270.8,73,274.4,68.5,274.4L68.5,274.4z"/>
<path class="st0" d="M51.4,253.9c-1.6,0-3.1,1.1-3.4,2.7c-0.6-0.5-1.2-0.9-1.8-1.2c-1.8-1.1-3.8-1.6-5.9-1.6
	c-3.9-0.1-7.7,1.7-10,4.9c-1.6,2.1-2.5,4.7-2.5,7.4c0,6.9,5.5,12.5,12.4,12.5c3,0,5.9-1.1,8.1-3.1c0,1.1,0,2.8,0,2.9
	c-0.2,5.6-3.7,7.7-8.1,7.7c-2.4,0.1-4.7-0.9-6.2-2.8l-0.6-0.9c-0.5-0.8-1.3-1.4-2.2-1.6c-0.9-0.3-1.9-0.2-2.7,0.3l-0.6,0.5
	c0.6,1.1,1.3,2.2,2,3.2l0.1,0.1c2.3,3.4,6.2,5.3,10.2,5.2c7.8,0,12.4-4.5,12.5-11.8v-24.4L51.4,253.9z M40.2,274.4
	c-4.6,0-8.2-3.7-8.2-8.2s3.7-8.2,8.2-8.2s8.2,3.7,8.2,8.2l0,0C48.4,270.7,44.8,274.4,40.2,274.4z"/>
<path class="st0" d="M24.8,266.2c0-6.8-5.6-12.3-12.4-12.3c-6.8,0-12.3,5.6-12.3,12.4c0,6.8,5.6,12.3,12.4,12.3
	c2.3,0,4.5-0.7,6.5-1.9c0.1,0.1,0.2,0.2,0.3,0.3c1,1,2.3,1.6,3.7,1.5h1.8v-12.2l0,0C24.8,266.4,24.8,266.3,24.8,266.2z M20.2,273.7
	c0,0-1.9-0.6-3-1c-3.7,2.7-8.9,1.8-11.6-1.9c-2.7-3.7-1.8-8.9,1.9-11.6c3.7-2.7,8.9-1.8,11.6,1.9c1.9,2.7,2.1,6.3,0.3,9.2
	C19.4,270.6,20.2,273.8,20.2,273.7L20.2,273.7z M21,260.8c-0.3,0.2-0.8,0.2-1-0.2c0,0,0,0,0,0c-1.5-2-3.7-3.4-6.2-3.8
	c-0.4,0-0.7-0.4-0.6-0.8c0-0.4,0.4-0.7,0.8-0.6c0,0,0,0,0.1,0c2.9,0.5,5.4,2.1,7.1,4.4C21.4,260.1,21.4,260.6,21,260.8
	C21.1,260.8,21,260.8,21,260.8L21,260.8z"/>
<path class="st0" d="M16.2,261.9c0,0.8-0.6,1.5-1.4,1.5c-0.8,0-1.5-0.6-1.5-1.4c0-0.8,0.6-1.5,1.4-1.5c0,0,0,0,0,0
	C15.6,260.4,16.2,261.1,16.2,261.9C16.2,261.9,16.2,261.9,16.2,261.9z"/>
</svg>
