<svg id="Layer_1" data-name="Layer 1" xmlns="http://www.w3.org/2000/svg" viewBox="0 0 203.58 290.05"><defs><style>.cls-1{fill:#2c9cd7;}</style></defs><title>agora-day</title><path class="cls-1" d="M468.26,247.52a4.92,4.92,0,0,1-4.11-2.55c-15.07-27.61-41.53-44.73-72.75-47.93a4.92,4.92,0,0,1-4.39-5.42,5,5,0,0,1,5.4-4.37c33.78,3.33,63.93,22.42,80.57,52.89a5.12,5.12,0,0,1-2.15,6.78A5,5,0,0,1,468.26,247.52Z" transform="translate(-294.48 -161.57)"/><path class="cls-1" d="M492.91,238.79a4.86,4.86,0,0,1-4.16-2.69A119.12,119.12,0,0,0,391,171.41a4.93,4.93,0,0,1,.55-9.84h.09a129,129,0,0,1,105.91,70.07,4.91,4.91,0,0,1-4.62,7.14Z" transform="translate(-294.48 -161.57)"/><path class="cls-1" d="M466.12,294.41q0-35.25-25.3-60.54t-60.53-25.25q-35.73,0-60.77,25.25t-25,60.54q0,35.74,25,60.79t60.77,25.05a82.81,82.81,0,0,0,45.55-13c.67.77,1.32,1.51,2.05,2.27a34.66,34.66,0,0,0,25.69,10.71h12.54v-84.5h-.05C466.07,295.3,466.12,294.87,466.12,294.41Zm-31.88,52.17s-13.17-4.06-20.62-6.67a57.12,57.12,0,1,1,15.51-16.62C429.34,324.85,434.24,346.58,434.24,346.58Zm6.1-89.65a5,5,0,0,1-2.9,1,5,5,0,0,1-4-2.07,65.56,65.56,0,0,0-42.76-26.55,5,5,0,1,1,1.61-9.85A75.68,75.68,0,0,1,441.49,250,4.94,4.94,0,0,1,440.34,256.93Z" transform="translate(-294.48 -161.57)"/><path class="cls-1" d="M391.12,415.47s-1.88,0-3.28,0c-1.95.13-3.29.92-4.78,3H383v-.36h0a2.91,2.91,0,0,0-.94-2,3.07,3.07,0,0,0-2.41-.61h-1.16v20.87l0,.36c0,.13,0,.26,0,.38v0h0a3.48,3.48,0,0,0,1,2.09,3.15,3.15,0,0,0,2.38,1h1.15v-3.12h0v-9a8.75,8.75,0,0,1,2.52-6.53c2.39-2.16,3.4-1.36,4.59-2.39.27-.23,1.06-.84,1.06-2.82Z" transform="translate(-294.48 -161.57)"/><path class="cls-1" d="M319.54,421a.69.69,0,0,1-.59-.37,13.25,13.25,0,0,0-10.49-6.91.7.7,0,0,1-.63-.78.72.72,0,0,1,.78-.63A14.77,14.77,0,0,1,320.23,420a.75.75,0,0,1-.31,1A.73.73,0,0,1,319.54,421Z" transform="translate(-294.48 -161.57)"/><path class="cls-1" d="M323.1,419.77a.69.69,0,0,1-.6-.38,17.17,17.17,0,0,0-14.1-9.33.71.71,0,0,1-.66-.76.7.7,0,0,1,.74-.66h0a18.61,18.61,0,0,1,15.28,10.1.73.73,0,0,1-.31,1A.66.66,0,0,1,323.1,419.77Z" transform="translate(-294.48 -161.57)"/><path class="cls-1" d="M435.5,418.58h0a3.49,3.49,0,0,0-1-2.09,3.14,3.14,0,0,0-2.37-1H431v20.38l0,.85a2.36,2.36,0,0,0,0,.38v0a3.48,3.48,0,0,0,.95,2.09,3.17,3.17,0,0,0,2.38,1h1.15v-3.12l0-17C435.51,419.15,435.51,418.7,435.5,418.58Z" transform="translate(-294.48 -161.57)"/><path class="cls-1" d="M425.11,437.82a2.2,2.2,0,1,1-2.2-2.2A2.21,2.21,0,0,1,425.11,437.82Z" transform="translate(-294.48 -161.57)"/><path class="cls-1" d="M450.87,415.19a12.34,12.34,0,0,0-12.38,12.23,12.5,12.5,0,0,0,12.38,12.52c7.78,0,12.38-6.7,12.38-12.44A12.32,12.32,0,0,0,450.87,415.19Zm-.07,20.63a8.26,8.26,0,1,1,8.25-8.26A8.25,8.25,0,0,1,450.8,435.82Z" transform="translate(-294.48 -161.57)"/><path class="cls-1" d="M411.24,419a12.34,12.34,0,1,0-2.16,19.23l.29.33a5,5,0,0,0,3.71,1.54h1.81V427.76A11.89,11.89,0,0,0,411.24,419Zm-8.73,16.89a8.25,8.25,0,1,1,8.25-8.25A8.26,8.26,0,0,1,402.51,435.93Z" transform="translate(-294.48 -161.57)"/><path class="cls-1" d="M363,415.39a12.34,12.34,0,0,0-12.37,12.23c0,5.94,4.68,12.52,12.37,12.52a12.5,12.5,0,0,0,12.39-12.43A12.34,12.34,0,0,0,363,415.39ZM363,436a8.2,8.2,0,1,1,8.2-8.2A8.2,8.2,0,0,1,363,436Z" transform="translate(-294.48 -161.57)"/><path class="cls-1" d="M345.93,415.43a3.51,3.51,0,0,0-3.43,2.73,12.67,12.67,0,0,0-1.78-1.21,11.66,11.66,0,0,0-5.91-1.62,12,12,0,0,0-10,4.9,12.24,12.24,0,0,0-2.54,7.39,12.5,12.5,0,0,0,12.38,12.52,11.89,11.89,0,0,0,8.11-3.07c0,1.13,0,2.78,0,2.88-.18,5.65-3.66,7.66-8.13,7.7a7.51,7.51,0,0,1-6.19-2.82l-.59-.93a3.7,3.7,0,0,0-2.2-1.58,3.48,3.48,0,0,0-2.74.33l-.65.48a36.82,36.82,0,0,0,2,3.2l.06.07a12,12,0,0,0,10.23,5.21c7.75,0,12.36-4.47,12.52-11.83V415.41Zm-11.25,20.5a8.25,8.25,0,1,1,8.25-8.25A8.25,8.25,0,0,1,334.68,435.93Z" transform="translate(-294.48 -161.57)"/><path class="cls-1" d="M319.24,427.8a12.34,12.34,0,1,0-5.81,10.51c.09.11.19.21.29.32a5,5,0,0,0,3.71,1.55h1.81V428h0C319.23,427.92,319.24,427.86,319.24,427.8Zm-4.6,7.52s-1.9-.58-3-1a8.28,8.28,0,1,1,2.23-2.4C313.93,432.19,314.64,435.32,314.64,435.32Zm.88-12.93a.71.71,0,0,1-1-.16,9.47,9.47,0,0,0-6.17-3.83.72.72,0,1,1,.23-1.42,10.92,10.92,0,0,1,7.1,4.41A.7.7,0,0,1,315.52,422.39Z" transform="translate(-294.48 -161.57)"/><path class="cls-1" d="M310.72,423.43a1.45,1.45,0,1,1-1.45-1.44A1.44,1.44,0,0,1,310.72,423.43Z" transform="translate(-294.48 -161.57)"/></svg>