<?xml version="1.0" encoding="UTF-8" standalone="no"?>
<svg
   xmlns:dc="http://purl.org/dc/elements/1.1/"
   xmlns:cc="http://creativecommons.org/ns#"
   xmlns:rdf="http://www.w3.org/1999/02/22-rdf-syntax-ns#"
   xmlns:svg="http://www.w3.org/2000/svg"
   xmlns="http://www.w3.org/2000/svg"
   xmlns:xlink="http://www.w3.org/1999/xlink"
   xmlns:sodipodi="http://sodipodi.sourceforge.net/DTD/sodipodi-0.dtd"
   xmlns:inkscape="http://www.inkscape.org/namespaces/inkscape"
   version="1.1"
   width="500"
   height="250"
   style="fill:#221f1f"
   id="svg1936"
   sodipodi:docname="Amazon-day.svg"
   inkscape:version="0.92.3 (2405546, 2018-03-11)">
  <metadata
     id="metadata15">
    <rdf:RDF>
      <cc:Work
         rdf:about="">
        <dc:format>image/svg+xml</dc:format>
        <dc:type
           rdf:resource="http://purl.org/dc/dcmitype/StillImage" />
        <dc:title />
      </cc:Work>
    </rdf:RDF>
  </metadata>
  <defs
     id="defs13" />
  <sodipodi:namedview
     pagecolor="#ffffff"
     bordercolor="#666666"
     borderopacity="1"
     objecttolerance="10"
     gridtolerance="10"
     guidetolerance="10"
     inkscape:pageopacity="0"
     inkscape:pageshadow="2"
     inkscape:window-width="2736"
     inkscape:window-height="1719"
     id="namedview11"
     showgrid="false"
     inkscape:zoom="1.3204017"
     inkscape:cx="116.17479"
     inkscape:cy="66.009142"
     inkscape:window-x="-13"
     inkscape:window-y="-13"
     inkscape:window-maximized="1"
     inkscape:current-layer="svg1936"
     inkscape:pagecheckerboard="true" />
  <path
     d="M 310.19049,177.15706 C 281.13462,198.57354 239.01991,210 202.75993,210 c -50.84234,0 -96.61349,-18.8047 -131.241137,-50.08057 -2.72058,-2.45943 -0.28295,-5.81118 2.98177,-3.8959 37.369977,21.74295 83.576447,34.82354 131.306437,34.82354 32.18997,0 67.60114,-6.66001 100.16113,-20.48059 4.91883,-2.08942 9.03235,3.22117 4.22236,6.79058"
     id="path8"
     style="fill:#ff9900;stroke-width:0.83017999"
     inkscape:connector-curvature="0" />
  <path
     d="m 322.2699,163.33648 c -3.70001,-4.7447 -24.55058,-2.24176 -33.9094,-1.13176 -2.85119,0.34824 -3.28647,-2.13294 -0.71825,-3.91766 16.60647,-11.68764 43.85589,-8.31411 47.03353,-4.39647 3.17763,3.93942 -0.82706,31.25413 -16.43236,44.29117 -2.39411,2.00235 -4.67941,0.93589 -3.61292,-1.71941 3.5041,-8.74941 11.36117,-28.3594 7.6394,-33.12587"
     id="path10"
     style="fill:#ff9900;stroke-width:0.83017999"
     inkscape:connector-curvature="0" />
  <path
     d="M 289.01344,75.77709 V 64.41592 c 0,-1.71941 1.30588,-2.87294 2.87294,-2.87294 h 50.86409 c 1.63237,0 2.93825,1.1753 2.93825,2.87294 v 9.72882 c -0.0217,1.63235 -1.39294,3.76529 -3.8306,7.13882 l -26.35705,37.63117 c 9.79413,-0.2394 20.13236,1.21882 29.01235,6.22471 2.00236,1.13176 2.54647,2.78587 2.69883,4.41824 v 12.12294 c 0,1.65411 -1.82824,3.59115 -3.74353,2.58999 -15.64883,-8.2053 -36.43411,-9.09765 -53.73705,0.0871 -1.76294,0.95764 -3.61293,-0.95764 -3.61293,-2.61176 v -11.51357 c 0,-1.84999 0.0217,-5.00589 1.87175,-7.81353 l 30.53588,-43.79058 h -26.5747 c -1.63235,0 -2.93823,-1.15352 -2.93823,-2.85118"
     id="path12"
     inkscape:connector-curvature="0"
     style="stroke-width:0.83017999;fill:#f9f9f9" />
  <path
     d="M 103.46937,146.66471 H 87.994673 c -1.47999,-0.10881 -2.65529,-1.21881 -2.76412,-2.63353 V 64.61182 c 0,-1.58883 1.32765,-2.85119 2.98177,-2.85119 h 14.429987 c 1.50178,0.0652 2.69882,1.21882 2.80766,2.65529 V 74.7977 h 0.28294 c 3.76529,-10.03354 10.8388,-14.71295 20.37175,-14.71295 9.68529,0 15.73587,4.67941 20.08882,14.71295 3.74353,-10.03354 12.25352,-14.71295 21.37294,-14.71295 6.48588,0 13.58117,2.67705 17.91234,8.68411 4.89706,6.68176 3.89588,16.38882 3.89588,24.89883 l -0.0217,50.1241 c 0,1.58882 -1.32765,2.87292 -2.98177,2.87292 h -15.45294 c -1.54528,-0.10881 -2.78587,-1.3494 -2.78587,-2.87292 v -42.09293 c 0,-3.35176 0.30469,-11.70941 -0.4353,-14.88707 -1.15352,-5.33233 -4.61411,-6.83411 -9.09765,-6.83411 -3.74353,0 -7.66117,2.50294 -9.25,6.50765 -1.58882,4.00471 -1.43647,10.70822 -1.43647,15.21353 v 42.09293 c 0,1.58882 -1.32764,2.87292 -2.98176,2.87292 h -15.45293 c -1.56706,-0.10881 -2.78589,-1.3494 -2.78589,-2.87292 l -0.0217,-42.09293 c 0,-8.85823 1.45822,-21.8953 -9.53294,-21.8953 -11.12177,0 -10.68647,12.71058 -10.68647,21.8953 v 42.09293 c 0,1.58882 -1.32765,2.87292 -2.98177,2.87292"
     id="path14"
     inkscape:connector-curvature="0"
     style="stroke-width:0.83017999;fill:#f9f9f9" />
  <path
     d="m 389.47929,60.08475 c 22.96176,0 35.3894,19.71881 35.3894,44.79175 0,24.22411 -13.73354,43.44233 -35.3894,43.44233 -22.54823,0 -34.82353,-19.71881 -34.82353,-44.29115 0,-24.72471 12.42765,-43.94293 34.82353,-43.94293 m 0.13058,16.21471 c -11.40469,0 -12.12293,15.53998 -12.12293,25.22528 0,9.70706 -0.15236,30.42705 11.99235,30.42705 11.99235,0 12.55824,-16.71528 12.55824,-26.90118 0,-6.70351 -0.28295,-14.71292 -2.30707,-21.06823 -1.74118,-5.52822 -5.20175,-7.68292 -10.12059,-7.68292"
     id="path16"
     inkscape:connector-curvature="0"
     style="stroke-width:0.83017999;fill:#f9f9f9" />
  <path
     d="m 454.6428,146.66471 h -15.4094 c -1.54531,-0.10881 -2.78589,-1.3494 -2.78589,-2.87292 l -0.0217,-79.44116 c 0.13058,-1.45824 1.41471,-2.59 2.98176,-2.59 h 14.34295 c 1.3494,0.0652 2.4594,0.97941 2.76411,2.22 v 12.1447 h 0.28293 c 4.33119,-10.86058 10.40353,-16.04058 21.08999,-16.04058 6.94294,0 13.71177,2.50294 18.06471,9.35882 4.04823,6.35529 4.04823,17.04176 4.04823,24.72469 v 49.99353 c -0.17411,1.39292 -1.45823,2.50292 -2.98175,2.50292 H 481.5005 c -1.41471,-0.10881 -2.59001,-1.15351 -2.74235,-2.50292 v -43.13764 c 0,-8.68411 1.00118,-21.39471 -9.6853,-21.39471 -3.76528,0 -7.22588,2.52472 -8.94529,6.3553 -2.17646,4.85354 -2.4594,9.6853 -2.4594,15.03941 v 42.76764 c -0.0217,1.58882 -1.37117,2.87292 -3.02529,2.87292"
     id="path18"
     inkscape:connector-curvature="0"
     style="stroke-width:0.83017999;fill:#f9f9f9" />
  <use
     xlink:href="#path30"
     transform="translate(202.86875)"
     id="use28"
     x="0"
     y="0"
     width="100%"
     height="100%"
     style="fill:#f9f9f9" />
  <path
     d="m 45.597048,108.72885 v -3.35176 c -11.187066,0 -23.005293,2.39412 -23.005293,15.58352 0,6.68176 3.460581,11.20883 9.402345,11.20883 4.352941,0 8.248818,-2.67705 10.708243,-7.03 3.047043,-5.35412 2.894705,-10.38177 2.894705,-16.41059 m 15.605285,37.71822 c -1.02294,0.91412 -2.50295,0.97941 -3.65648,0.37001 -5.13646,-4.26588 -6.05058,-6.24646 -8.879994,-10.31646 -8.488235,8.66234 -14.495276,11.25233 -25.508228,11.25233 C 10.142334,147.75295 0,139.72178 0,123.63768 0,111.07944 6.81235,102.52591 16.497636,98.3471 24.898809,94.64708 36.629983,93.99415 45.597048,92.97122 v -2.00236 c 0,-3.67824 0.282942,-8.03118 -1.871765,-11.20881 -1.893542,-2.85119 -5.506469,-4.02648 -8.684124,-4.02648 -5.898221,0 -11.16529,3.02529 -12.449404,9.29352 -0.261183,1.39295 -1.284122,2.76413 -2.677056,2.82942 L 4.897058,86.24591 C 3.634703,85.96299 2.24176,84.94003 2.589996,83.00299 6.050585,64.8077 22.482927,59.322985 37.195875,59.322985 c 7.530572,0 17.368218,2.002345 23.309978,7.704695 7.5306,7.03 6.81235,16.41059 6.81235,26.61824 v 24.11528 c 0,7.24766 3.00354,10.42529 5.83295,14.34295 1.00117,1.39292 1.21882,3.06881 -0.0435,4.11352 -3.15588,2.63353 -8.77117,7.53059 -11.86177,10.27294 l -0.0435,-0.0436"
     id="path30"
     inkscape:connector-curvature="0"
     style="stroke-width:0.83017999;fill:#f9f9f9" />
</svg>
