<?xml version="1.0" encoding="utf-8"?>
<!-- Generator: Adobe Illustrator 21.1.0, SVG Export Plug-In . SVG Version: 6.00 Build 0)  -->
<svg version="1.1" id="Layer_1" xmlns="http://www.w3.org/2000/svg" xmlns:xlink="http://www.w3.org/1999/xlink" x="0px" y="0px"
	 viewBox="0 0 600 600" style="enable-background:new 0 0 600 600;" xml:space="preserve">
<style type="text/css">
	.st0{fill:#97A6A7;}
</style>
<g>
	<path class="st0" d="M59.5,322c0.2-23.8,3.2-46.1,10.7-67.7c8.4-23.9,21.1-45.1,39.4-62.7c20.4-19.6,44.4-32.4,72.3-37.8
		c9.4-1.8,18.9-2.8,28.5-2.4c10.3,0.4,20.2,2.8,30.1,5.6c11.9,3.3,23.3,8,34.9,12c8.2,2.8,16.3,5.5,24.8,7.2
		c4.4,0.9,8.5-0.1,12.7-1.2c13.8-3.8,27.2-8.9,40.6-13.7c12.4-4.4,25-8,38-10c10.9-1.7,21.9-1.8,32.9-0.5
		c11.7,1.4,23.2,3.6,34.3,7.3c27.2,8.8,49.4,24.5,66.2,47.8c0.8,1.2,0.6,1.5-0.5,2.2c-12.8,7.9-24.4,17.2-34.3,28.6
		C477.6,251,469.2,267.4,465,286c-3.2,14.2-3.8,28.5-2.5,42.9c2.1,23,9.8,43.8,23.9,62.1c14.3,18.4,32,32.7,53.5,42
		c1,0.4,1,0.9,0.7,1.8c-11.4,34-28.2,65.2-49.9,93.7c-8.5,11.1-17,22.2-27.1,32c-8.7,8.3-18.3,15.5-29.6,20.1
		c-11.8,4.8-24,6.1-36.6,4.1c-12.7-2-24.7-6.2-36.6-11c-11.9-4.8-24.2-8.3-37.1-9.8c-9.6-1.1-19.1-0.8-28.7,0.6
		c-14.1,2.1-27.4,6.8-40.6,12c-9.6,3.8-19.5,6.8-29.7,8.6c-15.2,2.8-29.4,0.1-42.7-7.7c-12.2-7.1-22.5-16.5-31.7-27
		C120,515.8,96,477.2,80.4,433.6c-7-19.7-12.7-39.7-16.4-60.2C60.9,356,59.4,338.5,59.5,322z"/>
	<path class="st0" d="M420.7,26.1c0,21.6-5.9,41.6-17.1,60c-12.5,20.6-28.6,37.6-49.3,50.2c-10.8,6.6-22.6,11-35.2,12.8
		c-5.6,0.8-11.3,0.9-16.9,0.6c-0.9,0-1.4-0.2-1.5-1.3c-1.3-11.8-0.4-23.4,2.7-34.8c10.6-38.3,33.2-67,68.7-85.2
		c11.5-5.9,23.5-10.3,36.3-12.6c3.4-0.6,6.9-1,10.4-1.3c1-0.1,1.3,0.2,1.4,1.1C420.5,19.1,420.7,22.6,420.7,26.1z"/>
</g>
</svg>
