<?xml version="1.0" encoding="UTF-8" standalone="no"?>
<!-- Generator: Adobe Illustrator 16.0.0, SVG Export Plug-In . SVG Version: 6.00 Build 0)  -->

<svg
   xmlns:dc="http://purl.org/dc/elements/1.1/"
   xmlns:cc="http://creativecommons.org/ns#"
   xmlns:rdf="http://www.w3.org/1999/02/22-rdf-syntax-ns#"
   xmlns:svg="http://www.w3.org/2000/svg"
   xmlns="http://www.w3.org/2000/svg"
   xmlns:sodipodi="http://sodipodi.sourceforge.net/DTD/sodipodi-0.dtd"
   xmlns:inkscape="http://www.inkscape.org/namespaces/inkscape"
   version="1.1"
   id="Layer_1"
   x="0px"
   y="0px"
   width="500px"
   height="500px"
   viewBox="0 0 500 500"
   style="enable-background:new 0 0 500 500;"
   xml:space="preserve"
   sodipodi:docname="Capital_One-day.svg"
   inkscape:version="0.92.3 (2405546, 2018-03-11)"><metadata
   id="metadata35"><rdf:RDF><cc:Work
       rdf:about=""><dc:format>image/svg+xml</dc:format><dc:type
         rdf:resource="http://purl.org/dc/dcmitype/StillImage" /><dc:title></dc:title></cc:Work></rdf:RDF></metadata><defs
   id="defs33" /><sodipodi:namedview
   pagecolor="#003366"
   bordercolor="#666666"
   borderopacity="1"
   objecttolerance="10"
   gridtolerance="10"
   guidetolerance="10"
   inkscape:pageopacity="0"
   inkscape:pageshadow="2"
   inkscape:window-width="2736"
   inkscape:window-height="1719"
   id="namedview31"
   showgrid="false"
   inkscape:zoom="2.6700352"
   inkscape:cx="290.85231"
   inkscape:cy="293.48124"
   inkscape:window-x="-13"
   inkscape:window-y="-13"
   inkscape:window-maximized="1"
   inkscape:current-layer="g28" />
<g
   id="g28">
	<path
   style="fill-rule:evenodd;clip-rule:evenodd;fill:#D02F33;"
   d="M295.689,181.263c-12.137,0.181-27.514,0.895-42.876,2.014   c-13.824,1.006-27.621,2.296-41.392,3.844c-14.527,1.632-29.022,3.524-43.483,5.68c-11.069,1.65-22.114,3.434-33.134,5.38   c-0.656,0.116-1.438,0.442-1.585-0.542c-0.128-0.851,0.715-0.889,1.279-1.004c10.105-2.077,20.204-4.193,30.326-6.184   c14.638-2.878,29.332-5.45,44.052-7.87c13.06-2.147,26.142-4.146,39.247-6.004c12.248-1.736,24.512-3.351,36.797-4.792   c12.542-1.473,25.106-2.749,37.691-3.833c18.2-1.568,36.425-2.675,54.692-2.963c12.846-0.202,25.687,0.021,38.485,1.239   c11.208,1.065,22.337,2.61,32.935,6.701c3.833,1.479,7.444,3.358,10.615,6.024c5.223,4.391,6.617,9.849,4.609,16.273   c-1.774,5.679-5.148,10.419-8.899,14.911c-7.354,8.807-16.025,16.216-24.977,23.315c-9.101,7.218-18.607,13.876-28.235,20.368   c-1.148,0.774-1.384,0.493-1.737-0.694c-1.959-6.579-5.612-12.004-11.31-15.931c-0.832-0.574-0.608-0.904-0.148-1.517   c3.483-4.639,6.562-9.51,8.294-15.106c2.862-9.258,0.469-17.032-7.096-23.11c-5.602-4.501-12.137-7.104-18.926-9.131   c-9.287-2.773-18.819-4.267-28.438-5.291C328.008,181.5,313.491,181.127,295.689,181.263z"
   id="path2" />
	<path
   style="fill-rule:evenodd;clip-rule:evenodd;fill:#e6e6e6"
   d="M442.208,295.154c-1.35,1.9-2.544,3.808-4.045,5.48   c-2.007,2.238-4.184,4.205-7.31,4.731c-4.341,0.73-6.97-1.735-6.472-6.116c0.529-4.65,2.185-9.02,3.396-13.5   c1.398-5.173,3.19-10.237,4.265-15.498c0.184-0.9,0.344-1.812,0.421-2.727c0.213-2.544-1.325-3.749-3.76-2.939   c-1.728,0.574-3.148,1.681-4.536,2.812c-4.051,3.309-7.508,7.256-11.403,10.714c-3.403,3.021-5.154,6.559-5.78,11.009   c-0.646,4.594-1.816,9.112-2.736,13.667c-0.148,0.736-0.378,1.164-1.273,1.129c-1.891-0.074-3.787-0.061-5.679-0.007   c-0.974,0.027-1.062-0.289-0.854-1.173c2.687-11.432,5.336-22.872,7.986-34.312c0.656-2.836,0.059-3.562-2.812-3.484   c-3.801,0.104-3.738,0.109-4.072,3.877c-1.479,16.637-12.726,33.13-33.032,36.345c-5.504,0.872-11.036,0.869-16.388-0.947   c-9.946-3.376-15.317-10.662-17.138-20.73c-3.495-19.326,9.102-40.085,27.86-45.972c6.673-2.094,13.497-2.58,20.256-0.599   c10.439,3.059,16.122,10.425,18.106,20.893c0.238,1.253,0.392,2.53,0.464,3.803c0.053,0.943,0.389,1.051,1.241,0.853   c4.975-1.156,9.871-2.579,14.899-4.292c-1.506,6.676-2.979,13.207-4.467,19.799c0.78-0.052,0.972-0.603,1.292-0.959   c4.169-4.652,8.402-9.238,13.23-13.229c2.449-2.023,5.012-3.879,8.055-4.947c1.562-0.548,3.154-0.862,4.813-0.635   c2.58,0.353,3.99,1.885,4.122,4.512c0.128,2.54-0.521,4.974-1.166,7.39c-2.092,7.841-4.235,15.669-6.354,23.503   c-0.32,1.187-0.568,2.388-0.511,3.629c0.082,1.772,1.19,2.467,2.813,1.688c0.634-0.304,1.242-0.731,1.745-1.223   c0.802-0.783,1.508-1.665,2.253-2.507c1.506-1.702,2.112-3.576,2.137-5.956c0.138-13.746,11.87-28.068,25.002-30.769   c2.329-0.479,4.672-0.479,7.001,0.056c5.925,1.36,8.542,5.693,7.053,11.607c-0.844,3.352-2.883,5.827-5.625,7.779   c-4.342,3.093-9.323,4.556-14.474,5.548c-3.066,0.591-6.164,0.986-9.289,1.004c-1.094,0.006-1.577,0.409-1.67,1.454   c-0.168,1.892-0.302,3.793,0.072,5.661c1.313,6.563,7.319,9.812,14.159,7.663c4.516-1.419,7.926-4.345,10.742-8.049   c0.365-0.48,0.536-1.233,1.479-0.554c0.764,0.551,0.627,0.952,0.255,1.598c-4.192,7.271-10.099,12.094-18.663,13.167   c-7.125,0.894-12.909-2.67-15.312-9.458C442.427,295.715,442.336,295.49,442.208,295.154z M387.227,263.12   c0.094-6.32-1.373-12.168-5.217-17.275c-5.69-7.561-14.69-9.376-22.885-4.645c-2.774,1.602-5.179,3.671-7.162,6.175   c-7.66,9.668-11.368,20.697-10.869,33.016c0.229,5.64,2.153,10.805,5.874,15.153c3.635,4.248,8.197,6.454,13.897,6.095   c7.484-0.472,13.149-4.148,17.459-10.031C384.523,283.145,386.891,273.436,387.227,263.12z M450.923,282.303   c7.972-0.355,15.1-2.371,20.252-8.865c1.797-2.264,2.674-4.904,2.538-7.849c-0.181-3.91-2.889-5.921-6.675-4.919   c-2.63,0.695-4.608,2.383-6.408,4.292c-3.723,3.951-6.42,8.562-8.517,13.543C451.622,279.672,451.101,280.836,450.923,282.303z"
   id="path4" />
	<path
   style="fill-rule:evenodd;clip-rule:evenodd;fill:#e6e6e6"
   d="M143.135,286.75c-1.001,5.726-2.004,11.128-2.854,16.555   c-0.211,1.348-0.656,1.72-2,1.698c-5.423-0.082-10.848-0.067-16.271-0.006c-1.122,0.013-1.234-0.376-1.066-1.313   c2.996-16.745,5.988-33.49,8.926-50.245c0.227-1.296,0.671-1.712,2.016-1.685c4.654,0.095,9.312,0.06,13.968,0.02   c1.048-0.009,1.609,0.021,1.215,1.371c-0.467,1.598-0.653,3.277-0.963,4.929c6.998-6.3,15.27-7.853,24.184-6.447   c7.753,1.223,12.775,7.961,12.497,16.166c-0.459,13.52-10.692,23.65-24.208,23.973c-2.866,0.068-5.72,0.072-8.54-0.612   C147.322,290.493,145.114,289.031,143.135,286.75z M163.618,268.162c0.048-3.319-1.333-5.605-4.121-6.681   c-1.97-0.76-4.017-0.746-6.037-0.254c-7.108,1.731-8.875,8.295-8.125,13.545c0.38,2.658,2.229,4.035,4.675,4.682   c2.022,0.534,4.058,0.401,6.058-0.171C160.49,278.02,163.541,273.512,163.618,268.162z"
   id="path6" />
	<path
   style="fill-rule:evenodd;clip-rule:evenodd;fill:#e6e6e6"
   d="M67.7,252.358c-3.289-1.809-6.501-3.272-10.034-3.731   c-8.91-1.159-17.141,0.191-23.833,6.815c-1.875,1.855-3.289,4.034-4.258,6.493c-2.284,5.798-0.185,11.533,5.302,14.506   c3.384,1.833,7.057,2.291,10.829,2.282c4.772-0.012,9.494-0.531,14.16-1.504c0.963-0.201,1.272-0.189,1.051,0.937   c-0.756,3.859-1.443,7.733-2.1,11.611c-0.175,1.034-0.549,1.548-1.695,1.636c-7.146,0.55-14.305,1.004-21.464,0.613   c-6.898-0.377-13.538-1.997-19.656-5.333c-9.983-5.444-13.536-13.99-10.393-24.918c2.829-9.832,9.553-16.244,18.468-20.56   c10.131-4.906,20.94-6.337,32.088-5.763c4.376,0.225,8.582,1.216,12.711,2.625c0.875,0.298,1.312,0.603,1.095,1.701   C69.159,243.875,68.474,248.006,67.7,252.358z"
   id="path8" />
	<path
   style="fill-rule:evenodd;clip-rule:evenodd;fill:#e6e6e6"
   d="M275.393,286.275c-4.076,2.253-7.957,3.917-12.162,4.676   c-5.334,0.962-10.68,0.993-15.999-0.11c-3.138-0.65-5.388-2.655-7.14-5.192c-1.345-1.948-1.255-4.157-0.547-6.337   c0.91-2.804,2.742-4.838,5.273-6.32c4.393-2.574,9.284-3.276,14.204-3.966c5.11-0.716,10.303-0.738,15.366-1.823   c1.04-0.223,2.059-0.594,3.052-0.985c1.433-0.563,1.932-1.74,1.861-3.199c-0.068-1.401-0.994-2.074-2.213-2.398   c-2.545-0.678-5.153-0.762-7.764-0.663c-6.712,0.252-13.314,1.302-19.85,2.813c-0.336,0.077-0.682,0.115-1.296,0.217   c1.264-3.426,2.448-6.648,3.645-9.868c0.199-0.537,0.738-0.51,1.173-0.57c10.295-1.426,20.619-2.458,31.031-1.893   c3.165,0.171,6.298,0.684,9.225,2.032c4.131,1.901,5.727,4.797,4.966,9.26c-1.381,8.105-2.803,16.204-4.253,24.298   c-0.291,1.629,0.093,2.918,1.371,3.953c0.228,0.184,0.579,0.316,0.491,0.695c-0.109,0.475-0.527,0.406-0.873,0.407   c-6.189,0.022-12.379,0.032-18.567,0.07c-0.723,0.004-1.019-0.247-1.002-0.973C275.412,289.133,275.393,287.866,275.393,286.275z    M277.25,273.118c-3.5,1.066-7.037,1.545-10.555,2.133c-1.803,0.302-3.656,0.545-5.241,1.566c-1.232,0.795-1.991,1.919-1.855,3.456   c0.114,1.299,1.004,1.985,2.153,2.3c4.098,1.121,7.979,0.478,11.672-1.537c3.016-1.645,3.38-4.644,3.872-7.577   C277.304,273.413,277.284,273.363,277.25,273.118z"
   id="path10" />
	<path
   style="fill-rule:evenodd;clip-rule:evenodd;fill:#e6e6e6"
   d="M72.77,262.982c1.264-3.402,2.445-6.544,3.588-9.7   c0.215-0.593,0.611-0.731,1.155-0.804c10.397-1.375,20.809-2.541,31.326-1.869c3.277,0.209,6.504,0.732,9.491,2.197   c3.73,1.83,5.241,4.656,4.548,8.763c-1.375,8.155-2.812,16.302-4.275,24.443c-0.301,1.677,0.021,3.03,1.378,4.091   c0.282,0.221,0.654,0.417,0.469,0.847c-0.175,0.407-0.595,0.319-0.944,0.319c-6.137-0.01-12.274-0.034-18.411-0.021   c-0.786,0.001-1.047-0.238-1.082-1.04c-0.054-1.239,0.242-2.517-0.298-3.718c-1.097,0.521-2.192,1.046-3.29,1.566   c-7.769,3.688-15.907,4.23-24.254,2.772c-3.211-0.562-5.53-2.57-7.354-5.134c-1.414-1.988-1.346-4.242-0.627-6.469   c0.94-2.913,2.891-4.977,5.533-6.482c4.188-2.389,8.824-3.057,13.485-3.729c5.159-0.743,10.401-0.777,15.52-1.816   c1.141-0.231,2.247-0.663,3.345-1.068c1.466-0.543,1.929-1.755,1.881-3.187c-0.05-1.477-1.08-2.156-2.347-2.458   c-3.166-0.754-6.384-0.737-9.61-0.525C85.614,260.38,79.332,261.451,72.77,262.982z M101.863,273.039   c-4.061,1.265-8.184,1.645-12.224,2.453c-1.551,0.312-3.103,0.668-4.288,1.84c-1.95,1.93-1.39,4.401,1.208,5.231   c2.039,0.651,4.131,0.562,6.214,0.263C98.738,281.968,101.644,278.889,101.863,273.039z"
   id="path12" />
	<path
   style="fill-rule:evenodd;clip-rule:evenodd;fill:#e6e6e6"
   d="M242.008,259.34c-0.92,0-1.841,0.007-2.761-0.001   c-2.213-0.019-2.188-0.018-2.593,2.208c-1.738,9.542-3.509,19.078-5.215,28.627c-0.178,0.996-0.678,1.053-1.469,1.049   c-5.778-0.027-11.557-0.075-17.334-0.001c-1.466,0.019-0.951-0.793-0.834-1.437c1.359-7.483,2.741-14.963,4.118-22.443   c0.416-2.26,0.795-4.526,1.27-6.773c0.186-0.881,0.029-1.189-0.919-1.156c-1.737,0.062-3.478-0.009-5.215,0.029   c-0.785,0.018-1.09-0.122-0.891-1.026c0.44-1.993,0.788-4.008,1.101-6.025c0.141-0.904,0.563-1.128,1.432-1.094   c1.787,0.07,3.579-0.004,5.368,0.033c0.726,0.015,1.072-0.157,1.187-0.968c0.287-2.021,0.751-4.016,1.035-6.037   c0.11-0.788,0.406-1.14,1.164-1.302c6.088-1.301,12.176-2.606,18.25-3.969c1.107-0.249,1.069,0.236,0.933,1.005   c-0.576,3.268-1.101,6.546-1.733,9.804c-0.217,1.12-0.067,1.538,1.2,1.484c2.399-0.102,4.808,0.032,7.208-0.055   c1.186-0.043,1.328,0.312,1.033,1.367c-0.521,1.865-0.918,3.767-1.333,5.66c-0.163,0.743-0.455,1.115-1.32,1.047   C244.469,259.269,243.236,259.341,242.008,259.34z"
   id="path14" />
	<path
   style="fill-rule:evenodd;clip-rule:evenodd;fill:#e6e6e6"
   d="M308.105,291.271c-2.917,0-5.833-0.021-8.749,0.014   c-0.805,0.01-1.06-0.159-0.9-1.035c2.698-14.827,5.362-29.66,8.037-44.491c0.535-2.966,1.115-5.925,1.6-8.899   c0.126-0.773,0.384-1.004,1.157-0.977c5.778,0.205,11.557,0.386,17.337,0.529c0.879,0.021,0.975,0.311,0.838,1.096   c-3.053,17.566-6.089,35.137-9.09,52.713c-0.154,0.901-0.562,1.032-1.326,1.025c-2.968-0.027-5.936-0.012-8.903-0.012   C308.105,291.246,308.105,291.259,308.105,291.271z"
   id="path16" />
	<path
   style="fill-rule:evenodd;clip-rule:evenodd;fill:#e6e6e6"
   d="M191.686,291.271c-2.865,0-5.73-0.04-8.594,0.022   c-1.002,0.021-1.217-0.278-1.046-1.23c2.252-12.517,4.481-25.037,6.691-37.561c0.12-0.677,0.334-0.961,1.058-0.958   c5.883,0.022,11.767,0.032,17.649-0.008c0.986-0.007,0.882,0.383,0.753,1.099c-2.137,11.967-4.238,23.939-6.37,35.906   c-0.487,2.736-0.525,2.729-3.389,2.729C196.188,291.271,193.937,291.271,191.686,291.271z"
   id="path18" />
	<path
   style="fill-rule:evenodd;clip-rule:evenodd;fill:#D02F33;"
   d="M328.024,288.514c0.838,2.365,1.698,4.657,2.985,6.744   c0.496,0.805-0.092,0.96-0.571,1.223c-2.194,1.202-4.394,2.396-6.588,3.598c-21.541,11.798-43.171,23.431-64.946,34.792   c-0.271,0.142-0.536,0.298-0.812,0.43c-0.54,0.259-1.145,0.729-1.562-0.107c-0.36-0.725,0.293-0.979,0.757-1.265   c3.918-2.406,7.849-4.791,11.759-7.208c19.605-12.113,39.121-24.365,57.988-37.617C327.322,288.9,327.641,288.74,328.024,288.514z"
   id="path20" />
	<path
   style="fill-rule:evenodd;clip-rule:evenodd;fill:#e6e6e6"
   d="M199.529,248.309c-2.524-0.057-4.889-0.357-7.021-1.627   c-3.178-1.894-3.423-4.862-0.603-7.225c3.974-3.327,12.107-4.001,16.527-1.369c3.154,1.877,3.434,4.912,0.593,7.229   C206.243,247.587,202.907,248.216,199.529,248.309z"
   id="path22" />
	<path
   style="fill-rule:evenodd;clip-rule:evenodd;fill:#e6e6e6"
   d="M489.451,244.081c3.914,0.016,6.941,3.013,6.94,6.87   c-0.001,3.898-3.17,7.016-7.063,6.951c-3.884-0.065-6.947-3.105-6.973-6.919C482.329,247.112,485.462,244.065,489.451,244.081z    M483.796,251.012c0.025,3.284,2.519,5.781,5.706,5.715c3.126-0.064,5.471-2.553,5.462-5.796c-0.009-3.233-2.39-5.683-5.542-5.702   C486.229,245.208,483.771,247.736,483.796,251.012z"
   id="path24" />
	<path
   style="fill-rule:evenodd;clip-rule:evenodd;fill:#e6e6e6"
   d="M492.697,254.799c-0.908,0.31-1.418,0.073-1.787-0.633   c-0.378-0.722-0.864-1.388-1.247-2.107c-0.305-0.575-0.778-0.61-1.3-0.511c-0.611,0.115-0.373,0.636-0.396,0.999   c-0.038,0.611-0.018,1.227-0.019,1.84c-0.001,0.379-0.193,0.539-0.565,0.548c-0.412,0.01-0.701-0.082-0.7-0.573   c0.003-2.25,0-4.499-0.001-6.749c-0.001-0.423,0.163-0.68,0.63-0.66c1.222,0.053,2.45-0.129,3.665,0.156   c0.976,0.229,1.5,0.841,1.601,1.807c0.097,0.928-0.118,1.843-1.036,2.188c-1.025,0.386-0.732,0.82-0.311,1.43   C491.723,253.243,492.172,253.982,492.697,254.799z M489.647,250.426c0.616-0.061,1.68,0.041,1.583-1.253   c-0.109-1.48-1.365-1.024-2.246-1.154c-1.145-0.168-0.977,0.628-1.042,1.35C487.828,250.622,488.642,250.474,489.647,250.426z"
   id="path26" />
</g>
</svg>