<svg xmlns="http://www.w3.org/2000/svg" width="114,99" height="26,9" viewBox="0 0 500 117">
    <style>.svg-logo{fill:#fff}</style>
    <path class="svg-logo" fill="currentColor" fill-rule="evenodd" d="M66.15,40.5519642 C72.9966667,46.0919642 77.2566667,53.6119642 78.93,63.1119642 L61.15,63.1119642 C60.3819394,58.3522114 57.8331072,54.0624518 54.02,51.1119642 C50.2533333,48.2186309 45.5233333,46.7752976 39.83,46.7819642 C33.7125469,46.6328216 27.8261851,49.1206837 23.67,53.6119642 C19.35,58.1719642 17.1933333,64.8619642 17.2,73.6819642 C17.2066667,82.5019642 19.3633333,89.2119642 23.67,93.8119642 C27.8032432,98.3448238 33.6972989,100.865116 39.83,100.721964 C45.5233333,100.721964 50.2533333,99.2519642 54.02,96.3119642 C57.8204676,93.3287276 60.3645197,89.0291725 61.15,84.2619642 L78.93,84.2619642 C77.27,93.7686309 73.01,101.315298 66.15,106.901964 C59.29,112.488631 50.6233333,115.278631 40.15,115.271964 C32.9027845,115.414996 25.7404038,113.693269 19.35,110.271964 C13.3246661,106.943714 8.3951643,101.937786 5.16,95.8619642 C1.72,89.6552976 1.98951966e-13,82.2752976 1.98951966e-13,73.7219642 C1.98951966e-13,65.1686309 1.71333333,57.8186309 5.14,51.6719642 C8.3751643,45.5961425 13.3046661,40.5902143 19.33,37.2619642 C25.7205644,33.8410809 32.8828332,32.1193817 40.13,32.2619642 C50.61,32.2619642 59.2833333,35.0252976 66.15,40.5519642 Z M200.05,5.55196422 L200.05,114.291964 L183.3,114.291964 L183.3,5.55196422 L200.05,5.55196422 Z M276.49,37.3019642 C282.691228,40.567856 287.801213,45.5770314 291.19,51.7119642 C294.723333,57.9786309 296.486667,65.3286309 296.480019,73.7619642 C296.473333,82.1952976 294.71,89.5919642 291.19,95.9519642 C287.801213,102.086897 282.691228,107.096072 276.49,110.361964 C269.956635,113.757003 262.681952,115.475162 255.32,115.361964 C247.983055,115.479965 240.733094,113.76115 234.23,110.361964 C228.035213,107.055161 222.929832,102.026187 219.53,95.8819642 C215.95,89.5619642 214.163333,82.1886309 214.169981,73.7619642 C214.176667,65.3352976 215.963333,57.9852976 219.53,51.7119642 C222.946902,45.5984605 228.049637,40.5963923 234.23,37.3019642 C240.733094,33.9027786 247.983055,32.1839638 255.32,32.3019642 C262.678509,32.1768421 269.952901,33.8811872 276.49,37.2619642 L276.49,37.3019642 Z M243.42,49.8019642 C239.678567,51.8720643 236.633907,55.0037142 234.67,58.8019642 C232.338839,63.4211372 231.200928,68.5503333 231.36,73.7219642 C231.36,79.7219642 232.463333,84.7219642 234.67,88.7219642 C236.639274,92.5163451 239.682586,95.6466084 243.42,97.7219642 C250.875886,101.628775 259.774114,101.628775 267.23,97.7219642 C270.965239,95.643767 274.007824,92.5142507 275.98,88.7219642 C278.18,84.7219642 279.28,79.7219642 279.28,73.7219642 C279.28,67.7219642 278.18,62.7486309 275.98,58.8019642 C274.013158,55.0058294 270.969236,51.8749386 267.23,49.8019642 C259.777518,45.8813448 250.872482,45.8813448 243.42,49.8019642 L243.42,49.8019642 Z M404.16,2.80196422 C406.286743,0.88040501 409.086898,-0.122474583 411.95,0.0119642176 C414.836155,-0.115657544 417.658686,0.884960175 419.82,2.80196422 C421.7953,4.60554184 422.889986,7.17805218 422.82,9.85196422 C422.910556,12.489344 421.808695,15.0272985 419.82,16.7619642 C417.620216,18.5981221 414.812377,19.5435822 411.95,19.4119642 C409.11087,19.5510616 406.325362,18.6034883 404.16,16.7619642 C402.201761,15.0100292 401.124357,12.4777651 401.22,9.85196422 C401.121901,7.16180664 402.194274,4.56111963 404.16,2.72196422 L404.16,2.80196422 Z M420.33,33.3719642 L420.33,114.371964 L403.57,114.371964 L403.57,33.3719642 L420.33,33.3719642 Z M488.61,39.6219642 C494.343333,44.4686309 497.846667,50.9619642 499.12,59.1019642 L483.24,59.1019642 C482.71084,54.9790762 480.698903,51.1898105 477.58,48.4419642 C474.5,45.7419642 470.4,44.4419642 465.31,44.4419642 C461.09,44.4419642 457.84,45.4419642 455.53,47.4419642 C453.206814,49.5014554 451.938814,52.5005513 452.08,55.6019642 C451.977389,57.9241603 452.88987,60.1761625 454.58,61.7719642 C456.38331,63.4218693 458.512416,64.6754868 460.83,65.4519642 C464.328019,66.6113656 467.882584,67.5926258 471.48,68.3919642 C476.502905,69.4538665 481.442452,70.8775788 486.26,72.6519642 C490.032317,74.1292089 493.369298,76.5373393 495.96,79.6519642 C498.626667,82.8386309 499.96,87.1719642 499.96,92.6519642 C500.132674,99.0503743 497.2701,105.153737 492.24,109.111964 C487.1,113.331964 480.166667,115.438631 471.44,115.43198 C461.353333,115.43198 453.196667,113.081964 446.97,108.381964 C440.743333,103.681964 437.006667,97.0719642 435.76,88.5519642 L452.08,88.5519642 C452.4729,92.7875416 454.601352,96.6716056 457.96,99.2819642 C461.386667,102.035298 465.893333,103.408631 471.48,103.401964 C475.48,103.401964 478.64,102.348631 480.96,100.241964 C483.232439,98.2129805 484.49775,95.2874049 484.42,92.2419642 C484.545842,89.7101083 483.581158,87.2456146 481.77,85.4719642 C479.864194,83.7256276 477.611994,82.4002025 475.16,81.5819642 C471.595288,80.404204 467.961828,79.4457452 464.28,78.7119642 C459.422965,77.6395071 454.637113,76.2668727 449.95,74.6019642 C446.280203,73.2371306 443.034657,70.9297229 440.54,67.9119642 C437.94,64.8186309 436.643333,60.6286309 436.65,55.3419642 C436.465155,48.8811733 439.318956,42.7071914 444.36,38.6619642 C449.513333,34.3886309 456.643333,32.2552976 465.75,32.2619486 C475.25,32.2619486 482.87,34.6919642 488.61,39.5519642 L488.61,39.6219642 Z M168.08,71.2119642 C168.166964,64.5134419 166.520333,57.9062488 163.3,52.0319642 C160.126942,46.3105509 155.383773,41.6159586 149.63,38.5019642 C136.539242,31.9133004 121.09532,31.9430003 108.03,38.5819642 C102.005372,41.9066053 97.0757826,46.9091485 93.84,52.9819642 C90.4133333,59.2486309 88.7,66.5819642 88.7,74.9819642 C88.7,83.5152976 90.4133333,90.9152976 93.84,97.1819642 C97.0723797,103.239527 101.990676,108.230764 108,111.551964 C114.390564,114.972848 121.552833,116.694547 128.8,116.551964 C135.122197,116.642227 141.389019,115.362936 147.17,112.801964 C157.728932,108.209573 165.288924,98.6375878 167.31,87.3019642 L149.38,87.3019642 C148.586003,91.8667045 146.024038,95.9342289 142.25,98.6219642 C138.108499,101.546027 133.127221,103.041463 128.06,102.881964 C122.146779,103.054104 116.401979,100.899803 112.06,96.8819642 C107.753333,92.8819642 105.45,86.7086309 105.15,78.3619642 L167.48,78.3619642 C167.903806,75.9757894 168.104672,73.5553572 168.08,71.1319642 L168.08,71.2119642 Z M112.37,52.9819642 C116.880352,48.9387062 122.775724,46.789725 128.83,46.9819642 C132.774923,46.9406655 136.675038,47.8206739 140.22,49.5519642 C143.71896,51.2830936 146.59452,54.0573277 148.45,57.4919642 C150.043113,60.4462956 150.955375,63.7195053 151.12,67.0719642 L105.53,67.0719642 C106.41,60.9852976 108.69,56.2619642 112.37,52.9019642 L112.37,52.9819642 Z M377.51,41.3819642 C383.203333,47.4819642 386.053333,56.1786309 386.06,67.4719642 L386.06,114.791964 L369.25,114.791964 L369.25,69.1619642 C369.25,61.8886309 367.383333,56.2619642 363.65,52.2819642 C359.916667,48.3019642 354.806667,46.3019642 348.32,46.2819642 C341.653333,46.2819642 336.296667,48.4186309 332.25,52.6919642 C328.203333,56.9652976 326.203333,63.2319642 326.25,71.4919642 L326.25,114.681964 L309.45,114.681964 L309.45,33.4919642 L326.25,33.4919642 L326.25,51.3219642 C328.195816,45.5146814 332.038548,40.5307533 337.16,37.1719642 C342.430624,33.7885017 348.588055,32.0481311 354.85,32.1719642 C364.283333,32.1657867 371.836667,35.2086309 377.51,41.3019642 L377.51,41.3819642 Z"></path>
</svg>