<?xml version="1.0" encoding="UTF-8" standalone="no"?>
<svg
   xmlns:dc="http://purl.org/dc/elements/1.1/"
   xmlns:cc="http://creativecommons.org/ns#"
   xmlns:rdf="http://www.w3.org/1999/02/22-rdf-syntax-ns#"
   xmlns:svg="http://www.w3.org/2000/svg"
   xmlns="http://www.w3.org/2000/svg"
   xmlns:sodipodi="http://sodipodi.sourceforge.net/DTD/sodipodi-0.dtd"
   xmlns:inkscape="http://www.inkscape.org/namespaces/inkscape"
   version="1.1"
   id="svg2"
   xml:space="preserve"
   width="751.5733"
   height="83.666664"
   viewBox="0 0 751.5733 83.666664"
   sodipodi:docname="CIE-white.eps"><metadata
     id="metadata8"><rdf:RDF><cc:Work
         rdf:about=""><dc:format>image/svg+xml</dc:format><dc:type
           rdf:resource="http://purl.org/dc/dcmitype/StillImage" /></cc:Work></rdf:RDF></metadata><defs
     id="defs6" /><sodipodi:namedview
     pagecolor="#ffffff"
     bordercolor="#666666"
     borderopacity="1"
     objecttolerance="10"
     gridtolerance="10"
     guidetolerance="10"
     inkscape:pageopacity="0"
     inkscape:pageshadow="2"
     inkscape:window-width="640"
     inkscape:window-height="480"
     id="namedview4" /><g
     id="g10"
     inkscape:groupmode="layer"
     inkscape:label="ink_ext_XXXXXX"
     transform="matrix(1.3333333,0,0,-1.3333333,0,83.666667)"><g
       id="g12"
       transform="scale(0.1)"><path
         d="m 212.762,406.305 c -15.84,-24.621 -48.903,-43.821 -88.332,-43.821 -71.137,0 -124.43390625,52.922 -124.43390625,125.418 0,72.465 53.29690625,125.414 124.43390625,125.414 29.66,0 61.687,-11.125 82.609,-37.773 l -21.246,-15.844 c -9.449,15.524 -36.074,31.364 -61.363,31.364 -61.3675,0 -98.1292,-48.215 -98.1292,-103.161 0,-54.976 36.7617,-103.187 98.1292,-103.187 24.949,0 50.558,8.094 68.445,35.75 l 19.887,-14.16"
         style="fill:#ffffff;fill-opacity:1;fill-rule:nonzero;stroke:none"
         id="path14" /><path
         d="m 261.051,441.363 c 2.691,-31.683 26.648,-56.625 57.984,-56.625 23.613,0 41.82,13.125 50.582,27.285 l 17.196,-14.16 c -18.555,-23.59 -41.797,-33.383 -67.778,-33.383 -46.855,0 -81.597,35.407 -81.597,82.954 0,47.543 34.742,82.929 79.578,82.929 47.89,-0.32 75.519,-35.726 75.519,-78.883 v -10.117 z m 107.207,18.211 c 0,30.004 -19.219,50.578 -51.242,50.578 -28.996,0 -55.301,-24.621 -55.301,-50.578 h 106.543"
         style="fill:#ffffff;fill-opacity:1;fill-rule:nonzero;stroke:none"
         id="path16" /><path
         d="m 454.324,526.324 c 1.012,-8.437 1.012,-16.847 1.012,-25.293 H 456 c 9.793,17.199 32.023,29.344 52.949,29.344 40.121,0 59.317,-22.578 59.317,-61.687 V 368.535 h -22.235 v 87.32 c 0,35.067 -9.793,54.286 -42.832,54.286 -4.711,0 -47.863,-3.039 -47.863,-60.676 v -80.93 h -22.258 v 123.074 c 0,8.414 -1.012,23.243 -1.68,34.715 h 22.926"
         style="fill:#ffffff;fill-opacity:1;fill-rule:nonzero;stroke:none"
         id="path18" /><path
         d="m 702.191,506.098 h -45.523 v -93.043 c 0,-23.614 9.105,-28.325 22.949,-28.325 7.75,0 16.188,2.344 22.918,6.067 l 1.012,-20.578 c -8.09,-3.703 -18.871,-5.727 -30,-5.727 -16.879,0 -39.137,7.43 -39.137,42.145 v 99.461 h -33.359 v 20.23 h 33.359 v 44.516 h 22.258 v -44.516 h 45.523 v -20.23"
         style="fill:#ffffff;fill-opacity:1;fill-rule:nonzero;stroke:none"
         id="path20" /><path
         d="m 748.078,441.363 c 2.692,-31.683 26.652,-56.625 57.985,-56.625 23.613,0 41.824,13.125 50.585,27.285 l 17.196,-14.16 c -18.551,-23.59 -41.801,-33.383 -67.781,-33.383 -46.856,0 -81.567,35.407 -81.567,82.954 0,47.543 34.711,82.929 79.547,82.929 47.887,-0.32 75.523,-35.726 75.523,-78.883 v -10.117 z m 107.215,18.211 c 0,30.004 -19.227,50.578 -51.25,50.578 -28.992,0 -55.293,-24.621 -55.293,-50.578 h 106.543"
         style="fill:#ffffff;fill-opacity:1;fill-rule:nonzero;stroke:none"
         id="path22" /><path
         d="m 922.465,477.105 c 0,14.161 -0.672,26.305 -1.36,49.223 h 21.911 v -29.336 h 0.691 c 6.387,16.875 22.922,33.387 50.559,33.387 6.414,0 11.814,-0.668 16.524,-2.027 l -4.39,-21.911 c -2.69,1.012 -6.732,1.68 -12.802,1.68 -33.703,0 -48.879,-29.34 -48.879,-50.578 v -89 h -22.254 v 108.562"
         style="fill:#ffffff;fill-opacity:1;fill-rule:nonzero;stroke:none"
         id="path24" /><path
         d="M 1199.33,506.098 H 1161.9 V 368.543 h -22.26 v 137.555 h -33.36 v 20.23 h 33.36 v 43.156 c 0,41.797 20.92,57.985 52.95,57.985 6.39,0 12.81,-1.012 19.22,-2.344 l -4.04,-20.234 c -5.41,1.332 -11.48,2.343 -17.2,2.343 -24.63,0 -28.67,-17.515 -28.67,-40.441 v -40.465 h 37.43 v -20.23"
         style="fill:#ffffff;fill-opacity:1;fill-rule:nonzero;stroke:none"
         id="path26" /><path
         d="m 1301.18,364.492 c -48.9,0 -83.61,35.406 -83.61,82.953 0,47.524 34.71,82.93 83.61,82.93 49.23,0 83.94,-35.406 83.94,-82.93 0,-47.547 -34.71,-82.953 -83.94,-82.953 m 0,145.653 c -36.42,0 -59.34,-27.317 -59.34,-62.7 0,-35.406 22.92,-62.722 59.34,-62.722 36.74,0 59.67,27.316 59.67,62.722 0,35.383 -22.93,62.7 -59.67,62.7"
         style="fill:#ffffff;fill-opacity:1;fill-rule:nonzero;stroke:none"
         id="path28" /><path
         d="m 1428.02,477.105 c 0,14.161 -0.66,26.305 -1.35,49.223 h 21.91 v -29.336 h 0.69 c 6.39,16.875 22.92,33.387 50.56,33.387 6.41,0 11.81,-0.668 16.52,-2.027 l -4.38,-21.911 c -2.7,1.012 -6.74,1.68 -12.81,1.68 -33.7,0 -48.88,-29.34 -48.88,-50.578 v -89 h -22.26 v 108.562"
         style="fill:#ffffff;fill-opacity:1;fill-rule:nonzero;stroke:none"
         id="path30" /><path
         d="M 21.2539,7.39063 H 60.707 V 298.543 H 21.2539 V 7.39063"
         style="fill:#ffffff;fill-opacity:1;fill-rule:nonzero;stroke:none"
         id="path32" /><path
         d="m 163.57,298.551 h 58.801 L 314.895,78.1406 h 1.656 l 91.687,220.4104 h 58.797 V 7.40625 h -39.48 V 246.738 h -0.809 L 328.469,7.40625 H 302.141 L 203.863,246.738 h -0.812 V 7.40625 H 163.57 V 298.551"
         style="fill:#ffffff;fill-opacity:1;fill-rule:nonzero;stroke:none"
         id="path34" /><path
         d="m 567.063,298.551 h 58.792 L 718.387,78.1406 h 1.648 l 91.692,220.4104 h 58.796 V 7.40625 H 831.047 V 246.738 H 830.23 L 731.957,7.40625 H 705.629 L 607.355,246.738 h -0.812 V 7.40625 h -39.48 V 298.551"
         style="fill:#ffffff;fill-opacity:1;fill-rule:nonzero;stroke:none"
         id="path36" /><path
         d="m 973.434,298.551 h 187.916 v -37.004 h -148.44 v -86.785 h 138.18 V 137.758 H 1012.91 V 44.4102 h 155.84 V 7.40625 H 973.434 V 298.551"
         style="fill:#ffffff;fill-opacity:1;fill-rule:nonzero;stroke:none"
         id="path38" /><path
         d="m 1255.59,298.551 h 102.4 c 74.44,0 93.34,-44.828 93.34,-81.418 0,-37.016 -27.56,-71.949 -71.55,-76.887 L 1462.43,7.40625 h -49.34 L 1339.06,135.703 h -43.99 V 7.40625 h -39.48 z m 39.48,-128.301 h 51.82 c 31.23,0 62.5,7.402 62.5,46.883 0,39.476 -31.27,46.879 -62.5,46.879 h -51.82 V 170.25"
         style="fill:#ffffff;fill-opacity:1;fill-rule:nonzero;stroke:none"
         id="path40" /><path
         d="m 1546.39,68.2734 c 13.99,-21.3906 38.25,-31.2656 61.68,-31.2656 25.91,0 57.99,16.461 57.99,48.5352 0,67.02 -143.53,25.488 -143.53,138.988 0,34.125 28.8,81.422 98.69,81.422 31.69,0 62.11,-6.586 83.89,-33.308 l -32.07,-29.184 c -9.87,15.195 -29.19,25.48 -51.82,25.48 -43.57,0 -56.74,-26.324 -56.74,-44.41 0,-73.601 143.53,-29.605 143.53,-134.4685 0,-56.3359 -45.26,-90.05859375 -101.17,-90.05859375 -37.43,0 -73.2,12.75389375 -92.95,40.31639375 l 32.5,27.9531"
         style="fill:#ffffff;fill-opacity:1;fill-rule:nonzero;stroke:none"
         id="path42" /><path
         d="m 1797.3,298.543 h 39.48 V 7.39063 H 1797.3 V 298.543"
         style="fill:#ffffff;fill-opacity:1;fill-rule:nonzero;stroke:none"
         id="path44" /><path
         d="m 1902.6,298.551 h 45.64 l 85.52,-236.8635 h 0.84 l 88.83,236.8635 h 43.15 L 2051.87,7.40625 h -37.01 L 1902.6,298.551"
         style="fill:#ffffff;fill-opacity:1;fill-rule:nonzero;stroke:none"
         id="path46" /><path
         d="m 2232.46,298.551 h 187.91 v -37.004 h -148.43 v -86.785 h 138.17 V 137.758 H 2271.94 V 44.4102 h 155.84 V 7.40625 H 2232.46 V 298.551"
         style="fill:#ffffff;fill-opacity:1;fill-rule:nonzero;stroke:none"
         id="path48" /><path
         d="m 2659.81,298.551 h 187.91 v -37.004 h -148.44 v -86.785 h 138.17 V 137.758 H 2699.28 V 44.4102 h 155.84 V 7.40625 H 2659.81 V 298.551"
         style="fill:#ffffff;fill-opacity:1;fill-rule:nonzero;stroke:none"
         id="path50" /><path
         d="m 3009.41,160.383 -97.88,138.176 h 50.58 l 75.68,-111.848 74.83,111.848 h 49.35 L 3064.92,160.805 3171.84,7.41016 h -51.82 L 3036.55,133.664 2952.66,7.41016 h -48.93 L 3009.41,160.383"
         style="fill:#ffffff;fill-opacity:1;fill-rule:nonzero;stroke:none"
         id="path52" /><path
         d="m 3239.34,298.551 h 102.4 c 74.43,0 93.34,-44.828 93.34,-81.418 0,-36.594 -18.91,-81.43 -93.34,-81.43 h -62.92 V 7.40625 h -39.48 z m 39.48,-128.301 h 51.82 c 31.26,0 62.49,7.402 62.49,46.883 0,39.476 -31.23,46.879 -62.49,46.879 h -51.82 V 170.25"
         style="fill:#ffffff;fill-opacity:1;fill-rule:nonzero;stroke:none"
         id="path54" /><path
         d="M 3514.09,298.551 H 3702 v -37.004 h -148.43 v -86.785 h 138.17 V 137.758 H 3553.57 V 44.4102 h 155.84 V 7.40625 H 3514.09 V 298.551"
         style="fill:#ffffff;fill-opacity:1;fill-rule:nonzero;stroke:none"
         id="path56" /><path
         d="m 3796.25,298.551 h 102.4 c 74.44,0 93.34,-44.828 93.34,-81.418 0,-37.016 -27.56,-71.949 -71.56,-76.887 L 4003.1,7.40625 h -49.36 L 3879.73,135.703 h -44 V 7.40625 h -39.48 z m 39.48,-128.301 h 51.81 c 31.27,0 62.5,7.402 62.5,46.883 0,39.476 -31.23,46.879 -62.5,46.879 h -51.81 V 170.25"
         style="fill:#ffffff;fill-opacity:1;fill-rule:nonzero;stroke:none"
         id="path58" /><path
         d="m 4078.42,298.543 h 39.48 V 7.39063 h -39.48 V 298.543"
         style="fill:#ffffff;fill-opacity:1;fill-rule:nonzero;stroke:none"
         id="path60" /><path
         d="m 4223.61,298.551 h 187.92 v -37.004 h -148.44 v -86.785 h 138.17 V 137.758 H 4263.09 V 44.4102 h 155.84 V 7.40625 H 4223.61 V 298.551"
         style="fill:#ffffff;fill-opacity:1;fill-rule:nonzero;stroke:none"
         id="path62" /><path
         d="m 4505.76,298.551 h 51.81 L 4717.93,59.2148 h 0.84 V 298.551 h 39.47 V 7.40625 h -50.15 L 4546.06,246.738 h -0.82 V 7.40625 h -39.48 V 298.551"
         style="fill:#ffffff;fill-opacity:1;fill-rule:nonzero;stroke:none"
         id="path64" /><path
         d="m 5066.75,235.637 c -16.45,21.39 -43.59,33.312 -70.31,33.312 -65.39,0 -108.57,-52.238 -108.57,-118.437 0,-61.2659 40.71,-113.4807 108.57,-113.4807 33.31,0 58.79,14.7812 76.06,39.0664 l 33.31,-25.0938 c -8.63,-11.918 -43.59,-50.9765562 -110.19,-50.9765562 -92.55,0 -149.7,77.2968562 -149.7,150.4846562 0,90.476 62.11,155.441 151.75,155.441 38.24,0 78.53,-14.383 101.97,-45.223 l -32.89,-25.093"
         style="fill:#ffffff;fill-opacity:1;fill-rule:nonzero;stroke:none"
         id="path66" /><path
         d="m 5184.43,298.551 h 187.92 v -37.004 h -148.44 v -86.785 h 138.17 V 137.758 H 5223.91 V 44.4102 h 155.84 V 7.40625 H 5184.43 V 298.551"
         style="fill:#ffffff;fill-opacity:1;fill-rule:nonzero;stroke:none"
         id="path68" /><path
         d="m 5475.23,68.2734 c 13.96,-21.3906 38.24,-31.2656 61.68,-31.2656 25.9,0 57.96,16.461 57.96,48.5352 0,67.02 -143.5,25.488 -143.5,138.988 0,34.125 28.79,81.422 98.69,81.422 31.66,0 62.08,-6.586 83.89,-33.308 l -32.07,-29.184 c -9.88,15.195 -29.22,25.48 -51.82,25.48 -43.57,0 -56.75,-26.324 -56.75,-44.41 0,-73.601 143.5,-29.605 143.5,-134.4685 0,-56.3359 -45.23,-90.05859375 -101.13,-90.05859375 -37.44,0 -73.22,12.75389375 -92.95,40.31639375 l 32.5,27.9531"
         style="fill:#ffffff;fill-opacity:1;fill-rule:nonzero;stroke:none"
         id="path70" /></g></g></svg>
