<?xml version="1.0" encoding="utf-8"?>
<!-- Generator: Adobe Illustrator 21.1.0, SVG Export Plug-In . SVG Version: 6.00 Build 0)  -->
<svg version="1.1" id="Layer_1" xmlns="http://www.w3.org/2000/svg" xmlns:xlink="http://www.w3.org/1999/xlink" x="0px" y="0px"
	 viewBox="0 0 600 600" style="enable-background:new 0 0 600 600;" xml:space="preserve">
<style type="text/css">
	.st0{display:none;}
	.st1{display:inline;fill:#24587C;}
	.st2{clip-path:url(#SVGID_2_);}
	.st3{fill:#48BFAB;}
	.st4{fill:#C4E7E7;}
	.st5{fill:#7AC366;}
	.st6{fill:#91C849;}
	.st7{fill:#666666;}
	.st8{fill:#C8D02E;}
	.st9{fill:#85C557;}
	.st10{fill:#AACF38;}
	.st11{fill:#BACF34;}
	.st12{fill:#9ECC3D;}
	.st13{fill:#63BF7F;}
	.st14{fill:#6AC077;}
	.st15{fill:#4CBEA0;}
	.st16{fill:#55BE94;}
	.st17{fill:#3CBFBE;}
</style>
<g class="st0">
	<path class="st1" d="M95.1,265c0-3.1,0-6.2,0-9.4c0-3.2-1.3-5.5-4.1-7.1c-2.3-1.3-4.5-2.6-6.8-3.9c-2.6-1.5-3.9-3.7-3.9-6.7
		c0-4.2,0-8.4,0-12.5c0-3,1.3-5.2,3.9-6.7c3.5-2,7.1-4,10.6-6.1c2.8-1.6,5.4-1.6,8.2,0c3.5,2.1,7.1,4.1,10.7,6.2
		c2.5,1.4,3.7,3.6,3.7,6.4c0,4.3,0,8.5,0,12.8c0,2.8-1.2,4.9-3.7,6.3c-2.4,1.4-4.8,2.9-7.2,4.2c-2.5,1.4-3.8,3.5-3.8,6.4
		c0,6.7,0.1,13.4,0,20.1c-0.1,5.1,5.6,8.9,10.5,6.1c5.6-3.2,11.1-6.4,16.7-9.6c2.4-1.4,3.5-3.5,3.6-6.3c0-2.7,0.1-5.3,0-8
		c-0.1-3.2,1.3-5.5,4.1-7.1c3.4-1.9,6.8-3.8,10.1-5.9c2.9-1.8,5.7-1.8,8.7,0c3.4,2.1,6.9,4,10.4,6c2.6,1.5,3.9,3.7,3.8,6.7
		c0,4.2,0,8.4,0,12.5c0,3-1.2,5.2-3.8,6.7c-3.2,1.8-6.3,3.5-9.5,5.3c-0.3,0.2-0.6,0.3-0.9,0.6c-2.5,2-5.2,2-8,0.5
		c-2.5-1.4-4.9-2.8-7.4-4.3c-1.1-0.7-2.3-1-3.7-1c-1.3,0-2.5,0.3-3.5,0.9c-5.5,3.2-11,6.3-16.4,9.5c-2.6,1.5-3.8,3.8-3.7,6.9
		c0.1,2.5,1.3,4.3,3.3,5.5c5.5,3.2,11,6.1,16.5,9.4c2.8,1.7,5.4,1.4,8.1-0.3c2.4-1.5,4.8-2.8,7.3-4.1c2.1-1.1,4.3-1.1,6.3,0.1
		c4,2.3,8.1,4.6,12,6.9c2.2,1.3,3.2,3.4,3.3,5.9c0,4.4,0,8.9,0,13.4c0,2.6-1.2,4.6-3.4,5.9c-3.1,1.9-6.3,3.6-9.4,5.4
		c-0.9,0.5-1.8,0.9-2.7,1.4c-2.3,1.3-4.6,1.1-6.8-0.2c-3-1.7-6-3.4-8.9-5.2c-0.8-0.5-1.6-0.9-2.4-1.4c-2.3-1.4-3.5-3.5-3.5-6.1
		c-0.1-2.8,0-5.7,0-8.5c0-2.9-1.2-5-3.7-6.4c-5.4-3.2-10.9-6.3-16.3-9.4c-4.5-2.6-9.4,0.3-10.4,4.1c-0.2,0.6-0.2,1.3-0.2,1.9
		c0,6.4,0,12.8,0,19.1c0,2.7,1.2,4.8,3.5,6.2c2.5,1.5,5.1,2.9,7.6,4.4c1.9,1.1,3,2.7,3.4,4.8c0.1,0.5,0.1,1.1,0.1,1.6
		c0,4.2,0,8.4,0,12.7c0,2.9-1.3,5.1-3.8,6.6c-3.7,2.1-7.4,4.3-11.1,6.4c-2.3,1.3-4.7,1.4-7.1,0.1c-3.9-2.2-7.7-4.4-11.6-6.7
		c-2.3-1.3-3.4-3.4-3.5-6c-0.1-4.4-0.1-8.8,0-13.2c0-2.7,1.3-4.8,3.7-6.2c2.3-1.4,4.6-2.7,7-4c2.8-1.5,4-3.9,4-7
		c0-6.1,0-12.2,0-18.3c0-3.8-2.3-6.6-5.9-7.3c-1.8-0.4-3.5,0.1-5,1c-3.7,2.2-7.5,4.3-11.2,6.5c-1.6,0.9-3.3,1.9-4.9,2.8
		c-2.6,1.5-3.9,3.7-3.9,6.7c0,2.7,0,5.4,0,8.1c0,2.9-1.2,5.1-3.8,6.6c-3.7,2.1-7.4,4.3-11.1,6.4c-2.3,1.3-4.7,1.4-7.1,0.1
		c-3.9-2.2-7.7-4.4-11.6-6.7c-2.3-1.3-3.4-3.5-3.4-6.1c-0.1-4.4-0.1-8.7,0-13.1c0-2.7,1.2-4.8,3.6-6.2c3.8-2.2,7.5-4.4,11.3-6.5
		c2.3-1.3,4.6-1.3,7-0.1c1.8,0.9,3.5,2.2,5.2,3.2c1.2,0.7,2.3,1.3,3.6,1.8c2,0.7,3.9,0.6,5.7-0.4c2.5-1.4,4.9-2.8,7.4-4.3
		c3.2-1.8,6.3-3.6,9.5-5.5c2.6-1.6,3.8-3.9,3.5-6.9c-0.3-2.4-1.5-4.1-3.6-5.3c-3-1.7-6-3.5-9.1-5.2c-2.4-1.4-4.8-2.7-7.1-4.1
		c-2.7-1.6-5.3-1.6-7.9,0c-2.3,1.4-4.7,2.7-7,4c-2.4,1.4-4.9,1.5-7.3,0.1c-3.8-2.2-7.6-4.3-11.3-6.5c-2.4-1.4-3.6-3.5-3.6-6.2
		c0-4.4-0.1-8.7,0-13.1c0-2.8,1.3-4.9,3.7-6.3c3.4-2,6.8-3.9,10.3-5.9c0.3-0.2,0.5-0.4,0.8-0.5c2.4-1.4,4.9-1.5,7.3-0.1
		c3.7,2.1,7.5,4.3,11.2,6.5c2.5,1.5,3.8,3.6,3.8,6.6c0,2.8,0,5.5,0,8.3c0,2.9,1.2,5,3.7,6.4c3.5,2,7.1,4,10.6,6.1
		c2,1.2,4,2.4,6.1,3.5c3.9,2.2,10.2,0.3,10.4-6.3C95.2,271.7,95.1,268.3,95.1,265z M141.1,324.8
		C141.1,324.8,141.2,324.8,141.1,324.8c0,1.6,0.1,3.1,0,4.7c0,0.5,0.1,1,0.5,1.4c0.6,0.5,1.1,1.1,1.8,1.6c2,1.1,4,2.4,6,3.5
		c1.4,0.8,2.9,1,4.4,0.1c2.3-1.3,4.6-2.6,6.9-4c1.3-0.8,2-1.9,2-3.5c0-2.6,0-5.2,0-7.8c0-1.6-0.7-2.7-2-3.5
		c-2.3-1.3-4.5-2.6-6.8-3.9c-1.3-0.8-2.7-0.8-4,0c-2.3,1.3-4.6,2.6-6.8,4c-1.3,0.8-2,1.9-2,3.5C141.1,322.1,141.1,323.5,141.1,324.8
		z M56.7,324.7C56.7,324.7,56.7,324.7,56.7,324.7c0-1.2-0.1-2.5,0-3.7c0.1-1.9-0.7-3.1-2.3-4c-2.1-1.2-4.2-2.4-6.3-3.6
		c-1.5-0.9-3-0.9-4.5,0c-2.2,1.3-4.3,2.5-6.6,3.8c-1.4,0.8-2.1,1.9-2.1,3.5c0,2.7,0,5.3,0,8c0,1.5,0.6,2.7,1.9,3.4
		c2.4,1.4,4.8,2.8,7.3,4.2c1.2,0.6,2.4,0.7,3.5,0c2.4-1.4,4.8-2.8,7.3-4.2c1.2-0.7,1.9-1.8,1.9-3.3C56.7,327.4,56.7,326,56.7,324.7z
		 M56.6,263.3C56.6,263.3,56.6,263.3,56.6,263.3c0-1.2,0-2.5,0-3.7c0.1-1.7-0.7-3-2.2-3.8c-2.2-1.2-4.3-2.5-6.4-3.7
		c-1.5-0.9-2.9-0.9-4.4,0c-2.1,1.3-4.3,2.5-6.4,3.7c-1.6,0.9-2.3,2.1-2.3,3.9c0,2.3,0.1,4.7,0,7c-0.1,2,0.7,3.4,2.5,4.4
		c1.9,1,3.9,2.1,5.7,3.4c1.6,1.1,3.1,1.2,4.7,0.3c2.3-1.3,4.6-2.6,6.9-4c1.4-0.8,2-2,2-3.5C56.6,265.9,56.6,264.6,56.6,263.3z
		 M162.9,263.3C162.9,263.3,162.9,263.3,162.9,263.3c0-1.2,0-2.5,0-3.7c0.1-1.7-0.7-3-2.2-3.8c-2.2-1.2-4.3-2.4-6.4-3.7
		c-1.5-0.9-2.9-0.9-4.4,0c-2.2,1.3-4.3,2.6-6.5,3.8c-1.5,0.9-2.2,2.1-2.2,3.8c0,2.4,0,4.9,0,7.3c0,1.8,0.7,3.1,2.4,4
		c2.1,1.1,4.2,2.3,6.2,3.6c1.6,1,3.1,0.9,4.7,0c2.2-1.3,4.3-2.5,6.5-3.8c1.3-0.8,2-1.9,2-3.5C162.9,266,162.9,264.6,162.9,263.3z
		 M109.8,355.3C109.8,355.3,109.7,355.3,109.8,355.3c0-1.3,0-2.7,0-4c0-1.4-0.6-2.6-1.8-3.3c-2.4-1.4-4.8-2.8-7.3-4.2
		c-1.2-0.7-2.4-0.6-3.6,0c-2.4,1.4-4.9,2.8-7.3,4.2c-1.2,0.7-1.8,1.8-1.8,3.2c0,2.7-0.1,5.5,0,8.2c0,1.3,0.5,2.4,1.7,3.1
		c2.5,1.5,5,2.9,7.5,4.3c1.1,0.6,2.3,0.6,3.4,0c2.4-1.3,4.8-2.8,7.2-4.2c1.3-0.8,1.9-1.9,1.9-3.4
		C109.7,357.9,109.8,356.6,109.8,355.3z M109.7,231.8c0-1.4,0-2.8,0-4.1c0-1.5-0.6-2.6-1.9-3.3c-2.4-1.4-4.8-2.8-7.1-4.1
		c-1.2-0.7-2.5-0.7-3.7,0c-2.4,1.4-4.8,2.7-7.1,4.1c-1.2,0.7-1.9,1.9-1.9,3.3c0,2.7,0,5.4,0,8.1c0,1.4,0.6,2.5,1.8,3.2
		c2.4,1.4,4.8,2.8,7.1,4.1c1.3,0.7,2.5,0.7,3.8,0c2.3-1.3,4.7-2.7,7-4c1.3-0.8,1.9-1.9,1.9-3.4C109.7,234.4,109.7,233.1,109.7,231.8
		z"/>
	<path class="st1" d="M568.3,298.4c0.3-0.7,0.2-1.2,0.2-1.7c0-5.4,0-10.8,0-16.2c0-0.5,0-1,0.1-1.5c0.3-1.3,1.4-2.1,2.7-2
		c1.3,0.1,2.3,1.1,2.4,2.4c0,0.3,0,0.6,0,1c0,8.6,0,17.2,0,25.9c0,0.2,0,0.5,0,0.7c0,1.3-0.6,2.1-1.7,2.5c-1.1,0.4-2.1,0.1-2.9-0.9
		c-1.3-1.7-2.5-3.5-3.8-5.2c-3.4-4.7-6.8-9.4-10.2-14.2c-0.3-0.4-0.5-0.8-1-1.1c-0.3,0.5-0.2,1-0.2,1.5c0,5.5,0,10.9,0,16.4
		c0,0.5,0,0.9,0,1.4c-0.2,1.3-1.2,2.2-2.4,2.3c-1.3,0.1-2.4-0.7-2.7-2c-0.1-0.3-0.1-0.5-0.1-0.8c0-9.1,0-18.2,0-27.2
		c0-2,1.8-2.9,3.2-2.6c0.8,0.2,1.3,0.8,1.8,1.4c2,2.8,4,5.6,6,8.4c2.6,3.6,5.3,7.3,7.9,10.9C567.8,297.8,568,298.1,568.3,298.4z"/>
	<path class="st1" d="M364.9,270.5c-0.2,0.6-0.1,1.2-0.1,1.7c0,15.5,0,31.1,0,46.6c0,0.5,0,1-0.1,1.5c-0.1,0.6-0.5,0.8-1.1,0.8
		c-0.5,0-0.8-0.3-0.9-0.9c0-0.3,0-0.6,0-1c0-17.1,0-34.2,0-51.3c0-0.3,0-0.6,0-0.8c0-0.5,0.2-0.9,0.7-1.1c0.5-0.2,0.9,0,1.3,0.3
		c0.3,0.3,0.5,0.6,0.8,1c6.5,9,12.9,17.9,19.4,26.9c0.3,0.4,0.5,0.9,1,1.2c0.5-0.2,0.7-0.7,1-1.1c6.5-9,13-18,19.5-27
		c0.3-0.4,0.5-0.8,0.9-1.1c0.7-0.6,1.7-0.2,1.8,0.7c0,0.3,0,0.6,0,1c0,17.1,0,34.1,0,51.2c0,0.3,0,0.6,0,1c0,0.6-0.3,1-0.9,1
		c-0.6,0.1-1-0.3-1.1-1c-0.1-0.4,0-0.9-0.1-1.4c0-15.5,0-31.1,0-46.6c0-0.5,0-1,0-1.6c-0.6,0.2-0.8,0.7-1.1,1.1
		c-6.1,8.4-12.1,16.8-18.1,25.2c-0.3,0.4-0.5,0.8-0.8,1.1c-0.6,0.6-1.4,0.5-1.9-0.1c-0.2-0.2-0.4-0.5-0.6-0.8
		c-6.1-8.5-12.2-17-18.3-25.5C365.7,271.2,365.4,270.8,364.9,270.5z"/>
	<path class="st1" d="M462.9,321.5c-5.2,0.1-10-1.3-14.5-3.7c-1.8-0.9-3.4-2-5-3.1c-0.5-0.3-1-0.7-1.3-1.2c-0.4-0.6-0.4-1.1,0-1.5
		c0.5-0.4,0.9-0.3,1.4,0c0.4,0.3,0.7,0.6,1.1,0.9c5.2,3.8,10.9,6.2,17.4,6.5c4.6,0.2,9-0.7,13-3.2c1.3-0.8,2.5-1.7,3.5-2.9
		c2.9-3.1,3.6-6.7,2.6-10.7c-0.3-1.3-1-2.4-2-3.4c-1.8-1.6-3.7-2.9-6.1-3.7c-3.4-1.1-6.9-1.9-10.4-2.8c-2.8-0.7-5.6-1.5-8.3-2.5
		c-2.5-0.9-4.5-2.4-6.3-4.2c-0.5-0.5-0.9-1.1-1.2-1.7c-1.9-4.3-2-8.6,1.1-12.4c2.8-3.4,6.5-5.4,10.8-6.1c7-1.1,13.4,0.4,19.1,4.7
		c0.6,0.5,1.2,1,1.7,1.6c0.4,0.6,0.4,1.1,0,1.5c-0.5,0.4-1,0.4-1.5,0c-0.1-0.1-0.3-0.3-0.4-0.4c-3.5-3.3-7.7-5.1-12.5-5.5
		c-3.4-0.3-6.8,0-10,1.4c-1.7,0.7-3.1,1.7-4.5,2.9c-4.8,4.4-3.5,11.6,1.5,14.8c1.9,1.2,4,2,6.2,2.6c3.3,0.9,6.7,1.6,10,2.5
		c2.1,0.5,4.2,1.2,6.3,1.9c2.7,0.9,4.9,2.7,6.7,4.8c2,2.4,2.3,5.2,2.1,8.2c-0.3,3.7-2,6.7-4.8,9.1c-4.2,3.7-9.2,5.3-14.8,5.5
		C463.5,321.5,463.2,321.5,462.9,321.5z"/>
	<path class="st1" d="M240,293.4c0-8.3,0-16.5,0-24.8c0-0.3,0-0.6,0-0.8c0-1.8,0.2-2,2-2c3.8,0,7.5,0,11.3,0c5.4,0,10.8,0,16.2,0
		c0.4,0,0.7,0,1.1,0c0.6,0.1,0.8,0.5,0.8,1.1c0,0.5-0.3,0.9-0.8,0.9c-0.4,0-0.8,0-1.2,0c-8.5,0-17.1,0-25.6,0
		c-1.9,0-1.6-0.2-1.7,1.7c0,7,0,14,0,21.1c0,0.2,0,0.4,0,0.6c0,1.2,0,1.2,1.2,1.2c7.5,0,15,0,22.6,0c0.4,0,0.7,0,1.1,0
		c0.8,0.1,1,0.3,1,1c0,0.7-0.3,1-1,1c-0.3,0-0.6,0-1,0c-7.4,0-14.9,0-22.3,0c-0.4,0-0.7,0-1.1,0c-0.4,0-0.6,0.2-0.6,0.6
		c0,0.3,0,0.6,0,0.8c0,7.2,0,14.5,0,21.7c0,0.2,0,0.5,0,0.7c0,0.5,0.2,0.7,0.7,0.7c0.4,0,0.7,0,1.1,0c8.4,0,16.9,0,25.3,0
		c0.4,0,0.8,0,1.2,0c0.7,0.1,1,0.4,0.9,1.1c0,0.6-0.4,0.9-1,0.9c-0.3,0-0.6,0-0.8,0c-9.3,0-18.5,0-27.8,0c-0.2,0-0.5,0-0.7,0
		c-0.7,0-1-0.4-1.1-1c0-0.4,0-0.8,0-1.2C240,310.4,240,301.9,240,293.4z"/>
	<path class="st1" d="M524.1,291.3c0,3.9,0,7.8,0,11.7c0,1.3,0,1.3,1.3,1.3c3.6,0,7.2,0,10.9,0c0.5,0,1.1,0,1.6,0.2
		c1.1,0.5,1.7,1.6,1.6,2.8c-0.1,1.2-1.1,2.2-2.4,2.3c-0.3,0-0.5,0-0.8,0c-4.8,0-9.5-0.1-14.3,0c-1.8,0-3.2-1-3.2-3.2
		c0.1-8.9,0-17.8,0-26.7c0-0.3,0-0.6,0-0.8c0.1-1.4,1.2-2.3,2.6-2.4c1.4,0,2.6,1,2.7,2.4c0.1,2,0,3.9,0,5.9
		C524.1,287,524.1,289.1,524.1,291.3z"/>
	<path class="st1" d="M302.6,293.4c0-8.5,0-17,0-25.5c0-0.4,0-0.8,0-1.2c0.1-0.6,0.4-0.9,1-0.9c0.6,0,0.9,0.3,1,0.9
		c0,0.4,0,0.8,0,1.2c0,16.4,0,32.8,0,49.1c0,2.1-0.3,1.9,1.9,1.9c8.4,0,16.8,0,25.2,0c0.4,0,0.8,0,1.2,0c0.8,0.1,1.2,0.4,1.1,1.1
		c0,0.7-0.5,0.9-1.1,1c-0.2,0-0.5,0-0.7,0c-9.3,0-18.6,0-27.9,0c-0.3,0-0.6,0-0.8,0c-0.6,0-0.9-0.4-0.9-1c0-0.4,0-0.8,0-1.2
		C302.6,310.4,302.6,301.9,302.6,293.4z"/>
</g>
<g id="Elms_x5F_original">
	<defs>
		<rect id="SVGID_1_" x="-41.8" y="157.6" width="685.7" height="270.8"/>
	</defs>
	<clipPath id="SVGID_2_">
		<use xlink:href="#SVGID_1_"  style="overflow:visible;"/>
	</clipPath>
	<g class="st2">
		<path class="st3" d="M98.3,374.6c-3.5-1.5-6.6-3.6-9.9-5.4c-1.2-0.7-2.5-1.4-3.6-2.1c-1.5-1-2.7-2.3-3.2-4.1
			c-0.1-0.4-0.2-0.8-0.2-1.2c0-2,0-4,0-6c0.8,0.1,1.3,0.6,1.8,1.1c4.5,4.5,9,9,13.5,13.5c1.1,1.1,2.5,1.9,3.4,3.1
			c0.5,0.7,1,0.8,1.7,0.7c0,0.1,0,0.2,0,0.3C100.6,374.6,99.4,374.6,98.3,374.6z"/>
		<path class="st4" d="M27.8,317c0.1,0,0.3,0,0.4,0c0.2,4.8,0.1,9.7,0,14.5c-0.2,0-0.3,0-0.5,0C27.8,326.7,27.8,321.9,27.8,317z"/>
		<path class="st4" d="M574.7,278.8c0.1,0,0.1,0,0.2,0c0,9.5,0,18.9,0,28.4l-0.1,0c0,0-0.1,0-0.1,0
			C574.7,297.8,574.7,288.3,574.7,278.8z"/>
		<path class="st4" d="M28.3,270.9c-0.1,0-0.3,0-0.4,0c0-5.1,0-10.2,0-15.3c0.1,0,0.3,0,0.4,0c0,0.5,0,1-0.1,1.5
			c-0.1,2.4-0.1,4.8,0,7.3C28,266.6,28.1,268.7,28.3,270.9z"/>
		<path class="st5" d="M81.6,299.9c3.2-2,4.4-5.3,3.2-8.5c-0.5-1.4-1.4-2.6-2.8-3.4c-5.7-3.3-11.3-6.6-17-9.7c-2-1.1-4-1.4-6.1-0.6
			c-0.2,0.1-0.3,0.1-0.5,0.1c0-0.2-0.1-0.4-0.2-0.6c-1.7-1.7-3.3-3.3-5-5c0.7-0.4,1.4-0.9,2.2-1.3c1.5-0.8,2.2-2,2.2-3.8
			c0-1.9,0-3.8,0-5.7c0.8,0,1.3,0.4,1.9,1c1.5,1.5,3.1,3.1,4.6,4.6c0.4,0.4,0.7,0.8,1.4,0.7c0.7,1.9,2,3.2,3.7,4.1
			c0.5,0.3,1,0.7,1.5,1.1c-0.1,0.7,0.4,1.1,0.8,1.5c9,8.9,17.8,18.1,27,26.8c2,1.9,3.9,3.9,5.8,5.8c0.4,0.4,0.7,0.8,1.1,1
			c-1.4,1.8-1.8,3.8-1.7,6c0.1,4.3,0,8.5,0,12.8c-0.6,0.1-1-0.3-1.4-0.7c-1.6-1.6-3.2-3.2-4.9-4.9c-0.4-0.4-0.8-0.8-1.4-0.7
			c0-2.6,0-5.2-0.1-7.8c-0.1-3.3-2.1-6-5.2-6.9c-1.2-0.3-2.4-0.2-3.7-0.1c-0.1-0.1-0.3-0.1-0.4-0.2c-1.7-1.5-3-3.3-4.8-4.6
			C81.6,300.6,81.6,300.3,81.6,299.9z"/>
		<path class="st6" d="M115.3,290.6c-0.1,0.6-0.3,1.2-0.4,1.9c-0.6,2.9,0.6,5.7,3.2,7.3c3.6,2.2,7.3,4.2,11,6.3
			c1.4,0.8,2.9,1.5,4.2,2.5c-0.1,0.6,0.2,0.9,0.5,1.3c2.6,2.6,5.2,5.2,7.8,7.8c0.3,0.3,0.5,0.5,0.9,0.5c-0.3,1-0.4,2.1-0.4,3.2
			c0,2.5,0,5,0,7.5c-0.7,0.1-1.1-0.2-1.5-0.7c-1.6-1.6-3.2-3.2-4.8-4.8c-0.3-0.3-0.6-0.8-1.2-0.8c-0.1-0.9-0.1-1.7-0.4-2.6
			c-0.6-1.9-1.8-3.2-3.5-4.2c-3.2-1.8-6.3-3.6-9.5-5.4c-0.4-0.2-0.8-0.5-1.1-0.7c0.1-0.8-0.5-1.1-0.9-1.6
			c-8.5-8.5-16.9-17.1-25.6-25.4c-0.4-0.4-1-0.7-1-1.4c0.3-0.2,0.5-0.5,0.8-0.7c1.8-1.5,2.6-3.4,2.7-5.7c0-0.7,0-1.4,0.1-2.2
			c0.2,0,0.5,0.1,0.6,0.2c1,1.1,2.2,1.9,3.2,2.9c4.5,4.5,9,9,13.4,13.5C113.9,290,114.5,290.5,115.3,290.6z"/>
		<path class="st7" d="M574.7,278.8c0,9.5,0,18.9,0,28.4c-0.2,1.1-0.9,1.8-2,2c-1.1,0.2-2-0.2-2.6-1.1c-1.7-2.3-3.4-4.6-5-7
			c-3.1-4.2-6.2-8.4-9.3-12.6c-0.2-0.2-0.2-0.6-0.8-0.6c0,0.4,0,0.9,0,1.3c0,5.5,0,11,0,16.5c0,0.5,0,0.9,0,1.4
			c-0.2,1.1-1,2-2.2,2.1c-1.2,0.2-2.3-0.4-2.7-1.5c-0.2-0.5-0.2-1.1-0.2-1.6c0-8.8,0-17.6,0-26.3c0-1.8,1-2.9,2.7-2.9
			c0.9,0,1.6,0.5,2.2,1.2c1.2,1.6,2.3,3.2,3.5,4.9c3.6,4.9,7.1,9.8,10.7,14.6c0.2,0.2,0.3,0.6,0.8,0.6c0-0.4,0-0.9,0-1.3
			c0-5.4,0-10.8,0-16.2c0-0.3,0-0.6,0-1c0.1-1.4,0.9-2.4,2.1-2.7C573,276.7,574.1,277.4,574.7,278.8z"/>
		<path class="st8" d="M136.8,251.8c0.4-0.6,1-0.9,1.6-1.2c3.5-2,7-4,10.5-6c2.8-1.7,5.5-1.7,8.4,0c3.4,2,6.8,4,10.3,5.9
			c2.7,1.5,4,3.8,4,6.9c0,4,0,8.1,0,12.1c0,3-1.3,5.3-3.9,6.8c-2,1.1-4,2.4-6.1,3.4c0.1-0.9-0.4-1.4-1-1.9c-1.5-1.1-2.8-2.5-3.9-3.9
			c1.6-1.2,3.4-2,5.1-2.9c1.6-0.9,2.3-2.2,2.3-3.9c0-2.5,0-4.9,0-7.4c0-1.7-0.7-2.9-2.2-3.8c-2.3-1.2-4.5-2.5-6.8-3.8
			c-1.3-0.8-2.6-0.8-4,0c-2.1,1.2-4.1,2.5-6.3,3.6c-0.9,0.5-1.7,1-2.3,1.9C140.8,255.5,138.8,253.7,136.8,251.8z"/>
		<path class="st7" d="M387,295.4c1.3-1.8,2.4-3.5,3.7-5.1c5.7-7.5,11.1-15.2,16.6-22.8c0.3-0.4,0.7-0.9,1.1-1.2
			c0.8-0.6,1.6-0.2,1.7,0.8c0,0.4,0,0.7,0,1.1c0,16.8,0,33.6,0,50.3c0,0.5,0,0.9,0,1.4c0,0.6-0.4,0.8-0.9,0.8c-0.5,0-0.9-0.2-1-0.7
			c-0.1-0.5-0.1-1-0.1-1.5c0-15.5,0-31,0-46.5c0-0.5,0-1,0-1.6c-0.6,0.2-0.8,0.7-1,1c-4.6,6.3-9.1,12.7-13.7,19
			c-1.7,2.3-3.4,4.6-5.1,6.9c-0.9,1.2-1.7,1.2-2.6,0c-2.6-3.6-5.1-7.2-7.7-10.7c-3.8-5.1-7.5-10.3-11.2-15.4
			c-0.2-0.2-0.3-0.5-0.6-0.6c-0.2,0.5-0.1,1-0.1,1.5c0,15.5,0,30.9,0,46.4c0,0.5,0,0.9,0,1.4c0,0.6-0.4,0.9-1,0.9
			c-0.6,0-0.9-0.3-1-0.9c0-0.3,0-0.6,0-1c0-16.9,0-33.8,0-50.8c0-0.2,0-0.5,0-0.7c0-0.6,0.2-1.1,0.8-1.3c0.6-0.2,1.1,0.1,1.4,0.6
			c0.2,0.2,0.4,0.5,0.6,0.8c2.9,4.1,5.8,8.2,8.9,12.3c3.7,4.9,7.3,10,10.9,15C386.5,294.9,386.7,295,387,295.4z"/>
		<path class="st9" d="M92.5,281.3c0.1,0.7,0.6,1,1,1.4c8.7,8.3,17.1,16.9,25.6,25.4c0.4,0.4,1,0.8,0.9,1.6
			c-1.8-0.8-3.4-1.8-5.1-2.9c-3-1.9-6.8-1.7-9.3,0.9c-0.1,0.1-0.2,0.1-0.2,0.1c-0.5-0.2-0.8-0.6-1.1-1c-1.9-1.9-3.8-3.9-5.8-5.8
			c-9.3-8.7-18-17.9-27-26.8c-0.4-0.4-0.9-0.8-0.8-1.5c2.7,1.4,5.3,2.8,7.9,4.3c2.2,1.3,4.4,2.5,6.6,3.8c2.3,1.3,4.6,1.6,7,0.5
			C92.3,281.4,92.4,281.4,92.5,281.3z"/>
		<path class="st10" d="M96.1,255.6c0-0.5-0.1-0.9-0.1-1.4c-0.3-2.4-1.5-4.1-3.6-5.3c-2.4-1.4-4.7-2.7-7.1-4.1
			c-2.6-1.5-4.1-3.7-4-6.9c0.1-4.2,0.1-8.4,0.1-12.7c0.8,0,1.4,0.4,1.9,1c1.4,1.5,2.9,2.9,4.3,4.3c0.4,0.4,0.8,0.8,1.4,0.7
			c0,1.5,0.1,2.9,0,4.4c0,1.7,0.7,3,2.2,3.8c2,1.1,4,2.3,6,3.5c1.6,1,3.2,1.3,4.9,0.4c1.2,1.5,2.6,2.7,3.9,4.1c0.5,0.5,0.9,1,1,1.7
			c-2.5,1.5-3.3,3.9-3.3,6.7c0,2,0,3.9-0.1,5.9c-0.6,0.1-1-0.3-1.4-0.7c-1.6-1.6-3.2-3.3-5-4.8C96.9,255.8,96.6,255.6,96.1,255.6z"
			/>
		<path class="st7" d="M463.3,265.6c6,0,10.9,1.5,15.3,4.8c0.7,0.5,1.4,1.1,2,1.8c0.3,0.4,0.4,0.9,0,1.4c-0.4,0.4-1,0.5-1.5,0.1
			c-0.2-0.2-0.4-0.4-0.6-0.6c-3.2-3-7.1-4.7-11.5-5.2c-3-0.4-5.9-0.3-8.8,0.5c-2.5,0.7-4.7,1.9-6.6,3.7c-5.1,4.7-3.1,12.6,2.6,15.3
			c3.2,1.5,6.6,2.4,10,3.2c3.5,0.8,7,1.6,10.4,2.7c2.7,0.9,4.9,2.3,6.9,4.2c1.9,1.8,2.7,4,3,6.6c0.4,4.8-1.3,8.6-4.9,11.7
			c-3.5,3-7.5,4.6-12,5.1c-6.6,0.8-12.8-0.6-18.7-3.8c-1.6-0.8-3.1-1.8-4.5-2.8c-0.5-0.4-1-0.8-1.4-1.3c-0.3-0.5-0.3-1,0.2-1.4
			c0.4-0.4,0.8-0.3,1.2,0c0.1,0.1,0.3,0.2,0.4,0.3c4.5,3.7,9.8,6,15.5,6.8c6.1,0.9,11.9-0.1,17-3.9c2-1.5,3.6-3.2,4.4-5.6
			c0.9-2.4,0.9-4.8,0.2-7.2c-0.3-1.1-1-2.2-1.8-3c-1.7-1.6-3.6-2.9-5.8-3.7c-3.6-1.2-7.4-2-11.1-2.9c-3-0.8-6.1-1.6-9-2.8
			c-2.5-1.1-4.7-2.7-6.2-5c-2.4-3.7-2-9.2,0.8-12.7c2.7-3.3,6.3-5.1,10.4-6C460.8,265.7,462.4,265.7,463.3,265.6z"/>
		<path class="st7" d="M241.1,293.3c0-8.3,0-16.6,0-24.8c0-0.2,0-0.5,0-0.7c0-1.7,0.2-1.9,1.9-1.9c9.3,0,18.6,0,27.8,0
			c0.3,0,0.6,0,1,0c0.6,0.1,0.7,0.5,0.7,1c0,0.5-0.2,0.9-0.8,0.9c-0.4,0-0.7,0-1.1,0c-8.6,0-17.3,0-25.9,0c-1.7,0-1.5-0.2-1.5,1.5
			c0,7.1,0,14.2,0,21.3c0,0.3,0,0.6,0,1c0,0.4,0.2,0.6,0.6,0.6c0.4,0,0.7,0,1.1,0c7.4,0,14.8,0,22.2,0c0.4,0,0.7,0,1.1,0
			c0.7,0.1,1,0.4,1,1.1c0,0.6-0.4,0.9-0.9,0.9c-0.4,0-0.7,0-1.1,0c-7.3,0-14.6,0-22,0c-0.3,0-0.6,0-1,0c-1,0-1,0-1,1.1
			c0,7.4,0,14.7,0,22.1c0,1.2,0,1.2,1.2,1.2c6.2,0,12.5,0,18.7,0c2.7,0,5.5,0,8.2,0c1,0,1.3,0.4,1.3,1.2c0,0.5-0.3,0.8-0.8,0.8
			c-0.4,0-0.8,0.1-1.2,0.1c-9.1,0-18.3,0-27.4,0c-0.1,0-0.2,0-0.3,0c-1.5,0-1.7-0.2-1.7-1.8C241.1,310.4,241.1,301.9,241.1,293.3z"
			/>
		<path class="st11" d="M136.8,251.8c2,1.8,4,3.7,5.7,5.8c-0.1,0.5-0.3,1-0.3,1.6c0,2.8,0,5.6,0,8.5c0,1.3,0.6,2.3,1.7,2.9
			c2.5,1.4,5,2.8,7.5,4.2c1.2,0.7,2.3,0.6,3.5,0c0.6-0.3,1.1-0.8,1.8-0.9c1.2,1.5,2.5,2.8,3.9,3.9c0.7,0.5,1.1,1,1,1.9
			c-1.9,1.2-3.9,2.4-5.9,3.3c-1.8,0.8-3.7,0.8-5.4,0c-2.8-1.4-5.5-3-8.1-4.6c0.1-0.6-0.2-1-0.6-1.4c-2.3-2.3-4.5-4.5-6.8-6.8
			c-0.4-0.4-0.8-0.6-1.2-0.8c0.8-1.5,1.1-3.1,1.1-4.8c-0.1-2.6,0-5.2,0-7.7C134.6,254.8,135.3,253.1,136.8,251.8z"/>
		<path class="st8" d="M91.5,215.7c1.7-1.2,3.5-2.2,5.3-3.1c2.3-1.1,4.6-0.9,6.8,0.3c2.4,1.4,4.9,2.8,7.3,4.2
			c1.3,0.7,2.6,1.4,3.9,2.2c2.4,1.4,3.6,3.5,3.6,6.2c0,4.4,0,8.7,0,13.1c0,0.5,0.1,1-0.2,1.5c-0.7-0.1-1.2-0.5-1.7-1
			c-1.4-1.4-2.9-2.9-4.3-4.3c-0.4-0.4-0.8-0.8-1.4-0.7c0-1.9,0-3.8-0.1-5.7c0-1.7-0.7-2.9-2.2-3.8c-1.8-1-3.7-2-5.4-3.1
			c-2-1.3-3.9-1.6-5.9-0.4c-1.5-1.9-3.3-3.4-4.9-5.1C92.1,215.8,91.8,215.8,91.5,215.7z"/>
		<path class="st12" d="M96.1,255.6c0.5-0.1,0.8,0.2,1.2,0.5c1.8,1.5,3.4,3.1,5,4.8c0.4,0.4,0.7,0.8,1.4,0.7c0,4.3,0,8.6,0.1,13
			c0,0.5,0,1.1,0.1,1.6c0.9,4.9,6.1,7.4,10.5,4.9c2.3-1.3,4.6-2.6,6.9-3.9c0.4-0.2,0.7-0.5,1.1-0.5c1.6,1.3,3,3,4.5,4.4
			c0.4,0.4,0.4,0.9,0.4,1.4c-2.2,1.5-4.5,2.7-6.8,4c-2,1.1-3.9,2.3-5.2,4.2c-0.8-0.1-1.4-0.6-1.9-1.2c-4.5-4.5-9-9-13.4-13.5
			c-1-1-2.3-1.8-3.2-2.9c-0.2-0.2-0.4-0.2-0.6-0.2c0-3.8,0-7.7-0.1-11.5C96,259.4,96.1,257.5,96.1,255.6z"/>
		<path class="st7" d="M520,292.9c0-4.4,0-8.7,0-13.1c0-0.4,0-0.7,0-1.1c0.2-1.3,1.3-2.3,2.6-2.3c1.3,0,2.4,1,2.6,2.4
			c0,0.4,0,0.8,0,1.2c0,7.4,0,14.7,0,22.1c0,0.3,0,0.5,0,0.8c0,1,0,1,1.1,1c3.6,0,7.2,0,10.8,0c0.4,0,0.8,0,1.2,0
			c1.3,0.2,2.3,1.3,2.3,2.6c0,1.4-1,2.5-2.5,2.6c-0.4,0-0.7,0-1.1,0c-4.5,0-9.1,0-13.6,0c-0.3,0-0.5,0-0.8,0c-1.7-0.1-2.6-1-2.6-2.7
			c0-1.7,0-3.5,0-5.2C520,298.6,520,295.7,520,292.9z"/>
		<path class="st10" d="M147.1,306.4c0.9-0.5,1.7-1.1,2.6-1.5c2.2-1.2,4.5-1.2,6.7,0c3.9,2.2,7.8,4.4,11.6,6.6
			c2.4,1.4,3.5,3.4,3.5,6.2c0,4,0,7.9-0.1,11.9c-0.6,0.1-1-0.3-1.4-0.7c-1.6-1.6-3.2-3.3-4.9-4.9c-0.3-0.3-0.7-0.8-1.2-0.7
			c0-0.9-0.1-1.8,0-2.7c0.1-1.8-0.7-3.1-2.3-4c-2-1.1-4-2.2-5.9-3.4c-1.1-0.7-2.3-1.1-3.6-0.9c0.1-0.6-0.3-0.9-0.6-1.3
			c-1.2-1.2-2.4-2.4-3.6-3.6C147.5,307.2,147.1,306.9,147.1,306.4z"/>
		<path class="st13" d="M92.5,337.7c0-0.1,0.1-0.2,0.1-0.2c2.1-1.3,3.1-3.3,3.4-5.7c0.3,0,0.7,0,0.9,0.2c0.7,0.7,1.6,1.2,2.3,1.9
			c1.6,1.7,3.3,3.3,5,5c4.2,4.2,8.5,8.5,12.7,12.7c0.4,0.4,0.8,0.9,1.5,0.8c0.1,3,0.1,6.1,0,9.1c-0.1,2-0.9,3.6-2.6,4.8
			c-0.5,0-0.8-0.3-1.1-0.7c-0.8-0.8-1.6-1.5-2.4-2.2c-0.9-0.8-1.9-1.5-2.3-2.7c0.4-0.8,0.8-1.6,0.8-2.6c0-2.5,0-5,0-7.5
			c0-1.7-0.8-3-2.3-3.9c-2.2-1.2-4.3-2.4-6.4-3.7c-1.2-0.7-2.4-0.8-3.7-0.3c-0.4,0.2-0.8,0.4-1.2,0.6c0-0.6-0.4-0.9-0.8-1.2
			c-1.1-1.1-2.1-2.2-3.2-3.2C92.8,338.7,92.5,338.3,92.5,337.7z"/>
		<path class="st14" d="M53.2,272.1c1.7,1.7,3.3,3.3,5,5c0.2,0.2,0.2,0.4,0.2,0.6c-0.1,0.1-0.2,0.2-0.3,0.3c-3,1.9-6,3.7-9.2,5.1
			c-0.4,0.2-0.9,0.4-1.4,0.3c-0.1-0.6-0.4-1.1-0.9-1.5c-0.8-0.8-1.6-1.6-2.4-2.4c-4.7-4.9-9.8-9.4-14.5-14.2
			c-0.4-0.4-0.9-0.8-1.5-0.9c-0.2-2.4-0.1-4.8,0-7.3c0-0.5,0-1,0.1-1.5c0.4-1.7,1-3.2,2.5-4.2c-0.1,0.7,0.2,1.3,0.7,1.8
			c1.1,1,2.1,2.1,3.2,3.1c0.5,0.5,1,0.9,1.7,1c-0.6,1.1-0.7,2.3-0.7,3.6c0,1.9,0,3.9,0,5.9c0,1.9,0.7,3.2,2.3,4.1
			c2.2,1.2,4.3,2.5,6.5,3.7c1.4,0.8,2.8,0.8,4.2,0C50.3,273.7,51.8,273,53.2,272.1z"/>
		<path class="st9" d="M65.5,267.6c-0.6,0.1-1-0.3-1.4-0.7c-1.5-1.5-3.1-3.1-4.6-4.6c-0.5-0.5-1.1-1-1.9-1c0-0.5-0.1-0.9,0-1.4
			c0.1-2-0.7-3.4-2.5-4.3c-2.1-1.1-4.2-2.3-6.3-3.5c-0.7-0.4-1.4-0.6-2.2-0.7c0-0.7-0.4-1.3-0.9-1.8c-1.1-1.1-2.2-2.2-3.4-3.4
			c-0.4-0.4-0.7-0.7-0.7-1.3c1.6-1.1,3.3-1.9,5.3-1.8c1.1,0.1,2.1,0.3,3,0.8c4,2.1,7.8,4.4,11.7,6.7c2.3,1.3,3.4,3.5,3.5,6.1
			c0,2.6,0,5.3,0,7.9C65.2,265.8,65.2,266.7,65.5,267.6z"/>
		<path class="st7" d="M303.7,293.3c0-8.4,0-16.8,0-25.2c0-0.4,0-0.8,0-1.2c0-0.6,0.4-0.9,1-0.9c0.6,0,0.9,0.3,1,0.9
			c0,0.4,0,0.8,0,1.2c0,16.3,0,32.7,0,49c0,1.8-0.2,1.6,1.6,1.6c8.6,0,17.2,0,25.8,0c0.4,0,0.8,0,1.2,0c0.6,0,0.9,0.4,0.9,1
			c0,0.6-0.3,0.9-0.9,1c-0.3,0-0.6,0-1,0c-9.2,0-18.5,0-27.7,0c-0.1,0-0.2,0-0.3,0c-1.5,0-1.7-0.2-1.7-1.8
			C303.7,310.4,303.7,301.9,303.7,293.3z"/>
		<path class="st15" d="M101.8,374.4c-0.7,0.1-1.3-0.1-1.7-0.7c-0.9-1.2-2.3-2-3.4-3.1c-4.5-4.5-9-9-13.5-13.5c-0.5-0.5-1-1-1.8-1.1
			c0-2.8-0.1-5.6,0-8.4c0-1.1,0.3-2.2,1.1-3.1c0.2,0.2,0.3,0.4,0.5,0.6c1.8,1.8,3.5,3.5,5.3,5.3c0.2,0.2,0.4,0.3,0.7,0.3
			c0,2.5,0,5.1,0,7.6c0,1.6,0.6,2.9,2.1,3.7c1.3,0.7,2.5,1.5,3.8,2.2c1.2,0.7,2.3,1.4,3.6,2c1.1,0.4,2.1,0.5,3.2-0.1
			c0.3-0.2,0.7-0.3,1-0.5c0.2,0.6,0.6,1.1,1.1,1.5c1.1,1,2.1,2.1,3.2,3.1c0.3,0.3,0.7,0.6,0.7,1.1c-1.5,1-3.1,1.8-4.6,2.7
			C102.6,374.2,102.2,374.4,101.8,374.4z"/>
		<path class="st14" d="M118.4,352.5c-0.7,0.1-1.1-0.4-1.5-0.8c-4.2-4.2-8.5-8.5-12.7-12.7c-1.7-1.7-3.4-3.3-5-5
			c-0.7-0.7-1.6-1.2-2.3-1.9c-0.2-0.3-0.6-0.2-0.9-0.2c-0.1-3.8-0.1-7.6,0-11.5c0.6-0.1,1,0.3,1.4,0.7c1.6,1.6,3.2,3.2,4.9,4.9
			c0.4,0.4,0.7,0.8,1.4,0.7c0,1.5,0.1,3.1,0.1,4.6c0,2.8,1.2,5,3.6,6.4c2.4,1.4,4.8,2.8,7.2,4.1c2.6,1.4,3.9,3.6,3.8,6.6
			C118.5,349.7,118.4,351.1,118.4,352.5z"/>
		<path class="st9" d="M134.6,322.5c0.6,0,0.9,0.5,1.2,0.8c1.6,1.6,3.2,3.2,4.8,4.8c0.4,0.4,0.9,0.8,1.5,0.7c0.3,1.5,1.2,2.4,2.6,3
			c0.8,0.3,1.5,0.7,2.2,1.3c0,0.9,0.4,1.4,1,2c2.5,2.5,4.9,4.9,7.4,7.4c0.3,0.3,0.7,0.8,1.2,0.8c-2.2,1.4-4.5,1.4-6.7,0.2
			c-4-2.2-8-4.5-11.9-6.8c-2-1.2-3.2-3-3.3-5.3C134.5,328.4,134.6,325.5,134.6,322.5z"/>
		<path class="st11" d="M91.5,215.7c0.3,0.1,0.6,0.1,0.7,0.3c1.7,1.7,3.5,3.2,4.9,5.1c-0.3,0.4-0.7,0.5-1.1,0.7
			c-1.6,0.9-3.2,1.9-4.8,2.8c-1.6,0.9-2.3,2.2-2.2,3.9c0,1,0,1.9-0.1,2.9c-0.6,0.1-1-0.3-1.4-0.7c-1.4-1.4-2.9-2.9-4.3-4.3
			c-0.5-0.5-1.1-1-1.9-1c-0.1-2.5,1.2-4.3,3.1-5.6C86.7,218.3,89.1,216.9,91.5,215.7z"/>
		<path class="st10" d="M127.2,282.4c0-0.5,0-1-0.4-1.4c-1.5-1.4-2.9-3.1-4.5-4.4c2.1-1.4,4.4-2.7,6.7-3.9c1.7-0.9,3.4-1.9,4.6-3.5
			c0.4,0.2,0.9,0.5,1.2,0.8c2.3,2.3,4.5,4.5,6.8,6.8c0.4,0.4,0.8,0.8,0.6,1.4c-0.4,0-0.7-0.3-1.1-0.5c-2.1-1-4.2-0.8-6.3,0.3
			c-2.3,1.3-4.6,2.6-6.9,3.9C127.7,282.2,127.5,282.3,127.2,282.4z"/>
		<path class="st11" d="M110.8,234.1c0.6-0.1,1,0.3,1.4,0.7c1.4,1.4,2.9,2.9,4.3,4.3c0.5,0.5,1,0.9,1.7,1c-0.2,1.9-1.2,3.3-2.8,4.3
			c-2.7,1.7-5.6,3.2-8.4,4.7c-0.1-0.7-0.5-1.2-1-1.7c-1.3-1.4-2.8-2.6-3.9-4.1c2.1-1.4,4.3-2.5,6.4-3.8c1.5-0.9,2.3-2.1,2.3-3.9
			C110.8,235.1,110.8,234.6,110.8,234.1z"/>
		<path class="st12" d="M163.9,323.3c0.6-0.1,0.9,0.4,1.2,0.7c1.6,1.6,3.3,3.2,4.9,4.9c0.4,0.4,0.8,0.8,1.4,0.7c0.4,3.5-1,6-4,7.6
			c-1.1,0.6-2.1,1.3-3.2,1.7c-0.4,0-0.7-0.3-1-0.6c-1.4-1.4-2.7-2.7-4.1-4.1c-0.2-0.2-0.4-0.5-0.4-0.8c1-0.8,2.1-1.2,3.2-1.8
			c1.4-0.8,2.1-2,2.1-3.7C163.9,326.4,163.9,324.9,163.9,323.3z"/>
		<path class="st12" d="M147.1,306.4c0,0.5,0.4,0.8,0.7,1.1c1.2,1.2,2.4,2.4,3.6,3.6c0.4,0.4,0.7,0.7,0.6,1.3
			c-0.2,0.1-0.4,0.1-0.6,0.2c-2.1,1.2-4.2,2.5-6.3,3.7c-1,0.5-1.9,1.1-2.6,1.9c-0.4,0-0.7-0.2-0.9-0.5c-2.6-2.6-5.2-5.2-7.8-7.8
			c-0.4-0.4-0.6-0.8-0.5-1.3c1.4,1,3,1.7,4.8,1.7c1.4,0.1,2.7-0.3,3.9-1C143.7,308.3,145.4,307.4,147.1,306.4z"/>
		<path class="st5" d="M41.8,245.1c-0.1,0.6,0.3,0.9,0.7,1.3c1.1,1.1,2.2,2.2,3.4,3.4c0.5,0.5,0.9,1,0.9,1.8
			c-0.8,0.1-1.6,0.4-2.3,0.8c-2,1.2-4.1,2.4-6.1,3.5c-0.7,0.4-1.4,0.9-1.9,1.5c-0.7-0.1-1.2-0.5-1.7-1c-1-1.1-2.1-2.1-3.2-3.1
			c-0.5-0.5-0.8-1.1-0.7-1.8c1.1-1,2.6-1.7,3.9-2.4C37,247.7,39.4,246.4,41.8,245.1z"/>
		<path class="st6" d="M158.6,333.5c0,0.3,0.2,0.6,0.4,0.8c1.4,1.4,2.7,2.7,4.1,4.1c0.3,0.3,0.6,0.5,1,0.6c-2.4,1.7-5.1,3-7.7,4.4
			c-0.6,0-0.9-0.4-1.2-0.8c-2.5-2.5-4.9-4.9-7.4-7.4c-0.6-0.6-1.1-1.1-1-2c1.1,0.7,2.1,1.4,3.2,2c1.7,0.9,3.4,1.3,5.2,0.2
			C156.4,334.6,157.4,333.9,158.6,333.5z"/>
		<path class="st16" d="M107.6,371.3c0-0.5-0.4-0.8-0.7-1.1c-1-1.1-2.1-2.1-3.2-3.1c-0.5-0.4-0.8-0.9-1.1-1.5
			c0.3-0.4,0.8-0.5,1.3-0.8c2-1.3,4.2-2.3,6.1-3.8c0.4,1.2,1.5,1.9,2.3,2.7c0.8,0.7,1.6,1.4,2.4,2.2c0.3,0.3,0.6,0.6,1.1,0.7
			c-0.2,0.3-0.5,0.5-0.8,0.7C112.5,368.6,110,369.9,107.6,371.3z"/>
		<path class="st17" d="M28.3,331.5c0.1-4.8,0.1-9.7,0-14.5c0.2-1.5,0.6-2.8,1.7-3.9c1.6,2,3.5,3.6,5.3,5.4c0.2,0.2,0.6,0.3,0.8,0.4
			c-0.1,0.5-0.2,1-0.2,1.5c0,2.5-0.1,4.9,0,7.4c0,1.5,0.6,2.8,1.9,3.6c2.4,1.4,4.8,2.9,7.3,4.2c1.2,0.7,2.4,0.7,3.7-0.1
			c1-0.6,2-1.3,3.1-1.7c0,0.3,0,0.6,0.3,0.9c1.6,1.6,3.1,3.3,4.9,4.8c-1,0.8-2.2,1.4-3.4,2c-1.2,0.7-2.4,1.3-3.5,2
			c-2.4,1.3-4.7,1.2-7-0.1c-3.7-2.1-7.3-4.2-11-6.3C29.9,335.8,28.6,334,28.3,331.5z"/>
		<path class="st16" d="M41.6,306c1.2-0.9,2.5-1.6,4-1.9c1.7-0.3,3.2,0,4.8,1c1.5,0.9,2.9,1.9,4.6,2.5c0.9,0.4,1.7,1,2.6,1.5
			c2.3,1.4,4.6,1.5,7,0.4c0.1-0.1,0.3-0.1,0.4-0.1c-0.1,0.6,0.3,0.9,0.6,1.3c1,1,2,2,3,3c0.5,0.5,1.1,0.9,1.3,1.5
			c-0.8,0.6-1.8,1.1-2.5,1.8c-1.4,1.4-2.2,2.9-2.2,4.9c0.1,2.1,0,4.2,0,6.2c-0.6,0.1-1-0.3-1.4-0.7c-1.5-1.5-3.1-3-4.6-4.6
			c-0.4-0.5-0.9-0.9-1.6-1c0-0.5-0.1-1-0.1-1.5c0.1-1.7-0.7-2.9-2.2-3.8c-1.1-0.6-2.2-1.4-3.4-1.9c-1.6-0.8-3-2-4.8-2.4
			c0.1-0.5-0.3-0.8-0.6-1.2C45,309.4,43.3,307.7,41.6,306z"/>
		<path class="st16" d="M89,350.6c-0.3,0-0.5-0.1-0.7-0.3c-1.8-1.8-3.5-3.5-5.3-5.3c-0.2-0.2-0.3-0.4-0.5-0.6c0.5-1,1.3-1.7,2.2-2.3
			c2.4-1.4,4.8-2.8,7.1-4.1c0.2-0.1,0.4-0.1,0.6-0.2c-0.1,0.6,0.3,1,0.7,1.4c1.1,1.1,2.2,2.1,3.2,3.2c0.3,0.3,0.8,0.6,0.8,1.2
			c-1.8,1.2-3.7,2.2-5.6,3.3C90.1,347.7,89,348.8,89,350.6z"/>
		<path class="st14" d="M81.6,299.9c0,0.4,0,0.7,0.3,1c1.8,1.3,3.2,3.1,4.8,4.6c0.1,0.1,0.2,0.1,0.4,0.2c-2.6,1.3-5.1,2.7-7.6,4.2
			c-0.5,0.3-0.9,0.6-1.4,0.7c-1.8-1.5-3.4-3.3-5.1-4.9c-0.1-0.1-0.2-0.4-0.2-0.6C75.7,303.1,78.6,301.5,81.6,299.9z"/>
		<path class="st13" d="M72.8,305c0.1,0.2,0.1,0.5,0.2,0.6c1.7,1.7,3.2,3.5,5.1,4.9c-1.9,1.3-3.9,2.4-5.9,3.5
			c-0.8,0.4-1.5,0.9-2.3,1.3c-0.2-0.7-0.8-1-1.3-1.5c-1-1-2-2-3-3c-0.4-0.4-0.7-0.7-0.6-1.3c0.8-0.8,1.9-1.1,2.9-1.7
			C69.5,306.8,71.1,305.8,72.8,305z"/>
		<path class="st15" d="M57.7,322c0.6,0.1,1.1,0.5,1.6,1c1.5,1.5,3.1,3.1,4.6,4.6c0.4,0.4,0.7,0.8,1.4,0.7c0.1,1.5,0.2,3-0.2,4.4
			c-0.4,1.4-1.1,2.6-2.4,3.5c-0.1-0.5-0.6-0.8-0.9-1.2c-1.2-1.2-2.4-2.4-3.7-3.7c-0.4-0.4-0.8-0.7-0.8-1.2c0.3-0.9,0.4-1.9,0.4-2.8
			C57.6,325.5,57.7,323.7,57.7,322z"/>
		<path class="st3" d="M57.3,330.1c0,0.6,0.4,0.9,0.8,1.2c1.2,1.2,2.4,2.4,3.7,3.7c0.3,0.4,0.8,0.7,0.9,1.2
			c-0.6,0.8-1.6,1.1-2.4,1.6c-1,0.6-2.1,1.3-3.2,1.8c-1.8-1.5-3.3-3.2-4.9-4.8c-0.3-0.2-0.3-0.5-0.3-0.9c0.7-0.4,1.5-0.9,2.2-1.3
			C55.2,331.8,56.4,331.2,57.3,330.1z"/>
		<path class="st13" d="M28.2,264.4c0.6,0.1,1.1,0.5,1.5,0.9c4.7,4.9,9.8,9.3,14.5,14.2c0.8,0.8,1.6,1.6,2.4,2.4
			c0.4,0.4,0.8,0.9,0.9,1.5c-1.5,0.3-3-0.1-4.3-0.8c-3.7-2.1-7.4-4.2-11.1-6.3c-2.1-1.2-3.4-2.9-3.8-5.3
			C28.1,268.7,28,266.6,28.2,264.4z"/>
		<path class="st15" d="M41.6,306c1.7,1.7,3.4,3.4,5.1,5.1c0.3,0.3,0.6,0.6,0.6,1.2c-1.1,0-2.1,0.4-3,0.9c-1.2,0.7-2.3,1.4-3.5,1.9
			c-1.3-1.7-2.9-3-4.4-4.5c-0.3-0.4-0.8-0.6-0.8-1.2c1.6-0.9,3.2-1.8,4.8-2.8C40.7,306.5,41.1,306.1,41.6,306z"/>
		<path class="st3" d="M35.5,309.5c0,0.6,0.5,0.8,0.8,1.2c1.4,1.5,3.1,2.9,4.4,4.5c-0.8,0.7-1.7,1.1-2.6,1.6c-0.9,0.5-1.7,1.2-2,2.2
			c-0.3-0.1-0.6-0.2-0.8-0.4c-1.8-1.8-3.7-3.4-5.3-5.4c0.3-0.6,0.7-0.9,1.2-1.2C32.6,311.1,34,310.2,35.5,309.5z"/>
	</g>
</g>
</svg>
