<?xml version="1.0" encoding="utf-8"?>
<!-- Generator: Adobe Illustrator 21.1.0, SVG Export Plug-In . SVG Version: 6.00 Build 0)  -->
<svg version="1.0" id="Layer_1" xmlns="http://www.w3.org/2000/svg" xmlns:xlink="http://www.w3.org/1999/xlink" x="0px" y="0px"
	 viewBox="0 0 600 600" style="enable-background:new 0 0 600 600;" xml:space="preserve">
<style type="text/css">
	.st0{fill:#24587C;}
</style>
<g>
	<path class="st0" d="M95.1,265c0-3.1,0-6.2,0-9.4c0-3.2-1.3-5.5-4.1-7.1c-2.3-1.3-4.5-2.6-6.8-3.9c-2.6-1.5-3.9-3.7-3.9-6.7
		c0-4.2,0-8.4,0-12.5c0-3,1.3-5.2,3.9-6.7c3.5-2,7.1-4,10.6-6.1c2.8-1.6,5.4-1.6,8.2,0c3.5,2.1,7.1,4.1,10.7,6.2
		c2.5,1.4,3.7,3.6,3.7,6.4c0,4.3,0,8.5,0,12.8c0,2.8-1.2,4.9-3.7,6.3c-2.4,1.4-4.8,2.9-7.2,4.2c-2.5,1.4-3.8,3.5-3.8,6.4
		c0,6.7,0.1,13.4,0,20.1c-0.1,5.1,5.6,8.9,10.5,6.1c5.6-3.2,11.1-6.4,16.7-9.6c2.4-1.4,3.5-3.5,3.6-6.3c0-2.7,0.1-5.3,0-8
		c-0.1-3.2,1.3-5.5,4.1-7.1c3.4-1.9,6.8-3.8,10.1-5.9c2.9-1.8,5.7-1.8,8.7,0c3.4,2.1,6.9,4,10.4,6c2.6,1.5,3.9,3.7,3.8,6.7
		c0,4.2,0,8.4,0,12.5c0,3-1.2,5.2-3.8,6.7c-3.2,1.8-6.3,3.5-9.5,5.3c-0.3,0.2-0.6,0.3-0.9,0.6c-2.5,2-5.2,2-8,0.5
		c-2.5-1.4-4.9-2.8-7.4-4.3c-1.1-0.7-2.3-1-3.7-1c-1.3,0-2.5,0.3-3.5,0.9c-5.5,3.2-11,6.3-16.4,9.5c-2.6,1.5-3.8,3.8-3.7,6.9
		c0.1,2.5,1.3,4.3,3.3,5.5c5.5,3.2,11,6.1,16.5,9.4c2.8,1.7,5.4,1.4,8.1-0.3c2.4-1.5,4.8-2.8,7.3-4.1c2.1-1.1,4.3-1.1,6.3,0.1
		c4,2.3,8.1,4.6,12,6.9c2.2,1.3,3.2,3.4,3.3,5.9c0,4.4,0,8.9,0,13.4c0,2.6-1.2,4.6-3.4,5.9c-3.1,1.9-6.3,3.6-9.4,5.4
		c-0.9,0.5-1.8,0.9-2.7,1.4c-2.3,1.3-4.6,1.1-6.8-0.2c-3-1.7-6-3.4-8.9-5.2c-0.8-0.5-1.6-0.9-2.4-1.4c-2.3-1.4-3.5-3.5-3.5-6.1
		c-0.1-2.8,0-5.7,0-8.5c0-2.9-1.2-5-3.7-6.4c-5.4-3.2-10.9-6.3-16.3-9.4c-4.5-2.6-9.4,0.3-10.4,4.1c-0.2,0.6-0.2,1.3-0.2,1.9
		c0,6.4,0,12.8,0,19.1c0,2.7,1.2,4.8,3.5,6.2c2.5,1.5,5.1,2.9,7.6,4.4c1.9,1.1,3,2.7,3.4,4.8c0.1,0.5,0.1,1.1,0.1,1.6
		c0,4.2,0,8.4,0,12.7c0,2.9-1.3,5.1-3.8,6.6c-3.7,2.1-7.4,4.3-11.1,6.4c-2.3,1.3-4.7,1.4-7.1,0.1c-3.9-2.2-7.7-4.4-11.6-6.7
		c-2.3-1.3-3.4-3.4-3.5-6c-0.1-4.4-0.1-8.8,0-13.2c0-2.7,1.3-4.8,3.7-6.2c2.3-1.4,4.6-2.7,7-4c2.8-1.5,4-3.9,4-7
		c0-6.1,0-12.2,0-18.3c0-3.8-2.3-6.6-5.9-7.3c-1.8-0.4-3.5,0.1-5,1c-3.7,2.2-7.5,4.3-11.2,6.5c-1.6,0.9-3.3,1.9-4.9,2.8
		c-2.6,1.5-3.9,3.7-3.9,6.7c0,2.7,0,5.4,0,8.1c0,2.9-1.2,5.1-3.8,6.6c-3.7,2.1-7.4,4.3-11.1,6.4c-2.3,1.3-4.7,1.4-7.1,0.1
		c-3.9-2.2-7.7-4.4-11.6-6.7c-2.3-1.3-3.4-3.5-3.4-6.1c-0.1-4.4-0.1-8.7,0-13.1c0-2.7,1.2-4.8,3.6-6.2c3.8-2.2,7.5-4.4,11.3-6.5
		c2.3-1.3,4.6-1.3,7-0.1c1.8,0.9,3.5,2.2,5.2,3.2c1.2,0.7,2.3,1.3,3.6,1.8c2,0.7,3.9,0.6,5.7-0.4c2.5-1.4,4.9-2.8,7.4-4.3
		c3.2-1.8,6.3-3.6,9.5-5.5c2.6-1.6,3.8-3.9,3.5-6.9c-0.3-2.4-1.5-4.1-3.6-5.3c-3-1.7-6-3.5-9.1-5.2c-2.4-1.4-4.8-2.7-7.1-4.1
		c-2.7-1.6-5.3-1.6-7.9,0c-2.3,1.4-4.7,2.7-7,4c-2.4,1.4-4.9,1.5-7.3,0.1c-3.8-2.2-7.6-4.3-11.3-6.5c-2.4-1.4-3.6-3.5-3.6-6.2
		c0-4.4-0.1-8.7,0-13.1c0-2.8,1.3-4.9,3.7-6.3c3.4-2,6.8-3.9,10.3-5.9c0.3-0.2,0.5-0.4,0.8-0.5c2.4-1.4,4.9-1.5,7.3-0.1
		c3.7,2.1,7.5,4.3,11.2,6.5c2.5,1.5,3.8,3.6,3.8,6.6c0,2.8,0,5.5,0,8.3c0,2.9,1.2,5,3.7,6.4c3.5,2,7.1,4,10.6,6.1
		c2,1.2,4,2.4,6.1,3.5c3.9,2.2,10.2,0.3,10.4-6.3C95.2,271.7,95.1,268.3,95.1,265z M141.1,324.8
		C141.1,324.8,141.2,324.8,141.1,324.8c0,1.6,0.1,3.1,0,4.7c0,0.5,0.1,1,0.5,1.4c0.6,0.5,1.1,1.1,1.8,1.6c2,1.1,4,2.4,6,3.5
		c1.4,0.8,2.9,1,4.4,0.1c2.3-1.3,4.6-2.6,6.9-4c1.3-0.8,2-1.9,2-3.5c0-2.6,0-5.2,0-7.8c0-1.6-0.7-2.7-2-3.5
		c-2.3-1.3-4.5-2.6-6.8-3.9c-1.3-0.8-2.7-0.8-4,0c-2.3,1.3-4.6,2.6-6.8,4c-1.3,0.8-2,1.9-2,3.5C141.1,322.1,141.1,323.5,141.1,324.8
		z M56.7,324.7C56.7,324.7,56.7,324.7,56.7,324.7c0-1.2-0.1-2.5,0-3.7c0.1-1.9-0.7-3.1-2.3-4c-2.1-1.2-4.2-2.4-6.3-3.6
		c-1.5-0.9-3-0.9-4.5,0c-2.2,1.3-4.3,2.5-6.6,3.8c-1.4,0.8-2.1,1.9-2.1,3.5c0,2.7,0,5.3,0,8c0,1.5,0.6,2.7,1.9,3.4
		c2.4,1.4,4.8,2.8,7.3,4.2c1.2,0.6,2.4,0.7,3.5,0c2.4-1.4,4.8-2.8,7.3-4.2c1.2-0.7,1.9-1.8,1.9-3.3C56.7,327.4,56.7,326,56.7,324.7z
		 M56.6,263.3C56.6,263.3,56.6,263.3,56.6,263.3c0-1.2,0-2.5,0-3.7c0.1-1.7-0.7-3-2.2-3.8c-2.2-1.2-4.3-2.5-6.4-3.7
		c-1.5-0.9-2.9-0.9-4.4,0c-2.1,1.3-4.3,2.5-6.4,3.7c-1.6,0.9-2.3,2.1-2.3,3.9c0,2.3,0.1,4.7,0,7c-0.1,2,0.7,3.4,2.5,4.4
		c1.9,1,3.9,2.1,5.7,3.4c1.6,1.1,3.1,1.2,4.7,0.3c2.3-1.3,4.6-2.6,6.9-4c1.4-0.8,2-2,2-3.5C56.6,265.9,56.6,264.6,56.6,263.3z
		 M162.9,263.3C162.9,263.3,162.9,263.3,162.9,263.3c0-1.2,0-2.5,0-3.7c0.1-1.7-0.7-3-2.2-3.8c-2.2-1.2-4.3-2.4-6.4-3.7
		c-1.5-0.9-2.9-0.9-4.4,0c-2.2,1.3-4.3,2.6-6.5,3.8c-1.5,0.9-2.2,2.1-2.2,3.8c0,2.4,0,4.9,0,7.3c0,1.8,0.7,3.1,2.4,4
		c2.1,1.1,4.2,2.3,6.2,3.6c1.6,1,3.1,0.9,4.7,0c2.2-1.3,4.3-2.5,6.5-3.8c1.3-0.8,2-1.9,2-3.5C162.9,266,162.9,264.6,162.9,263.3z
		 M109.8,355.3C109.8,355.3,109.7,355.3,109.8,355.3c0-1.3,0-2.7,0-4c0-1.4-0.6-2.6-1.8-3.3c-2.4-1.4-4.8-2.8-7.3-4.2
		c-1.2-0.7-2.4-0.6-3.6,0c-2.4,1.4-4.9,2.8-7.3,4.2c-1.2,0.7-1.8,1.8-1.8,3.2c0,2.7-0.1,5.5,0,8.2c0,1.3,0.5,2.4,1.7,3.1
		c2.5,1.5,5,2.9,7.5,4.3c1.1,0.6,2.3,0.6,3.4,0c2.4-1.3,4.8-2.8,7.2-4.2c1.3-0.8,1.9-1.9,1.9-3.4
		C109.7,357.9,109.8,356.6,109.8,355.3z M109.7,231.8c0-1.4,0-2.8,0-4.1c0-1.5-0.6-2.6-1.9-3.3c-2.4-1.4-4.8-2.8-7.1-4.1
		c-1.2-0.7-2.5-0.7-3.7,0c-2.4,1.4-4.8,2.7-7.1,4.1c-1.2,0.7-1.9,1.9-1.9,3.3c0,2.7,0,5.4,0,8.1c0,1.4,0.6,2.5,1.8,3.2
		c2.4,1.4,4.8,2.8,7.1,4.1c1.3,0.7,2.5,0.7,3.8,0c2.3-1.3,4.7-2.7,7-4c1.3-0.8,1.9-1.9,1.9-3.4C109.7,234.4,109.7,233.1,109.7,231.8
		z"/>
	<path class="st0" d="M568.3,298.4c0.3-0.7,0.2-1.2,0.2-1.7c0-5.4,0-10.8,0-16.2c0-0.5,0-1,0.1-1.5c0.3-1.3,1.4-2.1,2.7-2
		c1.3,0.1,2.3,1.1,2.4,2.4c0,0.3,0,0.6,0,1c0,8.6,0,17.2,0,25.9c0,0.2,0,0.5,0,0.7c0,1.3-0.6,2.1-1.7,2.5c-1.1,0.4-2.1,0.1-2.9-0.9
		c-1.3-1.7-2.5-3.5-3.8-5.2c-3.4-4.7-6.8-9.4-10.2-14.2c-0.3-0.4-0.5-0.8-1-1.1c-0.3,0.5-0.2,1-0.2,1.5c0,5.5,0,10.9,0,16.4
		c0,0.5,0,0.9,0,1.4c-0.2,1.3-1.2,2.2-2.4,2.3c-1.3,0.1-2.4-0.7-2.7-2c-0.1-0.3-0.1-0.5-0.1-0.8c0-9.1,0-18.2,0-27.2
		c0-2,1.8-2.9,3.2-2.6c0.8,0.2,1.3,0.8,1.8,1.4c2,2.8,4,5.6,6,8.4c2.6,3.6,5.3,7.3,7.9,10.9C567.8,297.8,568,298.1,568.3,298.4z"/>
	<path class="st0" d="M364.9,270.5c-0.2,0.6-0.1,1.2-0.1,1.7c0,15.5,0,31.1,0,46.6c0,0.5,0,1-0.1,1.5c-0.1,0.6-0.5,0.8-1.1,0.8
		c-0.5,0-0.8-0.3-0.9-0.9c0-0.3,0-0.6,0-1c0-17.1,0-34.2,0-51.3c0-0.3,0-0.6,0-0.8c0-0.5,0.2-0.9,0.7-1.1c0.5-0.2,0.9,0,1.3,0.3
		c0.3,0.3,0.5,0.6,0.8,1c6.5,9,12.9,17.9,19.4,26.9c0.3,0.4,0.5,0.9,1,1.2c0.5-0.2,0.7-0.7,1-1.1c6.5-9,13-18,19.5-27
		c0.3-0.4,0.5-0.8,0.9-1.1c0.7-0.6,1.7-0.2,1.8,0.7c0,0.3,0,0.6,0,1c0,17.1,0,34.1,0,51.2c0,0.3,0,0.6,0,1c0,0.6-0.3,1-0.9,1
		c-0.6,0.1-1-0.3-1.1-1c-0.1-0.4,0-0.9-0.1-1.4c0-15.5,0-31.1,0-46.6c0-0.5,0-1,0-1.6c-0.6,0.2-0.8,0.7-1.1,1.1
		c-6.1,8.4-12.1,16.8-18.1,25.2c-0.3,0.4-0.5,0.8-0.8,1.1c-0.6,0.6-1.4,0.5-1.9-0.1c-0.2-0.2-0.4-0.5-0.6-0.8
		c-6.1-8.5-12.2-17-18.3-25.5C365.7,271.2,365.4,270.8,364.9,270.5z"/>
	<path class="st0" d="M462.9,321.5c-5.2,0.1-10-1.3-14.5-3.7c-1.8-0.9-3.4-2-5-3.1c-0.5-0.3-1-0.7-1.3-1.2c-0.4-0.6-0.4-1.1,0-1.5
		c0.5-0.4,0.9-0.3,1.4,0c0.4,0.3,0.7,0.6,1.1,0.9c5.2,3.8,10.9,6.2,17.4,6.5c4.6,0.2,9-0.7,13-3.2c1.3-0.8,2.5-1.7,3.5-2.9
		c2.9-3.1,3.6-6.7,2.6-10.7c-0.3-1.3-1-2.4-2-3.4c-1.8-1.6-3.7-2.9-6.1-3.7c-3.4-1.1-6.9-1.9-10.4-2.8c-2.8-0.7-5.6-1.5-8.3-2.5
		c-2.5-0.9-4.5-2.4-6.3-4.2c-0.5-0.5-0.9-1.1-1.2-1.7c-1.9-4.3-2-8.6,1.1-12.4c2.8-3.4,6.5-5.4,10.8-6.1c7-1.1,13.4,0.4,19.1,4.7
		c0.6,0.5,1.2,1,1.7,1.6c0.4,0.6,0.4,1.1,0,1.5c-0.5,0.4-1,0.4-1.5,0c-0.1-0.1-0.3-0.3-0.4-0.4c-3.5-3.3-7.7-5.1-12.5-5.5
		c-3.4-0.3-6.8,0-10,1.4c-1.7,0.7-3.1,1.7-4.5,2.9c-4.8,4.4-3.5,11.6,1.5,14.8c1.9,1.2,4,2,6.2,2.6c3.3,0.9,6.7,1.6,10,2.5
		c2.1,0.5,4.2,1.2,6.3,1.9c2.7,0.9,4.9,2.7,6.7,4.8c2,2.4,2.3,5.2,2.1,8.2c-0.3,3.7-2,6.7-4.8,9.1c-4.2,3.7-9.2,5.3-14.8,5.5
		C463.5,321.5,463.2,321.5,462.9,321.5z"/>
	<path class="st0" d="M240,293.4c0-8.3,0-16.5,0-24.8c0-0.3,0-0.6,0-0.8c0-1.8,0.2-2,2-2c3.8,0,7.5,0,11.3,0c5.4,0,10.8,0,16.2,0
		c0.4,0,0.7,0,1.1,0c0.6,0.1,0.8,0.5,0.8,1.1c0,0.5-0.3,0.9-0.8,0.9c-0.4,0-0.8,0-1.2,0c-8.5,0-17.1,0-25.6,0
		c-1.9,0-1.6-0.2-1.7,1.7c0,7,0,14,0,21.1c0,0.2,0,0.4,0,0.6c0,1.2,0,1.2,1.2,1.2c7.5,0,15,0,22.6,0c0.4,0,0.7,0,1.1,0
		c0.8,0.1,1,0.3,1,1c0,0.7-0.3,1-1,1c-0.3,0-0.6,0-1,0c-7.4,0-14.9,0-22.3,0c-0.4,0-0.7,0-1.1,0c-0.4,0-0.6,0.2-0.6,0.6
		c0,0.3,0,0.6,0,0.8c0,7.2,0,14.5,0,21.7c0,0.2,0,0.5,0,0.7c0,0.5,0.2,0.7,0.7,0.7c0.4,0,0.7,0,1.1,0c8.4,0,16.9,0,25.3,0
		c0.4,0,0.8,0,1.2,0c0.7,0.1,1,0.4,0.9,1.1c0,0.6-0.4,0.9-1,0.9c-0.3,0-0.6,0-0.8,0c-9.3,0-18.5,0-27.8,0c-0.2,0-0.5,0-0.7,0
		c-0.7,0-1-0.4-1.1-1c0-0.4,0-0.8,0-1.2C240,310.4,240,301.9,240,293.4z"/>
	<path class="st0" d="M524.1,291.3c0,3.9,0,7.8,0,11.7c0,1.3,0,1.3,1.3,1.3c3.6,0,7.2,0,10.9,0c0.5,0,1.1,0,1.6,0.2
		c1.1,0.5,1.7,1.6,1.6,2.8c-0.1,1.2-1.1,2.2-2.4,2.3c-0.3,0-0.5,0-0.8,0c-4.8,0-9.5-0.1-14.3,0c-1.8,0-3.2-1-3.2-3.2
		c0.1-8.9,0-17.8,0-26.7c0-0.3,0-0.6,0-0.8c0.1-1.4,1.2-2.3,2.6-2.4c1.4,0,2.6,1,2.7,2.4c0.1,2,0,3.9,0,5.9
		C524.1,287,524.1,289.1,524.1,291.3z"/>
	<path class="st0" d="M302.6,293.4c0-8.5,0-17,0-25.5c0-0.4,0-0.8,0-1.2c0.1-0.6,0.4-0.9,1-0.9c0.6,0,0.9,0.3,1,0.9
		c0,0.4,0,0.8,0,1.2c0,16.4,0,32.8,0,49.1c0,2.1-0.3,1.9,1.9,1.9c8.4,0,16.8,0,25.2,0c0.4,0,0.8,0,1.2,0c0.8,0.1,1.2,0.4,1.1,1.1
		c0,0.7-0.5,0.9-1.1,1c-0.2,0-0.5,0-0.7,0c-9.3,0-18.6,0-27.9,0c-0.3,0-0.6,0-0.8,0c-0.6,0-0.9-0.4-0.9-1c0-0.4,0-0.8,0-1.2
		C302.6,310.4,302.6,301.9,302.6,293.4z"/>
</g>
</svg>
