<?xml version="1.0" encoding="utf-8"?>
<!-- Generator: Adobe Illustrator 23.0.2, SVG Export Plug-In . SVG Version: 6.00 Build 0)  -->
<svg version="1.0" id="Layer_1" xmlns="http://www.w3.org/2000/svg" xmlns:xlink="http://www.w3.org/1999/xlink" x="0px" y="0px"
	 viewBox="0 0 1080 1080" style="enable-background:new 0 0 1080 1080;" xml:space="preserve">
<style type="text/css">
	.st0{fill:#FDFDFD;}
	.st1{fill:#191F26;}
	.st2{fill:#FEE404;}
	.st3{fill:#2B3037;}
	.st4{fill:#272D33;}
	.st5{fill:#292E35;}
	.st6{fill:#21272D;}
	.st7{fill:#2C3238;}
	.st8{fill:#242A30;}
	.st9{fill:#262B32;}
	.st10{fill:#252B31;}
	.st11{fill:#3B4045;}
	.st12{display:none;fill:#F3F3F3;}
	.st13{display:none;fill:#FDFDFD;}
	.st14{display:none;fill:#EBEBEC;}
	.st15{display:none;fill:#D9DADB;}
</style>
<path class="st0" d="M541.92,799.97c-96.37,0-192.74-0.05-289.11,0.14c-4.88,0.01-5.62-1.21-5.61-5.76
	c0.13-188.16,0.13-376.32,0.01-564.47c0-4.43,0.56-5.81,5.56-5.81c192.74,0.17,385.47,0.17,578.21,0.02c4.6,0,5.29,1.08,5.29,5.42
	c-0.13,188.38-0.15,376.75,0.06,565.13c0.01,5.34-1.84,5.41-5.96,5.41C734.22,799.95,638.07,799.97,541.92,799.97z M688.25,730.44
	c3.88-2.39,1.77-6.16,1.71-9.14c-0.24-11.03,1.35-22.13-0.85-33.11c-5.24,0.15-7.57,2.49-7.36,8.06c0.36,9.48,0.39,18.99-0.02,28.46
	C681.51,730.02,683.13,731.89,688.25,730.44z M483.37,457.03c-7.36-13-14.1-24.9-20.82-36.8c-1.57-2.77-3.87-3.53-7.04-3.52
	c-29.86,0.12-59.73,0.16-89.59-0.03c-4.27-0.03-5.55,1.1-5.54,5.42c0.13,54.71,0.11,109.43,0.02,164.14c-0.01,3.48,0.65,5,4.6,4.99
	c44.03-0.13,88.06-0.12,132.09-0.01c3.57,0.01,4.4-1.26,4.34-4.58c-0.19-9.59-0.4-19.2,0.06-28.77c0.27-5.48-1.4-6.86-6.82-6.79
	c-25.28,0.3-50.57,0.06-75.85,0.21c-4.03,0.02-5.94-0.72-5.64-5.3c0.4-6.08,0.39-12.22,0-18.3c-0.29-4.5,1.48-5.36,5.56-5.31
	c17.65,0.2,35.31-0.04,52.97,0.18c3.99,0.05,5.32-0.99,5.18-5.07c-0.29-8.71-0.36-17.45,0.02-26.15c0.2-4.7-1.45-5.74-5.87-5.68
	c-17.65,0.24-35.31,0.01-52.97,0.17c-3.62,0.03-5.06-0.88-4.87-4.71c0.29-5.87,0.39-11.79-0.02-17.65
	c-0.35-4.99,0.99-6.65,6.33-6.57C440.4,457.23,461.3,457.03,483.37,457.03z M478.06,416.79c-0.52,2.6,1.01,3.81,1.83,5.23
	c18.39,31.59,36.76,63.18,55.31,94.67c2.32,3.94,3.32,7.81,3.28,12.32c-0.15,18.31,0.25,36.64-0.23,54.94
	c-0.17,6.32,1.97,7.5,7.67,7.32c12.63-0.4,25.3-0.4,37.93,0c5.52,0.17,7.5-0.93,7.35-7.03c-0.47-18.96-0.17-37.94-0.17-56.91
	c0-2.6,0.07-5.06,1.51-7.53c19.06-32.71,38.01-65.49,56.98-98.25c0.82-1.42,2.48-2.61,1.44-4.78c-12.38,0-24.96,1.24-37.19-0.32
	c-15.09-1.93-22.81,4.12-28.3,17.55c-5.45,13.35-13.03,25.83-19.66,38.65c-2.17-0.63-2.42-2.33-3.09-3.6
	c-8.4-15.99-16.72-32.01-25.11-48c-1.07-2.05-1.74-4.35-4.98-4.33C514.43,416.85,496.21,416.79,478.06,416.79z M366.69,362.5
	c3.39,3.1,6.27-0.02,9.07-0.48c61.27-10.05,122.4-20.87,183.5-31.88c46.31-8.34,92.7-16.21,139.09-24.03
	c5.45-0.92,6.95-2.92,6.83-8.37c-0.4-17-0.3-34.02-0.05-51.02c0.07-5.15-0.49-6.81-6.23-4.66c-32.22,12.05-64.57,23.77-96.92,35.46
	c-27.66,9.99-55.42,19.68-83.07,29.68C468.31,325.5,417.78,343.93,366.69,362.5z M360.36,655.66c0,5.65,0.02,11.3-0.01,16.95
	c-0.01,2.12,0.16,3.97,3.01,3.9c6.72-0.17,13.52,0.71,20.14-0.84c9.45-2.22,12.97-11.98,6.93-19.62c-1.87-2.36-1.67-3.61-0.33-6.06
	c3.96-7.23,0.41-13.79-7.86-15.24c-6.04-1.06-12.14-0.33-18.21-0.61c-2.94-0.14-3.75,1.26-3.7,3.93
	C360.43,643.93,360.36,649.8,360.36,655.66z M369.25,713.44c-1.05-3.93-1.95-7.69-3.06-11.38c-1.1-3.67-4.28-2.42-6.6-2.23
	c-3.53,0.28-1.67,2.75-1.2,4.38c2.23,7.72,4.59,15.39,6.81,23.11c0.68,2.35,1.72,3.62,4.5,3.58c2.75-0.04,3.87-1.2,4.44-3.65
	c1.01-4.3,2.19-8.56,3.29-12.84c2.31,3.98,3.56,7.98,4.45,12.07c0.56,2.57,1.12,4.34,4.4,4.42c3.26,0.08,3.95-1.75,4.67-4.18
	c2.1-7.07,4.51-14.06,6.38-21.2c0.44-1.69,3.46-4.76-0.75-5.69c-2.82-0.62-6.04-0.96-6.82,3.69c-0.57,3.41-0.99,7.13-3.95,11.07
	c-1.35-4.39-2.61-7.75-3.36-11.21c-0.55-2.54-1.54-3.76-4.28-3.76c-2.74,0-3.53,1.32-4.32,3.74
	C372.75,706.73,373.1,710.86,369.25,713.44z M595.16,714.63c-3.13-4.34-3.5-8.31-4.41-12.05c-0.93-3.79-3.88-3.07-6.29-2.8
	c-3.88,0.44-1.88,3.13-1.37,4.94c2.09,7.53,4.43,15,6.42,22.56c0.78,2.96,2.44,3.51,5.17,3.61c3.05,0.12,3.61-1.79,4.18-3.92
	c1.16-4.38,2.27-8.77,3.85-14.92c1.55,5.79,2.67,9.92,3.77,14.06c0.66,2.49,0.85,4.99,4.72,4.81c3.38-0.15,3.68-2.15,4.34-4.54
	c1.91-6.9,4.08-13.73,5.95-20.64c0.51-1.91,3.39-4.64-0.49-5.84c-2.95-0.91-5.86-0.7-6.71,3.72c-0.71,3.68-0.76,7.79-3.96,11.13
	c-1.16-4.25-2.27-8.13-3.27-12.05c-0.58-2.28-1.93-3.09-4.25-3.08c-2.34,0.01-3.51,0.86-4.08,3.18
	C597.85,706.35,596.64,709.8,595.16,714.63z M545.52,737.59c0.64,5.81,3.88,6.31,8.4,4.82c5.26-1.73,8.78-4.95,9.07-10.66
	c0.35-6.74,0.46-13.5,0.4-20.25c-0.03-3.65,1.48-7.93-0.78-10.79c-2.15-2.72-6.01-0.5-9.13-0.28c-0.78,0.06-1.6-0.64-2.43-0.89
	c-3.4-1.01-6.46-0.16-9.26,1.83c-5.61,3.99-7.39,15.53-3.67,23.58c2.86,6.19,7.62,7.68,16.64,5.06
	C554.91,736.36,549.7,736.07,545.52,737.59z M560.43,675.55c-0.1,4.25-2.61,5.57-5.68,6.53c-1.52,0.47-4.6-0.71-3.77,2.79
	c0.64,2.71,1.93,4.64,5.4,4.24c6.18-0.72,11.17-5.21,11.68-11.98c0.55-7.34,0.4-14.74,0.45-22.12c0.06-8.53,0.01-8.49-8.71-8.8
	c-1.26-0.05-2.48-0.78-3.74-1.07c-5.96-1.37-10.5,0.96-12.75,6.33c-2.96,7.08-3.12,14.46,1.28,21.18
	C548.59,678.75,554.59,677.09,560.43,675.55z M478.95,646.16c-5.43-2.34-10.38-1.98-14.41,2.49c-5.41,5.99-5.27,18.8,0.19,24.9
	c1.82,2.03,4.12,3.49,6.84,3.33c4.39-0.26,8.68-1.45,13.18-0.51c2.42,0.51,2.62-1.59,2.61-3.46c-0.01-11.98-0.08-23.95,0.03-35.93
	c0.04-3.97-1.3-3.44-4.25-2.26C477.52,636.96,480.96,642.01,478.95,646.16z M641.39,633.12c-3.58,2.94-7.76,2.57-7.63,7.7
	c0.28,10.63,0.14,21.28,0.05,31.92c-0.03,2.81,1.19,4.52,3.79,3.65c3.65-1.22,6.86,0,10.28,0.56c4.9,0.81,8.39-1.83,10.95-5.58
	c3.29-4.81,2.72-17.33-0.74-21.86c-4.46-5.83-10.19-5.66-16.7-2.77C641.39,642.35,641.39,638.52,641.39,633.12z M483.93,730.22
	c-2.41-5.65-4-11.23-6.98-15.93c-4.51-7.11,4.93-9.05,4.78-14.15c-8.86-3.25-10.61,5.5-16.09,9.6c0-8,0-15.1,0-22.45
	c-6,1.23-9.19,3.54-8.75,10.13c0.62,9.33,0.21,18.73,0.12,28.1c-0.03,3.04-0.17,5.41,4.19,5.45c4.12,0.04,4.79-1.79,4.4-5.12
	c-0.4-3.46,0.69-6.3,3.6-8.42C474.22,721.5,471.58,733.77,483.93,730.22z M713.63,700.64c-0.92-0.29-1.73-0.57-2.55-0.78
	c-7.55-1.95-13.55,2.11-15.04,10.16c-2.11,11.43,2.36,21.2,10.25,21.28c4.38,0.05,8.78-0.96,13.26-0.58
	c2.92,0.24,2.74-2.11,2.74-4.08c0.01-11.75-0.09-23.51,0.05-35.26c0.05-4.22-1.55-3.99-4.71-2.69
	C711.68,691.13,715.69,696.45,713.63,700.64z M613.64,664.02c0-17.3-6.55-23.16-20.43-18.16c-1.41,0.51-3.9,0.59-3,3.26
	c0.75,2.22,2.03,4,4.83,2.79c1.84-0.79,3.72-1.19,5.72-1c2.54,0.24,5.18,0.87,4.85,4c-0.37,3.62-3,0.71-4.55,1.05
	c-1.05,0.24-2.17,0.12-3.25,0.23c-4.81,0.51-9.06,2.09-10.79,7.07c-1.29,3.73-0.74,7.38,2.34,10.18c3.82,3.49,8.23,4.65,13.22,2.77
	c0.95-0.36,1.9-1.19,2.8-1.12c8.24,0.65,8.24,0.7,8.24-7.16C613.64,666.64,613.64,665.33,613.64,664.02z M426.11,660.9
	c0-3.91-0.2-7.84,0.06-11.73c0.22-3.38-1.36-3.92-4.25-3.93c-3.01-0.02-4.29,0.82-4.14,4.06c0.21,4.77,0.01,9.56-0.08,14.34
	c-0.07,3.4-1.29,6.14-5.14,6.24c-4.22,0.11-5.55-2.75-5.6-6.43c-0.07-5-0.18-10-0.02-14.99c0.09-2.81-1.33-3.27-3.59-3.15
	c-2.1,0.12-4.51-0.5-4.4,3.03c0.18,6.08-0.22,12.2,0.35,18.24c0.66,6.96,5.35,10.75,11.77,10.44
	C426.12,676.29,426.12,676.29,426.11,660.9z M503.9,715.13c0,3.92,0.18,7.85-0.05,11.76c-0.2,3.35,1.37,3.93,4.28,3.98
	c3.02,0.05,3.65-1.23,3.59-3.9c-0.11-5.01-0.12-10.03,0.13-15.03c0.18-3.47,2.17-5.82,5.82-5.73c3.48,0.09,4.82,2.59,4.9,5.78
	c0.13,5.01,0.32,10.02,0.19,15.02c-0.09,3.5,1.87,3.76,4.57,3.82c2.71,0.07,3.99-0.73,3.89-3.67c-0.19-5.66,0.12-11.34-0.23-16.99
	c-0.38-6.17-3.69-10.12-10.05-10.96c-4.85-0.64-9.48,2.44-14.56,0.63c-2.19-0.78-2.51,1.65-2.49,3.51
	C503.92,707.29,503.9,711.21,503.9,715.13z M680.24,677.02c0.64-0.12,2.46-0.16,4-0.82c2.17-0.94,5.96-1.43,5.05-4.49
	c-0.9-3.03-3.94-4.26-7.41-2.38c-2.22,1.2-4.61,1.12-6.76-0.46c-1.27-0.93-2.38-2.2-2.18-3.76c0.3-2.33,2.38-1.26,3.65-1.31
	c3.91-0.15,7.82-0.05,11.73-0.06c1.74-0.01,3.27,0.13,3.77-2.39c1.72-8.6-7.03-18.08-15.51-16.58c-7.72,1.37-12.69,9.12-11.81,18.42
	C665.59,671.65,671.14,677,680.24,677.02z M739.21,660.64c-0.08,12.88,10.4,20.2,21.22,15.08c1.65-0.78,4.9-1.34,3.62-4.18
	c-0.99-2.2-2.85-4.33-6.24-2.55c-2.5,1.31-5.4,1.86-8.07-0.09c-1.26-0.92-2.53-2-2.33-3.67c0.28-2.35,2.33-1.41,3.63-1.45
	c3.92-0.14,7.85-0.04,11.77-0.06c1.72-0.01,3.36,0.2,3.82-2.37c0.98-5.52-3.26-13.9-8.29-15.81c-6.54-2.48-13.45,0.02-16.85,6.1
	C739.84,654.56,739.07,657.69,739.21,660.64z M428.65,715.12c-0.02-9.22-6.11-16.03-14.32-16c-7.71,0.03-13.84,7.01-13.92,15.83
	c-0.09,9.66,5.87,16.54,14.45,16.68C422.64,731.76,428.67,724.54,428.65,715.12z M652.99,715.19c0-9.21-5.68-15.88-13.68-16.07
	c-7.91-0.19-14.66,7.25-14.61,16.1c0.06,9.38,6.51,16.43,15.03,16.42C647.21,731.63,652.99,724.47,652.99,715.19z M509.03,660.91
	c0,3.92,0.12,7.84-0.04,11.75c-0.11,2.73,0.71,3.91,3.65,3.89c2.99-0.02,4.35-0.85,4.23-4.09c-0.19-4.78-0.1-9.58,0.09-14.36
	c0.15-3.73,1.87-6.27,6.04-6.09c3.8,0.17,5.32,2.66,5.44,6.06c0.17,4.78,0.26,9.58,0.08,14.36c-0.12,3.22,1.21,4.12,4.22,4.1
	c2.83-0.01,3.84-1.02,3.74-3.84c-0.19-5.43,0.21-10.91-0.24-16.31c-0.78-9.46-6.75-13.51-15.8-10.94c-1.92,0.54-3.41,0.61-5.38,0.09
	c-3.8-1.01-6.78-0.39-6.1,4.93C509.38,653.91,509.03,657.43,509.03,660.91z M713.97,669.1c-7.22,2.71-7.86-1.37-7.48-6.51
	c0.11-1.51,0.03-3.04,0.01-4.56c-0.03-3.01-0.71-6.36,4.31-5.74c2.11,0.26,2.18-1.6,2.16-3.19c-0.02-1.76,0.16-3.93-2.39-3.65
	c-4.6,0.51-3.9-2.47-4.18-5.31c-0.17-1.73,1.8-5.13-1.71-4.94c-2.36,0.13-5.93,0.95-5.92,4.79c0.01,2.95,0.15,5.22-3.88,6.03
	c-1.78,0.36-1.59,5.21-0.27,5.54c6.78,1.66,3.43,6.79,4.03,10.42c0.55,3.38-0.43,6.91,1.14,10.26c2,4.29,5.52,5.06,9.73,4.71
	C713.84,676.55,713.72,673.35,713.97,669.1z M730.05,677.05c2.24-0.37,4.86,0.07,5.5-2.69c0.67-2.94-0.98-4.13-3.85-4.51
	c-2.32-0.31-2.9-2.3-2.88-4.45c0.02-3.04,0.09-6.09-0.04-9.13c-0.11-2.55,0.39-4.32,3.49-3.9c2.57,0.35,3.43-0.84,3.33-3.35
	c-0.09-2.16-0.15-4.04-3.05-3.64c-4.23,0.58-3.56-2.32-3.83-4.93c-0.19-1.87,1.55-5.37-1.41-5.31c-2.69,0.06-6.85,0.85-6.56,5.56
	c0.16,2.58-0.27,4.07-3.43,5.06c-2.77,0.87-2.3,5.69-0.39,6.05c5.27,1.01,3.6,4.54,3.78,7.43c0.21,3.25-0.11,6.54,0.2,9.78
	C721.44,674.53,724.99,676.82,730.05,677.05z M433.62,715.13c0,3.92,0.17,7.85-0.05,11.76c-0.18,3.28,1.27,3.98,4.25,4.03
	c3.15,0.05,3.52-1.44,3.48-4c-0.07-4.79-0.08-9.59,0.23-14.36c0.25-3.74,2.29-6.67,6.34-5.33c4.51,1.49,4.81-1.11,5.2-4.07
	c0.55-4.22-2.92-3.89-5.22-3.94c-14.23-0.32-14.23-0.24-14.23,14.61C433.62,714.26,433.62,714.7,433.62,715.13z M657.89,714.82
	c0,3.04-0.2,6.1,0.06,9.12c0.24,2.77-1.89,6.77,3.9,6.96c5.86,0.2,3.95-3.78,4.1-6.58c0.21-3.68-0.01-7.39,0.13-11.08
	c0.16-4.49,2.4-7.36,7.04-5.98c4.23,1.27,4.04-1.58,4.66-3.85c0.88-3.18-1.75-4.14-3.69-3.98c-4.65,0.37-9.26,0.52-13.92,0.43
	c-2.4-0.05-2.3,2.11-2.29,3.88C657.9,707.43,657.89,711.13,657.89,714.82z M771.09,660.91c0,3.9,0.16,7.82-0.05,11.71
	c-0.18,3.35,1.49,3.91,4.35,3.97c3.13,0.06,3.52-1.56,3.46-4.06c-0.1-3.9-0.11-7.81,0.01-11.71c0.17-5.41,1.54-9.81,8.48-7.75
	c2.35,0.7,3.03-0.38,3.68-2.25c1.54-4.44-0.96-6.85-6.57-6.06c-2.64,0.37-4.93,1.72-7.97,0.71c-3.85-1.27-5.99,0.49-5.46,5.04
	C771.41,653.93,771.09,657.44,771.09,660.91z M455.22,655.39c0-5.64,0.08-11.27-0.05-16.91c-0.04-1.58,1.06-3.84-0.95-4.65
	c-1.97-0.8-3.53,1.19-5.25,1.99c-2.05,0.95-1.55,2.88-1.55,4.54c-0.02,10.62,0.05,21.24-0.05,31.86c-0.03,2.83,0.42,4.45,3.84,4.36
	c3.15-0.08,4.15-1.27,4.06-4.3C455.1,666.66,455.21,661.02,455.22,655.39z M502.43,660.62c0-3.9-0.15-7.81,0.05-11.7
	c0.15-2.9-1.02-3.74-3.77-3.65c-2.69,0.08-4.54,0.31-4.46,3.8c0.19,7.79,0.17,15.6,0,23.39c-0.07,3.25,1.39,3.99,4.29,4.1
	c3.26,0.12,4.09-1.28,3.94-4.25C502.28,668.43,502.43,664.52,502.43,660.62z M488.94,714.69c0,3.9,0.19,7.82-0.06,11.71
	c-0.21,3.41,1.01,4.53,4.44,4.51c3.29-0.02,4-1.36,3.95-4.29c-0.14-7.37-0.12-14.75-0.01-22.12c0.05-2.96-0.21-4.95-4.05-4.91
	c-3.53,0.04-4.52,1.43-4.32,4.7C489.1,707.74,488.94,711.22,488.94,714.69z M440.84,661.56c0-4.13-0.19-8.26,0.06-12.38
	c0.2-3.38-1.42-3.9-4.29-3.92c-2.89-0.02-3.73,1.09-3.68,3.84c0.13,7.6,0.16,15.21-0.01,22.8c-0.07,3.21,0.68,4.73,4.29,4.68
	c3.56-0.05,3.74-1.95,3.66-4.61C440.76,668.51,440.84,665.03,440.84,661.56z M493.3,687.52c-2.75-0.26-4.57,0.35-4.54,3.7
	c0.03,2.76,0.49,4.46,3.83,4.36c2.85-0.09,4.97-0.15,4.81-4C497.27,688.59,496.35,687.14,493.3,687.52z M498.85,641.09
	c3.37,0.55,3.55-1.54,3.67-4.24c0.14-3.31-1.74-3.19-4.05-3.26c-2.79-0.08-4.37,0.45-4.3,3.83
	C494.24,640.87,496.09,641.28,498.85,641.09z M436.56,633.68c-2.91-0.53-3.63,0.83-3.72,3.61c-0.11,3.43,1.53,3.89,4.36,3.89
	c2.85,0,3.63-1.1,3.76-3.86C441.12,633.75,439.33,633.31,436.56,633.68z"/>
<path class="st1" d="M483.37,457.03c-22.07,0-42.97,0.2-63.86-0.14c-5.34-0.09-6.68,1.58-6.33,6.57c0.42,5.86,0.31,11.77,0.02,17.65
	c-0.19,3.83,1.25,4.75,4.87,4.71c17.65-0.16,35.31,0.07,52.97-0.17c4.42-0.06,6.07,0.98,5.87,5.68c-0.37,8.7-0.31,17.44-0.02,26.15
	c0.14,4.08-1.19,5.12-5.18,5.07c-17.65-0.21-35.31,0.02-52.97-0.18c-4.09-0.05-5.85,0.81-5.56,5.31c0.39,6.08,0.4,12.22,0,18.3
	c-0.3,4.58,1.6,5.32,5.64,5.3c25.28-0.15,50.57,0.09,75.85-0.21c5.42-0.06,7.08,1.32,6.82,6.79c-0.46,9.57-0.25,19.18-0.06,28.77
	c0.07,3.32-0.76,4.59-4.34,4.58c-44.03-0.11-88.06-0.11-132.09,0.01c-3.95,0.01-4.61-1.51-4.6-4.99
	c0.09-54.71,0.11-109.43-0.02-164.14c-0.01-4.31,1.27-5.44,5.54-5.42c29.86,0.19,59.73,0.15,89.59,0.03
	c3.17-0.01,5.48,0.75,7.04,3.52C469.27,432.13,476.01,444.02,483.37,457.03z"/>
<path class="st1" d="M478.06,416.79c18.15,0,36.36,0.06,54.58-0.06c3.23-0.02,3.91,2.28,4.98,4.33c8.38,15.99,16.71,32.01,25.11,48
	c0.67,1.27,0.92,2.97,3.09,3.6c6.62-12.82,14.21-25.3,19.66-38.65c5.48-13.43,13.2-19.47,28.3-17.55
	c12.23,1.56,24.81,0.32,37.19,0.32c1.04,2.17-0.61,3.35-1.44,4.78c-18.97,32.77-37.92,65.54-56.98,98.25
	c-1.44,2.47-1.51,4.92-1.51,7.53c0,18.97-0.3,37.95,0.17,56.91c0.15,6.1-1.83,7.21-7.35,7.03c-12.63-0.4-25.3-0.4-37.93,0
	c-5.7,0.18-7.83-1-7.67-7.32c0.48-18.3,0.08-36.63,0.23-54.94c0.04-4.52-0.96-8.39-3.28-12.32c-18.55-31.49-36.92-63.08-55.31-94.67
	C479.07,420.59,477.55,419.38,478.06,416.79z"/>
<path class="st2" d="M366.69,362.5c51.09-18.57,101.63-37.01,152.21-55.31c27.65-10,55.41-19.69,83.07-29.68
	c32.36-11.69,64.7-23.41,96.92-35.46c5.75-2.15,6.31-0.49,6.23,4.66c-0.24,17.01-0.34,34.02,0.05,51.02
	c0.13,5.45-1.38,7.45-6.83,8.37c-46.4,7.82-92.79,15.69-139.09,24.03c-61.1,11-122.24,21.83-183.5,31.88
	C372.95,362.48,370.07,365.6,366.69,362.5z"/>
<path class="st3" d="M360.36,655.66c0-5.87,0.07-11.73-0.03-17.6c-0.04-2.67,0.77-4.07,3.7-3.93c6.07,0.28,12.17-0.45,18.21,0.61
	c8.27,1.45,11.82,8.02,7.86,15.24c-1.34,2.45-1.54,3.7,0.33,6.06c6.05,7.64,2.52,17.4-6.93,19.62c-6.63,1.56-13.42,0.67-20.14,0.84
	c-2.85,0.07-3.02-1.78-3.01-3.9C360.38,666.96,360.36,661.31,360.36,655.66z M375.34,657.5c-4.12-0.93-6.95-0.28-6.77,5.95
	c0.15,4.94,1.49,6.34,6.21,5.9c4.5-0.42,9.75,0.59,9.87-6.14C384.75,657.3,380.38,657.11,375.34,657.5z M375.4,649.77
	c2.9-0.57,7.97,1.5,7.81-4.37c-0.14-5.27-4.79-3.87-7.94-3.81c-2.68,0.05-6.52-1.94-6.6,3.91C368.6,651.2,372.2,649.49,375.4,649.77
	z"/>
<path class="st4" d="M369.25,713.44c3.85-2.58,3.51-6.71,4.6-10.08c0.79-2.42,1.58-3.74,4.32-3.74c2.74,0,3.73,1.22,4.28,3.76
	c0.75,3.47,2.01,6.82,3.36,11.21c2.96-3.94,3.38-7.66,3.95-11.07c0.78-4.64,4-4.31,6.82-3.69c4.21,0.93,1.19,4,0.75,5.69
	c-1.86,7.13-4.27,14.12-6.38,21.2c-0.72,2.43-1.4,4.26-4.67,4.18c-3.28-0.08-3.84-1.85-4.4-4.42c-0.89-4.09-2.14-8.1-4.45-12.07
	c-1.11,4.28-2.28,8.54-3.29,12.84c-0.58,2.44-1.69,3.61-4.44,3.65c-2.78,0.04-3.82-1.23-4.5-3.58c-2.22-7.72-4.59-15.39-6.81-23.11
	c-0.47-1.63-2.33-4.1,1.2-4.38c2.33-0.19,5.51-1.44,6.6,2.23C367.29,705.75,368.2,709.51,369.25,713.44z"/>
<path class="st4" d="M595.16,714.63c1.48-4.83,2.69-8.29,3.55-11.82c0.57-2.32,1.74-3.17,4.08-3.18c2.32-0.01,3.67,0.8,4.25,3.08
	c1,3.92,2.11,7.8,3.27,12.05c3.21-3.34,3.26-7.45,3.96-11.13c0.85-4.42,3.76-4.63,6.71-3.72c3.87,1.2,1,3.93,0.49,5.84
	c-1.86,6.91-4.03,13.74-5.95,20.64c-0.66,2.38-0.96,4.38-4.34,4.54c-3.87,0.18-4.06-2.32-4.72-4.81c-1.1-4.14-2.21-8.27-3.77-14.06
	c-1.58,6.15-2.69,10.54-3.85,14.92c-0.57,2.13-1.13,4.03-4.18,3.92c-2.74-0.1-4.39-0.66-5.17-3.61c-1.99-7.56-4.34-15.02-6.42-22.56
	c-0.5-1.81-2.5-4.5,1.37-4.94c2.41-0.27,5.36-0.99,6.29,2.8C591.66,706.32,592.03,710.3,595.16,714.63z"/>
<path class="st5" d="M545.52,737.59c4.19-1.52,9.4-1.23,9.24-7.59c-9.02,2.62-13.78,1.13-16.64-5.06
	c-3.72-8.05-1.94-19.59,3.67-23.58c2.8-1.99,5.86-2.84,9.26-1.83c0.83,0.25,1.65,0.95,2.43,0.89c3.12-0.23,6.98-2.45,9.13,0.28
	c2.26,2.87,0.75,7.15,0.78,10.79c0.06,6.75-0.06,13.51-0.4,20.25c-0.29,5.71-3.82,8.93-9.07,10.66
	C549.4,743.9,546.15,743.4,545.52,737.59z M555.11,714.69c-0.12-1.54,0.26-3.96-0.6-5.8c-1.05-2.26-3.61-3.3-6.14-2.55
	c-3.91,1.17-4.22,4.61-4.19,7.96c0.03,3.69-0.21,7.77,3.89,9.61c2.34,1.05,4.73,0.16,6.21-2.21
	C555.54,719.7,554.78,717.45,555.11,714.69z"/>
<path class="st6" d="M560.43,675.55c-5.85,1.54-11.84,3.2-15.84-2.91c-4.4-6.72-4.24-14.1-1.28-21.18c2.24-5.37,6.78-7.7,12.75-6.33
	c1.27,0.29,2.48,1.03,3.74,1.07c8.72,0.31,8.77,0.27,8.71,8.8c-0.05,7.38,0.1,14.78-0.45,22.12c-0.51,6.77-5.49,11.27-11.68,11.98
	c-3.47,0.4-4.76-1.53-5.4-4.24c-0.83-3.5,2.25-2.32,3.77-2.79C557.82,681.11,560.33,679.8,560.43,675.55z M560.93,661.45
	c0.32-4.69,0.45-9.42-5.84-9.47c-5.99-0.05-5.85,4.8-5.86,8.87c-0.01,4.1,0.04,9.03,5.78,9.04
	C560.29,669.91,561.7,666.05,560.93,661.45z"/>
<path class="st6" d="M478.95,646.16c2.01-4.15-1.44-9.19,4.19-11.45c2.95-1.18,4.29-1.71,4.25,2.26
	c-0.11,11.98-0.05,23.95-0.03,35.93c0,1.87-0.19,3.97-2.61,3.46c-4.5-0.94-8.79,0.25-13.18,0.51c-2.72,0.16-5.02-1.3-6.84-3.33
	c-5.46-6.09-5.6-18.9-0.19-24.9C468.58,644.18,473.53,643.82,478.95,646.16z M479.88,662.1c-0.08-4.99,0.92-10.32-5.71-10.13
	c-5.36,0.16-5.46,4.92-5.46,8.77c0,4.11,0.25,9.12,5.84,9.18C479.82,669.97,480.3,665.63,479.88,662.1z"/>
<path class="st5" d="M641.39,633.12c0,5.39,0,9.23,0,13.62c6.52-2.89,12.24-3.07,16.7,2.77c3.46,4.53,4.02,17.05,0.74,21.86
	c-2.56,3.74-6.05,6.38-10.95,5.58c-3.42-0.56-6.63-1.78-10.28-0.56c-2.6,0.87-3.81-0.84-3.79-3.65c0.1-10.64,0.23-21.29-0.05-31.92
	C633.62,635.7,637.8,636.07,641.39,633.12z M641.32,662.47c-0.26,2.82-0.56,7.55,5.37,7.51c5.73-0.04,5.81-5.08,5.78-9.09
	c-0.04-3.94,0.12-8.95-5.88-8.87C640.35,652.1,641.42,657.06,641.32,662.47z"/>
<path class="st7" d="M483.93,730.22c-12.35,3.55-9.71-8.72-14.72-12.79c-2.91,2.13-4,4.97-3.6,8.42c0.39,3.33-0.28,5.16-4.4,5.12
	c-4.36-0.04-4.22-2.41-4.19-5.45c0.09-9.37,0.49-18.77-0.12-28.1c-0.43-6.58,2.75-8.9,8.75-10.13c0,7.35,0,14.44,0,22.45
	c5.48-4.09,7.22-12.85,16.09-9.6c0.15,5.11-9.29,7.05-4.78,14.15C479.94,718.99,481.52,724.57,483.93,730.22z"/>
<path class="st8" d="M713.63,700.64c2.06-4.19-1.95-9.51,4.01-11.96c3.16-1.3,4.76-1.53,4.71,2.69c-0.14,11.75-0.05,23.5-0.05,35.26
	c0,1.98,0.17,4.33-2.74,4.08c-4.48-0.37-8.89,0.63-13.26,0.58c-7.89-0.08-12.36-9.85-10.25-21.28c1.49-8.05,7.49-12.11,15.04-10.16
	C711.91,700.07,712.71,700.35,713.63,700.64z M714.35,715.12c-0.41-2.2,1.02-5.07-1.21-7.11c-2.23-2.04-4.85-2.9-7.52-0.62
	c-2.94,2.51-3.03,11.92-0.23,15.18c2.12,2.48,4.6,2.18,6.9,0.57C715.03,721.24,714.27,718.15,714.35,715.12z"/>
<path class="st4" d="M613.64,664.02c0,1.31,0,2.61,0,3.92c0,7.86,0,7.81-8.24,7.16c-0.9-0.07-1.85,0.76-2.8,1.12
	c-4.99,1.89-9.4,0.72-13.22-2.77c-3.07-2.8-3.63-6.45-2.34-10.18c1.73-4.99,5.98-6.56,10.79-7.07c1.08-0.11,2.2,0,3.25-0.23
	c1.55-0.35,4.18,2.56,4.55-1.05c0.32-3.13-2.32-3.76-4.85-4c-2-0.19-3.88,0.21-5.72,1c-2.81,1.2-4.08-0.58-4.83-2.79
	c-0.9-2.66,1.58-2.75,3-3.26C607.08,640.87,613.63,646.72,613.64,664.02z M600.94,662.14c-2.97,0.15-5.94,0.24-5.89,4.36
	c0.03,3.09,2.05,4.26,4.7,4.23c3.23-0.04,6.1-0.83,6.16-5.04C605.95,661.94,603.13,662.52,600.94,662.14z"/>
<path class="st3" d="M426.11,660.9c0,15.39,0,15.39-15.04,16.11c-6.42,0.31-11.12-3.49-11.77-10.44
	c-0.57-6.04-0.16-12.16-0.35-18.24c-0.11-3.52,2.3-2.91,4.4-3.03c2.26-0.12,3.68,0.34,3.59,3.15c-0.16,4.99-0.05,10,0.02,14.99
	c0.05,3.69,1.38,6.54,5.6,6.43c3.85-0.1,5.07-2.84,5.14-6.24c0.09-4.78,0.3-9.57,0.08-14.34c-0.15-3.24,1.13-4.08,4.14-4.06
	c2.89,0.02,4.47,0.56,4.25,3.93C425.91,653.06,426.11,656.98,426.11,660.9z"/>
<path class="st9" d="M503.9,715.13c0-3.92,0.02-7.84-0.01-11.77c-0.02-1.85,0.3-4.29,2.49-3.51c5.08,1.82,9.71-1.26,14.56-0.63
	c6.36,0.83,9.67,4.79,10.05,10.96c0.35,5.65,0.04,11.33,0.23,16.99c0.1,2.94-1.18,3.74-3.89,3.67c-2.7-0.07-4.66-0.32-4.57-3.82
	c0.13-5-0.06-10.02-0.19-15.02c-0.09-3.19-1.42-5.68-4.9-5.78c-3.65-0.1-5.65,2.25-5.82,5.73c-0.25,5-0.25,10.02-0.13,15.03
	c0.06,2.67-0.57,3.95-3.59,3.9c-2.91-0.05-4.48-0.64-4.28-3.98C504.08,722.99,503.9,719.06,503.9,715.13z"/>
<path class="st4" d="M680.24,677.02c-9.1-0.02-14.65-5.37-15.45-13.84c-0.88-9.31,4.09-17.06,11.81-18.42
	c8.48-1.5,17.22,7.98,15.51,16.58c-0.5,2.52-2.03,2.39-3.77,2.39c-3.91,0.02-7.83-0.09-11.73,0.06c-1.27,0.05-3.35-1.02-3.65,1.31
	c-0.2,1.55,0.91,2.82,2.18,3.76c2.15,1.58,4.54,1.67,6.76,0.46c3.46-1.88,6.51-0.65,7.41,2.38c0.91,3.06-2.89,3.56-5.05,4.49
	C682.7,676.86,680.88,676.9,680.24,677.02z M678.15,658.03c1.4-1.42,5.2,1.62,5.19-2.57c-0.01-3.04-2.63-4.36-5.48-4.34
	c-2.76,0.02-4.64,1.84-4.78,4.42C672.87,659.39,676.21,657.03,678.15,658.03z"/>
<path class="st9" d="M739.21,660.64c-0.14-2.96,0.63-6.08,2.27-9.01c3.4-6.08,10.3-8.58,16.85-6.1c5.03,1.91,9.27,10.29,8.29,15.81
	c-0.45,2.56-2.09,2.36-3.82,2.37c-3.92,0.02-7.85-0.07-11.77,0.06c-1.3,0.04-3.35-0.89-3.63,1.45c-0.2,1.67,1.07,2.75,2.33,3.67
	c2.66,1.95,5.57,1.4,8.07,0.09c3.4-1.78,5.26,0.35,6.24,2.55c1.28,2.84-1.97,3.4-3.62,4.18
	C749.61,680.84,739.13,673.52,739.21,660.64z M753.33,658.09c1.39-1.55,5.25,1.65,5.19-2.64c-0.05-3.14-2.94-4.16-5.61-4.32
	c-2.94-0.18-5.43,1.53-5.39,4.43C747.57,659.5,751.2,656.92,753.33,658.09z"/>
<path class="st10" d="M428.65,715.12c0.02,9.42-6.01,16.64-13.79,16.51c-8.58-0.14-14.54-7.02-14.45-16.68
	c0.08-8.82,6.21-15.8,13.92-15.83C422.54,699.08,428.63,705.89,428.65,715.12z M420.22,717.34c0.37-6.36-0.93-10.71-5.89-10.99
	c-4.92-0.28-6.04,4.22-6.03,8.31c0.02,4.4,0.4,9.46,6.26,9.47C419.7,724.15,419.99,719.49,420.22,717.34z"/>
<path class="st10" d="M652.99,715.19c0,9.28-5.78,16.44-13.27,16.45c-8.52,0.01-14.97-7.04-15.03-16.42
	c-0.05-8.84,6.7-16.29,14.61-16.1C647.31,699.31,652.99,705.98,652.99,715.19z M632.94,715.74c0.46,3.25,0.39,8.24,5.89,8.4
	c5.51,0.16,6.05-4.67,6.24-8.87c0.21-4.53-1.36-8.89-6.32-8.96C633.87,706.26,633.1,710.78,632.94,715.74z"/>
<path class="st10" d="M509.03,660.91c0-3.48,0.35-7.01-0.08-10.44c-0.67-5.32,2.3-5.94,6.1-4.93c1.97,0.53,3.47,0.46,5.38-0.09
	c9.05-2.57,15.02,1.48,15.8,10.94c0.45,5.41,0.05,10.88,0.24,16.31c0.1,2.82-0.9,3.83-3.74,3.84c-3.01,0.01-4.35-0.88-4.22-4.1
	c0.18-4.78,0.09-9.58-0.08-14.36c-0.12-3.4-1.63-5.9-5.44-6.06c-4.18-0.18-5.9,2.35-6.04,6.09c-0.19,4.78-0.28,9.58-0.09,14.36
	c0.13,3.24-1.24,4.07-4.23,4.09c-2.94,0.02-3.76-1.17-3.65-3.89C509.15,668.75,509.03,664.83,509.03,660.91z"/>
<path class="st8" d="M713.97,669.1c-0.25,4.25-0.13,7.45-4.46,7.82c-4.21,0.36-7.72-0.41-9.73-4.71c-1.56-3.34-0.59-6.88-1.14-10.26
	c-0.59-3.63,2.76-8.76-4.03-10.42c-1.32-0.32-1.52-5.18,0.27-5.54c4.03-0.81,3.9-3.08,3.88-6.03c-0.02-3.84,3.56-4.66,5.92-4.79
	c3.51-0.19,1.54,3.21,1.71,4.94c0.28,2.85-0.42,5.82,4.18,5.31c2.55-0.28,2.37,1.89,2.39,3.65c0.02,1.6-0.05,3.45-2.16,3.19
	c-5.03-0.61-4.35,2.73-4.31,5.74c0.02,1.52,0.1,3.05-0.01,4.56C706.11,667.73,706.75,671.81,713.97,669.1z"/>
<path class="st6" d="M730.05,677.05c-5.07-0.23-8.62-2.52-9.14-8.03c-0.31-3.24,0.01-6.53-0.2-9.78c-0.18-2.89,1.49-6.42-3.78-7.43
	c-1.91-0.37-2.38-5.19,0.39-6.05c3.16-0.99,3.59-2.48,3.43-5.06c-0.29-4.71,3.87-5.5,6.56-5.56c2.96-0.07,1.21,3.44,1.41,5.31
	c0.27,2.61-0.4,5.51,3.83,4.93c2.9-0.4,2.96,1.48,3.05,3.64c0.1,2.51-0.76,3.7-3.33,3.35c-3.11-0.42-3.6,1.35-3.49,3.9
	c0.13,3.04,0.06,6.09,0.04,9.13c-0.02,2.15,0.56,4.15,2.88,4.45c2.87,0.38,4.53,1.58,3.85,4.51
	C734.92,677.11,732.3,676.68,730.05,677.05z"/>
<path class="st3" d="M433.62,715.13c0-0.44,0-0.87,0-1.31c0-14.85,0-14.93,14.23-14.61c2.29,0.05,5.76-0.28,5.22,3.94
	c-0.38,2.96-0.69,5.56-5.2,4.07c-4.05-1.34-6.1,1.59-6.34,5.33c-0.31,4.77-0.31,9.58-0.23,14.36c0.04,2.55-0.33,4.04-3.48,4
	c-2.98-0.04-4.43-0.75-4.25-4.03C433.79,722.99,433.62,719.06,433.62,715.13z"/>
<path class="st9" d="M657.89,714.82c0-3.69,0.01-7.39,0-11.08c-0.01-1.78-0.12-3.93,2.29-3.88c4.66,0.1,9.27-0.05,13.92-0.43
	c1.94-0.16,4.56,0.81,3.69,3.98c-0.63,2.27-0.43,5.12-4.66,3.85c-4.64-1.39-6.87,1.49-7.04,5.98c-0.13,3.69,0.08,7.4-0.13,11.08
	c-0.16,2.8,1.76,6.78-4.1,6.58c-5.79-0.2-3.66-4.19-3.9-6.96C657.68,720.93,657.89,717.87,657.89,714.82z"/>
<path class="st3" d="M771.09,660.91c0-3.47,0.32-6.98-0.08-10.4c-0.53-4.55,1.62-6.31,5.46-5.04c3.04,1,5.33-0.34,7.97-0.71
	c5.61-0.79,8.11,1.62,6.57,6.06c-0.65,1.87-1.33,2.95-3.68,2.25c-6.94-2.06-8.31,2.33-8.48,7.75c-0.13,3.9-0.12,7.81-0.01,11.71
	c0.07,2.5-0.33,4.12-3.46,4.06c-2.85-0.06-4.52-0.62-4.35-3.97C771.25,668.72,771.09,664.81,771.09,660.91z"/>
<path class="st5" d="M455.22,655.39c0,5.64-0.12,11.28,0.05,16.91c0.09,3.02-0.91,4.22-4.06,4.3c-3.41,0.08-3.86-1.54-3.84-4.36
	c0.11-10.62,0.03-21.24,0.05-31.86c0-1.67-0.49-3.6,1.55-4.54c1.72-0.8,3.28-2.79,5.25-1.99c2,0.81,0.91,3.07,0.95,4.65
	C455.3,644.11,455.22,649.75,455.22,655.39z"/>
<path class="st4" d="M502.43,660.62c0,3.9-0.14,7.81,0.05,11.7c0.15,2.97-0.68,4.37-3.94,4.25c-2.9-0.11-4.36-0.84-4.29-4.1
	c0.17-7.79,0.19-15.6,0-23.39c-0.08-3.5,1.77-3.72,4.46-3.8c2.75-0.08,3.92,0.75,3.77,3.65
	C502.28,652.82,502.43,656.72,502.43,660.62z"/>
<path class="st9" d="M488.94,714.69c0-3.47,0.16-6.95-0.05-10.41c-0.2-3.26,0.79-4.66,4.32-4.7c3.84-0.04,4.1,1.95,4.05,4.91
	c-0.12,7.37-0.13,14.75,0.01,22.12c0.06,2.93-0.66,4.27-3.95,4.29c-3.42,0.02-4.65-1.09-4.44-4.51
	C489.12,722.51,488.94,718.59,488.94,714.69z"/>
<path class="st1" d="M688.25,730.44c-5.13,1.45-6.74-0.42-6.52-5.72c0.41-9.47,0.38-18.99,0.02-28.46
	c-0.21-5.57,2.12-7.92,7.36-8.06C687.26,702.25,688.86,716.37,688.25,730.44z"/>
<path class="st4" d="M440.84,661.56c0,3.48-0.08,6.95,0.03,10.42c0.08,2.65-0.1,4.55-3.66,4.61c-3.61,0.05-4.36-1.47-4.29-4.68
	c0.17-7.6,0.14-15.2,0.01-22.8c-0.05-2.75,0.79-3.86,3.68-3.84c2.86,0.02,4.49,0.54,4.29,3.92
	C440.66,653.29,440.84,657.43,440.84,661.56z"/>
<path class="st11" d="M688.25,730.44c0.61-14.07-0.99-28.19,0.86-42.24c2.2,10.98,0.61,22.07,0.85,33.1
	C690.03,724.28,692.13,728.06,688.25,730.44z"/>
<path class="st11" d="M493.3,687.52c3.06-0.39,3.97,1.07,4.09,4.06c0.16,3.85-1.96,3.92-4.81,4c-3.34,0.1-3.8-1.6-3.83-4.36
	C488.72,687.87,490.54,687.26,493.3,687.52z"/>
<path class="st7" d="M498.85,641.09c-2.76,0.2-4.6-0.22-4.67-3.67c-0.07-3.38,1.51-3.92,4.3-3.83c2.3,0.07,4.19-0.05,4.05,3.26
	C502.4,639.55,502.22,641.64,498.85,641.09z"/>
<path class="st7" d="M436.56,633.68c2.76-0.37,4.56,0.07,4.39,3.64c-0.13,2.76-0.91,3.87-3.76,3.86c-2.83,0-4.47-0.46-4.36-3.89
	C432.93,634.51,433.65,633.15,436.56,633.68z"/>
<path class="st12" d="M375.34,657.5c5.04-0.38,9.41-0.19,9.31,5.7c-0.11,6.73-5.36,5.73-9.87,6.14c-4.72,0.44-6.07-0.96-6.21-5.9
	C368.39,657.22,371.22,656.57,375.34,657.5z"/>
<path class="st13" d="M375.4,649.77c-3.2-0.29-6.8,1.43-6.73-4.27c0.08-5.85,3.92-3.86,6.6-3.91c3.15-0.06,7.8-1.46,7.94,3.81
	C383.36,651.28,378.3,649.21,375.4,649.77z"/>
<path class="st12" d="M555.11,714.69c-0.32,2.76,0.43,5.02-0.82,7.02c-1.48,2.36-3.87,3.26-6.21,2.21c-4.1-1.85-3.86-5.92-3.89-9.61
	c-0.03-3.35,0.27-6.79,4.19-7.96c2.52-0.75,5.09,0.29,6.14,2.55C555.37,710.73,554.99,713.15,555.11,714.69z"/>
<path class="st14" d="M560.93,661.45c0.77,4.6-0.63,8.46-5.92,8.45c-5.74-0.01-5.79-4.94-5.78-9.04c0.01-4.07-0.12-8.92,5.86-8.87
	C561.38,652.03,561.25,656.75,560.93,661.45z"/>
<path class="st14" d="M479.88,662.1c0.42,3.53-0.06,7.87-5.33,7.82c-5.59-0.05-5.85-5.07-5.84-9.18c0-3.84,0.11-8.61,5.46-8.77
	C480.8,651.78,479.8,657.11,479.88,662.1z"/>
<path class="st14" d="M641.32,662.47c0.1-5.41-0.98-10.37,5.27-10.45c5.99-0.08,5.84,4.94,5.88,8.87c0.04,4-0.05,9.04-5.78,9.09
	C640.76,670.02,641.07,665.3,641.32,662.47z"/>
<path class="st12" d="M714.35,715.12c-0.08,3.03,0.67,6.11-2.06,8.02c-2.3,1.61-4.77,1.91-6.9-0.57c-2.8-3.27-2.71-12.67,0.23-15.18
	c2.67-2.28,5.29-1.42,7.52,0.62C715.38,710.05,713.94,712.93,714.35,715.12z"/>
<path class="st12" d="M600.94,662.14c2.19,0.38,5.01-0.2,4.96,3.55c-0.06,4.21-2.92,5-6.16,5.04c-2.64,0.03-4.66-1.14-4.7-4.23
	C595,662.38,597.97,662.29,600.94,662.14z"/>
<path class="st15" d="M678.15,658.03c-1.94-0.99-5.28,1.36-5.07-2.5c0.14-2.58,2.02-4.4,4.78-4.42c2.85-0.02,5.47,1.3,5.48,4.34
	C683.35,659.65,679.55,656.6,678.15,658.03z"/>
<path class="st15" d="M753.33,658.09c-2.13-1.17-5.76,1.42-5.81-2.54c-0.04-2.9,2.44-4.61,5.39-4.43c2.67,0.16,5.57,1.18,5.61,4.32
	C758.58,659.74,754.72,656.54,753.33,658.09z"/>
<path class="st12" d="M420.22,717.34c-0.23,2.15-0.52,6.81-5.65,6.8c-5.87-0.01-6.25-5.07-6.26-9.47c-0.02-4.1,1.11-8.59,6.03-8.31
	C419.29,706.63,420.59,710.98,420.22,717.34z"/>
<path class="st12" d="M632.94,715.74c0.15-4.96,0.92-9.49,5.81-9.42c4.96,0.06,6.53,4.43,6.32,8.96c-0.19,4.2-0.72,9.03-6.24,8.87
	C633.33,723.98,633.41,718.99,632.94,715.74z"/>
</svg>
