<?xml version="1.0" encoding="UTF-8"?>
<svg width="86px" height="100px" viewBox="0 0 86 100" version="1.1" xmlns="http://www.w3.org/2000/svg" xmlns:xlink="http://www.w3.org/1999/xlink">
    <!-- Generator: Sketch 47.1 (45422) - http://www.bohemiancoding.com/sketch -->
    <title>20170526 EY Digital Brand</title>
    <desc>Created with Sketch.</desc>
    <defs></defs>
    <g id="EY_Styles" stroke="none" stroke-width="1" fill="none" fill-rule="evenodd">
        <g id="EY_Footer_1024px" transform="translate(-49.000000, -50.000000)">
            <g id="20170526-EY-Digital-Brand" transform="translate(49.000000, 50.000000)">
                <path d="M11.089747,61.4005999 L28.4597434,61.4005999 L28.4597434,69.3164825 L0.671506274,69.3164825 L0.671506274,34.9037012 L20.3752436,34.9037012 L24.9838656,42.8183432 L11.089747,42.8183432 L11.089747,48.4973577 L23.6507465,48.4973577 L23.6507465,55.7222057 L11.089747,55.7222057 L11.089747,61.4005999 Z M46.9543436,34.9037012 L41.0545561,46.1339448 L35.1660397,34.9037012 L23.6501204,34.9037012 L35.7840709,55.7222057 L35.7840709,69.3164825 L46.1722555,69.3164825 L46.1722555,55.7222057 L58.3231127,34.9037012 L46.9543436,34.9037012 Z M4.23817891,86.0737626 L0.671506274,86.0737626 L0.671506274,77.6982242 L4.27449686,77.6982242 C5.94261763,77.6982242 6.89940762,78.4934723 6.89940762,79.8811245 C6.89940762,80.5740201 6.51619069,81.2253544 5.93698209,81.5348932 C6.37592828,81.725331 7.18744649,82.2346123 7.18744649,83.3964686 C7.18744649,85.0725688 6.08475855,86.0737626 4.23817891,86.0737626 L4.23817891,86.0737626 Z M5.52621361,83.4578801 C5.52621361,82.6706961 5.09540764,82.2718314 4.24318829,82.2718314 L2.24131813,82.2718314 L2.24131813,84.6557149 L4.24318829,84.6557149 C5.05846353,84.6557149 5.52621361,84.2196311 5.52621361,83.4578801 L5.52621361,83.4578801 Z M5.26196925,80.0200758 C5.26196925,79.4140247 4.89753746,79.1187532 4.14675788,79.1187532 L2.24069196,79.1187532 L2.24069196,80.907131 L4.23066486,80.907131 C5.08351039,80.907131 5.26196925,80.4245234 5.26196925,80.0200758 L5.26196925,80.0200758 Z M10.5975763,86.2040295 C11.2024579,86.2040295 11.6983857,85.9956025 12.0740886,85.5843315 L12.0740886,86.0737626 L13.5994423,86.0737626 L13.5994423,79.9555627 L12.0740886,79.9555627 L12.0740886,83.3350571 C12.0740886,84.3201226 11.6877408,84.8194789 10.9263163,84.8194789 C10.151116,84.8194789 9.79044126,84.3449354 9.79044126,83.325132 L9.79044126,79.9555627 L8.26446141,79.9555627 L8.26446141,83.4132172 C8.26446141,84.4553521 8.56815457,86.2040295 10.5975763,86.2040295 L10.5975763,86.2040295 Z M31.5386284,82.6924073 C31.5386284,81.721609 31.9437614,81.2079854 32.7101952,81.2079854 C33.469115,81.2079854 33.8222757,81.682529 33.8222757,82.7023324 L33.8222757,86.0737626 L35.3470033,86.0737626 L35.3470033,82.6142472 C35.3470033,80.7880299 34.5649151,79.8234349 33.0858981,79.8234349 C32.4565958,79.8234349 31.9124528,80.0529527 31.5386284,80.4710472 L31.5386284,79.9555627 L30.0126486,79.9555627 L30.0126486,86.0737626 L31.5386284,86.0737626 L31.5386284,82.6924073 Z M14.9707578,86.0737626 L16.4967376,86.0737626 L16.4967376,79.9555627 L14.9707578,79.9555627 L14.9707578,86.0737626 Z M17.8555297,86.0737626 L19.3815095,86.0737626 L19.3815095,77.4110168 L17.8555297,78.1671848 L17.8555297,86.0737626 Z M24.2337122,78.1671848 L25.7571873,77.4116371 L25.7571873,86.0737626 L24.2337122,86.0737626 L24.2337122,85.6060426 C23.8248222,86.0148324 23.3451749,86.2040295 22.8323404,86.2040295 C21.337043,86.2040295 20.4434963,84.9882055 20.4434963,82.9523207 C20.4434963,81.0231306 21.3708563,79.8246755 22.8642752,79.8246755 C23.3827452,79.8246755 23.8617663,80.0045678 24.2337122,80.3860636 L24.2337122,78.1671848 Z M24.2337122,84.2090857 L24.2337122,81.8059723 C24.0552533,81.5466793 23.7127375,81.2092261 23.1404168,81.2092261 C22.6194421,81.2092261 21.9976539,81.5051179 21.9976539,82.9169625 C21.9976539,84.4832664 22.6300871,84.8120351 23.1604543,84.8120351 C23.7265133,84.8120351 24.0070381,84.5006353 24.2337122,84.2090857 L24.2337122,84.2090857 Z M59.9292425,82.9523207 C59.9292425,85.0186011 59.058238,86.2040295 57.5372675,86.2040295 C56.995003,86.2040295 56.512851,86.0018057 56.1352696,85.6159677 L56.1352696,86.0737626 L54.6111682,86.0737626 L54.6111682,78.3216441 L56.1352696,77.5685776 L56.1352696,80.3922668 C56.5234959,80.0362041 57.0294424,79.8246755 57.5053327,79.8246755 C59.0012564,79.8246755 59.9292425,81.0231306 59.9292425,82.9523207 L59.9292425,82.9523207 Z M56.1352696,81.8307851 L56.1352696,84.2363797 C56.2999527,84.4342612 56.6800387,84.8120351 57.2523595,84.8120351 C58.0056437,84.8120351 58.371954,84.1917167 58.371954,82.9169625 C58.371954,81.6577163 57.7777173,81.2092261 57.2210509,81.2092261 C56.7727121,81.2092261 56.3869905,81.4449471 56.1352696,81.8307851 L56.1352696,81.8307851 Z M40.1653926,79.9537017 L41.6888678,79.9537017 L41.6888678,85.5030698 C41.6888678,87.5302702 40.7089095,88.531464 38.6926374,88.5631002 L38.6625811,88.5637205 L38.1221952,87.3764312 L38.1917002,87.3745702 C40.1635141,87.3404527 40.1653926,86.4230019 40.1653926,85.7530581 L40.1653926,85.6103848 C39.7727831,86.002426 39.3006499,86.2015482 38.7633947,86.2015482 C37.2649664,86.2015482 36.3701674,84.9851039 36.3701674,82.9498394 C36.3701674,81.0206493 37.300032,79.8221942 38.7953295,79.8221942 C39.3137995,79.8221942 39.79783,80.0206961 40.1653926,80.3835823 L40.1653926,79.9537017 Z M39.0714711,81.2061245 C38.5498703,81.2061245 37.9287082,81.5026367 37.9287082,82.9138609 C37.9287082,84.4801648 38.5567582,84.8095538 39.0833684,84.8095538 C39.630016,84.8095538 39.9224381,84.5198652 40.1653926,84.2059841 L40.1653926,81.8028707 C39.9869338,81.544198 39.644418,81.2061245 39.0714711,81.2061245 L39.0714711,81.2061245 Z M45.8328705,80.4158389 C46.5485845,80.012632 47.2968594,79.8246755 48.1409385,79.8246755 C49.7026102,79.8246755 50.6349795,80.618683 50.6349795,81.9492659 L50.6349795,86.0737626 L49.110252,86.0737626 L49.110252,85.5725454 C48.6925956,86.0371639 48.0601624,86.2040295 47.6255994,86.2040295 C46.568622,86.2040295 45.3350642,85.6389195 45.3350642,84.0434607 C45.3350642,82.5633811 46.6619215,82.0385917 47.7977966,82.0385917 C48.2517709,82.0385917 48.7570913,82.1508693 49.110252,82.3282804 L49.110252,81.9132874 C49.110252,81.337632 48.7276612,81.0342963 48.007564,81.0342963 C47.3694953,81.0342963 46.9136425,81.1868946 46.4283596,81.4567331 L45.8328705,80.4158389 Z M47.9130121,84.9584302 C48.4734356,84.9584302 48.9161388,84.6346241 49.110252,84.3139195 L49.110252,83.4764897 C48.7564651,83.2618595 48.3651079,83.175015 47.9130121,83.175015 C47.2549059,83.175015 46.8616702,83.4994415 46.8616702,84.0434607 C46.8616702,84.6085707 47.2642985,84.9584302 47.9130121,84.9584302 L47.9130121,84.9584302 Z M65.7908335,85.2437767 C65.2116249,85.8889078 64.4251535,86.2040295 63.6111306,86.2040295 C61.834056,86.2040295 60.6862838,84.9547083 60.6862838,83.0199354 C60.6862838,81.1689054 61.8503365,79.8246755 63.4539616,79.8246755 C65.0275305,79.8246755 66.0431806,81.0789592 66.0431806,83.0199354 C66.0431806,83.173154 66.0350404,83.3518057 66.0256478,83.4783506 L62.2404413,83.4783506 C62.3149557,84.7152654 63.3061851,84.8120351 63.6111306,84.8120351 C64.1728064,84.8120351 64.5528925,84.5452982 64.828408,84.2965506 L65.7908335,85.2437767 Z M64.5735562,82.372323 C64.5378644,81.7513843 64.2153861,81.1062532 63.4095034,81.1062532 C62.7657992,81.1062532 62.2986753,81.6242191 62.2617312,82.372323 L64.5735562,82.372323 Z M80.5114984,85.2437767 C79.9178878,85.8889078 79.1458184,86.2040295 78.3324217,86.2040295 C76.5547209,86.2040295 75.4056963,84.9547083 75.4056963,83.0199354 C75.4056963,81.1689054 76.569749,79.8246755 78.1746265,79.8246755 C79.746943,79.8246755 80.7644716,81.0789592 80.7644716,83.0199354 C80.7644716,83.173154 80.7550791,83.3518057 80.7463127,83.4783506 L76.96048,83.4783506 C77.0349944,84.7152654 78.0255977,84.8120351 78.3324217,84.8120351 C78.8934713,84.8120351 79.2729312,84.5452982 79.5484467,84.2965506 L80.5114984,85.2437767 Z M79.2929687,82.372323 C79.2585293,81.7513843 78.9341725,81.1062532 78.128916,81.1062532 C77.4870902,81.1062532 77.0199663,81.6242191 76.9817698,82.372323 L79.2929687,82.372323 Z M73.3017602,81.3717495 L74.6906085,81.3717495 L74.6906085,79.9555627 L73.3023863,79.9555627 L73.3023863,77.6306095 L71.7770327,78.3855369 L71.7770327,79.9555627 L70.8277567,79.9555627 L70.8277567,81.3717495 L71.7770327,81.3717495 L71.7770327,84.3281868 C71.7770327,85.1935309 72.2084648,86.2040295 73.4232374,86.2040295 C73.9060156,86.2040295 74.3499712,86.1053989 74.7056366,85.9217847 L74.8853478,84.4956727 C74.6041968,84.6451695 74.2823447,84.7729551 73.9623711,84.7729551 C73.5096491,84.7729551 73.3017602,84.4938118 73.3017602,83.9491723 L73.3017602,81.3717495 Z M70.5240636,84.4956727 C70.2435388,84.6451695 69.9210605,84.7729551 69.6004607,84.7729551 C69.1477387,84.7729551 68.9411021,84.4938118 68.9411021,83.9491723 L68.9411021,81.3717495 L70.2429126,81.3717495 L70.2429126,79.9555627 L68.9411021,79.9555627 L68.9411021,77.6306095 L67.4157484,78.3855369 L67.4157484,79.9555627 L66.4620893,79.9555627 L66.4620893,81.3717495 L67.4157484,81.3717495 L67.4157484,84.3281868 C67.4157484,85.1935309 67.8465544,86.2040295 69.0625794,86.2040295 C69.5459838,86.2040295 69.9893131,86.1053989 70.3443524,85.9217847 L70.5240636,84.4956727 Z M85.7857406,80.1937649 C85.4933185,79.9685894 85.0424751,79.8246755 84.6354636,79.8246755 C84.0957038,79.8246755 83.6373463,80.026279 83.271036,80.4859349 L83.271036,79.9555627 L81.7456823,79.9555627 L81.7456823,86.0737626 L83.271036,86.0737626 L83.271036,82.758161 C83.271036,81.7879831 83.621692,81.335771 84.3730978,81.335771 C84.7325202,81.335771 85.0769145,81.4610753 85.3837385,81.6676413 L85.7857406,80.1937649 Z M14.9707578,79.0802935 L16.4948591,79.0802935 L16.4948591,77.5710589 L14.9707578,77.5710589 L14.9707578,79.0802935 Z M27.1184841,86.0737626 L28.6438378,86.0737626 L28.6438378,79.9555627 L27.1184841,79.9555627 L27.1184841,86.0737626 Z M27.1178579,79.0802935 L28.6413331,79.0802935 L28.6413331,77.5710589 L27.1178579,77.5710589 L27.1178579,79.0802935 Z M70.5453534,88.8540295 L72.0688286,88.0984818 L72.0688286,96.7606073 L70.5453534,96.7606073 L70.5453534,96.2941279 C70.1358373,96.7016771 69.6561899,96.8908742 69.1433555,96.8908742 C67.6474319,96.8908742 66.7538852,95.6756705 66.7538852,93.6397857 C66.7538852,91.7105956 67.6818713,90.5115202 69.1746641,90.5115202 C69.6937602,90.5115202 70.1734076,90.6914125 70.5453534,91.0741489 L70.5453534,88.8540295 Z M70.5453534,94.8959303 L70.5453534,92.492817 C70.3668945,92.2341443 70.0243787,91.8966911 69.452058,91.8966911 C68.929831,91.8966911 68.3086689,92.1919626 68.3086689,93.6044275 C68.3086689,95.1701111 68.940476,95.4988798 69.4714693,95.4988798 C70.0381545,95.4988798 70.3186793,95.1881003 70.5453534,94.8959303 L70.5453534,94.8959303 Z M19.1254054,90.8818502 C18.8329833,90.6560544 18.3815137,90.5121405 17.9745022,90.5121405 C17.4347424,90.5121405 16.9770111,90.713744 16.6107008,91.1733999 L16.6107008,90.6430277 L15.0853471,90.6430277 L15.0853471,96.7612277 L16.6107008,96.7612277 L16.6107008,93.4462463 C16.6107008,92.4754481 16.9607307,92.0226157 17.7127626,92.0226157 C18.0734373,92.0226157 18.4165793,92.1491607 18.7234033,92.3557267 L19.1254054,90.8818502 Z M6.16115147,92.8935427 C6.03090781,93.4704388 5.90442117,94.0411317 5.8336638,94.4337932 C5.74224276,93.9604903 5.57630733,93.2973699 5.46672732,92.894163 L4.82302306,90.641787 L3.52496962,90.641787 L2.88126536,92.8947833 C2.76792832,93.3141185 2.60074054,93.9728966 2.51495505,94.4269697 C2.43856214,93.9673138 2.29141184,93.2849636 2.20500018,92.9276602 L1.63768884,90.641787 L0.0653723005,90.641787 L1.79986725,96.7277305 L1.80925982,96.759987 L3.12860309,96.759987 L3.80612061,94.2700291 C3.91883147,93.8928756 4.09102862,93.1379481 4.14926257,92.8898208 C4.2319172,93.2365787 4.37030109,93.7731541 4.48489047,94.2204037 L5.17117439,96.759987 L6.48175126,96.759987 L8.22626495,90.641787 L6.71844407,90.641787 L6.16115147,92.8935427 Z M14.1448376,93.6999566 C14.1448376,95.5516069 12.9638782,96.8958367 11.3377109,96.8958367 C9.71154365,96.8958367 8.53121045,95.5516069 8.53121045,93.6999566 C8.53121045,91.8483063 9.71154365,90.5040764 11.3377109,90.5040764 C12.9638782,90.5040764 14.1448376,91.8483063 14.1448376,93.6999566 L14.1448376,93.6999566 Z M12.5888015,93.6999566 C12.5888015,92.6249448 12.0978831,91.9314289 11.3377109,91.9314289 C10.5775388,91.9314289 10.0859942,92.6249448 10.0859942,93.6999566 C10.0859942,94.774348 10.5775388,95.4691045 11.3377109,95.4691045 C12.0978831,95.4691045 12.5888015,94.774348 12.5888015,93.6999566 L12.5888015,93.6999566 Z M63.4358026,90.8818502 C63.1433806,90.6560544 62.6925371,90.5121405 62.2855257,90.5121405 C61.7457659,90.5121405 61.2880345,90.713744 60.9217242,91.1733999 L60.9217242,90.6430277 L59.3957444,90.6430277 L59.3957444,96.7612277 L60.9217242,96.7612277 L60.9217242,93.4462463 C60.9217242,92.4754481 61.2717541,92.0226157 62.0231598,92.0226157 C62.3832084,92.0226157 62.7269765,92.1491607 63.0338006,92.3557267 L63.4358026,90.8818502 Z M50.4721749,92.8935427 C50.3419312,93.4704388 50.2154446,94.0411317 50.1446872,94.4337932 C50.05264,93.9604903 49.8873307,93.2973699 49.7783769,92.894163 L49.1340465,90.641787 L47.835993,90.641787 L47.1922888,92.8947833 C47.0783256,93.3141185 46.911764,93.9728966 46.8259785,94.4269697 C46.7489594,93.9673138 46.6024353,93.2849636 46.5160236,92.9276602 L45.9487123,90.641787 L44.3763957,90.641787 L46.1108907,96.7277305 L46.1209094,96.759987 L47.4396265,96.759987 L48.117144,94.2700291 C48.2292287,93.8928756 48.4014259,93.1379481 48.4596598,92.8898208 C48.5429406,93.2365787 48.6806983,93.7731541 48.7965401,94.2204037 L49.4821978,96.759987 L50.7934008,96.759987 L52.5372884,90.641787 L51.0288413,90.641787 L50.4721749,92.8935427 Z M58.4439638,93.7030581 C58.4439638,95.5547084 57.2630044,96.898318 55.6362109,96.898318 C54.0106698,96.898318 52.8297104,95.5547084 52.8297104,93.7030581 C52.8297104,91.8514078 54.0106698,90.507178 55.6362109,90.507178 C57.2630044,90.507178 58.4439638,91.8514078 58.4439638,93.7030581 L58.4439638,93.7030581 Z M56.8879277,93.7030581 C56.8879277,92.6280464 56.3963831,91.9345305 55.6362109,91.9345305 C54.8760388,91.9345305 54.3857465,92.6280464 54.3857465,93.7030581 C54.3857465,94.7774495 54.8760388,95.4715858 55.6362109,95.4715858 C56.3963831,95.4715858 56.8879277,94.7774495 56.8879277,93.7030581 L56.8879277,93.7030581 Z M24.9143605,90.641787 L23.1510617,90.641787 L21.9337844,92.2111925 C21.7709798,92.4183788 21.5455581,92.7086878 21.3558281,92.9785263 L21.3558281,88.1065459 L19.8373623,88.8620937 L19.8373623,96.759987 L21.3558281,96.759987 L21.3558281,94.9269463 L22.162337,93.9201696 L23.4610166,96.759987 L25.1472963,96.759987 L23.2669034,92.6572014 L24.9143605,90.641787 Z M30.5104549,93.3798723 C30.5104549,92.409074 30.9155878,91.8960708 31.6820217,91.8960708 C32.4409415,91.8960708 32.7941022,92.369994 32.7941022,93.3904177 L32.7941022,96.7612277 L34.3194559,96.7612277 L34.3194559,93.3023325 C34.3194559,91.4761152 33.5373677,90.5108999 32.0577246,90.5108999 C31.4290484,90.5108999 30.8849054,90.7404177 30.5104549,91.1591326 L30.5104549,90.6430277 L28.984475,90.6430277 L28.984475,96.7612277 L30.5104549,96.7612277 L30.5104549,93.3798723 Z M39.1372191,90.6411667 L40.6613204,90.6411667 L40.6613204,96.1905348 C40.6613204,98.2183555 39.6807359,99.218929 37.6644638,99.2505652 L37.6350338,99.2511855 L37.0946478,98.0645165 L37.1635267,98.0626556 C39.1359668,98.0279177 39.1372191,97.1104669 39.1372191,96.4411434 L39.1372191,96.2984702 C38.7446096,96.6911317 38.2724763,96.8883929 37.7358474,96.8883929 C36.2374191,96.8883929 35.3426201,95.6731893 35.3426201,93.6373044 C35.3426201,91.7081143 36.2718585,90.5096592 37.767156,90.5096592 C38.2862521,90.5096592 38.7690303,90.7081611 39.1372191,91.0716677 L39.1372191,90.6411667 Z M38.0439237,91.8948301 C37.5223229,91.8948301 36.9005346,92.1894814 36.9005346,93.6019463 C36.9005346,95.1676298 37.5285846,95.4970188 38.055821,95.4970188 C38.6018425,95.4970188 38.8948908,95.2073302 39.1372191,94.8934491 L39.1372191,92.4903358 C38.9587602,92.231663 38.6162445,91.8948301 38.0439237,91.8948301 L38.0439237,91.8948301 Z M26.0903106,96.7612277 L27.6156642,96.7612277 L27.6156642,90.6430277 L26.0903106,90.6430277 L26.0903106,96.7612277 Z M26.0903106,89.7671382 L27.6137857,89.7671382 L27.6137857,88.2585239 L26.0903106,88.2585239 L26.0903106,89.7671382 Z M64.1590307,96.759987 L65.6843844,96.759987 L65.6843844,88.1065459 L64.1590307,88.8620937 L64.1590307,96.759987 Z" id="Fill-2" fill="#161D23"></path>
                <polygon id="Fill-4" fill="#FFE600" points="68.6734764 0 0 24.8301033 68.6734764 12.8120554"></polygon>
            </g>
        </g>
    </g>
</svg>