<?xml version="1.0" encoding="utf-8"?>
<!-- Generator: Adobe Illustrator 23.0.2, SVG Export Plug-In . SVG Version: 6.00 Build 0)  -->
<svg version="1.0" id="Layer_1" xmlns="http://www.w3.org/2000/svg" xmlns:xlink="http://www.w3.org/1999/xlink" x="0px" y="0px"
	 viewBox="0 0 1080 1080" style="enable-background:new 0 0 1080 1080;" xml:space="preserve">
<style type="text/css">
	.st0{display:none;fill:#FDFDFD;}
	.st1{fill:#FFFFFF;}
	.st2{fill:#FEE404;}
	.st3{display:none;fill:#F3F3F3;}
	.st4{display:none;fill:#EBEBEC;}
	.st5{display:none;fill:#D9DADB;}
</style>
<title>dicks</title>
<path class="st0" d="M551.93,825.14c-99.84,0-199.67-0.05-299.51,0.15c-5.06,0.01-5.82-1.25-5.82-5.97
	c0.14-194.93,0.14-389.86,0.01-584.79c0-4.59,0.58-6.02,5.76-6.02c199.67,0.18,399.35,0.18,599.02,0.02c4.77,0,5.48,1.11,5.48,5.62
	c-0.14,195.15-0.15,390.31,0.06,585.47c0.01,5.53-1.91,5.61-6.17,5.61C751.15,825.12,651.54,825.14,551.93,825.14z M705.78,707.99
	c-5.43,0.15-7.85,2.58-7.63,8.35c0.37,9.82,0.41,19.67-0.02,29.49c-0.24,5.49,1.44,7.42,6.75,5.92c4.02-2.47,1.84-6.39,1.77-9.47
	C706.41,730.85,708.06,719.36,705.78,707.99z M492.63,468.5c-7.62-13.47-14.6-25.8-21.57-38.12c-1.62-2.87-4.01-3.66-7.3-3.65
	c-30.94,0.12-61.88,0.16-92.81-0.03c-4.43-0.03-5.75,1.15-5.74,5.61c0.13,56.68,0.12,113.36,0.02,170.04
	c-0.01,3.6,0.68,5.18,4.77,5.17c45.62-0.13,91.23-0.12,136.85-0.01c3.7,0.01,4.56-1.3,4.49-4.75c-0.2-9.93-0.42-19.89,0.06-29.8
	c0.28-5.68-1.45-7.1-7.06-7.04c-26.19,0.31-52.39,0.06-78.58,0.22c-4.18,0.03-6.15-0.75-5.84-5.49c0.41-6.3,0.41-12.66,0-18.96
	c-0.3-4.67,1.53-5.55,5.77-5.5c18.29,0.21,36.58-0.04,54.87,0.18c4.14,0.05,5.51-1.03,5.37-5.26c-0.3-9.02-0.37-18.07,0.02-27.09
	c0.21-4.87-1.51-5.94-6.08-5.88c-18.29,0.25-36.58,0.01-54.87,0.18c-3.75,0.03-5.24-0.92-5.05-4.88c0.3-6.08,0.41-12.21-0.02-18.28
	c-0.37-5.17,1.03-6.89,6.56-6.8C448.12,468.71,469.76,468.5,492.63,468.5z M578.05,484.68c-2.25-0.58-2.5-2.36-3.19-3.67
	c-8.7-16.56-17.32-33.16-26.01-49.73c-1.11-2.11-1.77-4.54-5.13-4.52c-18.88,0.11-37.76,0.06-56.63,0.06
	c-0.44,2.88,1.3,4.29,2.27,5.95c19.04,32.73,38.09,65.45,57.29,98.08c2.16,3.67,3.11,7.28,3.08,11.5
	c-0.13,19.65,0.06,39.31-0.15,58.96c-0.05,4.41,0.67,6.39,5.77,6.27c14.45-0.36,28.91-0.31,43.37-0.02c4.67,0.09,5.58-1.6,5.54-5.85
	c-0.2-20.1-0.09-40.21-0.08-60.31c0-2.69,0.03-5.25,1.54-7.8c15.8-26.79,31.52-53.63,47.16-80.53c4.92-8.45,9.51-17.1,14.58-26.25
	c-13.99,0-26.86,0-39.72,0c-20.05,0-19.99,0.03-29.05,17.91C591.89,458.1,584.92,471.39,578.05,484.68z M371.73,370.61
	c3.48,3.14,6.24,0.04,8.97-0.41c63.23-10.5,126.36-21.54,189.43-32.97c48.63-8.81,97.37-17.03,146.09-25.31
	c4.72-0.8,6.26-2.4,6.17-7.31c-0.33-18.07-0.36-36.15,0-54.21c0.12-6.12-1.49-6.39-6.7-4.5c-50.66,18.45-101.44,36.61-152.13,54.98
	C499.72,324.01,435.92,347.27,371.73,370.61z M365.19,673.99c0,5.85,0,11.71,0,17.56c0,2.04-0.22,4.33,2.82,4.3
	c7.41-0.09,14.95,0.98,22.18-1.1c9-2.58,12.23-12.55,6.35-19.85c-2.14-2.66-1.8-4.12-0.34-6.83c3.73-6.88,0.28-13.85-7.39-15.27
	c-3.51-0.65-7.16-0.74-10.74-0.76c-12.88-0.1-12.88-0.04-12.88,12.5C365.19,667.69,365.19,670.84,365.19,673.99z M382.87,735.15
	c0.42-0.03,0.83-0.05,1.25-0.08c1.14,4.18,2.44,8.33,3.36,12.57c0.58,2.65,1.13,4.51,4.54,4.6c3.37,0.09,4.1-1.77,4.85-4.31
	c2.18-7.33,4.67-14.57,6.6-21.96c0.46-1.75,3.59-4.93-0.75-5.91c-2.91-0.65-6.26-1.03-7.08,3.79c-0.6,3.54-1.04,7.39-4.09,11.5
	c-1.4-4.55-2.7-8.02-3.48-11.61c-0.57-2.61-1.56-3.92-4.41-3.92c-2.82,0-3.68,1.33-4.49,3.86c-1.12,3.49-0.78,7.76-4.77,10.46
	c-1.09-4.07-2.04-7.95-3.17-11.78c-1.13-3.82-4.42-2.52-6.83-2.33c-3.66,0.27-1.76,2.83-1.27,4.52c2.31,7.99,4.75,15.95,7.06,23.94
	c0.7,2.43,1.75,3.77,4.64,3.73c2.84-0.04,4.02-1.22,4.62-3.76C380.51,744.01,381.73,739.59,382.87,735.15z M616.27,732.65
	c1.46,5.59,2.25,9.51,3.55,13.26c0.9,2.59,0.12,6.47,5.19,6.35c4.58-0.11,4.11-3.47,4.89-5.97c2.09-6.65,4.02-13.35,5.79-20.09
	c0.52-1.99,3.54-4.79-0.43-6.1c-3.6-1.19-6.43-0.17-7.18,4.46c-0.59,3.63-0.79,7.59-3.91,10.95c-1.21-4.41-2.37-8.42-3.4-12.46
	c-0.6-2.34-1.94-3.26-4.37-3.24c-2.39,0.02-3.56,0.85-4.29,3.24c-1.15,3.77-1.46,7.9-4.18,11.57c-2.73-3.7-3.06-7.83-4.06-11.69
	c-1.1-4.3-4.52-3.34-7.12-2.81c-3.22,0.67-1.31,3.23-0.84,4.93c2.17,7.8,4.59,15.54,6.66,23.37c0.8,3.03,2.46,3.69,5.33,3.79
	c3.13,0.11,3.78-1.78,4.36-4.02C613.46,743.65,614.62,739.08,616.27,732.65z M557.06,759.15c0.51,5.84,3.7,6.58,8.49,5.06
	c5.78-1.84,9.43-5.43,9.63-11.6c0.32-9.7,0.29-19.41,0.38-29.11c0.01-1.35-0.08-3.43-1.58-3.23c-6.52,0.86-13.23-2.67-19.54,0.59
	c-6.94,3.59-9.33,15.78-5.17,25.05c2.95,6.58,8.04,8.18,17.25,5.23C566.91,758.19,560.85,757.49,557.06,759.15z M572.62,694.65
	c-0.43,4.49-2.74,5.92-5.71,6.93c-1.69,0.58-5.26-0.85-4.18,3.29c0.89,3.4,2.95,4.62,6.53,3.87c6.43-1.35,10.74-5.48,11.13-12.56
	c0.53-9.64,0.28-19.33,0.46-28.99c0.05-2.55-0.89-3.96-3.5-3.54c-3.99,0.63-7.81,0.1-11.77-0.62c-3.72-0.68-6.99,1.35-9.41,4.27
	c-4.24,5.13-4.57,17.7-0.76,23.76C559.65,697.78,565.74,696.92,572.62,694.65z M496.75,651.18c-5.7,1.28-8.74,3.5-7.89,8.99
	c0.45,2.94-0.08,4.4-3.97,3.46c-7.77-1.88-13.66,2.65-15.39,11.03c-2.07,10.03,2.16,19.79,9.35,21.44c1.08,0.25,2.35,0.53,3.34,0.2
	c3.64-1.2,7.2-1.38,10.96-0.53c2.44,0.55,3.66-0.7,3.64-3.4C496.7,678.87,496.75,665.38,496.75,651.18z M656.31,650.71
	c-3.44,3.32-7.87,2.63-7.82,7.55c0.1,11.25,0.06,22.5,0.01,33.74c-0.01,2.34,0.69,4.62,3.25,3.73c4.47-1.55,8.46,0.57,12.67,0.69
	c4.55,0.14,7.66-2.47,9.99-5.9c3.4-5.01,2.79-17.95-0.79-22.64c-4.63-6.06-10.58-5.8-17.31-2.86
	C656.31,660.48,656.31,656.5,656.31,650.71z M474.05,707.1c-8.15,2.79-8.59,2.98-8.64,7.27c-0.13,11.29,0.08,22.58-0.11,33.87
	c-0.06,3.66,1.83,3.88,4.61,3.98c3.04,0.11,4.72-0.63,4.36-4.1c-0.41-3.84,0.09-7.46,3.75-9.8c4.96,4.55,2.73,16.71,15.19,13.24
	c-0.78-1.84-1.41-3.46-2.15-5.02c-4.07-8.69-9.36-17.36-0.17-26.1c-9.09-3.82-10.88,5.89-16.83,9.83
	C474.05,721.94,474.05,714.6,474.05,707.1z M731.34,720.86c-0.97-0.27-1.81-0.51-2.66-0.73c-7.89-2.07-14.09,2.01-15.7,10.32
	c-2.19,11.34,2.03,21.39,9.8,22.09c4.96,0.45,9.97-1.28,15.08-0.55c2.04,0.29,2.3-1.68,2.3-3.35c0-12.63-0.04-25.25,0.03-37.88
	c0.02-3.3-1.12-3.6-4.1-2.62C729.29,710.35,733,716.13,731.34,720.86z M627.58,683.27c0-1.35,0-2.71,0-4.06
	c-0.03-14.25-7.38-19.63-20.85-15.16c-1.66,0.55-4.52,0.59-3.3,3.79c0.93,2.45,2.49,3.7,5.23,2.45c0.81-0.37,1.7-0.75,2.57-0.78
	c3.3-0.13,7.95-1.01,7.9,3.69c-0.05,4.83-4.15,0.87-6.31,1.28c-5.25,1-10.46,1.69-12.69,7.39c-1.5,3.82-1,7.65,2.09,10.61
	c4.07,3.89,8.81,5.15,14.26,2.99c0.89-0.35,1.43-1.22,2.85-0.96c8.24,1.54,8.25,1.45,8.26-6.51
	C627.58,686.42,627.58,684.85,627.58,683.27z M433.31,680.06c0-4.28-0.17-8.57,0.06-12.83c0.17-3.18-1.34-3.77-4.04-3.72
	c-2.69,0.05-4.82,0.04-4.64,3.83c0.24,5.16,0.01,10.35-0.11,15.53c-0.09,3.61-1.65,6.19-5.62,6.14c-3.98-0.05-5.39-2.76-5.46-6.31
	c-0.1-5.18-0.25-10.36-0.03-15.53c0.14-3.23-1.4-3.72-4.06-3.64c-2.45,0.07-4.4,0.07-4.26,3.49c0.26,6.07-0.18,12.18,0.32,18.22
	c0.59,7.03,4.98,11.03,11.23,11.18C433.32,696.78,433.32,696.78,433.31,680.06z M513.9,735.73c0,4.06,0.16,8.13-0.05,12.19
	c-0.17,3.25,1.03,4.24,4.26,4.32c3.66,0.09,3.95-1.74,3.88-4.57c-0.12-4.74-0.06-9.48,0.06-14.22c0.1-3.84,1.79-6.73,5.96-6.76
	c4.06-0.03,5.2,3,5.3,6.48c0.13,4.74,0.3,9.48,0.14,14.21c-0.12,3.41,0.94,4.77,4.57,4.87c4.08,0.11,4.32-2,4.19-5.05
	c-0.14-3.15-0.03-6.32-0.03-9.48c-0.03-16.24-2.91-18.75-18.83-16.44c-0.21,0.03-0.52,0.36-0.56,0.32
	c-2.65-2.43-6.42-3.02-8.18-0.47c-1.51,2.18-0.59,6.06-0.68,9.19C513.85,732.11,513.9,733.92,513.9,735.73z M688.74,682.64
	c2.76,0,5.19,0,7.62,0c2.7,0,5.4,0.05,8.1-0.02c1.92-0.04,3.96,0.51,4.42-2.65c0.88-6.11-4.3-14.77-10.27-16.5
	c-6.28-1.82-12.11,0.6-15.48,6.41c-4.21,7.26-3.31,17.15,2.07,22.61c4.34,4.4,12.49,5.34,18.16,1.9c1.3-0.79,4.04-1.3,2.67-3.67
	c-1.04-1.8-2.61-3.82-5.35-3.15c-1.08,0.26-2.09,0.83-3.17,1.13C692.64,690.05,689.78,688.26,688.74,682.64z M774.27,696.34
	c0.24-0.03,1.92,0.04,3.33-0.54c2.48-1.01,6.64-1.43,5.79-4.94c-0.79-3.27-4-4.3-7.58-2.41c-2.52,1.33-5.29,1.16-7.64-0.77
	c-1.23-1.01-2.53-2.24-1.91-3.99c0.57-1.62,2.27-1.01,3.5-1.03c4.06-0.08,8.13,0,12.19-0.05c1.72-0.02,3.52,0.39,4.11-2.28
	c1.4-6.42-3.99-15.43-10.39-17c-5.59-1.37-10.52,0.03-14.01,4.44c-4.89,6.18-5.38,13.32-2.31,20.45
	C761.83,694,766.66,696.56,774.27,696.34z M435.94,735.96c0.01-9.56-6.26-16.64-14.76-16.65c-8-0.02-14.38,7.16-14.5,16.32
	c-0.14,9.98,6.01,17.15,14.89,17.36C429.63,753.17,435.93,745.7,435.94,735.96z M639.04,736.1c0.12,9.73,6.87,16.99,15.69,16.89
	c7.77-0.09,13.68-7.53,13.63-17.16c-0.05-9.53-6.01-16.41-14.3-16.53C645.87,719.18,638.93,726.95,639.04,736.1z M519.21,677.84
	c0,5.29,0.09,9.57-0.03,13.85c-0.07,2.6,0.31,4.31,3.57,4.22c2.87-0.07,4.75-0.43,4.58-4.02c-0.22-4.72-0.08-9.47,0.02-14.2
	c0.09-4,1.33-7.28,6.13-7.18c4.77,0.11,5.87,3.45,5.92,7.42c0.07,4.96,0.1,9.92,0.05,14.88c-0.03,3.04,2,3.03,4.12,3.03
	c2.11,0.01,4.14,0.07,4.05-3.02c-0.2-6.53,0.15-13.1-0.5-19.58c-0.6-5.99-4.21-10.36-10.59-10.19c-5.18,0.14-11.4-0.78-15.3,1.14
	C516.28,666.63,520.49,673.86,519.21,677.84z M731.4,688.65c-6.82,1.89-8.25-1.76-7.64-7.53c0.21-2,0.09-4.05,0.02-6.07
	c-0.09-2.46,0.06-4.58,3.45-4.19c2.79,0.32,3.3-1.31,3.32-3.72c0.02-2.6-0.94-3.83-3.54-3.54c-2.95,0.33-3.31-1.42-3.23-3.73
	c0.08-2.34,0.02-4.68,0.02-7.24c-9.62,0.78-7.42,10.81-12.93,14.24c-0.54,0.34-0.69,3.62,1.43,3.75c4.39,0.26,3.34,3.28,3.42,5.78
	c0.14,4.27-0.3,8.63,0.4,12.8c0.86,5.11,4.44,7.41,9.77,7.22C730.98,696.23,731.55,693.02,731.4,688.65z M746.07,652.5
	c-2.75,1.54-7.03,0.82-7.43,5.39c-0.26,2.97,0.19,5.43-4.1,6.3c-2.02,0.41-1.89,5.79-0.16,6.06c5.93,0.93,3.88,5.04,4.13,8.2
	c0.25,3.14-0.12,6.33,0.2,9.45c0.64,6.2,6.26,9.91,12.13,8.21c1.5-0.43,3.26-0.81,3.1-2.91c-0.13-1.64,0.25-3.64-2.52-3.84
	c-2.37-0.17-4.41-1.23-4.44-4.12c-0.05-3.83,0.03-7.66-0.08-11.49c-0.07-2.5,1.27-3.1,3.38-2.89c2.42,0.24,3.75-0.38,3.69-3.26
	c-0.06-2.65-0.41-4.46-3.64-4.01c-3.4,0.47-3.43-1.73-3.47-4.19C746.82,657.24,747.47,654.98,746.07,652.5z M441.09,735.88
	c0,4.06,0.17,8.14-0.05,12.19c-0.19,3.38,1.27,4.15,4.38,4.19c3.23,0.04,3.67-1.45,3.62-4.12c-0.08-4.96-0.09-9.94,0.24-14.88
	c0.25-3.87,2.34-6.92,6.55-5.55c4.63,1.51,5-1.09,5.41-4.2c0.57-4.38-3.01-4.05-5.39-4.1c-14.76-0.37-14.76-0.28-14.76,15.12
	C441.09,734.97,441.09,735.42,441.09,735.88z M673.44,735.54c0,4.28,0.15,8.56-0.04,12.83c-0.17,3.75,2.13,3.66,4.78,3.8
	c3.13,0.18,3.78-1.29,3.7-4.03c-0.13-4.72-0.1-9.46,0.04-14.18c0.14-4.63,2.43-7.65,7.26-6.23c4.31,1.27,4.21-1.55,4.86-3.95
	c0.89-3.28-1.75-4.28-3.8-4.16c-4.81,0.28-9.58,0.67-14.41,0.44c-2.46-0.12-2.42,2.13-2.41,3.99
	C673.44,727.89,673.43,731.71,673.44,735.54z M790.71,679.75c0,4.04,0.17,8.1-0.05,12.13c-0.19,3.51,1.62,4.01,4.53,4.08
	c3.27,0.07,3.61-1.67,3.55-4.24c-0.1-4.04-0.12-8.09,0.02-12.13c0.18-5.63,1.64-10.14,8.82-7.98c2.46,0.74,3.13-0.45,3.79-2.37
	c1.59-4.64-0.98-7.09-6.85-6.23c-2.73,0.4-5.13,1.73-8.26,0.72c-4.05-1.31-6.16,0.6-5.63,5.26
	C791.03,672.52,790.7,676.16,790.71,679.75z M463.46,673.99c0-5.84,0.08-11.68-0.05-17.52c-0.04-1.64,1.1-3.98-0.99-4.81
	c-2.04-0.82-3.65,1.24-5.43,2.06c-2.12,0.99-1.6,2.98-1.6,4.71c-0.02,11,0.05,22.01-0.06,33.01c-0.03,2.94,0.45,4.6,3.98,4.52
	c3.27-0.08,4.29-1.33,4.2-4.46C463.34,685.67,463.46,679.83,463.46,673.99z M503.95,679.47c0,4.04,0.16,8.09-0.05,12.12
	c-0.17,3.28,1.22,4.27,4.33,4.36c3.26,0.09,4.28-1.09,4.2-4.29c-0.18-7.63-0.06-15.26-0.06-22.89c0-2.63,0.69-5.32-3.75-5.31
	c-4.08,0.01-4.95,1.69-4.72,5.25C504.13,672.27,503.96,675.88,503.95,679.47z M506.98,735.87c0-3.82-0.12-7.64,0.04-11.46
	c0.13-2.95-0.5-4.6-3.98-4.61c-3.42,0-4.81,1.02-4.7,4.63c0.22,7.63,0.17,15.28,0.02,22.91c-0.07,3.24,0.57,4.87,4.37,4.9
	c3.89,0.02,4.45-1.74,4.3-4.93C506.84,743.51,506.98,739.69,506.98,735.87z M448.57,679.96c0-4.28-0.15-8.56,0.05-12.82
	c0.15-3.26-1.59-3.58-4.18-3.61c-2.71-0.03-4.13,0.59-4.07,3.71c0.16,8.1,0.16,16.2-0.01,24.3c-0.06,3.15,0.9,4.39,4.2,4.41
	c3.42,0.01,4.21-1.47,4.06-4.51C448.43,687.62,448.57,683.79,448.57,679.96z M503.14,715.49c2.88,0.7,4-0.69,4-3.92
	c0-3.08-0.97-4.36-4.19-4.39c-3.33-0.03-4.8,0.96-4.77,4.54C498.21,715.19,499.9,715.88,503.14,715.49z M508.08,651.51
	c-3.23-0.52-4.28,0.87-4.24,4.07c0.04,3.76,2.38,3.51,4.91,3.66c3.04,0.18,3.58-1.3,3.73-4
	C512.68,651.66,510.95,651.07,508.08,651.51z M444.29,659.16c3.18,0.47,4.39-0.75,4.4-4.08c0.01-3.18-1.36-3.78-4.06-3.66
	c-2.34,0.1-4.47-0.21-4.33,3.34C440.41,657.65,440.69,659.77,444.29,659.16z"/>
<path class="st1" d="M492.63,468.5c-22.86,0-44.51,0.21-66.15-0.14c-5.53-0.09-6.92,1.63-6.56,6.8c0.43,6.07,0.32,12.2,0.02,18.28
	c-0.2,3.97,1.29,4.92,5.05,4.88c18.29-0.17,36.58,0.07,54.87-0.18c4.58-0.06,6.29,1.01,6.08,5.88c-0.39,9.02-0.32,18.07-0.02,27.09
	c0.14,4.23-1.23,5.31-5.37,5.26c-18.29-0.22-36.58,0.02-54.87-0.18c-4.23-0.05-6.07,0.84-5.77,5.5c0.41,6.3,0.41,12.66,0,18.96
	c-0.31,4.74,1.66,5.52,5.84,5.49c26.19-0.16,52.39,0.09,78.58-0.22c5.61-0.07,7.34,1.36,7.06,7.04c-0.48,9.91-0.26,19.87-0.06,29.8
	c0.07,3.44-0.79,4.75-4.49,4.75c-45.62-0.11-91.23-0.12-136.85,0.01c-4.09,0.01-4.77-1.56-4.77-5.17
	c0.09-56.68,0.11-113.36-0.02-170.04c-0.01-4.47,1.31-5.64,5.74-5.61c30.94,0.19,61.87,0.15,92.81,0.03
	c3.29-0.01,5.67,0.78,7.3,3.65C478.02,442.71,485,455.03,492.63,468.5z"/>
<path class="st1" d="M578.05,484.68c6.87-13.29,13.84-26.58,20.63-39.97c9.06-17.88,9-17.91,29.05-17.91c12.86,0,25.73,0,39.72,0
	c-5.07,9.16-9.67,17.8-14.58,26.25c-15.64,26.89-31.36,53.73-47.16,80.53c-1.51,2.55-1.54,5.11-1.54,7.8
	c-0.01,20.1-0.11,40.21,0.08,60.31c0.04,4.25-0.86,5.95-5.54,5.85c-14.45-0.29-28.92-0.34-43.37,0.02c-5.1,0.13-5.82-1.86-5.77-6.27
	c0.2-19.65,0.02-39.3,0.15-58.96c0.03-4.21-0.93-7.83-3.08-11.5c-19.19-32.64-38.24-65.36-57.29-98.08
	c-0.97-1.66-2.71-3.07-2.27-5.95c18.88,0,37.76,0.06,56.63-0.06c3.36-0.02,4.02,2.42,5.13,4.52c8.69,16.57,17.31,33.17,26.01,49.73
	C575.55,482.32,575.8,484.1,578.05,484.68z"/>
<path class="st2" d="M371.73,370.61c64.19-23.34,127.99-46.59,191.84-69.73c50.69-18.37,101.47-36.52,152.13-54.98
	c5.21-1.9,6.82-1.62,6.7,4.5c-0.36,18.07-0.33,36.15,0,54.21c0.09,4.91-1.45,6.51-6.17,7.31c-48.72,8.28-97.46,16.5-146.09,25.31
	c-63.07,11.43-126.2,22.47-189.43,32.97C377.97,370.65,375.22,373.75,371.73,370.61z"/>
<path class="st1" d="M365.19,673.99c0-3.15,0-6.3,0-9.45c0-12.54,0-12.6,12.88-12.5c3.59,0.03,7.23,0.11,10.74,0.76
	c7.67,1.42,11.11,8.39,7.39,15.27c-1.47,2.71-1.8,4.17,0.34,6.83c5.88,7.3,2.65,17.26-6.35,19.85c-7.23,2.08-14.77,1.01-22.18,1.1
	c-3.03,0.04-2.81-2.26-2.82-4.3C365.19,685.7,365.19,679.84,365.19,673.99z M380.72,676.14c-4.85-1.08-7,0.44-7.04,6.44
	c-0.03,5.63,2.27,6.1,6.69,5.85c4.78-0.27,10.07,0.38,9.97-6.59C390.27,675.66,385.55,675.9,380.72,676.14z M380.67,668.2
	c3.09-0.54,7.99,1.44,8.2-4.03c0.23-6.03-4.9-4.47-8.37-4.48c-2.87-0.01-6.72-1.77-6.7,4.21
	C373.82,669.9,377.73,667.71,380.67,668.2z"/>
<path class="st1" d="M382.87,735.15c-1.15,4.44-2.36,8.86-3.41,13.32c-0.6,2.54-1.78,3.72-4.62,3.76c-2.9,0.04-3.94-1.3-4.64-3.73
	c-2.31-7.99-4.75-15.95-7.06-23.94c-0.49-1.7-2.39-4.25,1.27-4.52c2.41-0.18,5.7-1.48,6.83,2.33c1.13,3.83,2.08,7.71,3.17,11.78
	c3.98-2.7,3.64-6.97,4.77-10.46c0.81-2.53,1.67-3.85,4.49-3.86c2.85,0,3.84,1.31,4.41,3.92c0.79,3.59,2.09,7.06,3.48,11.61
	c3.05-4.11,3.49-7.96,4.09-11.5c0.82-4.82,4.17-4.45,7.08-3.79c4.34,0.97,1.21,4.15,0.75,5.91c-1.93,7.39-4.43,14.63-6.6,21.96
	c-0.75,2.53-1.49,4.4-4.85,4.31c-3.41-0.09-3.96-1.95-4.54-4.6c-0.93-4.23-2.22-8.38-3.36-12.57
	C383.71,735.1,383.29,735.12,382.87,735.15z"/>
<path class="st1" d="M616.27,732.65c-1.65,6.43-2.81,11-4,15.56c-0.59,2.24-1.24,4.12-4.36,4.02c-2.87-0.1-4.52-0.76-5.33-3.79
	c-2.07-7.83-4.49-15.56-6.66-23.37c-0.47-1.7-2.38-4.26,0.84-4.93c2.6-0.54,6.02-1.49,7.12,2.81c0.99,3.86,1.32,7.99,4.06,11.69
	c2.72-3.66,3.03-7.8,4.18-11.57c0.73-2.39,1.9-3.22,4.29-3.24c2.43-0.02,3.77,0.9,4.37,3.24c1.03,4.04,2.19,8.04,3.4,12.46
	c3.12-3.36,3.31-7.32,3.91-10.95c0.76-4.63,3.59-5.64,7.18-4.46c3.97,1.31,0.96,4.11,0.43,6.1c-1.77,6.74-3.71,13.44-5.79,20.09
	c-0.78,2.5-0.31,5.86-4.89,5.97c-5.07,0.12-4.29-3.76-5.19-6.35C618.52,742.17,617.73,738.24,616.27,732.65z"/>
<path class="st1" d="M557.06,759.15c3.79-1.66,9.84-0.96,9.47-8.01c-9.21,2.95-14.3,1.35-17.25-5.23
	c-4.16-9.27-1.77-21.46,5.17-25.05c6.31-3.26,13.02,0.27,19.54-0.59c1.51-0.2,1.6,1.88,1.58,3.23c-0.1,9.71-0.07,19.42-0.38,29.11
	c-0.2,6.17-3.85,9.76-9.63,11.6C560.77,765.73,557.57,764.99,557.06,759.15z M566.89,736.26c-0.34-2.42,0.76-5.09-0.78-7.25
	c-1.38-1.93-3.6-2.89-5.97-2.27c-3.76,0.99-4.46,4.13-4.47,7.45c-0.02,4.03-0.51,8.46,3.85,10.75c2.09,1.1,4.39,0.41,6.1-1.54
	C567.5,741.25,566.6,738.67,566.89,736.26z"/>
<path class="st1" d="M572.62,694.65c-6.88,2.27-12.97,3.13-17.19-3.59c-3.81-6.06-3.47-18.63,0.76-23.76
	c2.42-2.93,5.69-4.95,9.41-4.27c3.96,0.72,7.77,1.25,11.77,0.62c2.61-0.41,3.54,0.99,3.5,3.54c-0.18,9.67,0.07,19.35-0.46,28.99
	c-0.39,7.07-4.7,11.21-11.13,12.56c-3.58,0.75-5.64-0.47-6.53-3.87c-1.09-4.14,2.48-2.71,4.18-3.29
	C569.88,700.57,572.19,699.14,572.62,694.65z M572.93,679.61c0.56-4.54,0.21-8.92-5.75-9.14c-6.22-0.24-6.3,4.68-6.33,8.95
	c-0.02,4.22-0.12,9.43,5.75,9.61C572.58,689.21,573.74,684.78,572.93,679.61z"/>
<path class="st1" d="M496.75,651.18c0,14.21-0.04,27.7,0.04,41.18c0.02,2.7-1.2,3.95-3.64,3.4c-3.76-0.84-7.33-0.67-10.96,0.53
	c-0.99,0.33-2.26,0.05-3.34-0.2c-7.19-1.65-11.42-11.41-9.35-21.44c1.73-8.38,7.62-12.92,15.39-11.03c3.89,0.94,4.42-0.52,3.97-3.46
	C488.01,654.68,491.05,652.46,496.75,651.18z M488.99,680.39c0.03-4.87,0.72-9.95-5.62-9.95c-5.63,0-5.86,4.84-5.93,8.84
	c-0.07,4.27,0.15,9.54,5.8,9.77C489.16,689.28,489.39,684.37,488.99,680.39z"/>
<path class="st1" d="M656.31,650.71c0,5.79,0,9.77,0,14.32c6.73-2.94,12.67-3.2,17.31,2.86c3.58,4.69,4.19,17.63,0.79,22.64
	c-2.32,3.43-5.43,6.04-9.99,5.9c-4.21-0.13-8.2-2.25-12.67-0.69c-2.56,0.89-3.26-1.39-3.25-3.73c0.05-11.25,0.1-22.5-0.01-33.74
	C648.45,653.34,652.87,654.03,656.31,650.71z M656.3,680.56c-0.19,3.53-0.76,8.53,5.44,8.56c5.96,0.03,6.1-5.16,6.08-9.32
	c-0.03-4.08,0.17-9.28-5.99-9.29C655.38,670.5,656.31,675.58,656.3,680.56z"/>
<path class="st1" d="M474.05,707.1c0,7.5,0,14.84,0,23.17c5.96-3.94,7.75-13.65,16.83-9.83c-9.19,8.74-3.91,17.41,0.17,26.1
	c0.73,1.57,1.36,3.18,2.15,5.02c-12.46,3.47-10.22-8.69-15.19-13.24c-3.66,2.34-4.15,5.96-3.75,9.8c0.37,3.47-1.32,4.21-4.36,4.1
	c-2.78-0.1-4.67-0.32-4.61-3.98c0.2-11.29-0.01-22.58,0.11-33.87C465.46,710.08,465.9,709.89,474.05,707.1z"/>
<path class="st1" d="M731.34,720.86c1.66-4.73-2.05-10.5,4.74-12.73c2.98-0.98,4.12-0.68,4.1,2.62
	c-0.07,12.63-0.03,25.25-0.03,37.88c0,1.68-0.26,3.65-2.3,3.35c-5.11-0.73-10.12,1-15.08,0.55c-7.77-0.7-11.98-10.75-9.8-22.09
	c1.6-8.31,7.81-12.38,15.7-10.32C729.53,720.35,730.37,720.59,731.34,720.86z M731.98,735.89c-0.49-1.97,0.78-4.62-0.79-6.77
	c-1.55-2.11-3.87-3.16-6.47-2.31c-3.68,1.21-4.08,4.59-4.09,7.7c-0.02,3.93-0.43,8.39,4.03,10.51c2.1,1,4.33,0.32,6-1.65
	C732.47,741.22,731.73,738.7,731.98,735.89z"/>
<path class="st1" d="M627.58,683.27c0,1.58,0,3.16,0,4.74c0,7.96-0.02,8.05-8.26,6.51c-1.42-0.27-1.95,0.61-2.85,0.96
	c-5.45,2.16-10.19,0.9-14.26-2.99c-3.09-2.96-3.59-6.79-2.09-10.61c2.24-5.7,7.44-6.39,12.69-7.39c2.16-0.41,6.26,3.55,6.31-1.28
	c0.05-4.7-4.59-3.82-7.9-3.69c-0.87,0.04-1.76,0.41-2.57,0.78c-2.74,1.25-4.3-0.01-5.23-2.45c-1.22-3.2,1.63-3.24,3.3-3.79
	c13.47-4.47,20.82,0.91,20.85,15.16C627.59,680.56,627.58,681.91,627.58,683.27z M619.56,684.61c-0.09-4.24-3.41-3.46-5.9-3.54
	c-2.92-0.1-5.49,0.71-5.34,4.47c0.14,3.61,2.59,4.51,5.57,4.33C617.08,689.67,619.67,688.53,619.56,684.61z"/>
<path class="st1" d="M433.31,680.06c0,16.72,0,16.72-16.61,16.35c-6.25-0.14-10.64-4.15-11.23-11.18
	c-0.51-6.04-0.07-12.15-0.32-18.22c-0.14-3.42,1.81-3.42,4.26-3.49c2.65-0.07,4.19,0.41,4.06,3.64c-0.22,5.17-0.07,10.36,0.03,15.53
	c0.07,3.55,1.48,6.26,5.46,6.31c3.96,0.05,5.53-2.53,5.62-6.14c0.13-5.18,0.35-10.36,0.11-15.53c-0.18-3.79,1.95-3.77,4.64-3.83
	c2.71-0.05,4.21,0.54,4.04,3.72C433.14,671.49,433.31,675.78,433.31,680.06z"/>
<path class="st1" d="M513.9,735.73c0-1.81-0.05-3.61,0.01-5.42c0.1-3.13-0.82-7.01,0.68-9.19c1.76-2.54,5.52-1.96,8.18,0.47
	c0.05,0.04,0.36-0.29,0.56-0.32c15.92-2.31,18.8,0.2,18.83,16.44c0.01,3.16-0.11,6.32,0.03,9.48c0.13,3.05-0.11,5.16-4.19,5.05
	c-3.63-0.1-4.68-1.46-4.57-4.87c0.16-4.73-0.01-9.48-0.14-14.21c-0.1-3.47-1.24-6.51-5.3-6.48c-4.17,0.03-5.86,2.92-5.96,6.76
	c-0.12,4.74-0.17,9.48-0.06,14.22c0.07,2.83-0.22,4.65-3.88,4.57c-3.24-0.08-4.43-1.07-4.26-4.32
	C514.06,743.86,513.9,739.79,513.9,735.73z"/>
<path class="st1" d="M688.74,682.64c1.05,5.61,3.9,7.4,8.76,6.06c1.08-0.3,2.08-0.86,3.17-1.13c2.74-0.66,4.31,1.35,5.35,3.15
	c1.37,2.38-1.37,2.88-2.67,3.67c-5.67,3.44-13.82,2.51-18.16-1.9c-5.38-5.46-6.28-15.36-2.07-22.61c3.38-5.82,9.2-8.23,15.48-6.41
	c5.97,1.73,11.15,10.38,10.27,16.5c-0.45,3.15-2.5,2.6-4.42,2.65c-2.7,0.06-5.4,0.02-8.1,0.02
	C693.93,682.64,691.5,682.64,688.74,682.64z M694.67,676.73c1.43-1.39,5.41,1.61,5.12-2.92c-0.18-2.83-2.63-4.14-5.27-4.25
	c-3.19-0.13-5.4,1.89-5.37,4.84C689.19,678.16,692.62,675.68,694.67,676.73z"/>
<path class="st1" d="M774.27,696.34c-7.61,0.22-12.44-2.34-14.93-8.13c-3.06-7.13-2.58-14.27,2.31-20.45
	c3.49-4.41,8.42-5.8,14.01-4.44c6.4,1.57,11.79,10.58,10.39,17c-0.58,2.67-2.39,2.26-4.11,2.28c-4.06,0.05-8.13-0.03-12.19,0.05
	c-1.23,0.02-2.93-0.59-3.5,1.03c-0.62,1.75,0.68,2.98,1.91,3.99c2.35,1.93,5.11,2.1,7.64,0.77c3.58-1.89,6.79-0.86,7.58,2.41
	c0.85,3.51-3.31,3.94-5.79,4.94C776.18,696.38,774.51,696.31,774.27,696.34z M771.88,676.62c1.92-1.03,5.63,1.61,5.8-2.43
	c0.14-3.26-2.9-4.37-5.67-4.61c-3.06-0.27-5.63,1.46-5.71,4.44C766.18,678.17,769.95,675.66,771.88,676.62z"/>
<path class="st1" d="M435.94,735.96c-0.01,9.74-6.32,17.21-14.37,17.02c-8.88-0.21-15.03-7.38-14.89-17.36
	c0.12-9.16,6.51-16.34,14.5-16.32C429.69,719.32,435.96,726.4,435.94,735.96z M427.29,737.31c0.25-6.01-1.29-10.48-6.41-10.55
	c-4.95-0.06-6.09,4.6-6.03,8.89c0.06,4.36,0.61,9.31,6.09,9.57C426.76,745.49,426.93,740.37,427.29,737.31z"/>
<path class="st1" d="M639.04,736.1c-0.11-9.15,6.83-16.92,15.02-16.81c8.29,0.12,14.25,7,14.3,16.53
	c0.05,9.63-5.85,17.07-13.63,17.16C645.91,753.1,639.16,745.83,639.04,736.1z M647.6,736.08c0.35,3.84,0.42,8.93,6.06,9.14
	c5.72,0.21,6.28-4.8,6.49-9.15c0.22-4.69-1.38-9.22-6.52-9.31C648.56,726.67,647.75,731.35,647.6,736.08z"/>
<path class="st1" d="M519.21,677.84c1.28-3.98-2.94-11.21,2.01-13.64c3.91-1.92,10.13-1,15.3-1.14c6.38-0.17,9.98,4.2,10.59,10.19
	c0.65,6.48,0.31,13.05,0.5,19.58c0.09,3.1-1.93,3.03-4.05,3.02c-2.12-0.01-4.15,0.01-4.12-3.03c0.05-4.96,0.02-9.92-0.05-14.88
	c-0.05-3.97-1.16-7.32-5.92-7.42c-4.8-0.11-6.04,3.18-6.13,7.18c-0.1,4.73-0.24,9.48-0.02,14.2c0.17,3.59-1.71,3.95-4.58,4.02
	c-3.26,0.08-3.64-1.62-3.57-4.22C519.3,687.41,519.21,683.13,519.21,677.84z"/>
<path class="st1" d="M731.4,688.65c0.15,4.37-0.42,7.57-5.5,7.76c-5.33,0.19-8.91-2.11-9.77-7.22c-0.71-4.17-0.26-8.53-0.4-12.8
	c-0.08-2.49,0.97-5.52-3.42-5.78c-2.12-0.12-1.97-3.41-1.43-3.75c5.51-3.42,3.3-13.46,12.93-14.24c0,2.55,0.06,4.9-0.02,7.24
	c-0.08,2.31,0.28,4.06,3.23,3.73c2.61-0.29,3.57,0.94,3.54,3.54c-0.02,2.41-0.53,4.04-3.32,3.72c-3.4-0.39-3.54,1.72-3.45,4.19
	c0.07,2.02,0.19,4.07-0.02,6.07C723.15,686.9,724.58,690.54,731.4,688.65z"/>
<path class="st1" d="M746.07,652.5c1.4,2.48,0.75,4.74,0.78,6.9c0.03,2.46,0.07,4.66,3.47,4.19c3.23-0.45,3.58,1.36,3.64,4.01
	c0.07,2.88-1.27,3.5-3.69,3.26c-2.11-0.21-3.46,0.39-3.38,2.89c0.11,3.83,0.03,7.66,0.08,11.49c0.04,2.89,2.07,3.95,4.44,4.12
	c2.78,0.2,2.4,2.19,2.52,3.84c0.16,2.1-1.6,2.47-3.1,2.91c-5.87,1.7-11.5-2.01-12.13-8.21c-0.32-3.12,0.05-6.32-0.2-9.45
	c-0.25-3.15,1.8-7.26-4.13-8.2c-1.73-0.27-1.85-5.66,0.16-6.06c4.29-0.87,3.84-3.32,4.1-6.3
	C739.04,653.32,743.32,654.04,746.07,652.5z"/>
<path class="st1" d="M441.09,735.88c0-0.45,0-0.9,0-1.35c0-15.4,0-15.49,14.76-15.12c2.37,0.06,5.96-0.28,5.39,4.1
	c-0.41,3.11-0.78,5.71-5.41,4.2c-4.21-1.37-6.3,1.68-6.55,5.55c-0.32,4.95-0.32,9.92-0.24,14.88c0.04,2.67-0.39,4.16-3.62,4.12
	c-3.11-0.04-4.57-0.82-4.38-4.19C441.26,744.01,441.09,739.94,441.09,735.88z"/>
<path class="st1" d="M673.43,735.54c0-3.83,0.01-7.66-0.01-11.48c-0.01-1.86-0.06-4.11,2.41-3.99c4.84,0.23,9.61-0.16,14.41-0.44
	c2.05-0.12,4.69,0.88,3.8,4.16c-0.65,2.4-0.55,5.22-4.86,3.95c-4.83-1.42-7.12,1.6-7.26,6.23c-0.14,4.72-0.18,9.46-0.04,14.18
	c0.08,2.74-0.57,4.2-3.7,4.03c-2.66-0.15-4.95-0.06-4.78-3.8C673.58,744.11,673.44,739.82,673.43,735.54z"/>
<path class="st1" d="M790.71,679.75c0-3.59,0.32-7.23-0.08-10.77c-0.53-4.66,1.58-6.56,5.63-5.26c3.13,1.01,5.52-0.32,8.26-0.72
	c5.86-0.86,8.44,1.6,6.85,6.23c-0.66,1.92-1.33,3.11-3.79,2.37c-7.18-2.15-8.63,2.36-8.82,7.98c-0.13,4.04-0.12,8.09-0.02,12.13
	c0.06,2.56-0.27,4.31-3.55,4.24c-2.92-0.07-4.72-0.57-4.53-4.08C790.87,687.85,790.71,683.79,790.71,679.75z"/>
<path class="st1" d="M463.46,673.99c0,5.84-0.12,11.68,0.05,17.52c0.09,3.13-0.93,4.38-4.2,4.46c-3.53,0.09-4.01-1.58-3.98-4.52
	c0.11-11,0.03-22.01,0.06-33.01c0-1.73-0.52-3.73,1.6-4.71c1.78-0.83,3.39-2.88,5.43-2.06c2.08,0.84,0.95,3.18,0.99,4.81
	C463.55,662.31,463.46,668.15,463.46,673.99z"/>
<path class="st1" d="M503.95,679.47c0-3.59,0.18-7.19-0.05-10.77c-0.23-3.56,0.64-5.24,4.72-5.25c4.44-0.01,3.75,2.68,3.75,5.31
	c0,7.63-0.12,15.26,0.06,22.89c0.08,3.2-0.95,4.38-4.2,4.29c-3.1-0.09-4.5-1.08-4.33-4.36
	C504.11,687.55,503.95,683.51,503.95,679.47z"/>
<path class="st1" d="M506.98,735.87c0,3.82-0.14,7.65,0.04,11.46c0.15,3.19-0.41,4.95-4.3,4.93c-3.8-0.02-4.44-1.66-4.37-4.9
	c0.16-7.64,0.21-15.28-0.02-22.91c-0.11-3.62,1.28-4.63,4.7-4.63c3.49,0,4.11,1.66,3.98,4.61
	C506.86,728.22,506.98,732.05,506.98,735.87z"/>
<path class="st1" d="M704.89,751.75c-5.31,1.5-6.99-0.44-6.75-5.92c0.42-9.81,0.39-19.67,0.02-29.49c-0.22-5.77,2.2-8.2,7.62-8.35
	C703.86,722.55,705.52,737.17,704.89,751.75z"/>
<path class="st1" d="M448.57,679.96c0,3.83-0.14,7.66,0.05,11.47c0.15,3.04-0.64,4.53-4.06,4.51c-3.29-0.01-4.26-1.25-4.2-4.41
	c0.17-8.1,0.16-16.2,0.01-24.3c-0.06-3.12,1.35-3.75,4.07-3.71c2.59,0.03,4.33,0.34,4.18,3.61
	C448.42,671.4,448.57,675.69,448.57,679.96z"/>
<path class="st1" d="M704.89,751.75c0.63-14.58-1.03-29.21,0.89-43.76c2.28,11.37,0.63,22.86,0.88,34.29
	C706.72,745.37,708.91,749.28,704.89,751.75z"/>
<path class="st1" d="M503.14,715.49c-3.23,0.39-4.93-0.3-4.96-3.77c-0.03-3.58,1.44-4.56,4.77-4.54c3.22,0.03,4.19,1.31,4.19,4.39
	C507.14,714.8,506.02,716.19,503.14,715.49z"/>
<path class="st1" d="M508.08,651.51c2.87-0.44,4.6,0.15,4.4,3.73c-0.15,2.7-0.69,4.18-3.73,4c-2.53-0.15-4.87,0.09-4.91-3.66
	C503.8,652.38,504.85,650.99,508.08,651.51z"/>
<path class="st1" d="M444.29,659.16c-3.61,0.6-3.89-1.52-3.99-4.4c-0.13-3.55,2-3.24,4.33-3.34c2.7-0.12,4.07,0.48,4.06,3.66
	C448.69,658.41,447.47,659.64,444.29,659.16z"/>
<path class="st3" d="M380.72,676.14c4.83-0.25,9.55-0.49,9.63,5.7c0.09,6.97-5.2,6.32-9.97,6.59c-4.42,0.25-6.72-0.22-6.69-5.85
	C373.72,676.58,375.88,675.06,380.72,676.14z"/>
<path class="st0" d="M380.67,668.2c-2.94-0.49-6.85,1.7-6.87-4.3c-0.02-5.98,3.83-4.22,6.7-4.21c3.47,0.02,8.6-1.55,8.37,4.48
	C388.66,669.63,383.76,667.66,380.67,668.2z"/>
<path class="st3" d="M566.88,736.26c-0.28,2.4,0.62,4.99-1.27,7.13c-1.71,1.94-4.01,2.63-6.1,1.54c-4.36-2.29-3.86-6.71-3.85-10.75
	c0.01-3.31,0.71-6.46,4.47-7.45c2.36-0.62,4.59,0.34,5.97,2.27C567.65,731.17,566.55,733.84,566.88,736.26z"/>
<path class="st4" d="M572.93,679.61c0.82,5.18-0.34,9.6-6.33,9.42c-5.87-0.18-5.77-5.39-5.75-9.61c0.02-4.27,0.11-9.18,6.33-8.95
	C573.14,670.69,573.49,675.07,572.93,679.61z"/>
<path class="st4" d="M488.99,680.39c0.41,3.98,0.17,8.89-5.75,8.66c-5.65-0.22-5.87-5.5-5.8-9.77c0.07-4,0.29-8.84,5.93-8.84
	C489.71,670.44,489.02,675.52,488.99,680.39z"/>
<path class="st4" d="M656.3,680.56c0.01-4.98-0.92-10.07,5.52-10.06c6.16,0.01,5.97,5.21,5.99,9.29c0.03,4.16-0.12,9.35-6.08,9.32
	C655.54,689.09,656.11,684.09,656.3,680.56z"/>
<path class="st3" d="M731.98,735.89c-0.25,2.81,0.49,5.33-1.33,7.48c-1.67,1.97-3.9,2.65-6,1.65c-4.46-2.12-4.04-6.58-4.03-10.51
	c0.01-3.11,0.41-6.49,4.09-7.7c2.6-0.86,4.93,0.19,6.47,2.31C732.76,731.26,731.49,733.92,731.98,735.89z"/>
<path class="st3" d="M619.56,684.61c0.1,3.92-2.49,5.06-5.67,5.26c-2.98,0.19-5.42-0.72-5.57-4.33c-0.15-3.76,2.42-4.57,5.34-4.47
	C616.15,681.15,619.47,680.37,619.56,684.61z"/>
<path class="st5" d="M694.67,676.73c-2.05-1.05-5.48,1.42-5.52-2.33c-0.03-2.95,2.18-4.98,5.37-4.84c2.64,0.11,5.09,1.42,5.27,4.25
	C700.08,678.34,696.1,675.34,694.67,676.73z"/>
<path class="st5" d="M771.88,676.62c-1.93-0.97-5.7,1.55-5.58-2.6c0.08-2.98,2.65-4.71,5.71-4.44c2.77,0.24,5.81,1.35,5.67,4.61
	C777.5,678.24,773.8,675.59,771.88,676.62z"/>
<path class="st3" d="M427.29,737.31c-0.35,3.06-0.53,8.18-6.35,7.91c-5.48-0.26-6.03-5.21-6.09-9.57c-0.06-4.29,1.08-8.95,6.03-8.89
	C425.99,726.83,427.53,731.3,427.29,737.31z"/>
<path class="st3" d="M647.6,736.08c0.16-4.73,0.97-9.41,6.04-9.32c5.14,0.09,6.74,4.62,6.52,9.31c-0.21,4.35-0.77,9.37-6.49,9.15
	C648.02,745.01,647.95,739.93,647.6,736.08z"/>
</svg>
