<?xml version="1.0" encoding="utf-8"?>
<!-- Generator: Adobe Illustrator 23.0.2, SVG Export Plug-In . SVG Version: 6.00 Build 0)  -->
<svg version="1.1" id="Layer_1" xmlns="http://www.w3.org/2000/svg" xmlns:xlink="http://www.w3.org/1999/xlink" x="0px" y="0px"
	 viewBox="0 0 1024 480" style="enable-background:new 0 0 1024 480;" xml:space="preserve">
<style type="text/css">
	.st0{fill:#4285F3;}
	.st1{fill:#606469;}
	.st2{fill:#FABB06;}
	.st3{fill:#E94436;}
	.st4{fill:#34A753;}
	.st5{fill:#5F6368;}
	.st6{fill:#FEFEFE;}
	.st7{fill:#FDFDFD;}
	.st8{fill:#FCFCFC;}
</style>
<path class="st0" d="M155.9,155c10.2,8.7,17,19.7,21.1,32.5c0.5,1.5,1.2,2.7,2.5,3.7c24.2,18.4,27.5,53.2,7.2,75.6
	c-10.2,11.2-23,17-38.2,17c-13.3,0-26.5,0-39.8-0.1c0-10.5,0-21.1,0-31.6c13,0,26-0.1,39-0.1c2.1,0,4.2-0.3,6.2-0.9
	c9.2-2.8,14.8-11.3,14-21.1c-0.8-8.9-8.3-16.5-17.6-17.4c-2-0.2-2.2-0.9-2.1-2.5c0.2-2.9-0.1-5.8-0.6-8.7
	c-1.8-9.7-6.7-17.5-14.1-23.8C141,170,148.5,162.5,155.9,155z"/>
<path class="st1" d="M329.7,205.6c7.2,0,14.3,0.1,21.5,0c1.7,0,2.2,0.6,2.4,2.1c3.9,32.3-17.3,51.1-41.1,53.8
	c-26.8,3-45.7-12.6-53.9-29c-8.1-16.2-6.7-39.8,7.6-55.8c18.1-20.2,44.8-21.8,62.8-12.5c3.9,2,7.4,4.6,10.8,7.5
	c1.1,0.9,1.4,1.5,0.2,2.6c-2.6,2.4-5,4.8-7.4,7.4c-1.1,1.2-1.8,1-2.9,0.1c-20.5-17.1-51.1-8.2-59,17.2c-6.7,21.4,6.5,44,28.2,48
	c11.6,2.1,22.3-0.2,31.4-8.2c5.3-4.6,7.7-10.5,8.9-17.1c0.3-1.7-0.4-1.8-1.8-1.8c-9.7,0-19.4-0.1-29,0.1c-2.2,0-2.8-0.6-2.7-2.7
	c0.2-3,0.2-6,0-9c-0.1-2.1,0.7-2.5,2.6-2.5C315.4,205.6,322.6,205.6,329.7,205.6z"/>
<path class="st2" d="M37.9,273.4c-12.2-9.3-19.2-21.5-20.4-36.7c-1.5-19.1,5.8-34.5,21-46.2c0.5-0.4,0.9-0.9,1.4-1.3
	c0.6-0.2,1.2-0.4,1.8-0.8c11.7-7.3,24.4-9.2,37.9-6.7c11.7,2.6,21.5,8.5,29.2,17.7c1.2,1.4,1,2.1-0.2,3.4
	c-6.8,6.7-13.6,13.5-20.4,20.3c-0.4,0.4-0.6,0.9-1.3,0.9c-0.6-1-1.2-2-1.8-2.9c-6.3-9.1-18.7-11.2-27.6-4.9
	c-12.3,8.9-10.9,27.5,3.4,34.2C53.3,258,45.6,265.7,37.9,273.4z"/>
<path class="st1" d="M553.4,202.6c0.5-1.8-0.6-4.1,0.6-4.8c1.3-0.8,3.4-0.3,5.2-0.4c2,0,4.1,0.1,6.1,0c1.8-0.1,2.3,0.4,2.3,2.2
	c-0.1,10.2,0,20.5,0,30.7c0,9.4,0.1,18.9,0,28.3c-0.1,7.8-1.5,15.2-6.4,21.6c-5.6,7.3-13.4,10.6-22.4,11.3
	c-13.3,1.1-25.2-5.6-31.2-17.4c-0.8-1.6-0.9-2.4,1.1-3.1c3-1,5.9-2.3,8.8-3.7c1.4-0.7,2.1-0.5,3,1c4.3,8.1,12.2,11.6,20.9,9.5
	c6.8-1.7,11.3-7,12.2-14.5c0.3-2.8,0.4-5.7,0.2-8.6c-0.3,0-0.6,0-0.7,0.1c-7.2,8.7-22.4,8.8-31.9,3c-12.6-7.7-18.5-19-16.6-33.7
	c1.7-13.5,9.6-22.7,22.3-27.3C534.3,194,544.5,194.1,553.4,202.6z M554.6,228.7c-0.1-1.2-0.1-2.4-0.3-3.6c-0.8-7.6-6.4-14.3-13.1-16
	c-7.4-1.8-14.6,1-19.1,7.5c-3.1,4.4-3.8,9.4-3.4,14.6c1,12.1,12.9,20.2,23.9,16.4C549.8,245.1,554.5,237.6,554.6,228.7z"/>
<path class="st3" d="M79.6,181.6c-13.5-2.4-26.2-0.5-37.9,6.7c-0.5,0.3-1.2,0.5-1.8,0.8c2.6-10.4,7.7-19.4,14.6-27.4
	c25.7-29.5,69.4-33.2,99.6-8.4c0.6,0.5,1.2,1.1,1.7,1.7c-7.5,7.5-14.9,15-22.4,22.6c-0.9-0.6-1.7-1.2-2.6-1.8
	C114.8,164.6,92.5,167.2,79.6,181.6z"/>
<path class="st1" d="M991.7,250.9c-2.6,3.6-5.3,6-8.5,7.7c-11.2,6-24.6,3.4-33.7-6.5c-12.1-13.3-11.2-35.9,1.8-48.4
	c11.7-11.2,31-9.9,40.3,3c0-1,0-1.7,0-2.4c-0.8-10.8-0.2-21.6-0.4-32.4c0-1.7,0.4-2.3,2.1-2.2c2.5,0.1,5,0.1,7.6,0
	c1.7-0.1,2,0.5,2,2.1c-0.1,4.4,0,8.8,0,13.2c0,24.1,0,48.1,0.1,72.2c0,2.2-0.5,2.9-2.7,2.7c-1.9-0.2-3.9-0.2-5.8,0
	c-2.1,0.2-3-0.4-2.7-2.6C991.8,255.4,991.7,253.5,991.7,250.9z M991.7,228.4c0-1.5-0.2-3.6-0.6-5.7c-1.8-8.8-8.7-15.1-17.7-16
	c-7.8-0.8-15.8,4.4-19,12.5c-1.9,4.7-2.2,9.6-1.3,14.6c1.5,8,5.8,13.8,13.6,16.3c7.4,2.3,14,0.4,19.3-5.3
	C990.3,240.5,991.7,235,991.7,228.4z"/>
<path class="st1" d="M464.7,195.3c18.9,0,33.3,14.2,33.4,33c0,19-14.2,33.3-33.1,33.5c-18.9,0.1-33.5-14.3-33.5-33.1
	C431.4,209.6,445.6,195.4,464.7,195.3z M483.3,227.8c0-0.5,0-1.6-0.2-2.7c-1.2-7.6-5.3-13.1-12.6-15.6c-7.1-2.4-13.5-0.8-18.8,4.5
	c-7.7,7.7-7.5,21.4,0.2,29.1c7.2,7.2,18.3,7.2,25.6,0.1C481.5,239.2,483.3,234.2,483.3,227.8z"/>
<path class="st1" d="M392.1,195.3c18.8-0.1,33.3,14.2,33.4,32.9c0.1,18.9-14.1,33.3-33.2,33.5c-18.5,0.2-33.4-14.2-33.5-32.4
	C358.8,209.7,372.7,195.4,392.1,195.3z M373.6,229.2c0,0.4,0,1.6,0.2,2.7c1.1,7.4,5.1,12.8,12,15.5c6.3,2.5,12.5,1.4,17.7-3
	c7.5-6.2,9.6-17.6,4.9-26.1c-3.2-5.8-8.1-9.3-14.8-9.7C382.1,207.9,373.6,216.4,373.6,229.2z"/>
<path class="st1" d="M630.3,195.3c11.9,0.1,20.3,5.9,26,16c1.2,2.2,2,4.6,3.2,6.8c0.9,1.7,0.4,2.4-1.3,3.1
	c-13.4,5.5-26.7,11.1-40.1,16.5c-2.1,0.8-1.8,1.6-0.8,3.1c6.4,9.7,20.5,10.5,28.6,1.6c2.6-2.9,2.6-2.9,5.7-0.8
	c2.2,1.4,4.3,2.9,6.5,4.3c1.2,0.8,1.5,1.4,0.5,2.6c-9.1,11.4-21.6,16-36.8,11.8c-12.8-3.5-22-15.5-22.7-28.9
	c-0.7-12.4,3-22.9,13.3-30.5C617.7,197,623.7,195.3,630.3,195.3z M631,208.2c-8.8-0.1-17.3,8.4-17.4,17.4c0,1.7,0.6,1.6,1.8,1.1
	c8.6-3.6,17.2-7.2,25.8-10.7c1.9-0.7,1.7-1.5,0.7-2.8C639.1,209.6,635.2,208.5,631,208.2z"/>
<path class="st1" d="M689.9,214.6c0-22.7,14.1-41.1,35.9-45.7c16.1-3.4,30.7-0.3,42.5,11.9c1.2,1.2,1.3,1.9,0,3.1
	c-2,1.7-3.8,3.5-5.6,5.4c-0.8,0.9-1.3,0.8-2.1-0.1c-9.7-10.6-21.8-12.5-34.8-8.6c-13.1,3.9-21.1,13.2-23.3,26.8
	c-2.7,15.8,2.3,30.6,16.9,38.8c14,8,31.9,5,43.3-7c1.4-1.4,2.1-1.5,3.4,0c1.5,1.8,3.2,3.5,5,5c1.6,1.3,0.9,2.2-0.2,3.3
	c-7.3,7.6-16.2,12.2-26.5,13.7c-13,1.8-25.1-0.4-35.8-8.4C695.9,243.2,689.9,230.4,689.9,214.6z"/>
<path class="st1" d="M867.2,228.9c-0.1,13.4-5.3,24.1-17.7,29.8c-20.7,9.5-43.5-3-45.4-26.1c-1.1-13.1,2.9-24.3,14.2-31.6
	c10.3-6.6,21.5-6.9,32.2-1.4c10.7,5.5,15.9,14.9,16.6,26.8C867.3,227.2,867.2,228.1,867.2,228.9z M855.6,228.6
	c-0.1-1.8-0.1-3.9-0.7-6c-2-7.6-6.5-12.8-14.1-15c-7.5-2.1-13.9-0.1-19.3,5.4c-5.6,5.7-6.5,12.9-5.6,20.4
	c1.6,12.6,14.2,20.7,25.9,16.7C850.4,247.2,855.7,239,855.6,228.6z"/>
<path class="st4" d="M37.9,273.4c7.7-7.7,15.3-15.4,23-23.1c3.2,1.3,6.5,1.8,10,1.7c12.6,0,25.2,0,37.9,0.1c0,10.5,0,21.1,0,31.6
	c-14.7,0-29.4,0.3-44.1-0.1C54.7,283.3,45.8,279.5,37.9,273.4z"/>
<path class="st1" d="M920,251c-4.4,5.9-9.5,9.4-16.1,10.3c-14.9,2.1-25.2-5.7-26.8-20.6c-0.9-8.6-0.2-17.2-0.3-25.8
	c-0.1-5,0-9.9,0-14.9c0-1.9,0.6-2.4,3.2-2c1.6,0.3,3.3,0.3,4.9,0c2.9-0.5,3.6,0,3.6,2.2c-0.1,11-0.1,21.9,0,32.9c0,2.7,0.2,5.4,1,8
	c1.4,5,4.6,8.3,9.8,9.4c6.3,1.3,11.8,0,15.9-5.2c3-3.7,4.5-8,4.5-12.8c0-10.7,0-21.5-0.1-32.2c0-1.8,0.5-2.5,2.3-2.3
	c2.3,0.1,4.7,0.2,7,0c2-0.2,2.5,0.5,2.5,2.4c-0.1,17.5,0,34.9-0.1,52.4c0,2.2,0.7,5.1-0.4,6.4c-1.3,1.5-4.3,0.4-6.5,0.5
	c-4.3,0.1-4.3,0-4.3-4.3C920,254.2,920,253,920,251z"/>
<path class="st1" d="M592.2,210.8c0,15.5,0,30.9,0.1,46.4c0,2.2-0.6,2.8-2.7,2.7c-3.4-0.2-6.8-0.1-10.2,0c-1.5,0-2-0.4-2-1.9
	c0.1-3.6,0-7.2,0-10.7c0-27.4,0-54.8-0.1-82.2c0-2.3,0.7-2.9,2.8-2.7c3,0.2,6,0.2,9,0c2.4-0.2,3.1,0.4,3.1,3
	C592.1,180.4,592.2,195.6,592.2,210.8z"/>
<path class="st5" d="M794.2,214.9c0,14.1-0.1,28.1,0.1,42.2c0,2.2-0.6,2.8-2.7,2.7c-2.3-0.2-4.7-0.1-7.1,0c-1.5,0.1-1.9-0.5-1.9-2
	c0.1-4.7,0-9.4,0-14.1c0-23.7,0-47.3-0.1-71c0-2.4,0.6-3.1,3-2.9c2.1,0.2,4.2,0.2,6.3,0c2-0.2,2.4,0.6,2.4,2.5
	C794.1,186.5,794.2,200.7,794.2,214.9z"/>
<path class="st6" d="M108.8,252.1c-12.6,0-25.2-0.1-37.9-0.1c-3.5,0-6.8-0.4-10-1.7c-14.2-6.7-15.7-25.3-3.3-34.2
	c8.8-6.4,21.3-4.2,27.6,4.9c0.6,0.9,1.2,1.9,1.8,2.9c0.7,0,0.9-0.5,1.3-0.9c6.8-6.8,13.5-13.6,20.4-20.3c1.2-1.2,1.4-1.9,0.2-3.4
	c-7.8-9.2-17.5-15.1-29.2-17.7c12.9-14.5,35.2-17,51.4-5.9c0.9,0.6,1.7,1.2,2.6,1.8c7.4,6.3,12.3,14.2,14.1,23.8
	c0.5,2.9,0.8,5.8,0.6,8.7c-0.1,1.6,0.2,2.3,2.1,2.5c9.3,0.9,16.8,8.5,17.6,17.4c0.8,9.9-4.8,18.4-14,21.1c-2,0.6-4.1,0.9-6.2,0.9
	C134.7,252,121.7,252.1,108.8,252.1z"/>
<path class="st7" d="M554.6,228.7c-0.1,8.9-4.8,16.4-12,18.9c-11,3.8-22.9-4.3-23.9-16.4c-0.4-5.2,0.3-10.2,3.4-14.6
	c4.5-6.5,11.8-9.4,19.1-7.5c6.7,1.7,12.3,8.4,13.1,16C554.5,226.2,554.5,227.5,554.6,228.7z"/>
<path class="st7" d="M991.7,228.4c0,6.6-1.4,12.1-5.6,16.5c-5.4,5.6-11.9,7.6-19.3,5.3c-7.9-2.5-12.2-8.3-13.6-16.3
	c-0.9-5-0.6-9.9,1.3-14.6c3.2-8.1,11.2-13.3,19-12.5c9,0.9,15.9,7.1,17.7,16C991.5,224.8,991.7,226.9,991.7,228.4z"/>
<path class="st7" d="M483.3,227.8c0,6.4-1.8,11.3-5.8,15.4c-7.2,7.2-18.4,7.1-25.6-0.1c-7.7-7.7-7.9-21.4-0.2-29.1
	c5.3-5.3,11.7-6.9,18.8-4.5c7.4,2.5,11.4,8,12.6,15.6C483.3,226.2,483.3,227.4,483.3,227.8z"/>
<path class="st7" d="M373.6,229.2c0-12.8,8.5-21.3,20-20.6c6.7,0.4,11.6,4,14.8,9.7c4.8,8.5,2.6,19.9-4.9,26.1
	c-5.3,4.4-11.5,5.5-17.7,3c-6.8-2.7-10.9-8.1-12-15.5C373.6,230.8,373.6,229.6,373.6,229.2z"/>
<path class="st8" d="M631,208.2c4.3,0.3,8.1,1.5,10.9,5c1,1.3,1.2,2-0.7,2.8c-8.6,3.5-17.2,7.1-25.8,10.7c-1.3,0.5-1.9,0.6-1.8-1.1
	C613.7,216.6,622.2,208.1,631,208.2z"/>
<path class="st7" d="M855.6,228.6c0,10.4-5.3,18.6-13.7,21.5c-11.7,4-24.4-4.1-25.9-16.7c-0.9-7.5-0.1-14.6,5.6-20.4
	c5.4-5.5,11.9-7.5,19.3-5.4c7.6,2.2,12.1,7.5,14.1,15C855.5,224.6,855.5,226.7,855.6,228.6z"/>
</svg>
