<?xml version="1.0" encoding="utf-8"?>
<!-- Generator: Adobe Illustrator 21.1.0, SVG Export Plug-In . SVG Version: 6.00 Build 0)  -->
<svg version="1.1" id="Layer_1" xmlns="http://www.w3.org/2000/svg" xmlns:xlink="http://www.w3.org/1999/xlink" x="0px" y="0px"
	 viewBox="0 0 600 600" style="enable-background:new 0 0 600 600;" xml:space="preserve">
<style type="text/css">
	.st0{fill:#FFD047;}
	.st1{fill:#FFCE42;}
	.st2{fill:#DC4638;}
	.st3{fill:#DA4536;}
	.st4{fill:#638AC7;}
	.st5{fill:#DB4739;}
	.st6{fill:#5881C1;}
	.st7{fill:#5980C0;}
	.st8{fill:#020202;}
	.st9{fill:#5D84C3;}
	.st10{fill:#D64536;}
	.st11{fill:#060606;}
	.st12{fill:#060707;}
	.st13{fill:#5F85C4;}
	.st14{fill:#040404;}
	.st15{fill:#070707;}
	.st16{fill:#050505;}
	.st17{fill:#D14536;}
	.st18{fill:#CB4334;}
	.st19{fill:#F7BE3F;}
	.st20{fill:#BE4134;}
	.st21{fill:#BC453E;}
	.st22{fill:#6187C5;}
	.st23{fill:#030303;}
	.st24{fill:#F3F3F3;}
	.st25{fill:#F7F8F8;}
	.st26{fill:#FECA44;}
	.st27{fill:#4766AE;}
	.st28{fill:#5075B9;}
	.st29{fill:#F9C23D;}
	.st30{fill:#FECA40;}
	.st31{fill:#EBB93D;}
	.st32{fill:#F4C03D;}
	.st33{fill:#EFBD3C;}
	.st34{fill:#F9C43F;}
	.st35{fill:#D74438;}
	.st36{fill:#F3B437;}
	.st37{fill:#EDAF38;}
	.st38{fill:#5A82C2;}
	.st39{fill:#D64538;}
	.st40{fill:#D04639;}
	.st41{fill:#D04437;}
	.st42{fill:#CA4539;}
	.st43{fill:#C34438;}
	.st44{fill:#557BBD;}
	.st45{fill:#BB453A;}
	.st46{fill:#B6453A;}
	.st47{fill:#F3B336;}
	.st48{fill:#F4B939;}
	.st49{fill:#F4F4F5;}
	.st50{fill:#EEEDED;}
	.st51{fill:#BF4235;}
	.st52{fill:#C64336;}
	.st53{fill:#E0E0E0;}
	.st54{fill:#4A6DB4;}
	.st55{fill:#4D70B7;}
	.st56{fill:#DEA437;}
	.st57{fill:#D69530;}
	.st58{fill:#DA9E34;}
	.st59{fill:#E7B13A;}
	.st60{fill:#EEB439;}
	.st61{fill:#E2AC38;}
	.st62{fill:#E5A936;}
	.st63{fill:#D44437;}
	.st64{fill:#DD9F34;}
</style>
<image style="overflow:visible;" width="500" height="240" xlink:href="google_cloud.png"  transform="matrix(1.2 0 0 1.2 675.5313 -288)">
</image>
<g>
	<path class="st0" d="M179.9,264c-2.7-4.7-6.2-8.9-7.3-14.4c-0.6-3.2-0.5-6.3,1-9.1c7.1-13,14.4-25.9,22.1-38.5
		c0.3-0.1,0.5-0.1,0.8,0c0.6,0.3,1.1,0.7,1.3,1.4c6,10.6,12,21.2,18.2,31.8c2,3.4,4,6.9,5.9,10.3c0.3,0.7,0.5,1.3,0.4,2.1
		c-0.4,1.7,0.2,3.2,0.9,4.7c1.5,3.2,4,6,4.7,9.6c0.4,2.7,2.2,4.7,3.3,7c0.4,0.8,1.1,1.5,1.1,2.3c-0.5,6.2,3.9,10.4,6.5,15.2
		c2.8,5.2,5.7,10.4,8.8,15.4c1.7,2.8,1.1,4.2-1.9,4.2c-12.7,0-25.4,0.7-38-2.1c-2.4-0.5-4.1-1.5-5.1-3.8c-2.4-6.1-6.7-11.1-9.6-16.9
		c-2.8-5.5-6.1-10.8-9.3-16C182.7,265.8,182,264.2,179.9,264z"/>
	<path class="st1" d="M179.9,264c1-2.3,2.1-0.5,2.7,0.2c1.2,1.5,1.9,3.4,3,5c4.2,5.8,6.9,12.4,10.7,18.4c2.8,4.4,5.6,8.8,7.7,13.5
		c0.5,1.2,1.5,1.6,2.9,1.9c12.6,2.9,25.4,2.2,38.1,2.2c0.9,0,2.2,0.5,2.7-0.4c0.5-0.9-0.3-1.9-0.9-2.9c-3.5-6-6.9-12-10.4-18
		c-1-1.7-1.9-3.3-2.9-4.9c-1.3-1.9-2.1-3.6-1.8-6.1c0.4-3.2-2.5-5.3-3.6-8.1c-0.4-1.1-1.1-2-0.9-3.2c1.4-0.1,1.7,1.1,2.2,1.9
		c7.2,11.9,14,24.1,21.2,36c3.2,5.4,6.2,10.9,9.6,16.2c1.2,1.7,3.2,2.3,4.9,3.1c1.1,0.8,2.2,1.5,3.2,2.4c1.4,1.4,2.8,2.8,4.2,4.1
		c1.9,2,3.9,4,5.9,5.9c2.3,2.4,4.8,4.5,6.7,7.2c0.5,0.8,1.4,1.4,1.2,2.5c-2.8,5.8-6.4,11.2-9.6,16.8c-0.9,1.6-2.4,1.8-4,1.8
		c-9.8,0-19.5,0.1-29.3-0.1c-3,0.1-5.4-1.6-8.1-2.3c-4.7-2.8-6.4-7.9-9-12.2c-6.8-11.4-13.4-23-20-34.6c-3.4-6-6.7-12-10-18
		c-0.4-0.8-0.4-1.8-1.3-2.3c-3.2-5.2-6.4-10.4-9.1-15.8c-0.5-1-0.6-2.2-1.6-2.9C182.6,269.1,180.9,266.7,179.9,264z"/>
	<path class="st2" d="M409,284.4c-0.4,1.6-1.3,2.9-2.4,4.1c-1.3,0.5-2.2,1.5-3.2,2.5c-10.2,11-21.5,20.7-33.6,29.6
		c-11.3,8.4-23.6,15.3-36.1,21.8c-4.1,2.2-8.3,4.5-13,5.5c-0.3-0.6-0.2-1.2,0.1-1.7c1.9-3.1,3.4-6.5,5.2-9.7c0.5-0.5,1-1,1.7-1.1
		c0.8,0.2,1.5-0.1,2.1-0.7c4.8-4.9,9.8-9.5,14.3-14.6c0.7-1,1.6-1.9,2.6-2.6c0.9-0.6,1.6-1.4,2.4-2.1c20.2-20.2,40.4-40.4,60.5-60.6
		c2.8-2.8,2.8-2.8-0.1-5.7c-0.9-1.1-2.2-1.9-2.4-3.4c0-1.4,0.6-2.6,1.3-3.8c2.6-4.3,5.3-8.6,7.5-13.1c0.7-1.5,1.7-2.7,3.5-1.1
		c3.2,4.9,6.6,9.7,8.2,15.4c1.2,4.1,0.4,7.9-1.5,11.5c-2.1,4-4.6,7.7-6.9,11.6c-0.5,0.3-0.6,0.7-0.6,1.2c0,0.5-0.1,0.9-0.6,1.1
		c-1.9,1.8-2.9,4.2-3.9,6.6c-0.4,0.8-0.8,1.6-1.3,2.4c-1.1,0.9-1.9,1.9-2,3.3c-0.3,0.6-0.7,1.2-1,1.8
		C409.4,283,409.1,283.7,409,284.4z"/>
	<path class="st3" d="M320.9,347.9c2.3-2.1,5.3-2.8,8-3.9c6-2.5,11.4-5.8,16.9-9c6-3.3,11.8-6.9,17.5-10.7
		c8.6-5.7,16.6-12.3,24.4-19.1c5.7-5,11.1-10.3,16.1-15.9c0.7-0.8,1.6-1.3,2.7-0.8c-3,6.4-6.8,12.3-10.3,18.4
		c-8.3,14.6-16.7,29.1-25.1,43.7c-1.3,2.2-2.4,4.6-4.9,5.9c-5,3.2-10.6,3.7-16.4,3.6c-8.6-0.1-17.2,0-25.8,0c-3,0-6-0.3-8.9-0.6
		c-0.6-0.2-1.2-0.6-0.9-1.2C316,354.5,317.3,350.4,320.9,347.9z"/>
	<path class="st4" d="M217.1,164.8c4.4-7.7,8.6-15.6,13.2-23.2c3.5-5.9,8.9-8.6,15.7-8.6c36.4,0,72.8,0,109.2,0
		c6.3,0,11.5,2.3,14.7,8c-0.2,0.2-0.5,0.3-0.8,0.3c-2.3-1.7-4.3-3.8-7.1-4.7c-3.1-1.4-6.4-1-9.7-1.1c-2.8,0-5.6,0-8.4,0
		c-15,0.2-30,0.1-45,0c-7.8-0.2-15.5,0-23.3-0.1c-1.9,0-2.7,0.6-2.9,2.6c-0.9,8.7-3.9,16.6-9.9,23.1c-6.5,7.1-14.7,10.9-24.3,11.5
		c-5.5,0.3-10.7-0.2-15.9-2.4c-2.8-1.1-3.4-3.5-5.2-5.1C217.3,165.1,217.2,164.9,217.1,164.8z"/>
	<path class="st5" d="M419.5,227.8c-0.8-0.2-1.8-0.8-2.3,0.3c-2.6,6.2-7.4,11.3-9.5,17.8c-2,0.2-2.6-1.7-3.9-2.6
		c-5.6-5.5-11-11.3-16.9-16.6c-1.1-0.8-2.1-1.7-2.9-2.8c-3.1-4-7-7.2-10.5-10.9c-4.3-4.4-8.7-8.7-13-13c-0.6-0.8-1.2-1.5-0.7-2.6
		c2.3-2.3,5.3-1.6,7.7-1.2c4.6,0.8,9.2,0.9,13.8,1.3c0.3,0.1,0.6,0.3,0.8,0.5c0.2,0.3,0.5,0.6,0.5,1c0.7,3.6,0.7,3.6,4.5,3.6
		c0.7,0,1.4,0,2,0c3.7,0.2,4.9,2.3,3.4,5.7c-0.2,0.5-0.5,1-0.8,1.6c-0.8,1.7-0.3,2.6,1.6,2.6c5,0,10.1,0,15.3,0
		c-0.8-3.7-3.7-6.1-4.3-9.6c0-0.3,0.2-0.6,0.4-0.8c4,5.8,7.2,12.1,10.7,18.2C417,222.8,418.8,225,419.5,227.8z"/>
	<path class="st6" d="M362.8,136.4c2.8,0.7,4.7,2.5,6.4,4.7c1.4,1.1,1.9,2.8,3,4c6.6,11,13,22,19.1,33.3c-0.8,0.7-1.8,0.7-2.7,0.7
		c-10.2,0-20.5,0-30.7,0c-0.8,0-1.5,0-2.3-0.4c-1.3-0.9-0.7-2.1-0.4-3.2c3.5-11.8,6-23.8,6.2-36.2
		C361.5,138.3,361,136.7,362.8,136.4z"/>
	<path class="st7" d="M196.2,202.2c-0.2-0.1-0.3-0.1-0.5-0.2c2.9-5.8,6.1-11.4,9.7-16.7c2.2-3.2,4.7-3,7.5,0.7
		c1.4,1.8,2.7,3.8,3.7,5.9c0.8,1.7,1.9,3.2,3.8,3.8c2.2,0.7,3.5,2.3,4.7,4.1c2.1,3.3,3.6,6.9,5.8,10.1c0.8,1.2,1.6,2.2,3.2,2.2
		c2.8,0,4.1,1.7,4.9,4.1c-1.2,4.2-3.5,7.9-5.8,11.5c-0.3,0.5-0.7,0.9-1.3,1c-1.1-0.6-1.6-1.7-2.1-2.7c-1.4-2.6-2.8-5-5.9-6
		c-1.5-0.5-2.2-2.1-3-3.5c-2.6-4.2-5-8.5-7.7-12.6c-0.4-0.6-0.6-1.3-1.2-1.6c-3.9-1.9-5.2-5.8-7.2-9.2c-1-1.6-1.5-1.4-2.4,0
		c-1.1,1.9-2.3,3.8-3.4,5.8C198.2,200,197.7,201.5,196.2,202.2z"/>
	<path class="st8" d="M238.3,407.9c5.3-0.4,10,1.5,14.2,5.1c1.2,1.1,1.1,1.9-0.1,2.7c-0.9,0.6-1.1,2.7-3.2,0.8
		c-5.2-4.7-11.5-5.4-17.8-2.7c-5.9,2.5-9.2,7.2-10.1,13.7c-1.9,13.9,11.2,24.2,24,18.8c1.9-0.8,3.6-1.9,5-3.3
		c2.1-2.1,2.8,0.3,3.9,1.1c1.5,1.1,0.5,2-0.5,2.7c-13.2,11.1-34.5,5.7-37.5-13.2C214,420.1,223.8,407.3,238.3,407.9z"/>
	<path class="st9" d="M238.7,216.1c-1.4-1.9-2.7-4.1-5.7-3.4c-1.1,0.2-1.6-0.8-2.1-1.6c-2.4-4-4.8-8-7.1-12
		c-0.8-1.4-1.8-2.2-3.3-2.6c-2.3-0.6-3.5-2.2-4.5-4.2c-1.3-2.7-2.9-5.3-5.3-7.4c-2.1-1.8-3.6-1.7-5.2,0.4c1.2-2.9,2.8-5.6,4.6-8.2
		c2.2-2.1,2.7-2.2,4.5,0.1c1.7,2.2,4.1,3.5,6,5.4c2.6,2.7,4.4,6.4,8.2,8c0.7,0.3,1.1,1.1,1.4,1.8c1.2,2.8,2.7,5.2,6.1,5.4
		c0,0,0.2,0,0.3,0.1c3.1,2.9,5.5,6.3,7.4,10.1c-0.8,2.8-2.5,5.2-4.1,7.6C239.7,216,239.3,216.4,238.7,216.1z"/>
	<path class="st10" d="M404.9,202.1c0,0.2-0.1,0.4-0.1,0.6c-1.9,1.7-8,2-9.7,0.6c-0.5-0.5-1-1-0.9-1.7c0.3-2.7-1.5-2.5-3.3-2.7
		c-2.9-0.2-6,0.8-8.8-0.8v0c-0.2-2-1.2-3-3.4-2.7c-1.1,0.2-2.3,0-3.5,0c-2.1-0.1-3.6-0.7-3.5-3.2c0.1-1.3-0.7-1.9-2-2
		c-1.3-0.1-2.5,0-3.8,0c-4.5-0.1-5.4-1.6-3.5-5.8c4-1.1,8.1-0.7,12.1-0.3c5.3,0.5,10.6,0.1,16,0.4c2.2,0.1,2-1.6,2.7-2.8
		c3.7,5.6,7,11.4,9.9,17.4C403.6,200.2,404,201.3,404.9,202.1L404.9,202.1z"/>
	<path class="st11" d="M325.5,447.5c-5.7,6.2-13.2,6.7-18,1.6c-2.3-2.4-2.6-5.6-2.7-8.6c-0.2-5.1,0-10.3-0.1-15.4
		c0-1.9,0.5-2.6,2.4-2.5c1.9,0,2.5,0.5,2.5,2.5c0.1,5.6-0.5,11.2,0.4,16.8c0.4,2.7,1.7,4.7,4.3,5.6c2.8,0.9,5.5,0.8,7.8-1.4
		c2.3-2.1,3.4-4.6,3.4-7.7c0-4.6,0.1-9.1,0-13.7c-0.1-2,1-2.1,2.5-2.1c1.6,0,2.5,0.3,2.5,2.2c-0.1,8.1-0.1,16.1,0,24.2
		c0,1.8-0.1,2.8-2.4,2.8c-2.1,0-2.8-0.7-2.5-2.7C325.7,448.7,325.6,448.3,325.5,447.5z"/>
	<path class="st12" d="M161.8,428.3c0-7,0.1-14,0-20.9c0-1.8,0.5-2.5,2.3-2.3c0.7,0.1,1.4,0.1,2,0c2.2-0.3,2.6,0.7,2.5,2.7
		c-0.1,12,0,24.1,0,36.1c0,1.9-0.1,3.9,0,5.8c0.1,1.7-0.6,2.3-2.2,2.1c-0.1,0-0.2,0-0.3,0c-4.4,0.1-4.4,0.1-4.4-4.2
		C161.8,441.1,161.8,434.7,161.8,428.3z"/>
	<path class="st11" d="M484.5,439.4c0,3.4-0.1,6.8,0,10.2c0.1,2.1-1,2.1-2.5,2.1c-1.6,0-2.5-0.2-2.5-2.2c0.1-6.4-0.1-12.8,0.1-19.2
		c0.1-2.6-0.6-3.8-3.3-3.3c-1.9,0.3-2.6-0.5-2.5-2.4c0.1-1.5,0.6-2.2,2.1-2c3.5,0.6,3.9-1.1,3.8-4.1c-0.3-7.8,5.6-10.6,11.8-10.1
		c0.8,0.1,2.5-0.2,2,1.5c-0.4,1.3,0.1,3.6-2.8,3c-1.9-0.4-3.9,0.3-5.1,2.1c-1.3,2.1-1.5,4.4-1,6.7c0.2,0.8,0.9,0.9,1.7,0.9
		c1.3,0,2.5,0.1,3.8,0c1.6-0.1,2.5,0.1,2.5,2.1c0,2.1-0.9,2.3-2.7,2.3c-5.5,0-5.5,0-5.5,5.7C484.5,435,484.5,437.2,484.5,439.4z"/>
	<path class="st13" d="M243.5,208.2c-0.1-0.7,0-1.4-0.7-1.8c-1.9-1.3-2.9-3.3-4.1-5.2c-0.8-1.3-1.7-2.9-3.4-2.9
		c-2.6,0-3.9-1.5-4.7-3.5c-1-2.5-2.6-4.1-5-5.3c-2.7-1.3-3.4-4.6-5.6-6.5c-2.4-2-5.1-3.8-6.9-6.5c-0.9-1.4-2,0.5-3,0.6
		c1.2-2.9,2.9-5.6,4.7-8.2c0.2-0.2,0.5-0.3,0.8-0.3c1.4,0.3,2,1.5,2.7,2.5c1,1.6,2.4,3,3.4,4.6c2.5,3.8,5.2,7.2,9.3,9.6
		c2.7,1.6,3.8,4.8,5.2,7.5c1.5,2.8,3.3,4.4,6.7,3.4c1.4-0.4,2.9-0.2,4.3-0.5c1.2-0.2,2.4-0.1,2.6,1.5
		C248.5,201.5,246.8,205.3,243.5,208.2z"/>
	<path class="st14" d="M467.9,452.2c-6.2,0-9.6-3.3-9.7-9.3c-0.1-4.4-0.1-8.7,0-13.1c0.1-2.1-0.5-3.1-2.7-2.8
		c-1.7,0.3-2.6-0.2-2.6-2.3c0-2,1-2.3,2.5-2.1c2.5,0.4,3-0.8,2.8-3c-0.1-1.2,0.1-2.4-0.1-3.5c-0.5-2.8,0.8-3.3,3.2-3.1
		c1.3,0.1,1.7,0.6,1.6,1.8c-0.1,1.7,0.1,3.5,0,5.2c-0.1,1.9,0.7,2.7,2.6,2.5c0.9-0.1,1.7,0,2.6,0c1.6-0.1,2.5,0.1,2.5,2.1
		c0,1.8-0.6,2.3-2.4,2.3c-5.3,0-5.4,0.1-5.3,5.6c0.1,3.8-0.3,7.5,0.4,11.3c0.5,2.6,2.1,3.9,4.1,3.5c3.3-0.6,3.7,1.9,3.7,3.4
		C471.3,452.4,469.1,452,467.9,452.2z"/>
	<path class="st15" d="M413.1,430c0-6.3,0.1-12.6-0.1-18.9c-0.1-2.6,1.4-2.2,2.9-2.3c1.8-0.1,2.5,0.3,2.5,2.4
		c-0.1,12.7-0.1,25.4,0,38.1c0,2.3-0.9,2.4-2.7,2.4c-1.9,0-2.8-0.3-2.7-2.5C413.2,442.8,413.1,436.4,413.1,430z"/>
	<path class="st14" d="M541.1,421.9c1-0.1,1.9-0.2,2.9-0.2c1.1,0.1,3-0.5,2.9,1.3c-0.1,1.5-0.4,3.7-3,3.5c-5.3-0.5-9.6,4.2-9.2,9.7
		c0.3,4.5,0,9.1,0.1,13.6c0.1,2.1-1.2,1.9-2.4,1.8c-1.1-0.1-2.9,0.9-2.9-1.5c0-8.7,0-17.4,0-26.1c0-0.6,0.2-1.1,0.7-1.5
		c0.5,0,1,0.2,1.4,0.1c2.2-0.4,3,0.6,2.7,2.7c-0.1,0.5-0.3,1.2,0.9,1.8C536,424.1,538.7,423.2,541.1,421.9z"/>
	<path class="st16" d="M260.1,430.2c0-6.4,0.1-12.8,0-19.2c0-2,0.8-2.2,2.4-2.1c1.5,0,2.5,0,2.5,2.1c-0.1,12.9-0.1,25.8,0,38.7
		c0,2-0.9,2.2-2.4,2.1c-1.5,0-2.5,0-2.5-2.1C260.2,443.1,260.1,436.6,260.1,430.2z"/>
	<path class="st17" d="M393.2,181.7c0.9,3.6,0.9,3.5-2.9,3.6c-9.3,0.4-18.7-0.9-28-0.6c-1.6,1.3-3.5,0.7-5.2,0.8
		c-2.7,0.1-5.3,0-7.7,1.5c-1.7,0.6-2.4-0.7-3.3-1.6c-0.4-0.6-0.7-1.2-0.7-2c0-1.9,1.3-2.7,3-3c1.8-0.3,3.7-0.2,5.5-0.1
		c12.9,0.9,25.9,0.6,38.8,0.1C393.1,180.8,393.2,181.2,393.2,181.7z"/>
	<path class="st18" d="M392.6,180.5c-0.6,1.4-1.8,1.3-2.9,1.3c-10.7,0-21.5,0.1-32.2-0.1c-2.9,0-5.7-0.6-8.6-0.5
		c-2,0.1-3.2,0.7-2.9,2.9c-2,0.1-2.9-1.3-3.6-2.7c-0.9-1.9,0.4-2.7,2.1-3.2c4.6-0.4,9.1,0.3,13.6,0.3c10.2,0.2,20.4,0,30.5,0.1
		c0.9,0,1.9-0.3,2.8,0.3C391.8,179.5,392.6,179.7,392.6,180.5z"/>
	<path class="st19" d="M235.2,357.3c0.9-1.3,1.7-0.1,2.5,0.2c1.7,0.7,3.3,1.5,5.2,1.4c0.9,0.5,1.9,0.3,2.8,0.3
		c7.4,0,14.7-0.2,22.1,0.1c6.7,0.3,13.2-2,19.9-1.3c1.1,0.1,2.1,0,3.2,0.1c1.3,0,2.6-0.2,3.8,0.7c0.2,0.3,0.2,0.7-0.1,0.9
		c-3,0.2-6,0-9,0.2c9.5-0.1,19-1,28.6-0.4c13.6,0.7,27.2,0.3,40.8,0.4c0.8,0,1.8-0.5,2.4,0.5c-0.9,0.1-1.7,0.2-2.6,0.2
		c-36.3,0-72.7,0-109,0C241.9,360.5,238.1,360.1,235.2,357.3z"/>
	<path class="st20" d="M357.3,360.3c-12.9,0-25.8-0.1-38.6-0.1c-1.6,0-3.3-0.1-4.9-0.2c-0.2-0.3-0.2-0.7,0-1
		c0.2-0.2,0.4-0.2,0.7-0.1c11.5,0.8,23,0.6,34.5,0.6c5.8,0,11.6,0.1,16.7-3.3c0.1-0.1,0.5,0.2,0.7,0.3
		C363.9,359.2,360.6,359.8,357.3,360.3z"/>
	<path class="st21" d="M391.4,179c-15.9,0-31.8,0-47.7,0c-1.1,0.2-2.1,1-3.3,0.6c-0.7-0.6-0.6-1.2,0.2-1.7c4.9-0.6,9.9-1.2,14.8,0.4
		c12,0,24,0.1,36.1,0.1C391.3,178.6,391.3,178.8,391.4,179z"/>
	<path class="st3" d="M414.3,275.1c0.6-2.6,1.1-5.2,3.9-6.6C417,270.8,416,273.2,414.3,275.1z"/>
	<path class="st22" d="M372.3,145.1c-1.6-0.9-2.2-2.6-3-4c0.2,0,0.4,0,0.6,0C371,142.2,371.8,143.6,372.3,145.1z"/>
	<path class="st3" d="M411.1,280.8c-0.5-1.8,0.4-2.8,2-3.3C412.4,278.6,411.7,279.7,411.1,280.8z"/>
	<path class="st4" d="M215.4,169c-0.2,0-0.5,0-0.7,0c0.5-1.5,1.2-2.9,2.3-4.1c0,0,0.2,0.1,0.2,0.1C217.9,166.8,216.9,168,215.4,169z
		"/>
	<path class="st2" d="M404.9,202.2c-1.4-0.6-1.7-1.8-1.8-3.1C404.1,199.9,404.6,201,404.9,202.2z"/>
	<path class="st3" d="M409,284.4c-0.3-1-0.5-1.9,1.1-1.8C409.9,283.4,409.7,284,409,284.4z"/>
	<path class="st0" d="M184.1,271.5c1.5,0.4,1.6,1.7,1.6,2.9C185.2,273.5,184.6,272.5,184.1,271.5z"/>
	<path class="st0" d="M194.9,290.2c1.3,0.3,1.4,1.3,1.3,2.3C195.7,291.8,195.3,291,194.9,290.2z"/>
	<path class="st3" d="M418.8,267.5c-0.5-0.3-0.6-0.7-0.3-1.1c0.2-0.3,0.5-0.5,0.8-0.1C419.2,266.7,419,267.1,418.8,267.5z"/>
	<path class="st23" d="M595.3,428.9c0.6,7.1,0.1,14.1,0.3,21.2c0.1,2.2-1.5,1.5-2.6,1.6c-1.4,0.1-2.4,0-2.3-1.9
		c0.1-5.2,0.1-10.5,0-15.7c0-1,0.3-2.2-0.6-3c-0.1-2.6-1.6-4-3.9-4.7c-3.1-0.9-5.8-0.2-7.8,2.3c-1.5,1.8-2.4,3.9-2.3,6.4
		c0.1,4.9-0.1,9.7,0.1,14.6c0.1,2.3-1.1,2.2-2.7,2.2c-1.4,0-2.8,0.3-2.7-2.1c0.2-5,0.1-10.1,0.1-15.1c0-5.6-2-8.4-6.1-8.4
		c-4.6-0.1-8.4,3.8-8.5,8.8c-0.1,4.9-0.1,9.7,0,14.6c0.1,2-0.7,2.4-2.5,2.4c-2,0-2.5-0.6-2.4-2.5c0.1-7.9,0-15.7,0.1-23.6
		c0-1.2-0.8-3,1.8-3.1c2.4-0.1,2.8,1,2.6,2.9c0,0.2,0.2,0.5,0.5,1c2.2-2.5,4.6-4.5,7.9-4.9c3.8-0.4,7.2,0.2,9.5,3.4
		c1.2,1.7,1.6,1.5,3,0c4.1-4.3,12.4-5.3,16.8-0.2c1.1,1,1.5,2.3,1.8,3.7l-0.1,0.2L595.3,428.9z"/>
	<path class="st24" d="M595.2,428.5c-0.6-1.2-1.2-2.5-1.8-3.7C595.1,425.5,595.3,427,595.2,428.5z"/>
	<path class="st8" d="M50.5,441.5c-3.3,5.3-7.9,8.9-14,10.5c-3,0.3-6,0.9-9.1,0.7c-1.6-0.3-3.3-0.2-4.8-1c-1.7-0.3-3.2-1-4.6-1.8
		c-3.2-1.7-5.9-4.1-8.2-6.9c-1.4-2.2-3.1-4.4-3.5-7.1c-0.7-1.3-0.8-2.8-1.1-4.2l0,0c-0.8-3.5-0.4-7,0.6-10.5c2-5.8,5.5-10.4,10.5-14
		c9.3-5.4,18.5-5.4,27.8,0c2.4,1.6,2.5,1.7,2.3,3.4c-0.2,0.1-0.3,0.2-0.5,0.3c-3.4,3.2-3.4,3.1-7.4,0.9c-0.8-0.5-1.7-0.8-2.5-1.1
		c-5.3-0.4-10.5-0.6-15.4,2.4c-7.4,4.7-10.1,16.2-5.3,23.7c7.1,11.3,21.3,10.6,27.5,2.9c0.2-0.3,0.5-0.6,0.7-0.9
		c1-1.5,2.5-3.2,1.6-5c-0.7-1.5-2.8-0.7-4.3-0.8c-2.6-0.1-5.2,0.1-7.9-0.1c-2.7-0.2-3.6-1.2-3.5-4.2c0-2.9,0.7-3.6,3.6-3.7
		c6.1-0.2,12.2,0.9,18.3,0.5c0.8,0,1.3,0.2,1.6,0.9C53.8,431.9,52.3,436.7,50.5,441.5z"/>
	<path class="st25" d="M46.3,410.7c0.5-2-1.6-2.2-2.3-3.4C45.6,407.9,47.7,408.1,46.3,410.7z"/>
	<path class="st25" d="M56.9,430.6c-0.4,1.6-0.7,3.2-1.1,4.9C55.8,433.8,55.4,432,56.9,430.6z"/>
	<path class="st25" d="M59.3,447c0.7,0.7,1.5,1.5,2.2,2.2C60.2,449,59.5,448.3,59.3,447z"/>
	<path class="st25" d="M57,442.9c0.6,0.6,1,1.3,1.1,2.2C57.1,444.7,56.9,443.9,57,442.9z"/>
	<path class="st25" d="M55.8,438.4c1,0.8,0.5,1.8,0.5,2.7C55.4,440.3,55.9,439.3,55.8,438.4z"/>
	<path class="st24" d="M9.8,442.9c2.7,2.3,5.5,4.6,8.2,6.9C14.3,448.6,11.6,446.3,9.8,442.9z"/>
	<path class="st24" d="M5.7,421.3c-0.6,3.5-0.9,6.9-0.6,10.5C3.9,428.2,4.1,424.7,5.7,421.3z"/>
	<path class="st24" d="M22.6,451.7c1.6,0.3,3.3,0.3,4.8,1C25.7,452.7,24,453.1,22.6,451.7z"/>
	<path class="st24" d="M5.2,431.7c0.4,1.4,0.7,2.8,1.1,4.2C4.9,434.7,5,433.2,5.2,431.7z"/>
	<path class="st26" d="M221.8,247.7c3.6,4.7,6.1,10.1,9.1,15.2c9.4,16.1,18.6,32.2,27.8,48.3c0.4,0.7,1,1.4,1,2.4
		c-0.5,1,1.1,1.9,0,2.9c-1.6-1.3-2.2-3.3-3.2-5c-3.4-6.1-7.2-11.9-10.6-18.1c-4.2-7.7-9-15-13.4-22.6c-1.8-3.1-3.4-6.2-5.5-9.1
		c-1-3.6-3.5-6.4-4.9-9.7C221.5,250.5,220.8,249.2,221.8,247.7z"/>
	<path class="st27" d="M222.4,244.6c-0.3,0.5-0.6,1-1,1.5c-8-13.9-16-27.8-24-41.7c-0.2-0.3-0.9-0.6-0.2-1.1
		c0.2-0.2,0.5-0.2,0.8-0.2c1,0.5,1.7,1.4,2.5,2.1c0.2,0.2,0.4,0.4,0.5,0.7c3.5,4.4,5.3,9.9,8.3,14.6c4.4,7.1,8.3,14.4,12.4,21.6
		C222.1,242.9,222.6,243.7,222.4,244.6z"/>
	<path class="st28" d="M198,203.4c-0.2,0-0.5-0.1-0.7-0.1c-0.1-0.6-1.1-0.3-1-1.1c0.6-1.3,1.3-2.5,2.3-3.5c1.2-0.4,2,0.4,2.4,1.2
		c1.8,3.8,5.1,6.5,6.9,10.2c0.5,1.1,1.3,2.2,0.9,3.5c-0.2,0.2-0.4,0.4-0.7,0.5c-2.3-0.3-3.1-2.4-4.2-4c-1.1-1.5-2.4-3-3.5-4.5v0
		C199.8,204.6,199,203.9,198,203.4z"/>
	<path class="st29" d="M294.7,358.9c-1.2,0-2.3,0-3.5,0c-0.8-1-0.3-1.8,0.2-2.6c0.5-0.8,1-1.6,1.5-2.4c1.5-2.3,2.2-4.5-0.4-6.5
		c-0.4-0.3-0.6-1-0.9-1.5c-1.1-2.7-3.1-4.4-5.7-5.6c-2.7-2.9-5.4-5.8-8.2-8.7c0-1.3,1.1-1.2,1.9-1.3c2-0.2,4.1-0.4,6,0
		c4.6,1,9.1,2.4,13.5,3.9c0.5,0.1,0.8,0.6,1.1,0.9c0.5,0.8,0.8,1.8,1.4,2.6c3.5,4.8,3.6,10,2.2,15.5c-0.4,1.4-0.7,2.8-0.3,4.3
		c0.2,0.7,0.4,1.6-0.6,2C300.2,359.4,297.4,360.1,294.7,358.9z"/>
	<path class="st30" d="M285.9,340.3c3.6,0.2,5.2,2.6,6.4,5.5c0.1,0.3,0.2,0.5,0.3,0.8c0.5,1.7,4.1,1.9,2.4,4.7c-1,1.7-1.9,3.6-3,5.2
		c-0.5,0.8-0.9,1.4-0.8,2.4c-15,0.7-30,0.6-45,0.6c-1.1,0-2.3,0.4-3.3-0.6c10,0,19.9,0,29.9,0c1.6,0,2.6-0.4,3.4-1.9
		C279.3,351.4,282.7,345.9,285.9,340.3z"/>
	<path class="st31" d="M267.9,321.7c-1-0.8-2.3-1.2-2.9-2.3c-0.2-0.4-0.1-0.7,0.3-0.9c1.1-0.6,2.3-0.5,3.4-0.5c3.5,0,7,0.2,10.4,0
		c8.5-0.6,17,1,25.4,1.5c3.6,0.2,8.1-0.2,11.1,3.2c0.2,2.2-1.8,2.6-3.1,3.4c-1.1,0.6-2.5,0.8-3.7,1.4c-0.8,0.3-1.6,0.5-2.4,0.1
		c-3.2-2.2-6.8-2.7-10.6-3.5c-8.4-1.8-16.8-1.4-25.2-1.6C269.6,322.5,268.7,322.2,267.9,321.7z"/>
	<path class="st32" d="M299.9,335.6c-0.2-0.2-0.3-0.6-0.5-0.7c-6.7-1.6-13.2-4.9-20.4-4c-0.4,0.1-0.8,0.4-1.3,0.6
		c-2.2-1.7-4.1-3.7-5.8-5.8c0.5-0.6,1.1-0.8,1.8-0.8c6.6,0,13.2-0.8,19.5,1.8c1.2,0.5,2.5,0.4,3.7,0.6c2.3,0.3,4.6,0.7,6.4,2.4
		c1,1.5,2,3,1.8,4.9C303.7,336.2,302,337,299.9,335.6z"/>
	<path class="st33" d="M303.4,330.4c-2.6-1.8-5.6-2.4-8.7-2.3c-2.1,0-3.6-1.5-5.7-1.8c-5.7-0.9-11.4-0.3-17-0.5
		c-1.6-1.1-2.9-2.5-4.1-4.1c4.1,0,8.1,0,12.2,0c4.6,0,9.2,0,13.7,1.5c3.1,1,6.7-0.2,9.8,1.7c1.2,0.8,2.5,1.3,3.3,2.6
		C306.6,329.5,305.2,330.2,303.4,330.4z"/>
	<path class="st34" d="M265,318.7c0,0.2,0,0.4,0,0.6c-2-0.5-4-1-5.2-2.9c0.4-1-1-1.9,0-2.9c0.6,0.6,0.7,1.7,1.8,1.8
		c0.5,0.3,1.1,0.5,1.5,0.9c0.5,0.5,1,1,1.5,1.5C264.8,318,264.9,318.4,265,318.7z"/>
	<path class="st35" d="M404.2,243c1.2,1,2.3,1.9,3.5,2.9c0.8,1,1.6,1.9,2.3,2.9c0.5,1.5-0.3,2.6-1.3,3.6c-4.3,4.5-8.6,9-13.3,13
		c-3,2.5-4.9,6-7.7,8.7c-7,6.7-13.8,13.6-21,20.1c-6.2,5.7-12.6,11.5-16.4,19.4c-0.8,1.7-2.1,3-3.2,4.5c-1,0.6-1.8,1.3-2.3,2.3
		c-1.9,1.8-4.3,2.8-6.8,3.2c-1,0.2-2.1,0.5-2.8-0.7c-0.3-1,0-1.8,0.7-2.6c0.9-0.8,2.1-1,3.2-1.2c3.6-0.7,5.7-3,6.9-6.3
		c0.3-0.8,0.6-1.5,1.3-2.1c0.7-0.6,1.3-1.4,2-2c2.9-2.7,5.4-5.5,6.2-9.6c0.3-1.4,0.9-2.6,1.9-3.5c3.4-3.1,5.4-7.1,7.5-10.9
		c1.5-2.7,3.2-5.1,5.3-7.2c9-8.9,18-18,27-26.9C399.5,248.1,402.1,245.7,404.2,243z"/>
	<path class="st3" d="M347.1,318.2c3.2-5.5,6.1-11.1,10.7-15.9c9.7-10.1,20.9-18.7,30-29.4c6.5-7.6,14.1-14,20.8-21.2
		c0.8-0.8,0.8-2,1.4-2.8c3.7,3,3.7,3,0.4,6.3c-20.2,20.2-40.5,40.5-60.7,60.7C348.9,316.7,348,317.4,347.1,318.2z"/>
	<path class="st36" d="M314.4,358.9c-0.2,0-0.3,0-0.5,0.1c-0.1-0.1-0.2-0.2-0.3-0.3c-0.6-1.1-0.7-2.3-0.2-3.4
		c1.2-2.7,1.2-5.7,2.5-8.3c1.6-3.4,1.6-6.9,0.6-10.5c-0.3-1.2-0.6-2.4-0.1-3.7c1.9-2.1,4.3-0.5,6.5-1.1c1.8,1.3,3.2,2.8,3.8,5
		c-1.9,3.7-3.8,7.4-5.8,11.1C318.4,351.4,316.5,355.2,314.4,358.9z"/>
	<path class="st37" d="M326.7,336.7c-1.3-1.4-2.8-2.7-3.5-4.6c-2.8-2.1-1.6-5-1.3-7.7c1.4-1,3.3-0.6,4.8-1.4
		c2.4,0.8,4.8,1.3,6.4,3.6c-1,3.4-2.6,6.5-5.1,9C327.5,336,327.1,336.4,326.7,336.7z"/>
	<path class="st3" d="M327.9,335.7c1.5-2.9,3.1-5.9,4.6-8.8c0.7-1.5,0.4-3.8,2.9-4.2c2.9,1,5.3-0.8,7.8-1.6c0.5-0.2,1-0.4,1.6-0.7
		c-5,5.1-10.1,10.3-15.1,15.4C329.1,336.5,328.3,337.4,327.9,335.7z"/>
	<path class="st22" d="M254.4,189.8c-2,2.4-2.9,5.6-5.1,7.9c-0.1-0.9-0.6-1.6-1.5-1.3c-2,0.8-4.2,0.2-6.3,0.8
		c-2.1,0.7-3.6-0.1-4.8-2.1c-2.2-3.5-3.3-7.9-7.1-10c-6.2-3.4-8.6-10-12.9-15c-0.4-0.4-0.8-0.8-1.2-1.2c0.6-1.3,1.2-2.7,1.8-4
		c0.9-0.6,1.5-0.2,1.8,0.7c0.7,2.3,2.4,3.1,4.5,4c6.7,3.2,13.7,3.1,20.4,1.5c12.8-2.9,21.4-11.1,25.9-23.3c1.2-3.3,2.2-7,2.1-10.7
		c-0.1-2.1,0.8-2.6,2.7-2.6c7.8,0.1,15.7,0,23.5,0c1.3,1.9,0.9,4.1,0.7,6.2c-1.3,10-3.7,19.8-9.3,28.4c-2.2,3.5-4.3,7.1-7.8,9.6
		c-5.2,0.8-10.5,0.4-15.7,0.3c-3.5-0.1-6.1,0.4-7.6,4.2C257.6,185.6,256.2,187.9,254.4,189.8z"/>
	<path class="st9" d="M281.9,178.2c11-12.5,16.3-27,16.3-43.6c15.3,0,30.7,0,46,0c1.6,3.3,0.6,6.8,0.7,10.3c0,0.7-0.2,1.3-0.3,2
		c-0.7,5-1,5.4-6,4.9c-2.2-0.2-2.4,1.1-2.6,2.6c-1,7.2-3.4,14.1-6,20.9c-0.5,1.4-0.9,3-2.6,3.7c-1,0.4-2.1,0.3-3.2,0.3
		c-12.8,0-25.5,0-38.3,0C284.5,179.2,283,179.5,281.9,178.2z"/>
	<path class="st38" d="M327.9,178.2c2.9-6.4,4.7-13.3,6.8-20c0.5-1.7,0.4-3.6,0.7-5.4c0.3-2.3,1.2-2.5,3.1-1.9
		c0.6,0.2,1.3,0.4,2,0.5c2,0.3,3-0.6,3.3-2.7c0.7-4.7,0.5-9.4,0.6-14.2c4.4,0,8.9,0,13.3,0c2,0,3.8,0.4,5.3,1.7
		c-0.6,0.5-0.6,1.2-0.6,1.8c0.7,8.2-1.4,16.1-2.5,24c-0.7,5.5-2.9,10.7-4.5,16.1c-5.1,0.1-10.1,0.2-15.2,0.2
		C336,179.4,331.9,179.9,327.9,178.2z"/>
	<path class="st39" d="M404.2,243c-0.2,1.7-1.3,2.8-2.4,3.9c-10.2,10.2-20.3,20.5-30.7,30.6c-3.5,3.4-5.8,7.5-8,11.6
		c-1.4,2.6-3.3,4.6-5.1,6.8c-1,1.1-1.8,2.3-2.1,3.7c-0.7,4.3-3.4,7.2-6.5,9.9c-0.3-0.3-0.5-0.7-0.4-1.1c0.1-0.5,0.3-1,0.6-1.4
		c0.7-0.7,1.2-1.6,1.6-2.5c0.1-0.2,0.2-0.4,0.4-0.6c0.6-0.7,0.6-1.6,0.8-2.5c4.6-7.7,9-15.5,13.8-23.2c4-6.5,8.1-12.9,11.5-19.8
		c1.1-2.2,2.5-4.3,3.8-6.5c0.8-1.3,1.3-2.8,0.8-4.1c-1.1-3.1-1.3-6.5-3.1-9.3c-1.2-2-0.9-3.6,0.8-5.1c2.5-2.3,4.7-4.9,7.3-7.1
		C393.2,231.5,398.8,237.1,404.2,243z"/>
	<path class="st39" d="M348.9,187.1c-0.1-1.2,0.4-1.6,1.6-1.8c3.9-0.8,7.8-0.5,11.8-0.5c0.1,0.2,0.2,0.3,0.2,0.5
		c0.3,4.1,0.3,4.1,4.8,4.1c0.7,0,1.4,0.1,2,0c2.6-0.3,4.3,0.3,3.2,3.4c-0.4,1.4,0.4,1.8,1.5,1.8c1.8,0.1,3.7,0,5.5,0
		c4,0,4,0,2.5,3.5c-6.4,0.8-12.5-1.3-18.9-1.2c-1.2,0-2.6-0.3-3.3,1.2c-1.3,0.3-1.9-0.7-2.6-1.4c-2.4-2.3-4.7-4.6-7-6.9
		C349.7,188.9,348.5,188.4,348.9,187.1z"/>
	<path class="st2" d="M382.1,198.1c3.6,0,7.1,0,10.7,0c2,0,3.3,0.5,2.2,2.9c-0.7,1.4,0.2,2.2,1.3,2.3c2.9,0.1,5.8,0.7,8.6-0.5
		c1.7,2.9,3.3,5.9,5,8.8c0.7,1.2,0.6,1.7-0.9,1.7c-5.4,0-10.8,0-16.2,0c-1.9,0-2.7-0.7-1.9-2.7c0.4-1,1-1.9,1.5-2.8
		c1.3-2.6,0.4-4.3-2.5-4.4c-1.9,0-3.9,0-5.8,0c-1.8,0-3.1-0.4-1.8-2.5C382.6,199.9,381.8,199,382.1,198.1z"/>
	<path class="st40" d="M373.9,212.7c3.7,3.5,7.8,6.6,10.5,11.1c-1.8,4.8-4.5,9-8.3,12.5c-1.8-0.7-1.8-2.7-2.6-4
		c-2.6-3.8-3.7-8.2-5.7-12.3c-1.5-3-0.8-4.3,2.4-5.2C371.6,214.4,372.4,212.9,373.9,212.7z"/>
	<path class="st41" d="M376.2,236c2.7-4.1,5.4-8.2,8.2-12.2c1,0.8,1.9,1.6,2.9,2.3c-1.4,3.3-4.4,5.1-6.7,7.5
		c-1.4,1.5-2.1,2.6-0.8,4.4c2.1,2.8,2.1,6.3,3.3,9.5c1.3,3.4-1.6,6.1-3.1,8.7c-2.5,4.1-4.4,8.5-7.1,12.4c-2.6,3.8-4.9,7.7-7.3,11.6
		c-2.9,4.8-5.6,9.7-8.5,14.5c-1.4,2.4-2.8,4.8-4.2,7.2c-0.4,0.7-0.5,1.7-1.2,2.3c-0.8,0.9-1.2,1.9-1.7,2.9c-0.2,0.4-0.4,0.8-0.6,1.2
		c-0.7,0.9-1,2-1.7,2.9c-0.4,0.6-0.8,1.2-1.2,1.7c-0.8,0.7-0.5,2.8-2.5,2.2c-0.2-3.2,2-5.4,3.4-7.8c4.6-7.8,8.9-15.8,13.7-23.5
		c4.8-7.8,9-16,13.9-23.8c1.8-2.8,3.2-5.8,4.9-8.6c1.2-1.9,1.1-3.9,0.3-5.8c-0.9-2.2-1.9-4.4-3.1-6.5
		C376.4,238.2,375.7,237.3,376.2,236z"/>
	<path class="st42" d="M376.2,236c1.4,2.8,2.9,5.6,4.2,8.5c1.1,2.4,2.1,4.9-0.1,7.3c-0.1-0.1-0.3-0.3-0.3-0.5c0.6-6-3.2-10.3-6-15
		c-4.9-9-9.7-18-14-27.4c-1-2.1-0.9-4.4-1-6.6c0-1.3,0.8-2.1,2.1-2.5c4.5,4,8.8,8.3,12.8,12.8c-1.1,1.6-2.3,2.9-4.6,3
		c-3.3,0.2-1.4,3.1-1,4c2.3,5.4,4.9,10.7,7.5,16C375.9,235.8,376.1,235.9,376.2,236z"/>
	<path class="st43" d="M361.1,199.9c-2.6,2.8-1.6,6.2-0.3,8.8c2.4,4.9,4.1,10.1,7,14.7c2.5,4.1,4.5,8.4,6.8,12.7
		c0.5,0.8,0.7,1.5,0,2.3c-3.7-6-7.3-12.2-10.6-18.4c-0.5-1.1-0.9-2.2-1.7-3.1l0,0c-2.2-5.2-5.1-9.9-7.4-15c-1.5-3.2-2.9-6.5-4.4-9.8
		c-0.4-0.9-0.7-1.8,0.2-2.7c3.1,2.9,6.2,5.8,9.3,8.7C360.3,198.7,360.7,199.3,361.1,199.9z"/>
	<path class="st8" d="M155.6,422.2c-1.7,0-4.1-1.1-5,0.7c-0.8,1.6-1.2,1-2,0.5c-1.9-1.2-3.8-2.1-6.1-2.3
		c-8.7-0.8-17.3,7.2-15.9,18.2c1.2,9.8,13.8,18,23.6,9.7c0.5,4.3,0.2,8-3.2,10.6c-4,3-8.8,2.1-12.6-2.1c-1.3-1.5-4-1.5-5.7,0.2
		c-1.5,1.6,0.1,2.7,0.9,3.7c4.1,4.9,9.4,6.6,15.6,5.3c8-1.7,11-6.7,11.3-15.9c0.3-8.6,0.1-17.3,0-25.9
		C156.6,423.9,157.3,422.3,155.6,422.2z M142.2,446.8c-5.2,0-9.3-4.4-9.3-10.1c0-5.7,3.8-9.4,9.1-9.8c5-0.4,9,5.3,8.8,9.9
		C150.8,442.3,147,446.8,142.2,446.8z"/>
	<path class="st8" d="M364.6,409c-2.2-1.1-4.7,0.2-4.7,2.6c0,1.1,0,2.1,0,3.2c0,3.7-0.1,7.4,0.5,11.3c-10.3-6-16.5-5.8-21,0.2
		c-5.1,6.8-4.7,16.9,0.9,22.3c5.7,5.5,12,5.2,19.6-0.9c0.7,0.6,0.6,1.3,0.5,1.8c-0.4,2.3,1.2,2,2.6,2.2c1.9,0.1,2.2-0.6,2.2-2.3
		c-0.1-12.8,0-25.6-0.1-38.4C365.2,410.3,365.5,409.4,364.6,409z M350.6,447.4c-5.2,0.1-9.4-4.6-9.2-10.2c0.2-6.8,3.7-10.4,9.1-10.5
		c5.3-0.2,9.1,4.3,9.1,10.5C359.7,443.5,355.6,447.3,350.6,447.4z"/>
	<path class="st8" d="M108,421.1c-10.6-0.5-17.1,7.1-16.8,15.8c0.2,9.2,5.8,15.1,15.8,15.7c8.8,0,16-7,16-15.7
		C122.9,428.4,116.2,421.5,108,421.1z M106.9,446.2c-4.7,0-8.8-4.4-8.8-9.3c0.1-5.1,4.3-9.7,8.9-9.6c4.7,0.1,8.8,4.6,8.7,9.7
		C115.7,442.1,111.8,446.2,106.9,446.2z"/>
	<path class="st8" d="M72.6,421.1c-10.6-0.5-17.1,7.1-16.8,15.8c0.2,9.2,5.8,15.1,15.8,15.7c8.8,0,16-7,16-15.7
		C87.5,428.4,80.7,421.5,72.6,421.1z M71.5,446.2c-4.7,0-8.8-4.4-8.8-9.3c0.1-5.1,4.3-9.7,8.9-9.6c4.7,0.1,8.8,4.6,8.7,9.7
		C80.3,442.1,76.3,446.2,71.5,446.2z"/>
	<path class="st44" d="M208.4,213.9c-1.9-5.9-6.1-10.5-9.9-15.2c0.8-3,2.9-5.2,4.3-7.8c0.7-1.4,1.6-0.1,1.9,0.5
		c0.7,2,2.3,3.6,3.1,5.5c0.8,1.9,2,3.1,3.8,4.1c2.1,1.1,2.9,3.5,4.1,5.4c2.3,3.6,4.3,7.3,6.5,11c0.4,0.7,0.8,1.7,1.7,1.9
		c4.8,1.1,5.7,5.6,7.8,9c-1.1,2-1.7,4.3-3.5,5.9c-1.3-0.4-2.1-1.4-2.9-2.3c-5-5-10.1-10-14.9-15.2
		C209.5,216,208.2,215.5,208.4,213.9z"/>
	<path class="st8" d="M196.8,443c-1.1-0.8-1.5,0.5-2.1,1c-4.6,4.1-9.4,4-13.5-0.5c-1.1-1.1-1.5-1.9,0.4-2.7
		c5.8-2.3,11.6-4.9,17.4-7.2c1.8-0.7,2.2-1.4,1.5-3.2c-2.3-5.9-7-9.2-13.5-9.2c-1,0.1-2.1,0-3.3,0.3c-6.9,1.6-12.4,8-10.9,18.1
		c0.9,6.2,4.4,10.4,10.5,12.2c6.4,1.9,12,0.2,16.7-4.5c0.4-0.4,1.1-0.8,0.8-1.4C199.9,444.4,198.1,443.9,196.8,443z M179.1,434.7
		c0-3,2.7-6.2,5.9-7.5c3-1.1,5.8-0.5,7.7,1.5c1,1.1,1.4,1.8-0.4,2.5c-3.7,1.5-7.2,3.1-10.9,4.6C180,436.4,178.7,436.6,179.1,434.7z"
		/>
	<path class="st8" d="M408.8,420.6c-0.4-6.8-6-11.7-12.7-11.7c-4.4,0-8.7,0.1-13.1,0c-1.8-0.1-2.3,0.6-2.2,2.3
		c0.1,6.3,0,12.6,0,18.9c0,6.5,0.1,13-0.1,19.5c-0.1,2.3,1.2,2.2,2.7,2.1c1.5,0,2.8,0.2,2.7-2.1c-0.2-4.2,0.1-8.3-0.1-12.5
		c-0.1-2.5,0.8-3.1,3.1-3c3,0.1,6,0.1,8.9-0.4C405.6,432.4,409.1,426.2,408.8,420.6z M395.6,429.3c-2.5,0.1-5,0-7.6,0
		c-1.5,0.1-2.1-0.6-2-2.1c0.1-2,0-4.1,0-6.6c0.3-2.1-1.2-6,0.6-7c2.7-1.5,6.6-0.8,9.9-0.3c4,0.6,6.8,3.7,7,7
		C403.9,425.2,400.5,429,395.6,429.3z"/>
	<path class="st8" d="M449.7,449c0-4.6,0-9.1,0-13.7c0-8.9-3.6-13.1-12.4-13.8c-3.9-0.3-7.7,0.6-10.5,3.7c-2.2,2.4-1.7,3.4,1.4,4.4
		c1.7,0.6,2.2-0.9,3-1.7c4.4-3.9,11.8-2,13.5,3.6c0.3,0.8,0.5,1.8-0.1,2.5c-0.6,0.6-1.2-0.1-1.8-0.3c-3.3-0.9-6.6-1.3-10-0.6
		c-5.4,1.1-9.5,5-9,10.8c0.7,8.3,11.2,10.7,16.8,7c1.4-0.9,2.5-2.1,4.1-3.5c0.1,0.9,0.2,1.3,0.2,1.6c-0.4,2.3,0.6,2.7,2.7,2.7
		C450,451.8,449.8,450.6,449.7,449z M443.1,442.9c-1.8,2.8-4.4,4.2-7.8,4.5c-2.8,0-5.2-1.6-5.6-3.8c-0.4-2.3,1.1-4.3,4.1-5.6
		c2.4-1,4.9-0.7,7.3-0.2C444.4,438.6,444.9,440.1,443.1,442.9z"/>
	<path class="st8" d="M285,421.4c-7.9-0.2-15.1,5.2-14.9,15.6c-0.6,7.8,5.5,15.7,14.7,15.5c9.7-0.2,15.2-6.3,15.2-15.7
		C300,427.5,294.5,421.6,285,421.4z M285,447.4c-5.3-0.3-9.4-3.9-9.4-10.6c0-5.8,3.9-10.1,9.2-10.2c5.3-0.1,9.8,4.8,9.7,10.5
		C294.5,442.7,290.1,447.7,285,447.4z"/>
	<path class="st23" d="M524.3,437.1c0.4-10.1-6.6-15.8-14.8-15.7c-9.8,0.2-15.1,6.4-15,15.7c0,9.5,5.8,15.3,15.1,15.5
		C518.3,452.7,524.9,445.7,524.3,437.1z M509.6,448.1c-5.9-0.3-10.6-4.9-10-11.2c0-6.5,4-10.9,9.8-10.9c6,0,10.1,4.6,10.1,11.3
		C519.5,443.2,514.9,448.4,509.6,448.1z"/>
	<path class="st45" d="M350.6,189.4c0.7,4.1,2.8,7.7,4.6,11.4c2.3,4.7,4.2,9.7,7.2,14.1c0.5,0.7-0.2,1.3-0.1,1.9
		c-3.1-4.5-5.6-9.3-8.2-14c-0.9-3.5-3.1-6.3-4.5-9.5c-0.8-1.8-1.9-3.6-2.9-5.3c-0.5-0.8-1-1.7-0.1-2.6c0.8,0.6,1.6,1.2,2.3,1.8
		C349.4,187.8,350,188.6,350.6,189.4z"/>
	<path class="st46" d="M346.5,185.3c-0.1,0.9,0.4,1.6,0.8,2.4c2.3,4.2,4.5,8.5,6.6,12.8c0.3,0.6,1.2,1.5,0.1,2.3
		c-4.3-7.4-8.5-14.7-12.8-22.1c-0.1-0.2-0.4-0.4-0.5-0.6c-0.1-0.1-0.2-0.3-0.1-0.4c0-0.1,0.1-0.2,0.1-0.2c0.8-1,2-0.5,3-0.6
		c-1.4,0.9-1.5,1.8-0.2,2.9c0.9,0.7,1.7,1.5,2.5,2.3C346.1,184.5,346.3,184.9,346.5,185.3z"/>
	<path class="st47" d="M313.9,359c-0.1,0.4-0.1,0.7-0.2,1.1c-10.2,0-20.3,0-30.5,0c0-0.2,0-0.3,0-0.5c3.8,0,7.6,0,11.5,0
		c2.2-0.6,4.4-0.2,6.6-0.3c1.2,0,2.3,0,3.3-0.7c0.3-0.1,0.7-0.2,1-0.3C308.4,358.2,311.2,357.4,313.9,359L313.9,359z"/>
	<path class="st48" d="M305.2,358.9c-3.4,1.3-7,0.3-10.5,0.6c0-0.2,0-0.4,0-0.6c2.9,0,5.8,0,8.7,0
		C304,358.5,304.6,358.4,305.2,358.9z"/>
	<path class="st49" d="M340.7,179.5c0,0.2,0,0.4,0,0.6c-1.2,1.4-2.4-0.2-3.7-0.2c-6.2,0.3-12.4,0.1-18.6,0.1c-18,0-36.1,0-54.1-0.1
		c-2.4,0-3.9,0.5-4.9,2.9c-1,2.4-2.6,4.5-3.9,6.8c-0.3,0.4-0.6,0.8-1.1,0.2c1.9-3.4,3.8-6.9,5.7-10.4c0.7-1.3,1.8-1.2,3-1.2
		c6.3,0,12.5-0.1,18.8-0.1c15.3,0,30.7,0,46,0c4.1,0.1,8.1,0.2,12.2,0.3C340.3,178.9,340.5,179.2,340.7,179.5z"/>
	<path class="st50" d="M375,238.1c-3.4-6.1-6.9-12.2-10.5-18.3c-0.7-1-1.4-1.9-1.8-3c-0.1-0.2-0.2-0.5-0.4-0.7
		c-2.7-4.5-5.3-9.1-7.9-13.7c-4.1-6.9-7.9-14.1-12.2-20.9c-0.5-0.8-0.8-1.8-2.1-1.6c-1.5-0.7-3.2-0.7-4.8-0.7c-7,0-13.9,0-20.9,0
		c-16.5,0-32.9,0.1-49.4,0c-3.2,0-5.3,0.8-6.7,3.9c-1,2.2-2.3,4.2-3.8,6.1c-2.6,2.3-4,5.4-5.2,8.6c-1.7,3.6-3.6,7.1-5.9,10.4
		c-1.5,2.7-2.7,5.6-4.7,7.9c-2.3,4.1-4,8.5-7,12.2c-1.2,0-1.4,1.1-1.8,1.9c-0.6,1.3-1.3,2.5-2.2,3.6c-1.3,2.4-2.3,4.9-3.8,7.1
		c-0.5,0.8-0.8,1.6-1.2,2.4c-0.2,0.4-0.5,0.8-0.8,1.2c-0.5,0.5-0.4,1.1-0.5,1.7c0.1,0.5,0.2,1,0.4,1.5c-0.1,0.6,0.2,1.1,0.4,1.6
		c9.3,16.1,18.6,32.2,27.8,48.4c3.1,5.5,6.7,10.7,9.3,16.4c0.6,1.2,1.5,1.8,2.9,1.9c17.8,0.1,35.6,0,53.4,0c5.7,0,11.5,0,17.2,0
		c2,0,4.1,0.2,6.1-0.2c1.8-0.6,2.6-2.2,3.5-3.8c9-15.6,18-31.2,26.9-46.8c3.4-6.1,7.4-11.8,10.3-18.2
		C378.9,243.6,376.5,241.1,375,238.1z M328.9,265.7c-3.3,5.6-7.9,9.5-13.1,12.8c-3.3,2-7.2,3.5-11.2,3.5c-4.2,0-8.5,0.5-12.7-0.5
		c-8.9-2.2-16-6.8-20.7-14.8c-1.9-3.1-3.6-6.2-4.7-9.8c-1.4-4.7-1.9-9.2-0.9-14c1.1-5.7,2.8-11.2,5.8-16.2
		c5.6-8.3,13.5-13.2,23.2-14.4c14.6-1.8,26.5,3.4,34.5,16.1c0,0.5,0.1,0.9,0.6,1.1c0.5,0.9,1.4,1.7,1.2,2.9
		C335.5,243.9,335.2,254.8,328.9,265.7z"/>
	<path class="st51" d="M339.4,315.2c4.7-7,8.6-14.5,12.8-21.7c9-15.5,17.9-31,26.9-46.5c2,0.4,1.2,1.8,0.9,2.9c-1,3.3-3,6.1-4.6,9
		c-6.6,11.7-13.4,23.3-20.2,35c-3.7,6.3-7.4,12.5-10.9,18.8c-1,1.8-2,4.5-5.1,4C338.4,316.1,339,315.7,339.4,315.2z"/>
	<path class="st52" d="M339,316.4c3.1-0.1,4-2.9,5.1-4.9c3.3-5.8,6.8-11.6,10.1-17.4c4.2-7.3,8.7-14.5,12.7-22
		c3.4-6.3,7.2-12.3,10.6-18.6c1-1.9,3.4-3.8,1.6-6.5c-1-3.2-3.4-5.6-4.6-8.7c0-0.8,0-1.5,0-2.3c3.1,4.8,7.3,9.2,5.8,15.7
		c-2.5,5.9-6.3,10.9-9.3,16.5c-2.8,5.2-6,10.3-9,15.4c-4.8,8.1-9.7,16.2-14.3,24.4c-1.3,2.3-3,4.5-3.6,7.2c-1.3,2.8-3.5,3.9-6.5,3.6
		C337.1,317.5,337.8,316.8,339,316.4z"/>
	<path class="st28" d="M210.8,216.2c5.8,6,11.6,12,17.5,18c-1.1,2.5-2.1,5-3.9,7.1c-1.8,0.3-2.4-1.1-2.8-2.3c-1.3-3.3-4-5.9-4.6-9.6
		c-0.1-0.4-0.3-0.8-0.6-1c-3.1-2.6-3.2-6.9-5.5-9.9C210.3,217.9,210,217,210.8,216.2z"/>
	<path class="st53" d="M329.1,228.4c-2.8-3-5.2-6.4-8.5-8.9c-14.6-11.2-36.7-8.6-47.9,6.1c-0.3,0.4-0.9,0.7-1.3,1.1
		c2.6-5.7,7.6-8.8,12.7-11.7c4.7-2.7,9.8-3.2,15-3.8c9.8-1.1,25.4,7.4,29.7,16.2C328.9,227.7,329,228.1,329.1,228.4z"/>
	<path class="st54" d="M200.3,205.7c2.5,1.6,3.8,4.3,5.8,6.4c0.6,0.6,1,1.4,1.8,1.8c3,4.5,4.7,9.8,7.6,14.4
		c2.6,4.1,4.7,8.6,7.1,12.9c0.4,0.7,0.7,1.6,0.5,2.5c0,0.5-0.2,0.8-0.7,1c-4.4-7.5-8.7-15-13-22.6
		C206.3,216.6,203.3,211.1,200.3,205.7z"/>
	<path class="st55" d="M223,243.6c-3.9-6.9-8.1-13.5-11.4-20.7c-1.4-2.9-4-5.5-3.8-9.1c0.2,0,0.4,0,0.6,0c0.6,1,1.3,1.8,2.3,2.3
		c-0.1,2.3,2.3,3.5,2.6,5.7c0.3,2.9,3,4.4,3.9,6.9c1.2,3.4,3.3,6.2,4.6,9.5c0.5,1.3,1.1,2.5,2.5,3.1C224,242.2,223.7,243,223,243.6z
		"/>
	<path class="st56" d="M262.6,316.4c-0.4-0.4-0.8-0.7-1.1-1.1c18.1,0,36.1,0,54.2,0c0.1,0.4,0,0.7-0.3,0.9c-1.4,0.6-2.8,0.3-4.2,0.4
		c-15.8,0-31.6,0-47.4,0C263.3,316.7,262.9,316.6,262.6,316.4z"/>
	<path class="st57" d="M311.6,315.8c1.4,0,2.7,0,4.1,0c4.4-0.6,8.8-0.1,13.2-0.3c1.4-0.1,2.9,0.2,4.3-0.2c2.1,0,4.2-0.1,6.3-0.1
		c-0.1,0.4-0.3,0.8-0.4,1.2c-0.4,0.8-1.2,1.4-1.3,2.3c-0.3,0.2-0.6,0.2-1,0c-5.6-1.4-11.3-1.1-16.9-1.5c-2.7-0.2-5.4,0.5-8-0.5
		C311.5,316.5,311.4,316.2,311.6,315.8z"/>
	<path class="st58" d="M333.1,315.3c-2.6,1.1-5.3,0.3-7.9,0.5c-3.2,0.1-6.3,0-9.5,0c0-0.2,0-0.3,0-0.5
		C321.5,315.3,327.3,315.3,333.1,315.3z"/>
	<path class="st45" d="M362.2,216.8c1.3,0.6,1.7,1.8,1.7,3.1C363.1,219,362.5,218,362.2,216.8z"/>
	<path class="st53" d="M330.8,232.5c-0.4-1-0.8-1.9-1.2-2.9C330.6,230.3,331.7,231,330.8,232.5z"/>
	<path class="st54" d="M198,203.4c1.7-0.1,2.4,0.7,2.3,2.3C199.3,205.1,198.5,204.4,198,203.4z"/>
	<path class="st19" d="M305.2,358.9c-0.6,0-1.2,0-1.8,0c-2.3-2.8-0.4-5.6,0.1-8.3c0.8-4.6,0.3-8.8-2.6-12.7c-0.5-0.7-0.7-1.6-1-2.4
		c1.9,0.4,3.6-0.4,5.2-1.2c1.2-0.2,2.1,0.6,2.3,1.4c0.9,3,2.9,5.6,2.6,8.9C309.6,349.9,308.6,354.8,305.2,358.9z"/>
	<path class="st48" d="M305.2,358.9c0.1-0.8-0.1-1.8,0.4-2.2c3.4-3.7,3.1-8.6,3.9-13.1c0.2-1,0.2-1.7-0.7-2.2
		c-0.6-0.4-1.2-1.1-1-1.7c0.7-2.5-0.9-3.9-2.5-5.3c-0.9-1.2-1.5-2.6-1.7-4.1c1.2-1,2.6-1.6,3.5-2.9c0.6-0.2,1.2-0.4,1.7-0.6
		c2.6,0.6,4.6,2.6,7.1,3.7c0.9,0.4,1,1.3,1.1,2.2c-0.2,1.8,0.5,3.4,0.8,5.1c0.4,2.7,0.5,5.2-0.4,7.9c-1.5,4.2-3.2,8.5-3.3,13.1
		C311,358.9,308.1,358.9,305.2,358.9z"/>
	<path class="st59" d="M326.7,323.4c-1.2,2-3.1,0.9-4.7,1.2c-2.2,0.2-4.4-0.2-6.4-1.2c-2-1.7-4.4-1.8-6.8-2.5
		c-4.7-1.4-9.5-0.3-14.2-1.4c-4.2-1-8.4-0.7-12.7-0.7c-5.7,0-11.4,0-17.1,0c-0.2-0.2-0.4-0.4-0.6-0.6c1-1,2.3-0.8,3.6-0.8
		c10.4,0,20.9-0.2,31.3,0.1c7.5,0.2,15,1.2,22.5,1.8c1.1,0.1,2.1,0.5,3,0.9C326,320.9,327.4,321.5,326.7,323.4z"/>
	<path class="st60" d="M315.6,323.4c2.2,0.1,4.5-0.4,6.4,1.2c0.6,2.5-0.3,5.2,1.2,7.6c-2,1.2-4.3-0.2-6.4,0.6
		c-1.5-1.9-3.7-2.7-5.7-4c-0.9-0.6-2-0.7-2.5-1.8C311,325.7,313.3,324.6,315.6,323.4z"/>
	<path class="st61" d="M325,321.1c-3.4-1.8-7.2-1.2-10.8-1.7c-16.6-2-33.2-1.1-49.8-1.2c-0.8-0.4-1.4-1-1.8-1.7c0.2,0,0.4,0,0.6,0
		c0.3-0.2,0.7-0.2,1.1-0.1c12.3,0.2,24.6-0.1,36.9,0.1c7.3,0.1,14.7,0.4,21.9,1.6c0.9,0.3,1.7,0.8,2.5,1.4
		C326.9,320.4,325.7,320.7,325,321.1z"/>
	<path class="st62" d="M325,321.1c0.1-0.4,1.6-1.1-0.2-1.2c-0.7,0-0.9-0.5-0.9-1.1c1.2-1.2,2.7-0.8,4.1-0.8c2.8,0,5.4,1,8,2
		c0.1,0.1,0.2,0.3,0.2,0.4c-0.2,0.8-0.5,1.5-0.7,2.3c-1.5,1-1.5,3.1-2.9,4.2c-1.5-1.9-4.1-1.9-5.8-3.5
		C326.7,322.2,325.9,321.6,325,321.1z"/>
	<path class="st63" d="M337.2,318.8c0.2,0,0.3,0,0.5,0c2.6-0.4,4.6-1.7,6.5-3.5c0.8-0.8,1.6-1.6,2.3-2.3c-0.9,4.5-4.6,7.2-10.4,7.5
		c0,0-0.2,0-0.2,0c-0.2-0.4,0-0.6,0.2-0.9C336.5,319.3,336.8,318.9,337.2,318.8z"/>
	<path class="st63" d="M347.7,311.2c0.2-1.2,0.6-2.3,1.7-2.9c0,0.4,0,0.8,0,1.2C348.9,310,348.3,310.6,347.7,311.2z"/>
	<path class="st63" d="M350,307.1c-0.1-1.4,0.6-2.3,1.7-2.9C351.6,305.4,351.2,306.5,350,307.1z"/>
	<path class="st63" d="M351.8,304.2c0.1-0.9,0.4-1.7,1.2-2.3C353,302.8,352.8,303.7,351.8,304.2z"/>
	<path class="st58" d="M263.8,316.4c-0.2,0-0.4,0-0.6,0c0.9-1,2-0.6,3-0.6c15.1,0,30.2,0,45.3,0c0,0.2,0,0.4,0,0.6
		c-0.8,0.8-1.8,0.5-2.7,0.6c-14.4-0.6-28.7-0.2-43.1-0.3C265.1,316.7,264.4,316.8,263.8,316.4z"/>
	<path class="st64" d="M309.2,316.4c0.8,0,1.6,0,2.3,0c8-0.1,16,0.1,24,1.1c0.8,0.1,1.6,0.2,1.6,1.2c0,0.4-0.1,0.9-0.6,1
		c-6.1-1.5-12.4-1.8-18.7-2.2c-2.5-0.2-5-0.5-7.5-0.4C309.8,317.3,309.2,317.3,309.2,316.4z"/>
	<path class="st56" d="M309.2,316.4c0.9,0.9,2,0.6,3,0.6c7.8-0.4,15.5,1,23.2,1.8c0.7,0.1,1.1,0.3,1.2,1c-0.2,0.2-0.4,0.5-0.6,0.7
		c-4-1.2-8-2.2-12.2-1.8c-19.4-2.4-39-1.7-58.5-1.8c-0.6,0-1.2-0.1-1.6-0.6C278.9,316.4,294.1,316.4,309.2,316.4z"/>
</g>
</svg>
