<?xml version="1.0" encoding="utf-8"?>
<!-- Generator: Adobe Illustrator 21.1.0, SVG Export Plug-In . SVG Version: 6.00 Build 0)  -->
<svg version="1.1" id="Layer_1" xmlns="http://www.w3.org/2000/svg" xmlns:xlink="http://www.w3.org/1999/xlink" x="0px" y="0px"
	 viewBox="0 0 600 600" style="enable-background:new 0 0 600 600;" xml:space="preserve">
<style type="text/css">
	.st0{fill:#6C88B7;}
	.st1{fill:#6C88B7;stroke:#FFFFFF;stroke-miterlimit:10;}
	.st2{fill:#6C88B7;stroke:#6C88B7;stroke-miterlimit:10;}
</style>
<g>
	<path class="st0" d="M238.3,407.9c5.3-0.4,10,1.5,14.2,5.1c1.2,1.1,1.1,1.9-0.1,2.7c-0.9,0.6-1.1,2.7-3.2,0.8
		c-5.2-4.7-11.5-5.4-17.8-2.7c-5.9,2.5-9.2,7.2-10.1,13.7c-1.9,13.9,11.2,24.2,24,18.8c1.9-0.8,3.6-1.9,5-3.3
		c2.1-2.1,2.8,0.3,3.9,1.1c1.5,1.1,0.5,2-0.5,2.7c-13.2,11.1-34.5,5.7-37.5-13.2C214,420.1,223.8,407.3,238.3,407.9z"/>
	<path class="st0" d="M325.5,447.5c-5.7,6.2-13.2,6.7-18,1.6c-2.3-2.4-2.6-5.6-2.7-8.6c-0.2-5.1,0-10.3-0.1-15.4
		c0-1.9,0.5-2.6,2.4-2.5c1.9,0,2.5,0.5,2.5,2.5c0.1,5.6-0.5,11.2,0.4,16.8c0.4,2.7,1.7,4.7,4.3,5.6c2.8,0.9,5.5,0.8,7.8-1.4
		c2.3-2.1,3.4-4.6,3.4-7.7c0-4.6,0.1-9.1,0-13.7c-0.1-2,1-2.1,2.5-2.1c1.6,0,2.5,0.3,2.5,2.2c-0.1,8.1-0.1,16.1,0,24.2
		c0,1.8-0.1,2.8-2.4,2.8c-2.1,0-2.8-0.7-2.5-2.7C325.7,448.7,325.6,448.3,325.5,447.5z"/>
	<path class="st0" d="M161.8,428.3c0-7,0.1-14,0-20.9c0-1.8,0.5-2.5,2.3-2.3c0.7,0.1,1.4,0.1,2,0c2.2-0.3,2.6,0.7,2.5,2.7
		c-0.1,12,0,24.1,0,36.1c0,1.9-0.1,3.9,0,5.8c0.1,1.7-0.6,2.3-2.2,2.1c-0.1,0-0.2,0-0.3,0c-4.4,0.1-4.4,0.1-4.4-4.2
		C161.8,441.1,161.8,434.7,161.8,428.3z"/>
	<path class="st0" d="M484.5,439.4c0,3.4-0.1,6.8,0,10.2c0.1,2.1-1,2.1-2.5,2.1c-1.6,0-2.5-0.2-2.5-2.2c0.1-6.4-0.1-12.8,0.1-19.2
		c0.1-2.6-0.6-3.8-3.3-3.3c-1.9,0.3-2.6-0.5-2.5-2.4c0.1-1.5,0.6-2.2,2.1-2c3.5,0.6,3.9-1.1,3.8-4.1c-0.3-7.8,5.6-10.6,11.8-10.1
		c0.8,0.1,2.5-0.2,2,1.5c-0.4,1.3,0.1,3.6-2.8,3c-1.9-0.4-3.9,0.3-5.1,2.1c-1.3,2.1-1.5,4.4-1,6.7c0.2,0.8,0.9,0.9,1.7,0.9
		c1.3,0,2.5,0.1,3.8,0c1.6-0.1,2.5,0.1,2.5,2.1c0,2.1-0.9,2.3-2.7,2.3c-5.5,0-5.5,0-5.5,5.7C484.5,435,484.5,437.2,484.5,439.4z"/>
	<path class="st0" d="M467.9,452.2c-6.2,0-9.6-3.3-9.7-9.3c-0.1-4.4-0.1-8.7,0-13.1c0.1-2.1-0.5-3.1-2.7-2.8
		c-1.7,0.3-2.6-0.2-2.6-2.3c0-2,1-2.3,2.5-2.1c2.5,0.4,3-0.8,2.8-3c-0.1-1.2,0.1-2.4-0.1-3.5c-0.5-2.8,0.8-3.3,3.2-3.1
		c1.3,0.1,1.7,0.6,1.6,1.8c-0.1,1.7,0.1,3.5,0,5.2c-0.1,1.9,0.7,2.7,2.6,2.5c0.9-0.1,1.7,0,2.6,0c1.6-0.1,2.5,0.1,2.5,2.1
		c0,1.8-0.6,2.3-2.4,2.3c-5.3,0-5.4,0.1-5.3,5.6c0.1,3.8-0.3,7.5,0.4,11.3c0.5,2.6,2.1,3.9,4.1,3.5c3.3-0.6,3.7,1.9,3.7,3.4
		C471.3,452.4,469.1,452,467.9,452.2z"/>
	<path class="st0" d="M413.1,430c0-6.3,0.1-12.6-0.1-18.9c-0.1-2.6,1.4-2.2,2.9-2.3c1.8-0.1,2.5,0.3,2.5,2.4
		c-0.1,12.7-0.1,25.4,0,38.1c0,2.3-0.9,2.4-2.7,2.4c-1.9,0-2.8-0.3-2.7-2.5C413.2,442.8,413.1,436.4,413.1,430z"/>
	<path class="st0" d="M541.1,421.9c1-0.1,1.9-0.2,2.9-0.2c1.1,0.1,3-0.5,2.9,1.3c-0.1,1.5-0.4,3.7-3,3.5c-5.3-0.5-9.6,4.2-9.2,9.7
		c0.3,4.5,0,9.1,0.1,13.6c0.1,2.1-1.2,1.9-2.4,1.8c-1.1-0.1-2.9,0.9-2.9-1.5c0-8.7,0-17.4,0-26.1c0-0.6,0.2-1.1,0.7-1.5
		c0.5,0,1,0.2,1.4,0.1c2.2-0.4,3,0.6,2.7,2.7c-0.1,0.5-0.3,1.2,0.9,1.8C536,424.1,538.7,423.2,541.1,421.9z"/>
	<path class="st0" d="M260.1,430.2c0-6.4,0.1-12.8,0-19.2c0-2,0.8-2.2,2.4-2.1c1.5,0,2.5,0,2.5,2.1c-0.1,12.9-0.1,25.8,0,38.7
		c0,2-0.9,2.2-2.4,2.1c-1.5,0-2.5,0-2.5-2.1C260.2,443.1,260.1,436.6,260.1,430.2z"/>
	<path class="st0" d="M595.3,428.9c0.6,7.1,0.1,14.1,0.3,21.2c0.1,2.2-1.5,1.5-2.6,1.6c-1.4,0.1-2.4,0-2.3-1.9
		c0.1-5.2,0.1-10.5,0-15.7c0-1,0.3-2.2-0.6-3c-0.1-2.6-1.6-4-3.9-4.7c-3.1-0.9-5.8-0.2-7.8,2.3c-1.5,1.8-2.4,3.9-2.3,6.4
		c0.1,4.9-0.1,9.7,0.1,14.6c0.1,2.3-1.1,2.2-2.7,2.2c-1.4,0-2.8,0.3-2.7-2.1c0.2-5,0.1-10.1,0.1-15.1c0-5.6-2-8.4-6.1-8.4
		c-4.6-0.1-8.4,3.8-8.5,8.8c-0.1,4.9-0.1,9.7,0,14.6c0.1,2-0.7,2.4-2.5,2.4c-2,0-2.5-0.6-2.4-2.5c0.1-7.9,0-15.7,0.1-23.6
		c0-1.2-0.8-3,1.8-3.1c2.4-0.1,2.8,1,2.6,2.9c0,0.2,0.2,0.5,0.5,1c2.2-2.5,4.6-4.5,7.9-4.9c3.8-0.4,7.2,0.2,9.5,3.4
		c1.2,1.7,1.6,1.5,3,0c4.1-4.3,12.4-5.3,16.8-0.2c1.1,1,1.5,2.3,1.8,3.7l-0.1,0.2L595.3,428.9z"/>
	<path class="st0" d="M595.2,428.5c-0.6-1.2-1.2-2.5-1.8-3.7C595.1,425.5,595.3,427,595.2,428.5z"/>
	<path class="st0" d="M50.5,441.5c-3.3,5.3-7.9,8.9-14,10.5c-3,0.3-6,0.9-9.1,0.7c-1.6-0.3-3.3-0.2-4.8-1c-1.7-0.3-3.2-1-4.6-1.8
		c-3.2-1.7-5.9-4.1-8.2-6.9c-1.4-2.2-3.1-4.4-3.5-7.1c-0.7-1.3-0.8-2.8-1.1-4.2l0,0c-0.8-3.5-0.4-7,0.6-10.5c2-5.8,5.5-10.4,10.5-14
		c9.3-5.4,18.5-5.4,27.8,0c2.4,1.6,2.5,1.7,2.3,3.4c-0.2,0.1-0.3,0.2-0.5,0.3c-3.4,3.2-3.4,3.1-7.4,0.9c-0.8-0.5-1.7-0.8-2.5-1.1
		c-5.3-0.4-10.5-0.6-15.4,2.4c-7.4,4.7-10.1,16.2-5.3,23.7c7.1,11.3,21.3,10.6,27.5,2.9c0.2-0.3,0.5-0.6,0.7-0.9
		c1-1.5,2.5-3.2,1.6-5c-0.7-1.5-2.8-0.7-4.3-0.8c-2.6-0.1-5.2,0.1-7.9-0.1c-2.7-0.2-3.6-1.2-3.5-4.2c0-2.9,0.7-3.6,3.6-3.7
		c6.1-0.2,12.2,0.9,18.3,0.5c0.8,0,1.3,0.2,1.6,0.9C53.8,431.9,52.3,436.7,50.5,441.5z"/>
	<path class="st0" d="M46.3,410.7c0.5-2-1.6-2.2-2.3-3.4C45.6,407.9,47.7,408.1,46.3,410.7z"/>
	<path class="st0" d="M56.9,430.6c-0.4,1.6-0.7,3.2-1.1,4.9C55.8,433.8,55.4,432,56.9,430.6z"/>
	<path class="st0" d="M59.3,447c0.7,0.7,1.5,1.5,2.2,2.2C60.2,449,59.5,448.3,59.3,447z"/>
	<path class="st0" d="M57,442.9c0.6,0.6,1,1.3,1.1,2.2C57.1,444.7,56.9,443.9,57,442.9z"/>
	<path class="st0" d="M55.8,438.4c1,0.8,0.5,1.8,0.5,2.7C55.4,440.3,55.9,439.3,55.8,438.4z"/>
	<path class="st0" d="M9.8,442.9c2.7,2.3,5.5,4.6,8.2,6.9C14.3,448.6,11.6,446.3,9.8,442.9z"/>
	<path class="st0" d="M5.7,421.3c-0.6,3.5-0.9,6.9-0.6,10.5C3.9,428.2,4.1,424.7,5.7,421.3z"/>
	<path class="st0" d="M22.6,451.7c1.6,0.3,3.3,0.3,4.8,1C25.7,452.7,24,453.1,22.6,451.7z"/>
	<path class="st0" d="M5.2,431.7c0.4,1.4,0.7,2.8,1.1,4.2C4.9,434.7,5,433.2,5.2,431.7z"/>
	<path class="st0" d="M155.6,422.2c-1.7,0-4.1-1.1-5,0.7c-0.8,1.6-1.2,1-2,0.5c-1.9-1.2-3.8-2.1-6.1-2.3
		c-8.7-0.8-17.3,7.2-15.9,18.2c1.2,9.8,13.8,18,23.6,9.7c0.5,4.3,0.2,8-3.2,10.6c-4,3-8.8,2.1-12.6-2.1c-1.3-1.5-4-1.5-5.7,0.2
		c-1.5,1.6,0.1,2.7,0.9,3.7c4.1,4.9,9.4,6.6,15.6,5.3c8-1.7,11-6.7,11.3-15.9c0.3-8.6,0.1-17.3,0-25.9
		C156.6,423.9,157.3,422.3,155.6,422.2z M142.2,446.8c-5.2,0-9.3-4.4-9.3-10.1c0-5.7,3.8-9.4,9.1-9.8c5-0.4,9,5.3,8.8,9.9
		C150.8,442.3,147,446.8,142.2,446.8z"/>
	<path class="st0" d="M364.6,409c-2.2-1.1-4.7,0.2-4.7,2.6c0,1.1,0,2.1,0,3.2c0,3.7-0.1,7.4,0.5,11.3c-10.3-6-16.5-5.8-21,0.2
		c-5.1,6.8-4.7,16.9,0.9,22.3c5.7,5.5,12,5.2,19.6-0.9c0.7,0.6,0.6,1.3,0.5,1.8c-0.4,2.3,1.2,2,2.6,2.2c1.9,0.1,2.2-0.6,2.2-2.3
		c-0.1-12.8,0-25.6-0.1-38.4C365.2,410.3,365.5,409.4,364.6,409z M350.6,447.4c-5.2,0.1-9.4-4.6-9.2-10.2c0.2-6.8,3.7-10.4,9.1-10.5
		c5.3-0.2,9.1,4.3,9.1,10.5C359.7,443.5,355.6,447.3,350.6,447.4z"/>
	<path class="st0" d="M108,421.1c-10.6-0.5-17.1,7.1-16.8,15.8c0.2,9.2,5.8,15.1,15.8,15.7c8.8,0,16-7,16-15.7
		C122.9,428.4,116.2,421.5,108,421.1z M106.9,446.2c-4.7,0-8.8-4.4-8.8-9.3c0.1-5.1,4.3-9.7,8.9-9.6c4.7,0.1,8.8,4.6,8.7,9.7
		C115.7,442.1,111.8,446.2,106.9,446.2z"/>
	<path class="st0" d="M72.6,421.1c-10.6-0.5-17.1,7.1-16.8,15.8c0.2,9.2,5.8,15.1,15.8,15.7c8.8,0,16-7,16-15.7
		C87.5,428.4,80.7,421.5,72.6,421.1z M71.5,446.2c-4.7,0-8.8-4.4-8.8-9.3c0.1-5.1,4.3-9.7,8.9-9.6c4.7,0.1,8.8,4.6,8.7,9.7
		C80.3,442.1,76.3,446.2,71.5,446.2z"/>
	<path class="st0" d="M196.8,443c-1.1-0.8-1.5,0.5-2.1,1c-4.6,4.1-9.4,4-13.5-0.5c-1.1-1.1-1.5-1.9,0.4-2.7
		c5.8-2.3,11.6-4.9,17.4-7.2c1.8-0.7,2.2-1.4,1.5-3.2c-2.3-5.9-7-9.2-13.5-9.2c-1,0.1-2.1,0-3.3,0.3c-6.9,1.6-12.4,8-10.9,18.1
		c0.9,6.2,4.4,10.4,10.5,12.2c6.4,1.9,12,0.2,16.7-4.5c0.4-0.4,1.1-0.8,0.8-1.4C199.9,444.4,198.1,443.9,196.8,443z M179.1,434.7
		c0-3,2.7-6.2,5.9-7.5c3-1.1,5.8-0.5,7.7,1.5c1,1.1,1.4,1.8-0.4,2.5c-3.7,1.5-7.2,3.1-10.9,4.6C180,436.4,178.7,436.6,179.1,434.7z"
		/>
	<path class="st0" d="M408.8,420.6c-0.4-6.8-6-11.7-12.7-11.7c-4.4,0-8.7,0.1-13.1,0c-1.8-0.1-2.3,0.6-2.2,2.3
		c0.1,6.3,0,12.6,0,18.9c0,6.5,0.1,13-0.1,19.5c-0.1,2.3,1.2,2.2,2.7,2.1c1.5,0,2.8,0.2,2.7-2.1c-0.2-4.2,0.1-8.3-0.1-12.5
		c-0.1-2.5,0.8-3.1,3.1-3c3,0.1,6,0.1,8.9-0.4C405.6,432.4,409.1,426.2,408.8,420.6z M395.6,429.3c-2.5,0.1-5,0-7.6,0
		c-1.5,0.1-2.1-0.6-2-2.1c0.1-2,0-4.1,0-6.6c0.3-2.1-1.2-6,0.6-7c2.7-1.5,6.6-0.8,9.9-0.3c4,0.6,6.8,3.7,7,7
		C403.9,425.2,400.5,429,395.6,429.3z"/>
	<path class="st0" d="M449.7,449c0-4.6,0-9.1,0-13.7c0-8.9-3.6-13.1-12.4-13.8c-3.9-0.3-7.7,0.6-10.5,3.7c-2.2,2.4-1.7,3.4,1.4,4.4
		c1.7,0.6,2.2-0.9,3-1.7c4.4-3.9,11.8-2,13.5,3.6c0.3,0.8,0.5,1.8-0.1,2.5c-0.6,0.6-1.2-0.1-1.8-0.3c-3.3-0.9-6.6-1.3-10-0.6
		c-5.4,1.1-9.5,5-9,10.8c0.7,8.3,11.2,10.7,16.8,7c1.4-0.9,2.5-2.1,4.1-3.5c0.1,0.9,0.2,1.3,0.2,1.6c-0.4,2.3,0.6,2.7,2.7,2.7
		C450,451.8,449.8,450.6,449.7,449z M443.1,442.9c-1.8,2.8-4.4,4.2-7.8,4.5c-2.8,0-5.2-1.6-5.6-3.8c-0.4-2.3,1.1-4.3,4.1-5.6
		c2.4-1,4.9-0.7,7.3-0.2C444.4,438.6,444.9,440.1,443.1,442.9z"/>
	<path class="st0" d="M285,421.4c-7.9-0.2-15.1,5.2-14.9,15.6c-0.6,7.8,5.5,15.7,14.7,15.5c9.7-0.2,15.2-6.3,15.2-15.7
		C300,427.5,294.5,421.6,285,421.4z M285,447.4c-5.3-0.3-9.4-3.9-9.4-10.6c0-5.8,3.9-10.1,9.2-10.2c5.3-0.1,9.8,4.8,9.7,10.5
		C294.5,442.7,290.1,447.7,285,447.4z"/>
	<path class="st0" d="M524.3,437.1c0.4-10.1-6.6-15.8-14.8-15.7c-9.8,0.2-15.1,6.4-15,15.7c0,9.5,5.8,15.3,15.1,15.5
		C518.3,452.7,524.9,445.7,524.3,437.1z M509.6,448.1c-5.9-0.3-10.6-4.9-10-11.2c0-6.5,4-10.9,9.8-10.9c6,0,10.1,4.6,10.1,11.3
		C519.5,443.2,514.9,448.4,509.6,448.1z"/>
	<path class="st1" d="M329.1,228.4c-2.8-3-5.2-6.4-8.5-8.9c-14.6-11.2-36.7-8.6-47.9,6.1c-0.3,0.4-0.9,0.7-1.3,1.1
		c2.6-5.7,7.6-8.8,12.7-11.7c4.7-2.7,9.8-3.2,15-3.8c9.8-1.1,25.4,7.4,29.7,16.2C328.9,227.7,329,228.1,329.1,228.4z"/>
	<path class="st1" d="M330.8,232.5c-0.4-1-0.8-1.9-1.2-2.9C330.6,230.3,331.7,231,330.8,232.5z"/>
	<circle class="st1" cx="300.1" cy="246.9" r="34.9"/>
	<g>
		<path class="st2" d="M224.3,241.3L224.3,241.3c1.8-2.1,2.8-4.6,3.9-7.1l0,0c1.8-1.6,2.3-3.8,3.4-5.8c0.1,0,0.1,0.1,0.2,0.1
			c0.7,0,1-0.5,1.3-1c2.3-3.6,4.6-7.2,5.8-11.4c0.4,0.1,0.7-0.2,1-0.5c1.6-2.4,3.3-4.8,4.1-7.6c0-0.1-0.1-0.2-0.2-0.3
			c3.1-2.8,4.7-6.4,5.8-10.3c0,0,0-0.1,0-0.1c1.9-2.3,2.8-5.2,4.7-7.5c1.9-1.9,3.2-4.3,4.1-6.6c1.5-3.7,4-4.2,7.6-4.2
			c5.2,0.1,10.5,0.5,15.7-0.3c0.1-0.1,0.2-0.2,0.4-0.3c1.1,1,2.5,0.7,3.8,0.7c12.8,0,25.5,0,38.3,0c1.1,0,2.1,0.1,3.2-0.3
			c0.4-0.1,0.7-0.3,0.9-0.6c0.8,0.3,1.5,0.5,2.3,0.7h6.9c0.8-0.1,1.6-0.3,2.4-0.4c0,0.1,0,0.3,0,0.4h51.5c0,0,0,0-0.1-0.1
			c0-0.2,0-0.4,0-0.6c-6-11.3-12.4-22.4-19.1-33.3c-0.5-1.5-1.3-2.9-2.4-4.1h0c0,0,0,0,0,0c-3.3-5.7-8.4-8-14.7-8
			c-36.4,0-72.8,0-109.2,0c-6.9,0-12.3,2.7-15.7,8.6c-4.5,7.7-8.8,15.5-13.2,23.2c0,0,0,0,0,0c-1.1,1.2-1.8,2.6-2.3,4.1c0,0,0,0,0,0
			c-1.8,2.6-3.5,5.2-4.7,8.2c0,0,0,0,0,0c-1.8,2.6-3.4,5.2-4.6,8.2c0,0,0,0,0,0c-3,4.5-5.7,9.2-8.3,14l27,42.4
			C224.2,241.6,224.3,241.4,224.3,241.3z"/>
		<path class="st2" d="M333.1,315.3c-5.8,0-11.6,0-17.5,0c0,0,0,0,0,0c0,0,0,0,0,0c-18.1,0-36.1,0-54.2,0c0,0,0,0,0,0c0,0,0,0,0,0
			c-1.1-0.1-1.2-1.2-1.8-1.8c0-0.9-0.6-1.6-1-2.4c-9.3-16.1-18.5-32.2-27.8-48.3c-2.9-4.9-5.3-10-8.7-14.6c0-0.1,0-0.3,0.1-0.4
			l-27.8-43.6c-7.2,12-14.2,24.1-20.9,36.4c-1.5,2.7-1.6,5.9-1,9.1c1.1,5.5,4.6,9.7,7.3,14.4c1,2.7,2.8,5,4.2,7.5
			c0.5,1,1.1,1.9,1.6,2.9v0c2.8,5.4,5.9,10.6,9.1,15.8c0.4,0.8,0.9,1.5,1.3,2.3c0,0,0,0,0,0c3.3,6,6.6,12,10,18
			c6.6,11.6,13.2,23.1,20,34.6c2.6,4.3,4.3,9.4,9,12.2c3,2.8,6.8,3.1,10.5,3.1c21.3,0,42.6,0,63.9,0l26.1-45.2
			C334.8,315.3,334,315.3,333.1,315.3z M294.7,359.5C294.7,359.5,294.7,359.5,294.7,359.5C294.7,359.5,294.7,359.5,294.7,359.5
			C294.7,359.5,294.7,359.5,294.7,359.5z M315.5,323.5c0-0.1,0-0.1,0-0.2c0,0,0.1,0.1,0.1,0.1C315.6,323.4,315.5,323.5,315.5,323.5z
			"/>
		<path class="st2" d="M427.8,243.2c-1.6-5.7-5.1-10.5-8.2-15.4c-0.8-2.8-2.5-5-3.9-7.4c-3.5-6.1-6.7-12.4-10.7-18.2c0,0,0,0,0,0
			c-0.3-1.2-0.8-2.3-1.8-3.1c0,0,0,0,0,0c-2.8-5.6-5.9-11-9.2-16.3h-51.5c3.9,6.7,7.8,13.4,11.6,20c2.6,4.7,5.1,9.5,8.2,14
			c0.3,1.2,0.8,2.2,1.7,3.1c3.3,6.3,6.9,12.4,10.6,18.4v0c1.2,3.1,3.6,5.5,4.6,8.7c-9,15.5-17.9,31-26.9,46.5
			c-3.6,6.2-6.9,12.5-10.7,18.5l-28,48.5c13.7,0,27.5,0,41.2,0c0.9,0,1.7-0.1,2.6-0.2c0,0,0,0,0,0c3.3-0.6,6.6-1.1,9-3.8h0
			c0,0,0,0,0,0c2.5-1.3,3.6-3.7,4.9-5.9c8.4-14.5,16.8-29.1,25.1-43.7c3.5-6.1,7.3-12.1,10.3-18.4h0l0,0c1-1.2,2-2.5,2.4-4.1
			c0.7-0.4,1-1,1.1-1.8c0.3-0.6,0.7-1.2,1-1.8c0.7-1.1,1.3-2.2,2-3.3c0,0,0,0,0,0c0,0,0,0,0,0c0.4-0.8,0.8-1.6,1.3-2.4
			c1.7-2,2.6-4.3,3.9-6.6c0,0,0,0,0,0c0.5-0.2,0.6-0.6,0.6-1.1c0.2-0.4,0.4-0.8,0.6-1.2l0,0c2.3-3.9,4.8-7.6,6.9-11.6
			C428.2,251.1,428.9,247.3,427.8,243.2z M362.3,184.8C362.3,184.8,362.3,184.8,362.3,184.8C362.3,184.7,362.3,184.7,362.3,184.8
			C362.3,184.8,362.3,184.8,362.3,184.8z M320.9,347.9C320.9,347.9,320.9,347.9,320.9,347.9C320.9,347.9,320.9,347.9,320.9,347.9
			C320.9,347.9,321,347.8,320.9,347.9C321,347.8,321,347.8,320.9,347.9C321,347.8,321,347.8,320.9,347.9z M344.2,315.2
			C344.2,315.2,344.2,315.2,344.2,315.2C344.2,315.2,344.2,315.2,344.2,315.2C344.2,315.2,344.2,315.2,344.2,315.2z"/>
		<line class="st2" x1="224.3" y1="241.3" x2="261" y2="179"/>
		<line class="st2" x1="261" y1="179" x2="391.4" y2="179"/>
	</g>
</g>
</svg>
