<?xml version="1.0" encoding="utf-8"?>
<!-- Generator: Adobe Illustrator 23.0.2, SVG Export Plug-In . SVG Version: 6.00 Build 0)  -->
<svg version="1.1" id="Layer_1" xmlns="http://www.w3.org/2000/svg" xmlns:xlink="http://www.w3.org/1999/xlink" x="0px" y="0px"
	 viewBox="0 0 1080 460" style="enable-background:new 0 0 1080 460;" xml:space="preserve">
<style type="text/css">
	.st0{fill:#274A92;}
	.st1{fill:#335196;}
</style>
<title>geico</title>
<path class="st0" d="M74.4,227.5c1-1.8,0.7-3.9,1.1-5.8c3.3-16.6,12.6-25.6,29.5-28.8c7.7-1.4,15.5-2,23.3-1.9
	c19.3,0,38.6,0,57.9,0.1c7.9-0.1,15.9,1.1,23.4,3.5c11.6,3.9,17.6,12.1,19,24c0.4,4.2,0.6,8.4,0.6,12.6c0,1.3-0.2,1.9-1.7,1.9
	c-10.8-0.1-21.6,0-32.5,0c-1,0-1.8,0.2-1.8-1.3c-0.3-9.7-6.1-11.3-12.4-11.7c-8.4-0.6-16.8-0.3-25.2-0.2c-8.4,0-17-0.2-25.5,0.2
	c-1.7,0.1-3.4,0.3-5.1,0.6c-7.2,1.4-11,4.8-11.9,12.9c-1.6,12.6-1.6,25.4,0.2,37.9c1.1,7.4,5.4,11,12.8,12.1
	c2.2,0.3,4.3,0.5,6.5,0.5c15.2,0,30.4,0,45.6-0.1c3,0,6.1-0.6,8.8-1.9c4.8-2.2,7.8-8.8,6.2-13.6c-0.4-1.3-1.4-0.7-2.2-0.7
	c-13.5,0-26.9-0.1-40.4,0c-2.2,0-2.9-0.5-2.8-2.8c0.2-6.7,0.1-13.4,0-20.1c0-1.5,0.3-2,1.9-1.9c26.1,0,52.2,0,78.2,0
	c1.3,0,2,0.1,1.9,1.7c-0.2,13.1,0.5,26.3-0.5,39.4c-0.5,7.4-2.3,14.5-8,19.8c-4.7,4.4-10.6,6.1-16.7,7.2c-9.1,1.6-18.3,1.7-27.4,1.8
	c-17.3,0.1-34.6,0.1-51.9,0c-9.1-0.1-18.2-0.7-26.9-3.5C84.7,305,77.5,295.1,75.3,281c-0.2-1.5,0-3.1-0.9-4.4v-3.7
	c0.8-0.6,0.5-1.4,0.5-2.2c0-12.4,0-24.8,0-37.3c0-0.7,0.3-1.6-0.5-2.2L74.4,227.5z"/>
<path class="st1" d="M74.4,231.3c0.7,0.6,0.5,1.4,0.5,2.2c0,12.4,0,24.8,0,37.3c0,0.7,0.3,1.6-0.5,2.2V231.3z"/>
<path class="st0" d="M667.9,191.1c11.2,0.2,24.9-0.5,38.6,0.5c8.1,0.6,16,1.9,23.3,5.8c9.6,5.1,14.5,13.5,16.4,23.9
	c0.7,3.9,1,7.9,1,11.8c0,14.1,0.1,28.2-0.1,42.3c-0.1,6-1.4,11.9-4,17.4c-4.8,10.4-13.7,15.5-24.4,18c-7.3,1.6-14.8,2.3-22.2,2.2
	c-20.6,0.1-41.1,0.1-61.7,0c-8.5,0-16.9-0.7-25.2-2.9c-14.9-4.1-22.9-14.1-25.1-29.1c-0.5-3.7-0.8-7.4-0.7-11.2
	c0-12.4,0-24.7,0-37.1c-0.1-6.1,0.9-12.1,2.8-17.9c4.2-12.1,13.4-18.4,25.4-21.2c8.3-1.9,16.8-2.3,25.3-2.3
	C646.8,191.1,656.1,191.1,667.9,191.1z M665.6,282.2c8.4,0,16.8,0.1,25.2,0c11.4-0.1,16.9-4,18.3-13.9c1.4-10.3,1.4-20.8,0.1-31.2
	c-1-8-5.6-12.9-13.6-14.5c-1.8-0.4-3.7-0.6-5.5-0.7c-15.6-0.1-31.3-0.1-46.9-0.1c-2,0-4,0.2-6,0.5c-8.5,1.3-13.7,5.8-14.8,14.3
	c-1.5,11-1.4,22.2,0.3,33.3c1,6.1,4.7,10,10.9,11.3c2.6,0.6,5.2,0.9,7.9,0.9L665.6,282.2z"/>
<path class="st0" d="M499.5,313c-10.7-0.2-23.6,0.4-36.5-0.4c-5.7-0.3-11.3-1.2-16.7-2.8c-14-4.1-21.9-13.6-24.2-27.8
	c-0.7-4.1-1-8.3-1-12.5c0.1-13.2,0-26.3,0.1-39.5c0-6.2,1.3-12.4,3.8-18.1c5.1-11.4,14.8-16.5,26.3-18.9c7.7-1.4,15.4-2.1,23.2-1.9
	c16.3,0,32.5-0.1,48.8,0.1c9.4,0.1,18.8,0.7,28,3.1c14.5,3.8,21.3,11.6,22.9,26.6c0.5,4.4,0.5,8.9,0.6,13.3c0,1.4-0.2,2.1-1.9,2
	c-11-0.1-22-0.1-33,0c-1.4,0-2-0.4-1.8-1.8c0.1-0.7,0.1-1.4,0-2.1c-0.1-4.6-2.3-7.5-6.7-9.1c-2.9-0.9-5.9-1.4-9-1.3
	c-14.7,0-29.4,0-44.1,0.1c-1.9,0-3.7,0.3-5.5,0.7c-8.6,1.8-12.8,6.2-13.8,15.6c-1,9.5-1,19.1,0,28.7c1.2,10.7,6,14.9,17,15.2
	c10.7,0.3,21.5,0.2,32.2,0.1c6.3,0,12.6,0.3,18.9-0.3c8.8-1,11.8-4.1,12.3-13c0.2-3.1,0.2-3.1,3.3-3.1c10.4,0,20.7,0,31,0
	c1.6,0,2.3,0.2,2.2,2.1c-0.2,6.4,0.4,12.9-0.7,19.4c-2.3,13-10.4,20.4-22.9,23.5c-6.4,1.5-12.9,2.3-19.4,2.2
	C522.8,313,512.3,313,499.5,313z"/>
<path class="st0" d="M303.8,311.6c-21.3,0-42.7,0-64,0c-1.8,0-2.3-0.4-2.3-2.3c0.1-38.2,0.1-76.5,0-114.7c0-1.9,0.5-2.3,2.3-2.3
	c42,0.1,83.9,0.1,125.9,0c1.7,0,2.2,0.4,2.2,2.2c-0.1,7.6-0.1,15.3,0,22.9c0,2-0.4,2.7-2.6,2.7c-29.3-0.1-58.7-0.1-88,0
	c-3.4,0-3-0.5-3,3.2c0,4.4,0.1,8.9-0.1,13.3c-0.1,2.1,0.5,2.6,2.6,2.6c27.8-0.1,55.6,0,83.4-0.1c2.3,0,3,0.5,2.9,2.9
	c-0.2,6.5-0.2,12.9,0,19.4c0,2-0.4,2.6-2.6,2.6c-27.9-0.1-55.7,0-83.6-0.1c-2,0-2.8,0.4-2.7,2.6c0.2,4.7,0.2,9.3,0,14
	c-0.1,1.9,0.5,2.4,2.5,2.4c30.1-0.1,60.2-0.1,90.4,0c3.4,0,2.9-0.4,3,3c0,7.8-0.1,15.6,0.1,23.4c0,1.9-0.4,2.5-2.4,2.4
	C346.3,311.6,325.1,311.6,303.8,311.6z"/>
<path class="st0" d="M908.3,191.1c22.3,0,44.7,0,67,0c1.8,0,2.3,0.3,2.3,2.2c-0.1,13.6-0.1,27.1,0,40.6c0,1.8-0.4,2.3-2.3,2.3
	c-14.2-0.1-28.5,0-42.7-0.1c-2.3,0-2.7,0.7-2.7,2.8c0.1,24,0,48.1,0.1,72.2c0,1.9-0.4,2.5-2.4,2.4c-12.9-0.1-25.9-0.1-38.8,0
	c-1.9,0-2.4-0.4-2.4-2.4c0.1-24.1,0-48.3,0.1-72.4c0-2.2-0.6-2.6-2.7-2.6c-14.2,0.1-28.5,0-42.7,0.1c-1.8,0-2.4-0.3-2.3-2.3
	c0.1-13.6,0.1-27.1,0-40.6c0-1.8,0.4-2.3,2.3-2.3C863.4,191.1,885.9,191.1,908.3,191.1z M908.2,200.5c-19.2,0-38.5,0-57.7,0
	c-1.8,0-2.4,0.4-2.3,2.3c0.1,7.2,0.1,14.3,0,21.5c0,1.9,0.4,2.5,2.4,2.5c14.1-0.1,28.2,0,42.3-0.1c2.3,0,3.1,0.4,3.1,3
	c-0.1,24.1,0,48.1-0.1,72.2c0,1.8,0.3,2.4,2.3,2.4c6.6-0.1,13.2-0.1,19.8,0c2.1,0,2.6-0.5,2.6-2.5c-0.1-24.1,0-48.3-0.1-72.4
	c0-2.1,0.5-2.6,2.6-2.6c14.3,0.1,28.6,0,43,0.1c1.7,0,2.2-0.4,2.2-2.2c-0.1-7.2-0.1-14.3,0-21.5c0-2-0.4-2.6-2.5-2.6
	C946.5,200.5,927.4,200.5,908.2,200.5z"/>
<path class="st0" d="M377.2,252.1c0-19.1,0-38.1,0-57.2c0-1.9,0.3-2.5,2.4-2.5c10.7,0.1,21.5,0.1,32.2,0c1.7,0,2.2,0.4,2.2,2.2
	c-0.1,38.3-0.1,76.6,0,114.9c0,1.7-0.4,2.2-2.2,2.2c-10.8-0.1-21.6-0.1-32.5,0c-1.8,0-2.2-0.4-2.2-2.2
	C377.2,290.4,377.2,271.2,377.2,252.1z"/>
<path class="st0" d="M788.3,252.3c0-19.6,0-39.2,0-58.9c0-1.9,0.4-2.4,2.4-2.4c12.9,0.1,25.8,0.1,38.8,0c1.7,0,2.4,0.3,2.4,2.2
	c-0.1,39.3-0.1,78.6,0,118c0,1.8-0.5,2.3-2.3,2.3c-13-0.1-26-0.1-39,0c-1.9,0-2.2-0.7-2.2-2.4C788.3,291.6,788.3,271.9,788.3,252.3z
	 M822.2,252.5c0-16.6,0-33.2,0-49.7c0-1.9-0.5-2.3-2.3-2.3c-6.8,0.1-13.6,0.1-20.3,0c-1.6,0-1.9,0.5-1.9,1.9c0,33.2,0,66.5,0,99.7
	c0,1.5,0.4,1.9,1.9,1.9c6.7-0.1,13.4-0.1,20.1,0c2,0,2.6-0.5,2.6-2.6C822.1,285.2,822.2,268.9,822.2,252.5z"/>
<path class="st1" d="M768.7,298.5c0.2,6.1-4.6,11.2-10.6,11.4c-0.2,0-0.5,0-0.7,0c-6.2,0-11.3-5.1-11.2-11.4s5.1-11.3,11.4-11.2l0,0
	c6.1-0.1,11.1,4.7,11.2,10.8C768.7,298.2,768.7,298.3,768.7,298.5z M766.1,298.4c0.2-4.8-3.6-8.9-8.4-9.1c-4.8-0.2-8.9,3.6-9.1,8.4
	c0,0.3,0,0.6,0,1c-0.1,4.8,3.7,8.8,8.5,8.9c0.2,0,0.3,0,0.5,0C762.5,307.6,766.1,303.7,766.1,298.4z"/>
<path class="st1" d="M762.5,304.4c-1.8,0.7-2.7,0-2.9-1.7c-0.1-0.6-0.3-1.2-0.5-1.8c-0.6-1.2-1.7-1.2-2.8-1.1
	c-1.3,0.1-0.6,1.2-0.8,1.8c-0.4,1,1,2.9-1.1,2.9s-1-1.9-1.1-2.8c-0.2-2.5,0-5-0.1-7.4c0-1.2,0.4-1.7,1.6-1.8
	c1.6-0.2,3.3-0.2,4.8,0.2c2.7,0.8,3.5,3.3,1.5,5.3c-0.6,0.6-0.8,1-0.1,1.6c0.3,0.3,0.4,0.6,0.6,1
	C761.9,301.9,762.2,303.2,762.5,304.4z M755.4,296.2c-0.2,1.1,0,1.9,1.5,1.7c1.3-0.1,2.7-0.2,2.7-1.8c0-1.6-1.4-1.7-2.7-1.8
	C755.5,294.2,755.3,295,755.4,296.2L755.4,296.2z"/>
</svg>
