<svg id="Layer_1" data-name="Layer 1" xmlns="http://www.w3.org/2000/svg" viewBox="0 0 1080 1080"><defs><style>.cls-1{fill:#274a92;}.cls-2{fill:#335196;}</style></defs><title>geico</title><path class="cls-1" d="M74.42,538.67c1-1.86.76-4,1.16-5.95C79,515.61,88.54,506.34,106,503a126.55,126.55,0,0,1,24-1.91c19.91,0,39.82,0,59.74.12a78.59,78.59,0,0,1,24.17,3.59c12,4,18.19,12.45,19.62,24.78a128,128,0,0,1,.57,13c0,1.39-.22,1.94-1.8,1.93-11.16-.07-22.32,0-33.49,0-1,0-1.83.22-1.88-1.36-.33-10-6.34-11.64-12.8-12.08-8.66-.59-17.34-.26-26-.25s-17.5-.25-26.25.2a37.22,37.22,0,0,0-5.25.62c-7.47,1.47-11.34,5-12.32,13.34a147.25,147.25,0,0,0,.21,39.12c1.14,7.65,5.52,11.39,13.23,12.43a50.3,50.3,0,0,0,6.7.55q23.49,0,47-.06a21.91,21.91,0,0,0,9.11-1.94c4.91-2.27,8-9.06,6.42-14.06-.41-1.31-1.47-.74-2.22-.74-13.89,0-27.78-.09-41.67,0-2.3,0-3-.5-2.91-2.87.18-6.9.11-13.81,0-20.71,0-1.54.36-2.06,2-2q40.35.06,80.7,0c1.3,0,2.07.09,2,1.76-.24,13.56.49,27.14-.47,40.68-.54,7.66-2.39,14.93-8.29,20.44-4.82,4.51-10.89,6.27-17.19,7.4-9.37,1.68-18.85,1.75-28.31,1.83q-26.73.21-53.48,0c-9.38-.08-18.73-.74-27.79-3.65-14.36-4.61-21.72-14.81-24-29.29-.23-1.52,0-3.15-.94-4.53v-3.86c.78-.61.49-1.47.49-2.23q0-19.21,0-38.42c0-.76.28-1.62-.49-2.23Z"/><path class="cls-2" d="M74.42,542.53c.77.61.49,1.47.49,2.23q0,19.22,0,38.42c0,.76.29,1.62-.49,2.23Z"/><path class="cls-1" d="M686.51,501.08c11.6.25,25.73-.5,39.84.5,8.36.6,16.55,2,24.08,6,9.93,5.24,14.92,13.93,16.93,24.64a64,64,0,0,1,1,12.2c0,14.53.06,29.06-.15,43.59a43.41,43.41,0,0,1-4.12,17.91c-5,10.75-14.13,16-25.17,18.54a101.61,101.61,0,0,1-22.92,2.3q-31.8.15-63.59,0c-8.74,0-17.45-.68-26-3-15.34-4.27-23.61-14.56-25.86-30.05a77.86,77.86,0,0,1-.76-11.52c0-12.76,0-25.52,0-38.29a56.11,56.11,0,0,1,2.9-18.44c4.37-12.53,13.84-19,26.24-21.89,8.57-2,17.29-2.38,26.05-2.41C664.72,501.06,674.35,501.08,686.51,501.08Zm-2.4,94c8.68,0,17.35.07,26,0,11.78-.11,17.38-4.08,18.83-14.3a124.61,124.61,0,0,0,.1-32.17c-1-8.24-5.78-13.35-14-14.93a31.72,31.72,0,0,0-5.72-.71q-24.21-.12-48.42-.08a42,42,0,0,0-6.23.55c-8.81,1.29-14.18,6-15.25,14.8a123.23,123.23,0,0,0,.31,34.31c1,6.31,4.85,10.3,11.25,11.65a38.83,38.83,0,0,0,8.11.9Z"/><path class="cls-1" d="M512.85,626.78c-11-.21-24.29.42-37.61-.42A79.18,79.18,0,0,1,458,623.5c-14.47-4.21-22.54-14-25-28.63a75.84,75.84,0,0,1-1-12.94c.06-13.57,0-27.15.14-40.71a47,47,0,0,1,3.95-18.7c5.25-11.79,15.23-17,27.16-19.48a118.63,118.63,0,0,1,23.94-2c16.79,0,33.57-.09,50.35.12,9.7.12,19.39.74,28.86,3.19,15,3.87,22,12,23.63,27.44.48,4.56.56,9.13.63,13.7,0,1.47-.24,2.12-1.94,2.1q-17-.1-34,0c-1.47,0-2.08-.38-1.88-1.89a14.15,14.15,0,0,0,0-2.16c-.14-4.77-2.36-7.78-6.86-9.39a27.36,27.36,0,0,0-9.24-1.36q-22.75,0-45.53.09a28.3,28.3,0,0,0-5.72.69c-8.82,1.9-13.21,6.43-14.24,16.08a137.88,137.88,0,0,0,0,29.57c1.2,11,6.18,15.32,17.56,15.65,11.08.33,22.16.17,33.24.12,6.5,0,13,.34,19.5-.36,9.06-1,12.17-4.2,12.72-13.37.2-3.2.2-3.2,3.43-3.2,10.68,0,21.36,0,32,0,1.68,0,2.4.23,2.32,2.17-.25,6.65.4,13.34-.75,20-2.34,13.44-10.74,21-23.57,24.26a83.49,83.49,0,0,1-20,2.3C536.89,626.85,526.05,626.78,512.85,626.78Z"/><path class="cls-1" d="M311,625.41q-33,0-66,0c-1.84,0-2.4-.4-2.4-2.34q.09-59.15,0-118.27c0-1.94.54-2.35,2.39-2.35q64.92.08,129.84,0c1.8,0,2.25.43,2.23,2.23q-.16,11.81,0,23.61c0,2.11-.42,2.77-2.69,2.77q-45.4-.14-90.81-.05c-3.53,0-3.13-.47-3.14,3.25,0,4.58.11,9.16-.06,13.73-.08,2.13.52,2.66,2.65,2.66,28.67-.08,57.33,0,86-.11,2.4,0,3.1.52,3,3-.2,6.66-.16,13.33,0,20,0,2.09-.46,2.68-2.63,2.67-28.74-.08-57.49,0-86.23-.1-2.11,0-2.9.41-2.81,2.71.2,4.81.17,9.63,0,14.45-.06,2,.56,2.51,2.55,2.51q46.6-.09,93.22,0c3.48,0,3-.38,3.06,3.09,0,8-.06,16.06.06,24.09,0,2-.46,2.53-2.49,2.52C354.87,625.38,333,625.41,311,625.41Z"/><path class="cls-1" d="M934.43,501.08q34.56,0,69.11,0c1.82,0,2.41.36,2.4,2.32q-.15,21,0,41.9c0,1.88-.46,2.4-2.36,2.39-14.69-.08-29.39,0-44.08-.11-2.4,0-2.81.68-2.81,2.92.09,24.8,0,49.61.1,74.42,0,1.94-.38,2.53-2.44,2.51q-20-.17-40,0c-2,0-2.5-.44-2.49-2.47.08-24.88,0-49.77.11-74.66,0-2.25-.64-2.72-2.77-2.7-14.69.09-29.38,0-44.07.08-1.83,0-2.43-.36-2.42-2.33q.13-21,0-41.91c0-1.86.43-2.37,2.34-2.36C888.19,501.11,911.31,501.08,934.43,501.08Zm-.08,9.72c-19.83,0-39.66,0-59.5,0-1.86,0-2.44.43-2.41,2.37q.18,11.08,0,22.16c0,2,.45,2.55,2.48,2.54,14.53-.09,29.07,0,43.6-.1,2.4,0,3.2.45,3.19,3.06-.12,24.82-.05,49.63-.11,74.44,0,1.82.36,2.48,2.35,2.44q10.23-.2,20.47,0c2.12.05,2.66-.49,2.65-2.63-.08-24.9,0-49.79-.1-74.68,0-2.13.52-2.64,2.64-2.63,14.77.1,29.54,0,44.32.1,1.77,0,2.32-.4,2.29-2.25q-.18-11.07,0-22.16c0-2.06-.41-2.69-2.61-2.68C973.86,510.84,954.11,510.8,934.35,510.8Z"/><path class="cls-1" d="M386.68,564c0-19.67,0-39.33-.05-59,0-1.94.36-2.55,2.44-2.53,11.07.12,22.15.1,33.22,0,1.79,0,2.28.4,2.28,2.23q-.09,59.24,0,118.46c0,1.77-.38,2.29-2.23,2.28q-16.74-.15-33.47,0c-1.81,0-2.23-.45-2.23-2.24C386.7,603.47,386.68,583.73,386.68,564Z"/><path class="cls-1" d="M810.65,564.24c0-20.24,0-40.47,0-60.71,0-2,.45-2.51,2.48-2.5,13.33.1,26.66.08,40,0,1.77,0,2.45.27,2.45,2.3q-.1,60.82,0,121.66c0,1.9-.49,2.38-2.38,2.37q-20.11-.12-40.23,0c-2,0-2.29-.68-2.29-2.44Q810.7,594.61,810.65,564.24Zm35,.21c0-17.1,0-34.2,0-51.3,0-1.91-.53-2.42-2.42-2.39-7,.11-14,.09-20.95,0-1.61,0-2,.47-2,2q.07,51.42,0,102.84c0,1.55.37,2,2,2,6.91-.09,13.81-.13,20.71,0,2.11,0,2.69-.49,2.68-2.64C845.6,598.17,845.65,581.31,845.65,564.45Z"/><path class="cls-2" d="M790.5,611.87a11.35,11.35,0,0,1-11.69,11.71,11.66,11.66,0,1,1,.16-23.32A11.33,11.33,0,0,1,790.5,611.87Zm-2.7-.06a9.06,9.06,0,1,0-18.09.28,9,9,0,0,0,9.34,9.18C784.13,621.22,787.84,617.21,787.8,611.81Z"/><path class="cls-2" d="M784.11,618c-1.83.72-2.74.05-3-1.79a6.51,6.51,0,0,0-.56-1.82c-.6-1.26-1.8-1.2-2.92-1.1-1.29.12-.59,1.23-.83,1.88-.38,1,1,3-1.13,3s-1-1.91-1.11-2.91c-.18-2.55,0-5.13-.09-7.68-.05-1.26.44-1.77,1.6-1.82a15,15,0,0,1,5,.18c2.82.85,3.59,3.43,1.54,5.5-.65.67-.79,1-.12,1.61a2.43,2.43,0,0,1,.57,1C783.44,615.41,783.76,616.72,784.11,618Zm-7.31-8.45c-.23,1.12.05,1.93,1.57,1.76,1.3-.15,2.82-.25,2.83-1.89s-1.49-1.75-2.81-1.88C776.87,607.43,776.63,608.26,776.8,609.59Z"/></svg>