<?xml version="1.0" encoding="utf-8"?>
<!-- Generator: Adobe Illustrator 23.0.2, SVG Export Plug-In . SVG Version: 6.00 Build 0)  -->
<svg version="1.1" id="Layer_1" xmlns="http://www.w3.org/2000/svg" xmlns:xlink="http://www.w3.org/1999/xlink" x="0px" y="0px"
	 viewBox="0 0 1080 460" style="enable-background:new 0 0 1080 460;" xml:space="preserve">
<style type="text/css">
	.st0{fill:#FFFFFF;}
</style>
<title>geico</title>
<path class="st0" d="M74.4,228.7c1-1.9,0.8-4,1.2-6c3.4-17.1,13-26.4,30.4-29.7c7.9-1.4,16-2,24-1.9c19.9,0,39.8,0,59.7,0.1
	c8.2-0.1,16.3,1.1,24.2,3.6c12,4,18.2,12.5,19.6,24.8c0.4,4.3,0.6,8.7,0.6,13c0,1.4-0.2,1.9-1.8,1.9c-11.2-0.1-22.3,0-33.5,0
	c-1,0-1.8,0.2-1.9-1.4c-0.3-10-6.3-11.6-12.8-12.1c-8.7-0.6-17.3-0.3-26-0.2s-17.5-0.2-26.2,0.2c-1.8,0.1-3.5,0.3-5.2,0.6
	c-7.5,1.5-11.3,5-12.3,13.3c-1.7,13-1.6,26.1,0.2,39.1c1.1,7.7,5.5,11.4,13.2,12.4c2.2,0.3,4.5,0.5,6.7,0.5c15.7,0,31.3,0,47-0.1
	c3.1,0,6.2-0.6,9.1-1.9c4.9-2.3,8-9.1,6.4-14.1c-0.4-1.3-1.5-0.7-2.2-0.7c-13.9,0-27.8-0.1-41.7,0c-2.3,0-3-0.5-2.9-2.9
	c0.2-6.9,0.1-13.8,0-20.7c0-1.5,0.4-2.1,2-2c26.9,0,53.8,0,80.7,0c1.3,0,2.1,0.1,2,1.8c-0.2,13.6,0.5,27.1-0.5,40.7
	c-0.5,7.7-2.4,14.9-8.3,20.4c-4.8,4.5-10.9,6.3-17.2,7.4c-9.4,1.7-18.9,1.8-28.3,1.8c-17.8,0.1-35.6,0.1-53.5,0
	c-9.4-0.1-18.7-0.7-27.8-3.7c-14.4-4.6-21.7-14.8-24-29.3c-0.2-1.5,0-3.2-0.9-4.5v-3.9c0.8-0.6,0.5-1.5,0.5-2.2
	c0-12.8,0-25.6,0-38.4c0-0.8,0.3-1.6-0.5-2.2L74.4,228.7z"/>
<path class="st0" d="M74.4,232.5c0.8,0.6,0.5,1.5,0.5,2.2c0,12.8,0,25.6,0,38.4c0,0.8,0.3,1.6-0.5,2.2V232.5z"/>
<path class="st0" d="M686.5,191.1c11.6,0.2,25.7-0.5,39.8,0.5c8.4,0.6,16.5,2,24.1,6c9.9,5.2,14.9,13.9,16.9,24.6
	c0.7,4,1.1,8.1,1,12.2c0,14.5,0.1,29.1-0.2,43.6c-0.1,6.2-1.5,12.3-4.1,17.9c-5,10.8-14.1,16-25.2,18.5c-7.5,1.6-15.2,2.4-22.9,2.3
	c-21.2,0.1-42.4,0.1-63.6,0c-8.7,0-17.5-0.7-26-3c-15.3-4.3-23.6-14.6-25.9-30c-0.5-3.8-0.8-7.7-0.8-11.5c0-12.8,0-25.5,0-38.3
	c-0.1-6.3,0.9-12.5,2.9-18.4c4.4-12.5,13.8-19,26.2-21.9c8.6-2,17.3-2.4,26-2.4C664.7,191.1,674.3,191.1,686.5,191.1z M684.1,285.1
	c8.7,0,17.3,0.1,26,0c11.8-0.1,17.4-4.1,18.8-14.3c1.4-10.7,1.5-21.5,0.1-32.2c-1-8.2-5.8-13.3-14-14.9c-1.9-0.4-3.8-0.6-5.7-0.7
	c-16.1-0.1-32.3-0.1-48.4-0.1c-2.1,0-4.2,0.2-6.2,0.5c-8.8,1.3-14.2,6-15.2,14.8c-1.5,11.4-1.4,22.9,0.3,34.3
	c1,6.3,4.8,10.3,11.2,11.7c2.7,0.6,5.4,0.9,8.1,0.9L684.1,285.1z"/>
<path class="st0" d="M512.8,316.8c-11-0.2-24.3,0.4-37.6-0.4c-5.8-0.3-11.6-1.3-17.2-2.9c-14.5-4.2-22.5-14-25-28.6
	c-0.7-4.3-1-8.6-1-12.9c0.1-13.6,0-27.2,0.1-40.7c0-6.4,1.4-12.8,4-18.7c5.2-11.8,15.2-17,27.2-19.5c7.9-1.5,15.9-2.1,23.9-2
	c16.8,0,33.6-0.1,50.4,0.1c9.7,0.1,19.4,0.7,28.9,3.2c15,3.9,22,12,23.6,27.4c0.5,4.6,0.6,9.1,0.6,13.7c0,1.5-0.2,2.1-1.9,2.1
	c-11.3-0.1-22.7-0.1-34,0c-1.5,0-2.1-0.4-1.9-1.9c0.1-0.7,0.1-1.4,0-2.2c-0.1-4.8-2.4-7.8-6.9-9.4c-3-1-6.1-1.4-9.2-1.4
	c-15.2,0-30.3,0-45.5,0.1c-1.9,0-3.8,0.3-5.7,0.7c-8.8,1.9-13.2,6.4-14.2,16.1c-1.1,9.8-1.1,19.7,0,29.6c1.2,11,6.2,15.3,17.6,15.7
	c11.1,0.3,22.2,0.2,33.2,0.1c6.5,0,13,0.3,19.5-0.4c9.1-1,12.2-4.2,12.7-13.4c0.2-3.2,0.2-3.2,3.4-3.2c10.7,0,21.4,0,32,0
	c1.7,0,2.4,0.2,2.3,2.2c-0.2,6.7,0.4,13.3-0.8,20c-2.3,13.4-10.7,21-23.6,24.3c-6.5,1.6-13.3,2.3-20,2.3
	C536.9,316.8,526,316.8,512.8,316.8z"/>
<path class="st0" d="M311,315.4c-22,0-44,0-66,0c-1.8,0-2.4-0.4-2.4-2.3c0.1-39.4,0.1-78.9,0-118.3c0-1.9,0.5-2.4,2.4-2.4
	c43.3,0.1,86.6,0.1,129.8,0c1.8,0,2.2,0.4,2.2,2.2c-0.1,7.9-0.1,15.7,0,23.6c0,2.1-0.4,2.8-2.7,2.8c-30.3-0.1-60.5-0.1-90.8,0
	c-3.5,0-3.1-0.5-3.1,3.2c0,4.6,0.1,9.2-0.1,13.7c-0.1,2.1,0.5,2.7,2.6,2.7c28.7-0.1,57.3,0,86-0.1c2.4,0,3.1,0.5,3,3
	c-0.2,6.7-0.2,13.3,0,20c0,2.1-0.5,2.7-2.6,2.7c-28.7-0.1-57.5,0-86.2-0.1c-2.1,0-2.9,0.4-2.8,2.7c0.2,4.8,0.2,9.6,0,14.5
	c-0.1,2,0.6,2.5,2.5,2.5c31.1-0.1,62.1-0.1,93.2,0c3.5,0,3-0.4,3.1,3.1c0,8-0.1,16.1,0.1,24.1c0,2-0.5,2.5-2.5,2.5
	C354.9,315.4,333,315.4,311,315.4z"/>
<path class="st0" d="M934.4,191.1c23,0,46.1,0,69.1,0c1.8,0,2.4,0.4,2.4,2.3c-0.1,14-0.1,28,0,41.9c0,1.9-0.5,2.4-2.4,2.4
	c-14.7-0.1-29.4,0-44.1-0.1c-2.4,0-2.8,0.7-2.8,2.9c0.1,24.8,0,49.6,0.1,74.4c0,1.9-0.4,2.5-2.4,2.5c-13.3-0.1-26.7-0.1-40,0
	c-2,0-2.5-0.4-2.5-2.5c0.1-24.9,0-49.8,0.1-74.7c0-2.2-0.6-2.7-2.8-2.7c-14.7,0.1-29.4,0-44.1,0.1c-1.8,0-2.4-0.4-2.4-2.3
	c0.1-14,0.1-28,0-41.9c0-1.9,0.4-2.4,2.3-2.4C888.2,191.1,911.3,191.1,934.4,191.1z M934.3,200.8c-19.8,0-39.7,0-59.5,0
	c-1.9,0-2.4,0.4-2.4,2.4c0.1,7.4,0.1,14.8,0,22.2c0,2,0.5,2.5,2.5,2.5c14.5-0.1,29.1,0,43.6-0.1c2.4,0,3.2,0.5,3.2,3.1
	c-0.1,24.8,0,49.6-0.1,74.4c0,1.8,0.4,2.5,2.3,2.4c6.8-0.1,13.6-0.1,20.5,0c2.1,0,2.7-0.5,2.7-2.6c-0.1-24.9,0-49.8-0.1-74.7
	c0-2.1,0.5-2.6,2.6-2.6c14.8,0.1,29.5,0,44.3,0.1c1.8,0,2.3-0.4,2.3-2.2c-0.1-7.4-0.1-14.8,0-22.2c0-2.1-0.4-2.7-2.6-2.7
	C973.9,200.8,954.1,200.8,934.3,200.8z"/>
<path class="st0" d="M386.7,254c0-19.7,0-39.3,0-59c0-1.9,0.4-2.5,2.4-2.5c11.1,0.1,22.1,0.1,33.2,0c1.8,0,2.3,0.4,2.3,2.2
	c-0.1,39.5-0.1,79,0,118.5c0,1.8-0.4,2.3-2.2,2.3c-11.2-0.1-22.3-0.1-33.5,0c-1.8,0-2.2-0.5-2.2-2.2
	C386.7,293.5,386.7,273.7,386.7,254z"/>
<path class="st0" d="M810.7,254.2c0-20.2,0-40.5,0-60.7c0-2,0.5-2.5,2.5-2.5c13.3,0.1,26.7,0.1,40,0c1.8,0,2.5,0.3,2.5,2.3
	c-0.1,40.5-0.1,81.1,0,121.7c0,1.9-0.5,2.4-2.4,2.4c-13.4-0.1-26.8-0.1-40.2,0c-2,0-2.3-0.7-2.3-2.4
	C810.7,294.7,810.7,274.5,810.7,254.2z M845.7,254.5c0-17.1,0-34.2,0-51.3c0-1.9-0.5-2.4-2.4-2.4c-7,0.1-14,0.1-21,0
	c-1.6,0-2,0.5-2,2c0,34.3,0,68.6,0,102.8c0,1.5,0.4,2,2,2c6.9-0.1,13.8-0.1,20.7,0c2.1,0,2.7-0.5,2.7-2.6
	C845.6,288.2,845.7,271.3,845.7,254.5z"/>
<path class="st0" d="M790.5,301.9c0.2,6.3-4.7,11.5-11,11.7c-0.2,0-0.5,0-0.7,0c-6.4,0-11.6-5.3-11.6-11.7s5.3-11.6,11.7-11.6l0,0
	c6.3-0.1,11.4,4.9,11.5,11.1C790.5,301.5,790.5,301.7,790.5,301.9z M787.8,301.8c0.2-5-3.7-9.2-8.7-9.4c-5-0.2-9.2,3.7-9.4,8.7
	c0,0.3,0,0.7,0,1c-0.1,5,3.8,9.1,8.8,9.2c0.2,0,0.4,0,0.5,0C784.1,311.2,787.8,307.2,787.8,301.8z"/>
<path class="st0" d="M784.1,308c-1.8,0.7-2.7,0-3-1.8c-0.1-0.6-0.3-1.2-0.6-1.8c-0.6-1.3-1.8-1.2-2.9-1.1c-1.3,0.1-0.6,1.2-0.8,1.9
	c-0.4,1,1,3-1.1,3s-1-1.9-1.1-2.9c-0.2-2.5,0-5.1-0.1-7.7c0-1.3,0.4-1.8,1.6-1.8c1.7-0.2,3.4-0.2,5,0.2c2.8,0.8,3.6,3.4,1.5,5.5
	c-0.7,0.7-0.8,1-0.1,1.6c0.3,0.3,0.5,0.6,0.6,1C783.4,305.4,783.8,306.7,784.1,308z M776.8,299.5c-0.2,1.1,0,1.9,1.6,1.8
	c1.3-0.2,2.8-0.2,2.8-1.9s-1.5-1.8-2.8-1.9C776.9,297.4,776.6,298.3,776.8,299.5L776.8,299.5z"/>
</svg>
