<?xml version="1.0" encoding="utf-8"?>
<!-- Generator: Adobe Illustrator 23.0.2, SVG Export Plug-In . SVG Version: 6.00 Build 0)  -->
<svg version="1.1" id="Layer_1" xmlns="http://www.w3.org/2000/svg" xmlns:xlink="http://www.w3.org/1999/xlink" x="0px" y="0px"
	 viewBox="0 0 1280 800" style="enable-background:new 0 0 1280 800;" xml:space="preserve">
<style type="text/css">
	.st0{display:none;}
	.st1{fill-rule:evenodd;clip-rule:evenodd;fill:#FAC9CB;}
	.st2{fill:none;stroke:#FAC9CB;stroke-width:0.8981;stroke-miterlimit:3.864;}
	.st3{fill-rule:evenodd;clip-rule:evenodd;fill:#FFFFFF;}
	.st4{fill-rule:evenodd;clip-rule:evenodd;fill:#92D6E6;}
	.st5{fill:none;stroke:#92D6E6;stroke-width:0.8981;stroke-miterlimit:3.864;}
	.st6{fill-rule:evenodd;clip-rule:evenodd;fill:#7F1D5B;}
	.st7{fill:none;stroke:#7F1D5B;stroke-width:0.8981;stroke-miterlimit:3.864;}
	.st8{fill:none;stroke:#FFFFFF;stroke-width:0.8981;stroke-miterlimit:3.864;}
	.st9{fill-rule:evenodd;clip-rule:evenodd;fill:#B0BFC8;}
	.st10{fill:none;stroke:#B0BFC8;stroke-width:0.8981;stroke-miterlimit:3.864;}
	.st11{fill-rule:evenodd;clip-rule:evenodd;fill:#E1E2E3;}
	.st12{fill:none;stroke:#E1E2E3;stroke-width:0.8981;stroke-miterlimit:3.864;}
	.st13{fill-rule:evenodd;clip-rule:evenodd;fill:#F4EB26;}
	.st14{fill:none;stroke:#F4EB26;stroke-width:0.8981;stroke-miterlimit:3.864;}
	.st15{fill-rule:evenodd;clip-rule:evenodd;fill:#D5DE28;}
	.st16{fill:none;stroke:#D5DE28;stroke-width:0.8981;stroke-miterlimit:3.864;}
	.st17{fill-rule:evenodd;clip-rule:evenodd;fill:#78421B;}
	.st18{fill:none;stroke:#78421B;stroke-width:0.8981;stroke-miterlimit:3.864;}
	.st19{fill-rule:evenodd;clip-rule:evenodd;fill:#8EA2AD;}
	.st20{fill:none;stroke:#8EA2AD;stroke-width:0.8981;stroke-miterlimit:3.864;}
	.st21{fill-rule:evenodd;clip-rule:evenodd;fill:#C52127;}
	.st22{fill:none;stroke:#C52127;stroke-width:0.8981;stroke-miterlimit:3.864;}
	.st23{fill-rule:evenodd;clip-rule:evenodd;fill:#EC6A56;}
	.st24{fill:none;stroke:#EC6A56;stroke-width:0.8981;stroke-miterlimit:3.864;}
	.st25{fill-rule:evenodd;clip-rule:evenodd;fill:#C8652C;}
	.st26{fill:none;stroke:#C8652C;stroke-width:0.8981;stroke-miterlimit:3.864;}
	.st27{fill-rule:evenodd;clip-rule:evenodd;fill:#EC2B26;}
	.st28{fill:none;stroke:#EC2B26;stroke-width:0.8981;stroke-miterlimit:3.864;}
	.st29{fill-rule:evenodd;clip-rule:evenodd;fill:#C52C2C;}
	.st30{fill:none;stroke:#C52C2C;stroke-width:0.8981;stroke-miterlimit:3.864;}
	.st31{fill-rule:evenodd;clip-rule:evenodd;fill:#F8E2B0;}
	.st32{fill:none;stroke:#F8E2B0;stroke-width:0.8981;stroke-miterlimit:3.864;}
	.st33{fill-rule:evenodd;clip-rule:evenodd;fill:#D68528;}
	.st34{fill:none;stroke:#D68528;stroke-width:0.8981;stroke-miterlimit:3.864;}
	.st35{fill-rule:evenodd;clip-rule:evenodd;fill:#F2B598;}
	.st36{fill:none;stroke:#F2B598;stroke-width:0.8981;stroke-miterlimit:3.864;}
	.st37{fill-rule:evenodd;clip-rule:evenodd;fill:#F6A1B6;}
	.st38{fill:none;stroke:#F6A1B6;stroke-width:0.8981;stroke-miterlimit:3.864;}
	.st39{fill-rule:evenodd;clip-rule:evenodd;fill:#FAC9D4;}
	.st40{fill:none;stroke:#FAC9D4;stroke-width:0.8981;stroke-miterlimit:3.864;}
	.st41{fill-rule:evenodd;clip-rule:evenodd;fill:#8D80B3;}
	.st42{fill:none;stroke:#8D80B3;stroke-width:0.8981;stroke-miterlimit:3.864;}
	.st43{fill-rule:evenodd;clip-rule:evenodd;fill:#807087;}
	.st44{fill:none;stroke:#807087;stroke-width:0.8981;stroke-miterlimit:3.864;}
	.st45{fill-rule:evenodd;clip-rule:evenodd;fill:#5571B6;}
	.st46{fill:none;stroke:#5571B6;stroke-width:0.8981;stroke-miterlimit:3.864;}
	.st47{fill-rule:evenodd;clip-rule:evenodd;fill:#8699CE;}
	.st48{fill:none;stroke:#8699CE;stroke-width:0.8981;stroke-miterlimit:3.864;}
	.st49{fill-rule:evenodd;clip-rule:evenodd;fill:#5E63A5;}
	.st50{fill:none;stroke:#5E63A5;stroke-width:0.8981;stroke-miterlimit:3.864;}
	.st51{fill-rule:evenodd;clip-rule:evenodd;fill:#366FAC;}
	.st52{fill:none;stroke:#366FAC;stroke-width:0.8981;stroke-miterlimit:3.864;}
	.st53{fill-rule:evenodd;clip-rule:evenodd;fill:#F89D1E;}
	.st54{fill:none;stroke:#F89D1E;stroke-width:0.8981;stroke-miterlimit:3.864;}
	.st55{fill-rule:evenodd;clip-rule:evenodd;fill:#4A2C13;}
	.st56{fill:none;stroke:#4A2C13;stroke-width:0.8981;stroke-miterlimit:3.864;}
	.st57{fill-rule:evenodd;clip-rule:evenodd;fill:#A62171;}
	.st58{fill:none;stroke:#A62171;stroke-width:0.8981;stroke-miterlimit:3.864;}
	.st59{fill-rule:evenodd;clip-rule:evenodd;fill:#5A96A6;}
	.st60{fill:none;stroke:#5A96A6;stroke-width:0.8981;stroke-miterlimit:3.864;}
	.st61{fill-rule:evenodd;clip-rule:evenodd;fill:#009BC9;}
	.st62{fill:none;stroke:#009BC9;stroke-width:0.8981;stroke-miterlimit:3.864;}
	.st63{fill:#F7F8F9;}
	.st64{fill:#F9F9FA;}
	.st65{fill:#F5F6F7;}
	.st66{fill:#FDFEFE;}
</style>
<g id="background" class="st0">
</g>
<g>
	<g>
		<path class="st1" d="M394.2,80.7c10.6,1.2,20.8,3.7,30.5,7.1l-14,39.1c-6.8-2.4-14-4.1-21.5-4.9L394.2,80.7z"/>
		<path class="st2" d="M394.2,80.7c10.6,1.2,20.8,3.7,30.5,7.1l-14,39.1c-6.8-2.4-14-4.1-21.5-4.9L394.2,80.7z"/>
		<path class="st3" d="M424.7,87.9c1.5,0.5,2.9,1.1,4.4,1.7l-15.3,38.5c-1-0.4-2-0.8-3.1-1.1L424.7,87.9z"/>
		<path class="st4" d="M429.1,89.6c2.2,0.9,4.5,1.8,6.6,2.8l-17.3,37.7c-1.5-0.7-3.1-1.4-4.7-2L429.1,89.6z"/>
		<path class="st5" d="M429.1,89.6c2.2,0.9,4.5,1.8,6.6,2.8l-17.3,37.7c-1.5-0.7-3.1-1.4-4.7-2L429.1,89.6z"/>
		<path class="st4" d="M435.8,92.4c11.1,5.1,21.5,11.6,30.8,19.3l-26.4,31.9c-6.6-5.4-13.9-10-21.7-13.5L435.8,92.4z"/>
		<path class="st5" d="M435.8,92.4c11.1,5.1,21.5,11.6,30.8,19.3l-26.4,31.9c-6.6-5.4-13.9-10-21.7-13.5L435.8,92.4z"/>
		<path class="st6" d="M491.6,138.5c1.1,1.5,2.1,3,3.1,4.5l-34.6,22.6c-0.7-1.1-1.4-2.1-2.2-3.2L491.6,138.5z"/>
		<path class="st7" d="M491.6,138.5c1.1,1.5,2.1,3,3.1,4.5l-34.6,22.6c-0.7-1.1-1.4-2.1-2.2-3.2L491.6,138.5z"/>
		<path class="st3" d="M494.7,143.1c5.5,8.4,10.2,17.5,13.8,27l-38.7,14.6c-2.5-6.7-5.8-13.1-9.7-19L494.7,143.1z"/>
		<path class="st8" d="M494.7,143.1c5.5,8.4,10.2,17.5,13.8,27l-38.7,14.6c-2.5-6.7-5.8-13.1-9.7-19L494.7,143.1z"/>
		<path class="st9" d="M508.5,170.1c1.6,4.3,3,8.7,4.3,13.2l-40,10.8c-0.8-3.2-1.8-6.3-3-9.3L508.5,170.1z"/>
		<path class="st10" d="M508.5,170.1c1.6,4.3,3,8.7,4.3,13.2l-40,10.8c-0.8-3.2-1.8-6.3-3-9.3L508.5,170.1z"/>
		<path class="st11" d="M517.5,222.3c-0.2,11.4-1.8,22.5-4.5,33.1l-40.3-10.6c2-7.6,3.2-15.6,3.4-23.8l0-1.6l41.5-0.2
			C517.5,220.2,517.5,221.2,517.5,222.3"/>
		<path class="st12" d="M517.5,222.3c-0.2,11.4-1.8,22.5-4.5,33.1l-40.3-10.6c2-7.6,3.2-15.6,3.4-23.8l0-1.6l41.5-0.2
			C517.5,220.2,517.5,221.2,517.5,222.3z"/>
		<path class="st13" d="M512.9,255.4c-2,7.8-4.7,15.3-8,22.5l-38.1-17.4c2.4-5,4.3-10.3,5.8-15.7L512.9,255.4z"/>
		<path class="st14" d="M512.9,255.4c-2,7.8-4.7,15.3-8,22.5l-38.1-17.4c2.4-5,4.3-10.3,5.8-15.7L512.9,255.4z"/>
		<path class="st15" d="M504.9,277.9c-2.3,5-4.8,9.8-7.6,14.4l-35.9-21.7c2-3.2,3.8-6.6,5.4-10L504.9,277.9z"/>
		<path class="st16" d="M504.9,277.9c-2.3,5-4.8,9.8-7.6,14.4l-35.9-21.7c2-3.2,3.8-6.6,5.4-10L504.9,277.9z"/>
		<path class="st17" d="M413.3,355.1c-1.3,0.4-2.6,0.7-4,1l-9.7-41.5c0.9-0.2,1.8-0.4,2.7-0.6L413.3,355.1z"/>
		<path class="st18" d="M413.3,355.1c-1.3,0.4-2.6,0.7-4,1l-9.7-41.5c0.9-0.2,1.8-0.4,2.7-0.6L413.3,355.1z"/>
		<path class="st19" d="M358.6,358.4c-8.2-1.1-16.3-3-24-5.4l13.2-41c5.3,1.8,10.9,3.1,16.6,3.9L358.6,358.4z"/>
		<path class="st20" d="M358.6,358.4c-8.2-1.1-16.3-3-24-5.4l13.2-41c5.3,1.8,10.9,3.1,16.6,3.9L358.6,358.4z"/>
		<path class="st21" d="M334.6,352.9c-4.2-1.3-8.2-2.9-12.2-4.6l17-39.6c2.8,1.2,5.6,2.3,8.4,3.2L334.6,352.9z"/>
		<path class="st22" d="M334.6,352.9c-4.2-1.3-8.2-2.9-12.2-4.6l17-39.6c2.8,1.2,5.6,2.3,8.4,3.2L334.6,352.9z"/>
		<path class="st23" d="M299.1,335.6l24.1-35.7c5,3.4,10.4,6.4,16,8.9l-17,39.6C314.1,344.8,306.4,340.5,299.1,335.6"/>
		<path class="st24" d="M299.1,335.6l24.1-35.7c5,3.4,10.4,6.4,16,8.9l-17,39.6C314.1,344.8,306.4,340.5,299.1,335.6z"/>
		<path class="st25" d="M299,335.6c-1.7-1.2-3.4-2.4-5.1-3.6l25.7-34.6c1.1,0.9,2.3,1.7,3.5,2.5L299,335.6z"/>
		<path class="st26" d="M299,335.6c-1.7-1.2-3.4-2.4-5.1-3.6l25.7-34.6c1.1,0.9,2.3,1.7,3.5,2.5L299,335.6z"/>
		<path class="st15" d="M294,332c-5.1-3.8-9.9-7.9-14.4-12.3l30.2-30.8c3.1,3.1,6.4,5.9,9.9,8.5L294,332z"/>
		<path class="st16" d="M294,332c-5.1-3.8-9.9-7.9-14.4-12.3l30.2-30.8c3.1,3.1,6.4,5.9,9.9,8.5L294,332z"/>
		<path class="st27" d="M279.5,319.6c-12.8-12.5-23.1-27.5-30.3-44l39.6-17.2c5,11.5,12.2,21.8,21,30.4L279.5,319.6z"/>
		<path class="st28" d="M279.5,319.6c-12.8-12.5-23.1-27.5-30.3-44l39.6-17.2c5,11.5,12.2,21.8,21,30.4L279.5,319.6z"/>
		<path class="st29" d="M249.2,275.5c-0.6-1.3-1.1-2.7-1.7-4l40.1-16c0.4,0.9,0.8,1.8,1.2,2.8L249.2,275.5z"/>
		<path class="st30" d="M249.2,275.5c-0.6-1.3-1.1-2.7-1.7-4l40.1-16c0.4,0.9,0.8,1.8,1.2,2.8L249.2,275.5z"/>
		<path class="st31" d="M247.5,271.5c-3.1-7.7-5.5-15.8-7.1-24.1l42.2-8.5c1.2,5.7,2.9,11.3,5,16.6L247.5,271.5z"/>
		<path class="st32" d="M247.5,271.5c-3.1-7.7-5.5-15.8-7.1-24.1l42.2-8.5c1.2,5.7,2.9,11.3,5,16.6L247.5,271.5z"/>
		<path class="st33" d="M237.6,217.2c0.1-5.7,0.5-11.3,1.3-16.7l42.5,5.9c-0.5,3.6-0.8,7.3-0.8,11c0,1.5,0,2.9,0,4.3l-43,0.9
			C237.6,220.8,237.6,219,237.6,217.2"/>
		<path class="st34" d="M237.6,217.2c0.1-5.7,0.5-11.3,1.3-16.7l42.5,5.9c-0.5,3.6-0.8,7.3-0.8,11c0,1.5,0,2.9,0,4.3l-43,0.9
			C237.6,220.8,237.6,219,237.6,217.2z"/>
		<path class="st27" d="M238.9,200.4c1.2-8.4,3.1-16.5,5.6-24.4l40.6,13.4c-1.7,5.4-3,11.1-3.8,16.9L238.9,200.4z"/>
		<path class="st28" d="M238.9,200.4c1.2-8.4,3.1-16.5,5.6-24.4l40.6,13.4c-1.7,5.4-3,11.1-3.8,16.9L238.9,200.4z"/>
		<path class="st35" d="M254.6,152.7c2-3.6,4.1-7.1,6.4-10.5l35.4,23.6c-1.6,2.4-3,4.8-4.4,7.4L254.6,152.7z"/>
		<path class="st36" d="M254.6,152.7c2-3.6,4.1-7.1,6.4-10.5l35.4,23.6c-1.6,2.4-3,4.8-4.4,7.4L254.6,152.7z"/>
		<path class="st37" d="M261,142.1c1.7-2.5,3.4-5,5.3-7.4l33.8,25.8c-1.3,1.7-2.5,3.4-3.6,5.2L261,142.1z"/>
		<path class="st38" d="M261,142.1c1.7-2.5,3.4-5,5.3-7.4l33.8,25.8c-1.3,1.7-2.5,3.4-3.6,5.2L261,142.1z"/>
		<path class="st37" d="M266.3,134.7c7.2-9.5,15.7-18,25-25.3l26,33.3c-6.5,5.2-12.3,11.1-17.3,17.8L266.3,134.7z"/>
		<path class="st38" d="M266.3,134.7c7.2-9.5,15.7-18,25-25.3l26,33.3c-6.5,5.2-12.3,11.1-17.3,17.8L266.3,134.7z"/>
		<path class="st39" d="M291.4,109.4c3.6-2.8,7.3-5.4,11.1-7.8l22.6,35.6c-2.7,1.7-5.2,3.6-7.7,5.6L291.4,109.4z"/>
		<path class="st40" d="M291.4,109.4c3.6-2.8,7.3-5.4,11.1-7.8l22.6,35.6c-2.7,1.7-5.2,3.6-7.7,5.6L291.4,109.4z"/>
		<path class="st41" d="M302.5,101.5c1.6-1,3.1-1.9,4.7-2.9l21.1,36.5c-1.1,0.7-2.2,1.3-3.3,2L302.5,101.5z"/>
		<path class="st42" d="M302.5,101.5c1.6-1,3.1-1.9,4.7-2.9l21.1,36.5c-1.1,0.7-2.2,1.3-3.3,2L302.5,101.5z"/>
		<path class="st43" d="M307.3,98.6c1.6-0.9,3.2-1.8,4.9-2.7l19.6,37.3c-1.1,0.6-2.3,1.3-3.4,1.9L307.3,98.6z"/>
		<path class="st44" d="M307.3,98.6c1.6-0.9,3.2-1.8,4.9-2.7l19.6,37.3c-1.1,0.6-2.3,1.3-3.4,1.9L307.3,98.6z"/>
		<path class="st3" d="M312.2,95.9c3.8-2,7.7-3.8,11.7-5.5l16.1,38.8c-2.8,1.2-5.5,2.5-8.1,3.9L312.2,95.9z"/>
		<path class="st8" d="M312.2,95.9c3.8-2,7.7-3.8,11.7-5.5l16.1,38.8c-2.8,1.2-5.5,2.5-8.1,3.9L312.2,95.9z"/>
		<path class="st45" d="M324,90.4c2.2-0.9,4.5-1.8,6.7-2.6l14,39.6c-1.6,0.6-3.1,1.2-4.7,1.8L324,90.4z"/>
		<path class="st46" d="M324,90.4c2.2-0.9,4.5-1.8,6.7-2.6l14,39.6c-1.6,0.6-3.1,1.2-4.7,1.8L324,90.4z"/>
		<path class="st47" d="M330.7,87.8c9.2-3.3,18.9-5.6,28.9-6.9l5.3,41.5c-7,1-13.8,2.7-20.2,5L330.7,87.8z"/>
		<path class="st48" d="M330.7,87.8c9.2-3.3,18.9-5.6,28.9-6.9l5.3,41.5c-7,1-13.8,2.7-20.2,5L330.7,87.8z"/>
		<path class="st41" d="M394.1,80.7l-5,41.3c-3-0.3-6-0.5-9.1-0.6c-1.2,0-2.4,0-3.6,0l-0.4-41.7c1.4,0,2.7,0,4,0
			C384.9,79.9,389.5,80.2,394.1,80.7"/>
		<path class="st42" d="M394.1,80.7l-5,41.3c-3-0.3-6-0.5-9.1-0.6c-1.2,0-2.4,0-3.6,0l-0.4-41.7c1.4,0,2.7,0,4,0
			C384.9,79.9,389.5,80.2,394.1,80.7z"/>
		<path class="st49" d="M376,79.8l0.4,41.7c-1.5,0-3.1,0.1-4.6,0.2L369.5,80C371.6,79.9,373.8,79.8,376,79.8"/>
		<path class="st50" d="M376,79.8l0.4,41.7c-1.5,0-3.1,0.1-4.6,0.2L369.5,80C371.6,79.9,373.8,79.8,376,79.8z"/>
		<path class="st45" d="M359.6,80.9c2-0.2,4-0.5,6-0.6l3.5,41.6c-1.4,0.1-2.8,0.3-4.2,0.5L359.6,80.9z"/>
		<path class="st46" d="M359.6,80.9c2-0.2,4-0.5,6-0.6l3.5,41.6c-1.4,0.1-2.8,0.3-4.2,0.5L359.6,80.9z"/>
		<path class="st51" d="M369.4,80l2.4,41.7c-0.9,0.1-1.8,0.1-2.6,0.2l-3.5-41.6C366.9,80.1,368.2,80.1,369.4,80"/>
		<path class="st52" d="M369.4,80l2.4,41.7c-0.9,0.1-1.8,0.1-2.6,0.2l-3.5-41.6C366.9,80.1,368.2,80.1,369.4,80z"/>
		<path class="st31" d="M254.6,152.8l37.4,20.4c-0.3,0.5-0.5,1-0.8,1.5L253.4,155C253.8,154.2,254.2,153.5,254.6,152.8"/>
		<path class="st32" d="M254.6,152.8l37.4,20.4c-0.3,0.5-0.5,1-0.8,1.5L253.4,155C253.8,154.2,254.2,153.5,254.6,152.8z"/>
		<path class="st53" d="M244.6,175.9c0.8-2.4,1.6-4.7,2.5-7l39.8,15.5c-0.6,1.6-1.2,3.2-1.7,4.9L244.6,175.9z"/>
		<path class="st54" d="M244.6,175.9c0.8-2.4,1.6-4.7,2.5-7l39.8,15.5c-0.6,1.6-1.2,3.2-1.7,4.9L244.6,175.9z"/>
		<path class="st33" d="M286.9,184.4l-39.8-15.5c1.9-4.8,4-9.4,6.3-13.9l37.8,19.7C289.6,177.9,288.2,181.1,286.9,184.4"/>
		<path class="st34" d="M286.9,184.4l-39.8-15.5c1.9-4.8,4-9.4,6.3-13.9l37.8,19.7C289.6,177.9,288.2,181.1,286.9,184.4z"/>
		<path class="st55" d="M358.6,358.4l5.8-42.5c4,0.6,8,0.9,12.1,1c3.2,0.1,6.3,0,9.5-0.3l3.8,42.6c-4.8,0.4-9.8,0.6-14.7,0.5
			C369.5,359.5,364,359.1,358.6,358.4"/>
		<path class="st56" d="M358.6,358.4l5.8-42.5c4,0.6,8,0.9,12.1,1c3.2,0.1,6.3,0,9.5-0.3l3.8,42.6c-4.8,0.4-9.8,0.6-14.7,0.5
			C369.5,359.5,364,359.1,358.6,358.4z"/>
		<path class="st17" d="M409.3,356c-6.4,1.5-12.9,2.5-19.5,3.1l-3.8-42.6c4.6-0.4,9.2-1,13.6-2L409.3,356z"/>
		<path class="st18" d="M409.3,356c-6.4,1.5-12.9,2.5-19.5,3.1l-3.8-42.6c4.6-0.4,9.2-1,13.6-2L409.3,356z"/>
		<path class="st4" d="M466.7,111.8c5,4.1,9.7,8.6,14.1,13.4l-30.5,27.9c-3.1-3.4-6.4-6.5-10-9.4L466.7,111.8z"/>
		<path class="st5" d="M466.7,111.8c5,4.1,9.7,8.6,14.1,13.4l-30.5,27.9c-3.1-3.4-6.4-6.5-10-9.4L466.7,111.8z"/>
		<path class="st57" d="M491.5,138.5l-33.7,24c-2.3-3.3-4.9-6.4-7.6-9.4l30.5-27.9C484.6,129.4,488.2,133.8,491.5,138.5"/>
		<path class="st58" d="M491.5,138.5l-33.7,24c-2.3-3.3-4.9-6.4-7.6-9.4l30.5-27.9C484.6,129.4,488.2,133.8,491.5,138.5z"/>
		<path class="st3" d="M240.3,247.4c-0.8-3.9-1.4-8-1.9-12l42.8-4.9c0.3,2.8,0.8,5.6,1.3,8.4L240.3,247.4z"/>
		<path class="st8" d="M240.3,247.4c-0.8-3.9-1.4-8-1.9-12l42.8-4.9c0.3,2.8,0.8,5.6,1.3,8.4L240.3,247.4z"/>
		<path class="st53" d="M237.6,222.7l43-0.9c0.1,2.9,0.3,5.8,0.6,8.7l-42.8,4.8C238,231.1,237.7,226.9,237.6,222.7"/>
		<path class="st54" d="M237.6,222.7l43-0.9c0.1,2.9,0.3,5.8,0.6,8.7l-42.8,4.8C238,231.1,237.7,226.9,237.6,222.7z"/>
		<path class="st13" d="M497.3,292.3c-4.9,8.1-10.6,15.6-16.9,22.4l-30.9-28.6c4.5-4.8,8.5-10,12-15.6L497.3,292.3z"/>
		<path class="st14" d="M497.3,292.3c-4.9,8.1-10.6,15.6-16.9,22.4l-30.9-28.6c4.5-4.8,8.5-10,12-15.6L497.3,292.3z"/>
		<path class="st11" d="M413.4,355l-10.9-41.2c18.2-4.6,34.4-14.4,47-27.7l30.9,28.6C462.5,334,439.4,348.2,413.4,355"/>
		<path class="st12" d="M413.4,355l-10.9-41.2c18.2-4.6,34.4-14.4,47-27.7l30.9,28.6C462.5,334,439.4,348.2,413.4,355z"/>
		<path class="st59" d="M475.2,206.7l41.1-5.5c0.8,5.9,1.2,11.8,1.2,17.9l-41.5,0.2C476,215.1,475.7,210.9,475.2,206.7"/>
		<path class="st60" d="M475.2,206.7l41.1-5.5c0.8,5.9,1.2,11.8,1.2,17.9l-41.5,0.2C476,215.1,475.7,210.9,475.2,206.7z"/>
		<path class="st61" d="M512.8,183.4c1.6,5.8,2.8,11.8,3.6,17.9l-41.1,5.5c-0.5-4.3-1.4-8.5-2.5-12.6L512.8,183.4z"/>
		<path class="st62" d="M512.8,183.4c1.6,5.8,2.8,11.8,3.6,17.9l-41.1,5.5c-0.5-4.3-1.4-8.5-2.5-12.6L512.8,183.4z"/>
	</g>
</g>
<g>
	<path class="st63" d="M567.5,147c2.7,0,3.3,1.4,3.3,2.9c0,14.3-7.2,18.3-15.5,18.3c-11.9,0-16.7-9.3-16.7-18.8
		c0-9.2,5.3-18.8,16.6-18.8c7.5,0,13,4.1,13,5.7c0,1.4-0.9,2-1.9,2c-1.8,0-4.4-4.2-10.9-4.2c-8.9,0-12.6,8.2-12.6,15.4
		c0,8.4,4.1,15.4,12.8,15.4c8.3,0,11.3-6.9,11.3-14.3h-6.7c-1.2,0-2-0.8-2-1.7c0-0.9,0.8-1.7,2-1.7L567.5,147L567.5,147z"/>
	<path class="st63" d="M579.5,164.4h10c1.2,0,2,0.8,2,1.7c0,0.9-0.8,1.7-2,1.7h-12c-1.1,0-1.9-0.8-1.9-1.9v-33
		c0-1.6,0.7-2.4,1.9-2.4s1.9,0.8,1.9,2.4V164.4z"/>
	<path class="st63" d="M610.2,130.6c10.7,0,16.1,9.4,16.1,18.8c0,9.4-5.4,18.8-16.1,18.8s-16.1-9.4-16.1-18.8
		C594,140,599.4,130.6,610.2,130.6z M622.1,149.4c0-6.9-3-15.4-12-15.4c-8.9,0-12,8.4-12,15.4s3,15.4,12,15.4
		S622.1,156.3,622.1,149.4z"/>
	<path class="st63" d="M632,132.8c0-1.3,0.6-2,2.3-2h6.9c8.3,0,11,5.1,11,9.2c0,4.4-2.1,6.4-5.4,7.7v0.1c5.2,0.8,8.3,4.1,8.3,9.3
		c0,5.6-3.7,10.6-12.1,10.6h-8.8c-1.7,0-2.3-0.7-2.3-2V132.8z M635.8,146.7h5.6c4,0,7-2.7,7-6.4c0-3-2.3-6-6.8-6h-5.7V146.7z
		 M635.8,164.4h6.8c5.4,0,8.7-2.5,8.7-7.3c0-4.3-3.5-7.3-8.7-7.3h-6.8V164.4z"/>
	<path class="st63" d="M661.7,166.4c-0.5,0.9-0.8,1.7-2.1,1.7c-1.1,0-1.7-0.7-1.7-1.4c0-0.4,0.2-1,0.4-1.6l12.2-31.9
		c0.5-1.2,1.1-2.7,3-2.7s2.5,1.5,3,2.7l12.2,31.9c0.2,0.5,0.4,1.1,0.4,1.6c0,0.8-0.6,1.4-1.7,1.4c-1.3,0-1.8-0.8-2.1-1.7l-2.5-6.6
		h-18.5L661.7,166.4z M673.5,135.4h-0.1l-7.9,20.9h15.9L673.5,135.4z"/>
	<path class="st63" d="M697.2,164.4h10c1.2,0,2,0.8,2,1.7c0,0.9-0.8,1.7-2,1.7h-12c-1.1,0-1.9-0.8-1.9-1.9v-33
		c0-1.6,0.7-2.4,1.9-2.4c1.2,0,1.9,0.8,1.9,2.4L697.2,164.4L697.2,164.4z"/>
</g>
<g>
	<path class="st64" d="M545.1,209.3h12.1c1.3,0,2.1,0.8,2.1,1.7c0,0.9-0.8,1.7-2.1,1.7h-13.7c-1.8,0-2.4-0.7-2.4-2v-33
		c0-1.3,0.7-2,2.4-2h13.1c1.3,0,2.1,0.8,2.1,1.7c0,0.9-0.8,1.7-2.1,1.7h-11.5v13.4h11c1.3,0,2.1,0.8,2.1,1.7c0,0.9-0.8,1.7-2.1,1.7
		h-11L545.1,209.3L545.1,209.3z"/>
	<path class="st64" d="M569.8,210.7c0,1.6-0.7,2.4-2,2.4s-2-0.8-2-2.4v-33c0-1.4,0.9-2.2,2-2.2s1.8,0.6,2.3,1.4l21.2,29h0.1v-28
		c0-1.6,0.7-2.4,2-2.4s2,0.8,2,2.4v32.9c0,1.8-0.8,2.3-1.9,2.3c-1,0-1.5-0.5-2.2-1.4l-21.5-29.4h-0.1L569.8,210.7L569.8,210.7z"/>
	<path class="st64" d="M612.9,210.7c0,1.6-0.7,2.4-2,2.4s-2-0.8-2-2.4v-31.5h-7.7c-1.3,0-2.1-0.8-2.1-1.7c0-0.9,0.8-1.7,2.1-1.7
		h19.3c1.3,0,2.1,0.8,2.1,1.7c0,0.9-0.8,1.7-2.1,1.7h-7.7L612.9,210.7L612.9,210.7z"/>
	<path class="st64" d="M630.4,210.7c0,1.6-0.7,2.4-2,2.4s-2-0.8-2-2.4v-32.9c0-1.2,0.6-2,2.5-2h8.7c7.8,0,11.9,4.9,11.9,10
		c0,5.9-4.2,10.4-10.5,10.4h-3.7l13.6,13.6c0.6,0.6,0.8,0.9,0.8,1.6c0,0.9-0.9,1.6-1.8,1.6c-0.7,0-1.2-0.2-1.8-0.8l-15.8-15.9
		L630.4,210.7L630.4,210.7z M630.4,193.1h6.9c5.2,0,8.2-2.3,8.2-6.6c0-4.8-2.8-7.3-8.2-7.3h-6.9V193.1z"/>
	<path class="st64" d="M659.2,209.3h12.1c1.3,0,2.1,0.8,2.1,1.7c0,0.9-0.8,1.7-2.1,1.7h-13.7c-1.8,0-2.5-0.7-2.5-2v-33
		c0-1.3,0.7-2,2.5-2h13.1c1.3,0,2.1,0.8,2.1,1.7c0,0.9-0.8,1.7-2.1,1.7h-11.5v13.4h11c1.3,0,2.1,0.8,2.1,1.7c0,0.9-0.8,1.7-2.1,1.7
		h-11V209.3z"/>
	<path class="st64" d="M683.9,210.7c0,1.6-0.7,2.4-2,2.4s-2-0.8-2-2.4v-32.9c0-1.2,0.6-2,2.5-2h9.5c9,0,12.2,6.5,12.2,11.1
		c0,6.1-4.1,11.7-13.2,11.7h-7L683.9,210.7L683.9,210.7z M683.9,195.2h7.3c6.3,0,8.9-4.3,8.9-8c0-3.7-2.5-8-8.9-8h-7.3V195.2z"/>
	<path class="st64" d="M712.7,210.7c0,1.6-0.7,2.4-2,2.4s-2-0.8-2-2.4v-32.9c0-1.2,0.6-2,2.5-2h8.7c7.8,0,11.9,4.9,11.9,10
		c0,5.9-4.2,10.4-10.5,10.4h-3.7l13.7,13.6c0.6,0.6,0.8,0.9,0.8,1.6c0,0.9-0.9,1.6-1.8,1.6c-0.7,0-1.2-0.2-1.8-0.8l-15.8-15.9
		L712.7,210.7L712.7,210.7z M712.7,193.1h6.9c5.2,0,8.2-2.3,8.2-6.6c0-4.8-2.8-7.3-8.2-7.3h-6.9V193.1z"/>
	<path class="st64" d="M741.5,209.3h12.1c1.3,0,2.1,0.8,2.1,1.7c0,0.9-0.8,1.7-2.1,1.7H740c-1.8,0-2.4-0.7-2.4-2v-33
		c0-1.3,0.7-2,2.4-2H753c1.3,0,2.1,0.8,2.1,1.7c0,0.9-0.8,1.7-2.1,1.7h-11.5v13.4h11c1.3,0,2.1,0.8,2.1,1.7c0,0.9-0.8,1.7-2.1,1.7
		h-11V209.3z"/>
	<path class="st64" d="M766.2,210.7c0,1.6-0.7,2.4-2,2.4s-2-0.8-2-2.4v-33c0-1.4,0.9-2.2,2-2.2s1.8,0.6,2.3,1.4l21.2,29h0.1v-28
		c0-1.6,0.7-2.4,2-2.4s2,0.8,2,2.4v32.9c0,1.8-0.8,2.3-1.9,2.3c-1,0-1.5-0.5-2.2-1.4l-21.5-29.4h-0.1L766.2,210.7L766.2,210.7z"/>
	<path class="st64" d="M803.1,209.3h12.1c1.3,0,2.1,0.8,2.1,1.7c0,0.9-0.8,1.7-2.1,1.7h-13.7c-1.8,0-2.4-0.7-2.4-2v-33
		c0-1.3,0.7-2,2.4-2h13.1c1.3,0,2.1,0.8,2.1,1.7c0,0.9-0.8,1.7-2.1,1.7h-11.5v13.4h11c1.3,0,2.1,0.8,2.1,1.7c0,0.9-0.8,1.7-2.1,1.7
		h-11V209.3z"/>
	<path class="st64" d="M823.8,177.9c0-1.6,0.7-2.4,2-2.4s2,0.8,2,2.4v21.9c0,6.8,5.3,9.9,10.8,9.9s10.8-3.1,10.8-9.9v-21.9
		c0-1.6,0.7-2.4,2-2.4s2,0.8,2,2.4v22.3c0,8.5-7.2,12.9-14.8,12.9c-7.7,0-14.8-4.4-14.8-12.9V177.9z"/>
	<path class="st64" d="M864.8,210.7c0,1.6-0.7,2.4-2,2.4s-2-0.8-2-2.4v-32.9c0-1.2,0.6-2,2.5-2h8.7c7.8,0,11.9,4.9,11.9,10
		c0,5.9-4.2,10.4-10.5,10.4h-3.7l13.7,13.6c0.6,0.6,0.8,0.9,0.8,1.6c0,0.9-0.9,1.6-1.8,1.6c-0.7,0-1.2-0.2-1.8-0.8l-15.8-15.9
		L864.8,210.7L864.8,210.7z M864.8,193.1h6.9c5.2,0,8.2-2.3,8.2-6.6c0-4.8-2.8-7.3-8.2-7.3h-6.9V193.1z"/>
	<path class="st64" d="M887,208.6c0-1,0.8-1.8,1.9-1.8c0.5,0,1.4,0.5,1.9,0.9s3.7,1.9,6.5,1.9c5.5,0,9.1-4.1,9.1-8
		c0-8.9-18.8-5.4-18.8-16.7c0-6,5.4-9.3,11.4-9.4c4.3,0,9,2.3,9,4.1c0,1.1-0.9,2-1.7,2c-2,0-3.4-2.6-7.6-2.6c-4.2,0-7.2,2.7-7.2,5.8
		c0,8.1,18.8,4.8,18.8,16.7c0,6.7-4.9,11.7-12.5,11.7C891.4,213,887,210.7,887,208.6z"/>
	<path class="st64" d="M919.2,210.7c0,1.6-0.7,2.4-2,2.4s-2-0.8-2-2.4v-32.8c0-1.6,0.7-2.4,2-2.4s2,0.8,2,2.4v14.2h21.7v-14.2
		c0-1.6,0.7-2.4,2-2.4s2,0.8,2,2.4v32.8c0,1.6-0.7,2.4-2,2.4s-2-0.8-2-2.4v-15.2h-21.7V210.7z"/>
	<path class="st64" d="M956.3,210.7c0,1.6-0.7,2.4-2,2.4s-2-0.8-2-2.4v-32.8c0-1.6,0.7-2.4,2-2.4s2,0.8,2,2.4V210.7z"/>
	<path class="st64" d="M967.6,210.7c0,1.6-0.7,2.4-2,2.4s-2-0.8-2-2.4v-32.9c0-1.2,0.6-2,2.5-2h9.5c9,0,12.2,6.5,12.2,11.1
		c0,6.1-4.1,11.7-13.2,11.7h-7L967.6,210.7L967.6,210.7z M967.6,195.2h7.3c6.3,0,8.9-4.3,8.9-8c0-3.7-2.5-8-8.9-8h-7.3V195.2z"/>
</g>
<g>
	<path class="st65" d="M557.7,224c0.3-0.9,0.8-1.8,2.1-1.8s1.8,0.9,2.1,1.8l9.5,31.4h0.1l5.3-31.4c0.3-1.5,1.2-1.9,2.1-1.9
		c1,0,1.8,0.5,1.8,1.6c0,0.4-0.3,1.9-0.7,3.8l-5.8,30.1c-0.3,1.4-1.7,2.1-2.9,2.1c-1.4,0-2.5-0.6-3-2.1l-8.5-29.6h-0.1l-8.7,29.6
		c-0.4,1.5-1.5,2.1-3,2.1c-1.3,0-2.6-0.7-2.9-2.1l-5.5-30.1c-0.6-3-0.7-3.4-0.7-3.8c0-1,0.8-1.6,1.8-1.6c0.9,0,1.9,0.4,2.1,1.9
		l5.3,31.4h0.1L557.7,224z"/>
	<path class="st64" d="M589.8,256.1h12c1.3,0,2.1,0.8,2.1,1.7s-0.8,1.7-2.1,1.7h-13.5c-1.8,0-2.4-0.7-2.4-2v-33c0-1.3,0.7-2,2.4-2
		h13c1.3,0,2.1,0.8,2.1,1.7c0,0.9-0.8,1.7-2.1,1.7h-11.4v13.4h10.9c1.3,0,2.1,0.8,2.1,1.7c0,0.9-0.8,1.7-2.1,1.7h-10.9L589.8,256.1
		L589.8,256.1z"/>
	<path class="st66" d="M614.3,256.1h12c1.3,0,2.1,0.8,2.1,1.7s-0.8,1.7-2.1,1.7h-13.5c-1.8,0-2.4-0.7-2.4-2v-33c0-1.3,0.7-2,2.4-2
		h13c1.3,0,2.1,0.8,2.1,1.7c0,0.9-0.8,1.7-2.1,1.7h-11.4v13.4h10.9c1.3,0,2.1,0.8,2.1,1.7c0,0.9-0.8,1.7-2.1,1.7h-10.9L614.3,256.1
		L614.3,256.1z"/>
	<path class="st65" d="M638.7,257.5c0,1.6-0.7,2.4-2,2.4c-1.3,0-2-0.8-2-2.4v-32.8c0-1.6,0.7-2.4,2-2.4c1.3,0,2,0.8,2,2.4v13.8
		l17.5-14.9c0.9-0.8,1.5-1.2,2.4-1.2c1.2,0,1.7,0.8,1.7,1.6c0,0.6-0.1,1-0.9,1.6L642.3,240l18.5,16.6c0.6,0.5,0.9,1.2,0.9,1.7
		c0,0.8-0.7,1.6-1.8,1.6c-0.9,0-1.6-0.5-2.4-1.2l-18.9-17V257.5z"/>
</g>
<g>
	<path class="st63" d="M542.9,304.1c0,1.6-0.7,2.4-1.9,2.4s-1.9-0.8-1.9-2.4v-32.9c0-1.2,0.6-2,2.4-2h9c8.5,0,11.5,6.5,11.5,11.1
		c0,6.1-3.9,11.7-12.5,11.7h-6.6L542.9,304.1L542.9,304.1z M542.9,288.6h6.9c6,0,8.4-4.3,8.4-8c0-3.7-2.4-8-8.4-8h-6.9V288.6z"/>
	<path class="st63" d="M570.1,302.8h11.4c1.2,0,2,0.8,2,1.7s-0.8,1.7-2,1.7h-12.9c-1.7,0-2.3-0.7-2.3-2v-33c0-1.3,0.6-2,2.3-2H581
		c1.2,0,2,0.8,2,1.7s-0.8,1.7-2,1.7h-10.8V286h10.4c1.2,0,2,0.8,2,1.7s-0.8,1.7-2,1.7h-10.4V302.8z"/>
	<path class="st63" d="M593.3,304.1c0,1.6-0.7,2.4-1.9,2.4s-1.9-0.8-1.9-2.4v-33c0-1.5,0.8-2.2,1.9-2.2s1.7,0.6,2.2,1.4l20,29h0.1
		v-28c0-1.6,0.7-2.4,1.9-2.4s1.9,0.8,1.9,2.4v32.9c0,1.8-0.7,2.3-1.8,2.3c-1,0-1.4-0.5-2-1.4l-20.3-29.4h-0.1L593.3,304.1
		L593.3,304.1z"/>
	<path class="st63" d="M628.3,304.1c0,1.6-0.7,2.4-1.9,2.4s-1.9-0.8-1.9-2.4v-33c0-1.5,0.8-2.2,1.9-2.2s1.7,0.6,2.2,1.4l20,29h0.1
		v-28c0-1.6,0.7-2.4,1.9-2.4s1.9,0.8,1.9,2.4v32.9c0,1.8-0.7,2.3-1.8,2.3c-1,0-1.4-0.5-2-1.4l-20.3-29.4h-0.1L628.3,304.1
		L628.3,304.1z"/>
	<path class="st63" d="M669.5,302.1c0-1,0.8-1.8,1.8-1.8c0.4,0,1.4,0.5,1.8,0.9c0.4,0.4,3.5,1.9,6.2,1.9c5.2,0,8.6-4.1,8.6-8
		c0-8.9-17.7-5.5-17.7-16.7c0-6,5.1-9.3,10.8-9.4c4.1,0,8.5,2.3,8.5,4c0,1.1-0.9,2-1.6,2c-1.9,0-3.2-2.6-7.2-2.6
		c-3.9,0-6.8,2.7-6.8,5.8c0,8.1,17.7,4.8,17.7,16.7c0,6.7-4.7,11.7-11.8,11.7C673.6,306.5,669.5,304.1,669.5,302.1z"/>
	<path class="st63" d="M705.8,304.1c0,1.6-0.7,2.4-1.9,2.4s-1.9-0.8-1.9-2.4v-31.5h-7.2c-1.2,0-2-0.8-2-1.7s0.8-1.7,2-1.7H713
		c1.2,0,2,0.8,2,1.7s-0.8,1.7-2,1.7h-7.2V304.1z"/>
	<path class="st63" d="M715.7,304.8c-0.5,0.9-0.8,1.7-2.1,1.7c-1.1,0-1.7-0.7-1.7-1.5c0-0.4,0.2-1,0.4-1.6l12-31.9
		c0.5-1.2,1-2.7,2.9-2.7c1.9,0,2.5,1.5,2.9,2.7l12,31.9c0.2,0.5,0.4,1.1,0.4,1.6c0,0.8-0.6,1.5-1.7,1.5c-1.3,0-1.7-0.8-2.1-1.7
		l-2.5-6.6h-18.1L715.7,304.8z M727.3,273.8h-0.1l-7.8,20.9H735L727.3,273.8z"/>
	<path class="st63" d="M752.4,304.1c0,1.6-0.7,2.4-1.9,2.4s-1.9-0.8-1.9-2.4v-31.5h-7.2c-1.2,0-2-0.8-2-1.7s0.8-1.7,2-1.7h18.2
		c1.2,0,2,0.8,2,1.7s-0.8,1.7-2,1.7h-7.2V304.1z"/>
	<path class="st63" d="M768.9,302.8h11.4c1.2,0,2,0.8,2,1.7s-0.8,1.7-2,1.7h-12.9c-1.7,0-2.3-0.7-2.3-2v-33c0-1.3,0.6-2,2.3-2h12.4
		c1.2,0,2,0.8,2,1.7s-0.8,1.7-2,1.7H769V286h10.4c1.2,0,2,0.8,2,1.7s-0.8,1.7-2,1.7h-10.4V302.8z"/>
</g>
</svg>
