<?xml version="1.0" encoding="utf-8"?>
<!-- Generator: Adobe Illustrator 23.0.1, SVG Export Plug-In . SVG Version: 6.00 Build 0)  -->
<svg version="1.0" xmlns="http://www.w3.org/2000/svg" xmlns:xlink="http://www.w3.org/1999/xlink" x="0px" y="0px"
	 viewBox="0 0 1280 800" style="enable-background:new 0 0 1280 800;" xml:space="preserve">
<style type="text/css">
	.st0{display:none;}
	.st1{fill-rule:evenodd;clip-rule:evenodd;fill:#FAC9CB;}
	.st2{fill:none;stroke:#FAC9CB;stroke-width:0.8981;stroke-miterlimit:3.864;}
	.st3{fill-rule:evenodd;clip-rule:evenodd;fill:#FFFFFF;}
	.st4{fill-rule:evenodd;clip-rule:evenodd;fill:#92D6E6;}
	.st5{fill:none;stroke:#92D6E6;stroke-width:0.8981;stroke-miterlimit:3.864;}
	.st6{fill-rule:evenodd;clip-rule:evenodd;fill:#7F1D5B;}
	.st7{fill:none;stroke:#7F1D5B;stroke-width:0.8981;stroke-miterlimit:3.864;}
	.st8{fill:none;stroke:#FFFFFF;stroke-width:0.8981;stroke-miterlimit:3.864;}
	.st9{fill-rule:evenodd;clip-rule:evenodd;fill:#B0BFC8;}
	.st10{fill:none;stroke:#B0BFC8;stroke-width:0.8981;stroke-miterlimit:3.864;}
	.st11{fill-rule:evenodd;clip-rule:evenodd;fill:#E1E2E3;}
	.st12{fill:none;stroke:#E1E2E3;stroke-width:0.8981;stroke-miterlimit:3.864;}
	.st13{fill-rule:evenodd;clip-rule:evenodd;fill:#F4EB26;}
	.st14{fill:none;stroke:#F4EB26;stroke-width:0.8981;stroke-miterlimit:3.864;}
	.st15{fill-rule:evenodd;clip-rule:evenodd;fill:#D5DE28;}
	.st16{fill:none;stroke:#D5DE28;stroke-width:0.8981;stroke-miterlimit:3.864;}
	.st17{fill-rule:evenodd;clip-rule:evenodd;fill:#78421B;}
	.st18{fill:none;stroke:#78421B;stroke-width:0.8981;stroke-miterlimit:3.864;}
	.st19{fill-rule:evenodd;clip-rule:evenodd;fill:#8EA2AD;}
	.st20{fill:none;stroke:#8EA2AD;stroke-width:0.8981;stroke-miterlimit:3.864;}
	.st21{fill-rule:evenodd;clip-rule:evenodd;fill:#C52127;}
	.st22{fill:none;stroke:#C52127;stroke-width:0.8981;stroke-miterlimit:3.864;}
	.st23{fill-rule:evenodd;clip-rule:evenodd;fill:#EC6A56;}
	.st24{fill:none;stroke:#EC6A56;stroke-width:0.8981;stroke-miterlimit:3.864;}
	.st25{fill-rule:evenodd;clip-rule:evenodd;fill:#C8652C;}
	.st26{fill:none;stroke:#C8652C;stroke-width:0.8981;stroke-miterlimit:3.864;}
	.st27{fill-rule:evenodd;clip-rule:evenodd;fill:#EC2B26;}
	.st28{fill:none;stroke:#EC2B26;stroke-width:0.8981;stroke-miterlimit:3.864;}
	.st29{fill-rule:evenodd;clip-rule:evenodd;fill:#C52C2C;}
	.st30{fill:none;stroke:#C52C2C;stroke-width:0.8981;stroke-miterlimit:3.864;}
	.st31{fill-rule:evenodd;clip-rule:evenodd;fill:#F8E2B0;}
	.st32{fill:none;stroke:#F8E2B0;stroke-width:0.8981;stroke-miterlimit:3.864;}
	.st33{fill-rule:evenodd;clip-rule:evenodd;fill:#D68528;}
	.st34{fill:none;stroke:#D68528;stroke-width:0.8981;stroke-miterlimit:3.864;}
	.st35{fill-rule:evenodd;clip-rule:evenodd;fill:#F2B598;}
	.st36{fill:none;stroke:#F2B598;stroke-width:0.8981;stroke-miterlimit:3.864;}
	.st37{fill-rule:evenodd;clip-rule:evenodd;fill:#F6A1B6;}
	.st38{fill:none;stroke:#F6A1B6;stroke-width:0.8981;stroke-miterlimit:3.864;}
	.st39{fill-rule:evenodd;clip-rule:evenodd;fill:#FAC9D4;}
	.st40{fill:none;stroke:#FAC9D4;stroke-width:0.8981;stroke-miterlimit:3.864;}
	.st41{fill-rule:evenodd;clip-rule:evenodd;fill:#8D80B3;}
	.st42{fill:none;stroke:#8D80B3;stroke-width:0.8981;stroke-miterlimit:3.864;}
	.st43{fill-rule:evenodd;clip-rule:evenodd;fill:#807087;}
	.st44{fill:none;stroke:#807087;stroke-width:0.8981;stroke-miterlimit:3.864;}
	.st45{fill-rule:evenodd;clip-rule:evenodd;fill:#5571B6;}
	.st46{fill:none;stroke:#5571B6;stroke-width:0.8981;stroke-miterlimit:3.864;}
	.st47{fill-rule:evenodd;clip-rule:evenodd;fill:#8699CE;}
	.st48{fill:none;stroke:#8699CE;stroke-width:0.8981;stroke-miterlimit:3.864;}
	.st49{fill-rule:evenodd;clip-rule:evenodd;fill:#5E63A5;}
	.st50{fill:none;stroke:#5E63A5;stroke-width:0.8981;stroke-miterlimit:3.864;}
	.st51{fill-rule:evenodd;clip-rule:evenodd;fill:#366FAC;}
	.st52{fill:none;stroke:#366FAC;stroke-width:0.8981;stroke-miterlimit:3.864;}
	.st53{fill-rule:evenodd;clip-rule:evenodd;fill:#F89D1E;}
	.st54{fill:none;stroke:#F89D1E;stroke-width:0.8981;stroke-miterlimit:3.864;}
	.st55{fill-rule:evenodd;clip-rule:evenodd;fill:#4A2C13;}
	.st56{fill:none;stroke:#4A2C13;stroke-width:0.8981;stroke-miterlimit:3.864;}
	.st57{fill-rule:evenodd;clip-rule:evenodd;fill:#A62171;}
	.st58{fill:none;stroke:#A62171;stroke-width:0.8981;stroke-miterlimit:3.864;}
	.st59{fill-rule:evenodd;clip-rule:evenodd;fill:#5A96A6;}
	.st60{fill:none;stroke:#5A96A6;stroke-width:0.8981;stroke-miterlimit:3.864;}
	.st61{fill-rule:evenodd;clip-rule:evenodd;fill:#009BC9;}
	.st62{fill:none;stroke:#009BC9;stroke-width:0.8981;stroke-miterlimit:3.864;}
	.st63{fill:#F7F8F9;}
	.st64{fill:#F9F9FA;}
	.st65{fill:#F5F6F7;}
	.st66{fill:#FDFEFE;}
	.st67{fill:#8EA2AD;}
</style>
<g id="background" class="st0">
</g>
<g id="Layer_2">
	<g>
		<g>
			<g>
				<path class="st1" d="M394.2,80.73c10.57,1.25,20.77,3.68,30.47,7.14l-14.01,39.06c-6.83-2.4-14.01-4.06-21.45-4.88L394.2,80.73z
					"/>
				<path class="st2" d="M394.2,80.73c10.57,1.25,20.77,3.68,30.47,7.14l-14.01,39.06c-6.83-2.4-14.01-4.06-21.45-4.88L394.2,80.73z
					"/>
				<path class="st3" d="M424.71,87.89c1.48,0.52,2.94,1.08,4.39,1.65l-15.32,38.55c-1.02-0.4-2.05-0.78-3.09-1.14L424.71,87.89z"/>
				<path class="st4" d="M429.14,89.56c2.24,0.89,4.45,1.84,6.64,2.83l-17.28,37.68c-1.54-0.69-3.1-1.35-4.67-1.96L429.14,89.56z"/>
				<path class="st5" d="M429.14,89.56c2.24,0.89,4.45,1.84,6.64,2.83l-17.28,37.68c-1.54-0.69-3.1-1.35-4.67-1.96L429.14,89.56z"/>
				<path class="st4" d="M435.81,92.41c11.14,5.1,21.48,11.62,30.81,19.32l-26.35,31.88c-6.58-5.4-13.88-9.97-21.74-13.53
					L435.81,92.41z"/>
				<path class="st5" d="M435.81,92.41c11.14,5.1,21.48,11.62,30.81,19.32l-26.35,31.88c-6.58-5.4-13.88-9.97-21.74-13.53
					L435.81,92.41z"/>
				<path class="st6" d="M491.57,138.51c1.06,1.49,2.09,2.99,3.1,4.53l-34.6,22.61c-0.71-1.07-1.43-2.13-2.18-3.18L491.57,138.51z"
					/>
				<path class="st7" d="M491.57,138.51c1.06,1.49,2.09,2.99,3.1,4.53l-34.6,22.61c-0.71-1.07-1.43-2.13-2.18-3.18L491.57,138.51z"
					/>
				<path class="st3" d="M494.69,143.08c5.52,8.42,10.16,17.46,13.78,27.01l-38.7,14.65c-2.54-6.73-5.79-13.1-9.68-19.04
					L494.69,143.08z"/>
				<path class="st8" d="M494.69,143.08c5.52,8.42,10.16,17.46,13.78,27.01l-38.7,14.65c-2.54-6.73-5.79-13.1-9.68-19.04
					L494.69,143.08z"/>
				<path class="st9" d="M508.48,170.12c1.63,4.3,3.05,8.7,4.26,13.18l-39.99,10.75c-0.84-3.16-1.83-6.26-2.97-9.29L508.48,170.12z"
					/>
				<path class="st10" d="M508.48,170.12c1.63,4.3,3.05,8.7,4.26,13.18l-39.99,10.75c-0.84-3.16-1.83-6.26-2.97-9.29L508.48,170.12z
					"/>
				<path class="st11" d="M517.49,222.26c-0.21,11.41-1.78,22.48-4.54,33.05l-40.33-10.6c2.05-7.6,3.22-15.56,3.36-23.78l0.02-1.6
					l41.52-0.16C517.52,220.2,517.51,221.23,517.49,222.26"/>
				<path class="st12" d="M517.49,222.26c-0.21,11.41-1.78,22.48-4.54,33.05l-40.33-10.6c2.05-7.6,3.22-15.56,3.36-23.78l0.02-1.6
					l41.52-0.16C517.52,220.2,517.51,221.23,517.49,222.26z"/>
				<path class="st13" d="M512.94,255.35c-2.04,7.78-4.73,15.28-8.01,22.47l-38.07-17.35c2.35-5.02,4.28-10.27,5.75-15.72
					L512.94,255.35z"/>
				<path class="st14" d="M512.94,255.35c-2.04,7.78-4.73,15.28-8.01,22.47l-38.07-17.35c2.35-5.02,4.28-10.27,5.75-15.72
					L512.94,255.35z"/>
				<path class="st15" d="M504.91,277.86c-2.27,4.96-4.82,9.76-7.63,14.38l-35.87-21.7c1.99-3.23,3.81-6.57,5.43-10.03
					L504.91,277.86z"/>
				<path class="st16" d="M504.91,277.86c-2.27,4.96-4.82,9.76-7.63,14.38l-35.87-21.7c1.99-3.23,3.81-6.57,5.43-10.03
					L504.91,277.86z"/>
				<path class="st17" d="M413.32,355.06c-1.31,0.35-2.63,0.67-3.95,0.98l-9.73-41.52c0.92-0.2,1.84-0.42,2.74-0.65L413.32,355.06z"
					/>
				<path class="st18" d="M413.32,355.06c-1.31,0.35-2.63,0.67-3.95,0.98l-9.73-41.52c0.92-0.2,1.84-0.42,2.74-0.65L413.32,355.06z"
					/>
				<path class="st19" d="M358.61,358.39c-8.25-1.12-16.27-2.95-24-5.44L347.77,312c5.34,1.75,10.89,3.06,16.6,3.88L358.61,358.39z"
					/>
				<path class="st20" d="M358.61,358.39c-8.25-1.12-16.27-2.95-24-5.44L347.77,312c5.34,1.75,10.89,3.06,16.6,3.88L358.61,358.39z"
					/>
				<path class="st21" d="M334.57,352.94c-4.16-1.34-8.24-2.87-12.22-4.58l16.95-39.59c2.75,1.2,5.56,2.27,8.44,3.22L334.57,352.94z
					"/>
				<path class="st22" d="M334.57,352.94c-4.16-1.34-8.24-2.87-12.22-4.58l16.95-39.59c2.75,1.2,5.56,2.27,8.44,3.22L334.57,352.94z
					"/>
				<path class="st23" d="M299.09,335.62l24.15-35.73c5.02,3.43,10.38,6.41,16.02,8.87l-16.95,39.59
					C314.13,344.83,306.36,340.55,299.09,335.62"/>
				<path class="st24" d="M299.09,335.62l24.15-35.73c5.02,3.43,10.38,6.41,16.02,8.87l-16.95,39.59
					C314.13,344.83,306.36,340.55,299.09,335.62z"/>
				<path class="st25" d="M299.05,335.59c-1.72-1.16-3.41-2.37-5.07-3.6l25.73-34.63c1.14,0.85,2.31,1.69,3.49,2.5L299.05,335.59z"
					/>
				<path class="st26" d="M299.05,335.59c-1.72-1.16-3.41-2.37-5.07-3.6l25.73-34.63c1.14,0.85,2.31,1.69,3.49,2.5L299.05,335.59z"
					/>
				<path class="st15" d="M293.95,331.96c-5.07-3.78-9.87-7.9-14.38-12.32l30.2-30.84c3.11,3.06,6.42,5.91,9.91,8.54L293.95,331.96z
					"/>
				<path class="st16" d="M293.95,331.96c-5.07-3.78-9.87-7.9-14.38-12.32l30.2-30.84c3.11,3.06,6.42,5.91,9.91,8.54L293.95,331.96z
					"/>
				<path class="st27" d="M279.54,319.61c-12.75-12.51-23.11-27.45-30.34-44.03l39.57-17.24c5.02,11.45,12.18,21.77,20.98,30.43
					L279.54,319.61z"/>
				<path class="st28" d="M279.54,319.61c-12.75-12.51-23.11-27.45-30.34-44.03l39.57-17.24c5.02,11.45,12.18,21.77,20.98,30.43
					L279.54,319.61z"/>
				<path class="st29" d="M249.18,275.54c-0.58-1.33-1.14-2.67-1.67-4.02l40.08-15.98c0.37,0.93,0.76,1.85,1.16,2.77L249.18,275.54z
					"/>
				<path class="st30" d="M249.18,275.54c-0.58-1.33-1.14-2.67-1.67-4.02l40.08-15.98c0.37,0.93,0.76,1.85,1.16,2.77L249.18,275.54z
					"/>
				<path class="st31" d="M247.49,271.48c-3.07-7.71-5.48-15.76-7.15-24.06l42.24-8.53c1.18,5.73,2.86,11.29,4.99,16.61
					L247.49,271.48z"/>
				<path class="st32" d="M247.49,271.48c-3.07-7.71-5.48-15.76-7.15-24.06l42.24-8.53c1.18,5.73,2.86,11.29,4.99,16.61
					L247.49,271.48z"/>
				<path class="st33" d="M237.63,217.16c0.1-5.67,0.54-11.26,1.3-16.74l42.5,5.92c-0.47,3.62-0.75,7.3-0.82,11.03
					c-0.03,1.46-0.02,2.9,0.02,4.34l-42.99,0.9C237.59,220.81,237.59,218.99,237.63,217.16"/>
				<path class="st34" d="M237.63,217.16c0.1-5.67,0.54-11.26,1.3-16.74l42.5,5.92c-0.47,3.62-0.75,7.3-0.82,11.03
					c-0.03,1.46-0.02,2.9,0.02,4.34l-42.99,0.9C237.59,220.81,237.59,218.99,237.63,217.16z"/>
				<path class="st27" d="M238.93,200.37c1.16-8.39,3.06-16.54,5.63-24.38l40.65,13.38c-1.74,5.44-3.02,11.11-3.78,16.92
					L238.93,200.37z"/>
				<path class="st28" d="M238.93,200.37c1.16-8.39,3.06-16.54,5.63-24.38l40.65,13.38c-1.74,5.44-3.02,11.11-3.78,16.92
					L238.93,200.37z"/>
				<path class="st35" d="M254.64,152.72c1.97-3.62,4.1-7.14,6.37-10.54l35.42,23.6c-1.56,2.38-3.01,4.84-4.36,7.36L254.64,152.72z"
					/>
				<path class="st36" d="M254.64,152.72c1.97-3.62,4.1-7.14,6.37-10.54l35.42,23.6c-1.56,2.38-3.01,4.84-4.36,7.36L254.64,152.72z"
					/>
				<path class="st37" d="M261.04,142.14c1.68-2.52,3.44-4.98,5.27-7.37l33.76,25.82c-1.26,1.68-2.46,3.4-3.62,5.16L261.04,142.14z"
					/>
				<path class="st38" d="M261.04,142.14c1.68-2.52,3.44-4.98,5.27-7.37l33.76,25.82c-1.26,1.68-2.46,3.4-3.62,5.16L261.04,142.14z"
					/>
				<path class="st37" d="M266.34,134.73c7.24-9.46,15.66-17.96,25.03-25.3l26,33.33c-6.48,5.17-12.28,11.15-17.27,17.79
					L266.34,134.73z"/>
				<path class="st38" d="M266.34,134.73c7.24-9.46,15.66-17.96,25.03-25.3l26,33.33c-6.48,5.17-12.28,11.15-17.27,17.79
					L266.34,134.73z"/>
				<path class="st39" d="M291.4,109.41c3.57-2.79,7.28-5.41,11.11-7.85l22.58,35.63c-2.66,1.73-5.23,3.58-7.7,5.55L291.4,109.41z"
					/>
				<path class="st40" d="M291.4,109.41c3.57-2.79,7.28-5.41,11.11-7.85l22.58,35.63c-2.66,1.73-5.23,3.58-7.7,5.55L291.4,109.41z"
					/>
				<path class="st41" d="M302.55,101.53c1.56-0.99,3.14-1.95,4.74-2.88l21.12,36.47c-1.11,0.66-2.2,1.34-3.28,2.04L302.55,101.53z"
					/>
				<path class="st42" d="M302.55,101.53c1.56-0.99,3.14-1.95,4.74-2.88l21.12,36.47c-1.11,0.66-2.2,1.34-3.28,2.04L302.55,101.53z"
					/>
				<path class="st43" d="M307.32,98.63c1.6-0.93,3.22-1.83,4.86-2.7l19.63,37.26c-1.14,0.62-2.26,1.26-3.37,1.92L307.32,98.63z"/>
				<path class="st44" d="M307.32,98.63c1.6-0.93,3.22-1.83,4.86-2.7l19.63,37.26c-1.14,0.62-2.26,1.26-3.37,1.92L307.32,98.63z"/>
				<path class="st3" d="M312.22,95.9c3.8-2.01,7.7-3.85,11.69-5.5l16.06,38.84c-2.78,1.19-5.49,2.5-8.13,3.92L312.22,95.9z"/>
				<path class="st8" d="M312.22,95.9c3.8-2.01,7.7-3.85,11.69-5.5l16.06,38.84c-2.78,1.19-5.49,2.5-8.13,3.92L312.22,95.9z"/>
				<path class="st45" d="M323.96,90.38c2.21-0.92,4.45-1.78,6.71-2.59l14.02,39.58c-1.58,0.58-3.13,1.2-4.67,1.85L323.96,90.38z"/>
				<path class="st46" d="M323.96,90.38c2.21-0.92,4.45-1.78,6.71-2.59l14.02,39.58c-1.58,0.58-3.13,1.2-4.67,1.85L323.96,90.38z"/>
				<path class="st47" d="M330.71,87.78c9.23-3.28,18.9-5.62,28.89-6.9l5.31,41.47c-6.99,0.96-13.75,2.65-20.19,5.01L330.71,87.78z"
					/>
				<path class="st48" d="M330.71,87.78c9.23-3.28,18.9-5.62,28.89-6.9l5.31,41.47c-6.99,0.96-13.75,2.65-20.19,5.01L330.71,87.78z"
					/>
				<path class="st41" d="M394.15,80.73l-4.98,41.32c-2.99-0.33-6.03-0.53-9.1-0.58c-1.21-0.02-2.41-0.02-3.6,0l-0.4-41.71
					c1.35-0.01,2.69-0.01,4.05,0.02C384.86,79.86,389.54,80.18,394.15,80.73"/>
				<path class="st42" d="M394.15,80.73l-4.98,41.32c-2.99-0.33-6.03-0.53-9.1-0.58c-1.21-0.02-2.41-0.02-3.6,0l-0.4-41.71
					c1.35-0.01,2.69-0.01,4.05,0.02C384.86,79.86,389.54,80.18,394.15,80.73z"/>
				<path class="st49" d="M376.02,79.76l0.41,41.71c-1.53,0.03-3.06,0.09-4.57,0.19l-2.37-41.68
					C371.65,79.86,373.83,79.78,376.02,79.76"/>
				<path class="st50" d="M376.02,79.76l0.41,41.71c-1.53,0.03-3.06,0.09-4.57,0.19l-2.37-41.68
					C371.65,79.86,373.83,79.78,376.02,79.76z"/>
				<path class="st45" d="M359.65,80.88c1.98-0.25,3.97-0.46,5.98-0.63l3.51,41.62c-1.4,0.13-2.79,0.29-4.18,0.48L359.65,80.88z"/>
				<path class="st46" d="M359.65,80.88c1.98-0.25,3.97-0.46,5.98-0.63l3.51,41.62c-1.4,0.13-2.79,0.29-4.18,0.48L359.65,80.88z"/>
				<path class="st51" d="M369.44,79.98l2.37,41.68c-0.88,0.05-1.76,0.13-2.63,0.21l-3.51-41.62
					C366.92,80.14,368.18,80.05,369.44,79.98"/>
				<path class="st52" d="M369.44,79.98l2.37,41.68c-0.88,0.05-1.76,0.13-2.63,0.21l-3.51-41.62
					C366.92,80.14,368.18,80.05,369.44,79.98z"/>
				<path class="st31" d="M254.62,152.76l37.44,20.42c-0.27,0.51-0.54,1.02-0.8,1.53l-37.82-19.75
					C253.83,154.22,254.22,153.49,254.62,152.76"/>
				<path class="st32" d="M254.62,152.76l37.44,20.42c-0.27,0.51-0.54,1.02-0.8,1.53l-37.82-19.75
					C253.83,154.22,254.22,153.49,254.62,152.76z"/>
				<path class="st53" d="M244.58,175.95c0.78-2.37,1.62-4.7,2.52-7.01l39.83,15.52c-0.61,1.61-1.18,3.23-1.7,4.88L244.58,175.95z"
					/>
				<path class="st54" d="M244.58,175.95c0.78-2.37,1.62-4.7,2.52-7.01l39.83,15.52c-0.61,1.61-1.18,3.23-1.7,4.88L244.58,175.95z"
					/>
				<path class="st33" d="M286.94,184.42l-39.83-15.52c1.86-4.77,3.97-9.41,6.31-13.9l37.82,19.74
					C289.64,177.87,288.2,181.11,286.94,184.42"/>
				<path class="st34" d="M286.94,184.42l-39.83-15.52c1.86-4.77,3.97-9.41,6.31-13.9l37.82,19.74
					C289.64,177.87,288.2,181.11,286.94,184.42z"/>
				<path class="st55" d="M358.65,358.4l5.76-42.52c3.96,0.56,8,0.89,12.1,0.96c3.19,0.06,6.34-0.04,9.45-0.27l3.77,42.58
					c-4.84,0.42-9.76,0.58-14.72,0.5C369.47,359.54,364.01,359.12,358.65,358.4"/>
				<path class="st56" d="M358.65,358.4l5.76-42.52c3.96,0.56,8,0.89,12.1,0.96c3.19,0.06,6.34-0.04,9.45-0.27l3.77,42.58
					c-4.84,0.42-9.76,0.58-14.72,0.5C369.47,359.54,364.01,359.12,358.65,358.4z"/>
				<path class="st17" d="M409.32,356.05c-6.36,1.48-12.89,2.52-19.55,3.1L386,316.56c4.63-0.37,9.17-1.04,13.6-2.03L409.32,356.05z
					"/>
				<path class="st18" d="M409.32,356.05c-6.36,1.48-12.89,2.52-19.55,3.1L386,316.56c4.63-0.37,9.17-1.04,13.6-2.03L409.32,356.05z
					"/>
				<path class="st4" d="M466.66,111.77c5.01,4.14,9.72,8.62,14.1,13.4l-30.51,27.9c-3.09-3.36-6.42-6.51-9.95-9.42L466.66,111.77z"
					/>
				<path class="st5" d="M466.66,111.77c5.01,4.14,9.72,8.62,14.1,13.4l-30.51,27.9c-3.09-3.36-6.42-6.51-9.95-9.42L466.66,111.77z"
					/>
				<path class="st57" d="M491.54,138.48l-33.68,23.97c-2.33-3.27-4.86-6.39-7.58-9.35l30.51-27.89
					C484.63,129.4,488.23,133.83,491.54,138.48"/>
				<path class="st58" d="M491.54,138.48l-33.68,23.97c-2.33-3.27-4.86-6.39-7.58-9.35l30.51-27.89
					C484.63,129.4,488.23,133.83,491.54,138.48z"/>
				<path class="st3" d="M240.33,247.37c-0.79-3.95-1.42-7.96-1.87-12.03l42.77-4.85c0.33,2.82,0.77,5.6,1.33,8.35L240.33,247.37z"
					/>
				<path class="st8" d="M240.33,247.37c-0.79-3.95-1.42-7.96-1.87-12.03l42.77-4.85c0.33,2.82,0.77,5.6,1.33,8.35L240.33,247.37z"
					/>
				<path class="st53" d="M237.63,222.66l42.99-0.9c0.08,2.93,0.28,5.84,0.61,8.7l-42.77,4.84
					C238,231.13,237.72,226.92,237.63,222.66"/>
				<path class="st54" d="M237.63,222.66l42.99-0.9c0.08,2.93,0.28,5.84,0.61,8.7l-42.77,4.84
					C238,231.13,237.72,226.92,237.63,222.66z"/>
				<path class="st13" d="M497.26,292.28c-4.89,8.06-10.57,15.57-16.93,22.44l-30.93-28.56c4.5-4.77,8.52-9.99,11.99-15.59
					L497.26,292.28z"/>
				<path class="st14" d="M497.26,292.28c-4.89,8.06-10.57,15.57-16.93,22.44l-30.93-28.56c4.5-4.77,8.52-9.99,11.99-15.59
					L497.26,292.28z"/>
				<path class="st11" d="M413.36,355.05l-10.94-41.19c18.21-4.63,34.42-14.38,46.95-27.66l30.92,28.56
					C462.5,333.98,439.39,348.18,413.36,355.05"/>
				<path class="st12" d="M413.36,355.05l-10.94-41.19c18.21-4.63,34.42-14.38,46.95-27.66l30.92,28.56
					C462.5,333.98,439.39,348.18,413.36,355.05z"/>
				<path class="st59" d="M475.22,206.74l41.1-5.47c0.77,5.85,1.18,11.81,1.2,17.85L476,219.31
					C476.01,215.05,475.74,210.85,475.22,206.74"/>
				<path class="st60" d="M475.22,206.74l41.1-5.47c0.77,5.85,1.18,11.81,1.2,17.85L476,219.31
					C476.01,215.05,475.74,210.85,475.22,206.74z"/>
				<path class="st61" d="M512.75,183.35c1.56,5.82,2.76,11.79,3.56,17.88l-41.1,5.47c-0.54-4.29-1.37-8.5-2.46-12.6L512.75,183.35z
					"/>
				<path class="st62" d="M512.75,183.35c1.56,5.82,2.76,11.79,3.56,17.88l-41.1,5.47c-0.54-4.29-1.37-8.5-2.46-12.6L512.75,183.35z
					"/>
			</g>
		</g>
		<g>
			<path class="st63" d="M567.51,147.01c2.67,0,3.26,1.35,3.26,2.85c0,14.32-7.16,18.27-15.5,18.27c-11.86,0-16.68-9.29-16.68-18.79
				c0-9.18,5.35-18.79,16.57-18.79c7.48,0,12.99,4.1,12.99,5.66c0,1.35-0.91,1.97-1.87,1.97c-1.76,0-4.38-4.21-10.9-4.21
				c-8.87,0-12.61,8.25-12.61,15.36c0,8.36,4.11,15.36,12.83,15.36c8.28,0,11.33-6.85,11.33-14.27h-6.73
				c-1.23,0-2.03-0.78-2.03-1.71c0-0.93,0.8-1.71,2.03-1.71H567.51z"/>
			<path class="st63" d="M579.48,164.4h10.05c1.23,0,2.03,0.78,2.03,1.71c0,0.93-0.8,1.71-2.03,1.71h-11.97
				c-1.07,0-1.92-0.83-1.92-1.87v-33.01c0-1.56,0.69-2.39,1.92-2.39c1.23,0,1.92,0.83,1.92,2.39V164.4z"/>
			<path class="st63" d="M610.16,130.56c10.74,0,16.14,9.39,16.14,18.79c0,9.39-5.4,18.79-16.14,18.79
				c-10.74,0-16.14-9.39-16.14-18.79C594.02,139.96,599.42,130.56,610.16,130.56z M622.13,149.35c0-6.95-3.05-15.36-11.97-15.36
				c-8.93,0-11.97,8.41-11.97,15.36c0,6.95,3.05,15.36,11.97,15.36C619.08,164.71,622.13,156.3,622.13,149.35z"/>
			<path class="st63" d="M631.97,132.84c0-1.3,0.64-1.97,2.35-1.97h6.89c8.28,0,11.01,5.09,11.01,9.24c0,4.36-2.14,6.44-5.4,7.73
				v0.1c5.24,0.83,8.34,4.05,8.34,9.29c0,5.55-3.69,10.59-12.08,10.59h-8.76c-1.71,0-2.35-0.68-2.35-1.97V132.84z M635.81,146.7
				h5.61c3.95,0,6.95-2.7,6.95-6.44c0-3.01-2.35-5.97-6.84-5.97h-5.72V146.7z M635.81,164.4h6.84c5.4,0,8.66-2.49,8.66-7.27
				c0-4.31-3.47-7.32-8.71-7.32h-6.79V164.4z"/>
			<path class="st63" d="M661.74,166.42c-0.48,0.93-0.8,1.71-2.14,1.71c-1.12,0-1.71-0.67-1.71-1.45c0-0.42,0.16-1.04,0.37-1.56
				l12.24-31.87c0.48-1.19,1.07-2.7,2.99-2.7c1.92,0,2.51,1.51,2.99,2.7l12.24,31.87c0.21,0.52,0.37,1.14,0.37,1.56
				c0,0.78-0.59,1.45-1.71,1.45c-1.34,0-1.76-0.78-2.14-1.71l-2.51-6.64h-18.49L661.74,166.42z M673.55,135.44h-0.11l-7.91,20.92
				h15.93L673.55,135.44z"/>
			<path class="st63" d="M697.23,164.4h10.05c1.23,0,2.03,0.78,2.03,1.71c0,0.93-0.8,1.71-2.03,1.71H695.3
				c-1.07,0-1.92-0.83-1.92-1.87v-33.01c0-1.56,0.7-2.39,1.92-2.39c1.23,0,1.92,0.83,1.92,2.39V164.4z"/>
		</g>
		<g>
			<path class="st64" d="M545.12,209.31h12.1c1.28,0,2.11,0.78,2.11,1.71c0,0.93-0.83,1.71-2.11,1.71h-13.66
				c-1.78,0-2.44-0.68-2.44-1.97v-33.01c0-1.3,0.67-1.97,2.44-1.97h13.1c1.28,0,2.11,0.78,2.11,1.71c0,0.93-0.83,1.71-2.11,1.71
				h-11.49v13.39h10.99c1.28,0,2.11,0.78,2.11,1.71c0,0.94-0.83,1.71-2.11,1.71h-11.05V209.31z"/>
			<path class="st64" d="M569.77,210.66c0,1.56-0.72,2.39-2,2.39c-1.28,0-2-0.83-2-2.39v-33.01c0-1.45,0.89-2.18,2-2.18
				c1.11,0,1.78,0.62,2.33,1.35l21.21,29.01h0.11v-27.97c0-1.56,0.72-2.39,2-2.39c1.28,0,2,0.83,2,2.39v32.91
				c0,1.76-0.78,2.28-1.89,2.28c-1.05,0-1.5-0.47-2.17-1.35l-21.49-29.38h-0.11V210.66z"/>
			<path class="st64" d="M612.91,210.66c0,1.56-0.72,2.39-2,2.39c-1.28,0-2-0.83-2-2.39V179.2h-7.66c-1.28,0-2.11-0.78-2.11-1.71
				c0-0.94,0.83-1.71,2.11-1.71h19.32c1.28,0,2.11,0.78,2.11,1.71c0,0.93-0.83,1.71-2.11,1.71h-7.66V210.66z"/>
			<path class="st64" d="M630.4,210.66c0,1.56-0.72,2.39-2,2.39c-1.28,0-2-0.83-2-2.39v-32.91c0-1.25,0.61-1.97,2.5-1.97h8.72
				c7.77,0,11.94,4.88,11.94,10.02c0,5.92-4.22,10.43-10.55,10.43h-3.66L649,209.88c0.61,0.57,0.78,0.88,0.78,1.61
				c0,0.93-0.89,1.56-1.78,1.56c-0.67,0-1.17-0.21-1.78-0.83l-15.82-15.88V210.66z M630.4,193.11h6.94c5.22,0,8.22-2.28,8.22-6.64
				c0-4.83-2.83-7.27-8.22-7.27h-6.94V193.11z"/>
			<path class="st64" d="M659.22,209.31h12.11c1.28,0,2.11,0.78,2.11,1.71c0,0.93-0.83,1.71-2.11,1.71h-13.66
				c-1.78,0-2.45-0.68-2.45-1.97v-33.01c0-1.3,0.67-1.97,2.45-1.97h13.1c1.28,0,2.11,0.78,2.11,1.71c0,0.93-0.83,1.71-2.11,1.71
				h-11.49v13.39h10.99c1.28,0,2.11,0.78,2.11,1.71c0,0.94-0.83,1.71-2.11,1.71h-11.05V209.31z"/>
			<path class="st64" d="M683.87,210.66c0,1.56-0.72,2.39-2,2.39c-1.28,0-2-0.83-2-2.39v-32.91c0-1.25,0.61-1.97,2.5-1.97h9.5
				c8.99,0,12.22,6.54,12.22,11.11c0,6.12-4.11,11.73-13.21,11.73h-7V210.66z M683.87,195.19h7.33c6.33,0,8.88-4.26,8.88-7.99
				c0-3.74-2.55-7.99-8.88-7.99h-7.33V195.19z"/>
			<path class="st64" d="M712.69,210.66c0,1.56-0.72,2.39-2,2.39c-1.28,0-2-0.83-2-2.39v-32.91c0-1.25,0.61-1.97,2.5-1.97h8.72
				c7.77,0,11.94,4.88,11.94,10.02c0,5.92-4.22,10.43-10.55,10.43h-3.66l13.66,13.65c0.61,0.57,0.78,0.88,0.78,1.61
				c0,0.93-0.89,1.56-1.78,1.56c-0.67,0-1.17-0.21-1.78-0.83l-15.82-15.88V210.66z M712.69,193.11h6.94c5.22,0,8.22-2.28,8.22-6.64
				c0-4.83-2.83-7.27-8.22-7.27h-6.94V193.11z"/>
			<path class="st64" d="M741.5,209.31h12.11c1.28,0,2.11,0.78,2.11,1.71c0,0.93-0.83,1.71-2.11,1.71h-13.66
				c-1.78,0-2.44-0.68-2.44-1.97v-33.01c0-1.3,0.67-1.97,2.44-1.97h13.1c1.28,0,2.11,0.78,2.11,1.71c0,0.93-0.83,1.71-2.11,1.71
				h-11.49v13.39h10.99c1.28,0,2.11,0.78,2.11,1.71c0,0.94-0.83,1.71-2.11,1.71H741.5V209.31z"/>
			<path class="st64" d="M766.16,210.66c0,1.56-0.72,2.39-2,2.39c-1.28,0-2-0.83-2-2.39v-33.01c0-1.45,0.89-2.18,2-2.18
				s1.78,0.62,2.33,1.35l21.21,29.01h0.11v-27.97c0-1.56,0.72-2.39,2-2.39c1.28,0,2,0.83,2,2.39v32.91c0,1.76-0.78,2.28-1.89,2.28
				c-1.05,0-1.5-0.47-2.17-1.35l-21.49-29.38h-0.11V210.66z"/>
			<path class="st64" d="M803.13,209.31h12.11c1.28,0,2.11,0.78,2.11,1.71c0,0.93-0.83,1.71-2.11,1.71h-13.66
				c-1.78,0-2.44-0.68-2.44-1.97v-33.01c0-1.3,0.67-1.97,2.44-1.97h13.1c1.28,0,2.11,0.78,2.11,1.71c0,0.93-0.83,1.71-2.11,1.71
				h-11.49v13.39h10.99c1.28,0,2.11,0.78,2.11,1.71c0,0.94-0.83,1.71-2.11,1.71h-11.05V209.31z"/>
			<path class="st64" d="M823.79,177.86c0-1.56,0.72-2.39,2-2.39c1.28,0,2,0.83,2,2.39v21.85c0,6.8,5.28,9.91,10.83,9.91
				c5.55,0,10.83-3.12,10.83-9.91v-21.85c0-1.56,0.72-2.39,2-2.39c1.28,0,2,0.83,2,2.39v22.32c0,8.51-7.16,12.87-14.83,12.87
				c-7.66,0-14.83-4.36-14.83-12.87V177.86z"/>
			<path class="st64" d="M864.76,210.66c0,1.56-0.72,2.39-2,2.39s-2-0.83-2-2.39v-32.91c0-1.25,0.61-1.97,2.5-1.97h8.72
				c7.77,0,11.94,4.88,11.94,10.02c0,5.92-4.22,10.43-10.55,10.43h-3.66l13.66,13.65c0.61,0.57,0.78,0.88,0.78,1.61
				c0,0.93-0.89,1.56-1.78,1.56c-0.67,0-1.17-0.21-1.78-0.83l-15.82-15.88V210.66z M864.76,193.11h6.94c5.22,0,8.22-2.28,8.22-6.64
				c0-4.83-2.83-7.27-8.22-7.27h-6.94V193.11z"/>
			<path class="st64" d="M887.03,208.63c0-0.99,0.83-1.82,1.89-1.82c0.45,0,1.44,0.52,1.89,0.88c0.45,0.36,3.72,1.92,6.55,1.92
				c5.55,0,9.11-4.15,9.11-8.04c0-8.87-18.77-5.45-18.77-16.66c0-5.97,5.44-9.29,11.44-9.45c4.33,0,8.99,2.28,8.99,4.05
				c0,1.14-0.94,1.97-1.67,1.97c-2.05,0-3.39-2.6-7.61-2.6c-4.16,0-7.16,2.7-7.16,5.76c0,8.15,18.77,4.83,18.77,16.66
				c0,6.7-4.94,11.73-12.55,11.73C891.36,213.04,887.03,210.66,887.03,208.63z"/>
			<path class="st64" d="M919.23,210.66c0,1.56-0.72,2.39-2,2.39c-1.28,0-2-0.83-2-2.39v-32.8c0-1.56,0.72-2.39,2-2.39
				c1.28,0,2,0.83,2,2.39v14.22h21.71v-14.22c0-1.56,0.72-2.39,2-2.39c1.28,0,2,0.83,2,2.39v32.8c0,1.56-0.72,2.39-2,2.39
				c-1.28,0-2-0.83-2-2.39V195.5h-21.71V210.66z"/>
			<path class="st64" d="M956.27,210.66c0,1.56-0.72,2.39-2,2.39c-1.28,0-2-0.83-2-2.39v-32.8c0-1.56,0.72-2.39,2-2.39
				c1.28,0,2,0.83,2,2.39V210.66z"/>
			<path class="st64" d="M967.59,210.66c0,1.56-0.72,2.39-2,2.39c-1.28,0-2-0.83-2-2.39v-32.91c0-1.25,0.61-1.97,2.5-1.97h9.5
				c8.99,0,12.22,6.54,12.22,11.11c0,6.12-4.11,11.73-13.21,11.73h-7V210.66z M967.59,195.19h7.33c6.33,0,8.88-4.26,8.88-7.99
				c0-3.74-2.55-7.99-8.88-7.99h-7.33V195.19z"/>
		</g>
		<g>
			<path class="st65" d="M557.73,224.04c0.28-0.88,0.77-1.76,2.09-1.76c1.32,0,1.82,0.88,2.09,1.76l9.46,31.45h0.11l5.28-31.35
				c0.27-1.5,1.21-1.87,2.14-1.87c0.99,0,1.81,0.52,1.81,1.56c0,0.41-0.27,1.92-0.66,3.84l-5.77,30.1c-0.27,1.4-1.65,2.08-2.91,2.08
				c-1.43,0-2.53-0.57-2.97-2.08l-8.52-29.63h-0.11l-8.74,29.63c-0.44,1.5-1.54,2.08-2.97,2.08c-1.26,0-2.64-0.67-2.91-2.08
				l-5.55-30.1c-0.61-3.01-0.66-3.43-0.66-3.84c0-1.04,0.83-1.56,1.82-1.56c0.93,0,1.87,0.36,2.14,1.87l5.28,31.35h0.11
				L557.73,224.04z"/>
			<path class="st64" d="M589.85,256.11h11.99c1.26,0,2.09,0.78,2.09,1.71s-0.83,1.71-2.09,1.71h-13.53c-1.76,0-2.42-0.67-2.42-1.97
				v-33.01c0-1.3,0.66-1.97,2.42-1.97h12.98c1.26,0,2.09,0.78,2.09,1.71c0,0.93-0.83,1.71-2.09,1.71h-11.38v13.39h10.89
				c1.27,0,2.09,0.78,2.09,1.71c0,0.93-0.83,1.71-2.09,1.71h-10.94V256.11z"/>
			<path class="st66" d="M614.27,256.11h11.99c1.27,0,2.09,0.78,2.09,1.71s-0.83,1.71-2.09,1.71h-13.53c-1.76,0-2.42-0.67-2.42-1.97
				v-33.01c0-1.3,0.66-1.97,2.42-1.97h12.98c1.27,0,2.09,0.78,2.09,1.71c0,0.93-0.83,1.71-2.09,1.71h-11.38v13.39h10.89
				c1.26,0,2.09,0.78,2.09,1.71c0,0.93-0.83,1.71-2.09,1.71h-10.94V256.11z"/>
			<path class="st65" d="M638.69,257.46c0,1.56-0.72,2.39-1.98,2.39c-1.27,0-1.98-0.83-1.98-2.39v-32.8c0-1.56,0.71-2.39,1.98-2.39
				c1.26,0,1.98,0.83,1.98,2.39v13.75l17.54-14.89c0.88-0.78,1.54-1.25,2.42-1.25c1.15,0,1.7,0.83,1.7,1.56
				c0,0.57-0.11,0.99-0.88,1.61l-17.16,14.53l18.48,16.61c0.61,0.52,0.88,1.19,0.88,1.66c0,0.83-0.66,1.61-1.76,1.61
				c-0.88,0-1.59-0.52-2.36-1.25l-18.86-16.97V257.46z"/>
		</g>
		<g>
			<path class="st63" d="M542.88,304.1c0,1.56-0.68,2.39-1.89,2.39c-1.21,0-1.89-0.83-1.89-2.39v-32.9c0-1.25,0.58-1.97,2.36-1.97
				h8.96c8.49,0,11.53,6.54,11.53,11.11c0,6.12-3.88,11.73-12.47,11.73h-6.6V304.1z M542.88,288.64h6.92c5.97,0,8.39-4.26,8.39-7.99
				c0-3.74-2.41-7.99-8.39-7.99h-6.92V288.64z"/>
			<path class="st63" d="M570.08,302.75h11.42c1.21,0,1.99,0.78,1.99,1.71c0,0.93-0.79,1.71-1.99,1.71h-12.89
				c-1.68,0-2.31-0.67-2.31-1.97V271.2c0-1.3,0.63-1.97,2.31-1.97h12.37c1.21,0,1.99,0.78,1.99,1.71s-0.79,1.71-1.99,1.71h-10.85
				v13.39h10.38c1.21,0,1.99,0.78,1.99,1.71s-0.79,1.71-1.99,1.71h-10.43V302.75z"/>
			<path class="st63" d="M593.35,304.1c0,1.56-0.68,2.39-1.89,2.39c-1.21,0-1.89-0.83-1.89-2.39V271.1c0-1.45,0.84-2.18,1.89-2.18
				c1.05,0,1.68,0.62,2.2,1.35l20.02,29.01h0.11v-27.97c0-1.56,0.68-2.39,1.89-2.39c1.21,0,1.89,0.83,1.89,2.39v32.9
				c0,1.76-0.73,2.28-1.78,2.28c-1,0-1.41-0.47-2.04-1.35l-20.28-29.37h-0.1V304.1z"/>
			<path class="st63" d="M628.26,304.1c0,1.56-0.68,2.39-1.89,2.39c-1.21,0-1.89-0.83-1.89-2.39V271.1c0-1.45,0.84-2.18,1.89-2.18
				s1.68,0.62,2.2,1.35l20.02,29.01h0.1v-27.97c0-1.56,0.68-2.39,1.89-2.39c1.21,0,1.89,0.83,1.89,2.39v32.9
				c0,1.76-0.73,2.28-1.78,2.28c-1,0-1.41-0.47-2.04-1.35l-20.28-29.37h-0.1V304.1z"/>
			<path class="st63" d="M669.55,302.08c0-0.99,0.79-1.82,1.78-1.82c0.42,0,1.36,0.52,1.78,0.88c0.42,0.36,3.51,1.92,6.18,1.92
				c5.24,0,8.59-4.15,8.59-8.04c0-8.87-17.71-5.45-17.71-16.66c0-5.97,5.14-9.29,10.8-9.44c4.09,0,8.49,2.28,8.49,4.05
				c0,1.14-0.89,1.97-1.57,1.97c-1.94,0-3.2-2.59-7.18-2.59c-3.93,0-6.76,2.7-6.76,5.76c0,8.15,17.71,4.83,17.71,16.66
				c0,6.7-4.66,11.73-11.84,11.73C673.64,306.49,669.55,304.1,669.55,302.08z"/>
			<path class="st63" d="M705.77,304.1c0,1.56-0.68,2.39-1.89,2.39c-1.21,0-1.89-0.83-1.89-2.39v-31.45h-7.23
				c-1.21,0-1.99-0.78-1.99-1.71s0.79-1.71,1.99-1.71H713c1.21,0,1.99,0.78,1.99,1.71s-0.79,1.71-1.99,1.71h-7.23V304.1z"/>
			<path class="st63" d="M715.68,304.78c-0.47,0.93-0.79,1.71-2.1,1.71c-1.1,0-1.68-0.67-1.68-1.45c0-0.41,0.16-1.04,0.37-1.56
				l12-31.87c0.47-1.19,1.05-2.7,2.93-2.7c1.89,0,2.46,1.51,2.93,2.7l12,31.87c0.21,0.52,0.37,1.14,0.37,1.56
				c0,0.78-0.58,1.45-1.68,1.45c-1.31,0-1.73-0.78-2.1-1.71l-2.46-6.64h-18.13L715.68,304.78z M727.26,273.8h-0.11l-7.76,20.92
				h15.62L727.26,273.8z"/>
			<path class="st63" d="M752.42,304.1c0,1.56-0.68,2.39-1.89,2.39c-1.21,0-1.89-0.83-1.89-2.39v-31.45h-7.23
				c-1.21,0-1.99-0.78-1.99-1.71s0.79-1.71,1.99-1.71h18.24c1.21,0,1.99,0.78,1.99,1.71s-0.79,1.71-1.99,1.71h-7.23V304.1z"/>
			<path class="st63" d="M768.93,302.75h11.42c1.21,0,1.99,0.78,1.99,1.71c0,0.93-0.79,1.71-1.99,1.71h-12.89
				c-1.68,0-2.3-0.67-2.3-1.97V271.2c0-1.3,0.63-1.97,2.3-1.97h12.37c1.21,0,1.99,0.78,1.99,1.71s-0.79,1.71-1.99,1.71h-10.85v13.39
				h10.38c1.21,0,1.99,0.78,1.99,1.71s-0.79,1.71-1.99,1.71h-10.43V302.75z"/>
		</g>
		<g>
			<g>
				<path class="st67" d="M335.96,168.67h-13.25c-3.03,0-5.48-2.45-5.48-5.48c0-3.03,2.45-5.48,5.48-5.48h22.04
					c2.45,0,3.89,0.29,3.89,3.46v93.22c0,4.18-2.45,6.77-6.34,6.77c-3.89,0-6.34-2.59-6.34-6.77V168.67z"/>
				<path class="st67" d="M401.66,156.86c18.73,0,33.86,19.16,33.86,52.16s-15.13,52.15-33.86,52.15
					c-18.73,0-33.86-19.16-33.86-52.15S382.93,156.86,401.66,156.86z M401.66,250.22c11.24,0,20.32-12.53,20.32-41.2
					s-9.08-41.2-20.32-41.2c-11.24,0-20.31,12.53-20.31,41.2S390.43,250.22,401.66,250.22z"/>
			</g>
			<g>
				<path class="st67" d="M341.63,279.67l-4.75-7.74c-0.25-0.4-0.35-0.65-0.35-0.92c0-0.55,0.45-0.89,1-0.89
					c0.4,0,0.77,0.15,1.09,0.7l4.1,6.69l4.1-6.69c0.32-0.55,0.7-0.7,1.09-0.7c0.55,0,1,0.35,1,0.89c0,0.27-0.1,0.52-0.35,0.92
					l-4.75,7.74v7.29c0,0.72-0.42,1.17-1.09,1.17c-0.67,0-1.09-0.45-1.09-1.17V279.67z"/>
				<path class="st67" d="M357.55,285.93h5.27c0.62,0,1.07,0.32,1.07,1.02c0,0.7-0.45,1.02-1.07,1.02h-6.29
					c-0.82,0-1.17-0.52-1.17-1.19v-15.32c0-0.67,0.35-1.19,1.17-1.19h6.29c0.62,0,1.07,0.32,1.07,1.02c0,0.7-0.45,1.02-1.07,1.02
					h-5.27v5.8h4.8c0.62,0,1.07,0.32,1.07,1.02c0,0.7-0.45,1.02-1.07,1.02h-4.8V285.93z"/>
				<path class="st67" d="M372.29,287.3c-0.17,0.47-0.47,0.82-1.07,0.82c-0.57,0-1.04-0.35-1.04-0.92c0-0.3,0.22-0.87,0.3-1.09
					l5.5-14.65c0.27-0.77,0.72-1.34,1.57-1.34c0.84,0,1.29,0.57,1.57,1.34l5.5,14.65c0.07,0.22,0.3,0.8,0.3,1.09
					c0,0.57-0.47,0.92-1.04,0.92c-0.6,0-0.89-0.35-1.07-0.82l-1.15-3.18h-8.21L372.29,287.3z M377.57,272.65h-0.05l-3.41,9.57h6.87
					L377.57,272.65z"/>
				<path class="st67" d="M393.75,286.95c0,0.72-0.42,1.17-1.09,1.17c-0.67,0-1.09-0.45-1.09-1.17v-15.5c0-0.67,0.35-1.19,1.17-1.19
					h4.05c2.79,0,5.42,1.89,5.42,4.78c0,3.58-2.19,4.92-4.83,5.02l-0.95,0.02l5.65,6.19c0.3,0.32,0.42,0.6,0.42,0.99
					c0,0.47-0.45,0.85-1,0.85c-0.45,0-0.75-0.22-0.99-0.5l-6.76-7.41V286.95z M393.75,278.45h2.98c2.29,0,3.28-0.97,3.28-3.26
					c0-1.64-1.29-3.03-3.33-3.03h-2.93V278.45z"/>
				<path class="st67" d="M418.27,272.18c0,0.52-0.4,0.97-0.95,0.97c-0.97,0-1.29-1.15-3.48-1.15c-1.62,0-2.81,1.02-2.81,2.51
					c0,3.9,8.41,2.04,8.41,8.01c0,2.93-2.14,5.6-5.99,5.6c-2.34,0-4.92-0.89-4.92-2.14c0-0.6,0.3-1.12,0.92-1.12
					c0.75,0,1.79,1.37,4.03,1.37c2.26,0,3.63-1.64,3.63-3.61c0-4.2-8.41-2.16-8.41-7.96c0-2.06,1.94-4.55,5.22-4.55
					C416.11,270.12,418.27,271.04,418.27,272.18z"/>
			</g>
		</g>
	</g>
</g>
</svg>
