<?xml version="1.0" encoding="UTF-8" standalone="no"?>
<!-- Generator: Adobe Illustrator 21.1.0, SVG Export Plug-In . SVG Version: 6.00 Build 0)  -->

<svg
   xmlns:dc="http://purl.org/dc/elements/1.1/"
   xmlns:cc="http://creativecommons.org/ns#"
   xmlns:rdf="http://www.w3.org/1999/02/22-rdf-syntax-ns#"
   xmlns:svg="http://www.w3.org/2000/svg"
   xmlns="http://www.w3.org/2000/svg"
   xmlns:sodipodi="http://sodipodi.sourceforge.net/DTD/sodipodi-0.dtd"
   xmlns:inkscape="http://www.inkscape.org/namespaces/inkscape"
   version="1.1"
   id="Layer_1"
   x="0px"
   y="0px"
   viewBox="0 0 600 600"
   style="enable-background:new 0 0 600 600;"
   xml:space="preserve"
   sodipodi:docname="GM-day.svg"
   inkscape:version="0.92.3 (2405546, 2018-03-11)"><metadata
   id="metadata33"><rdf:RDF><cc:Work
       rdf:about=""><dc:format>image/svg+xml</dc:format><dc:type
         rdf:resource="http://purl.org/dc/dcmitype/StillImage" /><dc:title></dc:title></cc:Work></rdf:RDF></metadata><defs
   id="defs31" /><sodipodi:namedview
   pagecolor="#003366"
   bordercolor="#666666"
   borderopacity="1"
   objecttolerance="10"
   gridtolerance="10"
   guidetolerance="10"
   inkscape:pageopacity="0"
   inkscape:pageshadow="2"
   inkscape:window-width="2736"
   inkscape:window-height="1719"
   id="namedview29"
   showgrid="false"
   inkscape:zoom="0.39333333"
   inkscape:cx="478.9913"
   inkscape:cy="-311.76994"
   inkscape:window-x="-13"
   inkscape:window-y="-13"
   inkscape:window-maximized="1"
   inkscape:current-layer="Layer_1" />
<style
   type="text/css"
   id="style2">
	.st0{fill:#FAFBFC;}
	.st1{fill:#26569F;}
	.st2{fill:#234F84;}
</style>
<g
   id="g26">
	<g
   id="g24">
		<path
   class="st0"
   d="M300.8,600.8c-98.9,0-197.8,0-296.6,0.1c-2.8,0-3.4-0.6-3.4-3.4c0.1-197.7,0.1-395.5,0-593.2    c0-2.8,0.6-3.4,3.4-3.4c197.7,0.1,395.5,0.1,593.2,0c2.8,0,3.4,0.6,3.4,3.4c-0.1,197.7-0.1,395.5,0,593.2c0,2.8-0.6,3.4-3.4,3.4    C498.5,600.7,399.6,600.8,300.8,600.8z M26.3,301.1c0,89.7,0,179.5,0,269.2c0,5.1,0,5.1,5.1,5.1c179.5,0,359,0,538.4,0    c5.7,0,5.7,0,5.7-5.7c0-177.2,0-354.5,0-531.7c0-2.9-0.2-5.8,0.1-8.6c0.2-2.2-1.1-2.8-2.8-3.1c-1.1-0.2-2.2-0.1-3.4-0.1    c-179.6,0-359.2,0-538.8-0.1c-3.8,0-4.4,1.1-4.4,4.6C26.3,120.9,26.3,211,26.3,301.1z"
   id="path4"
   style="fill:#26569f;fill-opacity:1" />
		<path
   class="st1"
   d="M26.3,301.1c0-90.1,0-180.2-0.1-270.3c0-3.5,0.6-4.6,4.4-4.6c179.6,0.1,359.2,0.1,538.8,0.1    c1.1,0,2.3-0.1,3.4,0.1c1.6,0.3,2.9,0.8,2.8,3.1c-0.2,2.9-0.1,5.7-0.1,8.6c0,177.2,0,354.5,0,531.7c0,5.7,0,5.7-5.7,5.7    c-179.5,0-359,0-538.4,0c-5.1,0-5.1,0-5.1-5.1C26.3,480.6,26.3,390.9,26.3,301.1z M163.9,394c-1.7,0.6-1.1,2.1-1.1,3.2    c0,12.8,0,25.7,0,38.5c0,1-0.5,2.3,0.9,3c3.2,0,6.5,0.1,9.7,0.1c87,0,173.9,0,260.9,0.1c3.7,0,4.5-1,4.5-4.5    c-0.2-11.7-0.1-23.5-0.1-35.2c0-5.1,0-5.1-5.2-5.1c-73.1,0-146.2,0-219.3,0C197.3,394,180.6,394,163.9,394z M235.3,362.2    c0.8,0.4,1.3,1.2,0.9,1.8c-1.5,2.3-0.1,3.9,0.9,5.7c0.2,0.3,0.5,0.5,0.7,0.8c2.6,1.8,5.5,0.5,8.2,0.8c6.8,0.7,13.8-1.2,20.6,1    c1.4,0.4,0.9-1.1,1-1.8c0-28.2,0-56.5,0.1-84.7c0-8,0-16,0-24c0-2.1-0.2-3.1-2.8-3.1c-14.7,0.1-29.5,0.1-44.2,0    c-2,0-2.6,0.6-2.6,2.6c0.1,6.6,0.1,13.2,0,19.9c0,2,0.7,2.5,2.6,2.5c4.1-0.1,8.3,0.1,12.4-0.1c2.5-0.1,3.1,0.7,3.1,3.2    c-0.1,10.5,0,21-0.1,31.5c0,4.3-0.6,8.5-1.9,12.6c-2.8,8.9-9,13.2-18.6,13.2c-9.5,0-15.7-4.6-18.5-13.4c-1.5-4.8-1.8-9.8-1.8-14.8    c0-33.4,0-66.7,0-100.1c0-3,0-6,0.4-9c0.8-6.5,2.9-12.5,9.1-15.9c13.3-7.4,28.3,0,30.7,14.9c1.1,7,0.5,14,0.6,21    c0,2.4,0.6,3.2,3.1,3.2c8.5-0.1,17-0.2,25.5,0c2.7,0.1,3-1.1,3-3.3c-0.2-8.6,0.3-17.2-0.9-25.8c-2.3-17.7-11.4-32.1-30-37.8    c-10.2-3.1-20.5-3.7-31.1-2.3c-19.8,2.4-32.7,13.1-38.9,32c-1.8,5.6-2.4,11.5-3.3,17.2c-0.2-1.3-0.3-2.7-0.5-4c-0.1,0-0.2,0-0.3,0    c0,41.4,0,82.8,0,124.1c0.1,0,0.2,0,0.3,0c0.1-0.6,0.3-1.2,0.4-1.7c0.9,6.5,1.4,13.1,3.5,19.5c4.8,14.8,14.4,23.9,30.1,26.2    C211.8,376,224.3,371.8,235.3,362.2z M330.5,370.2c0-1.4,0.1-2.7,0.1-4.1c0-46,0-92,0-138c0-1.2-0.4-2.4,0.4-3.7    c1.4,0.7,1.3,2.1,1.4,3.3c4.9,30.7,9.9,61.4,14.8,92.1c2.6,16,5.1,32,7.6,48c0.3,1.9,0.8,2.8,3,2.8c7.1-0.1,14.2-0.1,21.4,0    c2,0,2.8-0.6,3.1-2.6c1.7-10.9,3.6-21.9,5.4-32.8c5.2-31.7,10.5-63.3,15.8-95c1.1-6.4,2.1-12.8,3.2-19.2c0.3,0,0.5,0.1,0.8,0.1    c0,7.4,0,14.7,0,22.1c0,41.1,0,82.2-0.1,123.4c0,3.3,0.9,4.2,4.2,4.1c7.5-0.3,15-0.3,22.5,0c3.4,0.1,4.3-0.8,4.3-4.3    c-0.1-66.1-0.1-132.2-0.1-198.4c0-0.6,0-1.3,0-1.9c0.1-1.4-0.6-1.9-2-1.9c-14.2,0-28.5,0-42.7,0c-0.9,0-1.8-0.1-2,1.5    c-0.9,7.9-2.4,15.8-3.4,23.7c-1.1,8.1-2.5,16.1-3.6,24.2c-1.9,15.2-4.5,30.4-6.9,45.6c-1.5,9.3-3.4,18.5-4.6,27.7    c-1.1,8.5-2.7,16.8-3.5,25.4c-1-0.5-1-1.1-1.1-1.7c-1.9-12.6-3.7-25.2-5.6-37.7c-5.3-35.2-10.6-70.4-15.8-105.6    c-0.4-2.4-1.3-3.2-3.8-3.2c-12.9,0.1-25.8,0.2-38.6,0c-3.7-0.1-4.8,0.7-4.8,4.6c0.1,65.6,0.1,131.2,0.1,196.9    c0,1.6,0.2,3.2,0.3,4.8c-0.1,0.2-0.3,0.4-0.2,0.6c0.1,0.1,0.4,0.3,0.5,0.3c9.4,0,18.8,0,28.2,0    C329.6,371.2,330.3,371.2,330.5,370.2z"
   id="path6"
   style="fill:#f2f2f2" />
		<path
   class="st0"
   d="M300.3,370.4c-0.1-1.6-0.3-3.2-0.3-4.8c0-65.6,0-131.2-0.1-196.9c0-3.9,1.1-4.7,4.8-4.6    c12.9,0.2,25.7,0.2,38.6,0c2.5,0,3.4,0.8,3.8,3.2c5.2,35.2,10.6,70.4,15.8,105.6c1.9,12.6,3.7,25.2,5.6,37.7    c0.1,0.6,0.1,1.3,1.1,1.7c0.8-8.6,2.4-17,3.5-25.4c1.2-9.3,3.1-18.5,4.6-27.7c2.4-15.2,5-30.3,6.9-45.6c1-8.1,2.5-16.1,3.6-24.2    c1-7.9,2.5-15.8,3.4-23.7c0.2-1.6,1.1-1.5,2-1.5c14.2,0,28.5,0,42.7,0c1.4,0,2.1,0.5,2,1.9c0,0.6,0,1.2,0,1.9    c0,66.1,0,132.2,0.1,198.4c0,3.5-0.9,4.4-4.3,4.3c-7.5-0.3-15-0.3-22.5,0c-3.3,0.1-4.2-0.8-4.2-4.1c0.1-41.1,0.1-82.2,0.1-123.4    c0-7.4,0-14.7,0-22.1c-0.3,0-0.5-0.1-0.8-0.1c-1.1,6.4-2.2,12.8-3.2,19.2c-5.3,31.7-10.5,63.3-15.8,95    c-1.8,10.9-3.7,21.9-5.4,32.8c-0.3,2-1.1,2.7-3.1,2.6c-7.1-0.1-14.3-0.1-21.4,0c-2.2,0-2.7-0.9-3-2.8c-2.5-16-5-32-7.6-48    c-4.9-30.7-9.9-61.4-14.8-92.1c-0.2-1.2,0-2.5-1.4-3.3c-0.7,1.3-0.4,2.5-0.4,3.7c0,46,0,92,0,138c0,1.4-0.1,2.7-0.1,4.1    C320.4,370.2,310.3,370.3,300.3,370.4z"
   id="path8"
   style="fill:#26569f;fill-opacity:1" />
		<path
   class="st0"
   d="M237.8,370.4c-0.2-0.3-0.5-0.5-0.7-0.8c0.1-3.1,0.4-6.2-0.2-9.8c-0.7,1.1-1.2,1.7-1.6,2.3    c-10.9,9.7-23.5,13.8-38,11.6c-15.6-2.3-25.3-11.4-30.1-26.2c-2.1-6.3-2.5-12.9-3.5-19.5c0-39.5,0-78.9,0-118.4    c0.9-5.8,1.4-11.6,3.3-17.2c6.2-18.9,19.1-29.5,38.9-32c10.6-1.3,20.9-0.8,31.1,2.3c18.6,5.7,27.7,20.1,30,37.8    c1.1,8.6,0.7,17.2,0.9,25.8c0,2.2-0.3,3.3-3,3.3c-8.5-0.2-17-0.2-25.5,0c-2.5,0-3.1-0.7-3.1-3.2c0-7,0.5-14-0.6-21    c-2.3-14.9-17.4-22.3-30.7-14.9c-6.2,3.4-8.3,9.4-9.1,15.9c-0.4,3-0.4,6-0.4,9c0,33.4,0,66.7,0,100.1c0,5,0.3,10,1.8,14.8    c2.7,8.9,9,13.4,18.5,13.4c9.6,0,15.8-4.3,18.6-13.2c1.3-4.1,1.9-8.3,1.9-12.6c0-10.5-0.1-21,0.1-31.5c0-2.4-0.6-3.3-3.1-3.2    c-4.1,0.2-8.2,0-12.4,0.1c-1.9,0.1-2.7-0.5-2.6-2.5c0.1-6.6,0.1-13.2,0-19.9c0-2,0.6-2.6,2.6-2.6c14.7,0.1,29.5,0.1,44.2,0    c2.5,0,2.8,1.1,2.8,3.1c-0.1,8,0,16,0,24c0,28.2,0,56.5-0.1,84.7C257.7,370.4,247.8,370.4,237.8,370.4z"
   id="path10"
   style="fill:#26569f;fill-opacity:1" />
		<path
   class="st0"
   d="M163.9,394c16.7,0,33.5,0.1,50.2,0.1c73.1,0,146.2,0,219.3,0c5.2,0,5.2,0,5.2,5.1c0,11.7-0.1,23.5,0.1,35.2    c0.1,3.6-0.8,4.5-4.5,4.5c-87-0.1-173.9-0.1-260.9-0.1c-3.2,0-6.5-0.1-9.7-0.1c0-4.8-0.1-9.7,0-14.5    C163.7,414.1,163.8,404,163.9,394z"
   id="path12"
   style="fill:#26569f;fill-opacity:1" />
		<path
   class="st2"
   d="M163.7,209.7c0,39.5,0,78.9,0,118.4c-0.1,0.6-0.3,1.2-0.4,1.7c-0.1,0-0.2,0-0.3,0c0-41.4,0-82.8,0-124.1    c0.1,0,0.2,0,0.3,0C163.4,207,163.6,208.3,163.7,209.7z"
   id="path14" />
		<path
   class="st2"
   d="M163.9,394c-0.1,10.1-0.2,20.1-0.3,30.2c0,4.8,0,9.7,0,14.5c-1.4-0.7-0.9-1.9-0.9-3c0-12.8,0-25.7,0-38.5    C162.8,396,162.1,394.5,163.9,394z"
   id="path16" />
		<path
   class="st2"
   d="M237.8,370.4c10,0,19.9,0,29.9,0c-0.1,0.7,0.4,2.3-1,1.8c-6.8-2.2-13.8-0.3-20.6-1    C243.3,370.9,240.4,372.2,237.8,370.4z"
   id="path18" />
		<path
   class="st2"
   d="M300.3,370.4c10.1-0.1,20.2-0.1,30.3-0.2c-0.2,1-0.9,1-1.7,1c-9.4,0-18.8,0-28.2,0c-0.2,0-0.5-0.1-0.5-0.3    C300,370.8,300.2,370.6,300.3,370.4z"
   id="path20" />
		<path
   class="st2"
   d="M235.3,362.2c0.4-0.6,0.8-1.2,1.6-2.3c0.6,3.6,0.3,6.7,0.2,9.8c-1-1.8-2.5-3.4-0.9-5.7    C236.5,363.4,236,362.5,235.3,362.2z"
   id="path22" />
	</g>
</g>
</svg>