<?xml version="1.0" encoding="utf-8"?>
<!-- Generator: Adobe Illustrator 21.1.0, SVG Export Plug-In . SVG Version: 6.00 Build 0)  -->
<svg version="1.0" id="Layer_1" xmlns="http://www.w3.org/2000/svg" xmlns:xlink="http://www.w3.org/1999/xlink" x="0px" y="0px"
	 viewBox="0 0 600 600" style="enable-background:new 0 0 600 600;" xml:space="preserve">
<style type="text/css">
	.st0{fill:#24587C;}
	.st1{fill:#214F97;}
</style>
<g>
	<path class="st0" d="M27,575.2c-1.4-0.9-0.7-2.3-0.7-3.4c0-180.6,0-361.1-0.1-541.7c0-3.1,0.8-3.9,3.9-3.9
		c180.6,0.1,361.1,0.1,541.7,0.1c1.1,0,2.5-0.7,3.4,0.7c-1.4,1.5-0.7,3.3-0.7,5c0,179.1,0,358.2,0,537.2c0,5.2,0,5.2-5.2,5.2
		c-179.2,0-358.4,0-537.6,0C30.1,574.5,28.4,573.9,27,575.2z M163.7,438.7c3.4,0,6.7,0.1,10.1,0.1c86.8,0,173.6,0,260.5,0.1
		c3.7,0,4.6-0.9,4.5-4.5c-0.2-12-0.3-24,0-36c0.1-3.7-1.1-4.4-4.6-4.4c-88.7,0.1-177.4,0.1-266.1,0.1c-1.4,0-2.7-0.1-4.1-0.2
		c-1.8,0.7-1.2,2.3-1.2,3.5c0,12.7,0,25.3,0,38C162.8,436.5,162.3,437.9,163.7,438.7z M163.7,328.2c0.7,4.9,1.2,9.9,2.2,14.8
		c4.2,19.5,17.2,30.5,36.2,31.4c12.8,0.6,23.7-3.8,33.2-12.2c0.8,0.4,1.3,1.3,0.9,1.8c-1.7,2.3,0,3.9,1,5.7c0.2,0.2,0.5,0.5,0.7,0.7
		c1.4,1.6,3.3,0.7,4.9,0.8c8,0.7,16.1-1.2,24,1c1.4,0.4,0.8-1.1,1-1.9c0-31.1,0-62.2,0-93.3c0-5.2-0.1-10.5,0-15.7
		c0.1-2.2-0.7-2.7-2.8-2.7c-14.7,0.1-29.5,0.1-44.2,0c-2,0-2.6,0.6-2.5,2.6c0.1,6.6,0.1,13.2,0,19.9c0,2,0.7,2.5,2.6,2.5
		c4.1-0.1,8.3,0.1,12.4-0.1c2.5-0.1,3.1,0.7,3.1,3.2c-0.1,10.5,0,21-0.1,31.5c0,4.4-0.6,8.7-2,12.9c-3,8.8-9.2,13-18.8,12.9
		c-9.3-0.1-15.4-4.7-18.1-13.4c-1.6-5.1-1.8-10.3-1.8-15.6c0-33,0-66,0-98.9c0-3.1,0-6.3,0.4-9.4c0.8-6.5,2.9-12.5,9.1-15.9
		c13.2-7.4,28.4-0.1,30.7,14.9c1.1,7,0.5,14,0.6,21c0,2.3,0.5,3.3,3.1,3.2c8.5-0.2,17-0.2,25.5,0c2.6,0,3.1-0.9,3-3.2
		c-0.2-8.6,0.3-17.2-0.8-25.8c-2.3-17.7-11.3-32.1-29.9-37.9c-8.7-2.7-17.6-3.4-26.7-2.9c-23.1,1.2-38.7,13.8-44.3,35.7
		c-1.2,4.6-1.6,9.3-2.4,14c-0.2-1.3-0.3-2.6-0.5-4c-0.1,0-0.2,0-0.3,0.1c0,41.4,0,82.8,0,124.1c0.1,0,0.2,0,0.3,0
		C163.4,329.3,163.6,328.7,163.7,328.2z M438.6,369.8c1.3-0.9,0.9-2.2,0.9-3.4c0-66.3,0-132.6,0-198.8c0-1.2,0.5-2.6-1.1-3.2
		c-14.9-0.1-29.7-0.1-44.6-0.1c-1,0-2-0.2-2.2,1.6c-1.1,9.5-2.5,19-3.9,28.5c-3,19.9-5.9,39.8-9.2,59.6c-1.8,10.8-3.5,21.6-5.3,32.4
		c-1.4,8.6-2.8,17.2-3.6,26c-1.1-0.6-1.1-1.4-1.2-2.1c-2.3-15.6-4.6-31.1-7-46.7c-4.8-32.1-9.7-64.2-14.4-96.3
		c-0.4-2.5-1.3-3.2-3.8-3.2c-13,0.1-26,0.2-39,0c-3.3,0-4.4,0.7-4.3,4.2c0.1,66,0.1,132,0.1,198c0,1.4,0.2,2.7,0.3,4.1
		c-0.1,0.2-0.2,0.4-0.2,0.6c0,0.1,0.1,0.2,0.2,0.2c9.7,0,19.4,0,29.1,0c0.7,0,1.1-0.5,1.3-1.1c0-49.9,0-99.8,0-150.7
		c0.5,1.3,0.7,1.6,0.8,2c4.8,29.9,9.6,59.8,14.3,89.7c3,18.9,6.1,37.9,9,56.8c0.3,1.9,0.9,2.8,3.1,2.8c7.1-0.1,14.2-0.1,21.4,0
		c2.1,0,2.8-0.7,3.1-2.7c1.7-10.7,3.5-21.4,5.3-32c5.8-35.1,11.5-70.2,17.3-105.3c0.3-1.8,0.3-3.8,1.7-5.7c1.2,1.7,0.8,3.3,0.8,4.7
		c0,45.7,0.1,91.5-0.1,137.2c0,3.1,0.8,4,3.9,3.9c7.9-0.2,15.7-0.1,23.6-0.1C436.3,370.5,437.6,370.9,438.6,369.8z M573.7,27.8
		c-1.7-1.1-3.2-0.7-4.6-0.7C390,27,210.9,27,31.8,27C27,27,27,27,27,31.9c0,179,0,358,0,537c0,0.7,0,1.5,0,2.2
		c0.1,0.8-0.3,1.8,0.7,2.3c0.2,0.1,0.6,0.1,0.7,0c1.2-1-0.5-1.4-0.5-2.1c0-1.2-0.1-2.5-0.1-3.7c0-177.9,0-355.7,0-533.6
		c0-5.2,1.2-6.3,6.4-6.3c170.7,0,341.5,0,512.2,0C555.3,27.8,564.2,27.8,573.7,27.8z"/>
	<path class="st1" d="M27,575.2c1.4-1.3,3.1-0.7,4.7-0.7c179.2,0,358.4,0,537.6,0c5.2,0,5.2,0,5.2-5.2c0-179.1,0-358.2,0-537.2
		c0-1.7-0.7-3.5,0.7-5c0.1,1.4,0.2,2.7,0.2,4.1c0,179.7,0,359.5,0,539.2c0,5.1,0,5.1-5.1,5.1c-179,0-358,0-537,0
		C31.3,575.4,29.1,575.3,27,575.2z"/>
	<path class="st1" d="M573.7,27.8c-9.5,0-18.4,0-27.4,0c-170.7,0-341.5,0-512.2,0c-5.2,0-6.4,1.1-6.4,6.3c0,177.9,0,355.7,0,533.6
		c0,1.2,0.1,2.5,0.1,3.7c0,0.8,1.7,1.1,0.5,2.1c-0.1,0.1-0.5,0.1-0.7,0c-1-0.5-0.6-1.5-0.7-2.3c-0.1-0.7,0-1.5,0-2.2
		c0-179,0-358,0-537c0-4.9,0-4.9,4.8-4.9c179.1,0,358.2,0,537.3,0C570.5,27,572.1,26.6,573.7,27.8z"/>
	<path class="st1" d="M438.6,369.8c-0.1-1.5-0.2-3-0.2-4.5c0-67,0-134,0-201c1.6,0.7,1.1,2.1,1.1,3.2c0,66.3,0,132.6,0,198.8
		C439.5,367.6,439.9,368.9,438.6,369.8z"/>
	<path class="st1" d="M163.7,209.6c0,39.5,0,79,0,118.6c-0.2,0.6-0.3,1.2-0.5,1.7c-0.1,0-0.2,0-0.3,0c0-41.4,0-82.8,0-124.1
		c0.1,0,0.2,0,0.3-0.1C163.4,207,163.6,208.3,163.7,209.6z"/>
	<path class="st1" d="M164,393.8c-0.8,2.8-0.4,5.7-0.4,8.6c0,12.1,0,24.2,0.1,36.3c-1.4-0.8-0.9-2.2-0.9-3.4c0-12.7,0-25.3,0-38
		C162.8,396.1,162.2,394.5,164,393.8z"/>
	<path class="st1" d="M237.8,370.4c10,0,19.9,0,29.9,0c-0.1,0.7,0.4,2.2-1,1.9c-7.9-2.3-16-0.3-24-1
		C241.1,371.1,239.2,372,237.8,370.4z"/>
	<path class="st1" d="M300.2,370.3c10.2-0.1,20.3-0.2,30.5-0.3c-0.2,0.6-0.6,1.1-1.3,1.1c-9.7,0-19.4,0-29.1,0
		c-0.1,0-0.2-0.2-0.2-0.2C300.1,370.8,300.2,370.6,300.2,370.3z"/>
	<path class="st1" d="M235.3,362.2c0.4-0.6,0.8-1.2,1.5-2.2c0.7,3.5,0.4,6.6,0.3,9.7c-0.9-1.8-2.6-3.4-1-5.7
		C236.5,363.4,236,362.5,235.3,362.2z"/>
</g>
</svg>
