<?xml version="1.0" encoding="utf-8"?>
<!-- Generator: Adobe Illustrator 21.1.0, SVG Export Plug-In . SVG Version: 6.00 Build 0)  -->
<svg version="1.1" id="Layer_1" xmlns="http://www.w3.org/2000/svg" xmlns:xlink="http://www.w3.org/1999/xlink" x="0px" y="0px"
	 viewBox="0 0 600 600" style="enable-background:new 0 0 600 600;" xml:space="preserve">
<style type="text/css">
	.st0{fill:#24587C;}
</style>
<g>
	<path class="st0" d="M575.1,575.1c-2,0-3.4,0-4.9,0c-179.7,0-359.4,0-539.2,0.1c-3.3,0-4.5-0.8-4.3-4.2c0.2-4,0.1-8,0.1-12
		c0-176.1,0-352.2,0-528.3c0-1.1,0.1-2.2,0.2-3.6c1.6-0.1,3.1-0.2,4.5-0.2c179.3,0,358.7,0,538,0c5.5,0,5.5,0,5.5,5.4
		c0,179.1,0,358.2,0,537.3C575.1,571.2,575.1,572.8,575.1,575.1z M331,222.1c0.1,0,0.2,0,0.2,0c2.8,17.5,5.6,34.9,8.3,52.4
		c2.3,14.4,4.6,28.8,6.9,43.2c2.7,16.6,5.4,33.2,8,49.9c0.4,2.4,1.2,3.4,3.8,3.3c5.6-0.2,11.2,0,16.9,0c7,0,7.1,0,8.2-6.8
		c4.1-24.2,8.1-48.5,12.1-72.7c3.8-22.9,7.6-45.7,11.4-68.6c0.4,0.8,0.4,1.7,0.4,2.5c0,47.2,0,94.5-0.1,141.7c0,2.9,0.7,3.9,3.8,3.9
		c7.7-0.2,15.5-0.3,23.2,0c4,0.2,4.8-1.2,4.7-4.8c-0.1-33.1-0.1-66.2-0.1-99.4c0-33-0.1-66,0-99c0-3-0.8-4.2-4-4.2
		c-13.1,0.1-26.2,0.1-39.4,0c-2.7,0-3.7,1-4.1,3.6c-1.5,10.6-3.1,21.2-4.7,31.8c-3.7,23.9-7.4,47.8-11.1,71.7
		c-2,13.1-4,26.2-6.1,39.3c-0.7-0.7-0.9-1.4-1-2.1c-3-19.9-6-39.7-9-59.6c-1.8-11.7-3.6-23.4-5.3-35.1c-2.3-15.4-4.6-30.8-6.8-46.3
		c-0.3-2.4-1.4-3.4-3.9-3.4c-13.5,0.1-27,0.1-40.5,0c-2.6,0-3.3,0.9-3.3,3.5c0.1,66.7,0.1,133.5,0.1,200.2c0,1.1,0.2,2.1,0.3,3.4
		c9.1,0,17.9-0.2,26.6,0.1c3.7,0.1,4.5-1.2,4.5-4.7c-0.1-34.5-0.1-69-0.1-103.5C331,249,331,235.5,331,222.1z M235.8,283.8
		c0,11.9,0.2,23.3-0.1,34.6c-0.1,4.1-0.8,8.2-1.9,12.2c-2,8-8.2,12.6-16.4,12.8c-10.3,0.3-16.9-3.3-19.3-11.8
		c-1.6-5.7-2.3-11.8-2.3-17.7c-0.2-31.5-0.1-63-0.1-94.5c0-3.5-0.1-7,0.2-10.5c0.6-6.7,1.9-13.3,8.1-17.3
		c13.5-8.7,30.1-0.5,31.2,15.4c0.5,6.6,0.5,13.2,0.5,19.8c0,2.4,0.7,3.3,3.2,3.3c8.6-0.1,17.2-0.1,25.9,0c2.5,0,3.3-0.9,3.2-3.3
		c-0.4-9.2,0-18.5-1.2-27.7c-2.3-17.2-11.1-30-28-36c-12.4-4.4-25.2-4.8-38-2.2c-16.5,3.3-28.1,13-33.2,29.1
		c-2.5,7.7-4,16.1-4.1,24.2c-0.4,34.5-0.3,69-0.1,103.5c0,7.5,0.5,15,1.6,22.4c1.7,11,6,20.9,15.5,27.7c15.3,11,39.3,9.1,53.7-4.3
		c0.7-0.7,1.5-1.3,2.9-2.5c0,3.7,0,6.5,0,9.6c10.5,0,20.7,0,31,0c0-1.6,0-2.8,0-4.1c0-30,0-60,0-90c0-4.9-0.1-9.8,0-14.6
		c0.1-2.5-0.7-3.6-3.3-3.6c-14.6,0.1-29.2,0-43.9,0c-2.2,0-3.1,0.9-3,3.1c0.1,4.5,0,9,0,13.5c0,2.9,0,5.9,0,9.1
		C224.2,283.8,229.8,283.8,235.8,283.8z M163.3,439c2.1,0.1,3.6,0.3,5.1,0.3c86.5,0,173,0,259.4,0c2.2,0,4.5-0.1,6.7,0.1
		c3.3,0.2,4.6-0.9,4.5-4.5c-0.2-11.9-0.1-23.7-0.1-35.6c0-5.6,0-5.6-5.7-5.6c-87.9,0-175.7,0-263.6,0c-1,0-2,0.1-3,0
		c-2.6-0.3-3.5,0.8-3.4,3.4c0.2,6.7,0,13.5,0,20.2C163.3,424.4,163.3,431.5,163.3,439z"/>
</g>
</svg>
