<?xml version="1.0" encoding="utf-8"?>
<!-- Generator: Adobe Illustrator 21.1.0, SVG Export Plug-In . SVG Version: 6.00 Build 0)  -->
<svg version="1.0" id="Layer_1" xmlns="http://www.w3.org/2000/svg" xmlns:xlink="http://www.w3.org/1999/xlink" x="0px" y="0px"
	 viewBox="0 0 600 600" style="enable-background:new 0 0 600 600;" xml:space="preserve">
<style type="text/css">
	.st0{fill:#24587C;}
	.st1{fill:none;}
</style>
<g>
	<path class="st0" d="M50.4,317.5c-0.3,9.3,0.4,18.6,2.4,27.8c1.9,9,5,17.5,10.9,24.7c6.8,8.3,15.5,11.6,26.2,10.6
		c13.4-1.2,21.2-9.1,26-20.9c0.6-1.5,1.1-3.1,1.7-4.6c1.1-2.9,0.4-5.7,0.2-8.6c-0.1-1.1,0.4-2.5-0.4-3.1c-0.7-0.5-2.1-0.1-3.2-0.1
		c-7.8,0.4-15.6,0.8-23.4,1.3c-2,0.1-2.2-0.1-2.3-2c-0.5-9.1-1.5-18.2-2.3-27.3c-0.1-0.9,0-1.7-0.2-2.6c-0.5-1.8,0.2-2.4,1.9-2.8
		c4.9-1,9.8-1.2,14.8-1.6c9.9-0.7,19.8-1.2,29.7-1.7c5.8-0.3,11.6-0.3,17.5-0.1c3.4,0.1,3.5,0.4,3.7,3.8c0.6,9.3,1.2,18.5,1.9,27.8
		c0.9,12.5,1.3,25.1-1.6,37.4c-3.1,13-9.1,24.2-20.7,31.6c-7.1,4.5-15,7.3-23.2,9.2c-11.7,2.7-23.6,3.8-35.5,3.1
		c-19.7-1.1-34.8-10.5-45.3-27.2C22.3,381.6,18,369.7,15.7,357c-2-11-3.1-22-3.8-33.1c-0.6-9.7-0.7-19.4,0.1-29.1
		c1.3-14.9,4.2-29.4,11.9-42.5c9.7-16.5,24.2-26.4,43-29.1c15.2-2.1,30.5-2.4,45.5,1.5c11.1,2.9,20.9,7.9,27.4,17.7
		c4.9,7.4,8.4,15.6,10,24.5c0.2,1.1-0.1,1.5-1.1,1.8c-7.5,2.5-15.1,4.2-22.7,6.1c-4.9,1.2-9.9,2.3-14.8,3.6c-1.2,0.3-1.6,0-2-1
		c-1.3-2.7-2.8-5.3-4.4-7.9c-3-4.7-7.1-7.5-12.6-8.3c-6-0.9-12-0.8-17.9,0.5c-8.4,1.9-13.7,7.6-17.3,15c-3.2,6.5-4.7,13.4-5.7,20.4
		C50.5,303.9,50.1,310.7,50.4,317.5z"/>
	<path class="st0" d="M395.1,296.3c-0.1,6,0.2,13.2-0.3,20.4c-0.7,9.2-2.3,18.2-6.2,26.6c-5.5,11.9-14.7,19.4-27.2,23.1
		c-8.3,2.4-16.8,3.8-25.4,3.8c-6.4,0-12.9,0.2-19.3-0.9c-15.9-2.8-27.6-11.4-35.4-25.3c-5.2-9.3-8.4-19.3-9.8-30
		c-2-14.1-2.1-28.3-1.5-42.5c0.5-13.1,2.6-26.1,7.4-38.4c4.5-11.7,11.3-21.7,22-28.7c8.6-5.6,18.1-8.4,28.4-8.6
		c9.3-0.1,18.5,0.1,27.6,2c10.3,2.1,19.9,5.7,27.5,13.5c4.4,4.5,6.9,10.1,8.9,15.9c1.4,3.8,2.5,7.7,3,11.7c0.2,1.6-0.3,2.1-1.7,2.4
		c-5.8,1.4-11.6,2.3-17.4,3.4c-5.2,0.9-10.3,1.7-15.5,2.6c-1,0.2-1.4-0.1-1.7-1c-0.9-2.2-1.9-4.4-2.9-6.5c-2.1-4.4-5.4-7.4-10.2-8.5
		c-5.7-1.4-11.5-1.8-17.3-0.8c-7.3,1.3-12,6.1-15.6,12.3c-3.6,6.4-5.5,13.3-6.8,20.5c-1.8,9.8-2.2,19.7-2,29.6
		c0.2,9.6,1.7,19,6.1,27.6c3.4,6.6,8,12.3,15.5,14.3c14.8,3.9,26.1-0.7,33.2-14c2.5-4.7,3.5-9.5,3.1-14.8c-0.1-1-0.4-1.2-1.3-1.2
		c-3.9,0-7.8-0.1-11.6-0.2c-3.7-0.1-7.4-0.2-11.1-0.2c-1,0-1.4-0.2-1.5-1.3c-0.1-9.2-0.2-18.5-0.4-27.7c0-1.1,0.5-1.3,1.4-1.5
		c2.8-0.5,5.6-0.5,8.4-0.5c10.6,0,21.2,0.1,31.8,0.3c5.4,0.1,10.8,0.3,16.2,1.2c1.4,0.2,2,0.8,1.9,2.3
		C395.1,283.2,395.1,289.2,395.1,296.3z"/>
	<path class="st0" d="M261.6,292.7c0.1,7.5-0.5,17.1-3.5,26.3c-6,18-18.3,28.6-37.1,31.6c-8.7,1.4-17.4,1.6-25.9-0.9
		c-12.5-3.6-20.5-12.2-25.7-23.8c-3.7-8.5-5.6-17.4-6.3-26.6c-0.6-8-0.6-16.1,0.4-24.1c1.6-13.7,6.4-25.9,17.3-35.1
		c7.1-5.9,15.3-9.2,24.4-10.2c7.7-0.8,15.5-1,23.1,0.8c11.2,2.6,19.1,9.6,24.9,19.4c4.4,7.6,6.4,15.9,7.6,24.4
		C261.6,279.9,261.6,285.3,261.6,292.7z M227.9,291c0.2-3-0.2-5.9-0.7-8.8c-0.6-3.9-1.6-7.7-3.5-11.2c-3.2-5.7-7-6.5-12.1-6.2
		c-8,0.5-12.2,7.5-13.4,13.4c-1.5,7.5-1.5,15.2-1.1,22.8c0.1,2.9,0.7,5.8,1.9,8.5c1.2,2.8,2.8,5.4,5.5,6.8c2.8,1.5,6.2,1.8,9.2,1.5
		c5.5-0.6,9.7-3.3,11.6-8.9C227.3,303,227.7,297,227.9,291z"/>
	<path class="st0" d="M454.2,336.6c-7.4,0.1-15-0.9-22-4.3c-10.3-5-16.4-13.6-19.9-24.2c-2.9-8.8-3.7-17.9-3.2-27.1
		c0.4-7.3,0.9-14.6,3.2-21.5c5.6-17,17.4-26.9,35.1-29.7c8.8-1.4,17.7-1,26.3,1.2c12.3,3.1,20.3,11.2,25.3,22.5
		c2.7,6.1,3.8,12.6,4.2,19.2c0.6,9.4,0.1,18.8-1.8,28.1c-3.2,15.4-11.4,26.9-26.4,32.7C468.4,335.9,461.5,336.7,454.2,336.6z
		 M471.3,281.6c-0.4-4.8-0.9-9.6-2.7-14.1c-2-5-5.9-7.2-11-7.5c-6.5-0.4-13.2,5.3-14.5,11.8c-1.1,5.5-1.8,11-1.9,16.6
		c-0.1,4.3,0.2,8.4,2.3,12.3c1.2,2.1,2.6,4.1,5.1,4.9c2.4,0.7,4.8,1.2,7.3,1.4c3.3,0.3,9.8-2.8,11.4-6.1
		C470.1,294.7,470.7,288.1,471.3,281.6z"/>
	<path class="st0" d="M532.6,378.6c-2.7,0-5.2,0-7.8,0c-12.4,0.1-24.8,0-37.1-0.7c-1.1-0.1-1.8-0.4-2.1-1.5c-0.3-1-0.5-2-0.5-3
		c0-5.8,0-11.5-0.1-17.3c0-0.7,0.2-1.1,0.9-1.2c1.6-0.4,3.2-0.9,4.9-0.9c18,0.4,36.1,0.6,54.1,1.4c6.3,0.3,12.5,0.5,18.8,0.7
		c1,0,2,0.2,3,0.5c1.6,0.6,2.4,1.6,2.4,3.5c-0.1,5.6-0.4,11.3-0.7,16.9c-0.1,0.8-0.5,1.4-0.9,1.9c-13.2,16.9-26.3,33.7-39.5,50.6
		c-0.8,1-1.6,2-2.6,3.3c5.3,0.2,10.4,0.5,15.4,0.7c8.2,0.4,16.4,0.7,24.6,1.1c2.4,0.1,3.4,1.2,3.3,3.5c-0.2,5.7-0.5,11.4-0.7,17.1
		c-0.1,1.5-1.4,2.8-2.9,2.8c-8.7,0.1-17.5-0.3-26.2-0.5c-6.4-0.2-12.8-0.3-19.2-0.5c-8.8-0.3-17.6-0.6-26.3-1.3c-0.1,0-0.2,0-0.3,0
		c-4.5-0.5-5.1-1.1-4.9-5.6c0.2-4.9,0.5-9.8,0.6-14.7c0-0.9,0.4-1.6,1-2.3c15-17.1,28.9-35,42.3-53.4
		C532.1,379.4,532.3,379,532.6,378.6z"/>
	<path class="st0" d="M194,451.8c-5.5-0.3-10.9-0.7-16.2-2.5c-8.5-2.8-13.3-9-15.6-17.4c-0.2-0.8-0.1-1.2,0.7-1.6
		c5.7-2.4,11.3-4.9,17.2-6.6c0.6-0.2,1.3-0.6,1.6,0.6c1.1,4.3,4.3,6.1,8.4,6.6c2.5,0.3,5,0.6,7.5-0.1c0.8-0.2,1.5-0.5,2.1-1
		c1.7-1.4,1.5-3-0.4-3.9c-5-2.2-10.3-3.6-15.6-5.1c-6.8-2-12.9-5-17-11c-3.9-5.6-4.4-11.9-3.1-18.4c0.6-3.1,2.9-5.3,5.2-7.3
		c7.3-6.6,16.1-8.7,25.7-8.1c5.8,0.4,11.6,1.1,16.9,3.6c8,3.7,11.9,10.4,14.1,18.5c0.2,0.8-0.1,1-0.8,1.1c-6.2,1.1-12.3,2.2-18.6,3
		c-1.4,0.2-2.3-0.2-2.9-1.6c-1.4-3.2-3.9-5-7.5-5.1c-1.6,0-3.2-0.3-4.8-0.1c-1.6,0.2-2.8,0.9-3.8,2.1c-1.8,2.2-1.3,4.6,1.2,5.8
		c2.7,1.3,5.6,1.8,8.5,2.4c7.6,1.6,15,4,21,9.3c4.9,4.3,6.7,9.8,6.2,16.3c-0.7,7.9-4.7,13.4-11.8,16.7
		C206.5,450.8,200.4,452.1,194,451.8z"/>
	<path class="st0" d="M230.3,411.3c-0.1-4.8,0.2-9.9,1.7-15c3.2-11.4,10.9-18,22.6-19.3c5.9-0.6,11.8-0.7,17.5,1.1
		c10.8,3.4,17,11.1,19.2,21.8c2.4,11.6,1.1,22.9-3.5,33.8c-0.4,1-0.5,1.6,0.3,2.4c1.1,1,2,2,2.9,3.1c1.8,2,1.9,4.7-0.1,6.6
		c-2.7,2.7-5.5,5.3-8.4,7.8c-2.1,1.9-4.7,1.6-6.7-0.5c-1.2-1.2-2.2-2.9-3.6-3.6c-1.5-0.7-3.2,0.7-4.8,1c-8.8,1.3-17.2,0.3-24.6-5.2
		c-6.2-4.7-9.4-11.3-11.2-18.7C230.5,421.8,230.1,416.8,230.3,411.3z M273.8,414.1c0.1-1.6-0.1-3.1-0.4-4.6
		c-0.5-2.8-1.6-5.5-3.2-7.9c-3.8-5.6-11.3-6.8-16.7-2.6c-1.1,0.9-1.9,2-2.4,3.3c-2.6,7.1-3.7,14.1-0.8,21.4c1.3,3.2,2.4,5.8,6.2,7
		c4.7,1.5,8.4,1.2,11.9-2.3C272.4,424.4,273.7,419.5,273.8,414.1z"/>
	<path class="st0" d="M436.8,358.8c8,0,16.1,0,24.1,0c4,0,8-0.2,12-0.3c1.8,0,2.5,0.5,2.7,2.3c0.5,4.8,0.6,9.6,0.8,14.4
		c0,1.1-0.5,1.1-1.4,1.2c-9.2,0.1-18.5,0.3-27.7,0.4c-3.9,0-3.9,0-3.6,3.8c0.2,2.2,0.3,4.3,0.4,6.5c0,1.2,0.3,1.6,1.7,1.5
		c6.3-0.5,12.6-0.9,19-1.3c2.1-0.1,2.7,0.5,2.9,2.6c0.3,4.2,0.6,8.3,0.8,12.5c0.1,1.7-0.6,2.4-2.2,2.5c-6.4,0.4-12.8,0.8-19.1,1.2
		c-1.1,0.1-1.3,0.4-1.3,1.4c0.2,2.3,0.3,4.7,0.3,7c0,1.5,0.5,1.8,1.9,1.8c8.2-0.2,16.4-0.2,24.7-0.4c4.7-0.1,4.8-0.1,5.1,4.7
		c0.2,3.5,0.4,7.1,0.6,10.6c0.1,1.8-0.6,2.6-2.4,2.7c-10.2,0.2-20.3,0.4-30.5,0.6c-5.2,0.1-10.5,0.2-15.7,0.3c-2,0-2.7-0.6-2.7-2.6
		c-0.4-17.2-0.7-34.5-1.1-51.7c-0.1-5.9-0.3-11.7-0.5-17.6c-0.1-2.8,0.5-3.4,3.3-3.4c2.7,0,5.4,0,8,0
		C436.8,359.1,436.8,359,436.8,358.8z"/>
	<path class="st0" d="M364.3,411.9c-0.2,6.1,0.6,12.2-0.3,18.3c-1.2,7.9-5.3,13.8-12.6,17.1c-3.7,1.7-7.9,2.3-11.9,2.9
		c-6.5,0.9-13.1,1.3-19.3-0.8c-6.9-2.3-12.9-6-15.8-13.3c-2.5-6.1-3.2-12.4-3.1-18.9c0.1-6.9-0.1-13.8-0.2-20.7
		c0-0.6,0.1-1.3,0.1-1.9c-0.1-1,0.3-1.3,1.3-1.2c7,0.3,13.9,0.5,20.9,0.7c0.9,0,0.8,0.4,0.8,1.1c-0.1,5.3-0.2,10.5-0.1,15.8
		c0.1,4.9,0.7,9.8,2.3,14.5c0.5,1.4,1.1,2.7,2.1,3.9c2.6,3.2,6.8,3.5,9.7,0.6c2.9-2.9,3.9-6.6,4.6-10.5c1.4-7.2,1.1-14.5,1-21.8
		c0-0.2,0-0.5,0-0.7c-0.3-1.7,0.4-2.2,2.1-2.2c5.2-0.1,10.5-0.5,15.7-1.2c2.7-0.4,2.8-0.2,2.8,2.6c0,4.9,0,9.8,0.1,14.7
		C364.3,411.2,364.3,411.6,364.3,411.9z"/>
	<path class="st0" d="M404.5,427.4c4,0,8,0.1,12,0c1.6,0,2.4,0.6,2.5,2.1c0.3,3.8,0.5,7.6,0.6,11.4c0,1.3-1,1.7-2.3,1.7
		c-4.1,0.1-8.2,0.1-12.3,0.2c-9.8,0.2-19.5,0.4-29.3,0.6c-1.9,0-2.5-0.5-2.5-2.3c-0.2-8.4-0.3-16.9-0.5-25.3
		c-0.2-11.2-0.5-22.4-0.8-33.5c0-1.4,0.6-2.1,2-2.1c7-0.1,14-0.3,21.1-0.4c6.5-0.1,13-0.3,19.5-0.5c2-0.1,2.7,0.4,2.8,2.4
		c0.3,3.8,0.4,7.5,0.7,11.3c0.1,1-0.1,1.4-1.3,1.4c-6.6,0.1-13.1,0.2-19.7,0.3c-2.3,0-4.7,0.2-7,0.1c-1.6,0-2,0.6-1.8,2.1
		c0.3,2.1,0.5,4.3,0.6,6.5c0,1.2,0.4,1.4,1.5,1.3c5.6-0.4,11.3-0.8,16.9-1.1c2.1-0.1,2.6,0.3,2.8,2.4c0.2,3.2,0.5,6.5,0.7,9.7
		c0.1,2-0.3,2.6-2.3,2.7c-5.4,0.3-10.8,0.7-16.2,0.9c-1.6,0.1-2.1,0.6-1.9,2.1c0.2,1.6,0.3,3.2,0.2,4.8c-0.1,1.3,0.3,1.8,1.7,1.7
		c4.1-0.1,8.1,0,12.2,0C404.5,427.7,404.5,427.5,404.5,427.4z"/>
	<path class="st0" d="M524,298.8c0.1-10.6,2.5-20.6,9.3-29.2c3.2-4.1,7.2-7.2,11.6-10c8.2-5.3,16.9-2.4,22.3,3.3
		c8.9,9.6,5.3,22.5-3.6,29.2c-4.9,3.7-10.5,6.4-16,9.1c-6.6,3.1-11.9,7.5-15.4,14c-0.7,1.3-1.2,2.7-1.3,4.2
		c-0.1,0.8-0.3,1.5-1.1,1.7c-0.9,0.3-1.5-0.4-1.9-1.1c-1-1.6-1.4-3.4-1.8-5.1C524.7,309.7,524.1,304.3,524,298.8z"/>
	<path class="st0" d="M590.2,325.6c-0.2,11.5-9.4,17.3-19.2,14.2c-4.2-1.3-7.8-3.7-11.3-6.2c-4.2-3-8.6-5.3-13.8-5.8
		c-1.9-0.2-3.7-0.1-5.5,0.6c-0.6,0.2-1.2,0.4-1.7-0.1c-0.6-0.6-0.2-1.3,0.1-1.9c0.7-1.3,1.9-2.3,3-3.3c6.3-5.8,13.5-10.1,22.1-11.5
		c7.9-1.3,15.3,0.5,21.9,5C588.8,319,590.1,322.4,590.2,325.6z"/>
	<path class="st0" d="M582.2,447.3c-3.9,0-6.9-2.9-6.9-6.9c0-3.9,3.1-7.1,7-7c3.9,0.1,6.9,3.2,6.8,7.1
		C589.1,444.4,586.1,447.3,582.2,447.3z M582.2,434.6c-3,0-5.5,2.6-5.5,5.8c0,3.2,2.5,5.9,5.6,5.9c3,0,5.5-2.7,5.5-5.9
		C587.7,437.2,585.2,434.6,582.2,434.6z"/>
	<path class="st1" d="M582.2,434.6c3,0,5.5,2.6,5.5,5.8c0,3.1-2.5,5.8-5.5,5.9c-3.1,0-5.6-2.6-5.6-5.9
		C576.7,437.1,579.2,434.6,582.2,434.6z M579.6,440.4c0,0.9,0,1.8,0,2.7c0,0.5-0.3,1.3,0.6,1.3c1,0.1,0.6-0.7,0.7-1.2
		c0-0.2,0-0.5,0-0.7c0.1-0.5-0.4-1.4,0.7-1.4c0.8,0,1.5,0.2,1.7,1.1c0.1,0.6,0.2,1.1,0.4,1.7c0.1,0.5,0.5,0.6,0.9,0.5
		c0.7,0,0.5-0.5,0.4-0.9c-0.1-0.7-0.1-1.4-0.5-2c-0.5-0.7-0.6-1.1,0.1-1.9c0.8-0.8,0.6-2-0.4-2.7c-1.3-0.9-2.8-0.8-4.1-0.4
		c-1.1,0.4-0.3,1.6-0.5,2.4C579.5,439.5,579.6,439.9,579.6,440.4z"/>
	<path class="st0" d="M579.6,440.4c0-0.5-0.1-0.9,0-1.4c0.2-0.8-0.6-2,0.5-2.4c1.3-0.4,2.9-0.5,4.1,0.4c1,0.7,1.2,1.9,0.4,2.7
		c-0.7,0.8-0.6,1.1-0.1,1.9c0.4,0.5,0.4,1.3,0.5,2c0.1,0.4,0.3,0.8-0.4,0.9c-0.4,0-0.8,0-0.9-0.5c-0.1-0.6-0.2-1.1-0.4-1.7
		c-0.2-0.9-0.9-1.1-1.7-1.1c-1.1,0-0.6,0.9-0.7,1.4c-0.1,0.2,0,0.5,0,0.7c-0.1,0.5,0.3,1.3-0.7,1.2c-0.9-0.1-0.6-0.8-0.6-1.3
		C579.6,442.2,579.6,441.3,579.6,440.4z M581.7,440.1c1,0,1.9-0.2,1.9-1.2c0-1.1-0.9-1.3-1.8-1.4c-1.1-0.1-0.9,0.7-0.8,1.3
		C580.9,439.3,580.6,440.2,581.7,440.1z"/>
	<path class="st0" d="M266.9,176.5c0.6,0,1.1,0.2,1.1,0.9c0,0.6-0.5,0.8-1,0.9c-0.8,0.1-0.8-0.4-0.8-1
		C266.2,176.7,266.4,176.4,266.9,176.5z"/>
</g>
</svg>
