<?xml version="1.0" encoding="utf-8"?>
<!-- Generator: Adobe Illustrator 21.1.0, SVG Export Plug-In . SVG Version: 6.00 Build 0)  -->
<svg version="1.0" id="Layer_1" xmlns="http://www.w3.org/2000/svg" xmlns:xlink="http://www.w3.org/1999/xlink" x="0px" y="0px"
	 viewBox="0 0 600 600" style="enable-background:new 0 0 600 600;" xml:space="preserve">
<style type="text/css">
	.st0{fill:#24587C;}
</style>
<g>
	<path class="st0" d="M120,272.4c10.8,0,21.7,0,32.5,0c1,0,1.5,0.1,1.7,1.3c0.9,6.2,1,12.5,0.4,18.7c-0.9,8.9-2.9,17.6-7.2,25.5
		c-9.1,16.8-23.1,27.6-41.5,32.2c-18.9,4.6-37.4,3-54.7-6.3c-21.2-11.4-34.7-29-38.9-52.8c-3.8-21.4,1.5-40.9,15.2-57.9
		c11.8-14.6,27.1-23.9,45.6-27c23.6-4,44.7,1.7,62.5,18.1c0.9,0.8,0.9,1.3,0.1,2.1c-4.1,4-8.1,8-12.1,12.1c-0.9,0.9-1.4,0.9-2.3,0
		c-7.2-6.5-15.6-10.8-25.2-12.5c-25.6-4.5-49.9,8.8-59,32.5c-7.5,19.6-4.8,38.2,8.4,54.7c8.8,11.1,20.6,17.3,34.7,18.8
		c12,1.3,23.5-0.6,34-7c11.7-7.1,18.2-17.6,20-31.1c0.2-1.2-0.1-1.3-1.2-1.3c-15,0-29.9,0-44.9,0c-2.2,0-2,0.3-2-2
		c0-5.4,0-10.9,0-16.3c0-1.4,0.3-1.8,1.7-1.8C98.4,272.4,109.2,272.4,120,272.4z"/>
	<path class="st0" d="M459.9,306.4c0,14,0.1,28,0,42c-0.1,8-1.5,15.8-4.9,23.2c-5.1,10.9-13.4,18.1-24.9,21.4
		c-12.5,3.6-24.9,3.1-36.6-3.1c-9.2-4.8-15.8-12.1-20.2-21.5c-0.5-1-0.4-1.4,0.7-1.9c5.2-2.1,10.4-4.3,15.6-6.5
		c1-0.4,1.4-0.3,1.9,0.7c3.8,7.6,9.4,13.2,17.9,14.9c9.2,1.8,17.8,0.3,24.4-7c3.7-4,5.3-9.1,6-14.4c0.5-3.8,0.3-7.7,0.3-11.5
		c0-0.4,0.2-0.9-0.3-1c-0.4-0.1-0.7,0.3-0.9,0.6c-7.1,7.5-15.9,10.3-26,10c-20.7-0.6-39.8-17.4-43.3-39.4
		c-3.1-19.7,5.7-39,22.5-49.1c7.8-4.7,16.2-7,25.3-6.3c8.3,0.7,15.6,3.7,21.5,9.8c0.3,0.3,0.5,0.8,1.1,0.6c0.4-0.2,0.2-0.7,0.2-1.1
		c0-1.8,0-3.6,0-5.4c0-0.8,0.1-1.2,1-1.2c5.9,0,11.9,0,17.8,0c1.3,0,1,0.8,1,1.6c0,13.4,0,26.7,0,40.1
		C459.9,303.5,459.9,304.9,459.9,306.4C459.9,306.4,459.9,306.4,459.9,306.4z M389.8,303.9c0,8.7,2.3,15.4,7.2,21.1
		c10.7,12.5,30.5,11.6,39.4-2.2c7.3-11.3,7.3-23.3,0.4-34.8c-7.5-12.6-23.5-15.6-35.3-7C393.4,286.9,390,295.2,389.8,303.9z"/>
	<path class="st0" d="M210.7,352.5c-26.9-0.1-47.7-20.9-47.6-47.7c0.1-26.9,20.9-47.4,47.9-47.3c27,0.1,47.6,20.8,47.5,47.7
		C258.3,331.9,237.4,352.6,210.7,352.5z M184,304.8c0,3.8,0.6,7.5,1.9,11.1c6.7,18.1,28.9,23.8,42.6,10.8c9.4-8.9,11.2-20.1,7.5-32
		c-5.4-17.1-25.3-24-39.8-14C187.7,286.5,184.2,294.8,184,304.8z"/>
	<path class="st0" d="M314.9,352.5c-26.1,0.5-47.6-18.5-48.8-44.9c-1.4-28.5,19.7-48.7,44.9-50c26.9-1.4,49.1,17.8,50.3,45
		C362.5,330.1,342.5,351.5,314.9,352.5z M286.9,304.8c0,4.4,0.8,8.6,2.5,12.6c7.8,18,30.8,22,43.7,7.5c7.8-8.8,9.2-19.2,5.7-30.2
		c-5.6-17.4-26-24.2-40.5-13.5C290.4,287,287,295.2,286.9,304.8z"/>
	<path class="st0" d="M501.4,305c0.2-13.1,3.9-24.6,12.9-34c10.1-10.5,22.7-14.8,37.1-13.2c14,1.6,23.9,9.4,31.2,21
		c2.6,4.2,4.3,8.9,6.2,13.5c0.4,0.9-0.2,0.9-0.7,1.2c-7,2.9-14,5.8-21,8.7c-13.5,5.6-26.9,11.2-40.4,16.7c-1,0.4-1,0.7-0.6,1.6
		c8.9,17.1,31.8,16.8,42.5,4.4c1-1.1,1.9-2.3,2.8-3.5c0.5-0.6,0.8-0.7,1.4-0.2c4.8,3.3,9.7,6.5,14.5,9.7c0.7,0.4,0.8,0.7,0.3,1.4
		c-7.7,10.5-17.8,17.4-30.8,19.5c-14.8,2.4-28.3-1-39.7-11c-8.9-7.8-13.8-17.8-15.3-29.6C501.6,309.1,501.6,306.9,501.4,305z
		 M522.2,300.9c-0.2,2.7-0.2,2.7,2.3,1.6c0.4-0.1,0.7-0.3,1.1-0.4c12.6-5.2,25.2-10.5,37.9-15.7c1.1-0.4,1.1-0.9,0.6-1.8
		c-0.9-1.5-1.9-2.9-3.3-4c-5.4-4.4-11.7-5.7-18.3-4.2C530.8,279,523,288.6,522.2,300.9z"/>
	<path class="st0" d="M492.6,279.8c0,22.6,0,45.3,0,67.9c0,1.4-0.2,1.9-1.8,1.9c-5.7-0.1-11.5-0.1-17.2,0c-1.1,0-1.4-0.3-1.4-1.4
		c0-45.5,0-91.1,0-136.6c0-1.1,0.2-1.4,1.3-1.4c5.9,0.1,11.8,0.1,17.6,0c1.2,0,1.4,0.4,1.4,1.5C492.6,234.5,492.6,257.1,492.6,279.8
		z"/>
</g>
</svg>
