<?xml version="1.0" encoding="UTF-8" standalone="no"?>
<!-- Generator: Adobe Illustrator 21.1.0, SVG Export Plug-In . SVG Version: 6.00 Build 0)  -->

<svg
   xmlns:dc="http://purl.org/dc/elements/1.1/"
   xmlns:cc="http://creativecommons.org/ns#"
   xmlns:rdf="http://www.w3.org/1999/02/22-rdf-syntax-ns#"
   xmlns:svg="http://www.w3.org/2000/svg"
   xmlns="http://www.w3.org/2000/svg"
   xmlns:sodipodi="http://sodipodi.sourceforge.net/DTD/sodipodi-0.dtd"
   xmlns:inkscape="http://www.inkscape.org/namespaces/inkscape"
   version="1.1"
   id="Layer_1"
   x="0px"
   y="0px"
   viewBox="0 0 600 600"
   style="enable-background:new 0 0 600 600;"
   xml:space="preserve"
   sodipodi:docname="Google-day.svg"
   inkscape:version="0.92.3 (2405546, 2018-03-11)"><metadata
   id="metadata23"><rdf:RDF><cc:Work
       rdf:about=""><dc:format>image/svg+xml</dc:format><dc:type
         rdf:resource="http://purl.org/dc/dcmitype/StillImage" /><dc:title></dc:title></cc:Work></rdf:RDF></metadata><defs
   id="defs21" /><sodipodi:namedview
   pagecolor="#003366"
   bordercolor="#666666"
   borderopacity="1"
   objecttolerance="10"
   gridtolerance="10"
   guidetolerance="10"
   inkscape:pageopacity="0"
   inkscape:pageshadow="2"
   inkscape:window-width="2736"
   inkscape:window-height="1719"
   id="namedview19"
   showgrid="false"
   inkscape:zoom="2.2250293"
   inkscape:cx="451.46095"
   inkscape:cy="271.3998"
   inkscape:window-x="-13"
   inkscape:window-y="-13"
   inkscape:window-maximized="1"
   inkscape:current-layer="Layer_1" />
<style
   type="text/css"
   id="style2">
	.st0{fill:#557DBF;}
	.st1{fill:#36A852;}
	.st2{fill:#F9BC17;}
	.st3{fill:#EA4535;}
</style>
<g
   id="g16">
	<path
   class="st0"
   d="M119.4,270.5c10.6,0,21.3,0,31.9,0c1.3,0,1.9,0.2,2.1,1.7c2.2,19.2-0.6,37.3-12.7,52.8   c-10.1,13-23.5,20.9-39.8,23.8c-13.6,2.4-27.1,2-40.1-2.9c-26.5-10.1-43.4-28.9-48.7-56.9c-3.7-19.7,0.8-38,12.5-54.3   c11.9-16.5,27.9-26.8,47.9-30.2c22.2-3.8,42.4,1.1,59.8,15.9c0.9,0.8,1.8,1.7,2.7,2.4c0.8,0.6,0.6,1,0,1.6   c-4.2,4.1-8.3,8.2-12.4,12.4c-0.8,0.8-1.2,0.8-1.9,0c-7.3-6.6-15.7-11-25.5-12.6c-16.6-2.7-31.6,1-44.4,12.2   c-10.6,9.3-16.4,21.2-17.8,35.2c-2.1,22,8.9,42.5,28.5,52.7c9.5,5,19.7,6.4,30.4,5.4c8.6-0.8,16.5-3.5,23.6-8.4   c9.8-6.7,15.5-15.9,17.4-27.5c0.6-3.4,0.6-3.4-2.9-3.4c-14.3,0-28.6,0-43,0c-1.4,0-1.7-0.4-1.7-1.7c0.1-5.6,0.1-11.1,0-16.7   c0-1.4,0.4-1.7,1.8-1.7C97.9,270.6,108.7,270.5,119.4,270.5z"
   id="path4"
   style="fill:#f9f9f9" />
	<path
   class="st1"
   d="M490.3,277.9c0,22.5,0,45.1,0,67.6c0,1.8,0,1.8-1.9,1.8c-5.6,0-11.2,0-16.8,0c-1.2,0-1.5-0.3-1.5-1.5   c0-45.3,0-90.5,0-135.8c0-1,0.2-1.4,1.3-1.4c5.9,0.1,11.7,0.1,17.6,0c1.2,0,1.4,0.4,1.4,1.5C490.3,232.7,490.3,255.3,490.3,277.9z"
   id="path6"
   style="fill:#f9f9f9" />
	<path
   class="st0"
   d="M457.8,259.8c0-1-0.3-1.3-1.3-1.3c-5.7,0-11.4,0.1-17.1,0c-1.1,0-1.4,0.4-1.4,1.4c0.1,1.6,0,3.2,0,4.8   c0,0.5,0.3,1.2-0.3,1.4c-0.5,0.2-0.8-0.4-1.1-0.8c-1.1-1.1-2.1-2.1-3.3-3c-9.9-7.1-20.8-8.4-32.2-5.1   c-22.7,6.6-37.1,29.2-33.5,52.6c2.6,17,12,29.4,27.7,36.6c9.6,4.4,19.6,5.1,29.8,1.5c4.5-1.6,8.5-4.2,11.7-7.8   c0.3-0.3,0.5-0.7,0.9-0.6c0.5,0.1,0.4,0.5,0.4,0.8c0,4.6,0.3,9.2-0.6,13.7c-1,5.2-2.9,10.1-7.1,13.7c-7.9,6.8-17,7.8-26.5,4.4   c-6.8-2.4-11.3-7.5-14.3-13.9c-0.4-0.8-0.7-1.1-1.7-0.7c-5.3,2.3-10.6,4.5-15.9,6.6c-1,0.4-0.9,0.8-0.6,1.6   c5,10.5,12.6,18.4,23.3,23c10.8,4.7,22,4.8,33.2,1.6c11.6-3.3,20-10.5,25.1-21.6c3.3-7.2,4.8-14.9,4.8-22.8c0.1-14,0-28,0-41.9   c0,0,0,0,0,0c0-10.4,0-20.7,0-31.1C457.8,268.7,457.8,264.3,457.8,259.8z M433.6,321.7c-9.3,12.7-28,13.2-38.4,1.3   c-4.8-5.6-7.5-12.8-7.3-23.2c0-4.5,2.3-11.5,7.6-17.2c12.5-13.5,33.1-10.4,40.8,6.2C441.6,300.2,441,311.5,433.6,321.7z"
   id="path8"
   style="fill:#f9f9f9" />
	<path
   class="st2"
   d="M312.1,255.7c-26.9,0-47.5,20.6-47.4,47.4c0.1,26.6,20.8,47.3,47.5,47.2c26.7-0.1,47.4-20.7,47.4-47.3   C359.6,276.1,339,255.6,312.1,255.7z M326.2,327.4c-11.1,7.3-25.5,5-34.1-5.3c-8.9-10.6-8.8-28,0.1-38.5   c13.2-15.5,37.8-10.9,44.8,8.4c0.6,1.7,1.1,3.4,1.4,5.2c0.3,1.9,0.5,3.8,0.5,5.8C338.6,313.2,334.9,321.7,326.2,327.4z"
   id="path10"
   style="fill:#f9f9f9" />
	<path
   class="st3"
   d="M209.7,255.7c-26.9,0-47.5,20.6-47.5,47.3c0,26.6,20.8,47.3,47.5,47.3c26.7,0,47.4-20.7,47.5-47.3   C257.2,276.2,236.6,255.7,209.7,255.7z M229.3,322.6c-13.3,15.3-37.3,10.4-44.4-8.8c-1.3-3.5-1.9-7.2-1.9-10.9   c0.2-10,3.7-18.4,12.2-24.2c14.8-10,34.8-2.5,39.8,15C238,304.2,236.6,314.2,229.3,322.6z"
   id="path12"
   style="fill:#f9f9f9" />
	<path
   class="st3"
   d="M524.4,316.7c11.3-4.7,22.7-9.3,34-14c9-3.7,17.9-7.4,26.9-11.1c0.6-0.2,1.3-0.2,0.9-1.3   c-2.2-5.5-4.4-10.9-7.8-15.8c-16-23.6-44.7-22.9-61.6-9.6c-11.2,8.8-16.5,20.6-17.5,34.6c-0.7,10.3,1.3,20,6.8,28.7   c9.2,14.7,22.9,21.6,40,22.1c1,0,1.9-0.1,2.9-0.1c15.1-0.9,26.9-7.8,35.9-19.9c0.4-0.5,0.8-0.9-0.1-1.5c-4.9-3.2-9.7-6.4-14.5-9.6   c-0.7-0.5-1-0.3-1.5,0.3c-0.8,1.1-1.7,2.2-2.6,3.3c-10.6,12.5-33.6,12.8-42.4-4.2C523.2,317.4,523.4,317.1,524.4,316.7z    M521.6,300.7c-1.8,0.8-2,1.3-1.8-1.3c0-0.2,0-0.4,0-0.6c0.7-12.7,9.3-22.6,21.6-24.6c7.1-1.1,13.6,0.6,18.5,6.3   c2.6,3,2.5,3.3-1,4.7C546.5,290.4,534,295.6,521.6,300.7z"
   id="path14"
   style="fill:#f9f9f9" />
</g>
</svg>