<svg id="Layer_1" data-name="Layer 1" xmlns="http://www.w3.org/2000/svg" viewBox="0 0 864 404.95"><defs><style>.cls-1{font-size:42.13px;font-family:Futura-Medium, Futura;font-weight:500;}.cls-1,.cls-6{fill:#fff;}.cls-2{letter-spacing:-0.06em;}.cls-3{letter-spacing:0em;}.cls-4{letter-spacing:0.02em;}.cls-5{letter-spacing:-0.04em;}</style></defs><text class="cls-1" transform="translate(17.41 390.03) scale(1.15 1)">HAPPY <tspan class="cls-2" x="145.91" y="0">V</tspan><tspan x="171.75" y="0">ALLEY </tspan><tspan class="cls-3" x="302.43" y="0">C</tspan><tspan x="331.75" y="0">OMMUNI</tspan><tspan class="cls-4" x="529.55" y="0">C</tspan><tspan class="cls-5" x="559.83" y="0">A</tspan><tspan x="589.27" y="0">TIONS</tspan></text><path class="cls-6" d="M562.09,0,441.49,275,426,310.41h-8.59L401.82,275,281.22,0H0V341.49H864V0ZM244.28,310.41H214.21V175.07H70.35V310.41H40.27V29.7H70.35V146H214.21V29.7h30.07Zm461,9c-84.89,0-153.71-66.65-153.71-148.86S620.38,21.71,705.27,21.71c50.31,0,95,23.41,123,59.59l-24,18a124.18,124.18,0,0,0-99-48.41c-67.94,0-123,53.34-123,119.14s55.08,119.13,123,119.13a124.09,124.09,0,0,0,100.51-50.43h0l22.51,21.07h0C800.25,296,755.58,319.43,705.27,319.43Z"/><polygon class="cls-6" points="522.42 0 320.9 0 421.66 229.75 522.42 0"/></svg>