<?xml version="1.0" encoding="utf-8"?>
<!-- Generator: Adobe Illustrator 19.0.0, SVG Export Plug-In . SVG Version: 6.00 Build 0)  -->
<svg version="1.1" xmlns="http://www.w3.org/2000/svg" xmlns:xlink="http://www.w3.org/1999/xlink" x="0px" y="0px"
	 viewBox="-55 147 500 500" style="enable-background:new -55 147 500 500;" xml:space="preserve">
<style type="text/css">
	.st0{display:none;}
	.st1{display:inline;fill:#FFFFFF;}
	.st2{display:inline;fill:#C41230;}
	.st3{display:inline;}
	.st4{fill:#C41230;}
	.st5{fill:#1F70C1;}
</style>
<g id="Layer_1" class="st0">
	<path class="st1" d="M282.5,422.1c0,0.6,0,1,0,1.4c0,4.2,0,8.3,0,12.5c0.1,4.3,2.4,7.2,6.6,8.3c3.5,0.9,6.6,0.2,9.4-1.9
		c0.3-0.2,0.6-0.5,1.2-0.9c0,1.2,0,2.1,0,3.1c4.1,0,8.1,0,12.1,0c-1.5-0.7-2-2-2.1-3.5c-0.1-0.6-0.1-1.1-0.1-1.7
		c0-6.9,0-13.8,0-20.8c0-0.5,0-0.9-0.1-1.5c-4.1,0.2-8,0.3-12,0.5c1.9,0.9,2.1,2.5,2.1,4.1c0.1,3.9,0,7.8,0,11.8
		c0,0.9-0.2,1.9-0.5,2.8c-0.5,1.3-1.5,2.1-2.9,2.2c-2.3,0.2-3.8-1.3-3.8-3.9c0-5.4,0-10.7,0-16.1c0-0.4,0-0.9,0-1.4
		c-0.5,0-0.9-0.1-1.3-0.1c-8.8,0-17.7,0-26.5,0c-3.1,0-6.1,0.5-8.8,2.2c-5.1,3.2-5.9,9.6-1.6,13.9c1.2,1.2,2.7,2.1,4.1,3.1
		c-0.8,0.2-1.7,0.5-2.6,0.8s-1.3,0.9-1.2,1.9c0.3,3.3,2.5,5.4,5.8,5.6c0.8,0,1.5-0.1,2.3,0c1.9,0.2,3.8,0.3,5.5,0.8
		c1.6,0.4,2.4,1.8,2.5,3.6c0.1,1.8-0.7,3.2-2.4,3.9c-2.2,0.9-4.5,1.1-6.8,0.2c-1.4-0.5-2.5-1.3-2.9-2.8c-0.3-1.5,0.3-2.6,1.8-3.4
		c-2.8-0.4-5.3-0.5-7.6,0.6c-3.5,1.7-3.9,5.7-0.7,8c1.3,0.9,2.8,1.6,4.3,2.1c4.1,1.4,8.4,1.2,12.7,0.8c3-0.3,5.9-1,8.4-2.8
		c5-3.6,4.6-10.8-0.7-13.8c-1.3-0.7-2.7-1.2-4.2-1.4c-2.8-0.3-5.6-0.2-8.4-0.3c-1,0-2.2,0-2.3-1.3c-0.1-1.3,1.2-1.1,2-1.2
		c3.3-0.5,6.5-1.2,9.5-2.8c4.5-2.6,5.6-7.7,2.5-11.9c-0.2-0.2-0.3-0.5-0.6-0.8c0.3,0,0.5-0.1,0.7-0.1
		C278.1,422.1,280.2,422.1,282.5,422.1z"/>
	<path class="st1" d="M192.2,424.4c2.1-0.6,4.1-1.2,6.1-1.6c1.7-0.4,3.4-0.3,5,0.8c1.4,1,1.5,2.6,0,3.5c-0.9,0.5-2,0.8-3,1.1
		c-2.6,0.8-5.4,1.2-7.9,2.2c-2.7,1.1-4.3,3.3-4.4,6.3c-0.1,3,1.9,5.6,5.2,6.9c3,1.2,6.1,1,9.2,1c0.2,0,0.5-0.1,0.6-0.3
		c0.6-1.2,1.3-2.5,1.8-3.7c-1.4-0.2-2.6-0.2-3.8-0.6c-2.6-0.9-3.1-4-1.1-5.7c1.3-1.1,3-1.5,4.8-1.8c0,1.3,0,2.5,0,3.6
		c0,4.5,2.3,7.3,6.7,8.2c0.9,0.2,1.8,0.2,2.7,0.2c5.9,0,11.8,0,17.6,0c0.4,0,0.8,0,1.3,0c-1.8-1-2.2-2.7-2.2-4.4c0-4.1,0-8.2,0-12.2
		c0-0.4,0-0.8,0.1-1.2c0.4-2.3,2-3.6,4.2-3.5c2,0.1,2.9,1.4,2.9,3.9c0,4.4,0,8.9,0,13.3c0,1.3,0,2.6,0,4c4.1,0,8,0,12.1,0
		c-1.8-1.2-2.3-2-2.4-4.1c0-0.4,0-0.8,0-1.2c0-4.4,0-8.9,0-13.3c-0.1-4.6-2.6-7.6-7.1-8.5c-3.2-0.7-6.1,0.1-8.7,2
		c-0.3,0.2-0.6,0.4-1.1,0.8c0-1.1-0.1-2-0.1-3c-4.1,0.2-8,0.3-12,0.5c2,0.9,2.1,2.7,2.2,4.4c0,5.8,0,11.6,0,17.4
		c0,0.3-0.1,0.7-0.1,1c-4.1,0.8-6.4-1.1-6.4-5.2c0-2.7,0-5.4-0.1-8c-0.1-5.1-2.3-8-7.2-9.4c-4.1-1.1-8.2-0.9-12.3,0.1
		c-0.3,0.1-0.7,0.4-0.8,0.7C193.4,420.6,192.8,422.5,192.2,424.4z"/>
	<path class="st1" d="M343.9,417.7c1.6,0.7,2,2.1,2.1,3.6c0,0.4,0,0.7,0,1.1c0,5.7,0,11.4,0,17c0,0.4,0,0.8-0.1,1.1
		c-4.3,0.8-6.5-1.1-6.5-5.3c0-2.9,0-5.8-0.2-8.6c-0.2-3.7-1.7-6.6-5.3-8.1c-4.7-1.9-9.5-1.6-14.3-0.5c-0.3,0.1-0.6,0.3-0.7,0.6
		c-0.7,2-1.3,3.9-1.9,5.9c2.1-0.6,4-1.2,6-1.6c1.6-0.3,3.3-0.3,4.8,0.6c1.7,1,1.8,2.8,0.1,3.8c-0.8,0.5-1.8,0.8-2.8,1
		c-2.2,0.6-4.5,1-6.7,1.7c-3.7,1.2-5.7,3.9-5.6,7.2c0,3,2.2,5.5,5.7,6.7c2.8,1,5.8,0.8,8.7,0.8c0.2,0,0.6-0.1,0.7-0.3
		c0.6-1.2,1.2-2.5,1.8-3.6c-1.4-0.2-2.6-0.2-3.8-0.5c-1.3-0.4-2.1-1.5-2.3-2.8c-0.2-1.3,0.4-2.5,1.5-3.1c1.4-0.7,2.9-1.2,4.6-1.9
		c0,1.9-0.1,3.3,0,4.8c0.1,3.2,1.6,5.5,4.7,6.6c1.4,0.5,2.9,0.8,4.3,0.8c6.2,0.1,12.3,0,18.5,0c0.3,0,0.6,0,0.9-0.1
		c-1.9-0.8-2.1-2.5-2.1-4.1c-0.1-3.9-0.1-7.8,0-11.8c0.1-2.8,1.8-4.6,4.6-4.9c1.1-0.1,2.1,0,3.4,0c0-1.9,0-3.8,0-5.6
		c0-0.8-0.3-1.1-1.1-1.2c-2.5-0.2-4.6,0.6-6.2,2.7c-0.2,0.2-0.4,0.4-0.8,0.9c0-1.3,0-2.3,0-3.4C351.8,417.4,347.9,417.5,343.9,417.7
		z"/>
	<path class="st1" d="M383.2,418.9c-0.2,0-0.3,0-0.3,0c-0.4-0.2-0.7-0.4-1.1-0.5c-4.1-2-8.1-1.7-11.9,0.9
		c-6.6,4.6-7.5,15.9-1.9,21.8c2.7,2.9,6,4.3,10,3.9c0.6-0.1,1.4-0.2,1.7-0.6c0.9-1.4,1.7-2.9,2.5-4.4c-4.1,0-6.1-1.5-7.1-5.4
		c-0.7-2.5-0.7-5.1,0-7.6c0.3-1,0.8-2,1.4-2.7c1.9-2.2,5.1-1.6,6.1,1c0.4,1,0.5,2.1,0.5,3.2c0.1,5,0,9.9,0,14.9c0,0.4,0,0.8,0.1,1.3
		c4.2,0,8.2,0,12.2,0c-1.3-0.5-1.9-1.5-2.1-2.8c-0.1-0.7-0.2-1.3-0.2-2c0-11,0-22.1,0-33.1c0-0.5,0-0.9,0-1.5
		c-4.2,0.2-8.2,0.3-12.2,0.5c1.4,0.7,2,1.9,2.1,3.2C383.3,412.3,383.2,415.6,383.2,418.9z"/>
	<path class="st1" d="M155.9,405.2c0,0.1,0,0.2-0.1,0.3c1.9,1,2.6,2.7,3.3,4.5c3,8.3,6,16.6,8.9,24.9c2.1,6,6.8,8.4,12.5,9.8
		c4.5-13.2,8.9-26.3,13.4-39.5c-3.5,0-7,0-10.6,0c2.8,2,3.2,3.1,2.2,6.2c-1.1,3.5-2.2,6.9-3.3,10.4c-1.2,3.7-2.3,7.4-3.6,11.4
		c-0.3-0.8-0.5-1.2-0.6-1.6c-2.9-8.5-5.8-16.9-8.6-25.4c-0.3-0.8-0.6-1.1-1.5-1.1c-2.8,0.1-5.6,0-8.4,0
		C158.3,405.2,157.1,405.2,155.9,405.2z"/>
	<path class="st2" d="M282.5,422.1c-2.3,0-4.5,0-6.6,0c-0.2,0-0.4,0-0.7,0.1c0.2,0.3,0.4,0.6,0.6,0.8c3.1,4.2,2,9.3-2.5,11.9
		c-2.9,1.7-6.2,2.4-9.5,2.8c-0.9,0.1-2.1-0.1-2,1.2c0.1,1.2,1.3,1.2,2.3,1.3c2.8,0.1,5.6,0,8.4,0.3c1.4,0.1,2.9,0.7,4.2,1.4
		c5.4,3,5.7,10.2,0.7,13.8c-2.5,1.8-5.4,2.5-8.4,2.8c-4.3,0.4-8.6,0.6-12.7-0.8c-1.5-0.5-3-1.2-4.3-2.1c-3.1-2.2-2.7-6.2,0.7-8
		c2.4-1.2,4.9-1,7.6-0.6c-1.5,0.8-2.2,1.9-1.8,3.4c0.4,1.5,1.5,2.3,2.9,2.8c2.3,0.8,4.6,0.7,6.8-0.2c1.7-0.7,2.5-2,2.4-3.9
		c-0.1-1.7-0.9-3.1-2.5-3.6c-1.8-0.5-3.7-0.6-5.5-0.8c-0.8-0.1-1.5,0-2.3,0c-3.3-0.2-5.5-2.3-5.8-5.6c-0.1-1,0.3-1.6,1.2-1.9
		c0.9-0.3,1.8-0.5,2.6-0.8c-1.3-1-2.8-1.9-4.1-3.1c-4.3-4.2-3.5-10.7,1.6-13.9c2.7-1.7,5.7-2.2,8.8-2.2c8.8,0,17.7,0,26.5,0
		c0.4,0,0.8,0,1.3,0.1c0,0.5,0,0.9,0,1.4c0,5.4,0,10.7,0,16.1c0,2.6,1.5,4.1,3.8,3.9c1.4-0.1,2.4-0.8,2.9-2.2
		c0.3-0.9,0.5-1.9,0.5-2.8c0.1-3.9,0.1-7.8,0-11.8c0-1.6-0.3-3.2-2.1-4.1c3.9-0.2,7.9-0.3,12-0.5c0,0.5,0.1,1,0.1,1.5
		c0,6.9,0,13.8,0,20.8c0,0.6,0,1.1,0.1,1.7c0.1,1.5,0.6,2.8,2.1,3.5c-4,0-8,0-12.1,0c0-0.9,0-1.8,0-3.1c-0.6,0.4-0.9,0.6-1.2,0.9
		c-2.8,2.1-6,2.8-9.4,1.9c-4.2-1.1-6.6-3.9-6.6-8.3c-0.1-4.2,0-8.3,0-12.5C282.5,423.1,282.5,422.7,282.5,422.1z M268,427
		c-0.3-0.9-0.4-2.1-0.9-3c-1-2-3.7-2.2-5-0.5c-1.3,1.6-1.5,5.4-0.3,7.2c0.7,1.1,1.8,1.6,3.1,1.5c1.3-0.1,2.1-0.9,2.5-2.1
		C267.7,429.1,267.8,428.2,268,427z"/>
	<path class="st2" d="M192.2,424.4c0.6-1.9,1.2-3.8,1.9-5.7c0.1-0.3,0.5-0.6,0.8-0.7c4.1-0.9,8.2-1.2,12.3-0.1
		c4.9,1.4,7.2,4.3,7.2,9.4c0,2.7,0.1,5.4,0.1,8c0,4,2.3,5.9,6.4,5.2c0-0.3,0.1-0.7,0.1-1c0-5.8,0-11.6,0-17.4c0-1.7-0.1-3.5-2.2-4.4
		c4-0.2,7.9-0.3,12-0.5c0,1,0.1,1.9,0.1,3c0.5-0.3,0.8-0.6,1.1-0.8c2.6-1.9,5.5-2.6,8.7-2c4.5,0.9,7,3.9,7.1,8.5
		c0.1,4.4,0,8.9,0,13.3c0,0.4,0,0.8,0,1.2c0.1,2.1,0.6,3,2.4,4.1c-4.1,0-8.1,0-12.1,0c0-1.4,0-2.7,0-4c0-4.4,0-8.9,0-13.3
		c0-2.5-0.9-3.7-2.9-3.9c-2.2-0.2-3.8,1.2-4.2,3.5c-0.1,0.4-0.1,0.8-0.1,1.2c0,4.1,0,8.2,0,12.2c0,1.8,0.4,3.4,2.2,4.4
		c-0.4,0-0.8,0-1.3,0c-5.9,0-11.8,0-17.6,0c-0.9,0-1.8,0-2.7-0.2c-4.4-0.9-6.7-3.7-6.7-8.2c0-1.2,0-2.3,0-3.6
		c-1.8,0.4-3.5,0.7-4.8,1.8c-2,1.7-1.5,4.8,1.1,5.7c1.1,0.4,2.4,0.4,3.8,0.6c-0.6,1.2-1.2,2.4-1.8,3.7c-0.1,0.2-0.4,0.3-0.6,0.3
		c-3.1,0-6.2,0.2-9.2-1c-3.4-1.3-5.3-3.9-5.2-6.9s1.7-5.3,4.4-6.3c2.5-1,5.3-1.5,7.9-2.2c1-0.3,2.1-0.6,3-1.1c1.5-0.9,1.4-2.5,0-3.5
		c-1.5-1-3.3-1.1-5-0.8C196.3,423.2,194.3,423.9,192.2,424.4z"/>
	<path class="st2" d="M343.9,417.7c3.9-0.2,7.9-0.3,12-0.5c0,1.1,0,2,0,3.4c0.4-0.5,0.6-0.7,0.8-0.9c1.6-2.1,3.7-2.9,6.2-2.7
		c0.8,0.1,1.1,0.4,1.1,1.2c-0.1,1.9,0,3.7,0,5.6c-1.2,0-2.3-0.1-3.4,0c-2.8,0.3-4.5,2.1-4.6,4.9c-0.1,3.9-0.1,7.8,0,11.8
		c0,1.6,0.3,3.2,2.1,4.1c-0.3,0-0.6,0.1-0.9,0.1c-6.2,0-12.3,0.1-18.5,0c-1.4,0-3-0.3-4.3-0.8c-3-1.1-4.5-3.4-4.7-6.6
		c-0.1-1.5,0-2.9,0-4.8c-1.7,0.7-3.2,1.1-4.6,1.9c-1.1,0.6-1.6,1.7-1.5,3.1c0.2,1.4,0.9,2.5,2.3,2.8c1.2,0.3,2.4,0.4,3.8,0.5
		c-0.6,1.2-1.1,2.4-1.8,3.6c-0.1,0.2-0.5,0.3-0.7,0.3c-2.9,0-5.8,0.2-8.7-0.8c-3.6-1.2-5.7-3.7-5.7-6.7c0-3.3,1.9-6,5.6-7.2
		c2.2-0.7,4.5-1.1,6.7-1.7c1-0.3,2-0.5,2.8-1c1.7-1,1.6-2.8-0.1-3.8c-1.5-0.9-3.2-0.9-4.8-0.6c-2,0.4-4,1.1-6,1.6
		c0.6-1.9,1.2-3.9,1.9-5.9c0.1-0.2,0.4-0.5,0.7-0.6c4.8-1.1,9.6-1.4,14.3,0.5c3.7,1.4,5.2,4.4,5.3,8.1c0.1,2.9,0.1,5.8,0.2,8.6
		c0,4.2,2.2,6,6.5,5.3c0-0.4,0.1-0.7,0.1-1.1c0-5.7,0-11.4,0-17c0-0.4,0-0.7,0-1.1C345.9,419.8,345.5,418.4,343.9,417.7z"/>
	<path class="st2" d="M383.2,418.9c0-3.4,0.1-6.7,0-10c0-1.4-0.6-2.5-2.1-3.2c4-0.2,8-0.3,12.2-0.5c0,0.5,0,1,0,1.5
		c0,11,0,22.1,0,33.1c0,0.7,0,1.4,0.2,2c0.2,1.2,0.7,2.3,2.1,2.8c-4,0-8.1,0-12.2,0c0-0.4-0.1-0.9-0.1-1.3c0-5,0-9.9,0-14.9
		c0-1.1-0.1-2.2-0.5-3.2c-1-2.7-4.3-3.2-6.1-1c-0.6,0.8-1.1,1.8-1.4,2.7c-0.7,2.5-0.7,5.1,0,7.6c1,3.9,3,5.4,7.1,5.4
		c-0.8,1.5-1.6,3-2.5,4.4c-0.3,0.4-1.1,0.5-1.7,0.6c-4,0.4-7.2-1-10-3.9c-5.6-5.9-4.7-17.1,1.9-21.8c3.8-2.7,7.7-3,11.9-0.9
		c0.4,0.2,0.7,0.4,1.1,0.5C382.9,418.9,383,418.9,383.2,418.9z"/>
	<path class="st2" d="M155.9,405.2c1.2,0,2.4,0,3.7,0c2.8,0,5.6,0,8.4,0c0.9,0,1.2,0.3,1.5,1.1c2.8,8.5,5.7,17,8.6,25.4
		c0.1,0.4,0.3,0.9,0.6,1.6c1.3-4.1,2.4-7.7,3.6-11.4c1.1-3.5,2.2-6.9,3.3-10.4c1-3.2,0.6-4.3-2.2-6.2c3.6,0,7,0,10.6,0
		c-4.5,13.2-8.9,26.3-13.4,39.5c-5.7-1.5-10.4-3.8-12.5-9.8c-2.9-8.3-5.9-16.6-8.9-24.9c-0.7-1.8-1.4-3.6-3.3-4.5
		C155.8,405.4,155.8,405.3,155.9,405.2z"/>
	<path class="st1" d="M268,427c-0.2,1.1-0.4,2.1-0.6,3c-0.4,1.2-1.2,2-2.5,2.1s-2.3-0.4-3.1-1.5c-1.2-1.7-1.1-5.5,0.3-7.2
		s4-1.4,5,0.5C267.6,425,267.8,426.1,268,427z"/>
	<path class="st2" d="M401,404.6c-2.4,0-4.4,2-4.4,4.4s2,4.4,4.4,4.4s4.4-2,4.4-4.4S403.4,404.6,401,404.6z M401,412.9
		c-2.1,0-3.8-1.7-3.8-3.8c0-2.1,1.7-3.8,3.8-3.8c2.1,0,3.8,1.7,3.8,3.8C404.8,411.2,403.1,412.9,401,412.9z"/>
	<g class="st3">
		<g>
			<path class="st4" d="M399.2,411v-3.9h1.7c0.4,0,0.6,0,0.8,0.1c0.2,0.1,0.3,0.2,0.4,0.4c0.1,0.2,0.2,0.4,0.2,0.6
				c0,0.3-0.1,0.5-0.3,0.7c-0.2,0.2-0.5,0.3-0.8,0.4c0.1,0.1,0.2,0.1,0.3,0.2c0.2,0.1,0.3,0.3,0.4,0.5l0.7,1.1h-0.7l-0.5-0.8
				c-0.2-0.2-0.3-0.4-0.4-0.5s-0.2-0.2-0.3-0.3c-0.1-0.1-0.2-0.1-0.2-0.1c-0.1,0-0.2,0-0.3,0h-0.6v1.8h-0.4V411z M399.8,408.8h1.1
				c0.2,0,0.4,0,0.6-0.1c0.1,0,0.2-0.1,0.3-0.2c0.1-0.1,0.1-0.2,0.1-0.4c0-0.2-0.1-0.3-0.2-0.5c-0.1-0.1-0.3-0.2-0.6-0.2h-1.2
				L399.8,408.8L399.8,408.8z"/>
		</g>
	</g>
	<path class="st3" d="M60.4,438.8c1.2,0,2.5,0,3.8,0c0.1-0.3,0.1-0.7,0.2-1.1c0.5,0,0.9,0,1.5,0c0.1,0.4,0.1,0.7,0.2,1.1
		c1.3,0,2.5,0,3.8,0c0.1-0.3,0.2-0.7,0.2-1c0.7-0.5,1.5,0,1.7,1c1.2,0,2.5,0,3.8,0c0.1-0.3,0.2-0.7,0.3-1c0.8-0.1,1.6-0.3,1.5,1
		c1.3,0,2.6,0,3.9,0c0.1-0.3,0.1-0.7,0.2-1c0.5,0,0.9,0,1.4,0c0.1,0.3,0.2,0.6,0.3,1.1c3.2,0.1,6.6,0.5,9.3-2.3
		c-4.4,0.9-8.6,0.5-12.8,0.5c-26.8,0-53.7,0-80.5,0.1c-1.3,0-2.1-0.2-2.4-1.6c-0.2-1-0.8-1.8-2-2c-0.3,0-0.5-0.5-0.9-1
		c3.2,0,5.9,0,8.7,0c0-0.1,0-0.2,0.1-0.4c-0.4-0.1-0.7-0.3-1.1-0.3c-1.7,0-3.4,0-5.2,0c-0.7,0-1.1-0.2-1.3-0.9
		c-0.3-0.9-0.7-1.7-1.7-2c-0.3-0.1-0.5-0.5-0.8-1c1.3,0,2.3,0,3.4,0c-0.9-1.2-1.6-2.2-2.4-3.3c-0.2-0.3-0.7-0.3-1.1-0.4
		c-3.7-0.5-7.4-1-11.2-1.5c-0.4-0.1-0.8-0.2-1.2-0.2c0-0.1,0-0.3,0-0.4c0.4,0,0.8,0,1.1,0c1.7,0.2,3.4,0.4,5.1,0.6
		c1.1,0.2,2.1,0.1,2.8-0.8c0.2-0.2,0.4-0.3,0.6-0.5c1.5-1.2,1.5-1.2,0.8-3c-3.3-8.8-3.2-17.5,1-26c0.3-0.5,0.6-1,0.9-1.6
		c2.3,1.5,4.5,3.1,6.8,4.5c0.5,0.3,1.2,0.5,1.9,0.5c2.5-0.1,5-0.3,7.6-0.7c-0.6-0.3-1.3-0.7-1.7-0.9c0.4-0.4,1-0.8,1.4-1.3
		c3.2-3.5,3.5-8.1,4.5-12.4c0.2-0.7,0.3-1.5,0.4-2c-1.4-0.6-2.7-1.2-3.8-1.7c2.2-2.2,4.8-4.1,5.9-7.1c-1.5-0.6-2.7-1.1-3.8-1.6
		c0.5-0.4,1-0.6,1.2-1c1.6-2.1,3.1-4.2,4.5-6.1c1.2,0.3,2.4,0.5,3.6,0.9c1.6,0.6,2.6,0.1,3.7-1.1c5.6-6.3,11.4-12.4,17.1-18.6
		c0.4-0.4,0.7-0.9,1-1.3c0.7,0.4,1.4,0.8,2.2,1.1c10.9,4.7,21.9,9.4,32.8,14.2c0.8,0.3,1.2,0.3,1.7-0.4c1.3-1.8,2.6-3.6,4.2-5.7
		c3.8,4,7.6,8.1,11.6,12c14.3,14.1,28.7,28.1,43,42.2c0.9,0.9,1.7,1.6,2.9,0.6c0.1-0.1,0.2,0,0.3,0c0,0,0.1,0,0,0
		c-5.5,4.6-10.1,10.1-15.1,15.2c-5.1,5.1-10,10.3-15,15.5c-0.3,0.3-0.6,0.7-0.8,1c-0.3-0.2-0.6-0.5-1-0.6c-3-0.7-6.1-1.4-9.1-2.2
		c-1.1-0.3-1.7,0.3-2.3,1c-1.2,1.6-2.2,3.3-3.5,4.8c-1,1.3-2.1,2.5-2.4,4.2c0,0.2-0.4,0.5-0.7,0.6c-0.2,0.1-0.6,0-0.8,0
		c-30.2,0-60.5,0-90.7,0c-0.4,0-0.9,0-1.2,0c-0.5-2.4,1.2-4.7-0.5-7c1.8,0,3.6,0,5.4,0c-0.2,0.3-0.4,0.7-0.7,1.1c1.4,0,2.7,0,4,0
		c0-0.1-0.1-0.1-0.1-0.2c0.4-0.3,0.8-0.7,1.3-0.8c0.3,0,0.6,0.5,0.8,1c1.2,0,2.5,0,3.8,0c0.1-0.3,0.2-0.6,0.3-1c0.4,0,0.9,0,1.4,0
		c0.1,0.3,0.1,0.7,0.2,1c1.3,0,2.5,0,3.8,0c0.1-0.3,0.2-0.6,0.3-1c0.4,0,0.9,0,1.5,0c0.1,0.3,0.1,0.6,0.2,1c1.3,0,2.5,0,3.9,0
		c0-0.3,0.1-0.7,0.1-1c0.9-0.1,1.8-0.4,1.6,1c1.3,0,2.6,0,3.9,0c0.1-0.3,0.1-0.6,0.2-0.9c0.7-0.5,1.5,0,1.7,0.9c1.3,0,2.5,0,3.8,0
		c0-0.1-0.1-0.2-0.1-0.2c0.4-0.3,0.8-0.8,1.2-0.8c0.3,0,0.7,0.5,1.1,0.8c-0.1,0.1-0.1,0.2-0.2,0.3c1.2,0,2.5,0,3.8,0
		c0.1-0.3,0.2-0.6,0.3-1c0.4,0,0.9,0,1.4,0c0.1,0.3,0.2,0.7,0.2,1c1.3,0,2.5,0,3.8,0c-0.1-1.2,0.6-1.3,1.6-1c0.1,0.3,0.2,0.6,0.3,1
		c1.3,0,2.5,0,3.9,0c0.1-0.3,0.1-0.7,0.2-1c0.5,0,0.9,0,1.4,0c0.1,0.3,0.1,0.7,0.2,1c1.3,0,2.5,0,3.8,0c-0.1-0.1-0.1-0.2-0.2-0.3
		c0.4-0.3,0.8-0.7,1.3-0.7c0.3,0,0.6,0.5,1,0.8C60.4,438.6,60.4,438.7,60.4,438.8z M111.1,418.6c0.6,0.1,1.2,0.5,1.7,0.3
		c2.2-1,4.3-2.1,6.4-3.1c0-0.1-0.1-0.2-0.1-0.3C116.4,416.5,113.7,417.5,111.1,418.6c-1,0.4-2,0.8-3.1,1.2c0.3,0.4,0.4,0.8,0.6,1.1
		C110.9,420,111,419.9,111.1,418.6z M95.8,431.1c0.9-0.2,1.8-0.4,2.8-0.6c0,0.8,0,1.3,0,2.1c1.6-0.4,2-1.8,3-2.7c-1,0-2,0-3,0.2
		C97.6,430.4,96.7,430.8,95.8,431.1c-2,1-4.1,2-6.4,3.2C92.2,434.7,93.7,433.9,95.8,431.1z M36,349.5c-0.1,0.1-0.3,0.1-0.4,0.2
		c-3.9,4.2-7.7,8.4-11.6,12.6c0,0.1,0,0.1-0.1,0.3c1.8,0.4,3.6,0.8,5.5,1.2c2.8,0.6,2.8,0.6,4.2-1.8c0.2-0.3,0.1-0.8,0.1-1.3
		c1.9-0.2,5.8-5.8,6.3-9.6C38.2,351.6,37.1,350.4,36,349.5c1.2-0.1,2.5-0.1,3.8-0.1c0.3,0,0.8-0.3,0.9-0.5c0.6-2,1.1-4.1,1.7-6.2
		c-1.4,1.1-2.5,2.4-3.7,3.6C37.7,347.4,36.9,348.5,36,349.5z M64.6,432.2c0.2-3.8,0.5-7.3,0.7-10.9c0-0.4-0.4-0.8-0.7-1.1
		c-2.2-1.9-4.5-3.7-6.6-5.8c-1.9-1.9-3.8-2.4-6.5-2.3c-3.5,0.1-7,0.2-10,2.3c0,0-0.1,0-0.1,0.1c-0.6,0.2-0.8,0.6-0.8,1.3
		c0,2,0,3.9,0,5.9c0,3.1,0,6.2,0,9.3c0.5,0.2,0.9,0.3,1.3,0.6c0.4,0.2,0.6,0.6,1,0.8c0.3,0.2,0.7,0.4,1.1,0.4
		C50.8,432.5,57.6,433.2,64.6,432.2z M92.8,392.8c2.1,3.7,4.1,7.2,6,10.7c0.8,1.5,1.7,2.3,3.4,2c0.2,0,0.5,0.1,0.8,0.1
		c0,0.1,0,0.2,0.1,0.2c-0.6,0.3-1.1,0.5-1.8,0.9c0,0.4-0.1,0.9,0.1,1.3c2.1,3.8,4.2,7.5,6.3,11.4c5.3-2.1,10.6-4.1,16-6.3
		c-13.1-12.3-26-24.4-39-36.6c2.7,3.8,5.5,7.4,8.3,11.1c1.1,1.5,2.2,2.7,4.2,2.3l0.1,0.1C95.8,390.9,94.4,391.9,92.8,392.8z
		 M91,369.6c0.4,0.5,0.8,1,1.2,1.4c11.1,12.9,22.2,25.8,33.2,38.7c1.8,2.1,1.8,2.1,4.3,0.9c2.3-1.2,4.7-2.3,7.1-3.5
		c-0.4-0.3-0.6-0.6-0.9-0.8c-14.2-12.2-28.3-24.4-42.5-36.7C92.5,368.8,91.9,368.7,91,369.6z M126.8,411.9
		c-12.1-14-24.1-28-35.9-41.7c-2.2,0.7-4.2,1.3-6.3,1.9c-0.4,0.1-0.9,0.4-0.9,0.7c-0.1,0.4,0.3,0.8,0.5,1.2c0,0.1,0,0.2,0,0.4
		c-0.2,0.1-0.4,0.3-0.7,0.5c0.3,0.3,0.5,0.5,0.7,0.7c12.8,12,25.7,24.1,38.5,36.1C124.4,413.2,124.4,413.2,126.8,411.9z M81.1,432.1
		c1.2-0.1,2.4,0.1,3.4-0.2c1.9-0.6,3.8-1.3,5.5-2.3c4.4-2.5,8.6-5.1,13.1-7.8c-0.4-0.3-0.7-0.6-1-0.8c-3-2.7-6.1-5.3-9-8.1
		c-1.2-1.1-2.3-1.6-3.9-1c-0.6,0.2-1.3,0.3-2,0.3c-2,0.2-4,0.5-6.1,0.7C81.1,419.3,81.1,425.6,81.1,432.1z M85,361.7
		c0.2,0.2,0.4,0.4,0.6,0.5c17,14.6,33.9,29.2,50.9,43.9c1,0.9,1.6,0.3,2.5-0.3c-17.4-17.1-34.8-34.1-52.1-51.1
		c-0.1,0.1-0.1,0.1-0.2,0.2c1.2,1.3,2,3.1,3.8,4.3C88.6,360.1,86.8,360.9,85,361.7z M45.6,368.2c0.1,0.1,0.2,0.1,0.3,0.2
		c8.9,2.2,17.9,2.6,26.9,0.8c0.8-0.2,1.7-0.4,2.3-0.9c1.7-1.5,3.2-3.1,4.7-4.8c0.2-0.2,0.3-0.6,0.5-1.1c-0.9,0.1-1.6,0.2-2.2,0.1
		c-3.5-0.1-7,0-10.5-0.5c-7.3-1-13.9-3.8-20.2-7.5c-0.3-0.2-0.7-0.2-1-0.3c0.1,0.4,0.2,0.8,0.4,1.1c1.3,1.6,2.6,3.1,3.9,4.7
		c0.4,0.4,0.9,0.7,1.2,1C49.9,363.2,47.8,365.7,45.6,368.2z M69.1,389.9c0-0.1,0.1-0.2,0.1-0.3c-8.4-6.6-16.7-13.2-25.1-19.9
		c0,0.4,0.2,0.7,0.4,1c2.9,4.3,5.8,8.6,8.6,13c0.9,1.5,1.8,2.7,3.8,2.2c0.1,0,0.1,0.1,0.1,0.1c-3.5,2.2-7,4.5-10.6,6.8
		c2.4,2.1,4.6,4.1,6.8,6.1c0.2,0.2,0.6,0.2,0.9,0.2c5.5-1.4,10.4-4,14.8-7.5c-0.3-0.4-0.4-0.8-0.7-1.1c-0.3-0.2-0.8-0.3-1.2-0.4
		c0-0.1,0-0.2,0.1-0.3C67.7,389.9,68.4,389.9,69.1,389.9z M47.3,353c0.3,0.1,0.5,0.3,0.8,0.4c5,2.3,10.2,4.1,15.6,4.9
		c3.7,0.6,7.5,0.7,11.2,0.9c1.4,0.1,2.9-0.3,3.4-2.1c-11.4-4.9-22.8-9.9-34.2-14.8c0.8,1.5,1.7,2.7,2.7,3.9c1,1.1,1.5,2.7,3,3.4
		c-0.2,0.1-0.4,0.2-0.5,0.4C48.6,351,48,352,47.3,353z M-7.3,391.7c-5.3,8.8-4.9,20.7-0.9,28.3c1.1-0.9,2.2-1.8,3.4-2.7
		c0.7-0.5,0.9-1,0.8-1.8c-0.3-6.6-0.6-13.2-0.7-19.7C-4.8,393.8-5.5,392.5-7.3,391.7z M46,370.3c0,0.1-0.1,0.2-0.1,0.2
		c8.1,6.4,16.2,12.9,24.4,19.3c1.5-2.1,3-4.1,4.5-6.2C65.1,379.2,55.5,374.8,46,370.3z M47.1,370.3c9.3,4.3,18.6,8.7,28.2,13.1
		c0.8-3.4,1.6-6.6,2.4-10.1C67.1,374.7,57,373.8,47.1,370.3z M-3.7,394.2c0.6,7,1.2,13.7,1.9,20.7c2.7-2.1,5.2-4.1,7.5-6
		c-1.8-0.8-3.6-1.6-5.4-2.4c0-0.1,0.1-0.2,0.1-0.3c0.4,0,0.8,0,1.3,0c0.6,0,1.4,0.1,1.7-0.2c1.4-1.3,2.6-2.8,4-4.2
		C3.9,399.4,0.2,396.9-3.7,394.2z M85.2,433.8c-27.3,0-54.6,0-82.1,0c0.4,0.6,0.7,1.1,0.9,1.6c0.2-0.3,0.5-0.7,0.8-1.1
		c0.3,0,0.7,0,1.2,0c0.1,0.4,0.1,0.7,0.2,1.1c1.3,0,2.5,0,3.8,0c0.1-0.4,0.2-0.8,0.3-1.1c0.5,0,0.9,0,1.4,0c0.1,0.4,0.2,0.7,0.2,1.1
		c1.3,0,2.6,0,3.8,0c0.1-0.4,0.2-0.7,0.2-1.1c0.5,0,0.9,0,1.4,0c0.1,0.4,0.2,0.8,0.3,1.1c1.3,0,2.6,0,3.8,0c0.1-0.4,0.2-0.8,0.3-1.1
		c0.5,0,0.9,0,1.4,0c0.1,0.4,0.1,0.7,0.1,1.1c1.4,0,2.6,0,3.9,0c0.1-0.4,0.1-0.7,0.2-1c0.5,0,1,0,1.5,0c0.1,0.4,0.1,0.7,0.2,1
		c1.4,0,2.6,0,3.9,0c0.1-0.4,0.2-0.7,0.3-1.1c0.5,0,0.9,0,1.4,0c0.1,0.4,0.1,0.7,0.2,1.1c1.3,0,2.6,0,3.9,0c0.1-0.4,0.2-0.7,0.2-1.1
		c0.5,0,0.9,0,1.4,0c0.1,0.4,0.2,0.7,0.3,1.1c1.3,0,2.6,0,3.8,0c0.1-0.4,0.2-0.7,0.3-1.1c0.5,0,0.9,0,1.4,0c0.1,0.4,0.1,0.7,0.2,1.1
		c1.3,0,2.6,0,3.9,0c0.1-0.4,0.2-0.7,0.2-1.1c0.5,0,1,0,1.4,0c0.1,0.4,0.2,0.7,0.2,1c1.3,0,2.6,0,3.9,0c0.1-0.4,0.2-0.7,0.2-1.1
		c0.5,0,0.9,0,1.4,0c0.1,0.4,0.2,0.8,0.3,1.1c1.3,0,2.6,0,3.9,0c0.1-0.4,0.1-0.7,0.2-1.1c0.5,0,1,0,1.5,0c0.1,0.4,0.1,0.7,0.1,1.1
		c1.4,0,2.6,0,3.9,0c0.1-0.4,0.1-0.7,0.2-1.1c0.5,0,0.9,0,1.4,0c0.1,0.4,0.2,0.7,0.2,1.1c1.3,0,2.6,0,3.8,0c0.1-0.4,0.1-0.7,0.2-1.1
		c0.5,0,0.9,0,1.4,0c0.1,0.4,0.2,0.7,0.3,1.1c1.3,0,2.5,0,3.8,0c0.1-0.4,0.2-0.7,0.2-1.1c0.5,0,1,0,1.4,0c0.1,0.4,0.2,0.7,0.3,1.1
		c1.7,0,3.3,0,4.9,0C85.4,434.9,85.3,434.4,85.2,433.8z M54.1,386c-3.6-5.4-7.1-10.6-10.5-15.8c-0.1,0-0.3,0-0.4,0
		c-0.2,0.5-0.5,1.1-0.5,1.6c0,2.5,0.1,5,0.1,7.5c0,2.4,0,4.8,0,7.4c1.8,0,3.3,0,4.8,0c0.2,0,0.5,0,0.6-0.1c0.5-1,1.4-0.6,2.1-0.6
		C51.4,385.9,52.6,386,54.1,386z M73.1,393.2c-1.2-0.5-2.3-1-3.5-1.5c-4.5,3.7-9.6,6.5-15.5,8c1.4,1.5,2.5,2.8,4.7,2.5
		c1.7-0.2,3.5-0.2,5.3-0.3c0.9-0.1,1.7-0.2,2.9-0.4c-1-0.9-1.8-1.6-2.7-2.3c0.1-0.1,0.2-0.2,0.3-0.3c1,0.8,2,1.5,3,2.3
		c1.4-1,2.7-1.9,4-2.8c0.2-0.2,0.5-0.5,0.5-0.7C72.4,396.1,72.7,394.6,73.1,393.2z M138.1,407.1c-0.3,0-0.4,0-0.5,0.1
		c-3.2,1.7-6.4,3.3-9.5,5c-0.3,0.2-0.6,0.5-0.9,0.8c-5.3,6.6-10.7,13.3-16,19.9c-0.6,0.8-0.6,1.6-0.4,2.7
		C119.9,426,128.9,416.7,138.1,407.1z M92,411.4c3.7,3.3,7.4,6.6,11,9.8c0.2,0.2,0.7,0.2,0.9,0.1c1.1-0.5,2.2-1.2,3.3-1.8
		c-1.8-3.3-3.7-6.5-5.5-9.8c-1.2-2.2-1.2-2.2-3.3-0.9c-0.6,0.4-1.3,0.8-2,1C95,410.3,93.6,410.8,92,411.4z M83,403.1
		c0,0.1,0,0.3,0.1,0.4c1.6,1.5,3,3.3,5.6,2.8c0.8-0.2,1.6,0,2.4,0c0.2,0,0.6,0.1,0.7-0.1c0.7-1.1,1.8-0.6,2.7-0.6
		c1.3-0.1,2.6,0,3.9,0c-3.7-3.2-7.4-6-11.2-8.9c-0.2-0.2-0.6-0.3-0.8-0.2c-1,0.3-1.9,0.8-2.9,1.2c-0.2,0.1-0.4,0.3-0.4,0.5
		c0,1.2,0,2.4,0,3.5c0.6,0.1,1,0.2,1.4,0.3c0,0.1,0.1,0.2,0.1,0.3C84.1,402.5,83.7,402.7,83,403.1z M78.2,370.9c-1-0.4-2-0.5-2.7-1
		c-0.7-0.6-1.3-0.7-2.2-0.5c-7,1.5-14,1.6-21.1,0.6c-2.2-0.3-4.4-0.8-7-1.3c0.6,0.3,0.9,0.4,1.2,0.5c9.5,3.8,19.4,5,29.6,3.9
		C78,372.9,78,372.9,78.2,370.9z M80.6,361.1c-1-0.3-1.9-0.6-2.7-0.9c-0.6-0.2-1.2-0.5-1.8-0.6c-1.7,0-3.4,0.2-5.1,0.1
		c-8-0.4-15.6-2.5-22.8-5.8c-0.3-0.2-0.7-0.3-1-0.4c0.2,0.4,0.5,0.7,0.8,0.8c2.4,1.2,4.8,2.6,7.3,3.7c7.7,3.4,15.8,4.9,24.3,4
		C80.1,361.9,80.7,361.8,80.6,361.1z M22.4,411.3c-1.4,1.3-2.6,2.7-4.2,3.8c-2,1.4-2.8,3.1-2.4,5.4c0.1,1,0,2,0,3.1
		c1.4-0.4,2.6-0.8,3.8-1.1c0.8-0.2,1.2-0.6,1.4-1.4c0.7-2.4,1.4-4.8,2.2-7.2C23.6,412.8,23.5,412,22.4,411.3z M6.3,409.1
		c-1.5,1.2-3.1,2.4-4.6,3.7c-1.1,0.9-2.7,1.6-3.2,2.8c-0.5,1.2,0,2.8,0.2,4.2c0.1,1.3,0.3,2.6,0.4,4.3
		C2.2,419.2,6.3,415.2,6.3,409.1z M65.3,420.2c0.3-3.1,0.5-6.1,0.7-9c-1-0.2-1.8-0.6-2.6-0.5c-2.5,0.3-5,0.9-7.6,1.4
		C59,414.8,62,417.4,65.3,420.2z M82.9,376.2c0,3.6,0,6.9,0,10.1c0,0.4,0.4,0.9,0.7,1c1.5,0.8,3.1,1.5,4.7,2.2
		c0.6,0.3,1.3,0.3,2.4,0.5C88,385.2,85.5,380.8,82.9,376.2z M87.2,396c4,3.1,7.9,6.1,11.8,9.2c0.1-0.1,0.1-0.1,0.2-0.2
		c-2.2-3.9-4.4-7.9-6.6-11.8C90.7,394.1,89,395,87.2,396z M17.5,393.9c2.3-0.6,4.4-1.1,6.7-1.6c-2.3-3.5-4.4-6.8-6.7-10.2
		C17.5,386.1,17.5,389.9,17.5,393.9z M43.6,399.5c3.1,0.5,6.2,0.6,9.4-0.2c-1.3-1.2-2.4-2.2-3.5-3.2s-2.2-2-3.3-3
		c-3.5,2.1-3.5,2.1-3.1,4.8c0.5,0.1,1,0.1,1.7,0.2C44.3,398.7,44,399.1,43.6,399.5z M40.6,411.1c4.2,1.6,7.4-0.1,10.4-2.4
		c-0.9-1.3-2.1-1.7-3.6-1.6c-1.3,0.1-2.7,0-4.1,0c-0.9,0-1.8,0-2.7,0C40.6,408.6,40.6,409.9,40.6,411.1z M25.9,420.9
		c-1.6,0.5-3,1-4.3,1.4c-0.3,0.1-0.5,0.4-0.6,0.6c-0.7,2.2-1.3,4.3-2,6.6c1.6,0.1,3,0.2,4.6,0.3C24.3,427,25.1,424.1,25.9,420.9z
		 M19,369.8c1.5,1.3,3,2.8,4.7,4.2c0.2,0.2,0.7,0.2,1,0.1c2.5-0.7,2.6-3.2,4.2-4.7c-2.1-0.3-3.8-0.6-5.5-0.8c-0.2,0-0.4,0-0.6,0
		C21.5,369,20.3,369.4,19,369.8z M110.7,432.5c0.1,0,0.2,0.1,0.2,0.1c4.6-5.7,9.2-11.4,13.8-17.2c-4.6,4.2-9.1,8.5-13.5,12.8
		c-0.2,0.2-0.3,0.5-0.3,0.7C110.8,430.1,110.7,431.3,110.7,432.5z M31.7,382.1c-0.5-0.5-1.1-0.9-1.5-1.4c-0.6-0.7-1.1-0.6-1.9-0.3
		c-1.6,0.8-3.3,1.4-5,2c-0.7,0.3-1.5,0.5-2.5,0.8c2.8,0.8,5.3,1.6,7.8,2.2c0.3,0.1,0.8-0.1,1-0.3C30.3,384.2,31,383.2,31.7,382.1z
		 M101.1,432.7c3.1,0.3,6,0.5,9,0.8c0-1.7,0-3.2,0-4.6C106.4,428.5,103.5,430,101.1,432.7z M37.1,386.3c1-4.5,1.9-8.7,2.9-13
		c-0.1-0.1-0.2-0.2-0.3-0.2c-0.9,0.9-2.2,1.6-2.6,2.7c-0.9,2.5-1.3,5.3-1.9,7.9c-0.1,0.3,0,0.7,0.2,0.9
		C35.8,385.2,36.3,385.7,37.1,386.3z M31.6,364.9c-2.8-0.6-5.3-1.2-7.9-1.8c-0.2,0-0.6,0.1-0.7,0.2c-0.7,0.7-1.3,1.5-2,2.2
		c0.5,0.7,0.9,1.3,1.4,1.9c0.2,0.2,0.6,0.4,0.8,0.3C26,367.3,28.7,366.3,31.6,364.9z M45.9,354.9c-1.8,1.6-3.5,3.1-2.5,5.8
		c2.3,0,4.7,0,7.3,0C49.1,358.7,47.5,356.8,45.9,354.9z M28,389.7c-3.3-2.5-6.3-4.8-9.4-7.2c1.6,2.9,3.3,5.6,5.1,8.2
		c0.9,1.4,1.3,1.6,2.8,0.8C27.1,391.3,27.5,390.5,28,389.7z M104.3,423.1c-0.5-0.9-1.1-1-1.9-0.4c-2.2,1.4-4.5,2.7-6.8,4.1
		c-2,1.2-4.1,2.5-6.1,3.7c0,0.1,0.1,0.2,0.1,0.3c1.2-0.2,2.6-0.1,3.7-0.6c2.9-1.4,5.7-3,8.5-4.6c-0.1-0.4-0.1-0.7-0.2-1
		C102.6,424,103.4,423.6,104.3,423.1z M69.7,424.2c0.1,0,0.3,0,0.4-0.1c1.6-3.8,3.2-7.6,4.8-11.4c-1.8,0.2-0.8,2.1-2,3
		c0.2-1.2,0.4-2.1,0.6-3.2c-0.7-0.1-1.3-0.1-1.8-0.2c-0.1,0.2-0.2,0.3-0.2,0.4c-0.8,3.3-1.5,6.7-2.2,10.1
		C69.1,423.2,69.5,423.8,69.7,424.2z M68.7,423c0.8-3.6,1.6-7.1,2.4-10.7c-0.7-0.1-1.3-0.2-1.9-0.3c-0.4,1.8-0.8,3.4-1.2,5.1
		c-0.1,0-0.2-0.1-0.3-0.1c0.3-1.7,0.7-3.4,1.1-5.2c-0.5-0.1-0.8-0.1-1.4-0.2c0,3,0.1,5.9,0,8.7C67.2,421.6,67.4,422.4,68.7,423z
		 M24,413c-0.9,3.1-1.8,6-2.7,9c0.4-0.1,0.6-0.2,0.8-0.2c4-1.3,4-1.3,4.1-5.4c0-0.4-0.1-0.8-0.3-1.1C25.3,414.5,24.7,413.8,24,413z
		 M29.9,418.9c0.5-2.2,0.9-4.2,1.4-6.3c0.6-2.7,0.6-2.7-2.2-3.6c-0.3,1.7-0.8,3.3-1,5C27.8,415.8,27.8,417.7,29.9,418.9z
		 M29.2,379.8c-1-1-1.9-1.7-2.7-2.5c-0.6-0.7-1.2-0.5-1.8-0.1c-2,1.3-2.8,3.5-4.2,5.3c0.1,0.1,0.2,0.3,0.3,0.4
		C23.5,381.9,26.2,380.9,29.2,379.8z M52,408.8c1,0.9,1.9,1.7,2.9,2.5c0.2,0.2,0.5,0.3,0.8,0.3c2.2-0.3,4.5-0.6,6.7-0.9
		c-2.5-1.2-5-2.2-7.6-3.2c-0.2-0.1-0.5,0-0.8,0.1C53.3,407.8,52.7,408.3,52,408.8z M16,416.6c2.2-2,4.2-3.8,6.2-5.7
		c-0.6-0.7-1.1-1.2-1.5-1.8c-4.8,2.2-5,2.6-4.8,7C15.9,416.2,15.9,416.3,16,416.6z M15.9,429.3c2.6,0.5,2.6,0.5,3.3-1.8
		c0.2-0.6,0.3-1.1,0.5-1.7c0.3-1,0.6-1.9,0.9-3c-1.5,0.4-2.8,0.8-4,1.2c-0.3,0.1-0.6,0.4-0.7,0.7C15.8,426.2,15.9,427.8,15.9,429.3z
		 M49.9,362.8c-2.4,0-4.4,0-6.6,0c0,1.2-0.1,2.4,0,3.5c0.1,0.6,0.5,1.1,0.9,1.5c0.1,0.2,0.8,0.1,1-0.1
		C46.8,366.2,48.2,364.6,49.9,362.8z M89.5,368.6c-2-2.3-3.9-4.5-5.9-6.8c0,2.4,0,4.6,0,6.8C85.6,368.6,87.4,368.6,89.5,368.6z
		 M94,389.7c-3.3-4.3-6.6-8.5-9.9-12.7c0,0.4,0.1,0.7,0.3,1c1.8,3.2,3.7,6.4,5.4,9.7C90.8,389.5,91.9,390.4,94,389.7z M26.5,373.5
		c0.1,0.1,0.1,0.2,0.2,0.3c2.2-0.7,4.4-1.4,6.6-2c1.3-0.4,1.9-1.1,1.9-2.4c-1.8,0-3.7,0-5.5,0c-0.2,0-0.5,0.1-0.6,0.3
		C28.2,370.9,27.4,372.2,26.5,373.5z M3.3,425c1.2-0.4,2.1-0.6,2.3-1.8c0.4-2,0.9-4.1,1.3-6.1c0.3-1.6,0.7-3.3,1-4.9
		c-1,1.1-2.1,2.2-2.4,3.5C4.6,418.7,4.1,421.7,3.3,425z M8.1,422.2c1.3-0.5,1.9-1.2,2.1-2.4c0.1-1.3,0.5-2.6,0.8-3.9
		c0.5-2.4,1-4.7,1.5-7.1c-0.1-0.1-0.2-0.2-0.3-0.3c-0.5,0.3-1.2,0.5-1.3,0.8C9.9,413.6,9,417.8,8.1,422.2z M83.6,351.7
		c0,2.6,0,4.8,0,7.1c1.8,0,3.5,0,5.4,0C87.2,356.4,85.5,354.2,83.6,351.7z M43.2,349.3c1.8,0,3.4,0,5.3,0c-1.8-2.4-3.5-4.6-5.3-7.1
		C43.2,344.8,43.2,347,43.2,349.3z M26.5,376.7c0.9,0.8,1.7,1.6,2.6,2.3c0.1,0.1,0.4,0.2,0.6,0.1c2.5-0.6,4.1-2.7,4.1-5.3
		C31.5,374.9,29.1,375.8,26.5,376.7z M123.4,415.8c0-0.1-0.1-0.1-0.1-0.2c-3.6,2.7-7.1,5.5-10.8,8.1c-1.5,1-1.7,2.3-1.5,4
		C115.2,423.7,119.3,419.7,123.4,415.8z M10.4,408.8c-0.1-0.1-0.3-0.2-0.4-0.3c-0.1,0.2-0.1,0.5-0.3,0.6c-1.2,1.3-1.3,2.9-1.6,4.4
		c-0.7,3.3-1.4,6.6-2.1,10c1.1-0.3,1.7-1,1.9-2.1c0.7-3.7,1.5-7.4,2.2-11C10.2,409.9,10.3,409.4,10.4,408.8z M-3.9,417.2
		c-1.6,1.3-2.9,2.3-4.2,3.3c1.4,3.3,1.8,3.5,4.2,3.3C-3.9,421.7-3.9,419.6-3.9,417.2z M26.1,396.3c0.1-0.1,0.1-0.2,0.2-0.3
		c0.5,0.3,1,0.6,1.6,1c0.3-1.1,0.5-2.1,0.8-3.2c-0.7,0.2-1.1,0.3-1.6,0.5c-0.6,0.2-1.4,0.3-1.7,0.7c-1.1,1.7-2,3.4-3,5.2
		c0.4,0.3,0.7,0.6,1,0.8c1.4-1.1,2.8-2.2,4.3-3.3C27.1,397.2,26.6,396.8,26.1,396.3z M17.6,402.2c0.5,0.1,0.8,0.2,1.1,0.3
		c0.6,0.1,1.5,0.5,1.8,0.2c0.6-0.5,0.9-1.4,1.3-2.2c0-0.1-0.1-0.3-0.2-0.4c-1.3-1.2-2.6-2.4-4-3.8C17.6,398.4,17.6,400.2,17.6,402.2
		z M90.7,411.2c0-0.1,0.1-0.3,0.1-0.4c-0.5-0.3-0.9-0.8-1.4-0.8c-2.7-0.1-5.5,0-8.2,0c0,0.9,0,1.6,0,2.5
		C84.4,412.1,87.5,411.6,90.7,411.2z M29.5,369c2-0.1,3.7-0.2,5.3-0.3c0.2,0,0.6-0.3,0.7-0.5c0.2-0.7,0.4-1.4,0.6-2.3
		c-1.2-0.3-2.3-0.6-3.5-0.8c-0.2,0-0.6,0.1-0.8,0.3C31.1,366.5,30.4,367.6,29.5,369z M33.2,393.9c-0.4,0.7-0.8,1.3-1,2
		s-0.2,1.4-0.5,2.1c-0.6,1.2-0.1,1.9,1,2.6c0.8,0.5,1.2,0.4,1.4-0.5c0.3-1.1,0.4-2.3,0.8-3.4C35.3,395.3,34.8,394.5,33.2,393.9z
		 M123.3,415c0-0.1-0.1-0.1-0.1-0.2c-3.1,1.6-6.1,3.2-9.2,4.8c-1.8,1-2,1.3-1.4,3.5C116.1,420.5,119.7,417.7,123.3,415z M46.1,392.6
		c1.7-1.1,3.3-2.2,5-3.3c-2.9,0-5.6,0-8.3,0c0,0.1-0.1,0.2-0.1,0.3C43.9,390.5,45,391.5,46.1,392.6z M4.7,417
		c-0.1,0-0.1-0.1-0.2-0.1c-1.7,2.5-3.3,4.9-5.1,7.5c1.3,0.2,2.3,0.3,3.5,0.4C3.5,422.2,4.1,419.6,4.7,417z M25.1,375.2
		c0,0.2,0.1,0.4,0.1,0.6c0.5,0.1,1.2,0.3,1.6,0.2c2.2-0.8,4.3-1.6,6.5-2.4c0.8-0.3,1.2-0.9,1.1-1.7c-2.5,0.7-4.9,1.4-7.4,2.2
		C26.4,374.3,25.8,374.8,25.1,375.2z M-4.2,393.8c-0.1,0-0.2,0-0.3,0c0.4,7.3,0.8,14.7,1.1,22c0.1,0,0.3,0,0.4,0.1
		c0.1-0.4,0.4-0.9,0.4-1.3c-0.5-6.6-1-13.3-1.5-19.9C-4.1,394.5-4.1,394.2-4.2,393.8z M24.5,395.9c-2.2,0-4.2,0-6.3,0
		c0,0.1-0.1,0.2-0.1,0.3c1.3,1.2,2.7,2.5,4.1,3.8C23,398.5,23.8,397.1,24.5,395.9z M64.7,410c-1.2-0.5-2.2-0.8-3-1.2
		c-0.9-0.4-1.7-1-2.4-1.4c-0.8-0.6-1.5-1.1-2.2-1.6c1.6-0.5,3.4,0.4,4.8-0.7c-2.4-0.1-5-0.7-6.8,2c2.8,1,5.5,2,8.3,2.9
		C63.6,410.1,64,410,64.7,410z M18.2,381c0,0-0.2,0.2-0.4,0.4c0.7,0.5,1.3,1,1.9,1.5c1-1.5,2-3,3-4.5c-1.7,0-3.3,0-5,0
		C17.9,379.3,18.1,380,18.2,381z M15.8,383c-2.8,3.1-2.4,7.3-3.6,10.9c0.8,0.3,1.3,0.3,1.5-0.6C14.4,389.9,15.1,386.4,15.8,383z
		 M29.6,419.8c-0.1-0.1-0.2-0.2-0.3-0.3c-0.5,0.4-1.4,0.8-1.4,1.2c-0.1,2.8-0.1,5.7-0.1,8.7c1-2.8,1.9-5.5,2.8-8.2
		c0.1-0.2-0.3-0.6-0.5-1.1c-0.5,2.1-0.9,3.9-1.3,5.6c-0.1,0-0.2-0.1-0.4-0.1C28.8,423.6,29.2,421.7,29.6,419.8z M81.1,376.2
		c-1.2,1.3-2.4,2.5-2.6,4.3c-0.1,0.9-0.4,1.8-0.6,2.7c-0.3,1.5-0.3,1.5,1.3,1.9C79.9,382.2,80.5,379.2,81.1,376.2z M30.4,418.5
		c0.1,0.1,0.2,0.1,0.3,0.2c0.3-0.2,0.8-0.4,1-0.8c0.9-2.4,1.7-4.8,2.5-7.3c-0.7-0.2-1.3-0.4-1.9-0.6C31.6,413,31,415.8,30.4,418.5z
		 M17.9,375.4c1.5-0.3,2.8-0.5,4.4-0.7c-1.5-1.7-2.9-3.2-4.4-4.9C17.9,371.8,17.9,373.5,17.9,375.4z M38,361c1.2-0.6,2.1-0.9,2.4-2
		c0.6-2.2,1.1-4.3,1.6-6.6C39.2,354.5,38.7,357.6,38,361z M100,433.1c0,0.2,0,0.3-0.1,0.5c3.4,0.8,6.7,1.6,10.1,2.4c0-0.7,0-1.3,0-2
		C106.7,433.7,103.4,433.4,100,433.1z M56.4,402.8c0-0.1,0-0.2,0-0.2c-2.2-0.2-4.4-0.4-6.6-0.7c-2.2-0.3-4.4-0.8-6.5-1.3
		c1.5,1,3,2,4.6,2.8c0.6,0.3,1.8,0.4,2,0.1c0.6-0.9,1.3-0.6,2-0.6C53.4,402.8,54.9,402.8,56.4,402.8z M29.1,387.6
		c-0.9-0.6-1.7-1.1-2.7-1.7c0.6,0,1,0,1.3-0.1c0-0.1,0-0.1,0-0.2c-2-0.6-4-1.2-6.1-1.8c0,0.1-0.1,0.2-0.1,0.3c2.2,1.6,4.3,3.3,6.6,5
		C28.5,388.7,28.8,388.1,29.1,387.6z M1.2,396.5c0,0.1,0,0.2,0,0.3c0.8,0.6,1.6,1.1,2.5,1.6c0.3,0.2,0.7,0.2,1,0.1
		c1.5-0.5,2.9-1.2,4.3-1.8c0.3-0.1,0.5-0.2,0.8-0.2c-0.1-0.2-0.3-0.4-0.4-0.6C6.6,396.2,3.9,396.3,1.2,396.5z M83.8,393.1
		c0,0.1-0.1,0.2-0.1,0.3c0.9,0.7,1.7,1.4,2.6,2c0.2,0.1,0.5,0.3,0.6,0.2c1.5-0.7,3.1-1.5,4.6-2.3c0-0.1-0.1-0.1-0.1-0.2
		C88.9,393.1,86.3,393.1,83.8,393.1z M41.4,372.1c-0.9,0.5-3.6,11.3-3.6,14.6c0.3-0.2,0.6-0.5,0.7-0.8c0.7-3.4,1.3-6.9,1.9-10.3
		c0.1-0.4,0.2-0.8,0.3-1.1c0.1,0,0.2,0.1,0.3,0.1c-0.2,1.1-0.4,2.2-0.5,3.3c0.1,0.1,0.2,0.1,0.3,0.2c0.2-0.2,0.6-0.5,0.6-0.7
		C41.4,375.6,41.4,373.9,41.4,372.1z M55.5,402.2c-1-1.8-2.3-2.8-4.3-2c-0.2,0.1-0.4,0.1-0.6,0.1c-2,0-3.9,0-5.9,0
		c0,0.1,0,0.2,0,0.4C48.3,401.1,51.9,401.6,55.5,402.2z M54.3,411.7c0-0.1,0.1-0.2,0.1-0.3c-0.8-0.7-1.6-1.4-2.5-2.1
		c-0.1-0.1-0.5-0.2-0.6-0.1c-1.4,0.8-2.8,1.6-4.3,2.5C49.6,411.7,51.9,411.7,54.3,411.7z M68.1,427.4c-0.1,0-0.2-0.1-0.3-0.1
		c0.2-0.8,0.3-1.7,0.6-2.5c0.4-1.1-0.1-1.7-1.2-2.2c0,2.9,0,5.7,0,8.7c0.9-2.2,1.8-4.1,2.5-6.1c0.1-0.3-0.2-0.8-0.3-1.2
		c-0.1,0-0.2,0.1-0.3,0.1C68.7,425.2,68.4,426.3,68.1,427.4z M26.3,414.7c0.2-2.2,0.4-4.3,0.5-6.4c-0.9,0.1-1.5,0.2-1.9,1.1
		C24.2,411.5,23.9,413.4,26.3,414.7z M79.7,373.3c-0.1-0.1-0.2-0.2-0.3-0.4c-0.5,0.3-1.2,0.5-1.3,0.9c-0.7,2.4-1.2,4.9-1.8,7.5
		C79,379.2,79,376.1,79.7,373.3z M14.2,408.5c-0.6,0.3-1.3,0.5-1.3,0.8c-0.5,1.8-0.8,3.6-1.2,5.5c0.1,0.1,0.3,0.1,0.4,0.2
		c1.3-0.5,0.4-2.1,1.3-3.1c-0.1,1.2-0.1,2.1-0.2,3c0.1,0.1,0.3,0.1,0.4,0.2c0.2-0.3,0.6-0.5,0.6-0.8
		C14.3,412.4,14.2,410.6,14.2,408.5z M36.9,412.4c0.2-1.8,0.4-3.5,0.6-5.5c-0.8,0.3-1.6,0.3-1.8,0.7c-0.7,1.5-1.1,3.2-1.7,4.7
		c0.9,0.3,1.2,0,1.3-0.8c0.1-0.8,0.4-1.7,0.6-2.5c0.1,0,0.2,0.1,0.3,0.1c-0.2,1.1-0.4,2.1-0.6,3.2C36.2,412.4,36.5,412.4,36.9,412.4
		z M38.9,389.2c-2,0.1-2.2,0.2-2.3,1.8c0.6-0.4,1.2-0.9,1.9-1.3c0.1,0.1,0.1,0.2,0.2,0.2c-0.2,0.2-0.4,0.5-0.7,0.6
		c-1.5,0.8-2,2-2.2,3.6c-0.1,0.9,0.1,1.3,1,1.6c0.3-1.4,0.6-2.8,0.9-4.1c0.1,0,0.2,0,0.3,0.1c-0.1,0.5-0.1,1-0.2,1.5
		c0.4,0,0.7,0,1.1,0C38.9,391.8,38.9,390.5,38.9,389.2z M15.1,378.5c-0.1-0.1-0.2-0.2-0.3-0.3c-0.3,0.2-0.9,0.3-1,0.6
		c-0.7,2.9-1.4,5.8-2.1,8.9C14.5,385,14.1,381.5,15.1,378.5z M36.2,376.8c-0.1,0-0.1-0.1-0.2-0.1c-1.2,1.8-2.4,3.5-3.7,5.3
		c0.7,0.7,1.4,1.3,2.2,2C35.1,381.5,35.6,379.1,36.2,376.8z M57.6,402.6c0,0.1,0,0.1-0.1,0.2c1.2,0,2.3,0,3.5,0
		c0,0.1,0.1,0.2,0.1,0.3c-0.6,0.4-1.3,0.7-2.1,1.2c2.9,0.8,5-0.2,6.9-2.1C63.1,402.3,60.3,402.4,57.6,402.6z M78.2,390.5
		c0.3-1.6,0.6-3.2,1-4.8c-0.6-0.3-1-0.5-1.6-0.7c-0.4,1.9-0.8,3.7-1.2,5.5C77,390.5,77.5,390.5,78.2,390.5z M88.5,390.5
		c0-0.1,0.1-0.2,0.1-0.4c-1.8-0.8-3.6-1.7-5.5-2.6c0,1.1,0,2,0,2.9C85,390.5,86.7,390.5,88.5,390.5z M9.2,397.2
		c-1.6,0.7-3.1,1.3-4.6,1.9c1.3,0.9,2.4,1.6,3.7,2.4C8.5,400,8.8,398.7,9.2,397.2z M75.6,384.2c-0.4,1.8-0.9,3.7-1.3,5.5
		c0.6,0.1,1.1,0.2,1.7,0.2c0.3-1.3,0.5-2.6,0.9-3.9C77.3,384.9,76.8,384.4,75.6,384.2z M107.3,424.3c-1.5,1.7-2.8,3.1-4.3,4.8
		c2.5,0.2,3.7-1.7,5.4-2.7C108,425.7,107.8,425.2,107.3,424.3z M38.1,399.1c-2,0.2-3,1.5-4.4,2.3c1.1,0.8,1.9,1.4,2.9,2.2
		C37.1,402,37.5,400.7,38.1,399.1z M10.3,394.4c0.7-0.3,1.4-0.4,1.5-0.7c0.6-2.2,1-4.5,1.5-7C11.2,388.8,10.9,391.4,10.3,394.4z
		 M15.4,388.8c0.1,0,0.2,0,0.3,0c0,0.6-0.1,1.1-0.2,2c0.5-0.4,0.8-0.6,0.8-0.7c0-2.2,0-4.4,0-6.6c-0.1,0-0.2,0-0.3,0
		c-0.7,3.5-1.4,7-2.2,10.5c0.1,0,0.3,0.1,0.4,0.1C14.8,392.3,15.1,390.5,15.4,388.8z M75.1,384.5c-0.1-0.1-0.1-0.1-0.2-0.2
		c-1.3,1.8-2.6,3.5-4,5.4c1.1,0,2,0,2.9,0C74.3,388,74.7,386.2,75.1,384.5z M26.6,430.2c0.2-0.1,0.3-0.1,0.5-0.2c0-3.1,0-6.3,0-9.6
		c-0.2,0.3-0.5,0.5-0.6,0.8c-0.2,2.7-0.4,5.5-0.5,8.3C25.9,429.7,26.3,430,26.6,430.2z M24.3,368.2c0,0.1,0,0.1,0,0.2
		c1.5,0.2,3,0.3,4.6,0.4c0.1,0,0.4-0.2,0.5-0.3c0.6-0.8,1.1-1.7,1.8-2.7C28.7,366.6,26.5,367.4,24.3,368.2z M82.2,361.9
		c-2.6,1.8-2,4.4-2.8,6.7c0.5,0,1.3-0.1,1.3-0.4C81.3,366.2,81.7,364.2,82.2,361.9z M28.3,397.4c1.3-1,2.4-1.8,3.4-2.6
		c0.7-0.6,0.7-2,0.3-1.9c-1,0.3-2.2,0.7-2.8,1.4C28.6,394.9,28.6,396.2,28.3,397.4z M79.7,364.9c-1.1,1-2.5,2.3-4.1,3.7
		c1,0,1.7,0.1,2.5,0c0.3,0,0.7-0.4,0.8-0.7C79.3,366.7,79.6,365.6,79.7,364.9z M20.4,365.6c-0.8-1.1-1.6-2.2-2.5-3.3c0,2,0,3.8,0,6
		C18.9,367.2,19.6,366.4,20.4,365.6z M77.2,394.9c-2.6,0.9-2.6,2.9-2.9,4.9c1.4,0,2.2-0.5,2.3-1.9C76.7,397,77,396,77.2,394.9z
		 M34.5,430.7c0.2-1,0.3-1.9,0.5-2.8c-1.1,0-1.9,0-2.8,0c-0.2,0.9-0.3,1.7-0.5,2.6C32.7,430.5,33.5,430.6,34.5,430.7z M-1.8,424.1
		c-0.2-2.7-0.4-5.3-0.6-7.9c-0.1,0-0.3-0.1-0.4-0.1c-0.2,0.4-0.5,0.9-0.5,1.3c0.1,2,0.2,4,0.3,6C-2.9,424.2-2.6,424.3-1.8,424.1z
		 M92.2,368.5c-2.5-2.1-4.8-4.1-7.1-6.2c1.3,1.9,2.9,3.6,4.3,5.4C90,368.6,90.9,368.8,92.2,368.5z M33.8,376.7
		c2.2-0.8,3.4-2.3,3.3-4.7C34.6,373.1,34.3,373.5,33.8,376.7z M13,368c0.9,0,1.5,0.1,2.1,0c0.3-0.1,0.8-0.4,0.9-0.7
		c0.4-1.4,0.7-2.9,1-4.4c-0.3,0-0.4,0.2-0.5,0.3C15.4,364.7,14.3,366.2,13,368z M31.6,427.9c-3.1-0.2-2.8-0.6-3.4,2.3
		C31.8,430.7,30.9,430.7,31.6,427.9z M79.9,385.6c0.1,0,0.3,0,0.4,0c0.3-1.7,0.5-3.3,0.8-5c0.1,0,0.2,0,0.3,0.1
		c-0.1,0.8-0.1,1.7-0.2,2.6c0.8-0.6,0.9-7,0.4-8c0,0.5,0,1-0.1,1.5c-0.5,2.6-1,5.2-1.5,7.7C79.8,385,79.9,385.3,79.9,385.6z
		 M79.1,357c0.8,0.3,1.5,0.6,2.2,1c0.4-1.9,0.8-3.6,1.2-5.3c-0.1,0-0.2-0.1-0.2-0.1C81.3,354,80.3,355.4,79.1,357z M66.3,421.6
		c-0.1,0-0.2,0.1-0.4,0.1c-0.2,3.3-0.4,6.5-0.5,9.8c0,0.2,0.2,0.4,0.3,0.6c0.2-0.3,0.4-0.5,0.4-0.8c0.1-2.9,0.2-5.7,0.3-8.6
		C66.5,422.3,66.4,421.9,66.3,421.6z M27.4,398.9c-0.1,0-0.1-0.1-0.2-0.1c-1.1,0.9-2.2,1.7-3.4,2.6c0.5,0.4,0.8,0.9,1.2,1.1
		c0.5,0.3,1.2,0.6,1.5-0.3C26.9,401.2,27.1,400,27.4,398.9z M28.6,398.6c0,1.5,0,2.8,0,4c0.5,0.3,0.9,0.5,1.3,0.7
		C31,400.3,30.9,399.7,28.6,398.6z M35.5,427.9c-0.1,1-0.2,1.9-0.3,2.8c0.9,0.1,1.6,0.1,2.3,0.2c0.2,0,0.4,0,0.6,0
		C38.4,429.2,37.1,427.7,35.5,427.9z M98.4,429.5c3.2,0.6,5.1-1.1,6.7-3.6C102.8,427.1,100.7,428.3,98.4,429.5z M70.1,407.7
		c0.3,0.6,0.4,1.3,0.7,1.3c1.1,0.1,2.2,0.1,3.2,0c0.2,0,0.3-0.8,0.6-1.3C73,407.7,71.7,407.7,70.1,407.7z M75.2,393.1
		c-0.6,0-1.1,0-1.7,0c-0.3,1.4-0.7,2.8-1,4.2C74.7,396.7,75.1,395,75.2,393.1z M76.1,400.1c-2.2,0.3-2.4,0.5-2.6,3.6
		c1.8,0.1,1.8,0.1,2.2-1.5C75.8,401.5,76,400.9,76.1,400.1z M89.8,407.7c-1.6,0-2.9,0-4.5,0c0.3,0.6,0.5,1.3,0.7,1.3
		c1.1,0.1,2.2,0.1,3.2-0.1C89.5,409,89.6,408.3,89.8,407.7z M89.8,407.7c0.3,0.6,0.5,1.4,0.7,1.4c1.1,0.1,2.2,0.1,3.2,0
		c0.2,0,0.4-0.6,0.4-0.9c0-0.2-0.4-0.5-0.6-0.5C92.4,407.6,91.3,407.7,89.8,407.7z M35.3,407.1c-0.9,0-1.6,0-2.4,0
		c-0.2,0.8-0.4,1.7-0.6,2.6c0.7,0.2,1.3,0.4,2,0.6C34.7,409.2,35,408.2,35.3,407.1z M80.8,407.7c0.3,0.7,0.5,1.4,0.8,1.4
		c1,0.1,2.1,0.1,3.1-0.1c0.2,0,0.3-0.6,0.4-1c0-0.1-0.5-0.4-0.7-0.4C83.3,407.6,82.3,407.7,80.8,407.7z M31.3,386.1
		c1.1-0.5,2.2,0.6,2.9-0.7c0.4-0.9-0.2-1.7-2-2.6C31.9,383.7,31.6,384.8,31.3,386.1z M18.6,362c-0.1,0.1-0.1,0.1-0.2,0.2
		c0.7,1,1.5,2,2.3,3c0.7-0.8,1.3-1.5,2.1-2.3C21.2,362.6,19.9,362.3,18.6,362z M38.7,366.1c0.3-1.1,0.5-2.1,0.7-3.1
		c-2.1-0.4-2.2-0.3-2.6,2.6C37.4,365.8,38,365.9,38.7,366.1z M8,402.6c-0.1,0-0.1-0.1-0.2-0.1c-1.1,1.2-2.3,2.4-3.5,3.7
		c0.8,0,1.6,0,2.3,0c0.3,0,0.6-0.3,0.7-0.6C7.5,404.6,7.7,403.6,8,402.6z M41.3,362.9c-1.5-0.1-1.8,0.5-2,3.3c0.6,0.1,1.3,0.3,2,0.4
		C41.3,365.3,41.3,364.1,41.3,362.9z M43.4,404.9c0.3,0.6,0.5,1.3,0.7,1.4c1.1,0.1,2.2,0,3.4-0.1c0.2,0,0.3-0.7,0.5-1.3
		c-1.4,0-2.5,0-3.6,0C44.1,404.8,43.9,404.8,43.4,404.9z M12.7,397.9c-1.6,1.1-1.6,1.1-2.2,4.1c-0.2,0.9,0,1.4,1,1.6
		C11.9,401.7,12.3,399.8,12.7,397.9z M44.5,403.5c0-0.1,0.1-0.2,0.1-0.3c-1.4-0.4-1.9-2.6-4-1.7c0,0.7,0,1.3,0,2
		C42,403.5,43.2,403.5,44.5,403.5z M27.2,404.9c0.3,0.6,0.4,1.2,0.6,1.3c1.1,0.1,2.2,0.1,3.3,0c0.2,0,0.3-0.8,0.5-1.3
		C30.1,404.9,28.8,404.9,27.2,404.9z M31.8,404.9c0.3,0.6,0.5,1.3,0.7,1.3c1.1,0.1,2.2,0.1,3.2-0.1c0.2,0,0.3-0.8,0.4-1.3
		C34.6,404.9,33.3,404.9,31.8,404.9z M86.3,395.9c-1.1-0.9-2.1-1.6-3.1-2.4c0,1.4,0,2.5,0,3.8C84.2,396.8,85.1,396.4,86.3,395.9z
		 M45.6,354.5c-0.8-0.9-1.5-1.7-2.2-2.6c0,1.7,0,3.2,0,5C44.2,356,44.8,355.3,45.6,354.5z M45.8,392.8c-1-0.9-1.8-1.7-2.8-2.5
		c0,1.5,0,2.9,0,4.4C44,394,44.8,393.4,45.8,392.8z M5.9,413.6c1.1-1.5,2.7-2.7,2.7-5c-0.6,0.2-1.5,0.3-1.6,0.6
		C6.5,410.6,6.3,412.1,5.9,413.6z M73.5,400.8c-2,0.2-2.4,0.7-2.3,3.2C73.1,404,73.3,403.8,73.5,400.8z M32.4,425.2
		c-2.6-0.4-2.8-0.2-3.2,2.1c0.9,0,1.8,0,2.7,0C32,426.5,32.2,425.9,32.4,425.2z M75,406.3c1.5,0,2.8,0,4.1,0c0-0.9,0-1.7,0-2.6
		C77.8,404.5,76.5,405.3,75,406.3z M78.9,412.3c0.1-0.9-0.9-2.3-1.7-2.3c-1.4,0-1,1.4-1.7,2.3C76.8,412.3,77.9,412.3,78.9,412.3z
		 M40.6,414.4c1.5-0.7,2.7-1.4,4-2c0-0.1,0-0.1-0.1-0.2c-1.3-0.1-2.6-0.2-4-0.4C40.6,412.7,40.6,413.4,40.6,414.4z M82.7,362.4
		c-0.1,0-0.1,0-0.2-0.1c-0.4,2.1-0.9,4.1-1.4,6.3c0.6,0,1-0.1,1.5-0.1C82.7,366.4,82.7,364.4,82.7,362.4z M110.1,425.6
		c-1.4,1.1-2.6,2-3.8,2.9c0,0.1,0.1,0.2,0.1,0.2c1.2-0.1,2.5-0.3,3.7-0.4C110.1,427.4,110.1,426.6,110.1,425.6z M82.8,403.8
		c-0.4,0.9-2.3,0.6-1.6,2.3c1.4,0,2.7,0,4.2,0C84.4,405.3,83.7,404.6,82.8,403.8z M78.9,395.6c0.1,0,0.2,0,0.4,0
		c0-0.7,0.1-1.4,0.1-2.3c-2.7,1.4-1.8,4-2.4,5.9c1.2-1.1,0.8-2.8,1.5-4.1C78.7,395.3,78.8,395.4,78.9,395.6z M35.1,360.8
		c0.8,0,1.3,0.1,1.7,0c0.3-0.1,0.8-0.3,0.8-0.6c0.4-1.2,0.7-2.4,1-3.8c-0.4,0.4-0.6,0.6-0.7,0.8C37,358.3,36.2,359.4,35.1,360.8z
		 M32.5,407.1c-0.5,0-0.8-0.1-1.1-0.1c-0.6,0-1.2,0-1.7,0c-0.6,1.5-0.4,1.7,2.3,2.4C32.1,408.7,32.2,408,32.5,407.1z M24,376.4
		c-0.7-0.5-1.2-1.3-1.6-1.3c-1.4,0.1-2.9,0.4-4.3,0.7c-0.1,0-0.1,0.2-0.3,0.5C19.8,376.4,21.7,376.4,24,376.4z M67,411.5
		c-0.2,0-0.4,0-0.6,0c-0.1,3.2-0.3,6.4-0.4,9.6c0.2,0,0.4,0,0.5,0C66.7,417.9,66.8,414.7,67,411.5z M-8.6,420.9
		c-0.9,0.8-1.8,1.4-2.8,2.3c1.6,0.2,2.8,0.3,4.2,0.5C-7.7,422.7-8.1,421.8-8.6,420.9z M71.9,400.5c2-0.2,2.3-0.6,2.4-3.5
		C72.8,397.6,71.8,398.6,71.9,400.5z M14.6,375.5c0.1,0.1,0.2,0.2,0.3,0.3c0.3-0.3,0.8-0.5,0.9-0.8c0.4-1.5,0.7-3.1,1-4.9
		C14.8,371.7,15.2,373.8,14.6,375.5z M36.3,365.5c0.2-1,0.5-1.8,0.7-2.7c-0.1-0.1-0.2-0.1-0.2-0.2c-1.2,0.7-2.3,1.3-3.7,2.1
		C34.2,365.1,35.1,365.3,36.3,365.5z M19.4,393.9c0,0.1,0,0.1,0,0.2c1.9,0,3.8,0,5.7,0c0.1-0.1,0.1-0.2,0.2-0.3
		c-0.4-0.3-0.9-1-1.3-1C22.4,393,20.9,393.5,19.4,393.9z M31.7,395.6c-0.1-0.1-0.2-0.1-0.2-0.2c-0.9,0.7-1.8,1.4-2.8,2.2
		c0.8,0.6,1.5,1.1,2.2,1.6C31.2,398,31.5,396.8,31.7,395.6z M32.4,427.3c0.8,0,1.4,0,2.1,0c0.8,0,1-0.6,0.7-1
		c-0.3-0.5-0.9-1-1.5-1.3c-0.9-0.3-1,0.4-1.1,1.1C32.5,426.5,32.5,426.8,32.4,427.3z M35.5,395.6c-0.3,1.5-0.7,3-1,4.7
		c0.8-0.5,1.3-0.8,1.5-1c0.2-0.7,0.2-1.2,0.4-1.6C36.5,396.9,36.8,396,35.5,395.6z M14.8,372.6c-0.1,0-0.1-0.1-0.2-0.1
		c-1.1,1.1-2.1,2.3-3.4,3.7c1-0.1,1.6-0.1,2.3-0.3c0.2,0,0.6-0.3,0.6-0.5C14.4,374.4,14.6,373.5,14.8,372.6z M38.6,407.2
		c-0.2,0-0.3-0.1-0.5-0.1c-0.5,1.7-0.5,3.5-0.5,5.4c0.4-0.1,1-0.4,1-0.7C38.6,410.2,38.6,408.7,38.6,407.2z M8.4,402.7
		c-0.3,1.2-0.5,2.3-0.8,3.5c0.7-0.1,1.5,0.4,1.8-0.6C10,403.5,10,403.5,8.4,402.7z M67.4,432c2.4,0.3,2.6,0.1,2.8-1.9
		C68.1,429.7,68,429.8,67.4,432z M38.3,427.2c0-0.7,0-1.4,0-2.1c-0.8,0-1.6,0-2.4,0C35.7,426.7,36.6,427.4,38.3,427.2z M82,373.1
		c-0.2-0.2-0.3-0.4-0.5-0.5c-0.5,0.4-1.2,0.6-1.3,1.1c-0.4,1.2-0.6,2.4-0.9,3.8c1.7-1.7,2.1-2.5,1.8-3.4
		C81.4,373.7,81.7,373.4,82,373.1z M11.1,429.1c0.1-0.8,0.1-1.5,0.2-2.3c-0.8-0.1-1.4-0.2-2.1-0.2c-0.1,0.8-0.3,1.5-0.4,2.3
		C9.6,429,10.2,429.1,11.1,429.1z M33,377.9c-1.2,0.7-2.1,1.2-3.1,1.8c0.7,0.7,1.3,1.2,2.1,1.9C32.3,380.4,32.6,379.3,33,377.9z
		 M41.1,389.2c-0.6,0.3-0.8,4.3-0.4,6.8C41.4,395.6,41.7,391,41.1,389.2z M48.4,404.6c-0.1,0.2-0.3,0.3-0.4,0.5
		c0.2,0.4,0.3,1,0.6,1.2c1.1,0.6,2.2,0.5,3.3-0.4C50.8,405.4,49.6,405,48.4,404.6z M75.4,432.1c0.1-0.7,0.2-1.4,0.3-2.1
		c-2.3-0.2-2.3-0.2-2.4,2c0.3,0,0.6,0,0.9,0C74.6,432.1,75,432.1,75.4,432.1z M36,368.6c2.3-0.2,2.3-0.2,2.5-2
		c-0.6-0.2-1.3-0.3-1.9-0.5c-0.2,0.7-0.4,1.3-0.5,2C36,368.2,36,368.3,36,368.6z M26.2,394c2.3,0,3-0.6,3-2.4
		C27.1,391.8,26.8,392,26.2,394z M8.9,400.5c1.9-1.4,2.2-1.9,2.2-4.1C8.7,396.9,9.6,399.1,8.9,400.5z M20,403.9
		c-0.9-0.3-1.9-1.4-2.6-0.2c-0.7,1.2,0.7,1.6,1.4,2.4C19.2,405.3,19.6,404.6,20,403.9z M20.2,404.4c-0.4,0.7-0.6,1.2-0.9,1.7
		c1.5,0,2.9,0,4.3,0c0-0.1,0-0.2,0.1-0.3C22.5,405.3,21.4,404.8,20.2,404.4z M7.5,425.7c0.7-0.3,1.4-0.4,1.5-0.7
		c0.3-0.9,0.4-1.9,0.6-2.9C7.9,422.5,7.7,423.8,7.5,425.7z M11.5,429.2c0.8,0,1.6,0,2.3,0c0-0.6,0-1.2,0-1.9
		c-0.7-0.1-1.3-0.2-2.1-0.3C11.7,427.8,11.6,428.4,11.5,429.2z M72.9,430.1c-2.1-0.3-2.2-0.2-2.4,1.9
		C72.6,432.3,72.7,432.2,72.9,430.1z M38.3,424.6c0-0.7,0-1.3,0-1.8c-0.8,0-1.4,0-2.2,0c0,0.6-0.1,1.2-0.1,1.8
		C36.8,424.6,37.5,424.6,38.3,424.6z M30.1,424.5c2.1,0.4,2.5,0.2,2.6-0.7c0-0.4-0.4-1-0.7-1.1C30.7,422.4,30.4,422.6,30.1,424.5z
		 M16.3,396c-0.1,0-0.2,0-0.3,0c0,2.1,0,4.1,0,6.2c0.1,0,0.2,0,0.3,0C16.3,400.2,16.3,398.1,16.3,396z M36.4,420.2
		c-0.1,0.6-0.1,1.2-0.2,1.9c0.8,0,1.4,0,2.1,0c0-0.7,0-1.2,0-1.9C37.7,420.2,37.1,420.2,36.4,420.2z M35.7,422.1
		c0.1-0.7,0.2-1.2,0.2-1.8c-2-0.4-2.3-0.2-2.3,1.8C34.3,422.1,34.9,422.1,35.7,422.1z M94.4,407.7c0.2,0.5,0.3,1.1,0.6,1.2
		c0.8,0.4,2.6-0.3,3.2-1.2C97,407.7,95.9,407.7,94.4,407.7z M9.6,425.3c2.1-0.4,2.3-0.6,2-2.5C9.8,422.6,9.6,422.8,9.6,425.3z
		 M14.5,383.5c0.4-0.9,2-1.4,1.4-2.5c0.2-0.7,0.5-1.2,0.5-1.7c0-0.3-0.3-0.6-0.4-0.9c-0.2,0.3-0.5,0.5-0.6,0.8
		C15.1,380.5,14.8,382,14.5,383.5z M78.2,380.3c-0.1,0-0.1-0.1-0.2-0.1c-0.5,0.7-1,1.4-1.5,2.1c-1,1.3-0.9,1.5,0.8,2
		C77.6,382.9,77.9,381.6,78.2,380.3z M30.6,388.6c-0.2,0.7-0.4,1.4-0.5,2.1c1.1-0.5,2.6,0.1,3.2-1.4C32.3,389,31.5,388.8,30.6,388.6
		z M65.6,407.7c-1.6,0-2.7,0-3.9,0c0.6,0.9,2.2,1.6,3.1,1.2C65.1,408.8,65.3,408.3,65.6,407.7z M67.1,402c-1.1,0.8-2.1,1.5-3.1,2.2
		c0,0.1,0.1,0.2,0.1,0.3c1-0.1,2-0.1,3-0.2C67.1,403.5,67.1,402.8,67.1,402z M78.7,429.5c0-0.7,0-1.3,0-1.9c-0.7,0-1.4,0-2.1,0
		c-0.1,0.7-0.2,1.2-0.2,1.9C77.2,429.5,77.9,429.5,78.7,429.5z M70.3,404.6c-0.6,0-1.2,0-1.6,0.1s-0.7,0.3-1.1,0.5
		c0.3,0.5,0.3,1.1,1.2,1.2C70.1,406.5,70.2,405.7,70.3,404.6z M30.5,403.4c1.6,0,3,0,4.6,0c-0.9-0.7-1.5-1.2-2.2-1.7
		C32.2,402.3,31.5,402.8,30.5,403.4z M67.5,407.7c0,0.6,0,1.1,0,1.6c1.8,0.3,2.5-0.2,2.2-1.6C69,407.7,68.3,407.7,67.5,407.7z
		 M71.1,427.6c-2.2-0.2-2.3-0.1-2.6,1.8C70.7,429.7,70.7,429.7,71.1,427.6z M42.4,349.3c0-1.6,0-3.1,0-4.7h-0.1
		c-0.4,1.5-0.8,3.1-1.3,4.7C41.5,349.3,41.9,349.3,42.4,349.3z M72,410c-0.1,0.6-0.2,1.2-0.4,1.8c0.7,0.1,1.3,0.2,1.9,0.3
		c0.1-0.8,0.3-1.4,0.4-2.1C73.3,410,72.7,410,72,410z M36,419.7c0.1-0.7,0.2-1.3,0.2-1.9c-1.9-0.3-2-0.2-2,1.9
		C34.7,419.7,35.3,419.7,36,419.7z M27.5,408.2c-0.7,1.9-0.8,7.3,0,7.8C27.5,413.3,27.5,410.8,27.5,408.2z M78.7,424.9
		c-0.7,0-1.2,0.1-1.8,0.1c-0.1,0.8-0.1,1.4-0.2,2c0.7,0,1.3,0,2,0C78.7,426.3,78.7,425.7,78.7,424.9z M43.1,405c-0.9,0-1.7,0-2.5,0
		c0,0.6,0,1.1,0,1.6C42.6,406.7,43.1,406.3,43.1,405z M76.2,427c0.1-0.4,0.1-0.8,0.1-1.1c0-0.3,0.1-0.6,0.1-0.9
		c-1.8-0.3-1.9-0.2-2.1,2C75,427,75.6,427,76.2,427z M38.7,403.5c0-1.4,0-2.8,0-4.2c-0.1,0-0.1,0-0.2,0c-0.5,1.4-0.9,2.7-1.4,4.2
		C37.7,403.5,38.1,403.5,38.7,403.5z M41.3,385.2c-2.3-0.4-2.5-0.2-2.3,1.4c0.7,0,1.5,0,2.3,0C41.3,386.1,41.3,385.6,41.3,385.2z
		 M62.4,405.3c0,0.1,0.1,0.2,0.1,0.3c1.3,0,2.5,0,3.8,0c0.3,0,0.6-0.3,0.8-0.4c-0.3-0.1-0.6-0.4-0.9-0.4c-0.9,0-1.7,0-2.6,0.1
		C63.2,404.9,62.8,405.2,62.4,405.3z M38.3,419.7c0-0.7,0-1.3,0-1.9c-0.6,0-1,0-1.6,0c-0.1,0.7-0.2,1.3-0.3,1.9
		C37.2,419.7,37.7,419.7,38.3,419.7z M7.3,426.3c-0.2,0.9-0.3,1.6-0.5,2.5c0.6,0,1.1,0,1.6,0.1c0.1-0.8,0.3-1.6,0.4-2.3
		C8.2,426.5,7.8,426.4,7.3,426.3z M71.1,429.6c1-0.2,2.1,0.6,2.4-0.9c0.1-0.6,0.1-1-0.6-1.1C71.3,427.2,71.5,428.5,71.1,429.6z
		 M27.2,405c-1.5,0-2.7,0-3.9,0c0.9,1,2.5,1.5,3.3,1.1C26.8,406,26.9,405.5,27.2,405z M78.7,390.4c0.1,0.1,0.2,0.2,0.2,0.3
		c0.3-0.2,0.6-0.3,0.7-0.5c0.6-1.5,0.5-3.6-0.1-4.1C79.3,387.5,79,388.9,78.7,390.4z M14.5,397L14.5,397c-0.4,1.7-0.7,3.5-1,5.2
		c0.1,0.1,0.2,0.2,0.3,0.3c0.2-0.2,0.7-0.5,0.7-0.7C14.6,400.1,14.5,398.5,14.5,397z M13.8,396.8c-0.9,1.7-1,3.6-1.2,5.5
		C13.5,400.6,13.6,398.7,13.8,396.8z M39.5,382.8c-0.1,0.6-0.2,1.2-0.3,1.8c0.8,0,1.4,0,2.1,0c0-0.6,0-1.2,0-1.8
		C40.6,382.8,40.1,382.8,39.5,382.8z M42.3,353.7c-0.1,0-0.1,0-0.2,0c-0.4,1.7-0.8,3.4-1.2,5.1c0.1,0,0.2,0.1,0.3,0.1
		c0.4-0.4,1-0.8,1-1.3C42.4,356.3,42.3,355,42.3,353.7z M78.2,391.4c-0.9,0-1.6,0-2.4,0c-0.2,0-0.4,0.4-0.6,0.6
		c0.6,0.2,1.2,0.5,1.8,0.5C77.6,392.6,78.4,392.5,78.2,391.4z M77.2,413c-1.9-0.4-1.9-0.4-2.4,1.5C76.9,414.8,77,414.8,77.2,413z
		 M77.4,399.8c-0.1-0.1-0.3-0.1-0.4-0.2c-0.9,1.1-0.8,2.4-1.1,3.9c0.9-0.2,1.6-0.3,2.5-0.5c-1.1-0.3-2.1-0.3-1.2-1.6
		C77.4,400.9,77.4,400.3,77.4,399.8z M14,420.2c-0.5,0-1,0-1.5,0c-0.1,0.6-0.1,1.2-0.2,1.9c0.6,0,1.1,0,1.7,0
		C14,421.5,14,420.9,14,420.2z M75.8,407.7c0.7,0.5,1,0.9,1.5,1.1c0.4,0.2,1,0.3,1.3,0.2c0.3-0.2,0.3-0.8,0.5-1.3
		C77.9,407.7,77,407.7,75.8,407.7z M87.8,391.2c0,0.1-0.1,0.1-0.1,0.2c-0.2,0-0.4-0.1-0.6,0c-0.3,0.1-0.7,0.3-1,0.5
		c0.3,0.2,0.6,0.5,0.9,0.7c0.2,0.1,0.4,0.1,0.6,0.1c0.5-0.2,1-0.5,1.5-0.8C88.7,391.6,88.3,391.4,87.8,391.2z M22.1,367.9
		c-0.6-0.8-1-1.3-1.5-2c-0.6,0.7-1.1,1.3-1.8,2C20,367.9,20.9,367.9,22.1,367.9z M78.9,415.1c-1.8-0.3-1.9-0.2-2,1.6
		c0.6,0,1.3,0,2,0C78.9,416.3,78.9,415.7,78.9,415.1z M56.4,404.9c-1.3,0-2.4,0-3.9,0c0.3,0.5,0.5,1,0.8,1.2
		C54.1,406.5,55.5,406,56.4,404.9z M-0.7,427.3c1-0.5,2-1,2.9-1.4c0-0.1,0-0.2-0.1-0.3c-1-0.1-2-0.2-3-0.3
		C-0.8,426-0.8,426.5-0.7,427.3z M-3.7,424.9c-0.8-0.1-1.4-0.2-2.4-0.3c0.9,1.1,1.5,2,2.4,3.1C-3.7,426.6-3.7,425.8-3.7,424.9z
		 M44.4,351.3c0,0.1-0.1,0.1-0.1,0.2c0.8,0.4,1.7,0.8,2.5,1.3c0.4-0.7,0.8-1.2,1.1-1.7C46.7,351.2,45.6,351.2,44.4,351.3z M73,404.3
		c0.2,0.6,0.2,1.1,0.5,1.5c0.1,0.2,0.8,0.3,0.9,0.2c0.4-0.5,0.7-1.2,1.2-2C74.6,404.1,74,404.2,73,404.3z M75.4,395.6
		c0.8-0.8,2.1-1,2.1-2.4C75.6,393,75.4,393.1,75.4,395.6z M45.9,387.5c-0.2,1.3,0.7,1.2,1.4,1.2c0.7,0,1.7,0.2,1.6-1.2
		C47.9,387.5,46.9,387.5,45.9,387.5z M74.3,425c-1-0.1-2-0.4-2,0.9c0,0.8,0.6,1.1,1.5,1.2C74,426.4,74.1,425.8,74.3,425z
		 M71.5,410.1c-2.1-0.2-2.2-0.2-2.1,1.5c0.5,0.1,1.1,0.1,1.7,0.2C71.3,411.2,71.4,410.7,71.5,410.1z M12.3,422.7
		c-0.1,0.7-0.2,1.3-0.2,1.9c2.1-0.4,2.1-0.4,1.9-1.9C13.4,422.7,12.9,422.7,12.3,422.7z M81.1,397.8c0.1,0,0.2,0,0.4,0.1
		c0.7-1.1,0.2-2.4,0.3-3.6c0-0.4-0.1-0.8-0.2-1.2c-0.1,0-0.3,0.1-0.4,0.1C81.1,394.7,81.1,396.3,81.1,397.8z M87.8,436
		c0.6-1.4-0.9-1.9-1-2.9C85.7,434.3,86,435.3,87.8,436z M35.7,422.8c-0.8,0-1.5,0-2.3,0c0.4,1.4,1,1.9,2.1,1.7
		C35.5,423.9,35.6,423.4,35.7,422.8z M68.2,401.7c0.9,0.7,1.6,1.2,2.4,1.9c0.2-0.9,0.3-1.6,0.5-2.4
		C70.2,401.4,69.3,401.5,68.2,401.7z M77.1,424.4c0.6,0,1.1,0,1.7,0c0-0.7,0-1.3,0-1.9c-0.5,0-1,0-1.4,0
		C77.3,423.2,77.2,423.7,77.1,424.4z M33.4,420.2c-0.6,0-1.1-0.1-1.6,0c-0.2,0.1-0.6,0.6-0.5,0.6c0.4,0.5,0.9,1,1.5,1.8
		C33.1,421.6,33.3,420.9,33.4,420.2z M8.4,407c-0.2,1.2,0.7,1.2,1.3,1.2c0.7,0,1.6,0.1,1.5-1.2C10.3,407,9.4,407,8.4,407z
		 M72.8,422.5c-1.6-0.2-1.8-0.1-2.1,1.9C72.4,424.6,72.5,424.6,72.8,422.5z M14.5,407.3c-0.1-0.1-0.1-0.2-0.2-0.3
		c-0.7,0-1.5,0-2.2,0c-0.2,0-0.3,0.5-0.4,0.7c0.7,0.1,1.3,0.4,2,0.4C13.9,408,14.2,407.5,14.5,407.3z M18.7,407c-1,0-1.9,0-2.8,0
		c0,1.3,0.9,1.1,1.6,1.1C18.1,408.1,18.9,408.1,18.7,407z M36.2,391.2c-0.1-0.1-0.2-0.3-0.3-0.4c-0.9,0.4-1.7,0.7-2.5,1.2
		c-0.2,0.1-0.3,0.6-0.3,0.9c0,0.1,0.5,0.3,0.6,0.3C34.5,392.6,35.3,391.9,36.2,391.2z M110,423.2c-0.6,0.4-1.2,0.7-1.9,1
		c0.3,0.6,0.6,1.1,0.8,1.5C110.3,425.3,110.3,424.4,110,423.2z M37.7,387.5c-1,0-2,0-2.9,0c-0.1,1.3,0.9,1.1,1.5,1.1
		C37,388.6,37.9,388.7,37.7,387.5z M37.5,373.6c1.1-1.5,2.1-3,3.2-4.4C39.4,370.4,37.3,371.1,37.5,373.6z M25.5,425.2
		c-0.1,0-0.2,0-0.2,0c-0.4,1.5-0.8,3-1.2,4.6c0.1,0.1,0.2,0.2,0.3,0.3c0.3-0.2,0.7-0.4,0.8-0.7C25.3,428,25.4,426.6,25.5,425.2z
		 M77.8,358.8c1.2,0,2.3,0,3.3,0c0-0.1,0.1-0.2,0.1-0.3c-0.8-0.4-1.5-0.7-2.3-1.1C78.5,357.8,78.2,358.2,77.8,358.8z M35.7,376.4
		c-2.1,0.6-2.6,2-2.8,4C33.9,379,34.7,377.8,35.7,376.4z M20.6,406.7c-0.5,0.3-1,0.5-1.5,0.7c0.5,0.3,0.9,0.7,1.4,0.7s1-0.5,1.5-0.7
		C21.5,407.1,21.1,406.9,20.6,406.7z M72.9,424.3c1.6,0.3,1.7,0.3,1.9-1.8C73.3,422.3,73.3,422.3,72.9,424.3z M-2.9,425.1
		c0.1,1,0.1,1.8,0.2,2.7c1.1,0.1,1.3-0.4,1.1-1.2C-1.8,426-1.3,424.9-2.9,425.1z M6.8,406.6c-0.6,0.3-1,0.5-1.5,0.7
		c0.5,0.3,0.9,0.7,1.4,0.7c0.4,0,0.9-0.4,1.3-0.7C7.7,407.2,7.3,406.9,6.8,406.6z M71.5,421.9c1.8,0.2,1.8,0.1,2.1-1.9
		C71.9,419.4,72.1,421,71.5,421.9z M37.9,368.9c-2.2,0.1-2.2,0.1-2.4,1.8C37.2,370.3,37.8,369.8,37.9,368.9z M82.9,358.4
		c0-1.5,0-2.9,0-4.4c-0.4,1.1-0.6,2.2-1,3.3C81.7,358.1,82,358.4,82.9,358.4z M80.1,370.8c-1.5-0.2-1.7,0.1-1.6,2
		C80,372.7,80,372.7,80.1,370.8z M32.5,417.2c1.7,0.2,1.7,0.2,1.9-1.8C33,415.1,33,415.1,32.5,417.2z M81.7,390.5c0-0.7,0-1.3,0-1.9
		c-1.5-0.2-1.6,0-1.4,1.9C80.7,390.5,81.2,390.5,81.7,390.5z M71.6,398.7c-1.1,0.8-2.1,1.5-3.2,2.3C71.2,401,71.3,401,71.6,398.7z
		 M87.9,433.2c1.3-0.7,2.5-1.3,3.8-2.1C89.3,431,88.1,431.4,87.9,433.2z M39.8,380.5c-0.1,0.6-0.1,1.2-0.2,1.7c0.6,0,1.1,0,1.6,0
		c0-0.6,0-1.1,0-1.7C40.8,380.5,40.4,380.5,39.8,380.5z M8.5,393.9c0.1,0.1,0.1,0.3,0.2,0.4c0.5-0.2,1.1-0.4,1.3-0.7
		c0.3-0.8,0.4-1.7,0.6-2.5c-0.1-0.1-0.2-0.1-0.3-0.2c-0.1,0.1-0.1,0.3-0.2,0.4C9.6,392.2,9,393,8.5,393.9z M75.6,420
		c-1.4-0.2-1.5,0-1.8,1.9c0.4,0,0.9,0,1.3,0C75.2,421.3,75.4,420.7,75.6,420z M22.3,406.9c-0.1,1.4,0.9,1.2,1.6,1.2s1.2-0.2,0.9-1.2
		C24,406.9,23.2,406.9,22.3,406.9z M31.7,419.6c1.9,0.4,2.2,0.1,2-1.7C33,418.4,31.7,418.3,31.7,419.6z M42.8,387.5
		c0.3,1.3,1.1,1.3,2,1c0.3-0.1,0.6-0.6,1-1C44.6,387.5,43.7,387.5,42.8,387.5z M76.8,422.5c-1.5-0.1-1.6,0-1.7,1.9
		C76.8,424.6,76.8,424.5,76.8,422.5z M4.8,427.1c-1.9,0-2.1,0.1-2.1,1.5c0.6,0,1.1,0.1,1.7,0.1C4.6,428.1,4.7,427.6,4.8,427.1z
		 M78.8,421.9c0-0.8,0-1.4,0-2c-1.3-0.1-1.4,0.2-1.2,2C78,421.9,78.4,421.9,78.8,421.9z M28.1,398.6L28.1,398.6
		c-0.5,1.4-0.8,2.7-1.2,4.2c0.5,0,0.8,0,1.2-0.1C28.1,401.3,28.1,400,28.1,398.6z M53.8,406.8c-1.3,0.1-2.4,0.2-3.6,0.3
		C51.6,408.7,51.8,408.7,53.8,406.8z M5.1,428.6c1.4,0.3,1.7-0.1,1.5-2C5.2,426.7,5.1,426.8,5.1,428.6z M16.7,411
		c1.2-0.8,2.3-1.4,3.5-2.2C17.7,408.5,17.6,408.6,16.7,411z M67.6,402c0,0.9,0,1.5,0,2.3c0.8,0,1.5-0.1,2.6-0.1
		C69.3,403.3,68.6,402.8,67.6,402z M10.7,419.7c1.5,0.2,1.7-0.1,1.4-1.9C10.9,417.7,10.9,417.7,10.7,419.7z M74,412.2
		c1.7,0,1.4-1.4,2-2.1c-0.6,0-1.1,0-1.6,0C74.3,410.8,74.2,411.4,74,412.2z M83.1,391.4c0.6,1.1,1.3,1.5,2.3,1.1
		c0.2-0.1,0.4-0.4,0.4-0.6c0-0.1-0.3-0.4-0.4-0.4C84.6,391.3,83.8,391.4,83.1,391.4z M32.8,364c0.1,0.1,0.2,0.1,0.2,0.2
		c0.9-0.5,1.7-1,2.7-1.5c-0.6-0.4-1-0.6-1.4-1C33.8,362.5,33.3,363.3,32.8,364z M75.6,421.9c0.5,0,0.9,0,1.3,0
		c0.1-0.4,0.1-0.7,0.2-1c0-0.3,0.1-0.6,0.1-0.9C76,419.8,76,419.8,75.6,421.9z M92.2,391.4c-0.9,0-1.5,0-2.2,0
		c-0.2,0-0.4,0.2-0.5,0.4c0,0.2,0.1,0.5,0.2,0.6C90.4,392.8,91.6,392.4,92.2,391.4z M24.1,408.8c-1.1,0-2,0-3.1,0
		c0.6,0.7,1,1.2,1.5,1.7C23.1,409.9,23.5,409.4,24.1,408.8z M46.8,403.3c-1.4-0.8-2.8-1.7-4.2-2.5c-0.1,0.1-0.1,0.2-0.2,0.3
		C43.9,401.8,44.8,403.7,46.8,403.3z M72.1,391.4c0.6,1,1.8,1.4,2.4,1c0.2-0.1,0.3-0.4,0.3-0.6s-0.3-0.3-0.5-0.4
		C73.7,391.3,73,391.4,72.1,391.4z M47.2,350.2c-1.5,0-2.7,0-4.1,0C43.9,351,46.2,351,47.2,350.2z M83.8,371.9
		c1.2-0.3,2.4-0.6,3.5-0.9c0-0.1,0-0.1,0-0.2c-1.1,0-2.3,0-3.5,0C83.8,371.1,83.8,371.4,83.8,371.9z M69.5,426.9
		c0.1,0.1,0.1,0.2,0.2,0.3c0.6-0.2,1.3-0.4,1.9-0.5c-0.4-0.5-0.7-1.1-1.2-1.8C69.9,425.8,69.7,426.3,69.5,426.9z M38.5,414.8
		c0-0.6,0-1.2,0-1.8c-0.4,0-0.8,0-1.2,0c0,0.6-0.1,1.2-0.1,1.8C37.6,414.8,38,414.8,38.5,414.8z M100.3,432.1
		c0.1,0.1,0.1,0.2,0.2,0.2c1.2-0.9,2.4-1.8,3.7-2.8C101.9,429.4,101.4,431.2,100.3,432.1z M35.6,412.9c-0.1,0.6-0.2,1.2-0.4,1.9
		c0.6,0,1,0,1.5-0.1c0.1-0.7,0.1-1.3,0.2-1.9C36.3,412.9,36,412.9,35.6,412.9z M37.6,370.5c-1,0.6-2.6,0.4-2.7,2.3
		C35.9,372,37.2,371.8,37.6,370.5z M49.3,387.5c-0.3,0.9,0.3,1.1,0.8,1.1c0.7,0,1.6,0.1,1.7-1.1C50.9,387.5,50.1,387.5,49.3,387.5z
		 M10.2,403.9c-0.1,0.8-0.3,1.5-0.4,2.3c0.5,0,0.8,0,1.2,0C11.3,405.2,11.7,404.3,10.2,403.9z M40.4,360.4c0.1,0.1,0.2,0.2,0.3,0.3
		c0.5,0,1,0,1.5,0c0-0.7,0-1.3,0-2.3C41.4,359.2,40.9,359.8,40.4,360.4z M33.3,414.7c1.6,0.2,1.7,0.1,1.7-1.8
		C33.4,412.6,33.7,413.9,33.3,414.7z M39.8,354.1c0.9-1.1,1.5-1.9,2.2-2.8C40.4,351.2,40.4,351.2,39.8,354.1z M105.6,420.8
		c-0.7,0.4-1.2,0.7-1.7,1c0.8,1.3,1.5,0.9,2.3,0.2C106,421.7,105.8,421.3,105.6,420.8z M32.6,401.5c-0.5-0.4-1-0.8-1.5-1.2
		c-0.2,0.9-0.4,1.6-0.6,2.6C31.3,402.4,31.9,402,32.6,401.5z M17,371.5c-0.3,1.3-0.5,2.6-0.8,4C17.2,375.3,17.2,375.3,17,371.5z
		 M26.5,420c0.1,0,0.2,0.1,0.3,0.1c0.2-0.3,0.5-0.6,0.4-0.8c-0.1-0.9,0.4-2-0.6-2.7C26.7,417.7,26.6,418.9,26.5,420z M38.8,393.7
		c-1.6-0.5-1.3,0.7-1.5,1.6c0.5,0,1,0,1.5,0C38.8,394.7,38.8,394.2,38.8,393.7z M33.3,391.6c1.1-0.6,2.1-1.1,3-1.6
		C33.8,390,33.5,390.2,33.3,391.6z M31.9,387.5c0.2,0.8,0.9,1.3,1.7,1c0.3-0.1,0.6-0.5,0.8-0.8c-0.1-0.1-0.2-0.2-0.2-0.2
		C33.5,387.5,32.7,387.5,31.9,387.5z M10,421.9c0.1,0.1,0.1,0.2,0.2,0.3c0.5,0,1,0,1.6,0c0.1-0.6,0.1-1.2,0.2-1.7
		c-0.1,0-0.2-0.1-0.2-0.1C11.2,420.8,10.6,421.4,10,421.9z M28.5,389.5c0.4,0.3,0.7,0.5,1.1,0.8c0.7-2,0.7-2-0.2-2.5
		C29.2,388.4,28.9,388.9,28.5,389.5z M94.7,409.9c-1.3,0.1-2.6,0.1-4,0.2C91.5,411.1,92.9,410.9,94.7,409.9z M72.6,419.3
		c1.9,0.4,1.5-1,1.9-1.8C72.9,417.1,73.1,418.5,72.6,419.3z M78.9,412.9c-1.5-0.4-1.3,0.7-1.5,1.6c0.5,0,1,0,1.5,0
		C78.9,414,78.9,413.5,78.9,412.9z M81.3,401.6c0.6-1,0.4-2.2,0.2-3.3C80.8,399.3,81.1,400.5,81.3,401.6z M24.7,409.1
		c-0.1,0-0.1-0.1-0.2-0.1c-0.5,0.6-1.1,1.2-1.7,1.9c0.3,0.4,0.6,0.7,1,1.1C24.1,410.9,24.4,410,24.7,409.1z M36.6,404.6
		c-0.2,1.7,0.4,2.1,2.3,1.7C38.1,405.7,37.5,405.3,36.6,404.6z M13.4,396.1c-1.7-0.1-1.9,0.2-1.8,2.2
		C12.2,397.5,12.7,396.9,13.4,396.1z M81.7,391.8c0-0.1,0-0.2,0-0.3c-1.1,0-2.1,0-3.2,0c0,0.1,0,0.2,0,0.3
		C79.6,391.8,80.7,391.8,81.7,391.8z M10,402.7c0.2-1,0.4-1.8,0.5-2.6c-0.1,0-0.1-0.1-0.2-0.1c-0.5,0.6-1.1,1.2-1.7,1.9
		C9,402.1,9.4,402.3,10,402.7z M13.9,424.4c-0.8,0.5-1.4,0.9-2,1.3c0.6,0.2,1.2,0.4,2,0.7C13.9,425.6,13.9,425.2,13.9,424.4z
		 M74.5,419.3c1.3,0.3,1.5,0.1,1.5-1.8C74.5,417.2,75,418.6,74.5,419.3z M82.1,372.2c-0.3-0.6-0.6-1.4-0.8-1.4
		c-1.1,0.1-0.6,1-0.9,1.8C80.9,372.4,81.3,372.3,82.1,372.2z M14.1,417.2c0-0.7,0-1.3,0-2c-0.4,0.2-1,0.2-1,0.4
		c-0.2,0.5-0.1,1-0.2,1.6C13.4,417.2,13.7,417.2,14.1,417.2z M75.9,429.4c0.1-0.8,0.1-1.3,0.2-1.8c-0.7,0-1.3,0-2.2,0
		C74.7,428.3,75.2,428.7,75.9,429.4z M12.7,415.3c-1.7,0-1.2,1.1-1.5,1.9C13.1,417.5,12.3,416.1,12.7,415.3z M35,415.3
		c-0.1,0.5-0.2,1-0.3,1.7c1.8-0.6,1.8-0.6,1.7-1.7C36,415.3,35.6,415.3,35,415.3z M38.2,373.5c1.3-0.6,2.4-1.4,2.2-3.2
		C39.6,371.5,38.9,372.5,38.2,373.5z M16.3,367.9c1.1-0.1,1.2-1,0.9-3.7C16.8,365.6,16.6,366.7,16.3,367.9z M70.8,404.7
		c-0.1,0.6-0.2,1.1-0.3,1.6c0.8,0,1.4,0,2.2,0c-0.5-0.4-0.7-0.7-1-0.9C71.4,405.1,71.2,405,70.8,404.7z M78.4,403.5
		c-2.8,0.2-2.9,0.3-2.7,1.8C76.6,404.8,77.4,404.2,78.4,403.5z M88.2,369.4c-1,0-1.7,0-2.6,0C86.3,370.4,87.2,370.4,88.2,369.4z
		 M79.6,399.9c-0.4-0.8-0.6-1.3-0.8-1.8c-0.3,0.5-0.7,1-1.2,1.8C78.4,399.9,78.8,399.9,79.6,399.9z M-0.5,428
		c1.9,0.8,2.5,0.6,2.7-0.5C1.2,427.6,0.4,427.8-0.5,428z M76.2,419.3c1.2,0.2,1.4-0.1,1.2-1.9C76,417.5,76.5,418.6,76.2,419.3z
		 M75.4,415c-1.6-0.1-1.3,1.1-1.8,1.9C75.4,417.2,74.9,415.8,75.4,415z M78.1,369.3c0,0.2-0.1,0.3-0.1,0.5c0.5,0.1,1.1,0.3,1.6,0.3
		c0.3,0,0.5-0.3,0.8-0.5c0-0.1-0.1-0.2-0.1-0.3C79.5,369.3,78.8,369.3,78.1,369.3z M33,390.8c-0.1-0.1-0.2-0.1-0.2-0.2
		c-0.6,0.2-1.3,0.3-1.9,0.5c0,0.1,0,0.2-0.1,0.3c0.5,0.2,1,0.6,1.5,0.6C32.5,391.9,32.7,391.2,33,390.8z M76.1,432
		c0.7,0,1.3,0,2.2,0c-0.7-0.6-1.3-1.1-1.9-1.7C76.2,431,76.1,431.5,76.1,432z M17.9,406.2c0.1-0.1,0.1-0.2,0.2-0.3
		c-0.5-0.3-0.9-0.7-1.5-0.8c-0.2,0-0.6,0.6-0.9,0.9c0.1,0.1,0.1,0.2,0.2,0.3C16.6,406.2,17.3,406.2,17.9,406.2z M17.9,368.7
		c0,0.1,0,0.2,0,0.3c1,0,2.1,0,3.1,0c0-0.1,0-0.2,0-0.3C20,368.7,18.9,368.7,17.9,368.7z M78.8,417.4c-1.3,0.1-0.7,1.3-1,1.8
		C79,419.5,79.1,419.4,78.8,417.4z M76.7,430c0.7,0.6,1.2,1.1,1.9,1.7c0-0.7,0-1.2,0-1.7C78,430,77.5,430,76.7,430z M11.7,431.8
		c0-0.4,0-0.7,0-1c-1.6-0.2-1.6-0.2-1.4,1C10.7,431.8,11.2,431.8,11.7,431.8z M67.5,410c-0.3,1.3,0.5,1.3,1.3,1.3
		c0.1-0.4,0.2-0.8,0.2-1.3C68.5,410,68.1,410,67.5,410z M41.3,378.4c-1.5-0.2-1.1,0.8-1.2,1.6c0.5,0,0.8,0,1.2,0
		C41.3,379.4,41.3,378.9,41.3,378.4z M82.2,388c-0.5-0.7-0.9-1.2-1.2-1.7c-0.1,0.1-0.2,0.1-0.3,0.2c-0.1,0.5-0.2,1-0.3,1.5
		C80.9,388,81.3,388,82.2,388z M7.5,423.3c-0.8,0.7-1.8,0.7-1.6,1.9c0.4,0,0.8,0.1,1.2,0.1C7.2,424.7,7.3,424.1,7.5,423.3z
		 M17.6,431.8c-0.1-0.4-0.2-0.9-0.4-1c-0.3-0.1-0.8-0.1-1.1,0c-0.2,0.1-0.1,0.6-0.2,1C16.4,431.8,16.9,431.8,17.6,431.8z M5.8,432
		c0.3-1.1,0.1-1.5-0.7-1.3c-0.3,0.1-0.5,0.4-0.7,0.6C4.8,431.6,5.3,431.8,5.8,432z M107,421.8c0.4-0.3,0.7-0.4,1.1-0.7
		c-0.2-0.4-0.4-0.8-0.7-1.2c-0.4,0.2-0.8,0.3-1.1,0.5C106.6,421,106.8,421.3,107,421.8z M21.7,431.7c0.5,0,1,0,1.4,0
		c0.1-0.1,0.1-0.2,0.2-0.3c-0.3-0.2-0.6-0.6-0.9-0.7C21.6,430.5,21.4,431,21.7,431.7z M66.6,409.4c0.1-0.1,0.3-0.2,0.4-0.3
		c0-0.5,0-0.9,0-1.4c-0.4,0-0.8,0-1.6,0C65.9,408.5,66.2,409,66.6,409.4z M75.2,416.9c1.7,0,1.2-1.2,1.6-2
		C75.4,415.1,75.7,416.1,75.2,416.9z M14.8,393.7c0.1,0.1,0.2,0.2,0.2,0.3c0.4,0,0.9,0,1.3,0c0.1-0.1,0.2-0.2,0.3-0.3
		c-0.3-0.3-0.6-0.9-0.8-0.8C15.4,393,15.1,393.4,14.8,393.7z M3,406.9c0,0.1-0.1,0.3-0.1,0.4c0.5,0.2,0.9,0.4,1.4,0.5
		c0.2,0,0.5-0.3,0.7-0.4c-0.2-0.2-0.4-0.5-0.6-0.5C4,406.8,3.5,406.9,3,406.9z M13.3,404.7c0.1-0.4,0.2-0.8,0.3-1.3
		c-0.5-0.1-1-0.3-1.4-0.4C12,404.1,12,404.1,13.3,404.7z M37.5,350.1c1.9,1,2.6,1,3,0C39.5,350.1,38.6,350.1,37.5,350.1z
		 M31.5,392.4c-0.6-0.4-1-0.7-1.5-1.2c-0.2,0.7-0.3,1.2-0.5,1.9C30.2,392.8,30.7,392.6,31.5,392.4z M33.9,393.7
		c0.5,0.4,0.9,0.6,1.3,1c0.2-0.8,0.3-1.4,0.5-2.4C35,392.8,34.5,393.2,33.9,393.7z M39,366.6c-0.1,0.6-0.2,1-0.3,1.6
		c0.7-0.3,1.3-0.5,1.8-0.7c0-0.1,0-0.2,0-0.4C40.1,367,39.6,366.8,39,366.6z M16,408.8c0,0.8,0,1.4,0,2.4c0.5-1,0.9-1.6,1.3-2.4
		C16.7,408.8,16.3,408.8,16,408.8z M29.6,386c2,0,1.3-1.6,1.7-2.4C30.8,384.3,30.3,385,29.6,386z M36.7,386.6
		c-0.7-0.6-1.3-1.1-1.8-1.7C34.5,386,35.3,386.7,36.7,386.6z M79.2,401.6c0-0.5,0-0.8,0-1.2c-0.5,0-0.9,0-1.4,0
		c-0.1,0.4-0.1,0.7-0.2,1.2C78.2,401.6,78.6,401.6,79.2,401.6z M14.3,395.2c0-0.2-0.1-0.4-0.1-0.6c-0.7,0.1-1.4,0.2-2.2,0.3
		c0,0.2,0.1,0.4,0.1,0.7C12.8,395.4,13.5,395.3,14.3,395.2z M80.7,385.3c1.3,0.4,1.2-0.3,1.2-0.9c0-0.3-0.2-0.5-0.4-0.7
		C81.2,384.2,80.9,384.7,80.7,385.3z M27.4,407.4c0-0.2-0.1-0.3-0.1-0.5c-0.5,0-1,0-1.5,0c-0.2,0-0.3,0.3-0.5,0.5
		c0.2,0.1,0.4,0.4,0.5,0.4C26.3,407.7,26.9,407.5,27.4,407.4z M19.5,394.8c1,1,1.7,1,2.4,0C21.1,394.8,20.4,394.8,19.5,394.8z
		 M15.1,392.1c0.2,0.2,0.4,0.3,0.5,0.5c0.3-0.3,0.6-0.5,0.8-0.8c0.1-0.1-0.3-0.5-0.5-0.7C15.7,391.4,15.4,391.7,15.1,392.1z
		 M38.7,397.4c0-0.6,0-1,0-1.4c-0.5,0-1,0-1.9,0C37.6,396.5,38.1,396.9,38.7,397.4z M29.3,419.2c-0.4-0.5-0.8-1-1.3-1.6
		c0,0.9,0,1.4,0,2C28.4,419.5,28.7,419.4,29.3,419.2z M79.3,396.3c-0.1-0.1-0.3-0.2-0.4-0.3c-0.2,0.5-0.4,1-0.7,1.6
		C79.7,397.7,79.2,396.8,79.3,396.3z M38.8,398c-0.7-0.6-1.2-0.9-1.8-1.4c-0.1,0.5-0.2,0.9-0.3,1.4C37.4,398,37.9,398,38.8,398z
		 M-3.7,429.4c-0.1,0.1-0.3,0.2-0.4,0.3c0.2,0.5-0.1,1.5,1.4,1.2C-3.1,430.4-3.4,429.9-3.7,429.4z M45.9,361.5
		c-0.1,0.1-0.1,0.2-0.2,0.3c0.3,0.2,0.6,0.4,0.9,0.4c0.5,0,0.9-0.2,1.4-0.3c0-0.1-0.1-0.3-0.1-0.4C47.3,361.5,46.6,361.5,45.9,361.5
		z M41.3,387.9c0-0.1,0-0.2,0-0.3c-1,0-2,0-3.1,0c0,0.1,0,0.2,0,0.3C39.2,387.9,40.2,387.9,41.3,387.9z M11.5,406.1
		c0.7,0,1.3,0,2.1,0c-0.7-0.5-1.2-0.8-1.9-1.3C11.7,405.4,11.6,405.7,11.5,406.1z M38.4,415.8c-0.7,0.4-1.2,0.7-1.7,1.1
		c0.1,0.1,0.1,0.2,0.2,0.3c0.5,0,1,0,1.5,0C38.4,416.8,38.4,416.4,38.4,415.8z M37.5,361.5c0,0.2-0.1,0.3-0.1,0.5
		c0.5,0.1,1,0.3,1.5,0.3c0.3,0,0.5-0.3,0.8-0.5c0-0.1-0.1-0.2-0.1-0.3C38.9,361.5,38.2,361.5,37.5,361.5z M89.5,436.7
		c0.4-1.5,0.4-1.5-1.2-1.5C88.7,435.8,89,436.1,89.5,436.7z M-2,429.4c-0.1,0.1-0.3,0.2-0.4,0.4c0.3,0.5,0,1.4,1.5,1.1
		C-1.4,430.3-1.7,429.9-2,429.4z M-0.3,429.4c-0.1,0.1-0.3,0.2-0.4,0.4c0.3,0.4,0,1.4,1.5,1.1C0.3,430.3,0,429.9-0.3,429.4z
		 M5,426.4c-1.7-0.7-1.7-0.7-1.9,0.5C3.7,426.7,4.3,426.5,5,426.4z M43,361.5c1.7,1,2,1,2.4,0C44.7,361.5,44,361.5,43,361.5z"/>
</g>
<g id="Layer_2">
	<path class="st5" d="M14.3,322.8v9.9h70.4v-9.9H14.3z M94.6,322.8v9.9h100.3c0,0-10.2-9.9-23.8-9.9H94.6z M214.5,322.8v9.9h60.7
		l-3.6-9.9H214.5z M318.7,322.8l-3.6,9.9h60.1v-9.9H318.7z M14.3,342v9.9h70.4V342H14.3z M94.6,342v9.9h111.9c0,0-1.3-7.6-3.6-9.9
		H94.6z M214.5,342v9.9h67.3l-3.3-9.9H214.5z M311.5,342l-3.3,9.9h67V342H311.5z M34.5,361.2v9.9H65v-9.9H34.5z M114.8,361.2v9.9
		h30.5v-9.9H114.8z M174.9,361.2v9.9h30.5c0,0,1.9-5.2,1.9-9.9H174.9z M234.7,361.2v9.9h54l-3.6-9.9H234.7z M304.8,361.2l-3.6,9.9
		h54.3v-9.9H304.8z M34.5,380.5v9.9H65v-9.9H34.5z M114.8,380.5v9.9h77.8c0,0,6.5-5.1,8.6-9.9H114.8z M234.7,380.5v9.9h30.5v-5.5
		l1.9,5.5H323l2.1-5.5v5.5h30.5v-9.9h-57.2l-3,8.4l-3-8.4H234.7z M34.5,399.7v9.9H65v-9.9H34.5z M114.8,399.7v9.9h86.4
		c-2.1-4.8-8.6-9.9-8.6-9.9H114.8z M234.7,399.7v9.9h30.5v-9.9H234.7z M270.7,399.7l3.7,9.9h41.8l3.5-9.9H270.7z M325,399.7v9.9
		h30.5v-9.9H325z M34.5,418.9v9.9H65v-9.9H34.5z M114.8,418.9v9.9h30.5v-9.9H114.8z M174.9,418.9v9.9h32.4c0-4.7-1.9-9.9-1.9-9.9
		H174.9z M234.7,418.9v9.9h30.5v-9.9H234.7z M277.7,418.9l3.6,9.9h28.1l3.6-9.9H277.7z M325,418.9v9.9h30.5v-9.9H325z M14.8,438.2
		v9.9h70.4v-9.9H14.8z M94.6,438.2v9.9h108.3c2.3-2.3,3.6-9.9,3.6-9.9H94.6z M215.1,438.2v9.9h50.1v-9.9H215.1z M284.6,438.2
		l3.7,9.9h14.3l3.4-9.9H284.6z M325,438.2v9.9h50.7v-9.9H325z M14.8,457.4v9.9h70.4v-9.9H14.8z M94.6,457.4v9.9h76.5
		c13.6,0,23.8-9.9,23.8-9.9H94.6z M215.1,457.4v9.9h50.1v-9.9H215.1z M291.6,457.4l3.5,9.9l0.6,0l3.6-9.9H291.6z M325,457.4v9.9
		h50.7v-9.9H325z"/>
</g>
</svg>
