<?xml version="1.0" standalone="no"?>
<!DOCTYPE svg PUBLIC "-//W3C//DTD SVG 20010904//EN"
 "http://www.w3.org/TR/2001/REC-SVG-20010904/DTD/svg10.dtd">
<svg version="1.0" xmlns="http://www.w3.org/2000/svg"
 width="1994.000000pt" height="686.000000pt" viewBox="0 0 1994.000000 686.000000"
 preserveAspectRatio="xMidYMid meet">

<g transform="translate(0.000000,686.000000) scale(0.100000,-0.100000)"
fill="#000000" stroke="none">
<path d="M2705 5210 c-350 -30 -663 -90 -940 -181 l-126 -40 4 -627 c3 -595 4
-632 24 -717 33 -141 71 -251 126 -369 l51 -109 17 54 c8 30 27 77 42 104 14
28 33 78 43 110 16 57 16 66 -1 192 -18 127 -18 134 0 198 9 36 37 105 62 153
50 99 179 296 217 331 24 23 27 23 44 8 19 -18 42 -23 42 -9 -1 4 -7 34 -15
67 -17 70 -20 231 -5 271 15 39 68 102 113 135 63 46 90 40 162 -33 34 -35 73
-79 88 -98 l26 -35 98 3 c189 6 484 -32 603 -77 70 -27 84 -27 70 -2 -5 11
-10 23 -10 26 0 13 176 88 217 93 73 8 88 -1 124 -73 29 -59 31 -71 27 -130
-4 -43 -15 -84 -33 -119 l-28 -55 48 -63 c44 -59 47 -66 41 -107 -3 -24 -11
-50 -18 -58 -10 -13 -14 -12 -25 3 -7 10 -13 33 -13 52 0 28 -9 44 -45 80 -44
44 -45 44 -102 40 -49 -4 -60 -9 -90 -41 -18 -20 -33 -47 -33 -59 0 -13 20
-59 43 -103 l43 -80 52 -3 c56 -3 71 12 22 21 -22 5 -36 19 -60 59 -16 29 -30
58 -30 64 0 15 61 44 90 44 12 0 35 -14 52 -30 26 -26 29 -36 26 -78 -3 -42
-1 -47 18 -50 31 -4 51 -30 74 -97 26 -75 25 -130 -2 -233 -18 -69 -19 -89
-10 -115 37 -105 23 -189 -51 -286 -58 -77 -63 -81 -100 -81 -56 0 -93 25
-117 79 -13 28 -28 51 -34 51 -5 0 -30 -22 -55 -49 -43 -46 -51 -50 -141 -71
-52 -12 -129 -25 -171 -27 -67 -5 -82 -3 -117 17 -44 25 -117 107 -137 155 -7
17 -16 67 -20 113 -4 45 -12 85 -16 88 -11 7 -24 -28 -33 -88 -4 -26 -15 -57
-24 -68 l-18 -22 -142 47 c-78 25 -154 56 -169 69 -16 13 -39 52 -52 85 -40
103 -49 98 -67 -38 -14 -113 -23 -132 -110 -254 -77 -108 -88 -147 -82 -317 3
-112 7 -130 31 -177 58 -111 260 -290 542 -479 155 -103 298 -194 307 -194 3
0 8 46 11 103 9 165 25 196 195 373 125 129 143 136 153 64 14 -94 62 -169
127 -197 33 -14 35 -13 89 29 410 316 690 692 797 1073 57 201 58 214 63 861
l5 602 -129 40 c-247 79 -497 132 -793 168 -157 18 -707 28 -865 14z m885
-2098 c46 -22 48 -42 10 -85 -50 -58 -96 -70 -252 -65 -140 4 -188 17 -202 55
-10 24 31 59 87 74 148 40 301 50 357 21z"/>
<path d="M2417 4699 c-14 -10 -35 -40 -47 -65 -19 -39 -22 -55 -16 -110 12
-119 69 -254 107 -254 6 0 31 19 57 43 26 24 62 54 80 66 17 12 32 29 32 37 0
7 -17 42 -38 76 -21 35 -57 97 -80 139 -23 43 -49 79 -57 82 -7 3 -25 -3 -38
-14z"/>
<path d="M3669 4539 c-23 -24 -53 -61 -67 -83 l-26 -38 24 -19 c14 -11 42 -33
62 -49 l37 -31 27 53 c36 71 39 157 7 190 l-22 22 -42 -45z"/>
<path d="M2951 4248 c-49 -14 -135 -71 -157 -104 -30 -44 -54 -102 -54 -128 0
-28 19 -38 60 -30 20 5 45 -2 81 -20 50 -25 139 -37 139 -18 0 4 -19 16 -42
27 -24 12 -51 35 -61 53 l-19 33 40 38 c62 60 136 64 192 11 34 -32 39 -68 14
-106 -22 -33 -15 -37 23 -14 41 25 64 60 70 110 5 38 3 43 -43 89 -67 67 -148
87 -243 59z"/>
<path d="M3492 3620 c-29 -4 -63 -15 -77 -24 -29 -19 -61 -64 -51 -73 3 -3 34
-10 68 -15 34 -4 73 -15 86 -24 23 -15 24 -20 18 -74 -4 -32 -3 -61 2 -64 13
-8 51 36 82 92 22 42 31 48 73 59 58 14 77 28 77 57 0 39 -22 56 -85 66 -67
11 -116 11 -193 0z"/>
</g>
</svg>
