<?xml version="1.0" standalone="no"?>
<!DOCTYPE svg PUBLIC "-//W3C//DTD SVG 20010904//EN"
 "http://www.w3.org/TR/2001/REC-SVG-20010904/DTD/svg10.dtd">
<svg version="1.0" xmlns="http://www.w3.org/2000/svg"
 width="1994.000000pt" height="686.000000pt" viewBox="0 0 1994.000000 686.000000"
 preserveAspectRatio="xMidYMid meet">
<metadata>
Created by potrace 1.16, written by Peter Selinger 2001-2019
</metadata>
<g transform="translate(0.000000,686.000000) scale(0.100000,-0.100000)"
fill="#000000" stroke="none">
<path d="M2685 5209 c-334 -27 -785 -119 -1017 -208 l-28 -11 0 -584 c0 -366
4 -614 11 -663 23 -168 109 -431 176 -541 l21 -34 7 34 c4 18 27 77 52 130 55
121 61 168 38 306 -21 134 -15 174 54 317 49 102 191 324 231 360 21 19 23 19
35 2 6 -9 20 -17 30 -17 15 0 16 5 10 33 -21 94 -24 118 -25 188 0 114 7 134
68 201 113 122 146 118 272 -35 l57 -69 174 -3 c201 -4 399 -31 511 -69 91
-32 102 -33 89 -7 -8 14 -6 22 7 34 43 38 175 87 233 87 46 0 79 -35 104 -111
23 -68 14 -145 -25 -216 l-28 -54 37 -43 c53 -62 65 -94 51 -145 -14 -52 -37
-54 -45 -3 -11 63 -27 92 -64 118 -92 62 -229 -6 -206 -103 3 -15 23 -57 44
-93 l37 -65 52 -3 c32 -2 52 1 52 7 0 6 -8 11 -18 11 -22 0 -63 42 -86 88 -20
40 -12 55 38 72 68 22 127 -31 110 -98 -9 -36 -9 -37 31 -57 35 -18 43 -28 62
-85 28 -82 28 -133 1 -231 -20 -77 -21 -81 -4 -151 26 -114 3 -191 -91 -297
-38 -43 -40 -44 -83 -37 -58 9 -75 22 -99 79 -11 26 -27 47 -35 47 -8 0 -27
-16 -42 -36 -36 -47 -65 -60 -194 -89 -183 -42 -232 -33 -313 54 -63 67 -86
120 -87 196 0 33 -3 70 -6 83 -10 35 -32 26 -39 -15 -16 -93 -30 -128 -53
-131 -25 -4 -224 59 -285 90 -32 16 -44 32 -73 94 -21 46 -39 74 -47 71 -7 -2
-17 -41 -24 -98 -15 -119 -22 -136 -92 -234 -98 -135 -96 -128 -96 -310 0
-204 6 -218 154 -365 141 -140 381 -317 654 -483 l77 -47 0 63 c0 93 18 183
47 240 27 54 256 297 279 297 7 0 16 -17 19 -37 17 -101 59 -172 121 -205 l42
-22 74 56 c238 183 467 429 596 640 136 221 221 475 242 718 5 63 10 352 10
642 l0 527 -127 41 c-233 76 -500 133 -783 166 -160 19 -727 27 -895 13z m919
-2103 c35 -23 33 -42 -12 -86 -52 -52 -99 -63 -254 -58 -110 3 -131 7 -155 24
-54 40 -41 73 39 100 132 44 330 54 382 20z"/>
<path d="M2408 4693 c-39 -42 -58 -87 -58 -135 1 -109 59 -270 103 -284 14 -4
31 5 61 33 22 22 58 52 79 67 20 15 37 34 37 43 0 8 -22 52 -49 97 -27 44 -60
104 -75 133 -21 43 -49 73 -68 73 -3 0 -16 -12 -30 -27z"/>
<path d="M3693 4565 c-25 -18 -113 -129 -113 -143 0 -5 27 -29 59 -55 l59 -46
15 23 c20 30 47 111 47 142 0 29 -26 94 -37 94 -5 0 -18 -7 -30 -15z"/>
<path d="M2948 4250 c-36 -11 -96 -47 -131 -79 -37 -33 -77 -112 -77 -150 0
-34 19 -44 65 -35 25 4 41 0 64 -17 22 -16 49 -24 91 -27 66 -5 79 8 30 28
-39 16 -80 58 -80 82 0 28 50 74 93 86 48 13 102 -1 133 -35 29 -32 30 -62 4
-96 -11 -14 -20 -28 -20 -31 0 -14 31 -4 60 20 39 34 60 74 60 118 0 29 -8 43
-47 81 -27 25 -64 50 -83 55 -41 12 -124 12 -162 0z"/>
<path d="M3485 3620 c-61 -11 -90 -26 -111 -57 -24 -38 -12 -49 57 -57 34 -3
74 -13 87 -22 23 -15 24 -20 17 -80 -4 -39 -3 -64 3 -64 20 0 53 37 80 89 25
50 31 56 75 67 26 7 54 18 62 24 24 20 19 67 -9 85 -28 19 -189 28 -261 15z"/>
</g>
</svg>
