<?xml version="1.0" encoding="utf-8"?>
<!-- Generator: Adobe Illustrator 23.0.2, SVG Export Plug-In . SVG Version: 6.00 Build 0)  -->
<svg version="1.1"
	 id="Layer_1" xmlns:cc="http://creativecommons.org/ns#" xmlns:dc="http://purl.org/dc/elements/1.1/" xmlns:inkscape="http://www.inkscape.org/namespaces/inkscape" xmlns:rdf="http://www.w3.org/1999/02/22-rdf-syntax-ns#" xmlns:sodipodi="http://sodipodi.sourceforge.net/DTD/sodipodi-0.dtd" xmlns:svg="http://www.w3.org/2000/svg"
	 xmlns="http://www.w3.org/2000/svg" xmlns:xlink="http://www.w3.org/1999/xlink" x="0px" y="0px" viewBox="0 0 600 600"
	 style="enable-background:new 0 0 600 600;" xml:space="preserve">
<style type="text/css">
	.st0{fill:#1F417D;}
	.st1{fill:#20427D;}
	.st2{fill:#97BDE4;}
	.st3{fill:#21427D;}
	.st4{fill:#20417D;}
	.st5{fill:#22437E;}
	.st6{fill:#22447E;}
	.st7{fill:#23457F;}
	.st8{fill:#254680;}
	.st9{fill:#264781;}
</style>
<sodipodi:namedview  bordercolor="#666666" borderopacity="1" gridtolerance="10" guidetolerance="10" id="namedview97" inkscape:current-layer="Layer_1" inkscape:cx="261.16094" inkscape:cy="209.96668" inkscape:pageopacity="0" inkscape:pageshadow="2" inkscape:window-height="1719" inkscape:window-maximized="1" inkscape:window-width="2736" inkscape:window-x="-13" inkscape:window-y="-13" inkscape:zoom="2.2250293" objecttolerance="10" pagecolor="#ffffff" showgrid="false">
	</sodipodi:namedview>
<g id="g94" transform="matrix(0.84595949,0,0,0.84595949,-5.4321399,2.0434489)">
	<path id="path4" inkscape:connector-curvature="0" class="st0" d="M144.5,369.6c1.5,0.3,3.1,0.2,4.6-0.2c3.3-0.7,6.5-1.5,9.8-2.2
		c2.2-0.5,3.9-1.7,5.2-3.6c0.3-0.4,0.6-0.9,0.9-1.3c1-1.1,1.8-1,2.4,0.4c0.1,0.3,0.3,0.7,0.4,1c0.8,3.5,3.4,4.5,6.5,4.9
		c0.9,0.1,1.7,0,2.3-0.6c2.2-2.8,4.8-5.4,5.9-8.9c1.2-3.8,0.7-7.5-0.9-11.1c0.2-1.7,0.6-3.4,1.2-5c1.7-5,1.2-9.8-1-14.5
		c-0.5-1.4-1.4-2.2-2.9-2.4c-1.2-0.2-1.8-0.6-1.2-2c0.9-2.3,0.1-4.5-1.7-5.5c-1.9-1.1-4.9-0.7-6.4,1c-0.3,0.3-0.5,0.6-0.3,1.1
		c0.8,1.7,1.5,3.4,2.7,4.8c1,1.2,2.3,1.4,3.8,1.4c-1.6,1.7-5.2,1.6-6.1-0.2c-1.3-2.2-2.5-4.5-3.6-6.8c-1.4-3,1.3-6.7,5-7.3
		c4.5-0.7,8.6,2.7,8.8,7.3c0,0.9-0.4,2.2,0.9,2.3c1.3,0.2,1.2-1.2,1.6-2.1c0.9-2.7,0-4.8-1.7-6.8c-0.9-1.1-2.4-2.1-2.6-3.3
		c-0.2-1.1,1.2-2.3,1.7-3.6c1.9-4.5,2.1-8.9-0.3-13.3c-1.6-2.8-2.8-3.6-6-3c-4,0.7-7.4,2.6-10.9,4.5c-0.8,0.4-0.8,1-0.3,1.7
		c0.2,0.4,0.7,0.8,0.3,1.2s-0.9,0.1-1.3-0.1c-11.4-4.6-23.4-5.1-35.4-4.9c-2.6,0.1-4.3-0.3-5.8-2.5c-1.5-2.3-3.5-4.3-5.5-6.2
		c-1.7-1.6-3.7-2-5.6-0.7c-3.7,2.5-7.2,5.3-7.7,10.2c-0.4,4.5-0.2,9,1,13.4c0.1,0.2,0.2,0.5,0.2,0.7c0.1,0.6,0.4,1.3-0.3,1.7
		c-0.7,0.4-1.1-0.3-1.4-0.8c-0.6-1-1.3-1.3-2.2-0.3c-6.1,7.8-11.6,15.9-14.9,25.4c-1.3,3.6-0.7,7.2,0,10.8
		c1.2,5.5,0.6,10.7-2.2,15.6c-1.4,2.5-2.4,5.2-2.8,8.4c-2-3.4-3.6-6.7-5-10.1c-4.3-10.4-6.1-21.3-6.1-32.6c0-16.9,0-33.8,0-50.7
		c0-1.2,0.2-1.7,1.5-2.2c18.1-6.3,36.8-9.8,56-11.1c16.2-1.1,32.3-0.7,48.4,1.4c14.4,1.8,28.5,5.1,42.1,9.9c0.7,0.2,1.1,0.5,1.1,1.4
		c-0.1,18.6,0.2,37.3-0.2,55.9c-0.3,16.9-6.1,32.2-15.8,46c-8.5,12.2-19.3,22.2-31,31.2c-0.7,0.5-1.3,0.4-2,0.2
		c-3.3-1.1-5-3.6-6.2-6.6c-0.7-1.6-1.1-3.2-1.3-4.9c0.1-0.6,0.2-1.3-0.5-1.6c-0.7-0.4-1.2,0.1-1.6,0.5c-0.5,0.4-1,0.8-1.4,1.2
		c-3.1,3.2-6.2,6.3-9.2,9.5c-1.5,1.6-2.8,3.4-3.6,5.5c-1.9,4.6-1.8,9.5-1.7,14.3c-2-0.8-3.7-2.1-5.6-3.2
		c-10.4-6.4-20.5-13.3-29.7-21.3c-1.7-1.5-3.3-3.1-4.9-4.6c-4.6-4.5-6.8-9.9-6.5-16.3c0-0.1,0-0.2,0-0.4c0-0.3,0-0.6,0-0.8
		c0.2-2.4,0-4.8,0.6-7.2c0.8-3.6,3.1-6.4,5.3-9.2c2.2-2.8,3.9-5.8,4.3-9.3c0.2-2.1,0.5-4.2,0.7-6.2c0.1-0.6,0-1.2,0.7-1.3
		c0.8-0.1,1,0.6,1.2,1.1c0.5,1.2,1.1,2.3,1.5,3.5c0.8,2.5,2.6,4,5,4.8c3.9,1.3,7.7,2.6,11.6,3.8c2.2,0.7,3,0.2,3.6-2
		c0.4-1.7,0.6-3.5,1-5.3c0.1-0.6,0.2-1.5,1.1-1.4s0.8,0.9,0.9,1.6c0.1,2.1,0,4.2,0.4,6.3c0.9,4.8,4.1,8.2,7.9,10.9
		C141.9,369.3,143.2,369.6,144.5,369.6L144.5,369.6z M157.8,379.1c1.2,0,2.5,0,3.7,0c3.1-0.1,6.1-0.8,8.4-3.2c0.9-0.9,2-1.9,1.6-3.3
		c-0.4-1.4-1.9-1.8-3.2-2.1c-3.2-0.8-6.4-0.4-9.6,0c-3.7,0.5-7.3,1.1-10.7,2.7c-0.9,0.4-1.8,0.9-1.8,2.1s0.8,2,1.8,2.5
		c0.7,0.3,1.4,0.6,2.2,0.8C152.7,379.1,155.3,379.2,157.8,379.1z"/>
	<path id="path6" inkscape:connector-curvature="0" class="st1" d="M432,313.9c0-1.7,0-3.5,0-5.2c0-0.9,0.2-1.3,1.2-1.3
		c2.2,0.1,4.4,0,6.6,0c0.8,0,1.1,0.2,1.1,1c-0.1,1.4,0,2.9,0,4.3c0,0.6,0.1,1.1,0.8,1.2c3.4,0.7,6.7,1.4,10.2,1
		c3.9-0.4,5.9-2.8,5.6-6.5c-0.2-2-1.4-3.4-3-4.4c-2.4-1.4-5.2-2-7.8-2.7c-2.1-0.6-4.1-1.2-6.1-2.1c-6.5-2.9-8.5-7.7-8.1-14
		c0.5-7.4,4.8-11.7,13.1-12.9c6.6-1,13.1-0.3,19.5,1.7c1,0.3,1.4,0.7,1.4,1.8c-0.1,3.1-0.1,6.2,0,9.2c0,0.9-0.3,1.3-1.2,1.2
		c-2.2-0.1-4.3-0.1-6.5,0c-1,0-1.2-0.3-1.2-1.2c0.1-1.3,0-2.6,0-3.9c0-0.5,0-0.9-0.6-1c-3-0.9-6.1-1.5-9.2-0.5
		c-2.7,0.8-4.5,2.8-4.5,5.2c-0.1,2.5,1.3,4.6,4,5.6c2.9,1,5.8,1.6,8.7,2.5c3.4,1,6.6,2.3,9.1,5c6.6,7.1,3.5,19.9-5.7,23.4
		c-3.7,1.4-7.6,1.8-11.5,1.7c-4.9-0.1-9.7-0.9-14.4-2.3c-0.9-0.3-1.3-0.7-1.2-1.7C432.1,317.4,432,315.7,432,313.9L432,313.9z"/>
	<path id="path8" inkscape:connector-curvature="0" class="st2" d="M144.5,369.6c-1.3,0.1-2.6-0.3-3.6-1c-3.8-2.7-7-6.1-7.9-10.9
		c-0.4-2-0.3-4.2-0.4-6.3c0-0.6,0-1.5-0.9-1.6s-0.9,0.8-1.1,1.4c-0.3,1.8-0.5,3.5-1,5.3c-0.5,2.2-1.4,2.7-3.6,2
		c-3.9-1.2-7.8-2.5-11.6-3.8c-2.4-0.8-4.2-2.3-5-4.8c-0.4-1.2-1-2.4-1.5-3.5c-0.2-0.5-0.4-1.3-1.2-1.1c-0.7,0.1-0.7,0.8-0.7,1.3
		c-0.2,2.1-0.5,4.2-0.7,6.2c-0.4,3.6-2.1,6.6-4.3,9.3c-2.2,2.8-4.4,5.6-5.3,9.2c-0.5,2.4-0.4,4.8-0.6,7.2c-1-0.9-0.9-2.2-1-3.4
		c-0.6-4.2-1-8.4-1.5-12.7c-0.5-4.5,1-7.9,3.8-11.1c1.5-1.7,2.7-3.6,4.1-5.4c1.5-2,2-4.3,2.1-6.8c0.2-4.6-0.2-9.2-0.6-13.8
		c-0.1-1.1-0.1-2.2,0-3.2c0.1-0.9,0.4-1.8,1.5-2s1.9,0.3,2.3,1.3c0.8,2.3,1.6,4.6,2.4,7c1.6,4.5,5,6.5,9.5,7.2
		c6.3,0.9,12.6,1.8,18.8,2.8c2.1,0.3,3.7,1.4,4.6,3.4c1.5,3.4,2.6,6.9,3.6,10.5c0.6,1.9-0.1,3.9-0.8,5.7c-1,2.5-1.3,5-1.2,7.7
		C142.7,367.3,143.2,368.6,144.5,369.6L144.5,369.6z"/>
	<path id="path10" inkscape:connector-curvature="0" class="st1" d="M254.9,297.6c0-5.3,0-10.7,0-16c0-1-0.1-1.5-1.3-1.4
		s-2.7,0.5-3.4-0.2c-0.8-0.8-0.2-2.3-0.2-3.6c0-3.4,0-3.4,3.3-3.3c7.1,0,14.2-0.1,21.3,0.1c4.9,0.1,9.5,1.5,12.8,5.4
		c7.5,8.8,2.7,21.7-8.8,24.2c-3.9,0.8-7.9,0.6-11.8,0.6c-1.3,0-1.7,0.3-1.6,1.6c0.1,3,0.1,6.1,0,9.1c0,0.9,0.3,1.3,1.1,1.1
		c0.1,0,0.1,0,0.2,0c3.5,0.1,3.5,0.1,3.5,3.6c0,3.6,0,3.6-3.6,3.6c-5,0-10.1,0-15.1,0c-1.1,0-1.5-0.3-1.4-1.4c0.1-1.5,0.1-3.1,0-4.6
		c-0.1-1.1,0.4-1.3,1.3-1.3c0.8,0.1,1.5-0.1,2.3,0c1.1,0.1,1.3-0.4,1.3-1.4C254.9,308.4,254.9,303,254.9,297.6L254.9,297.6z
		 M265.2,288.1c0,2.3,0,4.6,0,6.9c0,0.7,0.1,1.1,1,1.1c2.1-0.1,4.1,0.1,6.2,0c4.7-0.3,7.6-3.1,7.8-7.5c0.2-4.6-2.3-7.8-7-8.3
		c-2.4-0.3-4.8-0.1-7.2-0.2c-0.8,0-0.7,0.5-0.7,1C265.2,283.5,265.2,285.8,265.2,288.1z"/>
	<path id="path12" inkscape:connector-curvature="0" class="st3" d="M347.4,290.4c5.3-7.4,16-6.9,20.9-2.6c3,2.7,4.6,6.1,4.7,10
		c0.2,5.2,0.1,10.5,0.1,15.7c0,1.2,0.2,1.7,1.6,1.7c2.7-0.1,2.7,0,2.7,2.7c0,1.4,0.5,3.3-0.2,4.2c-0.8,1-2.8,0.3-4.3,0.3
		c-4.1,0-8.2,0-12.3,0c-1,0-1.4-0.2-1.3-1.3c0.1-1.6,0.1-3.2,0-4.8c-0.1-1,0.3-1.2,1.2-1.2c2.8,0,2.8-0.1,2.8-2.8
		c0-3.8,0-7.6,0-11.4c0-7-5.6-8.7-10.2-7.4c-2.6,0.7-4.4,3-4.6,5.9c-0.3,4.9-0.1,9.9-0.2,14.8c0,0.8,0.3,0.9,1,1c1,0,2.3-0.5,3,0.2
		s0.2,2.1,0.2,3.1c0,1.2,0.5,2.8-0.2,3.6c-0.8,0.8-2.4,0.3-3.7,0.3c-4.3,0-8.6,0-12.9,0c-0.9,0-1.3-0.2-1.3-1.2
		c0.1-1.6,0.1-3.3,0-4.9c0-0.9,0.3-1.1,1.2-1.1c2.9-0.1,2.9-0.1,2.9-2.9c0-6.1,0-12.1,0-18.2c0-1.1-0.3-1.4-1.4-1.4
		c-3.4,0-3.4,0-3.4-3.4c0-3.8,0-3.8,3.8-3.8c2.9,0,5.8,0,8.6,0c0.9,0,1.2,0.2,1.2,1.1C347.1,287.7,347.3,288.9,347.4,290.4
		L347.4,290.4z"/>
	<path id="path14" inkscape:connector-curvature="0" class="st3" d="M395.5,290.4c3.9-5,8.8-6.3,14.4-5.5c6.5,1,11,6.2,11.2,12.9
		c0.2,5.2,0.1,10.5,0.1,15.7c0,1.2,0.3,1.7,1.6,1.7c2.7-0.1,2.7,0,2.7,2.7c0,1.4,0.5,3.3-0.3,4.2c-0.8,0.9-2.8,0.3-4.3,0.3
		c-4.1,0-8.2,0-12.3,0c-1,0-1.4-0.2-1.3-1.3c0.1-1.6,0.1-3.2,0-4.8c-0.1-1,0.4-1.2,1.3-1.2c2.8,0,2.8-0.1,2.8-2.8
		c0-3.8,0-7.5,0-11.3c0-6-4.2-9.2-10-7.6c-2.9,0.8-4.5,2.7-4.8,5.6c-0.5,5.1-0.1,10.3-0.2,15.4c0,0.8,0.5,0.7,1,0.8
		c1,0.1,2.3-0.5,3,0.2s0.2,2.1,0.2,3.1c0,3.8,0,3.8-3.8,3.8c-4.3,0-8.6,0-12.9,0c-1.1,0-1.5-0.3-1.4-1.4c0.1-1.5,0.1-3.1,0-4.6
		c0-0.9,0.2-1.3,1.2-1.3c2.8,0,2.8-0.1,2.8-2.9c0-6.1,0-12.1,0-18.2c0-1.1-0.3-1.4-1.4-1.4c-3.4,0-3.4,0-3.4-3.4
		c0-1.2-0.6-2.8,0.3-3.5c0.8-0.7,2.3-0.2,3.6-0.2c2.8,0,5.7,0,8.5,0c1,0,1.3,0.3,1.3,1.3C395.2,287.8,395.3,288.9,395.5,290.4
		L395.5,290.4z"/>
	<path id="path16" inkscape:connector-curvature="0" class="st1" d="M525,317.4c-5.1,5.7-12.1,7.4-18.3,4.4
		c-3.5-1.7-5.4-4.4-5.8-8.3c-0.4-4.2,1-7.6,4.6-9.9c3-1.9,6.4-2.6,9.9-2.9c2.5-0.2,5-0.2,7.5-0.2c0.8,0,1.3-0.2,1.2-1.1
		c-0.1-0.9-0.1-1.7-0.2-2.6c-0.4-2.7-1.9-4.3-4.8-4.9c-2.6-0.5-5.2-0.2-7.7,0.6c-0.6,0.2-0.9,0.5-0.8,1.1c0,0.1,0,0.2,0,0.3
		c-0.1,1.2,0.5,2.8-0.2,3.6c-0.8,0.9-2.4,0.2-3.7,0.3c-1,0.1-2.1,0-3.1,0c-0.8,0-1.1-0.3-1-1.1c0-2.5,0-5,0-7.6
		c0-0.6,0.2-0.9,0.7-1.2c6.9-3.4,14-4.6,21.5-2.2c5.8,1.9,8.6,6.3,8.7,13.2c0,4.8,0,9.7,0,14.5c0,1.2,0.3,1.6,1.5,1.5
		c2.3-0.1,2.3,0,2.3,2.3c0,1.3,0,2.6,0,3.9c0,0.8-0.3,1-1.1,1c-3.3,0-6.6,0-9.9,0c-0.9,0-1.1-0.3-1.1-1.2
		C525.3,320,525.1,318.9,525,317.4z M516.1,316c4.4,0,8.3-4.3,7.9-8.6c0-0.4-0.1-0.7-0.6-0.7c-3.4,0.1-6.9-0.2-10.1,1.1
		c-2.8,1.2-3.5,4.5-1.4,6.7C513.1,315.7,514.5,316,516.1,316z"/>
	<path id="path18" inkscape:connector-curvature="0" class="st1" d="M316.4,306.1c-3.9,0-7.7,0-11.6,0c-1.2,0-1.4,0.4-1.2,1.4
		c0.6,4,3.9,7,8.5,7.8c4.5,0.7,8.8,0.1,13-1.5c1.4-0.5,1.6-0.2,1.6,1.1c-0.1,1.6,0,3.3,0,4.9c0,0.6,0,1.1-0.7,1.3
		c-7.5,2.4-15,3.1-22.4,0.2c-6.7-2.6-9.9-8.1-10.5-15c-0.5-4.7,0.2-9.2,2.6-13.4c3.8-6.4,9.8-8.7,17-8.4c10.7,0.5,15.4,8,16.4,17.2
		c0.2,1.3,0.9,3,0.1,3.9s-2.6,0.3-4,0.3C322.1,306.2,319.2,306.1,316.4,306.1L316.4,306.1z M310.9,299.3c2.2,0,4.3,0,6.5,0
		c0.9,0,1.1-0.3,1-1.1c-0.4-4.2-3.3-6.9-7.4-6.8c-4,0-7.1,2.9-7.4,7c-0.1,0.7,0.1,1,0.9,1C306.6,299.3,308.7,299.3,310.9,299.3
		L310.9,299.3z"/>
	<path id="path20" inkscape:connector-curvature="0" class="st1" d="M589.6,306.1c-3.9,0-7.7,0-11.6,0c-1,0-1.2,0.3-1.1,1.2
		c0.5,4,3.8,7.2,8.4,8c4.4,0.7,8.6,0.1,12.7-1.3c1.8-0.6,1.8-0.7,1.8,1.3c0,1.5,0,3.1,0,4.6c0,0.6,0,1.1-0.7,1.3
		c-7.5,2.4-15.1,3.1-22.6,0.2c-6.3-2.5-9.4-7.6-10.2-14.1c-0.7-5.3,0-10.4,3-14.9c3.9-6,9.8-8,16.6-7.7c9.8,0.4,14.7,7,16.1,15.5
		c0.3,1.6,0.3,3.2,0.5,4.7c0.1,0.9-0.2,1.2-1.2,1.2C597.4,306.1,593.5,306.1,589.6,306.1L589.6,306.1z M584.2,299.3
		c2.2,0,4.4,0,6.6,0c0.6,0,1.2,0,1-0.9c-0.3-1.7-0.6-3.3-1.8-4.7c-2-2.2-5.5-3-8.5-1.9c-2.6,0.9-4.5,3.8-4.6,6.7
		c-0.1,0.9,0.5,0.7,1,0.7C580,299.3,582.1,299.3,584.2,299.3L584.2,299.3z"/>
	<path id="path22" inkscape:connector-curvature="0" class="st1" d="M477.2,303.5c0-3.2,0-6.4,0-9.6c0-1-0.2-1.5-1.3-1.3
		c0,0-0.1,0-0.2,0c-1.2-0.1-2.8,0.5-3.4-0.3c-0.6-0.7-0.2-2.3-0.2-3.4c0-3.5,0-3.5,3.5-3.5c1.2,0,1.6-0.3,1.5-1.5
		c-0.1-1.7,0-3.5,0-5.2c0-0.9,0.3-1.1,1.2-1.1c2.6,0,5.1,0,7.7,0c0.8,0,1.1,0.2,1,1c-0.1,1.7,0.1,3.5,0,5.2
		c-0.1,1.3,0.4,1.6,1.6,1.6c2.3-0.1,4.6,0,6.9-0.1c1.1,0,1.4,0.3,1.3,1.4c-0.1,1.5-0.1,3,0,4.5c0.1,1-0.2,1.4-1.3,1.4
		c-2.5-0.1-4.9,0-7.4,0c-0.6,0-1.2-0.1-1.2,0.8c0.1,5.8-0.3,11.6,0.2,17.4c0.3,3.3,1.9,4.7,5.2,4.7c1.3,0,2.6-0.2,3.8-0.4
		c0.9-0.2,1.1,0.1,1,0.9c0,1.7,0,3.4,0,5.1c0,0.4,0.1,0.8-0.5,0.9c-4.6,1-9.2,1.9-13.7-0.1c-4.1-1.8-5.8-5.1-5.9-9.4
		C477.2,309.6,477.2,306.5,477.2,303.5L477.2,303.5z"/>
	<path id="path24" inkscape:connector-curvature="0" class="st4" d="M543.8,303.6c0-3.2,0-6.4,0-9.5c0-1-0.2-1.5-1.3-1.4
		c-1.2,0.1-2.7,0.5-3.4-0.2c-0.7-0.7-0.2-2.2-0.2-3.4c0-3.5,0-3.6,3.6-3.5c1,0,1.4-0.2,1.4-1.3c-0.1-1.8,0-3.7,0-5.5
		c0-0.7,0.2-1,0.9-1c2.7,0,5.3,0,8,0c0.9,0,1,0.3,1,1.1c0,1.8,0,3.7,0,5.5c0,0.9,0.3,1.2,1.2,1.2c2.5-0.1,5,0,7.5,0
		c0.9,0,1.2,0.2,1.2,1.1c-0.1,1.7-0.1,3.4,0,5.1c0,0.8-0.3,1.1-1.1,1c-2.6,0-5.1,0-7.7,0c-0.6,0-1.1-0.1-1.1,0.8
		c0.1,5.8-0.3,11.7,0.2,17.5c0.3,3.1,1.8,4.4,4.9,4.6c1.3,0.1,2.7-0.1,4-0.4c1-0.2,1.1,0.1,1.1,1c0,1.6,0,3.3,0,4.9
		c0,0.5,0,0.9-0.7,1.1c-3.9,0.9-7.8,1.5-11.7,0.5c-4.6-1.2-7.5-4.6-7.6-9.4C543.8,310.1,543.8,306.8,543.8,303.6L543.8,303.6
		L543.8,303.6z"/>
	<path id="path26" inkscape:connector-curvature="0" class="st5" d="M397.4,422.3c4.7-6.7,13.3-5.8,17.1-2.1c2,1.9,3.2,4.2,3.9,6.9
		c0.9,3.9,0.7,7.7-0.6,11.5c-3.4,9.5-15.9,11.3-21,3.2c-0.4,1.1-0.3,2.3-0.3,3.3c0,0.8-0.2,1.2-1.1,1.2c-3.3,0.1-3.3,0.1-3.3-3.1
		c0-12.3,0.1-24.6,0-36.8c0-1.4,0.4-1.7,1.7-1.6c3.4,0.1,3.4,0,3.4,3.4c0,4.6,0,9.1,0,13.7C397.2,421.9,397.3,422,397.4,422.3
		L397.4,422.3z M397.3,432.3c0,1.1-0.1,2.2,0,3.2c0.3,3.5,2.7,6.3,6.1,7.1c3.5,0.8,7-0.6,8.7-3.7c2.3-4.3,2.4-8.8,0.2-13.2
		c-1.5-3-4-4.4-7.4-4.2c-3.3,0.2-6.1,2.5-7.1,5.5C397.1,428.7,397.2,430.5,397.3,432.3L397.3,432.3z"/>
	<path id="path28" inkscape:connector-curvature="0" class="st5" d="M485.4,406.2c2.8,0,5.2,0.4,7.5,1.3c1,0.4,1.4,0.8,0.9,1.9
		c-0.4,0.9-0.5,2.1-1.1,2.6c-0.6,0.4-1.6-0.5-2.5-0.8c-2.7-0.8-5.3-1.1-8-0.3c-2.3,0.7-3.8,2.2-4.2,4.6c-0.4,2.4,0.5,4.3,2.5,5.8
		c1.8,1.3,3.8,2.1,5.8,2.9s3.9,1.7,5.5,3c6.1,4.8,5.2,14.4-1.7,17.9c-5.7,2.8-11.5,2.2-17.3-0.2c-0.6-0.3-0.9-0.6-0.6-1.3
		c0.4-1,0.4-2.5,1.1-3.1s1.8,0.7,2.8,1c2.9,1,5.9,1.6,8.9,0.9c2.7-0.6,4.7-2,5.4-4.8c0.7-3-0.3-5.4-2.8-7.2c-1.5-1-3.1-1.7-4.8-2.4
		c-1.7-0.6-3.3-1.4-4.8-2.3c-3.8-2.4-5.7-5.8-5-10.4c0.7-4.4,3.6-6.9,7.6-8.3C482.2,406.4,483.9,406.1,485.4,406.2L485.4,406.2z"/>
	<path id="path30" inkscape:connector-curvature="0" class="st5" d="M329.8,426.9c0-7.8,2.8-14.2,9.8-18.1c6-3.3,12.4-3.3,18.8-1.4
		c0.9,0.3,1.2,0.7,0.9,1.7c-0.4,0.9-0.3,2.2-1,2.7c-0.7,0.5-1.7-0.4-2.7-0.6c-6.5-1.4-12.6-1-17.1,4.5c-3.8,4.6-4.1,10.2-2.9,15.8
		c1.3,6,5.1,9.6,11.1,10.8c3.5,0.7,7.1,0.4,10.5-0.9c1.2-0.4,1.5-0.2,1.7,0.9c0.7,2.9,0.8,3-2.1,3.6c-4.6,1.1-9.1,1.3-13.7,0.1
		c-7.6-2-12.7-8.4-13.2-16.7C329.8,428.5,329.8,427.7,329.8,426.9L329.8,426.9z"/>
	<path id="path32" inkscape:connector-curvature="0" class="st6" d="M293.9,431.9c0,7.1-3.7,12.6-9.9,14.4
		c-9.6,2.8-17.9-3.9-17.7-14.2c0.1-7,3.3-12,9.1-14c8.6-2.9,17.7,1.7,18.4,12.2C293.8,430.8,293.9,431.3,293.9,431.9L293.9,431.9z
		 M271.5,432.9c-0.1,1.8,0.5,4.2,2,6.4c3.1,4.6,9.1,4.9,12.6,0.6c3.4-4.1,3.4-12-0.1-16.1c-3-3.5-8.4-3.7-11.6-0.4
		C272.2,425.9,271.5,428.9,271.5,432.9z"/>
	<path id="path34" inkscape:connector-curvature="0" class="st7" d="M435.2,417.3c8,0,12.5,4.6,13,11.8c0.2,3.9,0.2,3.9-3.6,3.9
		c-5,0-10.1,0-15.1,0c-1,0-1.3,0.1-1.2,1.3c0.7,5.6,4.6,8.9,10.2,8.6c2.2-0.1,4.3-0.4,6.3-1.2c0.2-0.1,0.5-0.3,0.6-0.2
		c0.9,0.7,0.6,1.8,1,2.7c0.2,0.5,0.2,0.8-0.4,1.1c-5.3,1.8-10.6,2.4-15.9-0.1c-4.7-2.3-7.4-7.9-6.8-13.9c0.2-2.4,0.7-4.7,1.8-6.8
		C427.5,419.8,431.3,417.4,435.2,417.3L435.2,417.3z M435.7,429.4c2.2,0,4.4,0,6.6,0c0.4,0,0.9,0.1,0.9-0.6c0.3-2.9-1.9-6.5-4.7-7.4
		c-4.8-1.5-9.9,2.1-10.2,7.2c0,0.8,0.3,0.8,0.9,0.8C431.4,429.4,433.6,429.4,435.7,429.4L435.7,429.4z"/>
	<path id="path36" inkscape:connector-curvature="0" class="st7" d="M650.6,441.4c0.1,0.1,0.1,0.1,0.1,0.2c1,4.1,1.6,3.4-2.5,4.5
		c-3.2,0.9-6.4,1-9.6,0.3c-5.3-1.1-8.7-4.4-9.8-9.6c-1.3-5.8-0.5-11.3,3.7-15.8c3.5-3.7,8.1-4.5,12.9-3.1c4.7,1.4,6.7,5.1,7.5,9.6
		c0.3,1.3,0.3,2.5,0.3,3.8c0,1.2-0.3,1.8-1.7,1.7c-5.6-0.1-11.3,0-16.9-0.1c-1.3,0-1.4,0.4-1.3,1.5c0.7,5.5,4.7,8.6,10.5,8.3
		C646.1,442.7,648.4,442.3,650.6,441.4z M640.6,429.4c2.3,0,4.5,0,6.8,0c0.4,0,0.9,0.1,0.9-0.6c0.3-3.2-2.1-6.7-5.2-7.5
		c-4.7-1.2-10,2.9-9.8,7.6c0,0.7,0.5,0.5,0.8,0.5C636.3,429.4,638.4,429.4,640.6,429.4z"/>
	<path id="path38" inkscape:connector-curvature="0" class="st7" d="M555.5,433.1c-2.9,0-5.8,0.1-8.6,0c-1.1,0-1.3,0.4-1.1,1.3
		c0.7,5.7,4.6,8.9,10.5,8.5c2.1-0.1,4.2-0.4,6.2-1.2c0.6-0.3,0.9-0.2,1,0.5c0,0.1,0,0.1,0,0.1c0.8,2.8,0.7,2.9-2.1,3.7
		c-3.2,0.8-6.4,1.1-9.6,0.6c-5.5-0.9-9.3-4.4-10.5-9.9c-1.3-5.8-0.4-11.3,3.8-15.8c3.5-3.6,7.9-4.4,12.6-3.1
		c4.6,1.3,6.6,4.9,7.6,9.2c0.3,1.5,0.3,3.1,0.3,4.6c0,1-0.3,1.4-1.4,1.4C561.3,433,558.4,433.1,555.5,433.1L555.5,433.1z
		 M553.2,429.3c2.2,0,4.3,0,6.5,0c0.5,0,1,0.2,1.1-0.7c0.3-3.1-2.1-6.6-5.1-7.5c-4.6-1.3-9.5,2.5-9.8,7.4c-0.1,0.9,0.5,0.7,0.9,0.7
		C548.9,429.4,551.1,429.3,553.2,429.3z"/>
	<path id="path40" inkscape:connector-curvature="0" class="st6" d="M434.7,374.6c-2.9,0-5.7,0-8.6,0c-1.1,0-1.3,0.3-1.1,1.3
		c0.8,5.5,4.1,8.4,9.6,8.5c2.3,0,4.6-0.2,6.8-1.1c0.9-0.4,1.1,0,1.3,0.8c0.7,2.7,0.7,2.7-2,3.4c-3.2,0.9-6.5,1.2-9.7,0.6
		c-5.5-0.9-9.2-4.4-10.5-9.9c-1-4.2-0.6-8.3,1.3-12.1c2.6-5.5,8.1-8.1,14.2-7c4.9,0.9,8.5,5.4,8.9,11.3c0.3,4.1,0.3,4.1-3.8,4.1
		C438.9,374.6,436.8,374.6,434.7,374.6L434.7,374.6z M431.8,370.9c2.2,0,4.3,0,6.5,0c0.4,0,1,0.3,1.1-0.7c0.2-3.1-1.9-6.5-4.8-7.3
		c-5-1.4-9,1.7-10.1,7.2c-0.2,0.8,0.4,0.8,0.9,0.8C427.5,370.9,429.7,370.9,431.8,370.9z"/>
	<path id="path42" inkscape:connector-curvature="0" class="st8" d="M576.8,422.5c2.4-3.5,5.5-5.3,9.5-5.2c5.1,0.1,8.9,3.6,9.6,9
		c0.6,4.3,0.2,8.7,0.3,13.1c0,2,0,3.9,0,5.9c0,0.7-0.2,1.1-0.9,1c-0.1,0-0.1,0-0.2,0c-4.1,0.2-4.1,0.2-4.1-3.9c0-4.4,0-8.8-0.1-13.2
		c0-0.6-0.1-1.1-0.2-1.7c-0.8-4.1-3-6-6.7-5.8c-3.5,0.2-6.6,3.1-6.8,6.7c-0.2,2.6-0.1,5.1-0.1,7.7c0,3,0,6.1,0,9.1
		c0,0.9-0.2,1.1-1.1,1.1c-4,0.1-4,0.1-4.1-3.9c-0.1-7.7,0.2-15.5-0.2-23.2c-0.1-1,0.2-1.3,1.2-1.3c3.2,0,3.1,0,3.5,3.1
		C576.6,421.4,576.7,421.8,576.8,422.5L576.8,422.5z"/>
	<path id="path44" inkscape:connector-curvature="0" class="st7" d="M269.1,364.2c1.8-2.8,4-4.5,7-5.1c6.8-1.3,12.1,3,12.4,10.1
		c0.2,5.8,0.1,11.7,0.1,17.6c0,0.7-0.2,1-0.9,1c-4.2,0.2-4.2,0.2-4.2-4c0-4.7,0.1-9.3-0.1-14c-0.2-4.2-2.7-6.7-6.4-6.7
		c-3.8,0-7.1,3.1-7.2,7c-0.1,5.4-0.1,10.8,0,16.2c0,1.3-0.4,1.5-1.5,1.5c-3.7-0.1-3.7,0-3.7-3.8c-0.1-7.9,0.2-15.7-0.2-23.6
		c0-0.8,0.2-1,1-1.1c3.6-0.1,3.6-0.1,3.8,3.5C269,363.2,269.1,363.6,269.1,364.2L269.1,364.2z"/>
	<path id="path46" inkscape:connector-curvature="0" class="st8" d="M390.4,383.5c-2.5,3.5-5.7,5.2-9.9,4.9
		c-3.5-0.2-6.1-1.9-7.6-5.1c-0.9-1.9-1.3-3.9-1.3-6c0-5.5,0-11.1,0-16.6c0-1,0.3-1.3,1.3-1.3c3.8,0,3.8,0,3.8,3.8
		c0,4.6,0.1,9.1,0.1,13.7c0,0.5,0.1,1,0.2,1.5c0.8,4,2.8,5.8,6.4,5.6c3.5-0.1,6.5-2.9,6.7-6.4c0.2-2.6,0.1-5.2,0.1-7.9
		c0-3.1,0-6.2,0-9.2c0-0.8,0.2-1.2,1.1-1.2c4.1-0.1,4-0.1,4.1,3.9c0.1,7.8-0.2,15.6,0.2,23.4c0,0.7-0.1,1.1-1,1.1
		c-3.5,0.1-3.5,0.1-3.8-3.2C390.7,384.2,390.8,383.9,390.4,383.5L390.4,383.5z"/>
	<path id="path48" inkscape:connector-curvature="0" class="st6" d="M374.6,440c2.3-6.9,4.7-13.8,6.9-20.7c0.3-1,0.8-1.4,1.8-1.3
		c1.3,0.1,2.5,0,4.1,0c-1.1,3-2.2,5.8-3.3,8.6c-3,7.6-5.5,15.4-9.2,22.6c-2.1,4-4.7,7.4-9.1,9.2c-2.1,0.9-2.1,0.9-2.7-1.4v-0.1
		c-0.9-1.6-0.3-2.3,1.3-3.1c3.3-1.5,5.5-4.2,7-7.5c0.5-1.1,0.1-2-0.3-2.9c-3.2-8-6.4-16.1-9.7-24.1c-0.5-1.2-0.3-1.4,1-1.4
		c4.1,0,4.1,0,5.5,3.8c2.2,5.9,4.6,11.8,6.4,17.8C374.3,439.7,374.2,439.9,374.6,440L374.6,440z"/>
	<path id="path50" inkscape:connector-curvature="0" class="st2" d="M141.8,425.1c-0.1-4.8-0.1-9.7,1.7-14.3
		c0.8-2.1,2.1-3.9,3.6-5.5c3-3.2,6.1-6.3,9.2-9.5c0.4-0.4,0.9-0.8,1.4-1.2c0.5-0.4,1-0.8,1.6-0.5c0.7,0.4,0.6,1,0.5,1.6
		c-1.4,5.7-2.1,11.5-0.7,17.3c0.2,0.8,0,1.3-0.6,1.7c-5.2,3.5-10.4,6.7-15.7,10C142.5,425,142.2,425,141.8,425.1z"/>
	<path id="path52" inkscape:connector-curvature="0" class="st8" d="M252.5,434c0-3.5,0-7.1,0-10.6c0-1.1-0.2-1.6-1.5-1.6
		c-2.5,0.1-3-0.8-2.5-3.3c0.2-0.7,0.6-0.6,1-0.6c0.9-0.1,2,0.4,2.7-0.2c0.6-0.6,0.2-1.8,0.3-2.7c0.3-3.5,1.1-6.8,4.2-9.1
		c2.9-2.1,6.1-2.3,9.5-1.3c0.7,0.2,0.8,0.5,0.7,1.1c0,0.3-0.1,0.5-0.1,0.8c-0.4,2.1-0.4,2.1-2.5,1.9c-3.9-0.4-5.9,1.3-6.5,5.6
		c-0.6,4-0.6,4,3.4,4c0.2,0,0.3,0,0.5,0c3,0,2.9,0,2.8,3c0,0.9-0.4,1-1.1,1c-1.5,0-3,0.1-4.5,0c-1.1-0.1-1.3,0.3-1.3,1.3
		c0,7.1,0,14.3,0.1,21.4c0,1.3-0.3,1.8-1.7,1.7c-3.5-0.1-3.5,0-3.5-3.5C252.5,439.9,252.5,437,252.5,434L252.5,434z"/>
	<path id="path54" inkscape:connector-curvature="0" class="st8" d="M321.2,373c0-3.2,0-5.9,0-8.5c0-0.8-0.2-1.1-1-1
		c-0.5,0.1-1-0.1-1.5,0c-1.5,0.3-1.9-0.4-1.8-1.8c0.1-2.1,0-2.1,2.3-2.1c2.1,0,2.1,0,2.1-2.1c0-0.3,0-0.6,0-0.9c0-4,0.3-4.3,4.4-4.9
		c0.8-0.1,0.7,0.3,0.7,0.8c0,1.9,0.1,3.8,0,5.7c-0.1,1.1,0.2,1.6,1.4,1.5c1.6-0.1,3.3,0,4.9,0c0.7,0,0.9,0.2,1,1c0.2,3,0.2,3-2.7,3
		c-1.2,0-2.4,0-3.5,0c-0.8,0-1,0.3-1,1.1c0,5-0.1,10.1,0,15.1c0.1,3.7,1.6,4.9,5.3,4.5c1.4-0.2,1.6,0.2,1.6,1.4
		c0,2.4,0.1,2.5-2.4,2.8c-1,0.1-1.9,0.2-2.9,0.1c-3.5-0.2-5.8-2.4-6.4-5.9C321,379.1,321.3,375.8,321.2,373L321.2,373z"/>
	<path id="path56" inkscape:connector-curvature="0" class="st7" d="M303.4,388.4c-2.9,0-5.3-0.5-7.5-1.5c-0.6-0.3-1-0.5-0.7-1.3
		c0.4-0.9,0.4-2.2,1-2.7c0.7-0.5,1.6,0.6,2.5,0.9c2,0.6,4,1,6,0.6c2-0.4,3.3-1.5,3.6-3.3c0.3-1.9-0.4-3.3-2-4.3
		c-1-0.7-2.2-1.1-3.3-1.6c-1.4-0.5-2.7-1.1-4-2c-4.8-3.4-4.5-10,0.7-12.8c3.9-2.1,7.9-1.8,11.8-0.1c0.6,0.3,0.8,0.6,0.5,1.2
		c-0.3,0.9-0.4,2-1,2.5c-0.7,0.6-1.5-0.4-2.3-0.7c-1.8-0.5-3.6-0.8-5.4-0.3c-1.5,0.4-2.5,1.4-2.7,3c-0.2,1.7,0.4,2.9,1.9,3.7
		c1.6,1,3.4,1.5,5,2.3c2.5,1.2,4.7,2.6,5.5,5.4c1.5,4.9-1.5,9.5-6.9,10.5C305.1,388.3,304,388.3,303.4,388.4L303.4,388.4z"/>
	<path id="path58" inkscape:connector-curvature="0" class="st7" d="M617.6,417.4c2.2,0,4.2,0.4,6.2,1c0.8,0.3,1.1,0.7,0.8,1.5
		c0,0,0,0.1-0.1,0.1c-0.7,2.6-0.7,2.6-3.2,1.9c-5.5-1.6-10.6,0.6-12.7,5.4c-2.2,5.2-0.6,11.5,3.8,14.1c3.3,1.9,6.7,1.7,10.1,0.4
		c1.1-0.4,1.4-0.2,1.7,0.9c0.5,2.7,0.6,2.7-2.1,3.4c-5.2,1.3-10.4,1.3-14.7-2.4c-5-4.2-5.7-9.9-4.2-15.9c1.5-5.7,5.5-9,11.2-10.1
		C615.4,417.5,616.6,417.3,617.6,417.4z"/>
	<path id="path60" inkscape:connector-curvature="0" class="st7" d="M500.9,432.5c0-12.9,12-17.5,21.4-14c0.7,0.2,1,0.5,0.6,1.2
		c0,0.1-0.1,0.2-0.1,0.3c-0.7,2.6-0.7,2.6-3.2,1.9c-5.1-1.5-10.1,0.4-12.3,4.7c-2.4,4.7-1.3,11.2,2.4,14.1c3.4,2.6,7.3,2.5,11.1,1.1
		c1.2-0.4,1.4-0.2,1.7,1c0.5,2.7,0.6,2.7-2.1,3.4c-3.3,0.9-6.6,1-9.9,0.1C504.5,444.5,500.9,439.4,500.9,432.5L500.9,432.5z"/>
	<path id="path62" inkscape:connector-curvature="0" class="st5" d="M410,351.4c0,2.4,0,4.7,0,6.9c0,0.9,0.2,1.1,1.1,1.1
		c1.6-0.1,3.3,0,4.9,0c0.9,0,1.4,0.2,1.4,1.2c0,2.7,0,2.7-2.7,2.8c-1.5,0-3.5-0.7-4.4,0.3c-0.7,0.8-0.2,2.8-0.2,4.3
		c0,3.5,0,7,0,10.5c0,0.4,0,0.8,0,1.2c0.3,3.4,1.6,4.5,4.9,4.4c0.6,0,1.5-0.7,1.8,0.1c0.3,1,0.4,2.2,0.2,3.3c0,0.3-0.4,0.3-0.6,0.3
		c-2.3,0.6-4.5,0.8-6.8,0c-3.2-1.1-4.3-3.7-4.4-6.7c-0.2-5.3-0.1-10.7-0.1-16c0-1.4-0.4-1.8-1.8-1.7c-2.9,0.1-3.1-0.3-2.7-3.2
		c0.1-0.5,0.2-0.8,0.7-0.7c0.2,0,0.3,0,0.5,0c3.2-0.1,3.2-0.1,3.2-3.3c0-3.5,0-3.5,3.3-4.3C408.8,351.7,409.3,351.6,410,351.4
		L410,351.4z"/>
	<path id="path64" inkscape:connector-curvature="0" class="st3" d="M358.8,351.6c0,2.3,0,4.5,0,6.8c0,0.9,0.2,1.2,1.1,1.2
		c1.6-0.1,3.3,0,4.9,0c1-0.1,1.4,0.2,1.4,1.3c0,2.6,0,2.6-2.7,2.6c-1.3,0-2.6,0-3.9,0c-0.6,0-0.9,0.1-0.9,0.8
		c0.1,5.1,0,10.3,0.2,15.4c0.1,3.8,1.5,4.8,5.2,4.4c1.4-0.2,1.6,0.3,1.7,1.5c0,2.3,0.1,2.3-2.2,2.7c-1.4,0.2-2.9,0.3-4.3,0
		c-3.5-0.8-5.4-3.2-5.5-7.7c-0.1-5.2-0.1-10.5,0-15.7c0-1.2-0.3-1.6-1.4-1.4c-0.3,0.1-0.6,0-0.9,0c-2,0-1.9,0-2.1-2
		c-0.1-1.6,0.4-2.1,2-2c2.4,0.1,2.4,0,2.4-2.4C353.9,352.3,353.9,352.3,358.8,351.6L358.8,351.6z"/>
	<path id="path66" inkscape:connector-curvature="0" class="st5" d="M146.9,325.7c-0.3,0.1-0.7,0.3-1,0.3c-0.3,0.1-0.6,0.2-0.8-0.2
		c-0.1-0.3,0.1-0.5,0.3-0.7c1.3-1.4,2.5-2.8,1.3-4.9c-1.3-2.4-3.5-3.4-6.1-3.4c-2.7,0.1-4.8,1.4-6.3,3.6c-0.7,0.9-0.7,1.7,0,2.7
		c1.1,1.7,2.6,2.6,4.4,3.2c0.4,0.1,1.1,0.1,1,0.7c0,0.7-0.7,0.7-1.2,0.7c-2.6,0.1-5.1-0.3-7-2.1c-0.8-0.7-1.5-1-2.4-0.6
		c-0.3,0.1-0.7,0.1-1.1,0.2c-2.5,0.4-3.4-0.5-2.7-3c1.8-6.5,8.7-11,14.3-11.2c5.1-0.2,8.5,1.9,11.4,5.7c0.1,0.2,0.2,0.4,0.3,0.6
		C151.5,321.1,149.9,323.8,146.9,325.7L146.9,325.7z"/>
	<path id="path68" inkscape:connector-curvature="0" class="st3" d="M109.7,287.2c0.4,0,0.8,0.3,1.1,0.7c0.8,0.7,1.2,1.7,1.6,2.6
		c1.9,3.6,4,7.2,6.2,10.7c1.2,1.9,1.1,2.4-0.8,3.6s-3.6,2.7-5.2,4.3c-1.7,1.9-2.9,1.8-4.3-0.4c-2.8-4.5-3.8-9.5-3.5-14.7
		c0.1-2.3,1.5-4.3,3.2-6C108.4,287.6,108.9,287.3,109.7,287.2L109.7,287.2z"/>
	<path id="path70" inkscape:connector-curvature="0" class="st9" d="M250.1,368.2c0-6.2,0-12.3,0-18.5c0-1.1,0.3-1.4,1.4-1.4
		c3.8,0,3.8,0,3.8,3.7c0,11.4,0,22.9,0,34.3c0,1.1-0.2,1.5-1.4,1.5c-3.7-0.1-3.7,0-3.7-3.8C250.1,378.8,250.1,373.5,250.1,368.2
		L250.1,368.2z"/>
	<path id="path72" inkscape:connector-curvature="0" class="st9" d="M304.9,423.6c0.9-1.8,1.6-3.3,3-4.4c1.6-1.3,3.3-2,5.4-1.9
		c0.4,0,1-0.1,1.1,0.4c0.1,1.4,0.1,2.9,0,4.3c0,0.3-0.4,0.3-0.6,0.2c-5.3-0.8-8.1,4-8.2,8.5c0,4.7-0.1,9.3,0,14
		c0,1.2-0.3,1.5-1.4,1.4c-3.7,0-3.7,0-3.7-3.7c0-7.8-0.1-15.6-0.2-23.4c0-0.9,0.2-1.2,1.1-1.2c3.2,0,3.2-0.1,3.4,3.2
		C304.8,421.9,304.8,422.6,304.9,423.6L304.9,423.6z"/>
	<path id="path74" inkscape:connector-curvature="0" class="st8" d="M459,423.3c1.1-1.5,1.9-3,3.3-4.1c1.5-1.2,3.3-1.9,5.3-1.8
		c0.8,0,1.2,0.3,1,1.1c0,0.1,0,0.2,0,0.3c0,1.1,0.3,2.3-0.1,3.2c-0.5,0.9-1.8,0.2-2.8,0.4c-3,0.5-5.4,3.4-5.7,7.2
		c-0.4,4.8-0.1,9.6-0.1,14.3c0,2.5,0,2.5-2.4,2.5c-2.7,0-2.7,0-2.7-2.8c-0.1-8.2,0.2-16.3-0.2-24.5c0-0.9,0.3-1,1-1
		c3.4-0.1,3.4-0.2,3.6,3.2C459,421.8,459,422.5,459,423.3L459,423.3z"/>
	<path id="path76" inkscape:connector-curvature="0" class="st2" d="M146.9,325.7c3-1.9,4.6-4.6,4.2-8.3c1.1,0.3,1.4,1.3,1.8,2.1
		c3.7,6.9,6.3,14.3,9.2,21.6c0.7,1.9-0.4,3-1.3,4.3c-1.7,0.8-2.8,2.2-3.5,3.9c-1.1-0.7-1.1-1.8-0.9-2.8c0.2-1.2,0.1-2.3-0.3-3.5
		c-1.5-4.6-3.4-9-5.1-13.5c-0.2-0.6-0.5-1.1-0.8-1.7C149.6,326.4,148.6,325.5,146.9,325.7L146.9,325.7z"/>
	<path id="path78" inkscape:connector-curvature="0" class="st6" d="M157.4,349.3c0.7-1.7,1.8-3.1,3.5-3.9
		c5.2-1.5,10.4-1.5,15.7-0.5c1.8,0.4,2.2,1.1,2.3,2.9c0.1,1.7-0.8,2.6-2.3,2.7c-3.3,0.3-5.3,1.9-6.3,5.1c-0.4,1.2-1.3,2.2-2.4,3
		c-0.4,0.3-0.9,0.6-1.4,0.3c-0.6-0.3-0.3-0.9-0.2-1.4c0.2-1,0.6-2.1,0.8-3.1c0.3-1.7-0.3-2.6-1.9-3.2c-1.8-0.7-3.7-0.7-5.6-1
		C158.7,350,157.8,350.2,157.4,349.3z"/>
	<path id="path80" inkscape:connector-curvature="0" class="st6" d="M339.4,373.6c0-4.3,0-8.6,0-12.9c0-0.9,0.2-1.2,1.2-1.2
		c4,0,4-0.1,4,3.9c0,7.7,0,15.4,0,23.1c0,1.1-0.3,1.5-1.4,1.4c-1.2-0.1-2.8,0.4-3.6-0.2c-0.9-0.7-0.3-2.4-0.3-3.7
		C339.3,380.5,339.4,377,339.4,373.6L339.4,373.6z"/>
	<path id="path82" inkscape:connector-curvature="0" class="st9" d="M529.1,432c0-4.2,0-8.4,0-12.6c0-1.1,0.2-1.5,1.4-1.5
		c3.7,0.1,3.7,0,3.7,3.7c0,7.7,0,15.4,0,23.1c0,1.2-0.4,1.5-1.5,1.5c-3.6-0.1-3.6,0-3.6-3.6C529.1,439.1,529.1,435.6,529.1,432z"/>
	<path id="path84" inkscape:connector-curvature="0" class="st2" d="M181.6,328.5c2.2,4.7,2.7,9.5,1,14.5c-0.6,1.6-0.9,3.3-1.2,5
		c-1.9-3-3.7-6.1-5.4-9.3c-0.8-1.6-0.5-2.4,1-3.4c0.1-0.1,0.2-0.2,0.4-0.3C180.4,333.9,182.1,331.9,181.6,328.5L181.6,328.5z"/>
	<path id="path86" inkscape:connector-curvature="0" class="st7" d="M178.2,299c0,3.1-1.1,5.7-2.6,8.1c-0.3,0.6-0.6,0.7-1.2,0.2
		c-1.4-1.4-3.1-2.6-4.7-3.6c-0.8-0.5-0.8-1.2-0.3-1.8c1.7-2.4,3.5-4.8,5.7-6.8c1-0.9,1.7-0.6,2.3,0.5
		C177.9,296.7,178.2,297.9,178.2,299L178.2,299z"/>
	<path id="path88" inkscape:connector-curvature="0" class="st8" d="M345.1,351.7c0,1.7-1.5,3.1-3.2,3.1c-1.8,0-3.2-1.4-3.2-3.2
		c0-1.8,1.5-3.2,3.3-3.1C343.8,348.4,345.2,349.9,345.1,351.7L345.1,351.7z"/>
	<path id="path90" inkscape:connector-curvature="0" class="st8" d="M531.6,406.8c1.9,0,3.2,1.3,3.2,3.2c0,1.8-1.3,3.1-3.1,3.1
		c-1.9,0-3.3-1.3-3.3-3.1C528.4,408.3,529.8,406.9,531.6,406.8L531.6,406.8z"/>
	<path id="path92" inkscape:connector-curvature="0" class="st2" d="M95.1,379.4c0,0.1,0,0.2,0,0.4
		C94.9,379.7,94.9,379.5,95.1,379.4z"/>
</g>
</svg>
