<?xml version="1.0" encoding="UTF-8" standalone="no"?>
<!-- Generator: Adobe Illustrator 21.1.0, SVG Export Plug-In . SVG Version: 6.00 Build 0)  -->

<svg
   xmlns:dc="http://purl.org/dc/elements/1.1/"
   xmlns:cc="http://creativecommons.org/ns#"
   xmlns:rdf="http://www.w3.org/1999/02/22-rdf-syntax-ns#"
   xmlns:svg="http://www.w3.org/2000/svg"
   xmlns="http://www.w3.org/2000/svg"
   xmlns:sodipodi="http://sodipodi.sourceforge.net/DTD/sodipodi-0.dtd"
   xmlns:inkscape="http://www.inkscape.org/namespaces/inkscape"
   version="1.1"
   id="Layer_1"
   x="0px"
   y="0px"
   viewBox="0 0 600 600"
   style="enable-background:new 0 0 600 600;"
   xml:space="preserve"
   sodipodi:docname="ICS-day.svg"
   inkscape:version="0.92.3 (2405546, 2018-03-11)"><metadata
   id="metadata101"><rdf:RDF><cc:Work
       rdf:about=""><dc:format>image/svg+xml</dc:format><dc:type
         rdf:resource="http://purl.org/dc/dcmitype/StillImage" /><dc:title></dc:title></cc:Work></rdf:RDF></metadata><defs
   id="defs99" /><sodipodi:namedview
   pagecolor="#003366"
   bordercolor="#666666"
   borderopacity="1"
   objecttolerance="10"
   gridtolerance="10"
   guidetolerance="10"
   inkscape:pageopacity="0"
   inkscape:pageshadow="2"
   inkscape:window-width="2736"
   inkscape:window-height="1719"
   id="namedview97"
   showgrid="false"
   inkscape:zoom="1.5733333"
   inkscape:cx="218.54656"
   inkscape:cy="460.70387"
   inkscape:window-x="-13"
   inkscape:window-y="-13"
   inkscape:window-maximized="1"
   inkscape:current-layer="Layer_1" />
<style
   type="text/css"
   id="style2">
	.st0{fill:#1F417D;}
	.st1{fill:#20427D;}
	.st2{fill:#97BDE4;}
	.st3{fill:#21427D;}
	.st4{fill:#20417D;}
	.st5{fill:#22437E;}
	.st6{fill:#22447E;}
	.st7{fill:#23457F;}
	.st8{fill:#254680;}
	.st9{fill:#264781;}
</style>
<path
   inkscape:connector-curvature="0"
   style="fill:#ffffff;stroke-width:1.08000004"
   d="m 84.277892,195.22693 c -6.536319,-0.0215 -13.0815,0.19575 -19.6425,0.64125 -20.736,1.404 -40.932,5.18358 -60.4799996,11.98758 -1.404,0.54 -1.62,1.07915 -1.62,2.37515 v 54.75727 c 0,12.204 1.9435777,23.97558 6.5875777,35.20758 1.5119999,3.672 3.2399999,7.23558 5.3999999,10.90758 6.402451,9.08803 14.045833,17.47272 25.164795,30.34756 1.728,1.62 3.456421,3.34969 5.292421,4.96969 9.936,8.64 20.843157,16.09074 32.075157,23.00274 2.052,1.188 3.887577,2.59326 6.047577,3.45726 10.731186,-6.19566 21.74625,-12.9901 29.7,-19.54969 12.63599,-9.72 24.29999,-20.51915 33.47999,-33.69515 10.476,-14.904 16.74084,-31.428 17.06484,-49.68 0.43201,-20.088 0.10713,-40.28442 0.21516,-60.37242 0,-0.972 -0.43157,-1.29643 -1.18758,-1.51243 -14.688,-5.184 -29.91558,-8.74631 -45.46758,-10.69031 -10.86749,-1.4175 -21.736043,-2.11782 -32.629907,-2.15367 z"
   id="path4-7"
   sodipodi:nodetypes="cccsscccccccccccccc" /><g
   id="g94">
	<path
   style="fill:#1f417d"
   d="M 84.1875 201.80664 C 78.135352 201.78672 72.075 201.98789 66 202.40039 C 46.8 203.70039 28.1 207.2 10 213.5 C 8.7 214 8.5 214.49922 8.5 215.69922 L 8.5 266.40039 C 8.5 277.70039 10.299609 288.6 14.599609 299 C 15.999609 302.4 17.599609 305.69961 19.599609 309.09961 C 19.999609 305.89961 21.000391 303.19922 22.400391 300.69922 C 25.200391 295.79922 25.799609 290.59961 24.599609 285.09961 C 23.899609 281.49961 23.299609 277.90078 24.599609 274.30078 C 27.899609 264.80078 33.4 256.70039 39.5 248.90039 C 40.4 247.90039 41.099219 248.19922 41.699219 249.19922 C 41.999219 249.69922 42.399609 250.4 43.099609 250 C 43.799609 249.6 43.500391 248.90078 43.400391 248.30078 C 43.400391 248.10078 43.299219 247.79961 43.199219 247.59961 C 41.999219 243.19961 41.799219 238.69922 42.199219 234.19922 C 42.699219 229.29922 46.200391 226.5 49.900391 224 C 51.800391 222.7 53.8 223.09922 55.5 224.69922 C 57.5 226.59922 59.5 228.60039 61 230.90039 C 62.5 233.10039 64.200781 233.50039 66.800781 233.40039 C 78.800781 233.20039 90.799219 233.70078 102.19922 238.30078 C 102.59922 238.50078 103.1 238.80039 103.5 238.40039 C 103.9 238.00039 103.39922 237.59922 103.19922 237.19922 C 102.69922 236.49922 102.7 235.9 103.5 235.5 C 107 233.6 110.40039 231.7 114.40039 231 C 117.60039 230.4 118.80039 231.2 120.40039 234 C 122.80039 238.4 122.59922 242.80078 120.69922 247.30078 C 120.19922 248.60078 118.8 249.80039 119 250.90039 C 119.2 252.10039 120.69961 253.09922 121.59961 254.19922 C 123.29961 256.19922 124.20078 258.3 123.30078 261 C 122.90078 261.9 122.99922 263.29961 121.69922 263.09961 C 120.39922 262.99961 120.80078 261.70078 120.80078 260.80078 C 120.60078 256.20078 116.5 252.8 112 253.5 C 108.3 254.1 105.6 257.80078 107 260.80078 C 108.1 263.10078 109.29961 265.39961 110.59961 267.59961 C 111.49961 269.39961 115.09922 269.50078 116.69922 267.80078 C 115.19922 267.80078 113.90039 267.60039 112.90039 266.40039 C 111.70039 265.00039 110.99922 263.29961 110.19922 261.59961 C 109.99922 261.09961 110.2 260.8 110.5 260.5 C 112 258.8 115.00039 258.4 116.90039 259.5 C 118.70039 260.5 119.49961 262.7 118.59961 265 C 117.99961 266.4 118.60078 266.8 119.80078 267 C 121.30078 267.2 122.19922 268.00039 122.69922 269.40039 C 124.89922 274.10039 125.39922 278.90039 123.69922 283.90039 C 123.09922 285.50039 122.7 287.20039 122.5 288.90039 C 124.1 292.50039 124.60039 296.2 123.40039 300 C 122.30039 303.5 119.7 306.10039 117.5 308.90039 C 116.9 309.50039 116.09922 309.6 115.19922 309.5 C 112.09922 309.1 109.49922 308.09961 108.69922 304.59961 C 108.59922 304.29961 108.40078 303.89961 108.30078 303.59961 C 107.70078 302.19961 106.90039 302.09922 105.90039 303.19922 C 105.60039 303.59922 105.3 304.1 105 304.5 C 103.7 306.4 102.00078 307.59961 99.800781 308.09961 C 96.500781 308.79961 93.3 309.60078 90 310.30078 C 88.5 310.70078 86.900391 310.8 85.400391 310.5 C 84.100391 310.5 82.799219 310.20078 82.199219 309.80078 C 78.399219 307.10078 75.200781 303.70039 74.300781 298.90039 C 73.900781 296.80039 74.000391 294.69961 73.900391 292.59961 C 73.800391 291.89961 73.478125 290.7582 72.578125 290.6582 C 71.678125 290.5582 71.555078 291.80039 71.455078 292.40039 C 71.055078 294.20039 70.829688 295.99922 70.429688 297.69922 C 70.266658 297.97754 70.016936 299.87336 67.960938 299.66992 C 64.060938 298.46992 59.796484 297.09492 55.896484 295.79492 C 53.496484 294.99492 51.499219 293.59961 50.699219 291.09961 C 50.299219 289.89961 49.699219 288.79961 49.199219 287.59961 C 48.999219 287.09961 48.8 286.04844 48 286.14844 C 47.187642 286.24844 46.88757 286.11933 46.84375 287.80078 C 46.64375 289.80078 46.364063 291.9 46.164062 294 C 45.764062 297.5 43.862109 300.50078 41.662109 303.30078 C 39.462109 306.10078 37.337109 308.9 36.537109 312.5 C 35.937113 314.9 36.178516 317.29922 35.978516 319.69922 L 35.972656 320.5 L 35.976562 320.90039 C 35.676562 327.30039 38.300391 332.69922 42.900391 337.19922 C 44.500391 338.69922 46.100781 340.30078 47.800781 341.80078 C 57.000781 349.80078 67.1 356.69961 77.5 363.09961 C 79.4 364.19961 81.099609 365.50078 83.099609 366.30078 C 82.999609 361.50078 82.900781 356.6 84.800781 352 C 85.600781 349.9 86.900391 348.1 88.400391 346.5 C 91.400391 343.3 94.499609 340.2 97.599609 337 C 97.999609 336.6 98.5 336.20078 99 335.80078 C 99.4 335.40078 99.899609 334.90078 100.59961 335.30078 C 101.29961 335.60078 101.19961 336.30039 101.09961 336.90039 C 101.29961 338.60039 101.70039 340.20078 102.40039 341.80078 C 103.60039 344.80078 105.29961 347.30039 108.59961 348.40039 C 109.29961 348.60039 109.89961 348.69922 110.59961 348.19922 C 122.29961 339.19922 133.09961 329.2 141.59961 317 C 151.29961 303.2 157.10039 287.9 157.40039 271 C 157.80039 252.4 157.49961 233.69961 157.59961 215.09961 C 157.59961 214.19961 157.2 213.89922 156.5 213.69922 C 142.9 208.89922 128.80039 205.60078 114.40039 203.80078 C 104.33789 202.48828 94.274414 201.83984 84.1875 201.80664 z M 50.599609 228.09961 C 49.799609 228.19961 49.300391 228.50039 48.900391 228.90039 C 47.200391 230.60039 45.799219 232.60039 45.699219 234.90039 C 45.399219 240.10039 46.399219 245.09961 49.199219 249.59961 C 50.599219 251.79961 51.8 251.9 53.5 250 C 55.1 248.4 56.799219 246.89922 58.699219 245.69922 C 60.599219 244.49922 60.7 243.99961 59.5 242.09961 C 57.3 238.59961 55.200781 235.00039 53.300781 231.40039 C 52.900781 230.50039 52.499219 229.50078 51.699219 228.80078 C 51.399219 228.40078 50.999609 228.09961 50.599609 228.09961 z M 117.00977 235.47266 C 116.70859 235.49375 116.375 235.6625 116 236 C 113.8 238 112.00078 240.40078 110.30078 242.80078 C 109.80078 243.40078 109.79961 244.09961 110.59961 244.59961 C 112.19961 245.59961 113.90078 246.79922 115.30078 248.19922 C 115.90078 248.69922 116.2 248.6 116.5 248 C 118 245.6 119.09961 243.00039 119.09961 239.90039 C 119.09961 238.80039 118.80078 237.6 118.30078 236.5 C 117.92578 235.8125 117.51172 235.4375 117.00977 235.47266 z M 81.4375 251.88867 C 81.131738 251.88335 80.81875 251.88789 80.5 251.90039 C 74.9 252.10039 67.999219 256.59961 66.199219 263.09961 C 65.499219 265.59961 66.400391 266.49961 68.900391 266.09961 C 69.300391 265.99961 69.7 266.00039 70 265.90039 C 70.9 265.50039 71.600391 265.8 72.400391 266.5 C 74.300391 268.3 76.800391 268.69961 79.400391 268.59961 C 79.900391 268.59961 80.599609 268.60039 80.599609 267.90039 C 80.699609 267.30039 79.999609 267.29922 79.599609 267.19922 C 77.799609 266.59922 76.299219 265.7 75.199219 264 C 74.499219 263 74.499219 262.20078 75.199219 261.30078 C 76.699219 259.10078 78.8 257.79922 81.5 257.69922 C 84.1 257.69922 86.299609 258.69961 87.599609 261.09961 C 88.799609 263.19961 87.600781 264.6 86.300781 266 C 86.100781 266.2 85.9 266.39922 86 266.69922 C 86.2 267.09922 86.500781 267.00039 86.800781 266.90039 C 87.100781 266.90039 87.500781 266.69961 87.800781 266.59961 C 90.800781 264.69961 92.399219 261.99922 92.199219 258.19922 L 91.900391 257.59961 C 89.181641 254.03711 86.023926 251.96851 81.4375 251.88867 z M 105.59961 310.94336 C 106.79961 310.96914 107.99922 311.10039 109.19922 311.40039 C 110.49922 311.70039 112.00039 312.1 112.40039 313.5 C 112.80039 314.9 111.70078 315.90078 110.80078 316.80078 C 108.50078 319.20078 105.50039 319.9 102.40039 320 L 98.699219 320 C 96.199219 320.1 93.599609 320 91.099609 319.5 C 90.299609 319.3 89.600391 318.99922 88.900391 318.69922 C 87.900391 318.19922 87.099609 317.39922 87.099609 316.19922 C 87.099609 314.99922 88.000391 314.49961 88.900391 314.09961 C 92.300391 312.49961 95.899609 311.90039 99.599609 311.40039 C 101.59961 311.15039 103.59961 310.90039 105.59961 310.94336 z "
   id="path4" />
	<path
   class="st1"
   d="M372.9,254.8c0-1.7,0-3.5,0-5.2c0-0.9,0.2-1.3,1.2-1.3c2.2,0.1,4.4,0,6.6,0c0.8,0,1.1,0.2,1.1,1   c-0.1,1.4,0,2.9,0,4.3c0,0.6,0.1,1.1,0.8,1.2c3.4,0.7,6.7,1.4,10.2,1c3.9-0.4,5.9-2.8,5.6-6.5c-0.2-2-1.4-3.4-3-4.4   c-2.4-1.4-5.2-2-7.8-2.7c-2.1-0.6-4.1-1.2-6.1-2.1c-6.5-2.9-8.5-7.7-8.1-14c0.5-7.4,4.8-11.7,13.1-12.9c6.6-1,13.1-0.3,19.5,1.7   c1,0.3,1.4,0.7,1.4,1.8c-0.1,3.1-0.1,6.2,0,9.2c0,0.9-0.3,1.3-1.2,1.2c-2.2-0.1-4.3-0.1-6.5,0c-1,0-1.2-0.3-1.2-1.2   c0.1-1.3,0-2.6,0-3.9c0-0.5,0-0.9-0.6-1c-3-0.9-6.1-1.5-9.2-0.5c-2.7,0.8-4.5,2.8-4.5,5.2c-0.1,2.5,1.3,4.6,4,5.6   c2.9,1,5.8,1.6,8.7,2.5c3.4,1,6.6,2.3,9.1,5c6.6,7.1,3.5,19.9-5.7,23.4c-3.7,1.4-7.6,1.8-11.5,1.7c-4.9-0.1-9.7-0.9-14.4-2.3   c-0.9-0.3-1.3-0.7-1.2-1.7C373,258.3,372.9,256.6,372.9,254.8z"
   id="path6"
   style="fill:#ffffff" />
	<path
   style="fill:#97bde4"
   d="m 92,258.30078 c 0.4,3.7 -1.199219,6.39883 -4.199219,8.29883 1.7,-0.2 2.698828,0.69961 3.298828,2.09961 0.3,0.6 0.600782,1.10117 0.800782,1.70117 1.7,4.5 3.599609,8.9 5.099609,13.5 0.4,1.2 0.500781,2.3 0.300781,3.5 -0.2,1 -0.1,2.09883 1,2.79883 0.7,-1.7 1.799999,-3.09844 3.499999,-3.89844 0.9,-1.3 1.89922,-2.40078 1.19922,-4.30078 -2.9,-7.3 -5.499219,-14.69961 -9.199219,-21.59961 -0.4,-0.8 -0.700781,-1.79961 -1.800781,-2.09961 z m -47.201172,2.65625 c -0.12793,0.004 -0.260937,0.018 -0.398437,0.043 -1.1,0.2 -1.4,1.1 -1.5,2 -0.1,1 -0.1,2.09922 0,3.19922 0.4,4.6 0.799609,9.20078 0.599609,13.80078 -0.1,2.5 -0.599609,4.80078 -2.099609,6.80078 -1.4,1.8 -2.59961,3.69844 -4.09961,5.39844 -2.8,3.2 -4.300781,6.60156 -3.800781,11.10156 0.5,4.3 0.9,8.49922 1.5,12.69922 0.1,1.2 0,2.50039 1,3.40039 0.2,-2.4 0.09961,-4.80117 0.599609,-7.20117 0.9,-3.6 3.100782,-6.39922 5.300782,-9.19922 2.2,-2.7 3.898828,-5.70078 4.298828,-9.30078 0.2,-2 0.501172,-4.09922 0.701172,-6.19922 0,-0.5 -7.82e-4,-1.20078 0.699218,-1.30078 0.8,-0.2 1.001172,0.60156 1.201172,1.10156 0.5,1.1 1.1,2.3 1.5,3.5 0.8,2.5 2.6,3.99883 5,4.79883 3.8,1.3 7.69961,2.60078 11.59961,3.80078 2.2,0.7 3.099609,0.2 3.599609,-2 0.5,-1.8 0.7,-3.50078 1,-5.30078 0.2,-0.6 0.199609,-1.50039 1.099609,-1.40039 0.9,0.1 0.900391,1.00156 0.900391,1.60156 0.1,2.1 3.91e-4,4.29883 0.400391,6.29883 0.9,4.8 4.10039,8.20039 7.90039,10.90039 1,0.7 2.29961,1.1 3.59961,1 -1.3,-1 -1.800782,-2.30039 -1.800782,-3.90039 -0.1,-2.7 0.201172,-5.19922 1.201172,-7.69922 0.7,-1.8 1.398828,-3.80117 0.798828,-5.70117 -1,-3.6 -2.099609,-7.1 -3.599609,-10.5 -0.9,-2 -2.499609,-3.09844 -4.599609,-3.39844 -6.2,-1 -12.500782,-1.90078 -18.800782,-2.80078 -4.5,-0.7 -7.9,-2.69922 -9.5,-7.19922 -0.8,-2.4 -1.60039,-4.7 -2.40039,-7 -0.35,-0.875 -1.004883,-1.36836 -1.900391,-1.34375 z m 77.900392,8.44336 c 0.5,3.4 -1.19922,5.4 -4.19922,6.5 -0.2,0.1 -0.30039,0.19883 -0.40039,0.29883 -1.5,1 -1.8,1.80039 -1,3.40039 1.7,3.2 3.50039,6.30078 5.40039,9.30078 0.3,-1.7 0.59922,-3.4 1.19922,-5 1.7,-5 1.2,-9.8 -1,-14.5 z m -22.931642,65.49414 c -0.417187,0.005 -0.792969,0.30547 -1.167969,0.60547 -0.5,0.4 -1.00039,0.79922 -1.40039,1.19922 -3.1,3.2 -6.199219,6.3 -9.199219,9.5 -1.5,1.6 -2.799609,3.4 -3.599609,5.5 -1.8,4.6 -1.400782,9.80156 -1.300782,14.60156 0.477246,-0.24045 1.015893,-0.46437 1.449318,-0.6801 5.3,-3.3 9.651464,-5.78372 14.851464,-9.28372 0.599999,-0.4 0.799609,-1.63657 0.599609,-2.43657 -1.4,-5.8 -0.700781,-11.60078 0.69922,-17.30078 0.1,-0.6 0.2,-1.19961 -0.5,-1.59961 -0.15,-0.075 -0.292579,-0.10703 -0.431642,-0.10547 z"
   id="path8"
   inkscape:connector-curvature="0"
   sodipodi:nodetypes="ccccccccccccscccccccccccccccccccscccccccccccccccccccccscscccccccc" />
	<path
   class="st1"
   d="M195.8,238.5c0-5.3,0-10.7,0-16c0-1-0.1-1.5-1.3-1.4c-1.2,0.1-2.7,0.5-3.4-0.2c-0.8-0.8-0.2-2.3-0.2-3.6   c0-3.4,0-3.4,3.3-3.3c7.1,0,14.2-0.1,21.3,0.1c4.9,0.1,9.5,1.5,12.8,5.4c7.5,8.8,2.7,21.7-8.8,24.2c-3.9,0.8-7.9,0.6-11.8,0.6   c-1.3,0-1.7,0.3-1.6,1.6c0.1,3,0.1,6.1,0,9.1c0,0.9,0.3,1.3,1.1,1.1c0.1,0,0.1,0,0.2,0c3.5,0.1,3.5,0.1,3.5,3.6   c0,3.6,0,3.6-3.6,3.6c-5,0-10.1,0-15.1,0c-1.1,0-1.5-0.3-1.4-1.4c0.1-1.5,0.1-3.1,0-4.6c-0.1-1.1,0.4-1.3,1.3-1.3   c0.8,0.1,1.5-0.1,2.3,0c1.1,0.1,1.3-0.4,1.3-1.4C195.8,249.3,195.8,243.9,195.8,238.5z M206.1,229c0,2.3,0,4.6,0,6.9   c0,0.7,0.1,1.1,1,1.1c2.1-0.1,4.1,0.1,6.2,0c4.7-0.3,7.6-3.1,7.8-7.5c0.2-4.6-2.3-7.8-7-8.3c-2.4-0.3-4.8-0.1-7.2-0.2   c-0.8,0-0.7,0.5-0.7,1C206.1,224.4,206.1,226.7,206.1,229z"
   id="path10"
   style="fill:#ffffff" />
	<path
   class="st3"
   d="M288.3,231.3c5.3-7.4,16-6.9,20.9-2.6c3,2.7,4.6,6.1,4.7,10c0.2,5.2,0.1,10.5,0.1,15.7c0,1.2,0.2,1.7,1.6,1.7   c2.7-0.1,2.7,0,2.7,2.7c0,1.4,0.5,3.3-0.2,4.2c-0.8,1-2.8,0.3-4.3,0.3c-4.1,0-8.2,0-12.3,0c-1,0-1.4-0.2-1.3-1.3   c0.1-1.6,0.1-3.2,0-4.8c-0.1-1,0.3-1.2,1.2-1.2c2.8,0,2.8-0.1,2.8-2.8c0-3.8,0-7.6,0-11.4c0-7-5.6-8.7-10.2-7.4   c-2.6,0.7-4.4,3-4.6,5.9c-0.3,4.9-0.1,9.9-0.2,14.8c0,0.8,0.3,0.9,1,1c1,0,2.3-0.5,3,0.2c0.7,0.7,0.2,2.1,0.2,3.1   c0,1.2,0.5,2.8-0.2,3.6c-0.8,0.8-2.4,0.3-3.7,0.3c-4.3,0-8.6,0-12.9,0c-0.9,0-1.3-0.2-1.3-1.2c0.1-1.6,0.1-3.3,0-4.9   c0-0.9,0.3-1.1,1.2-1.1c2.9-0.1,2.9-0.1,2.9-2.9c0-6.1,0-12.1,0-18.2c0-1.1-0.3-1.4-1.4-1.4c-3.4,0-3.4,0-3.4-3.4   c0-3.8,0-3.8,3.8-3.8c2.9,0,5.8,0,8.6,0c0.9,0,1.2,0.2,1.2,1.1C288,228.6,288.2,229.8,288.3,231.3z"
   id="path12"
   style="fill:#ffffff" />
	<path
   class="st3"
   d="M336.4,231.3c3.9-5,8.8-6.3,14.4-5.5c6.5,1,11,6.2,11.2,12.9c0.2,5.2,0.1,10.5,0.1,15.7c0,1.2,0.3,1.7,1.6,1.7   c2.7-0.1,2.7,0,2.7,2.7c0,1.4,0.5,3.3-0.3,4.2c-0.8,0.9-2.8,0.3-4.3,0.3c-4.1,0-8.2,0-12.3,0c-1,0-1.4-0.2-1.3-1.3   c0.1-1.6,0.1-3.2,0-4.8c-0.1-1,0.4-1.2,1.3-1.2c2.8,0,2.8-0.1,2.8-2.8c0-3.8,0-7.5,0-11.3c0-6-4.2-9.2-10-7.6   c-2.9,0.8-4.5,2.7-4.8,5.6c-0.5,5.1-0.1,10.3-0.2,15.4c0,0.8,0.5,0.7,1,0.8c1,0.1,2.3-0.5,3,0.2c0.7,0.7,0.2,2.1,0.2,3.1   c0,3.8,0,3.8-3.8,3.8c-4.3,0-8.6,0-12.9,0c-1.1,0-1.5-0.3-1.4-1.4c0.1-1.5,0.1-3.1,0-4.6c0-0.9,0.2-1.3,1.2-1.3   c2.8,0,2.8-0.1,2.8-2.9c0-6.1,0-12.1,0-18.2c0-1.1-0.3-1.4-1.4-1.4c-3.4,0-3.4,0-3.4-3.4c0-1.2-0.6-2.8,0.3-3.5   c0.8-0.7,2.3-0.2,3.6-0.2c2.8,0,5.7,0,8.5,0c1,0,1.3,0.3,1.3,1.3C336.1,228.7,336.2,229.8,336.4,231.3z"
   id="path14"
   style="fill:#ffffff" />
	<path
   class="st1"
   d="M465.9,258.3c-5.1,5.7-12.1,7.4-18.3,4.4c-3.5-1.7-5.4-4.4-5.8-8.3c-0.4-4.2,1-7.6,4.6-9.9   c3-1.9,6.4-2.6,9.9-2.9c2.5-0.2,5-0.2,7.5-0.2c0.8,0,1.3-0.2,1.2-1.1c-0.1-0.9-0.1-1.7-0.2-2.6c-0.4-2.7-1.9-4.3-4.8-4.9   c-2.6-0.5-5.2-0.2-7.7,0.6c-0.6,0.2-0.9,0.5-0.8,1.1c0,0.1,0,0.2,0,0.3c-0.1,1.2,0.5,2.8-0.2,3.6c-0.8,0.9-2.4,0.2-3.7,0.3   c-1,0.1-2.1,0-3.1,0c-0.8,0-1.1-0.3-1-1.1c0-2.5,0-5,0-7.6c0-0.6,0.2-0.9,0.7-1.2c6.9-3.4,14-4.6,21.5-2.2   c5.8,1.9,8.6,6.3,8.7,13.2c0,4.8,0,9.7,0,14.5c0,1.2,0.3,1.6,1.5,1.5c2.3-0.1,2.3,0,2.3,2.3c0,1.3,0,2.6,0,3.9c0,0.8-0.3,1-1.1,1   c-3.3,0-6.6,0-9.9,0c-0.9,0-1.1-0.3-1.1-1.2C466.2,260.9,466,259.8,465.9,258.3z M457,256.9c4.4,0,8.3-4.3,7.9-8.6   c0-0.4-0.1-0.7-0.6-0.7c-3.4,0.1-6.9-0.2-10.1,1.1c-2.8,1.2-3.5,4.5-1.4,6.7C454,256.6,455.4,256.9,457,256.9z"
   id="path16"
   style="fill:#ffffff" />
	<path
   class="st1"
   d="M257.3,247c-3.9,0-7.7,0-11.6,0c-1.2,0-1.4,0.4-1.2,1.4c0.6,4,3.9,7,8.5,7.8c4.5,0.7,8.8,0.1,13-1.5   c1.4-0.5,1.6-0.2,1.6,1.1c-0.1,1.6,0,3.3,0,4.9c0,0.6,0,1.1-0.7,1.3c-7.5,2.4-15,3.1-22.4,0.2c-6.7-2.6-9.9-8.1-10.5-15   c-0.5-4.7,0.2-9.2,2.6-13.4c3.8-6.4,9.8-8.7,17-8.4c10.7,0.5,15.4,8,16.4,17.2c0.2,1.3,0.9,3,0.1,3.9c-0.8,0.9-2.6,0.3-4,0.3   C263,247.1,260.1,247,257.3,247z M251.8,240.2c2.2,0,4.3,0,6.5,0c0.9,0,1.1-0.3,1-1.1c-0.4-4.2-3.3-6.9-7.4-6.8c-4,0-7.1,2.9-7.4,7   c-0.1,0.7,0.1,1,0.9,1C247.5,240.2,249.6,240.2,251.8,240.2z"
   id="path18"
   style="fill:#ffffff" />
	<path
   class="st1"
   d="M530.5,247c-3.9,0-7.7,0-11.6,0c-1,0-1.2,0.3-1.1,1.2c0.5,4,3.8,7.2,8.4,8c4.4,0.7,8.6,0.1,12.7-1.3   c1.8-0.6,1.8-0.7,1.8,1.3c0,1.5,0,3.1,0,4.6c0,0.6,0,1.1-0.7,1.3c-7.5,2.4-15.1,3.1-22.6,0.2c-6.3-2.5-9.4-7.6-10.2-14.1   c-0.7-5.3,0-10.4,3-14.9c3.9-6,9.8-8,16.6-7.7c9.8,0.4,14.7,7,16.1,15.5c0.3,1.6,0.3,3.2,0.5,4.7c0.1,0.9-0.2,1.2-1.2,1.2   C538.3,247,534.4,247,530.5,247z M525.1,240.2c2.2,0,4.4,0,6.6,0c0.6,0,1.2,0,1-0.9c-0.3-1.7-0.6-3.3-1.8-4.7c-2-2.2-5.5-3-8.5-1.9   c-2.6,0.9-4.5,3.8-4.6,6.7c-0.1,0.9,0.5,0.7,1,0.7C520.9,240.2,523,240.2,525.1,240.2z"
   id="path20"
   style="fill:#ffffff" />
	<path
   class="st1"
   d="M418.1,244.4c0-3.2,0-6.4,0-9.6c0-1-0.2-1.5-1.3-1.3c0,0-0.1,0-0.2,0c-1.2-0.1-2.8,0.5-3.4-0.3   c-0.6-0.7-0.2-2.3-0.2-3.4c0-3.5,0-3.5,3.5-3.5c1.2,0,1.6-0.3,1.5-1.5c-0.1-1.7,0-3.5,0-5.2c0-0.9,0.3-1.1,1.2-1.1   c2.6,0,5.1,0,7.7,0c0.8,0,1.1,0.2,1,1c-0.1,1.7,0.1,3.5,0,5.2c-0.1,1.3,0.4,1.6,1.6,1.6c2.3-0.1,4.6,0,6.9-0.1   c1.1,0,1.4,0.3,1.3,1.4c-0.1,1.5-0.1,3,0,4.5c0.1,1-0.2,1.4-1.3,1.4c-2.5-0.1-4.9,0-7.4,0c-0.6,0-1.2-0.1-1.2,0.8   c0.1,5.8-0.3,11.6,0.2,17.4c0.3,3.3,1.9,4.7,5.2,4.7c1.3,0,2.6-0.2,3.8-0.4c0.9-0.2,1.1,0.1,1,0.9c0,1.7,0,3.4,0,5.1   c0,0.4,0.1,0.8-0.5,0.9c-4.6,1-9.2,1.9-13.7-0.1c-4.1-1.8-5.8-5.1-5.9-9.4C418.1,250.5,418.1,247.4,418.1,244.4z"
   id="path22"
   style="fill:#ffffff" />
	<path
   class="st4"
   d="M484.7,244.5c0-3.2,0-6.4,0-9.5c0-1-0.2-1.5-1.3-1.4c-1.2,0.1-2.7,0.5-3.4-0.2c-0.7-0.7-0.2-2.2-0.2-3.4   c0-3.5,0-3.6,3.6-3.5c1,0,1.4-0.2,1.4-1.3c-0.1-1.8,0-3.7,0-5.5c0-0.7,0.2-1,0.9-1c2.7,0,5.3,0,8,0c0.9,0,1,0.3,1,1.1   c0,1.8,0,3.7,0,5.5c0,0.9,0.3,1.2,1.2,1.2c2.5-0.1,5,0,7.5,0c0.9,0,1.2,0.2,1.2,1.1c-0.1,1.7-0.1,3.4,0,5.1c0,0.8-0.3,1.1-1.1,1   c-2.6,0-5.1,0-7.7,0c-0.6,0-1.1-0.1-1.1,0.8c0.1,5.8-0.3,11.7,0.2,17.5c0.3,3.1,1.8,4.4,4.9,4.6c1.3,0.1,2.7-0.1,4-0.4   c1-0.2,1.1,0.1,1.1,1c0,1.6,0,3.3,0,4.9c0,0.5,0,0.9-0.7,1.1c-3.9,0.9-7.8,1.5-11.7,0.5c-4.6-1.2-7.5-4.6-7.6-9.4   C484.7,251,484.7,247.7,484.7,244.5C484.7,244.5,484.7,244.5,484.7,244.5z"
   id="path24"
   style="fill:#ffffff" />
	<path
   class="st5"
   d="M338.3,363.2c4.7-6.7,13.3-5.8,17.1-2.1c2,1.9,3.2,4.2,3.9,6.9c0.9,3.9,0.7,7.7-0.6,11.5   c-3.4,9.5-15.9,11.3-21,3.2c-0.4,1.1-0.3,2.3-0.3,3.3c0,0.8-0.2,1.2-1.1,1.2c-3.3,0.1-3.3,0.1-3.3-3.1c0-12.3,0.1-24.6,0-36.8   c0-1.4,0.4-1.7,1.7-1.6c3.4,0.1,3.4,0,3.4,3.4c0,4.6,0,9.1,0,13.7C338.1,362.8,338.2,362.9,338.3,363.2z M338.2,373.2   c0,1.1-0.1,2.2,0,3.2c0.3,3.5,2.7,6.3,6.1,7.1c3.5,0.8,7-0.6,8.7-3.7c2.3-4.3,2.4-8.8,0.2-13.2c-1.5-3-4-4.4-7.4-4.2   c-3.3,0.2-6.1,2.5-7.1,5.5C338,369.6,338.1,371.4,338.2,373.2z"
   id="path26"
   style="fill:#ffffff" />
	<path
   class="st5"
   d="M426.3,347.1c2.8,0,5.2,0.4,7.5,1.3c1,0.4,1.4,0.8,0.9,1.9c-0.4,0.9-0.5,2.1-1.1,2.6c-0.6,0.4-1.6-0.5-2.5-0.8   c-2.7-0.8-5.3-1.1-8-0.3c-2.3,0.7-3.8,2.2-4.2,4.6c-0.4,2.4,0.5,4.3,2.5,5.8c1.8,1.3,3.8,2.1,5.8,2.9c2,0.8,3.9,1.7,5.5,3   c6.1,4.8,5.2,14.4-1.7,17.9c-5.7,2.8-11.5,2.2-17.3-0.2c-0.6-0.3-0.9-0.6-0.6-1.3c0.4-1,0.4-2.5,1.1-3.1c0.7-0.6,1.8,0.7,2.8,1   c2.9,1,5.9,1.6,8.9,0.9c2.7-0.6,4.7-2,5.4-4.8c0.7-3-0.3-5.4-2.8-7.2c-1.5-1-3.1-1.7-4.8-2.4c-1.7-0.6-3.3-1.4-4.8-2.3   c-3.8-2.4-5.7-5.8-5-10.4c0.7-4.4,3.6-6.9,7.6-8.3C423.1,347.3,424.8,347,426.3,347.1z"
   id="path28"
   style="fill:#ffffff" />
	<path
   class="st5"
   d="M270.7,367.8c0-7.8,2.8-14.2,9.8-18.1c6-3.3,12.4-3.3,18.8-1.4c0.9,0.3,1.2,0.7,0.9,1.7   c-0.4,0.9-0.3,2.2-1,2.7c-0.7,0.5-1.7-0.4-2.7-0.6c-6.5-1.4-12.6-1-17.1,4.5c-3.8,4.6-4.1,10.2-2.9,15.8c1.3,6,5.1,9.6,11.1,10.8   c3.5,0.7,7.1,0.4,10.5-0.9c1.2-0.4,1.5-0.2,1.7,0.9c0.7,2.9,0.8,3-2.1,3.6c-4.6,1.1-9.1,1.3-13.7,0.1c-7.6-2-12.7-8.4-13.2-16.7   C270.7,369.4,270.7,368.6,270.7,367.8z"
   id="path30"
   style="fill:#ffffff" />
	<path
   class="st6"
   d="M234.8,372.8c0,7.1-3.7,12.6-9.9,14.4c-9.6,2.8-17.9-3.9-17.7-14.2c0.1-7,3.3-12,9.1-14   c8.6-2.9,17.7,1.7,18.4,12.2C234.7,371.7,234.8,372.2,234.8,372.8z M212.4,373.8c-0.1,1.8,0.5,4.2,2,6.4c3.1,4.6,9.1,4.9,12.6,0.6   c3.4-4.1,3.4-12-0.1-16.1c-3-3.5-8.4-3.7-11.6-0.4C213.1,366.8,212.4,369.8,212.4,373.8z"
   id="path32"
   style="fill:#ffffff" />
	<path
   class="st7"
   d="M376.1,358.2c8,0,12.5,4.6,13,11.8c0.2,3.9,0.2,3.9-3.6,3.9c-5,0-10.1,0-15.1,0c-1,0-1.3,0.1-1.2,1.3   c0.7,5.6,4.6,8.9,10.2,8.6c2.2-0.1,4.3-0.4,6.3-1.2c0.2-0.1,0.5-0.3,0.6-0.2c0.9,0.7,0.6,1.8,1,2.7c0.2,0.5,0.2,0.8-0.4,1.1   c-5.3,1.8-10.6,2.4-15.9-0.1c-4.7-2.3-7.4-7.9-6.8-13.9c0.2-2.4,0.7-4.7,1.8-6.8C368.4,360.7,372.2,358.3,376.1,358.2z    M376.6,370.3c2.2,0,4.4,0,6.6,0c0.4,0,0.9,0.1,0.9-0.6c0.3-2.9-1.9-6.5-4.7-7.4c-4.8-1.5-9.9,2.1-10.2,7.2c0,0.8,0.3,0.8,0.9,0.8   C372.3,370.3,374.5,370.3,376.6,370.3z"
   id="path34"
   style="fill:#ffffff" />
	<path
   class="st7"
   d="M591.5,382.3c0.1,0.1,0.1,0.1,0.1,0.2c1,4.1,1.6,3.4-2.5,4.5c-3.2,0.9-6.4,1-9.6,0.3c-5.3-1.1-8.7-4.4-9.8-9.6   c-1.3-5.8-0.5-11.3,3.7-15.8c3.5-3.7,8.1-4.5,12.9-3.1c4.7,1.4,6.7,5.1,7.5,9.6c0.3,1.3,0.3,2.5,0.3,3.8c0,1.2-0.3,1.8-1.7,1.7   c-5.6-0.1-11.3,0-16.9-0.1c-1.3,0-1.4,0.4-1.3,1.5c0.7,5.5,4.7,8.6,10.5,8.3C587,383.6,589.3,383.2,591.5,382.3z M581.5,370.3   c2.3,0,4.5,0,6.8,0c0.4,0,0.9,0.1,0.9-0.6c0.3-3.2-2.1-6.7-5.2-7.5c-4.7-1.2-10,2.9-9.8,7.6c0,0.7,0.5,0.5,0.8,0.5   C577.2,370.3,579.3,370.3,581.5,370.3z"
   id="path36"
   style="fill:#ffffff" />
	<path
   class="st7"
   d="M496.4,374c-2.9,0-5.8,0.1-8.6,0c-1.1,0-1.3,0.4-1.1,1.3c0.7,5.7,4.6,8.9,10.5,8.5c2.1-0.1,4.2-0.4,6.2-1.2   c0.6-0.3,0.9-0.2,1,0.5c0,0.1,0,0.1,0,0.1c0.8,2.8,0.7,2.9-2.1,3.7c-3.2,0.8-6.4,1.1-9.6,0.6c-5.5-0.9-9.3-4.4-10.5-9.9   c-1.3-5.8-0.4-11.3,3.8-15.8c3.5-3.6,7.9-4.4,12.6-3.1c4.6,1.3,6.6,4.9,7.6,9.2c0.3,1.5,0.3,3.1,0.3,4.6c0,1-0.3,1.4-1.4,1.4   C502.2,373.9,499.3,374,496.4,374z M494.1,370.2c2.2,0,4.3,0,6.5,0c0.5,0,1,0.2,1.1-0.7c0.3-3.1-2.1-6.6-5.1-7.5   c-4.6-1.3-9.5,2.5-9.8,7.4c-0.1,0.9,0.5,0.7,0.9,0.7C489.8,370.3,492,370.2,494.1,370.2z"
   id="path38"
   style="fill:#ffffff" />
	<path
   class="st6"
   d="M375.6,315.5c-2.9,0-5.7,0-8.6,0c-1.1,0-1.3,0.3-1.1,1.3c0.8,5.5,4.1,8.4,9.6,8.5c2.3,0,4.6-0.2,6.8-1.1   c0.9-0.4,1.1,0,1.3,0.8c0.7,2.7,0.7,2.7-2,3.4c-3.2,0.9-6.5,1.2-9.7,0.6c-5.5-0.9-9.2-4.4-10.5-9.9c-1-4.2-0.6-8.3,1.3-12.1   c2.6-5.5,8.1-8.1,14.2-7c4.9,0.9,8.5,5.4,8.9,11.3c0.3,4.1,0.3,4.1-3.8,4.1C379.8,315.5,377.7,315.5,375.6,315.5z M372.7,311.8   c2.2,0,4.3,0,6.5,0c0.4,0,1,0.3,1.1-0.7c0.2-3.1-1.9-6.5-4.8-7.3c-5-1.4-9,1.7-10.1,7.2c-0.2,0.8,0.4,0.8,0.9,0.8   C368.4,311.8,370.6,311.8,372.7,311.8z"
   id="path40"
   style="fill:#ffffff" />
	<path
   class="st8"
   d="M517.7,363.4c2.4-3.5,5.5-5.3,9.5-5.2c5.1,0.1,8.9,3.6,9.6,9c0.6,4.3,0.2,8.7,0.3,13.1c0,2,0,3.9,0,5.9   c0,0.7-0.2,1.1-0.9,1c-0.1,0-0.1,0-0.2,0c-4.1,0.2-4.1,0.2-4.1-3.9c0-4.4,0-8.8-0.1-13.2c0-0.6-0.1-1.1-0.2-1.7   c-0.8-4.1-3-6-6.7-5.8c-3.5,0.2-6.6,3.1-6.8,6.7c-0.2,2.6-0.1,5.1-0.1,7.7c0,3,0,6.1,0,9.1c0,0.9-0.2,1.1-1.1,1.1   c-4,0.1-4,0.1-4.1-3.9c-0.1-7.7,0.2-15.5-0.2-23.2c-0.1-1,0.2-1.3,1.2-1.3c3.2,0,3.1,0,3.5,3.1   C517.5,362.3,517.6,362.7,517.7,363.4z"
   id="path42"
   style="fill:#ffffff" />
	<path
   class="st7"
   d="M210,305.1c1.8-2.8,4-4.5,7-5.1c6.8-1.3,12.1,3,12.4,10.1c0.2,5.8,0.1,11.7,0.1,17.6c0,0.7-0.2,1-0.9,1   c-4.2,0.2-4.2,0.2-4.2-4c0-4.7,0.1-9.3-0.1-14c-0.2-4.2-2.7-6.7-6.4-6.7c-3.8,0-7.1,3.1-7.2,7c-0.1,5.4-0.1,10.8,0,16.2   c0,1.3-0.4,1.5-1.5,1.5c-3.7-0.1-3.7,0-3.7-3.8c-0.1-7.9,0.2-15.7-0.2-23.6c0-0.8,0.2-1,1-1.1c3.6-0.1,3.6-0.1,3.8,3.5   C209.9,304.1,210,304.5,210,305.1z"
   id="path44"
   style="fill:#ffffff" />
	<path
   class="st8"
   d="M331.3,324.4c-2.5,3.5-5.7,5.2-9.9,4.9c-3.5-0.2-6.1-1.9-7.6-5.1c-0.9-1.9-1.3-3.9-1.3-6c0-5.5,0-11.1,0-16.6   c0-1,0.3-1.3,1.3-1.3c3.8,0,3.8,0,3.8,3.8c0,4.6,0.1,9.1,0.1,13.7c0,0.5,0.1,1,0.2,1.5c0.8,4,2.8,5.8,6.4,5.6   c3.5-0.1,6.5-2.9,6.7-6.4c0.2-2.6,0.1-5.2,0.1-7.9c0-3.1,0-6.2,0-9.2c0-0.8,0.2-1.2,1.1-1.2c4.1-0.1,4-0.1,4.1,3.9   c0.1,7.8-0.2,15.6,0.2,23.4c0,0.7-0.1,1.1-1,1.1c-3.5,0.1-3.5,0.1-3.8-3.2C331.6,325.1,331.7,324.8,331.3,324.4z"
   id="path46"
   style="fill:#ffffff" />
	<path
   class="st6"
   d="M315.5,380.9c2.3-6.9,4.7-13.8,6.9-20.7c0.3-1,0.8-1.4,1.8-1.3c1.3,0.1,2.5,0,4.1,0c-1.1,3-2.2,5.8-3.3,8.6   c-3,7.6-5.5,15.4-9.2,22.6c-2.1,4-4.7,7.4-9.1,9.2c-2.1,0.9-2.1,0.9-2.7-1.4c0,0,0-0.1,0-0.1c-0.9-1.6-0.3-2.3,1.3-3.1   c3.3-1.5,5.5-4.2,7-7.5c0.5-1.1,0.1-2-0.3-2.9c-3.2-8-6.4-16.1-9.7-24.1c-0.5-1.2-0.3-1.4,1-1.4c4.1,0,4.1,0,5.5,3.8   c2.2,5.9,4.6,11.8,6.4,17.8C315.2,380.6,315.1,380.8,315.5,380.9z"
   id="path48"
   style="fill:#ffffff" />

	<path
   class="st8"
   d="M193.4,374.9c0-3.5,0-7.1,0-10.6c0-1.1-0.2-1.6-1.5-1.6c-2.5,0.1-3-0.8-2.5-3.3c0.2-0.7,0.6-0.6,1-0.6   c0.9-0.1,2,0.4,2.7-0.2c0.6-0.6,0.2-1.8,0.3-2.7c0.3-3.5,1.1-6.8,4.2-9.1c2.9-2.1,6.1-2.3,9.5-1.3c0.7,0.2,0.8,0.5,0.7,1.1   c0,0.3-0.1,0.5-0.1,0.8c-0.4,2.1-0.4,2.1-2.5,1.9c-3.9-0.4-5.9,1.3-6.5,5.6c-0.6,4-0.6,4,3.4,4c0.2,0,0.3,0,0.5,0c3,0,2.9,0,2.8,3   c0,0.9-0.4,1-1.1,1c-1.5,0-3,0.1-4.5,0c-1.1-0.1-1.3,0.3-1.3,1.3c0,7.1,0,14.3,0.1,21.4c0,1.3-0.3,1.8-1.7,1.7   c-3.5-0.1-3.5,0-3.5-3.5C193.4,380.8,193.4,377.9,193.4,374.9z"
   id="path52"
   style="fill:#ffffff" />
	<path
   class="st8"
   d="M262.1,313.9c0-3.2,0-5.9,0-8.5c0-0.8-0.2-1.1-1-1c-0.5,0.1-1-0.1-1.5,0c-1.5,0.3-1.9-0.4-1.8-1.8   c0.1-2.1,0-2.1,2.3-2.1c2.1,0,2.1,0,2.1-2.1c0-0.3,0-0.6,0-0.9c0-4,0.3-4.3,4.4-4.9c0.8-0.1,0.7,0.3,0.7,0.8c0,1.9,0.1,3.8,0,5.7   c-0.1,1.1,0.2,1.6,1.4,1.5c1.6-0.1,3.3,0,4.9,0c0.7,0,0.9,0.2,1,1c0.2,3,0.2,3-2.7,3c-1.2,0-2.4,0-3.5,0c-0.8,0-1,0.3-1,1.1   c0,5-0.1,10.1,0,15.1c0.1,3.7,1.6,4.9,5.3,4.5c1.4-0.2,1.6,0.2,1.6,1.4c0,2.4,0.1,2.5-2.4,2.8c-1,0.1-1.9,0.2-2.9,0.1   c-3.5-0.2-5.8-2.4-6.4-5.9C261.9,320,262.2,316.7,262.1,313.9z"
   id="path54"
   style="fill:#ffffff" />
	<path
   class="st7"
   d="M244.3,329.3c-2.9,0-5.3-0.5-7.5-1.5c-0.6-0.3-1-0.5-0.7-1.3c0.4-0.9,0.4-2.2,1-2.7c0.7-0.5,1.6,0.6,2.5,0.9   c2,0.6,4,1,6,0.6c2-0.4,3.3-1.5,3.6-3.3c0.3-1.9-0.4-3.3-2-4.3c-1-0.7-2.2-1.1-3.3-1.6c-1.4-0.5-2.7-1.1-4-2   c-4.8-3.4-4.5-10,0.7-12.8c3.9-2.1,7.9-1.8,11.8-0.1c0.6,0.3,0.8,0.6,0.5,1.2c-0.3,0.9-0.4,2-1,2.5c-0.7,0.6-1.5-0.4-2.3-0.7   c-1.8-0.5-3.6-0.8-5.4-0.3c-1.5,0.4-2.5,1.4-2.7,3c-0.2,1.7,0.4,2.9,1.9,3.7c1.6,1,3.4,1.5,5,2.3c2.5,1.2,4.7,2.6,5.5,5.4   c1.5,4.9-1.5,9.5-6.9,10.5C246,329.2,244.9,329.2,244.3,329.3z"
   id="path56"
   style="fill:#ffffff" />
	<path
   class="st7"
   d="M558.5,358.3c2.2,0,4.2,0.4,6.2,1c0.8,0.3,1.1,0.7,0.8,1.5c0,0,0,0.1-0.1,0.1c-0.7,2.6-0.7,2.6-3.2,1.9   c-5.5-1.6-10.6,0.6-12.7,5.4c-2.2,5.2-0.6,11.5,3.8,14.1c3.3,1.9,6.7,1.7,10.1,0.4c1.1-0.4,1.4-0.2,1.7,0.9   c0.5,2.7,0.6,2.7-2.1,3.4c-5.2,1.3-10.4,1.3-14.7-2.4c-5-4.2-5.7-9.9-4.2-15.9c1.5-5.7,5.5-9,11.2-10.1   C556.3,358.4,557.5,358.2,558.5,358.3z"
   id="path58"
   style="fill:#ffffff" />
	<path
   class="st7"
   d="M441.8,373.4c0-12.9,12-17.5,21.4-14c0.7,0.2,1,0.5,0.6,1.2c0,0.1-0.1,0.2-0.1,0.3c-0.7,2.6-0.7,2.6-3.2,1.9   c-5.1-1.5-10.1,0.4-12.3,4.7c-2.4,4.7-1.3,11.2,2.4,14.1c3.4,2.6,7.3,2.5,11.1,1.1c1.2-0.4,1.4-0.2,1.7,1c0.5,2.7,0.6,2.7-2.1,3.4   c-3.3,0.9-6.6,1-9.9,0.1C445.4,385.4,441.8,380.3,441.8,373.4z"
   id="path60"
   style="fill:#ffffff" />
	<path
   class="st5"
   d="M350.9,292.3c0,2.4,0,4.7,0,6.9c0,0.9,0.2,1.1,1.1,1.1c1.6-0.1,3.3,0,4.9,0c0.9,0,1.4,0.2,1.4,1.2   c0,2.7,0,2.7-2.7,2.8c-1.5,0-3.5-0.7-4.4,0.3c-0.7,0.8-0.2,2.8-0.2,4.3c0,3.5,0,7,0,10.5c0,0.4,0,0.8,0,1.2   c0.3,3.4,1.6,4.5,4.9,4.4c0.6,0,1.5-0.7,1.8,0.1c0.3,1,0.4,2.2,0.2,3.3c0,0.3-0.4,0.3-0.6,0.3c-2.3,0.6-4.5,0.8-6.8,0   c-3.2-1.1-4.3-3.7-4.4-6.7c-0.2-5.3-0.1-10.7-0.1-16c0-1.4-0.4-1.8-1.8-1.7c-2.9,0.1-3.1-0.3-2.7-3.2c0.1-0.5,0.2-0.8,0.7-0.7   c0.2,0,0.3,0,0.5,0c3.2-0.1,3.2-0.1,3.2-3.3c0-3.5,0-3.5,3.3-4.3C349.7,292.6,350.2,292.5,350.9,292.3z"
   id="path62"
   style="fill:#ffffff" />
	<path
   class="st3"
   d="M299.7,292.5c0,2.3,0,4.5,0,6.8c0,0.9,0.2,1.2,1.1,1.2c1.6-0.1,3.3,0,4.9,0c1-0.1,1.4,0.2,1.4,1.3   c0,2.6,0,2.6-2.7,2.6c-1.3,0-2.6,0-3.9,0c-0.6,0-0.9,0.1-0.9,0.8c0.1,5.1,0,10.3,0.2,15.4c0.1,3.8,1.5,4.8,5.2,4.4   c1.4-0.2,1.6,0.3,1.7,1.5c0,2.3,0.1,2.3-2.2,2.7c-1.4,0.2-2.9,0.3-4.3,0c-3.5-0.8-5.4-3.2-5.5-7.7c-0.1-5.2-0.1-10.5,0-15.7   c0-1.2-0.3-1.6-1.4-1.4c-0.3,0.1-0.6,0-0.9,0c-2,0-1.9,0-2.1-2c-0.1-1.6,0.4-2.1,2-2c2.4,0.1,2.4,0,2.4-2.4   C294.8,293.2,294.8,293.2,299.7,292.5z"
   id="path64"
   style="fill:#ffffff" />


	<path
   class="st9"
   d="M191,309.1c0-6.2,0-12.3,0-18.5c0-1.1,0.3-1.4,1.4-1.4c3.8,0,3.8,0,3.8,3.7c0,11.4,0,22.9,0,34.3   c0,1.1-0.2,1.5-1.4,1.5c-3.7-0.1-3.7,0-3.7-3.8C191,319.7,191,314.4,191,309.1z"
   id="path70"
   style="fill:#ffffff" />
	<path
   class="st9"
   d="M245.8,364.5c0.9-1.8,1.6-3.3,3-4.4c1.6-1.3,3.3-2,5.4-1.9c0.4,0,1-0.1,1.1,0.4c0.1,1.4,0.1,2.9,0,4.3   c0,0.3-0.4,0.3-0.6,0.2c-5.3-0.8-8.1,4-8.2,8.5c0,4.7-0.1,9.3,0,14c0,1.2-0.3,1.5-1.4,1.4c-3.7,0-3.7,0-3.7-3.7   c0-7.8-0.1-15.6-0.2-23.4c0-0.9,0.2-1.2,1.1-1.2c3.2,0,3.2-0.1,3.4,3.2C245.7,362.8,245.7,363.5,245.8,364.5z"
   id="path72"
   style="fill:#ffffff" />
	<path
   class="st8"
   d="M399.9,364.2c1.1-1.5,1.9-3,3.3-4.1c1.5-1.2,3.3-1.9,5.3-1.8c0.8,0,1.2,0.3,1,1.1c0,0.1,0,0.2,0,0.3   c0,1.1,0.3,2.3-0.1,3.2c-0.5,0.9-1.8,0.2-2.8,0.4c-3,0.5-5.4,3.4-5.7,7.2c-0.4,4.8-0.1,9.6-0.1,14.3c0,2.5,0,2.5-2.4,2.5   c-2.7,0-2.7,0-2.7-2.8c-0.1-8.2,0.2-16.3-0.2-24.5c0-0.9,0.3-1,1-1c3.4-0.1,3.4-0.2,3.6,3.2C399.9,362.7,399.9,363.4,399.9,364.2z"
   id="path74"
   style="fill:#ffffff" />

	<path
   class="st6"
   d="M98.3,290.2c0.7-1.7,1.8-3.1,3.5-3.9c5.2-1.5,10.4-1.5,15.7-0.5c1.8,0.4,2.2,1.1,2.3,2.9   c0.1,1.7-0.8,2.6-2.3,2.7c-3.3,0.3-5.3,1.9-6.3,5.1c-0.4,1.2-1.3,2.2-2.4,3c-0.4,0.3-0.9,0.6-1.4,0.3c-0.6-0.3-0.3-0.9-0.2-1.4   c0.2-1,0.6-2.1,0.8-3.1c0.3-1.7-0.3-2.6-1.9-3.2c-1.8-0.7-3.7-0.7-5.6-1C99.6,290.9,98.7,291.1,98.3,290.2z"
   id="path78" />
	<path
   class="st6"
   d="M280.3,314.5c0-4.3,0-8.6,0-12.9c0-0.9,0.2-1.2,1.2-1.2c4,0,4-0.1,4,3.9c0,7.7,0,15.4,0,23.1   c0,1.1-0.3,1.5-1.4,1.4c-1.2-0.1-2.8,0.4-3.6-0.2c-0.9-0.7-0.3-2.4-0.3-3.7C280.2,321.4,280.3,317.9,280.3,314.5z"
   id="path80"
   style="fill:#ffffff" />
	<path
   class="st9"
   d="M470,372.9c0-4.2,0-8.4,0-12.6c0-1.1,0.2-1.5,1.4-1.5c3.7,0.1,3.7,0,3.7,3.7c0,7.7,0,15.4,0,23.1   c0,1.2-0.4,1.5-1.5,1.5c-3.6-0.1-3.6,0-3.6-3.6C470,380,470,376.5,470,372.9z"
   id="path82"
   style="fill:#ffffff" />


	<path
   class="st8"
   d="M286,292.6c0,1.7-1.5,3.1-3.2,3.1c-1.8,0-3.2-1.4-3.2-3.2c0-1.8,1.5-3.2,3.3-3.1   C284.7,289.3,286.1,290.8,286,292.6z"
   id="path88"
   style="fill:#ffffff" />
	<path
   class="st8"
   d="M472.5,347.7c1.9,0,3.2,1.3,3.2,3.2c0,1.8-1.3,3.1-3.1,3.1c-1.9,0-3.3-1.3-3.3-3.1   C469.3,349.2,470.7,347.8,472.5,347.7z"
   id="path90"
   style="fill:#ffffff" />

</g>
</svg>
