<?xml version="1.0" encoding="UTF-8" standalone="no"?>
<!-- Generator: Adobe Illustrator 21.1.0, SVG Export Plug-In . SVG Version: 6.00 Build 0)  -->

<svg
   xmlns:dc="http://purl.org/dc/elements/1.1/"
   xmlns:cc="http://creativecommons.org/ns#"
   xmlns:rdf="http://www.w3.org/1999/02/22-rdf-syntax-ns#"
   xmlns:svg="http://www.w3.org/2000/svg"
   xmlns="http://www.w3.org/2000/svg"
   xmlns:sodipodi="http://sodipodi.sourceforge.net/DTD/sodipodi-0.dtd"
   xmlns:inkscape="http://www.inkscape.org/namespaces/inkscape"
   version="1.1"
   id="Layer_1"
   x="0px"
   y="0px"
   viewBox="0 0 500 500"
   xml:space="preserve"
   sodipodi:docname="ICS-day.svg"
   width="500"
   height="500"
   inkscape:version="0.92.3 (2405546, 2018-03-11)"><metadata
   id="metadata101"><rdf:RDF><cc:Work
       rdf:about=""><dc:format>image/svg+xml</dc:format><dc:type
         rdf:resource="http://purl.org/dc/dcmitype/StillImage" /><dc:title></dc:title></cc:Work></rdf:RDF></metadata><defs
   id="defs99" /><sodipodi:namedview
   pagecolor="#ffffff"
   bordercolor="#666666"
   borderopacity="1"
   objecttolerance="10"
   gridtolerance="10"
   guidetolerance="10"
   inkscape:pageopacity="0"
   inkscape:pageshadow="2"
   inkscape:window-width="2736"
   inkscape:window-height="1719"
   id="namedview97"
   showgrid="false"
   inkscape:zoom="2.2250293"
   inkscape:cx="261.16094"
   inkscape:cy="209.96668"
   inkscape:window-x="-13"
   inkscape:window-y="-13"
   inkscape:window-maximized="1"
   inkscape:current-layer="Layer_1" />
<style
   type="text/css"
   id="style2">
	.st0{fill:#1F417D;}
	.st1{fill:#20427D;}
	.st2{fill:#97BDE4;}
	.st3{fill:#21427D;}
	.st4{fill:#20417D;}
	.st5{fill:#22437E;}
	.st6{fill:#22447E;}
	.st7{fill:#23457F;}
	.st8{fill:#254680;}
	.st9{fill:#264781;}
</style>
<g
   id="g94"
   transform="matrix(0.84595949,0,0,0.84595949,-5.4321399,2.0434489)">
	<path
   class="st0"
   d="m 85.4,310.5 c 1.5,0.3 3.1,0.2 4.6,-0.2 3.3,-0.7 6.5,-1.5 9.8,-2.2 2.2,-0.5 3.9,-1.7 5.2,-3.6 0.3,-0.4 0.6,-0.9 0.9,-1.3 1,-1.1 1.8,-1 2.4,0.4 0.1,0.3 0.3,0.7 0.4,1 0.8,3.5 3.4,4.5 6.5,4.9 0.9,0.1 1.7,0 2.3,-0.6 2.2,-2.8 4.8,-5.4 5.9,-8.9 1.2,-3.8 0.7,-7.5 -0.9,-11.1 0.2,-1.7 0.6,-3.4 1.2,-5 1.7,-5 1.2,-9.8 -1,-14.5 -0.5,-1.4 -1.4,-2.2 -2.9,-2.4 -1.2,-0.2 -1.8,-0.6 -1.2,-2 0.9,-2.3 0.1,-4.5 -1.7,-5.5 -1.9,-1.1 -4.9,-0.7 -6.4,1 -0.3,0.3 -0.5,0.6 -0.3,1.1 0.8,1.7 1.5,3.4 2.7,4.8 1,1.2 2.3,1.4 3.8,1.4 -1.6,1.7 -5.2,1.6 -6.1,-0.2 -1.3,-2.2 -2.5,-4.5 -3.6,-6.8 -1.4,-3 1.3,-6.7 5,-7.3 4.5,-0.7 8.6,2.7 8.8,7.3 0,0.9 -0.4,2.2 0.9,2.3 1.3,0.2 1.2,-1.2 1.6,-2.1 0.9,-2.7 0,-4.8 -1.7,-6.8 -0.9,-1.1 -2.4,-2.1 -2.6,-3.3 -0.2,-1.1 1.2,-2.3 1.7,-3.6 1.9,-4.5 2.1,-8.9 -0.3,-13.3 -1.6,-2.8 -2.8,-3.6 -6,-3 -4,0.7 -7.4,2.6 -10.9,4.5 -0.8,0.4 -0.8,1 -0.3,1.7 0.2,0.4 0.7,0.8 0.3,1.2 -0.4,0.4 -0.9,0.1 -1.3,-0.1 -11.4,-4.6 -23.4,-5.1 -35.4,-4.9 -2.6,0.1 -4.3,-0.3 -5.8,-2.5 -1.5,-2.3 -3.5,-4.3 -5.5,-6.2 -1.7,-1.6 -3.7,-2 -5.6,-0.7 -3.7,2.5 -7.2,5.3 -7.7,10.2 -0.4,4.5 -0.2,9 1,13.4 0.1,0.2 0.2,0.5 0.2,0.7 0.1,0.6 0.4,1.3 -0.3,1.7 -0.7,0.4 -1.1,-0.3 -1.4,-0.8 -0.6,-1 -1.3,-1.3 -2.2,-0.3 -6.1,7.8 -11.6,15.9 -14.9,25.4 -1.3,3.6 -0.7,7.2 0,10.8 1.2,5.5 0.6,10.7 -2.2,15.6 -1.4,2.5 -2.4,5.2 -2.8,8.4 -2,-3.4 -3.6,-6.7 -5,-10.1 -4.3,-10.4 -6.1,-21.3 -6.1,-32.6 0,-16.9 0,-33.8 0,-50.7 0,-1.2 0.2,-1.7 1.5,-2.2 18.1,-6.3 36.8,-9.8 56,-11.1 16.2,-1.1 32.3,-0.7 48.4,1.4 14.4,1.8 28.5,5.1 42.1,9.9 0.7,0.2 1.1,0.5 1.1,1.4 -0.1,18.6 0.2,37.3 -0.2,55.9 -0.3,16.9 -6.1,32.2 -15.8,46 -8.5,12.2 -19.3,22.2 -31,31.2 -0.7,0.5 -1.3,0.4 -2,0.2 -3.3,-1.1 -5,-3.6 -6.2,-6.6 -0.7,-1.6 -1.1,-3.2 -1.3,-4.9 0.1,-0.6 0.2,-1.3 -0.5,-1.6 -0.7,-0.4 -1.2,0.1 -1.6,0.5 -0.5,0.4 -1,0.8 -1.4,1.2 -3.1,3.2 -6.2,6.3 -9.2,9.5 -1.5,1.6 -2.8,3.4 -3.6,5.5 -1.9,4.6 -1.8,9.5 -1.7,14.3 -2,-0.8 -3.7,-2.1 -5.6,-3.2 -10.4,-6.4 -20.5,-13.3 -29.7,-21.3 -1.7,-1.5 -3.3,-3.1 -4.9,-4.6 -4.6,-4.5 -6.8,-9.9 -6.5,-16.3 0,-0.1 0,-0.2 0,-0.4 0,-0.3 0,-0.6 0,-0.8 0.2,-2.4 0,-4.8 0.6,-7.2 0.8,-3.6 3.1,-6.4 5.3,-9.2 2.2,-2.8 3.9,-5.8 4.3,-9.3 0.2,-2.1 0.5,-4.2 0.7,-6.2 0.1,-0.6 0,-1.2 0.7,-1.3 0.8,-0.1 1,0.6 1.2,1.1 0.5,1.2 1.1,2.3 1.5,3.5 0.8,2.5 2.6,4 5,4.8 3.9,1.3 7.7,2.6 11.6,3.8 2.2,0.7 3,0.2 3.6,-2 0.4,-1.7 0.6,-3.5 1,-5.3 0.1,-0.6 0.2,-1.5 1.1,-1.4 0.9,0.1 0.8,0.9 0.9,1.6 0.1,2.1 0,4.2 0.4,6.3 0.9,4.8 4.1,8.2 7.9,10.9 0.6,0.4 1.9,0.7 3.2,0.7 z m 13.3,9.5 c 1.2,0 2.5,0 3.7,0 3.1,-0.1 6.1,-0.8 8.4,-3.2 0.9,-0.9 2,-1.9 1.6,-3.3 -0.4,-1.4 -1.9,-1.8 -3.2,-2.1 -3.2,-0.8 -6.4,-0.4 -9.6,0 -3.7,0.5 -7.3,1.1 -10.7,2.7 -0.9,0.4 -1.8,0.9 -1.8,2.1 0,1.2 0.8,2 1.8,2.5 0.7,0.3 1.4,0.6 2.2,0.8 2.5,0.5 5.1,0.6 7.6,0.5 z"
   id="path4"
   inkscape:connector-curvature="0"
   style="fill:#1f417d" />
	<path
   class="st1"
   d="m 372.9,254.8 c 0,-1.7 0,-3.5 0,-5.2 0,-0.9 0.2,-1.3 1.2,-1.3 2.2,0.1 4.4,0 6.6,0 0.8,0 1.1,0.2 1.1,1 -0.1,1.4 0,2.9 0,4.3 0,0.6 0.1,1.1 0.8,1.2 3.4,0.7 6.7,1.4 10.2,1 3.9,-0.4 5.9,-2.8 5.6,-6.5 -0.2,-2 -1.4,-3.4 -3,-4.4 -2.4,-1.4 -5.2,-2 -7.8,-2.7 -2.1,-0.6 -4.1,-1.2 -6.1,-2.1 -6.5,-2.9 -8.5,-7.7 -8.1,-14 0.5,-7.4 4.8,-11.7 13.1,-12.9 6.6,-1 13.1,-0.3 19.5,1.7 1,0.3 1.4,0.7 1.4,1.8 -0.1,3.1 -0.1,6.2 0,9.2 0,0.9 -0.3,1.3 -1.2,1.2 -2.2,-0.1 -4.3,-0.1 -6.5,0 -1,0 -1.2,-0.3 -1.2,-1.2 0.1,-1.3 0,-2.6 0,-3.9 0,-0.5 0,-0.9 -0.6,-1 -3,-0.9 -6.1,-1.5 -9.2,-0.5 -2.7,0.8 -4.5,2.8 -4.5,5.2 -0.1,2.5 1.3,4.6 4,5.6 2.9,1 5.8,1.6 8.7,2.5 3.4,1 6.6,2.3 9.1,5 6.6,7.1 3.5,19.9 -5.7,23.4 -3.7,1.4 -7.6,1.8 -11.5,1.7 -4.9,-0.1 -9.7,-0.9 -14.4,-2.3 -0.9,-0.3 -1.3,-0.7 -1.2,-1.7 -0.2,-1.6 -0.3,-3.3 -0.3,-5.1 z"
   id="path6"
   inkscape:connector-curvature="0"
   style="fill:#20427d" />
	<path
   class="st2"
   d="m 85.4,310.5 c -1.3,0.1 -2.6,-0.3 -3.6,-1 -3.8,-2.7 -7,-6.1 -7.9,-10.9 -0.4,-2 -0.3,-4.2 -0.4,-6.3 0,-0.6 0,-1.5 -0.9,-1.6 -0.9,-0.1 -0.9,0.8 -1.1,1.4 -0.3,1.8 -0.5,3.5 -1,5.3 -0.5,2.2 -1.4,2.7 -3.6,2 -3.9,-1.2 -7.8,-2.5 -11.6,-3.8 -2.4,-0.8 -4.2,-2.3 -5,-4.8 -0.4,-1.2 -1,-2.4 -1.5,-3.5 -0.2,-0.5 -0.4,-1.3 -1.2,-1.1 -0.7,0.1 -0.7,0.8 -0.7,1.3 -0.2,2.1 -0.5,4.2 -0.7,6.2 -0.4,3.6 -2.1,6.6 -4.3,9.3 -2.2,2.8 -4.4,5.6 -5.3,9.2 -0.5,2.4 -0.4,4.8 -0.6,7.2 -1,-0.9 -0.9,-2.2 -1,-3.4 -0.6,-4.2 -1,-8.4 -1.5,-12.7 -0.5,-4.5 1,-7.9 3.8,-11.1 1.5,-1.7 2.7,-3.6 4.1,-5.4 1.5,-2 2,-4.3 2.1,-6.8 0.2,-4.6 -0.2,-9.2 -0.6,-13.8 -0.1,-1.1 -0.1,-2.2 0,-3.2 0.1,-0.9 0.4,-1.8 1.5,-2 1.1,-0.2 1.9,0.3 2.3,1.3 0.8,2.3 1.6,4.6 2.4,7 1.6,4.5 5,6.5 9.5,7.2 6.3,0.9 12.6,1.8 18.8,2.8 2.1,0.3 3.7,1.4 4.6,3.4 1.5,3.4 2.6,6.9 3.6,10.5 0.6,1.9 -0.1,3.9 -0.8,5.7 -1,2.5 -1.3,5 -1.2,7.7 0,1.6 0.5,2.9 1.8,3.9 z"
   id="path8"
   inkscape:connector-curvature="0"
   style="fill:#97bde4" />
	<path
   class="st1"
   d="m 195.8,238.5 c 0,-5.3 0,-10.7 0,-16 0,-1 -0.1,-1.5 -1.3,-1.4 -1.2,0.1 -2.7,0.5 -3.4,-0.2 -0.8,-0.8 -0.2,-2.3 -0.2,-3.6 0,-3.4 0,-3.4 3.3,-3.3 7.1,0 14.2,-0.1 21.3,0.1 4.9,0.1 9.5,1.5 12.8,5.4 7.5,8.8 2.7,21.7 -8.8,24.2 -3.9,0.8 -7.9,0.6 -11.8,0.6 -1.3,0 -1.7,0.3 -1.6,1.6 0.1,3 0.1,6.1 0,9.1 0,0.9 0.3,1.3 1.1,1.1 0.1,0 0.1,0 0.2,0 3.5,0.1 3.5,0.1 3.5,3.6 0,3.6 0,3.6 -3.6,3.6 -5,0 -10.1,0 -15.1,0 -1.1,0 -1.5,-0.3 -1.4,-1.4 0.1,-1.5 0.1,-3.1 0,-4.6 -0.1,-1.1 0.4,-1.3 1.3,-1.3 0.8,0.1 1.5,-0.1 2.3,0 1.1,0.1 1.3,-0.4 1.3,-1.4 0.1,-5.3 0.1,-10.7 0.1,-16.1 z m 10.3,-9.5 c 0,2.3 0,4.6 0,6.9 0,0.7 0.1,1.1 1,1.1 2.1,-0.1 4.1,0.1 6.2,0 4.7,-0.3 7.6,-3.1 7.8,-7.5 0.2,-4.6 -2.3,-7.8 -7,-8.3 -2.4,-0.3 -4.8,-0.1 -7.2,-0.2 -0.8,0 -0.7,0.5 -0.7,1 -0.1,2.4 -0.1,4.7 -0.1,7 z"
   id="path10"
   inkscape:connector-curvature="0"
   style="fill:#20427d" />
	<path
   class="st3"
   d="m 288.3,231.3 c 5.3,-7.4 16,-6.9 20.9,-2.6 3,2.7 4.6,6.1 4.7,10 0.2,5.2 0.1,10.5 0.1,15.7 0,1.2 0.2,1.7 1.6,1.7 2.7,-0.1 2.7,0 2.7,2.7 0,1.4 0.5,3.3 -0.2,4.2 -0.8,1 -2.8,0.3 -4.3,0.3 -4.1,0 -8.2,0 -12.3,0 -1,0 -1.4,-0.2 -1.3,-1.3 0.1,-1.6 0.1,-3.2 0,-4.8 -0.1,-1 0.3,-1.2 1.2,-1.2 2.8,0 2.8,-0.1 2.8,-2.8 0,-3.8 0,-7.6 0,-11.4 0,-7 -5.6,-8.7 -10.2,-7.4 -2.6,0.7 -4.4,3 -4.6,5.9 -0.3,4.9 -0.1,9.9 -0.2,14.8 0,0.8 0.3,0.9 1,1 1,0 2.3,-0.5 3,0.2 0.7,0.7 0.2,2.1 0.2,3.1 0,1.2 0.5,2.8 -0.2,3.6 -0.8,0.8 -2.4,0.3 -3.7,0.3 -4.3,0 -8.6,0 -12.9,0 -0.9,0 -1.3,-0.2 -1.3,-1.2 0.1,-1.6 0.1,-3.3 0,-4.9 0,-0.9 0.3,-1.1 1.2,-1.1 2.9,-0.1 2.9,-0.1 2.9,-2.9 0,-6.1 0,-12.1 0,-18.2 0,-1.1 -0.3,-1.4 -1.4,-1.4 -3.4,0 -3.4,0 -3.4,-3.4 0,-3.8 0,-3.8 3.8,-3.8 2.9,0 5.8,0 8.6,0 0.9,0 1.2,0.2 1.2,1.1 -0.2,1.1 0,2.3 0.1,3.8 z"
   id="path12"
   inkscape:connector-curvature="0"
   style="fill:#21427d" />
	<path
   class="st3"
   d="m 336.4,231.3 c 3.9,-5 8.8,-6.3 14.4,-5.5 6.5,1 11,6.2 11.2,12.9 0.2,5.2 0.1,10.5 0.1,15.7 0,1.2 0.3,1.7 1.6,1.7 2.7,-0.1 2.7,0 2.7,2.7 0,1.4 0.5,3.3 -0.3,4.2 -0.8,0.9 -2.8,0.3 -4.3,0.3 -4.1,0 -8.2,0 -12.3,0 -1,0 -1.4,-0.2 -1.3,-1.3 0.1,-1.6 0.1,-3.2 0,-4.8 -0.1,-1 0.4,-1.2 1.3,-1.2 2.8,0 2.8,-0.1 2.8,-2.8 0,-3.8 0,-7.5 0,-11.3 0,-6 -4.2,-9.2 -10,-7.6 -2.9,0.8 -4.5,2.7 -4.8,5.6 -0.5,5.1 -0.1,10.3 -0.2,15.4 0,0.8 0.5,0.7 1,0.8 1,0.1 2.3,-0.5 3,0.2 0.7,0.7 0.2,2.1 0.2,3.1 0,3.8 0,3.8 -3.8,3.8 -4.3,0 -8.6,0 -12.9,0 -1.1,0 -1.5,-0.3 -1.4,-1.4 0.1,-1.5 0.1,-3.1 0,-4.6 0,-0.9 0.2,-1.3 1.2,-1.3 2.8,0 2.8,-0.1 2.8,-2.9 0,-6.1 0,-12.1 0,-18.2 0,-1.1 -0.3,-1.4 -1.4,-1.4 -3.4,0 -3.4,0 -3.4,-3.4 0,-1.2 -0.6,-2.8 0.3,-3.5 0.8,-0.7 2.3,-0.2 3.6,-0.2 2.8,0 5.7,0 8.5,0 1,0 1.3,0.3 1.3,1.3 -0.2,1.1 -0.1,2.2 0.1,3.7 z"
   id="path14"
   inkscape:connector-curvature="0"
   style="fill:#21427d" />
	<path
   class="st1"
   d="m 465.9,258.3 c -5.1,5.7 -12.1,7.4 -18.3,4.4 -3.5,-1.7 -5.4,-4.4 -5.8,-8.3 -0.4,-4.2 1,-7.6 4.6,-9.9 3,-1.9 6.4,-2.6 9.9,-2.9 2.5,-0.2 5,-0.2 7.5,-0.2 0.8,0 1.3,-0.2 1.2,-1.1 -0.1,-0.9 -0.1,-1.7 -0.2,-2.6 -0.4,-2.7 -1.9,-4.3 -4.8,-4.9 -2.6,-0.5 -5.2,-0.2 -7.7,0.6 -0.6,0.2 -0.9,0.5 -0.8,1.1 0,0.1 0,0.2 0,0.3 -0.1,1.2 0.5,2.8 -0.2,3.6 -0.8,0.9 -2.4,0.2 -3.7,0.3 -1,0.1 -2.1,0 -3.1,0 -0.8,0 -1.1,-0.3 -1,-1.1 0,-2.5 0,-5 0,-7.6 0,-0.6 0.2,-0.9 0.7,-1.2 6.9,-3.4 14,-4.6 21.5,-2.2 5.8,1.9 8.6,6.3 8.7,13.2 0,4.8 0,9.7 0,14.5 0,1.2 0.3,1.6 1.5,1.5 2.3,-0.1 2.3,0 2.3,2.3 0,1.3 0,2.6 0,3.9 0,0.8 -0.3,1 -1.1,1 -3.3,0 -6.6,0 -9.9,0 -0.9,0 -1.1,-0.3 -1.1,-1.2 0.1,-0.9 -0.1,-2 -0.2,-3.5 z m -8.9,-1.4 c 4.4,0 8.3,-4.3 7.9,-8.6 0,-0.4 -0.1,-0.7 -0.6,-0.7 -3.4,0.1 -6.9,-0.2 -10.1,1.1 -2.8,1.2 -3.5,4.5 -1.4,6.7 1.2,1.2 2.6,1.5 4.2,1.5 z"
   id="path16"
   inkscape:connector-curvature="0"
   style="fill:#20427d" />
	<path
   class="st1"
   d="m 257.3,247 c -3.9,0 -7.7,0 -11.6,0 -1.2,0 -1.4,0.4 -1.2,1.4 0.6,4 3.9,7 8.5,7.8 4.5,0.7 8.8,0.1 13,-1.5 1.4,-0.5 1.6,-0.2 1.6,1.1 -0.1,1.6 0,3.3 0,4.9 0,0.6 0,1.1 -0.7,1.3 -7.5,2.4 -15,3.1 -22.4,0.2 -6.7,-2.6 -9.9,-8.1 -10.5,-15 -0.5,-4.7 0.2,-9.2 2.6,-13.4 3.8,-6.4 9.8,-8.7 17,-8.4 10.7,0.5 15.4,8 16.4,17.2 0.2,1.3 0.9,3 0.1,3.9 -0.8,0.9 -2.6,0.3 -4,0.3 -3.1,0.3 -6,0.2 -8.8,0.2 z m -5.5,-6.8 c 2.2,0 4.3,0 6.5,0 0.9,0 1.1,-0.3 1,-1.1 -0.4,-4.2 -3.3,-6.9 -7.4,-6.8 -4,0 -7.1,2.9 -7.4,7 -0.1,0.7 0.1,1 0.9,1 2.1,-0.1 4.2,-0.1 6.4,-0.1 z"
   id="path18"
   inkscape:connector-curvature="0"
   style="fill:#20427d" />
	<path
   class="st1"
   d="m 530.5,247 c -3.9,0 -7.7,0 -11.6,0 -1,0 -1.2,0.3 -1.1,1.2 0.5,4 3.8,7.2 8.4,8 4.4,0.7 8.6,0.1 12.7,-1.3 1.8,-0.6 1.8,-0.7 1.8,1.3 0,1.5 0,3.1 0,4.6 0,0.6 0,1.1 -0.7,1.3 -7.5,2.4 -15.1,3.1 -22.6,0.2 -6.3,-2.5 -9.4,-7.6 -10.2,-14.1 -0.7,-5.3 0,-10.4 3,-14.9 3.9,-6 9.8,-8 16.6,-7.7 9.8,0.4 14.7,7 16.1,15.5 0.3,1.6 0.3,3.2 0.5,4.7 0.1,0.9 -0.2,1.2 -1.2,1.2 -3.9,0 -7.8,0 -11.7,0 z m -5.4,-6.8 c 2.2,0 4.4,0 6.6,0 0.6,0 1.2,0 1,-0.9 -0.3,-1.7 -0.6,-3.3 -1.8,-4.7 -2,-2.2 -5.5,-3 -8.5,-1.9 -2.6,0.9 -4.5,3.8 -4.6,6.7 -0.1,0.9 0.5,0.7 1,0.7 2.1,0.1 4.2,0.1 6.3,0.1 z"
   id="path20"
   inkscape:connector-curvature="0"
   style="fill:#20427d" />
	<path
   class="st1"
   d="m 418.1,244.4 c 0,-3.2 0,-6.4 0,-9.6 0,-1 -0.2,-1.5 -1.3,-1.3 0,0 -0.1,0 -0.2,0 -1.2,-0.1 -2.8,0.5 -3.4,-0.3 -0.6,-0.7 -0.2,-2.3 -0.2,-3.4 0,-3.5 0,-3.5 3.5,-3.5 1.2,0 1.6,-0.3 1.5,-1.5 -0.1,-1.7 0,-3.5 0,-5.2 0,-0.9 0.3,-1.1 1.2,-1.1 2.6,0 5.1,0 7.7,0 0.8,0 1.1,0.2 1,1 -0.1,1.7 0.1,3.5 0,5.2 -0.1,1.3 0.4,1.6 1.6,1.6 2.3,-0.1 4.6,0 6.9,-0.1 1.1,0 1.4,0.3 1.3,1.4 -0.1,1.5 -0.1,3 0,4.5 0.1,1 -0.2,1.4 -1.3,1.4 -2.5,-0.1 -4.9,0 -7.4,0 -0.6,0 -1.2,-0.1 -1.2,0.8 0.1,5.8 -0.3,11.6 0.2,17.4 0.3,3.3 1.9,4.7 5.2,4.7 1.3,0 2.6,-0.2 3.8,-0.4 0.9,-0.2 1.1,0.1 1,0.9 0,1.7 0,3.4 0,5.1 0,0.4 0.1,0.8 -0.5,0.9 -4.6,1 -9.2,1.9 -13.7,-0.1 -4.1,-1.8 -5.8,-5.1 -5.9,-9.4 0.2,-2.9 0.2,-6 0.2,-9 z"
   id="path22"
   inkscape:connector-curvature="0"
   style="fill:#20427d" />
	<path
   class="st4"
   d="m 484.7,244.5 c 0,-3.2 0,-6.4 0,-9.5 0,-1 -0.2,-1.5 -1.3,-1.4 -1.2,0.1 -2.7,0.5 -3.4,-0.2 -0.7,-0.7 -0.2,-2.2 -0.2,-3.4 0,-3.5 0,-3.6 3.6,-3.5 1,0 1.4,-0.2 1.4,-1.3 -0.1,-1.8 0,-3.7 0,-5.5 0,-0.7 0.2,-1 0.9,-1 2.7,0 5.3,0 8,0 0.9,0 1,0.3 1,1.1 0,1.8 0,3.7 0,5.5 0,0.9 0.3,1.2 1.2,1.2 2.5,-0.1 5,0 7.5,0 0.9,0 1.2,0.2 1.2,1.1 -0.1,1.7 -0.1,3.4 0,5.1 0,0.8 -0.3,1.1 -1.1,1 -2.6,0 -5.1,0 -7.7,0 -0.6,0 -1.1,-0.1 -1.1,0.8 0.1,5.8 -0.3,11.7 0.2,17.5 0.3,3.1 1.8,4.4 4.9,4.6 1.3,0.1 2.7,-0.1 4,-0.4 1,-0.2 1.1,0.1 1.1,1 0,1.6 0,3.3 0,4.9 0,0.5 0,0.9 -0.7,1.1 -3.9,0.9 -7.8,1.5 -11.7,0.5 -4.6,-1.2 -7.5,-4.6 -7.6,-9.4 -0.2,-3.3 -0.2,-6.6 -0.2,-9.8 0,0 0,0 0,0 z"
   id="path24"
   inkscape:connector-curvature="0"
   style="fill:#20417d" />
	<path
   class="st5"
   d="m 338.3,363.2 c 4.7,-6.7 13.3,-5.8 17.1,-2.1 2,1.9 3.2,4.2 3.9,6.9 0.9,3.9 0.7,7.7 -0.6,11.5 -3.4,9.5 -15.9,11.3 -21,3.2 -0.4,1.1 -0.3,2.3 -0.3,3.3 0,0.8 -0.2,1.2 -1.1,1.2 -3.3,0.1 -3.3,0.1 -3.3,-3.1 0,-12.3 0.1,-24.6 0,-36.8 0,-1.4 0.4,-1.7 1.7,-1.6 3.4,0.1 3.4,0 3.4,3.4 0,4.6 0,9.1 0,13.7 0,0 0.1,0.1 0.2,0.4 z m -0.1,10 c 0,1.1 -0.1,2.2 0,3.2 0.3,3.5 2.7,6.3 6.1,7.1 3.5,0.8 7,-0.6 8.7,-3.7 2.3,-4.3 2.4,-8.8 0.2,-13.2 -1.5,-3 -4,-4.4 -7.4,-4.2 -3.3,0.2 -6.1,2.5 -7.1,5.5 -0.7,1.7 -0.6,3.5 -0.5,5.3 z"
   id="path26"
   inkscape:connector-curvature="0"
   style="fill:#22437e" />
	<path
   class="st5"
   d="m 426.3,347.1 c 2.8,0 5.2,0.4 7.5,1.3 1,0.4 1.4,0.8 0.9,1.9 -0.4,0.9 -0.5,2.1 -1.1,2.6 -0.6,0.4 -1.6,-0.5 -2.5,-0.8 -2.7,-0.8 -5.3,-1.1 -8,-0.3 -2.3,0.7 -3.8,2.2 -4.2,4.6 -0.4,2.4 0.5,4.3 2.5,5.8 1.8,1.3 3.8,2.1 5.8,2.9 2,0.8 3.9,1.7 5.5,3 6.1,4.8 5.2,14.4 -1.7,17.9 -5.7,2.8 -11.5,2.2 -17.3,-0.2 -0.6,-0.3 -0.9,-0.6 -0.6,-1.3 0.4,-1 0.4,-2.5 1.1,-3.1 0.7,-0.6 1.8,0.7 2.8,1 2.9,1 5.9,1.6 8.9,0.9 2.7,-0.6 4.7,-2 5.4,-4.8 0.7,-3 -0.3,-5.4 -2.8,-7.2 -1.5,-1 -3.1,-1.7 -4.8,-2.4 -1.7,-0.6 -3.3,-1.4 -4.8,-2.3 -3.8,-2.4 -5.7,-5.8 -5,-10.4 0.7,-4.4 3.6,-6.9 7.6,-8.3 1.6,-0.6 3.3,-0.9 4.8,-0.8 z"
   id="path28"
   inkscape:connector-curvature="0"
   style="fill:#22437e" />
	<path
   class="st5"
   d="m 270.7,367.8 c 0,-7.8 2.8,-14.2 9.8,-18.1 6,-3.3 12.4,-3.3 18.8,-1.4 0.9,0.3 1.2,0.7 0.9,1.7 -0.4,0.9 -0.3,2.2 -1,2.7 -0.7,0.5 -1.7,-0.4 -2.7,-0.6 -6.5,-1.4 -12.6,-1 -17.1,4.5 -3.8,4.6 -4.1,10.2 -2.9,15.8 1.3,6 5.1,9.6 11.1,10.8 3.5,0.7 7.1,0.4 10.5,-0.9 1.2,-0.4 1.5,-0.2 1.7,0.9 0.7,2.9 0.8,3 -2.1,3.6 -4.6,1.1 -9.1,1.3 -13.7,0.1 -7.6,-2 -12.7,-8.4 -13.2,-16.7 -0.1,-0.8 -0.1,-1.6 -0.1,-2.4 z"
   id="path30"
   inkscape:connector-curvature="0"
   style="fill:#22437e" />
	<path
   class="st6"
   d="m 234.8,372.8 c 0,7.1 -3.7,12.6 -9.9,14.4 -9.6,2.8 -17.9,-3.9 -17.7,-14.2 0.1,-7 3.3,-12 9.1,-14 8.6,-2.9 17.7,1.7 18.4,12.2 0,0.5 0.1,1 0.1,1.6 z m -22.4,1 c -0.1,1.8 0.5,4.2 2,6.4 3.1,4.6 9.1,4.9 12.6,0.6 3.4,-4.1 3.4,-12 -0.1,-16.1 -3,-3.5 -8.4,-3.7 -11.6,-0.4 -2.2,2.5 -2.9,5.5 -2.9,9.5 z"
   id="path32"
   inkscape:connector-curvature="0"
   style="fill:#22447e" />
	<path
   class="st7"
   d="m 376.1,358.2 c 8,0 12.5,4.6 13,11.8 0.2,3.9 0.2,3.9 -3.6,3.9 -5,0 -10.1,0 -15.1,0 -1,0 -1.3,0.1 -1.2,1.3 0.7,5.6 4.6,8.9 10.2,8.6 2.2,-0.1 4.3,-0.4 6.3,-1.2 0.2,-0.1 0.5,-0.3 0.6,-0.2 0.9,0.7 0.6,1.8 1,2.7 0.2,0.5 0.2,0.8 -0.4,1.1 -5.3,1.8 -10.6,2.4 -15.9,-0.1 -4.7,-2.3 -7.4,-7.9 -6.8,-13.9 0.2,-2.4 0.7,-4.7 1.8,-6.8 2.4,-4.7 6.2,-7.1 10.1,-7.2 z m 0.5,12.1 c 2.2,0 4.4,0 6.6,0 0.4,0 0.9,0.1 0.9,-0.6 0.3,-2.9 -1.9,-6.5 -4.7,-7.4 -4.8,-1.5 -9.9,2.1 -10.2,7.2 0,0.8 0.3,0.8 0.9,0.8 2.2,0 4.4,0 6.5,0 z"
   id="path34"
   inkscape:connector-curvature="0"
   style="fill:#23457f" />
	<path
   class="st7"
   d="m 591.5,382.3 c 0.1,0.1 0.1,0.1 0.1,0.2 1,4.1 1.6,3.4 -2.5,4.5 -3.2,0.9 -6.4,1 -9.6,0.3 -5.3,-1.1 -8.7,-4.4 -9.8,-9.6 -1.3,-5.8 -0.5,-11.3 3.7,-15.8 3.5,-3.7 8.1,-4.5 12.9,-3.1 4.7,1.4 6.7,5.1 7.5,9.6 0.3,1.3 0.3,2.5 0.3,3.8 0,1.2 -0.3,1.8 -1.7,1.7 -5.6,-0.1 -11.3,0 -16.9,-0.1 -1.3,0 -1.4,0.4 -1.3,1.5 0.7,5.5 4.7,8.6 10.5,8.3 2.3,0 4.6,-0.4 6.8,-1.3 z m -10,-12 c 2.3,0 4.5,0 6.8,0 0.4,0 0.9,0.1 0.9,-0.6 0.3,-3.2 -2.1,-6.7 -5.2,-7.5 -4.7,-1.2 -10,2.9 -9.8,7.6 0,0.7 0.5,0.5 0.8,0.5 2.2,0 4.3,0 6.5,0 z"
   id="path36"
   inkscape:connector-curvature="0"
   style="fill:#23457f" />
	<path
   class="st7"
   d="m 496.4,374 c -2.9,0 -5.8,0.1 -8.6,0 -1.1,0 -1.3,0.4 -1.1,1.3 0.7,5.7 4.6,8.9 10.5,8.5 2.1,-0.1 4.2,-0.4 6.2,-1.2 0.6,-0.3 0.9,-0.2 1,0.5 0,0.1 0,0.1 0,0.1 0.8,2.8 0.7,2.9 -2.1,3.7 -3.2,0.8 -6.4,1.1 -9.6,0.6 -5.5,-0.9 -9.3,-4.4 -10.5,-9.9 -1.3,-5.8 -0.4,-11.3 3.8,-15.8 3.5,-3.6 7.9,-4.4 12.6,-3.1 4.6,1.3 6.6,4.9 7.6,9.2 0.3,1.5 0.3,3.1 0.3,4.6 0,1 -0.3,1.4 -1.4,1.4 -2.9,0 -5.8,0.1 -8.7,0.1 z m -2.3,-3.8 c 2.2,0 4.3,0 6.5,0 0.5,0 1,0.2 1.1,-0.7 0.3,-3.1 -2.1,-6.6 -5.1,-7.5 -4.6,-1.3 -9.5,2.5 -9.8,7.4 -0.1,0.9 0.5,0.7 0.9,0.7 2.1,0.2 4.3,0.1 6.4,0.1 z"
   id="path38"
   inkscape:connector-curvature="0"
   style="fill:#23457f" />
	<path
   class="st6"
   d="m 375.6,315.5 c -2.9,0 -5.7,0 -8.6,0 -1.1,0 -1.3,0.3 -1.1,1.3 0.8,5.5 4.1,8.4 9.6,8.5 2.3,0 4.6,-0.2 6.8,-1.1 0.9,-0.4 1.1,0 1.3,0.8 0.7,2.7 0.7,2.7 -2,3.4 -3.2,0.9 -6.5,1.2 -9.7,0.6 -5.5,-0.9 -9.2,-4.4 -10.5,-9.9 -1,-4.2 -0.6,-8.3 1.3,-12.1 2.6,-5.5 8.1,-8.1 14.2,-7 4.9,0.9 8.5,5.4 8.9,11.3 0.3,4.1 0.3,4.1 -3.8,4.1 -2.2,0.1 -4.3,0.1 -6.4,0.1 z m -2.9,-3.7 c 2.2,0 4.3,0 6.5,0 0.4,0 1,0.3 1.1,-0.7 0.2,-3.1 -1.9,-6.5 -4.8,-7.3 -5,-1.4 -9,1.7 -10.1,7.2 -0.2,0.8 0.4,0.8 0.9,0.8 2.1,0 4.3,0 6.4,0 z"
   id="path40"
   inkscape:connector-curvature="0"
   style="fill:#22447e" />
	<path
   class="st8"
   d="m 517.7,363.4 c 2.4,-3.5 5.5,-5.3 9.5,-5.2 5.1,0.1 8.9,3.6 9.6,9 0.6,4.3 0.2,8.7 0.3,13.1 0,2 0,3.9 0,5.9 0,0.7 -0.2,1.1 -0.9,1 -0.1,0 -0.1,0 -0.2,0 -4.1,0.2 -4.1,0.2 -4.1,-3.9 0,-4.4 0,-8.8 -0.1,-13.2 0,-0.6 -0.1,-1.1 -0.2,-1.7 -0.8,-4.1 -3,-6 -6.7,-5.8 -3.5,0.2 -6.6,3.1 -6.8,6.7 -0.2,2.6 -0.1,5.1 -0.1,7.7 0,3 0,6.1 0,9.1 0,0.9 -0.2,1.1 -1.1,1.1 -4,0.1 -4,0.1 -4.1,-3.9 -0.1,-7.7 0.2,-15.5 -0.2,-23.2 -0.1,-1 0.2,-1.3 1.2,-1.3 3.2,0 3.1,0 3.5,3.1 0.2,0.4 0.3,0.8 0.4,1.5 z"
   id="path42"
   inkscape:connector-curvature="0"
   style="fill:#254680" />
	<path
   class="st7"
   d="m 210,305.1 c 1.8,-2.8 4,-4.5 7,-5.1 6.8,-1.3 12.1,3 12.4,10.1 0.2,5.8 0.1,11.7 0.1,17.6 0,0.7 -0.2,1 -0.9,1 -4.2,0.2 -4.2,0.2 -4.2,-4 0,-4.7 0.1,-9.3 -0.1,-14 -0.2,-4.2 -2.7,-6.7 -6.4,-6.7 -3.8,0 -7.1,3.1 -7.2,7 -0.1,5.4 -0.1,10.8 0,16.2 0,1.3 -0.4,1.5 -1.5,1.5 -3.7,-0.1 -3.7,0 -3.7,-3.8 -0.1,-7.9 0.2,-15.7 -0.2,-23.6 0,-0.8 0.2,-1 1,-1.1 3.6,-0.1 3.6,-0.1 3.8,3.5 -0.2,0.4 -0.1,0.8 -0.1,1.4 z"
   id="path44"
   inkscape:connector-curvature="0"
   style="fill:#23457f" />
	<path
   class="st8"
   d="m 331.3,324.4 c -2.5,3.5 -5.7,5.2 -9.9,4.9 -3.5,-0.2 -6.1,-1.9 -7.6,-5.1 -0.9,-1.9 -1.3,-3.9 -1.3,-6 0,-5.5 0,-11.1 0,-16.6 0,-1 0.3,-1.3 1.3,-1.3 3.8,0 3.8,0 3.8,3.8 0,4.6 0.1,9.1 0.1,13.7 0,0.5 0.1,1 0.2,1.5 0.8,4 2.8,5.8 6.4,5.6 3.5,-0.1 6.5,-2.9 6.7,-6.4 0.2,-2.6 0.1,-5.2 0.1,-7.9 0,-3.1 0,-6.2 0,-9.2 0,-0.8 0.2,-1.2 1.1,-1.2 4.1,-0.1 4,-0.1 4.1,3.9 0.1,7.8 -0.2,15.6 0.2,23.4 0,0.7 -0.1,1.1 -1,1.1 -3.5,0.1 -3.5,0.1 -3.8,-3.2 -0.1,-0.3 0,-0.6 -0.4,-1 z"
   id="path46"
   inkscape:connector-curvature="0"
   style="fill:#254680" />
	<path
   class="st6"
   d="m 315.5,380.9 c 2.3,-6.9 4.7,-13.8 6.9,-20.7 0.3,-1 0.8,-1.4 1.8,-1.3 1.3,0.1 2.5,0 4.1,0 -1.1,3 -2.2,5.8 -3.3,8.6 -3,7.6 -5.5,15.4 -9.2,22.6 -2.1,4 -4.7,7.4 -9.1,9.2 -2.1,0.9 -2.1,0.9 -2.7,-1.4 0,0 0,-0.1 0,-0.1 -0.9,-1.6 -0.3,-2.3 1.3,-3.1 3.3,-1.5 5.5,-4.2 7,-7.5 0.5,-1.1 0.1,-2 -0.3,-2.9 -3.2,-8 -6.4,-16.1 -9.7,-24.1 -0.5,-1.2 -0.3,-1.4 1,-1.4 4.1,0 4.1,0 5.5,3.8 2.2,5.9 4.6,11.8 6.4,17.8 0,0.2 -0.1,0.4 0.3,0.5 z"
   id="path48"
   inkscape:connector-curvature="0"
   style="fill:#22447e" />
	<path
   class="st2"
   d="m 82.7,366 c -0.1,-4.8 -0.1,-9.7 1.7,-14.3 0.8,-2.1 2.1,-3.9 3.6,-5.5 3,-3.2 6.1,-6.3 9.2,-9.5 0.4,-0.4 0.9,-0.8 1.4,-1.2 0.5,-0.4 1,-0.8 1.6,-0.5 0.7,0.4 0.6,1 0.5,1.6 -1.4,5.7 -2.1,11.5 -0.7,17.3 0.2,0.8 0,1.3 -0.6,1.7 -5.2,3.5 -10.4,6.7 -15.7,10 -0.3,0.3 -0.6,0.3 -1,0.4 z"
   id="path50"
   inkscape:connector-curvature="0"
   style="fill:#97bde4" />
	<path
   class="st8"
   d="m 193.4,374.9 c 0,-3.5 0,-7.1 0,-10.6 0,-1.1 -0.2,-1.6 -1.5,-1.6 -2.5,0.1 -3,-0.8 -2.5,-3.3 0.2,-0.7 0.6,-0.6 1,-0.6 0.9,-0.1 2,0.4 2.7,-0.2 0.6,-0.6 0.2,-1.8 0.3,-2.7 0.3,-3.5 1.1,-6.8 4.2,-9.1 2.9,-2.1 6.1,-2.3 9.5,-1.3 0.7,0.2 0.8,0.5 0.7,1.1 0,0.3 -0.1,0.5 -0.1,0.8 -0.4,2.1 -0.4,2.1 -2.5,1.9 -3.9,-0.4 -5.9,1.3 -6.5,5.6 -0.6,4 -0.6,4 3.4,4 0.2,0 0.3,0 0.5,0 3,0 2.9,0 2.8,3 0,0.9 -0.4,1 -1.1,1 -1.5,0 -3,0.1 -4.5,0 -1.1,-0.1 -1.3,0.3 -1.3,1.3 0,7.1 0,14.3 0.1,21.4 0,1.3 -0.3,1.8 -1.7,1.7 -3.5,-0.1 -3.5,0 -3.5,-3.5 0,-3 0,-5.9 0,-8.9 z"
   id="path52"
   inkscape:connector-curvature="0"
   style="fill:#254680" />
	<path
   class="st8"
   d="m 262.1,313.9 c 0,-3.2 0,-5.9 0,-8.5 0,-0.8 -0.2,-1.1 -1,-1 -0.5,0.1 -1,-0.1 -1.5,0 -1.5,0.3 -1.9,-0.4 -1.8,-1.8 0.1,-2.1 0,-2.1 2.3,-2.1 2.1,0 2.1,0 2.1,-2.1 0,-0.3 0,-0.6 0,-0.9 0,-4 0.3,-4.3 4.4,-4.9 0.8,-0.1 0.7,0.3 0.7,0.8 0,1.9 0.1,3.8 0,5.7 -0.1,1.1 0.2,1.6 1.4,1.5 1.6,-0.1 3.3,0 4.9,0 0.7,0 0.9,0.2 1,1 0.2,3 0.2,3 -2.7,3 -1.2,0 -2.4,0 -3.5,0 -0.8,0 -1,0.3 -1,1.1 0,5 -0.1,10.1 0,15.1 0.1,3.7 1.6,4.9 5.3,4.5 1.4,-0.2 1.6,0.2 1.6,1.4 0,2.4 0.1,2.5 -2.4,2.8 -1,0.1 -1.9,0.2 -2.9,0.1 -3.5,-0.2 -5.8,-2.4 -6.4,-5.9 -0.7,-3.7 -0.4,-7 -0.5,-9.8 z"
   id="path54"
   inkscape:connector-curvature="0"
   style="fill:#254680" />
	<path
   class="st7"
   d="m 244.3,329.3 c -2.9,0 -5.3,-0.5 -7.5,-1.5 -0.6,-0.3 -1,-0.5 -0.7,-1.3 0.4,-0.9 0.4,-2.2 1,-2.7 0.7,-0.5 1.6,0.6 2.5,0.9 2,0.6 4,1 6,0.6 2,-0.4 3.3,-1.5 3.6,-3.3 0.3,-1.9 -0.4,-3.3 -2,-4.3 -1,-0.7 -2.2,-1.1 -3.3,-1.6 -1.4,-0.5 -2.7,-1.1 -4,-2 -4.8,-3.4 -4.5,-10 0.7,-12.8 3.9,-2.1 7.9,-1.8 11.8,-0.1 0.6,0.3 0.8,0.6 0.5,1.2 -0.3,0.9 -0.4,2 -1,2.5 -0.7,0.6 -1.5,-0.4 -2.3,-0.7 -1.8,-0.5 -3.6,-0.8 -5.4,-0.3 -1.5,0.4 -2.5,1.4 -2.7,3 -0.2,1.7 0.4,2.9 1.9,3.7 1.6,1 3.4,1.5 5,2.3 2.5,1.2 4.7,2.6 5.5,5.4 1.5,4.9 -1.5,9.5 -6.9,10.5 -1,0.4 -2.1,0.4 -2.7,0.5 z"
   id="path56"
   inkscape:connector-curvature="0"
   style="fill:#23457f" />
	<path
   class="st7"
   d="m 558.5,358.3 c 2.2,0 4.2,0.4 6.2,1 0.8,0.3 1.1,0.7 0.8,1.5 0,0 0,0.1 -0.1,0.1 -0.7,2.6 -0.7,2.6 -3.2,1.9 -5.5,-1.6 -10.6,0.6 -12.7,5.4 -2.2,5.2 -0.6,11.5 3.8,14.1 3.3,1.9 6.7,1.7 10.1,0.4 1.1,-0.4 1.4,-0.2 1.7,0.9 0.5,2.7 0.6,2.7 -2.1,3.4 -5.2,1.3 -10.4,1.3 -14.7,-2.4 -5,-4.2 -5.7,-9.9 -4.2,-15.9 1.5,-5.7 5.5,-9 11.2,-10.1 1,-0.2 2.2,-0.4 3.2,-0.3 z"
   id="path58"
   inkscape:connector-curvature="0"
   style="fill:#23457f" />
	<path
   class="st7"
   d="m 441.8,373.4 c 0,-12.9 12,-17.5 21.4,-14 0.7,0.2 1,0.5 0.6,1.2 0,0.1 -0.1,0.2 -0.1,0.3 -0.7,2.6 -0.7,2.6 -3.2,1.9 -5.1,-1.5 -10.1,0.4 -12.3,4.7 -2.4,4.7 -1.3,11.2 2.4,14.1 3.4,2.6 7.3,2.5 11.1,1.1 1.2,-0.4 1.4,-0.2 1.7,1 0.5,2.7 0.6,2.7 -2.1,3.4 -3.3,0.9 -6.6,1 -9.9,0.1 -6,-1.8 -9.6,-6.9 -9.6,-13.8 z"
   id="path60"
   inkscape:connector-curvature="0"
   style="fill:#23457f" />
	<path
   class="st5"
   d="m 350.9,292.3 c 0,2.4 0,4.7 0,6.9 0,0.9 0.2,1.1 1.1,1.1 1.6,-0.1 3.3,0 4.9,0 0.9,0 1.4,0.2 1.4,1.2 0,2.7 0,2.7 -2.7,2.8 -1.5,0 -3.5,-0.7 -4.4,0.3 -0.7,0.8 -0.2,2.8 -0.2,4.3 0,3.5 0,7 0,10.5 0,0.4 0,0.8 0,1.2 0.3,3.4 1.6,4.5 4.9,4.4 0.6,0 1.5,-0.7 1.8,0.1 0.3,1 0.4,2.2 0.2,3.3 0,0.3 -0.4,0.3 -0.6,0.3 -2.3,0.6 -4.5,0.8 -6.8,0 -3.2,-1.1 -4.3,-3.7 -4.4,-6.7 -0.2,-5.3 -0.1,-10.7 -0.1,-16 0,-1.4 -0.4,-1.8 -1.8,-1.7 -2.9,0.1 -3.1,-0.3 -2.7,-3.2 0.1,-0.5 0.2,-0.8 0.7,-0.7 0.2,0 0.3,0 0.5,0 3.2,-0.1 3.2,-0.1 3.2,-3.3 0,-3.5 0,-3.5 3.3,-4.3 0.5,-0.2 1,-0.3 1.7,-0.5 z"
   id="path62"
   inkscape:connector-curvature="0"
   style="fill:#22437e" />
	<path
   class="st3"
   d="m 299.7,292.5 c 0,2.3 0,4.5 0,6.8 0,0.9 0.2,1.2 1.1,1.2 1.6,-0.1 3.3,0 4.9,0 1,-0.1 1.4,0.2 1.4,1.3 0,2.6 0,2.6 -2.7,2.6 -1.3,0 -2.6,0 -3.9,0 -0.6,0 -0.9,0.1 -0.9,0.8 0.1,5.1 0,10.3 0.2,15.4 0.1,3.8 1.5,4.8 5.2,4.4 1.4,-0.2 1.6,0.3 1.7,1.5 0,2.3 0.1,2.3 -2.2,2.7 -1.4,0.2 -2.9,0.3 -4.3,0 -3.5,-0.8 -5.4,-3.2 -5.5,-7.7 -0.1,-5.2 -0.1,-10.5 0,-15.7 0,-1.2 -0.3,-1.6 -1.4,-1.4 -0.3,0.1 -0.6,0 -0.9,0 -2,0 -1.9,0 -2.1,-2 -0.1,-1.6 0.4,-2.1 2,-2 2.4,0.1 2.4,0 2.4,-2.4 0.1,-4.8 0.1,-4.8 5,-5.5 z"
   id="path64"
   inkscape:connector-curvature="0"
   style="fill:#21427d" />
	<path
   class="st5"
   d="m 87.8,266.6 c -0.3,0.1 -0.7,0.3 -1,0.3 -0.3,0.1 -0.6,0.2 -0.8,-0.2 -0.1,-0.3 0.1,-0.5 0.3,-0.7 1.3,-1.4 2.5,-2.8 1.3,-4.9 -1.3,-2.4 -3.5,-3.4 -6.1,-3.4 -2.7,0.1 -4.8,1.4 -6.3,3.6 -0.7,0.9 -0.7,1.7 0,2.7 1.1,1.7 2.6,2.6 4.4,3.2 0.4,0.1 1.1,0.1 1,0.7 0,0.7 -0.7,0.7 -1.2,0.7 -2.6,0.1 -5.1,-0.3 -7,-2.1 -0.8,-0.7 -1.5,-1 -2.4,-0.6 -0.3,0.1 -0.7,0.1 -1.1,0.2 -2.5,0.4 -3.4,-0.5 -2.7,-3 1.8,-6.5 8.7,-11 14.3,-11.2 5.1,-0.2 8.5,1.9 11.4,5.7 0.1,0.2 0.2,0.4 0.3,0.6 0.2,3.8 -1.4,6.5 -4.4,8.4 z"
   id="path66"
   inkscape:connector-curvature="0"
   style="fill:#22437e" />
	<path
   class="st3"
   d="m 50.6,228.1 c 0.4,0 0.8,0.3 1.1,0.7 0.8,0.7 1.2,1.7 1.6,2.6 1.9,3.6 4,7.2 6.2,10.7 1.2,1.9 1.1,2.4 -0.8,3.6 -1.9,1.2 -3.6,2.7 -5.2,4.3 -1.7,1.9 -2.9,1.8 -4.3,-0.4 -2.8,-4.5 -3.8,-9.5 -3.5,-14.7 0.1,-2.3 1.5,-4.3 3.2,-6 0.4,-0.4 0.9,-0.7 1.7,-0.8 z"
   id="path68"
   inkscape:connector-curvature="0"
   style="fill:#21427d" />
	<path
   class="st9"
   d="m 191,309.1 c 0,-6.2 0,-12.3 0,-18.5 0,-1.1 0.3,-1.4 1.4,-1.4 3.8,0 3.8,0 3.8,3.7 0,11.4 0,22.9 0,34.3 0,1.1 -0.2,1.5 -1.4,1.5 -3.7,-0.1 -3.7,0 -3.7,-3.8 -0.1,-5.2 -0.1,-10.5 -0.1,-15.8 z"
   id="path70"
   inkscape:connector-curvature="0"
   style="fill:#264781" />
	<path
   class="st9"
   d="m 245.8,364.5 c 0.9,-1.8 1.6,-3.3 3,-4.4 1.6,-1.3 3.3,-2 5.4,-1.9 0.4,0 1,-0.1 1.1,0.4 0.1,1.4 0.1,2.9 0,4.3 0,0.3 -0.4,0.3 -0.6,0.2 -5.3,-0.8 -8.1,4 -8.2,8.5 0,4.7 -0.1,9.3 0,14 0,1.2 -0.3,1.5 -1.4,1.4 -3.7,0 -3.7,0 -3.7,-3.7 0,-7.8 -0.1,-15.6 -0.2,-23.4 0,-0.9 0.2,-1.2 1.1,-1.2 3.2,0 3.2,-0.1 3.4,3.2 0,0.9 0,1.6 0.1,2.6 z"
   id="path72"
   inkscape:connector-curvature="0"
   style="fill:#264781" />
	<path
   class="st8"
   d="m 399.9,364.2 c 1.1,-1.5 1.9,-3 3.3,-4.1 1.5,-1.2 3.3,-1.9 5.3,-1.8 0.8,0 1.2,0.3 1,1.1 0,0.1 0,0.2 0,0.3 0,1.1 0.3,2.3 -0.1,3.2 -0.5,0.9 -1.8,0.2 -2.8,0.4 -3,0.5 -5.4,3.4 -5.7,7.2 -0.4,4.8 -0.1,9.6 -0.1,14.3 0,2.5 0,2.5 -2.4,2.5 -2.7,0 -2.7,0 -2.7,-2.8 -0.1,-8.2 0.2,-16.3 -0.2,-24.5 0,-0.9 0.3,-1 1,-1 3.4,-0.1 3.4,-0.2 3.6,3.2 -0.2,0.5 -0.2,1.2 -0.2,2 z"
   id="path74"
   inkscape:connector-curvature="0"
   style="fill:#254680" />
	<path
   class="st2"
   d="m 87.8,266.6 c 3,-1.9 4.6,-4.6 4.2,-8.3 1.1,0.3 1.4,1.3 1.8,2.1 3.7,6.9 6.3,14.3 9.2,21.6 0.7,1.9 -0.4,3 -1.3,4.3 -1.7,0.8 -2.8,2.2 -3.5,3.9 -1.1,-0.7 -1.1,-1.8 -0.9,-2.8 0.2,-1.2 0.1,-2.3 -0.3,-3.5 -1.5,-4.6 -3.4,-9 -5.1,-13.5 -0.2,-0.6 -0.5,-1.1 -0.8,-1.7 -0.6,-1.4 -1.6,-2.3 -3.3,-2.1 z"
   id="path76"
   inkscape:connector-curvature="0"
   style="fill:#97bde4" />
	<path
   class="st6"
   d="m 98.3,290.2 c 0.7,-1.7 1.8,-3.1 3.5,-3.9 5.2,-1.5 10.4,-1.5 15.7,-0.5 1.8,0.4 2.2,1.1 2.3,2.9 0.1,1.7 -0.8,2.6 -2.3,2.7 -3.3,0.3 -5.3,1.9 -6.3,5.1 -0.4,1.2 -1.3,2.2 -2.4,3 -0.4,0.3 -0.9,0.6 -1.4,0.3 -0.6,-0.3 -0.3,-0.9 -0.2,-1.4 0.2,-1 0.6,-2.1 0.8,-3.1 0.3,-1.7 -0.3,-2.6 -1.9,-3.2 -1.8,-0.7 -3.7,-0.7 -5.6,-1 -0.9,-0.2 -1.8,0 -2.2,-0.9 z"
   id="path78"
   inkscape:connector-curvature="0"
   style="fill:#22447e" />
	<path
   class="st6"
   d="m 280.3,314.5 c 0,-4.3 0,-8.6 0,-12.9 0,-0.9 0.2,-1.2 1.2,-1.2 4,0 4,-0.1 4,3.9 0,7.7 0,15.4 0,23.1 0,1.1 -0.3,1.5 -1.4,1.4 -1.2,-0.1 -2.8,0.4 -3.6,-0.2 -0.9,-0.7 -0.3,-2.4 -0.3,-3.7 0,-3.5 0.1,-7 0.1,-10.4 z"
   id="path80"
   inkscape:connector-curvature="0"
   style="fill:#22447e" />
	<path
   class="st9"
   d="m 470,372.9 c 0,-4.2 0,-8.4 0,-12.6 0,-1.1 0.2,-1.5 1.4,-1.5 3.7,0.1 3.7,0 3.7,3.7 0,7.7 0,15.4 0,23.1 0,1.2 -0.4,1.5 -1.5,1.5 -3.6,-0.1 -3.6,0 -3.6,-3.6 0,-3.5 0,-7 0,-10.6 z"
   id="path82"
   inkscape:connector-curvature="0"
   style="fill:#264781" />
	<path
   class="st2"
   d="m 122.5,269.4 c 2.2,4.7 2.7,9.5 1,14.5 -0.6,1.6 -0.9,3.3 -1.2,5 -1.9,-3 -3.7,-6.1 -5.4,-9.3 -0.8,-1.6 -0.5,-2.4 1,-3.4 0.1,-0.1 0.2,-0.2 0.4,-0.3 3,-1.1 4.7,-3.1 4.2,-6.5 z"
   id="path84"
   inkscape:connector-curvature="0"
   style="fill:#97bde4" />
	<path
   class="st7"
   d="m 119.1,239.9 c 0,3.1 -1.1,5.7 -2.6,8.1 -0.3,0.6 -0.6,0.7 -1.2,0.2 -1.4,-1.4 -3.1,-2.6 -4.7,-3.6 -0.8,-0.5 -0.8,-1.2 -0.3,-1.8 1.7,-2.4 3.5,-4.8 5.7,-6.8 1,-0.9 1.7,-0.6 2.3,0.5 0.5,1.1 0.8,2.3 0.8,3.4 z"
   id="path86"
   inkscape:connector-curvature="0"
   style="fill:#23457f" />
	<path
   class="st8"
   d="m 286,292.6 c 0,1.7 -1.5,3.1 -3.2,3.1 -1.8,0 -3.2,-1.4 -3.2,-3.2 0,-1.8 1.5,-3.2 3.3,-3.1 1.8,-0.1 3.2,1.4 3.1,3.2 z"
   id="path88"
   inkscape:connector-curvature="0"
   style="fill:#254680" />
	<path
   class="st8"
   d="m 472.5,347.7 c 1.9,0 3.2,1.3 3.2,3.2 0,1.8 -1.3,3.1 -3.1,3.1 -1.9,0 -3.3,-1.3 -3.3,-3.1 0,-1.7 1.4,-3.1 3.2,-3.2 z"
   id="path90"
   inkscape:connector-curvature="0"
   style="fill:#254680" />
	<path
   class="st2"
   d="m 36,320.3 c 0,0.1 0,0.2 0,0.4 -0.2,-0.1 -0.2,-0.3 0,-0.4 z"
   id="path92"
   inkscape:connector-curvature="0"
   style="fill:#97bde4" />
</g>
</svg>