<?xml version="1.0" standalone="no"?>
<!DOCTYPE svg PUBLIC "-//W3C//DTD SVG 20010904//EN"
 "http://www.w3.org/TR/2001/REC-SVG-20010904/DTD/svg10.dtd">
<svg version="1.0" xmlns="http://www.w3.org/2000/svg"
 width="1994.000000pt" height="686.000000pt" viewBox="0 0 1994.000000 686.000000"
 preserveAspectRatio="xMidYMid meet">

<g transform="translate(0.000000,686.000000) scale(0.100000,-0.100000)"
fill="#000000" stroke="none">
<path d="M2750 5213 c-341 -20 -767 -103 -1053 -205 l-58 -21 4 -626 c3 -600
4 -630 25 -723 29 -127 83 -281 136 -387 l43 -85 8 34 c4 19 26 78 50 130 56
125 62 164 39 305 -15 97 -16 122 -5 169 24 109 172 374 274 491 34 39 35 39
54 23 20 -18 43 -24 43 -10 -1 4 -7 34 -15 67 -19 77 -19 235 -1 278 7 18 43
60 79 95 97 93 120 88 242 -55 l64 -74 173 -4 c196 -3 361 -24 481 -61 130
-40 131 -40 119 -17 -15 28 -5 38 82 79 98 45 177 55 208 28 33 -30 68 -114
68 -166 0 -53 -23 -130 -51 -170 l-19 -26 45 -53 c53 -62 63 -101 40 -155 -15
-37 -17 -38 -31 -20 -8 11 -14 33 -14 49 0 125 -190 175 -254 67 -23 -40 -20
-56 27 -145 l42 -80 53 -3 c31 -2 52 1 52 7 0 6 -8 11 -18 11 -22 0 -63 42
-87 88 -15 32 -15 35 0 52 37 41 109 33 141 -16 15 -21 16 -33 7 -65 -10 -38
-9 -40 16 -45 42 -10 60 -33 81 -102 25 -81 25 -122 -1 -228 -21 -82 -21 -86
-4 -146 18 -67 14 -130 -12 -183 -18 -35 -92 -137 -107 -147 -15 -11 -45 -10
-89 3 -34 9 -42 18 -64 65 -13 30 -31 54 -38 54 -7 0 -28 -18 -45 -40 -41 -52
-46 -54 -180 -85 -194 -43 -264 -30 -338 68 -58 77 -69 103 -77 195 -4 45 -11
84 -16 87 -12 8 -25 -24 -32 -78 -9 -62 -23 -87 -50 -87 -29 0 -265 79 -296
99 -14 8 -40 48 -58 88 -47 102 -56 98 -68 -32 -10 -95 -31 -145 -104 -245
-82 -113 -94 -154 -89 -323 3 -128 4 -134 37 -195 62 -114 270 -293 581 -499
136 -90 254 -163 262 -163 3 0 8 44 10 97 6 103 25 176 63 231 43 63 246 263
263 260 11 -2 19 -17 23 -48 14 -94 62 -169 127 -197 33 -14 35 -13 89 29 418
322 688 685 797 1073 57 201 58 214 63 862 l5 601 -109 35 c-312 101 -624 160
-983 187 -123 9 -516 11 -650 3z m840 -2101 c19 -9 36 -25 38 -35 5 -28 -67
-93 -118 -107 -66 -18 -286 -9 -326 12 -38 21 -48 51 -25 72 64 58 354 97 431
58z"/>
<path d="M2411 4695 c-16 -14 -37 -46 -47 -72 -16 -40 -16 -55 -6 -132 14 -99
60 -206 93 -216 16 -5 31 3 63 32 22 22 58 52 79 68 20 15 37 34 37 43 0 8
-17 42 -38 76 -21 34 -56 94 -77 134 -47 90 -63 101 -104 67z"/>
<path d="M3693 4565 c-22 -16 -113 -132 -113 -144 0 -4 27 -29 60 -54 l60 -47
24 48 c35 68 42 131 21 176 -20 41 -22 42 -52 21z"/>
<path d="M2954 4250 c-59 -14 -147 -81 -181 -140 -35 -57 -43 -114 -19 -123 8
-3 31 -3 50 0 26 4 42 0 67 -18 34 -24 149 -41 149 -22 0 5 -19 18 -42 30 -24
11 -51 34 -61 51 -17 30 -17 31 8 60 14 17 46 38 70 48 42 16 48 16 90 0 73
-28 94 -79 55 -129 -24 -30 -25 -37 -6 -37 21 0 74 47 91 81 31 58 15 107 -49
158 -59 47 -137 62 -222 41z"/>
<path d="M3494 3621 c-59 -10 -80 -20 -113 -55 -35 -37 -23 -52 48 -59 34 -3
73 -13 88 -22 24 -16 25 -20 19 -75 -11 -94 19 -88 76 15 31 55 38 61 82 72
62 16 78 29 74 67 -2 22 -11 35 -29 43 -33 16 -179 24 -245 14z"/>
</g>
</svg>
