<?xml version="1.0" encoding="utf-8"?>
<!-- Generator: Adobe Illustrator 21.1.0, SVG Export Plug-In . SVG Version: 6.00 Build 0)  -->
<svg version="1.1" id="Layer_1" xmlns="http://www.w3.org/2000/svg" xmlns:xlink="http://www.w3.org/1999/xlink" x="0px" y="0px"
	 viewBox="0 0 600 600" style="enable-background:new 0 0 600 600;" xml:space="preserve">
<style type="text/css">
	.st0{fill:#AACACC;}
	.st1{fill:#D0EAF1;}
	.st2{fill:#97BDE4;}
</style>
<path class="st0" d="M85.4,310.5c1.5,0.3,3.1,0.2,4.6-0.2c3.3-0.7,6.5-1.5,9.8-2.2c2.2-0.5,3.9-1.7,5.2-3.6c0.3-0.4,0.6-0.9,0.9-1.3
	c1-1.1,1.8-1,2.4,0.4c0.1,0.3,0.3,0.7,0.4,1c0.8,3.5,3.4,4.5,6.5,4.9c0.9,0.1,1.7,0,2.3-0.6c2.2-2.8,4.8-5.4,5.9-8.9
	c1.2-3.8,0.7-7.5-0.9-11.1c0.2-1.7,0.6-3.4,1.2-5c1.7-5,1.2-9.8-1-14.5c-0.5-1.4-1.4-2.2-2.9-2.4c-1.2-0.2-1.8-0.6-1.2-2
	c0.9-2.3,0.1-4.5-1.7-5.5c-1.9-1.1-4.9-0.7-6.4,1c-0.3,0.3-0.5,0.6-0.3,1.1c0.8,1.7,1.5,3.4,2.7,4.8c1,1.2,2.3,1.4,3.8,1.4
	c-1.6,1.7-5.2,1.6-6.1-0.2c-1.3-2.2-2.5-4.5-3.6-6.8c-1.4-3,1.3-6.7,5-7.3c4.5-0.7,8.6,2.7,8.8,7.3c0,0.9-0.4,2.2,0.9,2.3
	c1.3,0.2,1.2-1.2,1.6-2.1c0.9-2.7,0-4.8-1.7-6.8c-0.9-1.1-2.4-2.1-2.6-3.3c-0.2-1.1,1.2-2.3,1.7-3.6c1.9-4.5,2.1-8.9-0.3-13.3
	c-1.6-2.8-2.8-3.6-6-3c-4,0.7-7.4,2.6-10.9,4.5c-0.8,0.4-0.8,1-0.3,1.7c0.2,0.4,0.7,0.8,0.3,1.2c-0.4,0.4-0.9,0.1-1.3-0.1
	c-11.4-4.6-23.4-5.1-35.4-4.9c-2.6,0.1-4.3-0.3-5.8-2.5c-1.5-2.3-3.5-4.3-5.5-6.2c-1.7-1.6-3.7-2-5.6-0.7c-3.7,2.5-7.2,5.3-7.7,10.2
	c-0.4,4.5-0.2,9,1,13.4c0.1,0.2,0.2,0.5,0.2,0.7c0.1,0.6,0.4,1.3-0.3,1.7c-0.7,0.4-1.1-0.3-1.4-0.8c-0.6-1-1.3-1.3-2.2-0.3
	c-6.1,7.8-11.6,15.9-14.9,25.4c-1.3,3.6-0.7,7.2,0,10.8c1.2,5.5,0.6,10.7-2.2,15.6c-1.4,2.5-2.4,5.2-2.8,8.4c-2-3.4-3.6-6.7-5-10.1
	c-4.3-10.4-6.1-21.3-6.1-32.6c0-16.9,0-33.8,0-50.7c0-1.2,0.2-1.7,1.5-2.2c18.1-6.3,36.8-9.8,56-11.1c16.2-1.1,32.3-0.7,48.4,1.4
	c14.4,1.8,28.5,5.1,42.1,9.9c0.7,0.2,1.1,0.5,1.1,1.4c-0.1,18.6,0.2,37.3-0.2,55.9c-0.3,16.9-6.1,32.2-15.8,46
	c-8.5,12.2-19.3,22.2-31,31.2c-0.7,0.5-1.3,0.4-2,0.2c-3.3-1.1-5-3.6-6.2-6.6c-0.7-1.6-1.1-3.2-1.3-4.9c0.1-0.6,0.2-1.3-0.5-1.6
	c-0.7-0.4-1.2,0.1-1.6,0.5c-0.5,0.4-1,0.8-1.4,1.2c-3.1,3.2-6.2,6.3-9.2,9.5c-1.5,1.6-2.8,3.4-3.6,5.5c-1.9,4.6-1.8,9.5-1.7,14.3
	c-2-0.8-3.7-2.1-5.6-3.2c-10.4-6.4-20.5-13.3-29.7-21.3c-1.7-1.5-3.3-3.1-4.9-4.6c-4.6-4.5-6.8-9.9-6.5-16.3c0-0.1,0-0.2,0-0.4
	c0-0.3,0-0.6,0-0.8c0.2-2.4,0-4.8,0.6-7.2c0.8-3.6,3.1-6.4,5.3-9.2c2.2-2.8,3.9-5.8,4.3-9.3c0.2-2.1,0.5-4.2,0.7-6.2
	c0.1-0.6,0-1.2,0.7-1.3c0.8-0.1,1,0.6,1.2,1.1c0.5,1.2,1.1,2.3,1.5,3.5c0.8,2.5,2.6,4,5,4.8c3.9,1.3,7.7,2.6,11.6,3.8
	c2.2,0.7,3,0.2,3.6-2c0.4-1.7,0.6-3.5,1-5.3c0.1-0.6,0.2-1.5,1.1-1.4c0.9,0.1,0.8,0.9,0.9,1.6c0.1,2.1,0,4.2,0.4,6.3
	c0.9,4.8,4.1,8.2,7.9,10.9C82.8,310.2,84.1,310.5,85.4,310.5z M98.7,320c1.2,0,2.5,0,3.7,0c3.1-0.1,6.1-0.8,8.4-3.2
	c0.9-0.9,2-1.9,1.6-3.3c-0.4-1.4-1.9-1.8-3.2-2.1c-3.2-0.8-6.4-0.4-9.6,0c-3.7,0.5-7.3,1.1-10.7,2.7c-0.9,0.4-1.8,0.9-1.8,2.1
	c0,1.2,0.8,2,1.8,2.5c0.7,0.3,1.4,0.6,2.2,0.8C93.6,320,96.2,320.1,98.7,320z"/>
<path class="st0" d="M372.9,254.8c0-1.7,0-3.5,0-5.2c0-0.9,0.2-1.3,1.2-1.3c2.2,0.1,4.4,0,6.6,0c0.8,0,1.1,0.2,1.1,1
	c-0.1,1.4,0,2.9,0,4.3c0,0.6,0.1,1.1,0.8,1.2c3.4,0.7,6.7,1.4,10.2,1c3.9-0.4,5.9-2.8,5.6-6.5c-0.2-2-1.4-3.4-3-4.4
	c-2.4-1.4-5.2-2-7.8-2.7c-2.1-0.6-4.1-1.2-6.1-2.1c-6.5-2.9-8.5-7.7-8.1-14c0.5-7.4,4.8-11.7,13.1-12.9c6.6-1,13.1-0.3,19.5,1.7
	c1,0.3,1.4,0.7,1.4,1.8c-0.1,3.1-0.1,6.2,0,9.2c0,0.9-0.3,1.3-1.2,1.2c-2.2-0.1-4.3-0.1-6.5,0c-1,0-1.2-0.3-1.2-1.2
	c0.1-1.3,0-2.6,0-3.9c0-0.5,0-0.9-0.6-1c-3-0.9-6.1-1.5-9.2-0.5c-2.7,0.8-4.5,2.8-4.5,5.2c-0.1,2.5,1.3,4.6,4,5.6
	c2.9,1,5.8,1.6,8.7,2.5c3.4,1,6.6,2.3,9.1,5c6.6,7.1,3.5,19.9-5.7,23.4c-3.7,1.4-7.6,1.8-11.5,1.7c-4.9-0.1-9.7-0.9-14.4-2.3
	c-0.9-0.3-1.3-0.7-1.2-1.7C373,258.3,372.9,256.6,372.9,254.8z"/>
<path class="st1" d="M85.4,310.5c-1.3,0.1-2.6-0.3-3.6-1c-3.8-2.7-7-6.1-7.9-10.9c-0.4-2-0.3-4.2-0.4-6.3c0-0.6,0-1.5-0.9-1.6
	c-0.9-0.1-0.9,0.8-1.1,1.4c-0.3,1.8-0.5,3.5-1,5.3c-0.5,2.2-1.4,2.7-3.6,2c-3.9-1.2-7.8-2.5-11.6-3.8c-2.4-0.8-4.2-2.3-5-4.8
	c-0.4-1.2-1-2.4-1.5-3.5c-0.2-0.5-0.4-1.3-1.2-1.1c-0.7,0.1-0.7,0.8-0.7,1.3c-0.2,2.1-0.5,4.2-0.7,6.2c-0.4,3.6-2.1,6.6-4.3,9.3
	c-2.2,2.8-4.4,5.6-5.3,9.2c-0.5,2.4-0.4,4.8-0.6,7.2c-1-0.9-0.9-2.2-1-3.4c-0.6-4.2-1-8.4-1.5-12.7c-0.5-4.5,1-7.9,3.8-11.1
	c1.5-1.7,2.7-3.6,4.1-5.4c1.5-2,2-4.3,2.1-6.8c0.2-4.6-0.2-9.2-0.6-13.8c-0.1-1.1-0.1-2.2,0-3.2c0.1-0.9,0.4-1.8,1.5-2
	c1.1-0.2,1.9,0.3,2.3,1.3c0.8,2.3,1.6,4.6,2.4,7c1.6,4.5,5,6.5,9.5,7.2c6.3,0.9,12.6,1.8,18.8,2.8c2.1,0.3,3.7,1.4,4.6,3.4
	c1.5,3.4,2.6,6.9,3.6,10.5c0.6,1.9-0.1,3.9-0.8,5.7c-1,2.5-1.3,5-1.2,7.7C83.6,308.2,84.1,309.5,85.4,310.5z"/>
<path class="st0" d="M195.8,238.5c0-5.3,0-10.7,0-16c0-1-0.1-1.5-1.3-1.4c-1.2,0.1-2.7,0.5-3.4-0.2c-0.8-0.8-0.2-2.3-0.2-3.6
	c0-3.4,0-3.4,3.3-3.3c7.1,0,14.2-0.1,21.3,0.1c4.9,0.1,9.5,1.5,12.8,5.4c7.5,8.8,2.7,21.7-8.8,24.2c-3.9,0.8-7.9,0.6-11.8,0.6
	c-1.3,0-1.7,0.3-1.6,1.6c0.1,3,0.1,6.1,0,9.1c0,0.9,0.3,1.3,1.1,1.1c0.1,0,0.1,0,0.2,0c3.5,0.1,3.5,0.1,3.5,3.6c0,3.6,0,3.6-3.6,3.6
	c-5,0-10.1,0-15.1,0c-1.1,0-1.5-0.3-1.4-1.4c0.1-1.5,0.1-3.1,0-4.6c-0.1-1.1,0.4-1.3,1.3-1.3c0.8,0.1,1.5-0.1,2.3,0
	c1.1,0.1,1.3-0.4,1.3-1.4C195.8,249.3,195.8,243.9,195.8,238.5z M206.1,229c0,2.3,0,4.6,0,6.9c0,0.7,0.1,1.1,1,1.1
	c2.1-0.1,4.1,0.1,6.2,0c4.7-0.3,7.6-3.1,7.8-7.5c0.2-4.6-2.3-7.8-7-8.3c-2.4-0.3-4.8-0.1-7.2-0.2c-0.8,0-0.7,0.5-0.7,1
	C206.1,224.4,206.1,226.7,206.1,229z"/>
<path class="st0" d="M288.3,231.3c5.3-7.4,16-6.9,20.9-2.6c3,2.7,4.6,6.1,4.7,10c0.2,5.2,0.1,10.5,0.1,15.7c0,1.2,0.2,1.7,1.6,1.7
	c2.7-0.1,2.7,0,2.7,2.7c0,1.4,0.5,3.3-0.2,4.2c-0.8,1-2.8,0.3-4.3,0.3c-4.1,0-8.2,0-12.3,0c-1,0-1.4-0.2-1.3-1.3
	c0.1-1.6,0.1-3.2,0-4.8c-0.1-1,0.3-1.2,1.2-1.2c2.8,0,2.8-0.1,2.8-2.8c0-3.8,0-7.6,0-11.4c0-7-5.6-8.7-10.2-7.4
	c-2.6,0.7-4.4,3-4.6,5.9c-0.3,4.9-0.1,9.9-0.2,14.8c0,0.8,0.3,0.9,1,1c1,0,2.3-0.5,3,0.2c0.7,0.7,0.2,2.1,0.2,3.1
	c0,1.2,0.5,2.8-0.2,3.6c-0.8,0.8-2.4,0.3-3.7,0.3c-4.3,0-8.6,0-12.9,0c-0.9,0-1.3-0.2-1.3-1.2c0.1-1.6,0.1-3.3,0-4.9
	c0-0.9,0.3-1.1,1.2-1.1c2.9-0.1,2.9-0.1,2.9-2.9c0-6.1,0-12.1,0-18.2c0-1.1-0.3-1.4-1.4-1.4c-3.4,0-3.4,0-3.4-3.4
	c0-3.8,0-3.8,3.8-3.8c2.9,0,5.8,0,8.6,0c0.9,0,1.2,0.2,1.2,1.1C288,228.6,288.2,229.8,288.3,231.3z"/>
<path class="st0" d="M336.4,231.3c3.9-5,8.8-6.3,14.4-5.5c6.5,1,11,6.2,11.2,12.9c0.2,5.2,0.1,10.5,0.1,15.7c0,1.2,0.3,1.7,1.6,1.7
	c2.7-0.1,2.7,0,2.7,2.7c0,1.4,0.5,3.3-0.3,4.2c-0.8,0.9-2.8,0.3-4.3,0.3c-4.1,0-8.2,0-12.3,0c-1,0-1.4-0.2-1.3-1.3
	c0.1-1.6,0.1-3.2,0-4.8c-0.1-1,0.4-1.2,1.3-1.2c2.8,0,2.8-0.1,2.8-2.8c0-3.8,0-7.5,0-11.3c0-6-4.2-9.2-10-7.6
	c-2.9,0.8-4.5,2.7-4.8,5.6c-0.5,5.1-0.1,10.3-0.2,15.4c0,0.8,0.5,0.7,1,0.8c1,0.1,2.3-0.5,3,0.2c0.7,0.7,0.2,2.1,0.2,3.1
	c0,3.8,0,3.8-3.8,3.8c-4.3,0-8.6,0-12.9,0c-1.1,0-1.5-0.3-1.4-1.4c0.1-1.5,0.1-3.1,0-4.6c0-0.9,0.2-1.3,1.2-1.3
	c2.8,0,2.8-0.1,2.8-2.9c0-6.1,0-12.1,0-18.2c0-1.1-0.3-1.4-1.4-1.4c-3.4,0-3.4,0-3.4-3.4c0-1.2-0.6-2.8,0.3-3.5
	c0.8-0.7,2.3-0.2,3.6-0.2c2.8,0,5.7,0,8.5,0c1,0,1.3,0.3,1.3,1.3C336.1,228.7,336.2,229.8,336.4,231.3z"/>
<path class="st0" d="M465.9,258.3c-5.1,5.7-12.1,7.4-18.3,4.4c-3.5-1.7-5.4-4.4-5.8-8.3c-0.4-4.2,1-7.6,4.6-9.9
	c3-1.9,6.4-2.6,9.9-2.9c2.5-0.2,5-0.2,7.5-0.2c0.8,0,1.3-0.2,1.2-1.1c-0.1-0.9-0.1-1.7-0.2-2.6c-0.4-2.7-1.9-4.3-4.8-4.9
	c-2.6-0.5-5.2-0.2-7.7,0.6c-0.6,0.2-0.9,0.5-0.8,1.1c0,0.1,0,0.2,0,0.3c-0.1,1.2,0.5,2.8-0.2,3.6c-0.8,0.9-2.4,0.2-3.7,0.3
	c-1,0.1-2.1,0-3.1,0c-0.8,0-1.1-0.3-1-1.1c0-2.5,0-5,0-7.6c0-0.6,0.2-0.9,0.7-1.2c6.9-3.4,14-4.6,21.5-2.2c5.8,1.9,8.6,6.3,8.7,13.2
	c0,4.8,0,9.7,0,14.5c0,1.2,0.3,1.6,1.5,1.5c2.3-0.1,2.3,0,2.3,2.3c0,1.3,0,2.6,0,3.9c0,0.8-0.3,1-1.1,1c-3.3,0-6.6,0-9.9,0
	c-0.9,0-1.1-0.3-1.1-1.2C466.2,260.9,466,259.8,465.9,258.3z M457,256.9c4.4,0,8.3-4.3,7.9-8.6c0-0.4-0.1-0.7-0.6-0.7
	c-3.4,0.1-6.9-0.2-10.1,1.1c-2.8,1.2-3.5,4.5-1.4,6.7C454,256.6,455.4,256.9,457,256.9z"/>
<path class="st0" d="M257.3,247c-3.9,0-7.7,0-11.6,0c-1.2,0-1.4,0.4-1.2,1.4c0.6,4,3.9,7,8.5,7.8c4.5,0.7,8.8,0.1,13-1.5
	c1.4-0.5,1.6-0.2,1.6,1.1c-0.1,1.6,0,3.3,0,4.9c0,0.6,0,1.1-0.7,1.3c-7.5,2.4-15,3.1-22.4,0.2c-6.7-2.6-9.9-8.1-10.5-15
	c-0.5-4.7,0.2-9.2,2.6-13.4c3.8-6.4,9.8-8.7,17-8.4c10.7,0.5,15.4,8,16.4,17.2c0.2,1.3,0.9,3,0.1,3.9c-0.8,0.9-2.6,0.3-4,0.3
	C263,247.1,260.1,247,257.3,247z M251.8,240.2c2.2,0,4.3,0,6.5,0c0.9,0,1.1-0.3,1-1.1c-0.4-4.2-3.3-6.9-7.4-6.8c-4,0-7.1,2.9-7.4,7
	c-0.1,0.7,0.1,1,0.9,1C247.5,240.2,249.6,240.2,251.8,240.2z"/>
<path class="st0" d="M530.5,247c-3.9,0-7.7,0-11.6,0c-1,0-1.2,0.3-1.1,1.2c0.5,4,3.8,7.2,8.4,8c4.4,0.7,8.6,0.1,12.7-1.3
	c1.8-0.6,1.8-0.7,1.8,1.3c0,1.5,0,3.1,0,4.6c0,0.6,0,1.1-0.7,1.3c-7.5,2.4-15.1,3.1-22.6,0.2c-6.3-2.5-9.4-7.6-10.2-14.1
	c-0.7-5.3,0-10.4,3-14.9c3.9-6,9.8-8,16.6-7.7c9.8,0.4,14.7,7,16.1,15.5c0.3,1.6,0.3,3.2,0.5,4.7c0.1,0.9-0.2,1.2-1.2,1.2
	C538.3,247,534.4,247,530.5,247z M525.1,240.2c2.2,0,4.4,0,6.6,0c0.6,0,1.2,0,1-0.9c-0.3-1.7-0.6-3.3-1.8-4.7c-2-2.2-5.5-3-8.5-1.9
	c-2.6,0.9-4.5,3.8-4.6,6.7c-0.1,0.9,0.5,0.7,1,0.7C520.9,240.2,523,240.2,525.1,240.2z"/>
<path class="st0" d="M418.1,244.4c0-3.2,0-6.4,0-9.6c0-1-0.2-1.5-1.3-1.3c0,0-0.1,0-0.2,0c-1.2-0.1-2.8,0.5-3.4-0.3
	c-0.6-0.7-0.2-2.3-0.2-3.4c0-3.5,0-3.5,3.5-3.5c1.2,0,1.6-0.3,1.5-1.5c-0.1-1.7,0-3.5,0-5.2c0-0.9,0.3-1.1,1.2-1.1
	c2.6,0,5.1,0,7.7,0c0.8,0,1.1,0.2,1,1c-0.1,1.7,0.1,3.5,0,5.2c-0.1,1.3,0.4,1.6,1.6,1.6c2.3-0.1,4.6,0,6.9-0.1
	c1.1,0,1.4,0.3,1.3,1.4c-0.1,1.5-0.1,3,0,4.5c0.1,1-0.2,1.4-1.3,1.4c-2.5-0.1-4.9,0-7.4,0c-0.6,0-1.2-0.1-1.2,0.8
	c0.1,5.8-0.3,11.6,0.2,17.4c0.3,3.3,1.9,4.7,5.2,4.7c1.3,0,2.6-0.2,3.8-0.4c0.9-0.2,1.1,0.1,1,0.9c0,1.7,0,3.4,0,5.1
	c0,0.4,0.1,0.8-0.5,0.9c-4.6,1-9.2,1.9-13.7-0.1c-4.1-1.8-5.8-5.1-5.9-9.4C418.1,250.5,418.1,247.4,418.1,244.4z"/>
<path class="st0" d="M484.7,244.5c0-3.2,0-6.4,0-9.5c0-1-0.2-1.5-1.3-1.4c-1.2,0.1-2.7,0.5-3.4-0.2c-0.7-0.7-0.2-2.2-0.2-3.4
	c0-3.5,0-3.6,3.6-3.5c1,0,1.4-0.2,1.4-1.3c-0.1-1.8,0-3.7,0-5.5c0-0.7,0.2-1,0.9-1c2.7,0,5.3,0,8,0c0.9,0,1,0.3,1,1.1
	c0,1.8,0,3.7,0,5.5c0,0.9,0.3,1.2,1.2,1.2c2.5-0.1,5,0,7.5,0c0.9,0,1.2,0.2,1.2,1.1c-0.1,1.7-0.1,3.4,0,5.1c0,0.8-0.3,1.1-1.1,1
	c-2.6,0-5.1,0-7.7,0c-0.6,0-1.1-0.1-1.1,0.8c0.1,5.8-0.3,11.7,0.2,17.5c0.3,3.1,1.8,4.4,4.9,4.6c1.3,0.1,2.7-0.1,4-0.4
	c1-0.2,1.1,0.1,1.1,1c0,1.6,0,3.3,0,4.9c0,0.5,0,0.9-0.7,1.1c-3.9,0.9-7.8,1.5-11.7,0.5c-4.6-1.2-7.5-4.6-7.6-9.4
	C484.7,251,484.7,247.7,484.7,244.5C484.7,244.5,484.7,244.5,484.7,244.5z"/>
<path class="st0" d="M338.3,363.2c4.7-6.7,13.3-5.8,17.1-2.1c2,1.9,3.2,4.2,3.9,6.9c0.9,3.9,0.7,7.7-0.6,11.5
	c-3.4,9.5-15.9,11.3-21,3.2c-0.4,1.1-0.3,2.3-0.3,3.3c0,0.8-0.2,1.2-1.1,1.2c-3.3,0.1-3.3,0.1-3.3-3.1c0-12.3,0.1-24.6,0-36.8
	c0-1.4,0.4-1.7,1.7-1.6c3.4,0.1,3.4,0,3.4,3.4c0,4.6,0,9.1,0,13.7C338.1,362.8,338.2,362.9,338.3,363.2z M338.2,373.2
	c0,1.1-0.1,2.2,0,3.2c0.3,3.5,2.7,6.3,6.1,7.1c3.5,0.8,7-0.6,8.7-3.7c2.3-4.3,2.4-8.8,0.2-13.2c-1.5-3-4-4.4-7.4-4.2
	c-3.3,0.2-6.1,2.5-7.1,5.5C338,369.6,338.1,371.4,338.2,373.2z"/>
<path class="st0" d="M426.3,347.1c2.8,0,5.2,0.4,7.5,1.3c1,0.4,1.4,0.8,0.9,1.9c-0.4,0.9-0.5,2.1-1.1,2.6c-0.6,0.4-1.6-0.5-2.5-0.8
	c-2.7-0.8-5.3-1.1-8-0.3c-2.3,0.7-3.8,2.2-4.2,4.6c-0.4,2.4,0.5,4.3,2.5,5.8c1.8,1.3,3.8,2.1,5.8,2.9c2,0.8,3.9,1.7,5.5,3
	c6.1,4.8,5.2,14.4-1.7,17.9c-5.7,2.8-11.5,2.2-17.3-0.2c-0.6-0.3-0.9-0.6-0.6-1.3c0.4-1,0.4-2.5,1.1-3.1c0.7-0.6,1.8,0.7,2.8,1
	c2.9,1,5.9,1.6,8.9,0.9c2.7-0.6,4.7-2,5.4-4.8c0.7-3-0.3-5.4-2.8-7.2c-1.5-1-3.1-1.7-4.8-2.4c-1.7-0.6-3.3-1.4-4.8-2.3
	c-3.8-2.4-5.7-5.8-5-10.4c0.7-4.4,3.6-6.9,7.6-8.3C423.1,347.3,424.8,347,426.3,347.1z"/>
<path class="st0" d="M270.7,367.8c0-7.8,2.8-14.2,9.8-18.1c6-3.3,12.4-3.3,18.8-1.4c0.9,0.3,1.2,0.7,0.9,1.7c-0.4,0.9-0.3,2.2-1,2.7
	c-0.7,0.5-1.7-0.4-2.7-0.6c-6.5-1.4-12.6-1-17.1,4.5c-3.8,4.6-4.1,10.2-2.9,15.8c1.3,6,5.1,9.6,11.1,10.8c3.5,0.7,7.1,0.4,10.5-0.9
	c1.2-0.4,1.5-0.2,1.7,0.9c0.7,2.9,0.8,3-2.1,3.6c-4.6,1.1-9.1,1.3-13.7,0.1c-7.6-2-12.7-8.4-13.2-16.7
	C270.7,369.4,270.7,368.6,270.7,367.8z"/>
<path class="st0" d="M234.8,372.8c0,7.1-3.7,12.6-9.9,14.4c-9.6,2.8-17.9-3.9-17.7-14.2c0.1-7,3.3-12,9.1-14
	c8.6-2.9,17.7,1.7,18.4,12.2C234.7,371.7,234.8,372.2,234.8,372.8z M212.4,373.8c-0.1,1.8,0.5,4.2,2,6.4c3.1,4.6,9.1,4.9,12.6,0.6
	c3.4-4.1,3.4-12-0.1-16.1c-3-3.5-8.4-3.7-11.6-0.4C213.1,366.8,212.4,369.8,212.4,373.8z"/>
<path class="st0" d="M376.1,358.2c8,0,12.5,4.6,13,11.8c0.2,3.9,0.2,3.9-3.6,3.9c-5,0-10.1,0-15.1,0c-1,0-1.3,0.1-1.2,1.3
	c0.7,5.6,4.6,8.9,10.2,8.6c2.2-0.1,4.3-0.4,6.3-1.2c0.2-0.1,0.5-0.3,0.6-0.2c0.9,0.7,0.6,1.8,1,2.7c0.2,0.5,0.2,0.8-0.4,1.1
	c-5.3,1.8-10.6,2.4-15.9-0.1c-4.7-2.3-7.4-7.9-6.8-13.9c0.2-2.4,0.7-4.7,1.8-6.8C368.4,360.7,372.2,358.3,376.1,358.2z M376.6,370.3
	c2.2,0,4.4,0,6.6,0c0.4,0,0.9,0.1,0.9-0.6c0.3-2.9-1.9-6.5-4.7-7.4c-4.8-1.5-9.9,2.1-10.2,7.2c0,0.8,0.3,0.8,0.9,0.8
	C372.3,370.3,374.5,370.3,376.6,370.3z"/>
<path class="st0" d="M591.5,382.3c0.1,0.1,0.1,0.1,0.1,0.2c1,4.1,1.6,3.4-2.5,4.5c-3.2,0.9-6.4,1-9.6,0.3c-5.3-1.1-8.7-4.4-9.8-9.6
	c-1.3-5.8-0.5-11.3,3.7-15.8c3.5-3.7,8.1-4.5,12.9-3.1c4.7,1.4,6.7,5.1,7.5,9.6c0.3,1.3,0.3,2.5,0.3,3.8c0,1.2-0.3,1.8-1.7,1.7
	c-5.6-0.1-11.3,0-16.9-0.1c-1.3,0-1.4,0.4-1.3,1.5c0.7,5.5,4.7,8.6,10.5,8.3C587,383.6,589.3,383.2,591.5,382.3z M581.5,370.3
	c2.3,0,4.5,0,6.8,0c0.4,0,0.9,0.1,0.9-0.6c0.3-3.2-2.1-6.7-5.2-7.5c-4.7-1.2-10,2.9-9.8,7.6c0,0.7,0.5,0.5,0.8,0.5
	C577.2,370.3,579.3,370.3,581.5,370.3z"/>
<path class="st0" d="M496.4,374c-2.9,0-5.8,0.1-8.6,0c-1.1,0-1.3,0.4-1.1,1.3c0.7,5.7,4.6,8.9,10.5,8.5c2.1-0.1,4.2-0.4,6.2-1.2
	c0.6-0.3,0.9-0.2,1,0.5c0,0.1,0,0.1,0,0.1c0.8,2.8,0.7,2.9-2.1,3.7c-3.2,0.8-6.4,1.1-9.6,0.6c-5.5-0.9-9.3-4.4-10.5-9.9
	c-1.3-5.8-0.4-11.3,3.8-15.8c3.5-3.6,7.9-4.4,12.6-3.1c4.6,1.3,6.6,4.9,7.6,9.2c0.3,1.5,0.3,3.1,0.3,4.6c0,1-0.3,1.4-1.4,1.4
	C502.2,373.9,499.3,374,496.4,374z M494.1,370.2c2.2,0,4.3,0,6.5,0c0.5,0,1,0.2,1.1-0.7c0.3-3.1-2.1-6.6-5.1-7.5
	c-4.6-1.3-9.5,2.5-9.8,7.4c-0.1,0.9,0.5,0.7,0.9,0.7C489.8,370.3,492,370.2,494.1,370.2z"/>
<path class="st0" d="M375.6,315.5c-2.9,0-5.7,0-8.6,0c-1.1,0-1.3,0.3-1.1,1.3c0.8,5.5,4.1,8.4,9.6,8.5c2.3,0,4.6-0.2,6.8-1.1
	c0.9-0.4,1.1,0,1.3,0.8c0.7,2.7,0.7,2.7-2,3.4c-3.2,0.9-6.5,1.2-9.7,0.6c-5.5-0.9-9.2-4.4-10.5-9.9c-1-4.2-0.6-8.3,1.3-12.1
	c2.6-5.5,8.1-8.1,14.2-7c4.9,0.9,8.5,5.4,8.9,11.3c0.3,4.1,0.3,4.1-3.8,4.1C379.8,315.5,377.7,315.5,375.6,315.5z M372.7,311.8
	c2.2,0,4.3,0,6.5,0c0.4,0,1,0.3,1.1-0.7c0.2-3.1-1.9-6.5-4.8-7.3c-5-1.4-9,1.7-10.1,7.2c-0.2,0.8,0.4,0.8,0.9,0.8
	C368.4,311.8,370.6,311.8,372.7,311.8z"/>
<path class="st0" d="M517.7,363.4c2.4-3.5,5.5-5.3,9.5-5.2c5.1,0.1,8.9,3.6,9.6,9c0.6,4.3,0.2,8.7,0.3,13.1c0,2,0,3.9,0,5.9
	c0,0.7-0.2,1.1-0.9,1c-0.1,0-0.1,0-0.2,0c-4.1,0.2-4.1,0.2-4.1-3.9c0-4.4,0-8.8-0.1-13.2c0-0.6-0.1-1.1-0.2-1.7
	c-0.8-4.1-3-6-6.7-5.8c-3.5,0.2-6.6,3.1-6.8,6.7c-0.2,2.6-0.1,5.1-0.1,7.7c0,3,0,6.1,0,9.1c0,0.9-0.2,1.1-1.1,1.1
	c-4,0.1-4,0.1-4.1-3.9c-0.1-7.7,0.2-15.5-0.2-23.2c-0.1-1,0.2-1.3,1.2-1.3c3.2,0,3.1,0,3.5,3.1C517.5,362.3,517.6,362.7,517.7,363.4
	z"/>
<path class="st0" d="M210,305.1c1.8-2.8,4-4.5,7-5.1c6.8-1.3,12.1,3,12.4,10.1c0.2,5.8,0.1,11.7,0.1,17.6c0,0.7-0.2,1-0.9,1
	c-4.2,0.2-4.2,0.2-4.2-4c0-4.7,0.1-9.3-0.1-14c-0.2-4.2-2.7-6.7-6.4-6.7c-3.8,0-7.1,3.1-7.2,7c-0.1,5.4-0.1,10.8,0,16.2
	c0,1.3-0.4,1.5-1.5,1.5c-3.7-0.1-3.7,0-3.7-3.8c-0.1-7.9,0.2-15.7-0.2-23.6c0-0.8,0.2-1,1-1.1c3.6-0.1,3.6-0.1,3.8,3.5
	C209.9,304.1,210,304.5,210,305.1z"/>
<path class="st0" d="M331.3,324.4c-2.5,3.5-5.7,5.2-9.9,4.9c-3.5-0.2-6.1-1.9-7.6-5.1c-0.9-1.9-1.3-3.9-1.3-6c0-5.5,0-11.1,0-16.6
	c0-1,0.3-1.3,1.3-1.3c3.8,0,3.8,0,3.8,3.8c0,4.6,0.1,9.1,0.1,13.7c0,0.5,0.1,1,0.2,1.5c0.8,4,2.8,5.8,6.4,5.6
	c3.5-0.1,6.5-2.9,6.7-6.4c0.2-2.6,0.1-5.2,0.1-7.9c0-3.1,0-6.2,0-9.2c0-0.8,0.2-1.2,1.1-1.2c4.1-0.1,4-0.1,4.1,3.9
	c0.1,7.8-0.2,15.6,0.2,23.4c0,0.7-0.1,1.1-1,1.1c-3.5,0.1-3.5,0.1-3.8-3.2C331.6,325.1,331.7,324.8,331.3,324.4z"/>
<path class="st0" d="M315.5,380.9c2.3-6.9,4.7-13.8,6.9-20.7c0.3-1,0.8-1.4,1.8-1.3c1.3,0.1,2.5,0,4.1,0c-1.1,3-2.2,5.8-3.3,8.6
	c-3,7.6-5.5,15.4-9.2,22.6c-2.1,4-4.7,7.4-9.1,9.2c-2.1,0.9-2.1,0.9-2.7-1.4c0,0,0-0.1,0-0.1c-0.9-1.6-0.3-2.3,1.3-3.1
	c3.3-1.5,5.5-4.2,7-7.5c0.5-1.1,0.1-2-0.3-2.9c-3.2-8-6.4-16.1-9.7-24.1c-0.5-1.2-0.3-1.4,1-1.4c4.1,0,4.1,0,5.5,3.8
	c2.2,5.9,4.6,11.8,6.4,17.8C315.2,380.6,315.1,380.8,315.5,380.9z"/>
<path class="st1" d="M82.7,366c-0.1-4.8-0.1-9.7,1.7-14.3c0.8-2.1,2.1-3.9,3.6-5.5c3-3.2,6.1-6.3,9.2-9.5c0.4-0.4,0.9-0.8,1.4-1.2
	c0.5-0.4,1-0.8,1.6-0.5c0.7,0.4,0.6,1,0.5,1.6c-1.4,5.7-2.1,11.5-0.7,17.3c0.2,0.8,0,1.3-0.6,1.7c-5.2,3.5-10.4,6.7-15.7,10
	C83.4,365.9,83.1,365.9,82.7,366z"/>
<path class="st0" d="M193.4,374.9c0-3.5,0-7.1,0-10.6c0-1.1-0.2-1.6-1.5-1.6c-2.5,0.1-3-0.8-2.5-3.3c0.2-0.7,0.6-0.6,1-0.6
	c0.9-0.1,2,0.4,2.7-0.2c0.6-0.6,0.2-1.8,0.3-2.7c0.3-3.5,1.1-6.8,4.2-9.1c2.9-2.1,6.1-2.3,9.5-1.3c0.7,0.2,0.8,0.5,0.7,1.1
	c0,0.3-0.1,0.5-0.1,0.8c-0.4,2.1-0.4,2.1-2.5,1.9c-3.9-0.4-5.9,1.3-6.5,5.6c-0.6,4-0.6,4,3.4,4c0.2,0,0.3,0,0.5,0c3,0,2.9,0,2.8,3
	c0,0.9-0.4,1-1.1,1c-1.5,0-3,0.1-4.5,0c-1.1-0.1-1.3,0.3-1.3,1.3c0,7.1,0,14.3,0.1,21.4c0,1.3-0.3,1.8-1.7,1.7
	c-3.5-0.1-3.5,0-3.5-3.5C193.4,380.8,193.4,377.9,193.4,374.9z"/>
<path class="st0" d="M262.1,313.9c0-3.2,0-5.9,0-8.5c0-0.8-0.2-1.1-1-1c-0.5,0.1-1-0.1-1.5,0c-1.5,0.3-1.9-0.4-1.8-1.8
	c0.1-2.1,0-2.1,2.3-2.1c2.1,0,2.1,0,2.1-2.1c0-0.3,0-0.6,0-0.9c0-4,0.3-4.3,4.4-4.9c0.8-0.1,0.7,0.3,0.7,0.8c0,1.9,0.1,3.8,0,5.7
	c-0.1,1.1,0.2,1.6,1.4,1.5c1.6-0.1,3.3,0,4.9,0c0.7,0,0.9,0.2,1,1c0.2,3,0.2,3-2.7,3c-1.2,0-2.4,0-3.5,0c-0.8,0-1,0.3-1,1.1
	c0,5-0.1,10.1,0,15.1c0.1,3.7,1.6,4.9,5.3,4.5c1.4-0.2,1.6,0.2,1.6,1.4c0,2.4,0.1,2.5-2.4,2.8c-1,0.1-1.9,0.2-2.9,0.1
	c-3.5-0.2-5.8-2.4-6.4-5.9C261.9,320,262.2,316.7,262.1,313.9z"/>
<path class="st0" d="M244.3,329.3c-2.9,0-5.3-0.5-7.5-1.5c-0.6-0.3-1-0.5-0.7-1.3c0.4-0.9,0.4-2.2,1-2.7c0.7-0.5,1.6,0.6,2.5,0.9
	c2,0.6,4,1,6,0.6c2-0.4,3.3-1.5,3.6-3.3c0.3-1.9-0.4-3.3-2-4.3c-1-0.7-2.2-1.1-3.3-1.6c-1.4-0.5-2.7-1.1-4-2
	c-4.8-3.4-4.5-10,0.7-12.8c3.9-2.1,7.9-1.8,11.8-0.1c0.6,0.3,0.8,0.6,0.5,1.2c-0.3,0.9-0.4,2-1,2.5c-0.7,0.6-1.5-0.4-2.3-0.7
	c-1.8-0.5-3.6-0.8-5.4-0.3c-1.5,0.4-2.5,1.4-2.7,3c-0.2,1.7,0.4,2.9,1.9,3.7c1.6,1,3.4,1.5,5,2.3c2.5,1.2,4.7,2.6,5.5,5.4
	c1.5,4.9-1.5,9.5-6.9,10.5C246,329.2,244.9,329.2,244.3,329.3z"/>
<path class="st0" d="M558.5,358.3c2.2,0,4.2,0.4,6.2,1c0.8,0.3,1.1,0.7,0.8,1.5c0,0,0,0.1-0.1,0.1c-0.7,2.6-0.7,2.6-3.2,1.9
	c-5.5-1.6-10.6,0.6-12.7,5.4c-2.2,5.2-0.6,11.5,3.8,14.1c3.3,1.9,6.7,1.7,10.1,0.4c1.1-0.4,1.4-0.2,1.7,0.9c0.5,2.7,0.6,2.7-2.1,3.4
	c-5.2,1.3-10.4,1.3-14.7-2.4c-5-4.2-5.7-9.9-4.2-15.9c1.5-5.7,5.5-9,11.2-10.1C556.3,358.4,557.5,358.2,558.5,358.3z"/>
<path class="st0" d="M441.8,373.4c0-12.9,12-17.5,21.4-14c0.7,0.2,1,0.5,0.6,1.2c0,0.1-0.1,0.2-0.1,0.3c-0.7,2.6-0.7,2.6-3.2,1.9
	c-5.1-1.5-10.1,0.4-12.3,4.7c-2.4,4.7-1.3,11.2,2.4,14.1c3.4,2.6,7.3,2.5,11.1,1.1c1.2-0.4,1.4-0.2,1.7,1c0.5,2.7,0.6,2.7-2.1,3.4
	c-3.3,0.9-6.6,1-9.9,0.1C445.4,385.4,441.8,380.3,441.8,373.4z"/>
<path class="st0" d="M350.9,292.3c0,2.4,0,4.7,0,6.9c0,0.9,0.2,1.1,1.1,1.1c1.6-0.1,3.3,0,4.9,0c0.9,0,1.4,0.2,1.4,1.2
	c0,2.7,0,2.7-2.7,2.8c-1.5,0-3.5-0.7-4.4,0.3c-0.7,0.8-0.2,2.8-0.2,4.3c0,3.5,0,7,0,10.5c0,0.4,0,0.8,0,1.2c0.3,3.4,1.6,4.5,4.9,4.4
	c0.6,0,1.5-0.7,1.8,0.1c0.3,1,0.4,2.2,0.2,3.3c0,0.3-0.4,0.3-0.6,0.3c-2.3,0.6-4.5,0.8-6.8,0c-3.2-1.1-4.3-3.7-4.4-6.7
	c-0.2-5.3-0.1-10.7-0.1-16c0-1.4-0.4-1.8-1.8-1.7c-2.9,0.1-3.1-0.3-2.7-3.2c0.1-0.5,0.2-0.8,0.7-0.7c0.2,0,0.3,0,0.5,0
	c3.2-0.1,3.2-0.1,3.2-3.3c0-3.5,0-3.5,3.3-4.3C349.7,292.6,350.2,292.5,350.9,292.3z"/>
<path class="st0" d="M299.7,292.5c0,2.3,0,4.5,0,6.8c0,0.9,0.2,1.2,1.1,1.2c1.6-0.1,3.3,0,4.9,0c1-0.1,1.4,0.2,1.4,1.3
	c0,2.6,0,2.6-2.7,2.6c-1.3,0-2.6,0-3.9,0c-0.6,0-0.9,0.1-0.9,0.8c0.1,5.1,0,10.3,0.2,15.4c0.1,3.8,1.5,4.8,5.2,4.4
	c1.4-0.2,1.6,0.3,1.7,1.5c0,2.3,0.1,2.3-2.2,2.7c-1.4,0.2-2.9,0.3-4.3,0c-3.5-0.8-5.4-3.2-5.5-7.7c-0.1-5.2-0.1-10.5,0-15.7
	c0-1.2-0.3-1.6-1.4-1.4c-0.3,0.1-0.6,0-0.9,0c-2,0-1.9,0-2.1-2c-0.1-1.6,0.4-2.1,2-2c2.4,0.1,2.4,0,2.4-2.4
	C294.8,293.2,294.8,293.2,299.7,292.5z"/>
<path class="st0" d="M87.8,266.6c-0.3,0.1-0.7,0.3-1,0.3c-0.3,0.1-0.6,0.2-0.8-0.2c-0.1-0.3,0.1-0.5,0.3-0.7
	c1.3-1.4,2.5-2.8,1.3-4.9c-1.3-2.4-3.5-3.4-6.1-3.4c-2.7,0.1-4.8,1.4-6.3,3.6c-0.7,0.9-0.7,1.7,0,2.7c1.1,1.7,2.6,2.6,4.4,3.2
	c0.4,0.1,1.1,0.1,1,0.7c0,0.7-0.7,0.7-1.2,0.7c-2.6,0.1-5.1-0.3-7-2.1c-0.8-0.7-1.5-1-2.4-0.6c-0.3,0.1-0.7,0.1-1.1,0.2
	c-2.5,0.4-3.4-0.5-2.7-3c1.8-6.5,8.7-11,14.3-11.2c5.1-0.2,8.5,1.9,11.4,5.7c0.1,0.2,0.2,0.4,0.3,0.6
	C92.4,262,90.8,264.7,87.8,266.6z"/>
<path class="st0" d="M50.6,228.1c0.4,0,0.8,0.3,1.1,0.7c0.8,0.7,1.2,1.7,1.6,2.6c1.9,3.6,4,7.2,6.2,10.7c1.2,1.9,1.1,2.4-0.8,3.6
	c-1.9,1.2-3.6,2.7-5.2,4.3c-1.7,1.9-2.9,1.8-4.3-0.4c-2.8-4.5-3.8-9.5-3.5-14.7c0.1-2.3,1.5-4.3,3.2-6
	C49.3,228.5,49.8,228.2,50.6,228.1z"/>
<path class="st0" d="M191,309.1c0-6.2,0-12.3,0-18.5c0-1.1,0.3-1.4,1.4-1.4c3.8,0,3.8,0,3.8,3.7c0,11.4,0,22.9,0,34.3
	c0,1.1-0.2,1.5-1.4,1.5c-3.7-0.1-3.7,0-3.7-3.8C191,319.7,191,314.4,191,309.1z"/>
<path class="st0" d="M245.8,364.5c0.9-1.8,1.6-3.3,3-4.4c1.6-1.3,3.3-2,5.4-1.9c0.4,0,1-0.1,1.1,0.4c0.1,1.4,0.1,2.9,0,4.3
	c0,0.3-0.4,0.3-0.6,0.2c-5.3-0.8-8.1,4-8.2,8.5c0,4.7-0.1,9.3,0,14c0,1.2-0.3,1.5-1.4,1.4c-3.7,0-3.7,0-3.7-3.7
	c0-7.8-0.1-15.6-0.2-23.4c0-0.9,0.2-1.2,1.1-1.2c3.2,0,3.2-0.1,3.4,3.2C245.7,362.8,245.7,363.5,245.8,364.5z"/>
<path class="st0" d="M399.9,364.2c1.1-1.5,1.9-3,3.3-4.1c1.5-1.2,3.3-1.9,5.3-1.8c0.8,0,1.2,0.3,1,1.1c0,0.1,0,0.2,0,0.3
	c0,1.1,0.3,2.3-0.1,3.2c-0.5,0.9-1.8,0.2-2.8,0.4c-3,0.5-5.4,3.4-5.7,7.2c-0.4,4.8-0.1,9.6-0.1,14.3c0,2.5,0,2.5-2.4,2.5
	c-2.7,0-2.7,0-2.7-2.8c-0.1-8.2,0.2-16.3-0.2-24.5c0-0.9,0.3-1,1-1c3.4-0.1,3.4-0.2,3.6,3.2C399.9,362.7,399.9,363.4,399.9,364.2z"
	/>
<path class="st1" d="M87.8,266.6c3-1.9,4.6-4.6,4.2-8.3c1.1,0.3,1.4,1.3,1.8,2.1c3.7,6.9,6.3,14.3,9.2,21.6c0.7,1.9-0.4,3-1.3,4.3
	c-1.7,0.8-2.8,2.2-3.5,3.9c-1.1-0.7-1.1-1.8-0.9-2.8c0.2-1.2,0.1-2.3-0.3-3.5c-1.5-4.6-3.4-9-5.1-13.5c-0.2-0.6-0.5-1.1-0.8-1.7
	C90.5,267.3,89.5,266.4,87.8,266.6z"/>
<path class="st0" d="M98.3,290.2c0.7-1.7,1.8-3.1,3.5-3.9c5.2-1.5,10.4-1.5,15.7-0.5c1.8,0.4,2.2,1.1,2.3,2.9
	c0.1,1.7-0.8,2.6-2.3,2.7c-3.3,0.3-5.3,1.9-6.3,5.1c-0.4,1.2-1.3,2.2-2.4,3c-0.4,0.3-0.9,0.6-1.4,0.3c-0.6-0.3-0.3-0.9-0.2-1.4
	c0.2-1,0.6-2.1,0.8-3.1c0.3-1.7-0.3-2.6-1.9-3.2c-1.8-0.7-3.7-0.7-5.6-1C99.6,290.9,98.7,291.1,98.3,290.2z"/>
<path class="st0" d="M280.3,314.5c0-4.3,0-8.6,0-12.9c0-0.9,0.2-1.2,1.2-1.2c4,0,4-0.1,4,3.9c0,7.7,0,15.4,0,23.1
	c0,1.1-0.3,1.5-1.4,1.4c-1.2-0.1-2.8,0.4-3.6-0.2c-0.9-0.7-0.3-2.4-0.3-3.7C280.2,321.4,280.3,317.9,280.3,314.5z"/>
<path class="st0" d="M470,372.9c0-4.2,0-8.4,0-12.6c0-1.1,0.2-1.5,1.4-1.5c3.7,0.1,3.7,0,3.7,3.7c0,7.7,0,15.4,0,23.1
	c0,1.2-0.4,1.5-1.5,1.5c-3.6-0.1-3.6,0-3.6-3.6C470,380,470,376.5,470,372.9z"/>
<path class="st1" d="M122.5,269.4c2.2,4.7,2.7,9.5,1,14.5c-0.6,1.6-0.9,3.3-1.2,5c-1.9-3-3.7-6.1-5.4-9.3c-0.8-1.6-0.5-2.4,1-3.4
	c0.1-0.1,0.2-0.2,0.4-0.3C121.3,274.8,123,272.8,122.5,269.4z"/>
<path class="st0" d="M119.1,239.9c0,3.1-1.1,5.7-2.6,8.1c-0.3,0.6-0.6,0.7-1.2,0.2c-1.4-1.4-3.1-2.6-4.7-3.6
	c-0.8-0.5-0.8-1.2-0.3-1.8c1.7-2.4,3.5-4.8,5.7-6.8c1-0.9,1.7-0.6,2.3,0.5C118.8,237.6,119.1,238.8,119.1,239.9z"/>
<path class="st0" d="M286,292.6c0,1.7-1.5,3.1-3.2,3.1c-1.8,0-3.2-1.4-3.2-3.2c0-1.8,1.5-3.2,3.3-3.1
	C284.7,289.3,286.1,290.8,286,292.6z"/>
<path class="st0" d="M472.5,347.7c1.9,0,3.2,1.3,3.2,3.2c0,1.8-1.3,3.1-3.1,3.1c-1.9,0-3.3-1.3-3.3-3.1
	C469.3,349.2,470.7,347.8,472.5,347.7z"/>
<path class="st2" d="M36,320.3c0,0.1,0,0.2,0,0.4C35.8,320.6,35.8,320.4,36,320.3z"/>
</svg>
