<svg id="Layer_1" data-name="Layer 1" xmlns="http://www.w3.org/2000/svg" viewBox="0 0 1080 1080"><defs><style>.cls-1{fill:#6ab0e0;}.cls-2{fill:#0a0a0a;}</style></defs><title>innoblue</title><path class="cls-1" d="M47.76,512.4c0-23.18.07-46.36-.07-69.55,0-3.37.73-4,4.05-3.31a92.68,92.68,0,0,0,37.86.16c3.42-.67,4.54.13,4.5,3.74-.16,15-.07,30.05-.06,45.08,0,5.08.06,5.1,4.58,2.84,29-14.47,58.2-14.82,86.91.05,27.52,14.25,43.92,37.35,49.41,67.83,5.23,29-2.75,54.75-21.68,76.89-20.54,24-47.31,34.8-78.57,32.5-42.32-3.1-75.69-34.06-84.43-73.2A113.58,113.58,0,0,1,47.7,569.5C47.88,550.47,47.76,531.44,47.76,512.4Zm46.29,62a48.13,48.13,0,1,0,96.25.84c.09-26.75-21.5-48.68-48-48.75A48.37,48.37,0,0,0,94.05,574.36Z"/><path class="cls-2" d="M675.74,547c15.8-10.28,31.8-10.14,47.36-1.55,16,8.84,21.21,24,20.85,41.4-.35,16.72-5.16,31.82-19.25,42.07-16.16,11.76-33.81,11.31-51.23,3.31-16.5-7.58-24-21.8-24.28-39.36-.53-30.34-.24-60.7-.39-91.05,0-2.54.88-3.06,3.2-3,6.58.13,13.17.21,19.75,0,3.11-.11,4.13.58,4.08,3.93C675.63,517.31,675.74,531.92,675.74,547ZM717,587.6a34,34,0,0,0-1.58-11.78c-3.06-10-10.48-15.49-20.66-15.12-9.65.35-16.84,6.6-19.15,16.57a51.84,51.84,0,0,0-.61,19.58c1.9,12.34,9.59,19.47,20.65,19.54s18.3-6.77,20.67-18.94A52.12,52.12,0,0,0,717,587.6Z"/><path class="cls-2" d="M976.81,591.49c-10.3,0-20.61.14-30.9-.08-3.16-.07-3.49,1.1-3.07,3.68,1.68,10.19,9,17.21,20.56,18.81a141.17,141.17,0,0,0,43.57-.78c3.51-.61,4.35.15,4.17,3.58-.28,5.14-.08,10.3-.07,15.45,0,1.48.08,2.87-2,3.14-20.2,2.7-40.42,4.43-60.37-1.39-19.16-5.59-29.38-18.88-31.37-38.51-2-20,4.56-36.56,21.84-47.49S975.11,536,993.28,546c11.77,6.48,17.15,17.58,18.2,30.77.3,3.84-.13,7.73.14,11.58.2,2.87-1,3.24-3.47,3.21C997.7,591.43,987.26,591.49,976.81,591.49Zm-31.6-17.65c12.67,0,25,0,37.25,0,2,0,2.3-.75,2-2.59a14,14,0,0,0-7.34-10.5C965.7,554.77,950,561,945.21,573.84Z"/><path class="cls-2" d="M629.52,588.5c0,28.41-20.44,49-48.81,49.27-28.2.22-49.26-20.9-49.24-49.41s20.81-48.93,49.58-48.91C609,539.47,629.53,560.22,629.52,588.5Zm-70.88.32a39.76,39.76,0,0,0,1.22,11.77c2.55,9.51,9.9,15.34,19.93,15.8,9.52.44,17.42-4.49,20.62-13.56a41.39,41.39,0,0,0-.16-28.91c-3.34-8.91-10.66-13.44-20.38-13.23-9.23.2-16.27,5.32-19.42,14.09C558.88,579.15,558.55,583.68,558.64,588.82Z"/><path class="cls-2" d="M897.41,576.79c0,9.59.31,19.19-.08,28.76-.59,14.89-8.05,24.55-22.24,29.11a65.18,65.18,0,0,1-39.26.24c-15.08-4.52-23-15.44-23.14-31.73-.19-19.32,0-38.64-.1-58,0-2.58.64-3.51,3.35-3.43,6.58.18,13.17.23,19.75,0,3.15-.11,4.13.67,4.1,4-.18,18-.08,36.07-.09,54.1a33,33,0,0,0,.72,7.67c1.05,4.46,3.66,7.35,8.08,8.49a28.11,28.11,0,0,0,13.58.06c4.88-1.14,7.56-4.46,8.43-9.21a40.91,40.91,0,0,0,.51-7.26c0-17.89.09-35.78,0-53.67,0-3,.49-4.33,3.93-4.17a180.15,180.15,0,0,0,18.88,0c3.51-.19,4,1.15,3.91,4.14-.16,10.3-.06,20.61-.06,30.91Z"/><path class="cls-2" d="M511.78,600.85c0,10.3-.12,20.6.07,30.9.06,2.92-.85,3.63-3.62,3.56-6.57-.18-13.16-.2-19.74,0-2.89.1-3.54-.86-3.52-3.63.12-17.6.07-35.2.06-52.8,0-15.43-6.23-20.74-21.39-18.3-7.47,1.2-11.21,5.8-11.24,14.21-.07,18.75-.11,37.49.05,56.24,0,3.28-.66,4.48-4.17,4.31-6.28-.31-12.59-.2-18.89,0-2.65.07-3.72-.48-3.7-3.49.15-19.46,0-38.92.11-58.38.13-18.88,10.11-29.66,30.84-33.07a68.84,68.84,0,0,1,33.46,2.26c14.3,4.79,21.56,14.79,21.67,29.89C511.83,582,511.78,591.4,511.78,600.85Z"/><path class="cls-2" d="M403.55,600.81c0,10.31-.11,20.61.07,30.91.05,2.86-.76,3.67-3.59,3.59q-9.86-.28-19.74,0c-2.84.09-3.58-.78-3.56-3.6.13-17.74.08-35.49.07-53.23,0-14.91-6.16-20.17-20.93-18-7.89,1.18-11.67,5.63-11.7,14.24-.07,18.75-.1,37.49.05,56.23,0,3.22-.57,4.53-4.14,4.35-6.42-.32-12.88-.16-19.31-.05-2.26,0-3.31-.38-3.29-3,.1-20-.23-40.07.15-60.1.35-18.23,11-28.91,31.18-31.91,11.13-1.65,22.23-1.28,33,2.34q21.48,7.2,21.69,29.87C403.61,581.93,403.55,591.37,403.55,600.81Z"/><path class="cls-2" d="M790.75,567.16c0,21.32-.09,42.64.09,64,0,3.49-1,4.33-4.3,4.19-6.28-.25-12.59-.23-18.88,0-3,.1-3.82-.85-3.81-3.84.11-26.47.07-53,.07-79.42,0-16.17.16-32.34-.12-48.51-.07-4.12,1.25-5,5-4.78,6,.3,12,.28,18,0,3.22-.15,4,.75,4,4C790.67,524.23,790.75,545.69,790.75,567.16Z"/><path class="cls-2" d="M293.41,588.51c0,14.15-.14,28.31.09,42.46.06,3.66-1.05,4.52-4.53,4.36-6.42-.29-12.87-.15-19.3,0-2.23,0-3.31-.32-3.3-3q.12-43.76,0-87.49c0-2.55.93-3.08,3.25-3,6.86.13,13.72.19,20.58,0,2.78-.08,3.28.9,3.26,3.43C293.35,559.64,293.41,574.07,293.41,588.51Z"/><path class="cls-1" d="M47.76,399.31c0-12,11.52-23.72,23.51-23.17A23.62,23.62,0,0,1,94,399.58a22.92,22.92,0,0,1-23,22.85A23.18,23.18,0,0,1,47.76,399.31Z"/><path class="cls-2" d="M280.46,498.85c8.88,0,14.8,6.31,14.86,15.79.06,9.76-6.21,16.7-15.11,16.73s-15.06-6.86-15-16.75C265.19,505,271.15,498.83,280.46,498.85Z"/></svg>