<?xml version="1.0" encoding="utf-8"?>
<!-- Generator: Adobe Illustrator 23.0.2, SVG Export Plug-In . SVG Version: 6.00 Build 0)  -->
<svg version="1.0" id="Layer_1" xmlns="http://www.w3.org/2000/svg" xmlns:xlink="http://www.w3.org/1999/xlink" x="0px" y="0px"
	 viewBox="0 50 1920 1080" style="enable-background:new 0 0 1920 1080;" xml:space="preserve">
<style type="text/css">
	.st0{display:none;fill:#FEFEFE;}
	.st1{fill:#2AB6FE;}
	.st2{fill:#020202;}
	.st3{fill:#030303;}
	.st4{fill:#040404;}
	.st5{fill:#2BB7FE;}
	.st6{fill:#050505;}
	.st7{display:none;fill:#FCFDFE;}
	.st8{display:none;fill:#FCFCFC;}
	.st9{display:none;fill:#F3F3F3;}
	.st10{display:none;fill:#FBFBFB;}
</style>
<path class="st0" d="M198.71,652.03c0-174.05,0.04-348.1-0.18-522.14c-0.01-5.48,2.64-4.45,5.66-4.45c280.23,0,560.45,0,840.68,0
	c207.38,0,414.75,0.02,622.13-0.14c4.99,0,6.07,0.93,6.06,6.01c-0.17,171.57-0.17,343.14-0.02,514.71c0,4.82-0.67,6.15-5.92,6.15
	C1177.66,652.02,688.2,652.03,198.71,652.03z M249.63,372.52c0,29.38,0.01,58.76-0.01,88.14c0,8.07,0.62,16.01,2.07,24.02
	c13.29,73.52,78.52,122.23,152.35,112.69c84.75-10.96,132.91-95.04,114.61-166.29c-22.41-87.26-116.3-129.99-196.54-88.55
	c-5.05,2.61-5.79,1.26-5.75-3.69c0.17-21.93-0.13-43.86,0.21-65.79c0.09-6.04-1.85-6.83-7.19-5.72
	c-17.62,3.66-35.35,3.68-52.95-0.13c-5.2-1.13-7.02-0.75-6.96,5.4C249.81,305.9,249.63,339.21,249.63,372.52z M1157.42,422.99
	c0-1.96,0-2.95,0-3.94c0-20.28-0.14-40.57,0.11-60.85c0.05-4.41-1.19-5.61-5.52-5.46c-9.51,0.33-19.04,0.21-28.56,0.04
	c-3.25-0.06-4.71,0.51-4.69,4.3c0.19,43.87-0.54,87.77,0.47,131.62c1.17,50.56,56.22,80.98,101.19,57.23
	c39.74-20.99,42.51-79.58,25.89-106.5C1227.96,409.71,1182.06,403.57,1157.42,422.99z M1592.74,486.53c12.21,0,24.42,0,36.63,0
	c13.67,0,13.67,0,13.67-13.87c-0.01-35.3-20.94-57.94-56.13-60.73c-47.14-3.73-83.54,31.26-80.13,77.01
	c2.28,30.66,16.66,50.1,44.94,58.69c28.77,8.73,58.09,6.17,87.33,2.29c2.78-0.37,3.14-1.99,3.11-4.32
	c-0.08-7.45-0.4-14.92,0.09-22.34c0.36-5.45-1.57-5.67-6.23-4.94c-21.14,3.3-42.41,4.29-63.61,0.76
	c-16.54-2.75-26.49-12.78-28.86-27.41c-0.67-4.14,0.22-5.29,4.49-5.22C1562.94,486.68,1577.84,486.53,1592.74,486.53z
	 M1020.17,553.32c41.66-0.35,70.71-30.26,70.43-72.51c-0.27-40.85-30.46-69.36-73.06-69.01c-39.58,0.33-68.8,31.06-68.42,71.96
	C949.5,523.7,980.09,553.65,1020.17,553.32z M763.9,500.48c0-14.07,0.19-28.15-0.05-42.22c-0.32-19.28-9.02-33.57-27.2-40.5
	c-22.64-8.63-45.82-8.59-68.58-0.3c-16.63,6.06-26.58,18.27-27.56,36.23c-1.67,30.8-0.28,61.64-0.74,92.47
	c-0.05,3.38,1.64,3.61,4.21,3.59c9.11-0.07,18.22-0.33,27.31,0.09c5.22,0.24,7-0.83,6.92-6.63c-0.39-26.69-0.22-53.39-0.14-80.09
	c0.02-8.49,2-16.12,10.86-19.81c20.59-8.58,36.31,1.57,36.53,23.56c0.01,1.45,0,2.9,0,4.35c0,24.42,0.09,48.84-0.09,73.26
	c-0.03,3.91,0.73,5.48,5.01,5.34c9.72-0.31,19.45-0.25,29.17-0.02c3.65,0.09,4.46-1.23,4.42-4.64
	C763.81,530.28,763.9,515.38,763.9,500.48z M920.38,500.79c0-14.07,0.14-28.15-0.03-42.22c-0.25-20.91-10.57-35.36-30.4-42.04
	c-19.56-6.59-39.51-6.68-59.27-1.21c-22.99,6.37-33.99,20.78-34.29,44.86c-0.35,28.35-0.02,56.7-0.16,85.05
	c-0.02,3.57,1.05,4.65,4.54,4.57c8.69-0.2,17.4-0.45,26.07,0.07c6.01,0.36,7.99-0.99,7.87-7.58c-0.47-26.48-0.26-52.97-0.16-79.46
	c0.05-12.73,4.98-19.33,16.54-20.94c25.01-3.49,31.12,6.98,30.92,25.32c-0.28,25.87,0,51.74-0.15,77.6
	c-0.02,3.63,0.65,5.15,4.69,5.03c9.72-0.29,19.46-0.28,29.17,0c3.97,0.12,4.79-1.25,4.74-4.96
	C920.26,530.18,920.38,515.49,920.38,500.79z M1355.82,464.74c0.08,0,0.16,0,0.24,0c0,14.47-0.46,28.96,0.11,43.41
	c0.77,19.3,10.74,32.69,28.69,39.56c18.3,7,37.18,7.11,56.09,2.63c23.64-5.59,36.67-21.1,37.08-45.34
	c0.48-28.53,0.07-57.08,0.23-85.62c0.02-3.75-1.39-4.42-4.71-4.36c-9.3,0.19-18.62,0.3-27.91-0.04c-4.34-0.16-5.52,1.09-5.49,5.44
	c0.21,26.06,0.14,52.12,0.06,78.17c-0.01,3.7-0.3,7.47-1.06,11.08c-1.34,6.3-5.02,10.81-11.47,12.55
	c-6.93,1.87-13.89,1.89-20.81-0.02c-5.64-1.55-9.2-5.26-10.98-10.79c-1.29-4-1.44-8.12-1.44-12.26c0.01-25.85-0.21-51.71,0.17-77.55
	c0.08-5.79-1.7-6.9-6.95-6.64c-8.66,0.43-17.38,0.38-26.05,0.01c-4.51-0.19-6.04,0.86-5.92,5.69
	C1356.04,435.36,1355.82,450.05,1355.82,464.74z M1323.72,451.37c0-31.04-0.09-62.07,0.1-93.11c0.03-4.3-1-5.69-5.44-5.53
	c-9.5,0.35-19.03,0.23-28.55,0.04c-3.32-0.06-4.68,0.6-4.67,4.36c0.12,62.69,0.11,125.38,0.01,188.08c-0.01,3.47,0.86,4.7,4.47,4.61
	c9.1-0.23,18.22-0.37,27.3,0.04c5.18,0.23,7.01-0.77,6.94-6.62C1323.53,512.62,1323.72,481.99,1323.72,451.37z M604.72,482.66
	c0-20.9-0.09-41.8,0.08-62.69c0.03-3.69-0.76-5.09-4.75-4.97c-9.72,0.29-19.45,0.25-29.17,0.02c-3.72-0.09-4.96,0.88-4.94,4.79
	c0.14,41.79,0.15,83.59-0.01,125.38c-0.02,4.16,1.61,4.69,5.11,4.61c9.31-0.2,18.63-0.3,27.93,0.04c4.52,0.17,5.96-0.91,5.88-5.73
	C604.55,523.63,604.72,503.15,604.72,482.66z M249.63,209.19c0.01,17.95,15.21,33.08,33.31,33.16c18.62,0.08,33.6-14.87,33.48-33.43
	c-0.11-17.81-15.7-33.66-33.15-33.7C265.78,175.18,249.62,191.49,249.63,209.19z M607.43,376.44c0.31-13.28-8.16-23.25-20.04-23.61
	c-13.93-0.42-22.99,8.21-23.27,22.18c-0.28,13.93,8.29,24.16,20.6,24.59C597.71,400.07,607.1,390.49,607.43,376.44z"/>
<path class="st1" d="M249.63,372.52c0-33.31,0.17-66.62-0.16-99.93c-0.06-6.16,1.76-6.53,6.96-5.4c17.6,3.81,35.33,3.79,52.95,0.13
	c5.34-1.11,7.28-0.32,7.19,5.72c-0.34,21.93-0.04,43.86-0.21,65.79c-0.04,4.96,0.7,6.3,5.75,3.69
	c80.24-41.44,174.14,1.29,196.54,88.55c18.3,71.25-29.86,155.33-114.61,166.29c-73.83,9.54-139.06-39.17-152.35-112.69
	c-1.45-8.01-2.08-15.95-2.07-24.02C249.64,431.28,249.63,401.9,249.63,372.52z M316.47,462.06c-0.15,38.62,30.82,70,69.46,70.37
	c37.5,0.36,69.57-31.26,69.77-68.8c0.21-39.16-30.81-70.81-69.47-70.87C347.99,392.71,316.62,423.87,316.47,462.06z"/>
<path class="st2" d="M1157.42,422.99c24.64-19.42,70.54-13.28,88.88,16.44c16.62,26.92,13.85,85.51-25.89,106.5
	c-44.96,23.75-100.02-6.67-101.19-57.23c-1.01-43.85-0.28-87.74-0.47-131.62c-0.02-3.78,1.44-4.36,4.69-4.3
	c9.52,0.17,19.05,0.29,28.56-0.04c4.33-0.15,5.57,1.05,5.52,5.46c-0.24,20.28-0.11,40.56-0.11,60.85
	C1157.42,420.04,1157.42,421.03,1157.42,422.99z M1217.34,482.6c0.24-6.46-0.35-12.8-2.29-19c-4.36-13.96-14.77-21.72-29.01-21.55
	c-13.99,0.17-24.71,8.48-28.4,22.39c-3.19,12.03-3.16,24.19,0.04,36.21c3.6,13.52,14.31,21.82,28,22.17
	c14.15,0.36,24.83-7.42,29.26-21.24C1216.92,495.4,1217.55,489.06,1217.34,482.6z"/>
<path class="st3" d="M1592.74,486.53c-14.9,0-29.8,0.15-44.69-0.1c-4.28-0.07-5.16,1.08-4.49,5.22
	c2.37,14.64,12.31,24.67,28.86,27.41c21.2,3.52,42.47,2.54,63.61-0.76c4.66-0.73,6.59-0.51,6.23,4.94
	c-0.49,7.42-0.17,14.89-0.09,22.34c0.03,2.33-0.33,3.95-3.11,4.32c-29.24,3.89-58.56,6.44-87.33-2.29
	c-28.29-8.58-42.66-28.02-44.94-58.69c-3.41-45.75,33-80.74,80.13-77.01c35.18,2.78,56.12,25.43,56.13,60.73
	c0,13.87,0,13.87-13.67,13.87C1617.16,486.53,1604.95,486.53,1592.74,486.53z M1575.4,461.57c6.6,0,13.21,0.13,19.81-0.06
	c2.99-0.08,7.3,1.63,8.68-0.94c1.7-3.19-0.56-7.13-2.35-10.4c-1.82-3.32-4.41-5.96-7.73-7.83c-15.04-8.48-39.31-0.16-46.07,15.7
	c-1.12,2.64-0.89,3.64,2.29,3.58C1558.48,461.47,1566.94,461.58,1575.4,461.57z"/>
<path class="st3" d="M1020.17,553.32c-40.08,0.33-70.68-29.62-71.05-69.56c-0.38-40.9,28.84-71.63,68.42-71.96
	c42.59-0.35,72.78,28.16,73.06,69.01C1090.89,523.06,1061.83,552.98,1020.17,553.32z M1051.99,482.52c0.27-5.41-0.22-10.75-1.49-16
	c-3.72-15.31-14.88-24.34-30.14-24.46c-15.72-0.13-27.09,8.7-30.77,24.31c-2.6,11.03-2.59,22.17,0.25,33.17
	c3.72,14.42,14.47,22.9,29.12,23.29c14.84,0.4,25.86-7.3,30.57-21.37C1051.6,495.31,1052.27,488.97,1051.99,482.52z"/>
<path class="st4" d="M763.9,500.48c0,14.9-0.1,29.8,0.07,44.7c0.04,3.41-0.77,4.72-4.42,4.64c-9.72-0.23-19.46-0.29-29.17,0.02
	c-4.28,0.13-5.03-1.44-5.01-5.34c0.18-24.42,0.09-48.84,0.09-73.26c0-1.45,0.01-2.9,0-4.35c-0.22-21.99-15.94-32.14-36.53-23.56
	c-8.86,3.69-10.84,11.32-10.86,19.81c-0.08,26.7-0.24,53.39,0.14,80.09c0.08,5.81-1.7,6.87-6.92,6.63
	c-9.09-0.42-18.21-0.16-27.31-0.09c-2.57,0.02-4.26-0.21-4.21-3.59c0.45-30.82-0.94-61.67,0.74-92.47
	c0.97-17.96,10.93-30.18,27.56-36.23c22.76-8.29,45.94-8.33,68.58,0.3c18.19,6.93,26.89,21.22,27.2,40.5
	C764.09,472.34,763.9,486.41,763.9,500.48z"/>
<path class="st4" d="M920.38,500.79c0,14.69-0.12,29.39,0.09,44.08c0.05,3.71-0.77,5.08-4.74,4.96c-9.72-0.28-19.46-0.29-29.17,0
	c-4.04,0.12-4.71-1.39-4.69-5.03c0.15-25.87-0.13-51.74,0.15-77.6c0.2-18.33-5.91-28.81-30.92-25.32
	c-11.55,1.61-16.49,8.22-16.54,20.94c-0.1,26.49-0.3,52.98,0.16,79.46c0.12,6.59-1.86,7.94-7.87,7.58
	c-8.66-0.51-17.38-0.26-26.07-0.07c-3.49,0.08-4.56-0.99-4.54-4.57c0.14-28.35-0.19-56.71,0.16-85.05
	c0.3-24.08,11.29-38.49,34.29-44.86c19.76-5.47,39.71-5.38,59.27,1.21c19.82,6.68,30.15,21.13,30.4,42.04
	C920.52,472.65,920.38,486.72,920.38,500.79z"/>
<path class="st3" d="M1355.82,464.74c0-14.68,0.22-29.37-0.13-44.05c-0.11-4.83,1.41-5.88,5.92-5.69
	c8.67,0.36,17.38,0.42,26.05-0.01c5.25-0.26,7.03,0.85,6.95,6.64c-0.38,25.85-0.16,51.7-0.17,77.55c0,4.15,0.15,8.26,1.44,12.26
	c1.78,5.53,5.34,9.23,10.98,10.79c6.93,1.91,13.88,1.89,20.81,0.02c6.46-1.74,10.14-6.25,11.47-12.55
	c0.76-3.61,1.05-7.38,1.06-11.08c0.09-26.06,0.15-52.12-0.06-78.17c-0.03-4.36,1.14-5.6,5.49-5.44c9.29,0.34,18.61,0.23,27.91,0.04
	c3.32-0.07,4.73,0.61,4.71,4.36c-0.16,28.54,0.25,57.08-0.23,85.62c-0.41,24.24-13.44,39.75-37.08,45.34
	c-18.91,4.47-37.79,4.37-56.09-2.63c-17.96-6.87-27.93-20.26-28.69-39.56c-0.58-14.45-0.11-28.94-0.11-43.41
	C1355.98,464.74,1355.9,464.74,1355.82,464.74z"/>
<path class="st4" d="M1323.72,451.37c0,30.62-0.2,61.25,0.17,91.86c0.07,5.85-1.76,6.85-6.94,6.62c-9.09-0.4-18.21-0.27-27.3-0.04
	c-3.61,0.09-4.47-1.13-4.47-4.61c0.1-62.69,0.1-125.38-0.01-188.08c-0.01-3.75,1.36-4.42,4.67-4.36c9.51,0.18,19.04,0.31,28.55-0.04
	c4.44-0.16,5.46,1.23,5.44,5.53C1323.64,389.3,1323.72,420.33,1323.72,451.37z"/>
<path class="st3" d="M604.72,482.66c0,20.48-0.18,40.97,0.13,61.45c0.07,4.82-1.37,5.9-5.88,5.73c-9.3-0.34-18.62-0.23-27.93-0.04
	c-3.49,0.07-5.12-0.45-5.11-4.61c0.16-41.79,0.15-83.59,0.01-125.38c-0.01-3.91,1.23-4.88,4.94-4.79
	c9.72,0.24,19.45,0.27,29.17-0.02c3.99-0.12,4.78,1.28,4.75,4.97C604.64,440.87,604.72,461.77,604.72,482.66z"/>
<path class="st5" d="M249.63,209.19c-0.01-17.69,16.14-34.01,33.64-33.97c17.44,0.04,33.03,15.89,33.15,33.7
	c0.12,18.56-14.86,33.51-33.48,33.43C264.85,242.27,249.64,227.14,249.63,209.19z"/>
<path class="st6" d="M607.43,376.44c-0.33,14.04-9.72,23.62-22.71,23.17c-12.31-0.43-20.88-10.66-20.6-24.59
	c0.28-13.97,9.34-22.61,23.27-22.18C599.27,353.2,607.73,363.17,607.43,376.44z"/>
<path class="st7" d="M316.47,462.06c0.15-38.19,31.53-69.35,69.77-69.3c38.66,0.06,69.68,31.7,69.47,70.87
	c-0.2,37.54-32.27,69.16-69.77,68.8C347.29,532.06,316.31,500.68,316.47,462.06z"/>
<path class="st8" d="M1217.34,482.6c0.21,6.45-0.42,12.8-2.4,18.98c-4.43,13.82-15.11,21.6-29.26,21.24
	c-13.69-0.35-24.4-8.65-28-22.17c-3.2-12.02-3.24-24.18-0.04-36.21c3.69-13.91,14.41-22.22,28.4-22.39
	c14.24-0.17,24.65,7.59,29.01,21.55C1216.98,469.8,1217.58,476.15,1217.34,482.6z"/>
<path class="st9" d="M1575.4,461.57c-8.46,0-16.92-0.1-25.38,0.05c-3.18,0.06-3.41-0.95-2.29-3.58
	c6.76-15.86,31.03-24.18,46.07-15.7c3.31,1.87,5.9,4.51,7.73,7.83c1.8,3.27,4.06,7.21,2.35,10.4c-1.37,2.57-5.69,0.86-8.68,0.94
	C1588.61,461.7,1582,461.57,1575.4,461.57z"/>
<path class="st10" d="M1052,482.51c0.27,6.46-0.4,12.79-2.46,18.95c-4.72,14.07-15.74,21.77-30.57,21.37
	c-14.65-0.4-25.39-8.87-29.12-23.29c-2.84-11-2.85-22.14-0.25-33.17c3.68-15.62,15.05-24.45,30.77-24.31
	c15.27,0.13,26.43,9.16,30.14,24.46C1051.78,471.77,1052.26,477.11,1052,482.51z"/>
</svg>
