<?xml version="1.0" encoding="utf-8"?>
<!-- Generator: Adobe Illustrator 21.1.0, SVG Export Plug-In . SVG Version: 6.00 Build 0)  -->
<svg version="1.1" id="Layer_1" xmlns="http://www.w3.org/2000/svg" xmlns:xlink="http://www.w3.org/1999/xlink" x="0px" y="0px"
	 viewBox="0 0 500 250" style="enable-background:new 0 0 500 250;" xml:space="preserve">
<g>
	<path d="M98.1,139.1c0,0.4,0,0.7,0,1c-5,0-9.9,0-14.8,0c0-0.3,0-0.7,0-1c0.6,0,1.1,0,1.7,0c0.4,0,0.9,0,1.3-0.1
		c1.2-0.3,1.9-1.2,1.9-2.7c0-3.6,0.1-7.1,0.1-10.7c0-4.1,0-8.2,0-12.3c0-0.2,0-0.4,0-0.6h-0.1c-4,9.2-8.1,18.4-12.1,27.5
		c-1.1,0.1-1.1,0.1-1.6-0.9c-2.4-5.5-4.9-10.9-7.3-16.4c-1.4-3.2-2.8-6.4-4.2-9.6c-0.1-0.2-0.2-0.3-0.3-0.7c0,0.3,0,0.5,0,0.7
		c0,6.7,0,13.3,0,20c0,0.7,0.1,1.5,0.2,2.2c0.2,1.9,1.8,3.2,3.7,3.6c0.3,0.1,0.6,0.1,1,0.1c0,0.3,0,0.6,0,1c-3.7,0-7.4,0-11.1,0
		c0-0.3,0-0.6,0-0.9c0.7-0.2,1.4-0.3,2.1-0.5c1.8-0.7,2.8-2.2,2.8-4.1c0-6.5,0.1-13,0.1-19.6c0-0.9-0.1-1.9-0.2-2.8
		c-0.2-1.5-1.1-1.8-2.3-1.9c-0.8-0.1-1.6-0.1-2.4-0.1c0-0.3,0-0.6,0-1c0.2,0,0.4,0,0.6,0c2.8,0,5.6,0,8.3,0c0.4,0,0.6,0.1,0.7,0.5
		c2.9,6.6,5.9,13.3,8.8,19.9c0.8,1.8,1.6,3.5,2.4,5.4c0.4-0.9,0.8-1.8,1.2-2.7c2.5-5.8,5.1-11.6,7.6-17.4c0.8-1.8,1.5-3.5,2.3-5.3
		c0.1-0.2,0.3-0.4,0.5-0.4c3,0,6,0,9,0c0.1,0,0.1,0,0.2,0c0,0.3,0,0.6,0,1c-0.9,0-1.8,0.1-2.7,0.1c-0.4,0-0.7,0.1-1.1,0.2
		c-0.9,0.3-1.3,1-1.4,1.9c-0.1,1.3-0.2,2.6-0.2,3.9c0,5.9,0,11.7,0,17.6c0,0.9,0.1,1.9,0.2,2.8c0.2,2.1,1.4,2.4,2.8,2.5
		C96.6,139.1,97.3,139.1,98.1,139.1z"/>
	<path d="M424.6,136.6c-0.5,2.4-3,4.2-5.4,4.3c-2.8,0.2-5-0.9-7-2.7c-0.6-0.6-1.2-1.2-1.8-1.9c-0.6,0.6-1.3,1.2-1.9,1.8
		c-1.6,1.4-3.4,2.3-5.4,2.7c-2.1,0.4-4.1,0-6-1c-2.6-1.4-4.2-3.6-4.6-6.5s0.4-5.5,2.8-7.5c1.5-1.3,3.2-2.5,4.7-3.7
		c0.1-0.1,0.2-0.2,0.2-0.2c-0.7-1.5-1.5-2.9-2.1-4.4c-0.7-1.8-0.8-3.6,0.2-5.4c1.4-2.6,3.7-3.7,6.4-3.6c1.7,0.1,3.2,0.6,4.6,1.6
		c1.7,1.3,2.3,3.8,1.2,5.7c-0.8,1.5-2.1,2.6-3.5,3.5c-0.9,0.6-1.8,1.1-2.8,1.7c2.7,3.7,5.3,7.4,8,11.1c1.4-2,2.5-4.2,2.9-6.6
		c0.3-1.5-0.6-2.8-2.1-3.3c-0.5-0.2-1-0.3-1.6-0.4c0-0.3,0-0.7,0-1.1c3.4,0,6.8,0,10.3,0c0,0.2,0,0.4,0,0.5c0.1,0.4-0.1,0.6-0.5,0.7
		c-2.3,0.7-3.8,2.4-4.9,4.5c-0.7,1.5-1.4,3.1-2.1,4.6c-0.3,0.6-0.7,1.2-1.1,1.8c-0.1,0.1-0.1,0.4,0,0.5c1.1,1.5,2.1,3.1,3.6,4.2
		c1.2,1,2.7,1.4,4.2,1.1c0.9-0.2,1.7-0.6,2.1-1.4C423.4,136.5,423.9,136.5,424.6,136.6z M409.8,135.2c-2.9-4.1-5.8-8.2-8.7-12.4
		c-1.6,1-2.9,2.1-3.9,3.5c-1.4,1.9-1.8,4.1-1,6.3c0.7,2,2,3.6,3.7,4.8c1.4,1,3,1.3,4.7,1C406.7,138.2,408.3,136.9,409.8,135.2z
		 M403.4,119.9c0.4-0.2,0.7-0.4,1-0.6c1.4-1,2.7-2,3.4-3.6c1.2-2.6-0.3-6-3.4-6.1c-2.6,0-4.2,2.2-3.9,4.4
		C400.8,116.3,402.1,118.1,403.4,119.9z"/>
	<path d="M27.6,140.1L27.6,140.1c-0.1-1-0.1-1,0.8-1c0.6,0,1.2,0,1.7-0.1c1.1-0.2,1.8-0.8,2-1.9c0.1-0.8,0.2-1.7,0.2-2.6
		c0-6.6,0-13.3,0-19.9c0-0.9-0.1-1.7-0.2-2.6c-0.2-1.2-1-1.8-2.3-1.8c-0.7,0-1.5-0.1-2.2-0.1l-0.1-0.1c-0.1-0.9-0.1-0.9,0.9-0.9
		c3.1-0.1,6.3-0.3,9.4-0.3c2.8,0,5.5,0,8.2,0.8c2.4,0.7,4.3,1.9,5.4,4.2c1.6,3.5,0.6,8.8-3.5,10.7c-1.2,0.6-2.5,0.8-3.8,0.9
		c-2.2,0.1-4.5,0.1-6.7,0.2c-0.1,0-0.3,0-0.5,0c0,0.2,0,0.4,0,0.6c0,3.1,0,6.2,0,9.3c0,0.5,0,1.1,0.1,1.6c0.3,1.4,1.2,2,2.7,2.1
		c0.7,0,1.3,0,2,0c0,0.3,0,0.7,0,1C37.1,140.1,32.4,140.1,27.6,140.1z M37,124.5c1.8-0.1,3.5-0.1,5.2-0.3c2.4-0.3,4-1.7,4.8-4
		c0.5-1.6,0.5-3.3,0.3-4.9c-0.4-2.7-2-4.4-4.6-5c-1.6-0.4-3.3-0.3-4.9-0.3c-0.5,0-0.7,0.1-0.7,0.6c0,4.4,0,8.9,0,13.3
		C37,124,37,124.2,37,124.5z"/>
	<path d="M277.2,128.6c1-0.1,1-0.1,1,0.9c0,3.1,0,6.2,0,9.4c0,0.2,0,0.4,0,0.7c-0.3,0-0.5,0-0.7,0s-0.4-0.2-0.4-0.3
		c-0.4-0.9-0.8-1.9-1.3-2.9c-0.1,0-0.2-0.1-0.3-0.1c-0.1,0.2-0.2,0.5-0.4,0.7c-2.2,2.2-4.8,3.5-7.9,3.9c-2.9,0.3-5.7,0.1-8.4-1.1
		c-4-1.8-6.7-4.8-8-9c-0.6-2-0.7-4-0.7-6c0.1-2.9,0.7-5.6,2-8.1c2.2-4.4,5.8-6.9,10.6-7.6c4.3-0.7,8.3,0.3,11.7,3.1
		c0.4,0.4,0.8,0.8,1.3,1.2c0.3-0.7,0.5-1.3,0.7-1.9c0.2-0.6,0.3-1.3,0.5-2c0.3,0,0.6,0,1,0c0,1.8,0.1,3.5,0.1,5.2c0.1,2,0.1,4,0.2,6
		c0,0.2,0.1,0.5-0.3,0.5c-0.3,0-0.7,0.2-0.9-0.4c-0.3-1.2-0.5-2.4-0.9-3.5c-1.4-4.1-4.3-6.4-8.4-7.2c-2.4-0.4-4.7-0.1-6.8,1.2
		c-2,1.2-3.3,3-4.1,5.2c-1,2.5-1.4,5.1-1.4,7.7c-0.1,2.4,0,4.7,0.7,7c1,3.7,3.1,6.5,6.7,7.9c2.5,1,5.1,0.7,7.6-0.2
		c3.2-1.1,4.9-3.6,5.9-6.6c0.4-1,0.6-2.1,0.8-3.1C277.1,128.9,277.2,128.7,277.2,128.6z"/>
	<path d="M460.9,139.4c-0.3,0-0.6,0-0.9,0c-0.5-1.1-1-2.1-1.5-3.3c-0.7,0.6-1.2,1.2-1.8,1.6c-1.9,1.6-4.1,2.5-6.5,2.8
		c-2.8,0.3-5.5,0.2-8.1-0.8c-4.8-1.9-7.8-5.4-8.9-10.4c-0.3-1.6-0.5-3.3-0.4-4.9c0.2-4.6,1.5-8.7,4.9-12c2-2,4.6-3.1,7.4-3.6
		c2.4-0.4,4.8-0.4,7.1,0.4c2.4,0.8,4.5,2,6.2,3.9c0.7-1.2,1-2.6,1.2-3.9c0.1,0,0.1-0.1,0.1-0.1c0.9,0,0.9,0,0.9,0.9
		c0.1,3.4,0.1,6.9,0.2,10.3c0,0.2,0,0.4,0,0.6c-0.4,0-0.7,0-0.9,0c-0.3-1.3-0.6-2.5-1-3.8c-1.4-4.1-4.3-6.5-8.6-7.2
		c-2.9-0.5-5.6,0.1-7.9,2.1c-1.8,1.6-2.9,3.7-3.6,6c-0.8,2.9-1,5.8-0.8,8.8c0.2,2.3,0.5,4.5,1.5,6.6c1.5,3,3.7,5.1,7,5.8
		c3.5,0.8,6.8,0,9.6-2.4c1.3-1.1,2.1-2.7,2.7-4.3c0.4-1.1,0.7-2.2,0.9-3.3c0.1-0.6,0.4-0.7,0.8-0.6c0.1,0,0.2,0,0.3,0.1
		C460.9,132.2,460.9,135.7,460.9,139.4z"/>
	<path d="M299.6,117c0-0.3,0-0.5,0-0.8c3.6,0,7.2,0,10.8,0c0,0.2,0,0.5,0,0.8c-0.7,0.1-1.3,0.1-2,0.2c-0.9,0.1-1.3,0.6-1.4,1.4
		c-0.1,1-0.1,2-0.2,3.1c0,4.3,0,8.7,0,13c0,1,0,1.9,0.1,2.9c0.1,1.1,0.8,1.6,1.9,1.7c0.5,0,0.9,0.1,1.4,0.1c0,0.2,0,0.5,0,0.7
		c-3.6,0-7.2,0-10.8,0c0-0.2,0-0.4,0-0.7c0.6,0,1.1-0.1,1.7-0.1c1.3-0.1,1.9-0.7,2-2c0.1-2.9,0.1-5.8,0.1-8.8c0-0.1,0-0.2,0-0.3
		c-4.1,0-8.2,0-12.4,0c0,0.6,0,1.1,0,1.6c0,2.3,0,4.5,0,6.8c0,0.4,0.1,0.8,0.1,1.2c0.2,0.9,0.9,1.4,1.9,1.4c0.5,0,1,0.1,1.6,0.1
		c0,0.2,0,0.5,0,0.7c-3.6,0-7.2,0-10.8,0c0-0.2,0-0.5,0-0.7c0.5,0,1.1-0.1,1.6-0.1c1.3-0.1,2-0.8,2-2c0-5.6,0.1-11.2,0.1-16.8
		c0-0.5,0-1.1-0.1-1.6c-0.3-1.5-0.7-1.6-2.1-1.8c-0.5-0.1-0.9,0-1.4,0c0-0.3,0-0.5,0-0.8c3.6,0,7.2,0,10.8,0c0,0.2,0,0.5,0,0.8
		c-0.7,0.1-1.4,0.1-2.1,0.2c-0.9,0.1-1.3,0.6-1.4,1.5c-0.1,1-0.1,2-0.1,3c0,1.7,0,3.5,0,5.2c4.2,0,8.3,0,12.4,0c0-0.2,0-0.4,0-0.6
		c0-2,0-3.9,0-5.9c0-0.6,0-1.2-0.1-1.8c-0.1-1-0.8-1.5-2.1-1.6C300.6,117,300.1,117,299.6,117z"/>
	<path d="M136.3,128.8c0,0.5,0,0.9,0,1.4c0,2,0,4,0,6c0,0.5,0,1,0.1,1.5c0.1,0.7,0.5,1.2,1.2,1.4c0.5,0.1,0.9,0.2,1.4,0.2
		s0.9,0,1.4,0c0,0.3,0,0.5,0,0.8c-3.8,0-7.6,0-11.4,0c0-0.3,0-0.5,0-0.8c0.7-0.1,1.4-0.1,2.1-0.2c1-0.1,1.6-0.8,1.6-1.8
		c0-5.7,0.1-11.4,0.1-17.1c0-0.5,0-1.1-0.1-1.6c-0.1-0.9-0.7-1.4-1.7-1.5c-0.3,0-0.6-0.1-0.9-0.1c-0.3,0-0.6,0-0.9,0
		c0-0.3,0-0.5,0-0.8c0.2,0,0.3-0.1,0.5-0.1c3.2-0.1,6.3-0.2,9.5-0.2c2,0,3.9,0.2,5.7,1.2c2.2,1.2,3.6,2.9,3.3,5.6
		c-0.2,2.4-1.6,3.9-3.8,4.7c-0.9,0.3-1.8,0.5-2.7,0.8c0.2,0.2,0.5,0.4,0.8,0.6c1.7,1.5,2.9,3.2,4.3,5c0.8,1.1,1.7,2.1,2.6,3.1
		c1.3,1.5,2.9,2.3,4.8,2.4c0,0.3,0,0.6,0,0.9c-1.6,0-3.1-0.1-4.6,0c-1.6,0.2-2.6-0.6-3.5-1.7c-1.7-2.3-3.4-4.5-5.2-6.8
		c-0.5-0.6-1-1.2-1.5-1.8C138.7,128.8,137.6,128.6,136.3,128.8z M136.3,127.8c1.8-0.1,3.6,0,5.2-0.6c1.2-0.4,2-1.1,2.4-2.3
		c0.7-1.7,0.6-3.4,0.1-5c-0.4-1.4-1.4-2.4-2.9-2.8c-1.5-0.4-3-0.4-4.5-0.4c-0.4,0-0.4,0.2-0.4,0.5c0,2.1,0,4.3,0,6.4
		C136.3,125.1,136.3,126.4,136.3,127.8z"/>
	<path d="M9.4,110.1c0-0.4,0-0.7,0-1c4.8,0,9.5,0,14.3,0c0,0.3,0,0.6,0,1c-0.8,0-1.5,0.1-2.3,0.1c-1.5,0.1-2.3,0.6-2.4,2.3
		c-0.1,1.3-0.2,2.7-0.2,4c0,4.8,0,9.5-0.1,14.3c0,2.1-0.3,4.2-1.6,6.1c-1.4,2.1-3.3,3.5-5.8,4.1c-2.4,0.7-4.9,0.7-7.4,0.1
		c-1.4-0.4-2.5-1-3.3-2.2c-1-1.5-0.6-3.3,0.8-4c1-0.5,1.8-0.3,2.6,0.3c0.7,0.5,0.9,1.5,0.6,2.4c-0.1,0.3-0.2,0.6-0.3,0.9
		c-0.2,0.5,0,1.1,0.4,1.3c0.5,0.3,1,0.5,1.6,0.6c4.5,0.6,7.3-3,7.5-5.9c0.1-2.1,0.3-4.1,0.3-6.2c0-4.5,0-9,0-13.5
		c0-0.9-0.1-1.8-0.2-2.6c-0.2-1.3-1-1.9-2.3-2C11,110.2,10.2,110.1,9.4,110.1z"/>
	<path d="M112.5,115.8c3.7,0,6.8,0.9,9.4,3.2c2.2,1.9,3.5,4.3,3.8,7.2c0.2,2.2,0.2,4.3-0.6,6.4c-1.1,3.1-3.2,5.4-6.2,6.7
		c-4.1,1.8-8.3,1.8-12.3-0.1c-3.4-1.6-5.6-4.3-6.4-8.1c-0.5-2.5-0.4-5.1,0.4-7.5c0.9-2.7,2.8-4.7,5.3-6.1
		C108.1,116.3,110.4,115.8,112.5,115.8z M121.8,128.1c-0.1-1.9-0.2-3.9-0.9-5.7c-0.8-2.2-2.1-4-4.3-5c-1.7-0.8-3.5-0.8-5.4-0.6
		c-2.5,0.3-4.4,1.6-5.7,3.8c-0.9,1.7-1.3,3.5-1.5,5.4c-0.2,2.4-0.2,4.9,0.5,7.3c0.6,2.2,1.6,4,3.6,5.2c1.4,0.9,3,1.1,4.6,1.2
		c3.5,0.1,6.4-1.7,7.8-4.8C121.6,132.7,121.8,130.5,121.8,128.1z"/>
	<path d="M479.7,115.7c3.1,0.1,6,0.9,8.5,2.7c2.5,1.9,4,4.4,4.4,7.5c0.4,2.7,0.2,5.4-1.1,7.9c-1.8,3.5-4.6,5.6-8.4,6.4
		c-3,0.6-5.9,0.5-8.8-0.7c-4-1.7-6.6-4.6-7.3-9c-0.5-3.3-0.2-6.5,1.7-9.4c1.8-2.7,4.4-4.3,7.5-5
		C477.3,115.9,478.5,115.9,479.7,115.7z M470.8,128.4c-0.1,1.4,0.1,3.1,0.6,4.8c0.7,2.5,2,4.6,4.5,5.7c1.5,0.6,3,0.8,4.6,0.7
		c3.3-0.1,5.6-1.8,7-4.7c0.7-1.5,1-3.1,1.1-4.8c0.2-2.6,0.1-5.1-0.7-7.6c-0.7-2.2-2-4-4.2-5.1c-1.7-0.8-3.6-0.9-5.5-0.7
		c-2.9,0.4-4.9,1.9-6.1,4.6C471.1,123.5,470.8,125.8,470.8,128.4z"/>
	<path d="M232.8,140.6c-0.5,0.2-0.8,0-1.1-0.4c-3.9-5.2-7.9-10.4-11.9-15.6c-1.4-1.9-2.8-3.8-4.2-5.6c-0.1-0.2-0.3-0.4-0.5-0.6
		c0,0.3,0,0.5,0,0.6c0,5.4,0,10.8,0,16.2c0,0.7,0,1.3,0.1,2c0.1,0.9,0.9,1.7,2,2c0.7,0.2,1.3,0.2,2,0.3c0,0.2,0,0.5,0,0.7
		c-2.9,0-5.8,0-8.8,0c0-0.3,0-0.5,0-0.8c0.6-0.1,1.2-0.2,1.8-0.4c0.3-0.1,0.7-0.3,1-0.4c0.9-0.5,1-1.4,1-2.3c0-3.2,0-6.5,0-9.7
		c0-1.9,0-3.8,0-5.7c0-0.8-0.1-1.6-0.3-2.4c-0.2-0.9-0.7-1.2-1.6-1.2c-0.5,0-1-0.1-1.6-0.1c0-0.2,0-0.5,0-0.8c0.2,0,0.4,0,0.6,0
		c2,0,3.9,0,5.9,0c0.5,0,0.7,0.1,1,0.5c3.3,4.4,6.6,8.8,9.9,13.2c1.1,1.5,2.3,3,3.4,4.5c0.1,0.1,0.2,0.2,0.4,0.4c0-1.2,0-2.3,0-3.4
		c0-3.5,0-7,0-10.5c0-0.6-0.1-1.2-0.1-1.8c-0.1-0.8-0.6-1.3-1.4-1.6c-0.8-0.2-1.6-0.4-2.5-0.6c0-0.2,0-0.4,0-0.7c0.2,0,0.4,0,0.6,0
		c2.5,0,5,0,7.5,0c0.3,0,0.6-0.1,0.6,0.4c0,0.4-0.2,0.5-0.5,0.6c-0.3,0-0.6,0.1-0.9,0.1c-1.6,0.4-2.2,1.2-2.2,2.9
		c0,6.6,0,13.2,0,19.8C232.8,140.2,232.8,140.4,232.8,140.6z"/>
	<path d="M176.1,119.2c0.2-0.8,0.5-1.7,0.7-2.6c0.2,0,0.5,0,0.7,0c0,2.6,0,5.3,0,7.9c-0.2,0-0.5,0-0.8,0c-0.1-0.5-0.2-1-0.4-1.5
		c-0.8-2.8-2.4-4.9-5.2-5.8c-4.6-1.6-9.5,0.9-10.6,5.8c-0.5,2.3-0.6,4.7-0.5,7.1c0.1,1.8,0.4,3.6,1.1,5.2c1.3,2.8,3.6,4.3,6.7,4.4
		c1.1,0.1,2.2-0.1,3.3-0.5c2-0.8,3-2.2,3-4.3c0-0.9-0.1-1.8-0.2-2.7c-0.1-0.9-0.6-1.2-1.5-1.3c-0.6,0-1.2-0.1-1.8-0.2
		c0-0.2,0-0.4,0-0.7c3.4,0,6.8,0,10.3,0c0,0.2,0,0.5,0,0.7c-0.6,0.1-1.2,0.1-1.7,0.2c-0.8,0.2-1.3,0.7-1.4,1.5
		c-0.1,1.5-0.1,3.1-0.2,4.6c0,0.5,0,1,0,1.6c-1.8-0.1-3.3,0.5-4.9,1c-1.7,0.6-3.5,1-5.3,0.9c-5.7-0.1-10.3-4-11.3-9.1
		c-0.9-4.5,0.2-8.6,3.3-12.1c1.8-2,4-3.1,6.7-3.4c2.4-0.3,4.8-0.1,7,1.1C174.2,117.7,175.1,118.5,176.1,119.2z"/>
	<path d="M377.9,116.2c0.2,2,0.4,3.9,0.6,5.9c-0.6,0.3-0.8,0-1-0.6c-0.3-1-0.6-1.9-1.1-2.8c-0.6-1-1.6-1.5-2.8-1.6
		c-2-0.1-4-0.1-6-0.2c0,3.4,0,6.6,0,10c0.9,0,1.8,0,2.7,0c0.6,0,1.1-0.1,1.7-0.2c1-0.2,1.5-0.8,1.5-1.8c0-0.5,0.1-1,0.1-1.5
		c0.2,0,0.5,0,0.7,0c0,2.7,0,5.4,0,8.1c-0.2,0-0.4,0-0.7,0c-0.1-0.7-0.1-1.3-0.2-2c-0.2-1.1-0.6-1.5-1.7-1.6
		c-1.4-0.1-2.7-0.1-4.1-0.2c0,0.3,0,0.4,0,0.6c0,2.2,0,4.5,0,6.7c0,1,0.2,2,0.3,2.9c0.1,0.5,0.4,0.8,0.8,0.9c0.3,0.1,0.7,0.2,1,0.3
		c1.9,0.1,3.8,0.2,5.7-0.2c1.6-0.4,2.6-1.7,3.3-3c0.4-0.8,0.7-1.7,1-2.6c0.2-0.7,0.2-0.7,1-0.6c0,0.8-0.1,1.6-0.1,2.4
		c-0.1,1.5-0.2,2.9-0.3,4.4c0,0.3,0,0.6-0.5,0.6c-6.3,0-12.6,0-19,0c-0.1,0-0.2,0-0.3,0c0-0.2,0-0.4,0-0.7c0.5,0,1-0.1,1.5-0.1
		c1.2-0.1,2-0.8,2-2.1c0-5.5,0.1-11,0.1-16.4c0-0.7,0-1.3-0.1-2c-0.1-1.1-0.8-1.6-2.1-1.7c-0.3,0-0.6,0-1,0c0-0.3,0-0.5,0-0.8
		C366.5,116.2,372.2,116.2,377.9,116.2z"/>
	<path d="M342.2,137.5c-0.2,0.6-0.4,1.1-0.6,1.6c-0.2,0.7-0.2,0.8-1.1,0.6c0-0.2,0-0.3,0-0.5c0-2.2,0-4.4,0-6.6
		c0-0.2-0.1-0.5,0.3-0.6c0.3,0,0.6,0,0.7,0.4c0.3,1.6,0.9,3.2,1.9,4.5c1.5,2.1,3.6,2.8,6.1,2.5c1.8-0.2,3.1-1.1,3.9-2.8
		c0.8-1.7,0.3-4-1.3-5.2c-1.5-1.1-3.2-1.8-4.9-2.6c-1.3-0.6-2.7-1.2-3.8-2.1c-2.7-2-3.7-6-1.4-8.8c1.1-1.3,2.4-2.1,4.1-2.3
		c1.8-0.2,3.6,0.1,5.1,1.1c0.5,0.4,1,0.8,1.6,1.3c0.3-0.7,0.6-1.3,0.9-2.1c0.1,0,0.4,0,0.6,0c0,2,0,4.1,0,6.1c-0.3,0-0.5,0-0.6,0
		c-0.5-1-0.9-2.1-1.5-3c-1.1-1.7-2.8-2.6-4.8-2.8c-2.2-0.1-3.8,1-4.2,3c-0.3,1.5,0.3,2.6,1.4,3.6c1.4,1.2,3,1.9,4.6,2.6
		c1.5,0.7,3,1.4,4.4,2.2c1.9,1.2,2.8,3,2.9,5.2c0.1,2-0.4,3.8-1.9,5.3c-1.3,1.2-2.9,1.8-4.6,1.9c-2.2,0.2-4.2-0.2-6-1.5
		C343.3,138.5,342.8,138.1,342.2,137.5z"/>
	<path d="M190,139.3c0,0.3,0,0.5,0,0.8c-2.4,0-4.7,0-7.1,0c-0.2-0.8-0.2-0.8,0.5-0.9c0.9-0.2,1.6-0.6,2.1-1.4c0.7-1.3,1.3-2.6,1.9-4
		c2-4.7,4-9.5,6-14.2c0.5-1.2,1-2.4,1.5-3.6c0.5-0.2,0.8,0,1,0.5c2.9,6.9,5.8,13.7,8.7,20.6c0.6,1.5,0.9,1.7,2.9,2.2
		c0.1,0.8,0.1,0.8-0.6,0.8c-2.7,0-5.4,0-8.1,0c-0.2,0-0.4,0-0.6,0c0-0.3,0-0.5,0-0.8c0.6-0.1,1.1-0.1,1.7-0.2c1-0.1,1.4-0.7,1.1-1.7
		c-0.8-2-1.6-4-2.4-5.9c-0.1-0.1-0.3-0.3-0.4-0.3c-2.8,0-5.6,0-8.3,0c-0.2,0-0.4,0.1-0.5,0.3c-0.6,1.7-1.3,3.3-1.8,5
		s0.7,2.6,2.1,2.7C189.7,139.3,189.8,139.3,190,139.3z M193.9,120.3c-1.4,3.4-2.8,6.7-4.1,10c2.8,0,5.5,0,8.3,0
		C196.7,127,195.3,123.7,193.9,120.3z"/>
	<path d="M337.4,139.2c0,0.3,0,0.5,0,0.8c-3.1,0-6.2,0-9.4,0c0-0.2,0-0.4,0-0.7c0.6-0.1,1.3-0.1,1.9-0.2c0.9-0.2,1.2-0.7,0.9-1.6
		c-0.6-1.6-1.4-3.1-1.9-4.8c-0.4-1.3-1.1-1.6-2.3-1.5c-2.3,0.1-4.6,0-6.9,0c-0.3,0-0.5,0-0.6,0.3c-0.5,1.5-1.1,2.9-1.6,4.4
		c-0.1,0.2-0.1,0.4-0.2,0.6c-0.2,1.6,0.5,2.4,2.1,2.6c0.1,0,0.2,0.1,0.4,0.1c0,0.1,0,0.3,0,0.4s0,0.2,0,0.3c-2.4,0-4.7,0-7.1,0
		c-0.1-0.5-0.2-0.8,0.5-0.9c1.2-0.2,2.1-1,2.6-2.1c1-2.4,2.1-4.7,3.1-7.1c1.9-4.6,3.8-9.1,5.8-13.7c0.1-0.2,0.3-0.3,0.5-0.3
		c0.3-0.1,0.4,0.2,0.5,0.4c2.3,5.5,4.6,11,6.9,16.5c0.5,1.3,1.1,2.6,1.7,3.9C334.9,138.1,335.7,139.2,337.4,139.2z M323.8,120.3
		c-1.4,3.4-2.7,6.7-4.1,10c2.8,0,5.5,0,8.2,0C326.6,127,325.2,123.7,323.8,120.3z"/>
	<path d="M497.4,135.6c1.4,0,2.6,1.2,2.6,2.6c0,1.5-1.1,2.6-2.6,2.6c-1.4,0.1-2.6-1.2-2.6-2.6C494.8,136.6,495.9,135.6,497.4,135.6z
		"/>
</g>
</svg>
