<?xml version="1.0" encoding="UTF-8" standalone="no"?>
<!-- Generator: Adobe Illustrator 21.1.0, SVG Export Plug-In . SVG Version: 6.00 Build 0)  -->

<svg
   xmlns:dc="http://purl.org/dc/elements/1.1/"
   xmlns:cc="http://creativecommons.org/ns#"
   xmlns:rdf="http://www.w3.org/1999/02/22-rdf-syntax-ns#"
   xmlns:svg="http://www.w3.org/2000/svg"
   xmlns="http://www.w3.org/2000/svg"
   xmlns:sodipodi="http://sodipodi.sourceforge.net/DTD/sodipodi-0.dtd"
   xmlns:inkscape="http://www.inkscape.org/namespaces/inkscape"
   version="1.1"
   id="Layer_1"
   x="0px"
   y="0px"
   viewBox="0 0 500 500"
   style="enable-background:new 0 0 500 500;"
   xml:space="preserve"
   sodipodi:docname="KSF_Technologies-day.svg"
   inkscape:version="0.92.3 (2405546, 2018-03-11)"><metadata
   id="metadata49"><rdf:RDF><cc:Work
       rdf:about=""><dc:format>image/svg+xml</dc:format><dc:type
         rdf:resource="http://purl.org/dc/dcmitype/StillImage" /><dc:title></dc:title></cc:Work></rdf:RDF></metadata><defs
   id="defs47" /><sodipodi:namedview
   pagecolor="#003366"
   bordercolor="#666666"
   borderopacity="1"
   objecttolerance="10"
   gridtolerance="10"
   guidetolerance="10"
   inkscape:pageopacity="1"
   inkscape:pageshadow="2"
   inkscape:window-width="2736"
   inkscape:window-height="1719"
   id="namedview45"
   showgrid="false"
   inkscape:zoom="2.6700352"
   inkscape:cx="340.84688"
   inkscape:cy="331.2805"
   inkscape:window-x="-13"
   inkscape:window-y="-13"
   inkscape:window-maximized="1"
   inkscape:current-layer="Layer_1" />
<style
   type="text/css"
   id="style2">
	.st0{fill:#243466;}
	.st1{fill:#ffffff;}
</style>
<g
   id="g42">
	<g
   id="g36">
		<path
   class="st0"
   d="M174.6,158.6c6.7,0,13.2,0,20,0c0,13.7,0,27.2,0,41.3c1.3-0.8,2.2-1.3,3-1.9c15.7-12.7,31.4-25.5,47.2-38.2    c1-0.8,2.5-1.3,3.8-1.4c5.9-0.1,11.9-0.1,17.8,0c0.7,0,1.4,0.1,2.7,0.1c-17.9,14.5-35.3,28.6-53.1,43.1    c20.9,15.8,41.4,31.3,62.5,47.3c-1.4,0.1-2.2,0.2-2.9,0.2c-7.5,0-15.1,0.1-22.6-0.1c-1.2,0-2.7-0.5-3.7-1.2    c-15.7-12.1-31.3-24.2-47-36.3c-2.3-1.8-4.7-3.5-7.6-5.6c0,14.8,0,28.9,0,43.1c-6.9,0-13.4,0-20.1,0    C174.6,218.8,174.6,188.7,174.6,158.6z"
   id="path4"
   style="fill:#ffffff" />
		<path
   class="st0"
   d="M384.3,160.7c0,4.9,0,9.5,0,14.3c-6.6-1.5-13-3-19.5-4.3c-14.5-2.9-29-4.1-43.5,0.2    c-13.9,4.1-21.4,13.9-23.5,27.9c-1.5,10.1,0.6,19.4,7.5,27.2c6.2,7,14.3,10.6,23.4,12.2c17.6,3,34.7,0.6,51.3-5.7    c1.4-0.5,2.8-1,4.6-1.6c0,4.3,0.1,8.2-0.1,12.2c0,0.6-1.2,1.5-2,1.8c-10.9,3.8-22.1,5.6-33.6,6.2c-12.7,0.6-25.4,0.1-37.8-3.2    c-12.5-3.3-22.7-9.8-29.9-20.8c-9.6-14.6-8.2-37,3.1-50.4c9.1-10.7,21-15.8,34.5-18.2c17.1-3.1,34.2-2,51.3,0.3    C375,159.2,379.6,160,384.3,160.7z"
   id="path6"
   style="fill:#ffffff" />
		<path
   class="st0"
   d="M404.9,158.6c25.6,0,51,0,76.5,0c0,3.9,0,7.7,0,11.7c-18.6,0-37,0-55.6,0c0,9,0,17.8,0,26.8    c15.6,0,31.1,0,46.9,0c0,4,0,7.8,0,11.8c-15.6,0-31.1,0-47,0c0,13.5,0,26.8,0,40.1c-7.1,0-13.8,0-20.8,0    C404.9,218.8,404.9,188.8,404.9,158.6z"
   id="path8"
   style="fill:#ffffff" />
		<path
   class="st0"
   d="M390.9,335.8c1.8-3.2,4.6-0.9,6.9-1.8c0.1,0.8,0.3,1.4,0.3,1.9c0,5.8,0.1,11.7,0,17.5    c-0.2,8.5-2.7,11.5-11.2,12.9c-5.9,0.9-11.8,0.6-17.9-0.5c0.3-1.3,0.5-2.4,0.7-3.6c2.8,0.4,5.4,0.9,8.1,1.1    c2.3,0.2,4.6,0.1,6.8-0.1c5.3-0.6,7.6-4.1,6.4-9.7c-0.6,0.4-1.1,0.7-1.7,1c-5.5,3.5-11.4,3.6-17.2,1.1c-3.9-1.6-5.9-5-6.1-9.2    c-0.3-4.6,1.8-8.1,5.7-10.3C378,332.4,384.4,332.9,390.9,335.8z M391.2,344.8c0-1.3,0.1-2.5,0-3.8c0-0.5-0.2-1.3-0.6-1.5    c-3.7-2.7-10.9-3.5-14.5-0.4c-2.5,2.2-3.2,5.1-2.7,8.3c0.5,2.8,1.9,5.1,4.8,5.5c2.3,0.3,4.8,0.3,7-0.3    C390.6,351.2,391.2,350.2,391.2,344.8z"
   id="path10"
   style="fill:#ffffff" />
		<path
   class="st0"
   d="M214.9,357.5c-2.3,0-4.3,0-6.6,0c-0.1-0.8-0.2-1.5-0.2-2.2c0-4.4,0-8.8,0-13.2c0-3.4-1.1-4.7-4.4-4.8    c-4.1-0.1-7.6,1.4-10.5,4.3c-0.5,0.5-0.6,1.5-0.6,2.3c-0.1,4.4,0,8.8,0,13.4c-2.3,0-4.5,0-6.9,0c0-5.6,0-11.2,0-16.7    c0-5.6,0-11.2,0-17c2.3,0,4.4,0,6.8,0c0,4.5,0,9,0,14c1.2-0.7,1.9-1.1,2.7-1.5c4.7-2.7,9.7-3.4,14.9-1.8c2.8,0.9,4.8,2.8,4.9,5.8    C215,346,214.9,351.6,214.9,357.5z"
   id="path12"
   style="fill:#ffffff" />
		<path
   class="st0"
   d="M342.6,358.7c-5.2-0.6-10.1-1.2-13.9-5.1c-5.1-5.2-4.3-13.7,2.1-17.2c7.5-4.2,15.4-4.1,23.1-0.1    c3.8,2,5.6,5.6,5.5,9.9c-0.2,4.5-2.4,8-6.5,9.8C349.6,357.4,346,357.9,342.6,358.7z M342.2,354.7c6.7,0,10-3.2,9.8-9.5    c-0.1-4.3-2.6-7.1-6.8-8c-5.4-1.1-10.2,0.7-11.8,4.6c-0.1,0.3-0.3,0.6-0.4,0.9C331,349.6,334.9,354.7,342.2,354.7z"
   id="path14"
   style="fill:#ffffff" />
		<path
   class="st0"
   d="M282.1,358.6c-3-0.7-6.1-1-9-2c-4.9-1.7-7.7-5.8-7.7-10.6c0-5.3,2.8-8.9,7.5-10.7c6.4-2.5,13-2.4,19.3,0.1    c4.6,1.8,7.4,6.5,7.1,11c-0.2,4.7-3.6,9-8.4,10.4C288.2,357.6,285.2,358,282.1,358.6z M282.7,354.7c2.8,0.1,6-0.6,8-3.7    c1.9-3.1,2-6.5,0.3-9.7c-2.1-3.9-5.9-4.4-9.9-4.2c-3.4,0.2-6.2,1.4-7.7,4.7c-0.1,0.2-0.2,0.5-0.3,0.7    C270.9,349.3,274.8,354.6,282.7,354.7z"
   id="path16"
   style="fill:#ffffff" />
		<path
   class="st0"
   d="M256.1,357.5c-2.4,0-4.5,0-6.8,0c0-5.1-0.2-9.9,0.1-14.8c0.2-4.4-1.6-5.4-6-5.2c-1.4,0.1-2.8,0.5-4.2,1    c-4.2,1.6-5.5,3.5-5.5,7.9c0,3.6,0,7.3,0,11.1c-2.3,0-4.5,0-6.7,0c0-7.6,0-15.2,0-23c2.1,0,4.3,0,6.6,0c0.1,1,0.2,1.9,0.4,3.3    c0.8-0.5,1.4-0.8,2-1.2c4.8-2.9,9.9-3.8,15.3-2c2.8,0.9,4.8,2.8,4.9,5.8C256.3,346,256.1,351.6,256.1,357.5z"
   id="path18"
   style="fill:#ffffff" />
		<path
   class="st0"
   d="M140.7,346.6c-7.4,0-14.6,0-21.9,0c0.2,3,1.3,5,3.7,6.4c3.3,1.9,6.9,2.2,10.6,1.9c2.5-0.2,5-0.5,7.6-0.8    c0,1.1,0,2,0,3.2c-7.8,0.9-15.6,2.5-22.9-2c-8.2-5.1-7.8-15.2,0.7-19.8c5.3-2.9,14.3-2.4,18.6,1    C140.2,339,141.2,342.3,140.7,346.6z M133.9,342.9c-0.2-4.1-2.3-5.8-7-5.8c-4.7,0-7.3,2-7.5,5.8    C124.2,342.9,129,342.9,133.9,342.9z"
   id="path20"
   style="fill:#ffffff" />
		<path
   class="st0"
   d="M455.4,346.5c-7.3,0-14.5,0-21.6,0c-0.3,4.2,2.8,7.6,7.8,8.1c3.6,0.3,7.2,0,10.8-0.1c0.9,0,1.8-0.2,3-0.4    c0,1.1,0,2.1,0,3.2c-6.4,1-12.9,1.8-19.3-0.2c-5.3-1.7-9.2-6.1-9.4-10.5c-0.2-5.4,3.2-10.1,8.8-11.9c4-1.3,8.2-1.4,12.3-0.2    C453.5,336.1,456,340,455.4,346.5z M448.7,342.9c-0.5-4.2-2.4-5.7-7-5.8c-4.6-0.1-7.1,1.7-7.8,5.8    C438.8,342.9,443.7,342.9,448.7,342.9z"
   id="path22"
   style="fill:#ffffff" />
		<path
   class="st0"
   d="M486.5,333.9c0,1.7,0,2.7,0,3.9c-2.4-0.3-4.7-0.7-7-0.9c-1.8-0.1-3.6,0-5.3,0.4c-0.9,0.3-2,1.4-2.2,2.3    c-0.1,0.6,1.1,1.9,1.9,2.2c2.7,1,5.5,1.7,8.2,2.7c1.7,0.6,3.3,1.3,4.8,2.3c2.8,2,3.1,5.8,0.4,7.8c-2.2,1.6-4.9,2.9-7.6,3.1    c-4.3,0.4-8.6-0.1-12.9-0.4c-2.7-0.2-1.3-2.3-1.5-3.8c3.2,0.4,6.2,1,9.2,1.2c1.9,0.1,3.9-0.2,5.7-0.7c0.9-0.3,2.1-1.6,2.1-2.5    c0-0.9-1.1-2.1-2-2.5c-2.2-1-4.5-1.4-6.7-2.2c-1.8-0.6-3.7-1.2-5.4-2.2c-3.8-2.2-3.8-6.5-0.1-8.8c1.4-0.9,3.1-1.7,4.7-1.8    C477.3,333.8,481.8,333.9,486.5,333.9z"
   id="path24"
   style="fill:#ffffff" />
		<path
   class="st0"
   d="M176.2,357.2c-6.6,0.8-13.2,2-19.6-0.9c-5.2-2.3-7.8-6.2-7.6-11.5c0.2-4.6,3.5-8.5,8.7-10.1    c6-1.9,12-1.2,18.2-0.6c0,1.3,0,2.4,0,2.9c-4,0-7.9-0.3-11.7,0.1c-6.8,0.8-10.2,8.9-6,14.1c2.7,3.3,6.6,4,10.6,3.6    c2.4-0.2,4.8-0.7,7.4-1.2C176.2,354.7,176.2,355.9,176.2,357.2z"
   id="path26"
   style="fill:#ffffff" />
		<path
   class="st0"
   d="M105.9,354.6c0.7,2.4,0.2,3.6-2.3,3.5c-2.7-0.2-5.4,0-8-0.7c-3.5-0.8-5.1-3.2-5.1-6.9c0-3.4-0.1-6.8,0-10.2    c0.1-2.2-0.4-3.5-2.9-3c-0.4,0.1-0.8-0.1-1.4-0.1c0-0.9,0-1.8,0-2.9c0.8,0,1.6-0.2,2.4-0.1c1.4,0.1,2.1-0.5,1.9-1.9    c-0.3-1.9,0.7-2.5,2.5-2.5c1.3,0.1,2.5,0,4,0c0.1,1.3,0.2,2.7,0.4,4.3c3,0,5.8,0,8.8,0c0,1.1,0,2,0,3.2c-2.9,0-5.7,0-8.8,0    c0,5-0.2,9.8,0.1,14.6c0.1,2.2,2.8,3.3,5.9,3.1C104.1,354.9,105,354.7,105.9,354.6z"
   id="path28"
   style="fill:#ffffff" />
		<path
   class="st0"
   d="M308.9,323.6c2.3,0,4.3,0,6.6,0c0,11.3,0,22.4,0,33.8c-2.1,0-4.3,0-6.6,0C308.9,346.2,308.9,335,308.9,323.6z    "
   id="path30"
   style="fill:#ffffff" />
		<path
   class="st0"
   d="M410,357.5c0-7.8,0-15.4,0-23.2c2.2,0,4.3,0,6.6,0c0,7.7,0,15.4,0,23.2C414.4,357.5,412.3,357.5,410,357.5z"
   id="path32"
   style="fill:#ffffff" />
		<path
   class="st0"
   d="M410,330.2c0-1.7,0-3,0-4.6c1.2,0,2.2,0,3.3,0c1.1,0,2.1,0,3.3,0c0,1.6,0,2.9,0,4.6c-1.1,0-2.1,0-3.2,0    C412.4,330.2,411.3,330.2,410,330.2z"
   id="path34"
   style="fill:#ffffff" />
	</g>
	<g
   id="g40">
		<path
   class="st1"
   d="M498.2,288.8c-14.5,0.6-29,0.9-43.4,1.2c-34.4,0.6-68.8,1-103.2,1c-28,0-56.1-0.6-84.1-1.2    c-17.5-0.4-35-1.1-52.5-2c-7.8-0.4-15.6-0.6-23.3-1.3c-9.2-0.8-16.8,2.7-23.7,8.3c-5.2,4.1-9.8,9-15.5,12.5c-2.9,1.8-6,3-9.6,2.2    c-5.3-1.1-8.6-4.8-10.3-9.5c-3.5-9.4-4.7-19.3-5.3-29.2c-1.4-20.9-1.1-41.8-0.7-62.7c0.3-16,0.4-32,0.2-48c0-3.9-0.2-7.8-0.8-11.6    c-0.1-0.6,0-1.5-0.8-1.7c-0.9-0.1-0.9,0.8-1.2,1.4c-3.8,8.9-7,18.1-10,27.3c-3.3,10.3-6.6,20.5-9.8,30.8    c-4,13.1-7.9,26.3-11.9,39.4c-4.5,15-9,30-13.6,45c-4.7,15.3-10,30.4-16.4,45.1c-3.8,8.7-7.5,17.5-12.5,25.6    c-2.9,4.7-6.4,8.9-12.2,10.1c-4.8,1-10.3-2.4-11.7-7.1c-2.3-7.7-2.3-15.4-2-23.3c0.4-10.5,0.5-21-1.5-31.4    c-2-10.6-8.2-17.6-18.8-20.2c-0.4-0.1-0.9-0.1-1.1-0.8c3-1.1,5.9-0.7,8.9-0.1c10.4,1.9,16,9,19.3,18.3c2.5,6.9,3.7,14,4.2,21.3    c0.5,8.3,0.8,16.6,1,24.9c0,1.3,0.4,2.5,0.5,3.8c0.1,0.5,0.2,1.1,0.7,1.2c0.6,0.2,0.8-0.5,1.1-0.9c2.8-3.4,4.7-7.4,6.6-11.3    c4.6-9.9,8.9-20,12.7-30.2c3.6-9.6,6.8-19.4,9.9-29.2c3-9.6,6.1-19.1,8.8-28.7c4-14.1,8.4-28.1,12.6-42.1    c3.5-11.7,7.2-23.3,10.8-35c3.5-11.1,7.1-22.1,11.5-32.9c2.2-5.3,4.4-10.5,8.1-15.1c5.4-6.8,13.5-4.6,16.4,2.7    c1.9,4.9,2.5,10,2.9,15.1c1.3,17.8,0.8,35.6,0.5,53.3c-0.4,20.3-0.7,40.7-0.1,61c0.3,9.7,0.9,19.4,3.6,28.8    c1.6,5.6,2.2,5.9,6.9,2.6c5.5-3.9,10.3-8.6,15.8-12.5c8.5-5.9,17.9-8.2,28-7.5c14.9,1,29.7,2.3,44.6,3.4c16.5,1.1,33,1.9,49.5,2.6    c18,0.8,36,1.5,54.1,2.1c20.2,0.7,40.5,1.3,60.7,1.9c27.3,0.8,54.5,1.6,81.8,2.1c4.9,0.1,9.8,0,14.7,0    C498.2,288.4,498.2,288.6,498.2,288.8z"
   id="path38" />
	</g>
</g>
</svg>
