<svg id="Layer_1" data-name="Layer 1" xmlns="http://www.w3.org/2000/svg" viewBox="0 0 1080 1080"><defs><style>.cls-1{font-size:143.36px;fill:#e88f3d;}.cls-1,.cls-2,.cls-6,.cls-7{font-family:SpartanMB-Bold, Spartan MB;font-weight:700;}.cls-2{font-size:46.13px;fill:#1c5193;}.cls-3{letter-spacing:-0.01em;}.cls-4{letter-spacing:-0.01em;}.cls-5{letter-spacing:0em;}.cls-6{font-size:143.35px;}.cls-6,.cls-7{fill:#818489;}.cls-7{font-size:32.62px;}.cls-8{letter-spacing:0em;}.cls-9{letter-spacing:0em;}.cls-10{letter-spacing:0em;}.cls-11{letter-spacing:-0.01em;}.cls-12{letter-spacing:0em;}.cls-13{letter-spacing:-0.03em;}.cls-14{fill:#83868b;}.cls-15{fill:#e68f40;}</style></defs><title>launchbox</title><text class="cls-1" transform="translate(284.78 541.79) scale(0.92 1)">launch</text><text class="cls-2" transform="translate(335.16 432.74)">happy<tspan class="cls-3" x="152.67" y="0"> </tspan><tspan class="cls-4" x="164.76" y="0">v</tspan><tspan x="192.3" y="0">all</tspan><tspan class="cls-5" x="250.41" y="0">e</tspan><tspan x="278.55" y="0">y</tspan></text><text class="cls-6" transform="translate(736.27 543.57) scale(0.92 1)">box</text><text class="cls-7" transform="translate(620.6 621.39)">p<tspan class="cls-8" x="22.31" y="0">o</tspan><tspan class="cls-9" x="43.81" y="0">w</tspan><tspan class="cls-10" x="75.17" y="0">e</tspan><tspan class="cls-11" x="95.16" y="0">r</tspan><tspan class="cls-12" x="110.37" y="0">ed by P</tspan><tspan class="cls-13" x="233.81" y="0">N</tspan><tspan x="259.45" y="0">C Bank</tspan></text><g id="SXWe1F.tif"><path class="cls-14" d="M233.37,543.57H124.08L68.59,488.09q-.28-55.9-.59-112.22H179.3L233.37,430Zm-11.12-11.14v-97.9L174.71,387H79.18q.27,48.36.53,96.53l48.91,48.91Z"/><path class="cls-15" d="M126.6,473.1V442.39L90.84,406.65v-8.09h7.81l35.8,35.8h31.9v-32l11.22-4.7v36.78h37.36l-5.85,11.06H177.61v30.85l35.75,35.74v8h-8l-35.78-35.79H137.84v31.57l-11.21,5V484.26H89.11c2.75-3.84,5.36-7.48,8-11.16Zm39.7-.06V445.55H137.85V473Z"/></g></svg>