<?xml version="1.0" encoding="utf-8"?>
<!-- Generator: Adobe Illustrator 25.0.0, SVG Export Plug-In . SVG Version: 6.00 Build 0)  -->
<svg version="1.1" id="Layer_1" xmlns="http://www.w3.org/2000/svg" xmlns:xlink="http://www.w3.org/1999/xlink" x="0px" y="0px"
	 viewBox="0 0 195.1 79.9" style="enable-background:new 0 0 195.1 79.9;" xml:space="preserve">
<style type="text/css">
	.st0{fill:#CCCCCC;}
	.st1{fill:#E2E2E2;}
	.st2{fill:#A8A8A8;}
	.st3{fill:#FFFFFF;}
</style>
<g>
	<g>
		<polygon class="st0" points="48.3,49.4 49,41.3 41.2,36.5 41,44.4 		"/>
		<path class="st1" d="M48.3,49.8c-0.1,0-0.1,0-0.2-0.1l-7.2-5c-0.1-0.1-0.1-0.2-0.1-0.3l0.2-7.9c0-0.1,0.1-0.2,0.2-0.3
			c0.1-0.1,0.2-0.1,0.3,0l7.8,4.9c0.1,0.1,0.2,0.2,0.2,0.3l-0.7,8.1c0,0.1-0.1,0.2-0.2,0.3C48.4,49.8,48.3,49.8,48.3,49.8
			 M41.4,44.2l6.6,4.6l0.6-7.3l-7.1-4.4L41.4,44.2z"/>
		<polygon class="st0" points="37.9,57.7 37.9,49.3 30,43.3 30.6,51.6 		"/>
		<path class="st1" d="M37.9,58c-0.1,0-0.2,0-0.2-0.1l-7.3-6.1c-0.1-0.1-0.1-0.1-0.1-0.2l-0.6-8.3c0-0.1,0.1-0.3,0.2-0.3
			c0.1-0.1,0.3-0.1,0.4,0l7.8,6c0.1,0.1,0.1,0.2,0.1,0.3l0.1,8.4c0,0.1-0.1,0.3-0.2,0.3C38,58,38,58,37.9,58 M31,51.4l6.6,5.6
			l-0.1-7.5L30.4,44L31,51.4z"/>
		<polygon class="st0" points="25.3,67.7 24.1,59.1 16.4,51.6 18.2,60.1 		"/>
		<path class="st1" d="M25.3,68.1c-0.1,0-0.2,0-0.2-0.1L18,60.4c0,0-0.1-0.1-0.1-0.2l-1.8-8.5c0-0.1,0-0.3,0.2-0.4
			c0.1-0.1,0.3,0,0.4,0.1l7.7,7.5c0.1,0.1,0.1,0.1,0.1,0.2l1.3,8.6c0,0.1-0.1,0.3-0.2,0.4C25.4,68.1,25.4,68.1,25.3,68.1 M18.5,60
			l6.3,6.7l-1.1-7.4L17,52.6L18.5,60z"/>
		<polygon class="st0" points="23.4,54.7 21.8,43.3 13.2,36.2 15.5,47.2 		"/>
		<path class="st1" d="M23.4,55c-0.1,0-0.2,0-0.2-0.1l-7.9-7.5c-0.1,0-0.1-0.1-0.1-0.2l-2.3-11c0-0.1,0-0.3,0.2-0.4
			c0.1-0.1,0.3-0.1,0.4,0L22,43c0.1,0.1,0.1,0.1,0.1,0.2l1.7,11.4c0,0.1-0.1,0.3-0.2,0.3C23.5,55,23.5,55,23.4,55 M15.8,47l7.1,6.7
			l-1.5-10.3L13.7,37L15.8,47z"/>
		<polygon class="st0" points="21,37.9 18.7,22.3 9.1,16.4 12.1,31 		"/>
		<path class="st1" d="M21,38.2c-0.1,0-0.1,0-0.2-0.1L12,31.2c-0.1,0-0.1-0.1-0.1-0.2l-3-14.6c0-0.1,0-0.3,0.1-0.3
			c0-0.1,0.2-0.1,0.3,0l9.6,5.9c0.1,0.1,0.1,0.1,0.2,0.2l2.3,15.6c0,0.1,0,0.3-0.2,0.3C21.1,38.2,21,38.2,21,38.2 M12.5,30.8
			l8.1,6.3l-2.1-14.6l-8.8-5.4L12.5,30.8z"/>
		<polygon class="st2" points="49,41.3 55.4,36.7 47.7,32.5 41.2,36.5 		"/>
		<path class="st1" d="M49,41.6c-0.1,0-0.1,0-0.2,0L41,36.7c-0.1-0.1-0.2-0.2-0.2-0.3s0.1-0.2,0.2-0.3l6.5-4c0.1-0.1,0.2-0.1,0.3,0
			l7.7,4.3c0.1,0.1,0.2,0.2,0.2,0.3s0,0.2-0.1,0.3l-6.4,4.6C49.1,41.6,49.1,41.6,49,41.6 M41.8,36.5l7.1,4.4l5.8-4.1l-7-3.9
			L41.8,36.5z"/>
		<polygon class="st2" points="37.9,49.3 45.8,43.6 38,38.4 30,43.3 		"/>
		<path class="st1" d="M37.9,49.6c-0.1,0-0.1,0-0.2-0.1l-7.8-6c-0.1-0.1-0.1-0.2-0.1-0.3s0.1-0.2,0.2-0.3l8-4.9
			c0.1-0.1,0.3-0.1,0.4,0l7.8,5.2c0.1,0.1,0.1,0.2,0.2,0.3c0,0.1-0.1,0.2-0.1,0.3l-7.9,5.7C38,49.6,37.9,49.6,37.9,49.6 M30.6,43.3
			l7.2,5.5l7.3-5.2L38,38.8L30.6,43.3z"/>
		<polygon class="st2" points="26.3,45.5 22.4,47.9 23.4,54.7 18.7,50.2 16.4,51.6 24.1,59.1 34.2,51.9 		"/>
		<path class="st1" d="M24.1,59.5c-0.1,0-0.2,0-0.2-0.1l-7.7-7.5c-0.1-0.1-0.1-0.2-0.1-0.3s0.1-0.2,0.2-0.2l2.3-1.4
			c0.1-0.1,0.3-0.1,0.4,0l4,3.8L22.1,48c0-0.1,0-0.3,0.2-0.3l3.9-2.4c0.1-0.1,0.3-0.1,0.4,0l7.8,6.4c0.1,0.1,0.1,0.2,0.1,0.3
			s-0.1,0.2-0.1,0.3l-10.1,7.2C24.2,59.5,24.1,59.5,24.1,59.5 M17,51.7l7.1,7l9.5-6.8L26.3,46l-3.5,2.2l1,6.5c0,0.1-0.1,0.3-0.2,0.3
			c-0.1,0.1-0.3,0-0.4-0.1l-4.5-4.3L17,51.7z"/>
		<polygon class="st2" points="24.7,30.7 20.2,32.9 21,37.9 16.7,34.5 13.2,36.2 21.8,43.3 33.5,36.6 		"/>
		<path class="st1" d="M21.8,43.6c-0.1,0-0.2,0-0.2-0.1l-8.6-7c-0.1-0.1-0.1-0.2-0.1-0.3s0.1-0.2,0.2-0.3l3.5-1.7
			c0.1-0.1,0.3,0,0.4,0l3.6,2.8L20,32.8c0-0.1,0.1-0.3,0.2-0.4l4.5-2.1c0.1-0.1,0.2,0,0.3,0l8.8,5.9c0.1,0.1,0.2,0.2,0.1,0.3
			c0,0.1-0.1,0.2-0.2,0.3L22,43.5C21.9,43.6,21.8,43.6,21.8,43.6 M13.8,36.3l7.9,6.6l11.1-6.3l-8.2-5.5l-4.1,2l0.7,4.8
			c0,0.1,0,0.3-0.2,0.3c-0.1,0.1-0.3,0.1-0.4,0L16.5,35L13.8,36.3z"/>
		<polygon class="st2" points="18.7,22.3 32.7,16.9 22.7,12.1 9.1,16.4 		"/>
		<path class="st1" d="M18.7,22.7c-0.1,0-0.1,0-0.2-0.1l-9.6-5.9c-0.1-0.1-0.2-0.2-0.2-0.3c0-0.1,0.1-0.2,0.2-0.3l13.6-4.2
			c0.1,0,0.2,0,0.2,0l10,4.8c0.1,0.1,0.2,0.2,0.2,0.3c0,0.1-0.1,0.3-0.2,0.3L18.7,22.7C18.8,22.6,18.7,22.7,18.7,22.7 M9.9,16.5
			l8.8,5.5l13.1-5l-9.1-4.4L9.9,16.5z"/>
		<polygon class="st3" points="54.3,44.6 48.3,49.4 49,41.3 55.4,36.7 		"/>
		<path class="st1" d="M48.3,49.8c-0.1,0-0.1,0-0.2,0c-0.1-0.1-0.2-0.2-0.2-0.3l0.7-8.1c0-0.1,0.1-0.2,0.1-0.2l6.4-4.6
			c0.1-0.1,0.3-0.1,0.4,0c0.1,0.1,0.2,0.2,0.2,0.3l-1.1,7.9c0,0.1-0.1,0.2-0.1,0.2l-6,4.8C48.4,49.7,48.4,49.8,48.3,49.8 M49.3,41.5
			l-0.6,7.2l5.3-4.2l0.9-7L49.3,41.5z"/>
		<polygon class="st3" points="45.3,51.8 37.9,57.7 37.9,49.3 45.8,43.6 		"/>
		<path class="st1" d="M37.9,58L37.9,58c-0.2-0.1-0.3-0.2-0.3-0.3l-0.1-8.4c0-0.1,0.1-0.2,0.1-0.3l7.9-5.7c0.1-0.1,0.2-0.1,0.4,0
			c0.1,0.1,0.2,0.2,0.2,0.3l-0.5,8.2c0,0.1-0.1,0.2-0.1,0.2l-7.4,5.9C38.1,58,38,58,37.9,58 M38.2,49.4l0.1,7.5l6.7-5.3l0.4-7.4
			L38.2,49.4z"/>
		<polygon class="st3" points="34.5,60.4 25.3,67.7 24.1,59.1 34.2,51.9 		"/>
		<path class="st1" d="M25.3,68.1h-0.1c-0.1,0-0.2-0.1-0.2-0.3l-1.3-8.6c0-0.1,0-0.2,0.1-0.3L34,51.6c0.1-0.1,0.2-0.1,0.3,0
			s0.2,0.2,0.2,0.3l0.4,8.5c0,0.1,0,0.2-0.1,0.3L25.5,68C25.5,68,25.4,68.1,25.3,68.1 M24.4,59.3l1.1,7.8l8.6-6.9l-0.3-7.7
			L24.4,59.3z"/>
		<polygon class="st3" points="32.7,16.9 33.3,31.5 21,37.9 18.7,22.3 		"/>
		<path class="st1" d="M21,38.2c-0.1,0-0.1,0-0.2,0s-0.2-0.1-0.2-0.3l-2.3-15.6c0-0.2,0.1-0.3,0.2-0.4l14-5.4c0.1,0,0.2,0,0.3,0
			c0.1,0.1,0.1,0.2,0.2,0.3l0.6,14.5c0,0.1-0.1,0.3-0.2,0.3L21.1,38C21.1,38.2,21,38.2,21,38.2 M19.1,22.5l2.2,14.8L33,31.2
			l-0.6-13.8L19.1,22.5z"/>
		<polygon class="st3" points="33.5,36.6 34,47.6 23.4,54.7 21.8,43.3 		"/>
		<path class="st1" d="M23.4,55h-0.1c-0.1,0-0.2-0.1-0.2-0.3l-1.7-11.4c0-0.1,0-0.3,0.2-0.3l11.7-6.7c0.1-0.1,0.2-0.1,0.3,0
			s0.2,0.2,0.2,0.3l0.5,10.9c0,0.1-0.1,0.2-0.1,0.3l-10.6,7.1C23.5,55,23.5,55,23.4,55 M22.1,43.5l1.6,10.6l10-6.7l-0.4-10.2
			L22.1,43.5z"/>
	</g>
	<g>
		<path class="st3" d="M71,25.5l5.1-1.2v24.3c0,2.7,0.8,4.3,2.4,4.8c-0.8,1.5-2.1,2.2-4,2.2c-2.3,0-3.4-1.6-3.4-4.8L71,25.5L71,25.5
			z"/>
		<path class="st3" d="M83.7,55.2V37.7h-2.8v-4.1h7.9v21.6C88.8,55.2,83.7,55.2,83.7,55.2z M86.3,25.2c0.8,0,1.5,0.3,2.1,0.9
			s0.9,1.3,0.9,2.1c0,0.8-0.3,1.5-0.9,2.1s-1.3,0.9-2.1,0.9c-0.8,0-1.5-0.3-2.1-0.9s-0.9-1.3-0.9-2.1c0-0.8,0.3-1.5,0.9-2.1
			C84.8,25.4,85.5,25.2,86.3,25.2"/>
		<path class="st3" d="M108.6,55.2V42.7c0-1.8-0.4-3.2-1.1-4s-1.9-1.3-3.5-1.3c-0.7,0-1.5,0.2-2.4,0.6c-0.8,0.4-1.5,0.9-2,1.6v15.6
			h-5.1V33.5h3.6l0.9,2c1.4-1.6,3.4-2.4,6.1-2.4c2.6,0,4.6,0.8,6.1,2.3s2.2,3.7,2.2,6.5v13.3C113.4,55.2,108.6,55.2,108.6,55.2z"/>
		<path class="st3" d="M117.7,44.3c0-3.3,1-6,2.9-8.1c1.9-2.1,4.4-3.1,7.5-3.1c3.3,0,5.8,1,7.7,3c1.8,2,2.7,4.7,2.7,8.2
			c0,3.4-0.9,6.2-2.8,8.2c-1.9,2-4.4,3.1-7.6,3.1c-3.3,0-5.8-1-7.7-3.1C118.6,50.5,117.7,47.7,117.7,44.3 M123,44.3
			c0,4.8,1.7,7.2,5.2,7.2c1.6,0,2.8-0.6,3.7-1.9c0.9-1.2,1.4-3,1.4-5.3c0-4.7-1.7-7.1-5.1-7.1c-1.6,0-2.8,0.6-3.8,1.9
			C123.4,40.4,123,42.1,123,44.3"/>
		<path class="st3" d="M156.5,55.2v-1.3c-0.4,0.5-1.1,0.9-2.1,1.2s-2,0.5-3.1,0.5c-3,0-5.4-1-7.1-2.9c-1.7-1.9-2.6-4.6-2.6-8
			s1-6.2,3-8.4c2-2.1,4.5-3.2,7.5-3.2c1.6,0,3.1,0.3,4.5,1v-8.7l5.1-1.2v30.9h-5.2V55.2z M156.5,38.7c-1.1-0.9-2.2-1.3-3.4-1.3
			c-2,0-3.6,0.6-4.7,1.8c-1.1,1.2-1.6,3-1.6,5.3c0,4.5,2.2,6.7,6.5,6.7c0.5,0,1.1-0.1,1.8-0.4c0.7-0.3,1.2-0.6,1.4-0.9V38.7z"/>
		<path class="st3" d="M185.9,45.9h-15.5c0.1,1.7,0.7,3.1,1.8,4c1.1,1,2.6,1.4,4.4,1.4c2.3,0,4.1-0.6,5.3-1.8l2,3.9
			c-1.8,1.4-4.4,2.2-8,2.2c-3.3,0-5.9-1-7.8-2.9c-1.9-1.9-2.9-4.6-2.9-8.1c0-3.4,1.1-6.2,3.2-8.3c2.1-2.1,4.6-3.2,7.6-3.2
			c3.1,0,5.7,0.9,7.6,2.8c1.9,1.9,2.9,4.3,2.9,7.2C186.3,43.7,186.2,44.7,185.9,45.9 M170.6,42.1h10.6c-0.4-3.2-2.1-4.7-5.3-4.7
			C173.1,37.4,171.3,38.9,170.6,42.1"/>
	</g>
</g>
</svg>
