<?xml version="1.0" encoding="utf-8"?>
<!-- Generator: Adobe Illustrator 23.0.2, SVG Export Plug-In . SVG Version: 6.00 Build 0)  -->
<svg version="1.1" id="Layer_1" xmlns="http://www.w3.org/2000/svg" xmlns:xlink="http://www.w3.org/1999/xlink" x="0px" y="0px"
	 viewBox="0 0 2000 600" style="enable-background:new 0 0 2000 600;" xml:space="preserve">
<style type="text/css">
	.st0{display:none;fill:#FEFEFE;}
	.st1{fill:#1865AC;}
	.st2{fill:#FBB337;}
</style>
<g>
	<path class="st0" d="M17.2,565.6c0-179.8,0-359.7-0.1-539.5c0-3.4,0.8-4.1,4.1-4.1c652.5,0.1,1305,0.1,1957.5,0
		c3.4,0,4.1,0.8,4.1,4.1c-0.1,178.5-0.1,357,0,535.4c0,3.4-0.8,4.1-4.1,4.1C1324.9,565.6,671,565.6,17.2,565.6z M162.4,295.5
		c4.1,5,7.6,9.3,11.2,13.7c6.7,8.2,13.3,16.3,19.9,24.5c1.4,1.8,3.1,2.4,5.1,1.5c2-0.9,2.1-2.8,1.6-4.7c-0.2-0.7-0.4-1.4-0.6-2.2
		c-8.7-31.2-17.5-62.5-26.2-93.7c-0.5-1.9-1.1-3.7-0.9-5.7c1.4-17.1,1.5-34.2,1-51.4c-1-30.1-4.5-59.9-12.9-89
		c-4-13.9-9-27.5-18.4-38.8C131.8,37,119.4,37,108.9,49.6c-8.3,9.9-13.1,21.6-16.8,33.7c-14.4,46.8-16.6,94.8-13.8,143.3
		c0.2,3.2-0.2,6.2-1,9.3c-8.7,31.1-17.4,62.2-26.1,93.2c-0.6,2.3-1.4,4.6,1.1,6c2.7,1.6,4.4-0.3,6-2.3c7.5-9.3,14.9-18.5,22.5-27.7
		c2.5-3,4.6-6.5,8-9.1c1.4,4.4,2.7,8.4,3.9,12.4c1.1,3.7,3.5,5.3,7.3,5.3c17-0.1,34-0.1,51,0c4.1,0,6.5-1.8,7.6-5.6
		C159.8,304.3,161,300.3,162.4,295.5z M91.1,384.4c0.2,20.7,1.3,35.8,2.7,50.9c2.5,26.3,6.2,52.5,12.8,78.1
		c2.7,10.3,5.4,20.7,11.9,29.5c4.6,6.3,9.5,6.2,14.1-0.1c5.1-6.9,7.6-15,10-23c6.6-22.7,10.2-46,13-69.4c2.9-24.6,5-49.3,4-74.2
		c-0.5-12.8-2.9-25.4-10.6-36.3c-11.6-16.4-34.9-16.7-47-0.7c-3.4,4.5-5.6,9.6-7.2,14.9C91.5,365.9,90.8,377.9,91.1,384.4z
		 M1629.1,157.7c-1.2-3-1.2-5.7-1.3-8.3c-0.1-3.1-1.2-4.4-4.6-4.3c-12.5,0.2-25,0.2-37.4,0c-3.9-0.1-5.4,0.8-5,4.9
		c0.5,4.7-1.9,10.9,0.9,14c2.5,2.8,8.6,2.5,13.2,3.2c2.5,0.4,3.2,1.4,3.2,3.8c-0.1,37.3-0.1,74.6,0,111.9c0,2.3-0.9,3.1-3,3.6
		c-4.1,0.9-9.7,0.2-11.7,3.2c-2,3-0.6,8.1-0.7,12.3c0,0.9,0.1,1.8,0,2.7c-0.3,2.6,0.4,3.7,3.4,3.7c18.6-0.1,37.3-0.1,56,0
		c2.7,0,3.5-0.9,3.2-3.4c-0.1-1,0-2.1,0-3.2c-0.2-4.2,1.6-9.3-0.7-12.3c-2.2-2.8-7.5-2.3-11.5-3c-2.7-0.5-3.3-1.7-3.2-4.3
		c0.1-8.7,0-17.4,0.1-26.2c0-0.9-0.7-2.1,0.8-2.8c2.8,3.1,6,5.9,9.8,7.9c21,11.1,48,1.6,57.5-21.5c10.2-24.8,9.5-50.1-2.4-74.2
		c-9.3-18.9-29.8-27.1-49.1-20.9C1639.4,147.1,1634.2,151.9,1629.1,157.7z M1487.1,159.5c0-2.7,0-4.2,0-5.7c0-19,0-37.9,0-56.9
		c0-1.9,0.5-3.8-2.7-3.8c-14.4,0.1-28.9,0.1-43.3,0c-2.6,0-2.9,1.1-2.9,3.2c0.1,4.2,0.2,8.4,0,12.6c-0.2,3,1.1,3.9,3.8,4.3
		c3.3,0.4,6.5,1.3,9.7,1.7c2.5,0.3,3.5,1.4,3.5,4.1c-0.1,39.4-0.1,78.8,0,118.2c0,2.3-0.6,3.5-3,4.1c-4,0.9-9.7,0.1-11.7,3.3
		c-1.9,3.1-0.6,8.1-0.7,12.3c0,0.4,0.1,0.9,0,1.4c-0.6,3.6,0.6,4.8,4.5,4.8c16.1-0.2,32.2-0.1,48.3-0.1c8.1,0,8.1,0,8.1-8.3
		c0-10.7,0-10.8-10.4-13.3c-2.3-0.6-3.2-1.3-3.2-3.8c0.1-19.4,0.1-38.8,0-58.2c0-1.5,0.1-2.9,1.4-4.1c7-7.2,15.6-8.8,24.9-6.5
		c8.5,2,11.1,8.9,12.2,16.6c0.3,2.1,0.4,4.2,0.4,6.3c0,13.7,0,27.4,0,41.1c0,7.9,0.1,8.1-7.7,9.6c-4.6,0.8-6.9,2.5-6.1,7.6
		c0.5,2.9,0.3,6,0,9c-0.3,3.3,0.7,4.3,4.1,4.3c16.7-0.2,33.4-0.1,50.1-0.1c6.9,0,7,0,6.8-6.8c-0.1-4,1.6-8.9-0.8-11.8
		c-2.3-2.7-7.2-2.3-11-3c-2.8-0.5-3.6-1.7-3.6-4.5c0.1-15,0.1-30.1,0.1-45.1c0-5.3-0.4-10.5-1.3-15.7c-3.3-19.1-14.5-30.7-32.5-32.9
		C1509.2,141.5,1497.1,146.7,1487.1,159.5z M1915.2,156.7c-9.4-8.9-13.3-11.3-20.2-12.8c-20-4.3-38,5.3-47.1,25.3
		c-7.1,15.5-7.8,32-6.4,48.6c1,11.9,4.7,22.8,12,32.5c13.3,17.9,46.2,22,61.5,1.9c0.6-0.7,0.9-2,2.5-1.5c0.4,2.7,1,5.5,1.3,8.3
		c0.3,2.9,1.2,4.3,4.7,4.2c10.4-0.3,20.8-0.1,31.1-0.1c8.1,0,8.1,0,8.1-8.3c0-10.9,0-11.2-10.6-13c-4.1-0.7-4.8-2.4-4.8-6.2
		c0.1-46,0.1-92.1,0.1-138.1c0-2.2,0.6-4.4-3.2-4.4c-14.3,0.2-28.6,0.1-42.9,0c-2.3,0-3.2,0.7-3.1,3.1c0.1,4.4,0.2,8.7,0,13.1
		c-0.1,2.5,0.9,3.5,3.2,3.9c3.6,0.5,7.1,1.3,10.6,1.9c1.7,0.3,3.1,0.6,3.1,3C1915.2,130.7,1915.2,143.3,1915.2,156.7z M642.9,161.5
		c-0.4-4.7-0.9-8.5-0.9-12.2c0-3.2-1.3-4.1-4.4-4c-10.5,0.2-21.1,0.1-31.6,0.1c-11.1,0-11.1,0-11.1,11.2c0,7.9,0,7.9,7.6,9.5
		c2.1,0.4,4.1,1.1,6.2,1.2c2.6,0.1,3.2,1.4,3.2,3.8c-0.1,22.3-0.1,44.5,0,66.8c0,2.3-0.9,3.1-3,3.6c-4,1-9.5,0.1-11.7,3.3
		c-2.3,3.3-0.3,8.5-0.7,12.8c-0.5,4.3,0.6,5.9,5.5,5.8c14.9-0.4,29.8-0.1,44.7-0.1c9.9,0,9.9,0,9.9-10c0-9.2,0-9.3-9-11.4
		c-2.6-0.6-3.8-1.4-3.7-4.3c0.2-18.9,0.1-37.9,0.1-56.9c0-2.1,0.5-3.7,2-5.2c6.3-6.7,17.9-9.3,26.7-5.7c8.8,3.6,9.7,11.4,10,19.5
		c0,0.7,0,1.5,0,2.3c0,12.6,0,25.3,0,37.9c0,3.7,1,8.2-0.7,11c-1.6,2.7-6.5,2.2-10,3.1c-2.2,0.5-3,1.4-2.9,3.6
		c0.1,4.2,0.2,8.4,0,12.6c-0.2,3,0.8,3.8,3.8,3.7c16.7-0.1,33.4-0.1,50.1-0.1c7,0,7,0,7-7.1c0-3.9,1.2-8.7-0.7-11.5
		c-1.9-2.9-7.1-2.3-10.9-3c-2.8-0.6-3.6-1.7-3.6-4.5c0.1-15.2,0.1-30.4,0-45.6c0-5.9-0.3-11.7-1.3-17.5c-3.2-19.5-16.5-30.7-36.1-31
		C662.9,142.8,652,149.3,642.9,161.5z M1228,161.5c-0.4-5-0.8-8.9-1-12.7c-0.1-2.5-0.9-3.5-3.5-3.5c-13.5,0.1-27.1,0.1-40.6,0
		c-2,0-3,0.5-3,2.8c0.1,4.7,0.2,9.3,0,14c-0.1,2.2,1,2.8,2.8,3.1c3.4,0.6,6.7,1.6,10.2,1.9c3.4,0.3,4,1.8,4,4.9
		c-0.1,19-0.1,37.9-0.1,56.9c0,11.9,0,12-11.4,14.2c-2.9,0.6-4.2,1.5-4,4.6c0.2,3.9,0.2,7.8,0,11.7c-0.2,2.9,0.8,3.8,3.7,3.8
		c15.3-0.1,30.7-0.1,46-0.1c10.3,0,10.3,0,10.3-10.1c0-9.1,0.1-9.4-8.7-11.2c-3.5-0.7-4.1-2.4-4-5.5c0.1-17.4,0.5-34.9-0.1-52.3
		c-0.2-7.2,3.3-10.8,8.8-13.6c4.5-2.3,9.4-2.7,14.5-2.2c8.5,0.9,13.5,5.3,14.9,13.7c0.4,2.7,0.7,5.4,0.7,8.1
		c0.1,12.9,0.1,25.9,0,38.8c0,3.9,1.5,8.5-0.7,11.4c-1.9,2.7-6.6,2.2-10.1,3c-2.3,0.5-2.9,1.6-2.8,3.7c0.1,4.1,0.3,8.1,0,12.2
		c-0.3,3.6,1.1,4.1,4.3,4.1c16.1-0.2,32.2-0.1,48.3-0.1c8.3,0,8.3,0,8.3-8.1c0-11,0-11.3-10.8-13.3c-3.8-0.7-4.4-2.3-4.4-5.7
		c0-18.5,0.7-37-0.4-55.5c-1.6-27.1-20.3-41.8-46.4-36.6C1242.5,146,1234.9,152.4,1228,161.5z M1126.6,248.8
		c0.6,4.4,1.3,7.8,1.6,11.2c0.2,2.4,1.2,3.2,3.7,3.1c9.9-0.2,19.9-0.1,29.8-0.1c9.4,0,9.4,0,9.4-9.2c0-9.9,0.1-10.2-9.6-12.1
		c-4.1-0.8-4.8-2.6-4.8-6.3c0.1-28.6,0-57.2,0.2-85.8c0-3.8-1.1-4.8-4.8-4.7c-11,0.2-22,0.1-32.9,0.1c-8.4,0-8.4,0-8.4,8.6
		c0,10.5-0.1,10.7,10.1,13c3.5,0.8,4.1,2.3,4.1,5.5c-0.1,17.3-0.5,34.6,0.1,51.9c0.3,7.7-3.3,11.3-9.4,13.9
		c-4.9,2.2-10.1,2.9-15.4,2.3c-5.8-0.7-10-3.8-12.2-9.4c-1.6-4.1-2-8.4-2-12.8c0-22.9-0.1-45.7,0.1-68.6c0-3.7-1.1-4.5-4.6-4.5
		c-9.9,0.2-19.9,0.1-29.8,0.1c-10.9,0-10.9,0-10.9,11c0,8.3-0.1,8.5,8.1,10.2c4.1,0.9,4.9,2.7,5,6.7c0.1,18.5-1,37,0.7,55.5
		c2.3,24.5,19.4,39.1,42.7,36.9C1109.3,264.3,1118.8,259.1,1126.6,248.8z M996.1,251.6c0.9,3,1.8,5.2,2.3,7.6c0.7,3.2,2.5,4.2,5.7,4
		c6-0.3,12,0,18-0.1c4.8,0,11.4,1.7,13.9-0.8c3.1-3.1,0.6-9.7,1-14.7c0.3-3-1-3.9-3.7-4.3c-6.6-0.8-6.6-0.9-6.6-7.6
		c0-17.1,0-34.3,0-51.4c0-18.8-9.1-31.9-27-37.7c-22.9-7.5-44.4-3.3-64.8,8.9c-1.6,1-2.2,2.1-2.2,4c0.1,6.9,0,13.8-0.1,20.8
		c-0.1,2.4,0.7,3.1,3.1,3.1c5.1-0.1,10.3-0.4,15.3,0.1c4.8,0.5,6.5-1.2,6.9-5.9c0.7-7.8,1.6-8.4,9.3-10.1c0.9-0.2,1.8-0.4,2.6-0.6
		c15.2-2.6,24.5,4.3,24.9,18.6c0.2,10.1,0.2,10.1-9.9,10.1c-1.2,0-2.4,0-3.6,0c-11-0.1-21.9,0.6-32.4,4.4
		c-18.8,6.8-26.9,23.1-21.1,42.2c4.7,15.5,20.1,24.7,38.4,23.5C977.8,264.8,987.5,260.2,996.1,251.6z M1789.8,251.6
		c0.9,3,1.7,5.1,2.2,7.3c0.7,3.3,2.4,4.5,5.9,4.4c9.8-0.3,19.5-0.2,29.3,0c2.7,0,3.8-0.6,3.6-3.5c-0.2-3.9-0.3-7.8,0-11.7
		c0.3-3.4-1.1-4.9-4.3-4.6c-5.2,0.4-6.2-2.5-6.2-6.8c0.1-17.4,0.1-34.9,0-52.3c0-18.7-9.2-31.8-27.1-37.7c-22.9-7.5-44.4-3.3-64.7,9
		c-1.6,1-2.1,2.2-2.1,4c0.1,6.8,0.1,13.5-0.2,20.3c-0.1,2.9,1,3.6,3.6,3.5c5-0.2,10-0.5,14.9,0.1c4.9,0.5,6.4-1.4,6.9-6
		c0.7-7.6,1.6-8.3,8.9-10c1-0.2,2-0.5,3.1-0.6c15.3-2.6,24.5,4.4,24.8,18.7c0.2,10.1,0.2,10.1-10,10.1c-3.2,0-6.3-0.1-9.5,0
		c-9,0.3-18,1.2-26.6,4.4c-18.7,6.8-26.8,23.2-21,42.3c4.7,15.6,19,23.9,38,23.4C1771.3,265.2,1781.2,260.4,1789.8,251.6z
		 M853.1,263.1c18.7,0,37.3-0.1,56,0.1c2.8,0,3.9-0.5,3.8-3.6c-0.2-12.3-0.1-24.7,0-37c0-2.8-0.4-4-3.6-3.9
		c-5.9,0.3-11.7,0.2-17.6,0c-2.9-0.1-3.6,1.1-3.8,3.6c-0.2,4.4-0.8,8.7-0.9,13c-0.1,2.8-1.2,3.4-3.9,3.4c-12.3-0.1-24.7-0.2-37,0
		c-3.3,0.1-4.1-1.1-3.9-4.1c0.2-3.9,0.1-7.8,0.1-11.7c0-30.5,0.1-61.1-0.1-91.6c0-3.2,0.7-4.6,4-4.9c3.3-0.3,6.5-1.5,9.7-1.8
		c2.8-0.3,3.4-1.6,3.3-4.1c-0.2-4.1-0.2-8.1,0-12.2c0.2-3.3-1.2-4-4.2-3.9c-6.2,0.2-12.3,0.1-18.5,0.1c-13.1,0-26.2,0-39.3,0
		c-1.4,0-3.7-0.9-3.7,1.8c0,5.7-1.3,12,0.7,16.9c1.2,3.1,7.9,2,12,3.2c0.3,0.1,0.6,0.2,0.9,0.2c2.3,0,3,1.1,3,3.4
		c-0.1,36-0.1,71.9,0,107.9c0,2.3-0.9,3.2-3,3.5c-3.6,0.6-7.1,1.4-10.6,1.9c-2.2,0.3-3.1,1.2-3,3.5c0.2,4.1,0.3,8.1,0,12.2
		c-0.2,3.3,0.7,4.3,4.2,4.3C816.1,263,834.6,263.1,853.1,263.1z M329.4,263.1c18.7,0,37.3,0,56,0c2.1,0,4,0.4,3.9-3
		c-0.2-12.8-0.1-25.6,0-38.4c0-2.4-0.7-3.1-3.1-3.1c-6.2,0.1-12.3,0.2-18.5,0c-2.4-0.1-3.2,0.9-3.4,3c-0.3,4.6-0.8,9.3-1,13.9
		c-0.1,2.3-0.9,3-3.2,3c-12.8-0.1-25.6-0.1-38.4,0c-2.3,0-3.1-0.7-3.1-3.1c0.1-35.2,0.1-70.4,0-105.6c0-2.3,0.7-3.1,3-3.4
		c3.7-0.5,7.3-1.6,11-2.1c2.3-0.3,3-1.3,2.9-3.5c-0.1-4.2-0.2-8.4,0-12.6c0.2-3.2-1-4-4.1-4c-18.4,0.1-36.7,0.1-55.1,0.1
		c-6.6,0-6.7,0-6.5,6.7c0.1,4.2-1.7,9.5,0.7,12.2c2.2,2.4,7.5,2.3,11.4,2.8c3.5,0.5,4.5,1.9,4.4,5.5c-0.2,33.4-0.1,66.8-0.1,100.2
		c0,9,0,9-9.1,10.6c-7.5,1.3-7.5,1.3-7.5,8.8c0,2.7,0.2,5.4-0.1,8.1c-0.4,3.3,1,3.9,4.1,3.9C292.3,263.1,310.8,263.1,329.4,263.1z
		 M585,203.7c0.3-3.7-0.2-8-0.8-12.3c-3-22.4-17.5-44.2-46.2-48c-27.3-3.6-50.5,9-59.9,33.4c-3.8,9.8-4.7,20.1-4.5,30.6
		c0.6,30.1,17.4,57.4,53.8,58.2c22.6,0.5,41.1-7.7,51.9-30.9C583.7,225.1,585.2,214.9,585,203.7z M1425.9,175.1c-0.1,0-0.1,0-0.1,0
		c0-2.6-0.4-5.2,0.1-7.7c1.3-7.1-2.3-11.1-7.8-14.6c-14.6-9.1-30.5-11.2-47.2-9.1c-20.5,2.6-34.1,13.9-41.6,32.8
		c-5.3,13.2-5.6,27-3.7,40.9c6,44.1,43.5,54.9,74,44.7c16.4-5.5,27.4-19.9,28.1-35.3c0.2-3.4-0.8-4.5-4.2-4.3
		c-5.7,0.3-11.5,0.4-17.1,0c-5.1-0.3-9.1-0.1-9.1,6.6c0,2.3-1.8,4.4-3.5,6.2c-8.9,9.4-26.9,7-32.1-4.9c-6.9-15.5-6.4-31.6-1.6-47.6
		c3-10,10.3-14.7,20.6-15.1c8.9-0.4,14,3.2,16.4,11.7c0.8,2.9,1.8,5.7,2.4,8.7c0.5,2.5,1.7,3,4,3c6.5-0.1,12.9-0.2,19.4,0
		c2.5,0.1,3.5-0.6,3.3-3.2C1425.7,183.5,1425.9,179.3,1425.9,175.1z M1453.9,450.9c3.2,0.2,7.1-0.2,10.9-0.9
		c35.5-5.9,56.5-43.5,42.8-76.5c-10.5-25.3-37.4-38.9-66.5-33.7c-30.6,5.5-50.5,33.7-45.3,64.3
		C1400.4,431.9,1423.9,450.9,1453.9,450.9z M1312.7,433.1c0,4.4,0.3,8.2-0.1,11.8c-1,10.9-7.6,18.2-18.3,20.7
		c-8.8,2-17.3,0.8-25.5-2.9c-3.2-1.4-6.2-5.7-9.1-4.3c-2.7,1.3-3.6,6-5.7,8.9c-1.8,2.6-1.5,3.9,1.3,5.5c15.2,8.9,31.3,11.3,48.2,6.7
		c15.8-4.3,26.9-17,27.2-32.7c0.6-26,0.2-52,0.2-78c0-1.8-0.4-2.8-2.5-2.8c-4.4,0.1-8.7,0.1-13.1,0c-2-0.1-2.6,0.7-2.6,2.7
		c0.1,2.9,0,5.8,0,10c-1.5-1.7-2-2.4-2.6-3.1c-12.8-16.4-50.7-15.5-60.5,13.2c-2.9,8.6-3.6,17.4-1.8,26.2
		c2.9,14.7,10.6,25.6,25.6,29.6C1288.4,448.7,1301.8,446.3,1312.7,433.1z M394.6,438c0.4-0.2,0.7-0.4,1.1-0.6
		c0.3,0.5,0.6,1.1,0.9,1.5c12.3,16.5,41.6,15.3,55.3,1.3c11.8-12,15.1-34.3,7.9-52c-11.5-28.2-50.2-29.6-63.3-11.1
		c-0.4,0.5-0.8,1.4-1.9,0.7c0-2.6-0.2-5.4,0-8c0.2-2.8-0.5-4.1-3.6-3.9c-3.6,0.3-7.2,0.3-10.8,0c-3.1-0.2-3.7,1-3.7,3.8
		c0.1,35.6,0.1,71.3,0,106.9c0,3,0.6,4.4,3.9,4.1c3.4-0.3,6.9-0.3,10.4,0c3.3,0.3,4-1,3.9-4.1C394.5,463.8,394.6,450.9,394.6,438z
		 M1550.1,378.7c-2.1-4.4,1.8-10.2-2.3-12.2c-3.7-1.8-8.8-0.4-13.3-0.4c-0.1,0-0.3,0-0.4,0c-2.3-0.3-2.7,0.9-2.7,2.9
		c0,36.2,0.1,72.5,0,108.7c0,2.3,0.6,3.2,3,3.1c3.5-0.2,6.9-0.3,10.4,0c3.7,0.3,4.9-0.7,4.8-4.6c-0.3-11.3-0.1-22.6-0.1-33.8
		c0-1.5-0.5-3.2,0.7-5.1c0.6,0.7,0.9,1.2,1.3,1.7c13.1,17.7,48.1,16,60.6-5.5c5.8-10,6.9-20.7,6-31.8c-2.1-25.2-24.2-41.3-48.8-35.7
		C1561.3,367.8,1555.1,372.2,1550.1,378.7z M447.7,193.1c0-14.7,0-29.5,0-44.2c0-2.2-0.1-3.7-3-3.7c-14.4,0.1-28.9,0.1-43.3,0
		c-2.2,0-2.9,0.8-2.9,2.9c0.1,4.5,0.1,9,0,13.5c-0.1,2.3,0.9,3.1,3,3.5c3.7,0.6,7.3,1.7,11.1,2.1c2.6,0.3,3.2,1.4,3.2,3.8
		c-0.1,22.1-0.1,44.2,0,66.3c0,2.3-0.6,3.5-3,4.1c-4.1,0.9-9.8,0.1-11.7,3.3c-1.9,3.3-0.6,8.5-0.7,12.8c0,0.1,0,0.3,0,0.4
		c-0.6,3.9,0.6,5.4,5,5.3c16.7-0.3,33.4-0.1,50.1-0.1c7.6,0,7.6,0,7.6-7.5c0-11.7,0-11.8-11.5-14.1c-2.9-0.6-3.9-1.6-3.9-4.7
		C447.8,222.3,447.7,207.7,447.7,193.1z M313.3,338.9c-7.7-0.1-16.4,1.4-24.3,5.9c-9,5.1-14.1,12.8-14.6,23.4
		c-0.5,11.5,4,20.1,13.9,25.9c4.1,2.3,8.4,3.9,12.8,5.4c7.7,2.6,15.7,4.1,23.1,7.7c7.2,3.5,10.6,8.8,9.6,14.7
		c-1,5.7-6.4,10-13.9,10.9c-1.5,0.2-3,0.2-4.5,0.3c-14.2,0.6-26.1-5-36.7-13.8c-2.3-1.9-3.2-1.9-4.4,0.9c-1.5,3.5-3.1,6.8-5.1,10.1
		c-1.4,2.5-1,3.8,1.2,5.6c14.6,11.6,31.3,16.5,49.7,14.7c10.4-1,20-4.3,27.4-12.3c10.4-11.4,12.3-36.6-11.9-46.9
		c-8.6-3.7-17.7-5.8-26.4-9.1c-3.7-1.4-7.2-3-10.1-5.7c-6.4-6-4.7-14.9,3.3-18.3c2.8-1.2,5.8-1.5,8.8-1.6c11.2-0.5,21.3,3,30.9,8.4
		c2.7,1.5,3.9,1,5.1-1.7c1.3-3.2,2.6-6.4,4.4-9.4c2-3.2,0.8-4.7-2.1-6.2C338.7,342.1,327.1,338.8,313.3,338.9z M524.2,414.8
		c9.2,0,18.3-0.1,27.5,0.1c3.1,0.1,4.6-0.4,4.5-4.1c-0.2-5-0.1-9.9-1-14.8c-2.1-11.5-7.1-21.1-17.9-26.6c-6.6-3.3-13.6-4.4-21-4.3
		c-16.8,0.3-30.4,6.8-37.7,22.4c-7.8,16.7-6.9,33.6,4.6,48.5c13.8,18,44.5,20.3,63.6,5.5c5.6-4.4,5.6-4.4,0.7-9.6
		c-1.1-1.2-2.4-2.3-3.4-3.6c-1.4-1.8-2.5-2.1-4.3-0.3c-2.2,2.3-4.9,3.9-7.8,5.2c-15.9,7.2-32.6,1-38.2-14.1
		c-1.1-3.1-1.2-4.6,2.9-4.4C505.9,415,515,414.8,524.2,414.8z M758,441.5c1.7,2.7-1.3,6.8,1.8,8.2c2.5,1.1,5.9,0.3,8.9,0.3
		c1.5,0,3-0.1,4.5,0c2.9,0.4,3.5-1,3.5-3.6c-0.1-17.7,0-35.5-0.2-53.2c-0.1-13-7.5-23-20.1-26.2c-16.8-4.4-32.7-1.7-47.6,7.3
		c-1.9,1.1-2.1,2.2-0.9,3.9c1.6,2.5,3.2,5.1,4.5,7.8c1.1,2.4,2.2,2.5,4.4,1.1c6.3-4,13.1-6.8,20.7-7c11.8-0.4,20.6,4.3,21.2,16.1
		c0.1,2.8-0.7,3.6-3.5,3.6c-7.8-0.2-15.7-0.3-23.5,0c-9.2,0.3-18.1,2.2-24.4,9.6c-12.1,14.3-4.3,36.4,14.6,40.6
		C735,452.8,747.5,451.1,758,441.5z M1781.7,450.9c26.8,0,44.1-17,44-43.4c0-17.7-7.3-31.6-23.9-38.4c-17.7-7.3-35.3-6.2-50.4,6.7
		c-13.3,11.4-17.2,31.9-10.4,49.4C1747.3,441.4,1762.3,450.9,1781.7,450.9z M1862.7,380.7c0-4.5-0.1-8.1,0-11.6
		c0.1-2.3-0.6-3.3-3-3.1c-3.3,0.2-6.6,0.3-9.9,0c-4-0.4-5.3,0.7-5.3,5c0.2,21.7,0.1,43.3,0.1,65c0,4.5-1.5,10.5,0.8,13.1
		c2.6,3,8.8,0.5,13.4,1c3.2,0.3,4-0.9,4-4c-0.2-13.1-0.2-26.2,0-39.3c0.2-14.7,10.6-24.7,24.9-24.5c12.7,0.2,19.3,8.4,19.3,24
		c0,13.4,0.1,26.8-0.1,40.2c0,2.7,0.7,3.7,3.5,3.6c3.7-0.2,7.5-0.2,11.3,0c2.5,0.1,3.4-0.6,3.4-3.2c-0.1-17.8,0.2-35.5-0.1-53.2
		c-0.2-13.6-8.3-24.4-21-27.1C1888,362.9,1873.5,365.2,1862.7,380.7z M1168.4,380.9c0-4.6-0.1-8.1,0-11.5c0.1-2.5-0.6-3.5-3.2-3.4
		c-3.8,0.2-7.5,0.3-11.3,0c-3.2-0.2-3.7,1.1-3.6,3.9c0.1,9.2,0.1,18.3,0.1,27.5c0,16.2,0.1,32.5-0.1,48.7c0,3.2,0.9,4.2,4.1,3.9
		c3.4-0.3,6.9-0.2,10.4,0c3,0.2,3.8-0.8,3.8-3.8c-0.2-12.6,0-25.3-0.1-37.9c0-3.8,0.7-7.5,2-11c4-10.8,15-17,26.4-14.9
		c10.6,2,15.8,9.1,15.9,21.8c0.1,10.5-0.1,21.1,0.1,31.6c0.1,4.6-2.1,10.9,0.9,13.3c2.8,2.3,8.9,0.6,13.5,0.8
		c2.7,0.2,3.7-0.5,3.6-3.5c-0.1-17.4,0.1-34.9-0.1-52.3c-0.2-15.1-9.1-26-23.9-28.4C1191.8,363.4,1178.3,366.1,1168.4,380.9z
		 M609.5,450.9c11.7,0,21.2-2.9,28.8-8.8c7.6-5.9,7.6-5.9,1-12.5c-0.1-0.1-0.2-0.2-0.3-0.3c-2.5-3.5-5-4.8-8.3-0.7
		c-1.1,1.3-2.9,2.1-4.5,3c-12.5,6.7-28.5,4-35.6-5.9c-7.7-10.7-7-27.4,1.5-36.9c7.6-8.5,22.6-10,34.3-3.8c2.9,1.5,5,6,8.3,4.6
		c2.8-1.3,4.6-5,6.8-7.7c0.2-0.2,0.4-0.5,0.6-0.7c2-1.7,1.6-3-0.2-4.7c-14-13.7-43.6-15.2-59.1-3c-14.5,11.4-19.8,32.2-13.2,51.2
		C575.5,441.4,590,450.9,609.5,450.9z M895.7,395c0,17,0.1,34-0.1,51c0,3.3,0.8,4.3,4.2,4.3c16.7-0.2,33.4-0.1,50.1-0.1
		c3.9,0,9,1.2,11.3-0.7c2.7-2.3,0.5-7.6,1-11.6c0.4-3.6-0.8-4.9-4.7-4.9c-13.1,0.2-26.2,0-39.2,0.2c-3.2,0-4.3-1-4-4.1
		c0.2-2.5,0-5.1,0-7.7c0-25.7-0.1-51.4,0.1-77.1c0-3.2-0.6-4.7-4.2-4.4c-3.4,0.3-6.9,0.3-10.4,0c-3.4-0.3-4.3,0.8-4.3,4.2
		C895.8,361,895.7,378,895.7,395z M1051.7,431.7c-6.3-18-12.2-34.9-18.2-51.7c-1.6-4.5-2.2-10.4-5.4-13.1c-3.5-2.9-9.5-0.4-14.4-0.9
		c-4.5-0.5-3.9,1.4-2.7,4.4c8.6,21.9,17,44,25.6,65.9c1.7,4.5,2.5,10.3,5.7,12.9c3.3,2.6,9.3,0.4,14,0.8c3.4,0.3,5-0.9,6.2-4.1
		c7.4-19.8,15.1-39.6,22.6-59.3c2.6-6.7,5-13.4,7.7-20.6c-5.4,0-10.2,0.1-15-0.1c-2.5-0.1-3.7,0.7-4.5,3.2c-1.9,6-4.1,11.9-6.1,17.9
		C1062.2,401.5,1057.2,416,1051.7,431.7z M1640.6,407.9c0,6.9-0.2,13.8,0,20.7c0.2,7.8,2.9,14.6,9.8,18.7c9.2,5.5,18.7,4.3,28.2,0.7
		c6.6-2.5,6.6-2.7,4.4-9.2c-0.9-2.5-0.8-6-3-7.3c-1.9-1.1-4.3,1.3-6.6,1.9c-10.2,2.8-14.6-0.5-14.7-11c-0.1-11.9,0.1-23.7-0.1-35.6
		c0-3,0.9-3.8,3.8-3.7c6,0.2,12,0.1,18,0c1.1,0,2.9,0.5,3-1.1c0.2-3.7,0.2-7.5,0-11.2c-0.1-1.6-1.9-1.1-3-1.1c-4.2-0.1-8.4,0-12.6,0
		c-9.1,0-9.1,0-9.2-9.1c0-4.5,1.5-10.6-0.8-13.1c-2.9-3.1-9.1-0.7-13.8-1c-0.1,0-0.3,0-0.4,0c-2.4-0.3-3.1,0.8-3,3.1
		c0.1,4.2,0,8.4,0,12.6c0,7.4,0,7.6-7.2,7.3c-3.8-0.1-4.8,0.9-4.7,4.7c0.2,8.7,0.1,8.8,8.5,8.9c2.9,0,3.5,0.9,3.5,3.6
		C1640.5,393.8,1640.6,400.9,1640.6,407.9z M801.8,391.7c0,14.7-0.1,29.5,0,44.2c0,4.6-2.1,11,0.9,13.3c3.1,2.3,9.2,0.6,14,0.9
		c2.2,0.1,3.2-0.5,3.2-3c-0.1-36.8-0.1-73.6,0-110.5c0-2.3-0.6-3.2-3-3.1c-3.5,0.2-6.9,0.3-10.4,0c-3.6-0.3-4.9,0.7-4.8,4.6
		C801.9,356,801.8,373.8,801.8,391.7z M681.7,408.2c0-12.8-0.1-25.5,0.1-38.3c0-2.8-0.6-4.1-3.7-3.9c-3.6,0.3-7.2,0.2-10.8,0
		c-2.6-0.1-3.7,0.4-3.7,3.4c0.1,25.7,0.1,51.4,0,77.1c0,2.6,0.5,3.8,3.5,3.6c3.7-0.2,7.5-0.2,11.3,0c2.9,0.2,3.5-1,3.5-3.6
		C681.7,433.7,681.7,420.9,681.7,408.2z M996.8,408c0-9.3,0-18.6,0-27.9c0-4.5,1.5-10.6-0.7-13c-2.9-3-9.1-0.6-13.8-1
		c-2.7-0.3-3.6,0.7-3.6,3.5c0.2,9.8,0.1,19.5,0.1,29.3c0,15.8,0.1,31.6-0.1,47.3c0,3.2,0.9,4.2,4,4c3.4-0.3,6.9-0.2,10.4,0
		c2.9,0.2,3.8-0.7,3.8-3.7C996.7,433.6,996.8,420.8,996.8,408z M1124.2,408.5c0-9.5,0-18.9,0-28.4c0-4.5,1.5-10.5-0.7-13.1
		c-2.6-3-8.8-0.6-13.3-1c-3.1-0.3-4.1,0.7-4.1,3.9c0.2,8.7,0.1,17.4,0.1,26.1c0,16.7,0.1,33.4-0.1,50c0,3.2,0.9,4.2,4,4
		c3.3-0.3,6.6-0.3,9.9,0c3.3,0.3,4.4-0.7,4.3-4.2C1124,433.5,1124.2,421,1124.2,408.5z M1720.1,408.5c0-9.5,0.1-18.9,0-28.4
		c-0.1-4.6,2-10.7-1-13.3c-2.6-2.3-8.6-0.5-13.1-0.8c-3.1-0.2-4.2,0.7-4.1,3.9c0.2,8.4,0.1,16.8,0.1,25.2c0,17,0.1,34-0.1,50.9
		c0,3.2,0.8,4.3,4,4c3.3-0.3,6.6-0.3,9.9,0c3.3,0.3,4.4-0.7,4.3-4.2C1719.9,433.5,1720.1,421,1720.1,408.5z M431.7,93.2
		c-4.2,0-8.4,0.1-12.6,0c-2.5-0.1-3.5,0.6-3.4,3.2c0.2,5.9,0.1,11.7,0,17.6c-0.1,2.4,0.5,3.5,3.2,3.5c8.6-0.1,17.1-0.1,25.7,0
		c2.3,0,3.2-0.7,3.1-3.1c-0.1-6-0.2-12,0-18c0.1-2.8-1.1-3.2-3.5-3.1C440.1,93.3,435.9,93.2,431.7,93.2z M1700.2,342.2
		c-0.1,6.6,3.9,11.1,10.2,11.2c6.3,0.1,10.5-4,10.7-10.2c0.2-6.8-3.8-11.3-9.9-11.5C1704.7,331.5,1700.3,335.7,1700.2,342.2z
		 M1125.2,342.6c0-6.6-4.2-10.9-10.5-10.9c-6.3,0.1-10.4,4.4-10.4,11.1c0.1,6.3,4.2,10.5,10.4,10.6
		C1121,353.5,1125.2,349.2,1125.2,342.6z M997.9,342.7c0-6.7-4.1-11-10.4-11s-10.5,4.3-10.5,11c0,6.4,4.1,10.6,10.2,10.7
		C993.6,353.5,997.8,349.3,997.9,342.7z M682.7,342.6c0-6.6-4.2-10.9-10.6-10.8c-6.3,0.1-10.4,4.5-10.3,11.1
		c0.1,6.3,4.2,10.5,10.4,10.6C678.6,353.4,682.8,349.2,682.7,342.6z"/>
	<path class="st1" d="M162.4,295.5c-1.4,4.8-2.6,8.8-3.8,12.8c-1.2,3.8-3.5,5.6-7.6,5.6c-17-0.1-34-0.1-51,0c-3.9,0-6.2-1.7-7.3-5.3
		c-1.2-4-2.5-8-3.9-12.4c-3.5,2.6-5.5,6-8,9.1c-7.6,9.1-15,18.4-22.5,27.7c-1.6,2-3.3,3.8-6,2.3c-2.5-1.4-1.8-3.8-1.1-6
		c8.7-31.1,17.4-62.2,26.1-93.2c0.9-3.1,1.2-6,1-9.3c-2.7-48.5-0.6-96.5,13.8-143.3c3.7-12.1,8.5-23.8,16.8-33.6
		c10.5-12.6,22.9-12.6,33.4,0.1c9.4,11.4,14.3,24.9,18.4,38.8c8.4,29,11.9,58.8,12.9,89c0.6,17.1,0.4,34.3-1,51.4
		c-0.2,2,0.4,3.9,0.9,5.7c8.7,31.2,17.4,62.5,26.2,93.7c0.2,0.7,0.5,1.4,0.6,2.2c0.4,1.9,0.3,3.7-1.6,4.7c-2,1-3.7,0.3-5.1-1.5
		c-6.6-8.2-13.3-16.3-19.9-24.5C170.1,304.9,166.5,300.5,162.4,295.5z M125.5,73.5c-9.3,0-17,7.6-17,16.8c0,9.2,7.7,16.8,17,16.8
		c9.4,0,17-7.5,17-16.8C142.5,81.1,134.8,73.5,125.5,73.5z"/>
	<path class="st2" d="M91.1,384.4c-0.2-6.5,0.4-18.5,3.8-30.2c1.5-5.4,3.8-10.4,7.2-14.9c12.1-16,35.4-15.7,47,0.7
		c7.7,10.8,10.1,23.4,10.6,36.3c1,24.8-1.1,49.5-4,74.2c-2.8,23.4-6.4,46.7-13,69.4c-2.3,8.1-4.9,16.1-10,23
		c-4.6,6.3-9.5,6.4-14.1,0.1c-6.5-8.8-9.2-19.2-11.9-29.5c-6.7-25.6-10.3-51.8-12.8-78.1C92.4,420.3,91.3,405.1,91.1,384.4z"/>
	<path class="st1" d="M1629.1,157.7c5-5.9,10.2-10.7,17.4-13c19.2-6.2,39.8,2,49.1,20.9c11.9,24.2,12.6,49.4,2.4,74.2
		c-9.5,23.1-36.6,32.5-57.5,21.5c-3.8-2-6.9-4.8-9.8-7.9c-1.5,0.7-0.8,1.9-0.8,2.8c-0.1,8.7,0.1,17.4-0.1,26.2
		c0,2.5,0.6,3.8,3.2,4.3c4,0.7,9.2,0.2,11.5,3c2.3,3,0.5,8.1,0.7,12.3c0.1,1-0.1,2.1,0,3.2c0.3,2.5-0.5,3.4-3.2,3.4
		c-18.6-0.1-37.3-0.1-56,0c-3,0-3.7-1.1-3.4-3.7c0.1-0.9,0-1.8,0-2.7c0.1-4.2-1.3-9.4,0.7-12.3c2-3.1,7.7-2.4,11.7-3.2
		c2.1-0.5,3-1.3,3-3.6c-0.1-37.3-0.1-74.6,0-111.9c0-2.4-0.6-3.4-3.2-3.8c-4.6-0.7-10.7-0.4-13.2-3.2c-2.8-3.1-0.4-9.2-0.9-14
		c-0.5-4.1,1.1-5,5-4.9c12.5,0.2,25,0.2,37.4,0c3.4-0.1,4.5,1.2,4.6,4.3C1627.9,152.1,1628,154.8,1629.1,157.7z M1629.8,205
		c0,7.2,0.2,14.4-0.1,21.6c-0.2,4.3,1.7,7.1,4.8,9.5c12.7,9.9,30.3,5.1,35-10.2c4.7-15,4.3-30.3-1.6-45
		c-4.3-10.8-12.6-14.8-23.9-12.5c-9.5,2-14.3,7.9-14.3,17.6C1629.8,192.4,1629.8,198.7,1629.8,205z"/>
	<path class="st1" d="M1487.1,159.5c9.9-12.8,22.1-18.1,37-16.2c18,2.2,29.2,13.8,32.5,32.9c0.9,5.2,1.3,10.4,1.3,15.7
		c0,15,0.1,30.1-0.1,45.1c0,2.8,0.7,4,3.6,4.5c3.8,0.7,8.8,0.2,11,3c2.4,2.9,0.7,7.8,0.8,11.8c0.1,6.8,0,6.8-6.8,6.8
		c-16.7,0-33.4-0.1-50.1,0.1c-3.5,0-4.5-1-4.1-4.3c0.3-3,0.4-6.1,0-9c-0.8-5.1,1.5-6.7,6.1-7.6c7.7-1.4,7.7-1.7,7.7-9.6
		c0-13.7,0-27.4,0-41.1c0-2.1-0.1-4.2-0.4-6.3c-1.1-7.7-3.7-14.6-12.2-16.6c-9.3-2.2-17.9-0.6-24.9,6.5c-1.2,1.2-1.4,2.5-1.4,4.1
		c0,19.4,0.1,38.8,0,58.2c0,2.5,0.9,3.3,3.2,3.8c10.4,2.5,10.4,2.6,10.4,13.3c0,8.3,0,8.3-8.1,8.3c-16.1,0-32.2-0.1-48.3,0.1
		c-3.9,0.1-5.2-1.2-4.5-4.8c0.1-0.4,0-0.9,0-1.4c0.1-4.2-1.2-9.2,0.7-12.3c2-3.2,7.6-2.4,11.7-3.3c2.5-0.5,3-1.8,3-4.1
		c-0.1-39.4-0.1-78.8,0-118.2c0-2.7-0.9-3.7-3.5-4.1c-3.3-0.4-6.5-1.3-9.7-1.7c-2.7-0.3-4-1.2-3.8-4.3c0.3-4.2,0.2-8.4,0-12.6
		c-0.1-2.1,0.3-3.3,2.9-3.2c14.4,0.1,28.9,0.1,43.3,0c3.2,0,2.7,1.9,2.7,3.8c0,19,0,37.9,0,56.9
		C1487.1,155.3,1487.1,156.8,1487.1,159.5z"/>
	<path class="st1" d="M1915.2,156.7c0-13.4,0-26,0-38.6c0-2.3-1.5-2.7-3.1-3c-3.5-0.7-7.1-1.4-10.6-1.9c-2.4-0.3-3.3-1.4-3.2-3.9
		c0.2-4.4,0.2-8.7,0-13.1c-0.1-2.4,0.8-3.1,3.1-3.1c14.3,0.1,28.6,0.2,42.9,0c3.7-0.1,3.2,2.1,3.2,4.4c0,46,0,92.1-0.1,138.1
		c0,3.7,0.7,5.5,4.8,6.2c10.7,1.9,10.6,2.1,10.6,13c0,8.3,0,8.3-8.1,8.3c-10.4,0-20.8-0.2-31.1,0.1c-3.5,0.1-4.4-1.3-4.7-4.2
		c-0.3-2.8-0.9-5.6-1.3-8.3c-1.6-0.5-2,0.7-2.5,1.5c-15.2,20.1-48.2,16-61.5-1.9c-7.2-9.7-11-20.7-12-32.5
		c-1.4-16.6-0.7-33.1,6.4-48.6c9.2-20,27.1-29.6,47.1-25.3C1901.9,145.3,1905.9,147.8,1915.2,156.7z M1915.3,204.7
		c0-7.4,0-14.7,0-22.1c0-1.8-0.2-3.5-1.4-5.1c-5.4-7.3-12.7-10.2-21.6-9.2c-8,0.9-12.6,6-15.2,13c-5.3,14.6-5.7,29.6-1.4,44.3
		c4.6,15.9,23.7,20.4,35.8,8.9c2.5-2.3,4-4.9,3.9-8.6C1915,218.8,1915.3,211.7,1915.3,204.7z"/>
	<path class="st1" d="M642.9,161.5c9.1-12.2,19.9-18.7,34.4-18.5c19.6,0.2,32.8,11.5,36.1,31c1,5.8,1.2,11.7,1.3,17.5
		c0.1,15.2,0.1,30.4,0,45.6c0,2.8,0.7,3.9,3.6,4.5c3.8,0.7,9,0.1,10.9,3c1.8,2.8,0.6,7.6,0.7,11.5c0.1,7.1,0,7.1-7,7.1
		c-16.7,0-33.4-0.1-50.1,0.1c-2.9,0-3.9-0.7-3.8-3.7c0.2-4.2,0.2-8.4,0-12.6c-0.1-2.2,0.7-3.1,2.9-3.6c3.5-0.8,8.4-0.3,10-3.1
		c1.7-2.8,0.7-7.3,0.7-11c0-12.6,0-25.3,0-37.9c0-0.7,0-1.5,0-2.3c-0.3-8-1.3-15.8-10-19.5c-8.8-3.6-20.3-1-26.7,5.7
		c-1.4,1.5-2,3.2-2,5.2c0.1,19,0.1,37.9-0.1,56.9c0,3,1.1,3.7,3.7,4.3c9,2.2,9,2.3,9,11.4c0,10,0,10-9.9,10
		c-14.9,0-29.8-0.2-44.7,0.1c-4.8,0.1-5.9-1.4-5.5-5.8c0.5-4.3-1.5-9.5,0.7-12.8c2.2-3.2,7.7-2.4,11.7-3.3c2.1-0.5,3-1.3,3-3.6
		c-0.1-22.3-0.1-44.5,0-66.8c0-2.4-0.6-3.6-3.2-3.8c-2.1-0.1-4.1-0.8-6.2-1.2c-7.6-1.5-7.6-1.5-7.6-9.5c0-11.2,0-11.2,11.1-11.2
		c10.5,0,21.1,0.1,31.6-0.1c3,0,4.4,0.8,4.4,4C642,153,642.5,156.7,642.9,161.5z"/>
	<path class="st1" d="M1228,161.5c6.9-9.1,14.5-15.5,24.9-17.5c26.1-5.2,44.8,9.5,46.4,36.6c1.1,18.5,0.3,37,0.4,55.5
		c0,3.4,0.6,5,4.4,5.7c10.8,2,10.8,2.3,10.8,13.3c0,8.1,0,8.1-8.3,8.1c-16.1,0-32.2-0.1-48.3,0.1c-3.2,0-4.6-0.5-4.3-4.1
		c0.4-4,0.2-8.1,0-12.2c-0.1-2.2,0.6-3.2,2.8-3.7c3.5-0.8,8.2-0.4,10.1-3c2.1-3,0.6-7.5,0.7-11.4c0.1-12.9,0.1-25.9,0-38.8
		c0-2.7-0.3-5.4-0.7-8.1c-1.4-8.3-6.4-12.8-14.9-13.7c-5-0.5-9.9-0.1-14.5,2.2c-5.5,2.8-9,6.4-8.8,13.6c0.6,17.4,0.2,34.9,0.1,52.3
		c0,3.1,0.5,4.7,4,5.5c8.7,1.8,8.7,2.1,8.7,11.2c0,10.1,0,10.1-10.3,10.1c-15.3,0-30.7-0.1-46,0.1c-3,0-3.9-0.9-3.7-3.8
		c0.2-3.9,0.2-7.8,0-11.7c-0.2-3.1,1-4,4-4.6c11.5-2.2,11.4-2.3,11.4-14.2c0-19-0.1-37.9,0.1-56.9c0-3.1-0.6-4.6-4-4.9
		c-3.4-0.3-6.8-1.4-10.2-1.9c-1.8-0.3-2.9-0.8-2.8-3.1c0.2-4.7,0.1-9.3,0-14c-0.1-2.3,0.9-2.8,3-2.8c13.5,0.1,27.1,0.1,40.6,0
		c2.6,0,3.4,1,3.5,3.5C1227.2,152.6,1227.6,156.5,1228,161.5z"/>
	<path class="st1" d="M1126.6,248.8c-7.9,10.3-17.4,15.5-29.3,16.6c-23.4,2.2-40.4-12.4-42.7-36.9c-1.7-18.5-0.5-37-0.7-55.5
		c0-3.9-0.8-5.8-5-6.7c-8.1-1.7-8.1-2-8.1-10.2c0-11,0-11,10.9-11c9.9,0,19.9,0.1,29.8-0.1c3.5-0.1,4.6,0.8,4.6,4.5
		c-0.2,22.9-0.1,45.7-0.1,68.6c0,4.4,0.4,8.7,2,12.8c2.2,5.6,6.4,8.7,12.2,9.4c5.3,0.6,10.5-0.1,15.4-2.3c6-2.7,9.7-6.3,9.4-13.9
		c-0.6-17.3-0.3-34.6-0.1-51.9c0-3.1-0.6-4.7-4.1-5.5c-10.2-2.2-10.1-2.5-10.1-13c0-8.6,0-8.6,8.4-8.6c11,0,22,0.2,32.9-0.1
		c3.7-0.1,4.8,0.9,4.8,4.7c-0.2,28.6,0,57.2-0.2,85.8c0,3.7,0.7,5.5,4.8,6.3c9.7,1.9,9.6,2.1,9.6,12.1c0,9.2,0,9.2-9.4,9.2
		c-9.9,0-19.9-0.1-29.8,0.1c-2.5,0-3.4-0.7-3.7-3.1C1127.9,256.7,1127.3,253.3,1126.6,248.8z"/>
	<path class="st1" d="M996.1,251.6c-8.5,8.6-18.2,13.2-29.9,14c-18.2,1.3-33.7-8-38.4-23.5c-5.8-19.1,2.3-35.4,21.1-42.2
		c10.5-3.8,21.4-4.5,32.4-4.4c1.2,0,2.4,0,3.6,0c10.2,0,10.2,0,9.9-10.1c-0.4-14.3-9.6-21.3-24.9-18.6c-0.9,0.2-1.8,0.4-2.6,0.6
		c-7.7,1.7-8.6,2.4-9.3,10.1c-0.4,4.7-2.2,6.4-6.9,5.9c-5.1-0.5-10.2-0.2-15.3-0.1c-2.3,0.1-3.1-0.7-3.1-3.1
		c0.2-6.9,0.2-13.8,0.1-20.8c0-1.9,0.6-3,2.2-4c20.3-12.3,41.8-16.4,64.8-8.9c17.9,5.8,27,18.9,27,37.7c0,17.1,0,34.3,0,51.4
		c0,6.7,0,6.8,6.6,7.6c2.7,0.3,4,1.3,3.7,4.3c-0.5,5.1,2.1,11.7-1,14.7c-2.5,2.4-9.1,0.7-13.9,0.8c-6,0.1-12-0.2-18,0.1
		c-3.3,0.2-5-0.8-5.7-4C997.9,256.9,997,254.6,996.1,251.6z M983.6,213.3c-11.8,0-14.9,0.6-19.1,3.7c-5.4,4-7.7,10.4-5.8,16.3
		c1.7,5.5,6.2,8.3,13.5,8.3c1.7,0,3.3,0,4.9-0.2c10.8-1.3,17.7-8,17.7-17C994.9,213.3,994.9,213.3,983.6,213.3z"/>
	<path class="st1" d="M1789.8,251.6c-8.6,8.8-18.5,13.7-30.3,14c-19,0.5-33.2-7.8-38-23.4c-5.8-19.1,2.3-35.4,21-42.3
		c8.6-3.1,17.5-4,26.6-4.4c3.1-0.1,6.3,0,9.5,0c10.2,0,10.2,0,10-10.1c-0.3-14.3-9.6-21.3-24.8-18.7c-1,0.2-2.1,0.4-3.1,0.6
		c-7.4,1.7-8.2,2.4-8.9,10c-0.4,4.6-2,6.5-6.9,6c-4.9-0.5-9.9-0.2-14.9-0.1c-2.7,0.1-3.7-0.6-3.6-3.5c0.2-6.8,0.2-13.5,0.2-20.3
		c0-1.8,0.5-3,2.1-4c20.3-12.3,41.8-16.5,64.7-9c17.9,5.8,27,18.9,27.1,37.7c0,17.4,0.1,34.9,0,52.3c0,4.4,0.9,7.3,6.2,6.8
		c3.1-0.2,4.5,1.2,4.3,4.6c-0.3,3.9-0.2,7.8,0,11.7c0.2,2.9-0.9,3.5-3.6,3.5c-9.8-0.1-19.6-0.2-29.3,0c-3.5,0.1-5.2-1.1-5.9-4.4
		C1791.5,256.6,1790.7,254.5,1789.8,251.6z M1788.6,222.4c0-1.7-0.2-3.3,0-5c0.5-3.4-0.9-4.4-4.2-4.2c-5.1,0.3-10.2,0-15.3,0.1
		c-5.3,0.2-10,2-13.5,6.1c-3.8,4.5-4.9,9.7-2.5,15.1c2.3,5.1,6.8,6.9,12.1,6.9c1.8,0,3.6,0,5.4-0.2
		C1782.2,240.2,1788.6,233.4,1788.6,222.4z"/>
	<path class="st1" d="M853.1,263.1c-18.5,0-37-0.1-55.5,0.1c-3.4,0-4.4-0.9-4.2-4.3c0.3-4,0.2-8.1,0-12.2c-0.1-2.3,0.8-3.2,3-3.5
		c3.6-0.5,7.1-1.4,10.6-1.9c2.1-0.3,3-1.2,3-3.5c-0.1-36-0.1-71.9,0-107.9c0-2.3-0.7-3.4-3-3.4c-0.3,0-0.6-0.1-0.9-0.2
		c-4.1-1.2-10.8-0.1-12-3.2c-1.9-5-0.7-11.2-0.7-16.9c0-2.8,2.3-1.8,3.7-1.8c13.1-0.1,26.2,0,39.3,0c6.2,0,12.3,0.1,18.5-0.1
		c3-0.1,4.4,0.6,4.2,3.9c-0.3,4-0.2,8.1,0,12.2c0.1,2.5-0.5,3.8-3.3,4.1c-3.3,0.4-6.5,1.5-9.7,1.8c-3.3,0.3-4,1.7-4,4.9
		c0.1,30.5,0.1,61.1,0.1,91.6c0,3.9,0.2,7.8-0.1,11.7c-0.2,3.1,0.7,4.2,3.9,4.1c12.3-0.2,24.7-0.2,37,0c2.6,0,3.8-0.6,3.9-3.4
		c0.1-4.4,0.7-8.7,0.9-13c0.1-2.5,0.9-3.7,3.8-3.6c5.9,0.2,11.7,0.3,17.6,0c3.2-0.1,3.6,1.1,3.6,3.9c-0.1,12.3-0.2,24.7,0,37
		c0.1,3.1-1,3.7-3.8,3.6C890.5,263.1,871.8,263.1,853.1,263.1z"/>
	<path class="st1" d="M329.4,263.1c-18.5,0-37-0.1-55.5,0.1c-3,0-4.4-0.6-4.1-3.9c0.3-2.7,0.1-5.4,0.1-8.1c0-7.4,0-7.4,7.5-8.8
		c9.1-1.6,9.1-1.6,9.1-10.6c0-33.4-0.1-66.8,0.1-100.2c0-3.6-0.9-5-4.4-5.5c-4-0.5-9.3-0.4-11.4-2.8c-2.4-2.7-0.7-8-0.7-12.2
		c-0.1-6.7,0-6.7,6.5-6.7c18.4,0,36.7,0.1,55.1-0.1c3.1,0,4.3,0.8,4.1,4c-0.2,4.2-0.1,8.4,0,12.6c0.1,2.2-0.6,3.2-2.9,3.5
		c-3.7,0.5-7.3,1.6-11,2.1c-2.3,0.3-3,1.1-3,3.4c0.1,35.2,0.1,70.4,0,105.6c0,2.4,0.8,3.1,3.1,3.1c12.8-0.1,25.6-0.1,38.4,0
		c2.3,0,3.1-0.7,3.2-3c0.2-4.7,0.7-9.3,1-13.9c0.1-2.2,1-3.1,3.4-3c6.2,0.2,12.3,0.2,18.5,0c2.4-0.1,3.1,0.7,3.1,3.1
		c-0.1,12.8-0.2,25.6,0,38.4c0.1,3.5-1.8,3-3.9,3C366.7,263.1,348,263.1,329.4,263.1z"/>
	<path class="st1" d="M585,203.7c0.2,11.2-1.2,21.5-5.7,31c-10.8,23.2-29.3,31.4-51.9,30.9c-36.4-0.8-53.3-28.1-53.8-58.2
		c-0.2-10.4,0.7-20.7,4.5-30.6c9.4-24.4,32.6-37,59.9-33.4c28.8,3.8,43.2,25.6,46.2,48C584.8,195.7,585.2,200,585,203.7z M553,204.4
		c0.1-8.8-0.9-17.4-5-25.3c-4-7.8-10.5-11.3-19-11.3c-8.3,0-15.1,3.4-18.4,11.3c-7.2,16.8-7.2,33.9,0,50.7c3.4,8,10.4,11.2,19,11.2
		c8.4,0,14.7-3.5,18.6-11.2C552.2,221.7,553,213.1,553,204.4z"/>
	<path class="st1" d="M1425.9,175.1c0,4.2-0.2,8.4,0.1,12.6c0.1,2.7-0.9,3.3-3.3,3.2c-6.5-0.2-12.9-0.1-19.4,0c-2.3,0.1-3.5-0.5-4-3
		c-0.6-2.9-1.6-5.8-2.4-8.7c-2.4-8.5-7.4-12-16.4-11.7c-10.3,0.4-17.6,5.1-20.6,15.1c-4.7,16-5.2,32.1,1.6,47.6
		c5.3,11.9,23.2,14.4,32.1,4.9c1.7-1.8,3.5-3.8,3.5-6.2c0.1-6.7,4-6.9,9.1-6.6c5.7,0.4,11.4,0.3,17.1,0c3.4-0.2,4.4,0.9,4.2,4.3
		c-0.8,15.3-11.7,29.8-28.1,35.3c-30.5,10.2-68-0.6-74-44.7c-1.9-13.8-1.6-27.7,3.7-40.9c7.5-18.9,21.2-30.2,41.6-32.8
		c16.7-2.1,32.6,0,47.2,9.1c5.5,3.4,9.1,7.5,7.8,14.6c-0.5,2.5-0.1,5.1-0.1,7.7C1425.8,175.1,1425.8,175.1,1425.9,175.1z"/>
	<path class="st2" d="M1453.9,450.9c-30,0-53.4-19.1-58.1-46.7c-5.2-30.6,14.7-58.8,45.3-64.3c29.1-5.2,56,8.4,66.5,33.7
		c13.7,33-7.3,70.5-42.8,76.5C1460.9,450.7,1457,451.1,1453.9,450.9z M1453.7,355.8c-21.6-0.2-39.4,17-39.7,38.4
		c-0.3,21.6,17.6,39.7,39.4,39.8c21.4,0.1,38.9-17.5,39.1-39C1492.7,373.5,1475.3,356,1453.7,355.8z"/>
	<path class="st2" d="M1312.7,433.1c-10.9,13.2-24.4,15.6-39.2,11.6c-15-4-22.7-14.9-25.6-29.6c-1.7-8.9-1.1-17.6,1.8-26.2
		c9.8-28.8,47.7-29.6,60.5-13.2c0.5,0.7,1.1,1.3,2.6,3.1c0-4.2,0.1-7.1,0-10c-0.1-1.9,0.6-2.7,2.6-2.7c4.4,0.1,8.7,0.1,13.1,0
		c2.1-0.1,2.5,1,2.5,2.8c-0.1,26,0.3,52-0.2,78c-0.3,15.7-11.4,28.5-27.2,32.7c-16.9,4.6-33,2.2-48.2-6.7c-2.8-1.6-3.1-2.9-1.3-5.5
		c2.1-2.9,3-7.6,5.7-8.9c2.8-1.4,5.9,2.9,9.1,4.3c8.2,3.7,16.7,4.8,25.5,2.9c10.7-2.4,17.3-9.8,18.3-20.7
		C1313,441.2,1312.7,437.5,1312.7,433.1z M1312.8,406c0.1-15.1-10.5-26.4-24.4-26.2c-13.8,0.2-24.2,11.3-24.3,26.1
		c-0.1,14.9,10.4,26.1,24.5,26.1C1302.5,432,1312.8,420.9,1312.8,406z"/>
	<path class="st2" d="M394.6,438c0,12.9-0.1,25.8,0.1,38.7c0,3-0.6,4.4-3.9,4.1c-3.4-0.3-6.9-0.3-10.4,0c-3.3,0.3-3.9-1.1-3.9-4.1
		c0.1-35.6,0.1-71.3,0-106.9c0-2.9,0.7-4,3.7-3.8c3.6,0.2,7.2,0.3,10.8,0c3.2-0.2,3.8,1.1,3.6,3.9c-0.2,2.7,0,5.4,0,8
		c1,0.7,1.5-0.1,1.9-0.7c13.1-18.6,51.8-17.1,63.3,11.1c7.2,17.6,3.9,40-7.9,52c-13.7,14-43,15.1-55.3-1.3c-0.4-0.5-0.6-1-0.9-1.5
		C395.3,437.6,394.9,437.8,394.6,438z M419.8,380.4c-14.5,0-25.1,11.4-25.2,27.2c-0.1,16.2,10.7,28,25.5,27.9
		c14.5-0.1,25.2-12,25-27.9C445,391.9,434.3,380.4,419.8,380.4z"/>
	<path class="st2" d="M1550.1,378.7c4.9-6.6,11.2-10.9,19.1-12.7c24.6-5.5,46.7,10.5,48.8,35.7c0.9,11.1-0.2,21.7-6,31.8
		c-12.5,21.5-47.5,23.2-60.6,5.5c-0.4-0.5-0.7-0.9-1.3-1.7c-1.2,1.9-0.7,3.5-0.7,5.1c-0.1,11.3-0.2,22.6,0.1,33.8
		c0.1,3.9-1.1,4.9-4.8,4.6c-3.4-0.3-6.9-0.2-10.4,0c-2.4,0.1-3-0.8-3-3.1c0.1-36.2,0.1-72.5,0-108.7c0-2,0.4-3.2,2.7-2.9
		c0.1,0,0.3,0,0.4,0c4.5,0,9.7-1.4,13.3,0.4C1552,368.5,1548,374.3,1550.1,378.7z M1600,407.6c-0.1-12.5-7.3-23.1-17.7-26.1
		c-13.2-3.8-26,2.5-30.8,15.1c-5.3,14.1,0.2,30.6,12.2,36.3C1581.3,441.5,1600.1,428.4,1600,407.6z"/>
	<path class="st1" d="M447.7,193.1c0,14.6,0.1,29.2-0.1,43.8c0,3,0.9,4.1,3.9,4.7c11.6,2.3,11.5,2.4,11.5,14.1c0,7.5,0,7.5-7.6,7.5
		c-16.7,0-33.4-0.2-50.1,0.1c-4.4,0.1-5.6-1.4-5-5.3c0-0.1,0-0.3,0-0.4c0.1-4.3-1.2-9.5,0.7-12.8c1.9-3.2,7.6-2.4,11.7-3.3
		c2.4-0.6,3-1.7,3-4.1c-0.1-22.1-0.1-44.2,0-66.3c0-2.4-0.6-3.5-3.2-3.8c-3.7-0.4-7.4-1.5-11.1-2.1c-2.1-0.3-3.1-1.2-3-3.5
		c0.2-4.5,0.1-9,0-13.5c-0.1-2.1,0.7-2.9,2.9-2.9c14.4,0.1,28.9,0.1,43.3,0c2.9,0,3,1.5,3,3.7C447.7,163.6,447.7,178.4,447.7,193.1z
		"/>
	<path class="st2" d="M313.3,338.9c13.8-0.1,25.3,3.1,36.3,8.9c2.9,1.5,4.1,3,2.1,6.2c-1.8,2.9-3.1,6.2-4.4,9.4
		c-1.1,2.7-2.4,3.2-5.1,1.7c-9.6-5.4-19.7-8.8-30.9-8.4c-3,0.1-6,0.4-8.8,1.6c-8.1,3.5-9.7,12.3-3.3,18.3c2.9,2.7,6.4,4.4,10.1,5.7
		c8.7,3.2,17.8,5.4,26.4,9.1c24.2,10.3,22.3,35.5,11.9,46.9c-7.3,8-17,11.3-27.4,12.3c-18.5,1.7-35.1-3.2-49.7-14.7
		c-2.2-1.7-2.7-3.1-1.2-5.6c1.9-3.2,3.6-6.6,5.1-10.1c1.2-2.8,2.1-2.8,4.4-0.9c10.6,8.7,22.5,14.3,36.7,13.8c1.5-0.1,3-0.1,4.5-0.3
		c7.5-0.9,12.9-5.2,13.9-10.9c1-5.9-2.4-11.2-9.6-14.7c-7.3-3.5-15.4-5.1-23.1-7.7c-4.4-1.5-8.8-3.1-12.8-5.4
		c-10-5.8-14.5-14.4-13.9-25.9c0.5-10.6,5.6-18.2,14.6-23.4C296.9,340.3,305.6,338.8,313.3,338.9z"/>
	<path class="st2" d="M524.2,414.8c-9.2,0-18.3,0.2-27.5-0.1c-4.1-0.1-4,1.3-2.9,4.4c5.6,15.1,22.3,21.3,38.2,14.1
		c2.9-1.3,5.7-2.9,7.8-5.2c1.7-1.8,2.9-1.5,4.3,0.3c1,1.3,2.3,2.4,3.4,3.6c4.9,5.3,4.9,5.3-0.7,9.6c-19.1,14.8-49.8,12.5-63.6-5.5
		c-11.5-14.9-12.3-31.8-4.6-48.5c7.2-15.6,20.8-22.1,37.7-22.4c7.3-0.1,14.4,0.9,21,4.3c10.8,5.5,15.8,15.1,17.9,26.6
		c0.9,4.9,0.8,9.9,1,14.8c0.1,3.6-1.3,4.2-4.5,4.1C542.6,414.7,533.4,414.8,524.2,414.8z M516,401.4c6.6,0,13.2-0.1,19.8,0
		c3,0.1,4.3-0.3,3.5-3.9c-2.4-11.1-10.6-17.8-22.7-17.8c-11.9,0-21.6,7.6-23.7,18.2c-0.5,2.5,0,3.5,2.8,3.5
		C502.5,401.3,509.3,401.4,516,401.4z"/>
	<path class="st2" d="M758,441.5c-10.5,9.6-23,11.3-36.2,8.3c-18.9-4.2-26.8-26.3-14.6-40.6c6.3-7.4,15.2-9.2,24.4-9.6
		c7.8-0.3,15.6-0.2,23.5,0c2.8,0.1,3.6-0.8,3.5-3.6c-0.6-11.8-9.4-16.5-21.2-16.1c-7.6,0.3-14.4,3-20.7,7c-2.2,1.4-3.2,1.3-4.4-1.1
		c-1.3-2.7-2.9-5.3-4.5-7.8c-1.1-1.8-1-2.8,0.9-3.9c14.9-9,30.8-11.7,47.6-7.3c12.5,3.3,19.9,13.2,20.1,26.2
		c0.2,17.7,0.1,35.5,0.2,53.2c0,2.6-0.6,4-3.5,3.6c-1.5-0.2-3,0-4.5,0c-3,0-6.4,0.8-8.9-0.3C756.7,448.3,759.7,444.2,758,441.5z
		 M734.9,436.5c4.7,0.1,9.2-0.8,13.5-2.9c7.6-3.7,10.8-9.3,10.2-17.8c-0.1-1.4,0.1-2.8-2-2.8c-9.9,0.3-19.9-1-29.7,1
		c-6.7,1.4-9.7,7.2-7.4,13.8C721.4,433.5,726.7,436.5,734.9,436.5z"/>
	<path class="st2" d="M1781.7,450.9c-19.4,0-34.4-9.5-40.6-25.7c-6.8-17.5-2.9-37.9,10.4-49.4c15.1-12.9,32.7-14,50.4-6.7
		c16.6,6.9,23.8,20.7,23.9,38.4C1825.8,434,1808.5,450.9,1781.7,450.9z M1781.8,435.7c15,0.1,25.7-11.1,25.8-27
		c0.2-16.1-10.6-28-25.3-28.1c-15.1-0.1-25.9,11.2-26.1,27.3C1756,424,1766.7,435.6,1781.8,435.7z"/>
	<path class="st2" d="M1862.7,380.7c10.7-15.5,25.3-17.8,41.2-14.3c12.6,2.8,20.7,13.6,21,27.1c0.3,17.7,0,35.5,0.1,53.2
		c0,2.7-0.9,3.4-3.4,3.2c-3.8-0.2-7.5-0.2-11.3,0c-2.8,0.2-3.5-0.8-3.5-3.6c0.1-13.4,0.1-26.8,0.1-40.2c0-15.7-6.6-23.9-19.3-24
		c-14.4-0.2-24.7,9.8-24.9,24.5c-0.2,13.1-0.1,26.2,0,39.3c0,3.1-0.8,4.3-4,4c-4.6-0.5-10.7,1.9-13.4-1c-2.3-2.6-0.8-8.6-0.8-13.1
		c0-21.7,0.1-43.3-0.1-65c-0.1-4.3,1.3-5.4,5.3-5c3.3,0.3,6.6,0.2,9.9,0c2.4-0.1,3.1,0.8,3,3.1
		C1862.6,372.7,1862.7,376.2,1862.7,380.7z"/>
	<path class="st2" d="M1168.4,380.9c9.9-14.8,23.4-17.5,38.4-15c14.8,2.4,23.7,13.3,23.9,28.4c0.2,17.4,0,34.9,0.1,52.3
		c0,2.9-1,3.6-3.6,3.5c-4.6-0.3-10.7,1.5-13.5-0.8c-3-2.4-0.9-8.7-0.9-13.3c-0.1-10.5,0-21.1-0.1-31.6c-0.1-12.6-5.3-19.8-15.9-21.8
		c-11.4-2.1-22.4,4-26.4,14.9c-1.3,3.5-2,7.2-2,11c0.1,12.6-0.1,25.3,0.1,37.9c0,3-0.8,4-3.8,3.8c-3.4-0.2-6.9-0.3-10.4,0
		c-3.1,0.2-4.1-0.7-4.1-3.9c0.2-16.2,0.1-32.5,0.1-48.7c0-9.2,0.1-18.4-0.1-27.5c0-2.8,0.5-4.1,3.6-3.9c3.7,0.3,7.5,0.2,11.3,0
		c2.7-0.1,3.4,0.9,3.2,3.4C1168.3,372.8,1168.4,376.2,1168.4,380.9z"/>
	<path class="st2" d="M609.5,450.9c-19.6,0-34-9.6-40-26.4c-6.7-19-1.3-39.8,13.2-51.2c15.5-12.2,45.1-10.7,59.1,3
		c1.8,1.7,2.2,3.1,0.2,4.7c-0.2,0.2-0.4,0.5-0.6,0.7c-2.2,2.7-3.9,6.4-6.8,7.7c-3.3,1.5-5.4-3.1-8.3-4.6
		c-11.7-6.2-26.7-4.7-34.3,3.8c-8.5,9.6-9.2,26.3-1.5,36.9c7.2,9.9,23.1,12.6,35.6,5.9c1.6-0.8,3.4-1.7,4.5-3
		c3.3-4.1,5.8-2.7,8.3,0.7c0.1,0.1,0.2,0.2,0.3,0.3c6.6,6.6,6.5,6.6-1,12.5C630.7,448,621.2,450.9,609.5,450.9z"/>
	<path class="st2" d="M895.7,395c0-17,0.1-34-0.1-51c0-3.4,0.9-4.5,4.3-4.2c3.4,0.3,6.9,0.3,10.4,0c3.6-0.3,4.2,1.2,4.2,4.4
		c-0.1,25.7-0.1,51.4-0.1,77.1c0,2.6,0.2,5.1,0,7.7c-0.3,3.1,0.8,4.1,4,4.1c13.1-0.2,26.2,0.1,39.2-0.2c3.9-0.1,5.1,1.2,4.7,4.9
		c-0.5,4,1.8,9.3-1,11.6c-2.3,2-7.5,0.7-11.3,0.7c-16.7,0-33.4-0.1-50.1,0.1c-3.4,0-4.3-1-4.2-4.3C895.8,429,895.7,412,895.7,395z"
		/>
	<path class="st2" d="M1051.7,431.7c5.5-15.8,10.5-30.2,15.5-44.6c2.1-6,4.3-11.9,6.1-17.9c0.8-2.5,1.9-3.3,4.5-3.2
		c4.8,0.2,9.6,0.1,15,0.1c-2.7,7.2-5.2,13.9-7.7,20.6c-7.6,19.8-15.2,39.5-22.6,59.3c-1.2,3.2-2.8,4.5-6.2,4.1
		c-4.8-0.5-10.7,1.8-14-0.8c-3.3-2.6-4-8.4-5.7-12.9c-8.5-22-17-44-25.6-65.9c-1.2-3.1-1.7-4.9,2.7-4.4c4.9,0.5,11-1.9,14.4,0.9
		c3.2,2.7,3.8,8.6,5.4,13.1C1039.4,396.8,1045.3,413.7,1051.7,431.7z"/>
	<path class="st2" d="M1640.6,407.9c0-7.1-0.1-14.1,0.1-21.2c0.1-2.7-0.6-3.6-3.5-3.6c-8.5,0-8.3-0.2-8.5-8.9
		c-0.1-3.8,1-4.9,4.7-4.7c7.2,0.3,7.2,0.1,7.2-7.3c0-4.2,0.1-8.4,0-12.6c-0.1-2.3,0.6-3.4,3-3.1c0.1,0,0.3,0,0.4,0
		c4.7,0.4,11-2,13.8,1c2.3,2.4,0.7,8.6,0.8,13.1c0.1,9.1,0,9.1,9.2,9.1c4.2,0,8.4,0,12.6,0c1.1,0,2.9-0.5,3,1.1
		c0.2,3.7,0.2,7.5,0,11.2c-0.1,1.6-1.9,1.1-3,1.1c-6,0-12,0.2-18,0c-2.9-0.1-3.8,0.7-3.8,3.7c0.2,11.9,0,23.7,0.1,35.6
		c0.1,10.5,4.5,13.8,14.7,11c2.3-0.6,4.7-3,6.6-1.9c2.2,1.3,2.1,4.7,3,7.3c2.3,6.5,2.2,6.6-4.4,9.2c-9.5,3.6-19,4.9-28.2-0.7
		c-6.9-4.2-9.6-11-9.8-18.7C1640.5,421.8,1640.6,414.9,1640.6,407.9z"/>
	<path class="st2" d="M801.8,391.7c0-17.9,0.1-35.8-0.1-53.7c-0.1-3.9,1.2-4.9,4.8-4.6c3.4,0.3,6.9,0.2,10.4,0c2.4-0.1,3,0.8,3,3.1
		c-0.1,36.8-0.1,73.6,0,110.5c0,2.5-0.9,3.1-3.2,3c-4.8-0.2-10.9,1.5-14-0.9c-3-2.3-0.9-8.7-0.9-13.3
		C801.7,421.2,801.8,406.5,801.8,391.7z"/>
	<path class="st2" d="M681.7,408.2c0,12.8-0.1,25.5,0.1,38.3c0,2.7-0.5,3.8-3.5,3.6c-3.7-0.2-7.5-0.2-11.3,0c-2.9,0.2-3.5-1-3.5-3.6
		c0.1-25.7,0.1-51.4,0-77.1c0-3,1.1-3.5,3.7-3.4c3.6,0.2,7.2,0.2,10.8,0c3.1-0.2,3.7,1,3.7,3.9C681.6,382.6,681.7,395.4,681.7,408.2
		z"/>
	<path class="st2" d="M996.8,408c0,12.8-0.1,25.5,0.1,38.3c0,3-0.9,3.9-3.8,3.7c-3.4-0.2-6.9-0.3-10.4,0c-3.1,0.2-4.1-0.7-4-4
		c0.2-15.8,0.1-31.6,0.1-47.3c0-9.8,0.1-19.5-0.1-29.3c-0.1-2.8,0.8-3.7,3.6-3.5c4.7,0.5,10.9-2,13.8,1c2.3,2.4,0.7,8.6,0.7,13
		C996.9,389.4,996.8,398.7,996.8,408z"/>
	<path class="st2" d="M1124.2,408.5c0,12.5-0.1,24.9,0.1,37.4c0.1,3.5-1,4.5-4.3,4.2c-3.3-0.3-6.6-0.3-9.9,0c-3.2,0.3-4.1-0.8-4-4
		c0.2-16.7,0.1-33.4,0.1-50c0-8.7,0.1-17.4-0.1-26.1c-0.1-3.2,0.9-4.3,4.1-3.9c4.6,0.5,10.7-2,13.3,1c2.3,2.6,0.7,8.6,0.7,13.1
		C1124.2,389.6,1124.2,399,1124.2,408.5z"/>
	<path class="st2" d="M1720.1,408.5c0,12.5-0.1,24.9,0.1,37.4c0.1,3.5-1,4.4-4.3,4.2c-3.3-0.3-6.6-0.3-9.9,0c-3.2,0.3-4-0.8-4-4
		c0.2-17,0.1-34,0.1-50.9c0-8.4,0.2-16.8-0.1-25.2c-0.1-3.3,1-4.2,4.1-3.9c4.5,0.3,10.4-1.5,13.1,0.8c3,2.6,0.9,8.7,1,13.3
		C1720.2,389.6,1720.1,399,1720.1,408.5z"/>
	<path class="st1" d="M431.7,93.2c4.2,0,8.4,0.1,12.6,0c2.3-0.1,3.6,0.3,3.5,3.1c-0.2,6-0.2,12,0,18c0.1,2.4-0.8,3.1-3.1,3.1
		c-8.6-0.1-17.1-0.1-25.7,0c-2.7,0.1-3.3-1-3.2-3.5c0.1-5.9,0.2-11.7,0-17.6c-0.1-2.7,0.9-3.3,3.4-3.2
		C423.3,93.3,427.5,93.2,431.7,93.2z"/>
	<path class="st2" d="M1700.2,342.2c0.1-6.5,4.5-10.7,11-10.5c6.2,0.2,10.1,4.7,9.9,11.5c-0.1,6.2-4.4,10.3-10.7,10.2
		C1704.1,353.3,1700.1,348.9,1700.2,342.2z"/>
	<path class="st2" d="M1125.2,342.6c0,6.6-4.1,10.9-10.5,10.8c-6.2-0.1-10.3-4.3-10.4-10.6c-0.1-6.6,4.1-11,10.4-11.1
		C1121,331.7,1125.2,336,1125.2,342.6z"/>
	<path class="st2" d="M997.9,342.7c0,6.6-4.2,10.8-10.7,10.7c-6.1-0.1-10.2-4.4-10.2-10.7c0-6.6,4.1-11,10.5-11
		C993.8,331.7,997.9,336,997.9,342.7z"/>
	<path class="st2" d="M682.7,342.6c0,6.6-4.1,10.9-10.5,10.9c-6.2,0-10.3-4.3-10.4-10.6c-0.1-6.6,4-11,10.3-11.1
		C678.6,331.7,682.7,335.9,682.7,342.6z"/>
	<path class="st0" d="M125.5,73.5c9.3,0,17,7.6,17,16.8c0,9.2-7.6,16.8-17,16.8c-9.3,0-17-7.6-17-16.8
		C108.5,81.1,116.2,73.5,125.5,73.5z"/>
	<path class="st0" d="M1629.8,205c0-6.3,0-12.6,0-18.9c0-9.7,4.8-15.6,14.3-17.6c11.3-2.3,19.6,1.7,23.9,12.5
		c5.9,14.7,6.2,30,1.6,45c-4.7,15.3-22.3,20.1-35,10.2c-3.1-2.4-5-5.2-4.8-9.5C1630,219.4,1629.8,212.2,1629.8,205z"/>
	<path class="st0" d="M1915.3,204.7c0,7.1-0.2,14.2,0.1,21.2c0.2,3.7-1.4,6.3-3.9,8.6c-12.1,11.4-31.2,7-35.8-8.9
		c-4.3-14.7-3.9-29.7,1.4-44.3c2.6-7.1,7.2-12.1,15.2-13c8.9-1,16.2,1.9,21.6,9.2c1.2,1.6,1.4,3.2,1.4,5.1
		C1915.2,189.9,1915.3,197.3,1915.3,204.7z"/>
	<path class="st0" d="M983.6,213.3c11.3,0,11.3,0,11.3,11c0,9-6.9,15.7-17.7,17c-1.6,0.2-3.3,0.2-4.9,0.2c-7.2,0-11.7-2.8-13.5-8.3
		c-1.9-5.9,0.4-12.3,5.8-16.3C968.7,213.9,971.8,213.3,983.6,213.3z"/>
	<path class="st0" d="M1788.6,222.4c0,11-6.4,17.7-18,19c-1.8,0.2-3.6,0.2-5.4,0.2c-5.3,0-9.9-1.8-12.1-6.9
		c-2.4-5.5-1.3-10.6,2.5-15.1c3.5-4.2,8.2-6,13.5-6.1c5.1-0.1,10.2,0.2,15.3-0.1c3.4-0.2,4.7,0.8,4.2,4.2
		C1788.4,219.1,1788.6,220.8,1788.6,222.4z"/>
	<path class="st0" d="M553,204.4c0,8.8-0.8,17.4-4.9,25.4c-3.9,7.6-10.2,11.1-18.6,11.2c-8.5,0-15.5-3.1-19-11.2
		c-7.2-16.8-7.1-33.9,0-50.7c3.3-7.9,10.2-11.3,18.4-11.3c8.4,0,15,3.5,19,11.3C552.1,187,553.1,195.6,553,204.4z"/>
	<path class="st0" d="M1453.7,355.8c21.6,0.2,39,17.7,38.8,39.2c-0.2,21.6-17.7,39.1-39.1,39c-21.8-0.1-39.8-18.1-39.4-39.8
		C1414.3,372.9,1432.1,355.7,1453.7,355.8z"/>
	<path class="st0" d="M1312.8,406c-0.1,15-10.3,26-24.2,26c-14.1,0-24.6-11.2-24.5-26.1c0.1-14.7,10.5-25.9,24.3-26.1
		C1302.4,379.6,1312.9,390.9,1312.8,406z"/>
	<path class="st0" d="M419.8,380.4c14.5,0,25.2,11.5,25.3,27.1c0.1,15.9-10.5,27.8-25,27.9c-14.8,0.1-25.6-11.7-25.5-27.9
		C394.7,391.8,405.3,380.4,419.8,380.4z"/>
	<path class="st0" d="M1600,407.6c0.2,20.8-18.6,33.9-36.3,25.4c-12-5.8-17.5-22.3-12.2-36.3c4.8-12.6,17.6-18.9,30.8-15.1
		C1592.6,384.5,1599.9,395.1,1600,407.6z"/>
	<path class="st0" d="M516,401.4c-6.8,0-13.5-0.1-20.3,0.1c-2.8,0.1-3.3-1-2.8-3.5c2.1-10.7,11.9-18.2,23.7-18.2
		c12,0,20.3,6.7,22.7,17.8c0.8,3.7-0.6,4-3.5,3.9C529.3,401.3,522.7,401.4,516,401.4z"/>
	<path class="st0" d="M734.9,436.5c-8.1,0-13.4-3-15.4-8.6c-2.2-6.6,0.7-12.4,7.4-13.8c9.8-2.1,19.8-0.7,29.7-1c2-0.1,1.9,1.4,2,2.8
		c0.6,8.5-2.6,14.1-10.2,17.8C744.1,435.7,739.6,436.6,734.9,436.5z"/>
	<path class="st0" d="M1781.8,435.7c-15-0.1-25.8-11.7-25.5-27.7c0.2-16.1,11-27.4,26.1-27.3c14.7,0.1,25.5,12,25.3,28.1
		C1807.4,424.6,1796.7,435.7,1781.8,435.7z"/>
</g>
</svg>
