<?xml version="1.0" encoding="utf-8"?>
<!-- Generator: Adobe Illustrator 23.0.2, SVG Export Plug-In . SVG Version: 6.00 Build 0)  -->
<svg version="1.1" id="Layer_1" xmlns="http://www.w3.org/2000/svg" xmlns:xlink="http://www.w3.org/1999/xlink" x="0px" y="0px"
	 viewBox="0 0 2000 600" style="enable-background:new 0 0 2000 600;" xml:space="preserve">
<style type="text/css">
	.st0{display:none;fill:#FEFEFE;}
	.st1{fill:#FFFFFF;}
</style>
<g>
	<path class="st0" d="M-9.6,550.4c0-183.8,0-367.7-0.1-551.5c0-3.5,0.8-4.2,4.2-4.2c667.1,0.1,1334.1,0.1,2001.2,0
		c3.5,0,4.2,0.8,4.2,4.2c-0.1,182.5-0.1,364.9,0,547.4c0,3.5-0.8,4.2-4.2,4.2C1327.3,550.4,658.9,550.4-9.6,550.4z M138.9,274.3
		c4.2,5.1,7.8,9.5,11.5,14c6.8,8.3,13.6,16.7,20.4,25c1.5,1.8,3.2,2.5,5.3,1.5c2-1,2.1-2.9,1.7-4.8c-0.2-0.8-0.4-1.5-0.6-2.2
		c-8.9-31.9-17.9-63.8-26.8-95.8c-0.5-1.9-1.1-3.8-1-5.9c1.4-17.5,1.6-35,1-52.5c-1.1-30.8-4.6-61.3-13.2-91
		c-4.1-14.2-9.2-28.1-18.8-39.7C107.6,10,95,10,84.2,22.9C75.7,33,70.8,44.9,67,57.3c-14.8,47.8-16.9,96.9-14.1,146.5
		c0.2,3.3-0.2,6.4-1.1,9.5C42.9,245,34,276.8,25.1,308.6c-0.6,2.3-1.4,4.7,1.2,6.2c2.8,1.6,4.5-0.3,6.1-2.3
		c7.6-9.5,15.2-18.9,23-28.3c2.5-3.1,4.7-6.6,8.2-9.3c1.4,4.5,2.7,8.6,4,12.7c1.1,3.7,3.5,5.5,7.5,5.4c17.4-0.1,34.8-0.1,52.1,0
		c4.2,0,6.6-1.9,7.8-5.7C136.3,283.3,137.5,279.2,138.9,274.3z M66,365.1c0.3,21.2,1.3,36.6,2.8,52.1c2.6,26.9,6.3,53.7,13.1,79.8
		c2.7,10.5,5.5,21.2,12.1,30.1c4.7,6.4,9.7,6.3,14.4-0.1c5.2-7.1,7.8-15.3,10.2-23.5c6.8-23.2,10.5-47,13.3-70.9
		c3-25.2,5.1-50.4,4.1-75.8c-0.5-13.1-3-26-10.8-37.1c-11.9-16.7-35.7-17.1-48.1-0.7c-3.5,4.6-5.8,9.8-7.3,15.3
		C66.4,346.2,65.8,358.4,66,365.1z M1638.3,133.4c-1.2-3.1-1.2-5.8-1.3-8.5c-0.1-3.2-1.2-4.5-4.7-4.4c-12.8,0.2-25.5,0.3-38.3,0
		c-4-0.1-5.6,0.8-5.1,5c0.6,4.9-1.9,11.1,0.9,14.3c2.6,2.9,8.8,2.6,13.5,3.3c2.6,0.4,3.2,1.4,3.2,3.9c-0.1,38.1-0.1,76.3,0,114.4
		c0,2.3-0.9,3.2-3,3.7c-4.2,0.9-9.9,0.2-12,3.3c-2,3-0.6,8.3-0.7,12.6c0,0.9,0.1,1.9,0,2.8c-0.3,2.7,0.4,3.8,3.4,3.7
		c19.1-0.1,38.1-0.1,57.2,0c2.7,0,3.5-1,3.2-3.4c-0.1-1.1,0-2.1,0-3.2c-0.2-4.3,1.7-9.5-0.7-12.5c-2.3-2.9-7.7-2.3-11.7-3.1
		c-2.7-0.5-3.4-1.8-3.3-4.4c0.1-8.9,0-17.8,0.1-26.8c0-0.9-0.7-2.2,0.8-2.8c2.9,3.2,6.1,6,10,8c21.5,11.3,49.1,1.6,58.8-21.9
		c10.4-25.3,9.7-51.2-2.4-75.9c-9.5-19.3-30.5-27.7-50.1-21.4C1648.8,122.5,1643.5,127.4,1638.3,133.4z M1493.2,135.2
		c0-2.8,0-4.3,0-5.8c0-19.4,0-38.7,0-58.1c0-2,0.5-3.9-2.8-3.9c-14.8,0.1-29.5,0.1-44.3,0c-2.6,0-3,1.1-3,3.3
		c0.1,4.3,0.3,8.6,0,12.9c-0.2,3.1,1.2,4,3.9,4.3c3.3,0.4,6.6,1.3,10,1.8c2.6,0.3,3.6,1.4,3.6,4.2c-0.1,40.3-0.1,80.6,0,120.9
		c0,2.4-0.6,3.6-3.1,4.2c-4.1,0.9-9.9,0.1-11.9,3.4c-1.9,3.2-0.6,8.3-0.7,12.6c0,0.5,0.1,0.9,0,1.4c-0.6,3.7,0.7,4.9,4.6,4.9
		c16.4-0.2,32.9-0.1,49.4-0.1c8.3,0,8.3,0,8.3-8.4c0-11,0-11.1-10.6-13.6c-2.3-0.6-3.3-1.3-3.3-3.9c0.1-19.8,0.1-39.7,0-59.5
		c0-1.6,0.1-2.9,1.4-4.2c7.2-7.3,15.9-9,25.4-6.7c8.7,2.1,11.4,9.1,12.5,17c0.3,2.1,0.4,4.3,0.4,6.4c0,14,0,28,0,42
		c0,8.1,0.1,8.3-7.8,9.8c-4.7,0.9-7.1,2.6-6.2,7.7c0.5,3,0.3,6.2,0,9.2c-0.3,3.4,0.7,4.4,4.2,4.4c17.1-0.2,34.1-0.1,51.2-0.1
		c7,0,7.1,0,7-7c-0.1-4.1,1.7-9.1-0.8-12.1c-2.3-2.8-7.4-2.3-11.3-3c-2.9-0.5-3.7-1.8-3.6-4.6c0.1-15.4,0.1-30.8,0.1-46.1
		c0-5.4-0.4-10.7-1.3-16c-3.4-19.5-14.9-31.3-33.2-33.6C1515.8,116.8,1503.3,122.1,1493.2,135.2z M1930.8,132.3
		c-9.6-9.1-13.6-11.6-20.7-13.1c-20.4-4.4-38.8,5.4-48.2,25.8c-7.3,15.9-8,32.7-6.5,49.7c1,12.1,4.9,23.3,12.2,33.3
		c13.6,18.3,47.3,22.5,62.9,1.9c0.6-0.7,1-2.1,2.6-1.5c0.4,2.8,1,5.6,1.3,8.5c0.3,3,1.3,4.4,4.8,4.3c10.6-0.3,21.2-0.1,31.8-0.1
		c8.3,0,8.3,0,8.3-8.5c0-11.2,0-11.4-10.8-13.3c-4.2-0.7-4.9-2.5-4.9-6.3c0.1-47.1,0.1-94.1,0.1-141.2c0-2.3,0.6-4.5-3.2-4.5
		c-14.6,0.2-29.2,0.1-43.8,0c-2.4,0-3.3,0.7-3.2,3.1c0.1,4.5,0.2,8.9,0,13.4c-0.1,2.5,0.9,3.6,3.3,3.9c3.6,0.5,7.3,1.3,10.9,2
		c1.7,0.3,3.2,0.6,3.2,3C1930.8,105.7,1930.8,118.6,1930.8,132.3z M630.1,137.2c-0.4-4.8-0.9-8.7-1-12.5c0-3.3-1.4-4.1-4.5-4.1
		c-10.8,0.2-21.5,0.1-32.3,0.1c-11.4,0-11.4,0-11.4,11.5c0,8.1,0,8.1,7.7,9.7c2.1,0.4,4.2,1.2,6.3,1.3c2.7,0.1,3.3,1.4,3.3,3.8
		c-0.1,22.8-0.1,45.5,0,68.3c0,2.3-0.9,3.2-3.1,3.7c-4.1,1-9.7,0.1-12,3.4c-2.3,3.4-0.3,8.7-0.8,13.1s0.6,6,5.6,5.9
		c15.2-0.4,30.4-0.1,45.7-0.1c10.2,0,10.2,0,10.2-10.3c0-9.4,0-9.5-9.2-11.7c-2.6-0.6-3.8-1.4-3.8-4.4c0.2-19.4,0.1-38.7,0.1-58.1
		c0-2.1,0.5-3.8,2-5.4c6.5-6.9,18.3-9.5,27.3-5.8c9,3.7,9.9,11.7,10.3,19.9c0,0.8,0,1.5,0,2.3c0,12.9,0,25.8,0,38.7
		c0,3.8,1,8.4-0.7,11.3c-1.6,2.8-6.7,2.3-10.2,3.1c-2.2,0.5-3,1.5-3,3.7c0.1,4.3,0.2,8.6,0,12.9c-0.2,3.1,0.9,3.8,3.8,3.8
		c17.1-0.1,34.1-0.1,51.2-0.1c7.2,0,7.2,0,7.1-7.3c0-4,1.2-8.9-0.7-11.7c-1.9-3-7.3-2.3-11.2-3.1c-2.9-0.6-3.7-1.8-3.6-4.6
		c0.1-15.5,0.1-31.1,0-46.6c0-6-0.3-12-1.3-17.9c-3.3-19.9-16.8-31.4-36.9-31.6C650.5,118.2,639.4,124.8,630.1,137.2z M1228.2,137.2
		c-0.4-5.1-0.9-9.1-1-13c-0.1-2.5-1-3.5-3.6-3.5c-13.8,0.1-27.7,0.1-41.5,0c-2.1,0-3.1,0.5-3,2.8c0.1,4.8,0.2,9.5,0,14.3
		c-0.1,2.3,1,2.8,2.9,3.2c3.5,0.6,6.9,1.7,10.4,2c3.5,0.3,4.1,1.9,4.1,5c-0.1,19.4-0.1,38.7-0.1,58.1c0,12.1,0,12.3-11.7,14.5
		c-3,0.6-4.3,1.5-4.1,4.7c0.2,4,0.2,8,0,12c-0.2,3,0.8,3.9,3.8,3.9c15.7-0.1,31.4-0.1,47.1-0.1c10.5,0,10.5,0,10.5-10.4
		c0-9.3,0.1-9.6-8.9-11.5c-3.6-0.8-4.2-2.4-4.1-5.6c0.1-17.8,0.5-35.7-0.1-53.5c-0.2-7.4,3.3-11,8.9-13.9c4.6-2.4,9.7-2.8,14.8-2.2
		c8.7,0.9,13.8,5.5,15.2,14c0.5,2.7,0.7,5.5,0.7,8.2c0.1,13.2,0.1,26.4,0,39.7c0,4,1.5,8.7-0.7,11.7c-1.9,2.7-6.7,2.3-10.3,3.1
		c-2.3,0.5-3,1.6-2.9,3.8c0.1,4.1,0.3,8.3,0,12.4c-0.3,3.7,1.2,4.2,4.4,4.2c16.5-0.2,32.9-0.1,49.4-0.1c8.4,0,8.4,0,8.4-8.3
		c0-11.3,0-11.5-11-13.6c-3.9-0.7-4.5-2.3-4.5-5.8c0-18.9,0.7-37.8-0.4-56.7c-1.6-27.7-20.7-42.7-47.4-37.4
		C1243.1,121.4,1235.3,127.9,1228.2,137.2z M1124.6,226.5c0.7,4.5,1.3,8,1.6,11.5c0.2,2.5,1.2,3.2,3.8,3.2
		c10.2-0.2,20.3-0.1,30.4-0.1c9.6,0,9.6,0,9.6-9.4c0-10.2,0.1-10.4-9.8-12.3c-4.2-0.8-4.9-2.7-4.9-6.4c0.1-29.2,0-58.4,0.2-87.7
		c0-3.9-1.1-4.9-4.9-4.8c-11.2,0.3-22.5,0.1-33.7,0.1c-8.6,0-8.6,0-8.6,8.8c0,10.8-0.1,11,10.4,13.3c3.6,0.8,4.2,2.4,4.2,5.6
		c-0.1,17.7-0.5,35.4,0.1,53c0.3,7.8-3.4,11.5-9.6,14.3c-5,2.2-10.4,3-15.8,2.3c-6-0.7-10.3-3.8-12.5-9.6c-1.6-4.2-2.1-8.6-2.1-13.1
		c0-23.4-0.1-46.8,0.1-70.1c0-3.8-1.1-4.6-4.7-4.6c-10.1,0.2-20.3,0.1-30.4,0.1c-11.1,0-11.1,0-11.1,11.3c0,8.5-0.1,8.7,8.3,10.4
		c4.2,0.9,5,2.8,5.1,6.8c0.1,18.9-1.1,37.8,0.7,56.7c2.3,25,19.8,39.9,43.7,37.7C1106.9,242.4,1116.6,237,1124.6,226.5z
		 M991.2,229.4c1,3.1,1.9,5.4,2.4,7.7c0.7,3.3,2.5,4.3,5.8,4.1c6.1-0.3,12.3,0,18.4-0.1c4.9,0,11.7,1.7,14.2-0.8
		c3.2-3.1,0.6-9.9,1.1-15.1c0.3-3-1-4-3.8-4.4c-6.8-0.8-6.8-0.9-6.8-7.8c0-17.5,0-35.1,0-52.6c0-19.2-9.3-32.6-27.6-38.5
		c-23.4-7.7-45.4-3.4-66.2,9.1c-1.6,1-2.3,2.2-2.2,4.1c0.1,7.1,0,14.2-0.1,21.2c-0.1,2.4,0.8,3.2,3.2,3.1c5.2-0.1,10.5-0.4,15.7,0.1
		c4.9,0.5,6.7-1.2,7.1-6c0.7-7.9,1.6-8.6,9.5-10.4c0.9-0.2,1.8-0.4,2.7-0.6c15.6-2.7,25.1,4.4,25.4,19.1
		c0.3,10.4,0.3,10.4-10.2,10.4c-1.2,0-2.5,0-3.7,0c-11.3-0.1-22.4,0.6-33.1,4.5c-19.2,6.9-27.5,23.6-21.6,43.1
		c4.8,15.8,20.6,25.3,39.2,24C972.5,242.9,982.4,238.2,991.2,229.4z M1802.6,229.3c0.9,3,1.7,5.2,2.2,7.4c0.7,3.4,2.4,4.6,6,4.5
		c10-0.3,20-0.2,30,0c2.7,0,3.9-0.6,3.7-3.6c-0.2-4-0.3-8,0-12c0.3-3.5-1.2-5-4.3-4.7c-5.3,0.4-6.3-2.5-6.3-7
		c0.1-17.8,0.1-35.7,0-53.5c0-19.2-9.4-32.5-27.7-38.5c-23.4-7.6-45.4-3.4-66.2,9.2c-1.7,1-2.2,2.2-2.2,4.1
		c0.1,6.9,0.1,13.8-0.2,20.7c-0.1,3,1,3.6,3.7,3.5c5.1-0.2,10.2-0.5,15.2,0.1c5,0.5,6.6-1.4,7-6.1c0.7-7.8,1.6-8.4,9.1-10.2
		c1-0.2,2.1-0.5,3.2-0.7c15.6-2.6,25,4.5,25.4,19.1c0.2,10.3,0.2,10.3-10.2,10.3c-3.2,0-6.5-0.1-9.7,0c-9.2,0.3-18.4,1.3-27.1,4.5
		c-19.2,7-27.4,23.7-21.5,43.2c4.9,16,19.4,24.4,38.8,23.9C1783.6,243.3,1793.8,238.3,1802.6,229.3z M845,241.1
		c19.1,0,38.1-0.1,57.2,0.1c2.9,0,4-0.5,3.9-3.7c-0.2-12.6-0.1-25.2,0-37.8c0-2.8-0.5-4.1-3.7-4c-6,0.3-12,0.3-18,0
		c-3-0.1-3.7,1.1-3.8,3.7c-0.2,4.5-0.8,8.9-1,13.3c-0.1,2.9-1.2,3.5-3.9,3.5c-12.6-0.1-25.2-0.2-37.8,0c-3.4,0.1-4.2-1.1-4-4.2
		c0.2-4,0.1-8,0.1-12c0-31.2,0.1-62.4-0.1-93.7c0-3.2,0.7-4.7,4.1-5c3.3-0.3,6.6-1.5,9.9-1.9c2.8-0.3,3.5-1.6,3.4-4.2
		c-0.2-4.1-0.3-8.3,0-12.4c0.2-3.4-1.2-4.1-4.3-4c-6.3,0.2-12.6,0.1-18.9,0.1c-13.4,0-26.8,0-40.1,0c-1.4,0-3.8-1-3.8,1.9
		c0,5.8-1.3,12.2,0.7,17.3c1.2,3.2,8.1,2.1,12.3,3.3c0.3,0.1,0.6,0.2,0.9,0.2c2.4,0,3.1,1.1,3.1,3.5c-0.1,36.8-0.1,73.5,0,110.3
		c0,2.4-0.9,3.3-3.1,3.6c-3.6,0.6-7.2,1.4-10.9,1.9c-2.3,0.3-3.2,1.2-3.1,3.6c0.2,4.1,0.3,8.3,0,12.4c-0.3,3.4,0.8,4.4,4.3,4.3
		C807.2,241,826.1,241.1,845,241.1z M309.6,241.1c19.1,0,38.1,0,57.2,0c2.2,0,4.1,0.4,4-3.1c-0.2-13.1-0.1-26.1,0-39.2
		c0-2.4-0.7-3.2-3.1-3.1c-6.3,0.1-12.6,0.2-18.9,0c-2.4-0.1-3.3,0.9-3.4,3.1c-0.3,4.7-0.8,9.5-1.1,14.2c-0.1,2.3-0.9,3.1-3.3,3.1
		c-13.1-0.1-26.1-0.1-39.2,0c-2.4,0-3.2-0.7-3.2-3.1c0.1-36,0.1-72,0-108c0-2.3,0.7-3.2,3.1-3.5c3.8-0.5,7.5-1.7,11.3-2.2
		c2.4-0.3,3.1-1.4,3-3.6c-0.1-4.3-0.2-8.6,0-12.9c0.2-3.3-1-4.1-4.2-4.1c-18.8,0.1-37.5,0.1-56.3,0.1c-6.7,0-6.8,0-6.7,6.9
		c0.1,4.3-1.8,9.7,0.7,12.5c2.2,2.5,7.6,2.3,11.7,2.9c3.6,0.5,4.6,2,4.5,5.6c-0.2,34.1-0.1,68.3-0.1,102.4c0,9.2,0,9.2-9.3,10.8
		c-7.6,1.4-7.6,1.4-7.6,8.9c0,2.8,0.2,5.6-0.1,8.3c-0.4,3.4,1,4,4.1,4C271.7,241.1,290.7,241.1,309.6,241.1z M570.9,180.4
		c0.3-3.7-0.2-8.2-0.8-12.6c-3.1-22.9-17.9-45.2-47.3-49c-27.9-3.6-51.6,9.2-61.2,34.2c-3.9,10.1-4.8,20.6-4.6,31.2
		c0.6,30.8,17.8,58.7,55,59.5c23.1,0.5,42-7.8,53.1-31.6C569.6,202.3,571.1,191.8,570.9,180.4z M1430.5,151.1c-0.1,0-0.1,0-0.1,0
		c0-2.6-0.4-5.3,0.1-7.8c1.3-7.2-2.4-11.4-8-14.9c-14.9-9.3-31.2-11.4-48.3-9.3c-20.9,2.6-34.8,14.3-42.5,33.5
		c-5.4,13.5-5.7,27.6-3.8,41.8c6.1,45.1,44.5,56.1,75.7,45.7c16.8-5.6,28-20.4,28.8-36c0.2-3.5-0.8-4.6-4.3-4.4
		c-5.8,0.3-11.7,0.4-17.5,0c-5.2-0.3-9.3-0.1-9.3,6.7c0,2.4-1.9,4.5-3.6,6.3c-9.1,9.6-27.5,7.1-32.9-5c-7-15.8-6.5-32.3-1.7-48.7
		c3-10.3,10.5-15,21-15.5c9.1-0.4,14.3,3.2,16.8,11.9c0.8,3,1.9,5.9,2.5,8.9c0.5,2.5,1.7,3.1,4.1,3c6.6-0.1,13.2-0.2,19.8,0
		c2.5,0.1,3.6-0.6,3.4-3.3C1430.4,159.8,1430.5,155.4,1430.5,151.1z M1459.2,433.1c3.3,0.2,7.2-0.2,11.2-0.9
		c36.2-6,57.7-44.4,43.7-78.2c-10.7-25.8-38.2-39.8-67.9-34.4c-31.3,5.6-51.7,34.4-46.4,65.7
		C1404.5,413.6,1428.5,433.1,1459.2,433.1z M1314.9,414.9c0,4.5,0.3,8.3-0.1,12.1c-1,11.1-7.8,18.7-18.7,21.1
		c-9,2-17.7,0.9-26.1-2.9c-3.2-1.5-6.4-5.8-9.3-4.4c-2.7,1.3-3.7,6.1-5.8,9.1c-1.9,2.6-1.5,4,1.3,5.6c15.5,9.1,31.9,11.6,49.2,6.9
		c16.1-4.4,27.5-17.4,27.8-33.4c0.6-26.6,0.2-53.2,0.2-79.8c0-1.8-0.4-2.9-2.5-2.8c-4.5,0.1-8.9,0.1-13.4,0c-2-0.1-2.7,0.8-2.6,2.7
		c0.1,3,0,5.9,0,10.2c-1.5-1.8-2.1-2.4-2.6-3.1c-13.1-16.8-51.9-15.9-61.9,13.5c-3,8.8-3.6,17.7-1.9,26.8
		c2.9,15,10.9,26.1,26.2,30.3C1290,430.8,1303.7,428.4,1314.9,414.9z M376.3,419.9c0.4-0.2,0.7-0.4,1.1-0.6c0.3,0.5,0.6,1.1,0.9,1.6
		c12.6,16.8,42.5,15.7,56.5,1.4c12-12.3,15.4-35.1,8.1-53.1c-11.7-28.8-51.3-30.3-64.7-11.3c-0.4,0.5-0.8,1.4-1.9,0.7
		c0-2.7-0.2-5.5,0-8.2c0.2-2.8-0.5-4.2-3.7-4c-3.7,0.3-7.4,0.3-11.1,0c-3.1-0.2-3.8,1-3.8,3.9c0.1,36.4,0.1,72.8,0,109.3
		c0,3.1,0.6,4.5,4,4.2c3.5-0.3,7.1-0.3,10.6,0c3.4,0.3,4.1-1.1,4-4.2C376.2,446.3,376.3,433.1,376.3,419.9z M1557.6,359.3
		c-2.1-4.5,1.9-10.5-2.3-12.5c-3.7-1.8-9-0.4-13.6-0.4c-0.1,0-0.3,0-0.5,0c-2.3-0.3-2.8,0.9-2.8,3c0,37,0.1,74.1,0,111.1
		c0,2.4,0.6,3.3,3.1,3.2c3.5-0.2,7.1-0.3,10.6,0c3.7,0.3,5-0.7,4.9-4.7c-0.3-11.5-0.1-23.1-0.1-34.6c0-1.6-0.5-3.3,0.7-5.2
		c0.6,0.8,0.9,1.2,1.3,1.7c13.3,18.1,49.1,16.3,61.9-5.6c6-10.2,7.1-21.1,6.1-32.5c-2.1-25.7-24.7-42.2-49.9-36.5
		C1569,348.1,1562.6,352.6,1557.6,359.3z M430.6,169.6c0-15.1,0-30.1,0-45.2c0-2.2-0.1-3.8-3.1-3.8c-14.8,0.1-29.5,0.1-44.3,0
		c-2.2,0-3,0.8-2.9,3c0.1,4.6,0.1,9.2,0,13.8c-0.1,2.4,0.9,3.2,3.1,3.6c3.8,0.6,7.5,1.7,11.3,2.1c2.6,0.3,3.2,1.4,3.2,3.8
		c-0.1,22.6-0.1,45.2,0,67.8c0,2.4-0.6,3.6-3.1,4.2c-4.1,0.9-10,0.1-11.9,3.4c-2,3.4-0.6,8.7-0.7,13.1c0,0.1,0,0.3,0,0.5
		c-0.6,4,0.6,5.5,5.1,5.4c17.1-0.3,34.1-0.1,51.2-0.1c7.8,0,7.8,0,7.8-7.6c0-12,0-12.1-11.8-14.4c-3-0.6-4-1.7-4-4.8
		C430.7,199.4,430.6,184.5,430.6,169.6z M293.2,318.6c-7.9-0.1-16.8,1.4-24.8,6.1c-9.2,5.3-14.4,13.1-14.9,23.9
		c-0.5,11.7,4.1,20.5,14.2,26.4c4.1,2.4,8.6,4,13.1,5.6c7.8,2.7,16.1,4.2,23.6,7.9c7.4,3.6,10.9,9,9.8,15c-1,5.8-6.6,10.2-14.2,11.2
		c-1.5,0.2-3.1,0.3-4.6,0.3c-14.5,0.6-26.6-5.2-37.5-14.1c-2.3-1.9-3.3-1.9-4.5,0.9c-1.5,3.5-3.2,7-5.2,10.3c-1.5,2.5-1,3.9,1.2,5.7
		c15,11.8,32,16.8,50.8,15c10.6-1,20.5-4.4,28-12.6c10.6-11.6,12.6-37.4-12.2-47.9c-8.8-3.7-18.1-6-27-9.3
		c-3.8-1.4-7.4-3.1-10.4-5.9c-6.5-6.2-4.9-15.2,3.4-18.7c2.9-1.2,5.9-1.6,9-1.7c11.4-0.5,21.8,3.1,31.6,8.6c2.7,1.5,4,1,5.2-1.7
		c1.3-3.3,2.7-6.6,4.5-9.6c2-3.3,0.8-4.8-2.1-6.3C319.1,321.8,307.2,318.5,293.2,318.6z M508.8,396.2c9.4,0,18.8-0.1,28.1,0.1
		c3.2,0.1,4.7-0.5,4.6-4.2c-0.2-5.1-0.1-10.1-1-15.1c-2.1-11.7-7.3-21.5-18.3-27.2c-6.7-3.4-13.9-4.5-21.4-4.3
		c-17.2,0.3-31.1,6.9-38.5,22.9c-7.9,17.1-7.1,34.4,4.7,49.6c14.1,18.4,45.5,20.7,65,5.6c5.8-4.5,5.8-4.5,0.7-9.8
		c-1.2-1.2-2.4-2.4-3.5-3.7c-1.4-1.9-2.6-2.2-4.4-0.3c-2.2,2.4-5.1,4-8,5.3c-16.2,7.4-33.3,1.1-39-14.4c-1.2-3.2-1.3-4.7,2.9-4.5
		C490,396.4,499.4,396.2,508.8,396.2z M747.8,423.5c1.8,2.8-1.3,6.9,1.9,8.4c2.6,1.2,6,0.3,9.1,0.3c1.5,0,3.1-0.1,4.6,0
		c3,0.4,3.6-1,3.5-3.7c-0.1-18.1,0-36.3-0.2-54.4c-0.1-13.3-7.7-23.5-20.5-26.8c-17.2-4.5-33.5-1.7-48.7,7.4c-1.9,1.2-2.1,2.2-0.9,4
		c1.6,2.6,3.3,5.2,4.6,8c1.2,2.5,2.2,2.5,4.5,1.1c6.4-4.1,13.4-6.9,21.1-7.2c12.1-0.4,21.1,4.4,21.7,16.4c0.1,2.9-0.7,3.7-3.5,3.7
		c-8-0.2-16-0.3-24,0c-9.4,0.3-18.5,2.2-25,9.8c-12.4,14.6-4.3,37.2,15,41.5C724.2,435,737,433.3,747.8,423.5z M1794.3,433.1
		c27.4,0,45-17.3,45-44.3c0-18.1-7.4-32.3-24.4-39.3c-18.1-7.5-36.1-6.3-51.5,6.9c-13.6,11.7-17.6,32.6-10.7,50.5
		C1759.1,423.4,1774.5,433.1,1794.3,433.1z M1877.1,361.4c0-4.6-0.1-8.2,0-11.9c0.1-2.3-0.6-3.3-3.1-3.2c-3.4,0.2-6.8,0.3-10.1,0
		c-4.1-0.4-5.4,0.7-5.4,5.2c0.3,22.1,0.1,44.3,0.1,66.4c0,4.6-1.5,10.7,0.8,13.3c2.7,3,9,0.5,13.7,1c3.3,0.3,4.1-0.9,4.1-4.1
		c-0.2-13.4-0.2-26.8,0-40.1c0.3-15.1,10.8-25.3,25.5-25.1c13,0.2,19.7,8.6,19.7,24.6c0,13.7,0.1,27.4-0.1,41.1
		c0,2.8,0.7,3.8,3.6,3.6c3.8-0.2,7.7-0.2,11.5,0c2.5,0.1,3.5-0.6,3.4-3.3c-0.1-18.1,0.2-36.3-0.1-54.4c-0.2-13.9-8.5-24.9-21.4-27.8
		C1903,343.2,1888.1,345.5,1877.1,361.4z M1167.3,361.5c0-4.7-0.1-8.3,0-11.8c0.1-2.5-0.6-3.6-3.3-3.4c-3.8,0.2-7.7,0.3-11.5,0
		c-3.2-0.2-3.8,1.1-3.7,4c0.1,9.4,0.1,18.8,0.1,28.1c0,16.6,0.1,33.2-0.1,49.8c0,3.3,1,4.3,4.1,4c3.5-0.3,7.1-0.3,10.6,0
		c3,0.2,3.9-0.8,3.9-3.8c-0.2-12.9,0-25.8-0.1-38.7c0-3.9,0.7-7.7,2-11.3c4.1-11.1,15.3-17.4,27-15.2c10.8,2,16.2,9.3,16.3,22.3
		c0.1,10.8-0.1,21.5,0.1,32.3c0.1,4.7-2.1,11.1,1,13.6c2.9,2.4,9.1,0.6,13.8,0.9c2.7,0.2,3.7-0.5,3.7-3.5
		c-0.1-17.8,0.1-35.7-0.1-53.5c-0.2-15.4-9.3-26.6-24.4-29.1C1191.3,343.7,1177.4,346.4,1167.3,361.5z M596,433.1
		c11.9,0,21.7-3,29.4-9c7.7-6,7.7-6.1,1-12.8c-0.1-0.1-0.2-0.2-0.3-0.3c-2.5-3.5-5.1-4.9-8.5-0.7c-1.1,1.4-3,2.2-4.6,3.1
		c-12.8,6.8-29.1,4.1-36.4-6c-7.9-10.9-7.2-28,1.5-37.8c7.7-8.7,23.1-10.2,35.1-3.9c3,1.6,5.2,6.2,8.5,4.7c2.9-1.3,4.7-5.1,6.9-7.8
		c0.2-0.2,0.4-0.5,0.6-0.7c2.1-1.7,1.6-3.1-0.2-4.8c-14.3-14-44.5-15.6-60.4-3.1c-14.8,11.7-20.3,32.9-13.5,52.3
		C561.2,423.3,576,433.1,596,433.1z M888.6,375.9c0,17.4,0.1,34.7-0.1,52.1c0,3.4,0.8,4.4,4.3,4.4c17.1-0.2,34.1-0.1,51.2-0.1
		c4,0,9.2,1.3,11.6-0.7c2.8-2.4,0.5-7.8,1-11.9c0.4-3.7-0.8-5.1-4.8-5c-13.4,0.2-26.7,0-40.1,0.2c-3.3,0-4.4-1-4.1-4.2
		c0.2-2.6,0-5.2,0-7.8c0-26.3-0.1-52.6,0.1-78.9c0-3.3-0.6-4.8-4.3-4.5c-3.5,0.3-7.1,0.3-10.6,0c-3.4-0.3-4.4,0.8-4.4,4.3
		C888.7,341.2,888.6,358.6,888.6,375.9z M1048,413.5c-6.5-18.4-12.5-35.7-18.6-52.9c-1.6-4.6-2.2-10.6-5.5-13.4
		c-3.5-2.9-9.8-0.4-14.7-1c-4.6-0.5-4,1.4-2.8,4.5c8.8,22.4,17.4,44.9,26.1,67.4c1.8,4.6,2.5,10.5,5.9,13.2
		c3.4,2.7,9.5,0.4,14.4,0.9c3.5,0.3,5.1-1,6.3-4.2c7.6-20.3,15.4-40.5,23.1-60.7c2.6-6.8,5.2-13.7,7.9-21c-5.5,0-10.4,0.1-15.3-0.1
		c-2.6-0.1-3.8,0.8-4.6,3.3c-1.9,6.1-4.2,12.2-6.3,18.3C1058.7,382.6,1053.6,397.4,1048,413.5z M1650.1,389.2c0,7.1-0.2,14.1,0,21.2
		c0.2,7.9,2.9,14.9,10,19.1c9.4,5.6,19.1,4.4,28.8,0.7c6.8-2.6,6.8-2.7,4.5-9.4c-0.9-2.6-0.8-6.1-3.1-7.4c-1.9-1.1-4.4,1.3-6.7,2
		c-10.4,2.8-14.9-0.5-15-11.3c-0.1-12.1,0.1-24.3-0.1-36.4c0-3.1,0.9-3.9,3.9-3.8c6.1,0.2,12.3,0.1,18.4,0c1.1,0,2.9,0.5,3-1.2
		c0.3-3.8,0.3-7.7,0-11.5c-0.1-1.6-1.9-1.1-3-1.2c-4.3-0.1-8.6,0-12.9,0c-9.3,0-9.3,0-9.4-9.3c0-4.6,1.6-10.9-0.8-13.3
		c-3-3.1-9.3-0.7-14.2-1c-0.1,0-0.3,0-0.5,0c-2.5-0.3-3.2,0.9-3.1,3.2c0.1,4.3,0,8.6,0,12.9c0,7.5,0,7.8-7.4,7.5
		c-3.8-0.1-4.9,1-4.8,4.8c0.3,8.9,0.1,9,8.7,9.1c2.9,0,3.6,1,3.6,3.7C1650,374.7,1650.1,382,1650.1,389.2z M792.6,372.6
		c0,15.1-0.1,30.1,0,45.2c0,4.7-2.1,11.3,0.9,13.6c3.2,2.4,9.4,0.7,14.3,0.9c2.3,0.1,3.2-0.5,3.2-3c-0.1-37.6-0.1-75.3,0-112.9
		c0-2.4-0.6-3.3-3.1-3.2c-3.5,0.2-7.1,0.3-10.6,0c-3.7-0.3-5,0.7-4.9,4.7C792.7,336,792.6,354.3,792.6,372.6z M669.8,389.4
		c0-13.1-0.1-26.1,0.1-39.2c0-2.9-0.6-4.2-3.8-3.9c-3.7,0.3-7.4,0.2-11.1,0c-2.6-0.1-3.8,0.4-3.8,3.5c0.1,26.3,0.1,52.5,0,78.8
		c0,2.7,0.5,3.9,3.5,3.7c3.8-0.3,7.7-0.3,11.5,0c3,0.2,3.6-1,3.5-3.7C669.7,415.5,669.8,402.5,669.8,389.4z M991.9,389.3
		c0-9.5,0-19,0-28.6c0-4.6,1.6-10.8-0.8-13.3c-2.9-3.1-9.3-0.6-14.1-1.1c-2.8-0.3-3.7,0.7-3.7,3.6c0.2,10,0.1,20,0.1,30
		c0,16.1,0.1,32.3-0.1,48.4c0,3.3,0.9,4.3,4.1,4.1c3.5-0.3,7.1-0.2,10.6,0c3,0.2,3.9-0.8,3.9-3.8
		C991.8,415.4,991.9,402.3,991.9,389.3z M1122.1,389.8c0-9.7,0-19.4,0-29c0-4.6,1.6-10.7-0.8-13.3c-2.7-3.1-8.9-0.6-13.6-1.1
		c-3.2-0.3-4.2,0.7-4.1,4c0.2,8.9,0.1,17.8,0.1,26.7c0,17,0.1,34.1-0.1,51.1c0,3.3,0.9,4.3,4.1,4.1c3.4-0.3,6.8-0.3,10.1,0
		c3.4,0.3,4.5-0.7,4.4-4.3C1121.9,415.3,1122.1,402.5,1122.1,389.8z M1731.3,389.8c0-9.7,0.1-19.4,0-29c-0.1-4.7,2.1-11-1-13.6
		c-2.7-2.3-8.8-0.5-13.4-0.8c-3.2-0.2-4.3,0.7-4.2,4c0.2,8.6,0.1,17.2,0.1,25.8c0,17.4,0.1,34.7-0.1,52.1c0,3.2,0.9,4.3,4.1,4.1
		c3.4-0.3,6.8-0.3,10.1,0c3.4,0.3,4.5-0.7,4.4-4.3C1731.2,415.3,1731.3,402.5,1731.3,389.8z M414.2,67.4c-4.3,0-8.6,0.1-12.9,0
		c-2.5-0.1-3.5,0.6-3.5,3.3c0.2,6,0.1,12,0,18c-0.1,2.5,0.5,3.6,3.3,3.5c8.8-0.1,17.5-0.1,26.3,0c2.4,0,3.2-0.7,3.2-3.2
		c-0.1-6.1-0.2-12.3,0-18.4c0.1-2.9-1.2-3.3-3.5-3.2C422.8,67.5,418.5,67.4,414.2,67.4z M1711,322c-0.1,6.8,4,11.3,10.4,11.5
		c6.4,0.1,10.8-4.1,10.9-10.4c0.2-6.9-3.8-11.5-10.2-11.7C1715.6,311.1,1711.1,315.4,1711,322z M1123.1,322.4
		c0-6.8-4.3-11.1-10.8-11.1c-6.4,0.1-10.6,4.5-10.6,11.3c0.1,6.5,4.3,10.8,10.6,10.8C1118.9,333.5,1123.2,329.1,1123.1,322.4z
		 M993,322.5c0-6.8-4.2-11.2-10.7-11.2c-6.5,0-10.7,4.4-10.7,11.2c0,6.5,4.2,10.9,10.5,11C988.7,333.5,993,329.2,993,322.5z
		 M670.8,322.3c0-6.8-4.3-11.1-10.8-11.1c-6.4,0.1-10.6,4.6-10.5,11.4c0.1,6.5,4.3,10.8,10.6,10.8
		C666.6,333.5,670.9,329.1,670.8,322.3z"/>
	<path class="st1" d="M138.9,274.3c-1.5,4.9-2.7,9-3.9,13.1c-1.2,3.8-3.6,5.7-7.8,5.7c-17.4-0.1-34.8-0.1-52.1,0
		c-4,0-6.4-1.7-7.5-5.4c-1.2-4.1-2.5-8.2-4-12.7c-3.6,2.6-5.7,6.2-8.2,9.3c-7.7,9.3-15.4,18.8-23,28.3c-1.6,2.1-3.4,3.9-6.1,2.3
		c-2.6-1.5-1.8-3.9-1.2-6.2c8.9-31.8,17.8-63.5,26.7-95.3c0.9-3.1,1.3-6.2,1.1-9.5c-2.8-49.5-0.6-98.6,14.1-146.5
		c3.8-12.4,8.7-24.3,17.2-34.4C95,10,107.6,10,118.3,23c9.6,11.6,14.7,25.5,18.8,39.7c8.6,29.7,12.1,60.1,13.2,91
		c0.6,17.5,0.4,35-1,52.5c-0.2,2.1,0.4,4,1,5.9c8.9,31.9,17.8,63.9,26.8,95.8c0.2,0.7,0.5,1.5,0.6,2.2c0.4,1.9,0.3,3.8-1.7,4.8
		c-2.1,1-3.8,0.3-5.3-1.5c-6.8-8.4-13.6-16.7-20.4-25C146.8,283.8,143.1,279.4,138.9,274.3z M101.2,47.3c-9.5,0-17.4,7.8-17.4,17.2
		c0,9.4,7.8,17.1,17.4,17.1c9.6,0,17.4-7.7,17.4-17.1C118.6,55.1,110.7,47.3,101.2,47.3z"/>
	<path class="st1" d="M66,365.1c-0.2-6.7,0.4-18.9,3.8-30.9c1.6-5.5,3.8-10.7,7.3-15.3c12.4-16.3,36.2-16,48.1,0.7
		c7.9,11.1,10.3,23.9,10.8,37.1c1,25.4-1.1,50.6-4.1,75.8c-2.8,23.9-6.5,47.7-13.3,70.9c-2.4,8.2-5,16.5-10.2,23.5
		c-4.7,6.4-9.7,6.5-14.4,0.1c-6.6-9-9.4-19.6-12.1-30.1c-6.8-26.2-10.6-52.9-13.1-79.8C67.3,401.8,66.2,386.3,66,365.1z"/>
	<path class="st1" d="M1638.3,133.4c5.1-6,10.5-10.9,17.7-13.3c19.6-6.3,40.7,2,50.1,21.4c12.1,24.7,12.8,50.5,2.4,75.9
		c-9.7,23.6-37.4,33.3-58.8,21.9c-3.9-2-7.1-4.9-10-8c-1.5,0.7-0.8,1.9-0.8,2.8c-0.1,8.9,0.1,17.8-0.1,26.8c0,2.6,0.6,3.8,3.3,4.4
		c4.1,0.8,9.4,0.2,11.7,3.1c2.4,3.1,0.5,8.3,0.7,12.5c0.1,1.1-0.1,2.2,0,3.2c0.3,2.5-0.5,3.5-3.2,3.4c-19.1-0.1-38.1-0.1-57.2,0
		c-3,0-3.8-1.1-3.4-3.7c0.1-0.9,0-1.8,0-2.8c0.1-4.3-1.3-9.6,0.7-12.6c2.1-3.1,7.8-2.4,12-3.3c2.2-0.5,3-1.4,3-3.7
		c-0.1-38.1-0.1-76.3,0-114.4c0-2.4-0.7-3.5-3.2-3.9c-4.7-0.7-10.9-0.4-13.5-3.3c-2.8-3.2-0.4-9.4-0.9-14.3c-0.5-4.2,1.1-5.1,5.1-5
		c12.8,0.3,25.5,0.2,38.3,0c3.5-0.1,4.6,1.2,4.7,4.4C1637.1,127.6,1637.1,130.4,1638.3,133.4z M1639,181.7c0,7.4,0.3,14.8-0.1,22.1
		c-0.2,4.4,1.7,7.3,4.9,9.7c13,10.1,31,5.2,35.8-10.4c4.8-15.3,4.4-30.9-1.6-46c-4.4-11-12.9-15.2-24.4-12.8
		c-9.7,2-14.6,8.1-14.6,18C1639,168.8,1639,175.2,1639,181.7z"/>
	<path class="st1" d="M1493.2,135.2c10.2-13.1,22.6-18.5,37.9-16.6c18.4,2.3,29.8,14.1,33.2,33.6c0.9,5.3,1.3,10.7,1.3,16
		c0,15.4,0.1,30.8-0.1,46.1c0,2.8,0.8,4.1,3.6,4.6c3.9,0.7,9,0.3,11.3,3c2.5,3,0.7,8,0.8,12.1c0.1,7,0,7-7,7
		c-17.1,0-34.1-0.1-51.2,0.1c-3.5,0-4.6-1-4.2-4.4c0.3-3,0.5-6.2,0-9.2c-0.8-5.2,1.5-6.9,6.2-7.7c7.9-1.4,7.8-1.7,7.8-9.8
		c0-14,0-28,0-42c0-2.1-0.1-4.3-0.4-6.4c-1.1-7.9-3.8-14.9-12.5-17c-9.5-2.3-18.3-0.6-25.4,6.7c-1.2,1.3-1.4,2.6-1.4,4.2
		c0,19.8,0.1,39.7,0,59.5c0,2.6,1,3.3,3.3,3.9c10.6,2.6,10.6,2.7,10.6,13.6c0,8.4,0,8.4-8.3,8.4c-16.5,0-32.9-0.1-49.4,0.1
		c-4,0.1-5.3-1.2-4.6-4.9c0.1-0.4,0-0.9,0-1.4c0.1-4.3-1.2-9.5,0.7-12.6c2-3.3,7.8-2.5,11.9-3.4c2.5-0.5,3.1-1.8,3.1-4.2
		c-0.1-40.3-0.1-80.6,0-120.9c0-2.7-1-3.8-3.6-4.2c-3.3-0.4-6.6-1.4-10-1.8c-2.7-0.3-4.1-1.2-3.9-4.3c0.3-4.3,0.2-8.6,0-12.9
		c-0.1-2.2,0.3-3.3,3-3.3c14.8,0.1,29.5,0.1,44.3,0c3.3,0,2.8,1.9,2.8,3.9c0,19.4,0,38.7,0,58.1
		C1493.2,130.9,1493.2,132.4,1493.2,135.2z"/>
	<path class="st1" d="M1930.8,132.3c0-13.7,0-26.6,0-39.5c0-2.4-1.5-2.7-3.2-3c-3.6-0.7-7.2-1.4-10.9-2c-2.4-0.3-3.4-1.4-3.3-3.9
		c0.2-4.5,0.2-8.9,0-13.4c-0.1-2.4,0.8-3.2,3.2-3.1c14.6,0.1,29.2,0.2,43.8,0c3.8-0.1,3.2,2.2,3.2,4.5c0,47.1,0,94.1-0.1,141.2
		c0,3.8,0.7,5.6,4.9,6.3c10.9,1.9,10.8,2.2,10.8,13.3c0,8.5,0,8.5-8.3,8.5c-10.6,0-21.2-0.2-31.8,0.1c-3.6,0.1-4.5-1.3-4.8-4.3
		c-0.3-2.9-0.9-5.7-1.3-8.5c-1.6-0.5-2,0.8-2.6,1.5c-15.6,20.5-49.3,16.4-62.9-1.9c-7.4-10-11.2-21.1-12.2-33.3
		c-1.4-17-0.7-33.8,6.5-49.7c9.4-20.5,27.7-30.3,48.2-25.8C1917.2,120.7,1921.3,123.3,1930.8,132.3z M1930.8,181.4
		c0-7.5,0-15.1,0-22.6c0-1.9-0.2-3.6-1.4-5.2c-5.6-7.5-13-10.5-22.1-9.4c-8.2,0.9-12.9,6.1-15.5,13.3c-5.4,14.9-5.8,30.2-1.5,45.3
		c4.7,16.3,24.2,20.8,36.6,9.1c2.5-2.4,4.1-5,3.9-8.8C1930.6,195.8,1930.8,188.6,1930.8,181.4z"/>
	<path class="st1" d="M630.1,137.2c9.3-12.4,20.4-19.1,35.1-18.9c20,0.2,33.6,11.7,36.9,31.6c1,5.9,1.3,11.9,1.3,17.9
		c0.1,15.5,0.1,31.1,0,46.6c0,2.8,0.8,4,3.6,4.6c3.9,0.8,9.2,0.1,11.2,3.1c1.9,2.9,0.6,7.7,0.7,11.7c0.1,7.3,0,7.3-7.1,7.3
		c-17.1,0-34.1-0.1-51.2,0.1c-3,0-4-0.8-3.8-3.8c0.3-4.3,0.2-8.6,0-12.9c-0.1-2.3,0.7-3.2,3-3.7c3.5-0.9,8.6-0.3,10.2-3.1
		c1.7-2.9,0.7-7.4,0.7-11.3c0-12.9,0-25.8,0-38.7c0-0.8,0-1.5,0-2.3c-0.3-8.2-1.3-16.2-10.3-19.9c-9-3.7-20.8-1-27.3,5.8
		c-1.5,1.6-2,3.2-2,5.4c0.1,19.4,0.1,38.7-0.1,58.1c0,3.1,1.2,3.8,3.8,4.4c9.2,2.2,9.2,2.3,9.2,11.7c0,10.3,0,10.3-10.2,10.3
		c-15.2,0-30.5-0.3-45.7,0.1c-4.9,0.1-6-1.5-5.6-5.9c0.5-4.4-1.6-9.7,0.8-13.1c2.3-3.3,7.9-2.4,12-3.4c2.1-0.5,3.1-1.3,3.1-3.7
		c-0.1-22.8-0.1-45.5,0-68.3c0-2.4-0.6-3.7-3.3-3.8c-2.1-0.1-4.2-0.8-6.3-1.3c-7.7-1.6-7.7-1.6-7.7-9.7c0-11.5,0-11.5,11.4-11.5
		c10.8,0,21.5,0.1,32.3-0.1c3.1,0,4.5,0.8,4.5,4.1C629.2,128.6,629.7,132.4,630.1,137.2z"/>
	<path class="st1" d="M1228.2,137.2c7-9.3,14.8-15.8,25.5-17.9c26.7-5.3,45.8,9.8,47.4,37.4c1.1,18.9,0.3,37.8,0.4,56.7
		c0,3.4,0.6,5.1,4.5,5.8c11.1,2.1,11,2.3,11,13.6c0,8.3,0,8.3-8.4,8.3c-16.5,0-32.9-0.1-49.4,0.1c-3.3,0-4.7-0.5-4.4-4.2
		c0.4-4.1,0.2-8.3,0-12.4c-0.1-2.2,0.6-3.3,2.9-3.8c3.6-0.8,8.4-0.4,10.3-3.1c2.2-3,0.6-7.7,0.7-11.7c0.1-13.2,0.1-26.4,0-39.7
		c0-2.7-0.3-5.5-0.7-8.2c-1.4-8.5-6.5-13.1-15.2-14c-5.1-0.5-10.2-0.1-14.8,2.2c-5.6,2.9-9.2,6.5-8.9,13.9
		c0.6,17.8,0.3,35.7,0.1,53.5c0,3.2,0.5,4.8,4.1,5.6c8.9,1.9,8.9,2.1,8.9,11.5c0,10.4,0,10.4-10.5,10.4c-15.7,0-31.4-0.1-47.1,0.1
		c-3.1,0-4-0.9-3.8-3.9c0.2-4,0.2-8,0-12c-0.2-3.2,1.1-4.1,4.1-4.7c11.7-2.3,11.7-2.4,11.7-14.5c0-19.4-0.1-38.7,0.1-58.1
		c0-3.2-0.6-4.7-4.1-5c-3.5-0.3-6.9-1.4-10.4-2c-1.9-0.3-3-0.9-2.9-3.2c0.2-4.8,0.1-9.5,0-14.3c-0.1-2.3,1-2.8,3-2.8
		c13.8,0.1,27.7,0.1,41.5,0c2.6,0,3.5,1,3.6,3.5C1227.4,128.2,1227.8,132.1,1228.2,137.2z"/>
	<path class="st1" d="M1124.6,226.5c-8,10.5-17.8,15.9-29.9,17c-23.9,2.3-41.3-12.6-43.7-37.7c-1.8-18.9-0.5-37.8-0.7-56.7
		c0-4-0.8-5.9-5.1-6.8c-8.3-1.7-8.3-2-8.3-10.4c0-11.3,0-11.3,11.1-11.3c10.2,0,20.3,0.1,30.4-0.1c3.5-0.1,4.7,0.8,4.7,4.6
		c-0.2,23.4-0.1,46.8-0.1,70.1c0,4.5,0.4,8.9,2.1,13.1c2.2,5.7,6.5,8.9,12.5,9.6c5.4,0.6,10.7-0.1,15.8-2.3
		c6.2-2.7,9.9-6.4,9.6-14.3c-0.6-17.7-0.3-35.4-0.1-53c0-3.2-0.6-4.8-4.2-5.6c-10.4-2.3-10.4-2.5-10.4-13.3c0-8.8,0-8.8,8.6-8.8
		c11.2,0,22.5,0.2,33.7-0.1c3.8-0.1,4.9,0.9,4.9,4.8c-0.2,29.2,0,58.4-0.2,87.7c0,3.8,0.7,5.6,4.9,6.4c9.9,1.9,9.8,2.2,9.8,12.3
		c0,9.4,0,9.4-9.6,9.4c-10.2,0-20.3-0.1-30.4,0.1c-2.5,0-3.5-0.7-3.8-3.2C1125.9,234.5,1125.3,231.1,1124.6,226.5z"/>
	<path class="st1" d="M991.2,229.4c-8.7,8.8-18.7,13.5-30.6,14.3c-18.6,1.3-34.4-8.2-39.2-24c-5.9-19.6,2.4-36.2,21.6-43.1
		c10.7-3.9,21.9-4.6,33.1-4.5c1.2,0,2.5,0,3.7,0c10.4,0,10.4,0,10.2-10.4c-0.4-14.6-9.9-21.7-25.4-19.1c-0.9,0.2-1.8,0.4-2.7,0.6
		c-7.9,1.8-8.8,2.4-9.5,10.4c-0.4,4.8-2.2,6.5-7.1,6c-5.2-0.5-10.4-0.2-15.7-0.1c-2.4,0.1-3.2-0.7-3.2-3.1
		c0.2-7.1,0.2-14.1,0.1-21.2c0-1.9,0.6-3.1,2.2-4.1c20.8-12.5,42.8-16.8,66.2-9.1c18.3,6,27.6,19.4,27.6,38.5c0,17.5,0,35.1,0,52.6
		c0,6.9,0,7,6.8,7.8c2.8,0.3,4.1,1.3,3.8,4.4c-0.5,5.2,2.1,11.9-1.1,15.1c-2.5,2.5-9.3,0.7-14.2,0.8c-6.2,0.1-12.3-0.2-18.4,0.1
		c-3.3,0.2-5.1-0.8-5.8-4.1C993,234.7,992.1,232.4,991.2,229.4z M978.4,190.2c-12.1,0-15.2,0.6-19.5,3.7c-5.5,4.1-7.8,10.6-5.9,16.6
		c1.8,5.6,6.4,8.5,13.8,8.5c1.7,0,3.4,0,5.1-0.2c11-1.4,18.1-8.2,18.1-17.4C989.9,190.2,989.9,190.2,978.4,190.2z"/>
	<path class="st1" d="M1802.6,229.3c-8.8,9-18.9,14-31,14.3c-19.4,0.5-34-7.9-38.8-23.9c-5.9-19.5,2.3-36.2,21.5-43.2
		c8.8-3.2,17.9-4.1,27.1-4.5c3.2-0.1,6.5,0,9.7,0c10.5,0,10.5,0,10.2-10.3c-0.3-14.6-9.8-21.8-25.4-19.1c-1.1,0.2-2.1,0.4-3.2,0.7
		c-7.6,1.8-8.4,2.4-9.1,10.2c-0.4,4.7-2,6.7-7,6.1c-5-0.5-10.1-0.3-15.2-0.1c-2.7,0.1-3.8-0.6-3.7-3.5c0.3-6.9,0.2-13.8,0.2-20.7
		c0-1.9,0.5-3.1,2.2-4.1c20.8-12.6,42.7-16.8,66.2-9.2c18.3,6,27.6,19.3,27.7,38.5c0,17.8,0.1,35.7,0,53.5c0,4.5,1,7.4,6.3,7
		c3.2-0.3,4.6,1.2,4.3,4.7c-0.3,4-0.3,8,0,12c0.2,3-0.9,3.6-3.7,3.6c-10-0.1-20-0.2-30,0c-3.6,0.1-5.3-1.2-6-4.5
		C1804.3,234.5,1803.5,232.4,1802.6,229.3z M1801.3,199.5c0-1.7-0.2-3.4,0-5.1c0.5-3.5-0.9-4.5-4.3-4.3c-5.2,0.3-10.4,0-15.7,0.1
		c-5.4,0.2-10.3,2-13.8,6.3c-3.9,4.6-5,9.9-2.6,15.5c2.3,5.2,7,7.1,12.4,7.1c1.8,0,3.7,0,5.5-0.2
		C1794.8,217.7,1801.3,210.8,1801.3,199.5z"/>
	<path class="st1" d="M845,241.1c-18.9,0-37.8-0.1-56.7,0.1c-3.5,0-4.5-0.9-4.3-4.3c0.3-4.1,0.2-8.3,0-12.4
		c-0.1-2.3,0.8-3.3,3.1-3.6c3.6-0.5,7.2-1.4,10.9-1.9c2.2-0.3,3.1-1.3,3.1-3.6c-0.1-36.8-0.1-73.5,0-110.3c0-2.3-0.7-3.5-3.1-3.5
		c-0.3,0-0.6-0.1-0.9-0.2c-4.2-1.2-11-0.1-12.3-3.3c-2-5.1-0.7-11.5-0.7-17.3c0-2.8,2.3-1.9,3.8-1.9c13.4-0.1,26.8,0,40.1,0
		c6.3,0,12.6,0.1,18.9-0.1c3.1-0.1,4.5,0.6,4.3,4c-0.3,4.1-0.2,8.3,0,12.4c0.1,2.6-0.5,3.9-3.4,4.2c-3.3,0.4-6.6,1.6-9.9,1.9
		c-3.4,0.3-4.1,1.7-4.1,5c0.1,31.2,0.1,62.4,0.1,93.7c0,4,0.2,8-0.1,12c-0.2,3.1,0.7,4.3,4,4.2c12.6-0.2,25.2-0.2,37.8,0
		c2.7,0,3.9-0.6,3.9-3.5c0.1-4.5,0.7-8.9,1-13.3c0.1-2.5,0.9-3.8,3.8-3.7c6,0.3,12,0.3,18,0c3.2-0.1,3.7,1.2,3.7,4
		c-0.1,12.6-0.2,25.2,0,37.8c0.1,3.2-1,3.7-3.9,3.7C883.2,241.1,864.1,241.1,845,241.1z"/>
	<path class="st1" d="M309.6,241.1c-18.9,0-37.8-0.1-56.7,0.1c-3.1,0-4.5-0.6-4.1-4c0.3-2.7,0.1-5.5,0.1-8.3c0-7.6,0-7.6,7.6-8.9
		c9.3-1.6,9.3-1.6,9.3-10.8c0-34.1-0.1-68.3,0.1-102.4c0-3.6-0.9-5.2-4.5-5.6c-4.1-0.5-9.5-0.4-11.7-2.9c-2.5-2.8-0.7-8.2-0.7-12.5
		c-0.1-6.9,0-6.9,6.7-6.9c18.8,0,37.5,0.1,56.3-0.1c3.2,0,4.4,0.8,4.2,4.1c-0.3,4.3-0.1,8.6,0,12.9c0.1,2.2-0.6,3.3-3,3.6
		c-3.8,0.5-7.5,1.7-11.3,2.2c-2.3,0.3-3.1,1.2-3.1,3.5c0.1,36,0.1,72,0,108c0,2.4,0.8,3.2,3.2,3.1c13.1-0.1,26.1-0.1,39.2,0
		c2.4,0,3.2-0.8,3.3-3.1c0.2-4.8,0.7-9.5,1.1-14.2c0.1-2.2,1-3.1,3.4-3.1c6.3,0.2,12.6,0.2,18.9,0c2.4-0.1,3.1,0.7,3.1,3.1
		c-0.1,13.1-0.2,26.2,0,39.2c0.1,3.5-1.9,3.1-4,3.1C347.7,241.1,328.6,241.1,309.6,241.1z"/>
	<path class="st1" d="M570.9,180.4c0.2,11.5-1.2,21.9-5.8,31.7c-11,23.7-30,32.1-53.1,31.6c-37.2-0.8-54.5-28.7-55-59.5
		c-0.2-10.7,0.7-21.2,4.6-31.2c9.6-25,33.3-37.8,61.2-34.2c29.4,3.8,44.2,26.2,47.3,49C570.7,172.2,571.2,176.6,570.9,180.4z
		 M538.2,181.1c0.1-9-0.9-17.7-5.1-25.9c-4.1-8-10.8-11.6-19.4-11.6c-8.5,0-15.4,3.5-18.9,11.6c-7.3,17.2-7.4,34.6,0,51.8
		c3.5,8.2,10.7,11.5,19.4,11.4c8.6,0,15-3.6,19-11.4C537.4,198.8,538.2,190,538.2,181.1z"/>
	<path class="st1" d="M1430.5,151.1c0,4.3-0.2,8.6,0.1,12.9c0.1,2.7-0.9,3.4-3.4,3.3c-6.6-0.2-13.2-0.1-19.8,0
		c-2.4,0.1-3.6-0.5-4.1-3c-0.6-3-1.6-5.9-2.5-8.9c-2.5-8.7-7.6-12.3-16.8-11.9c-10.5,0.4-18,5.2-21,15.5
		c-4.8,16.3-5.4,32.8,1.7,48.7c5.4,12.2,23.8,14.7,32.9,5c1.7-1.8,3.6-3.9,3.6-6.3c0.1-6.8,4.1-7.1,9.3-6.7c5.8,0.4,11.7,0.3,17.5,0
		c3.5-0.2,4.5,0.9,4.3,4.4c-0.8,15.7-12,30.4-28.8,36c-31.2,10.4-69.5-0.6-75.7-45.7c-1.9-14.2-1.6-28.3,3.8-41.8
		c7.7-19.3,21.6-30.9,42.5-33.5c17.1-2.1,33.4,0,48.3,9.3c5.6,3.5,9.3,7.7,8,14.9c-0.5,2.5-0.1,5.2-0.1,7.8
		C1430.4,151.1,1430.5,151.1,1430.5,151.1z"/>
	<path class="st1" d="M1459.2,433.1c-30.7,0-54.6-19.5-59.4-47.7c-5.3-31.3,15-60.1,46.4-65.7c29.7-5.4,57.2,8.6,67.9,34.4
		c14,33.7-7.5,72.1-43.7,78.2C1466.4,432.9,1462.4,433.3,1459.2,433.1z M1459,335.9c-22.1-0.2-40.2,17.4-40.6,39.3
		c-0.3,22.1,18,40.6,40.3,40.7c21.8,0.1,39.8-17.9,40-39.9C1498.8,354,1481.1,336.1,1459,335.9z"/>
	<path class="st1" d="M1314.9,414.9c-11.1,13.5-24.9,15.9-40.1,11.8c-15.3-4.1-23.2-15.2-26.2-30.3c-1.8-9.1-1.1-18,1.9-26.8
		c10-29.4,48.8-30.3,61.9-13.5c0.5,0.7,1.2,1.4,2.6,3.1c0-4.3,0.1-7.2,0-10.2c-0.1-2,0.6-2.7,2.6-2.7c4.5,0.1,8.9,0.1,13.4,0
		c2.1-0.1,2.5,1,2.5,2.8c-0.1,26.6,0.3,53.2-0.2,79.8c-0.3,16-11.7,29.1-27.8,33.4c-17.3,4.7-33.7,2.2-49.2-6.9
		c-2.8-1.7-3.2-3-1.3-5.6c2.1-3,3.1-7.8,5.8-9.1c2.9-1.4,6,3,9.3,4.4c8.4,3.8,17.1,4.9,26.1,2.9c11-2.5,17.7-10,18.7-21.1
		C1315.2,423.2,1314.9,419.4,1314.9,414.9z M1315,387.2c0.1-15.4-10.7-27-25-26.8c-14.1,0.2-24.7,11.6-24.8,26.7
		c-0.1,15.2,10.6,26.7,25.1,26.7C1304.5,413.7,1314.9,402.5,1315,387.2z"/>
	<path class="st1" d="M376.3,419.9c0,13.2-0.1,26.4,0.1,39.6c0,3.1-0.6,4.5-4,4.2c-3.5-0.3-7.1-0.3-10.6,0c-3.4,0.3-4-1.1-4-4.2
		c0.1-36.4,0.1-72.8,0-109.3c0-2.9,0.7-4.1,3.8-3.9c3.7,0.3,7.4,0.3,11.1,0c3.2-0.2,3.9,1.1,3.7,4c-0.2,2.7,0,5.5,0,8.2
		c1.1,0.7,1.5-0.1,1.9-0.7c13.4-19,53-17.5,64.7,11.3c7.3,18,4,40.8-8.1,53.1c-14,14.3-43.9,15.5-56.5-1.4c-0.4-0.5-0.6-1-0.9-1.6
		C377,419.5,376.6,419.7,376.3,419.9z M402.1,361c-14.8,0-25.7,11.7-25.8,27.8c-0.1,16.6,10.9,28.6,26,28.5
		c14.8-0.1,25.7-12.2,25.6-28.5C427.8,372.8,416.9,361,402.1,361z"/>
	<path class="st1" d="M1557.6,359.3c5.1-6.7,11.4-11.2,19.5-13c25.1-5.7,47.7,10.8,49.9,36.5c0.9,11.3-0.2,22.2-6.1,32.5
		c-12.8,22-48.6,23.7-61.9,5.6c-0.4-0.5-0.7-1-1.3-1.7c-1.2,1.9-0.7,3.6-0.7,5.2c-0.1,11.5-0.2,23.1,0.1,34.6c0.1,4-1.2,5-4.9,4.7
		c-3.5-0.3-7.1-0.2-10.6,0c-2.5,0.1-3.1-0.8-3.1-3.2c0.1-37,0.1-74.1,0-111.1c0-2.1,0.5-3.3,2.8-3c0.1,0,0.3,0,0.5,0
		c4.6,0,9.9-1.4,13.6,0.4C1559.5,348.8,1555.4,354.8,1557.6,359.3z M1608.5,388.8c-0.1-12.7-7.5-23.6-18.1-26.7
		c-13.5-3.9-26.6,2.5-31.5,15.4c-5.4,14.4,0.2,31.2,12.4,37.2C1589.5,423.5,1608.7,410.1,1608.5,388.8z"/>
	<path class="st1" d="M430.6,169.6c0,14.9,0.1,29.8-0.1,44.8c0,3.1,1,4.2,4,4.8c11.8,2.3,11.8,2.4,11.8,14.4c0,7.6,0,7.6-7.8,7.6
		c-17.1,0-34.1-0.2-51.2,0.1c-4.5,0.1-5.7-1.4-5.1-5.4c0-0.1,0-0.3,0-0.5c0.1-4.4-1.3-9.7,0.7-13.1c1.9-3.3,7.8-2.4,11.9-3.4
		c2.5-0.6,3.1-1.8,3.1-4.2c-0.1-22.6-0.1-45.2,0-67.8c0-2.4-0.6-3.6-3.2-3.8c-3.8-0.4-7.5-1.5-11.3-2.1c-2.2-0.3-3.2-1.2-3.1-3.6
		c0.2-4.6,0.1-9.2,0-13.8c-0.1-2.2,0.7-3,2.9-3c14.8,0.1,29.5,0.1,44.3,0c3,0,3.1,1.6,3.1,3.8C430.6,139.4,430.6,154.5,430.6,169.6z
		"/>
	<path class="st1" d="M293.2,318.6c14.1-0.1,25.9,3.2,37.1,9.1c2.9,1.5,4.2,3,2.1,6.3c-1.8,3-3.2,6.3-4.5,9.6
		c-1.1,2.7-2.4,3.2-5.2,1.7c-9.8-5.5-20.2-9-31.6-8.6c-3.1,0.1-6.1,0.4-9,1.7c-8.2,3.5-9.9,12.6-3.4,18.7c3,2.8,6.6,4.5,10.4,5.9
		c8.9,3.3,18.2,5.5,27,9.3c24.7,10.6,22.8,36.3,12.2,47.9c-7.5,8.2-17.4,11.5-28,12.6c-18.9,1.8-35.9-3.2-50.8-15
		c-2.3-1.8-2.7-3.2-1.2-5.7c1.9-3.3,3.7-6.8,5.2-10.3c1.2-2.9,2.1-2.8,4.5-0.9c10.9,8.9,23,14.6,37.5,14.1c1.5-0.1,3.1-0.1,4.6-0.3
		c7.6-1,13.2-5.4,14.2-11.2c1-6-2.4-11.5-9.8-15c-7.5-3.6-15.7-5.2-23.6-7.9c-4.5-1.5-9-3.2-13.1-5.6c-10.2-5.9-14.8-14.7-14.2-26.4
		c0.5-10.8,5.7-18.6,14.9-23.9C276.4,320.1,285.3,318.5,293.2,318.6z"/>
	<path class="st1" d="M508.8,396.2c-9.4,0-18.8,0.2-28.1-0.1c-4.2-0.1-4.1,1.4-2.9,4.5c5.7,15.4,22.8,21.8,39,14.4
		c3-1.3,5.8-2.9,8-5.3c1.8-1.9,2.9-1.6,4.4,0.3c1,1.3,2.3,2.5,3.5,3.7c5,5.4,5,5.4-0.7,9.8c-19.5,15.1-50.9,12.7-65-5.6
		c-11.7-15.3-12.6-32.5-4.7-49.6c7.4-15.9,21.3-22.6,38.5-22.9c7.5-0.1,14.7,0.9,21.4,4.3c11.1,5.7,16.2,15.5,18.3,27.2
		c0.9,5,0.8,10.1,1,15.1c0.1,3.7-1.4,4.3-4.6,4.2C527.5,396.1,518.2,396.2,508.8,396.2z M500.4,382.5c6.8,0,13.5-0.1,20.3,0
		c3,0.1,4.4-0.3,3.6-4c-2.4-11.3-10.9-18.2-23.2-18.1c-12.1,0-22.1,7.8-24.3,18.6c-0.5,2.5,0,3.6,2.8,3.6
		C486.6,382.4,493.5,382.5,500.4,382.5z"/>
	<path class="st1" d="M747.8,423.5c-10.7,9.8-23.5,11.5-37,8.5c-19.3-4.3-27.4-26.9-15-41.5c6.5-7.6,15.6-9.5,25-9.8
		c8-0.3,16-0.2,24,0c2.8,0.1,3.7-0.8,3.5-3.7c-0.6-12.1-9.6-16.9-21.7-16.4c-7.7,0.3-14.7,3.1-21.1,7.2c-2.2,1.4-3.3,1.4-4.5-1.1
		c-1.3-2.8-2.9-5.4-4.6-8c-1.2-1.8-1-2.9,0.9-4c15.2-9.2,31.5-11.9,48.7-7.4c12.8,3.4,20.4,13.5,20.5,26.8
		c0.2,18.1,0.1,36.3,0.2,54.4c0,2.7-0.6,4.1-3.5,3.7c-1.5-0.2-3.1,0-4.6,0c-3.1,0-6.5,0.8-9.1-0.3
		C746.5,430.4,749.6,426.3,747.8,423.5z M724.2,418.4c4.8,0.1,9.5-0.9,13.8-3c7.8-3.8,11.1-9.5,10.4-18.2c-0.1-1.4,0.1-2.9-2-2.8
		c-10.1,0.3-20.3-1.1-30.3,1.1c-6.9,1.5-9.9,7.4-7.6,14.1C710.4,415.3,715.8,418.3,724.2,418.4z"/>
	<path class="st1" d="M1794.3,433.1c-19.8,0-35.2-9.7-41.6-26.3c-6.9-17.9-3-38.8,10.7-50.5c15.4-13.2,33.4-14.3,51.5-6.9
		c17,7,24.4,21.2,24.4,39.3C1839.3,415.8,1821.7,433.1,1794.3,433.1z M1794.4,417.5c15.3,0.1,26.2-11.3,26.4-27.6
		c0.2-16.4-10.8-28.6-25.9-28.7c-15.5-0.1-26.5,11.4-26.7,27.9C1768.1,405.5,1779,417.4,1794.4,417.5z"/>
	<path class="st1" d="M1877.1,361.4c11-15.9,25.9-18.2,42.2-14.6c12.9,2.8,21.2,13.9,21.4,27.8c0.3,18.1,0,36.3,0.1,54.4
		c0,2.7-0.9,3.4-3.4,3.3c-3.8-0.2-7.7-0.2-11.5,0c-2.9,0.2-3.6-0.8-3.6-3.6c0.1-13.7,0.1-27.4,0.1-41.1c0-16-6.7-24.4-19.7-24.6
		c-14.7-0.2-25.2,10-25.5,25.1c-0.2,13.4-0.1,26.8,0,40.1c0,3.2-0.8,4.4-4.1,4.1c-4.7-0.5-11,2-13.7-1c-2.3-2.6-0.8-8.8-0.8-13.3
		c0-22.1,0.1-44.3-0.1-66.4c-0.1-4.4,1.3-5.5,5.4-5.2c3.4,0.3,6.8,0.2,10.1,0c2.5-0.1,3.2,0.8,3.1,3.2
		C1877,353.1,1877.1,356.7,1877.1,361.4z"/>
	<path class="st1" d="M1167.3,361.5c10.1-15.1,24-17.9,39.3-15.4c15.1,2.5,24.2,13.6,24.4,29.1c0.2,17.8,0,35.7,0.1,53.5
		c0,3-1,3.7-3.7,3.5c-4.7-0.3-10.9,1.5-13.8-0.9c-3.1-2.5-0.9-8.9-1-13.6c-0.1-10.8,0-21.5-0.1-32.3c-0.1-12.9-5.5-20.2-16.3-22.3
		c-11.6-2.2-22.9,4.1-27,15.2c-1.3,3.6-2.1,7.4-2,11.3c0.1,12.9-0.1,25.8,0.1,38.7c0,3-0.8,4.1-3.9,3.8c-3.5-0.2-7.1-0.3-10.6,0
		c-3.2,0.2-4.2-0.7-4.1-4c0.2-16.6,0.1-33.2,0.1-49.8c0-9.4,0.1-18.8-0.1-28.1c0-2.8,0.5-4.2,3.7-4c3.8,0.3,7.7,0.2,11.5,0
		c2.7-0.1,3.4,0.9,3.3,3.4C1167.2,353.3,1167.3,356.8,1167.3,361.5z"/>
	<path class="st1" d="M596,433.1c-20,0-34.8-9.8-40.8-27c-6.8-19.4-1.3-40.6,13.5-52.3c15.9-12.5,46.1-10.9,60.4,3.1
		c1.8,1.8,2.3,3.1,0.2,4.8c-0.2,0.2-0.4,0.5-0.6,0.7c-2.3,2.7-4,6.6-6.9,7.8c-3.4,1.5-5.5-3.1-8.5-4.7c-12-6.3-27.3-4.8-35.1,3.9
		c-8.7,9.8-9.4,26.9-1.5,37.8c7.3,10.1,23.7,12.9,36.4,6c1.6-0.9,3.5-1.7,4.6-3.1c3.4-4.2,6-2.8,8.5,0.7c0.1,0.1,0.2,0.2,0.3,0.3
		c6.7,6.7,6.7,6.8-1,12.8C617.7,430.1,607.9,433.1,596,433.1z"/>
	<path class="st1" d="M888.6,375.9c0-17.4,0.1-34.7-0.1-52.1c0-3.5,0.9-4.6,4.4-4.3c3.5,0.3,7.1,0.3,10.6,0c3.7-0.3,4.3,1.2,4.3,4.5
		c-0.1,26.3-0.1,52.6-0.1,78.9c0,2.6,0.2,5.2,0,7.8c-0.3,3.2,0.8,4.2,4.1,4.2c13.4-0.2,26.7,0.1,40.1-0.2c4-0.1,5.2,1.2,4.8,5
		c-0.5,4.1,1.8,9.5-1,11.9c-2.4,2-7.6,0.7-11.6,0.7c-17.1,0-34.1-0.1-51.2,0.1c-3.5,0-4.3-1-4.3-4.4
		C888.7,410.7,888.6,393.3,888.6,375.9z"/>
	<path class="st1" d="M1048,413.5c5.6-16.1,10.7-30.9,15.9-45.6c2.1-6.1,4.4-12.1,6.3-18.3c0.8-2.5,2-3.4,4.6-3.3
		c4.9,0.2,9.8,0.1,15.3,0.1c-2.7,7.3-5.3,14.2-7.9,21c-7.7,20.2-15.5,40.4-23.1,60.7c-1.2,3.3-2.8,4.6-6.3,4.2
		c-4.9-0.5-10.9,1.8-14.4-0.9c-3.3-2.6-4.1-8.6-5.9-13.2c-8.7-22.5-17.3-45-26.1-67.4c-1.2-3.1-1.8-5,2.8-4.5c5,0.5,11.2-2,14.7,1
		c3.3,2.7,3.8,8.7,5.5,13.4C1035.5,377.8,1041.5,395.1,1048,413.5z"/>
	<path class="st1" d="M1650.1,389.2c0-7.2-0.1-14.4,0.1-21.7c0.1-2.7-0.6-3.7-3.6-3.7c-8.7,0-8.5-0.2-8.7-9.1c-0.1-3.8,1-5,4.8-4.8
		c7.4,0.3,7.4,0.1,7.4-7.5c0-4.3,0.1-8.6,0-12.9c-0.1-2.3,0.6-3.5,3.1-3.2c0.1,0,0.3,0,0.5,0c4.9,0.4,11.2-2.1,14.2,1
		c2.3,2.5,0.8,8.8,0.8,13.3c0.1,9.3,0,9.3,9.4,9.3c4.3,0,8.6,0,12.9,0c1.1,0,2.9-0.5,3,1.2c0.3,3.8,0.3,7.7,0,11.5
		c-0.1,1.6-1.9,1.2-3,1.2c-6.1,0-12.3,0.2-18.4,0c-3-0.1-3.9,0.8-3.9,3.8c0.2,12.1,0,24.3,0.1,36.4c0.1,10.8,4.6,14.1,15,11.3
		c2.3-0.6,4.8-3.1,6.7-2c2.3,1.3,2.2,4.9,3.1,7.4c2.3,6.7,2.3,6.8-4.5,9.4c-9.7,3.7-19.4,5-28.8-0.7c-7.1-4.3-9.8-11.2-10-19.1
		C1649.9,403.3,1650.1,396.3,1650.1,389.2z"/>
	<path class="st1" d="M792.6,372.6c0-18.3,0.1-36.6-0.1-54.9c-0.1-4,1.2-5,4.9-4.7c3.5,0.3,7.1,0.2,10.6,0c2.5-0.1,3.1,0.8,3.1,3.2
		c-0.1,37.6-0.1,75.3,0,112.9c0,2.5-0.9,3.1-3.2,3c-4.9-0.2-11.1,1.5-14.3-0.9c-3.1-2.3-0.9-8.9-0.9-13.6
		C792.5,402.7,792.6,387.7,792.6,372.6z"/>
	<path class="st1" d="M669.8,389.4c0,13.1-0.1,26.1,0.1,39.2c0,2.7-0.5,3.9-3.5,3.7c-3.8-0.3-7.7-0.3-11.5,0c-3,0.2-3.5-1-3.5-3.7
		c0.1-26.3,0.1-52.5,0-78.8c0-3.1,1.2-3.6,3.8-3.5c3.7,0.2,7.4,0.3,11.1,0c3.2-0.2,3.8,1.1,3.8,3.9
		C669.7,363.3,669.8,376.4,669.8,389.4z"/>
	<path class="st1" d="M991.9,389.3c0,13.1-0.1,26.1,0.1,39.2c0,3.1-0.9,4-3.9,3.8c-3.5-0.2-7.1-0.3-10.6,0c-3.2,0.2-4.2-0.8-4.1-4.1
		c0.2-16.1,0.1-32.3,0.1-48.4c0-10,0.1-20-0.1-30c-0.1-2.9,0.9-3.8,3.7-3.6c4.8,0.5,11.2-2.1,14.1,1.1c2.3,2.5,0.7,8.7,0.8,13.3
		C992,370.2,991.9,379.8,991.9,389.3z"/>
	<path class="st1" d="M1122.1,389.8c0,12.7-0.1,25.5,0.1,38.2c0.1,3.5-1,4.6-4.4,4.3c-3.4-0.3-6.8-0.3-10.1,0
		c-3.2,0.3-4.1-0.8-4.1-4.1c0.2-17,0.1-34.1,0.1-51.1c0-8.9,0.1-17.8-0.1-26.7c-0.1-3.3,1-4.3,4.1-4c4.7,0.5,11-2,13.6,1.1
		c2.3,2.7,0.7,8.8,0.8,13.3C1122.1,370.4,1122.1,380.1,1122.1,389.8z"/>
	<path class="st1" d="M1731.3,389.8c0,12.7-0.1,25.5,0.1,38.2c0.1,3.6-1,4.5-4.4,4.3c-3.4-0.3-6.8-0.3-10.1,0
		c-3.2,0.3-4.1-0.8-4.1-4.1c0.2-17.4,0.1-34.7,0.1-52.1c0-8.6,0.2-17.2-0.1-25.8c-0.1-3.3,1-4.3,4.2-4c4.6,0.3,10.7-1.5,13.4,0.8
		c3.1,2.7,0.9,8.9,1,13.6C1731.4,370.4,1731.3,380.1,1731.3,389.8z"/>
	<path class="st1" d="M414.2,67.4c4.3,0,8.6,0.1,12.9,0c2.4-0.1,3.6,0.3,3.5,3.2c-0.2,6.1-0.2,12.3,0,18.4c0.1,2.5-0.8,3.2-3.2,3.2
		c-8.8-0.1-17.5-0.1-26.3,0c-2.7,0.1-3.4-1-3.3-3.5c0.1-6,0.2-12,0-18c-0.1-2.7,0.9-3.4,3.5-3.3C405.6,67.5,409.9,67.4,414.2,67.4z"
		/>
	<path class="st1" d="M1711,322c0.1-6.6,4.6-10.9,11.2-10.7c6.3,0.2,10.3,4.8,10.2,11.7c-0.1,6.4-4.5,10.6-10.9,10.4
		C1715,333.3,1710.9,328.8,1711,322z"/>
	<path class="st1" d="M1123.1,322.4c0,6.7-4.2,11.1-10.8,11.1c-6.3-0.1-10.5-4.4-10.6-10.8c-0.1-6.8,4.1-11.3,10.6-11.3
		C1118.9,311.2,1123.1,315.6,1123.1,322.4z"/>
	<path class="st1" d="M993,322.5c0,6.7-4.3,11.1-10.9,11c-6.3-0.1-10.4-4.5-10.5-11c0-6.8,4.2-11.2,10.7-11.2
		C988.8,311.3,993,315.7,993,322.5z"/>
	<path class="st1" d="M670.8,322.3c0,6.8-4.2,11.1-10.7,11.1c-6.3,0-10.6-4.3-10.6-10.8c-0.1-6.8,4.1-11.3,10.5-11.4
		C666.6,311.2,670.8,315.6,670.8,322.3z"/>
	<path class="st0" d="M101.2,47.3c9.5,0,17.4,7.8,17.4,17.2c0,9.4-7.8,17.1-17.4,17.1c-9.5,0-17.4-7.7-17.4-17.1
		C83.8,55.1,91.7,47.3,101.2,47.3z"/>
	<path class="st0" d="M1639,181.7c0-6.5,0-12.9,0-19.4c0-9.9,4.9-15.9,14.6-18c11.5-2.4,20,1.8,24.4,12.8c6,15,6.4,30.6,1.6,46
		c-4.9,15.6-22.8,20.5-35.8,10.4c-3.2-2.5-5.1-5.3-4.9-9.7C1639.3,196.4,1639,189.1,1639,181.7z"/>
	<path class="st0" d="M1930.8,181.4c0,7.2-0.2,14.5,0.1,21.7c0.2,3.8-1.4,6.4-3.9,8.8c-12.4,11.7-31.9,7.1-36.6-9.1
		c-4.4-15.1-3.9-30.4,1.5-45.3c2.6-7.2,7.3-12.4,15.5-13.3c9.1-1,16.6,1.9,22.1,9.4c1.2,1.6,1.4,3.3,1.4,5.2
		C1930.8,166.3,1930.8,173.8,1930.8,181.4z"/>
	<path class="st0" d="M978.4,190.2c11.5,0,11.5,0,11.5,11.3c0,9.2-7.1,16-18.1,17.4c-1.7,0.2-3.4,0.2-5.1,0.2
		c-7.4,0-12-2.9-13.8-8.5c-1.9-6,0.4-12.6,5.9-16.6C963.2,190.8,966.3,190.2,978.4,190.2z"/>
	<path class="st0" d="M1801.3,199.5c0,11.2-6.5,18.1-18.4,19.4c-1.8,0.2-3.7,0.2-5.5,0.2c-5.5,0-10.1-1.9-12.4-7.1
		c-2.5-5.6-1.3-10.9,2.6-15.5c3.6-4.3,8.4-6.1,13.8-6.3c5.2-0.1,10.5,0.2,15.7-0.1c3.4-0.2,4.8,0.8,4.3,4.3
		C1801.1,196.1,1801.3,197.8,1801.3,199.5z"/>
	<path class="st0" d="M538.2,181.1c0,9-0.8,17.7-5,25.9c-4,7.8-10.4,11.4-19,11.4c-8.7,0-15.9-3.2-19.4-11.4
		c-7.3-17.2-7.3-34.6,0-51.8c3.4-8,10.4-11.5,18.9-11.6c8.6,0,15.4,3.6,19.4,11.6C537.3,163.3,538.3,172.1,538.2,181.1z"/>
	<path class="st0" d="M1459,335.9c22.1,0.2,39.9,18.1,39.7,40c-0.2,22.1-18.1,40-40,39.9c-22.3-0.1-40.6-18.5-40.3-40.7
		C1418.7,353.3,1436.9,335.8,1459,335.9z"/>
	<path class="st0" d="M1315,387.2c-0.1,15.3-10.5,26.6-24.7,26.6c-14.4,0-25.2-11.5-25.1-26.7c0.1-15.1,10.7-26.5,24.8-26.7
		C1304.3,360.2,1315.1,371.8,1315,387.2z"/>
	<path class="st0" d="M402.1,361c14.8,0,25.7,11.7,25.8,27.8c0.1,16.3-10.8,28.4-25.6,28.5c-15.1,0.1-26.1-11.9-26-28.5
		C376.4,372.7,387.3,361,402.1,361z"/>
	<path class="st0" d="M1608.5,388.8c0.2,21.3-19,34.7-37.2,25.9c-12.2-5.9-17.9-22.8-12.4-37.2c4.9-12.9,18-19.3,31.5-15.4
		C1601,365.2,1608.4,376,1608.5,388.8z"/>
	<path class="st0" d="M500.4,382.5c-6.9,0-13.8-0.1-20.7,0.1c-2.9,0.1-3.3-1-2.8-3.6c2.1-10.9,12.1-18.6,24.3-18.6
		c12.3,0,20.8,6.8,23.2,18.1c0.8,3.8-0.6,4.1-3.6,4C513.9,382.4,507.2,382.5,500.4,382.5z"/>
	<path class="st0" d="M724.1,418.4c-8.3,0-13.7-3.1-15.7-8.8c-2.3-6.7,0.7-12.7,7.6-14.1c10-2.1,20.2-0.8,30.3-1.1
		c2.1-0.1,1.9,1.4,2,2.8c0.6,8.7-2.6,14.4-10.4,18.2C733.6,417.5,729,418.5,724.1,418.4z"/>
	<path class="st0" d="M1794.4,417.5c-15.4-0.1-26.3-12-26.1-28.4c0.2-16.5,11.2-28,26.7-27.9c15.1,0.1,26.1,12.3,25.9,28.7
		C1820.6,406.2,1809.7,417.6,1794.4,417.5z"/>
</g>
</svg>
