<?xml version="1.0" encoding="utf-8"?>
<!-- Generator: Adobe Illustrator 23.0.1, SVG Export Plug-In . SVG Version: 6.00 Build 0)  -->
<svg version="1.1" id="Layer_1" xmlns="http://www.w3.org/2000/svg" xmlns:xlink="http://www.w3.org/1999/xlink" x="0px" y="0px"
	 viewBox="0 0 1920 1080" style="enable-background:new 0 0 1920 1080;" xml:space="preserve">
<style type="text/css">
	.st0{display:none;fill:#FEFEFE;}
	.st1{fill:#1865AC;}
	.st2{fill:#FBB337;}
</style>
<g>
	<path class="st0" d="M34.41,445.95c0-137.07,0.01-274.13-0.06-411.2c0-2.58,0.58-3.16,3.16-3.16c497.34,0.07,994.68,0.07,1492.02,0
		c2.58,0,3.16,0.58,3.16,3.16c-0.07,136.03-0.07,272.07,0,408.1c0,2.58-0.58,3.16-3.16,3.16
		C1031.16,445.95,532.78,445.95,34.41,445.95z M145.14,240.1c3.1,3.8,5.83,7.12,8.55,10.46c5.07,6.22,10.15,12.43,15.19,18.67
		c1.09,1.36,2.38,1.85,3.92,1.11c1.49-0.72,1.57-2.13,1.24-3.57c-0.13-0.56-0.33-1.1-0.48-1.65c-6.66-23.8-13.32-47.6-19.96-71.41
		c-0.4-1.42-0.84-2.82-0.72-4.37c1.05-13.04,1.17-26.09,0.73-39.16c-0.79-22.97-3.41-45.68-9.83-67.82
		c-3.07-10.59-6.84-20.93-14-29.6c-7.98-9.67-17.42-9.67-25.46-0.08C98,60.22,94.34,69.11,91.5,78.33
		C80.5,114,78.88,150.6,80.96,187.53c0.14,2.47-0.14,4.74-0.8,7.08c-6.65,23.68-13.25,47.38-19.89,71.07
		c-0.48,1.72-1.05,3.49,0.86,4.59c2.07,1.19,3.35-0.21,4.58-1.73c5.68-7.06,11.36-14.11,17.13-21.08c1.9-2.3,3.48-4.93,6.13-6.9
		c1.06,3.38,2.03,6.41,2.95,9.46c0.84,2.79,2.63,4.07,5.58,4.06c12.96-0.05,25.92-0.07,38.88,0.01c3.14,0.02,4.95-1.4,5.83-4.26
		C143.14,246.81,144.04,243.78,145.14,240.1z M90.75,307.86c0.19,15.78,0.98,27.31,2.08,38.82c1.92,20.07,4.69,40,9.78,59.53
		c2.05,7.85,4.13,15.77,9.05,22.47c3.5,4.77,7.24,4.7,10.76-0.08c3.87-5.26,5.81-11.4,7.61-17.55c5.05-17.3,7.81-35.03,9.91-52.89
		c2.21-18.78,3.82-37.61,3.06-56.53c-0.39-9.79-2.2-19.37-8.08-27.63c-8.87-12.47-26.59-12.72-35.84-0.54
		c-2.6,3.42-4.29,7.29-5.47,11.38C91.04,293.75,90.57,302.87,90.75,307.86z M1263.04,135.09c-0.9-2.28-0.91-4.32-0.98-6.31
		c-0.08-2.36-0.89-3.34-3.52-3.29c-9.51,0.18-19.03,0.19-28.54,0c-2.96-0.06-4.15,0.6-3.79,3.75c0.41,3.62-1.42,8.29,0.7,10.64
		c1.92,2.13,6.56,1.93,10.05,2.46c1.92,0.29,2.41,1.07,2.41,2.89c-0.04,28.43-0.05,56.86,0,85.29c0,1.73-0.65,2.4-2.25,2.75
		c-3.1,0.67-7.41,0.13-8.95,2.47c-1.49,2.27-0.46,6.2-0.53,9.4c-0.02,0.69,0.07,1.38-0.02,2.06c-0.24,1.98,0.31,2.81,2.57,2.79
		c14.21-0.11,28.43-0.09,42.65-0.01c2.04,0.01,2.64-0.71,2.41-2.57c-0.1-0.79,0.02-1.6-0.02-2.41c-0.15-3.18,1.24-7.07-0.55-9.35
		c-1.68-2.16-5.71-1.75-8.73-2.31c-2.04-0.38-2.5-1.32-2.47-3.25c0.11-6.65,0.03-13.3,0.07-19.95c0-0.68-0.5-1.61,0.61-2.1
		c2.17,2.36,4.55,4.48,7.44,6c16,8.45,36.62,1.23,43.86-16.35c7.77-18.89,7.23-38.15-1.81-56.57
		c-7.07-14.41-22.75-20.64-37.39-15.93C1270.85,126.94,1266.87,130.63,1263.04,135.09z M1154.8,136.43c0-2.06,0-3.2,0-4.34
		c0-14.45,0-28.89,0-43.34c0-1.46,0.37-2.91-2.09-2.88c-11.01,0.11-22.01,0.09-33.02,0.01c-1.96-0.01-2.24,0.84-2.2,2.47
		c0.09,3.21,0.19,6.43-0.03,9.63c-0.16,2.32,0.87,2.98,2.9,3.24c2.49,0.32,4.93,1,7.42,1.33c1.94,0.26,2.66,1.06,2.66,3.11
		c-0.06,30.04-0.06,60.08-0.01,90.11c0,1.76-0.42,2.69-2.28,3.1c-3.08,0.68-7.37,0.06-8.89,2.53c-1.45,2.35-0.47,6.21-0.55,9.4
		c-0.01,0.34,0.05,0.7-0.01,1.03c-0.47,2.77,0.49,3.69,3.46,3.65c12.26-0.18,24.53-0.08,36.8-0.08c6.17,0,6.17,0,6.17-6.29
		c0-8.19,0.01-8.25-7.91-10.17c-1.74-0.42-2.46-0.99-2.45-2.9c0.08-14.79,0.05-29.58,0.03-44.37c0-1.17,0.11-2.18,1.03-3.11
		c5.35-5.46,11.87-6.7,18.97-4.99c6.45,1.56,8.48,6.78,9.3,12.65c0.22,1.58,0.28,3.2,0.28,4.8c0.02,10.43,0.01,20.87,0.01,31.3
		c0,6.01,0.04,6.21-5.85,7.28c-3.52,0.64-5.26,1.91-4.65,5.76c0.36,2.24,0.24,4.59,0.02,6.86c-0.24,2.53,0.52,3.29,3.16,3.26
		c12.72-0.15,25.45-0.07,38.18-0.07c5.24,0,5.32,0,5.21-5.22c-0.06-3.06,1.25-6.79-0.6-9.01c-1.72-2.06-5.51-1.73-8.41-2.26
		c-2.14-0.39-2.73-1.32-2.71-3.43c0.1-11.46,0.06-22.93,0.04-34.39c-0.01-4.01-0.3-8-0.99-11.96
		c-2.55-14.57-11.08-23.37-24.77-25.06C1171.65,122.67,1162.37,126.66,1154.8,136.43z M1481.11,134.3
		c-7.13-6.77-10.15-8.65-15.4-9.79c-15.24-3.29-28.94,4.02-35.91,19.27c-5.41,11.84-5.95,24.38-4.86,37.05
		c0.77,9.04,3.62,17.37,9.13,24.8c10.15,13.67,35.24,16.75,46.86,1.45c0.42-0.55,0.71-1.53,1.93-1.13c0.33,2.08,0.75,4.2,0.99,6.34
		c0.25,2.23,0.95,3.27,3.61,3.19c7.9-0.24,15.82-0.09,23.73-0.09c6.18,0,6.18,0,6.18-6.34c0-8.32,0.03-8.51-8.08-9.93
		c-3.13-0.55-3.68-1.86-3.67-4.71c0.09-35.08,0.06-70.17,0.06-105.26c0-1.7,0.42-3.36-2.41-3.32c-10.89,0.14-21.78,0.09-32.68,0.02
		c-1.78-0.01-2.44,0.53-2.38,2.34c0.11,3.32,0.13,6.65-0.01,9.97c-0.08,1.89,0.65,2.67,2.45,2.94c2.72,0.4,5.41,0.97,8.11,1.47
		c1.28,0.24,2.4,0.46,2.38,2.25C1481.08,114.46,1481.11,124.06,1481.11,134.3z M511.35,137.95c-0.3-3.61-0.7-6.46-0.71-9.3
		c-0.01-2.44-1.01-3.09-3.33-3.06c-8.02,0.12-16.05,0.05-24.08,0.04c-8.49,0-8.49,0-8.49,8.55c0,6.04,0,6.03,5.77,7.22
		c1.57,0.32,3.12,0.86,4.7,0.94c1.99,0.11,2.44,1.06,2.43,2.86c-0.05,16.97-0.05,33.94,0.01,50.9c0.01,1.75-0.69,2.36-2.28,2.74
		c-3.07,0.74-7.26,0.1-8.94,2.53c-1.73,2.51-0.21,6.46-0.56,9.75c-0.35,3.29,0.48,4.49,4.16,4.39c11.34-0.29,22.7-0.11,34.05-0.11
		c7.57,0,7.57,0,7.57-7.65c0-6.99,0.02-7.08-6.86-8.71c-1.97-0.47-2.86-1.03-2.84-3.31c0.12-14.44,0.08-28.89,0.04-43.34
		c0-1.59,0.41-2.83,1.52-4c4.83-5.12,13.64-7.11,20.33-4.36c6.69,2.76,7.38,8.71,7.65,14.84c0.02,0.57,0,1.15,0,1.72
		c0,9.63,0.02,19.26-0.01,28.89c-0.01,2.85,0.77,6.25-0.5,8.39c-1.23,2.07-4.98,1.69-7.62,2.33c-1.66,0.4-2.27,1.09-2.21,2.78
		c0.11,3.21,0.17,6.43-0.02,9.63c-0.14,2.29,0.64,2.86,2.87,2.84c12.73-0.1,25.45-0.05,38.18-0.05c5.34,0,5.36,0,5.33-5.43
		c-0.02-2.97,0.88-6.6-0.5-8.73c-1.43-2.2-5.43-1.72-8.32-2.29c-2.16-0.43-2.73-1.33-2.72-3.44c0.09-11.58,0.08-23.16,0.03-34.74
		c-0.02-4.46-0.23-8.92-0.97-13.35c-2.45-14.83-12.54-23.43-27.48-23.59C526.55,123.73,518.28,128.66,511.35,137.95z M957.29,137.94
		c-0.3-3.79-0.64-6.75-0.74-9.71c-0.07-1.87-0.71-2.64-2.66-2.63c-10.32,0.06-20.64,0.05-30.95,0.01c-1.55-0.01-2.31,0.36-2.26,2.1
		c0.1,3.55,0.13,7.11-0.01,10.66c-0.07,1.71,0.75,2.11,2.16,2.35c2.59,0.44,5.14,1.25,7.75,1.47c2.59,0.22,3.07,1.4,3.06,3.76
		c-0.1,14.45-0.05,28.89-0.05,43.34c0,9.05,0.02,9.15-8.71,10.84c-2.24,0.43-3.18,1.15-3.04,3.5c0.18,2.97,0.18,5.97,0,8.94
		c-0.14,2.24,0.58,2.91,2.85,2.89c11.69-0.11,23.39-0.05,35.08-0.05c7.84,0,7.84,0,7.84-7.72c0-6.94,0.04-7.13-6.6-8.54
		c-2.69-0.57-3.1-1.8-3.08-4.17c0.09-13.3,0.35-26.61-0.1-39.89c-0.18-5.51,2.49-8.22,6.67-10.36c3.46-1.77,7.2-2.06,11.04-1.67
		c6.48,0.65,10.3,4.07,11.36,10.43c0.34,2.02,0.53,4.09,0.54,6.14c0.05,9.86,0.06,19.72,0,29.58c-0.02,2.95,1.11,6.45-0.5,8.71
		c-1.44,2.02-5.03,1.68-7.68,2.3c-1.72,0.4-2.2,1.2-2.14,2.84c0.1,3.09,0.23,6.21-0.03,9.28c-0.24,2.74,0.87,3.15,3.29,3.13
		c12.27-0.12,24.53-0.05,36.8-0.05c6.3,0,6.3,0,6.3-6.19c0-8.42,0.03-8.6-8.22-10.14c-2.88-0.54-3.33-1.75-3.34-4.31
		c-0.03-14.1,0.53-28.21-0.3-42.29c-1.2-20.64-15.47-31.85-35.34-27.9C968.35,126.14,962.54,130.98,957.29,137.94z M880.04,204.51
		c0.49,3.39,0.97,5.97,1.22,8.57c0.18,1.84,0.91,2.41,2.8,2.38c7.57-0.12,15.13-0.05,22.7-0.05c7.17,0,7.17,0,7.17-7.01
		c0-7.57,0.04-7.79-7.32-9.2c-3.13-0.6-3.65-1.98-3.63-4.79c0.1-21.79,0-43.57,0.12-65.36c0.02-2.9-0.82-3.63-3.65-3.56
		c-8.37,0.19-16.74,0.07-25.11,0.07c-6.41,0-6.41,0-6.41,6.54c0,8.03-0.04,8.19,7.73,9.9c2.67,0.59,3.13,1.78,3.11,4.17
		c-0.09,13.19-0.38,26.38,0.11,39.55c0.22,5.85-2.55,8.59-7.15,10.63c-3.76,1.67-7.72,2.2-11.76,1.74
		c-4.44-0.51-7.65-2.86-9.29-7.13c-1.21-3.15-1.55-6.43-1.54-9.78c0.02-17.43-0.06-34.86,0.08-52.29c0.02-2.8-0.85-3.46-3.49-3.4
		c-7.56,0.16-15.13,0.06-22.7,0.06c-8.3,0-8.3,0-8.3,8.4c0,6.31-0.04,6.51,6.16,7.79c3.15,0.65,3.75,2.07,3.78,5.07
		c0.11,14.09-0.8,28.21,0.51,42.28c1.74,18.67,14.76,29.77,32.56,28.09C866.8,216.33,874.05,212.36,880.04,204.51z M780.54,206.63
		c0.72,2.3,1.39,4,1.77,5.76c0.53,2.46,1.87,3.19,4.35,3.08c4.58-0.21,9.17-0.03,13.75-0.07c3.65-0.03,8.72,1.28,10.61-0.58
		c2.37-2.34,0.43-7.38,0.79-11.24c0.21-2.25-0.73-2.99-2.82-3.25c-5.04-0.61-5.05-0.69-5.05-5.82c-0.01-13.07,0.01-26.14-0.01-39.21
		c-0.02-14.31-6.96-24.29-20.57-28.74c-17.47-5.71-33.87-2.53-49.36,6.81c-1.23,0.74-1.69,1.61-1.67,3.03
		c0.04,5.27,0.02,10.55-0.11,15.82c-0.05,1.81,0.56,2.39,2.35,2.34c3.89-0.11,7.82-0.32,11.68,0.05c3.66,0.35,4.97-0.9,5.29-4.51
		c0.54-5.92,1.23-6.41,7.11-7.72c0.67-0.15,1.34-0.32,2.01-0.44c11.61-1.99,18.69,3.31,18.96,14.21c0.19,7.73,0.19,7.73-7.58,7.73
		c-0.92,0-1.83,0.01-2.75,0c-8.4-0.07-16.73,0.46-24.71,3.34c-14.32,5.17-20.5,17.6-16.08,32.17c3.58,11.79,15.35,18.84,29.24,17.89
		C766.62,216.69,774.03,213.2,780.54,206.63z M1385.48,206.59c0.69,2.27,1.29,3.88,1.66,5.54c0.55,2.5,1.81,3.43,4.51,3.36
		c7.45-0.21,14.9-0.14,22.35-0.03c2.05,0.03,2.89-0.45,2.76-2.65c-0.18-2.97-0.23-5.97,0.01-8.93c0.21-2.59-0.86-3.71-3.24-3.51
		c-3.97,0.32-4.71-1.87-4.69-5.21c0.08-13.3,0.05-26.6,0.03-39.9c-0.03-14.28-6.99-24.26-20.63-28.7
		c-17.48-5.7-33.87-2.5-49.35,6.85c-1.25,0.76-1.63,1.66-1.62,3.06c0.04,5.16,0.06,10.32-0.13,15.47c-0.08,2.22,0.73,2.72,2.76,2.64
		c3.78-0.14,7.6-0.35,11.34,0.05c3.75,0.4,4.91-1.07,5.24-4.56c0.55-5.82,1.19-6.3,6.82-7.62c0.78-0.18,1.56-0.36,2.35-0.49
		c11.63-1.96,18.66,3.35,18.91,14.27c0.18,7.67,0.18,7.67-7.63,7.67c-2.41,0-4.82-0.08-7.22,0.01c-6.88,0.26-13.71,0.94-20.24,3.33
		c-14.28,5.22-20.44,17.65-16.01,32.22c3.62,11.9,14.48,18.22,28.93,17.81C1371.38,217.01,1378.92,213.31,1385.48,206.59z
		 M671.59,215.41c14.22,0,28.44-0.04,42.66,0.04c2.14,0.01,2.96-0.4,2.92-2.77c-0.14-9.4-0.11-18.81-0.02-28.21
		c0.02-2.1-0.34-3.07-2.76-2.96c-4.46,0.2-8.95,0.19-13.41,0c-2.2-0.09-2.75,0.83-2.86,2.73c-0.18,3.32-0.61,6.62-0.71,9.94
		c-0.06,2.13-0.93,2.6-2.94,2.58c-9.4-0.1-18.81-0.13-28.21,0.01c-2.5,0.04-3.14-0.81-2.99-3.13c0.18-2.97,0.04-5.96,0.04-8.94
		c0-23.28,0.04-46.56-0.06-69.83c-0.01-2.42,0.55-3.48,3.05-3.72c2.49-0.23,4.92-1.12,7.41-1.4c2.11-0.24,2.59-1.23,2.51-3.15
		c-0.13-3.09-0.19-6.2,0.01-9.28c0.17-2.55-0.92-3.05-3.2-2.98c-4.7,0.15-9.4,0.05-14.1,0.05c-9.98,0-19.95-0.02-29.93,0.03
		c-1.08,0.01-2.82-0.71-2.83,1.4c-0.02,4.35-0.97,9.11,0.51,12.9c0.93,2.38,6.01,1.55,9.15,2.46c0.22,0.06,0.45,0.15,0.67,0.15
		c1.76-0.01,2.28,0.85,2.28,2.58c-0.05,27.41-0.05,54.81,0,82.22c0,1.76-0.66,2.44-2.29,2.7c-2.71,0.43-5.39,1.07-8.11,1.45
		c-1.68,0.24-2.35,0.92-2.28,2.67c0.12,3.09,0.21,6.2-0.02,9.28c-0.19,2.55,0.56,3.27,3.18,3.24
		C643.38,215.33,657.49,215.41,671.59,215.41z M272.36,215.41c14.22,0,28.44,0,42.66,0.01c1.62,0,3.05,0.32,3-2.31
		c-0.16-9.74-0.11-19.49-0.03-29.24c0.01-1.81-0.53-2.37-2.33-2.33c-4.7,0.11-9.4,0.13-14.1-0.01c-1.8-0.05-2.44,0.65-2.56,2.29
		c-0.25,3.54-0.62,7.08-0.79,10.62c-0.08,1.74-0.68,2.32-2.47,2.31c-9.75-0.08-19.49-0.08-29.24,0c-1.79,0.01-2.37-0.53-2.37-2.34
		c0.05-26.83,0.04-53.67,0-80.5c0-1.73,0.54-2.36,2.28-2.59c2.83-0.37,5.59-1.25,8.41-1.63c1.79-0.24,2.28-1.01,2.24-2.67
		c-0.08-3.21-0.16-6.43,0.02-9.63c0.14-2.44-0.74-3.08-3.11-3.06c-13.99,0.1-27.98,0.05-41.97,0.05c-5.01,0-5.07,0-4.99,5.14
		c0.05,3.19-1.31,7.24,0.55,9.32c1.66,1.85,5.69,1.75,8.72,2.16c2.68,0.36,3.4,1.48,3.39,4.2c-0.12,25.46-0.07,50.91-0.07,76.37
		c0,6.83,0,6.83-6.91,8.06c-5.7,1.01-5.7,1.01-5.7,6.67c0,2.06,0.18,4.15-0.04,6.19c-0.27,2.54,0.78,2.98,3.09,2.96
		C244.15,215.36,258.25,215.41,272.36,215.41z M467.18,170.09c0.22-2.79-0.14-6.09-0.58-9.39c-2.32-17.04-13.33-33.71-35.25-36.57
		c-20.8-2.71-38.46,6.86-45.65,25.47c-2.9,7.5-3.59,15.34-3.44,23.29c0.44,22.95,13.28,43.74,41.04,44.37
		c17.23,0.39,31.33-5.85,39.56-23.53C466.24,186.45,467.34,178.64,467.18,170.09z M1108.12,148.3c-0.04,0-0.07,0-0.11,0
		c0-1.95-0.29-3.95,0.06-5.84c0.99-5.39-1.76-8.48-5.97-11.1c-11.14-6.95-23.26-8.53-36-6.94c-15.59,1.95-25.97,10.63-31.72,25
		c-4.03,10.06-4.27,20.6-2.83,31.15c4.58,33.63,33.19,41.85,56.43,34.07c12.52-4.19,20.85-15.2,21.45-26.87
		c0.13-2.6-0.58-3.41-3.19-3.28c-4.35,0.21-8.73,0.27-13.07-0.01c-3.9-0.25-6.9-0.05-6.97,5.03c-0.02,1.78-1.38,3.34-2.67,4.7
		c-6.79,7.19-20.48,5.31-24.5-3.75c-5.24-11.81-4.84-24.09-1.25-36.28c2.26-7.66,7.83-11.21,15.67-11.54
		c6.82-0.28,10.65,2.41,12.49,8.88c0.62,2.2,1.41,4.37,1.84,6.61c0.36,1.88,1.3,2.3,3.07,2.26c4.93-0.11,9.86-0.12,14.79,0
		c1.9,0.05,2.65-0.44,2.55-2.46C1108,154.73,1108.12,151.51,1108.12,148.3z M1129.45,358.55c2.43,0.13,5.38-0.17,8.33-0.67
		c27.02-4.51,43.04-33.13,32.6-58.28c-8-19.26-28.49-29.64-50.66-25.65c-23.36,4.2-38.51,25.68-34.56,49.01
		C1088.73,344.02,1106.59,358.55,1129.45,358.55z M1021.88,344.96c0,3.36,0.22,6.22-0.04,9.02c-0.78,8.27-5.79,13.91-13.97,15.74
		c-6.7,1.5-13.16,0.64-19.43-2.19c-2.42-1.09-4.76-4.33-6.93-3.29c-2.05,0.97-2.77,4.54-4.35,6.78c-1.38,1.97-1.13,2.96,0.98,4.21
		c11.56,6.79,23.82,8.62,36.71,5.14c12.04-3.25,20.47-12.98,20.73-24.93c0.43-19.82,0.14-39.65,0.18-59.48
		c0-1.36-0.27-2.14-1.87-2.1c-3.32,0.08-6.65,0.08-9.97,0c-1.52-0.04-2.01,0.56-1.96,2.02c0.08,2.21,0.02,4.43,0.02,7.61
		c-1.11-1.31-1.55-1.81-1.97-2.33c-9.76-12.49-38.66-11.84-46.15,10.09c-2.24,6.55-2.71,13.23-1.39,19.98
		c2.19,11.2,8.09,19.48,19.5,22.56C1003.32,356.82,1013.57,355.05,1021.88,344.96z M322.08,348.71c0.27-0.16,0.54-0.31,0.82-0.47
		c0.23,0.39,0.42,0.81,0.69,1.17c9.38,12.56,31.7,11.68,42.14,1.02c8.98-9.16,11.5-26.18,6.03-39.61
		c-8.76-21.5-38.24-22.59-48.26-8.43c-0.29,0.41-0.62,1.03-1.42,0.52c0-2.01-0.12-4.08,0.03-6.13c0.16-2.12-0.35-3.16-2.77-2.97
		c-2.73,0.21-5.51,0.2-8.24,0c-2.33-0.17-2.84,0.73-2.83,2.91c0.07,27.16,0.07,54.31,0,81.47c-0.01,2.31,0.45,3.33,2.98,3.12
		c2.62-0.22,5.28-0.22,7.9,0c2.52,0.21,3.02-0.8,2.99-3.11C322.01,368.37,322.08,358.54,322.08,348.71z M1202.83,303.52
		c-1.6-3.34,1.4-7.8-1.74-9.33c-2.79-1.35-6.74-0.31-10.17-0.33c-0.11,0-0.23,0.01-0.34,0c-1.74-0.23-2.08,0.69-2.07,2.22
		c0.03,27.61,0.04,55.23-0.01,82.84c0,1.76,0.48,2.46,2.32,2.37c2.63-0.13,5.29-0.22,7.9,0.02c2.79,0.26,3.73-0.54,3.65-3.51
		c-0.21-8.59-0.1-17.19-0.05-25.78c0.01-1.17-0.38-2.44,0.54-3.86c0.42,0.56,0.7,0.91,0.97,1.28c9.95,13.5,36.63,12.17,46.16-4.2
		c4.44-7.63,5.26-15.76,4.57-24.2c-1.57-19.19-18.43-31.45-37.17-27.22C1211.35,295.19,1206.6,298.51,1202.83,303.52z
		 M362.58,162.05c0-11.24-0.02-22.47,0.02-33.71c0.01-1.66-0.05-2.84-2.28-2.82c-11.01,0.08-22.01,0.06-33.02,0.01
		c-1.65-0.01-2.22,0.62-2.18,2.23c0.08,3.44,0.11,6.88-0.01,10.32c-0.06,1.76,0.67,2.4,2.29,2.67c2.82,0.46,5.6,1.26,8.43,1.58
		c1.96,0.22,2.42,1.07,2.42,2.87c-0.05,16.86-0.05,33.71,0,50.57c0.01,1.77-0.45,2.68-2.31,3.1c-3.09,0.69-7.46,0.05-8.9,2.51
		c-1.46,2.5-0.45,6.45-0.52,9.76c0,0.11,0.02,0.23,0,0.34c-0.47,2.98,0.47,4.08,3.79,4.03c12.72-0.22,25.45-0.09,38.18-0.09
		c5.8,0,5.8,0,5.8-5.69c0-8.95,0.02-9.03-8.79-10.75c-2.24-0.44-2.98-1.25-2.96-3.55C362.64,184.3,362.58,173.17,362.58,162.05z
		 M260.13,273.19c-5.88-0.1-12.5,1.07-18.51,4.52c-6.83,3.92-10.72,9.75-11.09,17.81c-0.41,8.75,3.02,15.32,10.61,19.71
		c3.09,1.79,6.42,3,9.79,4.15c5.84,2,11.97,3.16,17.57,5.87c5.52,2.67,8.11,6.72,7.32,11.21c-0.76,4.33-4.9,7.6-10.6,8.33
		c-1.14,0.14-2.28,0.19-3.43,0.24c-10.79,0.44-19.86-3.84-27.96-10.49c-1.75-1.43-2.45-1.45-3.35,0.67
		c-1.11,2.63-2.4,5.21-3.85,7.67c-1.1,1.87-0.75,2.91,0.93,4.24c11.16,8.81,23.83,12.56,37.9,11.22c7.91-0.75,15.27-3.26,20.85-9.36
		c7.93-8.67,9.37-27.89-9.07-35.75c-6.55-2.79-13.48-4.45-20.13-6.9c-2.82-1.04-5.52-2.28-7.72-4.37
		c-4.84-4.61-3.62-11.33,2.52-13.96c2.14-0.92,4.41-1.16,6.71-1.25c8.53-0.35,16.27,2.31,23.57,6.38c2.04,1.14,3.01,0.78,3.85-1.27
		c1-2.43,2-4.91,3.37-7.14c1.51-2.46,0.59-3.58-1.6-4.73C279.45,275.57,270.62,273.12,260.13,273.19z M420.88,331.03
		c6.99,0,13.98-0.09,20.97,0.05c2.39,0.05,3.51-0.34,3.41-3.13c-0.13-3.78-0.08-7.56-0.76-11.29c-1.58-8.74-5.41-16.05-13.67-20.27
		c-5-2.55-10.39-3.34-15.98-3.24c-12.84,0.23-23.2,5.17-28.72,17.05c-5.91,12.73-5.27,25.62,3.47,36.99
		c10.53,13.71,33.93,15.46,48.47,4.2c4.29-3.32,4.29-3.32,0.55-7.34c-0.86-0.92-1.82-1.76-2.58-2.76c-1.06-1.39-1.93-1.63-3.25-0.22
		c-1.65,1.77-3.77,2.96-5.98,3.96c-12.1,5.52-24.83,0.79-29.08-10.72c-0.87-2.36-0.95-3.47,2.19-3.37
		C406.9,331.17,413.89,331.03,420.88,331.03z M599.06,351.36c1.33,2.06-0.97,5.18,1.39,6.24c1.92,0.86,4.5,0.24,6.79,0.26
		c1.15,0.01,2.31-0.11,3.44,0.03c2.22,0.27,2.65-0.77,2.63-2.77c-0.1-13.52-0.01-27.05-0.16-40.57c-0.11-9.91-5.73-17.5-15.29-20
		c-12.8-3.35-24.96-1.29-36.31,5.54c-1.45,0.87-1.57,1.65-0.7,3c1.23,1.93,2.43,3.9,3.41,5.96c0.87,1.83,1.67,1.87,3.33,0.81
		c4.78-3.07,9.97-5.16,15.74-5.37c9.03-0.33,15.71,3.25,16.17,12.24c0.11,2.16-0.53,2.78-2.64,2.74c-5.96-0.12-11.93-0.21-17.88,0
		c-7.01,0.25-13.81,1.64-18.63,7.3c-9.25,10.87-3.24,27.75,11.16,30.96C581.52,359.95,591.06,358.66,599.06,351.36z M1379.33,358.55
		c20.44,0,33.58-12.92,33.54-33.06c-0.02-13.5-5.53-24.05-18.19-29.29c-13.47-5.57-26.89-4.71-38.38,5.12
		c-10.17,8.7-13.1,24.28-7.95,37.62C1353.11,351.31,1364.56,358.55,1379.33,358.55z M1441.09,305.05c0-3.46-0.09-6.15,0.03-8.84
		c0.08-1.75-0.44-2.48-2.3-2.38c-2.51,0.14-5.06,0.22-7.56-0.02c-3.02-0.28-4.06,0.55-4.02,3.84c0.19,16.51,0.07,33.01,0.1,49.52
		c0.01,3.42-1.14,7.99,0.59,9.95c2,2.26,6.69,0.41,10.18,0.78c2.45,0.26,3.07-0.65,3.04-3.05c-0.13-9.97-0.18-19.95-0.02-29.92
		c0.19-11.24,8.06-18.85,19-18.68c9.68,0.15,14.68,6.39,14.68,18.33c0,10.2,0.06,20.41-0.04,30.61c-0.02,2.09,0.52,2.85,2.68,2.72
		c2.85-0.18,5.73-0.14,8.59-0.01c1.89,0.09,2.59-0.45,2.57-2.47c-0.09-13.53,0.12-27.06-0.11-40.58
		c-0.18-10.36-6.35-18.57-15.98-20.69C1460.38,291.49,1449.28,293.2,1441.09,305.05z M911.87,305.16c0-3.54-0.1-6.16,0.03-8.77
		c0.1-1.89-0.44-2.69-2.47-2.57c-2.86,0.16-5.74,0.2-8.59-0.01c-2.41-0.18-2.82,0.85-2.78,2.97c0.11,6.99,0.04,13.98,0.04,20.98
		c0,12.38,0.07,24.76-0.06,37.14c-0.03,2.46,0.71,3.19,3.09,3.01c2.62-0.2,5.28-0.19,7.9,0c2.26,0.16,2.91-0.62,2.88-2.87
		c-0.12-9.63-0.01-19.26-0.07-28.89c-0.02-2.92,0.53-5.71,1.52-8.4c3.04-8.26,11.42-12.94,20.1-11.32
		c8.05,1.5,12.07,6.97,12.12,16.59c0.04,8.02-0.06,16.05,0.04,24.07c0.05,3.5-1.57,8.3,0.71,10.16c2.17,1.76,6.78,0.44,10.3,0.64
		c2.03,0.12,2.79-0.41,2.77-2.63c-0.1-13.3,0.07-26.6-0.09-39.89c-0.13-11.51-6.93-19.83-18.18-21.67
		C929.73,291.85,919.41,293.89,911.87,305.16z M485.91,358.55c8.88,0,16.17-2.22,21.92-6.69c5.77-4.47,5.77-4.53,0.78-9.52
		c-0.08-0.08-0.18-0.15-0.24-0.24c-1.9-2.63-3.83-3.68-6.34-0.55c-0.82,1.02-2.2,1.63-3.41,2.28c-9.54,5.09-21.71,3.05-27.17-4.51
		c-5.87-8.12-5.35-20.87,1.15-28.16c5.77-6.48,17.21-7.61,26.14-2.92c2.21,1.16,3.84,4.59,6.34,3.48c2.16-0.96,3.48-3.82,5.17-5.85
		c0.15-0.18,0.27-0.38,0.44-0.53c1.53-1.28,1.2-2.28-0.16-3.61c-10.64-10.43-33.2-11.62-45.02-2.3c-11.04,8.7-15.11,24.53-10.04,39
		C459.96,351.26,471,358.56,485.91,358.55z M704.03,315.9c0,12.95,0.07,25.9-0.06,38.85c-0.02,2.53,0.59,3.3,3.21,3.28
		c12.72-0.14,25.44-0.05,38.16-0.08c2.97-0.01,6.88,0.95,8.65-0.55c2.09-1.77,0.39-5.83,0.75-8.87c0.32-2.78-0.62-3.77-3.57-3.72
		c-9.97,0.18-19.94,0-29.91,0.12c-2.44,0.03-3.27-0.75-3.06-3.13c0.17-1.93,0.03-3.89,0.03-5.84c0-19.6-0.04-39.19,0.05-58.79
		c0.01-2.44-0.45-3.59-3.18-3.33c-2.61,0.25-5.28,0.23-7.9,0c-2.56-0.22-3.28,0.6-3.26,3.2C704.11,290,704.03,302.95,704.03,315.9z
		 M822.9,343.91c-4.83-13.73-9.33-26.58-13.87-39.41c-1.22-3.44-1.65-7.93-4.09-9.96c-2.63-2.18-7.27-0.32-10.99-0.72
		c-3.4-0.37-2.99,1.04-2.07,3.38c6.54,16.73,12.98,33.51,19.48,50.26c1.32,3.4,1.89,7.85,4.38,9.81c2.54,2,7.07,0.28,10.7,0.64
		c2.62,0.26,3.8-0.71,4.72-3.15c5.66-15.11,11.49-30.16,17.25-45.23c1.95-5.1,3.84-10.21,5.89-15.68c-4.13,0-7.79,0.11-11.44-0.04
		c-1.94-0.08-2.83,0.57-3.42,2.43c-1.43,4.58-3.11,9.09-4.68,13.63C830.91,320.89,827.08,331.9,822.9,343.91z M1271.8,325.79
		c0,5.27-0.12,10.54,0.03,15.81c0.17,5.91,2.18,11.09,7.45,14.27c6.99,4.21,14.27,3.27,21.48,0.5c5.04-1.94,5.06-2.03,3.33-7
		c-0.67-1.92-0.61-4.55-2.3-5.54c-1.42-0.83-3.28,1-5.02,1.48c-7.74,2.11-11.14-0.38-11.2-8.41c-0.06-9.05,0.06-18.1-0.07-27.15
		c-0.03-2.29,0.68-2.93,2.9-2.85c4.58,0.16,9.16,0.06,13.75,0.03c0.84-0.01,2.19,0.37,2.27-0.86c0.19-2.85,0.19-5.72,0-8.57
		c-0.08-1.23-1.43-0.85-2.27-0.86c-3.21-0.04-6.42-0.02-9.62-0.02c-6.97,0-6.95,0-6.98-6.93c-0.02-3.42,1.17-8.1-0.58-9.95
		c-2.2-2.33-6.92-0.51-10.55-0.78c-0.11-0.01-0.23,0.01-0.34,0c-1.83-0.23-2.37,0.64-2.32,2.39c0.11,3.2,0.03,6.42,0.03,9.62
		c0,5.62-0.01,5.78-5.51,5.57c-2.86-0.11-3.69,0.72-3.61,3.59c0.19,6.62,0.04,6.73,6.5,6.75c2.18,0.01,2.7,0.71,2.65,2.76
		C1271.71,315.02,1271.79,320.41,1271.8,325.79z M632.46,313.43c0,11.23-0.06,22.45,0.03,33.68c0.03,3.5-1.59,8.41,0.7,10.13
		c2.37,1.78,7.01,0.49,10.65,0.65c1.71,0.08,2.42-0.38,2.41-2.27c-0.05-28.07-0.05-56.13,0-84.2c0-1.76-0.47-2.47-2.31-2.37
		c-2.63,0.13-5.28,0.22-7.9-0.02c-2.78-0.25-3.7,0.53-3.66,3.5C632.55,286.16,632.46,299.8,632.46,313.43z M540.93,325.95
		c0-9.73-0.06-19.47,0.04-29.2c0.02-2.15-0.44-3.11-2.81-2.94c-2.73,0.2-5.5,0.14-8.24,0.01c-1.95-0.09-2.83,0.3-2.82,2.58
		c0.09,19.58,0.08,39.16,0.01,58.74c-0.01,2.01,0.4,2.91,2.63,2.76c2.85-0.19,5.73-0.19,8.58,0c2.23,0.15,2.65-0.75,2.63-2.76
		C540.88,345.42,540.93,335.68,540.93,325.95z M781.11,325.86c0-7.1,0.03-14.2-0.01-21.3c-0.02-3.42,1.17-8.08-0.57-9.93
		c-2.19-2.32-6.91-0.45-10.51-0.79c-2.09-0.2-2.76,0.5-2.73,2.65c0.13,7.44,0.05,14.89,0.05,22.33c0,12.02,0.07,24.05-0.06,36.07
		c-0.03,2.45,0.69,3.2,3.08,3.02c2.62-0.2,5.27-0.18,7.9,0c2.22,0.15,2.93-0.56,2.9-2.84C781.04,345.33,781.11,335.6,781.11,325.86z
		 M878.15,326.22c0-7.21,0.02-14.43-0.01-21.64c-0.02-3.42,1.16-7.97-0.57-9.95c-1.99-2.29-6.67-0.43-10.15-0.79
		c-2.37-0.24-3.16,0.52-3.09,2.99c0.17,6.64,0.06,13.28,0.06,19.92c0,12.71,0.06,25.42-0.06,38.13c-0.02,2.43,0.66,3.23,3.07,3.03
		c2.5-0.2,5.05-0.21,7.55,0c2.53,0.22,3.32-0.55,3.27-3.18C878.04,345.23,878.15,335.72,878.15,326.22z M1332.36,326.23
		c0-7.21,0.08-14.43-0.03-21.64c-0.06-3.5,1.56-8.17-0.73-10.15c-2-1.72-6.55-0.37-9.96-0.61c-2.36-0.17-3.17,0.52-3.1,3
		c0.18,6.41,0.06,12.82,0.06,19.24c0,12.94,0.06,25.88-0.06,38.82c-0.02,2.42,0.64,3.24,3.06,3.04c2.5-0.2,5.05-0.21,7.55,0
		c2.52,0.22,3.33-0.53,3.28-3.17C1332.26,345.24,1332.36,335.73,1332.36,326.23z M350.37,85.88c-3.21,0-6.42,0.09-9.62-0.03
		c-1.88-0.07-2.64,0.45-2.58,2.47c0.14,4.46,0.11,8.94,0.01,13.4c-0.04,1.86,0.41,2.66,2.47,2.63c6.53-0.11,13.06-0.09,19.59-0.01
		c1.76,0.02,2.42-0.52,2.38-2.35c-0.11-4.58-0.14-9.17,0.01-13.74c0.07-2.13-0.86-2.44-2.64-2.39
		C356.78,85.95,353.57,85.88,350.37,85.88z M1317.22,275.68c-0.1,5.06,2.99,8.46,7.77,8.54c4.78,0.08,8.04-3.04,8.15-7.79
		c0.12-5.15-2.86-8.58-7.57-8.73C1320.67,267.56,1317.31,270.76,1317.22,275.68z M878.93,275.97c-0.01-5.06-3.17-8.3-8.03-8.27
		c-4.8,0.04-7.93,3.39-7.89,8.44c0.04,4.82,3.19,8.04,7.89,8.08C875.77,284.27,878.94,281,878.93,275.97z M781.89,276.06
		c0.01-5.07-3.12-8.35-7.95-8.35c-4.83,0-7.99,3.31-7.98,8.35c0.01,4.84,3.12,8.1,7.81,8.17
		C778.67,284.3,781.88,281.07,781.89,276.06z M541.71,275.95c-0.02-5.04-3.19-8.28-8.06-8.24c-4.79,0.05-7.91,3.41-7.86,8.47
		c0.05,4.81,3.21,8.03,7.92,8.05C538.57,284.25,541.73,280.98,541.71,275.95z"/>
	<path class="st1" d="M145.14,240.1c-1.1,3.67-2,6.71-2.93,9.73c-0.88,2.86-2.69,4.28-5.83,4.26c-12.96-0.08-25.92-0.06-38.88-0.01
		c-2.95,0.01-4.74-1.27-5.58-4.06c-0.92-3.05-1.89-6.08-2.95-9.46c-2.65,1.96-4.23,4.6-6.13,6.9c-5.77,6.97-11.45,14.03-17.13,21.08
		c-1.23,1.53-2.5,2.93-4.58,1.73c-1.91-1.1-1.34-2.88-0.86-4.59c6.64-23.69,13.24-47.38,19.89-71.07c0.65-2.33,0.94-4.61,0.8-7.08
		C78.88,150.6,80.5,114,91.5,78.33c2.84-9.22,6.5-18.12,12.81-25.64c8.04-9.59,17.48-9.59,25.46,0.08c7.16,8.67,10.93,19.01,14,29.6
		c6.43,22.14,9.05,44.84,9.83,67.82c0.45,13.07,0.32,26.12-0.73,39.16c-0.12,1.55,0.32,2.95,0.72,4.37
		c6.64,23.81,13.3,47.61,19.96,71.41c0.15,0.55,0.36,1.09,0.48,1.65c0.33,1.44,0.25,2.85-1.24,3.57c-1.53,0.74-2.82,0.25-3.92-1.11
		c-5.04-6.25-10.12-12.46-15.19-18.67C150.97,247.23,148.24,243.9,145.14,240.1z M117,70.89c-7.07,0.02-12.95,5.82-12.96,12.8
		c-0.02,6.99,5.85,12.77,12.96,12.77c7.14,0,12.95-5.74,12.95-12.77C129.95,76.69,124.07,70.87,117,70.89z"/>
	<path class="st2" d="M90.75,307.86c-0.17-4.99,0.29-14.11,2.86-23.02c1.18-4.1,2.87-7.96,5.47-11.38
		c9.25-12.18,26.97-11.93,35.84,0.54c5.87,8.26,7.68,17.83,8.08,27.63c0.76,18.92-0.85,37.75-3.06,56.53
		c-2.1,17.85-4.86,35.59-9.91,52.89c-1.79,6.15-3.74,12.29-7.61,17.55c-3.52,4.78-7.26,4.85-10.76,0.08
		c-4.92-6.7-7-14.63-9.05-22.47c-5.1-19.53-7.87-39.46-9.78-59.53C91.73,335.17,90.93,323.64,90.75,307.86z"/>
	<path class="st1" d="M1263.04,135.09c3.83-4.46,7.8-8.15,13.23-9.9c14.64-4.71,30.32,1.52,37.39,15.93
		c9.04,18.42,9.58,37.68,1.81,56.57c-7.23,17.58-27.86,24.8-43.86,16.35c-2.88-1.52-5.26-3.64-7.44-6c-1.12,0.5-0.61,1.42-0.61,2.1
		c-0.04,6.65,0.04,13.3-0.07,19.95c-0.03,1.93,0.42,2.87,2.47,3.25c3.02,0.56,7.04,0.15,8.73,2.31c1.78,2.28,0.39,6.17,0.55,9.35
		c0.04,0.8-0.07,1.61,0.02,2.41c0.23,1.87-0.37,2.59-2.41,2.57c-14.21-0.09-28.43-0.1-42.65,0.01c-2.26,0.02-2.82-0.81-2.57-2.79
		c0.08-0.68,0-1.37,0.02-2.06c0.07-3.2-0.96-7.13,0.53-9.4c1.53-2.34,5.85-1.8,8.95-2.47c1.61-0.35,2.26-1.02,2.25-2.75
		c-0.05-28.43-0.05-56.86,0-85.29c0-1.82-0.49-2.6-2.41-2.89c-3.49-0.53-8.12-0.33-10.05-2.46c-2.12-2.35-0.29-7.02-0.7-10.64
		c-0.36-3.14,0.83-3.81,3.79-3.75c9.51,0.19,19.03,0.18,28.54,0c2.62-0.05,3.44,0.92,3.52,3.29
		C1262.13,130.77,1262.15,132.81,1263.04,135.09z M1263.54,171.09c0,5.5,0.19,11-0.07,16.48c-0.16,3.29,1.28,5.42,3.64,7.26
		c9.71,7.54,23.08,3.88,26.71-7.76c3.56-11.44,3.28-23.06-1.19-34.28c-3.27-8.21-9.62-11.31-18.21-9.51
		c-7.22,1.51-10.88,6.01-10.88,13.39C1263.54,161.47,1263.54,166.28,1263.54,171.09z"/>
	<path class="st1" d="M1154.8,136.43c7.57-9.77,16.85-13.76,28.22-12.36c13.69,1.69,22.22,10.49,24.77,25.06
		c0.69,3.96,0.99,7.95,0.99,11.96c0.02,11.46,0.06,22.93-0.04,34.39c-0.02,2.11,0.57,3.05,2.71,3.43c2.9,0.53,6.69,0.19,8.41,2.26
		c1.84,2.22,0.53,5.94,0.6,9.01c0.1,5.22,0.03,5.22-5.21,5.22c-12.73,0-25.45-0.08-38.18,0.07c-2.64,0.03-3.4-0.73-3.16-3.26
		c0.22-2.27,0.34-4.63-0.02-6.86c-0.61-3.86,1.13-5.13,4.65-5.76c5.89-1.07,5.85-1.27,5.85-7.28c0-10.43,0.01-20.87-0.01-31.3
		c0-1.6-0.06-3.22-0.28-4.8c-0.83-5.87-2.85-11.09-9.3-12.65c-7.1-1.71-13.62-0.47-18.97,4.99c-0.92,0.94-1.03,1.94-1.03,3.11
		c0.01,14.79,0.04,29.58-0.03,44.37c-0.01,1.91,0.72,2.48,2.45,2.9c7.93,1.92,7.91,1.98,7.91,10.17c0,6.29,0,6.29-6.17,6.29
		c-12.27,0-24.54-0.11-36.8,0.08c-2.97,0.04-3.93-0.88-3.46-3.65c0.06-0.33,0-0.69,0.01-1.03c0.08-3.19-0.9-7.05,0.55-9.4
		c1.52-2.47,5.81-1.85,8.89-2.53c1.87-0.41,2.29-1.34,2.28-3.1c-0.04-30.04-0.05-60.08,0.01-90.11c0-2.05-0.71-2.85-2.66-3.11
		c-2.49-0.33-4.93-1.01-7.42-1.33c-2.03-0.26-3.05-0.92-2.9-3.24c0.22-3.2,0.12-6.42,0.03-9.63c-0.04-1.63,0.23-2.49,2.2-2.47
		c11.01,0.08,22.01,0.1,33.02-0.01c2.45-0.02,2.09,1.42,2.09,2.88c0,14.45,0,28.89,0,43.34
		C1154.8,133.23,1154.8,134.37,1154.8,136.43z"/>
	<path class="st1" d="M1481.11,134.3c0-10.23-0.03-19.84,0.03-29.45c0.01-1.79-1.11-2.02-2.38-2.25c-2.7-0.5-5.39-1.07-8.11-1.47
		c-1.8-0.26-2.53-1.05-2.45-2.94c0.14-3.32,0.12-6.65,0.01-9.97c-0.06-1.81,0.6-2.35,2.38-2.34c10.89,0.07,21.79,0.12,32.68-0.02
		c2.84-0.04,2.41,1.62,2.41,3.32c0,35.09,0.03,70.17-0.06,105.26c-0.01,2.85,0.55,4.16,3.67,4.71c8.12,1.42,8.08,1.61,8.08,9.93
		c0,6.34,0,6.34-6.18,6.34c-7.91,0-15.83-0.15-23.73,0.09c-2.65,0.08-3.36-0.96-3.61-3.19c-0.24-2.14-0.66-4.26-0.99-6.34
		c-1.23-0.41-1.51,0.57-1.93,1.13c-11.62,15.3-36.72,12.22-46.86-1.45c-5.51-7.42-8.36-15.76-9.13-24.8
		c-1.08-12.67-0.55-25.22,4.86-37.05c6.98-15.25,20.67-22.56,35.91-19.27C1470.96,125.64,1473.98,127.53,1481.11,134.3z
		 M1481.12,170.84c0-5.62-0.02-11.24,0.01-16.86c0.01-1.41-0.14-2.68-1.03-3.88c-4.14-5.59-9.68-7.8-16.5-7.02
		c-6.09,0.69-9.6,4.54-11.56,9.94c-4.04,11.11-4.35,22.53-1.09,33.77c3.52,12.12,18.06,15.52,27.3,6.81
		c1.9-1.79,3.06-3.75,2.94-6.59C1480.95,181.63,1481.12,176.23,1481.12,170.84z"/>
	<path class="st1" d="M511.35,137.95c6.93-9.28,15.19-14.22,26.2-14.1c14.94,0.16,25.03,8.76,27.48,23.59
		c0.73,4.43,0.94,8.88,0.97,13.35c0.05,11.58,0.07,23.16-0.03,34.74c-0.02,2.1,0.56,3.01,2.72,3.44c2.88,0.57,6.89,0.09,8.32,2.29
		c1.38,2.13,0.48,5.76,0.5,8.73c0.04,5.43,0.01,5.43-5.33,5.43c-12.73,0-25.45-0.05-38.18,0.05c-2.23,0.02-3.01-0.56-2.87-2.84
		c0.19-3.2,0.12-6.42,0.02-9.63c-0.06-1.69,0.55-2.38,2.21-2.78c2.64-0.64,6.39-0.26,7.62-2.33c1.27-2.14,0.5-5.54,0.5-8.39
		c0.03-9.63,0.01-19.26,0.01-28.89c0-0.57,0.02-1.15,0-1.72c-0.26-6.12-0.96-12.08-7.65-14.84c-6.69-2.76-15.51-0.77-20.33,4.36
		c-1.1,1.17-1.52,2.41-1.52,4c0.04,14.45,0.08,28.89-0.04,43.34c-0.02,2.28,0.87,2.84,2.84,3.31c6.88,1.64,6.86,1.72,6.86,8.71
		c0,7.65,0,7.65-7.57,7.65c-11.35,0-22.71-0.19-34.05,0.11c-3.68,0.09-4.51-1.1-4.16-4.39c0.35-3.29-1.17-7.23,0.56-9.75
		c1.68-2.44,5.86-1.8,8.94-2.53c1.59-0.38,2.29-0.99,2.28-2.74c-0.06-16.97-0.05-33.94-0.01-50.9c0-1.8-0.44-2.75-2.43-2.86
		c-1.58-0.09-3.13-0.62-4.7-0.94c-5.77-1.18-5.77-1.18-5.77-7.22c0-8.55,0-8.55,8.49-8.55c8.03,0,16.05,0.07,24.08-0.04
		c2.32-0.03,3.32,0.61,3.33,3.06C510.66,131.49,511.06,134.33,511.35,137.95z"/>
	<path class="st1" d="M957.29,137.94c5.25-6.96,11.06-11.8,18.98-13.37c19.87-3.94,34.14,7.27,35.34,27.9
		c0.82,14.08,0.26,28.19,0.3,42.29c0.01,2.56,0.46,3.78,3.34,4.31c8.25,1.54,8.22,1.72,8.22,10.14c0,6.19,0,6.19-6.3,6.19
		c-12.27,0-24.54-0.06-36.8,0.05c-2.43,0.02-3.53-0.38-3.29-3.13c0.27-3.07,0.13-6.19,0.03-9.28c-0.05-1.64,0.42-2.44,2.14-2.84
		c2.65-0.62,6.24-0.27,7.68-2.3c1.61-2.26,0.48-5.75,0.5-8.71c0.06-9.86,0.05-19.72,0-29.58c-0.01-2.05-0.2-4.12-0.54-6.14
		c-1.06-6.36-4.88-9.78-11.36-10.43c-3.83-0.39-7.57-0.1-11.04,1.67c-4.18,2.14-6.85,4.85-6.67,10.36
		c0.44,13.28,0.19,26.59,0.1,39.89c-0.02,2.37,0.39,3.6,3.08,4.17c6.64,1.41,6.6,1.6,6.6,8.54c0,7.72,0,7.72-7.84,7.72
		c-11.69,0-23.39-0.06-35.08,0.05c-2.28,0.02-2.99-0.65-2.85-2.89c0.18-2.97,0.18-5.97,0-8.94c-0.14-2.35,0.79-3.07,3.04-3.5
		c8.73-1.69,8.71-1.79,8.71-10.84c0-14.45-0.05-28.89,0.05-43.34c0.02-2.35-0.47-3.54-3.06-3.76c-2.61-0.22-5.16-1.03-7.75-1.47
		c-1.41-0.24-2.23-0.64-2.16-2.35c0.14-3.55,0.11-7.11,0.01-10.66c-0.05-1.74,0.71-2.11,2.26-2.1c10.32,0.04,20.64,0.06,30.95-0.01
		c1.95-0.01,2.6,0.76,2.66,2.63C956.66,131.2,956.99,134.15,957.29,137.94z"/>
	<path class="st1" d="M880.04,204.51c-5.99,7.84-13.24,11.82-22.31,12.67c-17.81,1.68-30.82-9.42-32.56-28.09
		c-1.31-14.07-0.4-28.18-0.51-42.28c-0.02-3-0.63-4.42-3.78-5.07c-6.21-1.28-6.16-1.49-6.16-7.79c0-8.4,0-8.4,8.3-8.4
		c7.57,0,15.14,0.1,22.7-0.06c2.64-0.06,3.51,0.6,3.49,3.4c-0.14,17.43-0.06,34.86-0.08,52.29c0,3.35,0.33,6.63,1.54,9.78
		c1.64,4.27,4.85,6.62,9.29,7.13c4.03,0.46,8-0.07,11.76-1.74c4.61-2.04,7.37-4.78,7.15-10.63c-0.48-13.17-0.2-26.37-0.11-39.55
		c0.02-2.39-0.43-3.58-3.11-4.17c-7.76-1.71-7.73-1.88-7.73-9.9c0-6.54,0-6.54,6.41-6.54c8.37,0,16.74,0.12,25.11-0.07
		c2.83-0.07,3.66,0.66,3.65,3.56c-0.12,21.79-0.02,43.57-0.12,65.36c-0.01,2.81,0.5,4.19,3.63,4.79c7.37,1.42,7.32,1.63,7.32,9.2
		c0,7.01,0,7.01-7.17,7.01c-7.57,0-15.14-0.07-22.7,0.05c-1.88,0.03-2.62-0.53-2.8-2.38C881.01,210.48,880.53,207.9,880.04,204.51z"
		/>
	<path class="st1" d="M780.54,206.63c-6.5,6.57-13.91,10.06-22.8,10.67c-13.89,0.96-25.66-6.09-29.24-17.89
		c-4.42-14.58,1.76-27,16.08-32.17c7.99-2.88,16.31-3.41,24.71-3.34c0.92,0.01,1.83,0,2.75,0c7.77,0,7.77,0,7.58-7.73
		c-0.27-10.89-7.35-16.2-18.96-14.21c-0.68,0.12-1.34,0.29-2.01,0.44c-5.88,1.31-6.57,1.8-7.11,7.72c-0.33,3.6-1.64,4.86-5.29,4.51
		c-3.86-0.37-7.79-0.16-11.68-0.05c-1.79,0.05-2.39-0.53-2.35-2.34c0.14-5.27,0.15-10.54,0.11-15.82c-0.01-1.43,0.44-2.29,1.67-3.03
		c15.49-9.35,31.88-12.53,49.36-6.81c13.62,4.45,20.55,14.43,20.57,28.74c0.02,13.07,0,26.14,0.01,39.21c0,5.13,0.01,5.21,5.05,5.82
		c2.09,0.25,3.04,0.99,2.82,3.25c-0.36,3.85,1.58,8.89-0.79,11.24c-1.89,1.86-6.95,0.55-10.61,0.58c-4.59,0.04-9.18-0.14-13.75,0.07
		c-2.48,0.12-3.82-0.62-4.35-3.08C781.93,210.63,781.26,208.93,780.54,206.63z M771.02,177.45c-9,0-11.36,0.45-14.53,2.79
		c-4.1,3.03-5.84,7.91-4.41,12.41c1.33,4.17,4.76,6.31,10.26,6.34c1.26,0.01,2.53,0.01,3.77-0.14c8.22-1.02,13.49-6.12,13.49-12.98
		C779.62,177.45,779.62,177.45,771.02,177.45z"/>
	<path class="st1" d="M1385.48,206.59c-6.55,6.72-14.1,10.43-23.1,10.69c-14.45,0.41-25.32-5.91-28.93-17.81
		c-4.43-14.57,1.73-27.01,16.01-32.22c6.54-2.39,13.36-3.07,20.24-3.33c2.4-0.09,4.81-0.01,7.22-0.01c7.81,0,7.8,0,7.63-7.67
		c-0.25-10.92-7.28-16.23-18.91-14.27c-0.79,0.13-1.57,0.31-2.35,0.49c-5.63,1.31-6.27,1.8-6.82,7.62c-0.33,3.5-1.49,4.96-5.24,4.56
		c-3.74-0.39-7.56-0.19-11.34-0.05c-2.03,0.07-2.84-0.42-2.76-2.64c0.19-5.15,0.17-10.31,0.13-15.47c-0.01-1.4,0.37-2.3,1.62-3.06
		c15.48-9.36,31.87-12.55,49.35-6.85c13.64,4.44,20.6,14.42,20.63,28.7c0.02,13.3,0.05,26.6-0.03,39.9
		c-0.02,3.34,0.72,5.53,4.69,5.21c2.39-0.19,3.45,0.92,3.24,3.51c-0.24,2.96-0.19,5.96-0.01,8.93c0.13,2.2-0.7,2.68-2.76,2.65
		c-7.45-0.11-14.91-0.18-22.35,0.03c-2.7,0.08-3.96-0.86-4.51-3.36C1386.77,210.46,1386.17,208.86,1385.48,206.59z M1384.55,184.39
		c0-1.26-0.15-2.54,0.03-3.78c0.37-2.62-0.67-3.37-3.23-3.22c-3.88,0.23-7.79,0-11.68,0.11c-4.06,0.12-7.65,1.5-10.32,4.67
		c-2.89,3.43-3.76,7.37-1.91,11.53c1.74,3.9,5.19,5.27,9.26,5.29c1.37,0.01,2.76,0.03,4.12-0.12
		C1379.68,197.91,1384.55,192.76,1384.55,184.39z"/>
	<path class="st1" d="M671.59,215.41c-14.1,0-28.21-0.07-42.31,0.07c-2.62,0.03-3.37-0.69-3.18-3.24c0.23-3.08,0.14-6.19,0.02-9.28
		c-0.07-1.75,0.6-2.43,2.28-2.67c2.72-0.38,5.4-1.03,8.11-1.45c1.62-0.25,2.29-0.94,2.29-2.7c-0.05-27.41-0.05-54.81,0-82.22
		c0-1.73-0.52-2.59-2.28-2.58c-0.22,0-0.45-0.09-0.67-0.15c-3.14-0.91-8.22-0.08-9.15-2.46c-1.48-3.79-0.53-8.55-0.51-12.9
		c0.01-2.11,1.75-1.4,2.83-1.4c9.98-0.05,19.95-0.03,29.93-0.03c4.7,0,9.41,0.1,14.1-0.05c2.28-0.07,3.36,0.42,3.2,2.98
		c-0.2,3.08-0.14,6.19-0.01,9.28c0.08,1.91-0.4,2.91-2.51,3.15c-2.49,0.28-4.92,1.16-7.41,1.4c-2.5,0.23-3.07,1.3-3.05,3.72
		c0.1,23.28,0.06,46.56,0.06,69.83c0,2.98,0.14,5.97-0.04,8.94c-0.14,2.33,0.5,3.17,2.99,3.13c9.4-0.15,18.81-0.12,28.21-0.01
		c2.01,0.02,2.88-0.45,2.94-2.58c0.09-3.32,0.52-6.62,0.71-9.94c0.11-1.9,0.66-2.82,2.86-2.73c4.46,0.19,8.95,0.2,13.41,0
		c2.42-0.11,2.78,0.86,2.76,2.96c-0.09,9.4-0.13,18.81,0.02,28.21c0.04,2.37-0.78,2.79-2.92,2.77
		C700.03,215.37,685.81,215.41,671.59,215.41z"/>
	<path class="st1" d="M272.36,215.41c-14.1,0-28.21-0.05-42.31,0.05c-2.31,0.02-3.37-0.43-3.09-2.96c0.22-2.04,0.04-4.12,0.04-6.19
		c0-5.66,0-5.66,5.7-6.67c6.91-1.23,6.91-1.23,6.91-8.06c0-25.46-0.05-50.91,0.07-76.37c0.01-2.72-0.7-3.84-3.39-4.2
		c-3.03-0.41-7.06-0.31-8.72-2.16c-1.86-2.08-0.5-6.13-0.55-9.32c-0.08-5.14-0.02-5.14,4.99-5.14c13.99,0,27.98,0.05,41.97-0.05
		c2.38-0.02,3.26,0.61,3.11,3.06c-0.19,3.2-0.1,6.42-0.02,9.63c0.04,1.65-0.45,2.43-2.24,2.67c-2.83,0.37-5.59,1.25-8.41,1.63
		c-1.74,0.23-2.28,0.86-2.28,2.59c0.04,26.83,0.05,53.67,0,80.5c0,1.8,0.58,2.35,2.37,2.34c9.75-0.07,19.49-0.08,29.24,0
		c1.79,0.01,2.39-0.57,2.47-2.31c0.17-3.55,0.54-7.08,0.79-10.62c0.11-1.64,0.75-2.34,2.56-2.29c4.7,0.13,9.4,0.12,14.1,0.01
		c1.8-0.04,2.34,0.52,2.33,2.33c-0.08,9.75-0.14,19.5,0.03,29.24c0.04,2.63-1.38,2.31-3,2.31
		C300.79,215.4,286.57,215.41,272.36,215.41z"/>
	<path class="st1" d="M467.18,170.09c0.16,8.55-0.93,16.36-4.32,23.64c-8.23,17.68-22.33,23.92-39.56,23.53
		c-27.76-0.63-40.6-21.41-41.04-44.37c-0.15-7.96,0.54-15.79,3.44-23.29c7.19-18.61,24.85-28.18,45.65-25.47
		c21.92,2.86,32.93,19.53,35.25,36.57C467.04,164,467.39,167.3,467.18,170.09z M442.82,170.62c0.06-6.7-0.68-13.23-3.78-19.32
		c-3.02-5.95-8.04-8.64-14.48-8.62c-6.33,0.02-11.51,2.62-14.06,8.62c-5.45,12.81-5.48,25.82-0.02,38.62
		c2.61,6.13,7.96,8.55,14.45,8.52c6.38-0.03,11.19-2.69,14.15-8.5C442.19,183.85,442.83,177.3,442.82,170.62z"/>
	<path class="st1" d="M1108.12,148.3c0,3.21-0.12,6.43,0.04,9.63c0.1,2.02-0.65,2.51-2.55,2.46c-4.93-0.12-9.86-0.11-14.79,0
		c-1.76,0.04-2.7-0.38-3.07-2.26c-0.43-2.24-1.22-4.41-1.84-6.61c-1.83-6.48-5.67-9.17-12.49-8.88
		c-7.84,0.33-13.41,3.88-15.67,11.54c-3.59,12.19-3.99,24.46,1.25,36.28c4.02,9.07,17.71,10.94,24.5,3.75
		c1.29-1.36,2.65-2.92,2.67-4.7c0.06-5.08,3.06-5.28,6.97-5.03c4.34,0.28,8.72,0.22,13.07,0.01c2.61-0.13,3.32,0.68,3.19,3.28
		c-0.59,11.67-8.92,22.68-21.45,26.87c-23.24,7.78-51.85-0.44-56.43-34.07c-1.44-10.55-1.19-21.09,2.83-31.15
		c5.75-14.37,16.13-23.05,31.72-25c12.74-1.59,24.87-0.01,36,6.94c4.2,2.62,6.96,5.71,5.97,11.1c-0.35,1.88-0.06,3.89-0.06,5.84
		C1108.04,148.3,1108.08,148.3,1108.12,148.3z"/>
	<path class="st2" d="M1129.45,358.55c-22.86,0-40.72-14.53-44.28-35.58c-3.95-23.33,11.19-44.81,34.56-49.01
		c22.17-3.99,42.66,6.39,50.66,25.65c10.44,25.15-5.59,53.77-32.6,58.28C1134.83,358.38,1131.88,358.69,1129.45,358.55z
		 M1129.32,286.08c-16.46-0.12-30,12.99-30.25,29.3c-0.26,16.48,13.4,30.26,30.04,30.31c16.29,0.05,29.67-13.31,29.8-29.75
		C1159.03,299.57,1145.79,286.2,1129.32,286.08z"/>
	<path class="st2" d="M1021.88,344.96c-8.31,10.09-18.56,11.87-29.89,8.81c-11.42-3.08-17.31-11.37-19.5-22.56
		c-1.32-6.75-0.85-13.44,1.39-19.98c7.49-21.93,36.39-22.58,46.15-10.09c0.41,0.53,0.86,1.02,1.97,2.33c0-3.18,0.06-5.4-0.02-7.61
		c-0.05-1.46,0.44-2.05,1.96-2.02c3.32,0.08,6.65,0.08,9.97,0c1.6-0.04,1.87,0.74,1.87,2.1c-0.04,19.83,0.25,39.66-0.18,59.48
		c-0.26,11.96-8.69,21.69-20.73,24.93c-12.89,3.48-25.15,1.66-36.71-5.14c-2.12-1.24-2.37-2.24-0.98-4.21
		c1.57-2.24,2.3-5.81,4.35-6.78c2.17-1.03,4.51,2.2,6.93,3.29c6.27,2.83,12.74,3.69,19.43,2.19c8.18-1.83,13.19-7.46,13.97-15.74
		C1022.1,351.17,1021.88,348.32,1021.88,344.96z M1021.97,324.29c0.04-11.49-8-20.12-18.61-19.98
		c-10.51,0.14-18.42,8.63-18.51,19.87c-0.09,11.36,7.94,19.9,18.7,19.9C1014.11,344.09,1021.93,335.69,1021.97,324.29z"/>
	<path class="st2" d="M322.08,348.71c0,9.83-0.07,19.66,0.05,29.49c0.03,2.32-0.47,3.32-2.99,3.11c-2.62-0.22-5.28-0.22-7.9,0
		c-2.53,0.21-2.99-0.81-2.98-3.12c0.07-27.16,0.07-54.31,0-81.47c-0.01-2.19,0.51-3.08,2.83-2.91c2.74,0.19,5.51,0.21,8.24,0
		c2.41-0.18,2.92,0.85,2.77,2.97c-0.15,2.05-0.03,4.12-0.03,6.13c0.8,0.51,1.13-0.11,1.42-0.52c10.02-14.17,39.5-13.07,48.26,8.43
		c5.47,13.42,2.95,30.45-6.03,39.61c-10.44,10.66-32.76,11.54-42.14-1.02c-0.27-0.36-0.46-0.78-0.69-1.17
		C322.62,348.4,322.35,348.55,322.08,348.71z M341.33,304.8c-11.06,0.01-19.15,8.72-19.23,20.71c-0.08,12.35,8.12,21.33,19.41,21.25
		c11.05-0.08,19.17-9.13,19.08-21.26C360.51,313.55,352.35,304.79,341.33,304.8z"/>
	<path class="st2" d="M1202.83,303.52c3.77-5.01,8.52-8.32,14.54-9.68c18.74-4.23,35.6,8.03,37.17,27.22
		c0.69,8.44-0.12,16.57-4.57,24.2c-9.53,16.37-36.21,17.7-46.16,4.2c-0.27-0.37-0.55-0.72-0.97-1.28c-0.92,1.42-0.53,2.69-0.54,3.86
		c-0.04,8.59-0.16,17.19,0.05,25.78c0.07,2.97-0.86,3.76-3.65,3.51c-2.61-0.24-5.27-0.15-7.9-0.02c-1.84,0.09-2.32-0.6-2.32-2.37
		c0.05-27.61,0.04-55.23,0.01-82.84c0-1.54,0.34-2.45,2.07-2.22c0.11,0.01,0.23,0,0.34,0c3.44,0.02,7.39-1.03,10.17,0.33
		C1204.23,295.71,1201.23,300.18,1202.83,303.52z M1240.8,325.49c-0.07-9.49-5.57-17.58-13.51-19.87
		c-10.05-2.9-19.81,1.89-23.45,11.5c-4.06,10.71,0.15,23.29,9.27,27.7C1226.6,351.34,1240.92,341.35,1240.8,325.49z"/>
	<path class="st1" d="M362.58,162.05c0,11.12,0.06,22.25-0.05,33.37c-0.02,2.3,0.72,3.12,2.96,3.55c8.81,1.72,8.79,1.8,8.79,10.75
		c0,5.69,0,5.69-5.8,5.69c-12.73,0-25.46-0.13-38.18,0.09c-3.32,0.06-4.26-1.05-3.79-4.03c0.02-0.11,0-0.23,0-0.34
		c0.07-3.31-0.94-7.26,0.52-9.76c1.44-2.45,5.81-1.82,8.9-2.51c1.86-0.42,2.31-1.33,2.31-3.1c-0.05-16.86-0.05-33.71,0-50.57
		c0.01-1.8-0.45-2.65-2.42-2.87c-2.83-0.32-5.61-1.12-8.43-1.58c-1.62-0.26-2.35-0.9-2.29-2.67c0.12-3.44,0.09-6.88,0.01-10.32
		c-0.04-1.61,0.54-2.23,2.18-2.23c11.01,0.05,22.02,0.07,33.02-0.01c2.23-0.02,2.28,1.16,2.28,2.82
		C362.56,139.58,362.58,150.81,362.58,162.05z"/>
	<path class="st2" d="M260.13,273.19c10.49-0.06,19.32,2.39,27.69,6.8c2.19,1.15,3.11,2.27,1.6,4.73c-1.37,2.23-2.37,4.7-3.37,7.14
		c-0.85,2.05-1.81,2.41-3.85,1.27c-7.3-4.08-15.04-6.74-23.57-6.38c-2.3,0.1-4.57,0.33-6.71,1.25c-6.14,2.63-7.36,9.36-2.52,13.96
		c2.2,2.09,4.9,3.33,7.72,4.37c6.66,2.46,13.59,4.11,20.13,6.9c18.44,7.87,17,27.08,9.07,35.75c-5.58,6.1-12.94,8.61-20.85,9.36
		c-14.07,1.33-26.74-2.41-37.9-11.22c-1.69-1.33-2.03-2.37-0.93-4.24c1.45-2.46,2.74-5.04,3.85-7.67c0.9-2.13,1.6-2.11,3.35-0.67
		c8.1,6.65,17.17,10.92,27.96,10.49c1.14-0.05,2.29-0.09,3.43-0.24c5.7-0.72,9.84-3.99,10.6-8.33c0.78-4.48-1.8-8.54-7.32-11.21
		c-5.6-2.7-11.73-3.87-17.57-5.87c-3.37-1.15-6.69-2.36-9.79-4.15c-7.59-4.39-11.02-10.97-10.61-19.71
		c0.38-8.06,4.26-13.88,11.09-17.81C247.63,274.25,254.25,273.09,260.13,273.19z"/>
	<path class="st2" d="M420.88,331.03c-6.99,0-13.98,0.14-20.97-0.06c-3.14-0.09-3.06,1.02-2.19,3.37
		c4.25,11.51,16.99,16.24,29.08,10.72c2.2-1,4.33-2.19,5.98-3.96c1.31-1.41,2.19-1.17,3.25,0.22c0.76,1,1.72,1.83,2.58,2.76
		c3.74,4.02,3.74,4.02-0.55,7.34c-14.54,11.26-37.94,9.5-48.47-4.2c-8.74-11.37-9.38-24.26-3.47-36.99
		c5.52-11.88,15.88-16.82,28.72-17.05c5.59-0.1,10.98,0.68,15.98,3.24c8.26,4.22,12.08,11.53,13.67,20.27
		c0.68,3.73,0.63,7.51,0.76,11.29c0.1,2.78-1.02,3.17-3.41,3.13C434.86,330.94,427.87,331.03,420.88,331.03z M414.65,320.8
		c5.04,0,10.08-0.07,15.12,0.03c2.27,0.05,3.29-0.21,2.69-3.01c-1.8-8.45-8.1-13.55-17.28-13.53c-9.05,0.01-16.5,5.78-18.1,13.9
		c-0.37,1.88-0.02,2.7,2.11,2.65C404.34,320.72,409.5,320.79,414.65,320.8z"/>
	<path class="st2" d="M599.06,351.36c-8,7.3-17.54,8.59-27.56,6.35c-14.4-3.21-20.41-20.08-11.16-30.96
		c4.81-5.66,11.61-7.05,18.63-7.3c5.95-0.21,11.92-0.12,17.88,0c2.11,0.04,2.75-0.58,2.64-2.74c-0.46-8.99-7.14-12.57-16.17-12.24
		c-5.77,0.21-10.96,2.3-15.74,5.37c-1.65,1.06-2.46,1.02-3.33-0.81c-0.98-2.06-2.18-4.03-3.41-5.96c-0.86-1.35-0.74-2.13,0.7-3
		c11.36-6.83,23.51-8.88,36.31-5.54c9.56,2.5,15.18,10.09,15.29,20c0.15,13.52,0.06,27.05,0.16,40.57c0.02,2-0.42,3.04-2.63,2.77
		c-1.13-0.14-2.29-0.01-3.44-0.03c-2.29-0.02-4.87,0.6-6.79-0.26C598.09,356.55,600.4,353.43,599.06,351.36z M581.46,347.55
		c3.61,0.09,7.05-0.64,10.29-2.22c5.83-2.84,8.24-7.1,7.78-13.57c-0.07-1.05,0.05-2.15-1.5-2.1c-7.54,0.24-15.14-0.8-22.6,0.8
		c-5.14,1.1-7.37,5.52-5.67,10.54C571.2,345.26,575.25,347.52,581.46,347.55z"/>
	<path class="st2" d="M1379.33,358.55c-14.77,0-26.21-7.25-30.98-19.61c-5.15-13.34-2.22-28.92,7.95-37.62
		c11.49-9.83,24.91-10.68,38.38-5.12c12.67,5.24,18.17,15.79,18.19,29.29C1412.91,345.63,1399.76,358.56,1379.33,358.55z
		 M1379.38,346.92c11.4,0.06,19.56-8.45,19.7-20.56c0.15-12.24-8.05-21.33-19.28-21.39c-11.53-0.06-19.74,8.53-19.89,20.8
		C1359.76,337.99,1367.92,346.86,1379.38,346.92z"/>
	<path class="st2" d="M1441.09,305.05c8.19-11.85,19.28-13.56,31.44-10.89c9.62,2.12,15.8,10.33,15.98,20.69
		c0.23,13.52,0.03,27.05,0.11,40.58c0.01,2.02-0.68,2.56-2.57,2.47c-2.86-0.13-5.74-0.17-8.59,0.01c-2.16,0.14-2.7-0.63-2.68-2.72
		c0.1-10.2,0.05-20.4,0.04-30.61c0-11.94-5.01-18.19-14.68-18.33c-10.94-0.17-18.81,7.44-19,18.68c-0.17,9.97-0.11,19.95,0.02,29.92
		c0.03,2.39-0.59,3.3-3.04,3.05c-3.49-0.36-8.18,1.48-10.18-0.78c-1.73-1.96-0.59-6.53-0.59-9.95c-0.03-16.51,0.09-33.02-0.1-49.52
		c-0.04-3.29,1-4.12,4.02-3.84c2.5,0.24,5.05,0.15,7.56,0.02c1.86-0.1,2.38,0.63,2.3,2.38
		C1441.01,298.9,1441.09,301.6,1441.09,305.05z"/>
	<path class="st2" d="M911.87,305.16c7.54-11.27,17.86-13.32,29.27-11.45c11.25,1.84,18.04,10.16,18.18,21.67
		c0.16,13.3-0.01,26.6,0.09,39.89c0.02,2.22-0.74,2.74-2.77,2.63c-3.53-0.2-8.14,1.12-10.3-0.64c-2.28-1.86-0.66-6.65-0.71-10.16
		c-0.11-8.02,0-16.05-0.04-24.07c-0.05-9.62-4.07-15.09-12.12-16.59c-8.68-1.62-17.06,3.06-20.1,11.32
		c-0.99,2.69-1.53,5.48-1.52,8.4c0.06,9.63-0.04,19.26,0.07,28.89c0.03,2.25-0.61,3.03-2.88,2.87c-2.62-0.18-5.28-0.2-7.9,0
		c-2.38,0.18-3.12-0.55-3.09-3.01c0.13-12.38,0.06-24.76,0.06-37.14c0-6.99,0.07-13.99-0.04-20.98c-0.03-2.12,0.37-3.14,2.78-2.97
		c2.85,0.21,5.73,0.17,8.59,0.01c2.03-0.11,2.56,0.68,2.47,2.57C911.77,299,911.87,301.62,911.87,305.16z"/>
	<path class="st2" d="M485.91,358.55c-14.92,0-25.95-7.29-30.45-20.13c-5.07-14.47-1-30.3,10.04-39c11.82-9.32,34.39-8.13,45.02,2.3
		c1.36,1.33,1.69,2.33,0.16,3.61c-0.17,0.14-0.29,0.35-0.44,0.53c-1.69,2.02-3.01,4.89-5.17,5.85c-2.5,1.11-4.13-2.33-6.34-3.48
		c-8.92-4.69-20.37-3.55-26.14,2.92c-6.5,7.29-7.02,20.05-1.15,28.16c5.46,7.56,17.64,9.59,27.17,4.51
		c1.21-0.64,2.59-1.26,3.41-2.28c2.52-3.12,4.45-2.07,6.34,0.55c0.07,0.09,0.16,0.16,0.24,0.24c5,5,4.99,5.05-0.78,9.52
		C502.08,356.33,494.79,358.55,485.91,358.55z"/>
	<path class="st2" d="M704.03,315.9c0-12.95,0.08-25.9-0.06-38.85c-0.03-2.61,0.69-3.42,3.26-3.2c2.62,0.22,5.29,0.24,7.9,0
		c2.73-0.26,3.19,0.89,3.18,3.33c-0.09,19.6-0.05,39.19-0.05,58.79c0,1.95,0.14,3.91-0.03,5.84c-0.21,2.38,0.62,3.16,3.06,3.13
		c9.97-0.12,19.94,0.06,29.91-0.12c2.95-0.05,3.89,0.93,3.57,3.72c-0.35,3.04,1.34,7.1-0.75,8.87c-1.77,1.5-5.68,0.54-8.65,0.55
		c-12.72,0.03-25.44-0.06-38.16,0.08c-2.62,0.03-3.24-0.74-3.21-3.28C704.1,341.8,704.03,328.85,704.03,315.9z"/>
	<path class="st2" d="M822.9,343.91c4.18-12.01,8.01-23.01,11.84-34.02c1.58-4.54,3.25-9.05,4.68-13.63
		c0.58-1.87,1.48-2.51,3.42-2.43c3.65,0.15,7.31,0.04,11.44,0.04c-2.05,5.47-3.95,10.58-5.89,15.68
		c-5.76,15.07-11.59,30.12-17.25,45.23c-0.91,2.43-2.1,3.4-4.72,3.15c-3.63-0.36-8.16,1.36-10.7-0.64
		c-2.49-1.97-3.06-6.42-4.38-9.81c-6.5-16.75-12.93-33.53-19.48-50.26c-0.91-2.34-1.33-3.75,2.07-3.38
		c3.73,0.4,8.36-1.47,10.99,0.72c2.44,2.02,2.87,6.52,4.09,9.96C813.56,317.33,818.07,330.17,822.9,343.91z"/>
	<path class="st2" d="M1271.8,325.79c0-5.38-0.09-10.77,0.04-16.15c0.05-2.05-0.47-2.75-2.65-2.76c-6.46-0.02-6.31-0.13-6.5-6.75
		c-0.08-2.87,0.75-3.7,3.61-3.59c5.5,0.21,5.51,0.04,5.51-5.57c0-3.21,0.08-6.42-0.03-9.62c-0.06-1.75,0.48-2.62,2.32-2.39
		c0.11,0.01,0.23-0.01,0.34,0c3.62,0.27,8.35-1.56,10.55,0.78c1.75,1.85,0.56,6.53,0.58,9.95c0.04,6.93,0.01,6.93,6.98,6.93
		c3.21,0,6.42-0.02,9.62,0.02c0.85,0.01,2.19-0.37,2.27,0.86c0.19,2.85,0.19,5.72,0,8.57c-0.08,1.23-1.43,0.86-2.27,0.86
		c-4.58,0.03-9.17,0.13-13.75-0.03c-2.22-0.08-2.93,0.57-2.9,2.85c0.13,9.05,0,18.1,0.07,27.15c0.05,8.03,3.46,10.52,11.2,8.41
		c1.73-0.47,3.6-2.31,5.02-1.48c1.69,0.99,1.63,3.62,2.3,5.54c1.73,4.97,1.71,5.06-3.33,7c-7.21,2.77-14.49,3.71-21.48-0.5
		c-5.28-3.18-7.28-8.36-7.45-14.27C1271.68,336.33,1271.8,331.06,1271.8,325.79z"/>
	<path class="st2" d="M632.46,313.43c0-13.63,0.1-27.27-0.08-40.9c-0.04-2.97,0.88-3.75,3.66-3.5c2.61,0.24,5.27,0.15,7.9,0.02
		c1.85-0.09,2.32,0.61,2.31,2.37c-0.04,28.07-0.05,56.13,0,84.2c0,1.89-0.7,2.34-2.41,2.27c-3.64-0.16-8.29,1.13-10.65-0.65
		c-2.29-1.72-0.67-6.63-0.7-10.13C632.4,335.88,632.46,324.66,632.46,313.43z"/>
	<path class="st2" d="M540.93,325.95c0,9.73-0.05,19.47,0.04,29.2c0.02,2.02-0.41,2.91-2.63,2.76c-2.85-0.19-5.73-0.19-8.58,0
		c-2.23,0.15-2.64-0.75-2.63-2.76c0.06-19.58,0.08-39.16-0.01-58.74c-0.01-2.28,0.86-2.67,2.82-2.58c2.74,0.13,5.51,0.19,8.24-0.01
		c2.36-0.17,2.83,0.79,2.81,2.94C540.87,306.48,540.93,316.22,540.93,325.95z"/>
	<path class="st2" d="M781.11,325.86c0,9.73-0.07,19.47,0.05,29.2c0.03,2.29-0.68,2.99-2.9,2.84c-2.62-0.18-5.28-0.2-7.9,0
		c-2.39,0.18-3.11-0.57-3.08-3.02c0.13-12.02,0.06-24.05,0.06-36.07c0-7.44,0.08-14.89-0.05-22.33c-0.04-2.16,0.64-2.85,2.73-2.65
		c3.6,0.35,8.32-1.53,10.51,0.79c1.74,1.85,0.55,6.52,0.57,9.93C781.14,311.66,781.11,318.76,781.11,325.86z"/>
	<path class="st2" d="M878.15,326.22c0,9.5-0.1,19.01,0.07,28.51c0.05,2.64-0.74,3.4-3.27,3.18c-2.5-0.22-5.05-0.2-7.55,0
		c-2.41,0.2-3.09-0.6-3.07-3.03c0.12-12.71,0.06-25.42,0.06-38.13c0-6.64,0.11-13.29-0.06-19.92c-0.06-2.47,0.72-3.24,3.09-2.99
		c3.48,0.36,8.17-1.5,10.15,0.79c1.73,1.99,0.55,6.54,0.57,9.95C878.17,311.79,878.15,319.01,878.15,326.22z"/>
	<path class="st2" d="M1332.36,326.23c0,9.5-0.1,19.01,0.07,28.51c0.05,2.65-0.76,3.39-3.28,3.17c-2.5-0.21-5.05-0.21-7.55,0
		c-2.42,0.2-3.08-0.62-3.06-3.04c0.12-12.94,0.06-25.88,0.06-38.82c0-6.41,0.12-12.83-0.06-19.24c-0.07-2.48,0.74-3.17,3.1-3
		c3.41,0.24,7.96-1.11,9.96,0.61c2.3,1.98,0.68,6.66,0.73,10.15C1332.44,311.8,1332.36,319.01,1332.36,326.23z"/>
	<path class="st1" d="M350.37,85.88c3.21,0,6.42,0.07,9.62-0.03c1.78-0.06,2.71,0.25,2.64,2.39c-0.16,4.58-0.12,9.16-0.01,13.74
		c0.04,1.83-0.62,2.37-2.38,2.35c-6.53-0.07-13.06-0.1-19.59,0.01c-2.05,0.04-2.51-0.77-2.47-2.63c0.1-4.47,0.13-8.94-0.01-13.4
		c-0.06-2.02,0.7-2.54,2.58-2.47C343.95,85.97,347.16,85.88,350.37,85.88z"/>
	<path class="st2" d="M1317.22,275.68c0.1-4.92,3.45-8.12,8.36-7.97c4.71,0.15,7.68,3.58,7.57,8.73c-0.11,4.75-3.37,7.87-8.15,7.79
		C1320.21,284.14,1317.12,280.75,1317.22,275.68z"/>
	<path class="st2" d="M878.93,275.97c0.01,5.03-3.16,8.29-8.03,8.25c-4.7-0.04-7.85-3.26-7.89-8.08c-0.04-5.05,3.09-8.4,7.89-8.44
		C875.76,267.67,878.92,270.92,878.93,275.97z"/>
	<path class="st2" d="M781.89,276.06c-0.01,5.01-3.22,8.24-8.12,8.17c-4.68-0.07-7.79-3.32-7.81-8.17
		c-0.01-5.04,3.15-8.35,7.98-8.35C778.78,267.71,781.9,270.99,781.89,276.06z"/>
	<path class="st2" d="M541.71,275.95c0.02,5.04-3.14,8.31-8,8.28c-4.71-0.03-7.88-3.24-7.92-8.05c-0.05-5.06,3.07-8.42,7.86-8.47
		C538.52,267.66,541.69,270.9,541.71,275.95z"/>
	<path class="st0" d="M117,70.89c7.07-0.02,12.95,5.8,12.95,12.8c0,7.03-5.82,12.77-12.95,12.77c-7.11,0-12.98-5.77-12.96-12.77
		C104.05,76.7,109.93,70.9,117,70.89z"/>
	<path class="st0" d="M1263.54,171.09c0-4.81,0-9.62,0-14.43c0-7.38,3.66-11.88,10.88-13.39c8.59-1.79,14.94,1.31,18.21,9.51
		c4.47,11.22,4.75,22.85,1.19,34.28c-3.62,11.64-17,15.3-26.71,7.76c-2.36-1.83-3.79-3.97-3.64-7.26
		C1263.73,182.09,1263.54,176.59,1263.54,171.09z"/>
	<path class="st0" d="M1481.12,170.84c0,5.39-0.16,10.79,0.07,16.17c0.12,2.85-1.03,4.8-2.94,6.59c-9.24,8.71-23.78,5.31-27.3-6.81
		c-3.26-11.24-2.94-22.66,1.09-33.77c1.96-5.4,5.47-9.24,11.56-9.94c6.82-0.78,12.36,1.44,16.5,7.02c0.89,1.2,1.04,2.47,1.03,3.88
		C1481.1,159.6,1481.12,165.22,1481.12,170.84z"/>
	<path class="st0" d="M771.02,177.45c8.6,0,8.6,0,8.6,8.42c0,6.87-5.27,11.96-13.49,12.98c-1.24,0.15-2.52,0.15-3.77,0.14
		c-5.5-0.03-8.94-2.17-10.26-6.34c-1.43-4.5,0.3-9.38,4.41-12.41C759.65,177.9,762.02,177.45,771.02,177.45z"/>
	<path class="st0" d="M1384.55,184.39c0,8.37-4.86,13.51-13.74,14.48c-1.36,0.15-2.75,0.13-4.12,0.12
		c-4.07-0.03-7.52-1.39-9.26-5.29c-1.85-4.16-0.98-8.09,1.91-11.53c2.67-3.17,6.26-4.55,10.32-4.67c3.89-0.11,7.8,0.12,11.68-0.11
		c2.57-0.15,3.6,0.6,3.23,3.22C1384.4,181.85,1384.55,183.13,1384.55,184.39z"/>
	<path class="st0" d="M442.82,170.62c0.01,6.69-0.63,13.23-3.74,19.33c-2.96,5.81-7.78,8.47-14.15,8.5
		c-6.49,0.03-11.84-2.39-14.45-8.52c-5.46-12.8-5.43-25.82,0.02-38.62c2.55-6,7.74-8.6,14.06-8.62c6.44-0.02,11.45,2.67,14.48,8.62
		C442.14,157.39,442.88,163.92,442.82,170.62z"/>
	<path class="st0" d="M1129.32,286.08c16.47,0.12,29.72,13.49,29.59,29.86c-0.13,16.44-13.51,29.8-29.8,29.75
		c-16.64-0.05-30.3-13.83-30.04-30.31C1099.32,299.07,1112.85,285.96,1129.32,286.08z"/>
	<path class="st0" d="M1021.97,324.29c-0.04,11.4-7.86,19.8-18.43,19.8c-10.76-0.01-18.78-8.55-18.7-19.9
		c0.09-11.24,7.99-19.73,18.51-19.87C1013.98,304.17,1022.02,312.8,1021.97,324.29z"/>
	<path class="st0" d="M341.33,304.8c11.02-0.01,19.18,8.75,19.26,20.69c0.09,12.14-8.03,21.19-19.08,21.26
		c-11.29,0.08-19.49-8.9-19.41-21.25C322.18,313.52,330.27,304.81,341.33,304.8z"/>
	<path class="st0" d="M1240.8,325.49c0.12,15.87-14.2,25.86-27.7,19.33c-9.12-4.41-13.32-16.99-9.27-27.7
		c3.64-9.61,13.4-14.4,23.45-11.5C1235.23,307.9,1240.73,315.99,1240.8,325.49z"/>
	<path class="st0" d="M414.65,320.79c-5.15,0-10.31-0.08-15.46,0.04c-2.13,0.05-2.48-0.77-2.11-2.65c1.59-8.12,9.05-13.88,18.1-13.9
		c9.18-0.01,15.48,5.08,17.28,13.53c0.6,2.8-0.42,3.06-2.69,3.01C424.73,320.72,419.69,320.8,414.65,320.79z"/>
	<path class="st0" d="M581.45,347.54c-6.21-0.02-10.25-2.28-11.7-6.54c-1.7-5.02,0.53-9.44,5.67-10.54c7.46-1.6,15.06-0.56,22.6-0.8
		c1.56-0.05,1.43,1.05,1.5,2.1c0.46,6.47-1.95,10.72-7.78,13.57C588.5,346.91,585.06,347.64,581.45,347.54z"/>
	<path class="st0" d="M1379.38,346.92c-11.46-0.06-19.63-8.93-19.47-21.15c0.15-12.27,8.37-20.86,19.89-20.8
		c11.24,0.06,19.43,9.14,19.28,21.39C1398.94,338.47,1390.79,346.98,1379.38,346.92z"/>
</g>
</svg>
