<?xml version="1.0" encoding="utf-8"?>
<!-- Generator: Adobe Illustrator 23.0.2, SVG Export Plug-In . SVG Version: 6.00 Build 0)  -->
<svg version="1.1" id="Layer_1" xmlns="http://www.w3.org/2000/svg" xmlns:xlink="http://www.w3.org/1999/xlink" x="0px" y="0px"
	 viewBox="0 0 3456 2592" style="enable-background:new 0 0 3456 2592;" xml:space="preserve">
<style type="text/css">
	.st0{fill:#A4C539;}
	.st1{font-family:'ArialMT';}
	.st2{font-size:458.4195px;}
	.st3{letter-spacing:41;}
</style>
<g>
	<text transform="matrix(1 0 0 1 1308.5176 2482.9629)" class="st0 st1 st2 st3">software</text>
	<g>
		<path class="st0" d="M1986.7,1394.8c-100.7,0-151.1,63.4-151.1,190.2c0,129.9,50.3,194.9,151,194.9c100.7,0,151-64.9,151-194.9
			C2137.7,1458.2,2087.4,1394.8,1986.7,1394.8z"/>
		<path class="st0" d="M2468.1,1394.8c-100.7,0-151,63.4-151,190.2c0,129.9,50.3,194.9,151,194.9c100.7,0,151-64.9,151-194.9
			C2619.2,1458.2,2568.8,1394.8,2468.1,1394.8z"/>
		<path class="st0" d="M3107,1276.4c166,0,266.7,60.8,302.3,182.5v-407.6H1600.4v847h-156.9v-847h-116.6v1035.5h1518.3v-785
			C2927.7,1284.9,3015,1276.4,3107,1276.4z M2468.1,1899.5c-109.1,0-189.3-29.7-240.4-88.9c-51.1,59.3-131.4,88.9-241,88.9
			c-204.6,0-307.2-104-308-312.2c0-208.5,102.7-312.7,308-312.7c109.4,0,189.6,29.6,240.7,88.7c51.1-59.2,131.3-88.7,240.7-88.7
			c205.3,0,308,104.3,308,312.7C2776.1,1795.4,2673.4,1899.5,2468.1,1899.5z"/>
		<path class="st0" d="M3409.3,1700.8c-33.9,131.7-127.4,197.5-280.4,197.5c-41.9,0-84.1-9.9-126.8-29.6v218.1h407.1L3409.3,1700.8
			L3409.3,1700.8z"/>
		<path class="st0" d="M3268.7,1570.8c0-111.7-51.8-167.6-155.2-167.6c-44.6,0-81.8,2.8-111.4,8.3V1736c39.1,21.3,81.1,32,126.2,32
			C3221.9,1768,3268.7,1702.2,3268.7,1570.8z"/>
	</g>
</g>
</svg>
