<?xml version="1.0" encoding="utf-8"?>
<!-- Generator: Adobe Illustrator 23.0.2, SVG Export Plug-In . SVG Version: 6.00 Build 0)  -->
<svg version="1.1" id="Layer_1" xmlns="http://www.w3.org/2000/svg" xmlns:xlink="http://www.w3.org/1999/xlink" x="0px" y="0px"
	 viewBox="0 0 3456 2592" style="enable-background:new 0 0 3456 2592;" xml:space="preserve">
<style type="text/css">
	.st0{fill:#FFFFFF;}
	.st1{font-family:'ArialMT';}
	.st2{font-size:521.1849px;}
	.st3{letter-spacing:45;}
</style>
<title>Artboard 1</title>
<text transform="matrix(1 0 0 1 533.7908 2109.8435)" class="st0 st1 st2 st3">software</text>
<path class="st0" d="M1304.8,872.8c-114.5,0-171.7,72.1-171.7,216.2c0,147.7,57.2,221.5,171.7,221.5s171.7-73.8,171.7-221.5
	C1476.5,944.9,1419.3,872.8,1304.8,872.8z"/>
<path class="st0" d="M1852.1,872.8c-114.5,0-171.7,72.1-171.7,216.2c0,147.7,57.2,221.5,171.7,221.5s171.7-73.8,171.7-221.5
	C2023.9,944.9,1966.6,872.8,1852.1,872.8z"/>
<path class="st0" d="M2578.5,738.1c188.7,0,303.3,69.2,343.7,207.5V482.2H865.7v962.9H687.3V482.2H554.7v1177.2h1726.2V767
	C2374.7,747.8,2473.9,738.1,2578.5,738.1z M1852.1,1446.5c-124.1,0-215.2-33.7-273.3-101.1c-58.1,67.4-149.5,101.1-274,101.1
	c-232.5,0-349.3-118.3-350.1-354.9c0-237,116.7-355.5,350.2-355.6c124.4,0,215.6,33.6,273.7,100.9
	c58.1-67.3,149.3-100.9,273.7-100.9c233.4,0,350.1,118.5,350.2,355.6C2202.3,1328.2,2085.6,1446.5,1852.1,1446.5z"/>
<path class="st0" d="M2922.2,1220.6c-38.6,149.7-144.9,224.5-318.8,224.5c-47.6,0-95.6-11.2-144.1-33.7v248h462.9V1220.6z"/>
<path class="st0" d="M2762.3,1072.8c0-127-58.8-190.5-176.4-190.6c-50.7,0-92.9,3.1-126.6,9.4v369c44.4,24.2,92.3,36.4,143.4,36.4
	C2709.1,1297,2762.3,1222.3,2762.3,1072.8z"/>
</svg>
