<?xml version="1.0" encoding="utf-8"?>
<!-- Generator: Adobe Illustrator 23.0.2, SVG Export Plug-In . SVG Version: 6.00 Build 0)  -->
<svg version="1.1" id="Layer_1" xmlns="http://www.w3.org/2000/svg" xmlns:xlink="http://www.w3.org/1999/xlink" x="0px" y="0px"
	 viewBox="0 0 3456 2592" style="enable-background:new 0 0 3456 2592;" xml:space="preserve">
<style type="text/css">
	.st0{fill:#A4C539;}
	.st1{font-family:'ArialMT';}
	.st2{font-size:458.4195px;}
	.st3{letter-spacing:40;}
</style>
<g>
	<text transform="matrix(1 0 0 1 613.309 2086.8)" class="st0 st1 st2 st3">software</text>
	<g>
		<path class="st0" d="M1291.5,998.6c-100.7,0-151.1,63.4-151.1,190.2c0,129.9,50.3,194.9,151,194.9c100.7,0,151-64.9,151-194.9
			C1442.5,1062,1392.2,998.6,1291.5,998.6z"/>
		<path class="st0" d="M1772.9,998.6c-100.7,0-151,63.4-151,190.2c0,129.9,50.3,194.9,151,194.9s151-64.9,151-194.9
			C1924,1062,1873.6,998.6,1772.9,998.6z"/>
		<path class="st0" d="M2411.8,880.2c166,0,266.7,60.8,302.3,182.5V655.1H905.2v847H748.3v-847H631.7v1035.5H2150v-785
			C2232.5,888.7,2319.8,880.2,2411.8,880.2z M1772.9,1503.3c-109.1,0-189.3-29.7-240.4-88.9c-51.1,59.3-131.4,88.9-241,88.9
			c-204.6,0-307.2-104-308-312.2c0-208.5,102.7-312.7,308-312.7c109.4,0,189.6,29.6,240.7,88.7c51.1-59.2,131.3-88.7,240.7-88.7
			c205.3,0,308,104.3,308,312.7C2080.9,1399.2,1978.2,1503.3,1772.9,1503.3z"/>
		<path class="st0" d="M2714.1,1304.6c-33.9,131.7-127.4,197.5-280.4,197.5c-41.9,0-84.1-9.9-126.8-29.6v218.1H2714L2714.1,1304.6
			L2714.1,1304.6z"/>
		<path class="st0" d="M2573.5,1174.6c0-111.7-51.8-167.6-155.2-167.6c-44.6,0-81.8,2.8-111.4,8.3v324.5c39.1,21.3,81.1,32,126.2,32
			C2526.7,1371.8,2573.5,1306,2573.5,1174.6z"/>
	</g>
</g>
</svg>
