<?xml version="1.0" encoding="utf-8"?>
<!-- Generator: Adobe Illustrator 23.0.2, SVG Export Plug-In . SVG Version: 6.00 Build 0)  -->
<svg version="1.1" id="Layer_1" xmlns="http://www.w3.org/2000/svg" xmlns:xlink="http://www.w3.org/1999/xlink" x="0px" y="0px"
	 viewBox="0 0 3456 2592" style="enable-background:new 0 0 3456 2592;" xml:space="preserve">
<style type="text/css">
	.st0{fill:#FFFFFF;}
	.st1{font-family:'ArialMT';}
	.st2{font-size:521.1849px;}
	.st3{letter-spacing:46;}
</style>
<title>Artboard 1</title>
<text transform="matrix(1 0 0 1 1020.8818 2462.5869)" class="st0 st1 st2 st3">software</text>
<path class="st0" d="M1791.9,1225.5c-114.5,0-171.7,72.1-171.7,216.2c0,147.7,57.2,221.5,171.7,221.5
	c114.5,0,171.7-73.8,171.7-221.5C1963.6,1297.6,1906.4,1225.5,1791.9,1225.5z"/>
<path class="st0" d="M2339.2,1225.5c-114.5,0-171.7,72.1-171.7,216.2c0,147.7,57.2,221.5,171.7,221.5s171.7-73.8,171.7-221.5
	C2511,1297.6,2453.7,1225.5,2339.2,1225.5z"/>
<path class="st0" d="M3065.6,1090.8c188.7,0,303.3,69.2,343.7,207.5V834.9H1352.8v962.9h-178.4V834.9h-132.6v1177.2H2768v-892.4
	C2861.8,1100.5,2961,1090.8,3065.6,1090.8z M2339.2,1799.2c-124.1,0-215.2-33.7-273.3-101.1c-58.1,67.4-149.5,101.1-274,101.1
	c-232.5,0-349.3-118.3-350.1-354.9c0-237,116.7-355.5,350.2-355.6c124.4,0,215.6,33.6,273.7,100.9
	c58.1-67.3,149.3-100.9,273.7-100.9c233.4,0,350.1,118.5,350.2,355.6C2689.4,1680.9,2572.7,1799.2,2339.2,1799.2z"/>
<path class="st0" d="M3409.3,1573.3c-38.6,149.7-144.9,224.5-318.8,224.5c-47.6,0-95.6-11.2-144.1-33.7v248h462.9L3409.3,1573.3z"/>
<path class="st0" d="M3249.4,1425.5c0-127-58.8-190.5-176.4-190.6c-50.7,0-92.9,3.1-126.6,9.4v369c44.4,24.2,92.3,36.4,143.4,36.4
	C3196.2,1649.7,3249.4,1575,3249.4,1425.5z"/>
</svg>
