<?xml version="1.0" encoding="utf-8"?>
<!-- Generator: Adobe Illustrator 21.1.0, SVG Export Plug-In . SVG Version: 6.00 Build 0)  -->
<svg version="1.1" id="Layer_1" xmlns="http://www.w3.org/2000/svg" xmlns:xlink="http://www.w3.org/1999/xlink" x="0px" y="0px"
	 viewBox="0 0 600 600" style="enable-background:new 0 0 600 600;" xml:space="preserve">
<style type="text/css">
	.st0{fill:#96A5A6;}
</style>
<g>
	<path class="st0" d="M0.3,303c0.6,0,1.2,0.1,1.8,0.1c18.9,0,37.9,0,56.8,0c1.3,0,1.8,0.3,1.8,1.7c0,19,0,38.1,0,57.1
		c0,1.4-0.4,1.7-1.8,1.7c-18.9,0-37.9,0-56.8,0c-0.6,0-1.2,0-1.8,0C0.3,343.4,0.3,323.2,0.3,303z"/>
	<path class="st0" d="M0.3,236.4c19.6,0,39.2,0,58.8,0c1.4,0,1.6,0.4,1.6,1.6c0,19,0,38.1,0,57.1c0,1.3-0.2,1.7-1.6,1.7
		c-19.1-0.1-38.3,0-57.4,0c-0.4,0-0.9,0-1.3-0.1C0.3,276.6,0.3,256.5,0.3,236.4z"/>
	<path class="st0" d="M67,333.3c0-9.5,0-19.1,0-28.6c0-1.2,0.3-1.6,1.6-1.6c19.1,0,38.3,0,57.4,0c1.2,0,1.5,0.3,1.5,1.5
		c0,19.2,0,38.4,0,57.6c0,1.1-0.3,1.4-1.4,1.4c-19.2,0-38.5,0-57.7,0c-1.2,0-1.4-0.4-1.4-1.5C67,352.5,67,342.9,67,333.3z"/>
	<path class="st0" d="M97.2,296.8c-9.5,0-19.1,0-28.6,0c-1.2,0-1.6-0.2-1.6-1.5c0-19.1,0-38.3,0-57.4c0-1.1,0.2-1.4,1.4-1.4
		c19.2,0,38.5,0,57.7,0c1.2,0,1.4,0.4,1.4,1.4c0,19.1,0,38.3,0,57.4c0,1.3-0.4,1.6-1.6,1.5C116.3,296.8,106.7,296.8,97.2,296.8z"/>
	<path class="st0" d="M235.2,276.3c-3,10.5-7.8,20.3-11.7,30.4c-3.9,10.1-8.1,20.1-12.1,30.1c-0.4,1-0.9,1.3-2,1.3c-2-0.1-4-0.1-6,0
		c-0.9,0-1.3-0.2-1.7-1.1c-7.4-18.1-14.9-36.2-22.3-54.3c-0.9-2.1-1.3-4.4-2.1-6.5c0.1,1.9,0.2,3.7,0.3,5.6
		c0.3,15.9,0.1,31.8,0.1,47.7c0,2.4,0,4.9,0,7.3c0,1-0.2,1.4-1.3,1.4c-3.3-0.1-6.6-0.1-9.9,0c-1,0-1.2-0.4-1.2-1.3
		c0-24.5,0-49.1,0-73.6c0-1,0.3-1.3,1.3-1.3c5.4,0,10.9,0.1,16.3,0c1.1,0,1.3,0.6,1.6,1.4c6.4,16,12.7,32,19.1,48
		c1.1,2.7,2,5.4,2.8,8.1c0.4,0,0.5-0.3,0.6-0.5c5.8-16.7,13.1-32.9,19.6-49.4c0.9-2.2,1.9-4.4,2.7-6.7c0.3-0.8,0.7-1.1,1.6-1.1
		c5.1,0,10.3,0.1,15.4,0c1.2,0,1.4,0.4,1.4,1.5c0,15.6,0,31.2,0,46.8c0,8.8,0,17.6,0,26.4c0,1.1-0.2,1.5-1.4,1.4
		c-3.5-0.1-7-0.1-10.5,0c-1.1,0-1.3-0.4-1.3-1.4c0-15.6,0-31.3,0-46.9C234.7,285.1,235,280.7,235.2,276.3z"/>
	<path class="st0" d="M595.2,326.9c0,3.4,0,6.6,0,9.8c0,0.6-0.4,0.9-0.8,1.1c-5.8,1.9-11.6,2.4-17.2-0.2c-5-2.3-6.9-6.7-7.5-11.8
		c-0.6-4.8-0.2-9.7-0.3-14.5c-0.1-5.3,0-10.6,0-15.9c0-1.1-0.3-1.4-1.4-1.4c-5.5,0.1-11,0.1-16.5,0c-1.2,0-1.4,0.4-1.4,1.5
		c0,13.6,0,27.2,0.1,40.8c0,1.5-0.4,1.9-1.8,1.8c-3.2-0.1-6.4-0.1-9.6,0c-1.2,0-1.6-0.3-1.6-1.6c0-13.6,0-27.2,0.1-40.8
		c0-1.6-0.5-1.9-1.9-1.8c-2,0.1-4,0-6,0c-0.8,0-1.1-0.2-1.1-1.1c0.1-2.8,0-5.6,0-8.4c0-0.8,0.3-1.1,1-1c0.4,0,0.9,0,1.3,0
		c2.1-0.1,4.3,0.2,6.4-0.1c0.4-2.1,0.1-4.3,0.2-6.4c0-1.9,0-3.9,0.5-5.8c2.1-8.8,8.8-14.3,17.9-14.7c2.7-0.1,5.3,0.1,7.9,0.8
		c0.8,0.2,1.1,0.5,1,1.3c0,3,0,6,0,9c0,0.9-0.3,1-1,0.6c-1.4-0.6-2.8-1-4.4-1c-5.4-0.3-8.5,2.4-8.9,7.8c-0.2,2.5,0,5.1-0.1,7.6
		c0,0.8,0.4,0.9,1,0.9c5.7,0,11.5,0,17.2,0c0.9,0,1-0.4,1-1.2c0-3.3,0-6.6,0-9.9c0-0.9,0.2-1.3,1.1-1.6c3.6-1,7.1-2.1,10.6-3.2
		c0.9-0.3,1.2-0.1,1.2,0.9c0,4.5,0,9,0,13.5c0,1.1,0.3,1.5,1.4,1.4c3.4-0.1,6.9,0,10.3,0c0.9,0,1.2,0.3,1.2,1.2
		c-0.1,2.7-0.1,5.5,0,8.2c0,1.1-0.4,1.2-1.3,1.2c-3.4,0-6.9,0-10.3,0c-1.2,0-1.4,0.4-1.4,1.4c0,8.2,0,16.4,0,24.6
		c0,1.1,0,2.2,0.2,3.3c0.7,4.2,3.5,5.8,7.9,5.5C592.1,328.5,593.6,327.9,595.2,326.9z"/>
	<path class="st0" d="M498.3,339.4c-7.8,0-14.8-2.1-20.3-7.9c-4.1-4.4-6.2-9.7-6.8-15.6c-0.7-6.5-0.2-12.9,2.7-18.9
		c3.9-8.3,10.6-12.8,19.4-14.3c5-0.8,10-0.8,15,0.5c8.1,2.1,13.7,7.1,16.5,14.9c3.1,8.6,3,17.4-0.6,25.9
		c-3.8,8.8-10.8,13.6-20.2,15.1C502.1,339.3,500.2,339.4,498.3,339.4z M484.2,310.6c0,0.7,0,1.5,0,2.2c0.6,9.4,5.7,16.5,16.5,15.7
		c5.2-0.4,9-2.8,11-7.7c1.8-4.2,2.1-8.6,1.7-13.1c-0.1-1.7-0.4-3.4-0.9-5c-2-6.7-6.8-10.2-13.8-10.1c-6.7,0.1-11.2,3.4-13.4,9.8
		C484.5,305.1,484.1,307.8,484.2,310.6z"/>
	<path class="st0" d="M394.3,339.3c-7.9,0.1-14.9-2-20.4-7.9c-4.1-4.4-6.2-9.7-6.8-15.6c-0.6-5.7-0.3-11.4,1.8-16.8
		c3.6-9.4,10.6-14.6,20.3-16.3c4.9-0.8,9.8-0.8,14.6,0.4c8.3,2,14.1,7,16.9,15.1c3.2,9.2,3.1,18.4-1.3,27.2
		c-4,8.1-10.8,12.4-19.7,13.7c-0.7,0.1-1.5,0.2-2.2,0.3C396.4,339.3,395.3,339.3,394.3,339.3z M409.5,310.2c0.1-2.1-0.2-4.1-0.6-6.1
		c-1.5-7-6.3-11.2-12.9-11.4c-7.6-0.3-12.8,3.3-14.8,10.4c-1.1,3.7-1.2,7.6-0.8,11.4c1,9.6,7.7,15.1,17.3,13.9
		c4.8-0.6,8.2-3.1,10.1-7.7C409.1,317.4,409.4,313.8,409.5,310.2z"/>
	<path class="st0" d="M429.4,323.6c3.7,2.6,7.6,4.3,11.8,5c2.4,0.4,4.8,0.4,7.1-0.2c2-0.5,3.6-1.5,4.1-3.7c0.5-2.2-0.1-4.1-1.9-5.6
		c-1.7-1.3-3.7-2.2-5.7-3c-3.2-1.4-6.5-2.9-9.5-4.8c-8-5.3-7.8-17.7-1.9-23.3c4.1-3.8,8.9-5.6,14.3-6c4.6-0.3,9.2,0.4,13.6,1.9
		c0.8,0.3,1.2,0.7,1.2,1.6c-0.1,3.1,0,6.3,0,9.4c0,1-0.1,1.3-1.1,0.7c-4.1-2.6-8.7-3.5-13.5-3.2c-4.4,0.3-6.7,3.2-5.8,7.1
		c0.3,1.4,1.1,2.4,2.4,3.1c2.2,1.3,4.5,2.3,6.9,3.3c3.3,1.3,6.4,3.1,9.3,5.1c3.5,2.4,4.9,5.8,5.1,9.8c0.4,8.2-4.4,14.7-12.6,17.1
		c-7.8,2.3-15.4,1.2-22.9-1.6c-0.6-0.2-0.9-0.5-0.9-1.2C429.4,331.5,429.4,327.7,429.4,323.6z"/>
	<path class="st0" d="M324.6,297.3c-3.4-2.3-6.8-3.8-10.7-4.3c-8.8-1.1-16.2,4-18,12.7c-0.9,4.5-0.9,9.1,0.9,13.4
		c2.9,7.2,8.8,10,16.2,9.5c2.1-0.1,4.1-0.8,6.1-1.5c1.9-0.7,3.6-1.8,5.6-3.1c0,3.9,0,7.6,0,11.3c0,0.7-0.6,0.7-1,1
		c-4.6,2.4-9.6,3.2-14.8,3.2c-7.4-0.1-14.1-2.3-19.4-7.6c-4.3-4.3-6.6-9.6-7.3-15.6c-0.8-7.6,0.1-14.9,4.2-21.5
		c4.7-7.4,11.6-11.3,20.2-12.4c5.8-0.8,11.3-0.1,16.8,2c0.9,0.3,1.3,0.8,1.3,1.8C324.6,289.8,324.6,293.4,324.6,297.3z"/>
	<path class="st0" d="M347.3,292.3c0.6-1.1,1.1-2.2,1.7-3.3c3.1-5.1,9-7.6,14.8-6.3c1.3,0.3,2.1,0.7,2,2.4c-0.2,3.2,0,6.5-0.1,9.7
		c0,0.5,0.3,1.3-0.9,0.8c-10.7-4.8-16.4,2.5-17.5,9.9c-0.3,1.8-0.3,3.6-0.3,5.4c0,8.5,0,17,0,25.5c0,1.2-0.3,1.6-1.5,1.5
		c-3.4-0.1-6.8-0.1-10.2,0c-0.9,0-1.2-0.2-1.2-1.1c0-17.4,0-34.9,0-52.3c0-0.9,0.3-1.2,1.2-1.2c3.5,0,7,0,10.5,0
		c0.9,0,1.2,0.3,1.2,1.2c-0.1,2.6,0,5.2,0,7.8C347.1,292.2,347.2,292.3,347.3,292.3z"/>
	<path class="st0" d="M260.2,310.5c0-8.5,0-17.1,0-25.6c0-1.4,0.4-1.7,1.7-1.6c3.3,0.1,6.7,0.1,10,0c0.9,0,1.2,0.3,1.2,1.2
		c0,17.4,0,34.9,0,52.3c0,0.9-0.3,1.2-1.2,1.2c-3.4,0-6.8-0.1-10.2,0c-1.2,0-1.5-0.3-1.5-1.5C260.2,327.8,260.2,319.1,260.2,310.5z"
		/>
	<path class="st0" d="M266.7,275.1c-4.2,0-7.7-3.3-7.7-7.3c0-4.1,3.5-7.5,7.8-7.5c4.2,0,7.7,3.4,7.7,7.6
		C274.4,271.8,271,275.1,266.7,275.1z"/>
</g>
</svg>
