<?xml version="1.0" encoding="utf-8"?>
<!-- Generator: Adobe Illustrator 23.0.2, SVG Export Plug-In . SVG Version: 6.00 Build 0)  -->
<svg version="1.1" id="Layer_1" xmlns="http://www.w3.org/2000/svg" xmlns:xlink="http://www.w3.org/1999/xlink" x="0px" y="0px"
	 viewBox="0 0 500 250" style="enable-background:new 0 0 500 250;" xml:space="preserve">
<style type="text/css">
	.st0{fill:#FFFFFF;}
</style>
<title>Alliance Thumbnail Image</title>
<path class="st0" d="M34.7,197.9H16.2l-9.1,17.4H0l29.8-54.6h6.5l6.9,54.6h-6.3L34.7,197.9z M34,192.1l-1.3-11.2
	c-0.6-4.3-1-8.7-1.1-13.1c-0.9,2.2-1.9,4.4-3,6.5s-4.2,8.1-9.3,17.7H34z"/>
<path class="st0" d="M53.7,215.2h-6.3l12.4-58.1H66L53.7,215.2z"/>
<path class="st0" d="M71.5,215.2h-6.3l12.4-58.1h6.3L71.5,215.2z"/>
<path class="st0" d="M89.5,215.2h-6.3l8.7-40.9h6.3L89.5,215.2z M93.7,163.9c-0.1-1.2,0.4-2.5,1.2-3.4c0.8-0.9,1.9-1.4,3.1-1.3
	c2.2,0,3.3,1.1,3.3,3.4c0,1.3-0.4,2.5-1.3,3.5c-0.7,0.9-1.8,1.4-2.9,1.4c-0.9,0-1.8-0.3-2.5-0.9C94,165.8,93.6,164.9,93.7,163.9
	L93.7,163.9z"/>
<path class="st0" d="M122.7,173.6c2.2,0,4.3,0.6,6.1,1.9c1.9,1.3,3.3,3.2,4.2,5.3h0.4l2.5-6.4h4.7l-8.7,40.9h-5l1-7.8h-0.3
	c-4.5,5.7-9.2,8.6-14.1,8.6c-3.1,0.1-6.2-1.2-8.1-3.7c-2-2.5-3-5.8-3-10.1c0-4.9,0.9-9.8,2.7-14.4c1.5-4,4-7.6,7.3-10.4
	C115.3,175,119,173.6,122.7,173.6z M115.6,210.8c2.4,0,4.8-1.1,7.2-3.4c2.6-2.6,4.5-5.6,5.8-9c1.5-3.5,2.2-7.3,2.2-11.1
	c0.1-2.2-0.6-4.4-2.1-6.1c-1.4-1.5-3.4-2.4-5.5-2.3c-2.7,0.1-5.3,1.2-7.2,3.2c-2.4,2.4-4.2,5.4-5.2,8.7c-1.3,3.7-1.9,7.6-1.9,11.6
	c0,2.8,0.6,5,1.8,6.4C111.9,210.1,113.7,210.9,115.6,210.8z"/>
<path class="st0" d="M166.2,215.2l5.5-25.8c0.4-1.8,0.6-3.6,0.7-5.4c0.1-1.4-0.4-2.7-1.3-3.8c-1.2-1-2.7-1.6-4.2-1.4
	c-2.3,0-4.6,0.8-6.5,2.2c-2.3,1.7-4.2,3.9-5.6,6.4c-1.7,3.1-3,6.5-3.6,10l-3.8,17.7h-6.3l8.7-40.9h5.2l-0.8,7.6h0.4
	c1.9-2.6,4.2-4.8,6.9-6.4c2.1-1.2,4.5-1.9,6.9-1.9c2.7-0.1,5.4,0.8,7.5,2.6c1.9,1.9,2.9,4.6,2.7,7.3c0,2.3-0.3,4.5-0.9,6.7
	l-5.3,25.1L166.2,215.2z"/>
<path class="st0" d="M198.9,216c-4.8,0-8.6-1.3-11.2-4c-2.7-2.7-4-6.4-4-11.3c0-4.7,0.9-9.4,2.8-13.7c1.6-3.9,4.2-7.3,7.6-9.8
	c3.2-2.3,7-3.6,10.9-3.6c3.4,0,6.8,0.6,10,1.9l-1.8,5.3c-2.6-1.2-5.3-1.8-8.2-1.9c-2.8,0-5.5,1-7.6,2.9c-2.5,2.1-4.3,4.9-5.4,7.9
	c-1.3,3.5-2,7.3-2,11.1c0,3.2,0.8,5.7,2.5,7.4c1.8,1.8,4.3,2.8,6.8,2.6c1.7,0,3.4-0.2,5.1-0.8c1.6-0.5,3.2-1.1,4.7-1.8v5.3
	C206,215.2,202.5,216,198.9,216z"/>
<path class="st0" d="M229.7,216c-4.6,0-8.2-1.4-10.8-4.1s-3.9-6.5-3.9-11.3c0-4.6,0.9-9.2,2.8-13.4c1.6-3.9,4.1-7.3,7.4-10
	c2.9-2.3,6.4-3.6,10.1-3.6c3.8,0,6.7,0.8,8.6,2.5c2,1.8,3,4.3,2.9,6.9c0,4.5-2.1,8-6.2,10.5s-10,3.8-17.7,3.8h-1.2l-0.1,3
	c0,3.3,0.8,5.8,2.3,7.6c1.5,1.8,3.9,2.7,7.1,2.7c1.6,0,3.3-0.2,4.8-0.7c2.1-0.6,4.2-1.5,6.2-2.5v5.4c-2,1-4.1,1.7-6.2,2.3
	C233.7,215.8,231.7,216,229.7,216z M234.9,179c-2.6,0-5,1.2-7.2,3.5c-2.5,2.8-4.3,6.1-5.2,9.7h0.5c5.7,0,10-0.7,13-2.2
	s4.5-3.6,4.5-6.4c0-1.2-0.5-2.4-1.4-3.3C238,179.3,236.5,178.8,234.9,179L234.9,179z"/>
<path class="st0" d="M66.8,138.4H47L14.9,82.6h-0.4c0.7,9.8,1,16.9,1,21.1v34.7h-14V64.7h19.7l32,55.2h0.3
	c-0.5-9.6-0.8-16.4-0.8-20.3V64.7h14.1V138.4z"/>
<path class="st0" d="M81.5,67.5c0-5,2.8-7.5,8.4-7.5c5.6,0,8.4,2.5,8.4,7.5c0.1,2.1-0.6,4.1-2.1,5.5c-1.4,1.3-3.5,2-6.3,2
	C84.3,75,81.5,72.5,81.5,67.5z M97.5,138.5H82.1V82h15.4L97.5,138.5z"/>
<path class="st0" d="M135.4,127.2c3.3-0.1,6.6-0.7,9.7-1.8v11.4c-4.5,1.8-9.3,2.7-14.1,2.6c-6.1,0-10.6-1.6-13.4-4.7
	c-2.8-3.1-4.2-7.8-4.2-14V93.6h-7.4v-6.5l8.5-5.2l4.4-11.9h9.8v12h15.8v11.6h-15.8v27.2c-0.2,1.8,0.5,3.6,1.8,4.8
	C131.9,126.7,133.6,127.3,135.4,127.2z"/>
<path class="st0" d="M178.1,127.2c3.3-0.1,6.6-0.7,9.7-1.8v11.4c-4.5,1.8-9.3,2.7-14.1,2.6c-6.2,0-10.6-1.6-13.4-4.7
	c-2.8-3.1-4.2-7.8-4.2-14V93.6h-7.4v-6.5l8.5-5.2l4.4-11.9h9.8v12h15.8v11.6h-15.8v27.2c-0.2,1.8,0.5,3.6,1.9,4.8
	C174.6,126.7,176.4,127.3,178.1,127.2z"/>
<path class="st0" d="M233,138.4l-3-7.7h-0.4c-2.1,2.9-4.8,5.2-8,6.8c-3.4,1.4-7.1,2-10.7,1.9c-5.4,0-9.7-1.5-12.8-4.6
	c-3.1-3.1-4.7-7.5-4.7-13.2c0-6,2.1-10.4,6.3-13.2c4.2-2.8,10.5-4.4,18.9-4.7l9.8-0.3v-2.5c0-5.7-2.9-8.6-8.8-8.6
	c-4.5,0-9.8,1.4-15.9,4.1L198.7,86c6.7-3.4,14.1-5.2,21.6-5.1c7.6,0,13.4,1.6,17.4,4.9c4,3.3,6,8.3,6,15v37.6H233z M228.5,112.3
	l-6,0.2c-4.5,0.1-7.8,0.9-10,2.4c-2.2,1.5-3.5,4.1-3.3,6.8c0,4.3,2.5,6.5,7.5,6.5c3.1,0.2,6.2-1,8.6-3.1c2.2-2.1,3.3-5.1,3.2-8.2
	L228.5,112.3z"/>
<path class="st0" d="M309.5,138.4h-15.4v-32.9c0-4.1-0.7-7.1-2.2-9.2s-3.8-3.1-6.9-3.1c-4.3,0-7.4,1.4-9.3,4.3
	c-1.9,2.9-2.9,7.6-2.9,14.3v26.5h-15.4V82h11.8l2.1,7.2h0.9c1.7-2.7,4.2-4.9,7.1-6.2c3.2-1.4,6.7-2.1,10.3-2
	c6.6,0,11.5,1.8,14.9,5.3c3.4,3.5,5.1,8.7,5.1,15.4V138.4z"/>
<path class="st0" d="M315.2,82h16.9l10.6,31.7c1,3.2,1.6,6.5,1.9,9.8h0.3c0.3-3.3,1.1-6.6,2.2-9.8L357.5,82H374l-23.9,63.6
	c-2.2,5.9-5.3,10.3-9.4,13.2c-4.1,3-9.1,4.5-14.2,4.4c-2.6,0-5.3-0.3-7.8-0.9v-12.2c2,0.5,4,0.7,6.1,0.7c2.6,0,5.1-0.8,7.1-2.5
	c2.3-2,3.9-4.6,4.8-7.5l0.9-2.8L315.2,82z"/>
<path class="st0" d="M499.6,138.4h-12.7l-5.6-15.7V68.6h18.3V138.4z"/>
<path class="st0" d="M433.4,94.9h-21l9.4-27.1c2.3-6.3,4.1-12.6,5.6-19.1c0.5,1.9,1.3,4.9,2.6,9c0.3,0.9,0.5,1.7,0.8,2.5l27.2,78.3
	h19.4L438.5,34h-22l-38.9,104.4h19.6l10.2-28.9h30.7L433.4,94.9z"/>
<circle class="st0" cx="490.4" cy="49.9" r="9.6"/>
</svg>
