<?xml version="1.0" encoding="utf-8"?>
<!-- Generator: Adobe Illustrator 22.0.1, SVG Export Plug-In . SVG Version: 6.00 Build 0)  -->
<svg version="1.1" id="Layer_1" xmlns="http://www.w3.org/2000/svg" xmlns:xlink="http://www.w3.org/1999/xlink" x="0px" y="0px"
	 width="500px" height="250px" viewBox="0 0 280 42.8" style="enable-background:new 0 0 280 42.8;" xml:space="preserve">
<style type="text/css">
	.st0{fill:#1f3a7e;}
</style>
<title>Nittany AI</title>
<g>
	<g>
		<g>
			<path class="st0" d="M185.1,26.8h-8.3l-4.1,7.8h-3.2l13.3-24.4h2.9l3.1,24.4h-2.8L185.1,26.8z M184.8,24.2l-0.6-5
				c-0.3-2-0.4-3.9-0.5-5.8c-0.4,1-0.9,2-1.3,2.9c-0.5,1-1.9,3.6-4.2,7.9H184.8z"/>
			<path class="st0" d="M193.6,34.6h-2.8l5.5-26h2.8L193.6,34.6z"/>
			<path class="st0" d="M201.6,34.6h-2.8l5.5-26h2.8L201.6,34.6z"/>
			<path class="st0" d="M209.6,34.6h-2.8l3.9-18.3h2.8L209.6,34.6z M211.5,11.6c0-0.6,0.2-1.1,0.5-1.5c0.4-0.4,0.8-0.6,1.4-0.6
				c1,0,1.5,0.5,1.5,1.5c0,0.6-0.2,1.1-0.6,1.6c-0.4,0.4-0.8,0.6-1.3,0.6c-0.4,0-0.8-0.1-1.1-0.4C211.7,12.5,211.5,12.1,211.5,11.6z
				"/>
			<path class="st0" d="M224.5,15.9c1,0,1.9,0.3,2.7,0.8c0.8,0.6,1.4,1.3,1.9,2.4h0.2l1.1-2.9h2.1l-3.9,18.3h-2.2l0.4-3.5h-0.1
				c-2,2.5-4.1,3.8-6.3,3.8c-1.5,0-2.8-0.6-3.6-1.7c-0.9-1.1-1.3-2.6-1.3-4.5c0-2.3,0.4-4.5,1.2-6.4c0.8-2,1.9-3.5,3.3-4.7
				C221.3,16.5,222.8,15.9,224.5,15.9z M221.3,32.6c1.1,0,2.2-0.5,3.2-1.5c1.1-1,1.9-2.4,2.6-4c0.7-1.7,1-3.3,1-5
				c0-1.1-0.3-2.1-0.9-2.7c-0.6-0.7-1.4-1-2.5-1c-1.2,0-2.2,0.5-3.2,1.4c-1,1-1.8,2.3-2.3,3.9c-0.6,1.6-0.9,3.4-0.9,5.2
				c0,1.3,0.3,2.2,0.8,2.8C219.7,32.3,220.4,32.6,221.3,32.6z"/>
			<path class="st0" d="M244,34.6l2.5-11.6c0.2-1.2,0.3-2,0.3-2.4c0-0.7-0.2-1.3-0.6-1.7c-0.4-0.4-1-0.6-1.9-0.6c-1,0-2,0.3-2.9,1
				c-0.9,0.7-1.8,1.6-2.5,2.9c-0.7,1.2-1.3,2.7-1.6,4.5l-1.7,7.9h-2.8l3.9-18.3h2.3l-0.4,3.4h0.2c1.1-1.4,2.1-2.3,3.1-2.9
				c1-0.6,2-0.8,3.1-0.8c1.4,0,2.5,0.4,3.3,1.2c0.8,0.8,1.2,1.9,1.2,3.2c0,0.9-0.1,1.9-0.4,3l-2.4,11.2H244z"/>
			<path class="st0" d="M258.6,34.9c-2.2,0-3.8-0.6-5-1.8s-1.8-2.9-1.8-5c0-2.2,0.4-4.3,1.2-6.2s2-3.3,3.4-4.4
				c1.5-1.1,3.1-1.6,4.9-1.6c1.5,0,3,0.3,4.5,0.9l-0.8,2.4c-1.3-0.6-2.6-0.9-3.7-0.9c-1.2,0-2.4,0.4-3.4,1.3c-1,0.9-1.8,2-2.4,3.6
				c-0.6,1.5-0.9,3.2-0.9,4.9c0,1.4,0.4,2.5,1.1,3.3c0.7,0.8,1.8,1.2,3.1,1.2c0.8,0,1.6-0.1,2.3-0.3c0.7-0.2,1.4-0.5,2.1-0.8v2.4
				C261.8,34.5,260.3,34.9,258.6,34.9z"/>
			<path class="st0" d="M272.4,34.9c-2,0-3.7-0.6-4.8-1.8c-1.2-1.2-1.8-2.9-1.8-5c0-2.1,0.4-4.1,1.2-6c0.8-1.9,1.9-3.4,3.3-4.5
				c1.4-1.1,2.9-1.6,4.5-1.6c1.7,0,3,0.4,3.8,1.1c0.9,0.7,1.3,1.8,1.3,3.1c0,2-0.9,3.6-2.8,4.7c-1.8,1.1-4.5,1.7-7.9,1.7h-0.6
				l-0.1,1.3c0,1.5,0.3,2.6,1,3.4c0.7,0.8,1.7,1.2,3.2,1.2c0.7,0,1.4-0.1,2.2-0.3c0.7-0.2,1.7-0.6,2.8-1.1v2.4c-1,0.5-2,0.8-2.8,1
				C274.2,34.8,273.4,34.9,272.4,34.9z M274.7,18.3c-1.1,0-2.2,0.5-3.2,1.6c-1,1-1.8,2.5-2.3,4.4h0.2c2.5,0,4.5-0.3,5.8-1
				c1.4-0.7,2-1.6,2-2.9c0-0.6-0.2-1.1-0.6-1.5C276.2,18.5,275.6,18.3,274.7,18.3z"/>
		</g>
	</g>
	<g>
		<g>
			<path class="st0" d="M21.7,34.6h-6.6L4.5,16.1H4.3c0.2,3.3,0.3,5.6,0.3,7v11.5H0V10.1h6.5l10.6,18.3h0.1C17.1,25.3,17,23,17,21.7
				V10.1h4.7V34.6z"/>
			<path class="st0" d="M26.5,11.1c0-1.7,0.9-2.5,2.8-2.5S32,9.4,32,11.1c0,0.8-0.2,1.4-0.7,1.8c-0.5,0.4-1.2,0.7-2.1,0.7
				C27.4,13.6,26.5,12.7,26.5,11.1z M31.8,34.6h-5.1V15.9h5.1V34.6z"/>
			<path class="st0" d="M44.3,30.8c0.9,0,2-0.2,3.2-0.6V34c-1.3,0.6-2.8,0.9-4.7,0.9c-2,0-3.5-0.5-4.4-1.5c-0.9-1-1.4-2.6-1.4-4.6
				v-9h-2.4v-2.2l2.8-1.7l1.5-3.9h3.3v4h5.2v3.8h-5.2v9c0,0.7,0.2,1.3,0.6,1.6C43.1,30.7,43.7,30.8,44.3,30.8z"/>
			<path class="st0" d="M58.5,30.8c0.9,0,2-0.2,3.2-0.6V34c-1.3,0.6-2.8,0.9-4.7,0.9c-2,0-3.5-0.5-4.4-1.5c-0.9-1-1.4-2.6-1.4-4.6
				v-9h-2.4v-2.2l2.8-1.7l1.5-3.9h3.3v4h5.2v3.8h-5.2v9c0,0.7,0.2,1.3,0.6,1.6C57.3,30.7,57.8,30.8,58.5,30.8z"/>
			<path class="st0" d="M76.6,34.6l-1-2.5h-0.1c-0.9,1.1-1.7,1.8-2.6,2.2c-0.9,0.4-2.1,0.6-3.5,0.6c-1.8,0-3.2-0.5-4.2-1.5
				c-1-1-1.5-2.5-1.5-4.4c0-2,0.7-3.4,2.1-4.4c1.4-0.9,3.5-1.5,6.3-1.6l3.2-0.1v-0.8c0-1.9-1-2.8-2.9-2.8c-1.5,0-3.2,0.5-5.3,1.4
				l-1.7-3.4c2.1-1.1,4.5-1.7,7.1-1.7c2.5,0,4.4,0.5,5.8,1.6c1.3,1.1,2,2.7,2,5v12.4H76.6z M75.1,25.9l-2,0.1
				c-1.5,0-2.6,0.3-3.3,0.8c-0.7,0.5-1.1,1.2-1.1,2.2c0,1.4,0.8,2.2,2.5,2.2c1.2,0,2.1-0.3,2.8-1c0.7-0.7,1.1-1.6,1.1-2.7V25.9z"/>
			<path class="st0" d="M102,34.6h-5.1V23.7c0-1.3-0.2-2.4-0.7-3c-0.5-0.7-1.2-1-2.3-1c-1.4,0-2.5,0.5-3.1,1.4c-0.6,1-1,2.5-1,4.7
				v8.8h-5.1V15.9h3.9l0.7,2.4h0.3c0.6-0.9,1.3-1.6,2.3-2c1-0.5,2.1-0.7,3.4-0.7c2.2,0,3.8,0.6,4.9,1.8c1.1,1.2,1.7,2.9,1.7,5.1
				V34.6z"/>
			<path class="st0" d="M103.9,15.9h5.6l3.5,10.5c0.3,0.9,0.5,2,0.6,3.2h0.1c0.1-1.1,0.4-2.2,0.7-3.2l3.5-10.5h5.5l-7.9,21.1
				c-0.7,1.9-1.8,3.4-3.1,4.4c-1.3,1-2.9,1.5-4.7,1.5c-0.9,0-1.7-0.1-2.6-0.3v-4c0.6,0.1,1.3,0.2,2,0.2c0.9,0,1.7-0.3,2.4-0.8
				c0.7-0.6,1.2-1.4,1.6-2.5l0.3-0.9L103.9,15.9z"/>
		</g>
	</g>
	<g>
		<path class="st0" d="M164.9,34.6h-4.2l-1.9-5.2V11.5h6V34.6z"/>
		<path class="st0" d="M143,20.2H136l3.1-9c0.8-2.3,1.4-4.4,1.9-6.3c0.2,0.6,0.4,1.6,0.9,3c0.1,0.3,0.2,0.6,0.3,0.8l9,25.9h6.4
			L144.7,0h-7.3l-12.9,34.6h6.5l3.4-9.6h10.2L143,20.2z"/>
		<circle class="st0" cx="161.8" cy="5.2" r="3.2"/>
	</g>
</g>
</svg>
