<svg id="Layer_1" data-name="Layer 1" xmlns="http://www.w3.org/2000/svg" viewBox="0 0 500 250" width="500px" height="250px">
    <defs>
        <style>.cls-1{fill:#ffffff;}.cls-2{fill:#ffffff;}</style>
    </defs>
    <title>Alliance Thumbnail Image</title>
    <path class="cls-1"
          d="M34.7,197.89H16.19L7.05,215.24H0l29.81-54.55H36.3l6.87,54.55H36.82ZM34,192.07l-1.31-11.16a123.78,123.78,0,0,1-1.08-13.06c-.92,2.19-1.93,4.37-3,6.53s-4.19,8.06-9.31,17.69Z"/>
    <path class="cls-1" d="M53.65,215.24H47.38l12.39-58.06H66Z"/>
    <path class="cls-1" d="M71.52,215.24H65.26l12.38-58.06h6.27Z"/>
    <path class="cls-1"
          d="M89.47,215.24H83.2l8.73-40.89H98.2Zm4.22-51.34a4.87,4.87,0,0,1,1.19-3.41,4,4,0,0,1,3.1-1.33c2.18,0,3.28,1.12,3.28,3.36A5.08,5.08,0,0,1,100,166a3.75,3.75,0,0,1-2.89,1.42,3.42,3.42,0,0,1-2.46-.92A3.37,3.37,0,0,1,93.69,163.9Z"/>
    <path class="cls-1"
          d="M122.72,173.6a10.52,10.52,0,0,1,6.11,1.85,11.9,11.9,0,0,1,4.18,5.31h.41l2.5-6.41h4.74L132,215.24h-5l1-7.8h-.3Q121,216,113.61,216a9.83,9.83,0,0,1-8.13-3.69q-2.94-3.69-3-10.11a38.45,38.45,0,0,1,2.65-14.4,24.88,24.88,0,0,1,7.31-10.41A15.94,15.94,0,0,1,122.72,173.6Zm-7.09,37.2q3.62,0,7.2-3.45a25.49,25.49,0,0,0,5.82-9,29.44,29.44,0,0,0,2.24-11.09,8.69,8.69,0,0,0-2.09-6.12,7.1,7.1,0,0,0-5.49-2.28,10.29,10.29,0,0,0-7.22,3.21,21.77,21.77,0,0,0-5.24,8.69,35.05,35.05,0,0,0-1.9,11.57c0,2.83.58,5,1.75,6.36A6,6,0,0,0,115.63,210.8Z"/>
    <path class="cls-1"
          d="M166.18,215.24l5.53-25.82a34.82,34.82,0,0,0,.74-5.37,5.3,5.3,0,0,0-1.32-3.77,5.56,5.56,0,0,0-4.24-1.42,11.07,11.07,0,0,0-6.47,2.24,20,20,0,0,0-5.56,6.38,33.68,33.68,0,0,0-3.64,10l-3.76,17.72h-6.27l8.73-40.89h5.18l-.82,7.57h.38a24.91,24.91,0,0,1,6.92-6.44,13.93,13.93,0,0,1,6.92-1.88,10.48,10.48,0,0,1,7.48,2.59,9.51,9.51,0,0,1,2.74,7.26,30.22,30.22,0,0,1-.86,6.72l-5.33,25.07Z"/>
    <path class="cls-1"
          d="M198.91,216q-7.24,0-11.23-4t-4-11.27A33.76,33.76,0,0,1,186.45,187a23.29,23.29,0,0,1,7.63-9.83A18.2,18.2,0,0,1,205,173.6a27.31,27.31,0,0,1,10,1.9l-1.76,5.26a21.24,21.24,0,0,0-8.17-1.9,11.71,11.71,0,0,0-7.63,2.85,18.93,18.93,0,0,0-5.41,7.95,30.52,30.52,0,0,0-2,11.06c0,3.19.83,5.66,2.49,7.43a8.89,8.89,0,0,0,6.84,2.65,16.81,16.81,0,0,0,5.07-.75,48.6,48.6,0,0,0,4.71-1.75v5.33A22.4,22.4,0,0,1,198.91,216Z"/>
    <path class="cls-1"
          d="M229.73,216q-6.87,0-10.79-4.06T215,200.65a33.44,33.44,0,0,1,2.78-13.45,24.87,24.87,0,0,1,7.36-10,16,16,0,0,1,10.11-3.58q5.72,0,8.59,2.48a8.68,8.68,0,0,1,2.87,6.92q0,6.72-6.2,10.54t-17.72,3.83h-1.23l-.15,3q0,4.89,2.3,7.63t7.1,2.74a18.3,18.3,0,0,0,4.83-.67,37.23,37.23,0,0,0,6.18-2.46V213a33.75,33.75,0,0,1-6.19,2.29A25.41,25.41,0,0,1,229.73,216Zm5.18-37q-3.84,0-7.22,3.5a23,23,0,0,0-5.17,9.74H223q8.5,0,13-2.22c3-1.48,4.53-3.62,4.53-6.44a4.35,4.35,0,0,0-1.36-3.28A6,6,0,0,0,234.91,178.94Z"/>
    <path class="cls-1"
          d="M66.85,138.43H47L14.89,82.64h-.45q1,14.77,1,21.09v34.7h-14V64.68H21.15l32,55.24h.35q-.75-14.39-.76-20.33V64.68H66.85Z"/>
    <path class="cls-1"
          d="M81.48,67.46q0-7.51,8.37-7.52t8.37,7.52A7.3,7.3,0,0,1,96.13,73q-2.1,2-6.28,2Q81.48,75,81.48,67.46Zm16,71H82.13V82H97.52Z"/>
    <path class="cls-1"
          d="M135.35,127.18a33.61,33.61,0,0,0,9.69-1.76v11.45a34.68,34.68,0,0,1-14.13,2.57q-9.22,0-13.44-4.67t-4.21-14V93.59h-7.37V87.08l8.48-5.15L118.81,70h9.83V82h15.79V93.59H128.64v27.18a6,6,0,0,0,1.84,4.85A7.3,7.3,0,0,0,135.35,127.18Z"/>
    <path class="cls-1"
          d="M178.12,127.18a33.55,33.55,0,0,0,9.69-1.76v11.45a34.59,34.59,0,0,1-14.12,2.57q-9.24,0-13.45-4.67t-4.21-14V93.59h-7.36V87.08l8.47-5.15L161.58,70h9.83V82H187.2V93.59H171.41v27.18a6,6,0,0,0,1.85,4.85A7.25,7.25,0,0,0,178.12,127.18Z"/>
    <path class="cls-1"
          d="M233,138.43l-3-7.67h-.4a22.78,22.78,0,0,1-8,6.79,25.84,25.84,0,0,1-10.72,1.89q-8.12,0-12.78-4.64t-4.67-13.22q0-9,6.28-13.24t18.94-4.72l9.79-.3v-2.47q0-8.58-8.78-8.57-6.76,0-15.89,4.08L198.66,86a45.79,45.79,0,0,1,21.59-5.1q11.34,0,17.4,4.95t6,15v37.58Zm-4.54-26.13-6,.2q-6.71.21-10,2.42a7.61,7.61,0,0,0-3.28,6.76q0,6.51,7.46,6.51a11.81,11.81,0,0,0,8.55-3.08,10.78,10.78,0,0,0,3.21-8.17Z"/>
    <path class="cls-1"
          d="M309.53,138.43H294.15V105.49c0-4.07-.73-7.12-2.17-9.15s-3.75-3.06-6.91-3.06q-6.46,0-9.34,4.32t-2.87,14.3v26.53H257.48V82h11.75l2.07,7.21h.85a16.28,16.28,0,0,1,7.09-6.18A24.06,24.06,0,0,1,289.5,81q9.84,0,14.94,5.32t5.09,15.36Z"/>
    <path class="cls-1"
          d="M315.23,82h16.85l10.64,31.72a44.13,44.13,0,0,1,1.87,9.79h.3a43.78,43.78,0,0,1,2.17-9.79L357.51,82H374l-23.86,63.6q-3.28,8.84-9.36,13.22a23.57,23.57,0,0,1-14.2,4.39,35.9,35.9,0,0,1-7.82-.86V150.18a26.18,26.18,0,0,0,6.06.66,10.93,10.93,0,0,0,7.14-2.5,16.18,16.18,0,0,0,4.76-7.54l.91-2.77Z"/>
    <path class="cls-2" d="M499.56,138.44H486.9l-5.6-15.66V68.63h18.26Z"/>
    <path class="cls-2"
          d="M433.43,94.91h-21l9.39-27.11a158.52,158.52,0,0,0,5.62-19.13c.48,1.9,1.34,4.88,2.6,9,.27.89.53,1.71.78,2.49L458,138.44h19.44L438.54,34h-22L377.66,138.44h19.63l10.18-28.88h30.67Z"/>
    <circle class="cls-2" cx="490.43" cy="49.87" r="9.57"/>
</svg>
