<?xml version="1.0" encoding="utf-8"?>
<!-- Generator: Adobe Illustrator 14.0.0, SVG Export Plug-In . SVG Version: 6.00 Build 43363)  -->
<!DOCTYPE svg PUBLIC "-//W3C//DTD SVG 1.1//EN" "http://www.w3.org/Graphics/SVG/1.1/DTD/svg11.dtd">
<svg version="1.1" id="oracle" xmlns:svg="http://www.w3.org/2000/svg"
	 xmlns="http://www.w3.org/2000/svg" xmlns:xlink="http://www.w3.org/1999/xlink" x="0px" y="0px" width="500px" height="250px"
	 viewBox="0 0 400 300" enable-background="new 0 0 400 300" xml:space="preserve">
<path id="oracle_1_" fill="#EA1B22" d="M170.38,150.772h22.861l-12.088-19.447l-22.185,35.16h-10.097l26.984-42.234
	c1.173-1.707,3.128-2.738,5.297-2.738c2.098,0,4.052,0.996,5.19,2.666l27.089,42.306h-10.096l-4.764-7.856h-23.145L170.38,150.772z
	 M275.259,158.629v-36.689h-8.569v40.279c0,1.104,0.428,2.17,1.245,2.986c0.816,0.816,1.918,1.279,3.128,1.279h39.071l5.049-7.855
	H275.259L275.259,158.629z M133.513,152.051c8.318,0,15.073-6.719,15.073-15.039c0-8.318-6.755-15.074-15.073-15.074H96.031v44.546
	h8.564v-36.687h28.349c3.981,0,7.182,3.235,7.182,7.216c0,3.983-3.2,7.218-7.182,7.218l-24.153-0.036l25.575,22.29h12.444
	l-17.207-14.435H133.513z M43.309,166.485c-12.297,0-22.277-9.953-22.277-22.254c0-12.301,9.98-22.292,22.277-22.292H69.2
	c12.301,0,22.273,9.991,22.273,22.292c0,12.301-9.974,22.254-22.273,22.254H43.309z M68.625,158.629
	c7.967,0,14.419-6.436,14.419-14.396c0-7.964-6.452-14.435-14.419-14.435H43.881c-7.964,0-14.42,6.471-14.42,14.435
	c0,7.962,6.457,14.396,14.42,14.396H68.625z M231.316,166.485c-12.302,0-22.291-9.953-22.291-22.254
	c0-12.301,9.989-22.292,22.291-22.292h30.752l-5.013,7.857h-25.172c-7.963,0-14.434,6.471-14.434,14.435
	c0,7.962,6.471,14.397,14.434,14.397h30.896l-5.047,7.855L231.316,166.485L231.316,166.485z M336.087,158.629
	c-6.578,0-12.16-4.408-13.865-10.486h36.617l5.049-7.857h-41.666c1.705-6.043,7.287-10.487,13.865-10.487h25.135l5.084-7.857
	h-30.789c-12.301,0-22.288,9.991-22.288,22.292c0,12.301,9.987,22.254,22.288,22.254h26.416l5.048-7.856h-30.894"/>
<path id="r" fill="#EA1B22" d="M370.891,126.668c0-2.168,1.742-3.911,3.91-3.911c2.205,0,3.947,1.742,3.947,3.911
	c0,2.204-1.742,3.947-3.947,3.947C372.634,130.614,370.891,128.872,370.891,126.668z M374.802,131.717
	c2.773,0,5.015-2.24,5.015-5.013s-2.24-5.013-5.015-5.013c-2.735,0-4.977,2.24-4.977,5.013S372.066,131.717,374.802,131.717z
	 M374.339,123.717c0.783,0,1.104,0.036,1.459,0.178c0.994,0.32,1.103,1.209,1.103,1.564c0,0.071,0,0.249-0.07,0.462
	c-0.037,0.213-0.178,0.64-0.676,0.959c-0.07,0.036-0.107,0.071-0.25,0.142l1.28,2.311h-1.243l-1.14-2.133h-0.78v2.133h-1.104v-5.617
	L374.339,123.717L374.339,123.717z M374.732,126.277c0.354-0.036,0.711-0.036,0.924-0.355c0.106-0.143,0.143-0.285,0.143-0.498
	c0-0.284-0.178-0.533-0.428-0.676c-0.248-0.106-0.498-0.106-1.031-0.106h-0.317v1.635H374.732"/>
</svg>
