<?xml version="1.0" encoding="UTF-8" standalone="no"?>
<!-- Generator: Adobe Illustrator 21.1.0, SVG Export Plug-In . SVG Version: 6.00 Build 0)  -->

<svg
   xmlns:dc="http://purl.org/dc/elements/1.1/"
   xmlns:cc="http://creativecommons.org/ns#"
   xmlns:rdf="http://www.w3.org/1999/02/22-rdf-syntax-ns#"
   xmlns:svg="http://www.w3.org/2000/svg"
   xmlns="http://www.w3.org/2000/svg"
   xmlns:xlink="http://www.w3.org/1999/xlink"
   xmlns:sodipodi="http://sodipodi.sourceforge.net/DTD/sodipodi-0.dtd"
   xmlns:inkscape="http://www.inkscape.org/namespaces/inkscape"
   version="1.1"
   id="Layer_1"
   x="0px"
   y="0px"
   viewBox="0 0 600 600"
   style="enable-background:new 0 0 600 600;"
   xml:space="preserve"
   sodipodi:docname="OSIsoft_originalopt-night.svg"
   inkscape:version="0.92.3 (2405546, 2018-03-11)"><metadata
   id="metadata123"><rdf:RDF><cc:Work
       rdf:about=""><dc:format>image/svg+xml</dc:format><dc:type
         rdf:resource="http://purl.org/dc/dcmitype/StillImage" /><dc:title /></cc:Work></rdf:RDF></metadata><defs
   id="defs121"><linearGradient
     inkscape:collect="always"
     id="linearGradient1012"><stop
       style="stop-color:#e4e5e6;stop-opacity:1"
       offset="0"
       id="stop1008" /><stop
       style="stop-color:#9ca0a4;stop-opacity:1"
       offset="1"
       id="stop1010" /></linearGradient><linearGradient
     inkscape:collect="always"
     id="linearGradient993"><stop
       style="stop-color:#9ca0a3;stop-opacity:1"
       offset="0"
       id="stop989" /><stop
       style="stop-color:#e4e5e6;stop-opacity:1"
       offset="1"
       id="stop991" /></linearGradient><linearGradient
     inkscape:collect="always"
     id="linearGradient969"><stop
       style="stop-color:#939599;stop-opacity:1"
       offset="0"
       id="stop965" /><stop
       style="stop-color:#f5f5f5;stop-opacity:1"
       offset="1"
       id="stop967" /></linearGradient><linearGradient
     inkscape:collect="always"
     xlink:href="#linearGradient1012"
     id="linearGradient1014-0"
     x1="49.089989"
     y1="416.86951"
     x2="70.533905"
     y2="295.06021"
     gradientUnits="userSpaceOnUse"
     gradientTransform="translate(-0.09945,8.6e-4)" /><linearGradient
     gradientTransform="translate(-0.19945,-0.09957)"
     inkscape:collect="always"
     xlink:href="#linearGradient969"
     id="linearGradient971-6"
     x1="48.790367"
     y1="301.42416"
     x2="136.20644"
     y2="246.88855"
     gradientUnits="userSpaceOnUse" /><linearGradient
     inkscape:collect="always"
     xlink:href="#linearGradient1012"
     id="linearGradient1014-3-7"
     x1="56.214989"
     y1="392.99451"
     x2="70.533905"
     y2="295.06021"
     gradientUnits="userSpaceOnUse"
     gradientTransform="translate(40.92407,-6.29594)" /><linearGradient
     gradientTransform="translate(-0.19945,-0.09957)"
     inkscape:collect="always"
     xlink:href="#linearGradient993"
     id="linearGradient995-5"
     x1="204.25"
     y1="280.75"
     x2="189"
     y2="342"
     gradientUnits="userSpaceOnUse" /><linearGradient
     inkscape:collect="always"
     xlink:href="#linearGradient1012"
     id="linearGradient1014-3-9-7"
     x1="41.012192"
     y1="309.37912"
     x2="55.507885"
     y2="287.98914"
     gradientUnits="userSpaceOnUse"
     gradientTransform="translate(60.252,93.28533)" /></defs><sodipodi:namedview
   pagecolor="#003366"
   bordercolor="#666666"
   borderopacity="1"
   objecttolerance="10"
   gridtolerance="10"
   guidetolerance="10"
   inkscape:pageopacity="0"
   inkscape:pageshadow="2"
   inkscape:window-width="2736"
   inkscape:window-height="1719"
   id="namedview119"
   showgrid="false"
   inkscape:zoom="4"
   inkscape:cx="456.66837"
   inkscape:cy="349.51091"
   inkscape:window-x="-13"
   inkscape:window-y="-13"
   inkscape:window-maximized="1"
   inkscape:current-layer="Layer_1" />
<style
   type="text/css"
   id="style2">
	.st0{fill:#017DC2;}
	.st1{fill:#027EC3;}
	.st2{fill:#FBFCFD;}
	.st3{fill:#939599;}
	.st4{fill:#96989C;}
	.st5{fill:#9EA0A3;}
	.st6{fill:#ADB0B3;}
	.st7{fill:#F2F3F4;}
	.st8{fill:#E4E5E6;}
	.st9{fill:#DBDDDE;}
	.st10{fill:#D3D4D6;}
	.st11{fill:#BDBFC1;}
	.st12{fill:#CCCDCF;}
	.st13{fill:#C5C6C8;}
	.st14{fill:#B4B6B9;}
	.st15{fill:#A6A8A9;}
	.st16{fill:#A7A8AA;}
	.st17{fill:#A6A8AA;}
</style>
<g
   id="g116"
   style="fill:#e6e6e6">
	<g
   id="g98"
   style="fill:#e6e6e6">
		
		
		
		
		
		
		
		
		
		
		
		
		
		
		
		
		
		
		
		
		
		
		
		
		
		
		
		
		
		
		
		
		
		
		
		
		
		
		
		
		
		
		
		
		
		
		
	</g>
	<g
   id="g114"
   style="fill:#e6e6e6">
		<path
   d="M363.9,347.3c-10.1-0.3-22.5-2.9-31.9-13.5c-1.9-2.2-2.3-3.3,0.6-4.7c2.6-1.3,5-3.2,7.5-4.8c2.2-1.4,4.3-3.7,6.7-4.1    c2.6-0.5,3.2,3.3,5.3,4.5c7.3,4.2,15.1,5.9,23.3,3.4c2.2-0.6,4-2,3.9-4.7c-0.1-2.6-1.9-3.8-4.2-4.4c-7-1.6-14-3-21-4.8    c-11.5-2.9-17.8-9.9-18.2-19.7c-0.5-10.9,5.2-19.7,16.4-23.4c16.7-5.4,32.6-3.9,46.8,7.3c2.4,1.9,3.4,3.5,0,5.5    c-1.7,1-3.1,2.6-4.7,3.9c-2,1.7-3.8,3.9-6.2,5c-3.1,1.4-3.8-2.6-6.2-3.6c-5.3-2.1-10.7-3.4-16.4-2.9c-2.8,0.2-6,0.9-6.3,4.4    c-0.3,3.7,2.9,4.4,5.7,5c7.2,1.5,14.5,2.4,21.4,4.8c10.4,3.6,15.5,9.6,15.8,18.5c0.3,11.3-5.1,20.2-14.8,24.2    C380.5,346.4,375.6,347.4,363.9,347.3z"
   id="path100"
   style="fill:#e6e6e6" />
		<path
   d="M433.2,308.2c0,10.9-0.2,21.8,0.1,32.7c0.1,3.6-1.1,4.5-4.5,4.3c-5.3-0.3-10.6-0.2-15.9,0c-2.4,0.1-3.7-0.3-3.6-3.2    c0.1-22.6,0.1-45.2,0-67.8c0-2.6,1-3.2,3.3-3.1c5.8,0.1,11.5,0.2,17.3,0c2.7-0.1,3.5,0.8,3.4,3.5    C433.1,285.7,433.2,296.9,433.2,308.2z"
   id="path102"
   style="fill:#e6e6e6" />
		<path
   class="st15"
   d="M462.4,346.5c-13,0-20-4.5-22.6-13.4c-0.9-3.1-0.3-4.3,2.9-4.5c3.2-0.3,5.5-1,6.6,3.9    c1.8,7.9,17.3,10.7,22.8,4.6c3.4-3.8,1.7-9.8-3.2-11.3c-5.8-1.8-11.9-2.4-17.6-4.5c-7.3-2.7-10.4-6.5-10.3-12.7    c0.1-6.3,4.3-11.2,11.3-13.2c10.6-3,21.2-0.1,26.1,7.3c0.3,0.5,0.8,1,1,1.6c0.6,2,3,4.4,1.2,5.9c-1.7,1.4-4.7,1.2-7.2,1.4    c-1.5,0.1-1.2-1.5-1.5-2.5c-2-7.8-14.4-11.3-20.2-5.6c-3.7,3.6-2.5,8.3,2.8,10.2c4.4,1.5,9,2.5,13.5,3.8c2.1,0.6,4.2,1.2,6.2,2.1    c4.8,2,8.1,5.1,8.3,10.7c0.2,6.1-2.3,10.5-7.5,13.4C470.6,345.8,466.1,346.9,462.4,346.5z"
   id="path104"
   style="fill:#e6e6e6" />
		<path
   class="st16"
   d="M545,323.4c0-5.6-0.2-11.3,0.1-16.9c0.1-3.2-0.9-4.6-4.2-4.2c-2.6,0.3-4.4,0-4.4-3.6c0.1-3.6,2.2-3.3,4.4-3    c3.3,0.4,4.4-1,4.2-4.2c-0.3-3.4,0-6.8,0.6-10.2c1.4-7.8,9-12,16.7-9.4c2.7,0.9,2,2.7,2,4.5c0,2.2-1.5,1.8-3,1.7    c-6.3-0.1-8,1.6-8.1,7.9c0,0.8,0,1.6,0,2.3c0,6.7,0,6.8,6.6,7.2c2.4,0.2,2.8,1.2,2.8,3.2c0,2.1-0.2,3.4-2.9,3.6    c-6.5,0.3-6.5,0.5-6.5,6.9c0,10.6-0.1,21.2,0.1,31.9c0,2.9-0.6,4.2-3.9,4.1c-3-0.1-4.7-0.6-4.6-4.1    C545.2,335.3,545,329.4,545,323.4z"
   id="path106"
   style="fill:#e6e6e6" />
		<path
   class="st17"
   d="M574.8,322.2c0-5.3-0.2-10.6,0.1-15.9c0.1-3.1-1-4.3-4-3.9c-2.6,0.3-4.4,0-4.4-3.5c0.1-3.5,2.2-3.3,4.3-3.1    c3.5,0.4,4.3-1.2,4.1-4.3c-0.2-2.2,0.2-4.4-0.1-6.5c-0.6-4.2,1.1-5.5,5.2-5.2c2.6,0.2,3.7,0.9,3.5,3.5c-0.1,1.7,0,3.4,0,5.1    c0,6.5,0,6.7,6.6,7.2c2.5,0.2,2.6,1.6,2.6,3.4c0,1.9-0.2,3.5-2.7,3.3c-1.2-0.1-2.5,0.1-3.7,0c-2-0.1-2.8,0.8-2.8,2.8    c0.1,9.8,0,19.6,0,29.5c0,4.2,2.6,4.8,6,4.3c1.1-0.2,3.1-1.7,3.1,1c0,1.9,1.2,4.7-2,5.4c-2.4,0.5-4.9,0.9-7.4,0.8    c-5.9-0.3-8.2-2.8-8.3-8.9c0-0.3,0-0.6,0-0.9C574.8,331.5,574.8,326.8,574.8,322.2z"
   id="path108"
   style="fill:#e6e6e6" />
		<path
   d="M292,268.2c-24.3-0.1-40.4,15.8-40.4,39.9c0,24,15.5,39.4,39.6,39.4c24.3,0,40.2-15.9,40.2-40.1    C331.4,283.8,315.9,268.3,292,268.2z M304.7,321c-3.3,5.8-8.9,8.4-15.8,7.5c-6.4-0.9-10.8-5-12.4-11.6c-1.4-5.7-1.4-11.4-0.1-17.1    c1.8-8,7.4-12.7,15-12.8c7.9-0.1,13.6,4.5,15.6,12.6c0.7,2.6,0.8,5.2,0.8,7.9C307.9,312.3,307.1,316.8,304.7,321z"
   id="path110"
   style="fill:#e6e6e6" />
		<path
   class="st15"
   d="M520,295.7c-19.2-6.4-35.7,5.9-33.8,27.8c1.8,21.1,18.5,25.9,32.5,21.7c10.5-3.1,15.9-12.3,15.9-25.3    C534.6,307.7,529.3,298.8,520,295.7z M525.2,320.2c0,7.6-1.1,14.8-9,18.4c-8.3,3.8-17.9-1.2-20-10.1c-1.3-5.6-1-11.1,0.2-16.6    c1.5-7.1,7.6-11.1,15.8-10.7c7.1,0.3,12,5.3,12.9,13.5C525.4,316.5,525.2,318.4,525.2,320.2z"
   id="path112"
   style="fill:#e6e6e6" />
	</g>
</g>
<g
   inkscape:groupmode="layer"
   id="layer1"
   inkscape:label="other"
   style="display:inline"><path
     style="fill:#017dc2;fill-opacity:1;stroke:none;stroke-width:3.80123281;stroke-linecap:round;stroke-linejoin:round;stroke-miterlimit:4;stroke-dasharray:none;stroke-opacity:1;paint-order:fill markers stroke"
     d="m 197.12539,298.14887 c -8.41221,31.39477 -51.56547,69.33582 -86.43079,46.44782 -6.33918,-4.16147 -2.1697,23.38099 -1.88671,28.88959 2.32595,0.34845 10.81556,-0.59999 9.04405,-0.35703 -7.16572,7.1228 -38.65358,14.23462 -44.75663,8.84337 -0.31949,-0.28222 -0.94935,-1.55861 -4.29865,-1.86358 -6.27795,-0.57163 -23.00524,-0.43139 -30.44681,-7.80673 -18.16637,-18.00468 -29.18526,-38.83426 -19.72152,-74.15344 13.20738,-49.29059 63.872,-89.21727 113.1626,-89.21726 49.2906,0 78.54183,39.92667 65.33446,89.21726 z"
     id="path874"
     inkscape:connector-curvature="0"
     sodipodi:nodetypes="ssccssasss" /><path
     d="m 44.21944,297.62255 c -1.45151,2.34814 -1.3253,2.24906 -2.42755,4.31444 -0.86516,1.4985 -1.04141,1.92948 -1.53573,2.83404 -2.02124,2.74041 -3.156,6.22979 -4.356,9.52979 -0.3,0.8 -1.30039,1.89922 0.0996,2.69922 1.1,0.6 1.5,-0.69922 2,-1.19922 2.27844,-2.3775 4.55751,-4.85353 6.83594,-7.33008 0.0568,0.007 0.10576,0.0242 0.16406,0.0293 2.8,-2.4 2.56292,-2.3028 5.36292,-4.7028 l 2.89844,-2.47656 c 2.38063,-1.55895 4.6666,-3.07102 6.93005,-4.5472 0.003,0.009 0.007,0.0178 0.01,0.0273 3.3,-1.6 6.69957,-3.30035 9.99957,-4.90035 1.18354,-1.09064 2.11165,-0.0929 3.01165,0.70711 1.2,1 2.89771,3.22737 3.99771,4.32737 0.8,-1.6 1.09146,-3.13374 1.89146,-4.73374 2.3,-5.8 7.29844,-7.9 12.89844,-9 4.1,0.9 4.8,5.39883 8,7.29883 0.8,-2.1 1.9,-4.09922 2.5,-6.19922 1.5,-5.1 4.4,-8.20078 9.5,-10.30078 9.8,-4 18.3,-10.1 25.5,-18 10.9,-11.9 17.27578,-27.02539 22.67578,-42.02539 l -0.77542,0.62504 c -5,4.5 -9.89961,9.10039 -15.09961,13.40039 -16.6,13.6 -35.59922,23.20117 -54.69923,32.70117 -9.39999,4.7 -18.60156,9.69922 -26.60156,16.69922 -2.69559,1.79741 -6.4953,4.59111 -10.13465,9.17528 -2.4494,2.40428 -4.40176,4.7641 -6.36322,7.8028 z"
     id="path8-5"
     inkscape:connector-curvature="0"
     sodipodi:nodetypes="ccccccccccccccccccccccccccccc"
     style="fill:url(#linearGradient971-6);fill-opacity:1" /><path
     class="st9"
     d="m 44.90055,376.10043 c 6,4.4 10.11049,10.71161 15.21049,16.01161 1.5,1.6 2.12701,2.52903 4.02701,3.72903 3.37701,0.46833 4.37502,-0.48577 5.76423,-2.72079 -0.0863,4.73303 -1.44444,9.71576 -6.5519,7.8798 -8.06287,-6.66527 -20.35492,-17.23436 -25.00295,-28.69965 2.4,1.3 4.15312,2.5 6.55312,3.8 z"
     id="path44-4"
     inkscape:connector-curvature="0"
     style="fill:#d5d5d5;fill-opacity:1"
     sodipodi:nodetypes="ccccccc" /><path
     style="fill:url(#linearGradient995-5);fill-opacity:1;stroke:none;stroke-width:3.77999997;stroke-linecap:round;stroke-linejoin:round;stroke-miterlimit:4;stroke-dasharray:none;stroke-opacity:1;paint-order:fill markers stroke"
     d="m 118.10056,348.60043 c 65.79676,15.56334 89.83152,-79.46446 70.13935,-113.07002 37.14978,35.05441 40.65523,52.2718 32.81066,88.40912 -23.35015,67.6036 -60.8109,64.32943 -80.46766,53.31434 -27.54981,-28.1848 -22.70764,-26.95188 -22.48235,-28.65344 z"
     id="rect984-2"
     inkscape:connector-curvature="0"
     sodipodi:nodetypes="ccccc" /><path
     style="fill:url(#linearGradient1014-0);fill-opacity:1;stroke:none;stroke-width:3.77999997;stroke-linecap:round;stroke-linejoin:round;stroke-miterlimit:4;stroke-dasharray:none;stroke-opacity:1;paint-order:fill markers stroke"
     d="m 70.53201,291.59107 c 2.22143,-1.20393 4.78793,3.00228 6.6779,5.34384 -19.80256,47.92622 -14.43732,74.79857 -4.88101,84.32106 0.064,0.0638 0.0425,14.40901 -6.28576,15.40874 -2.06576,1.76094 -8.71863,-6.44321 -14.93746,-13.70444 -2.19623,-2.56437 -4.33833,-5.01113 -6.20513,-6.85984 -10.99244,-26.80424 23.28828,-82.66869 25.63146,-84.50936 z"
     id="rect997-7"
     inkscape:connector-curvature="0"
     sodipodi:nodetypes="ccscscc" /><path
     style="fill:url(#linearGradient1014-3-7);fill-opacity:1;stroke:none;stroke-width:3.77999997;stroke-linecap:round;stroke-linejoin:round;stroke-miterlimit:4;stroke-dasharray:none;stroke-opacity:1;paint-order:fill markers stroke"
     d="m 91.99981,283.20117 c 2.79595,-0.71779 6.01078,4.8577 7.90075,7.19926 0.94744,2.23872 -12.97935,27.68755 10.8,54.2 0.55229,12.906 -0.42171,22.26584 -1.9,28.9 -48.28012,-2.97292 -19.34527,-80.83034 -16.80075,-90.29926 z"
     id="rect997-2-9"
     inkscape:connector-curvature="0"
     sodipodi:nodetypes="ccccc" /><path
     style="fill:url(#linearGradient1014-3-9-7);fill-opacity:1;stroke:none;stroke-width:3.77999997;stroke-linecap:round;stroke-linejoin:round;stroke-miterlimit:4;stroke-dasharray:none;stroke-opacity:1;paint-order:fill markers stroke"
     d="m 74.36305,382.72543 c 21.34653,2.44904 37.85104,-9.7183 43.83751,-9.66863 3.84033,-1.09923 35.12148,24.07253 33.57793,28.06241 -2.19283,4.39613 -35.43096,15.42222 -47.65,13.7125 -3.67487,1.43574 -28.12484,-23.11138 -29.76544,-32.10628 z"
     id="rect997-2-8-6"
     inkscape:connector-curvature="0"
     sodipodi:nodetypes="ccccc" /></g></svg>