<?xml version="1.0" encoding="utf-8"?>
<!-- Generator: Adobe Illustrator 21.1.0, SVG Export Plug-In . SVG Version: 6.00 Build 0)  -->
<svg version="1.1" id="Layer_1" xmlns="http://www.w3.org/2000/svg" xmlns:xlink="http://www.w3.org/1999/xlink" x="0px" y="0px"
	 viewBox="0 0 600 600" style="enable-background:new 0 0 600 600;" xml:space="preserve">
<style type="text/css">
	.st0{fill:#017DC2;}
	.st1{fill:#027EC3;}
	.st2{fill:#FBFCFD;}
	.st3{fill:#939599;}
	.st4{fill:#96989C;}
	.st5{fill:#9EA0A3;}
	.st6{fill:#ADB0B3;}
	.st7{fill:#F2F3F4;}
	.st8{fill:#E4E5E6;}
	.st9{fill:#DBDDDE;}
	.st10{fill:#D3D4D6;}
	.st11{fill:#BDBFC1;}
	.st12{fill:#CCCDCF;}
	.st13{fill:#C5C6C8;}
	.st14{fill:#B4B6B9;}
	.st15{fill:#A6A8A9;}
	.st16{fill:#A7A8AA;}
	.st17{fill:#A6A8AA;}
</style>
<g>
	<g>
		<path class="st0" d="M160.6,214.7c10.2,2.8,18,9.2,24.7,17c1.5,1.7,2.8,3.5,4.1,5.3c0,0.6,0.2,1.1,0.9,1.2c0,0,0,0,0,0
			c-0.2,1.1,0.3,2,0.7,3c4.2,8.7,5.8,17.9,5.8,27.5c0,10.7-2.4,20.8-5.8,30.8c-3,6.5-6,13-9,19.4c-3.6,5-7.1,9.9-10.7,14.9
			c-3.1,3.6-6.5,6.8-10.2,9.8c-0.8,0.5-1.7,1.1-2.5,1.6c-1.2,0.7-2.3,1.4-3.5,2c-1.5,0.7-3,1.3-4.5,2c-1.8,0.6-3.6,1.2-5.4,1.7
			c-1.5,0.3-3,0.6-4.5,0.9c-1.8,0.1-3.6,0.1-5.4,0.2c-3.3-0.3-6.6-0.6-9.9-1c-2.4-0.8-4.7-1.6-7.1-2.3c-2.5-1.3-4.9-2.7-7.4-4
			c-2.2-2.4-4.3-4.9-6.5-7.3c-1.6-3.4-4.1-6.3-5.1-10c-0.7-2.7-1.3-5.4-2-8.1c-0.2-2.4-0.3-4.8-0.5-7.2c0.1-2.4,0.2-4.8,0.3-7.2
			c0.4-2.7,0.8-5.4,1.2-8.1c0.9-2,1.5-4.1,1.7-6.3c0.9-2.1,1.9-4.1,2.5-6.2c1.5-5,4.4-8.2,9.5-10.3c9.8-4,18.4-10.1,25.5-18
			C148.7,244.1,155.2,229.7,160.6,214.7z"/>
		<path class="st1" d="M38,372.4c-23.2-19.1-27-44.1-18.2-70.6c16.5-49.7,51.8-79.6,102.9-90.4c11-2.3,22.1-1.6,33,1.4
			c1.4,0.4,3,0.4,3.9,1.9c-5,4.5-9.9,9.1-15.1,13.4c-16.6,13.7-35.6,23.3-54.7,32.7c-9.4,4.7-18.6,9.7-26.6,16.7
			c-3.9,2.5-7.1,5.7-10,9.3c-2.6,2.3-4.9,4.8-6.4,7.9c-2.7,3-4.5,6.6-6.2,10.2c-2.2,2.9-3.3,6.2-4.5,9.5c-0.3,0.8-1.3,1.9,0.1,2.7
			c1.1,0.6,1.5-0.6,2-1.2c2.4-2.4,4.6-4.9,6.9-7.4c2.8-2.4,5.6-4.7,8.4-7.1c2.3-1.5,4.6-3,6.9-4.6c3.3-1.6,6.7-3.2,10-4.8
			c0.2,2.1-2.1,3.2-2.1,5.1c-1.6,1.6-2.9,3.5-3.6,5.7c-1.6,1.6-2.5,3.6-3.3,5.7c-1.5,2.3-3,4.5-3.7,7.2c-1.5,2.3-2.7,4.6-3.5,7.2
			c-1.4,2.4-2.5,4.9-3.2,7.6c-1.8,3.2-2.9,6.7-3.7,10.3c-2.3,6.2-3.7,12.5-3.9,19.1c-1,5.6,0.5,10.9,1.5,16.2
			C42.7,374.9,40.4,373.7,38,372.4z"/>
		<path class="st2" d="M63.2,277.5c8-7,17.2-12,26.6-16.7c19.1-9.5,38.1-19.1,54.7-32.7c5.2-4.3,10.1-8.9,15.1-13.4
			c0.3,0,0.6,0,0.9,0c-5.4,15-11.9,29.5-22.8,41.4c-7.2,7.9-15.7,14-25.5,18c-5.1,2.1-8,5.2-9.5,10.3c-0.6,2.1-1.7,4.1-2.5,6.2
			c-3.2-1.9-3.9-6.4-8-7.3c-5.6,1.1-10.6,3.2-12.9,9c-2.1-0.1-2.9-1.9-4.3-3C70.7,285.8,68.5,280,63.2,277.5z"/>
		<path class="st1" d="M79.3,292.3c2.3-5.9,7.2-7.9,12.9-9c-0.1,4.1-2.5,7.7-3.1,11.6c-0.7,2.4-1.3,4.8-2,7.1
			c-1,2.3-1.5,4.8-1.7,7.3c-0.7,2.1-1.4,4.2-1.3,6.4c-1.3,2.5-1,5.3-1.2,8c-1,2.7-0.7,5.5-0.6,8.2c-0.4,4.9-0.5,9.7,1.1,14.4
			c1,6,3.3,11.4,6.9,16.2c4.7,6.3,10.6,10.9,19,11c3.1,1.1,6.1-0.7,9.1-0.2c-0.3,0.5-0.6,1-1,1.5c-1.5,0.6-3,1.2-4.5,1.8
			c-1.9,0.4-3.8,0.8-5.4,1.9c-1.8,0.5-3.7,1-5.5,1.5c-2.4,0.5-4.8,1.1-7.2,1.6c-2.7,0.5-5.3,0.9-8,1.4c-3.9,0.1-7.8,0.1-11.8,0.2
			c-0.9-0.6-1.7-1.3-2.6-1.9c-7.3-7.9-9.8-17.5-9.9-27.9c0.5-3.9-0.8-7.9,0.8-11.7c0.6-3.6,1.2-7.1,1.8-10.7
			c1.7-2.5,0.6-5.7,2.2-8.2c0.8-2.7,1.7-5.5,2.5-8.2c1.1-1.5,1.6-3.3,1.9-5.1c1.9-1.7,1.1-4.6,2.6-6.4c1.4-1.8,2.2-3.9,2.9-6.1
			C77.7,295.6,78.5,293.9,79.3,292.3z"/>
		<path class="st3" d="M191.1,299.5c3.3-10,5.8-20.1,5.8-30.8c0-9.6-1.6-18.8-5.8-27.5c-0.5-0.9-1-1.9-0.7-3
			c9.8,10.5,20.6,20.3,27.4,33.1c9.5,18,8.2,36.7,1.8,55.4c-1.7,0-2.7-1.1-3.7-2.2c-6.7-7.5-13.5-15-20.2-22.7
			C194.4,300.3,193.1,299.3,191.1,299.5z"/>
		<path class="st4" d="M191.1,299.5c2-0.1,3.2,0.9,4.5,2.3c6.7,7.6,13.4,15.1,20.2,22.7c1,1.1,2.1,2.2,3.7,2.2
			c-2,7.7-5.6,14.7-9.6,21.5c-0.7-0.3-1.5-0.4-2-0.9c-5.8-6-11.8-11.9-17.1-18.3c-2.8-3.5-6.7-6-8.8-10.1
			C185.1,312.4,188.1,305.9,191.1,299.5z"/>
		<path class="st5" d="M182.1,318.9c2.1,4.1,6,6.6,8.8,10.1c5.3,6.4,11.3,12.3,17.1,18.3c0.5,0.5,1.3,0.6,2,0.9
			c-2.7,5.2-6,10-9.8,14.4c-1,0-1.7-0.4-2.4-1.1c-5.2-5.7-10.4-11.5-15.7-17.2c-3.4-3.6-6.5-7.7-10.7-10.5
			C175,328.8,178.5,323.9,182.1,318.9z"/>
		<path class="st6" d="M171.4,333.8c4.2,2.9,7.2,6.9,10.7,10.5c5.3,5.7,10.5,11.5,15.7,17.2c0.6,0.7,1.4,1.1,2.4,1.1
			c-2.9,4.2-5.8,8.5-10.7,10.7c-8-9-15.9-18-23.9-26.9c-1.2-1.3-2.3-2.8-4.3-2.9C164.9,340.6,168.4,337.4,171.4,333.8z"/>
		<path class="st7" d="M62.3,353.7c0.1,10.4,2.6,20.1,9.9,27.9c-1.4,0.9-0.9,2.4-1,3.6c-1.9-0.2-3.4-1.1-4.6-2.4
			c-4.2-4.6-8.3-9.3-12.5-13.8c-3.2-3.4-5.4-7.9-10.5-9c0.2-6.6,1.6-12.9,3.9-19.1c3.2,0.6,4.7,3.3,6.7,5.6
			C56.6,349.2,58.5,352.5,62.3,353.7z"/>
		<path class="st8" d="M109.1,373.7c-8.4-0.1-14.2-4.8-19-11c-3.6-4.8-5.9-10.3-6.9-16.2c1.8,0.5,3.7,1.1,5.5,1.4
			c7.2,1.5,13.8,5.5,21.3,5.7C108.7,360.3,109.4,367,109.1,373.7z"/>
		<path class="st2" d="M43.6,360c5.1,1.1,7.3,5.6,10.5,9c4.3,4.5,8.3,9.2,12.5,13.8c1.2,1.4,2.8,2.2,4.6,2.4c-0.6,2.1-1,4.3-1,6.5
			c0,3.4-1.5,5.7-5.4,5.2c-1.9-1.2-3.1-3.1-4.7-4.7c-5.2-5.3-9.1-11.7-15.1-16.1C44.1,370.8,42.5,365.5,43.6,360z"/>
		<path class="st9" d="M110,353.6c-7.5-0.3-14.1-4.3-21.3-5.7c-1.9-0.4-3.7-1-5.5-1.4c-1.5-4.7-1.4-9.6-1.1-14.4
			c2.3-0.3,4.3,0.8,6.5,1.4c5.3,1.4,10.2,4.4,15.9,4c2.2,2.4,4.3,4.9,6.5,7.3C111.5,347.8,110,350.6,110,353.6z"/>
		<path class="st8" d="M74.9,383.5c3.9-0.1,7.8-0.1,11.8-0.2c-0.1,1.4,0.3,2.6,1.3,3.7c6.2,6.7,12.2,13.5,18.4,20.2
			c1.9,2.1,4,4.1,4.7,6.9c-6,2.7-10.1,0-14-4.5c-6.8-7.9-13.8-15.7-20.7-23.5C75.6,385.4,74.9,384.6,74.9,383.5z"/>
		<path class="st9" d="M111,414.1c-0.7-2.9-2.7-4.9-4.7-6.9c-6.2-6.7-12.3-13.5-18.4-20.2c-1-1.1-1.4-2.3-1.3-3.7
			c2.7-0.5,5.3-0.9,8-1.4c5.5,7.6,12.1,14.2,18.4,21.2c2.9,3.2,6,6.2,7.9,10.1C117.7,413.9,114.4,414.3,111,414.1z"/>
		<path class="st8" d="M125.4,351.1c3.3,0.3,6.6,0.6,9.9,1c-0.1,2.6,1.7,4.4,3.2,6.1c4.4,4.9,9.1,9.4,13.3,14.4
			c2.7,3.2,6.3,5.8,7.8,10c-4.1,0.1-8-0.8-11.7-2.8c-0.4-0.8-0.5-1.7-1.1-2.4c-5.3-6-10.7-12-16.1-18
			C128.6,357,125.8,354.8,125.4,351.1z"/>
		<path class="st10" d="M120.9,413.1c-1.9-3.9-5-6.9-7.9-10.1c-6.3-6.9-13-13.5-18.4-21.2c2.4-0.5,4.8-1.1,7.2-1.6
			c4.3,7.1,10.9,12.1,15.9,18.5c3.4,4.3,7.9,7.6,10.4,12.5C125.7,412,123.3,412.5,120.9,413.1z"/>
		<path class="st6" d="M121.8,372.5c3.2-2.8,5.4-2.3,8.3,1.2c6.5,8,13.7,15.6,20.4,23.4c4.2,4.8,4.1,4.9-2.5,7.2
			c0-0.9-0.4-1.7-1-2.4c-6.9-7.5-13.7-14.9-20.6-22.4C124.4,377.4,122.5,375.4,121.8,372.5z"/>
		<path class="st11" d="M112.7,376.9c1.5-0.6,3-1.2,4.5-1.8c4.9,7.1,11.4,12.7,16.8,19.3c3.2,3.9,7.4,7,9.5,11.7
			c-1.5,1.5-3.5,1.7-5.4,1.9c0-1.1-0.5-2-1.2-2.8c-6.5-7.1-13-14.3-19.6-21.4C115.3,381.8,113.4,379.8,112.7,376.9z"/>
		<path class="st12" d="M145.3,351c1.8-0.6,3.6-1.2,5.4-1.7c0.4,0.8,0.6,1.7,1.1,2.4c5,5.7,10.3,11.1,15,17c3.1,4,8,6.7,9.2,12.1
			c-1.2,1.4-3,0.7-4.5,1c-5.8-7.4-12.4-14-18.6-21C150.1,357.6,147,354.9,145.3,351z"/>
		<path class="st13" d="M112.7,376.9c0.7,2.9,2.6,4.9,4.6,7c6.6,7.1,13.1,14.3,19.6,21.4c0.7,0.8,1.2,1.7,1.2,2.8
			c-1.3,1.1-2.8,1.6-4.5,1.6c-5.4-7.2-11.9-13.3-17.8-20.1c-3-3.5-6.6-6.4-8.5-10.8C109,377.7,110.8,377.3,112.7,376.9z"/>
		<path class="st9" d="M45.1,376.2c6,4.4,10,10.8,15.1,16.1c1.5,1.6,2.8,3.5,4.7,4.7c3,3.6,6,7.2,9.7,11.7
			c-4.8-1.1-7.6-3.4-10.1-5.7c-6.8-6.1-13-12.8-18.6-20c-2.7-3.5-6.7-6-7.9-10.6C40.4,373.7,42.7,374.9,45.1,376.2z"/>
		<path class="st13" d="M176,380.7c-1.2-5.5-6-8.2-9.2-12.1c-4.7-5.9-10-11.3-15-17c-0.6-0.6-0.7-1.6-1.1-2.4c1.5-0.7,3-1.3,4.5-2
			c0.5,3.5,3.6,5.1,5.6,7.4c6.9,8,14.3,15.7,21.5,23.5C180.5,379.7,178.2,380.2,176,380.7z"/>
		<path class="st12" d="M107.3,378.8c1.8,4.4,5.5,7.3,8.5,10.8c5.8,6.8,12.3,12.9,17.8,20.1c-1.6,1.2-3.6,1.2-5.4,1.7
			c-2.5-5-7-8.3-10.4-12.5c-5-6.4-11.6-11.4-15.9-18.5C103.7,379.8,105.5,379.3,107.3,378.8z"/>
		<path class="st9" d="M159.7,382.6c-1.5-4.2-5.1-6.8-7.8-10c-4.2-5-8.9-9.5-13.3-14.4c-1.5-1.7-3.3-3.5-3.2-6.1
			c1.8-0.1,3.6-0.1,5.4-0.2c0.2,2.1,1.4,3.6,2.7,5c4.3,4.6,9,8.9,12.8,13.9c3.2,4.2,8.1,7.2,9.8,12.7
			C163.9,383.2,161.6,384.2,159.7,382.6z"/>
		<path class="st14" d="M143.5,406.1c-2.1-4.8-6.3-7.8-9.5-11.7c-5.4-6.6-11.9-12.2-16.8-19.3c0.3-0.5,0.6-1,1-1.5
			c1.2-0.4,2.4-0.7,3.6-1.1c0.7,2.9,2.7,4.9,4.6,7c6.9,7.4,13.7,14.9,20.6,22.4c0.6,0.7,1,1.5,1,2.4
			C146.8,405.5,145.2,405.9,143.5,406.1z"/>
		<path class="st11" d="M182.3,378c-7.2-7.8-14.6-15.4-21.5-23.5c-2-2.3-5.2-3.9-5.6-7.4c1.2-0.7,2.3-1.4,3.5-2
			c2.2,2.6,4.3,5.3,6.6,7.8c6.8,7.5,13.8,14.9,20.7,22.3C185.2,376.9,184,377.8,182.3,378z"/>
		<path class="st14" d="M186,375.4c-6.9-7.4-13.8-14.8-20.7-22.3c-2.3-2.5-4.4-5.2-6.6-7.8c0.8-0.5,1.7-1.1,2.5-1.6
			c2,0.1,3.2,1.6,4.3,2.9c8,9,15.9,17.9,23.9,26.9C188.3,374,187.6,375.5,186,375.4z"/>
		<path class="st10" d="M166,383.4c-1.7-5.4-6.5-8.4-9.8-12.7c-3.8-5-8.4-9.3-12.8-13.9c-1.4-1.4-2.5-3-2.7-5c1.5-0.3,3-0.6,4.5-0.9
			c1.7,3.9,4.8,6.7,7.6,9.7c6.2,7,12.9,13.6,18.6,21C169.7,382.3,167.9,382.8,166,383.4z"/>
		<path class="st7" d="M125.4,351.1c0.4,3.7,3.2,5.9,5.4,8.4c5.3,6,10.7,11.9,16.1,18c0.6,0.6,0.7,1.6,1.1,2.4
			c-3.1-0.4-5.7-2.3-7.7-4.4c-7.1-7.6-13.9-15.6-20.8-23.4c-0.8-0.9-1.5-1.9-1.2-3.2C120.7,349.5,123.1,350.3,125.4,351.1z"/>
		<path class="st3" d="M190.4,238.2c-0.7-0.1-0.9-0.6-0.9-1.2C189.7,237.4,190,237.8,190.4,238.2z"/>
		<path class="st10" d="M104.5,337.4c-5.7,0.4-10.6-2.6-15.9-4c-2.1-0.6-4.2-1.7-6.5-1.4c-0.1-2.8-0.3-5.5,0.6-8.2
			c2.3-0.1,4.3,0.7,6.4,1.4c3.4,1,6.5,2.8,10.3,2.2C100.5,331.1,102.9,334,104.5,337.4z"/>
		<path class="st12" d="M99.5,327.4c-3.7,0.6-6.9-1.2-10.3-2.2c-2.1-0.6-4.2-1.5-6.4-1.4c0.2-2.7,0-5.5,1.2-8
			c4.5,1.2,9,2.4,13.5,3.6C98.1,322,98.8,324.7,99.5,327.4z"/>
		<path class="st6" d="M89.1,294.9c0.6-4,3-7.5,3.1-11.6c4.1,0.9,4.8,5.4,8,7.3c-0.2,2.2-0.8,4.3-1.7,6.3
			C95.2,296.8,92.4,294.6,89.1,294.9z"/>
		<path class="st11" d="M85.3,309.3c0.2-2.5,0.8-4.9,1.7-7.3c3.4,1,6.8,1.9,10.3,2.9c-0.1,2.4-0.2,4.8-0.3,7.2
			C92.8,312.5,89.3,310,85.3,309.3z"/>
		<path class="st13" d="M85.3,309.3c4,0.7,7.5,3.2,11.7,2.8c0.2,2.4,0.3,4.8,0.5,7.2c-4.5-1.2-9-2.4-13.5-3.6
			C83.9,313.5,84.7,311.4,85.3,309.3z"/>
		<path class="st14" d="M97.3,304.9c-3.4-1-6.8-1.9-10.3-2.9c0.7-2.4,1.3-4.8,2-7.1c3.4-0.3,6.2,1.9,9.5,1.9
			C98.1,299.6,97.7,302.2,97.3,304.9z"/>
		<path class="st7" d="M79.3,292.3c-0.8,1.6-1.6,3.3-2.4,4.9c-1.1-1.1-2.2-2.3-3.4-3.3c-0.9-0.8-0.9-3.2-3.1-1.8
			c-3.3,1.6-6.7,3.2-10,4.8c-1.2-4.3-6.3-5.8-7.3-10.1c2.9-3.6,6.1-6.7,10-9.3c5.4,2.5,7.5,8.3,11.9,11.8
			C76.4,290.4,77.3,292.2,79.3,292.3z"/>
		<path class="st8" d="M62.3,353.7c-3.9-1.1-5.8-4.5-8.2-7.2c-1.9-2.2-3.4-4.9-6.7-5.6c0.8-3.6,1.9-7.1,3.7-10.3
			c2.1,2.2,4.3,4.4,6.2,6.8c1.5,1.9,2.9,4.2,5.7,4.6C61.5,345.8,62.8,349.8,62.3,353.7z"/>
		<path class="st9" d="M63.1,341.9c-2.8-0.4-4.2-2.8-5.7-4.6c-1.9-2.4-4.1-4.6-6.2-6.8c0.6-2.7,1.8-5.2,3.2-7.6c2,0.1,2.9,1.9,4.2,3
			c2.1,1.7,3.5,4.5,6.4,5.3C64.3,334.8,63.7,338.4,63.1,341.9z"/>
		<path class="st8" d="M53.2,286.7c1.1,4.4,6.2,5.8,7.3,10.1c-2.3,1.5-4.6,3-6.9,4.6c-3.4-1.1-5.7-3.3-6.8-6.8
			C48.3,291.5,50.6,289,53.2,286.7z"/>
		<path class="st10" d="M64.9,331.2c-2.9-0.8-4.2-3.5-6.4-5.3c-1.3-1.1-2.2-2.9-4.2-3c0.8-2.6,2-5,3.5-7.2c4.2,1.1,5.5,5.7,9.3,7.3
			C65.5,325.6,66.6,328.8,64.9,331.2z"/>
		<path class="st13" d="M67.1,323.1c-3.7-1.6-5.1-6.2-9.3-7.3c0.7-2.7,2.2-4.9,3.7-7.2c3.8,0.7,4.6,5.2,8.1,6.3
			C68.8,317.6,67.9,320.3,67.1,323.1z"/>
		<path class="st9" d="M46.8,294.7c1.1,3.4,3.3,5.7,6.8,6.8c-2.8,2.4-5.6,4.7-8.4,7.1c-2.3-0.2-3.4-2-4.5-3.6
			C42.2,301.2,44.1,297.7,46.8,294.7z"/>
		<path class="st11" d="M69.6,314.9c-3.5-1.1-4.3-5.6-8.1-6.3c0.8-2.1,1.8-4,3.3-5.7c2.2,2.3,5.1,3.9,6.6,6.8
			C71.2,311.6,70.7,313.3,69.6,314.9z"/>
		<path class="st6" d="M70.5,292.1c2.2-1.4,2.2,1,3.1,1.8c1.2,1.1,2.3,2.2,3.4,3.3c-0.7,2.2-1.5,4.3-2.9,6.1c-1.9-2-4.6-3.3-5.7-6.1
			C68.4,295.2,70.7,294.2,70.5,292.1z"/>
		<path class="st14" d="M68.4,297.2c1.1,2.8,3.8,4,5.7,6.1c-1.5,1.9-0.8,4.7-2.6,6.4c-1.6-2.9-4.4-4.6-6.6-6.8
			C65.5,300.7,66.8,298.8,68.4,297.2z"/>
		<path class="st12" d="M40.6,304.9c1.1,1.7,2.2,3.4,4.5,3.6c-2.3,2.5-4.6,5-6.9,7.4c-0.5,0.5-0.9,1.8-2,1.2
			c-1.4-0.8-0.4-1.9-0.1-2.7C37.3,311.1,38.4,307.7,40.6,304.9z"/>
	</g>
	<g>
		<path d="M363.9,347.3c-10.1-0.3-22.5-2.9-31.9-13.5c-1.9-2.2-2.3-3.3,0.6-4.7c2.6-1.3,5-3.2,7.5-4.8c2.2-1.4,4.3-3.7,6.7-4.1
			c2.6-0.5,3.2,3.3,5.3,4.5c7.3,4.2,15.1,5.9,23.3,3.4c2.2-0.6,4-2,3.9-4.7c-0.1-2.6-1.9-3.8-4.2-4.4c-7-1.6-14-3-21-4.8
			c-11.5-2.9-17.8-9.9-18.2-19.7c-0.5-10.9,5.2-19.7,16.4-23.4c16.7-5.4,32.6-3.9,46.8,7.3c2.4,1.9,3.4,3.5,0,5.5
			c-1.7,1-3.1,2.6-4.7,3.9c-2,1.7-3.8,3.9-6.2,5c-3.1,1.4-3.8-2.6-6.2-3.6c-5.3-2.1-10.7-3.4-16.4-2.9c-2.8,0.2-6,0.9-6.3,4.4
			c-0.3,3.7,2.9,4.4,5.7,5c7.2,1.5,14.5,2.4,21.4,4.8c10.4,3.6,15.5,9.6,15.8,18.5c0.3,11.3-5.1,20.2-14.8,24.2
			C380.5,346.4,375.6,347.4,363.9,347.3z"/>
		<path d="M433.2,308.2c0,10.9-0.2,21.8,0.1,32.7c0.1,3.6-1.1,4.5-4.5,4.3c-5.3-0.3-10.6-0.2-15.9,0c-2.4,0.1-3.7-0.3-3.6-3.2
			c0.1-22.6,0.1-45.2,0-67.8c0-2.6,1-3.2,3.3-3.1c5.8,0.1,11.5,0.2,17.3,0c2.7-0.1,3.5,0.8,3.4,3.5
			C433.1,285.7,433.2,296.9,433.2,308.2z"/>
		<path class="st15" d="M462.4,346.5c-13,0-20-4.5-22.6-13.4c-0.9-3.1-0.3-4.3,2.9-4.5c3.2-0.3,5.5-1,6.6,3.9
			c1.8,7.9,17.3,10.7,22.8,4.6c3.4-3.8,1.7-9.8-3.2-11.3c-5.8-1.8-11.9-2.4-17.6-4.5c-7.3-2.7-10.4-6.5-10.3-12.7
			c0.1-6.3,4.3-11.2,11.3-13.2c10.6-3,21.2-0.1,26.1,7.3c0.3,0.5,0.8,1,1,1.6c0.6,2,3,4.4,1.2,5.9c-1.7,1.4-4.7,1.2-7.2,1.4
			c-1.5,0.1-1.2-1.5-1.5-2.5c-2-7.8-14.4-11.3-20.2-5.6c-3.7,3.6-2.5,8.3,2.8,10.2c4.4,1.5,9,2.5,13.5,3.8c2.1,0.6,4.2,1.2,6.2,2.1
			c4.8,2,8.1,5.1,8.3,10.7c0.2,6.1-2.3,10.5-7.5,13.4C470.6,345.8,466.1,346.9,462.4,346.5z"/>
		<path class="st16" d="M545,323.4c0-5.6-0.2-11.3,0.1-16.9c0.1-3.2-0.9-4.6-4.2-4.2c-2.6,0.3-4.4,0-4.4-3.6c0.1-3.6,2.2-3.3,4.4-3
			c3.3,0.4,4.4-1,4.2-4.2c-0.3-3.4,0-6.8,0.6-10.2c1.4-7.8,9-12,16.7-9.4c2.7,0.9,2,2.7,2,4.5c0,2.2-1.5,1.8-3,1.7
			c-6.3-0.1-8,1.6-8.1,7.9c0,0.8,0,1.6,0,2.3c0,6.7,0,6.8,6.6,7.2c2.4,0.2,2.8,1.2,2.8,3.2c0,2.1-0.2,3.4-2.9,3.6
			c-6.5,0.3-6.5,0.5-6.5,6.9c0,10.6-0.1,21.2,0.1,31.9c0,2.9-0.6,4.2-3.9,4.1c-3-0.1-4.7-0.6-4.6-4.1
			C545.2,335.3,545,329.4,545,323.4z"/>
		<path class="st17" d="M574.8,322.2c0-5.3-0.2-10.6,0.1-15.9c0.1-3.1-1-4.3-4-3.9c-2.6,0.3-4.4,0-4.4-3.5c0.1-3.5,2.2-3.3,4.3-3.1
			c3.5,0.4,4.3-1.2,4.1-4.3c-0.2-2.2,0.2-4.4-0.1-6.5c-0.6-4.2,1.1-5.5,5.2-5.2c2.6,0.2,3.7,0.9,3.5,3.5c-0.1,1.7,0,3.4,0,5.1
			c0,6.5,0,6.7,6.6,7.2c2.5,0.2,2.6,1.6,2.6,3.4c0,1.9-0.2,3.5-2.7,3.3c-1.2-0.1-2.5,0.1-3.7,0c-2-0.1-2.8,0.8-2.8,2.8
			c0.1,9.8,0,19.6,0,29.5c0,4.2,2.6,4.8,6,4.3c1.1-0.2,3.1-1.7,3.1,1c0,1.9,1.2,4.7-2,5.4c-2.4,0.5-4.9,0.9-7.4,0.8
			c-5.9-0.3-8.2-2.8-8.3-8.9c0-0.3,0-0.6,0-0.9C574.8,331.5,574.8,326.8,574.8,322.2z"/>
		<path d="M292,268.2c-24.3-0.1-40.4,15.8-40.4,39.9c0,24,15.5,39.4,39.6,39.4c24.3,0,40.2-15.9,40.2-40.1
			C331.4,283.8,315.9,268.3,292,268.2z M304.7,321c-3.3,5.8-8.9,8.4-15.8,7.5c-6.4-0.9-10.8-5-12.4-11.6c-1.4-5.7-1.4-11.4-0.1-17.1
			c1.8-8,7.4-12.7,15-12.8c7.9-0.1,13.6,4.5,15.6,12.6c0.7,2.6,0.8,5.2,0.8,7.9C307.9,312.3,307.1,316.8,304.7,321z"/>
		<path class="st15" d="M520,295.7c-19.2-6.4-35.7,5.9-33.8,27.8c1.8,21.1,18.5,25.9,32.5,21.7c10.5-3.1,15.9-12.3,15.9-25.3
			C534.6,307.7,529.3,298.8,520,295.7z M525.2,320.2c0,7.6-1.1,14.8-9,18.4c-8.3,3.8-17.9-1.2-20-10.1c-1.3-5.6-1-11.1,0.2-16.6
			c1.5-7.1,7.6-11.1,15.8-10.7c7.1,0.3,12,5.3,12.9,13.5C525.4,316.5,525.2,318.4,525.2,320.2z"/>
	</g>
</g>
</svg>
