<?xml version="1.0" encoding="utf-8"?>
<!-- Generator: Adobe Illustrator 23.0.2, SVG Export Plug-In . SVG Version: 6.00 Build 0)  -->
<svg version="1.1" id="Layer_1" xmlns="http://www.w3.org/2000/svg" xmlns:xlink="http://www.w3.org/1999/xlink" x="0px" y="0px"
	 viewBox="0 0 640 500" style="enable-background:new 0 0 640 500;" xml:space="preserve">
<style type="text/css">
	.st0{fill:#4099D2;}
	.st1{fill:#FCFDFD;}
	.st2{fill:#F9FBFC;}
	.st3{fill:#F7FAFB;}
	.st4{fill:#F6F9FB;}
	.st5{fill:#F2F7FA;}
	.st6{fill:#F5F8FB;}
	.st7{fill:#F4F8FA;}
	.st8{fill:#F0F7F9;}
	.st9{fill:#E9F2F7;}
	.st10{fill:#358FCC;}
	.st11{fill:#449AD2;}
	.st12{fill:#489CD3;}
</style>
<g>
	<g>
		<path class="st0" d="M319.5,222.1c-105.2,0-210.3,0-315.5,0.1c-3.4,0-4.1-0.7-4.1-4.1C0,146.8,0,75.4-0.1,4.1C-0.1,0.7,0.6,0,4,0
			c210.7,0.1,421.3,0.1,632,0c3.4,0,4.1,0.7,4.1,4.1c-0.1,71.3-0.1,142.7,0,214c0,3.4-0.7,4.1-4.1,4.1
			C530.5,222.1,425,222.1,319.5,222.1z M481.5,136.2c2.1-0.3,1.5-2,1.5-3.1c0-15.6,0-31.3,0-46.9c0-1.2,0.6-2.9-1.5-3.1
			c-1-2.7-3.3-2-5.1-1.7c-2.4,0.4-1.5,2.7-1.5,4.1c-0.1,16-0.1,31.9,0,47.9c0,1.5-0.9,3.7,1.4,4.2
			C478.1,138,480.3,138.7,481.5,136.2z M244.4,137.5c7.5,3.6,12.1,0.8,12.1-7.3c0-13,0-25.9,0-38.9c0-11.6-0.3-11.8-12.1-9.6
			c-1.5,1.8-1.4,4-1.4,6.2c0,14.5,0,28.9,0,43.4C243,133.5,243,135.7,244.4,137.5z M38.9,122.9c-0.2,9.7,2.8,18.3,8.4,26.1
			c6.9,9.8,16.9,15.1,27.5,19.9c15.6,6.9,31.8,2.5,47.3,1.2c24.1-1.9,44.2-26.3,45.5-50.5c1-18.5-8.9-32.2-26.1-36.2
			c-2.8-0.7-4.9-0.5-7.1,1.9c-4.4,5-10.1,7.6-16.8,7.1c-1.9-0.2-2.9,0.5-4,2c-8.1,10-18.9,15.6-31.3,18.1c-6.2,1.2-10-2.4-9.6-8.7
			c0.2-3.3,0.9-6.6,1.4-9.9c0.8-4.9-4.2-9.5-8.7-7.6C48.1,93.8,38.8,104,38.9,122.9z M85,84.3c-3.4,5.8-4.6,11.6-5,17.6
			c-0.2,3.6,1.1,4.3,4.4,3.5C95,103,103.5,97.6,109,88.1c1.5-2.6,3-3.3,5.8-3.1c12,0.6,20.1-5.3,23.2-16.8c1.4-5,1.1-5.3-3.8-4.4
			c-7.8,1.4-15.1,4.1-22.1,7.6c-3.5,1.7-5,2.2-5.4-2.7c-0.5-6.8-2.7-13.3-4.5-19.9c-0.9-3.6-2.2-3.2-4.6-1.3
			c-1.7,1.3-1.4,2.8-1.2,4.4c0.7,4.8,0.8,9.6,0.7,14.5c-0.1,2.7-0.7,4.1-3.9,2.4c-8.5-4.4-17.8-5-27.2-4.9c-2.7,0-3.1,1-2.1,3.3
			C67.9,76.3,74,83,85,84.3z M199.6,111.1c0,6.7,0,13.3,0,20c0,7.9-0.6,6.7,7.1,6.8c0.3,0,0.7,0,1,0c3.2,0.5,4.7-0.9,4.3-4.2
			c-0.1-1.1,0-2.3,0-3.5c0-9.2,0-9.2,9-10c10.4-0.9,17.3-8.3,17.2-18.3c-0.1-10.1-7.2-17.3-17.7-17.8c-5.3-0.3-10.7,0.1-16-0.2
			c-3.6-0.2-5,0.8-4.9,4.7C199.8,96.1,199.6,103.6,199.6,111.1z M319.9,102c-0.8-7.6-6.1-4.3-9.6-4.7c-3.9-0.4-2.6,3.1-2.7,5
			c-0.1,10.3,0.2,20.6-0.2,30.9c-0.2,5,2.5,4.8,5.9,4.6c3-0.1,6.4,0.9,6.1-4.4c-0.4-6.5-0.2-13,0.2-19.4c0.4-5.1,3.4-7.9,7.5-7.6
			c5.1,0.4,6,4,6,8.1c0,6.5,0.1,13,0,19.5c0,2.6,0.5,4.2,3.6,3.9c1.6-0.2,3.3-0.1,5,0c2.4,0.1,3.2-0.9,3.2-3.2
			c-0.1-8.5,0.2-17-0.2-25.4c-0.5-9.4-8.2-14.4-17.2-12C324.6,98,322.5,99.9,319.9,102z M268.4,109c6-2.6,10.9-3.5,14.1-2.7
			c2.9,0.7,4.2,2.7,4,5.5s-2.6,1.9-4.2,2.1c-2.6,0.3-5.3,0.3-7.9,0.8c-6.1,1.3-9.5,5-9.7,10.4c-0.2,4.4,1,8.4,4.9,10.8
			c4.6,2.8,9.4,2.9,14.2,0.5c1-0.5,2.6-2.1,2.8-1.4c1.6,4.9,5.6,2.2,8.4,2.8s3.8-0.9,3.7-3.7c-0.1-7.8,0.1-15.6-0.2-23.4
			c-0.3-8.8-4.4-12.9-13.2-13.9c-2.6-0.3-5.3-0.3-7.9-0.1c-9.8,0.8-10.6,1.9-9.6,11.6C267.8,108.4,268,108.6,268.4,109z
			 M558.6,132.1c1.4,9.8-2.9,15-12.6,15c-2.7,0-5.3-0.6-7.8-1.3c-1.2-0.3-2.9-2.2-3.5,0.4c-0.4,1.8-0.7,3.8,1.7,5.2
			c13,7.1,28.8-1.3,29.3-16c0.4-11.5,0-23,0.2-34.4c0.1-4.3-2.4-4-5.2-3.6c-2.5,0.4-0.6,3.3-2.2,4.3c-7.9-6.4-16.3-6.5-22.3-0.3
			c-6.9,7.2-7.6,22.2-1.4,29.6C540.6,137.9,549.5,138.3,558.6,132.1z M361.8,87.9c-4.9-1.5-6.5,0.7-5.8,5.5c0.4,2.7-0.7,4-3.6,3.8
			c-2.6-0.2-2.4,1.9-2.2,3.5c0.2,1.8-1.2,4.9,1.6,4.9c4.8,0,4.3,2.9,4.2,5.9c-0.1,4.2-0.1,8.3,0,12.5c0.2,11.1,9,17.3,19.5,13.6
			c4.3-1.5,2.2-5,2.4-7.7c0.2-3.6-2.4-1.6-3.9-1.4c-4.2,0.4-6.3-1.1-6.2-5.5c0.1-4.3,0.2-8.7,0-13c-0.2-3.3,1-4.5,4.3-4.2
			c3.1,0.4,5.2,0,5.3-4.3c0.1-4.7-2.4-4.8-5.6-4.5c-3.1,0.3-4.4-0.9-3.9-4C368.6,88.5,366.7,86.7,361.8,87.9z M405.9,130.9
			c-1.2-3.2-1.9-5.1-2.6-7c-3.8-11.9-7.8-23.7-11.3-35.7c-1.2-4.1-3.7-5.3-6.9-4c-3.1,1.2-0.3,3.8,0.2,5.4
			c4.8,14.7,9.9,29.3,14.8,44c0.9,2.8,2,4.5,5.5,4.4c3.2-0.1,4.6-1,5.7-4.1c5.2-15.3,10.6-30.5,15.9-45.7c1.4-4.1,0.6-4.9-3.7-4.3
			c-1.9,0.2-2.4,1.4-2.9,2.9c-1.2,3.6-2.4,7.3-3.7,10.9C413.4,108.3,409.9,119,405.9,130.9z M594.6,120.2L594.6,120.2
			c3.7,0,7.3,0,11,0c1.6,0,2.8-0.3,3.2-2.2c1.8-7.6-2.8-17.2-9.7-20c-8.2-3.3-17.4-0.3-21.8,7c-4.6,7.7-4.1,19.3,1.2,26
			c5,6.4,14.7,8.9,23.7,6.3c2.9-0.8,5.2-2.2,4-5.5c-1.2-3.4-3.3-0.2-4.8,0.1c-9.2,2.1-17.3-1.2-19.8-8.2c-0.9-2.6-0.5-3.7,2.5-3.6
			C587.6,120.3,591.1,120.2,594.6,120.2z M521.8,122.3L521.8,122.3c-0.1-3.7,0.1-7.3-0.1-11C521.1,98.5,507,91.5,496,98.4
			c-2.2,1.4-2.1,3.5-1.6,5.3c0.8,2.6,2.4,0.4,3.5,0.1c3.4-1.1,6.7-1.7,10.3-1.2c4.6,0.7,6.5,3.5,6.9,7.8c0.3,2.5-0.5,3.7-3.2,3.6
			c-4.2-0.1-8.3-0.2-12.3,1.2c-5.7,2.1-8.8,6.7-8.1,12.2c0.7,6,4.8,10,10.8,10.6c3.4,0.3,6.7,0.1,9.7-1.7c1.7-1,2.7-2,4,0.8
			c0.7,1.5,3.1,0.9,4.6,0.5c1.8-0.4,1.3-2.1,1.3-3.4C521.9,130.3,521.8,126.3,521.8,122.3z M456.2,109.7c0,8.1,0,16.3,0,24.4
			c0,2.2,0.3,3.8,3.2,3.8c2.6,0,3.5-0.9,3.5-3.5c-0.1-16.6-0.1-33.2,0-49.8c0-2.5-0.8-3.6-3.4-3.6c-2.8,0-3.3,1.4-3.2,3.7
			C456.3,93.1,456.2,101.4,456.2,109.7z M444.1,117.6c0-5.7,0-11.3,0-17c0-2.1-0.4-3.5-3-3.5c-2.2,0-3.4,0.6-3.3,3.1
			c0.1,11.5,0.1,23,0,34.5c0,2.3,0.9,3.2,3.2,3.2c2.5,0,3.1-1.1,3.1-3.4C444,128.9,444.1,123.2,444.1,117.6z M441.1,88.6
			c2.4-0.3,4-1.6,4-4.2c-0.1-2.5-1.6-4.1-4-4.1c-2.7,0-4.3,1.7-4.2,4.4C437,87.3,438.7,88.4,441.1,88.6z"/>
		<path class="st1" d="M38.9,122.9c-0.1-18.9,9.2-29.1,26.5-36.5c4.5-1.9,9.5,2.7,8.7,7.6c-0.6,3.3-1.2,6.6-1.4,9.9
			c-0.4,6.3,3.4,10,9.6,8.7c12.4-2.5,23.2-8.1,31.3-18.1c1.2-1.5,2.1-2.2,4-2c6.8,0.5,12.4-2.1,16.8-7.1c2.1-2.4,4.2-2.6,7.1-1.9
			c17.2,4,27.1,17.7,26.1,36.2c-1.3,24.2-21.4,48.6-45.5,50.5c-15.5,1.2-31.7,5.7-47.3-1.2c-10.6-4.7-20.6-10.1-27.5-19.9
			C41.7,141.2,38.7,132.6,38.9,122.9z"/>
		<path class="st2" d="M85,84.3c-11.1-1.4-17.1-8-21.1-17C62.9,65,63.3,64,66,64c9.4-0.1,18.7,0.5,27.2,4.9c3.2,1.6,3.8,0.3,3.9-2.4
			c0.2-4.8,0-9.7-0.7-14.5c-0.2-1.6-0.5-3.1,1.2-4.4c2.4-1.9,3.7-2.3,4.6,1.3c1.7,6.6,4,13.1,4.5,19.9c0.4,4.9,1.9,4.4,5.4,2.7
			c7-3.5,14.3-6.3,22.1-7.6c5-0.9,5.2-0.6,3.8,4.4c-3.1,11.5-11.1,17.4-23.2,16.8c-2.9-0.1-4.3,0.6-5.8,3.1
			c-5.5,9.5-14,14.9-24.6,17.3c-3.3,0.7-4.6,0.1-4.4-3.5C80.4,95.9,81.6,90.1,85,84.3z"/>
		<path class="st2" d="M199.6,111.1c0-7.5,0.2-15-0.1-22.5c-0.2-3.9,1.2-4.9,4.9-4.7c5.3,0.3,10.7-0.1,16,0.2
			c10.5,0.5,17.6,7.7,17.7,17.8c0.1,10.1-6.8,17.4-17.2,18.3c-9,0.8-9,0.8-9,10c0,1.2-0.1,2.3,0,3.5c0.4,3.3-1,4.6-4.3,4.2
			c-0.3,0-0.7,0-1,0c-7.7-0.1-7,1-7.1-6.8C199.6,124.4,199.6,117.7,199.6,111.1z M211.9,102L211.9,102c0,2,0,4,0,6
			c0,1.3,0.3,2.4,1.8,2.5c3,0.2,6.1,0.4,8.6-1.6c3.4-2.8,4.1-6.4,2.5-10.3c-1.5-3.7-6-5.7-10.6-4.5c-4.4,1.2-1.4,5-2.3,7.5
			C211.9,101.6,211.9,101.8,211.9,102z"/>
		<path class="st3" d="M319.9,102c2.7-2.1,4.8-3.9,7.6-4.7c9.1-2.5,16.7,2.5,17.2,12c0.5,8.5,0.1,17,0.2,25.4c0,2.3-0.9,3.4-3.2,3.2
			c-1.7-0.1-3.3-0.2-5,0c-3.1,0.3-3.6-1.3-3.6-3.9c0.1-6.5,0-13,0-19.5c0-4.2-0.9-7.8-6-8.1c-4-0.3-7.1,2.5-7.5,7.6
			c-0.4,6.5-0.6,13-0.2,19.4c0.3,5.4-3,4.3-6.1,4.4c-3.4,0.2-6.1,0.4-5.9-4.6c0.4-10.3,0-20.6,0.2-30.9c0-2-1.3-5.5,2.7-5
			C313.7,97.7,319,94.4,319.9,102z"/>
		<path class="st4" d="M268.4,109c-0.4-0.5-0.5-0.6-0.5-0.7c-1-9.7-0.2-10.8,9.6-11.6c2.6-0.2,5.3-0.2,7.9,0.1
			c8.8,1,12.8,5.2,13.2,13.9c0.3,7.8,0,15.6,0.2,23.4c0,2.8-1,4.3-3.7,3.7c-2.8-0.6-6.8,2.2-8.4-2.8c-0.2-0.7-1.8,0.9-2.8,1.4
			c-4.9,2.4-9.7,2.3-14.2-0.5c-3.9-2.4-5.1-6.4-4.9-10.8c0.3-5.3,3.6-9.1,9.7-10.4c2.6-0.6,5.3-0.5,7.9-0.8c1.7-0.2,4,0.8,4.2-2.1
			c0.2-2.8-1.1-4.8-4-5.5C279.3,105.6,274.4,106.4,268.4,109z M280.9,129.5c4,0,5.4-2.2,5.7-5.7c0.2-2.8-1.6-2.8-3.5-2.7
			c-3.2,0.1-6.1,0.7-6.2,4.7C276.8,128.7,278.8,129.4,280.9,129.5z"/>
		<path class="st5" d="M558.6,132.1c-9.2,6.2-18,5.7-23.9-1.2c-6.3-7.4-5.6-22.5,1.4-29.6c6-6.2,14.4-6.1,22.3,0.3
			c1.7-1-0.3-3.9,2.2-4.3c2.7-0.4,5.3-0.7,5.2,3.6c-0.2,11.5,0.2,23-0.2,34.4c-0.5,14.7-16.3,23.2-29.3,16c-2.4-1.3-2.1-3.4-1.7-5.2
			c0.6-2.6,2.3-0.7,3.5-0.4c2.6,0.7,5.2,1.3,7.8,1.3C555.7,147.1,560.1,141.9,558.6,132.1z M559.1,118.5c0-3.7-0.1-6-0.9-8.3
			c-1.7-4.6-4.9-7.6-9.9-7.8s-8,2.8-9.8,7.1c-1.9,4.6-2.1,9.5-0.3,14.1c1.8,4.5,5.2,7.5,10.3,7.2c5-0.3,8.3-3.1,9.7-7.9
			C558.9,121.2,559,119.2,559.1,118.5z"/>
		<path class="st3" d="M361.8,87.9c4.9-1.2,6.8,0.7,6,5.4c-0.5,3,0.8,4.3,3.9,4c3.2-0.3,5.7-0.2,5.6,4.5c-0.1,4.3-2.2,4.6-5.3,4.3
			c-3.2-0.4-4.5,0.8-4.3,4.2c0.2,4.3,0.2,8.6,0,13c-0.1,4.4,2,6,6.2,5.5c1.4-0.1,4.1-2.2,3.9,1.4c-0.2,2.6,1.9,6.2-2.4,7.7
			c-10.5,3.6-19.3-2.6-19.5-13.6c-0.1-4.2-0.1-8.3,0-12.5c0-3,0.6-5.9-4.2-5.9c-2.8,0-1.4-3.2-1.6-4.9c-0.2-1.6-0.3-3.7,2.2-3.5
			c2.9,0.2,4-1.1,3.6-3.8C355.3,88.6,356.9,86.3,361.8,87.9z"/>
		<path class="st5" d="M405.9,130.9c4-11.9,7.5-22.6,11.1-33.3c1.2-3.6,2.5-7.2,3.7-10.9c0.5-1.5,0.9-2.6,2.9-2.9
			c4.3-0.5,5.1,0.2,3.7,4.3c-5.3,15.2-10.8,30.4-15.9,45.7c-1,3.1-2.5,4-5.7,4.1c-3.5,0.1-4.5-1.6-5.5-4.4
			c-4.9-14.7-10-29.3-14.8-44c-0.5-1.6-3.3-4.2-0.2-5.4c3.2-1.2,5.7-0.1,6.9,4c3.5,12,7.5,23.8,11.3,35.7
			C404,125.8,404.8,127.7,405.9,130.9z"/>
		<path class="st6" d="M244.4,81.7c11.8-2.2,12.1-2,12.1,9.6c0,13,0,25.9,0,38.9c0,8.1-4.7,10.9-12.1,7.3
			C244.8,118.9,244.8,100.3,244.4,81.7z"/>
		<path class="st7" d="M594.6,120.2c-3.5,0-7,0.1-10.5,0c-2.9-0.1-3.4,1-2.5,3.6c2.4,7,10.5,10.3,19.8,8.2c1.4-0.3,3.5-3.5,4.8-0.1
			c1.2,3.3-1.1,4.6-4,5.5c-8.9,2.5-18.6,0-23.7-6.3c-5.3-6.7-5.8-18.2-1.2-26c4.4-7.4,13.6-10.3,21.8-7c7,2.8,11.5,12.4,9.7,20
			c-0.5,2-1.6,2.3-3.2,2.2C601.9,120.2,598.3,120.2,594.6,120.2L594.6,120.2z M591.9,114.9c2.3,0,4.6-0.2,6.9,0
			c3.4,0.3,3.9-1.3,3.4-4.2c-0.9-4.9-4.2-8-9-8.4c-5.3-0.4-9.7,2.9-11.6,8.3c-1,2.8-0.7,4.5,2.8,4.3
			C587,114.7,589.4,114.9,591.9,114.9z"/>
		<path class="st8" d="M521.8,122.3c0,4,0,8,0,12c0,1.3,0.4,2.9-1.3,3.4c-1.6,0.4-4,1-4.6-0.5c-1.2-2.7-2.3-1.8-4-0.8
			c-3,1.8-6.3,2-9.7,1.7c-6-0.6-10.1-4.6-10.8-10.6c-0.7-5.5,2.4-10.2,8.1-12.2c4-1.4,8.2-1.4,12.3-1.2c2.7,0.1,3.5-1,3.2-3.6
			c-0.4-4.3-2.3-7.1-6.9-7.8c-3.6-0.5-6.9,0.1-10.3,1.2c-1.1,0.3-2.7,2.6-3.5-0.1c-0.5-1.8-0.7-3.9,1.6-5.3
			c11-6.9,25.1,0.1,25.7,12.9C521.9,115,521.8,118.7,521.8,122.3L521.8,122.3z M515.2,123.3c0.6-2.9-0.5-4.3-4.2-4.2
			c-8.4,0.1-12.7,2.2-12.9,7c-0.1,3.9,2.9,6.6,7.6,6.8C511.4,133,515.1,129.5,515.2,123.3z"/>
		<path class="st9" d="M456.2,109.7c0-8.3,0-16.6,0-24.9c0-2.3,0.4-3.7,3.2-3.7c2.7,0,3.4,1.1,3.4,3.6c-0.1,16.6-0.1,33.2,0,49.8
			c0,2.6-0.9,3.5-3.5,3.5c-2.9,0-3.2-1.6-3.2-3.8C456.2,126,456.2,117.9,456.2,109.7z"/>
		<path class="st2" d="M481.5,136.2c-1.1,2.5-3.4,1.8-5.2,1.4c-2.3-0.5-1.4-2.7-1.4-4.2c-0.1-16-0.1-31.9,0-47.9
			c0-1.5-0.9-3.7,1.5-4.1c1.8-0.3,4.1-1,5.1,1.7c0,1.4,0,2.8,0,4.2c-0.2,0.3-0.2,0.6,0,0.8C481.5,104.1,481.5,120.1,481.5,136.2z"/>
		<path class="st4" d="M444.1,117.6c0,5.7,0,11.3,0,17c0,2.2-0.6,3.4-3.1,3.4c-2.4,0-3.2-0.9-3.2-3.2c0.1-11.5,0.1-23,0-34.5
			c0-2.5,1.1-3.1,3.3-3.1c2.6,0,3,1.3,3,3.5C444,106.3,444.1,111.9,444.1,117.6z"/>
		<path class="st10" d="M481.5,87.2c0-1.4,0-2.8,0-4.2c2.1,0.3,1.5,2,1.5,3.1c0,15.6,0,31.3,0,46.9c0,1.2,0.6,2.8-1.5,3.1
			c0-16.1,0-32.1,0-48.2C481.7,87.7,481.7,87.5,481.5,87.2z"/>
		<path class="st9" d="M441.1,88.6c-2.4-0.2-4.2-1.3-4.3-3.9c-0.1-2.7,1.5-4.4,4.2-4.4c2.4,0,4,1.6,4,4.1
			C445.2,87,443.5,88.3,441.1,88.6z"/>
		<path class="st10" d="M244.4,81.7c0.4,18.6,0.4,37.2,0,55.8c-1.5-1.8-1.4-4-1.4-6.2c0-14.5,0-28.9,0-43.4
			C243,85.7,242.9,83.6,244.4,81.7z"/>
		<path class="st11" d="M211.9,102c0-0.2,0-0.4,0-0.5c0.9-2.5-2.1-6.3,2.3-7.5c4.6-1.2,9.1,0.8,10.6,4.5c1.7,4,0.9,7.6-2.5,10.3
			c-2.5,2.1-5.6,1.8-8.6,1.6c-1.5-0.1-1.8-1.2-1.8-2.5C212,106,212,104,211.9,102L211.9,102z"/>
		<path class="st12" d="M280.9,129.5c-2.1-0.1-4.1-0.8-4.1-3.7c0.1-4,3-4.6,6.2-4.7c2-0.1,3.7,0,3.5,2.7
			C286.4,127.3,284.9,129.5,280.9,129.5z"/>
		<path class="st11" d="M559.1,118.5c-0.1,0.6-0.2,2.6-0.8,4.5c-1.4,4.8-4.7,7.6-9.7,7.9c-5.1,0.3-8.5-2.7-10.3-7.2
			c-1.8-4.7-1.6-9.5,0.3-14.1c1.7-4.3,4.8-7.3,9.8-7.1s8.2,3.2,9.9,7.8C559,112.5,559.1,114.8,559.1,118.5z"/>
		<path class="st12" d="M591.9,114.9c-2.5,0-5-0.1-7.4,0c-3.6,0.2-3.8-1.4-2.8-4.3c1.8-5.4,6.3-8.7,11.6-8.3c4.8,0.4,8.2,3.5,9,8.4
			c0.5,2.9,0,4.5-3.4,4.2C596.6,114.7,594.2,114.9,591.9,114.9z"/>
		<path class="st11" d="M515.2,123.3c-0.2,6.2-3.9,9.7-9.5,9.5c-4.7-0.2-7.7-2.9-7.6-6.8c0.2-4.8,4.5-6.9,12.9-7
			C514.7,119,515.8,120.4,515.2,123.3z"/>
		<path class="st0" d="M481.5,87.2c0.2,0.3,0.2,0.6,0,0.8C481.3,87.7,481.3,87.5,481.5,87.2z"/>
	</g>
</g>
</svg>
