<?xml version="1.0" encoding="utf-8"?>
<!-- Generator: Adobe Illustrator 23.0.2, SVG Export Plug-In . SVG Version: 6.00 Build 0)  -->
<svg version="1.1" id="Layer_1" xmlns="http://www.w3.org/2000/svg" xmlns:xlink="http://www.w3.org/1999/xlink" x="0px" y="0px"
	 viewBox="0 0 640 400" style="enable-background:new 0 0 640 400;" xml:space="preserve">
<style type="text/css">
	.st0{display:none;fill:#FFFFFF;}
	.st1{fill:#FFFFFF;}
</style>
<g>
	<path class="st0" d="M320.5,312c-105.2,0-210.3,0-315.5,0.1c-3.4,0-4.1-0.7-4.1-4.1C1,236.7,1,165.3,0.9,94c0-3.4,0.7-4.1,4.1-4.1
		c210.7,0.1,421.3,0.1,632,0c3.4,0,4.1,0.7,4.1,4.1c-0.1,71.3-0.1,142.7,0,214c0,3.4-0.7,4.1-4.1,4.1C531.5,312,426,312,320.5,312z
		 M482.5,226.1c2.1-0.3,1.5-2,1.5-3.1c0-15.6,0-31.3,0-46.9c0-1.2,0.6-2.9-1.5-3.1c-1-2.7-3.3-2-5.1-1.7c-2.4,0.4-1.5,2.7-1.5,4.1
		c-0.1,16-0.1,31.9,0,47.9c0,1.5-0.9,3.7,1.4,4.2C479.1,227.9,481.3,228.6,482.5,226.1z M245.4,227.4c7.5,3.6,12.1,0.8,12.1-7.3
		c0-13,0-25.9,0-38.9c0-11.6-0.3-11.8-12.1-9.6c-1.5,1.8-1.4,4-1.4,6.2c0,14.5,0,28.9,0,43.4C244,223.4,244,225.6,245.4,227.4z
		 M39.9,212.8c-0.2,9.7,2.8,18.3,8.4,26.1c6.9,9.8,16.9,15.1,27.5,19.9c15.6,6.9,31.8,2.5,47.3,1.2c24.1-1.9,44.2-26.3,45.5-50.5
		c1-18.5-8.9-32.2-26.1-36.2c-2.8-0.7-4.9-0.5-7.1,1.9c-4.4,5-10.1,7.6-16.8,7.1c-1.9-0.2-2.9,0.5-4,2c-8.1,10-18.9,15.6-31.3,18.1
		c-6.2,1.2-10-2.4-9.6-8.7c0.2-3.3,0.9-6.6,1.4-9.9c0.8-4.9-4.2-9.5-8.7-7.6C49.1,183.7,39.8,193.9,39.9,212.8z M86,174.2
		c-3.4,5.8-4.6,11.6-5,17.6c-0.2,3.6,1.1,4.3,4.4,3.5c10.6-2.4,19.1-7.8,24.6-17.3c1.5-2.6,3-3.3,5.8-3.1c12,0.6,20.1-5.3,23.2-16.8
		c1.4-5,1.1-5.3-3.8-4.4c-7.8,1.4-15.1,4.1-22.1,7.6c-3.5,1.7-5,2.2-5.4-2.7c-0.5-6.8-2.7-13.3-4.5-19.9c-0.9-3.6-2.2-3.2-4.6-1.3
		c-1.7,1.3-1.4,2.8-1.2,4.4c0.7,4.8,0.8,9.6,0.7,14.5c-0.1,2.7-0.7,4.1-3.9,2.4c-8.5-4.4-17.8-5-27.2-4.9c-2.7,0-3.1,1-2.1,3.3
		C68.9,166.2,75,172.9,86,174.2z M200.6,201c0,6.7,0,13.3,0,20c0,7.9-0.6,6.7,7.1,6.8c0.3,0,0.7,0,1,0c3.2,0.5,4.7-0.9,4.3-4.2
		c-0.1-1.1,0-2.3,0-3.5c0-9.2,0-9.2,9-10c10.4-0.9,17.3-8.3,17.2-18.3c-0.1-10.1-7.2-17.3-17.7-17.8c-5.3-0.3-10.7,0.1-16-0.2
		c-3.6-0.2-5,0.8-4.9,4.7C200.8,186,200.6,193.5,200.6,201z M320.9,191.9c-0.8-7.6-6.1-4.3-9.6-4.7c-3.9-0.4-2.6,3.1-2.7,5
		c-0.1,10.3,0.2,20.6-0.2,30.9c-0.2,5,2.5,4.8,5.9,4.6c3-0.1,6.4,0.9,6.1-4.4c-0.4-6.5-0.2-13,0.2-19.4c0.4-5.1,3.4-7.9,7.5-7.6
		c5.1,0.4,6,4,6,8.1c0,6.5,0.1,13,0,19.5c0,2.6,0.5,4.2,3.6,3.9c1.6-0.2,3.3-0.1,5,0c2.4,0.1,3.2-0.9,3.2-3.2
		c-0.1-8.5,0.2-17-0.2-25.4c-0.5-9.4-8.2-14.4-17.2-12C325.6,187.9,323.5,189.8,320.9,191.9z M269.4,198.9c6-2.6,10.9-3.5,14.1-2.7
		c2.9,0.7,4.2,2.7,4,5.5c-0.2,2.8-2.6,1.9-4.2,2.1c-2.6,0.3-5.3,0.3-7.9,0.8c-6.1,1.3-9.5,5-9.7,10.4c-0.2,4.4,1,8.4,4.9,10.8
		c4.6,2.8,9.4,2.9,14.2,0.5c1-0.5,2.6-2.1,2.8-1.4c1.6,4.9,5.6,2.2,8.4,2.8c2.8,0.6,3.8-0.9,3.7-3.7c-0.1-7.8,0.1-15.6-0.2-23.4
		c-0.3-8.8-4.4-12.9-13.2-13.9c-2.6-0.3-5.3-0.3-7.9-0.1c-9.8,0.8-10.6,1.9-9.6,11.6C268.8,198.3,269,198.5,269.4,198.9z M559.6,222
		c1.4,9.8-2.9,15-12.6,15c-2.7,0-5.3-0.6-7.8-1.3c-1.2-0.3-2.9-2.2-3.5,0.4c-0.4,1.8-0.7,3.8,1.7,5.2c13,7.1,28.8-1.3,29.3-16
		c0.4-11.5,0-23,0.2-34.4c0.1-4.3-2.4-4-5.2-3.6c-2.5,0.4-0.6,3.3-2.2,4.3c-7.9-6.4-16.3-6.5-22.3-0.3c-6.9,7.2-7.6,22.2-1.4,29.6
		C541.6,227.8,550.5,228.2,559.6,222z M362.8,177.8c-4.9-1.5-6.5,0.7-5.8,5.5c0.4,2.7-0.7,4-3.6,3.8c-2.6-0.2-2.4,1.9-2.2,3.5
		c0.2,1.8-1.2,4.9,1.6,4.9c4.8,0,4.3,2.9,4.2,5.9c-0.1,4.2-0.1,8.3,0,12.5c0.2,11.1,9,17.3,19.5,13.6c4.3-1.5,2.2-5,2.4-7.7
		c0.2-3.6-2.4-1.6-3.9-1.4c-4.2,0.4-6.3-1.1-6.2-5.5c0.1-4.3,0.2-8.7,0-13c-0.2-3.3,1-4.5,4.3-4.2c3.1,0.4,5.2,0,5.3-4.3
		c0.1-4.7-2.4-4.8-5.6-4.5c-3.1,0.3-4.4-0.9-3.9-4C369.6,178.4,367.7,176.6,362.8,177.8z M406.9,220.8c-1.2-3.2-1.9-5.1-2.6-7
		c-3.8-11.9-7.8-23.7-11.3-35.7c-1.2-4.1-3.7-5.3-6.9-4c-3.1,1.2-0.3,3.8,0.2,5.4c4.8,14.7,9.9,29.3,14.8,44c0.9,2.8,2,4.5,5.5,4.4
		c3.2-0.1,4.6-1,5.7-4.1c5.2-15.3,10.6-30.5,15.9-45.7c1.4-4.1,0.6-4.9-3.7-4.3c-1.9,0.2-2.4,1.4-2.9,2.9c-1.2,3.6-2.4,7.3-3.7,10.9
		C414.4,198.2,410.9,208.9,406.9,220.8z M595.6,210.1C595.6,210.1,595.6,210.1,595.6,210.1c3.7,0,7.3,0,11,0c1.6,0,2.8-0.3,3.2-2.2
		c1.8-7.6-2.8-17.2-9.7-20c-8.2-3.3-17.4-0.3-21.8,7c-4.6,7.7-4.1,19.3,1.2,26c5,6.4,14.7,8.9,23.7,6.3c2.9-0.8,5.2-2.2,4-5.5
		c-1.2-3.4-3.3-0.2-4.8,0.1c-9.2,2.1-17.3-1.2-19.8-8.2c-0.9-2.6-0.5-3.7,2.5-3.6C588.6,210.2,592.1,210.1,595.6,210.1z
		 M522.8,212.2C522.8,212.2,522.8,212.2,522.8,212.2c-0.1-3.7,0.1-7.3-0.1-11c-0.6-12.8-14.7-19.8-25.7-12.9
		c-2.2,1.4-2.1,3.5-1.6,5.3c0.8,2.6,2.4,0.4,3.5,0.1c3.4-1.1,6.7-1.7,10.3-1.2c4.6,0.7,6.5,3.5,6.9,7.8c0.3,2.5-0.5,3.7-3.2,3.6
		c-4.2-0.1-8.3-0.2-12.3,1.2c-5.7,2.1-8.8,6.7-8.1,12.2c0.7,6,4.8,10,10.8,10.6c3.4,0.3,6.7,0.1,9.7-1.7c1.7-1,2.7-2,4,0.8
		c0.7,1.5,3.1,0.9,4.6,0.5c1.8-0.4,1.3-2.1,1.3-3.4C522.9,220.2,522.8,216.2,522.8,212.2z M457.2,199.6c0,8.1,0,16.3,0,24.4
		c0,2.2,0.3,3.8,3.2,3.8c2.6,0,3.5-0.9,3.5-3.5c-0.1-16.6-0.1-33.2,0-49.8c0-2.5-0.8-3.6-3.4-3.6c-2.8,0-3.3,1.4-3.2,3.7
		C457.3,183,457.2,191.3,457.2,199.6z M445.1,207.5c0-5.7,0-11.3,0-17c0-2.1-0.4-3.5-3-3.5c-2.2,0-3.4,0.6-3.3,3.1
		c0.1,11.5,0.1,23,0,34.5c0,2.3,0.9,3.2,3.2,3.2c2.5,0,3.1-1.1,3.1-3.4C445,218.8,445.1,213.1,445.1,207.5z M442.1,178.5
		c2.4-0.3,4-1.6,4-4.2c-0.1-2.5-1.6-4.1-4-4.1c-2.7,0-4.3,1.7-4.2,4.4C438,177.2,439.7,178.3,442.1,178.5z"/>
	<path class="st1" d="M39.9,212.8c-0.1-18.9,9.2-29.1,26.5-36.5c4.5-1.9,9.5,2.7,8.7,7.6c-0.6,3.3-1.2,6.6-1.4,9.9
		c-0.4,6.3,3.4,10,9.6,8.7c12.4-2.5,23.2-8.1,31.3-18.1c1.2-1.5,2.1-2.2,4-2c6.8,0.5,12.4-2.1,16.8-7.1c2.1-2.4,4.2-2.6,7.1-1.9
		c17.2,4,27.1,17.7,26.1,36.2c-1.3,24.2-21.4,48.6-45.5,50.5c-15.5,1.2-31.7,5.7-47.3-1.2c-10.6-4.7-20.6-10.1-27.5-19.9
		C42.7,231.1,39.7,222.5,39.9,212.8z"/>
	<path class="st1" d="M86,174.2c-11.1-1.4-17.1-8-21.1-17c-1-2.3-0.6-3.3,2.1-3.3c9.4-0.1,18.7,0.5,27.2,4.9
		c3.2,1.6,3.8,0.3,3.9-2.4c0.2-4.8,0-9.7-0.7-14.5c-0.2-1.6-0.5-3.1,1.2-4.4c2.4-1.9,3.7-2.3,4.6,1.3c1.7,6.6,4,13.1,4.5,19.9
		c0.4,4.9,1.9,4.4,5.4,2.7c7-3.5,14.3-6.3,22.1-7.6c5-0.9,5.2-0.6,3.8,4.4c-3.1,11.5-11.1,17.4-23.2,16.8c-2.9-0.1-4.3,0.6-5.8,3.1
		c-5.5,9.5-14,14.9-24.6,17.3c-3.3,0.7-4.6,0.1-4.4-3.5C81.4,185.8,82.6,180,86,174.2z"/>
	<path class="st1" d="M200.6,201c0-7.5,0.2-15-0.1-22.5c-0.2-3.9,1.2-4.9,4.9-4.7c5.3,0.3,10.7-0.1,16,0.2
		c10.5,0.5,17.6,7.7,17.7,17.8c0.1,10.1-6.8,17.4-17.2,18.3c-9,0.8-9,0.8-9,10c0,1.2-0.1,2.3,0,3.5c0.4,3.3-1,4.6-4.3,4.2
		c-0.3,0-0.7,0-1,0c-7.7-0.1-7,1-7.1-6.8C200.6,214.3,200.6,207.6,200.6,201z M212.9,191.9C212.9,191.9,212.9,191.9,212.9,191.9
		c0,2,0,4,0,6c0,1.3,0.3,2.4,1.8,2.5c3,0.2,6.1,0.4,8.6-1.6c3.4-2.8,4.1-6.4,2.5-10.3c-1.5-3.7-6-5.7-10.6-4.5
		c-4.4,1.2-1.4,5-2.3,7.5C212.9,191.5,212.9,191.7,212.9,191.9z"/>
	<path class="st1" d="M320.9,191.9c2.7-2.1,4.8-3.9,7.6-4.7c9.1-2.5,16.7,2.5,17.2,12c0.5,8.5,0.1,17,0.2,25.4
		c0,2.3-0.9,3.4-3.2,3.2c-1.7-0.1-3.3-0.2-5,0c-3.1,0.3-3.6-1.3-3.6-3.9c0.1-6.5,0-13,0-19.5c0-4.2-0.9-7.8-6-8.1
		c-4-0.3-7.1,2.5-7.5,7.6c-0.4,6.5-0.6,13-0.2,19.4c0.3,5.4-3,4.3-6.1,4.4c-3.4,0.2-6.1,0.4-5.9-4.6c0.4-10.3,0-20.6,0.2-30.9
		c0-2-1.3-5.5,2.7-5C314.7,187.6,320,184.3,320.9,191.9z"/>
	<path class="st1" d="M269.4,198.9c-0.4-0.5-0.5-0.6-0.5-0.7c-1-9.7-0.2-10.8,9.6-11.6c2.6-0.2,5.3-0.2,7.9,0.1
		c8.8,1,12.8,5.2,13.2,13.9c0.3,7.8,0,15.6,0.2,23.4c0,2.8-1,4.3-3.7,3.7c-2.8-0.6-6.8,2.2-8.4-2.8c-0.2-0.7-1.8,0.9-2.8,1.4
		c-4.9,2.4-9.7,2.3-14.2-0.5c-3.9-2.4-5.1-6.4-4.9-10.8c0.3-5.3,3.6-9.1,9.7-10.4c2.6-0.6,5.3-0.5,7.9-0.8c1.7-0.2,4,0.8,4.2-2.1
		c0.2-2.8-1.1-4.8-4-5.5C280.3,195.5,275.4,196.3,269.4,198.9z M281.9,219.4c4,0,5.4-2.2,5.7-5.7c0.2-2.8-1.6-2.8-3.5-2.7
		c-3.2,0.1-6.1,0.7-6.2,4.7C277.8,218.6,279.8,219.3,281.9,219.4z"/>
	<path class="st1" d="M559.6,222c-9.2,6.2-18,5.7-23.9-1.2c-6.3-7.4-5.6-22.5,1.4-29.6c6-6.2,14.4-6.1,22.3,0.3
		c1.7-1-0.3-3.9,2.2-4.3c2.7-0.4,5.3-0.7,5.2,3.6c-0.2,11.5,0.2,23-0.2,34.4c-0.5,14.7-16.3,23.2-29.3,16c-2.4-1.3-2.1-3.4-1.7-5.2
		c0.6-2.6,2.3-0.7,3.5-0.4c2.6,0.7,5.2,1.3,7.8,1.3C556.7,237,561.1,231.8,559.6,222z M560.1,208.4c0-3.7-0.1-6-0.9-8.3
		c-1.7-4.6-4.9-7.6-9.9-7.8c-5-0.2-8,2.8-9.8,7.1c-1.9,4.6-2.1,9.5-0.3,14.1c1.8,4.5,5.2,7.5,10.3,7.2c5-0.3,8.3-3.1,9.7-7.9
		C559.9,211.1,560,209.1,560.1,208.4z"/>
	<path class="st1" d="M362.8,177.8c4.9-1.2,6.8,0.7,6,5.4c-0.5,3,0.8,4.3,3.9,4c3.2-0.3,5.7-0.2,5.6,4.5c-0.1,4.3-2.2,4.6-5.3,4.3
		c-3.2-0.4-4.5,0.8-4.3,4.2c0.2,4.3,0.2,8.6,0,13c-0.1,4.4,2,6,6.2,5.5c1.4-0.1,4.1-2.2,3.9,1.4c-0.2,2.6,1.9,6.2-2.4,7.7
		c-10.5,3.6-19.3-2.6-19.5-13.6c-0.1-4.2-0.1-8.3,0-12.5c0-3,0.6-5.9-4.2-5.9c-2.8,0-1.4-3.2-1.6-4.9c-0.2-1.6-0.3-3.7,2.2-3.5
		c2.9,0.2,4-1.1,3.6-3.8C356.3,178.5,357.9,176.2,362.8,177.8z"/>
	<path class="st1" d="M406.9,220.8c4-11.9,7.5-22.6,11.1-33.3c1.2-3.6,2.5-7.2,3.7-10.9c0.5-1.5,0.9-2.6,2.9-2.9
		c4.3-0.5,5.1,0.2,3.7,4.3c-5.3,15.2-10.8,30.4-15.9,45.7c-1,3.1-2.5,4-5.7,4.1c-3.5,0.1-4.5-1.6-5.5-4.4c-4.9-14.7-10-29.3-14.8-44
		c-0.5-1.6-3.3-4.2-0.2-5.4c3.2-1.2,5.7-0.1,6.9,4c3.5,12,7.5,23.8,11.3,35.7C405,215.7,405.8,217.6,406.9,220.8z"/>
	<path class="st1" d="M245.4,171.6c11.8-2.2,12.1-2,12.1,9.6c0,13,0,25.9,0,38.9c0,8.1-4.7,10.9-12.1,7.3
		C245.8,208.8,245.8,190.2,245.4,171.6z"/>
	<path class="st1" d="M595.6,210.1c-3.5,0-7,0.1-10.5,0c-2.9-0.1-3.4,1-2.5,3.6c2.4,7,10.5,10.3,19.8,8.2c1.4-0.3,3.5-3.5,4.8-0.1
		c1.2,3.3-1.1,4.6-4,5.5c-8.9,2.5-18.6,0-23.7-6.3c-5.3-6.7-5.8-18.2-1.2-26c4.4-7.4,13.6-10.3,21.8-7c7,2.8,11.5,12.4,9.7,20
		c-0.5,2-1.6,2.3-3.2,2.2C602.9,210.1,599.3,210.1,595.6,210.1C595.6,210.1,595.6,210.1,595.6,210.1z M592.9,204.8
		c2.3,0,4.6-0.2,6.9,0c3.4,0.3,3.9-1.3,3.4-4.2c-0.9-4.9-4.2-8-9-8.4c-5.3-0.4-9.7,2.9-11.6,8.3c-1,2.8-0.7,4.5,2.8,4.3
		C588,204.6,590.4,204.8,592.9,204.8z"/>
	<path class="st1" d="M522.8,212.2c0,4,0,8,0,12c0,1.3,0.4,2.9-1.3,3.4c-1.6,0.4-4,1-4.6-0.5c-1.2-2.7-2.3-1.8-4-0.8
		c-3,1.8-6.3,2-9.7,1.7c-6-0.6-10.1-4.6-10.8-10.6c-0.7-5.5,2.4-10.2,8.1-12.2c4-1.4,8.2-1.4,12.3-1.2c2.7,0.1,3.5-1,3.2-3.6
		c-0.4-4.3-2.3-7.1-6.9-7.8c-3.6-0.5-6.9,0.1-10.3,1.2c-1.1,0.3-2.7,2.6-3.5-0.1c-0.5-1.8-0.7-3.9,1.6-5.3
		c11-6.9,25.1,0.1,25.7,12.9C522.9,204.9,522.8,208.6,522.8,212.2C522.8,212.2,522.8,212.2,522.8,212.2z M516.2,213.2
		c0.6-2.9-0.5-4.3-4.2-4.2c-8.4,0.1-12.7,2.2-12.9,7c-0.1,3.9,2.9,6.6,7.6,6.8C512.4,222.9,516.1,219.4,516.2,213.2z"/>
	<path class="st1" d="M457.2,199.6c0-8.3,0-16.6,0-24.9c0-2.3,0.4-3.7,3.2-3.7c2.7,0,3.4,1.1,3.4,3.6c-0.1,16.6-0.1,33.2,0,49.8
		c0,2.6-0.9,3.5-3.5,3.5c-2.9,0-3.2-1.6-3.2-3.8C457.2,215.9,457.2,207.8,457.2,199.6z"/>
	<path class="st1" d="M482.5,226.1c-1.1,2.5-3.4,1.8-5.2,1.4c-2.3-0.5-1.4-2.7-1.4-4.2c-0.1-16-0.1-31.9,0-47.9
		c0-1.5-0.9-3.7,1.5-4.1c1.8-0.3,4.1-1,5.1,1.7c0,1.4,0,2.8,0,4.2c-0.2,0.3-0.2,0.6,0,0.8C482.5,194,482.5,210,482.5,226.1z"/>
	<path class="st1" d="M445.1,207.5c0,5.7,0,11.3,0,17c0,2.2-0.6,3.4-3.1,3.4c-2.4,0-3.2-0.9-3.2-3.2c0.1-11.5,0.1-23,0-34.5
		c0-2.5,1.1-3.1,3.3-3.1c2.6,0,3,1.3,3,3.5C445,196.2,445.1,201.8,445.1,207.5z"/>
	<path class="st1" d="M482.5,177.1c0-1.4,0-2.8,0-4.2c2.1,0.3,1.5,2,1.5,3.1c0,15.6,0,31.3,0,46.9c0,1.2,0.6,2.8-1.5,3.1
		c0-16.1,0-32.1,0-48.2C482.7,177.6,482.7,177.4,482.5,177.1z"/>
	<path class="st1" d="M442.1,178.5c-2.4-0.2-4.2-1.3-4.3-3.9c-0.1-2.7,1.5-4.4,4.2-4.4c2.4,0,4,1.6,4,4.1
		C446.2,176.9,444.5,178.2,442.1,178.5z"/>
	<path class="st1" d="M245.4,171.6c0.4,18.6,0.4,37.2,0,55.8c-1.5-1.8-1.4-4-1.4-6.2c0-14.5,0-28.9,0-43.4
		C244,175.6,243.9,173.5,245.4,171.6z"/>
	<path class="st1" d="M482.5,177.1c0.2,0.3,0.2,0.6,0,0.8C482.3,177.6,482.3,177.4,482.5,177.1z"/>
</g>
</svg>
