<svg width="196" height="93" viewBox="0 0 196 93" fill="none" xmlns="http://www.w3.org/2000/svg">
<path d="M22.733 50.1835C12.676 44.2035 0 35.5115 0 20.1645V3.9595C7.26192 1.22005 14.9766 -0.12053 22.737 0.00850287C30.4956 -0.0942741 38.2058 1.24546 45.475 3.9595V20.1645C45.471 35.6415 32.3 44.5595 22.733 50.1835Z" fill="white"/>
<path d="M29.571 29.1985C29.571 28.8545 29.854 28.3205 29.854 27.8435C29.854 27.2765 29.154 27.0955 28.618 27.0205C27.481 26.8625 27.102 26.9145 27.102 26.6635C27.102 26.4905 27.255 26.3095 27.462 26.0115C27.8385 25.6248 28.3445 25.3905 28.883 25.3535C29.4636 25.2654 30.0498 25.2189 30.637 25.2145C31.2074 25.2197 31.7762 25.275 32.337 25.3795C33.037 25.5005 33.137 25.7925 33.137 26.1195V26.4465C33.137 26.7765 32.867 26.9465 32.381 27.0465C32.26 27.0735 32.089 27.1045 32.007 27.1215C31.654 27.1945 31.218 27.2645 31.064 27.7095C30.731 28.6655 30.154 29.4145 29.726 29.3955C29.7028 29.3929 29.6804 29.3857 29.66 29.3744C29.6396 29.363 29.6217 29.3478 29.6073 29.3294C29.5929 29.3111 29.5822 29.2901 29.576 29.2676C29.5698 29.2451 29.5681 29.2216 29.571 29.1985ZM30.571 13.7985C30.53 13.7755 30.382 13.7215 30.382 13.5755C30.382 13.4075 30.504 13.2335 30.751 12.9015C31.32 12.1375 32.103 11.2015 32.389 11.2015C32.529 11.2015 32.617 11.3015 32.789 11.6245C32.9134 11.8825 32.9787 12.1651 32.98 12.4515C32.9643 13.3705 32.6509 14.2597 32.087 14.9855C31.6363 14.5275 31.1285 14.1296 30.576 13.8015L30.571 13.7985ZM13.871 15.6945C14.127 15.6945 14.322 15.5255 14.708 15.0945C15.572 14.1395 16.408 14.0115 16.408 13.6035C16.3799 13.402 16.2976 13.2119 16.17 13.0535C15.4933 11.9993 14.8715 10.9108 14.307 9.7925C14.107 9.4145 13.849 9.1555 13.652 9.1555C13.333 9.1555 12.997 9.5275 12.803 9.8455C12.5016 10.2626 12.3125 10.7502 12.254 11.2615C12.2751 12.2049 12.43 13.1406 12.714 14.0405C13.025 14.9215 13.478 15.6945 13.871 15.6945ZM24.253 19.0205C24.1873 18.5904 23.9619 18.2008 23.6219 17.9293C23.2818 17.6578 22.852 17.5244 22.418 17.5555C21.9796 17.5641 21.5532 17.7007 21.1914 17.9486C20.8297 18.1965 20.5483 18.5447 20.382 18.9505C20.5069 19.2689 20.7068 19.5524 20.9649 19.7768C21.2229 20.0012 21.5314 20.16 21.864 20.2395C21.995 20.2795 22.127 20.2825 22.127 20.3955C22.127 20.5545 21.959 20.6345 21.605 20.6345C21.2143 20.6624 20.8224 20.6004 20.4594 20.4532C20.0964 20.306 19.772 20.0776 19.511 19.7855C19.1651 19.8647 18.8143 19.9211 18.461 19.9545C18.3915 19.9608 18.3215 19.9512 18.2562 19.9266C18.1908 19.902 18.1319 19.863 18.0839 19.8124C18.0358 19.7618 17.9997 19.701 17.9785 19.6345C17.9572 19.568 17.9512 19.4976 17.961 19.4285C17.9695 19.1983 18.03 18.973 18.138 18.7695C18.203 18.6355 18.273 18.4965 18.323 18.3985C18.6046 17.6821 19.1245 17.0846 19.795 16.7065C19.915 16.6385 20.226 16.4495 20.385 16.3565C20.9005 16.0447 21.4986 15.8971 22.1 15.9335H22.608C23.1981 15.8943 23.7799 16.0886 24.228 16.4745C24.971 17.1005 25.38 17.4405 25.38 17.9045C25.4247 18.4279 25.2672 18.9486 24.94 19.3595C24.8008 19.5625 24.6222 19.7354 24.4149 19.868C24.2075 20.0006 23.9756 20.0902 23.733 20.1315C23.638 20.1315 23.611 20.0805 23.611 20.0315C23.611 19.9605 23.689 19.9255 23.77 19.8595C23.999 19.6249 24.1651 19.3363 24.253 19.0205V19.0205ZM29.248 34.9585C28.4967 35.099 27.7309 35.1467 26.968 35.1005C24.389 35.1005 23.951 34.4665 23.951 33.9635C23.951 33.1245 27.651 32.5325 29.109 32.5325C30.509 32.5325 31.122 32.9805 31.122 33.3225C30.9944 33.7435 30.7511 34.1201 30.4197 34.4093C30.0883 34.6986 29.6823 34.8889 29.248 34.9585V34.9585ZM14.362 42.5125C17.0339 44.5597 19.8299 46.4396 22.734 48.1415V48.1415C22.76 45.6125 22.679 44.1215 24.39 42.3315C25.083 41.6065 25.797 40.8685 26.442 40.2005C26.928 39.7005 27.321 39.3215 27.551 39.3215C27.715 39.3215 27.788 39.4075 27.788 39.6275C27.8467 40.3455 28.0562 41.043 28.403 41.6745C28.5757 42.0527 28.8377 42.3833 29.1664 42.638C29.4951 42.8926 29.8806 43.0637 30.29 43.1365C37.618 37.6205 43.747 30.4005 43.747 20.1275V5.1575C37.0025 2.76862 29.8873 1.59675 22.733 1.6965C15.5787 1.59681 8.46348 2.76868 1.719 5.1575V20.1295C1.70196 24.2993 2.78321 28.4002 4.854 32.0195C5.048 29.9395 6.454 28.9535 6.454 26.9105C6.454 25.4845 6.054 24.5845 6.054 23.3905C6.054 21.2325 8.968 16.7905 10.479 14.9835C10.523 14.9305 10.621 14.8035 10.743 14.8035C10.7973 14.8088 10.8494 14.8278 10.8944 14.8588C10.9393 14.8898 10.9757 14.9316 11 14.9805C11.154 15.2165 11.22 15.3405 11.384 15.3405C11.548 15.3405 11.614 15.2475 11.614 15.1015C11.3097 13.9749 11.1633 12.8114 11.179 11.6445C11.179 9.9295 11.579 9.5655 12.644 8.5225C12.9979 8.12085 13.4778 7.85144 14.005 7.7585C14.271 7.77956 14.529 7.8597 14.7601 7.99308C14.9912 8.12646 15.1897 8.30972 15.341 8.5295C16.001 9.2005 16.92 10.3875 17.068 10.5755C17.0852 10.6053 17.1098 10.6302 17.1394 10.6477C17.169 10.6652 17.2026 10.6748 17.237 10.6755C17.537 10.6755 17.796 10.5835 19.12 10.5835C21.7826 10.5771 24.4351 10.9091 27.014 11.5715C27.4751 11.7735 27.9468 11.9504 28.427 12.1015C28.551 12.1015 28.562 12.0205 28.562 11.9555C28.562 11.8345 28.309 11.6395 28.309 11.4735C28.3146 11.4218 28.334 11.3725 28.3651 11.3308C28.3963 11.2892 28.438 11.2566 28.486 11.2365C29.5875 10.5204 30.8412 10.0718 32.147 9.9265C32.779 9.9265 33.091 10.4735 33.357 11.0145C33.6155 11.4993 33.7624 12.0357 33.787 12.5845C33.7971 13.6696 33.4413 14.7265 32.777 15.5845C32.992 15.8045 33.295 16.1375 33.477 16.3595C33.8718 16.7467 34.1271 17.2538 34.203 17.8015C34.1696 18.0994 34.1103 18.3938 34.026 18.6815C33.997 18.8105 33.884 19.0685 33.66 19.0645C33.46 19.0645 33.405 18.8395 33.397 18.6445C33.397 18.6045 33.397 18.5165 33.397 18.4965C33.3907 17.9646 33.1965 17.4521 32.8488 17.0495C32.5011 16.6469 32.0223 16.3802 31.497 16.2965H31.318C31.041 16.2836 30.7645 16.3311 30.5078 16.4357C30.251 16.5404 30.0201 16.6997 29.831 16.9025C29.6868 17.0349 29.5716 17.1957 29.4927 17.3749C29.4139 17.5541 29.3731 17.7477 29.373 17.9435C29.4412 18.3128 29.5812 18.6651 29.785 18.9805C29.925 19.2585 30.285 19.9205 30.476 20.2615C30.532 20.3817 30.6213 20.4833 30.7333 20.5542C30.8454 20.6252 30.9754 20.6624 31.108 20.6615C31.708 20.6615 32.228 20.5785 32.228 20.3985C32.228 20.3495 32.202 20.3085 32.12 20.3085C32.086 20.3085 32.003 20.3195 31.929 20.3195C31.147 20.3195 30.729 19.3195 30.337 18.4195C30.4912 18.2374 30.6826 18.0904 30.8984 17.9886C31.1142 17.8868 31.3494 17.8326 31.588 17.8295C31.753 17.8171 31.9188 17.8389 32.0749 17.8937C32.231 17.9484 32.3742 18.0348 32.4953 18.1475C32.6165 18.2602 32.713 18.3967 32.7789 18.5485C32.8447 18.7003 32.8785 18.864 32.878 19.0295C32.8771 19.2878 32.8209 19.5428 32.713 19.7775C32.6874 19.8206 32.6714 19.8687 32.666 19.9185C32.666 20.0245 32.801 20.0465 33.013 20.0955C33.089 20.1135 33.234 20.1465 33.321 20.1725C33.4515 20.2136 33.571 20.2836 33.6707 20.3773C33.7704 20.471 33.8478 20.5859 33.897 20.7135C33.965 20.8965 34.122 21.3135 34.156 21.4205C34.359 21.9372 34.473 22.4847 34.493 23.0395C34.5064 23.5777 34.4269 24.1143 34.258 24.6255C34.0743 25.1845 33.9447 25.7598 33.871 26.3435C33.9203 26.4352 33.9628 26.5305 33.998 26.6285C34.1952 27.0545 34.3004 27.5172 34.307 27.9865V28.4475C34.2968 29.2096 34.0369 29.9474 33.567 30.5475C33.267 30.9475 32.839 31.5215 32.592 31.8365C32.5199 31.9332 32.4275 32.0129 32.3212 32.0699C32.2149 32.127 32.0974 32.1599 31.977 32.1665C31.8467 32.157 31.7179 32.1329 31.593 32.0945L30.993 31.9425C30.7735 31.8832 30.5746 31.7646 30.4181 31.5996C30.2616 31.4347 30.1536 31.2298 30.106 31.0075C30.081 30.9385 30.006 30.7425 29.977 30.6805C29.852 30.3605 29.777 30.1545 29.582 30.1545C29.433 30.1545 29.291 30.2545 29.143 30.4735C28.9768 30.8103 28.7338 31.1034 28.4337 31.3291C28.1336 31.5549 27.7847 31.7071 27.415 31.7735C27.093 31.8525 26.44 31.9885 26.075 32.0735C25.3901 32.2596 24.6905 32.3871 23.984 32.4545C23.861 32.4542 23.7381 32.4468 23.616 32.4325C23.1691 32.4097 22.7339 32.2819 22.3456 32.0595C21.9573 31.8371 21.6268 31.5264 21.381 31.1525C20.086 29.6065 20.219 29.3895 20.142 27.3015C20.133 27.0685 20.057 26.7775 19.815 26.7775C19.598 26.7775 19.504 27.2195 19.424 27.8475C19.331 28.5845 19.161 29.3475 18.799 29.3475C18.5199 29.3414 18.2442 29.2851 17.985 29.1815C17.514 29.0285 16.341 28.6325 15.725 28.4285C14.886 28.1515 14.082 27.9285 13.758 27.1865C13.606 26.8365 13.325 26.1865 13.182 25.8465C13.082 25.6085 13.008 25.4845 12.852 25.4845C12.628 25.4845 12.579 25.7495 12.552 25.9595C12.524 26.1955 12.464 26.7425 12.434 27.0835C12.4219 28.1341 12.0571 29.1502 11.398 29.9685C11.116 30.3405 10.848 30.7195 10.536 31.1325C9.78864 32.0961 9.42744 33.3038 9.523 34.5195C9.523 34.6265 9.516 35.2435 9.523 35.5285C9.581 37.9935 10.206 39.2015 14.362 42.5125Z" fill="#231F20"/>
<path d="M33.894 20.7165C33.962 20.8995 34.119 21.3165 34.153 21.4235C34.356 21.9402 34.47 22.4877 34.49 23.0425C34.5035 23.5807 34.424 24.1173 34.255 24.6285C34.0719 25.1862 33.9426 25.7601 33.869 26.3425C33.802 26.2045 32.538 24.0225 32.441 23.8425C32.3349 23.676 32.2739 23.4847 32.264 23.2875C32.264 23.0645 32.364 22.9305 32.629 22.7605C32.791 22.6605 33 22.5385 33.142 22.4655C33.3828 22.3758 33.5898 22.2135 33.7344 22.001C33.879 21.7886 33.954 21.5364 33.949 21.2795C33.945 21.0907 33.9266 20.9025 33.894 20.7165V20.7165ZM28.387 24.2045C28.4585 24.3669 28.5015 24.5405 28.514 24.7175C28.5234 24.8346 28.5044 24.9522 28.4589 25.0605C28.4133 25.1687 28.3423 25.2644 28.252 25.3395C28.144 25.4395 28.024 25.5395 27.914 25.6395C27.737 25.7257 27.583 25.8529 27.465 26.0105C27.258 26.3105 27.105 26.4895 27.105 26.6625C27.1036 26.6864 27.1081 26.7103 27.118 26.7321C27.1279 26.7539 27.143 26.7729 27.162 26.7875C27.0508 26.7019 26.9611 26.5915 26.9002 26.4651C26.8392 26.3387 26.8087 26.1998 26.811 26.0595C26.811 25.8305 26.886 25.7095 26.886 25.4935C26.8809 25.3357 26.8532 25.1795 26.804 25.0295C26.453 23.8565 25.863 22.4615 25.504 21.5125C25.133 20.5455 24.842 20.0125 24.423 20.0125C24.19 20.0125 23.983 20.1265 23.738 20.1265C23.9804 20.0851 24.2121 19.9954 24.4193 19.8628C24.6264 19.7302 24.8049 19.5573 24.944 19.3545C25.2712 18.9436 25.4287 18.4229 25.384 17.8995C25.375 17.6686 25.2809 17.4493 25.12 17.2835C25.6388 17.8734 26.0546 18.5465 26.35 19.2745C27.128 20.9495 27.814 22.7775 28.387 24.2055V24.2045ZM9.528 35.5275C9.521 35.2425 9.528 34.6275 9.528 34.5185C9.43244 33.3028 9.79363 32.0951 10.541 31.1315C10.853 30.7185 11.121 30.3395 11.403 29.9675C12.0579 29.148 12.4188 28.1325 12.428 27.0835C12.458 26.7425 12.518 26.1955 12.546 25.9595C12.571 25.7495 12.621 25.4845 12.846 25.4845C13.002 25.4845 13.076 25.6085 13.176 25.8465C13.319 26.1855 13.6 26.8355 13.752 27.1865C14.076 27.9305 14.88 28.1505 15.719 28.4285C16.335 28.6285 17.508 29.0285 17.979 29.1815C18.2382 29.2851 18.5139 29.3414 18.793 29.3475C19.155 29.3475 19.325 28.5825 19.418 27.8475C19.497 27.2195 19.591 26.7775 19.809 26.7775C20.051 26.7775 20.127 27.0675 20.136 27.3015C20.214 29.3885 20.081 29.6065 21.375 31.1525C21.6208 31.5264 21.9513 31.8371 22.3396 32.0595C22.7279 32.2819 23.1631 32.4096 23.61 32.4325C23.398 32.3462 23.2203 32.1925 23.1042 31.9951C22.9882 31.7978 22.9403 31.5678 22.968 31.3405V30.5895C22.9598 30.1816 23.0385 29.7766 23.199 29.4015C23.287 29.2015 23.389 28.8315 23.486 28.6015C23.59 28.3663 23.62 28.1051 23.572 27.8525C23.5282 27.4223 23.4207 27.0011 23.253 26.6025C23.137 26.2515 22.98 25.7415 22.83 25.3225C22.361 24.0135 22.171 23.7045 20.605 23.4975C20.105 23.4305 17.905 23.1195 17.446 23.0535C15.689 22.8045 14.313 22.7205 13.596 21.5435C12.741 20.1375 12.827 18.4225 12.004 18.4225C11.614 18.4225 11.404 18.8595 11.404 19.4955C11.404 20.1645 11.656 21.2465 11.656 23.1305C11.7268 23.7249 11.6649 24.3275 11.4747 24.8951C11.2845 25.4626 10.9707 25.9809 10.556 26.4125C10.31 26.7235 9.979 27.1815 9.766 27.4475C9.44072 27.7582 9.18542 28.1346 9.01712 28.5517C8.84882 28.9689 8.77139 29.4171 8.79 29.8665C8.88207 31.7704 9.12888 33.6636 9.528 35.5275V35.5275ZM27.445 41.8135C27.505 41.1605 27.792 40.0715 27.792 39.6285C27.792 39.4085 27.719 39.3225 27.555 39.3225C27.325 39.3225 26.932 39.6975 26.446 40.2015C25.801 40.8695 25.087 41.6075 24.394 42.3325C22.683 44.1225 22.764 45.6135 22.738 48.1425C24.638 46.9955 26.38 45.8925 27.669 45.0145C27.4227 43.9665 27.3457 42.8858 27.441 41.8135H27.445Z" fill="#A6A8AB"/>
<path d="M54.617 7.19151H53.244V5.16651H59.638C63 5.16651 64.755 6.93251 64.755 9.44451C64.755 12.4275 62.403 13.7205 59.638 13.7205H57.521V17.0625H58.894V19.0915H53.244V17.0585H54.617V7.19151ZM59.338 11.6915C59.6448 11.7069 59.9515 11.6594 60.2393 11.5519C60.527 11.4444 60.7898 11.2793 61.0114 11.0666C61.2331 10.8539 61.4089 10.5982 61.5281 10.315C61.6473 10.0319 61.7074 9.72746 61.7046 9.42029C61.7019 9.11313 61.6364 8.80976 61.5122 8.52882C61.388 8.24788 61.2076 7.9953 60.9823 7.78658C60.7569 7.57786 60.4912 7.4174 60.2016 7.31507C59.912 7.21274 59.6045 7.17069 59.298 7.19151H57.521V11.6915H59.338ZM68.305 14.5165C68.385 16.1675 69.658 17.1815 71.605 17.1815C72.7139 17.1938 73.8127 16.9695 74.828 16.5235V18.6665C73.6072 19.1487 72.2997 19.3725 70.988 19.3235C66.97 19.3235 65.279 16.8165 65.279 13.9325C65.279 10.6895 67.248 8.44151 70.511 8.44151C74.092 8.44151 75.544 11.1475 75.544 14.5095L68.305 14.5165ZM72.522 12.6065C72.5581 12.3147 72.5297 12.0184 72.4385 11.7388C72.3474 11.4592 72.1959 11.2031 71.9948 10.9885C71.7936 10.774 71.5477 10.6064 71.2745 10.4975C71.0014 10.3886 70.7076 10.3412 70.414 10.3585C69.141 10.3585 68.405 11.1935 68.286 12.6065H72.522ZM145.413 14.5165C145.493 16.1675 146.766 17.1815 148.713 17.1815C149.822 17.1936 150.921 16.9693 151.936 16.5235V18.6665C150.715 19.1487 149.408 19.3724 148.096 19.3235C144.078 19.3235 142.387 16.8165 142.387 13.9325C142.387 10.6895 144.356 8.44151 147.619 8.44151C151.2 8.44151 152.652 11.1475 152.652 14.5095L145.413 14.5165ZM149.63 12.6065C149.666 12.3147 149.638 12.0184 149.547 11.7388C149.455 11.4592 149.304 11.2031 149.103 10.9885C148.902 10.774 148.656 10.6064 148.383 10.4975C148.109 10.3886 147.816 10.3412 147.522 10.3585C146.249 10.3585 145.513 11.1935 145.393 12.6065H149.63ZM78.126 10.7135H76.776V8.68351H80.596L80.672 10.0455H80.712C81.0631 9.52643 81.5419 9.10653 82.1024 8.82628C82.6629 8.54604 83.2861 8.4149 83.912 8.44551C84.4585 8.41814 85.0046 8.50772 85.5138 8.70825C86.0229 8.90879 86.4834 9.21566 86.8645 9.60838C87.2456 10.0011 87.5384 10.4706 87.7236 10.9856C87.9087 11.5005 87.9818 12.049 87.938 12.5945V17.0595H89.126V19.0885H84.014V17.0585H85.148V13.0735C85.1646 12.7851 85.1221 12.4963 85.0231 12.2248C84.9242 11.9534 84.7708 11.705 84.5725 11.4949C84.3741 11.2848 84.1349 11.1175 83.8696 11.0031C83.6043 10.8887 83.3184 10.8297 83.0295 10.8297C82.7406 10.8297 82.4547 10.8887 82.1894 11.0031C81.9241 11.1175 81.6849 11.2848 81.4865 11.4949C81.2882 11.705 81.1348 11.9534 81.0359 12.2248C80.9369 12.4963 80.8944 12.7851 80.911 13.0735V17.0585H82.105V19.0875H76.992V17.0585H78.126V10.7135ZM91.69 10.7135H90.338V8.68351H94.158L94.234 10.0455H94.274C94.625 9.52643 95.1039 9.10653 95.6644 8.82628C96.2249 8.54604 96.8481 8.4149 97.474 8.44551C98.0205 8.41814 98.5666 8.50772 99.0758 8.70825C99.5849 8.90879 100.045 9.21566 100.426 9.60838C100.808 10.0011 101.1 10.4706 101.286 10.9856C101.471 11.5005 101.544 12.049 101.5 12.5945V17.0595H102.694V19.0885H97.582V17.0585H98.716V13.0735C98.7326 12.7851 98.6901 12.4963 98.5911 12.2248C98.4922 11.9534 98.3388 11.705 98.1404 11.4949C97.9421 11.2848 97.7029 11.1175 97.4376 11.0031C97.1723 10.8887 96.8864 10.8297 96.5975 10.8297C96.3086 10.8297 96.0227 10.8887 95.7574 11.0031C95.4921 11.1175 95.2529 11.2848 95.0545 11.4949C94.8562 11.705 94.7028 11.9534 94.6039 12.2248C94.5049 12.4963 94.4624 12.7851 94.479 13.0735V17.0585H95.673V19.0875H90.56V17.0585H91.694L91.69 10.7135ZM136.09 6.45551H138.875V8.68351H141.66V10.7135H138.875V15.3485C138.875 16.7485 139.363 17.1785 140.516 17.1785C140.933 17.1612 141.348 17.108 141.756 17.0195V18.9955C141.01 19.2037 140.24 19.3149 139.465 19.3265C137.416 19.3265 136.089 18.2265 136.089 16.3945V10.7135H134.676V8.68351H136.089L136.09 6.45551ZM117.322 6.45551H120.107V8.68351H122.892V10.7135H120.107V15.3485C120.107 16.7485 120.595 17.1785 121.749 17.1785C122.166 17.1613 122.581 17.1081 122.989 17.0195V18.9955C122.243 19.2037 121.473 19.315 120.698 19.3265C118.649 19.3265 117.322 18.2265 117.322 16.3945V10.7135H115.909V8.68351H117.326L117.322 6.45551ZM130.549 12.4665C130.549 11.0295 129.849 10.4775 128.449 10.4775C127.861 10.4764 127.277 10.5779 126.724 10.7775V12.1665H124.466V9.51951C125.678 8.85271 127.032 8.48421 128.415 8.44451C131.315 8.44451 133.178 9.62351 133.178 12.5385V17.0585H134.253V19.0875H130.884L130.802 17.6705H130.762C130.415 18.2238 129.922 18.671 129.338 18.9629C128.753 19.2548 128.1 19.3802 127.449 19.3255C125.102 19.3255 123.968 17.9325 123.968 16.3015C123.968 14.3225 125.487 12.9605 129.303 12.9605H130.553L130.549 12.4665ZM129.734 14.6745C127.466 14.6745 126.75 15.1515 126.75 16.0475C126.75 16.6635 127.188 17.3005 128.282 17.3005C128.605 17.2873 128.922 17.2072 129.213 17.0653C129.504 16.9234 129.762 16.7227 129.972 16.476C130.181 16.2292 130.337 15.9417 130.43 15.6317C130.522 15.3216 130.55 14.9957 130.51 14.6745H129.734ZM111.716 7.29451C111.146 7.09284 110.548 6.97855 109.944 6.95551C108.324 6.95551 107.676 7.83551 107.676 8.61051C107.676 9.62551 108.43 10.0945 109.299 10.3105L110.681 10.6725C112.627 11.1895 114.781 12.0165 114.781 14.9005C114.781 17.5455 113.081 19.3255 109.319 19.3255C107.705 19.3444 106.1 19.0818 104.576 18.5495V14.8665H107.076V16.6665C107.887 16.8956 108.723 17.0272 109.566 17.0585C111.043 17.0585 111.758 16.4425 111.758 15.3875C111.758 14.5155 111.265 13.8875 109.488 13.4065L108.299 13.0795C105.578 12.3435 104.652 11.0345 104.652 8.88651C104.652 6.67851 106.126 4.92451 109.868 4.92451C111.35 4.90537 112.822 5.15472 114.215 5.66051V8.98151H111.715L111.716 7.29451Z" fill="#231F20"/>
<path d="M53.453 35.4295C54.23 35.8961 55.1177 36.1464 56.024 36.1545C57.49 36.1545 58.347 35.3795 58.347 34.2595C58.347 33.2215 57.755 32.6275 56.254 32.0515C54.442 31.4085 53.321 30.4695 53.321 28.9045C53.321 27.1745 54.755 25.8885 56.913 25.8885C57.7641 25.8597 58.6087 26.0469 59.368 26.4325L58.968 27.6025C58.3198 27.2539 57.595 27.0725 56.859 27.0745C55.342 27.0745 54.766 27.9815 54.766 28.7395C54.766 29.7775 55.441 30.2885 56.974 30.8815C58.852 31.6065 59.809 32.5135 59.809 34.1435C59.809 35.8575 58.54 37.3435 55.92 37.3435C54.9296 37.3558 53.953 37.1115 53.085 36.6345L53.453 35.4295Z" fill="#231F20"/>
<path d="M62.634 33.4515C62.6019 33.8202 62.6504 34.1915 62.7761 34.5396C62.9017 34.8878 63.1015 35.2044 63.3617 35.4677C63.6218 35.731 63.936 35.9346 64.2826 36.0644C64.6292 36.1942 64.9999 36.2471 65.369 36.2195C66.1261 36.2432 66.8794 36.1027 67.577 35.8075L67.824 36.8455C66.9844 37.1953 66.0803 37.3637 65.171 37.3395C64.6385 37.3736 64.105 37.2922 63.607 37.1008C63.109 36.9094 62.6582 36.6125 62.2857 36.2306C61.9131 35.8486 61.6276 35.3906 61.4487 34.888C61.2697 34.3853 61.2016 33.8499 61.249 33.3185C61.249 30.9125 62.666 29.0185 64.989 29.0185C67.589 29.0185 68.289 31.3095 68.289 32.7755C68.2865 33.0013 68.2701 33.2267 68.24 33.4505L62.634 33.4515ZM66.885 32.4135C66.9265 32.1235 66.9058 31.828 66.8242 31.5466C66.7427 31.2653 66.6021 31.0045 66.412 30.7816C66.2219 30.5588 65.9865 30.3789 65.7215 30.2541C65.4565 30.1292 65.1679 30.0622 64.875 30.0575C64.2768 30.1012 63.7166 30.3672 63.3048 30.8033C62.893 31.2393 62.6594 31.8138 62.65 32.4135H66.885Z" fill="#231F20"/>
<path d="M70.082 31.3585C70.082 30.5345 70.065 29.8585 70.016 29.1995H71.301L71.383 30.5185H71.416C71.6769 30.0519 72.0604 29.6656 72.525 29.4012C72.9896 29.1368 73.5176 29.0045 74.052 29.0185C75.152 29.0185 76.87 29.6785 76.87 32.4135V37.1755H75.419V32.5825C75.419 31.2975 74.942 30.2265 73.573 30.2265C73.1331 30.2337 72.707 30.3815 72.3572 30.6484C72.0074 30.9153 71.7522 31.2871 71.629 31.7095C71.5591 31.9275 71.5253 32.1556 71.529 32.3845V37.1845H70.079L70.082 31.3585Z" fill="#231F20"/>
<path d="M80.842 26.9595C80.842 27.1982 80.7472 27.4271 80.5784 27.5959C80.4096 27.7647 80.1807 27.8595 79.942 27.8595C79.7033 27.8595 79.4744 27.7647 79.3056 27.5959C79.1368 27.4271 79.042 27.1982 79.042 26.9595C79.0388 26.8395 79.0601 26.7202 79.1046 26.6087C79.1491 26.4972 79.2158 26.396 79.3006 26.3111C79.3855 26.2263 79.4867 26.1596 79.5982 26.1151C79.7097 26.0706 79.829 26.0493 79.949 26.0525C80.0687 26.0479 80.1881 26.0683 80.2994 26.1124C80.4108 26.1565 80.5117 26.2234 80.5958 26.3088C80.6798 26.3942 80.7452 26.4961 80.7876 26.6082C80.8299 26.7202 80.8485 26.8399 80.842 26.9595V26.9595ZM79.224 37.1755V29.1975H80.674V37.1725L79.224 37.1755Z" fill="#231F20"/>
<path d="M90.301 33.1225C90.348 33.668 90.2797 34.2172 90.1004 34.7345C89.9211 35.2518 89.6349 35.7256 89.2604 36.125C88.8859 36.5244 88.4315 36.8405 87.9268 37.0526C87.4221 37.2648 86.8784 37.3683 86.331 37.3565C85.8034 37.3627 85.2803 37.2587 84.7951 37.0511C84.31 36.8436 83.8736 36.537 83.5137 36.1511C83.1538 35.7652 82.8785 35.3084 82.7054 34.8099C82.5322 34.3115 82.465 33.7824 82.508 33.2565C82.461 32.7122 82.5289 32.1641 82.7072 31.6478C82.8855 31.1314 83.1703 30.6583 83.5432 30.259C83.9161 29.8597 84.3687 29.5433 84.8716 29.3301C85.3746 29.1169 85.9168 29.0118 86.463 29.0215C86.9926 29.011 87.5185 29.112 88.0065 29.3179C88.4945 29.5239 88.9338 29.8302 89.2957 30.2169C89.6576 30.6036 89.9342 31.0622 90.1074 31.5628C90.2806 32.0634 90.3466 32.5948 90.301 33.1225V33.1225ZM83.974 33.2045C83.974 34.9505 84.974 36.2695 86.396 36.2695C87.78 36.2695 88.818 34.9695 88.818 33.1695C88.818 31.8175 88.142 30.1045 86.429 30.1045C84.716 30.1045 83.974 31.6885 83.974 33.2045V33.2045Z" fill="#231F20"/>
<path d="M92.131 31.6885C92.131 30.7495 92.115 29.9415 92.066 29.2005H93.334L93.384 30.7665H93.45C93.5863 30.2794 93.8734 29.848 94.27 29.5341C94.6667 29.2202 95.1526 29.0401 95.658 29.0195C95.7969 29.018 95.9355 29.0348 96.07 29.0695V30.4375C95.9077 30.4026 95.742 30.3861 95.576 30.3885C95.0806 30.4085 94.6095 30.6087 94.2513 30.9516C93.8931 31.2945 93.6725 31.7564 93.631 32.2505C93.5904 32.4733 93.5683 32.6991 93.565 32.9255V37.1765H92.131V31.6885Z" fill="#231F20"/>
<path d="M102.908 37.1755L99.283 26.0695H100.832L102.562 31.5405C103.04 33.0405 103.452 34.3905 103.748 35.6925H103.781C104.094 34.4075 104.556 33.0065 105.05 31.5565L106.928 26.0695H108.46L104.492 37.1755H102.908Z" fill="#231F20"/>
<path d="M110.967 26.9595C110.967 27.1982 110.872 27.4271 110.703 27.5959C110.535 27.7647 110.306 27.8595 110.067 27.8595C109.828 27.8595 109.599 27.7647 109.431 27.5959C109.262 27.4271 109.167 27.1982 109.167 26.9595C109.164 26.8396 109.185 26.7203 109.23 26.6089C109.274 26.4975 109.341 26.3963 109.425 26.3115C109.51 26.2266 109.611 26.1599 109.723 26.1154C109.834 26.0709 109.953 26.0495 110.073 26.0525C110.193 26.0477 110.312 26.068 110.424 26.1121C110.535 26.1562 110.636 26.223 110.72 26.3084C110.805 26.3938 110.87 26.4958 110.912 26.6079C110.955 26.7201 110.973 26.8398 110.967 26.9595V26.9595ZM109.352 37.1755V29.1975H110.802V37.1725L109.352 37.1755Z" fill="#231F20"/>
<path d="M118.893 36.8785C118.173 37.1994 117.39 37.3568 116.602 37.3395C116.065 37.3669 115.528 37.2795 115.027 37.0833C114.526 36.8871 114.073 36.5865 113.697 36.2015C113.321 35.8165 113.032 35.3559 112.848 34.8504C112.664 34.3448 112.59 33.8059 112.63 33.2695C112.603 32.702 112.696 32.1353 112.903 31.606C113.11 31.0768 113.425 30.5969 113.829 30.1976C114.233 29.7982 114.717 29.4883 115.248 29.2879C115.78 29.0875 116.348 29.0012 116.915 29.0345C117.607 29.0267 118.292 29.1672 118.925 29.4465L118.595 30.5675C118.077 30.2971 117.498 30.1665 116.914 30.1885C116.153 30.2338 115.438 30.5663 114.913 31.1189C114.388 31.6715 114.092 32.4029 114.086 33.1651C114.079 33.9274 114.363 34.6636 114.878 35.2249C115.394 35.7861 116.104 36.1306 116.864 36.1885C117.48 36.1898 118.088 36.0531 118.644 35.7885L118.893 36.8785Z" fill="#231F20"/>
<path d="M121.301 33.4515C121.269 33.8202 121.317 34.1915 121.443 34.5396C121.569 34.8878 121.769 35.2044 122.029 35.4677C122.289 35.731 122.603 35.9346 122.95 36.0644C123.296 36.1942 123.667 36.2471 124.036 36.2195C124.793 36.2432 125.546 36.1027 126.244 35.8075L126.491 36.8455C125.652 37.1952 124.748 37.3636 123.839 37.3395C123.307 37.3736 122.773 37.2922 122.275 37.1008C121.777 36.9094 121.326 36.6125 120.954 36.2306C120.581 35.8486 120.296 35.3906 120.117 34.888C119.938 34.3853 119.87 33.8499 119.917 33.3185C119.917 30.9125 121.334 29.0185 123.657 29.0185C126.257 29.0185 126.957 31.3095 126.957 32.7755C126.955 33.0013 126.939 33.2267 126.909 33.4505L121.301 33.4515ZM125.552 32.4135C125.593 32.1235 125.573 31.828 125.491 31.5466C125.41 31.2653 125.269 31.0045 125.079 30.7816C124.889 30.5588 124.653 30.3789 124.388 30.2541C124.123 30.1292 123.835 30.0622 123.542 30.0575C122.944 30.1012 122.384 30.3672 121.972 30.8033C121.56 31.2393 121.326 31.8138 121.317 32.4135H125.552Z" fill="#231F20"/>
<path d="M132.292 26.2015C133.202 26.0542 134.122 25.9826 135.044 25.9875C136.16 25.9025 137.269 26.2306 138.159 26.9095C138.481 27.2027 138.734 27.5626 138.902 27.964C139.07 28.3655 139.148 28.7987 139.131 29.2335C139.152 29.6661 139.088 30.0986 138.941 30.506C138.793 30.9133 138.567 31.2874 138.274 31.6065C137.82 32.0278 137.285 32.353 136.701 32.5625C136.118 32.7719 135.499 32.8614 134.88 32.8255C134.493 32.8375 134.106 32.8039 133.727 32.7255V37.1745H132.293L132.292 26.2015ZM133.726 31.5575C134.115 31.6451 134.513 31.6837 134.912 31.6725C136.642 31.6725 137.697 30.8325 137.697 29.3005C137.697 27.8335 136.659 27.1245 135.077 27.1245C134.624 27.112 134.17 27.1509 133.726 27.2405V31.5575Z" fill="#231F20"/>
<path d="M140.745 31.6885C140.745 30.7495 140.729 29.9415 140.68 29.2005H141.948L141.998 30.7665H142.064C142.2 30.2794 142.487 29.8479 142.884 29.5341C143.281 29.2202 143.767 29.0401 144.272 29.0195C144.411 29.018 144.549 29.0348 144.684 29.0695V30.4375C144.522 30.4025 144.356 30.386 144.19 30.3885C143.695 30.4085 143.224 30.6088 142.866 30.9517C142.508 31.2946 142.287 31.7565 142.246 32.2505C142.205 32.4732 142.182 32.699 142.179 32.9255V37.1765H140.745V31.6885Z" fill="#231F20"/>
<path d="M146.778 33.4515C146.746 33.8202 146.795 34.1914 146.92 34.5394C147.046 34.8875 147.246 35.2041 147.506 35.4673C147.766 35.7306 148.08 35.9342 148.427 36.064C148.773 36.1939 149.144 36.2469 149.513 36.2195C150.27 36.2432 151.023 36.1027 151.721 35.8075L151.968 36.8455C151.128 37.1954 150.224 37.3637 149.315 37.3395C148.783 37.3736 148.249 37.2922 147.751 37.1008C147.253 36.9094 146.802 36.6125 146.43 36.2306C146.057 35.8486 145.772 35.3906 145.593 34.888C145.414 34.3853 145.346 33.8499 145.393 33.3185C145.393 30.9125 146.81 29.0185 149.133 29.0185C151.733 29.0185 152.433 31.3095 152.433 32.7755C152.431 33.0013 152.414 33.2267 152.384 33.4505L146.778 33.4515ZM151.029 32.4135C151.07 32.1235 151.049 31.8281 150.968 31.5468C150.886 31.2655 150.746 31.0048 150.556 30.782C150.365 30.5591 150.13 30.3793 149.865 30.2544C149.6 30.1295 149.312 30.0624 149.019 30.0575C148.421 30.1012 147.861 30.3672 147.449 30.8033C147.037 31.2393 146.803 31.8138 146.794 32.4135H151.029Z" fill="#231F20"/>
<path d="M154.027 35.6925C154.601 36.0519 155.262 36.2511 155.939 36.2695C156.993 36.2695 157.488 35.7425 157.488 35.0835C157.488 34.3915 157.076 34.0125 156.005 33.6165C154.571 33.1055 153.896 32.3165 153.896 31.3595C153.91 31.0205 153.994 30.6882 154.143 30.3833C154.292 30.0784 154.502 29.8075 154.76 29.5878C155.019 29.368 155.32 29.2041 155.645 29.1063C155.97 29.0085 156.311 28.9789 156.648 29.0195C157.333 29.0128 158.009 29.1833 158.609 29.5145L158.247 30.5695C157.757 30.267 157.192 30.107 156.616 30.1075C155.758 30.1075 155.281 30.6015 155.281 31.1945C155.281 31.8535 155.758 32.1505 156.797 32.5455C158.181 33.0735 158.89 33.7645 158.89 34.9515C158.89 36.3515 157.803 37.3405 155.908 37.3405C155.127 37.3547 154.355 37.1678 153.667 36.7975L154.027 35.6925Z" fill="#231F20"/>
<path d="M162.366 26.9595C162.366 27.1982 162.271 27.4271 162.102 27.5959C161.934 27.7647 161.705 27.8595 161.466 27.8595C161.227 27.8595 160.998 27.7647 160.83 27.5959C160.661 27.4271 160.566 27.1982 160.566 26.9595C160.563 26.8396 160.584 26.7203 160.629 26.6089C160.673 26.4975 160.74 26.3963 160.824 26.3115C160.909 26.2266 161.01 26.1599 161.121 26.1154C161.233 26.0709 161.352 26.0495 161.472 26.0525C161.592 26.0477 161.711 26.068 161.823 26.1121C161.934 26.1562 162.035 26.223 162.119 26.3084C162.204 26.3938 162.269 26.4958 162.311 26.6079C162.354 26.7201 162.372 26.8398 162.366 26.9595V26.9595ZM160.751 37.1755V29.1975H162.201V37.1725L160.751 37.1755Z" fill="#231F20"/>
<path d="M171.496 25.4765V35.1165C171.496 35.8245 171.512 36.6315 171.562 37.1755H170.262L170.196 35.7915H170.163C169.903 36.2816 169.51 36.6884 169.029 36.9652C168.548 37.2421 167.998 37.3777 167.444 37.3565C165.516 37.3565 164.033 35.7255 164.033 33.3035C164.017 30.6505 165.665 29.0185 167.609 29.0185C168.082 28.9895 168.555 29.0872 168.977 29.3014C169.4 29.5157 169.758 29.8388 170.015 30.2375H170.048V25.4765H171.496ZM170.046 32.4465C170.048 32.2413 170.026 32.0365 169.98 31.8365C169.876 31.3591 169.612 30.9318 169.231 30.6261C168.85 30.3203 168.376 30.1545 167.887 30.1565C166.387 30.1565 165.498 31.4735 165.498 33.2375C165.498 34.8525 166.289 36.1875 167.855 36.1875C168.354 36.1856 168.837 36.0127 169.224 35.6977C169.61 35.3827 169.877 34.9446 169.98 34.4565C170.028 34.2514 170.05 34.0411 170.046 33.8305V32.4465Z" fill="#231F20"/>
<path d="M174.711 33.4515C174.679 33.8202 174.727 34.1915 174.853 34.5396C174.979 34.8878 175.179 35.2044 175.439 35.4677C175.699 35.731 176.013 35.9346 176.36 36.0644C176.706 36.1942 177.077 36.2471 177.446 36.2195C178.203 36.2432 178.956 36.1027 179.654 35.8075L179.901 36.8455C179.062 37.1952 178.158 37.3636 177.249 37.3395C176.717 37.3736 176.183 37.2922 175.685 37.1008C175.187 36.9094 174.736 36.6125 174.364 36.2306C173.991 35.8486 173.706 35.3906 173.527 34.888C173.348 34.3853 173.28 33.8499 173.327 33.3185C173.327 30.9125 174.744 29.0185 177.067 29.0185C179.667 29.0185 180.367 31.3095 180.367 32.7755C180.365 33.0013 180.348 33.2267 180.318 33.4505L174.711 33.4515ZM178.962 32.4135C179.003 32.1235 178.983 31.828 178.901 31.5466C178.82 31.2653 178.679 31.0045 178.489 30.7816C178.299 30.5588 178.063 30.3789 177.798 30.2541C177.533 30.1292 177.245 30.0622 176.952 30.0575C176.354 30.1012 175.794 30.3672 175.382 30.8033C174.97 31.2393 174.736 31.8138 174.727 32.4135H178.962Z" fill="#231F20"/>
<path d="M182.159 31.3585C182.159 30.5345 182.142 29.8585 182.093 29.1995H183.378L183.46 30.5185H183.493C183.754 30.0519 184.137 29.6656 184.602 29.4012C185.067 29.1368 185.595 29.0045 186.129 29.0185C187.229 29.0185 188.947 29.6785 188.947 32.4135V37.1755H187.498V32.5825C187.498 31.2975 187.02 30.2265 185.652 30.2265C185.212 30.2337 184.786 30.3815 184.436 30.6484C184.086 30.9153 183.831 31.2871 183.708 31.7095C183.638 31.9275 183.604 32.1556 183.608 32.3845V37.1845H182.158L182.159 31.3585Z" fill="#231F20"/>
<path d="M192.985 26.9095V29.2005H195.062V30.3005H192.986V34.6005C192.986 35.5885 193.267 36.1495 194.074 36.1495C194.357 36.1534 194.64 36.1197 194.914 36.0495L194.981 37.1365C194.568 37.2821 194.132 37.3499 193.695 37.3365C193.406 37.3539 193.116 37.3085 192.846 37.2034C192.576 37.0982 192.331 36.9359 192.13 36.7275C191.689 36.1304 191.489 35.3893 191.57 34.6515V30.3015H190.334V29.2015H191.57V27.2865L192.985 26.9095Z" fill="#231F20"/>
<path d="M53.75 54.0235V47.1525H52.63V46.0525H53.75V45.6745C53.7094 45.172 53.7701 44.6664 53.9287 44.1878C54.0872 43.7092 54.3404 43.2674 54.673 42.8885C55.2004 42.3988 55.8974 42.1332 56.617 42.1475C57.0398 42.1459 57.4591 42.224 57.853 42.3775L57.653 43.4985C57.3623 43.3712 57.0472 43.3094 56.73 43.3175C55.494 43.3175 55.181 44.4045 55.181 45.6245V46.0525H57.109V47.1525H55.181V54.0235H53.75Z" fill="#231F20"/>
<path d="M65.417 49.9685C65.4642 50.5141 65.3959 51.0636 65.2166 51.5811C65.0373 52.0986 64.7511 52.5725 64.3765 52.9721C64.0018 53.3716 63.5473 53.6877 63.0424 53.8999C62.5375 54.1121 61.9935 54.2155 61.446 54.2035C60.9184 54.2096 60.3954 54.1055 59.9103 53.8978C59.4252 53.6902 58.9889 53.3837 58.629 52.9978C58.2692 52.6119 57.9939 52.1551 57.8207 51.6568C57.6474 51.1584 57.5801 50.6294 57.623 50.1035C57.575 49.559 57.6422 49.0106 57.8202 48.4938C57.9982 47.977 58.283 47.5034 58.656 47.104C59.0291 46.7045 59.4821 46.388 59.9855 46.1752C60.4889 45.9623 61.0315 45.8578 61.578 45.8685C62.1076 45.8579 62.6335 45.9587 63.1215 46.1645C63.6096 46.3704 64.0489 46.6765 64.4109 47.0632C64.773 47.4498 65.0497 47.9083 65.223 48.4088C65.3963 48.9094 65.4624 49.4408 65.417 49.9685V49.9685ZM59.089 50.0515C59.089 51.7985 60.089 53.1165 61.511 53.1165C62.895 53.1165 63.933 51.8165 63.933 50.0165C63.933 48.6645 63.257 46.9515 61.544 46.9515C59.831 46.9515 59.09 48.5345 59.09 50.0515H59.089Z" fill="#231F20"/>
<path d="M67.247 48.5345C67.247 47.5955 67.231 46.7885 67.182 46.0465H68.45L68.5 47.6125H68.566C68.7023 47.1255 68.9894 46.6942 69.3861 46.3805C69.7828 46.0668 70.2687 45.8869 70.774 45.8665C70.9129 45.8646 71.0515 45.8815 71.186 45.9165V47.2835C71.0237 47.2488 70.858 47.2324 70.692 47.2345C70.1967 47.2547 69.7259 47.455 69.3679 47.7979C69.0099 48.1408 68.7895 48.6026 68.748 49.0965C68.7068 49.3192 68.6844 49.545 68.681 49.7715V54.0225H67.247V48.5345Z" fill="#231F20"/>
<path d="M76.179 43.0645C77.0872 42.9027 78.0085 42.8254 78.931 42.8335C80.0783 42.717 81.227 43.0412 82.144 43.7405C82.4312 44.0096 82.6577 44.337 82.8083 44.7007C82.9588 45.0644 83.03 45.4561 83.017 45.8495C83.025 46.4855 82.8247 47.1067 82.4469 47.6183C82.069 48.13 81.5342 48.504 80.924 48.6835V48.7335C81.369 48.9306 81.7542 49.2415 82.0408 49.635C82.3273 50.0284 82.505 50.4905 82.556 50.9745C82.7496 52.0142 83.0364 53.0343 83.413 54.0225H81.93C81.5984 53.1639 81.3499 52.2755 81.188 51.3695C80.859 49.8375 80.266 49.2605 78.964 49.2105H77.613V54.0225H76.179V43.0645ZM77.613 48.1235H79.079C80.612 48.1235 81.579 47.2825 81.579 46.0145C81.579 44.5805 80.541 43.9535 79.025 43.9375C78.5491 43.9241 78.0733 43.9684 77.608 44.0695L77.613 48.1235Z" fill="#231F20"/>
<path d="M85.87 50.2975C85.8378 50.6663 85.8862 51.0377 86.0117 51.3859C86.1373 51.7342 86.3371 52.051 86.5972 52.3144C86.8574 52.5778 87.1717 52.7815 87.5184 52.9113C87.865 53.0412 88.2358 53.0941 88.605 53.0665C89.3621 53.09 90.1153 52.9495 90.813 52.6545L91.06 53.6925C90.2203 54.0421 89.3162 54.2104 88.407 54.1865C87.8746 54.2205 87.3412 54.1389 86.8433 53.9474C86.3454 53.756 85.8948 53.4591 85.5224 53.0772C85.1499 52.6952 84.8645 52.2373 84.6856 51.7347C84.5067 51.2322 84.4386 50.6968 84.486 50.1655C84.486 47.7595 85.903 45.8655 88.226 45.8655C90.826 45.8655 91.526 48.1555 91.526 49.6225C91.5238 49.8483 91.5075 50.0738 91.477 50.2975H85.87ZM90.121 49.2595C90.1625 48.9695 90.1417 48.674 90.0602 48.3926C89.9786 48.1113 89.8381 47.8505 89.648 47.6276C89.4579 47.4048 89.2225 47.2249 88.9575 47.1001C88.6924 46.9752 88.4039 46.9082 88.111 46.9035C87.5128 46.9472 86.9526 47.2132 86.5408 47.6493C86.129 48.0853 85.8954 48.6598 85.886 49.2595H90.121Z" fill="#231F20"/>
<path d="M93.12 52.5385C93.6942 52.8977 94.354 53.0969 95.031 53.1155C96.086 53.1155 96.58 52.5875 96.58 51.9285C96.58 51.2365 96.168 50.8575 95.097 50.4625C93.663 49.9515 92.988 49.1625 92.988 48.2045C93.002 47.8655 93.0859 47.533 93.2346 47.2281C93.3833 46.9231 93.5935 46.6522 93.852 46.4324C94.1105 46.2126 94.4117 46.0487 94.7366 45.951C95.0615 45.8532 95.4032 45.8238 95.74 45.8645C96.4253 45.8574 97.1008 46.0276 97.701 46.3585L97.339 47.4135C96.8488 47.111 96.284 46.951 95.708 46.9515C94.851 46.9515 94.373 47.4455 94.373 48.0385C94.373 48.6975 94.85 48.9945 95.89 49.3895C97.274 49.9165 97.983 50.6085 97.983 51.7955C97.983 53.1955 96.895 54.1845 95 54.1845C94.2187 54.1984 93.447 54.0111 92.759 53.6405L93.12 52.5385Z" fill="#231F20"/>
<path d="M100.652 50.2975C100.62 50.6663 100.668 51.0377 100.794 51.3859C100.919 51.7342 101.119 52.051 101.379 52.3144C101.639 52.5778 101.954 52.7815 102.3 52.9113C102.647 53.0412 103.018 53.0941 103.387 53.0665C104.144 53.0899 104.897 52.9494 105.595 52.6545L105.842 53.6925C105.003 54.042 104.099 54.2103 103.19 54.1865C102.658 54.2206 102.124 54.1392 101.626 53.9478C101.128 53.7564 100.677 53.4595 100.305 53.0776C99.9321 52.6956 99.6466 52.2376 99.4677 51.735C99.2887 51.2323 99.2206 50.6969 99.268 50.1655C99.268 47.7595 100.685 45.8655 103.008 45.8655C105.608 45.8655 106.308 48.1555 106.308 49.6225C106.306 49.8483 106.29 50.0737 106.26 50.2975H100.652ZM104.903 49.2595C104.944 48.9695 104.924 48.674 104.842 48.3926C104.761 48.1113 104.62 47.8505 104.43 47.6276C104.24 47.4048 104.004 47.2249 103.739 47.1001C103.474 46.9752 103.186 46.9082 102.893 46.9035C102.295 46.9472 101.735 47.2132 101.323 47.6493C100.911 48.0853 100.677 48.6598 100.668 49.2595H104.903Z" fill="#231F20"/>
<path d="M112.516 54.0215L112.401 53.0215H112.351C112.068 53.3985 111.699 53.7027 111.275 53.9089C110.851 54.1152 110.383 54.2175 109.912 54.2075C109.598 54.2306 109.283 54.1884 108.987 54.0834C108.69 53.9784 108.419 53.813 108.189 53.5977C107.96 53.3823 107.778 53.1217 107.655 52.8323C107.531 52.5429 107.47 52.231 107.473 51.9165C107.473 49.9885 109.187 48.9345 112.268 48.9505V48.7855C112.301 48.5378 112.277 48.2859 112.197 48.049C112.118 47.812 111.986 47.5962 111.811 47.418C111.636 47.2397 111.423 47.1037 111.187 47.0203C110.952 46.9369 110.7 46.9082 110.452 46.9365C109.719 46.9387 109 47.1439 108.376 47.5295L108.046 46.5735C108.836 46.0977 109.744 45.8521 110.666 45.8645C113.105 45.8645 113.697 47.5285 113.697 49.1275V52.1095C113.687 52.7491 113.731 53.3885 113.83 54.0205L112.516 54.0215ZM112.302 49.9515C110.72 49.9185 108.924 50.1985 108.924 51.7515C108.909 51.9357 108.934 52.1209 108.997 52.2945C109.06 52.4682 109.16 52.6261 109.29 52.7575C109.42 52.889 109.577 52.9908 109.75 53.056C109.923 53.1212 110.108 53.1483 110.292 53.1355C110.713 53.1468 111.127 53.0236 111.474 52.7837C111.821 52.5439 112.082 52.1998 112.22 51.8015C112.271 51.6526 112.299 51.4968 112.302 51.3395V49.9515Z" fill="#231F20"/>
<path d="M116.042 48.5345C116.042 47.5955 116.026 46.7885 115.977 46.0465H117.245L117.295 47.6125H117.361C117.497 47.1255 117.784 46.6942 118.181 46.3805C118.578 46.0668 119.064 45.8869 119.569 45.8665C119.708 45.8647 119.847 45.8815 119.981 45.9165V47.2835C119.819 47.2489 119.653 47.2324 119.487 47.2345C118.992 47.2547 118.521 47.455 118.163 47.7979C117.805 48.1408 117.585 48.6026 117.543 49.0965C117.502 49.3193 117.48 49.5451 117.477 49.7715V54.0225H116.043L116.042 48.5345Z" fill="#231F20"/>
<path d="M126.952 53.7245C126.232 54.0458 125.45 54.2036 124.662 54.1865C124.125 54.2139 123.588 54.1265 123.087 53.9303C122.586 53.7341 122.133 53.4335 121.757 53.0485C121.381 52.6635 121.092 52.2029 120.908 51.6974C120.724 51.1918 120.65 50.6529 120.69 50.1165C120.664 49.549 120.757 48.9824 120.963 48.4532C121.17 47.9241 121.486 47.4443 121.89 47.0449C122.294 46.6456 122.777 46.3357 123.309 46.1352C123.84 45.9348 124.408 45.8484 124.975 45.8815C125.667 45.8738 126.352 46.0143 126.985 46.2935L126.655 47.4145C126.137 47.1442 125.558 47.0136 124.974 47.0355C124.213 47.0808 123.498 47.4133 122.973 47.9659C122.448 48.5185 122.152 49.2499 122.146 50.0121C122.139 50.7744 122.423 51.5106 122.938 52.0719C123.454 52.6331 124.164 52.9776 124.924 53.0355C125.54 53.0371 126.148 52.9004 126.704 52.6355L126.952 53.7245Z" fill="#231F20"/>
<path d="M128.65 42.3225H130.1V47.2945H130.133C130.378 46.8648 130.738 46.5111 131.171 46.2725C131.621 46.0075 132.132 45.8655 132.654 45.8605C133.725 45.8605 135.44 46.5205 135.44 49.2715V54.0175H133.989V49.4375C133.989 48.1515 133.512 47.0645 132.143 47.0645C131.708 47.0731 131.287 47.2176 130.938 47.4776C130.59 47.7376 130.331 48.1002 130.199 48.5145C130.12 48.7361 130.086 48.9715 130.099 49.2065V54.0185H128.65V42.3225Z" fill="#231F20"/>
<path d="M6.07095 69.1448C6.06034 68.3673 6.20023 67.5951 6.48294 66.8708C6.73917 66.2171 7.1276 65.6234 7.62393 65.1268C8.11945 64.6398 8.71103 64.2614 9.36093 64.0158C10.0686 63.7492 10.8198 63.617 11.5759 63.6258C12.3375 63.6072 13.0959 63.7296 13.8129 63.9868C14.4685 64.2246 15.0659 64.5996 15.5649 65.0868C16.0635 65.5799 16.4544 66.171 16.7129 66.8228C16.996 67.5446 17.1359 68.3145 17.1249 69.0898C17.1354 69.8503 16.9953 70.6055 16.7129 71.3118C16.4521 71.9585 16.0614 72.545 15.5649 73.0348C15.0616 73.5231 14.466 73.9062 13.8129 74.1618C13.0993 74.4374 12.341 74.5795 11.5759 74.5808C10.8198 74.5896 10.0686 74.4573 9.36093 74.1908C8.71089 73.9482 8.11898 73.572 7.62341 73.0864C7.12784 72.6009 6.73966 72.0167 6.48394 71.3718C6.20055 70.664 6.06019 69.9071 6.07095 69.1448V69.1448ZM8.01394 69.0268C8.0081 69.5532 8.09509 70.0765 8.27093 70.5728C8.43062 71.024 8.67842 71.4391 8.99993 71.7938C9.3149 72.1386 9.69797 72.4144 10.1249 72.6038C10.5866 72.8057 11.0861 72.9063 11.5899 72.8988C12.0959 72.9056 12.5977 72.8051 13.0619 72.6038C13.492 72.4158 13.878 72.1399 14.1949 71.7938C14.5165 71.4391 14.7643 71.024 14.9239 70.5728C15.1001 70.0766 15.1875 69.5533 15.1819 69.0268C15.1859 68.5294 15.0985 68.0355 14.9239 67.5698C14.7604 67.1314 14.5128 66.7292 14.1949 66.3858C13.8778 66.0423 13.4917 65.7697 13.0619 65.5858C12.5964 65.3893 12.0952 65.2912 11.5899 65.2978C11.0869 65.2906 10.5879 65.3887 10.1249 65.5858C9.69827 65.7711 9.31508 66.0436 8.99993 66.3858C8.68179 66.7301 8.43412 67.1333 8.27093 67.5728C8.09811 68.0378 8.01202 68.5306 8.01693 69.0268H8.01394Z" fill="#231F20"/>
<path d="M19.7109 68.7478H18.255V67.2478H19.7109V66.2478C19.7061 65.8017 19.7395 65.3561 19.811 64.9158C19.8667 64.5514 19.9993 64.203 20.2 63.8938C20.3985 63.6034 20.6761 63.376 20.9999 63.2388C21.4259 63.0716 21.8817 62.994 22.3389 63.0108C22.7143 63.0072 23.0892 63.0407 23.458 63.1108L23.3399 64.6108C23.2119 64.5821 23.0893 64.5574 22.9719 64.5368C22.8506 64.5175 22.7279 64.5078 22.605 64.5078C22.4019 64.4986 22.1997 64.5391 22.0159 64.6258C21.8744 64.6983 21.755 64.8074 21.6699 64.9418C21.5833 65.0827 21.528 65.2406 21.5079 65.4048C21.4827 65.5904 21.4704 65.7775 21.471 65.9648V67.2448H23.104V68.7448H21.471V74.3128H19.7049L19.7109 68.7478Z" fill="#231F20"/>
<path d="M25.4599 68.7478H24.0029V67.2478H25.4599V66.2478C25.4551 65.8017 25.4886 65.3561 25.56 64.9158C25.6157 64.5514 25.7483 64.203 25.949 63.8938C26.1475 63.6034 26.4251 63.376 26.7489 63.2388C27.1749 63.0716 27.6307 62.994 28.0879 63.0108C28.4633 63.0072 28.8382 63.0407 29.207 63.1108L29.0889 64.6108C28.9609 64.5821 28.8383 64.5574 28.7209 64.5368C28.5996 64.5175 28.4769 64.5078 28.354 64.5078C28.1509 64.4986 27.9487 64.5391 27.7649 64.6258C27.6234 64.6983 27.504 64.8074 27.419 64.9418C27.3323 65.0827 27.2771 65.2406 27.2569 65.4048C27.2317 65.5904 27.2194 65.7775 27.22 65.9648V67.2448H28.853V68.7448H27.22V74.3128H25.4539L25.4599 68.7478ZM29.771 64.8478C29.7701 64.7088 29.7977 64.571 29.852 64.4431C29.9063 64.3151 29.9863 64.1997 30.087 64.1038C30.1919 63.9996 30.317 63.9179 30.4545 63.8636C30.592 63.8093 30.7391 63.7835 30.8869 63.7878C31.1877 63.779 31.4803 63.8864 31.7039 64.0878C31.8081 64.1845 31.8912 64.3018 31.948 64.4321C32.0048 64.5624 32.0341 64.7031 32.0341 64.8453C32.0341 64.9874 32.0048 65.1281 31.948 65.2584C31.8912 65.3888 31.8081 65.506 31.7039 65.6028C31.4803 65.8041 31.1877 65.9115 30.8869 65.9028C30.7391 65.9073 30.5919 65.8817 30.4543 65.8273C30.3168 65.773 30.1918 65.6911 30.087 65.5868C29.9868 65.4913 29.9071 65.3765 29.8528 65.2493C29.7985 65.122 29.7706 64.9851 29.771 64.8468V64.8478ZM30.0069 67.2478H31.7729V74.3128H30.0069V67.2478Z" fill="#231F20"/>
<path d="M38.4669 69.3658C38.2774 69.1632 38.059 68.9897 37.8189 68.8508C37.609 68.7275 37.3704 68.6616 37.1269 68.6598C36.8417 68.6533 36.5583 68.7076 36.2957 68.8192C36.0331 68.9307 35.7973 69.097 35.6039 69.3068C35.4227 69.5022 35.2826 69.7321 35.1919 69.9828C35.0051 70.4966 35.0051 71.0599 35.1919 71.5738C35.2823 71.8246 35.4224 72.0545 35.6039 72.2498C35.7974 72.4596 36.0332 72.6259 36.2957 72.7378C36.5583 72.8497 36.8416 72.9046 37.1269 72.8988C37.3915 72.9004 37.653 72.8423 37.8919 72.7288C38.128 72.6141 38.3337 72.4452 38.4919 72.2358L39.6699 73.5018C39.4889 73.682 39.2832 73.8355 39.0589 73.9578C38.8358 74.0825 38.6015 74.186 38.3589 74.2668C38.1382 74.3416 37.9118 74.3985 37.6819 74.4368C37.4969 74.4682 37.3096 74.4853 37.1219 74.4878C36.6102 74.4903 36.1021 74.4009 35.6219 74.2238C35.1685 74.0576 34.753 73.8022 34.3999 73.4728C34.0517 73.1413 33.7738 72.743 33.5829 72.3018C33.1812 71.3262 33.1812 70.2314 33.5829 69.2558C33.7722 68.8127 34.0509 68.4135 34.4016 68.0831C34.7522 67.7527 35.1674 67.4983 35.6209 67.3358C36.1007 67.1571 36.609 67.067 37.1209 67.0698C37.5867 67.0722 38.0482 67.1593 38.4829 67.3268C38.9419 67.5003 39.3532 67.7803 39.6829 68.1438L38.4669 69.3658Z" fill="#231F20"/>
<path d="M42.2419 71.3968C42.2582 71.6335 42.3213 71.8646 42.4275 72.0768C42.5338 72.289 42.6811 72.4779 42.8609 72.6328C43.2207 72.9296 43.6757 73.0862 44.1419 73.0738C44.5301 73.0872 44.9145 72.9934 45.2529 72.8028C45.5522 72.6207 45.8183 72.389 46.0399 72.1178L47.3059 73.0738C46.9427 73.5464 46.4673 73.921 45.9229 74.1638C45.4168 74.378 44.8726 74.4878 44.3229 74.4868C43.8111 74.4894 43.3031 74.3999 42.8229 74.2228C42.3693 74.0596 41.9541 73.8047 41.6033 73.4741C41.2525 73.1434 40.9736 72.744 40.7839 72.3008C40.3822 71.3252 40.3822 70.2304 40.7839 69.2548C40.9733 68.8116 41.2521 68.4123 41.603 68.0819C41.9539 67.7515 42.3692 67.4972 42.8229 67.3348C43.3027 67.1561 43.8109 67.066 44.3229 67.0688C44.7846 67.063 45.2428 67.1504 45.6699 67.3258C46.0694 67.4926 46.4265 67.7469 46.7149 68.0698C47.0194 68.4199 47.2497 68.8281 47.3919 69.2698C47.5623 69.7997 47.6444 70.3541 47.6349 70.9108V71.3968H42.2419ZM45.8629 70.0728C45.8701 69.8457 45.8308 69.6195 45.7474 69.4082C45.664 69.1968 45.5382 69.0048 45.3779 68.8438C45.0172 68.5277 44.5466 68.3664 44.0679 68.3948C43.8383 68.3827 43.6086 68.417 43.3925 68.4955C43.1764 68.574 42.9783 68.6951 42.8099 68.8518C42.4884 69.183 42.2886 69.6134 42.2429 70.0728H45.8629Z" fill="#231F20"/>
<path d="M53.4259 70.7788C53.418 70.2557 53.5202 69.7368 53.7259 69.2558C53.9152 68.8127 54.1939 68.4135 54.5445 68.0831C54.8952 67.7527 55.3103 67.4983 55.7639 67.3358C56.7326 66.9821 57.7952 66.9821 58.7639 67.3358C59.2173 67.4986 59.6323 67.7531 59.983 68.0834C60.3336 68.4138 60.6124 68.8129 60.8019 69.2558C61.2043 70.2312 61.2043 71.3263 60.8019 72.3018C60.6123 72.7448 60.3335 73.1441 59.9828 73.4748C59.6322 73.8054 59.2173 74.0604 58.7639 74.2238C57.7949 74.5759 56.7329 74.5759 55.7639 74.2238C55.3104 74.0577 54.8949 73.8023 54.5419 73.4728C54.1935 73.1414 53.9156 72.7431 53.7249 72.3018C53.5195 71.8207 53.4177 71.3018 53.4259 70.7788V70.7788ZM55.1919 70.7788C55.1908 71.0516 55.2381 71.3225 55.3319 71.5788C55.422 71.8297 55.5622 72.0597 55.7439 72.2548C55.9388 72.4636 56.1746 72.6302 56.4366 72.7441C56.6986 72.858 56.9812 72.9167 57.2669 72.9167C57.5526 72.9167 57.8352 72.858 58.0972 72.7441C58.3592 72.6302 58.595 72.4636 58.7899 72.2548C58.9716 72.0597 59.1118 71.8297 59.2019 71.5788C59.3896 71.065 59.3896 70.5015 59.2019 69.9878C59.1115 69.737 58.9714 69.507 58.7899 69.3118C58.5949 69.1031 58.359 68.9368 58.097 68.8231C57.835 68.7094 57.5525 68.6507 57.2669 68.6507C56.9813 68.6507 56.6987 68.7094 56.4368 68.8231C56.1748 68.9368 55.939 69.1031 55.7439 69.3118C55.5625 69.507 55.4223 69.737 55.3319 69.9878C55.2392 70.2412 55.1918 70.5089 55.1919 70.7788V70.7788Z" fill="#231F20"/>
<path d="M63.5389 68.7478H62.082V67.2478H63.5389V66.2478C63.5344 65.8017 63.5678 65.3561 63.639 64.9158C63.695 64.5513 63.8279 64.2029 64.0289 63.8938C64.2274 63.6034 64.5051 63.376 64.829 63.2388C65.2549 63.0715 65.7107 62.9939 66.168 63.0108C66.543 63.0072 66.9175 63.0407 67.2859 63.1108L67.168 64.6108C67.04 64.5818 66.9179 64.5578 66.7999 64.5368C66.6782 64.5175 66.5552 64.5078 66.4319 64.5078C66.2289 64.4987 66.0268 64.5392 65.8429 64.6258C65.7015 64.6984 65.5821 64.8075 65.4969 64.9418C65.4103 65.0827 65.3551 65.2406 65.3349 65.4048C65.3103 65.5904 65.2983 65.7775 65.2989 65.9648V67.2448H66.9319V68.7448H65.2989V74.3128H63.5389V68.7478Z" fill="#231F20"/>
<path d="M72.6049 63.8908H79.505V65.5688H74.458V68.1288H79.2409V69.8068H74.458V72.6318H79.771V74.3098H72.6049V63.8908Z" fill="#231F20"/>
<path d="M81.664 67.2468H83.3419V68.3798H83.372C83.5478 68.0154 83.8105 67.6998 84.1369 67.4608C84.5479 67.18 85.04 67.0426 85.5369 67.0698C85.9495 67.0579 86.3596 67.1385 86.737 67.3058C87.0466 67.4492 87.32 67.6604 87.5369 67.9238C87.745 68.1834 87.8954 68.4844 87.9779 68.8068C88.0672 69.1476 88.1119 69.4985 88.1109 69.8508V74.3108H86.3449V70.7348C86.3449 70.5388 86.3353 70.3208 86.3159 70.0808C86.2977 69.8484 86.2455 69.62 86.161 69.4028C86.0794 69.1954 85.9449 69.013 85.771 68.8738C85.5624 68.7219 85.3076 68.6469 85.0499 68.6618C84.794 68.6538 84.5396 68.704 84.3059 68.8088C84.1113 68.9027 83.9403 69.0395 83.8059 69.2088C83.6723 69.3787 83.5747 69.574 83.5189 69.7828C83.4597 70.0039 83.4301 70.2319 83.4309 70.4608V74.3158H81.664V67.2468Z" fill="#231F20"/>
<path d="M89.2849 68.7488V67.2488H90.742V65.2008H92.5079V67.2488H94.4509V68.7488H92.5079V71.8388C92.4936 72.1314 92.563 72.4221 92.708 72.6768C92.802 72.7909 92.9236 72.8792 93.0614 72.9333C93.1991 72.9874 93.3483 73.0054 93.4949 72.9858C93.6678 72.9841 93.8402 72.9667 94.01 72.9338C94.1677 72.9105 94.3185 72.8531 94.4519 72.7658V74.2488C94.2344 74.345 94.0034 74.4071 93.7669 74.4328C93.5306 74.4646 93.2925 74.4817 93.054 74.4838C92.6628 74.4955 92.2723 74.4431 91.898 74.3288C91.6226 74.2427 91.3776 74.0796 91.192 73.8588C91.0113 73.6291 90.8901 73.3584 90.8389 73.0708C90.7693 72.712 90.7358 72.3472 90.739 71.9818V68.7488H89.2849Z" fill="#231F20"/>
<path d="M96.1169 67.2468H97.8829V68.3658H97.912C98.0917 67.9714 98.3835 67.6385 98.751 67.4088C99.127 67.1794 99.5606 67.0619 100.001 67.0698C100.107 67.0695 100.213 67.0796 100.317 67.0998C100.417 67.1198 100.527 67.1448 100.633 67.1738V68.8808C100.487 68.8418 100.342 68.8098 100.202 68.7808C100.063 68.7567 99.9228 68.7443 99.782 68.7438C99.4359 68.7277 99.0921 68.8069 98.7879 68.9728C98.5607 69.1026 98.3647 69.2808 98.214 69.4948C98.09 69.6726 98.0005 69.872 97.9499 70.0828C97.9131 70.2272 97.891 70.3749 97.884 70.5238V74.3068H96.118L96.1169 67.2468Z" fill="#231F20"/>
<path d="M103.432 71.3968C103.448 71.6335 103.511 71.8646 103.617 72.0768C103.723 72.289 103.87 72.478 104.05 72.6328C104.409 72.9294 104.864 73.086 105.33 73.0738C105.718 73.0872 106.103 72.9934 106.441 72.8028C106.74 72.6207 107.006 72.3891 107.228 72.1178L108.494 73.0738C108.131 73.5467 107.656 73.9214 107.111 74.1638C106.605 74.3782 106.061 74.4881 105.511 74.4868C104.999 74.4892 104.491 74.3998 104.011 74.2228C103.558 74.0563 103.143 73.801 102.79 73.4718C102.442 73.1404 102.164 72.7421 101.973 72.3008C101.571 71.3253 101.571 70.2302 101.973 69.2548C102.162 68.8117 102.441 68.4125 102.792 68.0821C103.142 67.7517 103.557 67.4973 104.011 67.3348C104.491 67.1563 104.999 67.0661 105.511 67.0688C105.972 67.063 106.43 67.1504 106.857 67.3258C107.257 67.4924 107.614 67.7467 107.902 68.0698C108.207 68.42 108.437 68.8281 108.58 69.2698C108.749 69.7999 108.831 70.3542 108.822 70.9108V71.3968H103.432ZM107.053 70.0728C107.06 69.8456 107.02 69.6195 106.937 69.4081C106.853 69.1968 106.727 69.0048 106.567 68.8438C106.206 68.5276 105.736 68.3663 105.257 68.3948C105.027 68.3828 104.798 68.417 104.582 68.4956C104.365 68.5741 104.167 68.6952 103.999 68.8518C103.677 69.1828 103.478 69.6133 103.433 70.0728H107.053Z" fill="#231F20"/>
<path d="M110.645 67.2468H112.322V68.3068H112.352C112.588 67.8925 112.948 67.5629 113.382 67.3648C113.822 67.1666 114.299 67.066 114.782 67.0698C115.282 67.0621 115.779 67.1599 116.239 67.3568C116.656 67.54 117.031 67.808 117.339 68.1438C117.647 68.4853 117.883 68.8862 118.031 69.3218C118.191 69.7908 118.27 70.2833 118.267 70.7788C118.271 71.2755 118.186 71.7689 118.017 72.2358C117.86 72.669 117.622 73.0687 117.317 73.4138C117.015 73.7486 116.646 74.0164 116.234 74.1998C115.799 74.3943 115.327 74.4925 114.851 74.4878C114.554 74.4932 114.258 74.4596 113.97 74.3878C113.734 74.3271 113.506 74.2381 113.292 74.1228C113.112 74.0275 112.944 73.9113 112.792 73.7768C112.667 73.6687 112.554 73.5481 112.454 73.4168H112.409V77.6688H110.643L110.645 67.2468ZM116.503 70.7788C116.504 70.5058 116.456 70.235 116.362 69.9788C116.271 69.7284 116.131 69.4986 115.95 69.3028C115.755 69.094 115.519 68.9276 115.257 68.8138C114.995 68.7 114.713 68.6413 114.427 68.6413C114.141 68.6413 113.859 68.7 113.597 68.8138C113.335 68.9276 113.099 69.094 112.904 69.3028C112.722 69.4982 112.582 69.7281 112.491 69.9788C112.305 70.4928 112.305 71.0558 112.491 71.5698C112.582 71.8206 112.722 72.0505 112.904 72.2458C113.099 72.4544 113.335 72.6207 113.597 72.7344C113.859 72.8481 114.141 72.9068 114.427 72.9068C114.713 72.9068 114.995 72.8481 115.257 72.7344C115.519 72.6207 115.755 72.4544 115.95 72.2458C116.131 72.0501 116.271 71.8203 116.362 71.5698C116.455 71.3164 116.503 71.0487 116.503 70.7788V70.7788Z" fill="#231F20"/>
<path d="M119.971 67.2468H121.737V68.3658H121.766C121.946 67.9713 122.238 67.6385 122.606 67.4088C122.982 67.179 123.416 67.0614 123.856 67.0698C123.962 67.0697 124.068 67.0797 124.172 67.0998C124.272 67.1198 124.38 67.1448 124.488 67.1738V68.8808C124.341 68.8418 124.196 68.8098 124.055 68.7808C123.916 68.7565 123.776 68.7441 123.635 68.7438C123.289 68.7281 122.945 68.8073 122.641 68.9728C122.414 69.1025 122.218 69.2807 122.067 69.4948C121.943 69.6726 121.853 69.872 121.803 70.0828C121.766 70.2271 121.743 70.3749 121.736 70.5238V74.3068H119.97L119.971 67.2468Z" fill="#231F20"/>
<path d="M127.431 71.3968C127.447 71.6335 127.51 71.8646 127.616 72.0768C127.722 72.289 127.869 72.478 128.049 72.6328C128.409 72.9292 128.863 73.0858 129.329 73.0738C129.717 73.0873 130.102 72.9936 130.441 72.8028C130.74 72.6205 131.006 72.3889 131.228 72.1178L132.494 73.0738C132.131 73.5467 131.655 73.9214 131.11 74.1638C130.604 74.3783 130.06 74.4881 129.51 74.4868C128.998 74.4891 128.49 74.3997 128.01 74.2228C127.557 74.0564 127.142 73.801 126.789 73.4718C126.44 73.1404 126.163 72.7421 125.972 72.3008C125.569 71.3255 125.569 70.2301 125.972 69.2548C126.161 68.8117 126.44 68.4125 126.791 68.0821C127.141 67.7517 127.556 67.4973 128.01 67.3348C128.49 67.1563 128.998 67.0662 129.51 67.0688C129.971 67.063 130.429 67.1504 130.856 67.3258C131.256 67.4925 131.613 67.7467 131.902 68.0698C132.206 68.4201 132.436 68.8282 132.579 69.2698C132.748 69.7999 132.83 70.3542 132.821 70.9108V71.3968H127.431ZM131.052 70.0728C131.059 69.8456 131.019 69.6194 130.936 69.4081C130.852 69.1967 130.726 69.0047 130.566 68.8438C130.205 68.5275 129.735 68.3662 129.256 68.3948C129.026 68.3827 128.797 68.417 128.581 68.4955C128.364 68.574 128.166 68.6951 127.998 68.8518C127.676 69.1826 127.476 69.6132 127.431 70.0728H131.052Z" fill="#231F20"/>
<path d="M134.646 67.2468H136.322V68.3798H136.352C136.528 68.0154 136.79 67.6998 137.117 67.4608C137.528 67.18 138.02 67.0425 138.517 67.0698C138.93 67.0579 139.34 67.1385 139.717 67.3058C140.027 67.4489 140.3 67.6601 140.517 67.9238C140.725 68.1837 140.875 68.4846 140.958 68.8068C141.047 69.1476 141.092 69.4985 141.091 69.8508V74.3108H139.325V70.7348C139.325 70.5388 139.315 70.3208 139.295 70.0808C139.278 69.8483 139.226 69.6198 139.141 69.4028C139.06 69.1953 138.925 69.0128 138.751 68.8738C138.542 68.7219 138.287 68.647 138.029 68.6618C137.774 68.6537 137.52 68.704 137.287 68.8088C137.092 68.9024 136.921 69.0392 136.787 69.2088C136.654 69.3787 136.556 69.574 136.5 69.7828C136.44 70.0038 136.411 70.2318 136.412 70.4608V74.3158H134.646V67.2468Z" fill="#231F20"/>
<path d="M144.642 71.3968C144.658 71.6335 144.721 71.8646 144.827 72.0768C144.933 72.289 145.08 72.478 145.26 72.6328C145.619 72.9293 146.074 73.086 146.54 73.0738C146.928 73.0873 147.313 72.9936 147.652 72.8028C147.951 72.6207 148.217 72.3891 148.438 72.1178L149.704 73.0738C149.341 73.5467 148.865 73.9214 148.32 74.1638C147.814 74.3783 147.27 74.4881 146.72 74.4868C146.208 74.4891 145.7 74.3997 145.22 74.2228C144.767 74.0563 144.352 73.801 143.999 73.4718C143.651 73.1404 143.373 72.7421 143.182 72.3008C142.779 71.3255 142.779 70.2301 143.182 69.2548C143.371 68.8117 143.65 68.4125 144.001 68.0821C144.351 67.7517 144.766 67.4973 145.22 67.3348C145.7 67.1563 146.208 67.0662 146.72 67.0688C147.181 67.063 147.639 67.1504 148.066 67.3258C148.466 67.4925 148.823 67.7467 149.112 68.0698C149.416 68.4201 149.646 68.8282 149.789 69.2698C149.958 69.7999 150.04 70.3542 150.031 70.9108V71.3968H144.642ZM148.263 70.0728C148.27 69.8456 148.23 69.6194 148.147 69.4081C148.063 69.1967 147.937 69.0047 147.777 68.8438C147.416 68.5275 146.946 68.3662 146.467 68.3948C146.237 68.3827 146.008 68.417 145.792 68.4955C145.575 68.574 145.377 68.6951 145.209 68.8518C144.887 69.1826 144.687 69.6132 144.642 70.0728H148.263Z" fill="#231F20"/>
<path d="M158.286 74.3098H156.608V73.1768H156.579C156.403 73.5415 156.14 73.8577 155.814 74.0978C155.402 74.377 154.911 74.5137 154.414 74.4868C154.002 74.4988 153.593 74.4206 153.214 74.2578C152.902 74.1182 152.628 73.9063 152.414 73.6398C152.206 73.3772 152.056 73.074 151.973 72.7498C151.884 72.409 151.839 72.058 151.84 71.7058V67.2458H153.606V70.8218C153.606 71.0218 153.616 71.2358 153.635 71.4758C153.653 71.7082 153.705 71.9367 153.79 72.1538C153.87 72.36 154.001 72.5422 154.172 72.6828C154.382 72.8372 154.64 72.9129 154.9 72.8968C155.156 72.9051 155.411 72.8544 155.644 72.7488C155.839 72.6553 156.01 72.5185 156.144 72.3488C156.278 72.179 156.376 71.9837 156.432 71.7748C156.491 71.5536 156.52 71.3256 156.52 71.0968V67.2458H158.286V74.3098Z" fill="#231F20"/>
<path d="M160.482 67.2468H162.248V68.3658H162.277C162.457 67.9715 162.749 67.6388 163.117 67.4088C163.493 67.1792 163.927 67.0616 164.367 67.0698C164.473 67.0697 164.579 67.0797 164.683 67.0998C164.783 67.1198 164.892 67.1448 164.999 67.1738V68.8808C164.852 68.8418 164.707 68.8098 164.566 68.7808C164.427 68.7566 164.287 68.7442 164.146 68.7438C163.8 68.7278 163.457 68.807 163.153 68.9728C162.926 69.1024 162.73 69.2806 162.579 69.4948C162.455 69.6727 162.365 69.872 162.314 70.0828C162.277 70.2272 162.255 70.3749 162.248 70.5238V74.3068H160.482V67.2468Z" fill="#231F20"/>
<path d="M170.345 69.2038C170.194 68.9768 169.988 68.7917 169.747 68.6658C169.505 68.5399 169.235 68.4773 168.963 68.4838C168.721 68.4851 168.484 68.5458 168.271 68.6608C168.164 68.712 168.074 68.794 168.014 68.8961C167.953 68.9983 167.924 69.1162 167.931 69.2348C167.926 69.3321 167.95 69.4287 168 69.5124C168.05 69.596 168.124 69.663 168.212 69.7048C168.436 69.8167 168.673 69.9007 168.918 69.9548C169.203 70.0214 169.509 70.0924 169.837 70.1678C170.158 70.2388 170.468 70.3529 170.758 70.5068C171.04 70.6558 171.282 70.8705 171.464 71.1328C171.668 71.4579 171.766 71.8384 171.745 72.2218C171.757 72.5961 171.662 72.9662 171.472 73.2888C171.295 73.5742 171.053 73.8139 170.766 73.9888C170.464 74.1701 170.133 74.2993 169.788 74.3708C169.43 74.4483 169.064 74.4879 168.698 74.4888C168.183 74.494 167.671 74.4143 167.182 74.2528C166.702 74.0828 166.276 73.7885 165.947 73.3998L167.123 72.2998C167.334 72.5426 167.58 72.7534 167.852 72.9258C168.139 73.0949 168.468 73.1792 168.801 73.1688C168.935 73.1686 169.07 73.1539 169.201 73.1248C169.336 73.0973 169.465 73.0476 169.584 72.9778C169.697 72.9134 169.795 72.8258 169.871 72.7208C169.967 72.5775 170.002 72.4026 169.971 72.2334C169.939 72.0641 169.843 71.9139 169.702 71.8148C169.483 71.6837 169.245 71.5873 168.996 71.5288C168.711 71.4554 168.404 71.3868 168.075 71.3228C167.756 71.2619 167.447 71.158 167.156 71.0138C166.875 70.8745 166.633 70.6685 166.45 70.4138C166.246 70.0992 166.148 69.7279 166.17 69.3538C166.162 68.9979 166.246 68.6459 166.413 68.3318C166.57 68.0486 166.789 67.8046 167.053 67.6178C167.33 67.4259 167.64 67.286 167.967 67.2048C168.774 66.9969 169.624 67.0355 170.409 67.3158C170.859 67.4701 171.25 67.7605 171.527 68.1468L170.345 69.2038Z" fill="#231F20"/>
<path d="M175.03 68.2328H175.059C175.227 67.9061 175.478 67.6299 175.788 67.4328C176.189 67.1775 176.659 67.0515 177.134 67.0718C177.547 67.0599 177.957 67.1405 178.334 67.3078C178.644 67.4507 178.917 67.662 179.134 67.9258C179.342 68.1855 179.492 68.4865 179.575 68.8088C179.664 69.1495 179.709 69.5005 179.708 69.8528V74.3128H177.941V70.7338C177.941 70.5378 177.931 70.3198 177.911 70.0798C177.894 69.8473 177.842 69.6188 177.757 69.4018C177.676 69.1943 177.541 69.0119 177.367 68.8728C177.158 68.7208 176.903 68.6459 176.645 68.6608C176.39 68.6528 176.136 68.7031 175.903 68.8078C175.708 68.9012 175.537 69.038 175.403 69.2078C175.269 69.3775 175.171 69.5728 175.115 69.7818C175.055 70.0028 175.026 70.2308 175.027 70.4598V74.3148H173.261V63.1868H175.027L175.03 68.2328Z" fill="#231F20"/>
<path d="M181.487 64.8468C181.486 64.7078 181.514 64.5701 181.568 64.4422C181.623 64.3143 181.702 64.1988 181.803 64.1028C181.908 63.9987 182.033 63.917 182.171 63.8627C182.308 63.8084 182.455 63.7825 182.603 63.7868C182.904 63.7778 183.196 63.8852 183.42 64.0868C183.524 64.1835 183.607 64.3007 183.664 64.431C183.721 64.5613 183.751 64.702 183.751 64.8443C183.751 64.9865 183.721 65.1272 183.664 65.2575C183.607 65.3879 183.524 65.5051 183.42 65.6018C183.196 65.8033 182.904 65.9107 182.603 65.9018C182.455 65.9062 182.308 65.8805 182.17 65.8262C182.033 65.7718 181.908 65.69 181.803 65.5858C181.703 65.4903 181.624 65.3756 181.569 65.2486C181.515 65.1216 181.487 64.9849 181.487 64.8468V64.8468ZM181.737 67.2468H183.503V74.3108H181.737V67.2468Z" fill="#231F20"/>
<path d="M185.571 67.2468H187.248V68.3068H187.278C187.514 67.8924 187.874 67.5628 188.308 67.3648C188.748 67.1667 189.225 67.0661 189.708 67.0698C190.208 67.0622 190.705 67.1599 191.165 67.3568C191.582 67.5399 191.957 67.8079 192.265 68.1438C192.574 68.485 192.809 68.886 192.957 69.3218C193.117 69.7907 193.197 70.2833 193.193 70.7788C193.197 71.2754 193.112 71.7688 192.943 72.2358C192.786 72.669 192.548 73.0687 192.243 73.4138C191.941 73.7485 191.572 74.0163 191.16 74.1998C190.725 74.3942 190.253 74.4925 189.777 74.4878C189.48 74.4933 189.183 74.4596 188.895 74.3878C188.659 74.3269 188.432 74.238 188.218 74.1228C188.038 74.0276 187.87 73.9114 187.718 73.7768C187.594 73.6684 187.48 73.5478 187.38 73.4168H187.336V77.6688H185.57L185.571 67.2468ZM191.429 70.7788C191.43 70.5058 191.382 70.2349 191.288 69.9788C191.197 69.7283 191.058 69.4985 190.877 69.3028C190.682 69.094 190.446 68.9275 190.184 68.8137C189.922 68.6999 189.639 68.6412 189.353 68.6412C189.068 68.6412 188.785 68.6999 188.523 68.8137C188.261 68.9275 188.025 69.094 187.83 69.3028C187.648 69.498 187.508 69.7279 187.417 69.9788C187.231 70.4928 187.231 71.0558 187.417 71.5698C187.507 71.8207 187.648 72.0507 187.83 72.2458C188.025 72.4544 188.261 72.6207 188.523 72.7345C188.785 72.8482 189.068 72.9069 189.353 72.9069C189.639 72.9069 189.922 72.8482 190.184 72.7345C190.446 72.6207 190.682 72.4544 190.877 72.2458C191.058 72.0502 191.197 71.8203 191.288 71.5698C191.381 71.3164 191.429 71.0487 191.429 70.7788V70.7788Z" fill="#231F20"/>
<path d="M10.8859 91.0008H10.8419C10.6108 91.3808 10.2731 91.6847 9.87093 91.8748C9.4631 92.0607 9.01913 92.154 8.57094 92.1478C8.25003 92.1479 7.93064 92.1034 7.62194 92.0158C7.32567 91.9325 7.04663 91.797 6.79793 91.6158C6.55815 91.4407 6.35981 91.215 6.21694 90.9548C6.06441 90.6697 5.98827 90.35 5.99593 90.0268C5.98594 89.6891 6.05621 89.354 6.20095 89.0488C6.33282 88.7852 6.52128 88.554 6.75292 88.3718C6.99381 88.1839 7.26415 88.0373 7.55294 87.9378C7.86152 87.8291 8.17909 87.7477 8.50194 87.6948C8.83072 87.6422 9.16226 87.6088 9.49492 87.5948C9.82792 87.5788 10.1419 87.5718 10.4369 87.5718H10.8779V87.3808C10.8905 87.1905 10.8554 87.0001 10.7758 86.8269C10.6961 86.6537 10.5745 86.5031 10.4219 86.3888C10.0799 86.1562 9.67218 86.0398 9.25893 86.0568C8.90086 86.0544 8.54579 86.1223 8.21392 86.2568C7.90325 86.3818 7.61897 86.5644 7.37593 86.7948L6.44793 85.8668C6.8301 85.4712 7.30215 85.1738 7.82393 84.9998C8.34778 84.8229 8.89705 84.7331 9.44994 84.7338C9.87823 84.7239 10.3054 84.7813 10.7159 84.9038C11.0232 84.998 11.3118 85.1448 11.5689 85.3378C11.7845 85.5022 11.9628 85.7104 12.0919 85.9488C12.2105 86.1694 12.2993 86.4048 12.3559 86.6488C12.4103 86.8732 12.4438 87.1022 12.4559 87.3328C12.4659 87.5538 12.4709 87.7488 12.4709 87.9148V91.9768H10.8809L10.8859 91.0008ZM10.7859 88.8078H10.4189C10.1729 88.8078 9.89792 88.8178 9.59392 88.8368C9.30285 88.8541 9.01433 88.9014 8.73293 88.9778C8.48606 89.0398 8.25371 89.1495 8.04894 89.3008C7.95677 89.3703 7.88306 89.4613 7.83425 89.5659C7.78543 89.6705 7.763 89.7855 7.76894 89.9008C7.76363 90.0485 7.80187 90.1946 7.87893 90.3208C7.95397 90.435 8.05166 90.5327 8.16594 90.6078C8.28789 90.6879 8.42344 90.7452 8.56594 90.7768C8.71072 90.8114 8.85906 90.8288 9.00792 90.8288C9.24983 90.849 9.49335 90.8211 9.72438 90.7466C9.95542 90.6721 10.1694 90.5525 10.3539 90.3948C10.5028 90.237 10.6181 90.0506 10.6927 89.8469C10.7673 89.6431 10.7997 89.4264 10.7879 89.2098L10.7859 88.8078Z" fill="#231F20"/>
<path d="M14.6029 84.9078H16.2809V86.0408H16.3099C16.4858 85.6764 16.7485 85.3608 17.075 85.1218C17.4859 84.8409 17.978 84.7034 18.4749 84.7308C18.8875 84.7189 19.2975 84.7995 19.6749 84.9668C19.9846 85.1102 20.258 85.3214 20.4749 85.5848C20.683 85.8444 20.8333 86.1454 20.916 86.4678C21.005 86.8086 21.0497 87.1595 21.049 87.5118V91.9718H19.2829V88.3958C19.2829 88.1958 19.2729 87.9818 19.2539 87.7418C19.2357 87.5094 19.1835 87.281 19.0989 87.0638C19.0174 86.8564 18.8829 86.674 18.709 86.5348C18.5002 86.3832 18.2455 86.3083 17.9879 86.3228C17.732 86.3151 17.4777 86.3654 17.2439 86.4698C17.0493 86.5638 16.8784 86.7005 16.7439 86.8698C16.6103 87.0397 16.5127 87.235 16.4569 87.4438C16.3977 87.6649 16.3681 87.8929 16.3689 88.1218V91.9768H14.6029V84.9078Z" fill="#231F20"/>
<path d="M28.8009 90.9118H28.772C28.5361 91.3262 28.1757 91.6558 27.742 91.8538C27.3022 92.0526 26.8245 92.1533 26.342 92.1488C25.8391 92.1579 25.3401 92.0601 24.8779 91.8618C24.4605 91.6788 24.0859 91.4108 23.778 91.0748C23.469 90.7336 23.2335 90.3327 23.0859 89.8968C22.9261 89.4278 22.8467 88.9352 22.851 88.4398C22.8469 87.9432 22.9312 87.4498 23.1 86.9828C23.2562 86.5491 23.4938 86.1493 23.7999 85.8048C24.1018 85.4701 24.4704 85.2024 24.8819 85.0188C25.3168 84.8243 25.7886 84.726 26.265 84.7308C26.5624 84.7254 26.8593 84.759 27.148 84.8308C27.3834 84.8918 27.6106 84.9808 27.825 85.0958C28.1513 85.2693 28.4372 85.5099 28.664 85.8018H28.708V80.8458H30.4739V91.9718H28.8009V90.9118ZM24.621 88.4398C24.6198 88.7126 24.6672 88.9835 24.7609 89.2398C24.8514 89.4905 24.9916 89.7204 25.173 89.9158C25.368 90.1244 25.6038 90.2907 25.8658 90.4044C26.1278 90.5181 26.4104 90.5768 26.696 90.5768C26.9816 90.5768 27.2641 90.5181 27.5261 90.4044C27.7881 90.2907 28.0239 90.1244 28.2189 89.9158C28.4003 89.7204 28.5405 89.4905 28.631 89.2398C28.8179 88.7259 28.8179 88.1626 28.631 87.6488C28.5406 87.398 28.4004 87.168 28.2189 86.9728C28.0239 86.7641 27.7881 86.5978 27.5261 86.4841C27.2641 86.3704 26.9816 86.3117 26.696 86.3117C26.4104 86.3117 26.1278 86.3704 25.8658 86.4841C25.6038 86.5978 25.368 86.7641 25.173 86.9728C24.9914 87.168 24.8513 87.398 24.7609 87.6488C24.6696 87.9024 24.6236 88.1702 24.6249 88.4398H24.621Z" fill="#231F20"/>
<path d="M44.155 83.9948C43.8517 83.6396 43.4718 83.3579 43.0439 83.1708C42.6992 83.0352 42.3323 82.965 41.9619 82.9638C41.4589 82.9567 40.9599 83.0548 40.4969 83.2518C40.0705 83.4374 39.6873 83.7099 39.3719 84.0518C39.0549 84.3955 38.8076 84.7977 38.6439 85.2358C38.47 85.7017 38.3829 86.1955 38.387 86.6928C38.3813 87.2192 38.4683 87.7425 38.6439 88.2388C38.804 88.6897 39.0514 89.1046 39.3719 89.4598C39.6871 89.8044 40.0701 90.0802 40.4969 90.2698C40.9586 90.4716 41.4581 90.5722 41.9619 90.5648C42.3896 90.5639 42.811 90.4611 43.1909 90.2648C43.6279 90.0298 44.0073 89.7009 44.302 89.3018L45.8329 90.3908C45.3983 91.0091 44.8033 91.4973 44.112 91.8028C43.4291 92.0987 42.6922 92.2492 41.948 92.2448C41.1918 92.2537 40.4406 92.1214 39.733 91.8548C39.0828 91.6124 38.4907 91.2363 37.9951 90.7507C37.4995 90.2651 37.1115 89.6809 36.856 89.0358C36.5736 88.3295 36.4335 87.5743 36.444 86.8138C36.4334 86.0363 36.5732 85.2641 36.856 84.5398C37.112 83.8865 37.5001 83.2932 37.996 82.7968C38.4914 82.3094 39.083 81.9307 39.733 81.6848C40.4406 81.4181 41.1918 81.2859 41.948 81.2948C42.6213 81.2885 43.2892 81.416 43.913 81.6698C44.5661 81.9571 45.143 82.393 45.598 82.9428L44.155 83.9948Z" fill="#231F20"/>
<path d="M46.7559 88.4398C46.748 87.9167 46.8502 87.3978 47.056 86.9168C47.2453 86.4736 47.5242 86.0743 47.875 85.7439C48.2259 85.4135 48.6412 85.1592 49.095 84.9968C50.0636 84.6423 51.1264 84.6423 52.095 84.9968C52.5485 85.1593 52.9636 85.4137 53.3143 85.7441C53.665 86.0745 53.9437 86.4737 54.1329 86.9168C54.5354 87.8922 54.5354 88.9873 54.1329 89.9628C53.9424 90.4042 53.6645 90.8026 53.316 91.1338C52.9633 91.4633 52.5481 91.7187 52.095 91.8848C51.1259 92.2368 50.064 92.2368 49.095 91.8848C48.6415 91.7187 48.2259 91.4633 47.8729 91.1338C47.5244 90.8026 47.2465 90.4042 47.056 89.9628C46.8502 89.4818 46.7479 88.9629 46.7559 88.4398V88.4398ZM48.5219 88.4398C48.5208 88.7126 48.5682 88.9835 48.6619 89.2398C48.7522 89.4906 48.8923 89.7206 49.0739 89.9158C49.2689 90.1245 49.5047 90.2909 49.7667 90.4047C50.0287 90.5185 50.3113 90.5773 50.597 90.5773C50.8826 90.5773 51.1652 90.5185 51.4272 90.4047C51.6892 90.2909 51.925 90.1245 52.1199 89.9158C52.3015 89.7206 52.4417 89.4906 52.532 89.2398C52.7188 88.7259 52.7188 88.1626 52.532 87.6488C52.4418 87.3978 52.3016 87.1679 52.1199 86.9728C51.925 86.7639 51.6892 86.5973 51.4272 86.4834C51.1652 86.3696 50.8827 86.3108 50.597 86.3108C50.3113 86.3108 50.0287 86.3696 49.7667 86.4834C49.5047 86.5973 49.2688 86.7639 49.0739 86.9728C48.8922 87.1678 48.7521 87.3978 48.6619 87.6488C48.5703 87.9024 48.5239 88.1701 48.525 88.4398H48.5219Z" fill="#231F20"/>
<path d="M56.207 84.9078H57.8849V86.0078H57.915C58.0898 85.6528 58.3503 85.3469 58.673 85.1178C59.0868 84.8383 59.5803 84.701 60.079 84.7268C60.539 84.6784 61.0023 84.7798 61.4001 85.0158C61.7979 85.2518 62.1089 85.6099 62.287 86.0368C62.5063 85.6227 62.8375 85.2786 63.243 85.0438C63.665 84.8238 64.1361 84.715 64.6119 84.7278C65.022 84.7154 65.4295 84.796 65.8039 84.9638C66.1159 85.1107 66.3864 85.3331 66.5909 85.6108C66.7989 85.9001 66.9465 86.2282 67.0249 86.5758C67.116 86.9638 67.1607 87.3612 67.1579 87.7598V91.9688H65.392V87.9688C65.3926 87.759 65.3729 87.5497 65.3329 87.3438C65.2987 87.1553 65.2288 86.975 65.1269 86.8128C65.0269 86.6605 64.889 86.5368 64.7269 86.4538C64.5253 86.3573 64.3032 86.3116 64.0799 86.3208C63.8374 86.3129 63.5968 86.3659 63.3799 86.4748C63.1933 86.574 63.0321 86.715 62.9089 86.8868C62.783 87.0644 62.6927 87.2648 62.6429 87.4768C62.5893 87.6957 62.5621 87.9203 62.5619 88.1458V91.9728H60.7989V87.7628C60.8182 87.3917 60.7203 87.024 60.519 86.7118C60.4088 86.5752 60.2664 86.468 60.1046 86.3999C59.9428 86.3319 59.7667 86.305 59.592 86.3218C59.3361 86.3141 59.0817 86.3644 58.8479 86.4688C58.6531 86.5624 58.4821 86.6992 58.3479 86.8688C58.2141 87.0385 58.1165 87.2339 58.061 87.4428C58.0015 87.6638 57.9719 87.8918 57.9729 88.1208V91.9758H56.207V84.9078Z" fill="#231F20"/>
<path d="M69.2599 84.9078H70.938V86.0078H70.9679C71.1426 85.6526 71.4031 85.3467 71.7259 85.1178C72.1397 84.8383 72.6332 84.701 73.1319 84.7268C73.5919 84.6786 74.0552 84.78 74.453 85.016C74.8507 85.252 75.1618 85.61 75.3399 86.0368C75.5593 85.6227 75.8905 85.2786 76.2959 85.0438C76.7177 84.824 77.1885 84.7152 77.664 84.7278C78.0744 84.7153 78.4822 84.796 78.857 84.9638C79.1689 85.1109 79.4393 85.3332 79.644 85.6108C79.8516 85.9002 79.9992 86.2283 80.078 86.5758C80.1688 86.9638 80.2134 87.3612 80.211 87.7598V91.9688H78.4449V87.9688C78.4456 87.759 78.4259 87.5497 78.386 87.3438C78.3518 87.1554 78.2822 86.9752 78.1809 86.8128C78.0809 86.6605 77.9431 86.5368 77.7809 86.4538C77.5794 86.3571 77.3572 86.3115 77.1339 86.3208C76.8914 86.3129 76.6508 86.3659 76.4339 86.4748C76.2473 86.574 76.0861 86.715 75.9629 86.8868C75.8376 87.0647 75.7477 87.265 75.698 87.4768C75.6441 87.6957 75.6169 87.9203 75.617 88.1458V91.9728H73.8509V87.7628C73.8702 87.3917 73.7723 87.024 73.571 86.7118C73.4608 86.5752 73.3184 86.468 73.1566 86.4C72.9948 86.3319 72.8187 86.305 72.644 86.3218C72.388 86.3141 72.1337 86.3644 71.8999 86.4688C71.7049 86.5622 71.5339 86.6991 71.3999 86.8688C71.2661 87.0385 71.1685 87.2339 71.1129 87.4428C71.0535 87.6638 71.0238 87.8918 71.0249 88.1208V91.9758H69.2589L69.2599 84.9078Z" fill="#231F20"/>
<path d="M83.7229 89.0588C83.7391 89.2953 83.8022 89.5262 83.9082 89.7382C84.0143 89.9502 84.1614 90.139 84.341 90.2938C84.7008 90.5905 85.1558 90.7471 85.622 90.7348C86.0102 90.7483 86.3946 90.6545 86.733 90.4638C87.0324 90.282 87.2986 90.0503 87.5199 89.7788L88.786 90.7348C88.4224 91.2074 87.9467 91.5821 87.402 91.8248C86.8959 92.0393 86.3516 92.1492 85.802 92.1478C85.2902 92.1506 84.782 92.0612 84.302 91.8838C83.8484 91.7179 83.4328 91.4625 83.0799 91.1328C82.7314 90.8015 82.4535 90.4032 82.263 89.9618C81.8613 88.9862 81.8613 87.8914 82.263 86.9158C82.4523 86.4726 82.7312 86.0733 83.0821 85.7429C83.4329 85.4125 83.8482 85.1582 84.302 84.9958C84.7818 84.8171 85.29 84.727 85.802 84.7298C86.2637 84.7243 86.7217 84.8117 87.149 84.9868C87.5485 85.1536 87.9055 85.4079 88.194 85.7308C88.4985 86.0809 88.7288 86.4891 88.871 86.9308C89.0411 87.4608 89.1232 88.0152 89.1139 88.5718V89.0578L83.7229 89.0588ZM87.3429 87.7338C87.3501 87.5067 87.3108 87.2805 87.2274 87.0692C87.144 86.8578 87.0183 86.6658 86.858 86.5048C86.4973 86.1886 86.0267 86.0273 85.548 86.0558C85.3181 86.0436 85.0881 86.0779 84.8718 86.1566C84.6555 86.2353 84.4573 86.3568 84.289 86.5138C83.9673 86.8448 83.7677 87.2754 83.7229 87.7348L87.3429 87.7338Z" fill="#231F20"/>
<path d="M90.9429 84.9078H92.709V86.0218H92.738C92.9181 85.6276 93.2098 85.2949 93.577 85.0648C93.9533 84.8352 94.3872 84.7176 94.8279 84.7258C94.9343 84.7254 95.0405 84.7355 95.1449 84.7558C95.2449 84.7758 95.3529 84.7998 95.4609 84.8288V86.5418C95.3129 86.5024 95.1679 86.4691 95.0259 86.4418C94.8876 86.4175 94.7474 86.4051 94.6069 86.4048C94.2612 86.3889 93.9178 86.4681 93.6139 86.6338C93.3866 86.7636 93.1907 86.9418 93.04 87.1558C92.9155 87.3334 92.8256 87.5329 92.7749 87.7438C92.7382 87.8882 92.7161 88.0359 92.709 88.1848V91.9678H90.9429V84.9078Z" fill="#231F20"/>
<path d="M101.684 87.0278C101.495 86.8247 101.277 86.651 101.037 86.5128C100.827 86.3893 100.588 86.3234 100.345 86.3218C100.06 86.3153 99.7764 86.3696 99.5138 86.4812C99.2512 86.5927 99.0153 86.7589 98.822 86.9688C98.6405 87.164 98.5003 87.394 98.41 87.6448C98.2232 88.1586 98.2232 88.7219 98.41 89.2358C98.5005 89.4865 98.6406 89.7164 98.822 89.9118C99.0156 90.1213 99.2515 90.2875 99.514 90.3994C99.7765 90.5112 100.06 90.5662 100.345 90.5608C100.61 90.5623 100.871 90.5042 101.11 90.3908C101.346 90.2762 101.552 90.1073 101.71 89.8978L102.884 91.1618C102.704 91.3422 102.499 91.4957 102.275 91.6178C102.052 91.7424 101.817 91.8458 101.575 91.9268C101.354 92.0018 101.128 92.0587 100.898 92.0968C100.713 92.1282 100.526 92.1453 100.338 92.1478C99.8261 92.1507 99.318 92.0613 98.8379 91.8838C98.3845 91.7177 97.9689 91.4623 97.616 91.1328C97.2674 90.8016 96.9895 90.4032 96.7989 89.9618C96.3972 88.9862 96.3972 87.8914 96.7989 86.9158C96.9882 86.4727 97.2669 86.0735 97.6176 85.7431C97.9683 85.4127 98.3834 85.1583 98.837 84.9958C99.3168 84.817 99.825 84.7269 100.337 84.7298C100.803 84.7327 101.264 84.8198 101.699 84.9868C102.158 85.161 102.569 85.4409 102.899 85.8038L101.684 87.0278Z" fill="#231F20"/>
<path d="M103.972 82.5078C103.971 82.3688 103.999 82.2311 104.053 82.1032C104.108 81.9753 104.187 81.8598 104.288 81.7638C104.393 81.6598 104.518 81.5782 104.656 81.5238C104.793 81.4695 104.94 81.4436 105.088 81.4478C105.389 81.4388 105.681 81.5462 105.905 81.7478C106.009 81.8445 106.093 81.9617 106.15 82.0922C106.207 82.2226 106.236 82.3634 106.236 82.5058C106.236 82.6481 106.207 82.7889 106.15 82.9194C106.093 83.0498 106.009 83.1671 105.905 83.2638C105.681 83.4653 105.389 83.5728 105.088 83.5638C104.94 83.5683 104.793 83.5426 104.655 83.4883C104.518 83.4339 104.393 83.3521 104.288 83.2478C104.188 83.1522 104.108 83.0374 104.054 82.9102C104 82.783 103.972 82.6461 103.972 82.5078ZM104.222 84.9078H105.988V91.9718H104.222V84.9078Z" fill="#231F20"/>
<path d="M112.59 91.0008H112.546C112.315 91.3808 111.977 91.6846 111.575 91.8748C111.167 92.0607 110.723 92.1539 110.275 92.1478C109.954 92.1479 109.635 92.1035 109.326 92.0158C109.03 91.9326 108.751 91.7971 108.502 91.6158C108.262 91.4407 108.064 91.215 107.921 90.9548C107.769 90.6695 107.693 90.3499 107.7 90.0268C107.69 89.6889 107.761 89.3536 107.907 89.0488C108.038 88.7853 108.226 88.5541 108.457 88.3718C108.698 88.1846 108.968 88.038 109.257 87.9378C109.565 87.8289 109.883 87.7476 110.206 87.6948C110.535 87.6422 110.867 87.6088 111.2 87.5948C111.533 87.5788 111.847 87.5718 112.142 87.5718H112.583V87.3808C112.595 87.1905 112.56 87.0002 112.481 86.827C112.401 86.6538 112.279 86.5031 112.127 86.3888C111.785 86.1563 111.377 86.0399 110.964 86.0568C110.606 86.0544 110.251 86.1223 109.92 86.2568C109.609 86.3815 109.323 86.564 109.08 86.7948L108.154 85.8668C108.536 85.4711 109.007 85.1737 109.529 84.9998C110.053 84.8228 110.602 84.733 111.155 84.7338C111.583 84.7239 112.01 84.7813 112.421 84.9038C112.729 84.9981 113.017 85.1449 113.275 85.3378C113.49 85.502 113.668 85.7103 113.797 85.9488C113.916 86.1693 114.005 86.4047 114.061 86.6488C114.115 86.8732 114.149 87.1022 114.161 87.3328C114.17 87.5538 114.176 87.7488 114.176 87.9148V91.9768H112.586L112.59 91.0008ZM112.49 88.8078H112.122C111.877 88.8078 111.603 88.8174 111.298 88.8368C111.007 88.8541 110.719 88.9014 110.438 88.9778C110.191 89.0395 109.958 89.1493 109.753 89.3008C109.661 89.3703 109.587 89.4613 109.538 89.5659C109.489 89.6705 109.467 89.7855 109.473 89.9008C109.468 90.0485 109.506 90.1945 109.583 90.3208C109.658 90.4353 109.756 90.533 109.871 90.6078C109.993 90.6879 110.128 90.7452 110.271 90.7768C110.415 90.8113 110.563 90.8287 110.712 90.8288C110.954 90.8491 111.198 90.8212 111.429 90.7467C111.66 90.6722 111.874 90.5526 112.059 90.3948C112.208 90.237 112.323 90.0506 112.398 89.8469C112.472 89.6431 112.505 89.4264 112.493 89.2098L112.49 88.8078Z" fill="#231F20"/>
<path d="M116.319 80.8458H118.085V91.9718H116.319V80.8458Z" fill="#231F20"/>
<path d="M120.072 82.5078C120.071 82.3687 120.099 82.231 120.154 82.1031C120.208 81.9752 120.288 81.8597 120.389 81.7638C120.494 81.6598 120.619 81.5782 120.757 81.5238C120.894 81.4695 121.041 81.4436 121.189 81.4478C121.49 81.439 121.782 81.5464 122.006 81.7478C122.11 81.8445 122.194 81.9617 122.251 82.0922C122.308 82.2226 122.337 82.3634 122.337 82.5058C122.337 82.6481 122.308 82.7889 122.251 82.9194C122.194 83.0498 122.11 83.1671 122.006 83.2638C121.782 83.4652 121.49 83.5727 121.189 83.5638C121.041 83.5683 120.894 83.5426 120.756 83.4883C120.619 83.4339 120.494 83.3521 120.389 83.2478C120.289 83.1523 120.209 83.0375 120.155 82.9103C120.1 82.7831 120.072 82.6461 120.072 82.5078ZM120.322 84.9078H122.088V91.9718H120.322V84.9078Z" fill="#231F20"/>
<path d="M123.723 90.3378L127.506 86.3498V86.3208H123.9V84.9078H129.64V86.5128L125.813 90.5598H129.813V91.9718H123.721L123.723 90.3378Z" fill="#231F20"/>
<path d="M135.974 91.0008H135.93C135.699 91.3807 135.361 91.6846 134.959 91.8748C134.551 92.0608 134.107 92.1541 133.659 92.1478C133.338 92.1479 133.018 92.1035 132.709 92.0158C132.413 91.9326 132.134 91.7971 131.885 91.6158C131.645 91.4408 131.447 91.2151 131.304 90.9548C131.152 90.6695 131.076 90.3499 131.083 90.0268C131.073 89.6889 131.144 89.3536 131.29 89.0488C131.421 88.7854 131.609 88.5542 131.84 88.3718C132.081 88.1846 132.352 88.038 132.64 87.9378C132.949 87.8289 133.266 87.7476 133.589 87.6948C133.918 87.6422 134.25 87.6088 134.583 87.5948C134.916 87.5788 135.23 87.5718 135.525 87.5718H135.966V87.3808C135.978 87.1905 135.943 87.0002 135.864 86.827C135.784 86.6538 135.662 86.5031 135.51 86.3888C135.168 86.1563 134.76 86.0399 134.347 86.0568C133.989 86.0543 133.634 86.1223 133.303 86.2568C132.992 86.3815 132.707 86.5641 132.463 86.7948L131.537 85.8668C131.918 85.4708 132.39 85.1733 132.912 84.9998C133.436 84.8228 133.985 84.733 134.538 84.7338C134.966 84.7239 135.393 84.7813 135.804 84.9038C136.111 84.9983 136.4 85.1451 136.658 85.3378C136.874 85.5019 137.052 85.7102 137.18 85.9488C137.299 86.1691 137.388 86.4046 137.445 86.6488C137.499 86.8732 137.532 87.1022 137.545 87.3328C137.554 87.5538 137.559 87.7488 137.559 87.9148V91.9768H135.97L135.974 91.0008ZM135.874 88.8078H135.506C135.261 88.8078 134.987 88.8174 134.682 88.8368C134.391 88.8541 134.103 88.9013 133.822 88.9778C133.575 89.0394 133.342 89.1491 133.137 89.3008C133.045 89.3702 132.971 89.4612 132.922 89.5658C132.873 89.6704 132.85 89.7854 132.856 89.9008C132.851 90.0486 132.89 90.1947 132.967 90.3208C133.042 90.4353 133.14 90.533 133.255 90.6078C133.377 90.6879 133.512 90.7452 133.655 90.7768C133.799 90.8113 133.947 90.8287 134.096 90.8288C134.338 90.849 134.581 90.8211 134.812 90.7466C135.043 90.6721 135.257 90.5525 135.442 90.3948C135.591 90.2371 135.706 90.0507 135.781 89.847C135.856 89.6433 135.889 89.4265 135.877 89.2098L135.874 88.8078Z" fill="#231F20"/>
<path d="M138.816 86.4088V84.9088H140.272V82.8618H142.038V84.9068H143.981V86.4068H142.038V89.4978C142.023 89.7905 142.093 90.0812 142.238 90.3358C142.332 90.4499 142.454 90.5382 142.591 90.5923C142.729 90.6464 142.878 90.6644 143.025 90.6448C143.198 90.6433 143.371 90.6259 143.541 90.5928C143.699 90.5691 143.849 90.5118 143.983 90.4248V91.9108C143.765 92.0071 143.534 92.0692 143.298 92.0948C143.061 92.1267 142.822 92.1437 142.583 92.1458C142.192 92.1574 141.802 92.1051 141.428 91.9908C141.153 91.9048 140.908 91.7417 140.722 91.5208C140.542 91.2902 140.421 91.0195 140.368 90.7318C140.299 90.3729 140.265 90.0082 140.268 89.6428V86.4088H138.816Z" fill="#231F20"/>
<path d="M145.294 82.5078C145.293 82.3688 145.321 82.2311 145.375 82.1032C145.43 81.9753 145.509 81.8598 145.61 81.7638C145.715 81.6598 145.84 81.5782 145.978 81.5238C146.115 81.4695 146.262 81.4436 146.41 81.4478C146.711 81.4388 147.003 81.5462 147.227 81.7478C147.331 81.8445 147.415 81.9617 147.472 82.0922C147.529 82.2226 147.558 82.3634 147.558 82.5058C147.558 82.6481 147.529 82.7889 147.472 82.9194C147.415 83.0498 147.331 83.1671 147.227 83.2638C147.003 83.4653 146.711 83.5728 146.41 83.5638C146.262 83.5683 146.115 83.5426 145.977 83.4883C145.84 83.4339 145.715 83.3521 145.61 83.2478C145.51 83.1522 145.43 83.0374 145.376 82.9102C145.322 82.783 145.294 82.6461 145.294 82.5078ZM145.544 84.9078H147.31V91.9718H145.544V84.9078Z" fill="#231F20"/>
<path d="M149.115 88.4398C149.107 87.9167 149.209 87.3978 149.415 86.9168C149.604 86.4737 149.883 86.0745 150.234 85.7441C150.584 85.4137 150.999 85.1593 151.453 84.9968C152.422 84.6425 153.484 84.6425 154.453 84.9968C154.907 85.1593 155.322 85.4137 155.672 85.7441C156.023 86.0745 156.302 86.4737 156.491 86.9168C156.893 87.8922 156.893 88.9873 156.491 89.9628C156.3 90.4042 156.022 90.8025 155.674 91.1338C155.321 91.463 154.906 91.7184 154.453 91.8848C153.484 92.2367 152.422 92.2367 151.453 91.8848C151 91.7183 150.585 91.463 150.232 91.1338C149.883 90.8026 149.605 90.4042 149.415 89.9628C149.209 89.4818 149.107 88.9629 149.115 88.4398V88.4398ZM150.881 88.4398C150.88 88.7126 150.928 88.9833 151.021 89.2398C151.112 89.4905 151.252 89.7203 151.434 89.9158C151.629 90.1244 151.865 90.2907 152.127 90.4044C152.389 90.5181 152.671 90.5768 152.957 90.5768C153.243 90.5768 153.525 90.5181 153.787 90.4044C154.049 90.2907 154.285 90.1244 154.48 89.9158C154.661 89.7203 154.802 89.4905 154.893 89.2398C155.079 88.7258 155.079 88.1628 154.893 87.6488C154.802 87.398 154.662 87.1681 154.48 86.9728C154.285 86.7639 154.049 86.5973 153.787 86.4834C153.525 86.3696 153.243 86.3108 152.957 86.3108C152.671 86.3108 152.389 86.3696 152.127 86.4834C151.865 86.5973 151.629 86.7639 151.434 86.9728C151.252 87.1681 151.112 87.398 151.021 87.6488C150.929 87.9023 150.881 88.17 150.881 88.4398V88.4398Z" fill="#231F20"/>
<path d="M158.608 84.9078H160.285V86.0408H160.315C160.491 85.6765 160.754 85.361 161.08 85.1218C161.491 84.8411 161.983 84.7037 162.48 84.7308C162.893 84.7189 163.303 84.7995 163.68 84.9668C163.99 85.1097 164.263 85.321 164.48 85.5848C164.688 85.8446 164.838 86.1455 164.921 86.4678C165.01 86.8085 165.055 87.1595 165.054 87.5118V91.9718H163.292V88.3958C163.292 88.1958 163.282 87.9818 163.262 87.7418C163.245 87.5093 163.193 87.2808 163.108 87.0638C163.027 86.8563 162.892 86.6739 162.718 86.5348C162.509 86.3832 162.255 86.3083 161.997 86.3228C161.742 86.3151 161.488 86.3654 161.255 86.4698C161.06 86.5632 160.889 86.7 160.755 86.8698C160.621 87.0395 160.523 87.2348 160.467 87.4438C160.407 87.6648 160.378 87.8928 160.379 88.1218V91.9768H158.613L158.608 84.9078Z" fill="#231F20"/>
</svg>