<svg id="Layer_1" data-name="Layer 1" xmlns="http://www.w3.org/2000/svg" xmlns:xlink="http://www.w3.org/1999/xlink" viewBox="0 0 498.83 115.83"><defs><style>.cls-1{fill:none;}.cls-2{clip-path:url(#clip-path);}.cls-3{clip-path:url(#clip-path-3);}.cls-4{fill:#fff;}.cls-5{fill:#939598;}.cls-6{fill:#c7c8ca;}</style><clipPath id="clip-path" transform="translate(-0.46 -68.79)"><rect class="cls-1" x="0.46" y="68.7" width="500" height="115.92"/></clipPath><clipPath id="clip-path-3" transform="translate(-0.46 -68.79)"><rect class="cls-1" x="0.46" y="68.79" width="498.92" height="115.83"/></clipPath></defs><title>psuit-night</title><g class="cls-2"><g class="cls-2"><g class="cls-3"><path class="cls-4" d="M53,184.62C29.71,170.79.46,150.7.46,115.29V77.87c10.75-4,27.25-9.08,52.5-9.08,25.5,0,43.08,5.5,52.5,9.08v37.42C105.46,151,75,171.62,53,184.62" transform="translate(-0.46 -68.79)"/></g></g><g class="cls-2"><path class="cls-5" d="M68.71,136.12c0-.83.66-2,.66-3.17,0-1.33-1.58-1.75-2.83-1.91-2.58-.34-3.5-.25-3.5-.84,0-.41.33-.83.83-1.5.67-1,2.42-1.41,3.25-1.5a28.92,28.92,0,0,1,4.09-.33,17.37,17.37,0,0,1,3.91.42c1.59.25,1.84.91,1.84,1.66v.75c0,.75-.59,1.17-1.75,1.42a3.9,3.9,0,0,1-.84.17c-.83.16-1.83.33-2.16,1.33-.75,2.17-2.09,3.92-3.09,3.92-.16.08-.41-.09-.41-.42M71,100.62c-.08-.08-.42-.17-.42-.5s.25-.75.84-1.58c1.33-1.75,3.08-3.92,3.75-3.92.33,0,.5.25.91,1a4.11,4.11,0,0,1,.42,1.92,9.75,9.75,0,0,1-2.08,5.83A13.54,13.54,0,0,0,71,100.62ZM32.46,105c.58,0,1-.41,1.91-1.41,2-2.17,3.92-2.5,3.92-3.42a2.16,2.16,0,0,0-.58-1.25c-2.17-3.33-3-5.08-4.34-7.5-.41-.83-1.08-1.5-1.5-1.5-.75,0-1.5.83-2,1.58a8.71,8.71,0,0,0-1.08,3.34,23.69,23.69,0,0,0,1.08,6.41C30.54,103.2,31.62,105,32.46,105Zm24,7.67c0-1.33-1.59-3.42-4.25-3.42a5.08,5.08,0,0,0-4.67,3.25,5.21,5.21,0,0,0,3.42,3c.33.09.58.09.58.34s-.42.58-1.17.58a5.85,5.85,0,0,1-4.83-2c-.67.08-1.42.33-2.42.42-.83,0-1.16-.5-1.16-1.25a3.69,3.69,0,0,1,.41-1.5l.42-.84a7.73,7.73,0,0,1,3.42-3.91c.25-.17,1-.59,1.33-.84a7.14,7.14,0,0,1,4-1h1.17a5.06,5.06,0,0,1,3.75,1.25c1.75,1.42,2.66,2.25,2.66,3.34a4.85,4.85,0,0,1-1,3.33,4.16,4.16,0,0,1-2.75,1.75c-.25,0-.25-.08-.25-.25s.17-.25.34-.42A4.42,4.42,0,0,0,56.46,112.62ZM68,149.45a22.17,22.17,0,0,1-5.25.34c-5.92,0-7-1.5-7-2.59,0-1.91,8.5-3.33,11.91-3.33,3.25,0,4.67,1,4.67,1.83S70.87,148.79,68,149.45ZM33.62,166.87a192.87,192.87,0,0,0,19.34,13c.08-5.83-.17-9.25,3.83-13.42,1.58-1.66,3.25-3.41,4.75-4.91,1.08-1.17,2-2,2.58-2,.42,0,.59.16.59.66A12.6,12.6,0,0,0,66.12,165a6.16,6.16,0,0,0,4.34,3.42c16.91-12.75,31.08-29.42,31.08-53.08V80.7c-4.17-1.41-21.33-8-48.5-8S8.62,79.2,4.46,80.62V115.2a54.62,54.62,0,0,0,7.25,27.42c.41-4.83,3.66-7.08,3.66-11.83,0-3.34-.91-5.34-.91-8.17,0-5,6.75-15.25,10.25-19.42.08-.08.33-.41.58-.41a.7.7,0,0,1,.58.41c.34.59.5.84.92.84s.5-.25.5-.59c0-.83-1-2.33-1-8,0-4,.92-4.83,3.42-7.25.41-.41,1.83-1.75,3.16-1.75,1.5,0,2.17.84,3.09,1.75,1.5,1.59,3.66,4.25,4,4.75a.49.49,0,0,0,.41.25A39.48,39.48,0,0,1,44.71,93c5.58,0,13.91.84,18.25,2.25,2.25.75,2.66,1.25,3.25,1.25a.3.3,0,0,0,.33-.33c0-.25-.58-.75-.58-1.08s.16-.42.41-.59c3.17-1.75,5.92-3,8.42-3,1.42,0,2.17,1.25,2.83,2.5a8.18,8.18,0,0,1,1,3.59,11.19,11.19,0,0,1-2.33,6.91c.5.5,1.17,1.25,1.58,1.75a5.83,5.83,0,0,1,1.67,3.34,10.56,10.56,0,0,1-.42,2c-.08.33-.33.91-.83.91s-.58-.5-.58-1v-.33a4.61,4.61,0,0,0-1.17-3.25c-1.08-1.08-2-1.83-3.25-1.83h-.42a4.09,4.09,0,0,0-3.41,1.41,3.31,3.31,0,0,0-1.09,2.42,7.59,7.59,0,0,0,.92,2.42c.33.66,1.17,2.16,1.58,2.91a1.67,1.67,0,0,0,1.42.92c1.42,0,2.58-.17,2.58-.58a.26.26,0,0,0-.25-.25h-.41c-1.84,0-2.75-2.34-3.67-4.42a3.87,3.87,0,0,1,2.92-1.33,2.74,2.74,0,0,1,3,2.75A4.1,4.1,0,0,1,76,114a.63.63,0,0,0-.08.33c0,.25.33.33.83.42a3.17,3.17,0,0,1,.75.16,2.19,2.19,0,0,1,1.33,1.25c.17.42.5,1.42.59,1.67a10.71,10.71,0,0,1,.75,3.75,9.45,9.45,0,0,1-.59,3.67,19.84,19.84,0,0,0-.91,3.91,3.8,3.8,0,0,0,.33.67,7.4,7.4,0,0,1,.75,3.17v1.08A7.64,7.64,0,0,1,78,139c-.67.92-1.67,2.25-2.25,3a1.84,1.84,0,0,1-1.42.75,4.37,4.37,0,0,1-.91-.16c-.34-.09-1.09-.25-1.42-.34A2.87,2.87,0,0,1,70,140c-.09-.17-.25-.59-.34-.75-.25-.75-.41-1.25-.91-1.25-.34,0-.67.25-1,.75-1.17,1.83-1.84,2.5-4,3-.75.16-2.25.5-3.09.66a14.14,14.14,0,0,1-4.83,1.25,2.93,2.93,0,0,1-.83-.08c-1.75-.25-3-.33-5.17-2.92-3-3.58-2.67-4.08-2.83-8.91,0-.5-.17-1.25-.75-1.25s-.75,1-.92,2.5c-.25,1.66-.58,3.5-1.42,3.5a5,5,0,0,1-1.91-.42c-1.09-.33-3.84-1.25-5.25-1.75-1.92-.67-3.84-1.17-4.5-2.83-.34-.84-1-2.34-1.34-3.09-.25-.58-.41-.83-.75-.83-.5,0-.66.58-.66,1.08s-.17,1.84-.25,2.59A10.76,10.76,0,0,1,26.79,138c-.67.84-1.25,1.75-2,2.67a11.11,11.11,0,0,0-2.33,7.83v2.34C22.62,156.45,24,159.29,33.62,166.87Z" transform="translate(-0.46 -68.79)"/></g><g class="cls-2"><path class="cls-6" d="M78.71,116.54h0c.16.41.5,1.41.58,1.66A10.71,10.71,0,0,1,80,122a9.38,9.38,0,0,1-.58,3.67,19.24,19.24,0,0,0-.92,3.92c-.17-.34-3.08-5.34-3.33-5.75a2.52,2.52,0,0,1-.42-1.25c0-.5.25-.84.83-1.25a9.41,9.41,0,0,1,1.17-.67,2.84,2.84,0,0,0,1.83-2.75,1.83,1.83,0,0,0,.09-1.33M66,124.62a3.2,3.2,0,0,1,.25,1.17,1.61,1.61,0,0,1-.58,1.41c-.25.25-.5.42-.75.67a3.33,3.33,0,0,0-1,.83c-.5.67-.84,1.09-.84,1.5,0,.17,0,.25.17.25a2,2,0,0,1-.83-1.66c0-.5.16-.84.16-1.34a3.85,3.85,0,0,0-.16-1.08c-.84-2.75-2.17-5.92-3-8.08s-1.5-3.42-2.5-3.42c-.5,0-1,.25-1.59.25a4.3,4.3,0,0,0,2.75-1.75,4.85,4.85,0,0,0,1-3.33,2.62,2.62,0,0,0-.58-1.42,15.68,15.68,0,0,1,2.83,4.58C63.12,117.12,64.71,121.37,66,124.62ZM22.46,150.79v-2.34a11.11,11.11,0,0,1,2.33-7.83c.75-.92,1.33-1.83,2-2.67,1.42-1.83,2.08-3.33,2.42-6.66.08-.75.16-2.09.25-2.59s.16-1.08.66-1.08c.34,0,.5.25.75.83.34.75,1,2.25,1.34,3.09.75,1.75,2.58,2.25,4.5,2.83,1.41.5,4.16,1.42,5.25,1.75a5,5,0,0,0,1.91.42c.84,0,1.25-1.75,1.42-3.5.17-1.42.42-2.5.92-2.5s.75.66.75,1.25c.16,4.83-.17,5.33,2.83,8.91,2.17,2.59,3.42,2.75,5.17,2.92a2.34,2.34,0,0,1-1.5-2.5v-1.75a6.85,6.85,0,0,1,.5-2.75,14.91,14.91,0,0,1,.66-1.83c.42-.92.17-1.09.17-1.75a11.07,11.07,0,0,0-.75-2.92c-.25-.83-.67-2-1-2.92-1.08-3-1.5-3.75-5.17-4.25-1.16-.16-6.25-.83-7.33-1-4.08-.58-7.25-.75-8.92-3.5-2-3.25-1.75-7.16-3.66-7.16-.92,0-1.42,1-1.42,2.5s.58,4.08.58,8.41c0,3.75-.33,4.84-2.58,7.59-.58.75-1.33,1.75-1.83,2.41-1.67,2.09-2.34,3.17-2.25,5.59C21,143.87,22,148.45,22.46,150.79Zm41.33,14.5c.17-1.5.83-4,.83-5.09,0-.5-.16-.66-.58-.66s-1.42.83-2.58,2c-1.5,1.58-3.17,3.25-4.75,4.91-3.92,4.17-3.75,7.59-3.84,13.42,4.42-2.67,8.42-5.17,11.42-7.25A25,25,0,0,1,63.79,165.29Z" transform="translate(-0.46 -68.79)"/></g><path class="cls-4" d="M126.54,85.37h-3.17V80.7h14.75c7.75,0,11.84,4.09,11.84,9.92,0,6.92-5.42,9.83-11.84,9.83h-4.91v7.75h3.16v4.67H123.29V108.2h3.17V85.37m11,10.33c3.33,0,5.58-1.91,5.58-5.16,0-3-1.92-5.17-5.67-5.17h-4.08V95.79h4.17Zm20.75,6.59c.16,3.83,3.08,6.16,7.58,6.16a17.69,17.69,0,0,0,7.42-1.5v5a21.61,21.61,0,0,1-8.84,1.5c-9.25,0-13.16-5.75-13.16-12.41,0-7.5,4.58-12.67,12.08-12.67,8.25,0,11.58,6.25,11.58,14H158.21Zm9.66-4.42c0-3.33-1.91-5.17-4.83-5.17s-4.67,1.92-4.92,5.17Zm168.34,4.42c.16,3.83,3.08,6.16,7.66,6.16a17.69,17.69,0,0,0,7.42-1.5v5a21.59,21.59,0,0,1-8.83,1.5c-9.25,0-13.17-5.75-13.17-12.41,0-7.5,4.58-12.67,12.08-12.67,8.25,0,11.59,6.25,11.59,14H336.21ZM346,97.87c0-3.33-1.92-5.17-4.84-5.17s-4.66,1.92-4.91,5.17ZM180.87,93.45h-3.08V88.79h8.83l.17,3.16h.08a8.42,8.42,0,0,1,7.42-3.66c6.08,0,9.33,4.33,9.33,9.58V108.2h2.75v4.67H194.54V108.2h2.58V99c0-3.34-1.83-5.17-4.91-5.17-2.75,0-4.84,1.58-4.84,5.17v9.16h2.75v4.67H178.29V108.2h2.58V93.45Zm31.34,0h-3.09V88.79H218l.16,3.16h.09a8.4,8.4,0,0,1,7.41-3.66c6.09,0,9.34,4.33,9.34,9.58V108.2h2.75v4.67H225.87V108.2h2.59V99c0-3.34-1.84-5.17-4.92-5.17-2.75,0-4.83,1.58-4.83,5.17v9.16h2.75v4.67H209.62V108.2h2.59V93.45Zm102.5-9.83h6.41v5.17h6.42v4.66h-6.42v10.67c0,3.25,1.17,4.25,3.75,4.25a19.57,19.57,0,0,0,2.84-.33v4.58a20,20,0,0,1-5.25.75c-4.75,0-7.84-2.58-7.84-6.75V93.45h-3.25V88.79h3.25V83.62Zm-43.34,0h6.42v5.17h6.42v4.66h-6.42v10.67c0,3.25,1.17,4.25,3.75,4.25a19.4,19.4,0,0,0,2.83-.33v4.58a19.91,19.91,0,0,1-5.25.75c-4.75,0-7.83-2.58-7.83-6.75V93.45H268V88.79h3.25V83.62Zm30.5,13.92c0-3.34-1.58-4.59-4.83-4.59a11.41,11.41,0,0,0-4,.67v3.25h-5.25V90.79a19.86,19.86,0,0,1,9.08-2.5c6.67,0,11,2.75,11,9.41v10.42h2.5v4.67h-7.75l-.16-3.25h-.09c-.5.66-2.25,3.83-7.66,3.83s-8-3.25-8-7c0-4.58,3.5-7.75,12.33-7.75H302V97.54ZM300,102.62c-5.25,0-6.92,1.08-6.92,3.17,0,1.41,1,2.91,3.5,2.91s5.17-2,5.17-6.08ZM258.37,85.54a14,14,0,0,0-4.08-.75c-3.75,0-5.25,2-5.25,3.83,0,2.33,1.75,3.42,3.75,3.92l3.17.83c4.5,1.17,9.5,3.08,9.5,9.75,0,6.08-3.92,10.25-12.59,10.25A31.82,31.82,0,0,1,242,111.62V103h5.75v4.16a24.07,24.07,0,0,0,5.75.92c3.41,0,5.08-1.42,5.08-3.83,0-2-1.17-3.5-5.25-4.59L250.54,99c-6.25-1.66-8.42-4.75-8.42-9.66,0-5.09,3.42-9.17,12.09-9.17a29.17,29.17,0,0,1,10,1.67v7.66h-5.75V85.54Z" transform="translate(-0.46 -68.79)"/><rect class="cls-4" x="122.92" y="60.17" width="3.33" height="25.67"/><path class="cls-4" d="M132.79,141.12a45.16,45.16,0,0,0-.17-5h3l.17,3.08h.08a6.86,6.86,0,0,1,6.09-3.5c2.58,0,6.5,1.5,6.5,7.84v11h-3.34V144c0-3-1.08-5.41-4.25-5.41a4.87,4.87,0,0,0-4.5,3.41,4.7,4.7,0,0,0-.25,1.59v11h-3.33V141.12" transform="translate(-0.46 -68.79)"/><path class="cls-4" d="M154.21,154.54V138.7h-2.59v-2.58h2.59v-.83c0-2.59.58-4.92,2.16-6.42a6.29,6.29,0,0,1,4.5-1.75,8.28,8.28,0,0,1,2.84.5l-.42,2.58a4.76,4.76,0,0,0-2.17-.41c-2.83,0-3.58,2.5-3.58,5.33v1H162v2.58h-4.42v15.84h-3.33" transform="translate(-0.46 -68.79)"/><path class="cls-4" d="M181.12,145.2c0,6.84-4.75,9.75-9.16,9.75-5,0-8.84-3.66-8.84-9.5,0-6.16,4-9.75,9.17-9.75s8.83,3.92,8.83,9.5m-14.58.17c0,4,2.33,7.08,5.58,7.08s5.59-3,5.59-7.16c0-3.09-1.59-7.09-5.5-7.09S166.54,141.87,166.54,145.37Z" transform="translate(-0.46 -68.79)"/><path class="cls-4" d="M185.37,141.87c0-2.17,0-4-.16-5.75h2.91l.09,3.58h.16a5.45,5.45,0,0,1,5.09-4,2.63,2.63,0,0,1,.91.09V139a4.89,4.89,0,0,0-1.16-.08c-2.34,0-4,1.75-4.5,4.33a7.9,7.9,0,0,0-.17,1.59v9.75h-3.33V141.87" transform="translate(-0.46 -68.79)"/><path class="cls-4" d="M198,141.12a45.16,45.16,0,0,0-.17-5h2.92l.16,3H201a6.34,6.34,0,0,1,5.75-3.42,5.52,5.52,0,0,1,5.25,3.67H212a8.62,8.62,0,0,1,2.08-2.42,6.37,6.37,0,0,1,4.09-1.33c2.41,0,6.08,1.58,6.08,8v10.83H221V144.12c0-3.5-1.33-5.67-4-5.67a4.2,4.2,0,0,0-3.92,3.09,5.13,5.13,0,0,0-.25,1.66v11.34h-3.25v-11c0-2.92-1.33-5.09-3.83-5.09a4.68,4.68,0,0,0-4.17,3.34,5.55,5.55,0,0,0-.25,1.66v11.09H198V141.12" transform="translate(-0.46 -68.79)"/><path class="cls-4" d="M239.87,154.54l-.25-2.34h-.08a6.91,6.91,0,0,1-5.67,2.75,5.27,5.27,0,0,1-5.66-5.25c0-4.41,3.91-6.91,11.08-6.83v-.42c0-1.5-.42-4.25-4.17-4.25a9.25,9.25,0,0,0-4.83,1.34l-.75-2.17a11.37,11.37,0,0,1,6.08-1.67c5.67,0,7,3.84,7,7.5v6.92a23.84,23.84,0,0,0,.34,4.42h-3.09m-.5-9.34c-3.66-.08-7.83.59-7.83,4.17a2.93,2.93,0,0,0,3.17,3.17,4.3,4.3,0,0,0,4.58-4.17V145.2Z" transform="translate(-0.46 -68.79)"/><path class="cls-4" d="M252,130.87v5.25h4.83v2.58H252v9.92c0,2.25.66,3.58,2.5,3.58a5.46,5.46,0,0,0,1.91-.25l.17,2.5a8.88,8.88,0,0,1-3,.42,4.45,4.45,0,0,1-3.58-1.42c-.92-1-1.34-2.66-1.34-4.83V138.7h-2.83v-2.58h2.83V131.7l3.34-.83" transform="translate(-0.46 -68.79)"/><path class="cls-4" d="M264.21,131A2,2,0,0,1,262,133a2,2,0,0,1-2-2.09,2.07,2.07,0,0,1,2.08-2.08,2,2,0,0,1,2.09,2.08m-3.75,5.17h3.33v18.42h-3.33Z" transform="translate(-0.46 -68.79)"/><path class="cls-4" d="M286,145.2c0,6.84-4.75,9.75-9.17,9.75-5,0-8.83-3.66-8.83-9.5,0-6.16,4-9.75,9.17-9.75s8.83,3.92,8.83,9.5m-14.58.17c0,4,2.33,7.08,5.58,7.08s5.58-3,5.58-7.16c0-3.09-1.58-7.09-5.5-7.09S271.46,141.87,271.46,145.37Z" transform="translate(-0.46 -68.79)"/><path class="cls-4" d="M290.29,141.12a45.16,45.16,0,0,0-.17-5h3l.17,3.08h.08a6.86,6.86,0,0,1,6.09-3.5c2.58,0,6.5,1.5,6.5,7.84v11h-3.34V144c0-3-1.08-5.41-4.25-5.41a4.87,4.87,0,0,0-4.5,3.41,4.7,4.7,0,0,0-.25,1.59v11h-3.33V141.12" transform="translate(-0.46 -68.79)"/><polyline class="cls-4" points="322.42 63 314.67 63 314.67 60.17 333.58 60.17 333.58 63 325.75 63 325.75 85.75 322.42 85.75 322.42 63"/><path class="cls-4" d="M336,146c.08,4.5,3,6.42,6.33,6.42a12.52,12.52,0,0,0,5.08-.92l.59,2.42a15.31,15.31,0,0,1-6.17,1.17c-5.67,0-9.08-3.75-9.08-9.25s3.25-9.92,8.66-9.92c6,0,7.59,5.25,7.59,8.67,0,.66-.09,1.25-.09,1.58H336m9.83-2.5c0-2.17-.83-5.42-4.67-5.42-3.41,0-4.83,3.09-5.16,5.42Z" transform="translate(-0.46 -68.79)"/><path class="cls-4" d="M366.29,153.87A13.06,13.06,0,0,1,361,155c-5.58,0-9.17-3.75-9.17-9.41s3.92-9.75,9.92-9.75a12.21,12.21,0,0,1,4.67.91l-.75,2.59a8.55,8.55,0,0,0-3.92-.84c-4.25,0-6.5,3.09-6.5,7,0,4.25,2.75,6.92,6.42,6.92a9.19,9.19,0,0,0,4.08-.92l.5,2.42" transform="translate(-0.46 -68.79)"/><path class="cls-4" d="M370.21,127.54h3.33V139h.08A6,6,0,0,1,376,136.7a6.8,6.8,0,0,1,3.42-.91c2.5,0,6.41,1.5,6.41,7.91v10.84h-3.33V144c0-3-1.08-5.5-4.25-5.5a4.77,4.77,0,0,0-4.5,3.33,4.15,4.15,0,0,0-.25,1.58v11.09h-3.33v-27" transform="translate(-0.46 -68.79)"/><path class="cls-4" d="M391.37,141.12a48,48,0,0,0-.16-5h3l.16,3.08h.09a6.83,6.83,0,0,1,6.08-3.5c2.58,0,6.5,1.5,6.5,7.84v11h-3.33V144c0-3-1.09-5.41-4.25-5.41A4.84,4.84,0,0,0,395,142a4.46,4.46,0,0,0-.25,1.59v11h-3.34V141.12" transform="translate(-0.46 -68.79)"/><path class="cls-4" d="M429.12,145.2c0,6.84-4.75,9.75-9.16,9.75-5,0-8.84-3.66-8.84-9.5,0-6.16,4-9.75,9.17-9.75s8.83,3.92,8.83,9.5m-14.58.17c0,4,2.33,7.08,5.58,7.08s5.59-3,5.59-7.16c0-3.09-1.59-7.09-5.5-7.09S414.54,141.87,414.54,145.37Z" transform="translate(-0.46 -68.79)"/><rect class="cls-4" x="432.92" y="58.75" width="3.33" height="27"/><path class="cls-4" d="M459,145.2c0,6.84-4.75,9.75-9.17,9.75-5,0-8.83-3.66-8.83-9.5,0-6.16,4-9.75,9.16-9.75s8.84,3.92,8.84,9.5m-14.59.17c0,4,2.34,7.08,5.59,7.08s5.58-3,5.58-7.16c0-3.09-1.58-7.09-5.5-7.09S444.37,141.87,444.37,145.37Z" transform="translate(-0.46 -68.79)"/><path class="cls-4" d="M479,136.12c-.08,1.33-.17,2.83-.17,5.08v10.67c0,4.25-.83,6.83-2.58,8.42s-4.33,2.16-6.67,2.16a12.07,12.07,0,0,1-6.16-1.5l.83-2.58a10.5,10.5,0,0,0,5.42,1.42c3.41,0,5.91-1.75,5.91-6.42v-2.08h-.08a6.44,6.44,0,0,1-5.83,3.08c-4.59,0-7.84-3.92-7.84-9,0-6.25,4.09-9.75,8.34-9.75a6.25,6.25,0,0,1,5.75,3.17H476l.17-2.75H479m-3.42,7.41a4.32,4.32,0,0,0-.16-1.5,4.81,4.81,0,0,0-4.67-3.5c-3.17,0-5.5,2.67-5.5,7,0,3.59,1.83,6.59,5.42,6.59a5,5,0,0,0,4.66-3.42,6.65,6.65,0,0,0,.25-1.75Z" transform="translate(-0.46 -68.79)"/><path class="cls-4" d="M485.71,136.12l4,10.92c.41,1.25.83,2.66,1.16,3.75H491c.33-1.09.75-2.5,1.16-3.84l3.67-10.83h3.5l-5,13.17c-2.42,6.33-4,9.58-6.33,11.5a9.63,9.63,0,0,1-4.09,2.16l-.83-2.83a8.81,8.81,0,0,0,2.92-1.67,10.09,10.09,0,0,0,2.83-3.75,1.8,1.8,0,0,0,.25-.83,2.54,2.54,0,0,0-.25-.83L482,136h3.75" transform="translate(-0.46 -68.79)"/></g></svg>