<?xml version="1.0" encoding="utf-8"?>
<!-- Generator: Adobe Illustrator 21.1.0, SVG Export Plug-In . SVG Version: 6.00 Build 0)  -->
<svg version="1.1" id="Layer_1" xmlns="http://www.w3.org/2000/svg" xmlns:xlink="http://www.w3.org/1999/xlink" x="0px" y="0px"
	 viewBox="0 0 600 139" width="500px" height="250px" style="enable-background:new 0 0 600 139;" xml:space="preserve">
<style type="text/css">
	.st0{clip-path:url(#SVGID_2_);}
	.st1{clip-path:url(#SVGID_4_);}
	.st2{clip-path:url(#SVGID_6_);fill:#FFFFFF;}
	.st3{clip-path:url(#SVGID_4_);fill:#002F87;}
	.st4{clip-path:url(#SVGID_4_);fill:#6DABE4;}
</style>
<g>
	<defs>
		<rect id="SVGID_1_" y="-0.1" width="600" height="139.1"/>
	</defs>
	<clipPath id="SVGID_2_">
		<use xlink:href="#SVGID_1_"  style="overflow:visible;"/>
	</clipPath>
	<g class="st0">
		<defs>
			<rect id="SVGID_3_" x="0" y="-0.1" width="600" height="139.1"/>
		</defs>
		<clipPath id="SVGID_4_">
			<use xlink:href="#SVGID_3_"  style="overflow:visible;"/>
		</clipPath>
		<g class="st1">
			<defs>
				<rect id="SVGID_5_" x="0" width="598.7" height="139"/>
			</defs>
			<clipPath id="SVGID_6_">
				<use xlink:href="#SVGID_5_"  style="overflow:visible;"/>
			</clipPath>
			<path class="st2" d="M63,139C35.1,122.4,0,98.4,0,55.8V10.9C12.9,6.1,32.7,0,63,0c30.6,0,51.7,6.6,63,10.9v44.9
				C126,98.7,89.5,123.4,63,139"/>
		</g>
		<path class="st3" d="M81.9,80.9c0-1,0.8-2.4,0.8-3.8c0-1.6-1.9-2.1-3.4-2.3c-3.1-0.4-4.2-0.3-4.2-1c0-0.5,0.4-1,1-1.8
			c0.8-1.2,2.9-1.7,3.9-1.8c1.4-0.2,3-0.4,4.9-0.4c2.1,0,3.9,0.3,4.7,0.5c1.9,0.3,2.2,1.1,2.2,2c0,0.2,0,0.7,0,0.9
			c0,0.9-0.7,1.4-2.1,1.7c-0.3,0.1-0.8,0.2-1,0.2c-1,0.2-2.2,0.4-2.6,1.6c-0.9,2.6-2.5,4.7-3.7,4.7C82.2,81.4,81.9,81.3,81.9,80.9
			 M84.7,38.2c-0.1-0.1-0.5-0.2-0.5-0.6c0-0.5,0.3-0.9,1-1.9c1.6-2.1,3.7-4.7,4.5-4.7c0.4,0,0.6,0.3,1.1,1.2
			c0.3,0.5,0.5,1.4,0.5,2.3c0,2.8-1,4.8-2.5,7C88.2,40.8,86.8,39.4,84.7,38.2z M38.4,43.5c0.7,0,1.2-0.5,2.3-1.7
			c2.4-2.6,4.7-3,4.7-4.1c0-0.5-0.3-1-0.7-1.5c-2.6-4-3.6-6.1-5.2-9c-0.5-1-1.3-1.8-1.8-1.8c-0.9,0-1.8,1-2.4,1.9
			c-0.8,1.2-1.5,2.6-1.5,3.9c0,1.9,0.5,5.4,1.3,7.7C36.1,41.3,37.4,43.5,38.4,43.5z M67.2,52.7c0-1.6-1.9-4.1-5.1-4.1
			c-2.9,0-5.1,2.2-5.6,3.9c0.7,1.3,1.4,2.7,4.1,3.6c0.4,0.1,0.7,0.1,0.7,0.4c0,0.4-0.5,0.7-1.4,0.7c-3.1,0-5-1.3-5.8-2.4
			c-0.8,0.1-1.7,0.4-2.9,0.5c-1,0-1.4-0.6-1.4-1.5c0-0.5,0.2-1.2,0.5-1.8c0.2-0.4,0.4-0.8,0.5-1c0.5-0.9,1.2-3.1,4.1-4.7
			c0.3-0.2,1.2-0.7,1.6-1c1.6-0.9,2.8-1.2,4.8-1.2c0.1,0,1.2,0,1.4,0c2.3,0,3.5,0.6,4.5,1.5c2.1,1.7,3.2,2.7,3.2,4
			c0,1.4-0.1,2.5-1.2,4c-1,1.3-2.4,2.1-3.3,2.1c-0.3,0-0.3-0.1-0.3-0.3c0-0.2,0.2-0.3,0.4-0.5C66.6,54.4,67,53.3,67.2,52.7z
			 M81,96.8c-0.5,0.1-1.6,0.4-6.3,0.4c-7.1,0-8.4-1.8-8.4-3.1c0-2.3,10.2-4,14.3-4c3.9,0,5.6,1.2,5.6,2.2C86.2,93.4,84.5,96,81,96.8
			z M39.8,117.8c7.4,5.8,15.4,10.9,23.2,15.6c0.1-7-0.2-11.1,4.6-16.1c1.9-2,3.9-4.1,5.7-5.9c1.3-1.4,2.4-2.4,3.1-2.4
			c0.5,0,0.7,0.2,0.7,0.8c0,0.6,0.3,2.9,1.7,5.7c1.8,3.4,4.4,3.9,5.2,4.1c20.3-15.3,37.3-35.3,37.3-63.7c0-15.6,0-41.5,0-41.5
			c-5-1.7-25.6-9.6-58.2-9.6S9.8,12.6,4.8,14.3c0,0,0,25.9,0,41.5c0,12.5,3.3,23.4,8.7,32.9c0.5-5.8,4.4-8.5,4.4-14.2
			c0-4-1.1-6.4-1.1-9.8c0-6,8.1-18.3,12.3-23.3c0.1-0.1,0.4-0.5,0.7-0.5c0.3,0,0.5,0.2,0.7,0.5c0.4,0.7,0.6,1,1.1,1
			c0.5,0,0.6-0.3,0.6-0.7c0-1-1.2-2.8-1.2-9.6c0-4.8,1.1-5.8,4.1-8.7c0.5-0.5,2.2-2.1,3.8-2.1c1.8,0,2.6,1,3.7,2.1
			c1.8,1.9,4.4,5.1,4.8,5.7c0.1,0.1,0.2,0.3,0.5,0.3c0.8,0,1.6-0.3,5.2-0.3c6.7,0,16.7,1,21.9,2.7c2.7,0.9,3.2,1.5,3.9,1.5
			c0.3,0,0.4-0.2,0.4-0.4c0-0.3-0.7-0.9-0.7-1.3c0-0.3,0.2-0.5,0.5-0.7c3.8-2.1,7.1-3.6,10.1-3.6c1.7,0,2.6,1.5,3.4,3
			c0.6,1.2,1.2,2.7,1.2,4.3c0,4.1-1.6,6.6-2.8,8.3c0.6,0.6,1.4,1.5,1.9,2.1c0.9,1.1,2,2.5,2,4c0,0.6-0.3,1.6-0.5,2.4
			c-0.1,0.4-0.4,1.1-1,1.1c-0.6,0-0.7-0.6-0.7-1.2c0-0.1,0-0.4,0-0.4c0-1.2-0.3-2.8-1.4-3.9c-1.3-1.3-2.4-2.2-3.9-2.2
			c-0.1,0-0.4,0-0.5,0c-2.4,0-3.5,1-4.1,1.7c-0.7,0.7-1.3,1.6-1.3,2.9c0,0.7,0.5,1.6,1.1,2.9c0.4,0.8,1.4,2.6,1.9,3.5
			c0.5,0.8,1.1,1.1,1.7,1.1c1.7,0,3.1-0.2,3.1-0.7c0-0.1-0.1-0.3-0.3-0.3c-0.1,0-0.3,0-0.5,0c-2.2,0-3.3-2.8-4.4-5.3
			c0.8-0.8,1.8-1.6,3.5-1.6c2.2,0,3.6,1.4,3.6,3.3c0,0.9-0.3,1.7-0.5,2.1c-0.1,0.2-0.1,0.3-0.1,0.4c0,0.3,0.4,0.4,1,0.5
			c0.2,0,0.6,0.1,0.9,0.2c0.6,0.2,1.3,0.7,1.6,1.5c0.2,0.5,0.6,1.7,0.7,2c0.4,1.1,0.9,2.6,0.9,4.5c0,1.9-0.1,2.5-0.7,4.4
			c-0.7,2.5-1,3.4-1.1,4.7c0.2,0.4,0.2,0.5,0.4,0.8c0.4,0.8,0.9,2.2,0.9,3.8c0,0.4,0,1.2,0,1.3c0,2.5-1,4.4-2.1,5.8
			c-0.8,1.1-2,2.7-2.7,3.6c-0.4,0.5-1,0.9-1.7,0.9c-0.3,0-0.7-0.1-1.1-0.2c-0.4-0.1-1.3-0.3-1.7-0.4c-1.5-0.4-2-1.3-2.5-2.6
			c-0.1-0.2-0.3-0.7-0.4-0.9c-0.3-0.9-0.5-1.5-1.1-1.5c-0.4,0-0.8,0.3-1.2,0.9c-1.4,2.2-2.2,3-4.8,3.6c-0.9,0.2-2.7,0.6-3.7,0.8
			c-1.5,0.3-4.3,1.1-5.8,1.1c-0.3,0-0.7,0-1-0.1c-2.1-0.3-3.6-0.4-6.2-3.5c-3.6-4.3-3.2-4.9-3.4-10.7c0-0.6-0.2-1.5-0.9-1.5
			c-0.6,0-0.9,1.2-1.1,3c-0.3,2-0.7,4.2-1.7,4.2c-0.7,0-1.2-0.1-2.3-0.5c-1.3-0.4-4.6-1.5-6.3-2.1c-2.3-0.8-4.6-1.4-5.4-3.4
			c-0.4-1-1.2-2.8-1.6-3.7c-0.3-0.7-0.5-1-0.9-1c-0.6,0-0.8,0.7-0.8,1.3c-0.1,0.7-0.2,2.2-0.3,3.1c-0.3,4-1.2,5.7-2.9,8
			c-0.8,1-1.5,2.1-2.4,3.2c-1.8,2.4-2.9,4.8-2.8,9.4c0,0.3,0,2,0,2.8C26.6,105.2,28.3,108.6,39.8,117.8z"/>
		<path class="st4" d="M93.9,57.4L93.9,57.4c0.2,0.5,0.6,1.7,0.7,2c0.4,1.1,0.9,2.6,0.9,4.5c0,1.9-0.1,2.5-0.7,4.4
			c-0.7,2.5-1,3.4-1.1,4.7c-0.2-0.4-3.7-6.4-4-6.9c-0.3-0.5-0.5-1-0.5-1.5c0-0.6,0.3-1,1-1.5c0.4-0.3,1-0.6,1.4-0.8
			c1.8-0.9,2.2-2.1,2.2-3.3C94.1,58.4,94,57.9,93.9,57.4 M78.7,67c0.2,0.5,0.3,1,0.3,1.4c0,0.9-0.2,1.2-0.7,1.7
			c-0.3,0.3-0.6,0.5-0.9,0.8c-0.5,0.3-0.9,0.6-1.2,1c-0.6,0.8-1,1.3-1,1.8c0,0.2,0,0.3,0.2,0.3c-0.7-0.5-1-1.3-1-2
			c0-0.6,0.2-1,0.2-1.6c0-0.5-0.1-1-0.2-1.3c-1-3.3-2.6-7.1-3.6-9.7c-1-2.7-1.8-4.1-3-4.1c-0.6,0-1.2,0.3-1.9,0.3
			c0.9,0,2.4-0.9,3.3-2.1c1.1-1.5,1.2-2.6,1.2-4c0-0.6-0.3-1.1-0.7-1.7c1.5,1.5,2.4,3.4,3.4,5.5C75.2,58,77.1,63.1,78.7,67z
			 M26.4,98.4c0-0.8,0-2.5,0-2.8c-0.1-4.6,1-7,2.8-9.4c0.9-1.1,1.6-2.2,2.4-3.2c1.7-2.2,2.5-4,2.9-8c0.1-0.9,0.2-2.5,0.3-3.1
			c0.1-0.6,0.2-1.3,0.8-1.3c0.4,0,0.6,0.3,0.9,1c0.4,0.9,1.2,2.7,1.6,3.7c0.9,2.1,3.1,2.7,5.4,3.4c1.7,0.6,5,1.7,6.3,2.1
			c1.1,0.4,1.6,0.5,2.3,0.5c1,0,1.5-2.1,1.7-4.2c0.2-1.7,0.5-3,1.1-3c0.7,0,0.9,0.8,0.9,1.5c0.2,5.8-0.2,6.4,3.4,10.7
			c2.6,3.1,4.1,3.3,6.2,3.5c-0.8-0.2-1.8-1.1-1.8-3c0-0.3,0-1.9,0-2.1c0-1,0.1-2.1,0.6-3.3c0.2-0.6,0.5-1.6,0.8-2.2
			c0.5-1.1,0.2-1.3,0.2-2.1c0-0.8-0.3-1.6-0.9-3.5c-0.3-1-0.8-2.4-1.2-3.5c-1.3-3.6-1.8-4.5-6.2-5.1c-1.4-0.2-7.5-1-8.8-1.2
			c-4.9-0.7-8.7-0.9-10.7-4.2c-2.4-3.9-2.1-8.6-4.4-8.6c-1.1,0-1.7,1.2-1.7,3c0,1.9,0.7,4.9,0.7,10.1c0,4.5-0.4,5.8-3.1,9.1
			c-0.7,0.9-1.6,2.1-2.2,2.9c-2,2.5-2.8,3.8-2.7,6.7C24.7,90.1,25.9,95.6,26.4,98.4z M76,115.8c0.2-1.8,1-4.8,1-6.1
			c0-0.6-0.2-0.8-0.7-0.8c-0.6,0-1.7,1-3.1,2.4c-1.8,1.9-3.8,3.9-5.7,5.9c-4.7,5-4.5,9.1-4.6,16.1c5.3-3.2,10.1-6.2,13.7-8.7
			C76.1,121.8,75.7,119.7,76,115.8z"/>
		<path class="st3" d="M151.3,19.9h-3.8v-5.6h17.7c9.3,0,14.2,4.9,14.2,11.9c0,8.3-6.5,11.8-14.2,11.8h-5.9v9.3h3.8v5.6h-15.7v-5.6
			h3.8V19.9 M164.4,32.4c4,0,6.7-2.3,6.7-6.2c0-3.6-2.3-6.2-6.8-6.2h-4.9v12.5H164.4z M189.3,40.2c0.2,4.6,3.7,7.4,9.1,7.4
			c4.8,0,7.7-1.3,8.9-1.8v6c-1.2,0.5-4.4,1.8-10.6,1.8c-11.1,0-15.8-6.9-15.8-14.9c0-9,5.5-15.2,14.5-15.2c9.9,0,13.9,7.5,13.9,16.8
			H189.3z M200.9,34.9c0-4-2.3-6.2-5.8-6.2c-3.5,0-5.6,2.3-5.9,6.2H200.9z M402.9,40.2c0.2,4.6,3.7,7.4,9.2,7.4
			c4.8,0,7.7-1.3,8.9-1.8v6c-1.2,0.5-4.4,1.8-10.6,1.8c-11.1,0-15.8-6.9-15.8-14.9c0-9,5.5-15.2,14.5-15.2c9.9,0,13.9,7.5,13.9,16.8
			H402.9z M414.6,34.9c0-4-2.3-6.2-5.8-6.2c-3.5,0-5.6,2.3-5.9,6.2H414.6z M216.5,29.7h-3.7V24h10.6l0.2,3.8h0.1
			c0.5-0.8,3-4.4,8.9-4.4c7.3,0,11.2,5.2,11.2,11.5v12.4h3.3v5.6h-14.2v-5.6h3.1v-11c0-4-2.2-6.2-5.9-6.2c-3.3,0-5.8,1.9-5.8,6.2v11
			h3.3v5.6h-14.2v-5.6h3.1V29.7z M254.1,29.7h-3.7V24h10.6l0.2,3.8h0.1c0.5-0.8,3-4.4,8.9-4.4c7.3,0,11.2,5.2,11.2,11.5v12.4h3.3
			v5.6h-14.2v-5.6h3.1v-11c0-4-2.2-6.2-5.9-6.2c-3.3,0-5.8,1.9-5.8,6.2v11h3.3v5.6h-14.2v-5.6h3.1V29.7z M377.1,17.9h7.7V24h7.7v5.6
			h-7.7v12.8c0,3.9,1.4,5.1,4.5,5.1c1.2,0,2.8-0.3,3.4-0.4v5.5c-0.6,0.2-3.4,0.9-6.3,0.9c-5.7,0-9.4-3.1-9.4-8.1V29.7h-3.9V24h3.9
			V17.9z M325.1,17.9h7.7V24h7.7v5.6h-7.7v12.8c0,3.9,1.4,5.1,4.5,5.1c1.2,0,2.8-0.3,3.4-0.4v5.5c-0.6,0.2-3.4,0.9-6.3,0.9
			c-5.7,0-9.4-3.1-9.4-8.1V29.7h-3.9V24h3.9V17.9z M361.7,34.5c0-4-1.9-5.5-5.8-5.5c-2.5,0-4.3,0.6-4.8,0.8v3.9h-6.3v-7.3
			c1-0.6,5.7-3,10.9-3c8,0,13.2,3.3,13.2,11.3c0,4.7,0,12.5,0,12.5h3v5.6h-9.3l-0.2-3.9h-0.1c-0.6,0.8-2.7,4.6-9.2,4.6
			c-6.5,0-9.6-3.9-9.6-8.4c0-5.5,4.2-9.3,14.8-9.3c0.5,0,3,0,3.5,0V34.5z M359.5,40.6c-6.3,0-8.3,1.3-8.3,3.8c0,1.7,1.2,3.5,4.2,3.5
			c3.1,0,6.2-2.4,6.2-7.3H359.5z M309.5,20.2c-0.6-0.2-2.8-0.9-4.9-0.9c-4.5,0-6.3,2.4-6.3,4.6c0,2.8,2.1,4.1,4.5,4.7l3.8,1
			c5.4,1.4,11.4,3.7,11.4,11.7c0,7.3-4.7,12.3-15.1,12.3c-4,0-8.2-0.4-13.1-2.1V41.2h6.9v5c1.1,0.3,4.2,1.1,6.9,1.1
			c4.1,0,6.1-1.7,6.1-4.6c0-2.4-1.4-4.2-6.3-5.5l-3.3-0.9c-7.5-2-10.1-5.7-10.1-11.6c0-6.1,4.1-11,14.5-11c4.5,0,8.9,0.8,12,2v9.2
			h-6.9V20.2z"/>
		<rect x="147.5" y="72.2" class="st3" width="4" height="30.8"/>
		<path class="st3" d="M158.8,86.9c0-2.3,0-4.2-0.2-6h3.6l0.2,3.7h0.1c1.1-2.1,3.7-4.2,7.3-4.2c3.1,0,7.8,1.8,7.8,9.4V103h-4V90.2
			c0-3.6-1.3-6.5-5.1-6.5c-2.6,0-4.7,1.9-5.4,4.1c-0.2,0.5-0.3,1.2-0.3,1.9V103h-4V86.9"/>
		<path class="st3" d="M184.5,103v-19h-3.1v-3.1h3.1v-1c0-3.1,0.7-5.9,2.6-7.7c1.5-1.5,3.5-2.1,5.4-2.1c1.4,0,2.6,0.3,3.4,0.6
			l-0.5,3.1c-0.6-0.3-1.4-0.5-2.6-0.5c-3.4,0-4.3,3-4.3,6.4v1.2h5.3v3.1h-5.3v19H184.5"/>
		<path class="st3" d="M216.8,91.7c0,8.2-5.7,11.7-11,11.7c-6,0-10.6-4.4-10.6-11.4c0-7.4,4.8-11.7,11-11.7
			C212.5,80.4,216.8,85,216.8,91.7 M199.3,92c0,4.8,2.8,8.5,6.7,8.5c3.8,0,6.7-3.6,6.7-8.6c0-3.7-1.9-8.5-6.6-8.5
			C201.4,83.4,199.3,87.8,199.3,92z"/>
		<path class="st3" d="M221.9,87.8c0-2.6,0-4.8-0.2-6.9h3.5l0.1,4.3h0.2c1-3,3.4-4.8,6.1-4.8c0.5,0,0.8,0,1.1,0.1v3.8
			c-0.4-0.1-0.8-0.1-1.4-0.1c-2.8,0-4.8,2.1-5.4,5.2c-0.1,0.5-0.2,1.2-0.2,1.9V103h-4V87.8"/>
		<path class="st3" d="M237,86.9c0-2.3,0-4.2-0.2-6h3.5l0.2,3.6h0.1c1.2-2.1,3.3-4.1,6.9-4.1c3,0,5.3,1.8,6.3,4.4h0.1
			c0.7-1.2,1.6-2.2,2.5-2.9c1.3-1,2.8-1.6,4.9-1.6c2.9,0,7.3,1.9,7.3,9.6v13h-3.9V90.5c0-4.2-1.6-6.8-4.8-6.8
			c-2.3,0-4.1,1.7-4.7,3.7c-0.2,0.5-0.3,1.3-0.3,2V103h-3.9V89.7c0-3.5-1.6-6.1-4.6-6.1c-2.5,0-4.3,2-5,4c-0.2,0.6-0.3,1.3-0.3,2
			V103H237V86.9"/>
		<path class="st3" d="M287.3,103l-0.3-2.8h-0.1c-1.2,1.7-3.6,3.3-6.8,3.3c-4.5,0-6.8-3.2-6.8-6.3c0-5.3,4.7-8.3,13.3-8.2v-0.5
			c0-1.8-0.5-5.1-5-5.1c-2.1,0-4.2,0.6-5.8,1.6l-0.9-2.6c1.8-1.2,4.5-2,7.3-2c6.8,0,8.4,4.6,8.4,9v8.3c0,1.9,0.1,3.8,0.4,5.3H287.3
			 M286.7,91.7c-4.4-0.1-9.4,0.7-9.4,5c0,2.6,1.7,3.8,3.8,3.8c2.9,0,4.7-1.8,5.3-3.7c0.1-0.4,0.2-0.9,0.2-1.3V91.7z"/>
		<path class="st3" d="M301.8,74.5v6.3h5.8v3.1h-5.8v11.9c0,2.7,0.8,4.3,3,4.3c1,0,1.8-0.1,2.3-0.3l0.2,3c-0.8,0.3-2,0.5-3.6,0.5
			c-1.9,0-3.4-0.6-4.3-1.7c-1.1-1.2-1.6-3.2-1.6-5.8V83.9h-3.4v-3.1h3.4v-5.3L301.8,74.5"/>
		<path class="st3" d="M316.5,74.7c0,1.4-1,2.5-2.6,2.5c-1.4,0-2.4-1.1-2.4-2.5c0-1.4,1.1-2.5,2.5-2.5
			C315.5,72.2,316.5,73.3,316.5,74.7 M312,80.9h4V103h-4V80.9z"/>
		<path class="st3" d="M342.7,91.7c0,8.2-5.7,11.7-11,11.7c-6,0-10.6-4.4-10.6-11.4c0-7.4,4.8-11.7,11-11.7
			C338.4,80.4,342.7,85,342.7,91.7 M325.2,92c0,4.8,2.8,8.5,6.7,8.5c3.8,0,6.7-3.6,6.7-8.6c0-3.7-1.9-8.5-6.6-8.5
			C327.2,83.4,325.2,87.8,325.2,92z"/>
		<path class="st3" d="M347.8,86.9c0-2.3,0-4.2-0.2-6h3.6l0.2,3.7h0.1c1.1-2.1,3.7-4.2,7.3-4.2c3.1,0,7.8,1.8,7.8,9.4V103h-4V90.2
			c0-3.6-1.3-6.5-5.1-6.5c-2.6,0-4.7,1.9-5.4,4.1c-0.2,0.5-0.3,1.2-0.3,1.9V103h-4V86.9"/>
		<polyline class="st3" points="386.9,75.6 377.6,75.6 377.6,72.2 400.3,72.2 400.3,75.6 390.9,75.6 390.9,103 386.9,103
			386.9,75.6 		"/>
		<path class="st3" d="M402.6,92.7c0.1,5.4,3.6,7.7,7.6,7.7c2.9,0,4.6-0.5,6.1-1.1l0.7,2.9c-1.4,0.6-3.8,1.4-7.4,1.4
			c-6.8,0-10.9-4.5-10.9-11.1c0-6.7,3.9-11.9,10.4-11.9c7.2,0,9.1,6.3,9.1,10.4c0,0.8-0.1,1.5-0.1,1.9H402.6 M414.4,89.8
			c0-2.6-1-6.5-5.6-6.5c-4.1,0-5.8,3.7-6.2,6.5H414.4z"/>
		<path class="st3" d="M439,102.2c-1.1,0.5-3.4,1.3-6.3,1.3c-6.7,0-11-4.5-11-11.3c0-6.8,4.7-11.7,11.9-11.7c2.4,0,4.5,0.6,5.6,1.1
			l-0.9,3.1c-1-0.5-2.5-1-4.7-1c-5.1,0-7.8,3.7-7.8,8.4c0,5.1,3.3,8.3,7.7,8.3c2.3,0,3.8-0.6,4.9-1.1L439,102.2"/>
		<path class="st3" d="M443.7,70.6h4v13.8h0.1c0.6-1.1,1.6-2.1,2.9-2.8c1.2-0.7,2.6-1.1,4.1-1.1c3,0,7.7,1.8,7.7,9.5V103h-4V90.3
			c0-3.6-1.3-6.6-5.1-6.6c-2.6,0-4.7,1.8-5.4,4c-0.2,0.5-0.3,1.1-0.3,1.9V103h-4V70.6"/>
		<path class="st3" d="M469.1,86.9c0-2.3,0-4.2-0.2-6h3.6l0.2,3.7h0.1c1.1-2.1,3.7-4.2,7.3-4.2c3.1,0,7.8,1.8,7.8,9.4V103h-4V90.2
			c0-3.6-1.3-6.5-5.1-6.5c-2.6,0-4.7,1.9-5.4,4.1c-0.2,0.5-0.3,1.2-0.3,1.9V103h-4V86.9"/>
		<path class="st3" d="M514.4,91.7c0,8.2-5.7,11.7-11,11.7c-6,0-10.6-4.4-10.6-11.4c0-7.4,4.8-11.7,11-11.7
			C510.1,80.4,514.4,85,514.4,91.7 M496.9,92c0,4.8,2.8,8.5,6.7,8.5c3.8,0,6.7-3.6,6.7-8.6c0-3.7-1.9-8.5-6.6-8.5
			C498.9,83.4,496.9,87.8,496.9,92z"/>
		<rect x="519.5" y="70.6" class="st3" width="4" height="32.4"/>
		<path class="st3" d="M550.2,91.7c0,8.2-5.7,11.7-11,11.7c-6,0-10.6-4.4-10.6-11.4c0-7.4,4.8-11.7,11-11.7
			C545.9,80.4,550.2,85,550.2,91.7 M532.7,92c0,4.8,2.8,8.5,6.7,8.5c3.8,0,6.7-3.6,6.7-8.6c0-3.7-1.9-8.5-6.6-8.5
			C534.8,83.4,532.7,87.8,532.7,92z"/>
		<path class="st3" d="M574.3,80.9c-0.1,1.6-0.2,3.4-0.2,6.1v12.8c0,5.1-1,8.2-3.1,10.1c-2.1,2-5.2,2.6-8,2.6
			c-2.6,0-5.6-0.6-7.4-1.8l1-3.1c1.5,0.9,3.7,1.7,6.5,1.7c4.1,0,7.1-2.1,7.1-7.7v-2.5h-0.1c-1.2,2.1-3.6,3.7-7,3.7
			c-5.5,0-9.4-4.7-9.4-10.8c0-7.5,4.9-11.7,10-11.7c3.8,0,5.9,2,6.9,3.8h0.1l0.2-3.3H574.3 M570.2,89.6c0-0.7,0-1.3-0.2-1.8
			c-0.7-2.3-2.7-4.2-5.6-4.2c-3.8,0-6.6,3.2-6.6,8.4c0,4.3,2.2,7.9,6.5,7.9c2.5,0,4.7-1.6,5.6-4.1c0.2-0.7,0.3-1.5,0.3-2.1V89.6z"/>
		<path class="st3" d="M582.3,80.9l4.8,13.1c0.5,1.5,1,3.2,1.4,4.5h0.1c0.4-1.3,0.9-3,1.4-4.6l4.4-13h4.2l-6,15.8
			c-2.9,7.6-4.8,11.5-7.6,13.8c-2,1.7-3.9,2.4-4.9,2.6l-1-3.4c1-0.3,2.3-1,3.5-2c1.1-0.9,2.5-2.4,3.4-4.5c0.2-0.4,0.3-0.7,0.3-1
			c0-0.2-0.1-0.5-0.3-1l-8.2-20.4H582.3"/>
	</g>
</g>
</svg>
