<?xml version="1.0" encoding="utf-8"?>
<!-- Generator: Adobe Illustrator 21.1.0, SVG Export Plug-In . SVG Version: 6.00 Build 0)  -->
<svg version="1.1" id="Layer_1" xmlns="http://www.w3.org/2000/svg" xmlns:xlink="http://www.w3.org/1999/xlink" x="0px" y="0px"
	 viewBox="0 0 600 600" style="enable-background:new 0 0 600 600;" xml:space="preserve">
<style type="text/css">
	.st0{fill:#1F417C;}
	.st1{fill:#97BEE5;}
	.st2{fill:#20427C;}
	.st3{fill:#20417C;}
	.st4{fill:#21427D;}
	.st5{fill:#20427D;}
	.st6{fill:#22437D;}
	.st7{fill:#23437D;}
	.st8{fill:#FEFEFF;}
</style>
<g>
	<path class="st0" d="M86.9,311.7c3.7,0,7.1-1.1,10.6-2.1c1.2-0.3,1.8-1.4,2.5-2.4c1-1.3,1.6-1.3,2.1,0.3c0.7,2.2,2.1,3.2,4.3,3.5
		c0.7,0.1,1.3,0,1.7-0.5c2.2-2.8,4.7-5.4,4.4-9.4c-0.1-1.5-0.6-2.8-1.1-4.2c-0.2-0.9-0.1-1.8,0.2-2.6c1.2-3.2,1.1-6.5,0.1-9.8
		c-0.3-1.1-0.7-2.2-2-2.3c-1.2-0.1-1.1-0.7-0.8-1.6c0.5-1.4,0-2.7-1.3-3.5c-1.2-0.7-3-0.5-4,0.5c-0.2,0.2-0.5,0.4-0.4,0.8
		c0.3,1.8,2.2,3.8,4,4.2c0.1,0,0.1,0.1,0.2,0.2c-2.1,1.2-3.4,0.9-4.5-1.1c-0.6-1-1.1-2.1-1.6-3.1c-1.1-2.3-0.3-4.3,2-5.3
		c2.7-1.2,6,0.4,6.8,3.3c0.2,0.6,0.2,1.2,0.3,1.8c0.1,0.4-0.1,1,0.5,1.1c0.6,0.1,0.7-0.5,0.9-1c0.5-1.6,0.5-3.1-0.6-4.4
		c-0.5-0.6-0.8-1.2-1.4-1.7c-0.8-0.7-0.9-1.3-0.3-2.4c2.1-3.4,2.3-6.9,0.3-10.4c-0.8-1.4-1.9-2.1-3.6-1.8c-2.6,0.4-4.9,1.7-7.3,2.9
		c-0.5,0.2-0.9,0.6-0.6,1.2c0.1,0.3,0.5,0.6,0.2,0.9c-0.4,0.4-0.7,0-1.1-0.1c-8-3.1-16.4-3.5-24.9-3.2c-0.9,0-1.5-0.2-2-0.9
		c-1.3-1.7-2.6-3.3-4.2-4.8c-1.6-1.6-3-1.7-4.8-0.3c-3.1,2.3-5,5.2-4.6,9.3c0.2,2.1,0.3,4.2,0.9,6.3c0.1,0.5,0.4,1.2-0.1,1.6
		c-0.5,0.4-0.8-0.3-1.2-0.6c-0.8-0.9-1.3-0.1-1.7,0.5c-3.2,4-5.8,8.3-8.1,12.8c-1.8,3.6-2.4,7.3-1.4,11.2c0.3,1.3,0.3,2.7,0.4,4
		c0,1.4-0.2,2.7-0.7,3.9c-1.1,2.6-2.6,5-3.1,8.2c-3.1-5.5-5.1-11-6.3-16.8c-0.8-4.1-1.1-8.2-1.1-12.3c0-11.2,0-22.4,0-33.6
		c0-1.3,0.4-1.8,1.6-2.2c12.2-4.2,24.8-6.5,37.7-7.3c18.3-1.1,36.4,0.3,54,5.5c2.1,0.6,4.1,1.4,6.2,2c0.9,0.3,1.3,0.7,1.3,1.7
		c0,11.9,0.1,23.8-0.1,35.7c-0.2,15.1-6.1,27.9-15.9,39.2c-4.6,5.2-9.8,9.8-15.3,14.1c-1,0.7-1.7,0.8-2.7,0.3
		c-1.5-0.8-2.5-2-3.2-3.5c-0.5-1-0.7-2.1-1.1-3.1c-0.9-1.6-1-1.6-2.2-0.4c-2.3,2.4-4.9,4.6-6.9,7.2c-1.6,2.1-2.4,4.5-2.5,7.1
		c0,1.3-0.4,2.6-0.4,4c0,0.4-0.1,0.9-0.7,1c-8.7-5.3-17.2-10.8-24.7-17.6c-2.6-2.3-5-4.8-5.9-8.3c-0.3-1.3-0.4-2.6-0.5-4
		c0.3-1,0-2-0.1-3c-0.3-2.7,0.4-5.1,1.9-7.3c0.4-0.6,0.8-1.1,1.2-1.6c2.5-2.9,3.6-6.2,3.8-10c0-0.4,0-0.9,0.2-1.3
		c0.4-1,1.2-1.2,1.9-0.3c0.6,0.7,0.9,1.6,1.3,2.5c0.5,1.5,1.5,2.4,3,2.9c2.4,0.8,4.9,1.7,7.3,2.4c1.7,0.5,2.3,0.1,2.7-1.7
		c0.2-0.9,0.2-1.9,0.5-2.8c0.2-0.5,0.5-1,1-1c0.7,0,0.9,0.5,1,1.1c0.1,0.6,0.1,1.1,0.1,1.7C78.4,305.3,82.3,310.6,86.9,311.7z"/>
	<path class="st0" d="M280.9,274c0.2-1.2-0.7-3.2,0.4-4c0.9-0.7,2.8-0.2,4.2-0.3c1.2-0.1,1.5,0.3,1.5,1.5c-0.1,3,0,3,3,3.5
		c1.8,0.3,3.5,0.5,5.3-0.1c1.5-0.5,2.5-1.5,2.7-3.1c0.2-1.6-0.4-2.8-1.7-3.7c-1.6-1.1-3.5-1.4-5.3-2c-1.4-0.4-2.9-0.8-4.3-1.4
		c-4.2-1.8-6.1-5.2-5.7-9.8c0.4-4.2,3-7.2,7.4-8.2c4.9-1.1,9.8-0.6,14.5,0.8c0.7,0.2,1.1,0.5,1.1,1.4c-0.1,2,0,4,0,6
		c0,0.8-0.3,1.1-1.1,1c-0.6,0-1.1,0-1.7,0c-3.1,0-3.1,0-3.3-3.1c0-0.5,0-1-0.7-1.2c-2.1-0.6-4.2-1-6.4-0.1c-1.5,0.6-2.5,1.7-2.6,3.4
		c0,1.7,0.9,2.9,2.4,3.5c1.7,0.6,3.4,1,5.1,1.5c1,0.3,2,0.6,3,1c7,2.5,7.4,8.9,5.7,13.4c-1.4,3.8-4.7,5.4-8.4,6
		c-4.8,0.7-9.6,0.2-14.2-1.2c-0.9-0.3-1.1-0.7-1.1-1.6C280.9,276.3,280.9,275.3,280.9,274z"/>
	<path class="st1" d="M86.9,311.7c-0.9,0.2-1.8,0-2.6-0.5c-3.2-2.2-5.7-4.9-5.8-9c0-0.9,0-1.8,0-2.7c0-0.4-0.1-1-0.6-1.1
		c-0.6-0.1-0.6,0.5-0.7,0.9c-0.2,1.1-0.5,2.3-0.6,3.4c-0.2,1.4-1.1,1.9-2.4,1.5c-2.9-0.9-5.7-1.9-8.5-2.9c-2-0.7-2.5-2.5-3.3-4.2
		c-0.3-0.7-0.3-2-1.3-1.8c-0.9,0.2-0.5,1.3-0.6,2.1c-0.2,3.6-1.2,7-3.7,9.8c-2.6,2.9-3.8,6.3-3.4,10.1c0.1,0.6,0.2,1.2-0.2,1.8
		c-0.9-4.3-1.4-8.7-1.8-13.1c-0.2-2.3,0.6-4.2,2-5.9c0.9-1.2,1.8-2.4,2.8-3.5c2-2.5,2.4-5.5,2.2-8.5c-0.2-2.6-0.4-5.1-0.6-7.7
		c-0.1-1,0-2.1,1.2-2.3c1.2-0.2,1.5,0.9,1.9,1.8c0.3,0.7,0.5,1.4,0.6,2.1c1,4.4,3.9,6.4,8.3,6.9c3.8,0.4,7.6,1.1,11.4,1.6
		c1.8,0.3,2.9,1.2,3.5,3c0.4,1.1,0.8,2.2,1.2,3.3c1.1,2.7,1.4,5.3,0,8c-0.6,1.1-0.6,2.5-0.6,3.8C85.3,310,85.7,311.1,86.9,311.7z"/>
	<path class="st0" d="M223.6,258c2.8-3.4,6.2-4.1,10-3.5c4.2,0.7,7.1,4.1,7.3,8.6c0.1,3.5,0.1,6.9,0.1,10.4c0,1.2,0.3,1.7,1.5,1.5
		c1.2-0.2,1.5,0.3,1.5,1.5c0,3.5,0,3.5-3.4,3.5c-2.6,0-5.1,0-7.7,0c-1,0-1.5-0.2-1.3-1.3c0.1-0.6,0.1-1.2,0-1.8
		c-0.2-1.3,0.1-2.2,1.7-1.9c0.9,0.2,1-0.3,1-1.1c0-3,0-5.9,0-8.9c-0.1-2.9-1.9-4.7-4.7-4.9c-3.1-0.1-5.1,1.5-5.3,4.6
		c-0.2,3.1,0,6.3-0.1,9.4c0,1,0.6,0.9,1.2,0.9c1.4-0.2,1.8,0.4,1.7,1.8c-0.1,3.2,0,3.2-3.1,3.2c-2.6,0-5.1-0.1-7.7,0
		c-1.3,0.1-1.7-0.4-1.5-1.6c0.1-0.5,0.1-1,0-1.5c-0.2-1.4,0.2-2.2,1.8-1.9c0.8,0.2,1-0.2,1-1c0-4.4,0-8.7,0-13.1c0-1-0.4-1.2-1.2-1
		c-1.7,0.3-2.3-0.3-2.2-2.1c0.2-2.9,0-2.9,2.9-2.9c1.6,0,3.1,0.1,4.7,0c1.4-0.1,2,0.3,1.8,1.7C223.5,256.9,223.6,257.2,223.6,258z"
		/>
	<path class="st0" d="M256.1,258.1c2.6-3.3,5.8-4,9.4-3.6c4.6,0.5,7.9,4.3,8,9.3c0.1,3.3,0.1,6.6,0,9.9c0,1.1,0.3,1.5,1.4,1.3
		c1.3-0.2,1.6,0.4,1.5,1.6c0,3.3,0,3.3-3.3,3.3c-2.6,0-5.3,0-7.9,0c-0.9,0-1.2-0.2-1.2-1.1c0.1-0.7,0.1-1.5,0-2.2
		c-0.2-1.3,0.3-1.9,1.6-1.7c0.9,0.2,1.1-0.3,1.1-1.2c0-2.9,0-5.8,0-8.7c-0.1-3.1-2-4.9-5-4.9c-3.1,0-4.9,1.7-5,4.8
		c-0.1,2.9,0,5.8-0.1,8.7c0,1.1,0.3,1.4,1.3,1.3c1.4-0.2,1.7,0.4,1.7,1.7c-0.1,3.3,0,3.3-3.2,3.3c-2.5,0-5-0.1-7.5,0
		c-1.4,0.1-1.8-0.4-1.6-1.7c0.1-0.4,0-0.8,0-1.2c-0.2-1.4,0-2.5,1.8-2.1c0.6,0.1,0.9-0.2,0.9-0.9c0-4.5,0-8.9,0-13.4
		c0-1-0.7-0.9-1.2-0.8c-1.6,0.2-2.2-0.2-2.1-2c0.2-3,0.1-3,3.1-3c1.5,0,3,0.1,4.5,0c1.4-0.1,1.9,0.4,1.8,1.8
		C256,256.9,256.1,257.3,256.1,258.1z"/>
	<path class="st0" d="M311.4,267.6c0-2.1,0-4.3,0-6.4c0-1-0.2-1.5-1.4-1.4c-2.2,0.1-2.2,0-2.2-2.2c0-0.2,0-0.5,0-0.7
		c-0.3-1.7,0.4-2.4,2.1-2.1c1.2,0.2,1.5-0.4,1.4-1.5c0-3.8,0-3.8,3.8-3.8c2.9,0,2.9,0,2.9,2.9c0,2.3,0,2.3,2.4,2.3
		c0.2,0,0.4,0,0.7,0c3.9,0,3.9,0,3.7,4c0,0.8-0.3,1-1.1,1c-1.5,0-2.9,0-4.4,0c-1-0.1-1.3,0.2-1.3,1.3c0.1,3.3,0,6.6,0,9.9
		c0,3.5,1.5,4.8,5,4.2c1.8-0.3,2,0.1,2,1.7c-0.1,3.1,0,3.1-3.2,3.4c-2,0.2-3.9,0.3-5.8-0.3c-3.1-1-4.7-3.2-4.7-6.4
		C311.4,271.6,311.4,269.6,311.4,267.6z"/>
	<path class="st0" d="M356.4,267.5c0-2.1-0.1-4.1,0-6.2c0-1.1-0.2-1.7-1.4-1.5c-1.6,0.3-2.4-0.3-2.1-2c0-0.2,0-0.3,0-0.5
		c0-2.4,0-2.4,2.3-2.4c1,0,1.2-0.4,1.2-1.3c0-1.3-0.4-3,0.2-3.7c0.8-0.9,2.5-0.3,3.9-0.3c2.6,0,2.6,0,2.6,2.7c0,2.6,0,2.6,2.6,2.6
		c0.2,0,0.3,0,0.5,0c3.9,0,4.1,0.3,3.6,4.2c-0.1,0.7-0.5,0.8-1,0.8c-1.5,0-2.9,0.1-4.4,0c-1.1-0.1-1.4,0.2-1.4,1.4
		c0.1,3.2,0,6.5,0,9.7c0,3.6,1.5,4.9,5.1,4.2c1.7-0.3,1.8,0.2,1.8,1.6c-0.1,3.3,0,3.3-3.3,3.6c-2.3,0.3-4.5,0.3-6.6-0.7
		c-2.4-1.2-3.7-3-3.7-5.7C356.4,271.7,356.4,269.6,356.4,267.5z"/>
	<path class="st0" d="M425.5,308.2c1.8-2.7,4.1-4.1,7.2-3.7c2.9,0.4,4.9,2.7,5.3,6c0.5,4.2,0.1,8.4,0.2,12.6c0,1.7-1.4,0.8-2.1,0.9
		c-0.8,0.2-1.4,0-1.4-1.1c0.1-3.1,0-6.1,0-9.2c0-1.1,0-2.1-0.3-3.2c-0.5-1.7-1.4-2.9-3.2-3.2c-1.8-0.2-3.3,0.7-4.3,2.4
		c-0.5,0.9-0.6,1.9-0.6,2.9c0,3.4-0.1,6.7,0,10.1c0,1.4-0.7,1.4-1.6,1.3c-0.9-0.1-1.9,0.4-1.9-1.3c0-3.7,0.3-7.4-0.1-11.1
		c-0.3-2.9-1.6-4.3-3.7-4.3c-2.2,0-4.2,1.7-4.5,4.3c-0.4,3.6-0.2,7.1-0.1,10.7c0,1.5-0.6,1.6-1.8,1.7c-1.3,0-1.7-0.4-1.6-1.7
		c0.1-5.5,0-11-0.1-16.4c0-0.9,0.2-1.3,1.1-1.1c0.8,0.2,2.1-0.7,2,1.1c0,0.5,0,1,0.1,1.9c1.6-2.3,3.5-3.5,6-3.5
		C422.5,304.5,424.3,305.7,425.5,308.2z"/>
	<path class="st2" d="M436.3,347.2c1.5-1.9,3-2.9,5-3.2c4.3-0.6,7.5,2.3,7.7,6.8c0.1,3.9,0,7.8,0.1,11.7c0,0.9-0.3,1-1.1,1
		c-2.5,0.1-2.5,0.1-2.5-2.3c0-2.7,0-5.5,0-8.2c0-0.6,0-1.2-0.1-1.8c-0.3-2.8-1.9-4.4-4.4-4.3c-2.5,0.1-4.7,2.2-4.7,4.8
		c-0.1,3.5-0.1,7,0,10.6c0,1.4-0.7,1.4-1.6,1.3c-0.9-0.1-2,0.5-2-1.3c0.1-8.5,0.1-17,0-25.5c0-1.8,1.1-1.2,2-1.3
		c1-0.1,1.7-0.1,1.6,1.3C436.2,340.1,436.3,343.4,436.3,347.2z"/>
	<path class="st0" d="M163.9,364c-1.8-0.1-3.5-0.5-5.2-1.2c-1.8-0.8-0.4-1.9-0.2-2.8c0.2-1.2,1-0.2,1.4-0.1c2.2,0.9,4.3,1.4,6.7,0.9
		c1.9-0.4,3.3-1.4,3.7-3.4c0.4-2.1-0.3-3.6-2.2-4.8c-1-0.6-2.1-1.1-3.2-1.5c-1.1-0.5-2.3-1-3.3-1.6c-2.3-1.5-3.5-3.6-3.3-6.3
		c0.2-2.8,1.8-4.8,4.3-5.9c3.1-1.3,6.2-1.1,9.3,0c1.8,0.6,0.2,1.6,0.2,2.4c-0.1,1-0.7,0.7-1.3,0.4c-2-0.8-4-1.2-6.1-0.5
		c-1.6,0.5-2.6,1.5-2.9,3.1c-0.3,1.6,0.4,2.9,1.7,3.9c1,0.7,2.1,1.2,3.3,1.7c0.8,0.4,1.7,0.7,2.4,1.1c3.6,1.8,5,4.5,4.5,8.2
		c-0.5,3.1-3,5.6-6.6,6.2C166.1,363.9,165,363.9,163.9,364z"/>
	<path class="st0" d="M171.6,297c1.7,0,3.3,0.2,5,0.7c1.7,0.4,0.9,1.3,0.7,2.3c-0.2,1.3-0.8,0.9-1.6,0.7c-4.8-1.6-9.8-0.3-12.3,3.1
		c-3.2,4.3-2.8,11.8,0.9,15.3c3.2,3,7.1,3,11.2,2c0.8-0.2,1.6-1,2,0.6c0.3,1.3,0.1,1.9-1.2,2.2c-5,1.1-9.9,1.2-14.2-2.2
		c-3.9-3.1-4.9-7.5-4.4-12.2C158.4,301.5,163.7,296.9,171.6,297z"/>
	<path class="st2" d="M509.8,307.7c2.1-2.6,4.6-3.8,7.7-3.2c3.3,0.6,5.3,3.2,5.4,6.9c0.1,3.8,0,7.6,0,11.4c0,1.4-0.8,1.2-1.6,1.1
		c-0.8-0.1-2,0.6-2-1.2c0.1-3,0-6,0-9.1c0-0.7,0-1.3-0.1-2c-0.3-2.9-1.9-4.5-4.4-4.4c-2.5,0.1-4.6,2.2-4.7,4.8
		c-0.1,3.5-0.1,6.9,0,10.4c0.1,1.7-0.9,1.4-1.9,1.4c-1,0-1.9,0.2-1.9-1.5c0.1-5.5,0-11.1,0-16.6c0-0.7,0.1-1.3,0.9-1.1
		c0.8,0.2,2-0.7,2.3,0.9C509.7,306.3,509.8,306.9,509.8,307.7z"/>
	<path class="st2" d="M346.4,307.7c1.9-2.5,4.3-3.6,7.3-3.2c3.3,0.4,5.6,3.1,5.7,6.8c0.1,3.9,0,7.8,0.1,11.7c0,1.5-1,1-1.7,1
		c-0.8,0-1.9,0.5-1.9-1.1c0.1-3,0-6,0-9c0-0.7,0-1.3-0.1-2c-0.3-3-1.8-4.5-4.4-4.5c-2.6,0.1-4.7,2.2-4.7,4.9
		c-0.1,3.4-0.1,6.8,0,10.2c0,1.4-0.5,1.6-1.6,1.5c-0.9-0.1-2.1,0.5-2.1-1.4c0.1-5.6,0-11.2,0-16.8c0-0.7,0.1-1.2,0.9-1
		c0.8,0.2,2-0.7,2.3,0.8C346.3,306.3,346.3,306.9,346.4,307.7z"/>
	<path class="st2" d="M228.6,347.2c1.4-1.8,2.9-2.9,4.9-3.2c4.4-0.7,7.8,1.9,8.1,6.4c0.2,4.1,0.1,8.1,0.1,12.2c0,0.8-0.3,0.9-1,0.9
		c-2.6,0.1-2.6,0.2-2.6-2.5c0-2.7,0-5.4,0-8c0-0.4,0-0.9,0-1.3c-0.2-3.1-1.8-4.8-4.3-4.8c-2.6,0-4.8,2.1-4.9,5
		c-0.1,3.3-0.1,6.7,0,10.1c0.1,1.5-0.6,1.6-1.8,1.7c-1.3,0-1.8-0.2-1.8-1.7c0.1-5.4,0-10.8-0.1-16.2c0-0.6-0.3-1.5,0.9-1.3
		c0.8,0.2,2.3-0.9,2.3,1.1C228.5,345.9,228.5,346.4,228.6,347.2z"/>
	<path class="st0" d="M548.8,344.4c3.8-0.2,3.8-0.2,5.1,3.2c1.4,3.8,2.8,7.6,4.3,11.6c0.9-2.8,1.8-5.6,2.8-8.3
		c0.5-1.5,1.2-3,1.5-4.6c0.4-1.6,1.2-2.2,2.8-1.9c0.5,0.1,1,0,1.7,0c-1.5,4-3,7.9-4.5,11.8c-1.3,3.4-2.5,6.8-4.3,10
		c-1.4,2.5-3.2,4.6-5.9,5.7c-0.6,0.2-1.5,1-1.7-0.2c-0.2-0.9-1.6-2,0.3-2.7c1.1-0.4,2-1.1,2.7-1.9c1.9-2,2.9-4,1.5-7
		C552.8,355,550.9,349.7,548.8,344.4z"/>
	<path class="st3" d="M330.7,347.3c1.7-2.1,3.5-3.3,6-3.3c3.6-0.1,6.4,1.9,6.9,5.5c0.6,4.4,0.2,8.9,0.3,13.4c0,0.2-0.1,0.6-0.2,0.6
		c-1,0.1-2,0.2-3,0.1c-0.7-0.1-0.3-0.9-0.3-1.4c0-3.4,0.1-6.7,0-10.1c-0.1-3.7-2.4-5.7-5.5-4.9c-2.1,0.5-3.6,2.5-3.6,5
		c0,3.4-0.1,6.7,0,10.1c0.1,1.7-1,1.3-1.9,1.4c-1,0.1-1.7,0.1-1.7-1.4c0-5.6,0.2-11.3-0.1-16.9c0-0.7,0.2-1,0.8-0.9
		c0.8,0.2,2-0.7,2.3,0.7C330.7,345.7,330.6,346.3,330.7,347.3z"/>
	<path class="st0" d="M457.8,347.3c1.7-2,3.4-3.2,5.8-3.3c3.9-0.2,6.7,2.1,7.2,6c0.5,4.2,0.1,8.5,0.2,12.7c0,0.6-0.2,0.8-0.9,0.9
		c-2.7,0.3-2.7,0.2-2.7-2.4c0-2.8,0-5.6,0-8.4c0-0.7-0.1-1.3-0.2-2c-0.5-2.5-1.7-3.8-3.9-3.9c-2.2-0.1-4.3,1.3-4.9,3.5
		c-0.4,1.2-0.3,2.4-0.3,3.7c0,2.8-0.1,5.6,0,8.4c0,1.5-1,1.1-1.7,1c-0.7,0-1.8,0.6-1.9-1c0-5.8,0.2-11.5-0.2-17.3
		c0-0.7,0.2-1,0.8-0.8c0.8,0.2,2-0.7,2.4,0.7C457.9,345.6,457.8,346.3,457.8,347.3z"/>
	<path class="st3" d="M383.6,351.6c0-1.8,0-3.7,0-5.5c-0.1-2,0.2-4-0.2-6c-1.9,0-3.9-0.1-5.8-0.1c-0.3,0-0.7,0-1,0
		c-1.4,0.2-1-0.8-1-1.5c0-0.7-0.3-1.5,1-1.5c5.9,0.1,11.8,0.1,17.8,0c1.4,0,0.9,0.9,1,1.6c0,0.8,0.2,1.6-1.1,1.5
		c-1.7-0.1-3.4,0.1-5-0.1c-1.6-0.1-2.1,0.3-2,1.9c0.1,6.7,0,13.4,0.1,20.1c0,1.9-1,1.5-2.1,1.6c-1.3,0.1-1.7-0.2-1.7-1.6
		C383.7,358.5,383.6,355,383.6,351.6z"/>
	<path class="st1" d="M84.2,349.2c0.8-1.4,0.5-2.9,0.6-4.3c0.1-3.9,1.5-7.1,4.3-9.8c1.9-1.9,3.7-3.8,5.6-5.7c0.5-0.5,1-1.3,1.8-1
		c0.8,0.3,0.4,1.3,0.4,1.9c-1.2,3.5-1.2,7.1-0.5,10.7c0.1,0.7,0.1,1.2-0.5,1.6c-3.5,2.2-7,4.4-10.5,6.6
		C85.1,349.3,84.7,349.7,84.2,349.2z"/>
	<path class="st3" d="M313.8,315.7c0-2.2,0-4.5,0-6.7c0-1.1-0.2-1.6-1.4-1.4c-1.2,0.2-1.3-0.4-1.4-1.4c0-1,0.3-1.5,1.3-1.3
		c1.1,0.2,1.5-0.3,1.4-1.4c-0.1-1.2,0.2-2.4,0.6-3.6c1.2-3.4,5-5.2,8.4-4.1c1.3,0.4,0.7,1.3,0.6,2c-0.1,0.7-0.3,1-1.2,0.8
		c-3.3-0.7-5.9,2.4-5,5.7c0.1,0.5,0.5,0.5,0.9,0.6c0.7,0,1.5,0.1,2.2,0c1.6-0.3,1.7,0.6,1.6,1.8c0,0.8-0.3,1-1,0.9
		c-0.1,0-0.1,0-0.2,0c-3.5,0.1-3.5,0.1-3.5,3.6c0,3.9-0.1,7.7,0,11.6c0,1.7-1,1.2-1.9,1.2c-0.9,0.1-1.7,0.1-1.7-1.3
		C313.8,320.4,313.8,318.1,313.8,315.7z"/>
	<path class="st3" d="M365.4,315.8c0-2.3,0-4.6,0-6.9c0-1-0.2-1.5-1.3-1.4c-1,0.1-1.5-0.1-1.5-1.3c0-1.1,0.3-1.6,1.4-1.4
		c1.2,0.2,1.4-0.4,1.3-1.4c-0.1-1.9,0.3-3.8,1.5-5.4c1.6-2.2,5-3.2,7.5-2.3c1.3,0.4,0.5,1.3,0.5,2.1c0,0.9-0.4,0.9-1.2,0.8
		c-3.3-0.6-6,2.6-4.9,5.8c0.2,0.5,0.5,0.5,0.9,0.5c0.7,0,1.5,0.1,2.2,0c1.5-0.2,1.6,0.5,1.6,1.7c0,0.8-0.2,1.1-1.1,1.1
		c-1.2,0-2.7-0.5-3.4,0.3c-0.7,0.8-0.2,2.4-0.2,3.6c0,3.7-0.1,7.5,0,11.2c0,1.6-0.8,1.4-1.8,1.4c-1,0-1.9,0.2-1.8-1.4
		C365.5,320.4,365.4,318.1,365.4,315.8z"/>
	<path class="st3" d="M187.4,344c1.2,0,2.3,0.2,3.3,0.4c1.4,0.3,1.9,0.8,1.3,2.3c-0.3,0.9-0.6,1-1.5,0.7c-2.8-0.9-5.5-0.9-7.6,1.3
		c-2.2,2.2-2.5,4.9-1.7,7.8c1.1,3.8,4.8,5.5,9,4.3c0.6-0.2,1.4-1.2,1.7,0.3c0.2,1.1,0.6,2-1,2.4c-2.3,0.5-4.6,0.8-6.9,0.2
		c-4.6-1.2-7.2-5.3-6.8-10.6c0.4-5,4.1-8.7,9-9C186.7,344,187.1,344,187.4,344z"/>
	<path class="st3" d="M290.4,344c1,0,2,0.1,3,0.4c1.8,0.5,2,1.3,1,2.9c-0.4,0.6-0.7,0.2-0.9,0.1c-1.2-0.5-2.4-0.8-3.7-0.7
		c-1.3,0.1-2.2,0.7-2.5,2c-0.3,1.3,0.4,2.2,1.5,2.7c1.1,0.6,2.3,1,3.5,1.6c2.9,1.4,4,3.5,3.5,6.3c-0.4,2.4-2.6,4.1-5.4,4.5
		c-2,0.2-4,0-5.9-0.6c-1.7-0.5-0.8-1.5-0.6-2.3c0.3-1.3,1-0.6,1.6-0.4c1.5,0.7,3,0.9,4.6,0.6c1.3-0.2,2.2-0.9,2.4-2.2
		c0.2-1.3-0.4-2.3-1.4-3c-1.5-0.9-3.2-1.2-4.7-2.2c-3.3-2.3-3.3-6.5-0.1-8.7C287.4,344.2,288.9,343.9,290.4,344z"/>
	<path class="st3" d="M466.9,299.5c0,1.6,0,3,0,4.5c0,0.7,0.2,1,0.9,1c0.8,0,1.6,0,2.3,0c1,0,1.8-0.1,1.8,1.4c0,1.4-0.7,1.3-1.7,1.3
		c-3.4,0-3.4,0-3.4,3.4c0,2.3,0,4.6,0,6.9c0,3,0.8,3.7,3.7,3.6c0.5,0,1.1-0.1,1,0.6c-0.1,0.7,0.7,1.7-0.6,2.1c-4,1.4-7.3-0.8-7.5-5
		c-0.1-3.4-0.1-6.7,0-10.1c0-1.1-0.2-1.7-1.5-1.5c-1,0.1-1.7,0.1-1.6-1.3c0-1.3,0.5-1.6,1.6-1.4c1.1,0.2,1.5-0.3,1.5-1.5
		C463.4,300.2,463.5,300.2,466.9,299.5z"/>
	<path class="st3" d="M424.1,344c1.3,0,2.5,0.2,3.8,0.6c1.7,0.5,0.5,1.5,0.4,2.2c-0.1,1.2-0.8,0.7-1.4,0.5c-3.2-1-6.2-0.4-8,1.8
		c-1.8,2.1-2.2,6-0.8,8.7c1.6,3,4.9,4.1,8.9,2.8c0.3-0.1,1.1-1,1.2,0.2c0.1,0.8,1,1.7-0.1,2.4c-4.3,2.5-11.3,0.4-13.4-4.1
		C411.9,352.9,414.6,344,424.1,344z"/>
	<path class="st3" d="M256,344c1.4,0,2.4,0.2,3.5,0.4c1.5,0.2,1.7,0.9,1.2,2.3c-0.3,0.9-0.6,1-1.5,0.7c-5.9-1.9-10.5,2-9.5,8.2
		c0.7,4.4,4.6,6.6,9.3,5.2c0.6-0.2,1.4-1.1,1.7,0.4c0.2,1.1,0.6,2-1,2.4c-2.3,0.5-4.6,0.8-7,0.2c-4.8-1.3-7.2-5.2-6.6-10.9
		c0.4-4.7,4-8.3,8.8-8.7C255.2,344,255.8,344,256,344z"/>
	<path class="st4" d="M498.2,349.4c0-4.2,0.1-8.4,0-12.6c0-1.7,1-1.3,1.9-1.4c1,0,1.8-0.1,1.7,1.4c-0.1,8.5-0.1,17,0,25.5
		c0,1.5-0.8,1.3-1.7,1.3c-0.9-0.1-2.1,0.6-2-1.3C498.3,358,498.2,353.7,498.2,349.4z"/>
	<path class="st4" d="M212.4,310c0-4.2,0.1-8.5,0-12.7c0-1.5,0.8-1.3,1.7-1.3c0.9,0.1,2-0.6,2,1.3c-0.1,8.5-0.1,17,0,25.5
		c0,1.7-1,1.3-1.9,1.4c-1,0-1.8,0.1-1.7-1.4C212.5,318.4,212.4,314.2,212.4,310z"/>
	<path class="st2" d="M203.1,310c0-4.3,0.1-8.5,0-12.7c0-1.5,0.8-1.3,1.7-1.2c0.8,0.1,2.1-0.6,2,1.2c-0.1,8.6-0.1,17.1,0,25.7
		c0,1.7-1.1,1.1-1.9,1.2c-0.8,0-1.8,0.4-1.8-1.2C203.1,318.6,203.1,314.3,203.1,310z"/>
	<path class="st0" d="M88.5,281.9c-0.5,0.3-1,0.5-1.6,0.2c0.8-1.2,2-2.3,1-3.9c-1.1-1.6-2.6-2.2-4.5-2c-1.9,0.2-3.4,1.2-4,2.9
		c-0.5,1.3,0.9,2.1,1.9,2.8c0.6,0.5,1.5,0.4,2.1,1.4c-2,0.6-3.8,0.2-5.4-0.9c-0.8-0.6-1.4-0.8-2.4-0.5c-1.9,0.5-2.6-0.4-2-2.3
		c1.6-5.1,7.3-8.3,12.5-7.1c2.2,0.5,3.6,2.1,4.9,3.8C91.9,278.7,91,280.7,88.5,281.9z"/>
	<path class="st4" d="M337,310.6c0,4.1-0.1,8.1,0,12.2c0,1.3-0.6,1.4-1.5,1.2c-0.8-0.1-2.1,0.6-2.1-1.2c0.1-8.1,0.1-16.2,0-24.3
		c0-1.7,1.1-1.1,1.9-1.2c0.8,0,1.8-0.4,1.7,1.2C336.9,302.6,337,306.6,337,310.6z"/>
	<path class="st0" d="M62.7,256.1c0.9-0.1,1.3,0.4,1.6,0.8c1.7,3,3.3,6,5.2,8.9c0.5,0.7,0.2,1.4-0.5,1.9c-1.5,0.9-2.9,2.1-4.1,3.4
		c-0.7,0.7-1.4,0.8-2.2,0.1c-2.9-2.7-3.6-10.9-1.3-14C61.7,256.6,62.2,256.2,62.7,256.1z"/>
	<path class="st5" d="M400.7,307.7c0.8-0.2,1-0.8,1.3-1.2c0.8-0.8,1.6-1.6,2.7-1.9c0.8-0.2,1.8-0.6,2.3,0.1c0.5,0.7,0.2,1.7,0.2,2.6
		c0,0.6-0.5,0.5-0.9,0.5c-3.1,0.3-4.8,1.8-5,4.9c-0.2,3.3-0.2,6.6-0.1,9.9c0.1,1.7-0.9,1.4-1.9,1.4c-1,0-1.8,0.1-1.7-1.4
		c0.1-5.5,0-11,0-16.6c0-1.1,0.4-1.4,1.4-1.2c0.8,0.1,1.9-0.5,1.8,1.1C400.7,306.6,400.7,307.1,400.7,307.7z"/>
	<path class="st1" d="M88.5,281.9c1.8-1.5,2.8-3.3,2.4-5.7c2.2,2.3,3,5.3,4.3,8c1.1,2.5,2,5.1,3.1,7.6c0.5,1.2,0.5,2.2-0.3,3.3
		c-0.6,1.3-2.1,1.9-2.6,3.2c-0.5-0.2-0.8-0.7-0.7-1.2c0.2-4.2-2-7.6-3.3-11.3C90.8,284.2,90.4,282.5,88.5,281.9z"/>
	<path class="st6" d="M475.6,314.3c0-2.7,0.1-5.5,0-8.2c-0.1-1.7,1.1-1.2,1.9-1.2c0.8,0,1.8-0.3,1.7,1.2c-0.1,5.6-0.1,11.2,0,16.7
		c0,1.7-1.1,1.2-1.9,1.2c-0.8,0-1.8,0.3-1.7-1.2C475.7,320,475.6,317.2,475.6,314.3z"/>
	<path class="st4" d="M196.3,353.8c0-2.8,0-5.6,0-8.4c0-0.9,0.3-1.1,1.1-1.1c2.4,0,2.4-0.1,2.4,2.3c0,5.1-0.1,10.3,0,15.4
		c0,1.8-1,1.4-2,1.5c-1.2,0.1-1.7-0.2-1.6-1.5C196.4,359.3,196.3,356.6,196.3,353.8z"/>
	<path class="st0" d="M95.4,298.3c0.1-1.7,1.4-2.4,2.6-3.2c3.3-0.6,6.6-0.8,10-0.2c1.1,0.2,1.8,0.7,1.8,2c0,1.3-0.7,1.9-1.8,2
		c-2,0.2-3.3,1-3.9,3c-0.2,0.9-0.9,1.6-1.7,2.3c-0.3,0.3-0.7,0.4-1.1,0.2c-0.3-0.2-0.3-0.6-0.2-0.9c0-0.1,0-0.2,0.1-0.3
		c0.7-3.4,0.2-4-3.3-4.4C97.1,298.6,96.3,298.5,95.4,298.3z"/>
	<path class="st1" d="M111.7,284.7c1.2,1.9,1.6,4.1,1.2,6.3c-0.4,2.1-1,4.1-1.5,6.1c-1.1-1.9-2.3-3.8-3.4-5.8
		c-0.7-1.3-0.5-2.3,0.9-3C110.5,287.6,111.8,286.6,111.7,284.7z"/>
	<path class="st5" d="M109.5,264.3c-0.1,0.8-0.2,1.6-0.5,2.3c-0.4,1-0.7,2.4-1.5,2.9c-1.2,0.8-1.7-0.9-2.5-1.4
		c-2.2-1.4-2.2-1.5-0.5-3.7c0.7-0.9,1.5-1.8,2.3-2.7c1.1-1.1,1.8-1,2.3,0.5C109.3,262.9,109.5,263.6,109.5,264.3z"/>
	<path class="st4" d="M479.6,299.6c0,1.3-1,2.1-2.3,2.1c-1.3,0-2.1-1-2.1-2.3c0.1-1.3,1-2.1,2.3-2.1
		C478.9,297.4,479.6,298.3,479.6,299.6z"/>
	<path class="st7" d="M200.3,339.1c0,1.2-1,2.2-2.3,2.2c-1.3,0-2.1-0.9-2.1-2.3c0-1.3,1-2.2,2.2-2.2
		C199.4,336.8,200.3,337.8,200.3,339.1z"/>
	<path class="st8" d="M95.5,318.2c-2,0-4,0-5.9-0.7c-0.9-0.3-1.7-0.8-1.8-1.8c0-1,0.9-1.4,1.6-1.6c4-1.5,8.2-2.1,12.5-1.9
		c0.1,0,0.1,0,0.2,0c1,0.3,2.3,0.3,2.6,1.5c0.4,1.3-0.7,2.1-1.5,2.8C100.9,318.3,98.2,318.1,95.5,318.2z"/>
	<path class="st0" d="M176.3,246.7c-3.2-0.5-6.4-0.1-9-0.3c-2.5,0-4.6,0-6.6,0c-2.9,0-2.8,0-3,3c-0.1,1.6,0.3,2.3,2,2
		c1.1-0.2,1.4,0.2,1.4,1.3c-0.1,7,0,14,0,21c0,0.7,0.1,1.2-1,1.3c-2.3,0-2.3,0.1-2.3,2.4c0,0.3,0,0.7,0,1c-0.2,1.1,0.2,1.5,1.5,1.5
		c3.1-0.1,6.2,0,9.2,0c3,0,2.9,0,3-3c0.1-1.6-0.4-2.3-2-2c-1.1,0.2-1.4-0.3-1.4-1.4c0.1-1.8,0.1-3.6,0-5.4c0-1,0.3-1.2,1.2-1.2
		c2.2,0,4.4,0.1,6.5-0.2c4.8-0.5,8.5-3.4,9.3-7.4C186.7,252.8,183,247.6,176.3,246.7z M173.2,262c-1.4,0.1-2.8,0-4.2,0.1
		c-0.8,0-0.9-0.4-0.9-1c0-2.9,0-5.8,0-8.7c0-0.7,0.2-1,0.9-1c0.7,0.1,1.3,0,2,0c0.6,0,1.1,0,1.7,0c3.2,0.1,5.4,2.1,5.5,5.2
		C178.3,259.6,176.4,261.7,173.2,262z"/>
	<path class="st0" d="M350.6,274.9c-1.2,0.2-1.2-0.5-1.2-1.4c0-3.4,0-6.7,0-10.1c0-4.7-2.6-7.8-7.2-8.8c-3.9-0.8-7.6-0.4-11.4,1
		c-1.8,0.6-2.5,1.5-2.4,3.5c0.2,4.3,0.1,4.3,4.4,4.2c0.9,0,1.1-0.3,1.1-1.1c0-2.6,0.1-2.6,2.8-2.9c0.9-0.1,1.8-0.1,2.7,0
		c2.2,0.3,3.3,1.6,3.6,3.7c0.2,1.5-0.1,2.2-1.9,2.1c-3.4-0.2-6.8,0-10,1.6c-2.8,1.4-4.1,3.9-3.9,7c0.2,3,2,5.3,4.9,6.1
		c4.3,1.2,8.3,0.7,11.5-3.2c0.2,3.2,0.2,3.2,3.2,3.2c0.6,0,1.2,0,1.8,0c3.4,0,3.3,0,3.4-3.4C352.1,275.3,351.8,274.7,350.6,274.9z
		 M342.7,271.2c-0.8,3.2-3.7,5-6.5,4.1c-1.3-0.4-2.1-1.3-2.2-2.7c-0.1-1.4,0.8-2.3,2-2.7c1.6-0.6,3.4-0.4,4.8-0.7
		C343.1,269.2,343.2,269.3,342.7,271.2z"/>
	<path class="st0" d="M211.1,265c-0.8-4.9-3-9-8.3-10.3c-8.4-1.9-15.6,2.3-16.1,11.8c-0.4,7.2,3.3,12.2,10,13.5
		c2.9,0.6,5.9,0.4,8.8-0.1c4.3-0.8,4.2-0.8,4.1-5c0-1.1-0.2-1.3-1.3-0.9c-3,1.1-6.1,1.5-9.2,0.8c-3-0.7-4.8-2.9-5-6
		c4.5,0,9,0,13.6,0C211.6,268.9,211.7,268.9,211.1,265z M202.8,264.2c-1.3-0.1-2.6,0-3.8,0c-1.2,0-2.4-0.1-3.5,0
		c-1.6,0.2-1.6-0.5-1.2-1.7c0.8-2.4,2.5-3.7,5-3.5c2.5,0.1,4,1.5,4.6,3.9C204.1,263.8,204,264.3,202.8,264.2z"/>
	<path class="st0" d="M380,254.8c-5.2,1.2-8.2,5.7-8.5,12.2c-0.3,7,3.8,12.2,10.4,13.2c3.2,0.5,6.4,0.3,9.5-0.4c3-0.6,3-0.7,3-3.8
		c0-0.7,0-1.4,0-2.3c-1.5,0.4-2.8,0.8-4.2,1.1c-1.4,0.3-2.8,0.4-4.2,0.3c-3.4-0.2-5.9-1.8-6.9-4.4c-0.6-1.7-0.5-1.9,1.3-1.9
		c4.8,0,9.6,0,14.4,0c0.6,0,1.2,0.2,1.2-0.8C395.9,258.6,390.5,252.4,380,254.8z M387.3,264.2c-1.2-0.1-2.5,0-3.7,0
		c-1.3,0-2.6,0-3.8,0c-0.8,0-1.1-0.2-0.9-1.1c0.4-2.4,2.1-4,4.5-4.2c2.6-0.2,4.5,1.2,5.2,3.5C388.8,263.6,388.9,264.4,387.3,264.2z"
		/>
	<path class="st0" d="M255.9,304.9c-1.8,0.1-0.8,1.5-1.3,2.3c-3.3-3.2-7.2-3.7-10.5-1.2c-3.6,2.7-4.4,6.6-3.8,10.8
		c0.7,4.7,4.3,7.6,9.1,7.2c2-0.2,3.5-1.2,5-2.9c0.1,2.9,0.2,5.6-2.2,7.3c-3.1,2.2-6.3,1.2-9.5-0.2c0,1.1-1.8,2.1,0,3.1
		c7.1,3.9,14.9-0.4,15.1-8.4c0.2-5.3,0.1-10.6,0.2-15.9C258,304.8,258,304.8,255.9,304.9z M254.4,314.4c0,0.8,0.1,1.9-0.2,2.9
		c-0.6,2.1-2.2,3.6-4.2,3.8c-2.2,0.3-4.3-0.7-5.3-2.7c-1.4-2.8-1.4-5.7,0.1-8.5c1.2-2.2,3.4-3.1,5.8-2.6c2.1,0.5,3.7,2.5,3.8,4.9
		C254.4,313,254.4,313.6,254.4,314.4z"/>
	<path class="st0" d="M545.3,344.4c-0.8,0-1.6-0.2-2.3,0.1c-0.7,0.2-0.1,1.1-0.4,1.6c-0.1,0.2-0.2,0.4-0.2,0.6
		c-3.8-3.5-8.3-3.6-11.6-0.2c-2.3,2.4-3,5.3-2.8,8.5c0.2,3.6,1.6,6.5,5.1,8c3.3,1.4,6.3,0.7,9-2.2c0,1,0,1.7,0,2.4
		c-0.1,3.8-2.3,6-6.1,6c-1.4,0-2.8-0.1-4.1-0.8c-1.3-0.7-1.7-0.4-2.1,0.9c-0.3,1,0,1.4,0.8,1.8c1.3,0.5,2.7,0.9,4.1,0.9
		c5.5,0.3,10.4-1.4,10.8-8.7c0.3-6,0.2-12,0.2-17.9C545.7,344.8,545.8,344.4,545.3,344.4z M542,353.7c0,0.8,0.1,1.7,0,2.5
		c-0.2,2.2-1.8,3.9-4,4.4c-2.1,0.5-4.3-0.4-5.4-2.2c-1.7-2.9-1.7-6-0.1-8.9c1.2-2.2,3.5-3.2,5.8-2.6c2.3,0.6,3.7,2.5,3.7,5.1
		C542.1,352.6,542.1,353.2,542,353.7C542.1,353.7,542.1,353.7,542,353.7z"/>
	<path class="st3" d="M366.1,362.5c0-8.5-0.1-17.1-0.1-25.6c0-1.7-1-1.4-1.9-1.4c-1-0.1-1.8-0.1-1.7,1.4c0.1,3.2,0,6.3,0,9.6
		c-4.5-4.6-11.7-2.6-13.7,3.3c-1,2.9-1,5.8,0,8.7c1.5,4.1,5.3,6.2,9.4,5.3c1.9-0.4,3.3-1.6,4.6-3.2c0.1,0.8,0.1,1.5,0.2,2.1
		c0.3,1.7,1.6,0.6,2.4,0.8C366.2,363.7,366.2,363.1,366.1,362.5z M362.5,353.9c-0.1,1,0.1,2.2-0.2,3.3c-0.7,2.2-2.5,3.7-4.7,3.9
		c-2.1,0.1-4.1-1.1-5-3.2c-1.1-2.7-1.1-5.4,0.2-8.1c1.1-2.3,3.4-3.4,5.6-3c2.5,0.5,4.1,2.5,4.2,5.1
		C362.5,352.5,362.5,353.2,362.5,353.9z"/>
	<path class="st0" d="M490.1,345.5c-3.2-2.2-6.7-2.2-10-0.5c-3.6,1.8-4.8,5.1-4.8,7.9c0,3.7,0.6,6.2,2.6,8.2
		c2.7,2.8,6.1,3.4,9.7,2.3c3.9-1.2,5.9-4.1,6.4-8C494.3,351.6,493.5,347.9,490.1,345.5z M489.4,357.9c-1,2.1-2.6,3.4-4.9,3.3
		c-2.5,0-4-1.5-4.9-3.6c-0.5-1.1-0.6-2.2-0.7-3.7c0-1.7,0.3-3.6,1.6-5.2c2.4-3,6.8-2.8,8.7,0.6C490.7,352.1,490.8,355,489.4,357.9z"
		/>
	<path class="st0" d="M519.2,344.5c-4.6-1.7-9.6,0.1-11.7,4.1c-2.5,4.7-1.4,11,2.5,13.7c3.2,2.2,6.6,2.3,10,0.6
		c3.7-1.8,4.9-5.1,4.9-9C524.9,349.3,522.8,345.9,519.2,344.5z M519.2,359.6c-2.3,2.4-5.7,2.2-7.8-0.4c-2.2-2.8-2.3-7.9,0-10.7
		c2.2-2.8,6.5-2.6,8.4,0.4c1,1.5,1.4,3.2,1.4,4.6C521.3,356.1,520.8,358,519.2,359.6z"/>
	<path class="st0" d="M303.3,305.1c-4.4-1.6-9.3,0-11.6,3.8c-2.5,4.3-1.7,10.7,1.8,13.5c3.1,2.6,6.6,2.8,10.2,1.2
		c3.9-1.8,5.3-5.2,5.4-8.3C309.1,309.8,307,306.4,303.3,305.1z M303.4,320.1c-2.4,2.5-5.9,2.2-8-0.6c-2.1-2.8-2-7.8,0.2-10.5
		c2.1-2.6,6.1-2.6,8.1,0.1c1.2,1.6,1.6,3.4,1.7,5.4C305.4,316.6,304.9,318.5,303.4,320.1z"/>
	<path class="st0" d="M192.1,304.8c-6.4-1.5-11.6,2.4-12,8.9c-0.3,4.8,1.8,8.8,5.7,10.2c6.7,2.6,13-2,13.1-9.5
		C198.8,309.4,196.2,305.7,192.1,304.8z M194,318.9c-1,1.9-2.6,2.9-4.7,2.9c-2.2,0-3.7-1.2-4.7-3c-0.7-1.3-1-2.8-1-4.3
		c0-3.6,1.7-6.3,4.3-7c2.4-0.7,4.7,0.1,5.9,2.3C195.6,312.7,195.6,315.8,194,318.9z"/>
	<path class="st0" d="M502.3,313.3c-0.4-4.4-2.8-7.6-6.6-8.5c-6.7-1.7-12.1,2.7-12.1,9.8c-0.1,2.7,0.6,5.1,2.4,7.1
		c2.6,2.9,7,3.7,10.8,2C500.6,322,502.7,318.1,502.3,313.3z M498.3,317.2c-0.8,3-3,4.8-5.6,4.6c-2.6-0.1-4.8-2.2-5.3-5.2
		c-0.1-0.7-0.2-1.4-0.2-2.2c0-1.7,0.3-3.3,1.3-4.8c2.2-3.5,7-3.4,9.1,0.2C498.8,312.2,499,314.6,498.3,317.2z"/>
	<path class="st0" d="M386.8,304.8c-4.6-1.1-8.8,0.7-10.9,4.5c-2.2,4.2-1.5,10.1,1.8,13c3,2.7,6.5,3,10.2,1.5c4-1.7,5.4-5,5.5-7.8
		C393.5,309.5,390.9,305.8,386.8,304.8z M388.1,319.8c-2.1,2.6-5.8,2.7-8,0.1c-2.4-2.8-2.4-8,0-10.9c2.2-2.6,6.2-2.5,8.2,0.3
		c1,1.3,1.6,3.5,1.5,5.4C389.7,316.6,389.3,318.3,388.1,319.8z"/>
	<path class="st0" d="M269.5,304.6c-4.5,0.9-7.3,4.8-7.3,10.1c0,4.9,2.5,8.5,6.6,9.5c2.7,0.7,5.4,0.3,8.1-0.4c1.3-0.3,0.9-1.1,0.8-2
		c-0.2-1.3-0.9-0.8-1.5-0.6c-0.3,0.1-0.6,0.2-1,0.3c-5.6,1.3-9.2-1-9.5-6.3c4,0,8,0,12.1,0c0.7,0,1.2,0.1,1.4-0.9
		C280.2,308.4,275.3,303.5,269.5,304.6z M274.8,312.5c-1.3,0-2.7,0-4,0c-1.4,0-2.8,0-4.2,0c-0.7,0-0.9-0.2-0.8-0.9
		c0.4-2.6,2.9-4.8,5.5-4.6c2.4,0.1,4.3,2.2,4.3,4.7C275.6,312.5,275.3,312.5,274.8,312.5z"/>
	<path class="st0" d="M208.9,354.7c1.7,0.1,3.5,0,5.2,0c1.6,0,3.1,0,4.7,0c2.5,0,2.5,0,2.3-2.5c-0.3-3.3-1.4-6.3-4.7-7.7
		c-3.1-1.2-6.2-0.8-8.8,1.4c-3.8,3.3-4.6,10.3-1.7,14.4c2.5,3.5,9.3,4.9,13.5,2.7c1.2-0.6,0.2-1.4,0.2-2.2c-0.1-0.9-0.6-0.5-1.1-0.4
		c-1.7,0.6-3.5,0.8-5.3,0.6c-2.9-0.2-5-2.2-5.5-5C207.6,355.1,207.7,354.6,208.9,354.7z M207.8,351.4c0.2-2.4,2.5-4.7,5-4.8
		c2.6-0.1,4.5,1.6,4.8,4.3c0.1,0.9,0,1.3-1.1,1.3c-1.3-0.1-2.6,0-3.8,0c-1.4,0-2.8,0-4.2,0C208,352.1,207.7,352,207.8,351.4z"/>
	<path class="st0" d="M230.1,304.5c-5.9-0.4-10.3,4.6-9.7,11.1c0.3,3.7,1.7,6.7,5.4,8.2c3.2,1.3,6.5,0.9,9.7-0.1
		c1.4-0.5,0.4-1.4,0.4-2.1c0-0.8-0.5-0.7-1.2-0.5c-1.8,0.6-3.7,0.8-5.6,0.5c-2.8-0.4-4.7-2.3-5.1-5c-0.2-1,0-1.5,1.2-1.5
		c1.8,0.1,3.6,0,5.4,0c1.9,0,3.8,0,5.7,0c0.5,0,0.9,0.2,1.1-0.6C238.4,310,234.7,304.8,230.1,304.5z M232.9,312.5
		c-1.4,0-2.8,0-4.2,0c-1.3,0-2.7,0-4,0c-0.4,0-0.9,0.1-0.8-0.7c0.2-3.3,4.1-5.8,7.2-4.4c1.6,0.7,2.8,2.8,2.8,4.5
		C233.8,312.7,233.3,312.5,232.9,312.5z"/>
	<path class="st0" d="M269.3,344.4c-3.8,1.2-6.2,5.3-6,10c0.1,4.5,2.2,7.7,5.8,8.9c3.1,1,6.2,0.7,9.2-0.3c1.4-0.4,0.5-1.3,0.5-2
		c0-0.9-0.6-0.8-1.3-0.6c-1.7,0.6-3.4,0.7-5.1,0.6c-2.9-0.2-5-2.1-5.5-5c-0.2-0.9-0.2-1.6,1.2-1.5c1.8,0.1,3.6,0,5.4,0
		c1.9,0,3.8,0,5.7,0c0.6,0,1.1,0.1,1.2-0.8C280.7,347.6,276.8,342.2,269.3,344.4z M275.9,352.1c-1.3,0-2.7,0-4,0
		c-1.3,0-2.6-0.1-3.9,0c-1.2,0.1-1.2-0.4-0.9-1.3c0.9-2.9,2.8-4.4,5.5-4.2c2.4,0.2,4.3,2.4,4.3,4.8
		C276.8,352.1,276.4,352.1,275.9,352.1z"/>
	<path class="st0" d="M405.5,344.3c-4.3-1.3-8.7,0.7-10.6,4.8c-1.2,2.6-1.3,5.3-0.7,8c0.7,3.4,2.8,5.6,6.2,6.5
		c2.8,0.7,5.6,0.4,8.4-0.5c1.4-0.4,0.5-1.3,0.5-2c0-0.9-0.6-0.8-1.3-0.6c-1.7,0.6-3.5,0.7-5.3,0.6c-2.9-0.3-4.9-2.3-5.4-5.1
		c-0.2-1,0.1-1.4,1.2-1.3c1.8,0.1,3.6,0,5.4,0c1.9,0,3.8,0,5.7,0c0.6,0,1,0.1,1.2-0.8C411.5,349.9,409,345.4,405.5,344.3z
		 M406.4,352.1c-1.4,0-2.8,0-4.2,0c-1.3,0-2.6-0.1-3.9,0c-1,0.1-1.1-0.3-0.8-1.2c0.5-1.6,1.2-2.9,2.6-3.8c3.1-1.9,7,0.3,7.2,4
		C407.4,351.9,407.1,352.1,406.4,352.1z"/>
	<path class="st3" d="M321.8,349.6c-0.2-1.9-1.1-3.7-2.9-4.7c-3.4-1.7-6.7-1.2-10,0.3c-1.2,0.6-0.1,1.5,0,2.1
		c0.2,0.9,0.8,0.2,1.1,0.1c1.4-0.7,3-0.9,4.6-0.9c2,0.1,3.2,1.1,3.7,3c0.3,1.1,0.2,1.7-1.2,1.7c-2.8,0-5.6,0.5-7.9,2.3
		c-2.1,1.6-2.6,3.9-2,6.3c0.5,2.3,2.3,3.7,4.8,4c2.6,0.3,4.8-0.6,6.7-2.7c0.1,0.7,0.1,1.1,0.2,1.6c0.5,1.3,1.6,0.5,2.4,0.7
		c0.5,0.1,0.9,0,0.8-0.7C321.8,358.4,322.4,354,321.8,349.6z M318.6,355.8c0,3.5-1.7,5.4-4.6,5.5c-1.5,0-2.6-0.5-3.2-1.9
		c-0.5-1.5-0.3-2.9,1-3.9c1.8-1.5,4-1.7,6.2-1.5C319.2,354,318.2,355.3,318.6,355.8z"/>
	<path class="st0" d="M457.4,322.8c-0.4-3.6-0.2-7.3-0.2-10.9c0-2.9-0.7-5.4-3.5-6.7c-3.2-1.4-6.5-0.9-9.5,0.7
		c-1.1,0.5-0.1,1.4,0.1,2c0.2,0.9,0.7,0.3,1.1,0.1c1.4-0.7,3-1,4.5-0.9c2,0.1,3.1,1.1,3.6,2.9c0.4,1.3,0.2,1.9-1.4,1.9
		c-2.6,0-5.2,0.5-7.5,2.1c-2.1,1.5-3,4.1-2.3,6.6c0.6,2.3,2.3,3.6,4.6,3.9c2.7,0.4,5-0.5,7.1-2.7c0.1,0.6,0.1,1,0.1,1.4
		c0.3,1.8,1.7,0.8,2.6,0.9C457.8,324.2,457.5,323.3,457.4,322.8z M453.7,316.4c0.4,3.3-2,5.1-4,5.4c-1.6,0.2-3.1-0.4-3.7-1.7
		c-0.7-1.5-0.3-3.3,1.1-4.3c1.8-1.3,3.8-1.5,5.9-1.4C454.6,314.5,453.4,315.9,453.7,316.4z"/>
</g>
</svg>
