<?xml version="1.0" encoding="utf-8"?>
<!-- Generator: Adobe Illustrator 21.1.0, SVG Export Plug-In . SVG Version: 6.00 Build 0)  -->
<svg version="1.1" id="Layer_1" xmlns="http://www.w3.org/2000/svg" xmlns:xlink="http://www.w3.org/1999/xlink" x="0px" y="0px"
	 viewBox="0 0 600 600" style="enable-background:new 0 0 600 600;" xml:space="preserve">
<style type="text/css">
	.st0{fill:#010101;}
	.st1{fill:#F2BE23;}
	.st2{fill:#DA5127;}
	.st3{fill:#AB2424;}
	.st4{fill:#EF9D34;}
	.st5{fill:#E66AA2;}
	.st6{fill:#F2BC87;}
	.st7{fill:#F3C427;}
	.st8{fill:#E78C25;}
	.st9{fill:#AB2323;}
	.st10{fill:#C12A26;}
	.st11{fill:#C14627;}
	.st12{fill:#D03D27;}
	.st13{fill:#D75827;}
	.st14{fill:#E37426;}
</style>
<g>
	<path class="st0" d="M247.1,372.7c7.7-12.7,14.9-24.7,22.1-36.8c0.9-1.4,1.7-2.1,3.5-2c3.1,0.2,6.3,0.2,9.5,0
		c2.4-0.2,2.7,0.8,2.7,2.8c-0.1,13,0,26,0,39c0,0.9,0,1.8,0,3.4c5.1-6.8,9.8-13,14.4-19.2c0.6-0.8,0.4-1.8,0.4-2.7
		c0-6.4,0.1-12.8,0-19.2c0-1.7,0.6-2.8,2-3.6c4.1-2.7,9.7-2.6,13.3,0.2c3.6,2.8,4.8,7.4,3.2,12.3c-1.6,4.8-4.8,8.7-7.8,12.7
		c-8.5,10.9-17,21.8-25.5,32.7c-1,1.3-2.1,1.8-3.7,1.8c-3.7-0.1-7.4-0.2-11.1,0c-2.4,0.1-3.3-0.4-3.3-3.1
		c0.2-10.1,0.1-20.2,0.1-30.3c0-0.9,0-1.8,0-3.5c-0.8,1.3-1.3,2-1.8,2.8c-6.5,10.7-13,21.3-19.4,32c-0.9,1.5-1.8,2.2-3.7,2.1
		c-3.3-0.2-6.7-0.2-10,0c-2.4,0.2-2.8-0.8-2.8-3c0.1-14.2,0-28.4,0.1-42.6c0-2.1-0.5-3-2.7-2.9c-1.6,0.1-3.3-0.4-5-0.5
		c-4.2-0.3-4.5-0.7-3.9-4.8c0.1-0.7,0.2-1.2,1-1.4c8.6-1.6,16.8-5.2,25.7-5c2.2,0,3,0.5,2.9,2.9c-0.1,11.3-0.1,22.6-0.1,34
		C247,371.1,247.1,371.6,247.1,372.7z"/>
	<path class="st0" d="M377.5,377.4c0,2,0,3.5,0,5.1c0,5.9,0,5.9-5.6,8.2c-10.4,4.2-21.1,5.8-32,3c-10.9-2.9-19.1-13-20.4-24.2
		c-2.8-23.5,14.3-38.1,36.9-36.8c5.2,0.3,10.2,1.4,14.6,4.6c3.2,2.2,5.3,5.2,5.8,9.1c0.9,8-5.4,13.3-13.8,11.5
		c-0.4-0.1-0.7-0.2-1.1-0.3c-5.4-1.4-5.6-1.6-5.6-7.2c0-3-0.1-5.9,0.1-8.9c0.1-2.2-0.8-2.2-2.4-1.7c-6,1.8-9.8,5.8-11.6,11.7
		c-1.8,6.3-1.9,12.6-0.2,18.9c3,10.7,11.9,15.5,22.6,12.4C369.2,381.4,373.1,379.3,377.5,377.4z"/>
	<path class="st1" d="M413.6,209.7c8.8,0.5,17.7,0.1,26.5,0.2c1,0,2-0.3,3,0.3c0.4,0.7,0.2,1.4,0.2,2.2c0,12.8,0,25.6,0.1,38.4
		c0,2.3-0.8,3.2-3,3.2c-7.7,0-15.4,0-23.1,0c-1.4,0-2.9,0-2.9-2.1c0-12,0-24,0-36c0,6,0,11.9,0,17.9c-0.1,6.7,0.2,13.3-0.2,20
		c-2-0.5-1.5-2.3-1.5-3.6c-0.1-8.7,0-17.3,0-26c0-3.5,0-7,0-10.5c0-1.2-0.1-2.4,0.5-3.5C413.4,210,413.5,209.8,413.6,209.7z"/>
	<path class="st2" d="M285.2,283.8c0.9-0.6,1.8-0.3,2.7-0.3c17.6,0,35.2-0.1,52.8,0c2.4,0,2.9-0.7,2.9-2.9c-0.1-9,0-18,0-27
		c0.4,0,0.7,0.2,0.8,0.5c0.1,0.3,0.3,0.7,0.3,1c0.3,7.8,0.1,15.6,0.1,23.3c0,3.7,0.2,3.9,4,3.9c10.5,0.1,20.9-0.1,31.4,0.1
		c7.4-0.1,14.7-0.1,22.1,0c2.5-0.1,5-0.1,7.5,0c2.2,0.1,2.9-0.9,2.9-3c0-7,0-14,0-21.1c0-1.5-0.2-3.2,1.4-4.2
		c0.8-0.4,1.6-0.4,2.4-0.4c8.6,0,17.2-0.1,25.9,0c0.4,0,0.7,0.1,1,0.3c0.1,0.1,0.2,0.1,0.2,0.2c0.7,0.7,0.8,1.6,0.8,2.6
		c0,8,0.1,16,0,24c0,1-0.1,2.1-1.1,2.6c-28.7,0-57.4,0.1-86.1,0.1c-4.6,0-9.3,0.1-13.9,0.1c-1,1-2.4,0.9-3.7,0.9
		c-17,0-33.9,0-50.9,0C287.5,284.7,286.2,284.9,285.2,283.8z"/>
	<path class="st3" d="M285.2,283.8c19.4,0,38.8,0,58.2,0c0.1,4.3,0.1,8.7,0.2,13c0.1,2.2-1.4,1.5-2.5,1.5c-16,0-32.1,0-48.1,0
		c-2.2,0-4.5,0-6.7,0c-0.7,0-1.6,0.1-1.5-1C285,292.8,284.4,288.3,285.2,283.8z"/>
	<path class="st4" d="M343.9,253.7c-0.1,0-0.2,0-0.3-0.1c0-14.5-0.1-28.9-0.1-43.4c0-9.1,0.1-18.2,0-27.3c0-2.1,0.5-2.7,2.6-2.7
		c17.8,0.1,35.6,0.1,53.5,0c2.2,0,2.9,0.6,2.8,2.8c-0.2,3,0,5.9,0.1,8.9c0.5,0.5,0.8,1.1,0.8,1.7c0,5.2,0.5,10.3-0.3,15.5
		c-0.2,0.3-0.4,0.6-0.8,0.7c-0.3-0.1-0.6-0.4-0.8-0.7c-0.8-4-0.3-8.1-0.4-12.2c-0.1-4.1-0.1-4.2-4.2-4.2c-16,0-32,0-48.1,0
		c-3.7,0-3.8,0.2-3.9,3.9c0,4.4,0.1,8.7-0.1,13.1c0.1,9.8,0.1,19.6,0,29.4c0.1,3.7,0.1,7.5,0,11.2
		C344.8,251.6,344.9,252.9,343.9,253.7z"/>
	<path class="st5" d="M443.3,283.6c0.6-4.9,0.2-9.7,0.2-14.6c0.1-4.9,0.1-9.8,0.1-14.6c4.3,0,8.5,0,12.8-0.1c1.5,0,2.2,0.3,2.2,2
		c-0.1,8.5-0.1,17.1,0,25.6c0,1.5-0.6,2-2,1.9C452.2,283.7,447.8,283.6,443.3,283.6z"/>
	<path class="st6" d="M402.4,209.8c0-5.9,0-11.8,0-17.8c3,0,6.1,0.1,9.1,0c1.7-0.1,2.2,0.6,2.2,2.3c-0.1,5.1-0.1,10.3-0.1,15.5
		c0,0.1,0,0.3,0,0.4C409.9,210.9,406.1,211.3,402.4,209.8z"/>
	<path class="st7" d="M443.5,254.1c-0.1,0.1-0.2,0.1-0.4,0.1c-8.1-0.5-16.2-0.1-24.3-0.2c-1.5,0-3.1,0.3-4.6-0.3c0-13.5,0-27,0-41
		c0.8,1.3,0.5,2.2,0.5,3c0,11.5,0.1,23,0,34.5c0,2.3,0.6,3,2.9,3c7.4-0.1,14.8-0.1,22.3,0c2.5,0.1,3.3-0.6,3.3-3.2
		c-0.1-13.3,0-26.5,0-39.8c0.1,0.3,0.4,0.6,0.4,0.9C443.5,225.5,443.5,239.8,443.5,254.1z"/>
	<path class="st0" d="M213.4,349.2c-5.2-14.6-18.2-20.1-32.3-13.5c-2.8,1.3-5.5,2.9-8.7,4.7c0-2.4,0-4.3,0-6.2c0-0.8,0-1.5-1.1-1.5
		c-2.1,0.1-4.3-0.4-6.4,0.3c-7,2.1-13.9,4.3-20.9,6.4c-0.6,0.2-1.2,0.1-1.5,1c-1.2,3.2,0.2,5.3,3.7,5.3c1,0,2.1,0.1,3.1,0
		c2.4-0.3,3.2,0.4,3.2,3.1c-0.1,18.9-0.1,37.9-0.1,56.8c0,2.3,0.7,5.1-0.3,6.8c-1.1,1.8-4.2,1.4-6.4,2c-0.1,0-0.2,0.1-0.3,0.1
		c-3.2,0.6-1.6,3.2-1.8,4.9c-0.3,2.1,1.5,1.4,2.5,1.4c10.7,0,21.3,0,32,0c4,0,3.9,0,3.9-4c0-1.5-0.4-2.1-1.9-2.3
		c-2-0.3-3.9-1.1-6-1.3c-1.7-0.2-1.9-1-1.8-2.4c0.1-3.8,0-7.6,0-11.4c0-6,0-5.9,6.1-5.5c9.8,0.6,19.1-1,26.7-7.7
		C214.8,377.8,218.1,362.5,213.4,349.2z M192.1,376.6c-3.5,8.5-11.2,10.3-18.4,9.9c-1.7-0.1-1.3-1.2-1.3-2.1c0-6,0-12.1,0-18.1
		c0-5.7,0.2-11.5-0.1-17.2c-0.1-2.3,0.7-3,2.8-3.2c2.3-0.2,4.6-0.4,6.9,0c5.3,0.9,9,3.9,10.6,9C195.1,362.1,194.9,369.4,192.1,376.6
		z"/>
	<path class="st8" d="M414.2,253.8c8.7,0,17.4,0,26,0.1c1,0,2-0.3,2.9,0.4c-9.7,0.1-19.3,0.1-29,0.2c-3.8,1.3-7.6,0.9-11.4,0.3
		c-0.3-0.2-0.6-0.4-0.7-0.8c-0.5-1.1-0.4-2.4-0.4-3.6c0-12.7,0-25.5,0-38.2c0-0.8-0.1-1.7,0.4-2.4c0.2,0,0.3,0,0.5,0
		c3.7,0.3,7.5-0.3,11.2,0.3c0,13.6,0,27.2,0,40.8C413.6,251.8,413.2,252.9,414.2,253.8z"/>
	<path class="st9" d="M380.2,283.2c-11.4,0-22.7,0-34.1,0.1c-1.8,0-2.1-0.8-2.1-2.3c0.1-8.9,0.1-17.8,0.1-26.6
		c1.1-1,2.4-0.9,3.7-0.9c9.7,0,19.4,0,29.1,0c1.2,0,2.4,0,3.5,0.7c0.9,1.1,0.8,2.4,0.8,3.7c0,7.2,0,14.4,0,21.6
		C381.1,280.8,381.2,282.1,380.2,283.2z"/>
	<path class="st10" d="M380.2,283.2c0-9.6,0-19.2,0-28.8c0.2-0.3,0.5-0.5,0.9-0.6c6.5-0.6,12.9-0.2,19.4-0.2c0.8,0,1.4,0.3,2,0.7
		l0,0c0.9,1,0.9,2.2,0.9,3.4c0,7.4,0,14.7,0,22.1c0,1.2,0.1,2.4-0.9,3.4C395,283.2,387.6,283.2,380.2,283.2z"/>
	<path class="st11" d="M380.7,254.3c-0.2,0-0.4,0-0.6,0c-12.1,0-24.1,0-36.2,0c0-0.2-0.1-0.4-0.1-0.6c0-4.8,0.1-9.6,0.1-14.4
		c1.1-1,2.4-0.9,3.7-0.9c9.6,0,19.2,0,28.9,0c3.9,0,4.5,0.6,4.5,4.6C381,246.8,381.5,250.6,380.7,254.3z"/>
	<path class="st12" d="M402.4,283.2c0-9.6,0-19.2,0.1-28.9c3.9,0,7.8,0.1,11.6,0.1c-0.6,1-0.5,2.1-0.5,3.2c0,7.7-0.1,15.3,0,23
		c0,2-0.5,2.8-2.6,2.7C408.1,283.1,405.3,283.2,402.4,283.2z"/>
	<path class="st13" d="M380.7,254.3c-1.2-3.6-0.4-7.3-0.5-11c-0.2-4.4,0.4-4-4-4c-10.7,0-21.5,0-32.2,0c0-9.8,0-19.7,0.1-29.5
		c1-1,2.4-0.9,3.7-0.9c16.8,0,33.7,0,50.5,0c1.3,0,2.6-0.1,3.7,0.9c0,0,0.1,0,0.1,0c0.6,1.1,0.5,2.3,0.5,3.5c0,13.7,0,27.3,0.1,41
		C395.3,254.3,388,254.3,380.7,254.3z"/>
	<path class="st14" d="M401.9,209.8c-19.3,0-38.6,0-57.8,0c0-5.2,0-10.4-0.1-15.5c0-1.9,0.7-2.3,2.5-2.3c17.7,0,35.4,0.1,53,0
		c2,0,2.5,0.7,2.5,2.6C401.8,199.6,401.9,204.7,401.9,209.8z"/>
</g>
</svg>
