<?xml version="1.0" encoding="utf-8"?>
<!-- Generator: Adobe Illustrator 21.1.0, SVG Export Plug-In . SVG Version: 6.00 Build 0)  -->
<svg version="1.1" id="Layer_1" xmlns="http://www.w3.org/2000/svg" xmlns:xlink="http://www.w3.org/1999/xlink" x="0px" y="0px"
	 viewBox="0 0 600 600" style="enable-background:new 0 0 600 600;" xml:space="preserve">
<style type="text/css">
	.st0{fill:#97A6A7;}
</style>
<g>
	<path class="st0" d="M27.4,473.8c-10.1,0-19.3-1.1-27.4-9.3L10.5,454c5.3,5.3,12.2,6.1,17.2,6.1c5.6,0,11.4-1.9,11.4-6.7
		c0-3.2-1.7-5.4-6.8-5.9l-10.1-1c-11.6-1.1-18.8-6.2-18.8-18c0-13.3,11.7-20.5,24.8-20.5c10,0,18.4,1.7,24.6,7.5l-9.9,10
		c-3.7-3.3-9.4-4.3-14.9-4.3c-6.4,0-9.1,3-9.1,6.2c0,2.4,1,5.1,6.7,5.6l10.1,1c12.7,1.2,19.1,8,19.1,18.9
		C54.7,467,42.6,473.8,27.4,473.8L27.4,473.8z M82.7,473.1c-13.1,0-18.6-9.3-18.6-18.4v-31.9h-6.8v-12.2h6.8v-19h16.1v19h11.4v12.2
		H80.1v30.9c0,3.7,1.7,5.8,5.6,5.8h5.8v13.6H82.7L82.7,473.1z M98.9,473.1h16.1v-64.3H98.9V473.1z M98.6,397.7h16.4v-13.1H98.6
		V397.7z M151.2,473.8c-12.8,0-28.8-6.9-28.8-33c0-26.1,15.9-32.8,28.8-32.8c8.9,0,15.6,2.7,21.2,8.6l-10.9,10.9
		c-3.3-3.6-6.2-5.1-10.4-5.1c-3.8,0-6.8,1.4-9.1,4.2c-2.5,3.1-3.6,7.4-3.6,14.2c0,6.8,1.1,11.2,3.6,14.3c2.3,2.8,5.3,4.2,9.1,4.2
		c4.2,0,7-1.5,10.4-5.1l10.9,10.7C166.8,471,160.1,473.8,151.2,473.8L151.2,473.8z M216.7,473.1l-15.8-26.8l-6.8,7.7v19.1h-16.1
		v-87.9h16.1V435l21.4-26.3h19.4l-23,25.9l24.7,38.4L216.7,473.1L216.7,473.1z M250,445.9c0,8.3,5.1,14.3,14.1,14.3
		c7,0,10.5-2,14.6-6l9.8,9.5c-6.5,6.5-12.8,10.1-24.4,10.1c-15.2,0-29.8-6.9-29.8-33c0-21,11.4-32.8,28-32.8c17.9,0,28,13.1,28,30.7
		v7.2H250L250,445.9z M273,428c-1.7-3.8-5.3-6.7-10.7-6.7c-5.4,0-9,2.8-10.7,6.7c-1,2.3-1.4,4.1-1.5,6.9h24.5
		C274.4,432.1,274,430.3,273,428z M332.9,426.3c-2.5-2.5-4.6-3.8-8.5-3.8c-4.9,0-10.4,3.7-10.4,11.9v38.8h-16.1v-64.3h15.7v6.2
		c3.1-3.7,9.3-6.9,16.2-6.9c6.3,0,10.7,1.6,15.2,6.1L332.9,426.3L332.9,426.3z"/>
	<path class="st0" d="M417.1,408c-8,0-13.8,2.5-19.3,8.2c-4.1-5.6-9.9-8.2-17-8.2c-5.9,0-11.9,2.3-16.1,6.7v-5.9h-15.7v64.3h16.1
		v-38.9c0-8.8,5.7-11.7,10.7-11.7c5.1,0,10.6,3,10.6,11.7v38.9h16.1v-39.3c0-8.4,5.8-11.4,10.7-11.4c5.1,0,10.6,3,10.6,11.7v38.9
		H440v-41.1c0-7-1.9-13.1-7-18.3C429.3,410.1,423.5,408,417.1,408L417.1,408z M486.9,447.6c0,8.8-5.7,11.7-10.7,11.7
		c-5.1,0-10.6-3-10.6-11.7v-38.9h-16.1v41.1c0,7,1.4,13.1,6.5,18.3c3.6,3.6,8.8,5.7,15.2,5.7c5.9,0,11.9-2.2,16.1-6.7v5.9h15.7
		v-64.3h-16.1V447.6L486.9,447.6z M529.2,453.7v-68.5h-16.1v69.5c0,9.1,5.6,18.4,18.8,18.4h9.1v-13.6h-6.2
		C530.8,459.5,529.2,457.5,529.2,453.7z M600,438.7c0-17.7-10.1-30.7-28-30.7c-16.7,0-28,11.9-28,32.8c0,26.1,14.6,33,29.8,33
		c11.6,0,17.9-3.6,24.4-10.1l-9.8-9.5c-4.1,4.1-7.5,6-14.6,6c-9,0-14.1-6-14.1-14.3H600L600,438.7L600,438.7z M559.7,434.9
		c0.1-2.8,0.5-4.6,1.5-6.9c1.7-3.8,5.3-6.7,10.7-6.7c5.4,0,9,2.8,10.7,6.7c1,2.3,1.4,4.1,1.5,6.9L559.7,434.9L559.7,434.9z"/>
	<path class="st0" d="M329.8,366.3c-2.3,1.1-5.4,0.8-8.5,0.9c-2.8,0.1-6.6,0.1-8.2-1.3c-0.9-0.8-1.1-2.4-1.2-3.4
		c-0.1-1.2,0.2-2.6,0.5-3.9c0.3-1.5,0.6-3.5,0-4.3c-0.7-1-3.1-0.6-4.4-1.3c-1.4-0.8-1.8-2.6-2.2-4.7c-0.1-0.7-0.5-1.2-0.6-1.8
		c-0.4-3.2,0.7-7.4,1.4-10.7c0.8-3.4,1.8-6.7,2.3-9.8c0.9-4.8,1.2-10.2,0.8-15.2c-0.2-2.6-0.5-4.6-0.1-6.8c0.4-2,1.2-3.7,1.6-5.7
		c0.1-0.6,0-1.4,0.1-2.1c0.1-0.6,0.4-1.1,0.5-1.6c0.1-1.4-0.4-3-0.5-4.7c-0.3-4.5,0.1-10.9,0.4-14.8c0.1-1.3,0.7-2.9-0.2-3.5
		c-4.7-0.1-9,0.8-13.4,1.4c-11.8,1.5-26.6,1.7-38-0.6c-1.1-0.2-2.2-0.2-3.2-0.5c-8.1-1.9-15.5-5.3-21.2-9.8
		c-0.9-0.7-1.9-1.5-2.9-2.2c-1-0.8-2-1.8-2.9-2.2c-4.6-2.1-10.7,0.3-12.5,3.3c-0.7,1.2-1.3,2.7-2,4.1c-0.7,1.3-1.3,2.8-1.9,4.1
		c-3,6.9-6.4,13.5-9.5,20.5c-1.8,4-3.7,8.5-5,13c-2.8,9.6-0.2,22.4,2,31.4c0.2,0.8,0.6,1.6,0.9,2.6c0.7,2.2,2.2,5.1,3.9,6.6
		c0.9,0.8,2.4,1.2,3.4,2.1c1.3,1.1,2.2,3.2,3.2,5c0.4,0.8,1,1.6,1.5,2.6c1.2,2,1.6,3.8-0.7,5c-1.7,0.9-4.3,1.1-6.7,1.3
		c-1.1,0.3-0.7,1.7-1.4,2.5c-0.4,0.4-2,1.1-2.8,1.3c-3.1,0.9-8.5,0.8-10.9,0c-1.2-0.4-2.6-1.4-2.9-2.3c-0.6-1.9,0.9-4.3-0.5-5.9
		c-0.6-0.7-1.9-0.5-3-1c-1.6-0.7-3.2-2.3-4-4.2c-1.9-4.7-0.7-12.1-0.9-17.9c-0.1-1.7-0.3-3.5-0.4-5.4c-0.1-3.4-0.9-6.8-1.3-10.2
		c-0.2-1.7-0.7-3.1-1.1-4.6c-0.5-2.4-0.9-5-1.6-7.5c-0.8-2.7-0.8-5.3,0.1-7.6c0.3-0.6,0.9-1.2,1.3-2.1c0.5-1.3,0.7-2.9,0.7-4.1
		c-0.4-0.7-2-0.1-2.5-0.8c-1-7.4-2.1-14.9-2.7-22.6c-0.2-2.6-0.2-5.3-0.5-8c-0.5-5.3-0.1-10.7-0.6-15.8c-0.2-2.5-0.9-4.8-1.2-7.3
		c-0.9-6.8-2.8-15.5-1.4-22.6c0.9-4.6,2.5-8.2,5.2-11.6c1.8-2.4,3.8-4.6,6-6.7c2.2-2.1,4.5-4,6.9-5.7c1.6-1.1,3.3-2.5,5-3.3
		c3.9-1.8,9-3.4,14.4-3.6c5.4-0.2,11.5-0.3,16.9,0.7c5.1,0.9,10.2,1.8,15.2,2.8c4.9,1,9.7,2.3,14.4,3.5c0.6,0.2,1.1,0.5,1.8,0.7
		c1.5,0.4,3.2,0.5,4.8,0.9c4.3,1.2,10.1,1.8,15.3,1.8c5.8,0,10.9-0.2,15.7-1.3c0.7-0.2,1.2-0.5,2-0.8c0.8-0.3,1.7-0.2,2.3-0.5
		c0.5-0.2,1-0.7,1.5-0.9c2.6-1.2,5.1-2.7,7.5-4.3c1.9-1.4,3.5-2.5,6.1-3.5c1.1-0.4,2.3-1.1,3.4-1.4c2.4-0.8,5.1-1.5,6.9-2.7
		c2.9-1.9,5.1-4.6,7.5-6.7c2.5-2.2,5.1-4.4,7.7-6.4c5.4-4.3,10.8-8.2,15.9-12.3c2.7-2.1,5.5-4.1,8.4-5.7c5.9-3.4,11.9-7.3,20.4-8
		c3.3-0.2,6.8-0.3,10.2,0.1c0.9,0.1,2.2,0.6,3,0.5c0.9-0.2,1.6-1.6,2.2-2.7c1.3-2.2,2.2-3.7,3.3-6.4c0.7-1.7,0.4-3.3,2.1-3.3
		c1.7,0.1,1.4,4.5,1.5,6.2c0.1,2-0.2,4.8,0.1,6.2c0.2,1,1.6,2.4,2.9,2.5c0.9,0,1.6-0.8,2.5-1.3c0.9-0.5,1.8-0.8,2.3-1.3
		c1.4-1,3.1-2.8,4.4-4.2c1.2-1.2,3-4,4.9-3.7c3.3,0.4,0,5.3-0.7,6.9c-1.7,3.8-3.4,6.7-5.4,10.3c-0.8,1.5-2.7,3.5-2.7,5
		c0,1.1,0.9,1.8,1.4,2.9c0.2,0.5,0.4,1.1,0.6,1.6c1.1,2.7,2,6.4,2.9,9.5c0.8,2.6,1.4,5.4,2.3,8c0.9,2.5,2.3,4.9,3.3,7.4
		c0.3,0.7,0.3,1.4,0.6,2.1c2.1,5.5,4.2,11.7,6.8,17c1.1,2.1,2.5,4.8,2.5,8c0,3.5-1.8,5.1-3.4,7.7c-0.8,1.4-2,3.4-3.3,3.9
		c-0.9,0.3-2,0-2.9,0.1c-1.3,0.2-2.2,1-3.4,1.2c-3.2,0.4-6-2.1-6.9-4.5c-0.3-0.8-0.2-1.9-0.3-2.8c-0.8-3.8-2.6-5.6-5.3-8.1
		c-1.7-1.6-3-2.7-5.2-3.9c-3-1.6-6.3-2.5-9.5-4.2c-1.2-0.6-2.6-1.2-3.6-1.1c-1.7,0.3-3.4,3.1-4.7,4.8c-8.3,10.9-15.6,22.1-23.7,32.8
		c-5.3,7.1-11.1,14.3-15.3,22.4c-1.1,2-1.7,4.4-2.6,6.8c-0.8,2.3-1.2,4.9-2.1,7.4c-3.1,8.9-4.1,19.7-6.9,29.1
		c-0.3,1-0.4,2.1-0.7,3.2c-1.3,4.7-2.6,10.2-4.1,15.2c-1.1,3.8-1.5,8.8-1.6,13.8c-0.2,4.6-0.4,11.2,1.3,14.2
		c0.9,1.6,4.1,2.1,5.3,3.8c0.8,1.1,1.4,3.3,2.2,4.8c0.6,1,2.2,3.2,2.1,4.8c-0.1,1.2-1.1,2-2,2.5c-1,0.5-2.4,0.2-3.4,0.7
		C330.4,364.3,330.9,365.6,329.8,366.3"/>
</g>
</svg>
