<?xml version="1.0" encoding="utf-8"?>
<!-- Generator: Adobe Illustrator 21.1.0, SVG Export Plug-In . SVG Version: 6.00 Build 0)  -->
<svg version="1.1" id="Layer_1" xmlns="http://www.w3.org/2000/svg" xmlns:xlink="http://www.w3.org/1999/xlink" x="0px" y="0px"
	 viewBox="0 0 600 600" style="enable-background:new 0 0 600 600;" xml:space="preserve">
<style type="text/css">
	.st0{fill:#F47A21;}
	.st1{fill:#FFFFFF;}
	.st2{fill:#FFFCF9;}
	.st3{fill:#FFFAF6;}
	.st4{fill:#FFFBF8;}
	.st5{fill:#FFFDFB;}
	.st6{fill:#FFFBF7;}
	.st7{fill:#FFFCFA;}
	.st8{fill:#FFF6EE;}
	.st9{fill:#FFF7F0;}
	.st10{fill:#FFEBD9;}
	.st11{fill:#F57E24;}
	.st12{fill:#F58227;}
</style>
<g>
	<path class="st0" d="M592.4,466.8c-192.9,0-385.8,0-578.7,0.1c-3.8,0-4.9-0.5-4.9-4.7c0.2-108.8,0.1-217.7,0.1-326.5
		c1.9-1,4-0.5,6-0.5c190.4,0,380.8,0,571.2,0c7.6,0,6.8-0.8,6.8,6.8c0,106.3,0,212.6,0,318.9C592.9,462.8,593.4,464.8,592.4,466.8z"
		/>
	<path class="st1" d="M592.4,466.8c0-108.3,0-216.7,0.1-325c0-5.1-1.3-6.3-6.3-6.3c-192.4,0.1-384.8,0.1-577.3,0.1
		c0.4-2.4,2.3-1,3.3-1c18.1-0.1,36.3-0.1,54.4-0.1c174,0,348,0,522,0c2.9,0,5-0.7,5,4.1c-0.2,108.1-0.2,216.2-0.3,324.3
		C593.3,464,595.1,466.2,592.4,466.8z"/>
	<path class="st1" d="M438.9,275.5c16.9,0,33.3,0,49.8,0c7.9,0,7.9,0,5.8,7.9c-1,3.6-2.4,7-2.9,10.6c-0.6,4.8-3.1,5.7-7.5,5.6
		c-15.5-0.3-31.1,0-46.6-0.2c-3.8-0.1-5.6,0.9-6.4,4.8c-1.1,5.4-2.8,10.7-4.3,16.2c1.8,1.1,3.7,0.6,5.4,0.6
		c18.1,0,36.3,0.1,54.4-0.1c3.8,0,4.7,0.8,3.5,4.5c-1.9,6-3.4,12-4.9,18.1c-0.6,2.4-1.5,3.7-4.4,3.7c-29.4-0.1-58.9-0.1-88.3,0
		c-2.9,0-3.9-0.7-3-3.9c10.1-37.2,20.1-74.4,30-111.6c0.7-2.6,2-3.5,4.6-3.5c29.2,0.1,58.5,0.1,87.7,0c3.1,0,4.4,0.5,3.3,4.1
		c-1.9,5.8-3.5,11.7-4.8,17.6c-0.8,3.5-2.2,4.7-5.9,4.7c-17.8-0.2-35.5,0.2-53.3-0.3c-5.4-0.1-7.5,1.7-8.4,6.6
		C441.7,265.8,440.2,270.3,438.9,275.5z"/>
	<path class="st1" d="M336.5,255.6c-10.9,0-21.2-0.2-31.6,0.1c-3.8,0.1-4.3-1.1-3.3-4.4c1.9-6.2,3.6-12.4,5-18.7
		c0.7-3,1.9-4.2,5.2-4.2c31.7,0.1,63.3,0.1,95,0c3.7,0,5,0.6,3.6,4.7c-2.1,6.1-3.4,12.4-4.9,18.7c-0.7,3.1-2.2,4-5.4,3.9
		c-9.1-0.2-18.2,0.2-27.2-0.2c-4-0.2-5.3,1.4-6.3,4.9c-7,26.9-14.4,53.8-21.3,80.8c-1.2,4.8-3.2,6.6-8.2,6.3
		c-6.8-0.5-13.7-0.3-20.5-0.1c-4,0.1-4.5-0.9-3.4-4.7c7.8-28.3,15.3-56.6,22.9-84.9C336.4,257.2,336.4,256.7,336.5,255.6z"/>
	<path class="st1" d="M198.5,227.7c19.2,0,38.5,0,57.7,0c10.9,0,18.3,7,18.3,17.2c-0.1,9.9-7.8,17.3-18.4,17.3
		c-38.5,0-76.9,0-115.4,0c-10.7,0-18.3-7.4-18.3-17.4c0-10.2,7.4-17,18.4-17C160,227.7,179.3,227.7,198.5,227.7z"/>
	<path class="st1" d="M140.6,305c-19.2,0-38.5,0.1-57.7,0c-8.7-0.1-15.2-4.8-17.2-12.1c-2.2-7.8,0.7-15.6,7.4-19.8
		c3.2-2,6.8-2.8,10.5-2.8c38.3,0,76.6-0.1,114.9,0c9.2,0,16.3,5.5,18.1,13.4c1.8,7.7-1.7,15.6-8.6,19.4c-3.4,1.8-7,2.1-10.7,2.1
		C178.3,305,159.4,305,140.6,305z"/>
	<path class="st1" d="M175.3,348.4c-18.9,0-37.7,0.1-56.6,0c-10.7-0.1-17.7-5.7-18.9-14.8c-1.5-10.6,5.8-19.8,16.5-19.9
		c39.4-0.2,78.8-0.2,118.2,0c9.4,0,16.6,7.4,16.9,16.4c0.3,9.8-5.8,17.6-15.6,17.9c-20.1,0.5-40.3,0.1-60.5,0.1
		C175.3,348.2,175.3,348.3,175.3,348.4z"/>
	<path class="st2" d="M303.8,372.3c5.2,0.2,8.5,3.7,8.3,8.9c-0.3,5.8-5,10.1-10.9,10c-5.3-0.1-8.8-3.6-8.7-8.6
		C292.7,376.7,297.8,372.1,303.8,372.3z"/>
	<path class="st3" d="M471.2,383.1c5.2-3.1,3.7-12.2,12.9-10.2c-4.5,7.1-8.7,14-12.9,20.7c-0.9,1.5-2.5,2.1-4.1,2.7
		c-2.1,0.7-4.8,0.5-5.4-1.2c-0.5-1.6,1.1-3.6,3.7-3.6c2.6,0,2.1-1.8,1.9-3.6c-0.6-4-1-8-1.5-12.1c-0.2-1.7-0.3-3.4,2.3-3.3
		c2,0,3.2,0.7,3.2,2.8C471.2,377.6,471.2,380,471.2,383.1z"/>
	<path class="st4" d="M322.8,372.9c2.4,0.6,7.2-2.9,9.2,2.1c1.9,4.9-1.2,9.7-2.2,14.4c-0.5,2.1-2.7,1.8-4.2,1.4
		c-1.8-0.5-1-2.1-0.8-3.3c0.5-2.1,1.3-4.2,1.8-6.3c0.3-1.4,0.7-3-1.1-3.8c-1.9-0.8-3.4,0.3-4,1.9c-1,2.5-1.8,5.2-2.4,7.9
		c-0.6,2.8-1.8,4.6-4.8,3.6c-2.8-0.9-0.7-3.2-0.5-4.6c0.6-3.4,2.1-6.7,2.7-10.1C317,372.8,318.7,371.9,322.8,372.9z"/>
	<path class="st5" d="M364.6,391.2c-4.6,0.3-7.7-1.4-8.7-5.6c-1.1-5,0.7-9.2,5.1-11.9c3.6-2.1,7.4-2.4,10.8,0.5
		c2.4,2,2.4,4.9,1.7,7.7c-0.8,2.9-3.4,1.2-5.2,1.7c-2.3,0.7-6.7-1.4-6.6,1.2c0.1,3.3,3.8,1.9,6.3,1.1c1.2-0.4,1.9,0.9,2.4,1.9
		c0.8,1.4-0.4,1.9-1.4,2.4C367.6,391,366,391.4,364.6,391.2z"/>
	<path class="st6" d="M353.4,379.3c-0.7,2.7-1.6,6.3-2.5,9.8c-0.6,2.1-2.4,2.2-4,1.8c-2.4-0.5-1.2-2.4-1-3.6
		c0.4-2.2,1.2-4.3,1.8-6.4c0.5-1.6,0.3-3.1-1.4-3.6c-1.5-0.5-3,0.3-3.6,1.8c-1,2.4-1.7,4.8-2.4,7.3c-0.6,2.6-1,5.5-4.7,4.5
		c-3.9-1.1-0.2-3.5-0.6-5.4c-0.2-1.1,0.6-2.5,0.9-3.7c2.3-8.8,2.3-8.8,11.3-9.5C351.5,372,353.6,373.9,353.4,379.3z"/>
	<path class="st3" d="M427,382.6c5-2.7,3.8-11.8,12.7-9.7c-3.8,5.9-7.4,11.4-11,17c-1,1.5-2.5,1.3-4,1.3c-2.2-0.1-2-1.9-2.2-3.2
		c-0.6-4-1-8.1-1.3-12.1c-0.2-1.6-0.4-3.3,2.2-3.4c2.5-0.1,3.2,1,3.2,3.3C426.7,377.9,426.9,380.1,427,382.6z"/>
	<path class="st3" d="M455.1,391.2c-3.8,0.2-5.6-1.6-4.8-5.4c0.6-3.4,1.9-6.5,1-10.4c-0.7-3,3.4-4.9,5.1-7.3
		c0.4-0.6,4.4-1.5,3.6,2.4c-0.2,0.7-0.1,1.2,0.6,1.9c3.3,2.9,3.2,3.1-1,5c-3,1.4-4,7.4-1.3,8.7c1.7,0.8,1.1,1.5,0.9,2.5
		C458.6,390.7,458,391.1,455.1,391.2z"/>
	<path class="st4" d="M282.6,391.2c-4.2,0-7.1-1.8-8.1-6c-1.2-4.9,1.2-9.7,5.8-11.9c3.8-1.8,7.5-1.7,10.8,1c1,0.8,1.5,1.8,0.3,2.7
		c-1.2,0.9-2,2.2-4.2,1c-3.9-2.1-7.4,0-7.5,4.3c-0.1,2.9,1.2,4.9,4.3,4.1c2.3-0.6,4.8-1.7,5.1,1.5c0.3,2.6-2.7,2.8-4.8,3.3
		C283.8,391.3,283.2,391.2,282.6,391.2z"/>
	<path class="st6" d="M400.6,391.2c-3.8,0.2-5.5-1.7-4.9-5.4c0.5-3.4,2.1-6.5,1-10.4c-0.8-2.7,3.7-4.4,4.4-7.4
		c1.6,0.5,5.4-1.9,4.2,2.4c-0.9,3.4,4.9,0.7,3.2,4.8c-1.2,3-5.1,0.9-5.2,3.8c-0.1,2.5-5.2,6.1,1.3,7.6c0.2,0,0.1,2.1-0.2,3.1
		C403.8,391.2,402.1,391.2,400.6,391.2z"/>
	<path class="st7" d="M387.4,372.3c0.7,0.1,1.9-0.1,2.9,0.4c1.7,0.8,4.5,1.6,3.6,3.9c-0.8,2.1-2.9,2.9-5.3,0.9
		c-2-1.6-3.9-0.5-5.2,1.3c-1.3,1.7-2.6,3.7-1.1,6c1.3,2.1,3.1,2.5,5.2,1.2c1.7-1,2.8-0.3,3.6,1.2c1.2,2.4-1.1,2.9-2.4,3.4
		c-3.4,1.2-6.9,1.2-9.8-1.5c-3.1-2.9-3.1-6.7-1.6-10.2C378.8,374.7,382.2,372.2,387.4,372.3z"/>
	<path class="st8" d="M417.8,374.1c-1.5,5.3-2.9,10.2-4.2,15.1c-0.7,2.7-2.9,1.9-4.5,1.6c-2.1-0.4-0.7-2-0.5-3.1
		c1.2-4.4,2.5-8.8,3.5-13.2c0.5-2.3,2.1-2.1,3.8-2.1C417.4,372.4,417.9,373.2,417.8,374.1z"/>
	<path class="st9" d="M441,391c-2.4,0.2-2.8-0.8-2.2-3c1.3-4.4,2.5-8.8,3.5-13.3c0.6-2.5,2.3-2.6,4.2-2.3c2.3,0.4,1.3,2.2,1,3.5
		c-1,4.1-2.1,8.2-3.3,12.2C443.8,389.9,443.2,391.5,441,391z"/>
	<path class="st10" d="M446.8,371.2c-1.9-0.1-3.6,0.2-3.2-1.9c0.4-2,1-4,3.8-3.6c1.2,0.2,2.9-0.1,2.5,1.9
		C449.6,369.6,449,371.7,446.8,371.2z"/>
	<path class="st10" d="M416.4,371.1c-1.7,0-3.3,0.1-2.9-2.2c0.3-2,1.2-3.5,3.6-3.2c1.1,0.2,3.1-0.5,2.7,1.6
		C419.4,369.1,419.3,371.6,416.4,371.1z"/>
	<path class="st11" d="M301.9,386.8c-2.6-0.6-4.2-2-3.9-4.3c0.3-2.9,1.8-5.4,5-5.6c2.5-0.1,4,1.7,3.8,4.3
		C306.5,384.4,304.3,385.9,301.9,386.8z"/>
	<path class="st12" d="M361.3,380.4c2.1-3.5,3.9-4.5,6.6-3.3c0.5,0.2,1.1,1.5,0.9,1.7C367,381.3,364.5,379.6,361.3,380.4z"/>
</g>
</svg>
