<svg id="Layer_1" data-name="Layer 1" xmlns="http://www.w3.org/2000/svg" viewBox="0 0 223.13 30.4"><defs><style>.cls-1{fill:#1e4f82;}</style></defs><title>Event Shirts</title><path class="cls-1" d="M218.91,18.86a4.14,4.14,0,0,1-1.2,1.95A5.31,5.31,0,0,1,214.84,22a10.22,10.22,0,0,1-5.56-.83c-.26-.11-.4-.23-.38-.55,0-.56,0-1.13,0-1.7,0-.12,0-.24,0-.44l.39.25a7.61,7.61,0,0,0,5,1.45,5.38,5.38,0,0,0,1.52-.38,1.48,1.48,0,0,0,.9-1.49,1.34,1.34,0,0,0-1-1.39c-.89-.25-1.8-.44-2.69-.67a17.2,17.2,0,0,1-2-.62,3.36,3.36,0,0,1-1.06-5.42,5,5,0,0,1,3-1.45,9.86,9.86,0,0,1,5.2.72.47.47,0,0,1,.35.53c0,.65,0,1.31,0,2l-.32-.17a7.18,7.18,0,0,0-4.59-1.29,5.09,5.09,0,0,0-1.6.48,1.5,1.5,0,0,0,.08,2.6,14.14,14.14,0,0,0,2,.62c.64.16,1.3.24,1.95.41a3.56,3.56,0,0,1,2.9,2.62Z"/><path class="cls-1" d="M64.53,9h-5.3V9.5q0,6.09,0,12.17c0,.35-.1.44-.45.44-1.57,0-3.15,0-4.73,0-.36,0-.47-.09-.47-.46q0-6.09,0-12.17c0-.5,0-.5-.52-.5H49.52c-.31,0-.41-.07-.41-.4,0-1.06,0-2.12,0-3.18V5L49,5a3.5,3.5,0,0,0-.24.3C47,7.8,45.22,10.36,43.42,12.91a.53.53,0,0,0,0,.72q2.82,4,5.62,8l.26.4-.41,0H43.78a.63.63,0,0,1-.59-.31Q41.81,19.87,40.42,18l-.27-.36c-.11.13-.19.22-.26.32L37.13,21.8a.63.63,0,0,1-.59.31H31.18a2,2,0,0,1,.17-.28c1.89-2.65,3.78-5.31,5.68-8a.55.55,0,0,0,0-.76c-1.89-2.64-3.76-5.29-5.64-7.94l-.23-.35.31,0h5.31a.59.59,0,0,1,.55.3c.89,1.28,1.79,2.54,2.69,3.81l.26.34.29-.37,2.66-3.78a.6.6,0,0,1,.55-.3H61.3a.64.64,0,0,1,.47.22c.89,1.24,1.76,2.49,2.64,3.75Z"/><path class="cls-1" d="M19.87,9h-.42c-1.53,0-3.06,0-4.59,0-.35,0-.44.1-.44.44,0,4.06,0,8.11,0,12.17,0,.52,0,.52-.54.52-1.53,0-3.05,0-4.58,0-.37,0-.47-.1-.47-.47q0-6,0-12.09c0-.57,0-.57-.58-.57H4.67c-.26,0-.35-.06-.35-.34,0-1.17,0-2.35,0-3.52,0-.28.1-.34.35-.34,4,0,7.94,0,11.9,0A.61.61,0,0,1,17,5c.83,1.16,1.64,2.34,2.46,3.5l.36.48c0-.24,0-.37,0-.5,0-1.14,0-2.27,0-3.41,0-.24.07-.33.32-.33H30.76l.25,0c0,.12,0,.23,0,.34,0,1.15,0,2.3,0,3.45,0,.29-.08.39-.38.38H25.88c-.29,0-.4.08-.39.38a13.36,13.36,0,0,1,0,1.55c0,.36.09.49.46.48,1.55,0,3.09,0,4.63,0,.36,0,.47.1.46.47,0,1.1,0,2.2,0,3.29,0,.33-.1.41-.41.41H25.85c-.5,0-.5,0-.5.5s0,1,0,1.48.1.46.45.46c1.57,0,3.13,0,4.7,0,.54,0,.54,0,.54.56,0,1.08,0,2.15,0,3.22,0,.28-.06.38-.36.38H20.22c-.33,0-.36-.15-.36-.41q0-6.1,0-12.21Z"/><path class="cls-1" d="M105.39,13.34c0,.17,0,.33,0,.5v7.77c0,.49,0,.49-.5.49-1.39,0-2.78,0-4.17,0-.29,0-.39-.08-.39-.39q0-8.26,0-16.55c0-.3.08-.4.38-.39,1.37,0,2.73,0,4.09,0a.78.78,0,0,1,.74.38q2.35,3.39,4.73,6.77a.87.87,0,0,0,.34.31c0-.14,0-.28,0-.41,0-2.2,0-4.4,0-6.6,0-.37.11-.46.47-.45,1.55,0,3.11,0,4.66,0,.33,0,.45.06.45.43q0,8.22,0,16.44c0,.34-.07.47-.43.46-1.24,0-2.48,0-3.71,0a.6.6,0,0,1-.56-.29q-2.84-4-5.69-8.09l-.3-.41Z"/><path class="cls-1" d="M89.6,22.73a9.18,9.18,0,1,1,9.18-9.15A9.09,9.09,0,0,1,89.6,22.73Zm0-13.37a4.21,4.21,0,1,0,4.21,4.21A4.2,4.2,0,0,0,89.61,9.36Z"/><path class="cls-1" d="M76.72,14.33l5.43,7.74-.38,0c-1.67,0-3.34,0-5,0a.61.61,0,0,1-.47-.21Q73.58,18,70.89,14.16A.91.91,0,0,1,70.8,14c.31,0,.59-.05.87-.11a2.54,2.54,0,0,0,1.94-3,2.18,2.18,0,0,0-2-1.66c-.44,0-.88,0-1.32,0-.21,0-.29.09-.28.29s0,.26,0,.38V21.58c0,.52,0,.52-.51.52-1.48,0-3,0-4.44,0-.3,0-.41-.07-.41-.4q0-8.28,0-16.56c0-.27.07-.37.36-.37,2.78,0,5.56,0,8.34,0a5.44,5.44,0,0,1,5.2,3.28,4.93,4.93,0,0,1-1.22,5.68Z"/><path class="cls-1" d="M189.87,21.79H187.7V9h2.16v1.32c.37-.25.68-.48,1-.69a5.33,5.33,0,0,1,2.95-1,3.78,3.78,0,0,1,3.72,2c.44-.31.87-.64,1.31-.94a5.88,5.88,0,0,1,4.19-1,3.53,3.53,0,0,1,3.05,2.92,9.42,9.42,0,0,1,.21,1.83c0,2.62,0,5.23,0,7.85v.47h-2.19c0-.13,0-.28,0-.42,0-2.38,0-4.75,0-7.13a10.59,10.59,0,0,0-.12-1.69c-.23-1.33-.94-1.72-2.15-1.79a5.13,5.13,0,0,0-2.77.85,1.69,1.69,0,0,0-1,1.77c.09,2.68,0,5.36,0,8,0,.13,0,.25,0,.39h-2.18v-.45c0-2.48,0-4.95,0-7.43a9.33,9.33,0,0,0-.13-1.39c-.24-1.47-1.11-1.7-2.14-1.77a4.58,4.58,0,0,0-2.7.83c-1,.62-1,.61-1,1.78v8.43Z"/><path class="cls-1" d="M125.3,17.8a3.76,3.76,0,0,1,.41.24,9.86,9.86,0,0,0,6.9,2,4,4,0,0,0,2.91-1.3,2.32,2.32,0,0,0-.85-3.67,17.92,17.92,0,0,0-2.8-.7,12.53,12.53,0,0,1-4.45-1.28,3.84,3.84,0,0,1-2-3.33,4.65,4.65,0,0,1,3.49-4.86,10.3,10.3,0,0,1,4.13-.41,16.47,16.47,0,0,1,4.35,1,.48.48,0,0,1,.38.55c0,.76,0,1.53,0,2.38a2.45,2.45,0,0,1-.4-.2,9,9,0,0,0-4.23-1.66,6.69,6.69,0,0,0-3.6.31,4.72,4.72,0,0,0-.87.51,2.32,2.32,0,0,0,.58,4c.93.28,1.89.48,2.84.67a22.47,22.47,0,0,1,3.72.92c3.17,1.24,3.17,4.81,1.68,6.76A6,6,0,0,1,133.56,22a14.1,14.1,0,0,1-7.92-1.05.47.47,0,0,1-.35-.52C125.31,19.56,125.3,18.74,125.3,17.8Z"/><path class="cls-1" d="M185.09,15.67h-9.37a4,4,0,0,0,2.71,4.25,6.64,6.64,0,0,0,4.83-.48c.46-.21.87-.5,1.31-.75a1.59,1.59,0,0,1,.22-.08c0,.79,0,1.54,0,2.29,0,.08-.12.18-.21.21a11.26,11.26,0,0,1-4.64,1,7.89,7.89,0,0,1-3.25-.71,5.36,5.36,0,0,1-2.93-3.48,8.43,8.43,0,0,1,.14-5.3A5.61,5.61,0,0,1,179,8.69a6.7,6.7,0,0,1,2.71.28,4.48,4.48,0,0,1,3.12,3.66A26.93,26.93,0,0,1,185.09,15.67Zm-2.21-1.73c0-1.87-.9-3.34-3-3.44a3.83,3.83,0,0,0-3.2,1.1,3.57,3.57,0,0,0-1,2.34Z"/><path class="cls-1" d="M139.52,9c.76,0,1.47,0,2.17,0,.11,0,.27.16.32.28q1.35,3.21,2.67,6.44c.36.86.72,1.73,1.1,2.66.62-1.46,1.21-2.87,1.8-4.27.67-1.61,1.35-3.22,2-4.84A.39.39,0,0,1,150,9c.64,0,1.28,0,2,0l-.22.56q-3.53,8.27-7,16.53a.57.57,0,0,1-.64.42c-.6,0-1.21,0-1.88,0l.16-.41c.67-1.52,1.34-3,2-4.54a.94.94,0,0,0,0-.82Q142,15.07,139.66,9.38C139.61,9.28,139.58,9.17,139.52,9Z"/><path class="cls-1" d="M153.26,18.49l.56.37a7.7,7.7,0,0,0,4.88,1.36,4.79,4.79,0,0,0,1.28-.31,1.47,1.47,0,0,0,1-1.58,1.32,1.32,0,0,0-1.09-1.43c-.85-.26-1.73-.4-2.59-.63a13.45,13.45,0,0,1-2.18-.68,3.36,3.36,0,0,1-1-5.25,5,5,0,0,1,3.11-1.55,10,10,0,0,1,5.06.67.58.58,0,0,1,.46.68c0,.51,0,1,0,1.52,0,.12,0,.24,0,.37-.54-.28-1-.57-1.54-.81a6.57,6.57,0,0,0-3.41-.61,4.16,4.16,0,0,0-1.19.3,1.46,1.46,0,0,0-1,1.47,1.45,1.45,0,0,0,1.09,1.47c.82.25,1.67.43,2.52.61a6.51,6.51,0,0,1,3.08,1.21,3,3,0,0,1,1,2.08,3.93,3.93,0,0,1-3.34,4.13,9.82,9.82,0,0,1-6.46-.76.33.33,0,0,1-.2-.23C153.26,20.13,153.26,19.36,153.26,18.49Z"/><path class="cls-1" d="M168,9h4.39v1.87H168c0,.15,0,.26,0,.37,0,2.2,0,4.4,0,6.59a4,4,0,0,0,.3,1.31,1.51,1.51,0,0,0,1.39.93,5.19,5.19,0,0,0,2.34-.3l.35-.09c0,.64,0,1.24,0,1.85a.24.24,0,0,1-.14.18,7.52,7.52,0,0,1-4.23.05,3.14,3.14,0,0,1-2.13-2.86c-.1-1-.08-2.07-.09-3.1,0-1.58,0-3.16,0-4.73a1.62,1.62,0,0,0,0-.18h-1.39V9h1.4V5.39H168Z"/></svg>