<?xml version="1.0" encoding="utf-8"?>
<!-- Generator: Adobe Illustrator 23.0.2, SVG Export Plug-In . SVG Version: 6.00 Build 0)  -->
<svg version="1.1" id="Layer_1" xmlns="http://www.w3.org/2000/svg" xmlns:xlink="http://www.w3.org/1999/xlink" x="0px" y="0px"
	 viewBox="0 0 500 100" style="enable-background:new 0 0 500 100;" xml:space="preserve">
<style type="text/css">
	.st0{fill:#1E4F82;}
</style>
<title>Event Shirts</title>
<path class="st0" d="M493.4,58.4c-0.5,1.7-1.4,3.3-2.8,4.5c-1.9,1.5-4.2,2.5-6.6,2.7c-4.4,0.6-8.8-0.1-12.8-1.9
	c-0.6-0.3-0.9-0.5-0.9-1.3c0-1.3,0-2.6,0-3.9c0-0.3,0-0.6,0-1l0.9,0.6c3.3,2.4,7.4,3.6,11.5,3.3c1.2-0.1,2.4-0.4,3.5-0.9
	c1.4-0.6,2.2-2,2.1-3.4c0.1-1.5-0.9-2.8-2.3-3.2c-2-0.6-4.1-1-6.2-1.5c-1.6-0.4-3.1-0.9-4.6-1.4c-3.9-1.7-5.7-6.3-4-10.2
	c0.4-0.8,0.9-1.6,1.5-2.3c1.9-1.9,4.3-3,6.9-3.3c4.1-0.5,8.2,0,12,1.7c0.5,0.1,0.9,0.7,0.8,1.2c0,1.5,0,3,0,4.6l-0.7-0.4
	c-3.1-2.2-6.8-3.2-10.6-3c-1.3,0.2-2.5,0.5-3.7,1.1c-1.6,1-2.1,3.1-1.1,4.7c0.3,0.5,0.8,0.9,1.3,1.2c1.5,0.6,3,1.1,4.6,1.4
	c1.5,0.4,3,0.6,4.5,0.9c3.2,0.5,5.8,2.9,6.7,6L493.4,58.4z"/>
<path class="st0" d="M138.4,35.8h-12.2v1.1c0,9.3,0,18.7,0,28c0,0.8-0.2,1-1,1c-3.6,0-7.2,0-10.9,0c-0.8,0-1.1-0.2-1.1-1.1
	c0-9.3,0-18.7,0-28c0-1.1,0-1.1-1.2-1.1h-8.1c-0.7,0-0.9-0.2-0.9-0.9c0-2.4,0-4.9,0-7.3v-0.9h-0.3c-0.2,0.2-0.4,0.4-0.6,0.7
	c-4,5.7-8.1,11.6-12.3,17.5c-0.4,0.5-0.4,1.2,0,1.7c4.3,6.1,8.6,12.3,12.9,18.4l0.6,0.9h-0.9H90.7c-0.6,0-1.1-0.2-1.4-0.7
	c-2.1-2.8-4.2-5.7-6.4-8.6l-0.6-0.8c-0.3,0.3-0.4,0.5-0.6,0.7l-6.3,8.8c-0.3,0.5-0.8,0.8-1.4,0.7H61.8c0.1-0.2,0.2-0.4,0.4-0.6
	c4.3-6.1,8.7-12.2,13.1-18.4c0.5-0.5,0.5-1.3,0-1.7c-4.3-6.1-8.6-12.2-13-18.3l-0.5-0.8h0.7h12.2c0.5,0,1,0.2,1.3,0.7
	c2,2.9,4.1,5.8,6.2,8.8l0.6,0.8l0.7-0.9l6.1-8.7c0.3-0.4,0.7-0.7,1.3-0.7H131c0.4,0,0.8,0.2,1.1,0.5c2,2.9,4,5.7,6.1,8.6L138.4,35.8
	z"/>
<path class="st0" d="M35.8,35.8h-1c-3.5,0-7,0-10.6,0c-0.8,0-1,0.2-1,1c0,9.3,0,18.6,0,28c0,1.2,0,1.2-1.2,1.2c-3.5,0-7,0-10.5,0
	c-0.9,0-1.1-0.2-1.1-1.1c0-9.2,0-18.5,0-27.8c0-1.3,0-1.3-1.3-1.3H0.8C0.2,35.8,0,35.6,0,35c0-2.7,0-5.4,0-8.1
	c0-0.6,0.2-0.8,0.8-0.8c9.2,0,18.3,0,27.4,0c0.4,0,0.7,0.2,1,0.5c1.9,2.7,3.8,5.4,5.7,8l0.8,1.1c0-0.6,0-0.9,0-1.1
	c0-2.6,0-5.2,0-7.8c0-0.6,0.2-0.8,0.7-0.8h24.4h0.6c0,0.3,0,0.5,0,0.8c0,2.6,0,5.3,0,7.9c0,0.7-0.2,0.9-0.9,0.9H49.6
	c-0.7,0-0.9,0.2-0.9,0.9c0.1,1.2,0.1,2.4,0,3.6c0,0.8,0.2,1.1,1.1,1.1c3.6,0,7.1,0,10.6,0c0.8,0,1.1,0.2,1.1,1.1c0,2.5,0,5.1,0,7.6
	c0,0.8-0.2,0.9-0.9,0.9h-11c-1.1,0-1.1,0-1.1,1.1c0,1.1,0,2.3,0,3.4c0,1.1,0.2,1.1,1,1.1c3.6,0,7.2,0,10.8,0c1.2,0,1.2,0,1.2,1.3
	c0,2.5,0,4.9,0,7.4c0,0.6-0.1,0.9-0.8,0.9h-24c-0.8,0-0.8-0.3-0.8-0.9c0-9.4,0-18.7,0-28.1L35.8,35.8z"/>
<path class="st0" d="M232.4,45.8c0,0.4,0,0.8,0,1.1v17.9c0,1.1,0,1.1-1.1,1.1c-3.2,0-6.4,0-9.6,0c-0.7,0-0.9-0.2-0.9-0.9
	c0-12.7,0-25.3,0-38.1c0-0.7,0.2-0.9,0.9-0.9c3.1,0,6.3,0,9.4,0c0.7-0.1,1.3,0.3,1.7,0.9c3.6,5.2,7.2,10.4,10.9,15.6
	c0.2,0.3,0.5,0.5,0.8,0.7c0-0.3,0-0.6,0-0.9c0-5.1,0-10.1,0-15.2c0-0.9,0.3-1.1,1.1-1c3.6,0,7.2,0,10.7,0c0.8,0,1,0.1,1,1
	c0,12.6,0,25.2,0,37.8c0,0.8-0.2,1.1-1,1.1c-2.9,0-5.7,0-8.5,0c-0.5,0-1-0.2-1.3-0.7c-4.4-6.1-8.7-12.3-13.1-18.6l-0.7-0.9
	L232.4,45.8z"/>
<path class="st0" d="M196.1,67.3c-11.7,0-21.1-9.5-21.1-21.1s9.4-21.1,21.1-21.1c11.7,0,21.1,9.5,21.1,21.1c0,0,0,0,0,0.1
	c0.1,11.5-9.2,21-20.8,21C196.3,67.3,196.2,67.3,196.1,67.3z M196.1,36.6c-5.3,0-9.7,4.3-9.7,9.7s4.3,9.7,9.7,9.7s9.7-4.3,9.7-9.7
	l0,0C205.8,40.9,201.5,36.6,196.1,36.6C196.1,36.6,196.1,36.6,196.1,36.6L196.1,36.6z"/>
<path class="st0" d="M166.5,48l12.5,17.8h-0.9c-3.8,0-7.7,0-11.5,0c-0.4,0-0.8-0.2-1.1-0.5c-4.2-5.9-8.3-11.8-12.4-17.7
	c-0.1-0.1-0.2-0.2-0.2-0.4c0.7,0,1.4-0.1,2-0.3c3.1-0.7,5.1-3.8,4.5-6.9c-0.5-2.1-2.4-3.7-4.6-3.8c-1,0-2,0-3,0
	c-0.5,0-0.7,0.2-0.6,0.7s0,0.6,0,0.9v26.9c0,1.2,0,1.2-1.2,1.2c-3.4,0-6.9,0-10.2,0c-0.7,0-0.9-0.2-0.9-0.9c0-12.7,0-25.4,0-38.1
	c0-0.6,0.2-0.9,0.8-0.9c6.4,0,12.8,0,19.2,0c5.2-0.2,9.9,2.8,12,7.5c2,4.5,0.9,9.8-2.8,13.1L166.5,48z"/>
<path class="st0" d="M426.6,65.2h-5V35.8h5v3c0.9-0.6,1.6-1.1,2.3-1.6c2-1.4,4.3-2.2,6.8-2.3c3.5-0.4,6.9,1.5,8.6,4.6
	c1-0.7,2-1.5,3-2.2c2.8-2,6.2-2.8,9.6-2.3c3.6,0.4,6.4,3.2,7,6.7c0.3,1.4,0.5,2.8,0.5,4.2c0,6,0,12,0,18v1.1h-5c0-0.3,0-0.6,0-1
	c0-5.5,0-10.9,0-16.4c0-1.3-0.1-2.6-0.3-3.9c-0.5-3.1-2.2-4-4.9-4.1c-2.3,0-4.5,0.7-6.4,2c-1.6,0.7-2.5,2.4-2.3,4.1
	c0.2,6.2,0,12.3,0,18.4c0,0.3,0,0.6,0,0.9h-5v-1c0-5.7,0-11.4,0-17.1c0-1.1-0.1-2.1-0.3-3.2c-0.6-3.4-2.6-3.9-4.9-4.1
	c-2.2,0-4.4,0.6-6.2,1.9c-2.3,1.4-2.3,1.4-2.3,4.1v19.4L426.6,65.2z"/>
<path class="st0" d="M278.2,56c0.3,0.2,0.6,0.3,0.9,0.6c4.5,3.5,10.2,5.1,15.9,4.6c2.5,0,5-1.1,6.7-3c1.9-2.2,1.7-5.6-0.5-7.5
	c-0.4-0.4-0.9-0.7-1.5-0.9c-2.1-0.7-4.3-1.2-6.4-1.6c-3.6-0.3-7-1.3-10.2-2.9c-2.8-1.5-4.6-4.5-4.6-7.7c-0.4-5.2,3-9.9,8-11.2
	c3.1-1,6.3-1.3,9.5-0.9c3.4,0.3,6.8,1.1,10,2.3c0.6,0.1,1,0.7,0.9,1.3c0,1.7,0,3.5,0,5.5c-0.3-0.1-0.6-0.3-0.9-0.5
	c-2.9-2.1-6.2-3.4-9.7-3.8c-2.8-0.5-5.6-0.3-8.3,0.7c-0.7,0.3-1.4,0.7-2,1.2c-2.3,1.8-2.8,5.1-1,7.5c0.6,0.8,1.4,1.4,2.3,1.7
	c2.1,0.6,4.3,1.1,6.5,1.5c2.9,0.5,5.8,1.2,8.6,2.1c7.3,2.9,7.3,11.1,3.9,15.5c-2.2,2.9-5.5,4.7-9,5.2c-6.2,1-12.5,0.1-18.2-2.4
	c-0.5-0.1-0.9-0.7-0.8-1.2C278.2,60.1,278.2,58.2,278.2,56z"/>
<path class="st0" d="M415.6,51.1h-21.5c-0.5,4.3,2.1,8.4,6.2,9.8c3.7,1,7.7,0.7,11.1-1.1c1.1-0.5,2-1.1,3-1.7
	c0.2-0.1,0.3-0.1,0.5-0.2c0,1.8,0,3.5,0,5.3c0,0.2-0.3,0.4-0.5,0.5c-3.4,1.5-7,2.3-10.7,2.3c-2.6,0-5.1-0.6-7.5-1.6
	c-3.3-1.5-5.8-4.5-6.7-8c-1.2-4-1.1-8.3,0.3-12.2c1.6-5.2,6.3-8.8,11.7-9c2.1-0.2,4.2,0,6.2,0.6c3.8,1.2,6.6,4.5,7.2,8.4
	C415.4,46.4,415.6,48.8,415.6,51.1z M410.6,47.1c0-4.3-2.1-7.7-6.9-7.9c-2.7-0.3-5.4,0.6-7.4,2.5c-1.4,1.5-2.2,3.4-2.3,5.4H410.6z"
	/>
<path class="st0" d="M310.9,35.8c1.7,0,3.4,0,5,0c0.3,0,0.6,0.4,0.7,0.6c2.1,4.9,4.1,9.9,6.1,14.8c0.8,2,1.7,4,2.5,6.1
	c1.4-3.4,2.8-6.6,4.1-9.8c1.5-3.7,3.1-7.4,4.6-11.1c0.1-0.4,0.5-0.7,1-0.6c1.5,0,2.9,0,4.6,0l-0.5,1.3c-5.4,12.7-10.8,25.3-16.1,38
	c-0.2,0.7-0.8,1.1-1.5,1c-1.4,0-2.8,0-4.3,0l0.4-0.9c1.5-3.5,3.1-6.9,4.6-10.4c0.3-0.6,0.3-1.3,0-1.9c-3.7-8.7-7.4-17.4-10.9-26.1
	C311.1,36.4,311,36.2,310.9,35.8z"/>
<path class="st0" d="M342.4,57.6l1.3,0.9c3.3,2.3,7.2,3.4,11.2,3.1c1-0.1,2-0.3,2.9-0.7c1.5-0.5,2.5-2,2.3-3.6
	c0.2-1.6-0.9-3-2.5-3.3c-2-0.6-4-0.9-6-1.4c-1.7-0.4-3.4-0.9-5-1.6c-3.8-1.9-5.4-6.5-3.5-10.4c0.3-0.6,0.7-1.2,1.2-1.7
	c1.9-2,4.4-3.3,7.2-3.6c3.9-0.5,8,0,11.6,1.5c0.7,0.1,1.2,0.8,1.1,1.6c0,0,0,0,0,0c0,1.2,0,2.3,0,3.5c0,0.3,0,0.6,0,0.9
	c-1.2-0.6-2.3-1.3-3.5-1.9c-2.4-1.2-5.1-1.6-7.8-1.4c-0.9,0.1-1.9,0.3-2.7,0.7c-1.4,0.5-2.4,1.9-2.3,3.4c-0.1,1.6,1,3,2.5,3.4
	c1.9,0.6,3.8,1,5.8,1.4c2.6,0.3,5,1.3,7.1,2.8c1.4,1.2,2.2,2.9,2.3,4.8c0.3,4.7-3,8.8-7.7,9.5c-5,1.1-10.2,0.5-14.9-1.7
	c-0.2-0.1-0.4-0.3-0.5-0.5C342.4,61.4,342.4,59.6,342.4,57.6z"/>
<path class="st0" d="M376.3,35.8h10.1v4.3h-10.1c0,0.3,0,0.6,0,0.9c0,5.1,0,10.1,0,15.2c0.1,1,0.3,2.1,0.7,3
	c0.5,1.3,1.8,2.1,3.2,2.1c1.8,0.2,3.7,0,5.4-0.7l0.8-0.2c0,1.5,0,2.9,0,4.3c0,0.2-0.2,0.3-0.3,0.4c-3.2,1-6.5,1-9.7,0.1
	c-2.8-1-4.8-3.6-4.9-6.6c-0.2-2.3-0.2-4.8-0.2-7.1c0-3.6,0-7.3,0-10.9c0-0.1,0-0.3,0-0.4h-3.2v-4.3h3.2v-8.3h5.1V35.8z"/>
</svg>
