<?xml version="1.0" encoding="utf-8"?>
<!-- Generator: Adobe Illustrator 21.1.0, SVG Export Plug-In . SVG Version: 6.00 Build 0)  -->
<svg version="1.1" id="Layer_1" xmlns="http://www.w3.org/2000/svg" xmlns:xlink="http://www.w3.org/1999/xlink" x="0px" y="0px"
	 viewBox="0 0 600 600" style="enable-background:new 0 0 600 600;" xml:space="preserve">
<path d="M68.8,262.1c5.1,0,10,0,15.1,0c-1.9,12.2-3.9,24.4-5.8,36.7c5,0,9.9,0,14.9,0c-0.4,2.6-0.7,5.1-1.2,7.5
	c-0.7,3.9-1.2,8-2.4,11.8C85,332.8,74.9,341.4,60,344.6c-9.1,1.9-18.2,1.9-27.2-0.6c-6-1.7-11.2-4.8-14.7-10.1
	c-2.5-3.7-3.6-7.9-3.9-12.3c-0.4-5.3,0.5-10.4,1.3-15.6c1.1-6.6,2.1-13.3,3.1-19.9c1-6.2,2-12.3,2.9-18.5c0.3-1.8,0.6-3.7,0.9-5.5
	c10,0,20,0,30,0c-0.2,1.5-0.4,3-0.7,4.4c-1.1,7.1-2.2,14.2-3.3,21.3c-1,6.5-2.1,13.1-3.1,19.6c-0.3,2.3-0.6,4.6-0.7,6.9
	c0,3.3,1.7,5.3,5,5.6c1.6,0.2,3.3,0.1,4.9-0.2c2.8-0.6,4.7-2.4,5.5-5.1c0.8-2.7,1.4-5.5,1.8-8.3c1.1-6.5,2.1-13.1,3.1-19.6
	c1-6.2,1.9-12.4,2.9-18.6C68.1,266.1,68.4,264.1,68.8,262.1z"/>
<path d="M289,286.5c-1.5,9.1-2.9,18.2-4.3,27.3c-1.4,9.1-2.8,18.1-4.3,27.2c-0.1,0.7-0.2,1.3-0.3,2c-0.3,1.6-0.3,1.6-1.8,1.6
	c-8.2,0-16.5,0-24.7,0c-0.4,0-0.8,0-1.4,0c0.7-2.6,1.3-5.1,2-7.5c-0.1-0.1-0.2-0.1-0.2-0.2c-0.4,0.3-0.7,0.5-1.1,0.8
	c-3,2.7-6.2,5.3-10.1,6.7c-6.9,2.5-13.6,2.4-19.7-2.1c-4.3-3.1-6.6-7.5-7.8-12.5c-2.2-8.9-0.8-17.4,3.1-25.5
	c3.1-6.4,7.4-11.9,13.6-15.5c6.1-3.6,12.6-4.6,19.4-2.6c3.7,1,6.5,3.3,8.6,6.5c0.2,0.3,0.5,0.5,0.8,0.8c0.1-0.1,0.3-0.1,0.4-0.2
	c0-2.2,0-4.4,0-6.7C270.5,286.5,279.7,286.5,289,286.5z M242.5,317c0.1,0.9,0.2,1.7,0.4,2.5c1,3.5,4,4.6,7.5,3.9
	c3.7-0.7,5.6-3.3,6.7-6.6c0.6-1.7,0.8-3.4,0.3-5.2c-1-3.6-4.9-5.4-8.8-4C245.1,309,242.6,312.8,242.5,317z"/>
<path d="M475.4,325.4c-1,2.4-2.2,4.4-3.8,6.4c-5,6.2-11.6,10-19.2,12.2c-9.7,2.8-19.4,2.8-28.9-0.9c-5.6-2.2-10.1-5.8-12.7-11.3
	c-1.8-3.8-2.4-7.8-2.1-11.9c0.5-7.1,2.7-13.6,7-19.3c6-8,14-12.7,23.8-14.6c7.6-1.5,15.1-1,22.3,1.8c8.7,3.4,14.3,9.6,16.2,19
	c0.7,3.7,0.4,10.8-0.6,13.6c-0.4,0-0.8,0-1.2,0c-12.8,0-25.5,0-38.3,0c-1.5,0-1.5,0-1.6,1.5c-0.1,1.3-0.2,2.6,0,3.9
	c0.4,4.4,4.3,5.2,7.3,4.2c2-0.6,3.3-2,4.2-3.9c0.1-0.3,0.6-0.6,0.9-0.6c8.7,0,17.4,0,26.1,0C474.9,325.3,475.1,325.4,475.4,325.4z
	 M438.5,308.2c4.2,0,8.3,0,12.4,0c0.6,0,0.7-0.2,0.8-0.7c0.2-4.1-2.7-7.5-7.2-6.7C440.9,301.5,438.4,305.3,438.5,308.2z"/>
<path d="M583.3,290c-3.2,5.4-6.3,10.7-9.4,16.1c-0.3-0.2-0.6-0.4-0.8-0.6c-3.3-2.4-6.8-4-10.9-4.2c-1.1,0-2.3,0.2-3.4,0.6
	c-1.1,0.4-1.8,1.5-1.7,2.6c0.1,1.1,0.8,1.8,1.9,2.1c1.9,0.4,3.8,0.8,5.7,1.2c3,0.6,6,1.3,8.7,2.8c4.7,2.6,6.5,6.7,6.1,11.9
	c-1,10.7-7.5,17-17,20.6c-8.5,3.3-17.1,3.4-25.9,1.3c-4.8-1.1-9.3-2.8-13.8-4.8c-0.2-0.1-0.4-0.2-0.7-0.4c3.4-5.9,6.7-11.7,10-17.4
	c2.4,1.4,4.7,2.9,7.2,4.1c2.6,1.4,5.5,2.3,8.5,2.1c1.2-0.1,2.3-0.5,3.2-1.3c1.8-1.8,1.2-4.2-1.2-4.8c-1.6-0.4-3.4-0.4-5-0.9
	c-2.5-0.7-5-1.3-7.2-2.4c-4.7-2.3-6.9-6.4-6.4-11.7c0.8-8.6,5.6-14.4,13.1-18.1c4.8-2.4,10-3.6,15.4-3.8c7.4-0.3,14.7,0.6,21.5,3.6
	C581.7,289.1,582.5,289.6,583.3,290z"/>
<path d="M531,290c-3.1,5.4-6.2,10.7-9.4,16.1c-0.3-0.2-0.5-0.3-0.8-0.5c-3.3-2.4-6.9-4.1-11-4.2c-1.2,0-2.4,0.3-3.6,0.7
	c-1.1,0.4-1.5,1.4-1.5,2.5c0,1.1,0.7,1.8,1.7,2.1c1.9,0.5,3.8,0.8,5.7,1.2c2.9,0.6,5.8,1.3,8.4,2.6c4.7,2.5,6.7,6.3,6.4,11.5
	c-0.6,10-6.2,16.5-15,20.5c-6.5,3-13.4,3.9-20.6,3.3c-7.5-0.6-14.5-3-21.4-6.1c-0.1-0.1-0.2-0.1-0.4-0.3c3.3-5.8,6.7-11.6,10-17.3
	c2.6,1.5,5.1,3,7.6,4.3c2.5,1.3,5.1,2.2,8,1.9c1-0.1,2.1-0.5,3-1c1.2-0.7,1.6-1.9,1.3-3.2c-0.2-1.2-1.2-1.7-2.3-2
	c-2-0.4-3.9-0.6-5.9-1c-3.2-0.7-6.2-1.7-8.8-3.8c-3.1-2.5-4.2-5.9-3.9-9.8c0.7-9.1,5.9-15,13.8-18.8c4.6-2.2,9.5-3.3,14.5-3.5
	c7.3-0.3,14.4,0.6,21.2,3.4c0.5,0.2,1,0.5,1.5,0.7C530.2,289.5,530.5,289.7,531,290z"/>
<path d="M169.3,286.7c-1.2,7.5-2.4,14.8-3.6,22.2c-3.1-0.2-6.1-0.4-9.3-0.5c-1.9,12-3.8,23.9-5.7,36c-9.5,0-18.9,0-28.5,0
	c1.9-12,3.8-23.9,5.7-36c-2.4,0.2-4.6,0.3-7,0.5c0.3-1.6,0.5-3.1,0.7-4.7c0.9-5.5,1.8-11.1,2.7-16.6c0.1-0.7,0.3-0.9,1.1-0.9
	c1.9,0.2,3.8,0.2,5.9,0.4c0.4-2.3,0.9-4.5,1-6.8c0.1-1.8,0.9-2.7,2.7-3.2c8.8-2.9,17.6-6,26.4-9c0.4-0.1,0.8-0.3,1.4-0.5
	c-1,6.6-2,13-3,19.5C163,287,166.1,286.9,169.3,286.7z"/>
<path d="M364.6,286.4c9.4,0,18.8,0,28.3,0c-0.6,2.6-1.2,5.1-1.8,7.6c0.1,0.1,0.2,0.1,0.3,0.2c0.3-0.2,0.5-0.4,0.7-0.6
	c2.1-2.5,4.4-4.6,7.3-6.2c3.4-1.8,7.2-2.2,11-2.4c0.8,0,1.5,0,2.5,0c-1.5,9.6-3,19.1-4.5,28.7c-0.8-0.5-1.6-1-2.3-1.4
	c-4.8-3.2-12.2-1.7-15.5,2.3c-1.9,2.3-2.9,4.9-3.3,7.8c-1.2,7.3-2.3,14.6-3.5,22c-9.4,0-18.8,0-28.3,0
	C358.5,325.1,361.6,305.8,364.6,286.4z"/>
<path d="M218.8,285c-1.5,9.6-3,19.1-4.5,28.7c-0.4-0.3-0.8-0.4-1.2-0.7c-4.4-3.1-9-3.2-13.7-0.8c-3.6,1.9-5.3,5.2-6,9
	c-0.8,4.1-1.4,8.3-2,12.4c-0.5,3.4-1.1,6.9-1.6,10.3c0,0.2-0.5,0.6-0.8,0.6c-1.4,0.1-2.9,0-4.3,0c-7.3,0-14.7,0-22,0
	c-0.4,0-0.8,0-1.2,0c3.1-19.4,6.1-38.7,9.2-58.1c9.4,0,18.8,0,28.3,0c-0.6,2.6-1.2,5.1-1.8,7.6c0.1,0.1,0.2,0.1,0.3,0.2
	c0.4-0.4,0.8-0.8,1.2-1.2c2.1-2.4,4.4-4.5,7.2-5.9c3.3-1.7,6.9-2,10.6-2.2C217.1,285,217.9,285,218.8,285z"/>
<path d="M98.7,262.1c9.1,0,18.2,0,27.4,0c-4,27.5-8.1,54.9-12.1,82.4c-9.4,0-18.7,0-28.3,0c8.1-19.9,16.2-39.8,24.4-59.8
	c-5,0-9.9,0-14.9,0C96.4,277,97.5,269.5,98.7,262.1z"/>
<path d="M362.4,283c-0.6-6.9-3.7-12.3-9.6-16.1c-5.2-3.3-11-4.7-17.1-4.8c-13.3-0.2-26.5-0.1-39.8-0.1c-0.2,0-0.3,0-0.6,0
	c-4.3,27.4-8.7,54.9-13,82.4c0.5,0,0.9,0,1.3,0c7.8,0,15.6,0,23.4,0c1.2,0,2.3,0,3.5,0c0.5,0,0.8-0.1,0.9-0.7
	c0.8-5.1,1.6-10.2,2.4-15.3c0.5-2.9,0.9-5.8,1.4-8.8c3.7,0,7.3,0.1,10.9,0c3.4-0.1,6.9,0,10.3-0.5c8.4-1.2,15.2-5.3,20.1-12.3
	C361.4,299.6,363.2,291.6,362.4,283z M333.5,291.5c-0.8,4.1-3.2,6.4-7.7,7c-2.4,0.3-4.8,0.3-7.3,0.4c0.8-4.9,1.5-9.6,2.3-14.4
	c3.1,0,6.3-0.3,9.3,0.7C332.9,286.2,334.2,288.5,333.5,291.5z"/>
</svg>
