<?xml version="1.0" encoding="UTF-8" standalone="no"?>
<!-- Generator: Adobe Illustrator 21.1.0, SVG Export Plug-In . SVG Version: 6.00 Build 0)  -->

<svg
   xmlns:dc="http://purl.org/dc/elements/1.1/"
   xmlns:cc="http://creativecommons.org/ns#"
   xmlns:rdf="http://www.w3.org/1999/02/22-rdf-syntax-ns#"
   xmlns:svg="http://www.w3.org/2000/svg"
   xmlns="http://www.w3.org/2000/svg"
   xmlns:sodipodi="http://sodipodi.sourceforge.net/DTD/sodipodi-0.dtd"
   xmlns:inkscape="http://www.inkscape.org/namespaces/inkscape"
   version="1.1"
   id="Layer_1"
   x="0px"
   y="0px"
   viewBox="0 0 500 500"
   style="enable-background:new 0 0 500 500;"
   xml:space="preserve"
   sodipodi:docname="Vanguard-day.svg"
   inkscape:version="0.92.3 (2405546, 2018-03-11)"><metadata
   id="metadata25"><rdf:RDF><cc:Work
       rdf:about=""><dc:format>image/svg+xml</dc:format><dc:type
         rdf:resource="http://purl.org/dc/dcmitype/StillImage" /><dc:title></dc:title></cc:Work></rdf:RDF></metadata><defs
   id="defs23" /><sodipodi:namedview
   pagecolor="#003366"
   bordercolor="#666666"
   borderopacity="1"
   objecttolerance="10"
   gridtolerance="10"
   guidetolerance="10"
   inkscape:pageopacity="0"
   inkscape:pageshadow="2"
   inkscape:window-width="2736"
   inkscape:window-height="1719"
   id="namedview21"
   showgrid="false"
   inkscape:zoom="1.3350176"
   inkscape:cx="180.53802"
   inkscape:cy="233.59388"
   inkscape:window-x="-13"
   inkscape:window-y="-13"
   inkscape:window-maximized="1"
   inkscape:current-layer="Layer_1" />
<style
   type="text/css"
   id="style2">
	.st0{fill:#A20C37;}
</style>
<g
   id="g18"
   style="fill:#ffffff">
	<path
   class="st0"
   d="M209.7,294.2c-4.7,3.5-4.5,8.2,0.2,10.8c5.4,3,11,2.7,16.3-0.2c2.9-1.6,3.6-4.4,3.3-7.5   c-0.3-3.2-2.2-5.4-5.2-6.4c-4.6-1.6-9.3-1.2-14.1-1.3c-5.8-0.1-9.3-2.6-11-8.1c-1.4-4.3-0.6-5.9,3.8-7.1c0.9-0.3,1.9-0.5,2.9-0.8   c-0.5-1.4-2-1.5-2.9-2.1c-10.2-6.3-13.1-17.3-6.6-26.1c3.6-4.9,8.8-7,14.6-8.1c2.7-0.5,5.6-0.7,8.3-0.7c16.5-0.1,32.9,0,49.4-0.1   c2.8,0,3.3,0.8,3.3,3.4c-0.2,10-0.1,20,0,30c0,4.2,1.6,6.8,4.6,7.7c4.5,1.3,8.5-1.6,8.9-6.7c0.3-4.8,0.2-9.7,0.3-14.5   c0-3.7,0-7.3,0-11c0-3.1-0.7-6-3.9-7.8c7.2-0.3,14.4-0.6,21.5-0.9c2.3-0.1,1.6,1.6,1.6,2.7c0,13.4,0,26.9,0,40.3   c0,1.4,0.1,2.8,0.3,4.2c0.3,2.3,1.3,4.2,3.6,5.6c-7.2,0-14.5,0-21.7,0c-1.4,0-1.5-0.7-1.6-1.8c0-1.1,0.4-2.3-0.5-3.6   c-4.8,3.9-10.1,6-16.3,5.4c-9.8-0.9-16-7.2-16.2-17.1c-0.1-7.7-0.2-15.5,0-23.2c0.1-2.7-0.8-3.2-3.2-3.1c-3.4,0.2-6.8,0-10.2,0   c-0.4,1.2,0.6,1.7,1,2.3c5.2,7.8,3.2,17.1-4.8,22.1c-5.8,3.5-12.3,4.8-19,5.8c-0.5,0.1-1.1,0.1-1.6,0.2c-1.1,0.2-2.2,0.7-2.2,2   c0,1.2,1,1.9,2.1,2.2c1.1,0.2,2.3,0.3,3.5,0.3c5.5,0.2,11-0.4,16.4,0.7c10.9,2.1,16.7,10.7,14.1,20.6c-1.3,4.9-4.7,8.1-9.1,10.3   c-4.1,2.1-8.5,3.2-13,3.6c-8.5,0.7-17,1.1-25.2-1.7c-2.8-0.9-5.4-2.2-7.7-3.9c-5.9-4.4-5.2-12.2,1.5-15.4   C199.7,293.1,204.5,293.1,209.7,294.2z M224.3,256.4c0-2.3,0-4.5-1.2-6.4c-1.1-2-2.8-3.1-5.2-3.2c-2.4-0.1-4.2,1-5.2,3   c-1.8,3.8-2.2,7.8-0.4,11.8c1.1,2.5,3.3,4,6.1,3.8c2.8-0.2,4.4-1.9,5.2-4.5C224.2,259.4,224.2,257.8,224.3,256.4z"
   id="path4"
   style="fill:#ffffff" />
	<path
   class="st0"
   d="M158.2,289.6c-13.8,0-26.6,0.2-39.4-0.1c-9.9-0.2-15.6-6.3-15.8-16.2c0-0.5,0-1.1,0-1.6c0-5.6,0-5.6-5.3-3.8   c-4.6,1.6-6.6,4.2-6.1,7.9c0.5,3.6,3.7,5.9,8.4,5.9c0.9,0,1.9,0,3.2,0c-1.2,2.5-2.2,4.7-3.3,6.9c-0.4,0.8-1,1-1.9,1   c-5.7,0-11.4,0.3-16.9-1.7c-8-2.9-12.1-9.4-10.1-16.6c1.4-5.4,5.4-8.4,10.4-10.2c4.4-1.6,8.9-2.3,13.4-3.3c1.6-0.3,3.1-0.9,4.5-1.6   c1.6-0.8,2.8-2,2.7-4.1c-0.1-2-1.4-3.1-3-3.8c-3.5-1.6-7.1-1.1-10.8-0.4c-3.1,0.6-6.1,1.8-9.6,3.1c1.3-4.1,2.5-7.8,3.6-11.4   c0.3-0.9,0.9-1.4,1.8-1.6c9-1.9,17.8-2.4,26.7,0.9c6.9,2.6,10.2,7.7,10.7,14.7c0.4,6.1,0.4,12.3,0.5,18.4c0.2,7,3.5,10,10.3,9.7   c1.5-0.1,2-0.4,2-2c-0.1-11.5,0-23-0.1-34.5c0-3.1-0.8-6-4.1-7.6c7.2-0.3,14.4-0.6,21.5-1c1.2-0.1,1.8,0.3,1.8,1.6   c0,1.2-0.3,2.4,0.4,3.8c3.5-2.6,7.2-4.6,11.5-5.3c11.2-1.8,20.5,5.8,20.6,17.1c0.1,8.9,0.1,17.9,0,26.8c0,3.6,0.6,6.8,5.1,8.9   c-8.1,0-15.2-0.1-22.2,0c-2.2,0-1.7-1.5-1.7-2.6c0-10.4,0-20.9-0.1-31.3c-0.1-5.5-3.5-8.2-8.4-6.8c-3,0.9-4.9,2.9-5.1,6   c-0.6,9.6-0.5,19.1-0.1,28.7C153.8,286.1,155.2,287.9,158.2,289.6z"
   id="path6"
   style="fill:#ffffff" />
	<path
   class="st0"
   d="M370.9,237.7c7.1-0.3,14.2-0.6,21.2-1c1.5-0.1,1.9,0.5,1.8,1.8c-0.1,1.3,0,2.6,0,3.9c1.2,0.1,1.3-1,1.8-1.6   c1.7-1.9,3.7-3.3,6.1-4c5.8-1.7,7.4-0.6,7.4,5.3c0,0.3,0,0.6,0,1c-0.1,2,0.6,4.5-0.4,6c-0.9,1.4-3.6,0.2-5.4,0.4   c-5.8,0.5-9.4,4-9.5,9.8c-0.1,7.4-0.1,14.8,0,22.3c0.1,3.1,0.6,6.2,3.9,8.1c-2.2,0-4.4,0-6.6,0c-10.2,0-20.4,0-30.6,0   c-11.4-0.1-17.2-5.9-17.2-17.3c0-6.3,0-6.3-5.8-4.2c-4.1,1.5-6.2,4.2-5.7,7.5c0.5,3.6,3.6,6,8,6.1c1.1,0,2.3,0,3.8,0   c-1.2,2.4-2.3,4.5-3.2,6.6c-0.4,0.9-1,1.3-2,1.3c-5.7,0-11.4,0.3-16.9-1.7c-8.9-3.2-12.9-11.2-9.4-18.7c1.9-4.2,5.4-6.6,9.6-8.1   c4.4-1.6,8.9-2.3,13.4-3.3c1.6-0.3,3.1-0.9,4.5-1.6c1.6-0.8,2.7-2.1,2.6-4.1c-0.1-2-1.4-3.1-3-3.8c-4.1-1.8-8.2-1.1-12.3,0   c-2.5,0.6-4.9,1.6-8,2.6c1.3-4.2,2.6-8,3.8-11.8c0.3-0.9,1.1-1,1.8-1.1c8-1.7,16-2.3,23.9,0.1c9,2.7,13.1,8,13.5,17.7   c0.2,5.4,0.1,10.8,0.2,16.1c0.1,7,3.5,10.1,10.5,9.8c1.5-0.1,2.1-0.4,2.1-2c-0.1-11.6,0-23.2-0.1-34.8   C374.7,242.1,374,239.4,370.9,237.7z"
   id="path8"
   style="fill:#ffffff" />
	<path
   class="st0"
   d="M446.2,239.7c0-6.4,0.1-12.8,0-19.2c-0.1-2.5-1.3-4.5-3.8-5.8c2.9-0.2,5.8-0.4,8.7-0.5c3.8-0.2,7.5,0,11.3-0.4   c2.8-0.3,3.6,0.3,3.6,3.3c-0.1,20.3-0.1,40.7-0.1,61c0,1.6,0,3.2,0.2,4.8c0.2,2.8,1,5.3,3.9,6.7c-7.4,0-14.7,0-22.1,0   c-2,0-1.5-1.4-1.5-2.5c0-9.7,0-19.4,0-29c0-1.9-0.1-3.9-0.8-5.7c-2.2-5.3-8.7-6.2-12.3-1.6c-4.9,6.3-4,21.4,1.7,26.9   c2.1,2,3.6,2.5,9.5,3.1c-1.6,2.8-3,5.5-4.5,8.2c-0.7,1.2-2,1.2-3.1,1.3c-10.2,1.1-19.1-4-23.9-14c-5.7-11.7-2.4-27.7,7.2-34.9   c7.4-5.5,15.3-6.4,23.6-2.4C444.4,239.3,445,240,446.2,239.7z"
   id="path10"
   style="fill:#ffffff" />
	<path
   class="st0"
   d="M61.3,213.4c7.1,0,13.3-0.1,19.5,0c2.5,0,0.8,1.8,0.6,2.5c-3.6,10.8-7.2,21.6-10.9,32.3   c-4.4,13-8.8,26-13.1,39c-0.7,2.2-1.3,2.6-3.9,2c-12.9-3.3-19.5-11.9-23.3-24.1c-4.5-14.3-10-28.3-15.1-42.4   c-1.2-3.5-2.8-6.7-6.4-8.5c1.1-1,2.2-0.6,3.2-0.6c6.3,0,12.7,0.1,19-0.1c2.8-0.1,3.8,0.9,4.7,3.4c5.3,16,10.7,31.9,16.1,47.9   c0.3,0.8,0.6,1.6,1.1,3c2.8-9.1,5.5-17.6,8.2-26.2c1.7-5.3,3.4-10.6,5-16C67.7,219.8,67,217.6,61.3,213.4z"
   id="path12"
   style="fill:#ffffff" />
	<path
   class="st0"
   d="M481.9,232.7c-5.3,0-9.7-4.4-9.6-9.6c0.1-5.2,4.3-9.4,9.5-9.4c5.3,0,9.7,4.3,9.6,9.6   C491.3,228.5,487.1,232.7,481.9,232.7z M481.8,231.4c4.5,0,8.2-3.7,8.2-8.2c0-4.5-3.7-8.2-8.2-8.2c-4.6,0-8.2,3.6-8.2,8.2   C473.6,227.8,477.3,231.4,481.8,231.4z"
   id="path14"
   style="fill:#ffffff" />
	<path
   class="st0"
   d="M481,217.7c4.8,0.1,5,0.6,3.9,5.3c-0.3,1.2,0.7,2.7,1,4.1c0.1,0.6,0.9,1.6-0.4,1.8c-1,0.1-1.1-0.9-1.2-1.6   c-0.2-1.4-0.1-2.8-1.9-3.3c-3.1-0.8-2.7,1.3-2.7,3.1c0,0.7,0.4,1.7-0.7,1.7c-1.1,0-0.8-1.1-0.8-1.8c0-2,0.1-4.1-0.1-6.1   C478,218.4,478.6,217.1,481,217.7z M481.3,222.5c1.5-0.1,3,0.1,3-1.8c-0.1-1.7-1.5-1.5-2.6-1.6c-1.2-0.1-2,0.1-1.9,1.6   C479.7,222.1,480.2,222.7,481.3,222.5z"
   id="path16"
   style="fill:#ffffff" />
</g>
</svg>
