<svg id="Layer_1" data-name="Layer 1" xmlns="http://www.w3.org/2000/svg" viewBox="0 0 1080 1080"><defs><style>.cls-1{fill:#b0b2b3;}.cls-2{fill:#b1b3b4;}.cls-3{fill:#003c74;}.cls-4{fill:#c7d753;}.cls-5{fill:#003d74;}</style></defs><title>vertex</title><rect class="cls-1" x="181.1" y="468.49" width="26.52" height="98.11" rx="13.26"/><rect class="cls-1" x="279.64" y="468.49" width="26.52" height="98.11" rx="13.26"/><rect class="cls-2" x="230.37" y="448.81" width="26.52" height="137.43" rx="13.26"/><rect class="cls-3" x="205.14" y="442.81" width="27.96" height="129.8" rx="13.26" transform="translate(261.88 -43.61) rotate(27.78)"/><rect class="cls-4" x="254.36" y="462.06" width="27.96" height="129.8" rx="13.26" transform="translate(276.52 -64.33) rotate(27.78)"/><polygon class="cls-5" points="336.53 462.46 359.11 462.46 381.37 554.01 405.81 462.46 427.15 462.46 398.69 572.57 365.91 572.57 336.53 462.46"/><polygon class="cls-5" points="445.08 462.46 508.75 462.46 508.75 481.59 467.24 481.59 467.24 507.75 508.75 507.75 508.75 526.96 467.24 526.96 467.24 554.05 508.75 554.05 508.75 572.57 445.08 572.57 445.08 462.46"/><polygon class="cls-5" points="723.25 462.46 786.92 462.46 786.92 481.59 745.41 481.59 745.41 507.75 786.92 507.75 786.92 526.96 745.41 526.96 745.41 554.05 786.92 554.05 786.92 572.57 723.25 572.57 723.25 462.46"/><polygon class="cls-5" points="624.09 462.46 624.09 481.22 653.28 481.22 653.28 572.57 676.84 572.57 676.84 481.42 706.02 481.42 706.02 462.46 624.09 462.46"/><polyline class="cls-5" points="804.69 462.46 838.19 517.51 804.69 572.57 830.63 572.57 851.31 538.78 872.88 572.57 898.9 572.57 865.54 517.51 898.9 462.46 869.55 462.46 851.79 494.97 832.63 462.46"/><path class="cls-5" d="M590.58,527.44a41.5,41.5,0,0,0,4.25-2.51A34.41,34.41,0,0,0,605,515.07a32.11,32.11,0,0,0,4.87-14.42,40.26,40.26,0,0,0-.64-12.18c-.74-4.45-1.49-8.87-4.52-13.68a27.17,27.17,0,0,0-5.91-6.71,28.32,28.32,0,0,0-9.7-4.92,32.42,32.42,0,0,0-4-1l-56.92-.08V572.85l24.34.07V532.13H565L586.6,573h28.06Zm-6.74-29.21A13.66,13.66,0,0,1,571,511.87V512H552.91V481.87h17.26v.06a13.66,13.66,0,0,1,13.67,13.67Z"/></svg>