<?xml version="1.0" encoding="utf-8"?>
<!-- Generator: Adobe Illustrator 23.0.2, SVG Export Plug-In . SVG Version: 6.00 Build 0)  -->
<svg version="1.0" id="Layer_1" xmlns="http://www.w3.org/2000/svg" xmlns:xlink="http://www.w3.org/1999/xlink" x="0px" y="0px"
	 viewBox="0 0 1080 1080" style="enable-background:new 0 0 1080 1080;" xml:space="preserve">
<style type="text/css">
	.st0{fill:#B0B2B3;}
	.st1{fill:#B1B3B4;}
	.st2{fill:#003C74;}
	.st3{fill:#C7D753;}
	.st4{fill:#FFFFFF;}
</style>
<title>vertex</title>
<path class="st0" d="M194.36,468.49L194.36,468.49c7.32,0,13.26,5.94,13.26,13.26v71.59c0,7.32-5.94,13.26-13.26,13.26h0
	c-7.32,0-13.26-5.94-13.26-13.26v-71.59C181.1,474.43,187.04,468.49,194.36,468.49z"/>
<path class="st0" d="M292.9,468.49L292.9,468.49c7.32,0,13.26,5.94,13.26,13.26v71.59c0,7.32-5.94,13.26-13.26,13.26h0
	c-7.32,0-13.26-5.94-13.26-13.26v-71.59C279.64,474.43,285.58,468.49,292.9,468.49z"/>
<path class="st1" d="M243.63,448.81L243.63,448.81c7.32,0,13.26,5.94,13.26,13.26v110.91c0,7.32-5.94,13.26-13.26,13.26l0,0
	c-7.32,0-13.26-5.94-13.26-13.26V462.07C230.37,454.75,236.31,448.81,243.63,448.81z"/>
<path class="st2" d="M248.72,449.95l1.27,0.67c6.48,3.41,8.96,11.43,5.55,17.91l-48.14,91.38c-3.41,6.48-11.43,8.96-17.91,5.55
	l-1.27-0.67c-6.48-3.41-8.96-11.43-5.55-17.91l48.14-91.38C234.23,449.03,242.24,446.54,248.72,449.95z"/>
<path class="st3" d="M297.94,469.21l1.27,0.67c6.48,3.41,8.96,11.43,5.55,17.91l-48.14,91.38c-3.41,6.48-11.43,8.96-17.91,5.55
	l-1.27-0.67c-6.48-3.41-8.96-11.43-5.55-17.91l48.14-91.38C283.44,468.28,291.46,465.79,297.94,469.21z"/>
<polygon class="st4" points="336.53,462.46 359.11,462.46 381.37,554.01 405.81,462.46 427.15,462.46 398.69,572.57 365.91,572.57 
	"/>
<polygon class="st4" points="445.08,462.46 508.75,462.46 508.75,481.59 467.24,481.59 467.24,507.75 508.75,507.75 508.75,526.96 
	467.24,526.96 467.24,554.05 508.75,554.05 508.75,572.57 445.08,572.57 "/>
<polygon class="st4" points="723.25,462.46 786.92,462.46 786.92,481.59 745.41,481.59 745.41,507.75 786.92,507.75 786.92,526.96 
	745.41,526.96 745.41,554.05 786.92,554.05 786.92,572.57 723.25,572.57 "/>
<polygon class="st4" points="624.09,462.46 624.09,481.22 653.28,481.22 653.28,572.57 676.84,572.57 676.84,481.42 706.02,481.42 
	706.02,462.46 "/>
<polyline class="st4" points="804.69,462.46 838.19,517.51 804.69,572.57 830.63,572.57 851.31,538.78 872.88,572.57 898.9,572.57 
	865.54,517.51 898.9,462.46 869.55,462.46 851.79,494.97 832.63,462.46 "/>
<path class="st4" d="M590.58,527.44c1.47-0.75,2.88-1.59,4.25-2.51c4.04-2.55,7.5-5.9,10.17-9.86c2.76-4.35,4.43-9.29,4.87-14.42
	c0.41-4.07,0.19-8.18-0.64-12.18c-0.74-4.45-1.49-8.87-4.52-13.68c-1.59-2.55-3.58-4.82-5.91-6.71c-2.89-2.25-6.18-3.92-9.7-4.92
	c-1.31-0.42-2.65-0.75-4-1l-56.92-0.08v110.77l24.34,0.07v-40.79H565L586.6,573h28.06L590.58,527.44z M583.84,498.23
	c0,7.23-5.63,13.21-12.84,13.64V512h-18.09v-30.13h17.26v0.06c7.54-0.01,13.66,6.11,13.67,13.65c0,0.01,0,0.01,0,0.02L583.84,498.23
	z"/>
</svg>
