<svg id="Layer_1" data-name="Layer 1" xmlns="http://www.w3.org/2000/svg" viewBox="0 0 709.83 251.17"><defs><style>.cls-1{fill:#000222;}.cls-1,.cls-2,.cls-3,.cls-4{fill-rule:evenodd;}.cls-2{fill:#d10;}.cls-3{fill:#fff;}</style></defs><title>Hackathon Logo Wolfram 2018 Vector</title><path class="cls-1" d="M143.25,96.36c-4.81-4.84-14.45-10.94-14.45-10.94s-1.92-11.24-3.22-15.4c8.68-8.37,10-9.65,18.32-17.67C144.55,68.4,144.22,76.75,143.25,96.36Z"/><path class="cls-1" d="M150,130.07c-5.78,1.59-6.43,1.92-12.21,3.54-6.1-3.54-11.56-5.46-16.69-4.84a62.94,62.94,0,0,1,2.57-8.34C134.58,118.83,142.6,124.61,150,130.07Z"/><path class="cls-1" d="M238.63,125.58a113,113,0,0,1-53,95.81.07.07,0,0,1-.05,0L146.79,173.1l32.12,3.54s15.42,1.59,18.93,0C201.06,175.37,218.4,151,218.4,151s-49.78-31.47-66.8-48.81c1.94-29.23-2.24-68.1-2.24-67.78-12.54,12.51-14.13,14.45-26.67,26-5.45-17.66-8-23.77-13.48-41.43-16.39,13.48-28.9,36.3-37.9,63-2,2.17-3.86,4.46-5.73,6.91-1.22,1.62-2.44,3.26-3.61,5Q58.34,98.92,55,104.6c-1.57,2.67-3.12,5.41-4.61,8.2C40,132.41,31.4,154.89,24,175.12a.82.82,0,0,1-.12-.25,113.06,113.06,0,1,1,214.78-49.29Z"/><path class="cls-2" d="M143.25,96.36c-4.81-4.84-14.45-10.94-14.45-10.94s-1.92-11.24-3.22-15.4c8.68-8.37,10-9.65,18.32-17.67C144.55,68.4,144.22,76.75,143.25,96.36Z"/><path class="cls-2" d="M150,130.07c-5.78,1.59-6.43,1.92-12.21,3.54-6.1-3.54-11.56-5.46-16.69-4.84a62.94,62.94,0,0,1,2.57-8.34C134.58,118.83,142.6,124.61,150,130.07Z"/><path class="cls-2" d="M238.63,125.58a113,113,0,0,1-53,95.81.07.07,0,0,1-.05,0L146.79,173.1l32.12,3.54s15.42,1.59,18.93,0C201.06,175.37,218.4,151,218.4,151s-49.78-31.47-66.8-48.81c1.94-29.23-2.24-68.1-2.24-67.78-12.54,12.51-14.13,14.45-26.67,26-5.45-17.66-8-23.77-13.48-41.43-16.39,13.48-28.9,36.3-37.9,63-2,2.17-3.86,4.46-5.73,6.91-1.22,1.62-2.44,3.26-3.61,5Q58.34,98.92,55,104.6c-1.57,2.67-3.12,5.41-4.61,8.2C40,132.41,31.4,154.89,24,175.12a.82.82,0,0,1-.12-.25,113.06,113.06,0,1,1,214.78-49.29Z"/><path class="cls-3" d="M143.25,96.36c-4.81-4.84-14.45-10.94-14.45-10.94s-1.92-11.24-3.22-15.4c8.68-8.37,10-9.65,18.32-17.67C144.55,68.4,144.22,76.75,143.25,96.36Z"/><path class="cls-3" d="M150,130.07c-5.78,1.59-6.43,1.92-12.21,3.54-6.1-3.54-11.56-5.46-16.69-4.84a62.94,62.94,0,0,1,2.57-8.34C134.58,118.83,142.6,124.61,150,130.07Z"/><path class="cls-4" d="M150,130.07c-5.78,1.59-6.43,1.92-12.21,3.54-6.1-3.54-11.56-5.46-16.69-4.84a62.94,62.94,0,0,1,2.57-8.34C134.58,118.83,142.6,124.61,150,130.07Z"/><path class="cls-1" d="M23.85,174.87a.82.82,0,0,0,.12.25c7.43-20.23,16-42.71,26.44-62.32C39.89,132.34,31.25,154.74,23.85,174.87Zm122.94-1.77,38.77,48.32a.07.07,0,0,0,.05,0Z"/><path class="cls-4" d="M214.39,36.78a125.56,125.56,0,1,0,36.78,88.8A125.58,125.58,0,0,0,214.39,36.78Zm-48.66,195.1c-69.27,25-119.33-21-130-37.18a2.86,2.86,0,0,0,.1-.42C45.42,153.62,57.29,105,76.45,90.57c10-17.36,12.85-43,30.82-56.53,4.51,13.48,11.59,41.43,16.4,54.92,21.2,21.2,53.32,47.54,74.82,58.45,2.24,1.3,5.14,10.29,5.14,10.29L195,168.62l-92.49-9.32c-2.07-.18-4.14-.25-6.2-.25a117.94,117.94,0,0,0-19.17,1.84c4.49-11.24,14.13-20.23,14.13-20.23s-9-5.46-15.75-6.4c2-4.51,7.08-10.3,8.38-11.89-2.59.95-21.21,9.29-23.15,16.37a101.3,101.3,0,0,1,15.42,5.13s-9.94,10-11.88,27.31c0,0,29.55-4.51,51.73-1.62a2.28,2.28,0,0,0,1.27.33l11.56.32,36.73,61.15.3.47ZM125.58,70c8.68-8.37,10-9.65,18.32-17.67.65,16.05.32,24.4-.65,44-4.81-4.84-14.45-10.94-14.45-10.94S126.88,74.18,125.58,70Zm80,135.5a112.06,112.06,0,0,1-19.93,15.87.07.07,0,0,1-.05,0L146.79,173.1l32.12,3.54s15.42,1.59,18.93,0C201.06,175.37,218.4,151,218.4,151s-49.78-31.47-66.8-48.81c1.94-29.23-2.24-68.1-2.24-67.78-12.54,12.51-14.13,14.45-26.67,26-5.45-17.66-8-23.77-13.48-41.43-16.39,13.48-28.9,36.3-37.9,63-2,2.17-3.86,4.46-5.73,6.91-1.22,1.62-2.44,3.26-3.61,5Q58.34,98.92,55,104.6c-1.57,2.67-3.12,5.41-4.61,8.2-.65,1.22-1.3,2.47-1.95,3.71C38.9,135.2,30.92,156.16,24,175.12a.82.82,0,0,1-.12-.25,113,113,0,1,1,181.69,30.65Z"/><path class="cls-3" d="M77.09,160.89a117.94,117.94,0,0,1,19.17-1.84c2.06,0,4.13.07,6.2.25L195,168.62l8.68-10.92s-2.9-9-5.14-10.29C177,136.5,144.87,110.16,123.67,89c-4.81-13.49-11.89-41.44-16.4-54.92-18,13.48-20.86,39.17-30.82,56.53-19.16,14.38-31,63.05-40.64,103.71a2.86,2.86,0,0,1-.1.42c10.69,16.13,60.75,62.22,130,37.18l.1,0-.3-.47L128.8,170.21l-11.56-.32a2.28,2.28,0,0,1-1.27-.33c-22.18-2.89-51.73,1.62-51.73,1.62,1.94-17.34,11.88-27.31,11.88-27.31a101.3,101.3,0,0,0-15.42-5.13c1.94-7.08,20.56-15.42,23.15-16.37-1.3,1.59-6.43,7.38-8.38,11.89,6.76.94,15.75,6.4,15.75,6.4S81.58,149.65,77.09,160.89Zm46.58-40.46c10.91-1.6,18.93,4.18,26.33,9.64-5.78,1.59-6.43,1.92-12.21,3.54-6.1-3.54-11.56-5.46-16.69-4.84A62.94,62.94,0,0,1,123.67,120.43Z"/><polygon points="312.06 21.36 326.65 21.36 339.89 82.95 350.1 21.36 362.5 21.36 347.81 100.46 333.53 100.46 319.35 35.33 305.18 100.46 290.9 100.46 276.2 21.36 288.61 21.36 298.82 82.95 312.06 21.36"/><path d="M400,73.47C400,62.32,398.56,56,388.66,56S377.3,62.32,377.3,73.47,378.76,91,388.66,91,400,84.62,400,73.47m-34.5,0c0-16,4.59-27.31,23.14-27.31s23.13,11.26,23.13,27.31-4.58,27.31-23.13,27.31-23.14-11.26-23.14-27.31"/><path d="M420.75,86.71V21.36h11.68V86.6c0,2.92,1,4,4.37,4v9.49a12.93,12.93,0,0,1-2.29.21c-9.48,0-13.76-4.59-13.76-13.55"/><path d="M480.57,31.26a23.22,23.22,0,0,0-7.71-1c-5.21,0-9.38,2-9.38,7.92v9.28h14.7v9.9h-14.7V99.53H451.81V57.32h-9.49v-7.2l9.49-2.7V37.1c0-11.16,6.25-17,20.22-17a26.37,26.37,0,0,1,8.54,1.25Z"/><path d="M515,56.79a20.65,20.65,0,0,0-5.74-.62c-6.15,0-10.73,1.46-13.34,3.13V99.53H484.22V47.42h6.88L493,51.58a26.9,26.9,0,0,1,22-4.79Z"/><path d="M538.21,75.45c-5.22.63-8.24,2.61-8.24,8,0,4,1.67,7.71,8,7.71a19.18,19.18,0,0,0,11.15-3.44V74.2Zm.72-19.28a43.88,43.88,0,0,0-16.25,3.13V49.19c4.06-1.77,10.94-3,17.09-3,17.09,0,21.05,7.51,21.05,18.56V99.53h-6.88l-1.87-4.17a25.26,25.26,0,0,1-15.74,5.42c-13.44,0-17.93-8.34-17.93-16.68,0-11.26,7.3-16,19.08-17l11.67-.93V63.57c0-5.32-2.5-7.4-10.22-7.4"/><path d="M632,62.74c0-4.9-2.81-6.67-7.4-6.67a20.32,20.32,0,0,0-11.25,3.23,49.54,49.54,0,0,1,.31,5.73v34.5H602V62.74c0-4.9-2.71-6.67-7.4-6.67a21,21,0,0,0-11,3V99.53H572V47.42h6.88l1.87,4.16a27.14,27.14,0,0,1,15.74-5.42c7,0,11.15,2,13.34,5.21a29.83,29.83,0,0,1,16.68-5.21c12.3,0,17.2,6.68,17.2,16.58V99.53H632Z"/><polygon points="287.84 193.02 321.82 193.02 321.82 203.75 276.17 203.75 276.17 125.59 287.84 125.59 287.84 193.02"/><path d="M343.91,179.68c-5.21.62-8.23,2.6-8.23,8,0,4,1.66,7.72,8,7.72A19.11,19.11,0,0,0,354.85,192V178.43Zm.73-19.28a44.12,44.12,0,0,0-16.26,3.12V153.41c4.06-1.77,10.94-3,17.09-3,17.09,0,21.06,7.51,21.06,18.55v34.81h-6.88l-1.88-4.17A25.24,25.24,0,0,1,342,205c-13.44,0-17.92-8.33-17.92-16.67,0-11.26,7.29-16.05,19.07-17l11.67-.94v-2.6c0-5.32-2.5-7.4-10.21-7.4"/><path d="M409.57,203.75V168c0-5.32-2.72-7.72-8.24-7.72a23.67,23.67,0,0,0-12,3v40.44H377.67V151.64h6.88l1.88,4.17a30,30,0,0,1,16.88-5.42c13.24,0,17.93,6.57,17.93,16.57v36.79Z"/><path d="M452.08,180.72c8.76,0,10.74-4.59,10.74-10.53s-2-10.52-10.74-10.52-10.73,4.58-10.73,10.52,2,10.53,10.73,10.53m-3.65,24.6c-5.31.93-10.1,3.33-10.1,8.33,0,5.84,4.17,8.13,13.75,8.13,9.18,0,17.2-2.71,17.2-9,0-3.54-1.77-5.11-6-5.63ZM452.08,190a36.09,36.09,0,0,1-6-.42,4.58,4.58,0,0,0-1.46,3c0,1.77.94,2.71,3.13,3l18.86,2.3c10.32,1.25,14,5.94,14,14.59,0,13.44-14.18,18.55-29.29,18.55-14,0-24.08-4.48-24.08-15.22,0-7.08,5.32-11.25,10.84-12.92v-.1a8.31,8.31,0,0,1-4.06-7.2c0-3.85,2.29-6.56,4.69-8.44-5.94-3.33-8.34-9.38-8.34-17,0-11.88,5.84-19.8,21.78-19.8a32.53,32.53,0,0,1,9.59,1.25h18V159l-7.4,2.09a25.11,25.11,0,0,1,1.57,9.06c0,11.88-5.84,19.81-21.79,19.81"/><path d="M498.15,151.64v35.75c0,5.32,2.71,7.71,8.23,7.71a23.67,23.67,0,0,0,12-3V151.64H530v52.11h-6.88l-1.88-4.17A30,30,0,0,1,504.4,205c-13.24,0-17.93-6.56-17.93-16.57V151.64Z"/><path d="M557.34,179.68c-5.21.62-8.23,2.6-8.23,8,0,4,1.66,7.72,8,7.72A19.11,19.11,0,0,0,568.28,192V178.43Zm.73-19.28a44.17,44.17,0,0,0-16.26,3.12V153.41c4.07-1.77,10.94-3,17.09-3,17.1,0,21.06,7.51,21.06,18.55v34.81h-6.88l-1.88-4.17A25.24,25.24,0,0,1,555.46,205c-13.44,0-17.92-8.33-17.92-16.67,0-11.26,7.29-16.05,19.07-17l11.67-.94v-2.6c0-5.32-2.5-7.4-10.21-7.4"/><path d="M610.91,180.72c8.75,0,10.73-4.59,10.73-10.53s-2-10.52-10.73-10.52-10.74,4.58-10.74,10.52,2,10.53,10.74,10.53m-3.65,24.6c-5.32.93-10.11,3.33-10.11,8.33,0,5.84,4.17,8.13,13.76,8.13,9.17,0,17.19-2.71,17.19-9,0-3.54-1.77-5.11-6-5.63ZM610.91,190a36.21,36.21,0,0,1-6-.42,4.62,4.62,0,0,0-1.46,3c0,1.77.94,2.71,3.13,3l18.86,2.3c10.32,1.25,14,5.94,14,14.59,0,13.44-14.17,18.55-29.29,18.55-14,0-24.07-4.48-24.07-15.22,0-7.08,5.31-11.25,10.84-12.92v-.1a8.3,8.3,0,0,1-4.07-7.2c0-3.85,2.29-6.56,4.69-8.44-5.94-3.33-8.33-9.38-8.33-17,0-11.88,5.83-19.8,21.78-19.8a32.58,32.58,0,0,1,9.59,1.25h18V159l-7.4,2.09a25.11,25.11,0,0,1,1.56,9.06c0,11.88-5.84,19.81-21.78,19.81"/><path d="M656,173.84h20.85c0-7.09-.42-13.34-9.49-13.34-8.55,0-10.94,5.52-11.36,13.34m11.36-23.45c18.34,0,21.26,12.09,21.26,26.47,0,1.78-.1,3.44-.21,5.11H656c.21,7.82,3,12.92,13.65,12.92a41.27,41.27,0,0,0,16.58-3.12v10c-5.94,2.5-12.72,3.23-18.35,3.23-17.4,0-23.66-10.42-23.66-27.3s6.15-27.31,23.14-27.31"/><path d="M689,142.23H685.5V140.3h9.16v1.93h-3.53v9.55H689Zm8.33-1.93h3.26l3,7.75,3-7.75h3.26v11.48h-2.1V143h-.05l-3.23,8.77h-1.71L699.51,143h0v8.77h-2.1Z"/></svg>