<svg id="Layer_1" data-name="Layer 1" xmlns="http://www.w3.org/2000/svg" viewBox="0 0 709.83 251.17"><defs><style>.cls-1,.cls-2{fill:#fff;}.cls-1{fill-rule:evenodd;}</style></defs><title>Hackathon Logo Wolfram 2018 Vector white</title><path class="cls-1" d="M150,131.07c-5.78,1.59-6.43,1.92-12.21,3.54-6.1-3.54-11.56-5.46-16.69-4.84a62.94,62.94,0,0,1,2.57-8.34C134.58,119.83,142.6,125.61,150,131.07Z"/><path class="cls-1" d="M150,131.07c-5.78,1.59-6.43,1.92-12.21,3.54-6.1-3.54-11.56-5.46-16.69-4.84a62.94,62.94,0,0,1,2.57-8.34C134.58,119.83,142.6,125.61,150,131.07Z"/><path class="cls-1" d="M150,131.07c-5.78,1.59-6.43,1.92-12.21,3.54-6.1-3.54-11.56-5.46-16.69-4.84a62.94,62.94,0,0,1,2.57-8.34C134.58,119.83,142.6,125.61,150,131.07Z"/><path class="cls-1" d="M23.85,175.87a.82.82,0,0,0,.12.25c7.43-20.23,16-42.71,26.44-62.32C39.89,133.34,31.25,155.74,23.85,175.87Zm122.94-1.77,38.77,48.32a.07.07,0,0,0,.05,0Z"/><path class="cls-1" d="M214.39,37.78a125.56,125.56,0,1,0,36.78,88.8A125.58,125.58,0,0,0,214.39,37.78Zm-48.66,195.1c-69.27,25-119.33-21-130-37.18a2.86,2.86,0,0,0,.1-.42C45.42,154.62,57.29,106,76.45,91.57c10-17.36,12.85-43,30.82-56.53,4.51,13.48,11.59,41.43,16.4,54.92,21.2,21.2,53.32,47.54,74.82,58.45,2.24,1.3,5.14,10.29,5.14,10.29L195,169.62l-92.49-9.32c-2.07-.18-4.14-.25-6.2-.25a117.94,117.94,0,0,0-19.17,1.84c4.49-11.24,14.13-20.23,14.13-20.23s-9-5.46-15.75-6.4c2-4.51,7.08-10.3,8.38-11.89-2.59.95-21.21,9.29-23.15,16.37a101.3,101.3,0,0,1,15.42,5.13s-9.94,10-11.88,27.31c0,0,29.55-4.51,51.73-1.62a2.28,2.28,0,0,0,1.27.33l11.56.32,36.73,61.15.3.47ZM125.58,71c8.68-8.37,10-9.65,18.32-17.67.65,16.05.32,24.4-.65,44-4.81-4.84-14.45-10.94-14.45-10.94S126.88,75.18,125.58,71Zm80,135.5a112.06,112.06,0,0,1-19.93,15.87.07.07,0,0,1-.05,0L146.79,174.1l32.12,3.54s15.42,1.59,18.93,0C201.06,176.37,218.4,152,218.4,152s-49.78-31.47-66.8-48.81c1.94-29.23-2.24-68.1-2.24-67.78-12.54,12.51-14.13,14.45-26.67,26-5.45-17.66-8-23.77-13.48-41.43-16.39,13.48-28.9,36.3-37.9,63-2,2.17-3.86,4.46-5.73,6.91-1.22,1.62-2.44,3.26-3.61,5Q58.34,99.92,55,105.6c-1.57,2.67-3.12,5.41-4.61,8.2-.65,1.22-1.3,2.47-1.95,3.71C38.9,136.2,30.92,157.16,24,176.12a.82.82,0,0,1-.12-.25,113,113,0,1,1,181.69,30.65Z"/><polygon class="cls-2" points="312.06 22.36 326.65 22.36 339.89 83.95 350.1 22.36 362.5 22.36 347.81 101.46 333.53 101.46 319.35 36.33 305.18 101.46 290.9 101.46 276.2 22.36 288.61 22.36 298.82 83.95 312.06 22.36"/><path class="cls-2" d="M400,74.47C400,63.32,398.56,57,388.66,57S377.3,63.32,377.3,74.47,378.76,92,388.66,92,400,85.62,400,74.47m-34.5,0c0-16,4.59-27.31,23.14-27.31s23.13,11.26,23.13,27.31-4.58,27.31-23.13,27.31-23.14-11.26-23.14-27.31"/><path class="cls-2" d="M420.75,87.71V22.36h11.68V87.6c0,2.92,1,4,4.37,4v9.49a12.93,12.93,0,0,1-2.29.21c-9.48,0-13.76-4.59-13.76-13.55"/><path class="cls-2" d="M480.57,32.26a23.22,23.22,0,0,0-7.71-1c-5.21,0-9.38,2-9.38,7.92v9.28h14.7v9.9h-14.7v42.21H451.81V58.32h-9.49v-7.2l9.49-2.7V38.1c0-11.16,6.25-17,20.22-17a26.37,26.37,0,0,1,8.54,1.25Z"/><path class="cls-2" d="M515,57.79a20.65,20.65,0,0,0-5.74-.62c-6.15,0-10.73,1.46-13.34,3.13v40.23H484.22V48.42h6.88L493,52.58a26.9,26.9,0,0,1,22-4.79Z"/><path class="cls-2" d="M538.21,76.45c-5.22.63-8.24,2.61-8.24,8,0,4,1.67,7.71,8,7.71a19.18,19.18,0,0,0,11.15-3.44V75.2Zm.72-19.28a43.88,43.88,0,0,0-16.25,3.13V50.19c4.06-1.77,10.94-3,17.09-3,17.09,0,21.05,7.51,21.05,18.56v34.81h-6.88l-1.87-4.17a25.26,25.26,0,0,1-15.74,5.42c-13.44,0-17.93-8.34-17.93-16.68,0-11.26,7.3-16,19.08-17l11.67-.93V64.57c0-5.32-2.5-7.4-10.22-7.4"/><path class="cls-2" d="M632,63.74c0-4.9-2.81-6.67-7.4-6.67a20.32,20.32,0,0,0-11.25,3.23,49.54,49.54,0,0,1,.31,5.73v34.5H602V63.74c0-4.9-2.71-6.67-7.4-6.67a21,21,0,0,0-11,3v40.44H572V48.42h6.88l1.87,4.16a27.14,27.14,0,0,1,15.74-5.42c7,0,11.15,2,13.34,5.21a29.83,29.83,0,0,1,16.68-5.21c12.3,0,17.2,6.68,17.2,16.58v36.79H632Z"/><polygon class="cls-2" points="287.84 194.02 321.82 194.02 321.82 204.75 276.17 204.75 276.17 126.59 287.84 126.59 287.84 194.02"/><path class="cls-2" d="M343.91,180.68c-5.21.62-8.23,2.6-8.23,8,0,4,1.66,7.72,8,7.72A19.11,19.11,0,0,0,354.85,193V179.43Zm.73-19.28a44.12,44.12,0,0,0-16.26,3.12V154.41c4.06-1.77,10.94-3,17.09-3,17.09,0,21.06,7.51,21.06,18.55v34.81h-6.88l-1.88-4.17A25.24,25.24,0,0,1,342,206c-13.44,0-17.92-8.33-17.92-16.67,0-11.26,7.29-16.05,19.07-17l11.67-.94v-2.6c0-5.32-2.5-7.4-10.21-7.4"/><path class="cls-2" d="M409.57,204.75V169c0-5.32-2.72-7.72-8.24-7.72a23.67,23.67,0,0,0-12,3v40.44H377.67V152.64h6.88l1.88,4.17a30,30,0,0,1,16.88-5.42c13.24,0,17.93,6.57,17.93,16.57v36.79Z"/><path class="cls-2" d="M452.08,181.72c8.76,0,10.74-4.59,10.74-10.53s-2-10.52-10.74-10.52-10.73,4.58-10.73,10.52,2,10.53,10.73,10.53m-3.65,24.6c-5.31.93-10.1,3.33-10.1,8.33,0,5.84,4.17,8.13,13.75,8.13,9.18,0,17.2-2.71,17.2-9,0-3.54-1.77-5.11-6-5.63ZM452.08,191a36.09,36.09,0,0,1-6-.42,4.58,4.58,0,0,0-1.46,3c0,1.77.94,2.71,3.13,3l18.86,2.3c10.32,1.25,14,5.94,14,14.59,0,13.44-14.18,18.55-29.29,18.55-14,0-24.08-4.48-24.08-15.22,0-7.08,5.32-11.25,10.84-12.92v-.1a8.31,8.31,0,0,1-4.06-7.2c0-3.85,2.29-6.56,4.69-8.44-5.94-3.33-8.34-9.38-8.34-17,0-11.88,5.84-19.8,21.78-19.8a32.53,32.53,0,0,1,9.59,1.25h18V160l-7.4,2.09a25.11,25.11,0,0,1,1.57,9.06c0,11.88-5.84,19.81-21.79,19.81"/><path class="cls-2" d="M498.15,152.64v35.75c0,5.32,2.71,7.71,8.23,7.71a23.67,23.67,0,0,0,12-3V152.64H530v52.11h-6.88l-1.88-4.17A30,30,0,0,1,504.4,206c-13.24,0-17.93-6.56-17.93-16.57V152.64Z"/><path class="cls-2" d="M557.34,180.68c-5.21.62-8.23,2.6-8.23,8,0,4,1.66,7.72,8,7.72A19.11,19.11,0,0,0,568.28,193V179.43Zm.73-19.28a44.17,44.17,0,0,0-16.26,3.12V154.41c4.07-1.77,10.94-3,17.09-3,17.1,0,21.06,7.51,21.06,18.55v34.81h-6.88l-1.88-4.17A25.24,25.24,0,0,1,555.46,206c-13.44,0-17.92-8.33-17.92-16.67,0-11.26,7.29-16.05,19.07-17l11.67-.94v-2.6c0-5.32-2.5-7.4-10.21-7.4"/><path class="cls-2" d="M610.91,181.72c8.75,0,10.73-4.59,10.73-10.53s-2-10.52-10.73-10.52-10.74,4.58-10.74,10.52,2,10.53,10.74,10.53m-3.65,24.6c-5.32.93-10.11,3.33-10.11,8.33,0,5.84,4.17,8.13,13.76,8.13,9.17,0,17.19-2.71,17.19-9,0-3.54-1.77-5.11-6-5.63ZM610.91,191a36.21,36.21,0,0,1-6-.42,4.62,4.62,0,0,0-1.46,3c0,1.77.94,2.71,3.13,3l18.86,2.3c10.32,1.25,14,5.94,14,14.59,0,13.44-14.17,18.55-29.29,18.55-14,0-24.07-4.48-24.07-15.22,0-7.08,5.31-11.25,10.84-12.92v-.1a8.3,8.3,0,0,1-4.07-7.2c0-3.85,2.29-6.56,4.69-8.44-5.94-3.33-8.33-9.38-8.33-17,0-11.88,5.83-19.8,21.78-19.8a32.58,32.58,0,0,1,9.59,1.25h18V160l-7.4,2.09a25.11,25.11,0,0,1,1.56,9.06c0,11.88-5.84,19.81-21.78,19.81"/><path class="cls-2" d="M656,174.84h20.85c0-7.09-.42-13.34-9.49-13.34-8.55,0-10.94,5.52-11.36,13.34m11.36-23.45c18.34,0,21.26,12.09,21.26,26.47,0,1.78-.1,3.44-.21,5.11H656c.21,7.82,3,12.92,13.65,12.92a41.27,41.27,0,0,0,16.58-3.12v10c-5.94,2.5-12.72,3.23-18.35,3.23-17.4,0-23.66-10.42-23.66-27.3s6.15-27.31,23.14-27.31"/><path class="cls-2" d="M689,143.23H685.5V141.3h9.16v1.93h-3.53v9.55H689Zm8.33-1.93h3.26l3,7.75,3-7.75h3.26v11.48h-2.1V144h-.05l-3.23,8.77h-1.71L699.51,144h0v8.77h-2.1Z"/></svg>