<svg id="Layer_1" data-name="Layer 1" xmlns="http://www.w3.org/2000/svg" viewBox="0 0 250.67 227.41"><defs><style>.cls-1{fill:#d97b84;}.cls-2{fill:#d87881;}.cls-3{fill:#da7f87;}.cls-4{fill:#db828a;}.cls-5{fill:none;}</style></defs><title>Panels</title><path class="cls-1" d="M30,146.92C46,136,73.89,115.13,90.27,93,104.34,73.91,127,50,143,33.44A91.59,91.59,0,0,0,30,146.92Z"/><path class="cls-1" d="M38.43,166.55c16.19-19.25,36.8-41.69,60.28-64.7s46.45-43.25,66.1-59.07A92.62,92.62,0,0,0,143,33.44C127,50,104.34,73.91,90.27,93,73.89,115.13,46,136,30,146.92A106.31,106.31,0,0,0,38.43,166.55Z"/><path class="cls-2" d="M103.17,212c16.16-11.82,37.2-29.05,50.7-47.28,14.57-19.79,38.13-44.62,54.19-61.13a86,86,0,0,0-12.6-31.22c-17.57,18.62-40.26,40.3-65.82,62.55A873.19,873.19,0,0,1,58.21,191c1.48,1.23,3,2.46,4.52,3.54A92.12,92.12,0,0,0,103.17,212Z"/><path class="cls-3" d="M129.64,134.89C155.2,112.64,177.89,91,195.46,72.34l.07-.15c-1.12-1.63-2.09-3.18-3.28-4.65-1-1.41-2.23-2.88-3.42-4.35s-2.45-2.79-3.71-4.11a4.66,4.66,0,0,0-1.35-1.54c-1.65-1.68-3.31-3.36-5-4.89-1.49-1.23-3-2.47-4.53-3.54-16.1,9.23-42.44,30.75-70.3,58.09C76.34,134.29,54.18,160.13,44.54,176a60.34,60.34,0,0,0,5.72,7.06c.71.89,1.58,1.84,2.45,2.79.55.44.94.8,1.49,1.24,1.41,1.38,2.67,2.7,4,3.87A873.19,873.19,0,0,0,129.64,134.89Z"/><path class="cls-4" d="M103.17,212A91.24,91.24,0,0,0,208.06,103.56c-16.06,16.51-39.62,41.34-54.19,61.13C140.37,182.92,119.33,200.15,103.17,212Z"/><path class="cls-3" d="M44.56,176c9.63-15.82,31.7-41.7,59.41-68.83s54.17-48.77,70.2-58.07a60.51,60.51,0,0,0-9.28-6.32c-19.81,15.84-42.65,36.08-66.13,59.06S54.57,147.25,38.43,166.6A60.64,60.64,0,0,0,44.56,176Z"/><path class="cls-5" d="M208.06,103.56c10.45-10.7,17.76-17.79,17.76-17.79"/><path class="cls-5" d="M143,33.44C154.33,22,162.38,14.15,162.38,14.15"/></svg>