<svg id="Layer_1" data-name="Layer 1" xmlns="http://www.w3.org/2000/svg" viewBox="0 0 1006.33 842.78"><defs><style>.cls-1{fill:#80cded;}.cls-2{fill:#8fd3ef;}.cls-3{fill:#7ccbec;}.cls-4{fill:#83ceed;}.cls-5{fill:#86cfee;}.cls-6{fill:#2dace1;opacity:0.75;}.cls-7{fill:none;}</style></defs><title>Panels</title><path class="cls-1" d="M259.73,418c53.2-17.83,147.43-53.57,210.69-102.14C524.83,273.89,606.88,225.21,664.76,192c-78-48.39-179.42-54.87-265.79-7.93C309.89,232,259.85,324,259.73,418Z"/><path class="cls-2" d="M267.43,479.29c60.42-40.68,135.72-86.73,219.43-132.07S650.68,263.8,718,235.44A267.64,267.64,0,0,0,664.76,192c-57.88,33.17-139.93,81.85-194.34,123.79C407.16,364.4,312.93,400.14,259.73,418A306.82,306.82,0,0,0,267.43,479.29Z"/><path class="cls-3" d="M411.5,657.4c54.42-20,126.73-51.22,178.85-91.24,56.37-43.49,141.77-93.83,199.66-127a249.54,249.54,0,0,0-10.21-97C716,380,635.55,422.3,546.66,463.88,458.1,505.08,373.82,539,303,563.09c3.15,4.62,6.3,9.24,9.77,13.48A266.56,266.56,0,0,0,411.5,657.4Z"/><path class="cls-4" d="M546.66,463.88C635.55,422.3,716,380,779.8,342.19l.32-.37c-1.83-5.42-3.28-10.53-5.43-15.57-1.77-4.74-3.91-9.78-6.06-14.83s-4.6-9.72-7.07-14.4a13.14,13.14,0,0,0-2.51-5.36c-3.27-6-6.53-12-10.12-17.64-3.15-4.61-6.3-9.23-9.78-13.48-52.2,12.88-142.69,51.8-242.07,105.7C398.71,419.71,316.41,474,276.89,510.55a175,175,0,0,0,10.3,24.23c1.28,3,2.94,6.38,4.6,9.72,1.18,1.65,2,3,3.16,4.62,2.83,5,5.3,9.67,8.08,14C373.82,539,458.1,505.08,546.66,463.88Z"/><path class="cls-5" d="M411.5,657.4A264.3,264.3,0,0,0,790,439.15c-57.89,33.18-143.29,83.52-199.66,127C538.23,606.18,465.92,637.38,411.5,657.4Z"/><path class="cls-6" d="M110.25,593.5c-8.9-19.81,52.5-70,153.83-129.95A168.76,168.76,0,0,0,271.47,495c-19.9,16.56-30.34,29.57-27.34,36.64,3.7,7,19.08,7.87,43.06,3.16,52.85-9.11,146.55-42.72,250.26-90.35C641.1,396.11,727.56,346,768.32,311.79l.31-.37c19.32-15.12,28.75-27.71,25.06-34.72-3-7.07-19.77-7.81-44.76-2.68l-.69.06a82.21,82.21,0,0,0-9.09-13.54c-3.15-4.62-6.62-8.86-10.09-13.11,111.39-38.5,189.56-53.12,198.83-33S878,282.81,780.12,341.82l-.32.37C716,380,635.55,422.3,546.66,463.88,458.1,505.08,373.82,539,303,563.09,195.35,600.25,119.52,613.64,110.25,593.5Z"/><path class="cls-4" d="M277,510.52c39.43-36.4,121.51-90.85,220.31-144.31C596.51,312.52,687,273.6,739,260.5a175.34,175.34,0,0,0-20.79-25C650.47,263.81,570.71,301.94,487,347.23S327.75,438.42,267.4,479.44A174.86,174.86,0,0,0,277,510.52Z"/><path class="cls-7" d="M338.26,681.36s31-8.4,73.24-24"/><path class="cls-7" d="M790,439.15c37.6-21.45,63.63-35.37,63.63-35.37"/><path class="cls-7" d="M219,431s16-4.42,40.71-13"/><path class="cls-7" d="M664.76,192c40.64-22.75,69.32-38.27,69.32-38.27"/></svg>