<svg id="Layer_1" data-name="Layer 1" xmlns="http://www.w3.org/2000/svg" viewBox="0 0 250.67 227.41"><defs><style>.cls-1{fill:#5a8da3;}.cls-2{fill:#86caef;}</style></defs><title>Panels</title><path class="cls-1" d="M162.06,194.19A92.22,92.22,0,0,1,88,193.93l-.44-.2a92.64,92.64,0,0,1-20.49-12.59,91.38,91.38,0,0,1-19.37-21.6c-.52-.79-1-1.59-1.49-2.41a90.6,90.6,0,0,1-5.67-11c-.21-.46-.4-.92-.59-1.38s-.41-1-.6-1.5a92,92,0,0,1-4.06-54.65q.24-1.08.54-2.16a89.06,89.06,0,0,1,2.93-9.36c.43-1.14.86-2.26,1.33-3.37A92.44,92.44,0,0,1,104.3,19.39a90,90,0,0,1,13.22-2.11c1.31-.11,2.62-.2,3.92-.25a92.4,92.4,0,0,1,79.82,39.64q2.48,3.55,4.62,7.4a94,94,0,0,1,4.26,8.59c.87,2,1.67,4,2.38,6.1a91.41,91.41,0,0,1,5.2,27.66c.07,1.86.07,3.72,0,5.57,0,.15,0,.29,0,.44A90.76,90.76,0,0,1,215,131.61q-.54,2.22-1.2,4.41-1.22,4-2.79,7.91A92,92,0,0,1,162.06,194.19Z"/><path class="cls-2" d="M212.52,78.76c-.71-2.05-1.51-4.09-2.38-6.1a94,94,0,0,0-4.26-8.59C188.08,88,168.76,105.3,149,117.62,173,99,189.78,76.57,201.26,56.67a91.77,91.77,0,0,0-9.68-11.75c-42,73.26-103.83,94.45-152.24,98.32q.28.75.6,1.5c.19.46.38.92.59,1.38a90.6,90.6,0,0,0,5.67,11c.48.82,1,1.62,1.49,2.41a197.68,197.68,0,0,0,69.07-9.9C162,134.42,193,104.45,212.52,78.76Z"/><path class="cls-2" d="M133.21,17.29A92.35,92.35,0,0,0,121.44,17,145.5,145.5,0,0,1,99.53,44.11a150,150,0,0,0,18-26.83,90,90,0,0,0-13.22,2.11A131.7,131.7,0,0,1,40.08,73.7c-.47,1.11-.9,2.23-1.33,3.37a89.06,89.06,0,0,0-2.93,9.36q-.3,1.08-.54,2.16a138.14,138.14,0,0,0,46-17C106.12,56.9,122.56,36.14,133.21,17.29Z"/><path class="cls-2" d="M217.72,106.42c-41.7,61.34-99.5,74.81-141.87,74.9-3,0-6,0-8.79-.18a92.64,92.64,0,0,0,20.49,12.59l.36,0a2,2,0,0,0,.08.22,92.52,92.52,0,0,0,29.49,7.56,150.47,150.47,0,0,0,49.08-17.67A148.59,148.59,0,0,0,211,143.93q1.58-3.88,2.79-7.91.66-2.19,1.2-4.41a90.76,90.76,0,0,0,2.69-19.18c0-.15,0-.29,0-.44C217.79,110.14,217.79,108.28,217.72,106.42Z"/></svg>