<svg id="Layer_1" data-name="Layer 1" xmlns="http://www.w3.org/2000/svg" viewBox="0 0 1006.33 842.78"><defs><style>.cls-1{fill:#f7931e;}.cls-2{fill:#fbb03b;}.cls-3{fill:#838bc5;}.cls-3,.cls-4{opacity:0.49;}.cls-4{fill:#ba9bc9;}</style></defs><title>Panels</title><path class="cls-1" d="M243.7,486.74c41.71-26.37,114.7-76.63,158.57-131.35C440,308.17,499.85,249.42,542.35,209c-76.75-25-164.74-9.3-228.68,48.88C247.6,317.36,224.13,406.45,243.7,486.74Z"/><path class="cls-2" d="M263.11,537.5C306.2,490.1,360.88,435,422.88,378.76s122.46-105.55,174-143.87A235.71,235.71,0,0,0,542.35,209C499.85,249.42,440,308.17,402.27,355.39c-43.87,54.72-116.86,105-158.57,131.35A270,270,0,0,0,263.11,537.5Z"/><path class="cls-1" d="M423.45,659.46C465.74,631,521,589.18,557.12,544.09c39-49,101.43-109.82,143.93-150.28a219.42,219.42,0,0,0-29-80.68c-46.56,45.66-106.44,98.63-173.66,152.74-67,53.73-131.9,100.33-187.32,135.75,3.66,3.28,7.32,6.57,11.17,9.47A234.48,234.48,0,0,0,423.45,659.46Z"/><path class="cls-2" d="M498.38,465.87C565.6,411.76,625.48,358.79,672,313.13l.19-.39c-2.69-4.24-5-8.3-7.89-12.16-2.5-3.67-5.39-7.53-8.28-11.39s-6-7.34-9-10.82a11.65,11.65,0,0,0-3.28-4.06c-4-4.44-8.09-8.88-12.33-12.94-3.66-3.28-7.32-6.57-11.17-9.47-41.9,21.94-111,74.12-184.64,141-72.82,66.26-131.75,129.85-157.85,169.36a154.62,154.62,0,0,0,13.86,18.54c1.74,2.32,3.86,4.83,6,7.34,1.35,1.16,2.32,2.12,3.67,3.28,3.46,3.67,6.54,7.15,9.82,10.24C366.48,566.2,431.37,519.6,498.38,465.87Z"/><path class="cls-1" d="M423.45,659.46a232.42,232.42,0,0,0,277.6-265.65c-42.5,40.46-104.89,101.33-143.93,150.28C521,589.18,465.74,631,423.45,659.46Z"/><path class="cls-3" d="M311.06,601.62c55.42-35.42,120.31-82,187.32-135.75C565.6,411.76,625.48,358.79,672,313.13l.19-.39C743.52,241.85,783.91,188.27,771.78,173s-75.84,13.59-162.92,69.8c3.85,2.9,7.71,5.8,11.37,9.08a73,73,0,0,1,10.59,9.66l.58-.19c20.27-9.62,34.75-12.49,38.79-7.08,4.62,5.21-.8,17.94-14.13,34.9l-.2.38c-27.64,37.78-91,98.65-169.41,161.63C407.84,513.59,334.84,561.91,291.6,580.76c-19.49,9-32.81,11.53-37.43,6.31-4-5.41,2.15-18.71,15.68-37A148.42,148.42,0,0,1,257,524.76C183,597.2,141,652.89,152.77,668,164.9,683.22,226.87,655.91,311.06,601.62Z"/><path class="cls-2" d="M277.8,562.18c26.06-39.35,84.77-103,158-169.38C509.27,326.16,578.42,274,620.12,251.89a154.83,154.83,0,0,0-23-17C545.16,273.26,485,322.53,423,378.73S306.08,490,263.12,537.63A154.12,154.12,0,0,0,277.8,562.18Z"/><path class="cls-4" d="M279.32,639.59c67-42.85,145.54-99.22,226.61-164.21C587.24,409.91,659.67,345.84,716,290.61l.24-.47c86.24-85.76,135.1-150.57,120.42-169S700.86,166,595.51,234c4.66,3.51,10.09,5.63,14.52,9.6,4.66,3.51,9.87,6.8,13.59,11l43-26.51.38-.2c21.14-13.77,41.84-15,46.72-8.48,5.59,6.31-1,21.7-17.1,42.22l-.23.46C663,307.8,586.34,381.44,491.49,457.62c-95.1,75.48-183.39,133.93-235.7,156.73C232.2,625.29,216.1,628.3,210.5,622c-4.89-6.54,38.74-57.32,55.11-79.46-5.42-10-10.19-22-14.37-32.3C161.73,597.85,73.63,701.61,87.84,719.84,102.52,738.29,177.48,705.26,279.32,639.59Z"/></svg>