<svg id="Layer_1" data-name="Layer 1" xmlns="http://www.w3.org/2000/svg" viewBox="0 0 1006.33 842.78"><defs><style>.cls-1{fill:#fff;}.cls-2{fill:#67c1c1;}.cls-3{fill:#86f2ef;}</style></defs><title>Panels</title><ellipse class="cls-1" cx="480.99" cy="588.08" rx="7.7" ry="7.67" transform="translate(-245.79 366.77) rotate(-33.78)"/><ellipse class="cls-1" cx="392.47" cy="772.74" rx="5.39" ry="5.37" transform="matrix(0.83, -0.56, 0.56, 0.83, -363.42, 348.73)"/><path class="cls-2" d="M318.48,734a362.73,362.73,0,0,1-182-227.48c-.19-.62-.34-1.24-.48-1.86a364.3,364.3,0,0,1-12-93.79A360.48,360.48,0,0,1,142.3,298.21c1.13-3.55,2.37-7,3.7-10.52a355,355,0,0,1,19.71-44.57c.9-1.75,1.85-3.48,2.8-5.2s2-3.71,3.09-5.55A361.45,361.45,0,0,1,328.94,85.08c2.59-1.32,5.25-2.55,7.93-3.7a351.22,351.22,0,0,1,35.92-14.14c4.52-1.49,9-2.93,13.6-4.24A363.82,363.82,0,0,1,711.2,125.61a355.72,355.72,0,0,1,39.12,35.27c3.55,3.75,7.06,7.51,10.41,11.4A361,361,0,0,1,789,208.94a364.83,364.83,0,0,1,59.46,247,358.43,358.43,0,0,1-12.09,58.64q-4.77,16.37-11.25,32.42a368.17,368.17,0,0,1-15.79,34.24c-4,7.63-8.28,15.1-12.79,22.34a360.18,360.18,0,0,1-71.89,84.22c-5.52,4.81-11.22,9.39-17,13.79l-1.4,1a358.24,358.24,0,0,1-65.36,39.1c-5.44,2.55-10.91,5-16.46,7.21q-15.31,6.21-31.1,11A362,362,0,0,1,318.48,734Z"/><path class="cls-3" d="M836.36,514.54c-89.27,14-199.29,17.74-315.55-9.48C397.17,476.11,266.45,412,146,287.69a355,355,0,0,1,19.71-44.57c.9-1.75,1.85-3.48,2.8-5.2s2-3.71,3.09-5.55C302.93,371.07,520.39,508,848.45,455.9A358.43,358.43,0,0,1,836.36,514.54Z"/><path class="cls-3" d="M796.53,603.54c-126.78,3.76-295-17.17-453.44-118.26C272.73,440.39,204.3,379.65,142.3,298.21c1.13-3.55,2.37-7,3.7-10.52a355,355,0,0,1,19.71-44.57c.9-1.75,1.85-3.48,2.8-5.2,50.32,69.46,117.75,140.4,206.75,196.9a697.16,697.16,0,0,0,145.55,70.24c86.41,30,187.08,46.49,304.3,41.9a368.17,368.17,0,0,1-15.79,34.24C805.32,588.83,801,596.3,796.53,603.54Z"/><path class="cls-3" d="M750.32,160.88A588.63,588.63,0,0,1,623.74,172c-89.41-2.06-187.85-26.19-286.87-90.61a351.22,351.22,0,0,1,35.92-14.14c4.52-1.49,9-2.93,13.6-4.24,83.08,46.47,192,79.69,324.81,62.61A355.72,355.72,0,0,1,750.32,160.88Z"/><path class="cls-3" d="M789,208.94C705,222.87,600.86,223.77,494.46,184,439.09,163.35,383,131.69,328.94,85.08c2.59-1.32,5.25-2.55,7.93-3.7a351.22,351.22,0,0,1,35.92-14.14A518.86,518.86,0,0,0,511,144.51,505.63,505.63,0,0,0,623.74,172c42.06,5.33,87.69,5.94,137,.29A361,361,0,0,1,789,208.94Z"/><path class="cls-3" d="M640.87,741.69a693.51,693.51,0,0,1-167.74-22.84C361.22,689,243.38,625.94,136.94,505.71l-.95-1.09a364.3,364.3,0,0,1-12-93.79c6.61,9,13.68,18.11,21.14,27.34C250,567.71,433.86,711.46,724.64,687.76c-5.52,4.81-11.22,9.39-17,13.79l-1.4,1A358.24,358.24,0,0,1,640.87,741.69Z"/><path class="cls-3" d="M593.31,759.89c-71.38,2.52-151-6.54-231.95-37.78C302.87,699.55,243.6,665.34,186.1,615.45a364.19,364.19,0,0,1-49.63-109,3.78,3.78,0,0,1,.47-.77l.71-1.15c1.94,2.25,3.89,4.56,5.88,6.85,7.88,9,16.32,18.19,25.32,27.39,51.23,52.68,120.51,106.48,209.77,140.68A541.2,541.2,0,0,0,499.24,710.3c61.8,8.44,130.73,7.24,207-7.71a358.24,358.24,0,0,1-65.36,39.1c-5.44,2.55-10.91,5-16.46,7.21Q609.1,755.11,593.31,759.89Z"/></svg>