<svg id="Layer_1" data-name="Layer 1" xmlns="http://www.w3.org/2000/svg" xmlns:xlink="http://www.w3.org/1999/xlink" viewBox="0 0 510.27 439.64"><defs><style>.cls-1{fill:none;}.cls-2{fill:#fff;}.cls-3{fill:#e4704c;}.cls-4{fill:#c84331;}.cls-5{fill:#bcbaba;}.cls-6{clip-path:url(#clip-path);}.cls-7{fill:#96dbfa;}.cls-8{fill:#4dc1f8;}.cls-9{fill:#51aacf;}.cls-10{clip-path:url(#clip-path-2);}.cls-11{clip-path:url(#clip-path-3);}.cls-12{clip-path:url(#clip-path-4);}.cls-13{clip-path:url(#clip-path-5);}.cls-14{clip-path:url(#clip-path-6);}.cls-15{clip-path:url(#clip-path-7);}.cls-16{clip-path:url(#clip-path-8);}.cls-17{clip-path:url(#clip-path-9);}.cls-18{clip-path:url(#clip-path-10);}.cls-19{clip-path:url(#clip-path-11);}.cls-20{clip-path:url(#clip-path-12);}.cls-21{clip-path:url(#clip-path-13);}.cls-22{clip-path:url(#clip-path-14);}.cls-23{clip-path:url(#clip-path-15);}.cls-24{clip-path:url(#clip-path-16);}.cls-25{fill:#333;}.cls-26{fill:#827a76;}</style><clipPath id="clip-path"><path class="cls-1" d="M162.64,339.06l-21.13-24.47,30.94-26.71,31.05,36-19.45,16.79A15.18,15.18,0,0,1,162.64,339.06Z"/></clipPath><clipPath id="clip-path-2"><path class="cls-1" d="M141.45,249.22l31.05,36,30.94-26.71L182.32,234a15.2,15.2,0,0,0-21.42-1.57Z"/></clipPath><clipPath id="clip-path-3"><path class="cls-1" d="M140.09,250.4l31,35.89L140.2,313l-21.09-24.42a15.15,15.15,0,0,1,1.56-21.37Z"/></clipPath><clipPath id="clip-path-4"><path class="cls-1" d="M204.87,322.66l-31.05-36L204.76,260l21.12,24.47a15.18,15.18,0,0,1-1.56,21.41Z"/></clipPath><clipPath id="clip-path-5"><path class="cls-1" d="M88.46,403.11,67.33,378.64l30.94-26.71,31.05,36-19.45,16.79A15.18,15.18,0,0,1,88.46,403.11Z"/></clipPath><clipPath id="clip-path-6"><path class="cls-1" d="M67.27,313.27l31.05,36,30.94-26.71L108.14,298a15.2,15.2,0,0,0-21.42-1.57Z"/></clipPath><clipPath id="clip-path-7"><path class="cls-1" d="M65.91,314.45l31,35.89L66,377,44.93,352.58a15.15,15.15,0,0,1,1.56-21.37Z"/></clipPath><clipPath id="clip-path-8"><path class="cls-1" d="M130.69,386.71l-31-36L130.58,324,151.7,348.5a15.18,15.18,0,0,1-1.56,21.41Z"/></clipPath><clipPath id="clip-path-9"><path class="cls-1" d="M391.2,139.79l-21.12-24.47L339.14,142l31.05,36,19.45-16.8A15.18,15.18,0,0,0,391.2,139.79Z"/></clipPath><clipPath id="clip-path-10"><path class="cls-1" d="M305.41,105.74l31,36-30.93,26.71-21.13-24.47A15.18,15.18,0,0,1,286,122.53Z"/></clipPath><clipPath id="clip-path-11"><path class="cls-1" d="M306.77,104.56l31,35.89,30.88-26.67L347.56,89.36a15.16,15.16,0,0,0-21.37-1.57Z"/></clipPath><clipPath id="clip-path-12"><path class="cls-1" d="M368.82,179.18l-31.05-36-30.94,26.71L328,194.4A15.17,15.17,0,0,0,349.37,196Z"/></clipPath><clipPath id="clip-path-13"><path class="cls-1" d="M465.38,75.74,444.25,51.27,413.32,78l31,36,19.45-16.8A15.17,15.17,0,0,0,465.38,75.74Z"/></clipPath><clipPath id="clip-path-14"><path class="cls-1" d="M379.58,41.69l31.05,36L379.7,104.36,358.57,79.89a15.18,15.18,0,0,1,1.56-21.41Z"/></clipPath><clipPath id="clip-path-15"><path class="cls-1" d="M381,40.51l31,35.89,30.89-26.67L421.74,25.31a15.16,15.16,0,0,0-21.37-1.57Z"/></clipPath><clipPath id="clip-path-16"><path class="cls-1" d="M443,115.13,412,79.17,381,105.88l21.13,24.47a15.17,15.17,0,0,0,21.41,1.57Z"/></clipPath></defs><title>Panels</title><rect class="cls-2" x="234.79" y="185.85" width="80.5" height="102.81" rx="9.53" transform="translate(638.28 237.07) rotate(139.19)"/><rect class="cls-2" x="167.25" y="126.21" width="80.5" height="64.65" rx="7.65" transform="translate(468.17 142.93) rotate(139.19)"/><rect class="cls-3" x="198.43" y="182.25" width="64.46" height="6.23" rx="0.74" transform="translate(526.4 174.92) rotate(139.19)"/><rect class="cls-3" x="160.32" y="124.66" width="45.11" height="10.72" rx="1.27" transform="translate(406.26 108.91) rotate(139.19)"/><path class="cls-4" d="M161.56,118.41h30a0,0,0,0,1,0,0V125a2,2,0,0,1-2,2H163.59a2,2,0,0,1-2-2v-6.56a0,0,0,0,1,0,0Z" transform="translate(390.39 100.19) rotate(139.19)"/><rect class="cls-5" x="218.55" y="186.06" width="37.31" height="13.75" transform="translate(542.82 183.94) rotate(139.19)"/><rect class="cls-5" x="212.96" y="236.89" width="12.79" height="14.48" transform="translate(544.94 285.56) rotate(139.19)"/><rect class="cls-5" x="307.3" y="274.74" width="10.34" height="11.71" transform="translate(732.35 288.76) rotate(139.19)"/><rect class="cls-5" x="128.07" y="310.19" width="12.79" height="14.48" transform="translate(443.7 469.81) rotate(139.19)"/><path class="cls-4" d="M205.62,234.94h10.12a0,0,0,0,1,0,0v37.25a0,0,0,0,1,0,0H205.62a3.14,3.14,0,0,1-3.14-3.14v-31a3.14,3.14,0,0,1,3.14-3.14Z" transform="translate(533.1 308.81) rotate(139.19)"/><path class="cls-2" d="M204.87,324,172.5,286.5l32.25-27.84,22,25.5a15.82,15.82,0,0,1-1.63,22.32Z"/><path class="cls-2" d="M140.26,314.35l-22-25.51a15.82,15.82,0,0,1,1.63-22.32L140.14,249,172.5,286.5Z"/><path class="cls-2" d="M204.75,258.66l-22-25.51a15.83,15.83,0,0,0-22.32-1.64L140.14,249,172.5,286.5Z"/><path class="cls-2" d="M140.26,314.35l22,25.5a15.82,15.82,0,0,0,22.31,1.64L204.87,324,172.5,286.5Z"/><path class="cls-1" d="M204.87,322.66l-31.05-36L204.76,260l21.12,24.47a15.18,15.18,0,0,1-1.56,21.41Z"/><g class="cls-6"><rect class="cls-7" x="124.92" y="286.24" width="116.77" height="42.6" transform="translate(-137.22 467.07) rotate(-85.66)"/><rect class="cls-8" x="103.68" y="284.63" width="116.77" height="42.6" transform="translate(-155.24 444.4) rotate(-85.66)"/><rect class="cls-9" x="94.2" y="292.47" width="116.77" height="25.48" transform="translate(-163.29 434.28) rotate(-85.66)"/><path class="cls-1" d="M202.24,323.65l-29.79-34.5-29.68,25.63L163,338.25a14.57,14.57,0,0,0,20.54,1.51Z"/></g><g class="cls-10"><path class="cls-2" d="M172.5,286.5,140.14,249l20.27-17.51a15.83,15.83,0,0,1,22.32,1.64l22,25.51Z"/><rect class="cls-7" x="125.81" y="248.46" width="121.71" height="44.4" transform="translate(-97.33 436.33) rotate(-85.66)"/><rect class="cls-8" x="103.67" y="246.78" width="121.71" height="44.4" transform="translate(-116.12 412.71) rotate(-85.66)"/><rect class="cls-9" x="90.84" y="251.77" width="121.71" height="32.48" transform="translate(-127.01 399.01) rotate(-85.66)"/></g><g class="cls-11"><rect class="cls-7" x="92.94" y="261.25" width="116.55" height="42.52" transform="translate(-141.92 411.94) rotate(-85.66)"/><rect class="cls-8" x="71.74" y="259.65" width="116.55" height="42.52" transform="translate(-159.92 389.31) rotate(-85.66)"/><rect class="cls-9" x="62.27" y="267.47" width="116.55" height="25.44" transform="translate(-167.95 379.21) rotate(-85.66)"/></g><g class="cls-12"><rect class="cls-7" x="157.52" y="270.86" width="116.77" height="42.6" transform="translate(-91.74 485.36) rotate(-85.66)"/><rect class="cls-8" x="136.28" y="269.25" width="116.77" height="42.6" transform="translate(-109.77 462.69) rotate(-85.66)"/><rect class="cls-9" x="126.8" y="277.09" width="116.77" height="25.48" transform="matrix(0.08, -1, 1, 0.08, -117.82, 452.57)"/></g><path class="cls-2" d="M130.69,388,98.33,350.55l32.24-27.84,22,25.5A15.81,15.81,0,0,1,151,370.53Z"/><path class="cls-2" d="M66.08,378.4l-22-25.51a15.81,15.81,0,0,1,1.63-22.31L66,313.07l32.37,37.48Z"/><path class="cls-2" d="M130.57,322.71l-22-25.51a15.82,15.82,0,0,0-22.31-1.64L66,313.07l32.37,37.48Z"/><path class="cls-2" d="M66.08,378.4l22,25.5a15.82,15.82,0,0,0,22.32,1.64L130.69,388,98.33,350.55Z"/><path class="cls-1" d="M130.69,386.71l-31-36L130.58,324,151.7,348.5a15.18,15.18,0,0,1-1.56,21.41Z"/><g class="cls-13"><rect class="cls-7" x="50.74" y="350.29" width="116.77" height="42.6" transform="translate(-269.65 452.31) rotate(-85.66)"/><rect class="cls-8" x="29.5" y="348.68" width="116.77" height="42.6" transform="translate(-287.68 429.64) rotate(-85.66)"/><rect class="cls-9" x="20.02" y="356.52" width="116.77" height="25.48" transform="translate(-295.73 419.52) rotate(-85.66)"/><path class="cls-1" d="M128.06,387.7,98.27,353.2,68.59,378.83,88.86,402.3a14.56,14.56,0,0,0,20.54,1.51Z"/></g><g class="cls-14"><path class="cls-2" d="M98.33,350.55,66,313.07l20.28-17.51a15.82,15.82,0,0,1,22.31,1.64l22,25.51Z"/><rect class="cls-7" x="51.63" y="312.51" width="121.71" height="44.4" transform="translate(-229.77 421.57) rotate(-85.66)"/><rect class="cls-8" x="29.5" y="310.83" width="121.71" height="44.4" transform="translate(-248.56 397.95) rotate(-85.66)"/><rect class="cls-9" x="16.66" y="315.82" width="121.71" height="32.48" transform="translate(-259.45 384.25) rotate(-85.66)"/></g><g class="cls-15"><rect class="cls-7" x="18.76" y="325.3" width="116.55" height="42.52" transform="translate(-274.36 397.18) rotate(-85.66)"/><rect class="cls-8" x="-2.44" y="323.7" width="116.55" height="42.52" transform="translate(-292.36 374.55) rotate(-85.66)"/><rect class="cls-9" x="-11.9" y="331.52" width="116.55" height="25.44" transform="translate(-300.39 364.45) rotate(-85.66)"/></g><g class="cls-16"><rect class="cls-7" x="83.34" y="334.91" width="116.77" height="42.6" transform="translate(-224.18 470.6) rotate(-85.66)"/><rect class="cls-8" x="62.1" y="333.3" width="116.77" height="42.6" transform="matrix(0.08, -1, 1, 0.08, -242.21, 447.93)"/><rect class="cls-9" x="52.62" y="341.14" width="116.77" height="25.48" transform="translate(-250.26 437.81) rotate(-85.66)"/></g><rect class="cls-5" x="282.63" y="174.83" width="12.79" height="14.48" transform="translate(-48.72 233.15) rotate(-40.81)"/><rect class="cls-5" x="367.51" y="101.53" width="12.79" height="14.48" transform="translate(19.82 270.81) rotate(-40.81)"/><path class="cls-4" d="M296.35,154.69h10.12a0,0,0,0,1,0,0v37.25a0,0,0,0,1,0,0H296.35a3.14,3.14,0,0,1-3.14-3.14v-31A3.14,3.14,0,0,1,296.35,154.69Z" transform="translate(-40.37 238.09) rotate(-40.81)"/><path class="cls-2" d="M370.13,179.37l-32.36-37.48-32.25,27.85,22,25.5a15.82,15.82,0,0,0,22.32,1.64Z"/><path class="cls-2" d="M370,114.05,348,88.54a15.83,15.83,0,0,0-22.32-1.64L305.4,104.41l32.37,37.48Z"/><path class="cls-2" d="M305.52,169.74l-22-25.51a15.83,15.83,0,0,1,1.63-22.32l20.27-17.5,32.37,37.48Z"/><path class="cls-2" d="M370,114.05l22,25.5a15.82,15.82,0,0,1-1.64,22.32l-20.27,17.5-32.36-37.48Z"/><path class="cls-1" d="M368.82,179.18l-31.05-36-30.94,26.71L328,194.4A15.17,15.17,0,0,0,349.37,196Z"/><g class="cls-17"><rect class="cls-7" x="298.62" y="134.34" width="116.77" height="42.6" transform="translate(702.14 336.08) rotate(-175.95)"/><rect class="cls-8" x="300.13" y="113.09" width="116.77" height="42.6" transform="matrix(-1, -0.07, 0.07, -1, 706.65, 293.75)"/><rect class="cls-9" x="300.8" y="112.17" width="116.77" height="25.48" transform="translate(708.65 274.85) rotate(-175.95)"/><path class="cls-1" d="M370.18,176.72,340.4,142.23l29.68-25.63,20.26,23.47a14.56,14.56,0,0,1-1.5,20.54Z"/></g><g class="cls-18"><path class="cls-2" d="M337.77,141.89,305.4,104.41l-20.27,17.5a15.83,15.83,0,0,0-1.63,22.32l22,25.51Z"/><rect class="cls-7" x="259.18" y="131.39" width="121.71" height="44.4" transform="translate(628.43 329.39) rotate(-175.95)"/><rect class="cls-8" x="260.74" y="109.25" width="121.71" height="44.4" transform="translate(633.12 285.26) rotate(-175.95)"/><rect class="cls-9" x="261.65" y="102.38" width="121.71" height="32.48" transform="translate(635.84 259.68) rotate(-175.95)"/></g><g class="cls-19"><rect class="cls-7" x="278.65" y="98.99" width="116.55" height="42.52" transform="matrix(-1, -0.07, 0.07, -1, 664.53, 263.96)"/><rect class="cls-8" x="280.15" y="77.78" width="116.55" height="42.52" transform="translate(669.02 221.71) rotate(-175.95)"/><rect class="cls-9" x="280.82" y="76.85" width="116.55" height="25.44" transform="matrix(-1, -0.07, 0.07, -1, 671.03, 202.84)"/></g><g class="cls-20"><rect class="cls-7" x="278.66" y="164.35" width="116.77" height="42.6" transform="translate(660.14 394.62) rotate(-175.95)"/><rect class="cls-8" x="280.16" y="143.11" width="116.77" height="42.6" transform="matrix(-1, -0.07, 0.07, -1, 664.64, 352.28)"/><rect class="cls-9" x="280.83" y="142.18" width="116.77" height="25.48" transform="translate(666.65 333.39) rotate(-175.95)"/></g><path class="cls-2" d="M444.31,115.32,412,77.84,379.7,105.69l22,25.5A15.83,15.83,0,0,0,424,132.83Z"/><path class="cls-2" d="M444.19,50l-22-25.51a15.82,15.82,0,0,0-22.31-1.64L379.58,40.36,412,77.84Z"/><path class="cls-2" d="M379.7,105.69l-22-25.51a15.82,15.82,0,0,1,1.63-22.32l20.27-17.5L412,77.84Z"/><path class="cls-2" d="M444.19,50l22,25.5a15.81,15.81,0,0,1-1.63,22.32l-20.27,17.5L412,77.84Z"/><path class="cls-1" d="M443,115.13,412,79.17,381,105.88l21.13,24.47a15.17,15.17,0,0,0,21.41,1.57Z"/><g class="cls-21"><rect class="cls-7" x="372.8" y="70.29" width="116.77" height="42.6" transform="translate(854.84 213.37) rotate(-175.95)"/><rect class="cls-8" x="374.31" y="49.04" width="116.77" height="42.6" transform="translate(859.34 171.04) rotate(-175.95)"/><rect class="cls-9" x="374.98" y="48.12" width="116.77" height="25.48" transform="translate(861.35 152.14) rotate(-175.95)"/><path class="cls-1" d="M444.36,112.67l-29.78-34.5,29.68-25.62L464.52,76A14.56,14.56,0,0,1,463,96.56Z"/></g><g class="cls-22"><path class="cls-2" d="M412,77.84,379.58,40.36l-20.27,17.5a15.82,15.82,0,0,0-1.63,22.32l22,25.51Z"/><rect class="cls-7" x="333.36" y="67.34" width="121.71" height="44.4" transform="translate(781.12 206.68) rotate(-175.95)"/><rect class="cls-8" x="334.92" y="45.2" width="121.71" height="44.4" transform="translate(785.81 162.55) rotate(-175.95)"/><rect class="cls-9" x="335.83" y="38.33" width="121.71" height="32.48" transform="translate(788.53 136.98) rotate(-175.95)"/></g><g class="cls-23"><rect class="cls-7" x="352.83" y="34.94" width="116.55" height="42.52" transform="translate(817.22 141.26) rotate(-175.95)"/><rect class="cls-8" x="354.33" y="13.73" width="116.55" height="42.52" transform="translate(821.71 99) rotate(-175.95)"/><rect class="cls-9" x="355" y="12.8" width="116.55" height="25.44" transform="translate(823.72 80.14) rotate(-175.95)"/></g><g class="cls-24"><rect class="cls-7" x="352.84" y="100.3" width="116.77" height="42.6" transform="translate(812.83 271.91) rotate(-175.95)"/><rect class="cls-8" x="354.34" y="79.06" width="116.77" height="42.6" transform="translate(817.33 229.58) rotate(-175.95)"/><rect class="cls-9" x="355.01" y="78.13" width="116.77" height="25.48" transform="matrix(-1, -0.07, 0.07, -1, 819.34, 210.68)"/></g><path class="cls-4" d="M290.36,351c-.34-.39-.67-.81-1-1.23-11.43-15.44-.6-45,24.94-67s56.33-28.46,69.93-14.89c.37.36.73.75,1.08,1.15a14.57,14.57,0,0,1,1,1.23c.42,1-.24,2.53-1.63,3.73l-89.3,77.11c-1.39,1.2-3,1.62-3.93,1.07C291.07,351.76,290.71,351.38,290.36,351Z"/><rect class="cls-2" x="270.69" y="308.14" width="138.46" height="8.49" rx="1.01" transform="translate(801.36 326.68) rotate(139.19)"/><polygon class="cls-2" points="360.59 336.32 347.98 311.04 342.69 315.6 337.41 320.16 360.59 336.32"/><ellipse class="cls-4" cx="357.77" cy="333.06" rx="6.05" ry="6.33" transform="translate(-130.69 314.78) rotate(-40.81)"/><rect class="cls-4" x="287.95" y="241.59" width="34.79" height="7.3" rx="0.86" transform="translate(696.73 231.3) rotate(139.19)"/><rect class="cls-4" x="277.89" y="230.29" width="31.71" height="7.74" rx="0.92" transform="translate(669.11 219.41) rotate(139.19)"/><rect class="cls-4" x="267.79" y="219.33" width="27.76" height="7.74" rx="0.92" transform="translate(640.72 208.05) rotate(139.19)"/><rect class="cls-25" x="195.13" y="194.33" width="6.04" height="5.39" rx="0.64" transform="translate(178.52 475.76) rotate(-130.81)"/><rect class="cls-25" x="243.64" y="151.87" width="6.04" height="5.39" rx="0.64" transform="translate(290.87 442.28) rotate(-130.81)"/><rect class="cls-25" x="214.34" y="117.94" width="6.04" height="5.39" rx="0.64" transform="translate(268.1 363.99) rotate(-130.81)"/><rect class="cls-25" x="165.55" y="160.07" width="6.04" height="5.39" rx="0.64" transform="translate(155.53 396.72) rotate(-130.81)"/><rect class="cls-25" x="274.33" y="286.69" width="6.04" height="5.39" rx="0.64" transform="matrix(-0.65, -0.76, 0.76, -0.65, 239.57, 688.44)"/><rect class="cls-25" x="322.84" y="244.24" width="6.04" height="5.39" rx="0.64" transform="translate(351.92 654.95) rotate(-130.81)"/><rect class="cls-25" x="269.69" y="182.68" width="6.04" height="5.39" rx="0.64" transform="translate(310.63 512.95) rotate(-130.81)"/><rect class="cls-25" x="220.9" y="224.81" width="6.04" height="5.39" rx="0.64" transform="translate(198.06 545.68) rotate(-130.81)"/><rect class="cls-25" x="202.77" y="143.2" width="28.47" height="5.85" rx="0.69" transform="translate(-42.75 177.35) rotate(-40.81)"/><rect class="cls-25" x="218.87" y="137" width="5.09" height="28.47" rx="0.6" transform="matrix(0.65, 0.76, -0.76, 0.65, 191.18, -115.19)"/><rect class="cls-26" x="245.39" y="179.31" width="4.65" height="9.7" rx="0.55" transform="translate(555.57 161.65) rotate(139.19)"/><rect class="cls-26" x="290.35" y="174.92" width="2.65" height="9.7" rx="0.31" transform="translate(629.94 125.22) rotate(139.19)"/><rect class="cls-26" x="312" y="275.08" width="2.65" height="5.87" rx="0.31" transform="translate(732.17 283.66) rotate(139.19)"/><rect class="cls-26" x="375.21" y="101.66" width="2.65" height="9.7" rx="0.31" transform="translate(731.14 -58.96) rotate(139.19)"/><rect class="cls-26" x="220.53" y="237.12" width="2.65" height="9.7" rx="0.31" transform="translate(547.92 280.12) rotate(139.19)"/><rect class="cls-26" x="135.91" y="310.2" width="2.65" height="9.7" rx="0.31" transform="translate(447 463.81) rotate(139.19)"/></svg>