<?xml version="1.0" encoding="utf-8"?>
<!-- Generator: Adobe Illustrator 22.1.0, SVG Export Plug-In . SVG Version: 6.00 Build 0)  -->
<svg version="1.1" xmlns="http://www.w3.org/2000/svg" xmlns:xlink="http://www.w3.org/1999/xlink" x="0px" y="0px"
	 viewBox="0 0 600 600" style="enable-background:new 0 0 600 600;" xml:space="preserve">
<style type="text/css">
	.st0{fill:#FFFFFF;stroke:#000000;stroke-miterlimit:10;}
	.st1{fill:#D1D3D4;}
</style>
<g id="Layer_2">
	<rect x="-50" y="-18" class="st0" width="738" height="660"/>
</g>
<g id="Layer_1">
	<g>
		<path class="st1" d="M143.1,314.5c-0.1,10.8,1,22.2,2.9,33.5c2.3,13.4,6.1,26.5,10.7,39.3c10.2,28.5,25.9,53.7,45.8,76.2
			c6,6.9,12.7,13,20.7,17.6c8.7,5,17.9,6.8,27.9,5c6.7-1.2,13.1-3.1,19.4-5.6c8.6-3.4,17.3-6.5,26.5-7.8c6.2-0.9,12.5-1.2,18.7-0.4
			c8.4,1,16.4,3.3,24.2,6.4c7.8,3.1,15.6,5.8,23.9,7.2c8.2,1.3,16.2,0.5,23.9-2.7c7.4-3,13.6-7.6,19.3-13.1
			c6.7-6.3,12.2-13.6,17.7-20.9c14.2-18.6,25.1-39,32.6-61.2c0.2-0.6,0.2-0.8-0.5-1.2c-14.1-6-25.6-15.3-34.9-27.4
			c-9.3-11.9-14.2-25.6-15.6-40.5c-0.8-9.4-0.5-18.8,1.6-28c2.7-12.1,8.2-22.8,16.4-32.2c6.5-7.4,14-13.5,22.4-18.7
			c0.7-0.5,0.8-0.7,0.3-1.4c-11-15.2-25.5-25.5-43.2-31.2c-7.3-2.3-14.8-3.9-22.4-4.8c-7.2-0.8-14.3-0.8-21.5,0.3
			c-8.5,1.3-16.7,3.7-24.8,6.5c-8.8,3.1-17.6,6.4-26.5,8.9c-2.7,0.8-5.4,1.4-8.3,0.8c-5.5-1.1-10.9-2.9-16.2-4.7
			c-7.6-2.6-15-5.7-22.8-7.8c-6.5-1.8-12.9-3.4-19.6-3.7c-6.3-0.3-12.5,0.4-18.6,1.6c-18.2,3.5-33.9,11.9-47.2,24.7
			c-11.9,11.5-20.2,25.3-25.7,40.9C145.2,284.4,143.2,298.9,143.1,314.5z M378.9,121.3c0.1-2.3-0.1-4.6-0.3-6.9
			c-0.1-0.7-0.3-0.8-0.9-0.7c-2.3,0.2-4.6,0.5-6.8,0.8c-8.4,1.5-16.2,4.4-23.7,8.2c-23.2,11.9-37.9,30.6-44.8,55.6
			c-2,7.4-2.6,15-1.8,22.7c0.1,0.7,0.3,0.8,1,0.8c3.7,0.1,7.4,0.1,11-0.4c8.2-1.2,15.9-4,23-8.4c13.4-8.2,24-19.3,32.2-32.8
			C375,148.4,378.8,135.4,378.9,121.3z"/>
		<path class="st1" d="M143.1,314.5c0.1-15.5,2.1-30.1,7-44.2c5.5-15.6,13.8-29.4,25.7-40.9c13.3-12.8,29-21.1,47.2-24.7
			c6.1-1.2,12.3-1.8,18.6-1.6c6.7,0.3,13.2,1.8,19.6,3.7c7.8,2.2,15.2,5.2,22.8,7.8c5.4,1.8,10.6,3.6,16.2,4.7
			c2.9,0.6,5.5-0.1,8.3-0.8c9-2.5,17.8-5.8,26.5-8.9c8.1-2.9,16.3-5.2,24.8-6.5c7.1-1.1,14.3-1.2,21.5-0.3
			c7.6,0.9,15.1,2.3,22.4,4.8c17.8,5.7,32.2,16,43.2,31.2c0.5,0.8,0.4,1-0.3,1.4c-8.4,5.2-15.9,11.2-22.4,18.7
			c-8.2,9.3-13.6,20-16.4,32.2c-2.1,9.3-2.5,18.6-1.6,28c1.4,15,6.4,28.6,15.6,40.5c9.3,12,20.9,21.3,34.9,27.4
			c0.7,0.3,0.7,0.6,0.5,1.2c-7.4,22.2-18.4,42.6-32.6,61.2c-5.5,7.2-11.1,14.5-17.7,20.9c-5.7,5.4-11.9,10.1-19.3,13.1
			c-7.7,3.1-15.7,4-23.9,2.7c-8.3-1.3-16.1-4-23.9-7.2s-15.8-5.4-24.2-6.4c-6.3-0.7-12.5-0.5-18.7,0.4c-9.2,1.4-17.9,4.4-26.5,7.8
			c-6.3,2.5-12.7,4.4-19.4,5.6c-9.9,1.8-19.2,0.1-27.9-5c-8-4.6-14.7-10.8-20.7-17.6c-19.8-22.6-35.4-47.8-45.6-76.2
			c-4.6-12.9-8.3-25.9-10.7-39.3C144,336.7,143,325.2,143.1,314.5z"/>
		<path class="st1" d="M378.9,121.3c0,14.1-3.9,27.2-11.2,39.2c-8.2,13.4-18.7,24.5-32.2,32.8c-7,4.3-14.8,7.2-23,8.4
			c-3.7,0.5-7.4,0.6-11,0.4c-0.6,0-0.9-0.1-1-0.8c-0.8-7.7-0.3-15.3,1.8-22.7c6.9-25,21.7-43.7,44.8-55.6c7.5-3.9,15.3-6.7,23.7-8.2
			c2.2-0.4,4.5-0.7,6.8-0.8c0.7-0.1,0.8,0.1,0.9,0.7C378.7,116.8,378.9,119.1,378.9,121.3z"/>
	</g>
</g>
</svg>
