<svg xmlns="http://www.w3.org/2000/svg" viewBox="0 0 693 654"><defs><style>.cls-1{fill:#fff;}.cls-2{fill:#557dbf;}.cls-3{fill:#36a852;}.cls-4{fill:#f9bc17;}.cls-5{fill:#ea4535;}</style></defs><title>google</title><g id="Layer_2" data-name="Layer 2"><rect class="cls-1" width="693" height="654"/></g><g id="Layer_1" data-name="Layer 1"><path class="cls-2" d="M119.4,270.5h31.9c1.3,0,1.9.2,2.1,1.7,2.2,19.2-.6,37.3-12.7,52.8-10.1,13-23.5,20.9-39.8,23.8-13.6,2.4-27.1,2-40.1-2.9C34.3,335.8,17.4,317,12.1,289c-3.7-19.7.8-38,12.5-54.3,11.9-16.5,27.9-26.8,47.9-30.2,22.2-3.8,42.4,1.1,59.8,15.9.9.8,1.8,1.7,2.7,2.4s.6,1,0,1.6c-4.2,4.1-8.3,8.2-12.4,12.4-.8.8-1.2.8-1.9,0a49.29,49.29,0,0,0-25.5-12.6c-16.6-2.7-31.6,1-44.4,12.2-10.6,9.3-16.4,21.2-17.8,35.2a53.07,53.07,0,0,0,28.5,52.7c9.5,5,19.7,6.4,30.4,5.4a48.73,48.73,0,0,0,23.6-8.4,39.72,39.72,0,0,0,17.4-27.5c.6-3.4.6-3.4-2.9-3.4H87c-1.4,0-1.7-.4-1.7-1.7.1-5.6.1-11.1,0-16.7,0-1.4.4-1.7,1.8-1.7C97.9,270.6,108.7,270.5,119.4,270.5Z" transform="translate(52 21)"/><path class="cls-3" d="M490.3,277.9v67.6c0,1.8,0,1.8-1.9,1.8H471.6c-1.2,0-1.5-.3-1.5-1.5V210c0-1,.2-1.4,1.3-1.4,5.9.1,11.7.1,17.6,0,1.2,0,1.4.4,1.4,1.5Q490.25,244,490.3,277.9Z" transform="translate(52 21)"/><path class="cls-2" d="M457.8,259.8c0-1-.3-1.3-1.3-1.3-5.7,0-11.4.1-17.1,0-1.1,0-1.4.4-1.4,1.4.1,1.6,0,3.2,0,4.8,0,.5.3,1.2-.3,1.4s-.8-.4-1.1-.8a30.84,30.84,0,0,0-3.3-3c-9.9-7.1-20.8-8.4-32.2-5.1a47.39,47.39,0,0,0-33.5,52.6c2.6,17,12,29.4,27.7,36.6a38.51,38.51,0,0,0,29.8,1.5,28.08,28.08,0,0,0,11.7-7.8c.3-.3.5-.7.9-.6s.4.5.4.8c0,4.6.3,9.2-.6,13.7-1,5.2-2.9,10.1-7.1,13.7-7.9,6.8-17,7.8-26.5,4.4-6.8-2.4-11.3-7.5-14.3-13.9-.4-.8-.7-1.1-1.7-.7Q380,361,372,364.1c-1,.4-.9.8-.6,1.6,5,10.5,12.6,18.4,23.3,23s22,4.8,33.2,1.6c11.6-3.3,20-10.5,25.1-21.6a54.28,54.28,0,0,0,4.8-22.8c.1-14,0-28,0-41.9h0V259.8Zm-24.2,61.9c-9.3,12.7-28,13.2-38.4,1.3-4.8-5.6-7.5-12.8-7.3-23.2,0-4.5,2.3-11.5,7.6-17.2,12.5-13.5,33.1-10.4,40.8,6.2C441.6,300.2,441,311.5,433.6,321.7Z" transform="translate(52 21)"/><path class="cls-4" d="M312.1,255.7c-26.9,0-47.5,20.6-47.4,47.4.1,26.6,20.8,47.3,47.5,47.2s47.4-20.7,47.4-47.3C359.6,276.1,339,255.6,312.1,255.7Zm14.1,71.7a25.67,25.67,0,0,1-34.1-5.3c-8.9-10.6-8.8-28,.1-38.5A26.22,26.22,0,0,1,337,292a30.68,30.68,0,0,1,1.4,5.2,36.79,36.79,0,0,1,.5,5.8C338.6,313.2,334.9,321.7,326.2,327.4Z" transform="translate(52 21)"/><path class="cls-5" d="M209.7,255.7c-26.9,0-47.5,20.6-47.5,47.3s20.8,47.3,47.5,47.3,47.4-20.7,47.5-47.3C257.2,276.2,236.6,255.7,209.7,255.7Zm19.6,66.9C216,337.9,192,333,184.9,313.8a31.28,31.28,0,0,1-1.9-10.9c.2-10,3.7-18.4,12.2-24.2,14.8-10,34.8-2.5,39.8,15C238,304.2,236.6,314.2,229.3,322.6Z" transform="translate(52 21)"/><path class="cls-5" d="M524.4,316.7c11.3-4.7,22.7-9.3,34-14,9-3.7,17.9-7.4,26.9-11.1.6-.2,1.3-.2.9-1.3-2.2-5.5-4.4-10.9-7.8-15.8-16-23.6-44.7-22.9-61.6-9.6-11.2,8.8-16.5,20.6-17.5,34.6-.7,10.3,1.3,20,6.8,28.7,9.2,14.7,22.9,21.6,40,22.1,1,0,1.9-.1,2.9-.1,15.1-.9,26.9-7.8,35.9-19.9.4-.5.8-.9-.1-1.5-4.9-3.2-9.7-6.4-14.5-9.6-.7-.5-1-.3-1.5.3-.8,1.1-1.7,2.2-2.6,3.3-10.6,12.5-33.6,12.8-42.4-4.2C523.2,317.4,523.4,317.1,524.4,316.7Zm-2.8-16c-1.8.8-2,1.3-1.8-1.3v-.6c.7-12.7,9.3-22.6,21.6-24.6,7.1-1.1,13.6.6,18.5,6.3,2.6,3,2.5,3.3-1,4.7C546.5,290.4,534,295.6,521.6,300.7Z" transform="translate(52 21)"/></g></svg>