<?xml version="1.0" encoding="utf-8"?>
<!-- Generator: Adobe Illustrator 21.1.0, SVG Export Plug-In . SVG Version: 6.00 Build 0)  -->
<svg version="1.1" id="Layer_1" xmlns="http://www.w3.org/2000/svg" xmlns:xlink="http://www.w3.org/1999/xlink" x="0px" y="0px"
	 viewBox="0 0 600 600" style="enable-background:new 0 0 600 600;" xml:space="preserve">
<style type="text/css">
	.st0{fill:#23205F;}
	.st1{fill:#6A64AC;}
	.st2{fill:#22205F;}
	.st3{fill:#CFCFCF;}
	.st4{fill:#AFAEB0;}
	.st5{fill:#CCCCCB;}
	.st6{fill:#CACAC9;}
	.st7{fill:#D0CFCF;}
	.st8{fill:#CECECF;}
	.st9{fill:#D6D6D7;}
	.st10{fill:#CDCDCE;}
	.st11{fill:#CBCBCB;}
	.st12{fill:#CCCCD2;}
	.st13{fill:#CDCDCD;}
	.st14{fill:#D5D5D5;}
	.st15{fill:#D2D2D1;}
	.st16{fill:#CECECE;}
	.st17{fill:#CAC9C9;}
	.st18{fill:#BCBBBD;}
	.st19{fill:#C0BFC5;}
	.st20{fill:#C8C8CE;}
	.st21{fill:#B8B7BC;}
	.st22{fill:#C1C0C3;}
	.st23{fill:#BCBBC2;}
	.st24{fill:#D0CFD7;}
	.st25{fill:#AAA9AC;}
	.st26{fill:#ABABAE;}
	.st27{fill:#AFAFB2;}
	.st28{fill:#CECDCD;}
	.st29{fill:#CBCACB;}
	.st30{fill:#B0B0B2;}
	.st31{fill:#ACABB1;}
	.st32{fill:#A1A1A4;}
	.st33{fill:#B7B6B8;}
	.st34{fill:#ADADB0;}
	.st35{fill:#A5A5A8;}
	.st36{fill:#A1A1A5;}
	.st37{fill:#CCCBCB;}
	.st38{fill:#A8A8AA;}
	.st39{fill:#B5B5B7;}
	.st40{fill:#B1B1B3;}
	.st41{fill:#A3A2A6;}
	.st42{fill:#D3D3D3;}
	.st43{fill:#C9C9CA;}
	.st44{fill:#D0D0D0;}
	.st45{fill:#CBC9D2;}
	.st46{fill:#9F9FA3;}
	.st47{fill:#CCCCCE;}
	.st48{fill:#AFAEB2;}
	.st49{fill:#ACACB0;}
	.st50{fill:#ACACAF;}
	.st51{fill:#A1A0A4;}
	.st52{fill:#A6A5AA;}
	.st53{fill:#A6A6A9;}
	.st54{fill:#B3B3B5;}
	.st55{fill:#A9A8AC;}
	.st56{fill:#BAB9BA;}
	.st57{fill:#A9A8AB;}
	.st58{fill:#C9C9C9;}
	.st59{fill:#D1D1D1;}
</style>
<g id="RulesMatix_x5F_original">
	<g>
		<path class="st0" d="M190.1,418.7c-2.5-0.1-2.5-0.1-2.5-2.6c0-14.6,0-29.2,0-43.8c0-4.1-0.4-8.2-2-12.1c-0.1-0.1-0.2-0.3-0.2-0.4
			c-1.1-1.3-1.8-3-3.3-4.1c-4.2-3.3-10.4-2.7-14,0.1c-2.7,2.1-4.3,4.8-5.1,8.1c-0.4,1.5-0.5,3-0.5,4.6c0,15.5,0,31.1,0,46.6
			c0,0.9,0,1.8-0.1,2.7c0,0.8-0.5,1.2-1.3,1.2c-0.2,0-0.4,0-0.6,0c-6.1,0-12.2,0-18.2,0c-1.2-0.2-2.4,0.3-3.6-0.3
			c-2.4-0.1-2.4-0.1-2.4-2.6c0-15,0-30.1,0-45.1c0-3.4-0.3-6.8-1.6-10c-0.1-0.3-0.3-0.6-0.5-0.9c-0.8-0.8-1.2-1.9-1.9-2.8
			c-0.5-0.9-1.3-1.3-2-2c-5.8-3.6-12.7-1.8-16.6,4.1c-1.6,2.5-2.5,5.3-2.6,8.3c-0.5,16.2-0.1,32.4-0.2,48.6c0,2.8,0,2.8-2.8,2.8
			c-5.8,0-11.6,0-17.4,0c-1.2-0.2-2.4,0.3-3.6-0.3c-2.2-0.1-2.2-0.1-2.2-2.4c0-19.4,0-38.7,0-58.1c0-7.7-0.2-15.5-0.7-23.2
			c-0.1-1.1,0.3-1.3,1.3-1.3c6.5,0,12.9,0,19.4,0c1.1,0,1.8,0.1,1.7,1.4c0,0.3,0.1,0.7,0.1,1.1c0.9,2.7,0.7,5.5,1.3,8.3
			c1.2-1,1.6-2.5,2.9-3.1c4.8-4.7,10.2-8.1,17-9.1c5.2-0.7,10.2-0.7,15.2,1c2.9,1,5.4,2.5,7.8,4.3c2.5,1.7,4.2,4.1,5.6,6.7
			c0.8,1.5,0.8,1.5,1.9,0.3c0.2-0.2,0.3-0.4,0.6-0.6c1.9-1.9,3.6-3.8,5.7-5.5c6.1-4.9,13-6.9,20.8-6.7c6.9,0.2,12.9,2.5,17.9,7.2
			c1.6,1.1,2.6,2.6,3.7,4.1c1.5,2.1,2.6,4.4,3.5,6.8c1.5,4.1,2.2,8.3,2.7,12.5c0.2,2.2,0.2,4.4,0.2,6.7c0,15.7,0,31.5,0,47.2
			c0,2.6-0.1,2.7-2.6,2.7c-5.9,0-11.7,0-17.6,0c-0.8-0.1-1.6,0-2.4,0C190.6,419,190.4,418.9,190.1,418.7z"/>
		<path class="st1" d="M182.3,264.8c-5.4-6.2-7.3-13.7-8.1-21.7c-0.6-5.9-0.4-11.9-0.4-17.8c0-12.5,0-24.9,0-37.4
			c0-1.1,0.2-1.4,1.3-1.4c7.9,0,15.9,0.1,23.8,0c1.2,0,1.6,0.4,1.5,1.5c0,0.3,0,0.6,0,0.9c0.7,1,0.2,2.1,0.4,3.1c0,14,0,28.1,0,42.1
			c0,4.4,0.8,8.8,3.2,12.6c1.1,1.7,2.4,3,4.2,3.8c0.2,0.1,0.4,0.3,0.5,0.5c8.8,3.4,18.8-3.3,18.8-12.7c0.1-16.8,0.1-33.6,0-50.4
			c0-1.2,0.2-1.5,1.5-1.5c8.3,0.1,16.7,0.1,25,0.1c0.1,1.6,0.4,3.2,0.6,4.9c0,16.9,0.1,33.8,0,50.7c0,9,0.2,18,0.5,27
			c0.1,2.6-0.1,2.7-2.7,2.6c-5.2,0-10.5,0.1-15.7,0c-0.9-0.1-1.9,0.2-2.7-0.3c-2-0.1-2-0.1-2.3-2.1c-0.1-0.4-0.1-0.9-0.2-1.3
			c-0.5-0.9-0.5-1.9-0.6-2.9c-0.1-0.8-0.1-1.6-0.3-2.3c-0.2-0.8,0-1.7-0.4-2.7c-0.9,1.2-1.6,2.2-2.5,3.2c-3.4,3.6-7.3,6.6-12,8.3
			c-2.5,0.9-5.2,1.5-7.9,1.7c-0.8,0.1-1.5,0.2-2.2,0.3c-3.7,0.1-7.5,0-11.1-1c-0.8-0.2-1.6-0.5-2.4-0.8c-3.3-1.3-6.3-3.1-8.8-5.6
			C183,265.7,182.6,265.3,182.3,264.8z"/>
		<path class="st0" d="M474.7,357.7c1.4-2.7,2.8-5.3,4.2-8c2.7-5.1,5.5-10.1,8.2-15.2c0.2-0.4,0.4-0.7,1-0.7c9.2,0,18.4,0,27.6,0
			c0.1,0,0.1,0.1,0.3,0.1c-0.4,0.6-0.7,1.2-1.1,1.8c-0.1,0.4-0.3,0.8-0.5,1.1c-0.5,0.7-1,1.4-1.5,2.1c-7.3,10.6-14.7,21.1-21.9,31.8
			c-0.6,0.9-1.3,1.8-1.9,2.7c-0.4,0.6-0.4,1.1,0,1.6c0.5,0.7,0.9,1.6,1.5,2.3c5.7,9,11.5,18,17.2,27.1c2.6,4.1,5.3,8.3,7.9,12.4
			c1.2,1.8,1.1,1.9-1,2.1c-8.1,0-16.1,0-24.2,0c-0.8-0.1-1.6,0-2.4,0c-0.4,0-0.7-0.1-1-0.3c-0.6,0-0.7-0.5-1-0.9
			c-3.7-6.6-7.3-13.2-11-19.9c-0.9-0.8-1.1-2.1-1.8-3c-0.3-0.4-0.5-0.8-0.6-1.2c-0.3-0.7-0.7-1.4-1-2.1c-0.3-0.5-0.5-0.6-0.8,0
			c-1.4,3.1-3,6.1-4.6,9.1c-2.9,5.7-5.9,11.4-8.9,17.1c-0.3,0.6-0.8,1.1-1.5,1.2c-6.7,0.1-13.3,0-20,0.1c-0.9-0.1-1.8,0-2.7,0
			c-0.4,0-0.9,0-1.2-0.3c-1.4,0-2.8,0-4.1,0c-0.3-0.4,0.1-0.6,0.2-0.8c9.2-13.8,18.4-27.6,27.6-41.4c0.6-0.9,0.6-1.4,0-2.3
			c-9-13.3-18-26.7-27-40c-0.1-0.1-0.1-0.2-0.2-0.4c0.4-0.2,0.8-0.1,1.1-0.1c8.9,0,17.8,0,26.7,0c1.2,0,1.9,0.3,2.4,1.4
			c0.2,0.5,0.5,0.9,0.8,1.3c1.2,1,1.7,2.4,2.4,3.6c3.8,6.2,7.3,12.6,10.7,19.1c0.1,0.3,0.2,0.7,0.6,0.6c0.3,0,0.3-0.4,0.5-0.6
			C474,358.7,474.2,358,474.7,357.7z"/>
		<path class="st0" d="M362.4,398.4c2.2,0.8,4.5,0.5,6.7,0.4c1.3-0.1,2.5-0.2,3.8-0.4c0.9-0.2,1.1,0.1,1,0.9c0,0.2,0,0.4,0,0.6
			c0,1,0.4,1.9,0.3,2.8c-0.2,4.3,0.4,8.6,0.2,13c0,0.5,0,1,0,1.4c0,1-0.4,1.5-1.4,1.8c-2.4,0.8-4.8,1.2-7.2,1.4
			c-4.7,0.5-9.5,0.6-14.2,0.1c-2.1-0.2-4.1-0.8-6.1-1.6c-2.9-1-5.4-2.6-7.7-4.6c-0.3-0.2-0.5-0.5-0.6-0.9c-5-5.5-6.7-12.3-7.2-19.5
			c-0.6-9.4-0.1-18.9-0.3-28.3c0-1.9,0-3.8,0-5.7c0-1.6-0.4-3.2-0.3-4.8c0-1.3-0.1-1.5-1.5-1.5c-1.1,0-2.1,0-3.2,0
			c-2,0.1-4.1-0.3-6.1-0.4c-0.2-0.3-0.1-0.6-0.1-0.9c0-5.8,0-11.6,0-17.4c0-0.8,0.2-1.1,1-1.1c3.1,0.1,6.1,0,9.2,0
			c0.9,0,1.1-0.2,1.1-1.1c0-5.4,0-10.9,0-16.3c0-0.8,0.2-1.1,1-1.3c8.1-1.8,16.2-3.7,24.4-5.6c0.1,0,0.2,0,0.4,0
			c0.3,0.4,0.1,0.8,0.1,1.2c0.7,7.2,0.5,14.3,0.5,21.5c0,1,0.5,1.2,1.4,1.3c5.3,0.5,10.5,0.1,15.8,0.3c0.4,0,0.9-0.1,1.3,0.1
			c0,0.8,0,1.6,0.1,2.3c0.6,0.9,0.2,1.9,0.3,2.9c0,4.1,0,8.3,0,12.4c0,1.8-0.3,2-2,2c-5,0-10,0-15,0c-1.8,0-1.7,0-1.8,1.8
			c-0.4,8.3-0.3,16.6-0.2,24.9c0.1,3.6-0.1,7.1,0.6,10.7c0.4,1.7,1,3.3,2,4.7C359.5,397,361.1,397.6,362.4,398.4z"/>
		<path class="st1" d="M443.4,216.3c2.8,1.5,5.8,2.5,8.8,3.5c5.4,1.9,10.4,4.4,14.8,8.2c2.2,1.4,3.5,3.5,4.7,5.7
			c0.5,0.9,1,1.9,1.4,2.9c0.8,1.9,1.2,3.9,1.5,5.9c0.2,1,0.2,2,0.2,3c0,4.4-1,8.5-3,12.4c-2.3,4.4-5.8,7.7-10.1,10.1
			c-4.1,2.3-8.6,3.7-13.2,4.5c-2.1,0.4-4.1,0.9-6.2,0.8c-1.9,0-3.8,0-5.7,0c-4.6,0.1-9.2-0.5-13.7-1.4c-2-0.5-4.1-0.8-6-1.6
			c-1.2-0.5-2.6-0.8-3.6-1.7c-0.1,0-0.1-0.1-0.2-0.1c-0.9-0.5-2.3-0.7-2.7-1.6c-0.3-0.8,0.3-2,0.6-3c1.2-4.9,2.4-9.7,3.6-14.6
			c0.2-0.9,0.5-1,1.3-0.6c6.7,3.5,13.8,5.6,21.5,5.8c2.1,0.1,4.3-0.1,6.3-0.7c4.1-1.2,5.8-4,5-8.1c-1.6-3.6-4.9-4.9-8.2-6.2
			c-3.7-1.5-7.6-2.6-11.2-4.4c-2.8-1.4-5.6-3-8.1-4.9c-0.6-0.5-1-1.1-1.5-1.6c-3.4-3.3-6.1-7.2-6.9-11.9c-1.2-6.5,0-12.7,3.6-18.3
			c4.1-6.2,9.9-10,17-12c7.5-2.2,15.1-2.3,22.8-1.2c4.7,0.7,9.2,1.8,13.6,3.7c0.7,0.3,1,0.7,0.8,1.4c0.2,1-0.4,1.9-0.5,2.9
			c-1,4.3-2.2,8.6-3.3,12.9c-0.1,0.6-0.2,1.3-1,1.5c-0.7,0-1.2-0.4-1.8-0.7c-4-1.8-8.1-3.2-12.5-3.6c-2.6-0.2-5.1-0.3-7.7,0.1
			c-1.5,0.3-2.8,1-4,2c-2.3,2-2.4,6.4-0.1,8.1C440.8,214.7,442.3,215.3,443.4,216.3z"/>
		<path class="st1" d="M277.6,271.5c-2.2-0.1-2.2-0.1-2.2-2.3c0-39.8,0-79.5,0-119.3c0-1.9-0.2-1.7,1.6-1.7c7.8,0,15.6,0,23.5,0
			c0.4,0,0.8,0,1.2,0.1c0.1,1.3,0.3,2.6,0.3,3.9c0.1,3.6,0,7.2,0,10.8c0,33.2,0,66.4,0,99.6c0,2,0.3,4,0.3,6.1
			c-0.1,3-0.3,3.2-3.3,3.2c-6.2,0-12.3,0.1-18.5,0C279.6,271.7,278.5,272,277.6,271.5z"/>
		<path class="st1" d="M110.6,271.5c-2.4-0.1-2.4-0.1-2.4-2.6c0-20.1,0-40.2,0-60.3c0-6.9-0.2-13.7-0.6-20.6
			c-0.1-1.2,0.3-1.5,1.5-1.5c6.6,0.1,13.3,0,19.9,0c1,0,1.5,0.2,1.4,1.3c0,0.6,0.1,1.3,0.2,1.9c0.5,1.3,0.4,2.6,0.5,4
			c0.2,2.4,0.1,4.7,0.4,7.1c0,0.2,0,0.3,0.2,0.5c1.1-1.7,1.5-3.7,3-5.1c4.8-7.1,11.4-11.2,20.1-11.5c1.6,0,3.2-0.1,4.8,0.2
			c0.5,0.1,0.8,0.3,0.8,0.8c0,1.1,0.4,2.2,0.3,3.3c0,0.5,0,1,0,1.5c0,5.8,0,11.7,0,17.5c0,2-0.3,2.2-2.3,1.9
			c-4.3-0.5-8.6-0.7-12.7,0.9c-5.5,2.1-8.9,6.1-10.1,11.8c-0.4,1.7-0.4,3.4-0.4,5.1c0,12.9,0,25.8,0,38.7c0,1.4-0.2,2.8-0.3,4.2
			c0,0.8-0.5,1.1-1.2,1.2c-0.3,0-0.6,0-0.8,0c-5.8,0-11.7,0-17.5,0c-0.7-0.1-1.3,0-2,0C112.3,271.7,111.4,272,110.6,271.5z"/>
		<path class="st2" d="M392.2,418.7c-2.2-0.1-2.2-0.1-2.2-2.3c0-27.1,0-54.2,0-81.3c0-1.1,0.2-1.4,1.3-1.4c7.8,0.1,15.6,0.1,23.5,0
			c1.2,0,1.8,0.2,1.5,1.5c0,0.2,0,0.5,0,0.7c0.5,1.3,0.3,2.7,0.3,4c0,25.6,0,51.3,0,76.9c0,1.9-0.2,2.2-2.1,2.2
			c-6.3,0-12.6,0-18.9,0C394.5,418.8,393.3,419.4,392.2,418.7z"/>
		<path class="st0" d="M393.2,319.8c-5.3-5-4.7-13.8-1.3-18c2.2-2.7,5.1-4.2,8.5-4.7c4.1-0.6,8-0.1,11.4,2.3
			c0.6,0.4,1.1,0.9,1.6,1.4c2.4,1.8,3.3,4.4,3.8,7.2c1.3,7.6-3.7,14.3-11.3,15.5c-2.2,0.3-4.4,0.4-6.6-0.2
			C397.1,322.6,394.8,321.9,393.2,319.8z"/>
		<path class="st3" d="M277.6,271.5c1,0,1.9,0,2.9,0c0.4,1.6,1,2.1,2.9,2.1c3.8,0.1,7.5,0,11.3,0c1.7,0,3.4,0,5.1,0
			c3,0,4.6-1.6,4.3-4.7c-0.2-2-0.2-4-0.2-6.1c0-33.9,0-67.9,0-101.8c0-1.9,0.3-3.7,0-5.6c-0.2-1.1-0.4-2.1-1.6-2.4
			c-0.6-0.1-0.4-0.7-0.5-1.1c0-1.3-0.1-2.6-0.1-3.9c0.2,0.7,1.7,2.2,2.4,2.6c1.2,0.7,1.9,1.8,2.1,3.2c0.2,1,0.3,2,0.3,2.9
			c0,37.4,0,74.7,0,112.1c0,1.1-0.1,2.1-0.3,3.2c-0.5,2.3-2.3,3.7-4.9,3.7c-2.9,0-5.8,0-8.8,0c-3.3,0-6.7,0.1-10,0
			c-1.7,0-3.4-0.5-4.3-2.2C277.7,273,277.6,272.3,277.6,271.5z"/>
		<path class="st4" d="M395.5,418.7c6.5,0,12.9-0.1,19.4,0c1.1,0,1.4-0.3,1.4-1.4c-0.1-26.9-0.1-53.7-0.1-80.6c0-0.2,0-0.5,0-0.7
			c0.1,0.1,0.1,0.2,0.2,0.2c0.4,0.5,0.3,1.1,0.3,1.7c0,0.1,0.1,0.2,0.2,0.3c1.8,0.9,2,2.5,2,4.2c0,24.7,0,49.4,0,74.1
			c0,0.6,0,1.2-0.1,1.8c-0.4,1.9-1.6,3-3.6,3.1c-5.8,0.1-11.7,0.1-17.5,0c-2,0-2.9-0.8-3.2-2.2C394.7,418.7,395.2,418.9,395.5,418.7
			z"/>
		<path class="st5" d="M110.6,271.5c0.9,0,1.7,0,2.6,0c-0.1,1.3,0.4,1.9,1.7,2.1c1.1,0.1,2.3,0.3,3.4,0.3c4,0,8,0,12,0
			c1.2,0,2.4-0.2,3.7-0.3c1.5-0.1,2.4-1,2.7-2.4c0.2-0.8,0.2-1.6,0.2-2.4c0-12.2,0-24.5,0-36.7c0-3.7,0.5-7.4,2.2-10.8
			c2.5-5,6.6-8,12.1-9.1c2.5-0.5,5.1-0.8,7.7-0.6c2,0.2,3.1-0.8,3.6-2.7c0.2-0.8,0.2-1.6,0.2-2.4c0-4.1,0-8.2,0-12.3
			c0-0.8-0.1-1.6-0.2-2.4c-0.2-1.1-0.6-2.1-1.8-2.5c-0.2-0.1-0.4-0.3-0.5-0.5c0-1.1,0-2.2,0-3.3c0.1,1,0.6,1.4,1.6,1.7
			c2.2,0.6,2.8,2.6,2.8,4.5c0.1,5.8,0.1,11.7,0,17.5c0,2.6-1.9,4.4-4.5,4.4c-3.5,0-7-0.2-10.5,1c-6.1,2.1-9.3,6.5-10.3,12.7
			c-0.4,2.7-0.4,5.5-0.5,8.3c-0.1,11.4,0,22.9,0,34.3c0,4-1.7,5.8-5.7,5.8c-5.9,0.1-11.8,0.1-17.7,0c-1.8,0-3.5-0.6-4.6-2.3
			C110.5,272.9,110.8,272.2,110.6,271.5z"/>
		<path class="st6" d="M182.5,355.7c1.3,1.1,2.3,2.5,2.9,4.1c-1,0.2-1.6-0.7-2.4-1.1c-4-1.9-7.7-1.2-11.1,1.3c-3,2.2-4.5,5.3-5,8.9
			c-0.5,3.5-0.5,7.1-0.5,10.7c0,12.7,0,25.5,0,38.2c0,1.8-0.6,3.3-2,4.5c-1.1,0.9-2.4,0.9-3.6,0.9c-5.6,0.1-11.2,0.1-16.8,0
			c-1.8,0-3.6-0.4-4.8-2.2c-0.5-0.7-0.5-1.5-0.5-2.3c1.2,0,2.4,0,3.6,0c-0.5,0.9-0.5,1.1,0.5,1.5c0.7,0.3,1.5,0.4,2.3,0.4
			c4.9,0,9.8,0,14.7,0c2.9,0,3.9-1,4.2-3.9c0.1-1-0.1-2.1-0.1-3.1c0-13.1,0-26.2,0-39.3c0-2.9,0.2-5.8,1.1-8.6
			c1.8-5.9,6.6-10.2,13.2-10.6C179.6,355.1,181.1,355.4,182.5,355.7z"/>
		<path class="st7" d="M254.3,191.4c-0.3-1.6-0.2-3.2-0.2-4.8c0.4,1.1,1.3,1.8,2.5,2.6c1.7,1,2.1,2.7,2.2,4.5c0.1,1,0,2,0,3
			c0,19.5-0.1,39,0,58.5c0,3.4,0,6.9,0.2,10.3c0.1,2.4,0.4,4.7-0.1,7.1c-0.4,1.9-2.2,3.4-4.1,3.4c-5.4,0-10.9,0.1-16.3,0
			c-3-0.1-3.8-1.2-4.7-3.6c-0.1-0.2,0.1-0.5,0.1-0.8c0.9,0,1.8,0,2.6,0c0.5,1.6,1.7,2.1,3.2,2.1c4.6,0.1,9.2,0.1,13.8,0
			c1.7,0,3-1.2,3-2.9c0.1-3.2,0.2-6.5,0-9.8c-0.1-1.4,0-2.8,0-4.3c-0.1-3.3-0.4-6.6-0.1-9.9c0.1-1.4-0.2-2.8-0.2-4.3
			c0.5-14.8,0.1-29.5,0.3-44.3c0-1.5-0.2-3-0.3-4.5C256.1,192.5,255.4,191.8,254.3,191.4z"/>
		<path class="st3" d="M472.8,236.6c-1.3-3.3-3.4-6.1-5.8-8.6c1.8,0.2,2.9,1.4,4.1,2.5c4.2,3.9,6.7,8.8,7.5,14.4
			c1,7.2-0.4,14-4.8,19.9c-3.4,4.6-8,7.8-13.4,9.7c-4.1,1.5-8.3,2.4-12.7,2.8c-2.8,0.2-5.6,0.6-8.4,0.4c-3.2-0.1-6.4-0.4-9.5-0.9
			c-4.2-0.6-8.4-1.6-12.4-3.1c-1-0.4-2-0.8-2.9-1.6c-1.1-0.9-1.6-2-1.4-3.4c1.3,0.3,2.4,0.9,3.6,1.4c-0.2,0.8,0.5,1,1,1.2
			c1.9,0.9,3.9,1.7,6,2.2c5.9,1.3,12,2.1,18.1,2c6.3-0.1,12.5-1.1,18.4-3.3c3.6-1.4,6.8-3.6,9.7-6.4c4.3-4.2,6.3-9.4,6.6-15.1
			c0.3-4.2-0.3-8.4-2.3-12.3C473.9,237.8,473.4,237.2,472.8,236.6z"/>
		<path class="st8" d="M487,418.7c0.3,0,0.6,0,1,0c0.4,0.1,0.7,0.4,0.9,0.7c1.2,1.6,3,2.2,4.9,2.2c6.7,0,13.3,0,20,0
			c0.3,0,0.6,0,0.9-0.1c2.4-0.4,3-1.7,1.8-3.8c-2.7-4.8-5.8-9.3-8.7-13.9c-4.2-6.7-8.4-13.3-12.8-20c-0.8-1.3-1.6-2.5-2.3-3.9
			c-0.9-1.9-0.6-3.7,0.4-5.4c1.6-2.7,3.5-5.3,5.3-7.9c3.1-4.5,6.3-9,9.4-13.5c2.5-3.6,5-7.1,7.4-10.7c0.3-0.5,0.7-1,0.9-1.5
			c0.8-1.7,0.4-2.7-1.3-3.5c-0.3-0.1-1-0.1-0.7-0.8c0.1-0.4,0.3-0.8,0.7-1c0.3,0.4,0.7,0.2,1.1,0.3c2.1,0.2,3.1,1.8,2.6,3.9
			c-0.5,1.8-1.7,3.3-2.7,4.8c-4.1,5.9-8.2,11.7-12.2,17.6c-2.9,4.2-5.8,8.4-8.6,12.6c-1.3,1.9-1,3.7,0.1,5.6c2,3.6,4.5,6.9,6.6,10.4
			c2.2,3.7,4.5,7.5,7,11c2.2,3.2,4.2,6.5,6.3,9.7c1.5,2.3,3.1,4.5,4.1,7.1c1,2.5-1,4.3-3,4.4c-7.1,0.5-14.2,0.2-21.3,0.2
			c-1.7,0-3.5,0-5-1C488.4,421.4,487.2,420.4,487,418.7z"/>
		<path class="st5" d="M362.4,398.4c-1.6-0.2-2.9-1.1-3.9-2.4c0.3-1.1-0.2-2.2-0.4-3.2c-0.2-1.2-0.3-2.4-0.3-3.7
			c0-9.4,0.1-18.8,0-28.2c0-3.6,2.1-5.5,5.5-5.5c3.4,0,6.7,0.3,10.1-0.2c2.2-0.3,3-1,3.2-3.2c0.2-3.7,0.3-7.4-0.1-11.1
			c-0.1-1.1-0.6-1.8-1.7-1.9c0-1,0-1.9,0-2.9c2.6,0,4,1.5,4.3,4.1c0.4,3.6,0.1,7.2,0.2,10.8c0,1.2-0.2,2.4-0.5,3.6
			c-0.4,1.8-2.1,2.7-4.3,2.9c-3.2,0.3-6.5,0.3-9.7,0.2c-3.4-0.1-4.5,1.4-4.5,4.5c0,6.4,0,12.8,0,19.2c0,2.9,0.3,5.8,0.3,8.8
			C360.3,393.2,361.4,395.8,362.4,398.4z"/>
		<path class="st9" d="M392.2,200.2c-1.7-2.1-3.2-4.3-5.3-6.2c-0.9-0.8-1.7-1.6-2.6-2.4c1.3,0.1,2.4,0.9,3.4,1.6
			c4.1,2.6,7.1,6.3,9.6,10.3c2.2,3.5,3.7,7.4,4.7,11.4c1.2,4.4,1.7,8.8,2,13.3c0.2,3,0,5.9-0.4,8.8c-0.6,4.1-2.4,5.3-6.7,5.3
			c-14.5,0.1-29,0-43.6,0c-0.4,0-0.8,0-1.2,0c-1.6,0.2-2.8,0.8-2,3.1c0.5,1.5,1.3,2.7,2.4,3.8c0.4,0.4,1.1,0.7,1.1,1.5
			c-1.9-0.7-3.5-1.8-5-3.2c-0.1-0.2,0.1-0.4,0.2-0.6c0.1-0.5-0.2-0.8-0.4-1.2c-1.1-2.9,0.2-4.8,3.3-4.9c3-0.1,6,0,9.1,0
			c12.1,0,24.1,0,36.2,0c0.4,0,0.8-0.1,1.2-0.2c2.4-0.2,3.5-1.6,3.9-3.8c0.2-0.9,0.4-1.9,0.3-2.8c-0.1-3.4,0.3-6.8-0.3-10.2
			c-0.5-3.1-0.8-6.2-1.9-9.2c-0.9-2-1.4-4.2-2.3-6.2c-1.2-2.6-2.9-4.9-4.5-7.2C393.1,200.7,392.5,200.6,392.2,200.2z"/>
		<path class="st10" d="M395.5,418.7c-0.2,0.2-0.5,0.2-0.7,0.2c-0.6,0.8-0.5,1.4,0.4,1.9c1,0.6,2.2,0.8,3.3,0.8c5.3,0,10.6,0,15.8,0
			c0.6,0,1.2-0.1,1.8-0.2c1.6-0.3,2.5-1.2,2.8-2.9c0.2-1.1,0.3-2.3,0.3-3.4c0-24,0-48,0-72c0-0.6,0-1.2-0.1-1.8
			c-0.2-1.6-0.6-3.2-2.6-3.5c0-0.6,0-1.1,0-1.7c2.2-0.4,4.1,1.4,4.3,4c0,0.8,0,1.6,0,2.4c0,23.6,0,47.2,0,70.9
			c0,2.1,0.2,4.2-0.3,6.3c-0.4,2-2,3.2-4.2,3.4c-5.7,0.4-11.3,0.1-17,0.2c-1.2,0-2.4,0-3.5-0.3c-1.7-0.4-3.5-1.2-3.7-4.4
			C393.3,418.7,394.4,418.7,395.5,418.7z"/>
		<path class="st3" d="M132.5,357.1c0.5,1,1.5,1.7,1.6,2.9c-1.1,0.1-1.9-0.7-2.7-1.1c-4.2-2.2-9.9-0.5-12.9,3.6
			c-1.9,2.5-2.8,5.3-3.1,8.4c-0.2,1.8-0.2,3.6-0.2,5.3c0,13.6,0,27.2,0,40.7c0,0.9-0.1,1.8-0.3,2.7c-0.5,2.2-2.1,3.4-4.4,3.6
			c-5.7,0.5-11.4,0.1-17.1,0.2c-1.1,0-2.2-0.1-3.2-0.4c-2-0.6-3.1-2.1-3.2-4.3c1.2,0,2.4,0,3.6,0c-0.1,0.6-0.6,0.4-1,0.5
			c-1,0.4-0.4,1,0,1.4c0.7,0.7,1.6,0.9,2.5,1c5.9,0.2,11.9,0.6,17.8,0c2.1-0.2,3.2-1.3,3.4-3.4c0.1-0.6,0-1.1,0-1.7c0-13,0-26,0-39
			c0-2.9,0-5.8,0.5-8.7c0.9-5,3.4-9.1,8.2-11.5c2-1,4.1-1.2,6.3-1C129.9,356.6,131.2,356.9,132.5,357.1z"/>
		<path class="st11" d="M190.1,418.7c0.2,0,0.5,0,0.7,0c0.5,0.1,0.7,0.4,0.9,0.8c0.5,1.1,1.4,1.6,2.5,1.8c0.9,0.1,1.8,0.3,2.7,0.3
			c4.5,0,9.1,0,13.6,0c1.2,0,2.5-0.1,3.6-0.6c1-0.5,1.6-1.2,1.7-2.3c0.2-1,0.4-2,0.4-3.1c0-14.4,0.1-28.8,0-43.3
			c0-5.2-0.6-10.4-1.9-15.5c-1.3-5.2-3.8-9.7-7.3-13.8c-1.2-1.4-2.3-2.7-3.5-4.1c2.2,0.2,3.4,2,4.8,3.4c2.3,2.3,4.1,5,5.4,8
			c1.7,3.8,2.8,7.8,3.3,12c1.5,13.4,0.5,26.8,0.7,40.3c0.1,4.9,0,9.8,0,14.6c0,4-1.8,5.9-5.9,5.9c-5.6,0-11.2,0-16.8,0
			c-1.7,0-3.2-0.4-4.4-1.9C190.1,420.5,190.2,419.6,190.1,418.7z"/>
		<path class="st12" d="M300.9,348.2c-1.5-2.3-2.9-4.7-4.8-6.7c-0.5-0.5-0.9-1-1.4-1.4c2.2,0.7,3.8,2.3,5.4,3.9c2.3,2.3,4,5,5.5,7.8
			c1.7,3.3,2.8,6.8,3.4,10.4c0.7,4.1,0.7,8.3,0.7,12.4c0,7,0,14,0,21c0,5,0.3,10.1,0.3,15.1c0,2.8,0.4,5.5,0.4,8.3
			c0,2.5-1.7,4.1-4.2,4.3c-5.1,0.4-10.1,0.1-15.2,0.2c-1,0-2.1-0.1-3-0.4c-2.2-0.6-3.6-2.1-4-4.3c1.4,0,2.9,0,4.3,0
			c-0.3,0.7-0.9,0.4-1.4,0.5c-0.9,0.5-0.4,1,0,1.4c0.6,0.5,1.3,0.7,2,0.9c0.9,0.2,1.8,0.3,2.7,0.3c4.4,0,8.7,0,13.1,0
			c2.8,0,4.3-1.4,4.1-4.2c-0.3-4.9-0.3-9.8-0.6-14.7c0-0.6,0-1.3,0-1.9c0-10.9,0.1-21.8,0-32.7c0-3.6-0.7-7.1-1.8-10.5
			c-0.9-2.8-2.2-5.3-3.6-7.8C302.3,349.2,301.9,348.4,300.9,348.2z"/>
		<path class="st11" d="M200.4,192.1c0-1,0-2.1-0.1-3.1c2.8-0.2,4.3,1.9,4.3,4.6c0,5.3,0,10.5,0,15.8c0,7.5-0.1,15,0,22.5
			c0,4.5,0.1,9,1.4,13.3c0.5,1.6,1.2,3.1,2.1,4.6c0.3,0.4,0.4,0.9,0.5,1.3c-2.1-0.6-3.6-2-4.8-3.8c-1-3.7-1.4-7.5-1.6-11.4
			c-0.5-13.4-0.1-26.7-0.2-40.1c0-0.8,0-1.6-0.1-2.4C201.8,192.6,201.4,192,200.4,192.1z"/>
		<path class="st13" d="M373.9,402.7c0-1,0-1.9,0-2.9c0.2,0.9,0.6,1.2,1.5,1.3c1.7,0.1,2.9,2,2.9,4.2c0,2,0.3,4.1,0.2,6.1
			c-0.1,1.7,0.1,3.5,0.1,5.3c0,1.3-0.1,2.6-0.6,3.8c-0.7,1.8-2.2,2.6-4,3c-3.2,0.8-6.5,1.2-9.8,1.2c-3.9,0.1-7.8,0.2-11.7-0.7
			c-4.3-1-8.4-2.8-11.7-5.7c-1.5-1.3-3.2-2.7-3.6-5c2.3,2,4.8,3.7,7.5,4.9c0.2,0.1,0.4,0.1,0.5,0.2c4.1,2.7,8.6,3.8,13.4,3.9
			c4,0.1,7.9,0.1,11.9-0.5c1.2-0.2,2.2-0.5,3.3-0.9c1.2-0.5,1.9-1.4,2.1-2.7c0.5-3.4,0.3-6.7,0.1-10.1c0-0.7-0.1-1.5-0.2-2.3
			c-0.1-0.9-0.4-1.7-1.4-2C373.8,403.7,374.1,403.1,373.9,402.7z"/>
		<path class="st3" d="M443.4,216.3c-1.4-0.5-2.7-1.3-3.8-2.4c0.1-0.9,0.4-1.9,0.6-2.8c0.4-1.7,1.3-3,2.8-4c2.7-1.8,5.7-2.3,8.9-2.2
			c3.4,0,6.7,0.9,10.1,1.6c0.7,0.1,1.4,0.7,2.2,0.4c0.6,0.1,1,0.4,1.5,0.7c2.7,0.3,3,0.2,3.8-2.6c0.8-2.8,1.7-5.6,2.2-8.5
			c0.1-0.6,0.1-1.3,0-1.9c-0.2-0.9-0.6-1.5-1.7-1.3c0.1-1,0.3-2,0.7-2.9c2.7,0.1,4.2,2.7,3.9,5.1c-0.7,4.5-1.7,8.8-3.4,13
			c-0.9,2.2-2.4,2.8-4.7,2.2c-3.2-0.8-6.3-2.1-9.6-2.6c-3.1-0.5-6.3-0.9-9.4-0.1c-2.1,0.6-4,1.6-4.6,4
			C442.5,213.5,443.2,214.9,443.4,216.3z"/>
		<path class="st14" d="M326.2,256.9c1.3,1.5,2.4,3.1,3.8,4.5c0.3,0.2,0.5,0.5,0.8,0.7c2,1.8,4,3.6,6.1,5.3c0.3,0.8,1,0.9,1.6,1.2
			c0.1,0.1,0.2,0.1,0.3,0.2c3.5,2.4,7.3,4.1,11.4,5.3c5.1,1.5,10.4,2.1,15.7,2.2c8.1,0.2,16.1-0.7,24-2.6c1.5-0.4,3.1-0.8,4.5-1.5
			c1.6-0.7,2.5-1.9,2.4-3.7c-0.2-4-1.1-7.9-2.2-11.8c-0.5-1.7-1.1-2-2.7-1.8c-0.3-0.7-0.4-1.4-0.5-2.1c0.7,0.4,1.4-0.1,2.2,0.3
			c1.4,0.6,2,1.6,2.4,2.9c1.1,3.4,1.5,7,2.2,10.5c0.2,1.1,0.4,2.2,0.1,3.4c-0.5,2.5-2.4,3.5-4.5,4.2c-3.6,1.2-7.3,2-11,2.6
			c-2.4,0.4-4.9,0.6-7.4,0.9c-2.8,0.3-5.7,0.1-8.5,0.3c-2.6,0.2-5.2-0.1-7.8-0.4c-4.2-0.5-8.4-1.3-12.4-2.8c-2.8-1-5.4-2.3-7.9-3.8
			c-3.7-2.2-6.8-5-9.5-8.3c-1.4-1.7-2.5-3.5-3.4-5.5C326.1,257.1,326.2,257,326.2,256.9z"/>
		<path class="st11" d="M432,418.7c1.3,0,2.5,0,3.8,0c0,0.2-0.1,0.3-0.2,0.4c-0.7,0.6-0.6,1.1,0.3,1.4c1.1,0.3,2.2,0.4,3.3,0.5
			c3.7,0,7.5,0.1,11.2,0c1.8-0.1,3.5-0.1,5.3-0.1c2.2,0.1,3.9-1,5-2.9c0.9-1.5,1.7-3.1,2.5-4.7c2.7-5.1,5.3-10.2,7.9-15.3
			c0.6-1.2,1.6-2.1,2.4-3.1c0.6,1,1.2,2,1.6,3.1c-1.7,0.7-2.5,2.1-3.3,3.6c-3,6-6.1,12-9.3,17.9c-1.4,2.6-3.7,3.7-6.5,3.7
			c-6.5,0-13.1,0-19.6,0c-0.9,0-1.7-0.2-2.6-0.4c-1.7-0.5-2.3-1.6-1.9-3.4C431.9,419.2,432,418.9,432,418.7z"/>
		<path class="st10" d="M236,412.7c2.4,2.3,5.1,4.3,8.2,5.6c0.8,0.3,1.6,0.6,2.4,0.9c2.1,1.4,4.5,2.2,6.9,2.7
			c2.2,0.4,4.4,0.6,6.7,0.6c7.3-0.1,13.8-2.2,19.5-6.7c0.6-0.5,1.3-1,2.1-1.3c0.1,1,0.5,2,0.5,3.1c-1.9,0.8-3.4,2.3-5.2,3.2
			c-4.2,2.3-8.7,3.7-13.5,4.2c-5,0.5-9.8,0-14.5-1.5c-3.1-1-6.1-2.4-8.5-4.6c-1.7-1.6-3.5-3.2-4.6-5.4
			C235.9,413.2,235.9,412.9,236,412.7z"/>
		<path class="st15" d="M417.1,307.9c-0.5-2.7-1.7-5.1-3.5-7.1c2.8,0.9,4.8,2.7,6.2,5.2c1.9,3.4,2.5,7,1.6,10.9
			c-1.3,5.5-4.9,9-10.2,10.4c-5.6,1.5-11,0.8-15.6-3.4c-1.2-1.2-2.1-2.4-2.4-4c1.8,1.5,3.8,2.7,6.2,3.2c0.6,1.1,1.7,1.6,2.8,1.8
			c3.6,0.9,7,0.7,10.4-0.8c4.6-2.1,7.2-7,6.4-12.4c-0.2-1.1-0.4-2.2-0.9-3.2C417.8,308,417.6,307.6,417.1,307.9z"/>
		<path class="st16" d="M182.3,264.8c1.9,1.7,3.8,3.6,6.1,4.8c1.2,0.6,2.4,1.3,3.7,1.9c0.6,1.3,1.9,1.7,3,2.1
			c4,1.6,8.1,2.2,12.3,2.1c3.9-0.2,7.7-0.7,11.4-2.1c4.6-1.7,8.3-4.6,11.6-8.1c0.2-0.2,0.3-0.6,0.7-0.5c0.3,1,0.4,2,0.4,3.1
			c-1.4,0.4-2.3,1.5-3.3,2.4c-3.6,3.1-7.7,5.3-12.4,6.3c-6.6,1.4-13.3,1.7-19.8-0.6c-3.7-1.3-7.1-3.3-10-6
			C184.4,268.7,182.9,267.1,182.3,264.8z"/>
		<path class="st17" d="M273.5,352c2.1,1.1,3.5,2.7,4.3,4.9c-1.3-0.1-2.4-0.9-3.5-1.3c-1.8-0.7-3.6-1-5.4-1
			c-3.7-0.2-7.4-0.1-11.1,0.7c-3.6,0.8-7.2,1.9-10.6,3.4c-3.1,1.3-5.1,0.6-6.3-2.9c0.7-0.6,1.5-1,2.4-1.2c0.1,0,0.2,0,0.2,0.1
			c0.8,1.8,1.4,2.1,3.3,1.4c2.4-0.8,4.8-1.8,7.3-2.5c5.1-1.4,10.2-2,15.5-1.6c1,0.1,2,0.3,3,0.5C273.2,352.6,273.4,352.5,273.5,352z
			"/>
		<path class="st18" d="M374.6,333.9c-5.9,0-11.7-0.1-17.6-0.1c-1,0-1.3-0.3-1.3-1.3c0.1-7.6,0.1-15.3-0.2-22.9
			c0.6,0.9,0.2,1.9,0.3,2.9c0.1,0.6,0,0.9,0.8,0.8c1.1-0.1,1.9,0.6,2.3,1.5c0.4,0.9,0.7,1.8,0.7,2.7c0,5,0,10,0,15
			c0,1.1,0.3,1.2,1.2,1.2c4.2,0,8.4,0,12.6,0C373.8,333.6,374.2,333.4,374.6,333.9z"/>
		<path class="st19" d="M419.6,228.8c3.2,2.8,6.8,4.9,10.6,6.7c3.3,1.6,6.9,2.6,10.3,4c2.3,0.9,4.7,1.8,6.5,3.6
			c0.8,0.8,1.5,1.7,1.6,2.8c-5.4-2.7-11.2-4.2-16.6-6.8c-4.3-2-8.2-4.6-11.3-8.4C420.3,230.1,419.9,229.5,419.6,228.8z"/>
		<path class="st20" d="M474.7,357.7c-0.2,1.1-0.9,1.9-1.4,3c-0.5-0.8-0.9-1.5-1.2-2.2c-3.9-7.3-8-14.6-12.4-21.7
			c-0.1-0.1-0.1-0.3-0.2-0.4c2.4,0.1,3.6,1.8,4.7,3.5c2.1,3.4,4.3,6.9,6.2,10.5c1.1,2,2.2,4.1,3.4,6.1
			C474,357,474.2,357.5,474.7,357.7z"/>
		<path class="st21" d="M134.6,196.1c-0.9,1.8-2,3.5-2.7,5.4c-0.1,0.2-0.2,0.6-0.6,0.5c-0.3-0.1-0.2-0.4-0.3-0.6
			c-0.2-2.3-0.4-4.6-0.4-7c0-1.6-0.4-3.1-0.3-4.7c1.9,0,2.8,0.6,3.4,2.3c0.4,1.2,0.8,2.5,0.5,3.8C134.3,196,134.4,196.1,134.6,196.1
			z"/>
		<path class="st22" d="M318.6,353.2c3.4,0,6.8,0.1,10.2,0c0.7,0,1,0.1,1,0.9c-0.1,1.9,0,3.8,0,5.7c-0.1-0.2-0.2-0.4-0.2-0.7
			c-0.1-1.7-0.1-1.7-1.9-1.7c-1.6,0-3.2,0.1-4.7-0.8c-1-0.6-1.7-1.4-1.6-2.6c0.1-0.6-0.2-0.6-0.6-0.6
			C320,353.3,319.3,353.6,318.6,353.2z"/>
		<path class="st23" d="M111,341.4c-0.9,1.2-1.7,2.3-2.6,3.4c-0.1,0.2-0.3,0.3-0.5,0.3c-0.2,0-0.2-0.2-0.2-0.4
			c-0.3-2.9-0.6-5.7-0.9-8.6c0.2,0.2,0.3,0.4,0.5,0.4c2.4,0.4,3.5,1.8,3.5,4.2C110.8,341.1,110.9,341.3,111,341.4z"/>
		<path class="st24" d="M159.1,344.1c-0.4,0.9-1,1.8-1.8,2c-0.5,0.1-0.7-1.1-1.1-1.8c-1.3-2.6-3.3-4.6-5.3-6.6
			c2.7,0.8,4.6,2.6,6.4,4.7C158,342.9,158.5,343.6,159.1,344.1z"/>
		<path class="st25" d="M89.8,418.9c0.3,0,0.7,0.1,0.9-0.2c5.9,0,11.7,0,17.6,0c2.3,0,2.3,0,2.3-2.2c0-15.2,0-30.4,0-45.6
			c0-2,0-4,0.4-5.9c1.4-6.2,6.1-12.4,14.1-11.8c2,0.2,4,0.7,5.5,2.1c-0.3,0.9-1,0.9-1.8,0.9c-1.5,0-3-0.2-4.5,0.2
			c-3.7,0.9-6.4,3.2-8.4,6.4c-1.8,2.8-2.4,6-2.5,9.3c-0.5,14.8-0.1,29.6-0.2,44.4c0,0.4,0,0.7,0,1.1c-0.1,2.3-1.5,3.8-3.9,3.9
			c-5.5,0.1-11,0.1-16.5,0c-0.9,0-1.7-0.3-2.4-0.9C90,420.1,89.5,419.7,89.8,418.9z"/>
		<path class="st26" d="M182.5,355.7c-0.6,0.1-1.1,0.1-1.7,0c-5.8-1.1-11.7,2.2-14.3,7.3c-1.4,2.7-1.9,5.5-2,8.4
			c-0.6,14.3-0.1,28.7-0.2,43c0,0.9,0.1,1.8,0,2.7c-0.2,2.5-1.5,3.9-4,3.9c-5.2,0-10.5,0-15.7,0c-0.9,0-1.7-0.1-2.5-0.7
			c-0.4-0.3-0.8-0.6-0.8-1.1c0-0.7,0.8-0.1,1-0.5c6.1,0,12.3-0.1,18.4,0c0.9,0,1.3-0.2,1.3-1.2c0-15.8,0-31.6,0-47.4
			c0-3.2,0.3-6.4,1.7-9.4c2.9-6.4,10.2-9.4,16.5-6.6C181,354.5,181.9,355,182.5,355.7z"/>
		<path class="st27" d="M193.2,418.7c6.3,0,12.5-0.1,18.8,0c1,0,1.3-0.2,1.3-1.3c-0.1-17,0-34-0.1-50.9c0-5.4-0.9-10.7-2.6-15.9
			c-0.1-0.3-0.2-0.7-0.3-1c1-0.1,1.3,0.6,1.6,1.2c1.4,2.6,2.2,5.4,2.8,8.3c0.6,3.7,1.2,7.3,1.3,11.1c0.4,15.2,0.1,30.3,0.2,45.5
			c0,1.1-0.2,2.2-0.5,3.3c-0.5,1.4-1.4,2.2-2.8,2.4c-0.7,0.1-1.5,0.2-2.2,0.2c-4.4,0-8.7-0.1-13.1,0c-1,0-2-0.2-3.1-0.3
			c-0.7-0.1-1.3-0.4-1.8-0.9c-0.3-0.4-0.6-0.8-0.5-1.3C192.4,418.6,192.9,418.9,193.2,418.7z"/>
		<path class="st28" d="M89.8,418.9c0.5,1.4,1.4,2.1,2.9,2.1c5.6,0,11.2,0,16.8,0c2.1,0,3.4-1.5,3.4-3.8c0-8.3,0-16.5,0-24.8
			c0-4.3,0-8.6,0-12.9c0-3.9-0.1-7.9,0.7-11.8c1.4-6.1,4.8-10.4,11.2-12c1.3-0.3,2.7-0.2,4-0.1c0.7,0,1.3-0.1,1.8-0.5
			c0.6,0.6,1.5,1,1.8,1.8c-0.8,0.6-1.7,0-2.5-0.1c-2.1-0.4-4.2-0.5-6.2,0.1c-4,1.2-6.5,4.2-8.3,7.8c-1.2,2.5-1.4,5.2-1.5,8
			c-0.5,14.9-0.1,29.9-0.2,44.8c0,2.5-1.4,4-3.9,4.2c-4.1,0.3-8.2,0.4-12.3,0.2c-2.2-0.1-4.5,0.1-6.7-0.4c-0.9-0.2-1.7-0.6-2.1-1.6
			C88.5,419,88.5,418.9,89.8,418.9z"/>
		<path class="st29" d="M193.2,418.7c-1,0.4-1,0.9-0.2,1.6c1.1,0.9,2.5,0.9,3.7,0.9c5,0.1,10,0.1,15,0c2.3,0,3.6-1.3,4-3.6
			c0.2-1.4,0.2-2.8,0.2-4.1c0-12,0-24.1,0-36.1c0-3.3,0-6.6-0.3-9.9c-0.5-5.6-1.2-11.2-3.7-16.4c-0.3-0.7-0.7-1.3-1.5-1.6
			c-0.9-2.2-2.1-4.4-3.3-6.5c1,0.6,1.7,1.5,2.3,2.4c2.8,3.8,4.7,8.1,5.6,12.8c0.8,3.8,1.2,7.5,1.4,11.4c0.5,15.4,0.1,30.8,0.2,46.2
			c0,1.4,0,2.9-0.8,4.2c-0.6,1-1.5,1.4-2.5,1.6c-1.4,0.2-2.8,0.3-4.3,0.3c-4-0.1-8,0-12,0c-1.1,0-2.1-0.2-3.2-0.4
			c-1.3-0.3-2.2-1-2.5-2.3c0-0.2-0.3-0.4-0.4-0.5C191.7,418.7,192.4,418.7,193.2,418.7z"/>
		<path class="st30" d="M254.3,191.4c0.9-0.3,1.8,0.2,2.1,1.4c0.3,1.2,0.5,2.5,0.5,3.7c0,14,0,28.1,0,42.1c0,1.5-0.2,3-0.2,4.5
			c0.1,1.9,0.4,3.9,0.2,5.7c-0.4,2.6,0.1,5.1,0.1,7.7c0.1,4.5,0.1,9.1,0.2,13.6c0,2.4-1.8,4-3.9,3.9c-4.4-0.1-8.9-0.1-13.3,0
			c-1,0-1.9-0.3-2.7-0.8c-0.7-0.4-1.1-0.9-0.6-1.8c5.4,0,10.9,0,16.3,0c0.4,0,0.7,0,1.1,0c0.6,0,0.8-0.2,0.8-0.8
			c-0.1-4.3-0.2-8.6-0.4-13c-0.1-2.4-0.1-4.8-0.1-7.1c0-19.6,0-39.1-0.1-58.7C254.2,191.7,254.2,191.5,254.3,191.4z"/>
		<path class="st31" d="M200.4,192.1c0.7-0.9,1.2-0.5,1.6,0.3c0.4,0.8,0.5,1.6,0.5,2.5c0,12.5-0.1,25.1,0.1,37.6
			c0.1,4.2,0.1,8.4,1.2,12.6c0.2,0.7,0.5,1.5,0.1,2.3c-1.8-2.4-2.6-5.2-3.1-8.1c-0.3-1.8-0.5-3.6-0.5-5.4c0-13.7,0-27.4,0-41.2
			C200.4,192.5,200.4,192.3,200.4,192.1z"/>
		<path class="st32" d="M205.9,273.4c2.5-0.5,5-0.6,7.5-1.3c3.8-1,7.1-2.7,10.2-5.2c2.5-2,4.8-4.2,6.5-7c0.1-0.1,0.2-0.2,0.4-0.4
			c0.5,1.1,0.5,2.2,0.4,3.3c0.1,1-0.3,1.7-1.1,2.3c-1.1,0.9-2.2,2-3.2,3c-3.4,3.3-7.6,5.2-12,6.1c-4.5,0.9-9.1,1.4-13.6,0
			c-0.2-0.1-0.4-0.1-0.6-0.2c-0.1-0.1-0.2-0.1-0.1-0.4C202.1,273.3,204,273.6,205.9,273.4z"/>
		<path class="st33" d="M205.9,273.4c-1.4,0.4-2.7,0.1-4.1,0.2c-0.4,0-0.9,0-1.6,0c3.8,1.2,7.4,1.2,11,0.7c0.2,0,0.5-0.2,0.7-0.2
			c4.9,0,9-2.3,12.9-4.9c1.6-1,2.8-2.6,4.2-3.8c0.9-0.7,1.6-1.5,1.9-2.6c0.4,0.7,0.3,1.4,0.3,2.2c-1.2,2-3.1,3.2-4.8,4.6
			c-3.7,3.1-7.9,4.8-12.6,5.7c-2.1,0.4-4.2,0.6-6.3,0.7c-4.3,0.2-8.5-0.5-12.5-2.1c-1-0.4-1.9-1-2.8-1.6c-0.3-0.2-0.7-0.5-0.1-0.9
			c1.7,0.5,3.4,1.1,5.2,1.4C200.1,273.4,203,273.3,205.9,273.4z"/>
		<path class="st0" d="M306.6,416.9c-0.7-5.2-0.9-10.3-0.9-15.5c-0.1-11.8,0-23.6,0-35.3c0-4.7-0.8-9.2-2.6-13.6
			c-0.3-1.6-1.2-2.9-1.9-4.3c-0.3-0.4-0.5-0.9-0.8-1.3c-1.6-2.5-3.1-5.1-5.6-6.8c-1.1-0.9-2.2-1.8-3.4-2.5c-6.4-3.9-13.6-5.2-21-5.6
			c-6.1-0.3-12.3,0.2-18.3,1.4c-5.7,1.1-11.2,2.8-16.3,5.5c-0.7,0.4-0.8,0.7-0.6,1.5c1.5,4.9,2.9,9.8,4.2,14.8
			c0.3,1.1,0.7,1.3,1.6,0.7c1-0.2,1.7-0.7,2.6-1.1c2-0.9,4.1-1.6,6.2-2.3c5.2-1.6,10.5-2.3,15.9-2c2.6,0.2,5.2,0.6,7.6,1.8
			c1.2,0.5,2.1,1.3,2.9,2.3c0.6,0.8,1,1.7,1.7,2.4c0.7,1.1,0.8,2.3,0.8,3.5c0,1.7,0,1.7-1.7,1.7c-4,0-7.9,0.2-11.8,0.7
			c-7.7,0.9-15.1,3-21.9,6.7c-13,7.1-16.6,21.8-13.1,33.2c1.2,3.8,3.3,7,5.8,9.9c0.1,0.4,0.4,0.7,0.7,0.9c2.8,2.9,6.3,4.6,10,5.9
			c4.8,1.4,9.6,1.8,14.6,1.2c4.7-0.6,9.2-2,13.2-4.7c2-1.3,3.7-2.8,5.4-4.5c0.7-0.7,0.9-0.6,1.1,0.3c0.2,0.9,0.4,1.8,0.5,2.7
			c0.2,1,0.2,2.1,0.8,3c-0.1,1.3,0.8,1.3,1.7,1.2c0.4,0.3,0.9,0.3,1.4,0.3c1,0,2,0,3,0c5.5,0,10.9,0,16.4,0
			C306.6,419,306.8,418.8,306.6,416.9z M279.2,391.3c-1.3,5.4-4.9,8.6-10.1,10.1c-2.7,0.8-5.4,0.8-8-0.2c-3.4-5.2-1.9-12.3,3.8-15.2
			c3.6-1.8,7.4-2.5,11.3-3c1.1-0.1,2.2-0.4,3.3,0.1C279.5,385.9,279.8,388.7,279.2,391.3z"/>
		<path class="st34" d="M286.9,418.9c0.5-0.1,1,0.1,1.4-0.2c5.5,0,11,0,16.5,0c1.5,0,1.5,0,1.4-1.5c-0.7-5.5-0.9-11.1-0.9-16.6
			c0-11.5,0-22.9,0-34.4c0-4.8-1-9.4-2.6-13.9c1-0.2,1.3,0.7,1.6,1.3c0.7,1.5,1.4,2.9,1.9,4.5c1.3,4.1,1.9,8.3,1.9,12.5
			c0,11.4,0,22.7,0,34.1c0,4.2,0.3,8.3,0.6,12.5c0.2,2.5-1,4.2-3.5,4.3c-5.1,0.2-10.2,0.1-15.2,0c-0.7,0-1.4-0.2-2-0.6
			C287.2,420.3,286.6,419.9,286.9,418.9z"/>
		<path class="st11" d="M286.9,418.9c0.6,1.6,1.4,2.1,3.4,2.1c3.8,0,7.6,0,11.4,0c1.5,0,2.9,0.1,4.3-0.2c1.7-0.4,2.3-2.1,2.1-3.7
			c-0.2-1.8-0.2-3.5-0.3-5.3c-0.4-5.3-0.3-10.7-0.3-16.1c0-8.7,0-17.4,0-26.1c0-4.1-0.6-8.2-2-12.1c-0.6-1.6-1.1-3.4-2.2-4.8
			c-0.2-0.3-0.3-0.5-0.7-0.5c-0.1-1.1-0.9-1.9-1.3-3c-0.1-0.3-0.4-0.6-0.4-1c0.1-0.3-0.1-1,0.6-0.4c1.4,1.2,2.2,2.8,2.9,4.5
			c0.5,1.1,1.2,2.1,1.6,3.3c0.9,2.6,1.8,5.3,2.1,8.1c1.1,12.6,0.2,25.3,0.5,37.9c0.1,4.5,0.3,8.9,0.5,13.4c0,0.9,0.2,1.9,0.2,2.8
			c0.1,3.3-1.8,4.3-4.5,4.4c-1.1,0.1-2.2,0.1-3.3,0.1c-3.4,0-6.8,0-10.1,0c-1.4,0-2.8-0.3-4-0.8c-0.4-0.2-0.8-0.5-1.2-0.8
			c-0.4-0.4-0.4-0.9-0.3-1.3C286.1,418.8,286.6,419,286.9,418.9z"/>
		<path class="st35" d="M281.8,414.4c-0.4,0.9-1.4,1.1-2,1.7c-4.3,3.4-9.3,5.6-14.7,6.4c-3.3,0.5-6.7,0.6-10.2-0.1
			c-2.2-0.4-4.3-0.9-6.3-1.8c-0.8-0.3-1.7-0.3-2-1.3c4.1,1.1,8.2,1.7,12.4,1.3c8.1-0.6,15.2-3.4,20.8-9.5c0.3-0.3,0.5-0.8,1-0.7
			c0.5,0.1,0.3,0.7,0.4,1C281.5,412.4,281.6,413.4,281.8,414.4z"/>
		<path class="st36" d="M256.6,398c-3.4-5.2-1.4-13,4.1-15.9c3.7-1.9,7.6-2.7,11.7-3.2c1.9-0.2,3.7-0.2,5.6-0.2c1.6,0,1.6,0,1.5,1.7
			c-0.1,0.8-0.8,0.8-1.4,0.8c-4.1,0.2-8.1,1-12,2.4c-4.5,1.6-7.2,4.9-8.5,9.4c-0.4,1.3-0.1,2.6-0.1,3.9c0,0.4,0,0.7-0.1,1.1
			C257.2,398.3,256.9,398.3,256.6,398z"/>
		<path class="st37" d="M256.6,398c0.9,0.1,0.6-0.5,0.6-1c-0.3-2.6,0.1-5.1,1.4-7.4c1.6-3,4-5.1,7.1-6.2c4.1-1.5,8.4-2.5,12.8-2.5
			c0.4,0,0.8-0.1,1-0.5c0,0.9,0,1.9,0,2.8c-3.7,0.2-7.3,0.6-10.8,1.7c-4.1,1.2-7.5,3.3-8.7,7.6c-0.6,2.4-0.6,4.8,0.5,7.1
			c0.3,0.6,0.5,1.2,0.6,1.8C259.2,400.7,257.7,399.6,256.6,398z"/>
		<path class="st38" d="M273.5,352c0,0.3,0.5,0.5,0.2,0.8c-0.3,0.3-0.6,0.1-1,0c-3.1-0.8-6.2-0.9-9.4-0.6c-1.6,0.2-3.1,0.2-4.7,0.6
			c-3.9,0.8-7.7,1.9-11.3,3.4c-0.5,0.2-1,0.4-1.5,0.5c-1.6,0.3-2.6-0.5-2.6-2.1c3.3-1.7,6.8-2.7,10.4-3.5c4.6-1,9.2-1.4,13.9-0.7
			C269.6,350.6,271.7,351,273.5,352z"/>
		<path class="st1" d="M399.5,225.6c0-6.5-1.2-12.7-3.6-18.7c-1-2.3-2-4.6-3.5-6.7c-0.5-0.8-1-1.5-1.6-2.2c-1.9-2.4-3.8-4.8-6.5-6.3
			c-2.6-1.9-5.4-3.5-8.4-4.6c-7.6-2.6-15.3-2.9-23.1-1.7c-10.8,1.8-19.5,7.2-25.7,16.1c-7.6,10.9-9.8,23.1-8.2,36.2
			c0.9,7,3.2,13.5,7.3,19.3c0.2,0.5,0.6,0.9,0.9,1.4c0.9,1.6,2.1,3,3.6,4.1c0.9,0.4,1.4,1.3,2.2,1.8c3.5,2.6,7.3,4.7,11.4,6.2
			c4.8,1.7,9.7,2.7,14.8,2.9c6.1,0.3,12.3,0.2,18.4-0.7c5.2-0.7,10.4-1.9,15.4-3.6c1.9-0.7,2.2-1.1,1.7-3.1
			c-0.7-3.2-1.3-6.5-1.9-9.7c-0.1-0.4-0.2-0.9-0.3-1.3c-0.1-0.7-0.3-1.5-0.7-2.1c-0.1-0.6-0.3-1.2-0.4-1.7c-0.1-0.7-0.3-1-1.1-0.7
			c-8,2.5-16.2,3.4-24.5,3.1c-4.1-0.1-8.2-0.9-11.9-2.8c-1.6-1.2-3.4-1.9-4.8-3.3c-0.9-0.8-1.8-1.8-2.3-2.9c-1-1.4-1.5-2.9-2-4.6
			c-0.4-1.7-0.2-2,1.5-2.2c0.7-0.1,1.3-0.1,2-0.1c16.2,0,32.4,0,48.6,0c1.9,0,2.1-0.2,2.4-2.1C399.5,232.3,399.5,228.9,399.5,225.6z
			 M374.5,219.2c-0.3,0.2-0.7,0.1-1,0.1c-7.8,0-15.6,0-23.3,0c-1.4,0-1.6-0.3-1.1-1.5c1.2-3.4,2.9-6.4,5.9-8.4
			c4.9-3.4,11.2-3.5,16.1-0.2c0.8,0.5,1.6,1,2.1,1.9C374.1,213.7,374.8,216.4,374.5,219.2z"/>
		<path class="st39" d="M346.4,245c-1.6-1.9-2.2-4.1-2.6-6.5c-0.1-0.6,0.1-0.9,0.8-0.9c0.9,0,1.9-0.1,2.8-0.1c16.5,0,32.9,0,49.4,0
			c1.3,0,1.6-0.5,1.8-1.6c0.8-7,0.8-14.1-0.7-21c-0.5-2.3-1.1-4.5-2-6.7c-0.2-0.5-0.4-0.9-0.4-1.5c0.8-0.2,1.2,0.4,1.4,0.9
			c1.6,3.2,2.9,6.4,3.6,9.9c1.1,4.9,1.4,9.8,1.5,14.7c0,1.9-0.4,3.7-0.8,5.5c-0.2,1-1,1.6-1.9,2c-1.1,0.5-2.2,0.6-3.4,0.6
			c-14.3,0-28.6,0-42.8,0c-1,0-2,0.1-3,0.2c-1.8,0.3-2.6,1.1-2.8,3c-0.1,0.5-0.1,0.9-0.4,1.4C346.9,245.3,346.7,245.3,346.4,245z"/>
		<path class="st40" d="M344.1,270.1c3.3,1,6.6,1.9,10,2.4c5.7,0.8,11.4,0.8,17.2,0.4c5-0.3,9.9-1,14.8-2.2c2.5-0.6,4.9-1.4,7.3-2.2
			c1-0.3,1.2-0.9,1-1.9c-0.7-3.3-1.4-6.6-2-9.9c0-0.2,0-0.4,0-0.6c0.3-0.8,0.8-0.7,1.4-0.2c0.5,0.5,0.8,1.1,1,1.7
			c1,3.4,1.6,6.8,2,10.3c0.2,1.9-0.6,3.3-2.4,4.1c-2.4,1-5,1.6-7.5,2.2c-5.9,1.3-11.9,1.8-17.9,1.9c-7.6,0.1-15-0.8-22.2-3.3
			c-0.4-0.1-0.8-0.3-1.1-0.5c-0.4-0.5-1-0.8-1.7-1c-0.4-0.2-1-0.3-0.9-0.9C343.1,269.7,343.7,270.2,344.1,270.1z"/>
		<path class="st41" d="M345.7,219.2c-2.3,0.1-2.4,0.1-1.9-2.2c0.8-4,2.5-7.6,5.4-10.6c2.5-2.6,5.6-3.7,9-4c3-0.3,5.8,0.1,8.5,1.4
			c0.3,0.2,0.8,0.3,0.9,0.7c0.3,0.3,0.4,0.6,0.1,0.9c-0.3,0.3-0.6,0.3-1,0.2c-4.6-1.2-8.8-0.4-12.7,2.2c-3.5,2.3-5.6,5.8-6.9,9.7
			C347,218.2,346.9,219.2,345.7,219.2z"/>
		<path class="st42" d="M345.7,219.2c0.9-0.3,1-1.1,1.2-1.8c1.6-4.6,4.1-8.5,8.6-10.9c3.3-1.7,6.9-2.2,10.5-1.6
			c0.3,0,0.5,0.1,0.8,0.3c1,0.5,1,0,0.8-0.8c2.7,1.5,4.4,3.9,5.4,6.7c-2.9-2.4-6.1-4.2-10-4c-5.5,0.2-9.7,2.6-12.3,7.5
			c-0.5,1-0.9,2-1.3,3c-0.6,1.4-0.6,1.6,1.1,1.6c6.6,0,13.2,0,19.8,0c1.4,0,2.8,0,4.2,0c-0.3,0.4-0.7,0.2-1.1,0.2
			c-8,0-15.9,0-23.9,0C348.2,219.4,347,219.4,345.7,219.2z"/>
		<path class="st43" d="M346.4,245c0.9,0.2,0.6-0.6,0.7-0.9c0.8-3.5,1.5-4.1,5.2-4.1c12.4,0,24.7,0,37.1,0c2.4,0,4.8,0,7.3,0
			c0.9,0,1.7-0.2,2.5-0.5c1-0.4,1.6-1,1.9-2.2c0.7-2.7,0.8-5.3,0.6-8c-0.2-3.6-0.4-7.2-1.2-10.8c-0.7-2.9-1.4-5.8-2.7-8.4
			c-0.6-1.2-0.7-2.9-2.2-3.5c-1.1-2.2-2.1-4.4-3.4-6.4c1.1,0.2,1.5,1,2.1,1.9c0.9,1.3,1.8,2.6,2.7,4c1.3,2.3,2.2,4.7,3,7.2
			c0.1,0.3,0.2,0.7,0.4,1c1.9,6.1,2.5,12.4,2.3,18.7c0,1.3-0.1,2.5-0.4,3.8c-0.5,2.8-2.1,4.1-5.1,4.2c-2.1,0-4.1,0-6.2,0
			c-12.6,0-25.2,0-37.9,0c-1.1,0-2.2,0-3.3,0.5c-1.4,0.6-1.9,1.4-1.7,2.9c0.1,0.6,0.2,1.2,0.5,1.7c0.2,0.4,0.4,0.9,0.2,1.4
			c-0.1,0.1-0.2,0.1-0.2,0.2C347.7,246.8,346.9,246.1,346.4,245z"/>
		<path class="st44" d="M345.5,271.9c2,1,4.2,1.6,6.4,2.1c4.1,1,8.3,1.6,12.6,1.7c4.1,0.1,8.1,0.1,12.1-0.3
			c5.2-0.5,10.4-1.5,15.4-2.9c0.2-0.1,0.5-0.1,0.7-0.2c3.1-1.1,4-1.8,3.5-5.4c-0.4-3.1-0.9-6.2-1.9-9.1c-0.2-0.5-0.4-1-0.7-1.5
			c-0.4-0.6-0.8-0.7-1.3-0.1c-0.2-0.4-0.4-0.8-0.3-1.2c0.5-0.8,1.8-0.5,2.4,0.5c1,1.7,1.3,3.7,1.6,5.7c0.4,2.5,1.2,5,1.1,7.6
			c-0.1,2.2-0.8,3.1-2.7,3.9c-3.2,1.4-6.6,2-10.1,2.6c-3.4,0.6-6.8,1-10.2,1.3c-3.6,0.3-7.1,0.3-10.7,0.1
			c-7.9-0.3-15.4-1.9-22.4-5.8c-1-0.6-2.2-0.9-2.9-2c0.6-0.5,1.1-0.1,1.6,0.2C341.8,269.9,343.6,271.1,345.5,271.9z"/>
		<path class="st45" d="M345.5,271.9c-0.4,0-0.7,0-1-0.2c-1.5-0.8-3-1.5-4.5-2.4c-0.5-0.3-1-0.6-1.6-0.5c-0.5-0.4-1.2-0.7-1.7-1.2
			c-2.2-1.6-4.2-3.4-6-5.5c1.2,0.5,1.9,1.6,2.9,2.3c3.2,2.3,6.7,4.2,10.4,5.6c-0.3,0.3-0.7,0.1-1.1,0.3
			C343.7,271.2,345,270.9,345.5,271.9z"/>
		<path class="st46" d="M490.3,377.5c-0.6-0.9-1.2-1.9-1.8-2.7c-0.4-0.6,0-0.9,0.3-1.2c3.6-5.3,7.3-10.6,10.9-15.8
			c4.2-6.1,8.4-12.2,12.6-18.3c0.1-0.2,0.3-0.4,0.5-0.5c0.6-0.6,1.3-0.6,1.9-0.1c0.7,0.5,0.9,1.3,0.6,2.1c-0.4,1.3-1.3,2.4-2,3.5
			c-2.9,4.2-5.8,8.4-8.7,12.6c-2,2.8-3.9,5.8-6,8.6c-2,2.9-4,5.8-6,8.7c-0.6,0.8-0.7,1.8-1,2.6C491.3,377.3,491.2,378.1,490.3,377.5
			z"/>
		<path class="st47" d="M490.3,377.5c0.6,0.3,0.8-0.1,0.9-0.6c0.6-3,2.7-5.1,4.3-7.4c2.3-3.4,4.6-6.8,7-10.1c3-4.3,6-8.5,8.9-12.8
			c1.1-1.6,2.1-3.2,3.2-4.8c0.5-0.7,0.8-1.5,0.3-2.3c-0.5-0.9-1.4-0.7-2.2-0.5c0.4-0.8,0.9-1.5,1.5-2.2c0,0.6,0.5,0.4,0.8,0.5
			c1.9,0.6,2.6,1.9,1.6,3.7c-1,1.8-2.1,3.4-3.2,5.1c-2.5,3.7-5.1,7.4-7.7,11.1c-3.7,5.4-7.5,10.8-11.2,16.2
			c-0.8,1.2-1.6,2.3-1.8,3.8c-0.3,1.6,0.4,2.9,1.1,4.1c1.4,2.4,2.9,4.7,4.4,7c1.4,2.1,2.9,4.2,4.1,6.3c1.9,3.4,4.3,6.6,6.3,10
			c1.7,2.9,3.7,5.7,5.5,8.6c1.1,1.7,2.2,3.4,3.1,5.2c1.1,2.2-0.1,3.8-2.9,3.8c-2.4,0-4.8,0-7.3,0c-4.2,0-8.3,0-12.5,0
			c-2.8,0-5-0.8-6.5-3.3c0.8,0,1.6,0,2.4,0c-0.2,0.7,0.2,1.2,0.8,1.5c1.2,0.6,2.5,0.7,3.8,0.7c5.9,0.1,11.8,0,17.7,0
			c0.5,0,1-0.1,1.5-0.2c1.5-0.3,1.7-0.7,1-2c0.4,0,0.7,0,1.1-0.1c0-0.5-0.3-0.8-0.5-1.1c-8.2-13-16.5-25.9-24.7-38.9
			C490.8,378.3,490.6,377.9,490.3,377.5z"/>
		<path class="st27" d="M473.5,394.8c0,1.4-1.4,1.9-1.9,2.9c-2.7,5.3-5.4,10.6-8.2,15.8c-1.1,2.1-1.8,4.5-3.7,6.2
			c-1.4,1.2-3,1.7-4.8,1.4c-0.9-0.1-1.7-0.2-2.6-0.1c-4.5,0.5-8.9,0.1-13.4,0.2c-1,0-2-0.2-2.9-0.4c-0.6-0.1-1.2-0.3-1.3-1.2
			c-0.1-1,0.8-0.6,1.2-1c6.8,0,13.7,0,20.5,0c-0.3,0.8-1,0.5-1.5,0.5c-5,0-9.9,0-14.9,0c-0.4,0-0.8-0.1-1.2,0c5.5,0,11,0,16.4,0
			c2,0,3.4-0.7,4.4-2.4c1.8-3,3.2-6.2,4.9-9.2c2.1-3.8,3.9-7.8,6-11.6c0.5-1,1.2-2.1,2.5-2.4C473.1,394.1,473.3,394.4,473.5,394.8z"
			/>
		<path class="st46" d="M473,393.7c-2,1.7-3.1,4.1-4.3,6.5c-1.8,3.8-3.9,7.4-5.8,11.2c-1,2.2-2.1,4.3-3.4,6.3c-0.9,1.4-2.1,2-3.8,2
			c-5.5,0-11,0-16.5,0c-0.6,0-1.2,0.1-1.6-0.5c0.4-0.4,0.9-0.2,1.3-0.2c5.4,0,10.8,0,16.2,0c0.4,0,0.9,0.1,1.3-0.2
			c0.5-0.1,0.6-0.5,0.7-0.9c4.6-8.8,9.3-17.6,13.6-26.5c0.1-0.3,0.2-0.8,0.6-0.7c0.4,0,0.4,0.4,0.5,0.7
			C472.2,392.1,472.6,392.9,473,393.7z"/>
		<path class="st48" d="M515.2,418.7c0.3,0.3,1.1,0.1,1,0.9c-0.1,0.7-0.5,1.2-1.2,1.3c-0.7,0.2-1.5,0.3-2.2,0.3c-6,0-12,0.1-18,0
			c-1.6,0-3.2-0.1-4.5-1.1c-0.6-0.5-1-1,0.1-1.4c7,0,14,0,21,0C512.7,418.7,513.9,418.7,515.2,418.7z"/>
		<path class="st49" d="M374.6,339.1c1.1-0.7,1.9,0,2.1,1.6c0.3,2.3,0.2,4.7,0.2,7c0,1.7,0.2,3.4-0.2,5.1c-0.5,1.9-1.3,2.6-3.2,2.8
			c-3.6,0.4-7.1,0.1-10.7,0.2c-2,0.1-3.6,0.8-4.4,2.8c-0.2,0.5-0.3,1-0.3,1.5c0,10.2,0,20.3,0,30.5c0,1.5,0.5,2.9,0.7,4.4
			c0.1,0.5,0.5,1-0.4,1.1c-2-2.5-2.6-5.5-2.7-8.5c-0.3-11.1-0.2-22.1-0.1-33.2c0-1,0.4-1.2,1.2-1.2c5.5,0,11,0,16.5,0
			c0.9,0,1.2-0.2,1.2-1.2C374.6,347.7,374.6,343.4,374.6,339.1z"/>
		<path class="st50" d="M373.9,402.7c0.3,0.3,0.2,0.7,0.9,0.9c1.2,0.2,1.4,1.4,1.5,2.4c0.3,3.4,0.2,6.8,0.2,10.2
			c0,3.7-1.9,5.7-5.7,6c-3.9,0.4-7.9,0.5-11.9,0.5c-4.2-0.1-8.1-0.8-11.9-2.8c-0.7-0.4-1.4-0.8-1.8-1.5c5.4,2,11.1,2.2,16.8,1.8
			c3.7-0.2,7.5-0.6,11.1-1.8c0.8-0.3,1-0.6,1-1.4C374,412.3,374,407.5,373.9,402.7z"/>
		<path class="st51" d="M442.5,273.1c6.5-0.6,12.8-1.9,18.6-5c7-3.8,11.4-9.5,12.9-17.4c0.3-1.7,0.4-3.3,0.5-5
			c0.7,0,0.7,0.6,0.8,1.1c0.4,2,0.6,4,0.2,6c-0.8,4.5-2.5,8.6-5.7,11.9c-3.6,3.7-7.9,6.2-12.9,7.7c-4.5,1.3-9.1,2-13.8,2
			c-1,0-2,0.4-3.1,0.2c-0.6-0.1-1.5-0.1-1.5-0.9c0.1-0.7,1-0.4,1.5-0.5C440.8,273.1,441.7,273.3,442.5,273.1z"/>
		<path class="st39" d="M472.8,236.6c1.8,0.6,2.1,2.3,2.7,3.7c1.2,3,1.6,6.2,1.5,9.4c-0.1,5.8-1.8,11.1-5.8,15.4
			c-4,4.4-9,7.3-14.9,8.7c-3.8,0.9-7.7,1.6-11.6,1.9c-4.4,0.3-8.7,0.1-13.1-0.5c-3.2-0.4-6.3-1-9.4-1.8c-1.9-0.5-3.6-1.3-5.4-2.2
			c-0.3-0.2-0.8-0.4-0.6-0.9c0.1-0.2,0.4-0.2,0.6-0.2c2,0.5,3.9,1,5.9,1.5c0,0.2,0,0.4,0.3,0.5c4.1,1.3,8.3,2,12.6,2.3
			c2.2,0.1,4.4,0.3,6.5,0.2c6.1-0.2,12.1-0.9,17.8-3.1c4.8-1.9,8.9-4.9,11.9-9.1c2.6-3.7,3.9-7.8,4-12.4c0-2.5,0.2-4.9-0.8-7.3
			c-0.2-0.4-0.3-0.5-0.7-0.2C474,240.5,473.5,238.6,472.8,236.6z"/>
		<path class="st52" d="M464.2,206.8c0,1-0.8,0.4-1,0.4c-3.3-0.8-6.6-1.7-10.1-1.9c-2.1-0.1-4.2-0.1-6.2,0.4c-3.7,1-6.3,3.1-6.7,7.2
			c0,0.4-0.1,0.8-0.5,1c-2.7-1.6-2.8-7.1,0.8-9.3c1.4-0.9,2.9-1.4,4.4-1.5C451.6,202.5,458.1,203.8,464.2,206.8z"/>
		<path class="st30" d="M474.3,242.5c0.3-0.3,0-0.8,0.2-1.2c0.4,0,0.4,0.4,0.5,0.6c1.5,3.7,1.3,7.5,0.7,11.3c-0.5,3.3-1.7,6.3-3.5,9
			c-1.6,2.3-3.6,4.3-6,6c-3.1,2.3-6.5,3.7-10.2,4.8c-2.3,0.7-4.7,1-7.1,1.3c-3.4,0.4-6.8,0.7-10.2,0.5c-3.1-0.2-6.2-0.5-9.3-0.8
			c-2.7-0.3-5-1.5-7.7-1.8c0.1-0.6,0.6-0.3,0.8-0.6c6.5,1.4,13.2,1.5,19.8,1.4c-0.8,0.4-1.6,0.1-2.4,0.2c-0.5,0-1-0.1-1.5,0.4
			c0.7,0.6,1.5,0.7,2.2,0.5c2.2-0.4,4.4,0,6.6-0.4c2.3-0.3,4.6-0.4,6.8-1.1c3.3-0.9,6.6-1.8,9.5-3.7c3.2-2.1,6.1-4.4,8.2-7.8
			c2.1-3.6,3.3-7.3,3.4-11.4c0-1.4,0-2.9-0.9-4.2C474.4,244.6,474.4,243.6,474.3,242.5z"/>
		<path class="st53" d="M469.9,193.3c0.7-0.9,1.3-0.5,1.7,0.3c0.8,1.5,0.4,3,0,4.5c-0.6,2.6-1.3,5.2-2,7.9c-0.2,0.9-0.8,1.6-1.6,2.1
			c-0.9,0.6-1.6-0.1-2.4-0.5c0.7-0.2,0.7-0.8,0.8-1.3c1.1-4.2,2.2-8.5,3.2-12.7C469.7,193.4,469.8,193.4,469.9,193.3z"/>
		<path class="st54" d="M301.8,152.1c0.3,0.2,0,0.6,0.4,0.7c1.6,0.4,2,1.1,2.1,2.7c0.1,1.5,0,3,0,4.5c0,35.6,0,71.2,0,106.8
			c0,1.3,0.4,2.5,0.1,3.9c-0.5,2.1-1.8,3.3-4,3.3c-5.8,0-11.5,0-17.3,0c-0.9,0-1.8-0.2-2.5-0.9c-0.6-0.6-0.8-1-0.1-1.7
			c5,0,9.9,0,14.9,0c1.8,0,3.6,0,5.4,0c0.7,0,1-0.2,1-0.9c0.2-2,0-4,0-6.1c0-35.1,0-70.2,0-105.3
			C301.8,156.8,301.5,154.4,301.8,152.1z"/>
		<path class="st55" d="M115,271.5c4.7,0,9.4,0,14-0.1c1.5,0,2.9,0,4.4,0c0.6,0,0.9-0.2,0.9-0.9c0-1.6,0.1-3.2,0.1-4.9
			c0-13.3,0-26.5,0.1-39.8c0-4.4,1.6-8.4,4.6-11.6c2.3-2.4,5.1-3.8,8.3-4.5c3.8-0.9,7.5-0.8,11.3-0.1c1,0.2,1.2-0.2,1.2-1.1
			c0-5.6,0-11.1,0-16.7c0-0.5,0-0.9,0.1-1.4c0.9-0.2,1.3,0.4,1.6,1c0.3,0.6,0.3,1.2,0.3,1.9c0,4.6,0,9.3,0,13.9c0,1.1-0.1,2.2-1,3.1
			c-0.8,0.8-1.8,0.9-2.9,0.9c-3.5-0.2-6.9,0.3-10.2,1.5c-4.7,1.9-8.2,5.1-9.9,9.9c-1,2.9-1.4,5.8-1.5,8.9
			c-0.4,11.4-0.1,22.8-0.2,34.2c0,1.3,0.3,2.7,0.1,4c-0.4,2.4-1.6,3.5-4.1,3.6c-1.6,0.1-3.3,0-4.9,0c-3.4,0-6.7,0-10.1,0
			c-0.9,0-1.7-0.1-2.6-0.4c-0.4-0.2-0.8-0.4-0.8-0.9C114.1,271.5,114.6,271.6,115,271.5z"/>
		<path class="st56" d="M115,271.5c-0.3,0.2-0.9,0.1-0.8,0.7c0.1,0.4,0.5,0.5,0.8,0.6c0.7,0.1,1.3,0.3,2,0.3c5,0,10.1,0,15.1,0
			c3,0,4.6-2,4-4.9c-0.1-0.4-0.1-0.9-0.1-1.3c0-10.4-0.1-20.9,0.1-31.3c0.1-3.9,0.1-7.8,1.2-11.6c1.4-4.7,4.2-8.1,8.4-10.4
			c3.1-1.7,6.5-2.5,10.1-2.6c1,0,2,0,3,0c1.8,0,3-1,3-2.8c0-5.2,0-10.4,0-15.6c0-1-0.6-1.7-1.6-2c0-0.5,0-1,0-1.5
			c2.1,0.7,2.7,1.5,2.8,4.2c0,5,0.2,10,0,15c-0.1,2.8-1.2,4-4.1,3.9c-2.1-0.1-4.1,0.1-6.1,0.3c-4.1,0.5-7.7,2.2-10.5,5.2
			c-2.5,2.6-3.8,5.7-4.4,9.2c-0.3,1.9-0.5,3.8-0.5,5.7c0,12.4,0,24.8,0,37.2c0,0.6,0,1.2-0.2,1.8c-0.5,1.9-1.4,2.6-3.4,2.8
			c-5.3,0.4-10.5,0.2-15.8,0.2c-1,0-2-0.1-3.1-0.3c-0.6-0.1-1.2-0.4-1.6-0.9c-0.6-0.6-0.6-1.1,0.1-1.6
			C113.8,271.5,114.4,271.5,115,271.5z"/>
		<path class="st57" d="M417.1,307.9c0.1-0.2,0.2-0.5,0.3-0.8c1,0.8,1.5,1.9,1.7,3c0.9,4.3,0.3,8.3-2.7,11.6c-2,2.2-4.7,3.3-7.6,3.8
			c-2,0.3-4,0.1-6-0.2c-1-0.2-2-0.7-2.8-1.2c-0.3-0.2-0.8-0.5-0.6-1.1c4.5,0.9,8.8,0.5,12.6-2.3c4.2-3,5.8-7.2,5.1-12.3
			C417,308.2,417.1,308,417.1,307.9z"/>
		<path class="st58" d="M416.6,337.9c1.4-0.2,2,0.1,2.6,1.5c0.3,0.9,0.5,1.8,0.5,2.8c0,24.6,0,49.2,0,73.8c0,1-0.1,2-0.3,2.9
			c-0.4,2-1.8,3-4.5,3.1c-5.6,0.1-11.1,0-16.7,0c-1,0-2-0.2-3-0.7c-0.6-0.3-1-0.7-1.2-1.2c-0.3-0.8-0.1-1.3,0.8-1.1
			c0.3,1.4,1.1,2.1,2.8,2.1c6,0,12,0,18,0c1.7,0,2.9-1.4,3-3.2c0-0.3,0-0.6,0-0.8c0-24.9,0-49.8,0-74.8c0-0.8-0.1-1.5-0.3-2.2
			c-0.2-0.6-0.5-1.3-1.1-1.2C416.2,339,416.6,338.3,416.6,337.9z"/>
		<path class="st59" d="M348.9,247.3c-0.3-0.9-0.6-1.9-0.8-2.8c-0.4-2,0.4-3.3,2.4-3.6c1.1-0.1,2.2-0.3,3.3-0.3
			c12.2,0,24.5,0,36.7,0c2.1,0,4.2,0,6.3,0c3.6,0,5.2-1.6,5.5-5.2c0.2-2.3,0.2-4.6,0.2-6.9c0-2.6-0.5-5.1-0.8-7.6
			c-0.2-2.3-1.1-4.4-1.4-6.7c1.1,2.1,1.2,4.4,1.7,6.6c1,4.5,0.7,9,0.7,13.5c0,0.9-0.1,1.9-0.4,2.8c-0.8,3-2.3,4-5.5,4
			c-10.8,0-21.6,0-32.4,0c-4.1,0-8.2,0-12.4,0c-0.4,0-0.7,0-1.1,0c-2.4,0.5-3.2,2-2.3,4.3c0.1,0.4,0.3,0.7,0.5,1.1
			C349.4,246.9,349.4,247.3,348.9,247.3z"/>
		<path class="st44" d="M336.7,267.6c0.8,0.1,1.3,0.6,1.7,1.2C337.7,268.6,336.8,268.6,336.7,267.6z"/>
	</g>
</g>
</svg>
