<svg id="Layer_1" data-name="Layer 1" xmlns="http://www.w3.org/2000/svg" viewBox="0 0 232.87 183.37"><defs><style>.cls-1{fill:#fff;}.cls-2{fill:#cacaca;}.cls-3{fill:#333;}.cls-4{fill:#e4704c;}.cls-5{fill:#e4e4e4;}.cls-6{fill:#c8c8c8;}</style></defs><title>Panels</title><path class="cls-1" d="M64.63,131.54c3.84-15.12,26-16.38,36.65-16.26l-.66-12.39-3.13-.25c-31.8-2.51-41.84,15.68-45,26.75"/><path class="cls-2" d="M65.62,129l-12.33-3.79a.6.6,0,0,0-.72.47l-2.07,6.76c-1.2,3.92.48,7.9,3.75,8.91l1.57.48c3.26,1,6.88-1.36,8.07-5.27L66,129.77A.61.61,0,0,0,65.62,129Z"/><path class="cls-1" d="M65.67,129.09,53.35,125.3l-2.2,7.19c-1.11,3.64.52,7.36,3.63,8.31l1,.33c3.12,1,6.54-1.22,7.65-4.85Z"/><path class="cls-3" d="M53.32,125.66l.57.18,10.91,3.48.57.18c.41.13.78.1.83-.05l.19-.61c0-.16-.24-.4-.65-.52l-.57-.19-10.91-3.47-.57-.18c-.41-.13-.78-.11-.83,0l-.19.61C52.62,125.3,52.91,125.53,53.32,125.66Z"/><rect class="cls-4" x="68.49" y="110.67" width="14.86" height="2.73" rx="0.7" transform="matrix(0.4, 0.92, -0.92, 0.4, 148.77, -2.02)"/><path class="cls-1" d="M88.72,111.59l5-26.1c.48-2.49,3.57-4,6.88-3.38L105,83l11.6,2.23,38.83,7.45c3.3.64,5.61,3.2,5.13,5.69l-5,26.11c-.48,2.49-3.57,4-6.88,3.38l-37.91-7.29L98.65,118.2l-4.8-.92C90.55,116.65,88.24,114.09,88.72,111.59Z"/><rect class="cls-1" x="158" y="92.44" width="15.39" height="38.64" rx="3.97" transform="translate(212.4 -82.57) rotate(69.51)"/><path class="cls-1" d="M186.09,85.14h7.46a4,4,0,0,1,4,4V110.2a3.21,3.21,0,0,1-3.21,3.21h-9a3.21,3.21,0,0,1-3.21-3.21V89.11A4,4,0,0,1,186.09,85.14Z" transform="translate(140.15 -109.1) rotate(48.98)"/><rect class="cls-4" x="164.78" y="107.57" width="16.74" height="2.73" rx="0.7" transform="translate(214.6 -91.38) rotate(69.51)"/><path class="cls-5" d="M180.17,105h6.54a1.7,1.7,0,0,1,1.7,1.7v6a1.7,1.7,0,0,1-1.7,1.7h-6.54a2.43,2.43,0,0,1-2.43-2.43v-4.56a2.43,2.43,0,0,1,2.43-2.43Z" transform="translate(221.82 -100.16) rotate(69.51)"/><rect class="cls-3" x="178.12" y="111.21" width="7.67" height="1.11" rx="0.29" transform="translate(222.97 -97.8) rotate(69.51)"/><rect class="cls-3" x="179.88" y="110.56" width="7.72" height="1.11" rx="0.29" transform="translate(223.51 -99.89) rotate(69.51)"/><rect class="cls-3" x="181.67" y="109.89" width="7.68" height="1.11" rx="0.29" transform="translate(224.04 -101.99) rotate(69.51)"/><rect class="cls-1" x="161.33" y="95.58" width="15.39" height="38.64" rx="3.97" transform="translate(354.86 29.83) rotate(121.2)"/><path class="cls-1" d="M192.56,105.81H200a4,4,0,0,1,4,4V133a3.21,3.21,0,0,1-3.21,3.21h-9a3.21,3.21,0,0,1-3.21-3.21v-23.2a4,4,0,0,1,4-4Z" transform="translate(284.44 -92.07) rotate(80.83)"/><rect class="cls-4" x="167.47" y="117.62" width="16.74" height="2.73" rx="0.7" transform="translate(368.7 30.19) rotate(121.2)"/><rect class="cls-5" x="113.25" y="41.54" width="29.31" height="66.37" rx="7.56" transform="translate(225.41 -36.8) rotate(100.87)"/><path class="cls-3" d="M142.49,92.94l.12-.61,2.21-11.54.12-.61c.08-.42.32-.74.52-.71l.79.16c.2,0,.3.42.22.85l-.12.61-2.21,11.53-.12.61c-.08.43-.32.75-.52.71l-.79-.15C142.51,93.75,142.41,93.37,142.49,92.94Z"/><path class="cls-3" d="M138.05,92.09l.12-.62,2.21-11.53.12-.61c.08-.43.31-.75.52-.71l.79.15c.2,0,.3.43.22.85l-.12.61-2.22,11.54-.11.61c-.08.43-.32.75-.52.71l-.79-.15C138.07,92.9,138,92.51,138.05,92.09Z"/><path class="cls-3" d="M133.6,91.23l.12-.61,2.22-11.53.11-.61c.09-.43.32-.75.52-.71l.79.15c.21,0,.31.42.22.85l-.11.61-2.22,11.54-.12.61c-.08.42-.31.74-.52.7l-.78-.15C133.62,92,133.52,91.66,133.6,91.23Z"/><path class="cls-3" d="M150,126.16l.25-1.33L155.1,99.7l.26-1.33c.17-.93.45-1.68.62-1.65l.63.12c.16,0,.14.83,0,1.76l-.25,1.33-4.83,25.13-.26,1.33c-.17.93-.46,1.68-.62,1.65l-.62-.12C149.82,127.89,149.84,127.09,150,126.16Z"/><path class="cls-3" d="M126.88,120.88l.09-.49c0-.2.18-.34.32-.31l.85.16,3.16.61.85.16a.34.34,0,0,1,.18.41l-.1.48c0,.2-.18.34-.31.32l-.85-.17-3.16-.6-.85-.17C126.92,121.26,126.84,121.07,126.88,120.88Z"/><path class="cls-3" d="M117.56,64.81l.09-.48c0-.2.18-.34.32-.31l.85.16,3.16.61.85.16c.14,0,.22.21.18.41l-.09.48c0,.2-.19.34-.32.31l-.85-.16-3.16-.61-.85-.16C117.6,65.2,117.52,65,117.56,64.81Z"/><path class="cls-3" d="M129.34,122.93v-.08l.29-1.51,0-.08c0-.05.15-.07.31,0l.63.12c.16,0,.29.1.28.16l0,.08-.29,1.51v.08s-.16.07-.32,0l-.63-.12C129.45,123.06,129.33,123,129.34,122.93Z"/><path class="cls-6" d="M124.78,118.16l2.19.42c.89.18,1.55.67,1.46,1.1l-.1.54-.2,1-.11.59c-.09.44-.88.65-1.78.48l-2.18-.42c-.89-.17-1.55-.66-1.47-1.1l.11-.54.2-1,.11-.6C123.09,118.21,123.89,118,124.78,118.16Z"/><path class="cls-6" d="M110.27,114.27l.27-1.44a1,1,0,0,1,1-.91l.56.11,1.09.21.62.12a1,1,0,0,1,.62,1.23l-.28,1.43a1,1,0,0,1-1,.91l-.56-.11-1.08-.2-.62-.12A1,1,0,0,1,110.27,114.27Z"/><path class="cls-4" d="M109.51,118.24l.24-1.29a.92.92,0,0,1,1-.8l.56.11,1.09.21.62.12a.91.91,0,0,1,.64,1.11l-.25,1.29a.91.91,0,0,1-1,.8l-.56-.11-1.08-.21-.62-.12A.89.89,0,0,1,109.51,118.24Z"/><path class="cls-4" d="M113.57,64.46l.25-1.29a.91.91,0,0,1,1-.79l.56.1,1.08.21.62.12a.92.92,0,0,1,.64,1.12l-.25,1.29a.91.91,0,0,1-1,.79l-.56-.1-1.09-.21-.62-.12A.93.93,0,0,1,113.57,64.46Z"/><path class="cls-3" d="M60.54,122.93a34,34,0,0,0,25.55-5A29.18,29.18,0,0,0,98.63,99.18C101.8,82.64,89.91,66.45,72.05,63S37.14,70.22,34,86.76a29.21,29.21,0,0,0,4.72,22A34,34,0,0,0,60.54,122.93Z"/><path class="cls-1" d="M41.69,115.81A32.39,32.39,0,1,0,32.25,91.7,32.22,32.22,0,0,0,41.69,115.81Z"/><path class="cls-5" d="M178.72,121.3h6.54A1.7,1.7,0,0,1,187,123v6a1.7,1.7,0,0,1-1.7,1.7h-6.54a2.43,2.43,0,0,1-2.43-2.43v-4.56a2.43,2.43,0,0,1,2.43-2.43Z" transform="translate(365.16 2.79) rotate(111.37)"/><rect class="cls-3" x="175.62" y="126.21" width="7.67" height="1.11" rx="0.29" transform="translate(362.89 5.84) rotate(111.37)"/><rect class="cls-3" x="177.36" y="126.91" width="7.72" height="1.11" rx="0.29" transform="translate(365.94 5.15) rotate(111.37)"/><rect class="cls-3" x="179.14" y="127.6" width="7.68" height="1.11" rx="0.29" transform="translate(368.99 4.44) rotate(111.37)"/><path class="cls-3" d="M41.6,116a32.11,32.11,0,0,0,24.15,9.39l.37-.35A23.73,23.73,0,1,0,32.56,91.47c-.12.12-.24.24-.35.37A32.11,32.11,0,0,0,41.6,116Z"/><path class="cls-2" d="M59.3,96.65C55,92.37,49.55,90.35,45,90.9c5.19-3.07,12.35-2.06,17.23,2.83s5.9,12,2.83,17.23C65.6,106.4,63.58,100.94,59.3,96.65Z"/><rect class="cls-5" x="68.32" y="71.73" width="13.01" height="22.07" rx="3.35" transform="translate(186.25 88.37) rotate(135)"/><rect class="cls-1" x="71.08" y="71.28" width="9.24" height="21.2" rx="2.38" transform="translate(187.12 86.25) rotate(135)"/><rect class="cls-3" x="69.56" y="75.64" width="5.32" height="5.54" rx="1.37" transform="translate(178.73 82.77) rotate(135)"/><rect class="cls-3" x="76.01" y="82.08" width="5.32" height="5.54" rx="1.37" transform="translate(194.29 89.22) rotate(135)"/><ellipse class="cls-3" cx="107.96" cy="104.3" rx="7.13" ry="7.4" transform="translate(-14.83 190.64) rotate(-79.13)"/><ellipse class="cls-1" cx="107.78" cy="103.97" rx="6.26" ry="6.41" transform="translate(-10.32 11.89) rotate(-6.03)"/><path class="cls-2" d="M88.23,68.08l3.9-12.3a.61.61,0,0,0-.46-.73l-6.74-2.12C81,51.7,77,53.34,76,56.6l-.49,1.56c-1,3.26,1.29,6.89,5.19,8.12l6.74,2.13A.62.62,0,0,0,88.23,68.08Z"/><path class="cls-1" d="M85.67,67.06c15.09,4,16.16,26.1,15.94,36.8l12.4-.55c.09-1,.18-2,.27-3.13C117.08,68.4,99,58.2,87.93,55"/><path class="cls-1" d="M88.11,68.12,92,55.84l-7.17-2.26c-3.62-1.14-7.36.45-8.34,3.55l-.33,1c-1,3.11,1.15,6.55,4.77,7.69Z"/><path class="cls-3" d="M91.65,55.8l-.18.58L87.9,67.25l-.19.57c-.13.41-.11.78,0,.83l.61.2c.16.05.4-.24.53-.64l.19-.58,3.56-10.87.19-.58c.14-.4.12-.77,0-.82l-.61-.2C92,55.11,91.79,55.4,91.65,55.8Z"/><rect class="cls-4" x="97.65" y="77.16" width="14.86" height="2.73" rx="0.7" transform="translate(232.38 110.19) rotate(157.2)"/><circle class="cls-3" cx="151.8" cy="72.88" r="3.63"/><circle class="cls-5" cx="151.8" cy="72.88" r="2.39"/></svg>