<?xml version="1.0" encoding="utf-8"?>
<!-- Generator: Adobe Illustrator 24.1.3, SVG Export Plug-In . SVG Version: 6.00 Build 0)  -->
<svg version="1.1" id="Layer_1" xmlns="http://www.w3.org/2000/svg" xmlns:xlink="http://www.w3.org/1999/xlink" x="0px" y="0px"
	 viewBox="0 0 2160 1000" style="enable-background:new 0 0 2160 1000;" xml:space="preserve">
<style type="text/css">
	.st0{fill:#0071BA;}
	.st1{fill:#0287D1;}
	.st2{fill:#006837;}
	.st3{fill:#22B573;}
	.st4{fill:#009245;}
</style>
<path class="st0" d="M168.8,437h154.7c13.7,0,24.9,11.1,24.9,24.9l0,0v85.9l0,0H143.9l0,0v-85.9C143.9,448.1,155.1,437,168.8,437
	C168.8,437,168.8,437,168.8,437z"/>
<path class="st0" d="M227.8,310c-25.8,25.8-26.3,67.2-1.1,92.5s66.6,24.8,92.5-1L227.8,310z"/>
<rect x="243.5" y="356.1" transform="matrix(0.7071 -0.7071 0.7071 0.7071 -172.5626 300.7174)" class="st0" width="66.5" height="5.1"/>
<rect x="241.6" y="344.9" transform="matrix(0.8426 -0.5385 0.5385 0.8426 -143.525 201.4144)" class="st0" width="62.6" height="2.7"/>
<rect x="257.8" y="361.1" transform="matrix(0.5385 -0.8426 0.8426 0.5385 -172.0495 410.8773)" class="st0" width="62.6" height="2.7"/>
<ellipse transform="matrix(0.7071 -0.7071 0.7071 0.7071 -146.6995 311.4907)" class="st0" cx="302.7" cy="332.8" rx="7.3" ry="7.9"/>
<path class="st0" d="M218.4,402.6L218.4,402.6c5.7,0,10.3,4.6,10.3,10.3v61.9c0,5.7-4.6,10.3-10.3,10.3l0,0
	c-5.7,0-10.3-4.6-10.3-10.3v-61.9C208.2,407.2,212.8,402.6,218.4,402.6z"/>
<path class="st0" d="M234.5,414.2L234.5,414.2c5.6,0,10.1,4.5,10.1,10.1v16c0,5.6-4.5,10.1-10.1,10.1h0c-5.6,0-10.1-4.5-10.1-10.1
	v-16C224.4,418.7,229,414.2,234.5,414.2z"/>
<circle class="st1" cx="218.8" cy="412" r="3.8"/>
<circle class="st1" cx="235.5" cy="422.6" r="3.8"/>
<path class="st1" d="M240.6,474.9h41.2c21,0,38,17,38,38l0,0V533l0,0H202.6l0,0v-20.1C202.6,491.9,219.6,474.9,240.6,474.9
	C240.6,474.9,240.6,474.9,240.6,474.9z"/>
<path class="st1" d="M134.4,462L134.4,462c20.1,0,36.5,16.3,36.5,36.5l0,0v39.2l0,0H98l0,0v-39.2C98,478.4,114.3,462,134.4,462z"/>
<path class="st1" d="M449.8,346.3L449.8,346.3c23.2,0,42,18.8,42,42c0,0,0,0,0,0v124.6l0,0h-83.9l0,0V388.3
	C407.8,365.1,426.6,346.3,449.8,346.3C449.8,346.3,449.8,346.3,449.8,346.3z"/>
<path class="st0" d="M496.8,360.7L496.8,360.7c16.7,0,30.3,13.6,30.3,30.3v121.9l0,0h-60.6l0,0V391
	C466.5,374.3,480.1,360.7,496.8,360.7C496.8,360.7,496.8,360.7,496.8,360.7z"/>
<path class="st0" d="M392.6,479.2h18.9l0,0v33.8l0,0h-45.3l0,0v-7.3C366.1,491,378,479.2,392.6,479.2z"/>
<path class="st0" d="M421,458.1h8.5c11.2,0,20.3,9.1,20.3,20.3v0v18c0,1.3-1,2.3-2.3,2.3H421c-11.2,0-20.3-9.1-20.3-20.3l0,0l0,0
	C400.7,467.2,409.8,458.1,421,458.1z"/>
<path class="st0" d="M393.8,492.9h54.4c7.1,0,12.8,5.7,12.8,12.8v7.2l0,0h-67.2c-5.5,0-10-4.5-10-10l0,0
	C383.7,497.4,388.2,492.9,393.8,492.9z"/>
<path class="st2" d="M2160,510v388.2H866.8V598.6c25.3-5.9,50.3-13.2,74.8-21.9c359.7-127.7,627-152.8,707.4-157.7
	c7.2-0.4,12.9-0.7,17-0.9c4.1-0.2,70.3-0.4,102.6-0.3h8.6c4.8,0,7.9,0.1,8.6,0.1c1.5,0.1,3,0.2,4.7,0.4c2.6,0.2,5.4,0.5,8.6,0.8
	c4,0.4,8.5,0.9,13.4,1.4c2.7,0.3,5.6,0.6,8.6,1c4.2,0.5,8.7,1.1,13.4,1.7c2.8,0.4,5.6,0.8,8.6,1.2c4.3,0.6,8.8,1.2,13.4,2l8.6,1.3
	c4.3,0.7,8.8,1.4,13.4,2.2l8.6,1.5c4.4,0.7,8.8,1.6,13.4,2.4c2.8,0.5,5.7,1.1,8.6,1.6c4.4,0.8,8.9,1.7,13.4,2.6
	c2.8,0.6,5.7,1.2,8.6,1.8c5.5,1.2,11.1,2.4,16.7,3.6l7.6,1.7c29.8,6.7,62,15.1,95.3,25.4C2088,481.9,2124.4,495.1,2160,510z"/>
<path class="st0" d="M2022.5,372.6h-12v-44.8c0-1.9-1.5-3.4-3.4-3.4h-12.3c-1.9,0-3.4,1.5-3.4,3.4v44.8h-110.8v3.6
	c0-6.2-5.1-11.2-11.3-11.2h-75.5v-23.6c0-6.6-4.3-12.3-10.6-14.2v-25.8c0-5.3-3.4-10-8.4-12.6v-57.5c0-5-2.3-9.8-6.2-13
	c0.1-0.9,0.1-1.9,0.1-2.9c0-14.1-7.4-26-17.8-30.7V151l1.5-2.6l-11.1-19.2l-11.1,19.2l1.5,2.6v33.8c-10.4,4.7-17.8,16.6-17.8,30.7
	c0,1,0,1.9,0.1,2.9c-3.9,3.2-6.2,7.9-6.2,13v57.4c-5,2.6-8.4,7.3-8.4,12.6v25.8c-6.3,1.9-10.6,7.7-10.6,14.2v23.6h-75.5
	c-6.2,0-11.2,5-11.3,11.2v-4.9h-141.7c-22.9,0-41.4,18.5-41.4,41.4c0,0,0,0,0,0v144h183.2v-16.1c0,6.2,5.1,11.3,11.3,11.3h255.6
	c6.2,0,11.3-5.1,11.3-11.3V558h183.2V414C2063.9,391.1,2045.4,372.6,2022.5,372.6z"/>
<path class="st1" d="M1877.2,400.5c0-6-4.9-10.8-10.8-10.8h-13.8c3.2-3.9,2.7-9.7-1.3-12.9c-1.6-1.4-3.7-2.1-5.9-2.1h-207.7
	c-5.1,0-9.2,4.1-9.2,9.2c0,2.1,0.7,4.2,2.1,5.8h-13.8c-6,0-10.8,4.8-10.8,10.8c0,3.8,1.9,7.2,5.1,9.2v149.7h13.8v-148h21.5v148h13.8
	v-148h21.5v148h13.8v-148h21.5v148h13.8v-148h21.5v148h13.8v-148h21.5v148h13.8v-148h21.4v148h13.8v-148h21.5v148h13.8V409.6
	C1875.2,407.7,1877.1,404.2,1877.2,400.5z"/>
<circle class="st1" cx="1741.6" cy="293.6" r="22.5"/>
<path class="st1" d="M1441.9,406.9h7.5c3.4,0,6.2,2.8,6.2,6.2v27.3c0,3.4-2.8,6.2-6.2,6.2h-7.5c-3.4,0-6.2-2.8-6.2-6.2v-27.3
	C1435.7,409.7,1438.5,406.9,1441.9,406.9z"/>
<path class="st1" d="M1484.1,406.9h7.5c3.4,0,6.2,2.8,6.2,6.2v27.3c0,3.4-2.8,6.2-6.2,6.2h-7.5c-3.4,0-6.2-2.8-6.2-6.2v-27.3
	C1477.9,409.7,1480.7,406.9,1484.1,406.9z"/>
<path class="st1" d="M1526.3,406.9h7.5c3.4,0,6.2,2.8,6.2,6.2v27.3c0,3.4-2.8,6.2-6.2,6.2h-7.5c-3.4,0-6.2-2.8-6.2-6.2v-27.3
	C1520.2,409.7,1522.9,406.9,1526.3,406.9z"/>
<path class="st1" d="M1568.6,406.9h7.5c3.4,0,6.2,2.8,6.2,6.2v27.3c0,3.4-2.8,6.2-6.2,6.2h-7.5c-3.4,0-6.2-2.8-6.2-6.2v-27.3
	C1562.4,409.7,1565.1,406.9,1568.6,406.9z"/>
<path class="st1" d="M1441.9,466.9h7.5c3.4,0,6.2,2.8,6.2,6.2v27.3c0,3.4-2.8,6.2-6.2,6.2h-7.5c-3.4,0-6.2-2.8-6.2-6.2v-27.3
	C1435.7,469.7,1438.5,466.9,1441.9,466.9z"/>
<path class="st1" d="M1484.1,466.9h7.5c3.4,0,6.2,2.8,6.2,6.2v27.3c0,3.4-2.8,6.2-6.2,6.2h-7.5c-3.4,0-6.2-2.8-6.2-6.2v-27.3
	C1477.9,469.7,1480.7,466.9,1484.1,466.9z"/>
<path class="st1" d="M1526.3,466.9h7.5c3.4,0,6.2,2.8,6.2,6.2v27.3c0,3.4-2.8,6.2-6.2,6.2h-7.5c-3.4,0-6.2-2.8-6.2-6.2v-27.3
	C1520.2,469.7,1522.9,466.9,1526.3,466.9z"/>
<path class="st1" d="M1568.6,466.9h7.5c3.4,0,6.2,2.8,6.2,6.2v27.3c0,3.4-2.8,6.2-6.2,6.2h-7.5c-3.4,0-6.2-2.8-6.2-6.2v-27.3
	C1562.4,469.7,1565.1,466.9,1568.6,466.9z"/>
<path class="st1" d="M1903,466.9h7.5c3.4,0,6.2,2.8,6.2,6.2v27.3c0,3.4-2.8,6.2-6.2,6.2h-7.5c-3.4,0-6.2-2.8-6.2-6.2v-27.3
	C1896.8,469.7,1899.5,466.9,1903,466.9z"/>
<path class="st1" d="M1945.2,466.9h7.5c3.4,0,6.2,2.8,6.2,6.2v27.3c0,3.4-2.8,6.2-6.2,6.2h-7.5c-3.4,0-6.2-2.8-6.2-6.2v-27.3
	C1939,469.7,1941.8,466.9,1945.2,466.9z"/>
<path class="st1" d="M1987.4,466.9h7.5c3.4,0,6.2,2.8,6.2,6.2v27.3c0,3.4-2.8,6.2-6.2,6.2h-7.5c-3.4,0-6.2-2.8-6.2-6.2v-27.3
	C1981.2,469.7,1984,466.9,1987.4,466.9z"/>
<path class="st1" d="M2029.6,466.9h7.5c3.4,0,6.2,2.8,6.2,6.2v27.3c0,3.4-2.8,6.2-6.2,6.2h-7.5c-3.4,0-6.2-2.8-6.2-6.2v-27.3
	C2023.4,469.7,2026.2,466.9,2029.6,466.9z"/>
<path class="st1" d="M1903,410.9h7.5c3.4,0,6.2,2.8,6.2,6.2v27.3c0,3.4-2.8,6.2-6.2,6.2h-7.5c-3.4,0-6.2-2.8-6.2-6.2v-27.3
	C1896.8,413.7,1899.5,410.9,1903,410.9z"/>
<path class="st1" d="M1945.2,410.9h7.5c3.4,0,6.2,2.8,6.2,6.2v27.3c0,3.4-2.8,6.2-6.2,6.2h-7.5c-3.4,0-6.2-2.8-6.2-6.2v-27.3
	C1939,413.7,1941.8,410.9,1945.2,410.9z"/>
<path class="st1" d="M1987.4,410.9h7.5c3.4,0,6.2,2.8,6.2,6.2v27.3c0,3.4-2.8,6.2-6.2,6.2h-7.5c-3.4,0-6.2-2.8-6.2-6.2v-27.3
	C1981.2,413.7,1984,410.9,1987.4,410.9z"/>
<path class="st1" d="M2029.6,410.9h7.5c3.4,0,6.2,2.8,6.2,6.2v27.3c0,3.4-2.8,6.2-6.2,6.2h-7.5c-3.4,0-6.2-2.8-6.2-6.2v-27.3
	C2023.4,413.7,2026.2,410.9,2029.6,410.9z"/>
<path class="st3" d="M1363.5,572c-205.3-77.1-499.7-94.1-559.4-96.2c-5.2-0.2-114.7,0-119.9,0c-48.6,1-313.4,9-684.2,70.4v342.2
	h1438.9V589.6C1412.5,586.6,1387.2,580.9,1363.5,572z"/>
<g>
	<path class="st4" d="M1720.6,499.4c0,0-377.6,5.4-951.6,187.2c-306.4,97.1-580.3,23.1-769-66.9v380.4h2160V558
		C1928.3,509.6,1720.6,499.4,1720.6,499.4z"/>
</g>
</svg>
