<?xml version="1.0" encoding="utf-8"?>
<!-- Generator: Adobe Illustrator 24.1.3, SVG Export Plug-In . SVG Version: 6.00 Build 0)  -->
<svg version="1.1" id="Layer_1" xmlns="http://www.w3.org/2000/svg" xmlns:xlink="http://www.w3.org/1999/xlink" x="0px" y="0px"
	 viewBox="0 0 2160 1499.9" style="enable-background:new 0 0 2160 1499.9;" xml:space="preserve">
<style type="text/css">
	.st0{fill:#E4704C;}
	.st1{fill:#BC583C;}
	.st2{fill:#AD402D;}
</style>
<path class="st0" d="M2091,189.2c-33.1-2.4,4.9-83.8-20.9-88.5C1903,70.1,1867.3-0.9,1657.3,0c-287.8,1.2-348,135-638.1,127.7
	C831.7,123,755.9,64.6,609.6,28.4C466-7.1,272-16.9,13.4,60.1L0,65l0,86.9l0-0.1v492C407,757,1017.1,823.6,1564.3,802.4
	c95.4-3.7,188.8-10.1,279-19.3c111.5-11.5,218-27.4,316.7-48.1V146C2160,134.3,2092.4,200.5,2091,189.2z"/>
<path class="st1" d="M2139.5,84.6c-3.8-0.1-7.8-0.1-11.8,0.1c-10.1,0.5-20.2,2.1-30,4.7c-3.8,1-7.4,2.1-11,3.3l-16.6,7.9
	c-9.2,5.4-18.3,11.1-27.4,16.8c-18.6,11.9-37.2,24.4-55.9,37.2l-4,2.8c-115.5,78.9-239.7,167.1-443,173.6
	c-282.4,9.1-303.4-152.4-580.3-99.8c-127.2,24.2-214.9,75.8-317.9,93.2c-10.7,1.8-21.5,3.2-32.5,4.3c-3,0.3-6,0.5-9,0.7
	c-21.4,1.5-42.9,1.3-64.2-0.7c-6.1-0.5-12.3-1.2-18.7-2.1c-12.8-1.7-26-4.1-39.7-7.2c-41-9.2-72.1-21.6-99.2-35.7
	c-9.7-5-19-10.3-28-15.7c-16.3-9.8-31.9-20.1-48.4-30.4c-22-13.9-45.7-27.9-74.8-41c-55.2-24.9-123.9-44-209-44.9
	c-6-0.1-12,0-18.1,0.1v610.9c407,99.1,1017.4,100.8,1564.2,39.6c148.2-16.6,291.8-37.8,425.4-62.9c58.9-11.1,115.9-22.9,170.4-35.4
	V146l0-61.4H2139.5z"/>
<ellipse class="st2" cx="670.4" cy="392.7" rx="80.7" ry="15.3"/>
<ellipse class="st2" cx="164.2" cy="392.7" rx="131.1" ry="36.6"/>
<ellipse class="st2" cx="1132.3" cy="464.1" rx="121.6" ry="30.7"/>
<ellipse class="st2" cx="1718" cy="449.8" rx="142.5" ry="46.7"/>
<ellipse class="st1" cx="1454" cy="140" rx="95" ry="20.5"/>
<ellipse class="st1" cx="787.2" cy="208.4" rx="81.7" ry="14.3"/>
<ellipse class="st1" cx="145.2" cy="81.2" rx="58.9" ry="19.6"/>
<path class="st1" d="M1887.8,62.1c-6.4,1.8-13,3.1-19.6,3.9c-4,0.5-8.4,1-13,1.3c-26.1,1.9-51.3-0.2-59.5-4.7
	c-0.7-0.4-1.3-0.8-1.9-1.4c-3-3.1,1.6-6.3,11.2-9c0.8-0.2,1.7-0.5,2.6-0.7c3.8-0.9,8.3-1.8,13.3-2.5c2.9-0.4,6.1-0.8,9.3-1.1
	c1.8-0.2,3.7-0.3,5.7-0.5c5.3-0.4,10.5-0.6,15.5-0.7c3.2,0,6.2,0,9.1,0c3.3,0.1,6.6,0.2,9.6,0.4c13.7,0.9,24.1,3.2,27.2,6.3
	C1900.3,56.4,1896.4,59.5,1887.8,62.1z"/>
<path class="st2" d="M1756.6,560.3c-250.3,48.8-250.2-59.7-557.2-34.8c-272.8,22.1-367.6,115.4-592.7,62.2
	c-97.4-23-78.8-40.3-192.5-69.7C294.1,486.9,129.1,571.1,0,597.6v153.5v190v558.7h2160V865.4V751.2V466.9
	C2048,431.3,1960.9,520.5,1756.6,560.3z"/>
</svg>
