<svg id="Layer_1" data-name="Layer 1" xmlns="http://www.w3.org/2000/svg" viewBox="0 0 250 250"><defs><style>.cls-1{fill:#50429a;}</style></defs><path d="M247.41,113.69a10.74,10.74,0,0,1-1.26,2.51l-48.52,82.45-.33.57a3.82,3.82,0,0,1-3.23,1.9H157.65c0,.32,0,.6,0,.88V221.3a4.86,4.86,0,0,1-.06,1,3.78,3.78,0,0,1-7.49-.57c0-.26,0-.53,0-.79v-19.7c-.59-.15-50.81-.18-51.71,0,.09,1,.18,2.1.28,3.15.21,2.31.44,4.61.66,6.92.12,1.33.23,2.65.37,4a3.8,3.8,0,0,1-3.38,4.28,3.75,3.75,0,0,1-4.12-3.4c-.26-2.43-.47-4.86-.7-7.29s-.47-4.86-.7-7.29c0-.11,0-.23-.07-.42H67.35a6.37,6.37,0,0,1-1.57-.19,3.75,3.75,0,0,1-2.14-1.63L52.87,183.83q-22.63-32.52-45.27-65a6.38,6.38,0,0,1-.8-1.53,3.52,3.52,0,0,1,.43-3.05l5.61-10Q34.7,65.33,56.55,26.45a4.22,4.22,0,0,1,2.33-2.16l.82-.24h.87a3.11,3.11,0,0,0,.49.11l2.89.19,6.8.48,9.33.67L87,26l9.32.67,6.87.49,9.4.68,6.8.48,9.47.68,6.8.48,9.25.67,6.94.49,9.19.67,9,.63c3.06.22,6.12.47,9.18.66a4.14,4.14,0,0,1,3.08,1.53Q188,41,193.84,47.93l52,61.69a6.63,6.63,0,0,1,1.55,2.48Zm-8.45-.35c-.16-.21-.27-.36-.4-.51l-6.12-7.27L182.76,46.63l-5.1-6a1.2,1.2,0,0,0-.88-.54c-2.63-.17-5.25-.38-7.88-.56L161.75,39l-2.31-.18-5.27-.39c-.91-.07-1.83-.11-2.75-.18-1.66-.12-3.31-.27-5-.39s-3.37-.2-5.05-.32L134.46,37c-2-.16-4.05-.3-6.07-.44l-7.15-.46L118.93,36c-1.69-.13-3.37-.28-5.06-.4s-3.32-.2-5-.32c-2.34-.17-4.67-.37-7-.54-1.69-.12-3.38-.21-5.06-.32l-2.24-.17c-1.64-.12-3.27-.27-4.91-.38s-3.37-.2-5.06-.33c-2.31-.16-4.62-.37-6.93-.53s-4.76-.32-7.15-.47l-2.24-.16C66.67,32.21,65,32,63.4,32c-1.41-.07-1.06-.18-1.68.91Q55.42,44,49.15,55.23,39.07,73.14,29,91.05q-6.82,12.17-13.68,24.32a1,1,0,0,0,.08,1.3c1.14,1.59,2.25,3.2,3.37,4.81q24.81,35.64,49.61,71.29a1.39,1.39,0,0,0,1.29.69q60.67,0,121.33,0a1.26,1.26,0,0,0,1.25-.73q10.26-17.47,20.54-34.93l23.49-39.91Z"/><path class="cls-1" d="M239,113.34l-2.67,4.55L212.8,157.8q-10.28,17.46-20.54,34.93a1.26,1.26,0,0,1-1.25.73q-60.66,0-121.33,0a1.39,1.39,0,0,1-1.29-.69Q43.6,157.12,18.78,121.48c-1.12-1.61-2.23-3.22-3.37-4.81a1,1,0,0,1-.08-1.3Q22.2,103.22,29,91.05,39.07,73.14,49.15,55.23,55.44,44,61.72,32.86c.62-1.09.27-1,1.68-.91,1.63.09,3.27.26,4.9.39l2.24.16c2.39.15,4.77.29,7.15.47s4.62.37,6.93.53c1.69.13,3.38.21,5.06.33s3.27.26,4.91.38l2.24.17c1.68.11,3.37.2,5.06.32,2.33.17,4.66.37,7,.54,1.66.12,3.32.21,5,.32s3.37.27,5.06.4l2.31.17,7.15.46c2,.14,4.05.28,6.07.44l6.93.54c1.68.12,3.37.2,5.05.32s3.32.27,5,.39c.92.07,1.84.11,2.75.18l5.27.39,2.31.18,7.15.46c2.63.18,5.25.39,7.88.56a1.2,1.2,0,0,1,.88.54l5.1,6,49.68,58.93,6.12,7.27C238.69,113,238.8,113.13,239,113.34ZM125.59,120.5c1.34-.13,2.7-.17,4-.43a15,15,0,0,0,10.24-7.28,8.32,8.32,0,0,0,.85-1.75,2.71,2.71,0,0,0-.72-2.93,2.82,2.82,0,0,0-3-.71,3.08,3.08,0,0,0-1.85,1.72,9.16,9.16,0,0,1-6.67,5.17,15.63,15.63,0,0,1-5,.1,12.78,12.78,0,0,1-6.37-2.36c-1.67-1.26-3.25-2.65-4.86-4-.43-.36-.79-.79-1.21-1.15a2.93,2.93,0,0,0-4.84,1.66,2.9,2.9,0,0,0,.87,2.7,60.22,60.22,0,0,0,5.46,4.76A21,21,0,0,0,125.59,120.5ZM72.94,87.35a6.17,6.17,0,1,0,.17,12.34,6.25,6.25,0,0,0,6.06-6.15A6.17,6.17,0,0,0,72.94,87.35ZM172.09,100a6.16,6.16,0,0,0,6.2-6.11,6.28,6.28,0,0,0-6.21-6.21,6.19,6.19,0,0,0-6.16,6.18A6,6,0,0,0,172.09,100Z"/><path d="M125.59,120.5a21,21,0,0,1-13-4.5,60.22,60.22,0,0,1-5.46-4.76,2.9,2.9,0,0,1-.87-2.7,2.93,2.93,0,0,1,4.84-1.66c.42.36.78.79,1.21,1.15,1.61,1.35,3.19,2.74,4.86,4a12.78,12.78,0,0,0,6.37,2.36,15.63,15.63,0,0,0,5-.1,9.16,9.16,0,0,0,6.67-5.17A3.08,3.08,0,0,1,137,107.4a2.82,2.82,0,0,1,3,.71,2.71,2.71,0,0,1,.72,2.93,8.32,8.32,0,0,1-.85,1.75,15,15,0,0,1-10.24,7.28C128.29,120.33,126.93,120.37,125.59,120.5Z"/><path d="M72.94,87.35a6.17,6.17,0,0,1,6.23,6.19,6.2,6.2,0,0,1-12.39.06A6.15,6.15,0,0,1,72.94,87.35Z"/><path d="M172.09,100a6,6,0,0,1-6.17-6.14,6.19,6.19,0,0,1,6.16-6.18,6.28,6.28,0,0,1,6.21,6.21A6.16,6.16,0,0,1,172.09,100Z"/></svg>