<svg id="Layer_1" data-name="Layer 1" xmlns="http://www.w3.org/2000/svg" viewBox="0 0 1861.49 1753.28"><defs><style>.cls-1{fill:#3e4264;}.cls-2{fill:#4b5078;}.cls-3{fill:#333149;}.cls-4{fill:#45496f;}</style></defs><title>Artboard 1</title><path class="cls-1" d="M341.67,306.49c.09,2-2,2.77-3.81,3.45a37.63,37.63,0,0,1-5,1.45c-21.35,5-43.11,6-65.06,4.2-3.05-.23-7.57-.23-8-3.54-.36-3,3.95-3.26,6.66-4.07,16.13-4.82,33-5.36,49.92-6.06,2.77,0,5.54.09,8.32,0,4.39-.19,8.49,1.09,12.69,1.58C339.41,303.71,341.57,304.42,341.67,306.49Z"/><path class="cls-1" d="M1067.33,252.64a63.71,63.71,0,0,1-25.72,4c-4,2-8.39.9-12.61,1.18a103.6,103.6,0,0,1-25.27-2.18c-2.48-.53-5.21-1.3-5.65-3.61-.52-2.66,2.66-3.26,4.8-4.07A61,61,0,0,1,1028.5,244c8.36-.44,29.86-.72,38,.94,2.49.51,5.25,1.28,5.69,3.59C1072.72,251.23,1069.52,251.81,1067.33,252.64Z"/><path class="cls-1" d="M447.82,150.57c-3.71-2.09-8-2.54-12.22-3.12a80.72,80.72,0,0,0-35.69,3.35c-2.22.7-4.18,1.77-4.46,3.9-.32,2.5,1.92,3.72,4.18,4.7a17.64,17.64,0,0,0,4.27,1.21c5.23.86,10.41,1.88,15.57,1.3,7.38.52,14.28-.7,21.12-2.28a17.34,17.34,0,0,0,7.85-3.58C451.22,153.64,451.05,152.4,447.82,150.57ZM695.92,113a32,32,0,0,0-8.4-2.75c-8.26-1.69-16.6-1-23-1.17-7,0-12-.2-17.07,0a82.15,82.15,0,0,0-21.37,3.75c-1.62.54-3.26,1.39-3.76,2.82.5,1.54,2.29,2.3,4.12,2.82,1.41.38,2.82.74,4.25,1.06l-4.89.51.64.2c1.41.38,2.82.74,4.25,1.08A64.9,64.9,0,0,0,642,123c9.54.4,19,1,28.59.08,6.76-.66,13.39-1.34,19.84-3.07.53-.15,1.06-.3,1.6-.47.76-.21,1.55-.45,2.3-.73l-3.9-.59c.53-.15,1.06-.28,1.6-.47a17.18,17.18,0,0,0,4.09-1.56,4.61,4.61,0,0,0,1.73-1.58,4.54,4.54,0,0,0-1.88-1.56Zm-248.1,37.53c-3.71-2.09-8-2.54-12.22-3.12a80.72,80.72,0,0,0-35.69,3.35c-2.22.7-4.18,1.77-4.46,3.9-.32,2.5,1.92,3.72,4.18,4.7a17.64,17.64,0,0,0,4.27,1.21c5.23.86,10.41,1.88,15.57,1.3,7.38.52,14.28-.7,21.12-2.28a17.34,17.34,0,0,0,7.85-3.58C451.22,153.64,451.05,152.4,447.82,150.57Zm0,0c-3.71-2.09-8-2.54-12.22-3.12a80.72,80.72,0,0,0-35.69,3.35c-2.22.7-4.18,1.77-4.46,3.9-.32,2.5,1.92,3.72,4.18,4.7a17.64,17.64,0,0,0,4.27,1.21c5.23.86,10.41,1.88,15.57,1.3,7.38.52,14.28-.7,21.12-2.28a17.34,17.34,0,0,0,7.85-3.58C451.22,153.64,451.05,152.4,447.82,150.57Zm250-35.93c.64-1.15,0-2.34-1.9-3.37a30.64,30.64,0,0,0-8.38-2.75c-8.26-1.71-16.6-1-23-1.2-7,0-12-.19-17,.05a80.86,80.86,0,0,0-21.37,3.77c-1.9.62-3.8,1.67-3.9,3.54a3.72,3.72,0,0,0,.14,1,2.62,2.62,0,0,0-.14.73c-.11,2,1.66,3,3.62,3.66l.64.2c1.41.38,2.82.74,4.25,1.08A64.9,64.9,0,0,0,642,123c9.54.4,19,1,28.59.08,6.76-.66,13.39-1.34,19.84-3.07.53-.15,1.06-.3,1.6-.47.76-.21,1.55-.45,2.3-.73a11,11,0,0,0,1.81-.83c1.7-1,2.26-2.19,1.62-3.32ZM1115.28.24h-.43l1.47-.11Zm322.35,110.28a60.59,60.59,0,0,0-25.6-3.9c-8.36-.45-29.88-.72-38,.92-2.5.51-5.25,1.28-5.72,3.6-.53,2.69,2.67,3.25,4.85,4.08a63.71,63.71,0,0,0,25.72,4c4,2,8.39.92,12.61,1.19a103.68,103.68,0,0,0,25.28-2.24c2.47-.51,5.2-1.28,5.63-3.58.54-2.66-2.63-3.23-4.79-4.07Zm-1240,78.81a16.76,16.76,0,0,0-3.56-2.26,63.32,63.32,0,0,0-14.74-4.95c-12.13-2.63-24.49-2.82-37.24-2.44-2.71-.12-5.44-.19-8.15-.19-2,0-4,0-6,.11-.84,0-1.65,0-2.46.08h0q-14.4,18.18-27.33,37.49c9.88.4,19.74.47,29.55,0a218.33,218.33,0,0,0,40-5.36c9.52-2.24,18.9-4.77,27-9.77,6.45-3.95,7.39-8.85,2.82-12.71ZM791.24,37.44c8.61.26,17.25.17,25.89-.32C808.49,37.64,799.85,37.64,791.24,37.44Zm95.4-9.81c-2.88.55-5.74,1.08-8.62,1.6l8.62-1.58,25.55-4.8q-12.8,2.37-25.55,4.79Zm216-26.52-1.56.13c1-.09,2.09-.15,3.07-.24-.52.05-1,.07-1.54.11Zm5.93-.43h0l-.68.07c.47,0,.92-.07,1.35-.09ZM875.69,319.86a3.85,3.85,0,0,0-.49-.08l.64.12.34.07a1.13,1.13,0,0,1,.26,0h.1a1,1,0,0,1,.24,0A6.71,6.71,0,0,1,875.69,319.86Zm14.55,2.67a6.93,6.93,0,0,1,.79.17,3.27,3.27,0,0,1,.6.1c-.47-.1-.92-.16-1.39-.27ZM1861.33,531c-.06-3.33-.15-6.68-.28-10h0c-.55-17.41-1.92-34.6-4-51.56h0c-.06-.56-.13-1.07-.19-1.62-.49-4-1-8-1.62-11.93s-1.2-7.91-1.86-11.84c-.51-2.94-1-5.89-1.55-8.83s-1.09-5.87-1.69-8.79c-.79-3.9-1.6-7.76-2.45-11.62q-2.6-11.62-5.59-23c-.62-2.31-1.24-4.61-1.88-6.92-.34-1.25-.7-2.53-1.07-3.79-.59-2.11-1.21-4.23-1.83-6.32-.79.28-1.6.56-2.39.81s-1.6.56-2.41.81a1,1,0,0,0-.34.11l-.34.11c-.41.15-.84.27-1.26.4l-.28.09a.9.9,0,0,0-.23.08c-.32.09-.62.2-.94.28l-1.2.38h-.27l-.39.13h-.12c-.9.28-1.78.56-2.67.81l-1.52.45c-.7.19-1.38.41-2.09.6s-1.57.45-2.36.66l-.6.15h-.24a.9.9,0,0,1-.32.09l-2.34.64-2.37.62c-.45.1-.9.21-1.34.34a3.63,3.63,0,0,0-.45.1c-1.75.45-3.5.88-5.23,1.28-.94.24-1.88.45-2.79.67-.26.06-.52.1-.77.17H1802a4.51,4.51,0,0,1-.53.1h-.15l-.32.06-.38.09c-1.58.36-3.16.69-4.74,1l-2.65.56c-.4.08-.79.17-1.17.23-.94.19-1.86.36-2.77.53-1.09.24-2.18.45-3.29.64-2.3.43-4.63.86-7,1.26l-5.25.9-.6.08-.23.05c-1.07.19-2.11.36-3.16.51-3.31.53-6.61,1-9.94,1.49-1.75.26-3.5.49-5.25.73s-3.5.47-5.27.68l-5.27.64c-4.69.55-9.38,1-14.1,1.49-1.9.17-3.77.36-5.67.56a10.54,10.54,0,0,0-1.13.1c-1.58.15-3.16.3-4.74.47l-1.87.19c-1.71.18-3.4.32-5.1.5-2.07.19-4.12.38-6.19.55-3.09.28-6.19.51-9.28.7-1,.07-2.07.11-3.09.17s-2.2.11-3.29.15-2.2.09-3.28.11H1666c-14.27,0-28.52.08-42.84-1l-6.78-.54a5.19,5.19,0,0,1-1.11-.08c-.88-.09-1.79-.15-2.67-.24h-.23a14.1,14.1,0,0,1-1.71-.15c-2.62-.21-5.23-.45-7.85-.7q-6.78-.64-13.52-1.43c-4.51-.51-9-1.09-13.47-1.69-1.13-.15-2.24-.3-3.34-.47l-3.35-.47q-3.62-.54-7.24-1.13c-2.41-.38-4.82-.76-7.21-1.17s-4.8-.81-7.21-1.24h0q-7.17-1.28-14.31-2.68c-3.29-.64-6.55-1.31-9.81-2s-6.38-1.32-9.56-2c-.66-.13-1.32-.28-2-.43l-8-1.79-9.72-2.26c-3.25-.77-6.47-1.56-9.71-2.35s-6.44-1.6-9.66-2.41l-9.67-2.5c-3.22-.83-6.42-1.68-9.64-2.54q-5.4-1.44-10.77-3c-3.61-1-7.19-2-10.77-3-7.19-2-14.4-4-21.76-5.55-3.1,0-19.2-6.12-22.08-6.87q-9.82-2.56-19.54-5.35-9-.45-18-.56c-21.42-.17-42.81-1.19-64.3-.42-23.23.81-46.5,0-69.75,1.28-10.82.61-21.66,1.34-32.51,1.77-7,.32-14.17.19-21.12,1.21-10.73,1.56-21.7,1.84-32.43,1.9-27.54.21-55.1,1.3-82.68-.75-11.31-.83-22.66-1.68-33.84-3.09-25.25-3.18-50.21-7.62-75-12.86-14.83-3.16-29.67-6.25-44.56-9.11h-.07l-2-.39a1.06,1.06,0,0,0,.35.09l1.64.32-9.49,1.79-8.62,1.6c-5.34,1-10.69,1.9-16,2.75-1.28.22-2.58.43-3.88.62-2.17.36-4.35.68-6.53,1l-1.45.2c-.79.12-1.57.23-2.36.32l-2.48.34c-.62.08-1.26.17-1.88.23l-4.35.54h0c-2.24.23-4.46.49-6.7.7l-.74.06h-1.11c-.26,0-.54.07-.79.09l-3.39.3h-.71c-2.73.23-5.46.4-8.19.55h-.28a358.31,358.31,0,0,1-74.83-3.8c-3.35-.52-6.7-1.07-10-1.65s-6.68-1.15-10-1.75l-10-1.81-15-2.75c-2.56-.45-5.14-.92-7.7-1.39a6.61,6.61,0,0,1-.89-.15h-.15l-.56-.1c-1.17-.2-2.34-.41-3.52-.6l-4.07-.71c-1.86-.32-3.74-.61-5.59-.91-.64-.11-1.26-.19-1.88-.3l-.4-.07-1.31-.21c-.85-.13-1.68-.23-2.53-.38l-2.24-.32c-1.43-.22-2.86-.45-4.29-.64-2.88-.41-5.78-.79-8.68-1.18a4.91,4.91,0,0,1-.77-.1.76.76,0,0,1-.3,0h-.06l-2.63-.32c-1.64-.21-3.31-.4-5-.59h0l-3.26-.37-2.31-.25h-.47l-.49-.07h-.53c-2.37-.24-4.74-.47-7.08-.68-.45,0-.9-.11-1.37-.15h-.06c-.41-.05-.81-.09-1.2-.11H625.7c-.34,0-.66-.07-1-.09h-.28l-1-.08c-.41,0-.83-.07-1.24-.09-2.09-.17-4.2-.32-6.29-.43s-4.2-.25-6.32-.36l-3.43-.15h-.64c-1.81-.06-3.61-.13-5.42-.17-2.6-.06-5.2-.11-7.81-.13-17-.08-33.81,1.13-50.68,2.37-1.73.13-3.48.28-5.21.43-2.83.25-5.65.53-8.47.87l-.51.06c-1.77.22-3.56.45-5.35.71-2.65.34-5.29.75-7.92,1.19-2,.32-3.9.66-5.86,1s-3.94.43-5.94.8-3.65.74-5.46,1.17c-1,.21-2.07.45-3.09.7-2.11.5-4.23,1-6.32,1.54s-4.43,1.15-6.63,1.77l-3.14.9-1.7.51c-1.2.34-2.37.7-3.57,1.09-1.49.45-3,.91-4.48,1.41a462.3,462.3,0,0,1-66.15,16.12c-2.86.49-5.69,1-8.55,1.41l-1.3.19c-.73.11-1.45.24-2.18.34-1.68.28-3.37.54-5.06.79s-3.37.49-5,.71c-.79.13-1.56.23-2.35.34l-2.36.32c-2,.28-3.95.53-5.91.79s-4,.51-5.93.74c-1.41.2-2.82.37-4.23.52-.55.08-1.13.15-1.7.21l-5.93.68a8.73,8.73,0,0,0-1,.11c-5.73.64-11.54,1.21-17.3,1.79h0c-23.59,2.28-47.14,4.65-70.93,4.72-22.5.06-45.07.7-67.45-1.52l-5.57-.58-.55-.06c-.24,0-.47-.06-.71-.08-2.22-.24-4.41-.49-6.61-.75h-.3c-1.37-.15-2.73-.32-4.07-.49q-5.84-.73-11.63-1.56c-1.49-.22-3-.41-4.44-.64h-.15l-1.47-.22-1.71-.25-4.09-.64c-2-.32-4-.64-6-1-5.2-.86-10.41-1.8-15.59-2.78h-3.65c0-.25-.06-.47-.06-.7-.07-.73-.13-1.43-.19-2.14,0,.71.1,1.41.17,2.14-2.9-.56-5.76-1.15-8.66-1.75-6.49-1.32-12.93-2.67-19.42-4C87,338.21,74,335.57,61.05,333c-2.35-.45-4.68-.92-7-1.34-4.74-.92-9.5-1.82-14.23-2.69A579.78,579.78,0,0,0,.33,522.58v1.58c-.09,2.8-.15,5.57-.19,8.37S.07,538.18.07,541v650.55c0,310.22,261,561.71,582.94,561.71h695.54c322,0,582.94-251.49,582.94-561.71V541C1861.43,537.64,1861.4,534.3,1861.33,531Zm-79.7-284.45H1776c-6.44.15-14.78-.49-23,1.19a30.68,30.68,0,0,0-8.4,2.76c-2.8,1.49-2.86,3.37-.17,5a17.64,17.64,0,0,0,4.09,1.57c7,2.07,14.15,2.82,21.46,3.52a142,142,0,0,0,19.78.3ZM1581,377.2l-4.2-.83c1.4.28,2.79.58,4.2.85,2.67.54,5.33,1.07,8,1.56-2.67-.51-5.3-1-8-1.58ZM1233.52,12.82l-.85-.13c.3.07.58.11.85.15q13.35,2.34,26.54,5.1Q1246.85,15.17,1233.52,12.82ZM447.82,150.57c-3.71-2.09-8-2.54-12.22-3.12a80.72,80.72,0,0,0-35.69,3.35c-2.22.7-4.18,1.77-4.46,3.9-.32,2.5,1.92,3.72,4.18,4.7a17.64,17.64,0,0,0,4.27,1.21c5.23.86,10.41,1.88,15.57,1.3,7.38.52,14.28-.7,21.12-2.28a17.34,17.34,0,0,0,7.85-3.58C451.22,153.64,451.05,152.4,447.82,150.57Zm250-35.93c.64-1.15,0-2.34-1.9-3.37a30.64,30.64,0,0,0-8.38-2.75c-8.26-1.71-16.6-1-23-1.2-7,0-12-.19-17,.05a80.86,80.86,0,0,0-21.37,3.77c-1.9.62-3.8,1.67-3.9,3.54a3.72,3.72,0,0,0,.14,1,2.62,2.62,0,0,0-.14.73c-.11,2,1.66,3,3.62,3.66l.64.2c1.41.38,2.82.74,4.25,1.08A64.9,64.9,0,0,0,642,123c9.54.4,19,1,28.59.08,6.76-.66,13.39-1.34,19.84-3.07.53-.15,1.06-.3,1.6-.47.76-.21,1.55-.45,2.3-.73a11,11,0,0,0,1.81-.83c1.7-1,2.26-2.19,1.62-3.32Zm739.81-4.12a60.59,60.59,0,0,0-25.6-3.9c-8.36-.45-29.88-.72-38,.92-2.5.51-5.25,1.28-5.72,3.6-.53,2.69,2.67,3.25,4.85,4.08a63.71,63.71,0,0,0,25.72,4c4,2,8.39.92,12.61,1.19a103.68,103.68,0,0,0,25.28-2.24c2.47-.51,5.2-1.28,5.63-3.58.54-2.66-2.63-3.23-4.79-4.07Zm0,0a60.59,60.59,0,0,0-25.6-3.9c-8.36-.45-29.88-.72-38,.92-2.5.51-5.25,1.28-5.72,3.6-.53,2.69,2.67,3.25,4.85,4.08a63.71,63.71,0,0,0,25.72,4c4,2,8.39.92,12.61,1.19a103.68,103.68,0,0,0,25.28-2.24c2.47-.51,5.2-1.28,5.63-3.58.54-2.66-2.63-3.23-4.79-4.07ZM697.8,114.64c.64-1.15,0-2.34-1.9-3.37a30.64,30.64,0,0,0-8.38-2.75c-8.26-1.71-16.6-1-23-1.2-7,0-12-.19-17,.05a80.86,80.86,0,0,0-21.37,3.77c-1.9.62-3.8,1.67-3.9,3.54a3.72,3.72,0,0,0,.14,1,2.62,2.62,0,0,0-.14.73c-.11,2,1.66,3,3.62,3.66l.64.2c1.41.38,2.82.74,4.25,1.08A64.9,64.9,0,0,0,642,123c9.54.4,19,1,28.59.08,6.76-.66,13.39-1.34,19.84-3.07.53-.15,1.06-.3,1.6-.47.76-.21,1.55-.45,2.3-.73a11,11,0,0,0,1.81-.83C697.88,117,698.44,115.77,697.8,114.64Zm-250,35.93c-3.71-2.09-8-2.54-12.22-3.12a80.72,80.72,0,0,0-35.69,3.35c-2.22.7-4.18,1.77-4.46,3.9-.32,2.5,1.92,3.72,4.18,4.7a17.64,17.64,0,0,0,4.27,1.21c5.23.86,10.41,1.88,15.57,1.3,7.38.52,14.28-.7,21.12-2.28a17.34,17.34,0,0,0,7.85-3.58c2.8-2.41,2.63-3.65-.6-5.48Z"/><path class="cls-2" d="M128,346.55h0c-.07-.73-.13-1.43-.17-2.14C127.9,345.12,128,345.82,128,346.55Z"/><rect class="cls-2" x="0.01" y="779.73" width="1861.41" height="109.07"/><path class="cls-1" d="M875.69,319.86a3.85,3.85,0,0,0-.49-.08l.64.12.34.07a1.13,1.13,0,0,1,.26,0h.1a1,1,0,0,1,.24,0A6.71,6.71,0,0,1,875.69,319.86Zm14.55,2.67a6.93,6.93,0,0,1,.79.17,3.27,3.27,0,0,1,.6.1c-.47-.1-.92-.16-1.39-.27ZM1861.33,531c-.06-3.33-.15-6.68-.28-10h0c-.55-17.41-1.92-34.6-4-51.56h0c-.06-.56-.13-1.07-.19-1.62-.49-4-1-8-1.62-11.93s-1.2-7.91-1.86-11.84c-.51-2.94-1-5.89-1.55-8.83s-1.09-5.87-1.69-8.79c-.79-3.9-1.6-7.76-2.45-11.62q-2.6-11.62-5.59-23c-.62-2.31-1.24-4.61-1.88-6.92-.34-1.25-.7-2.53-1.07-3.79-.59-2.11-1.21-4.23-1.83-6.32-.79.28-1.6.56-2.39.81s-1.6.56-2.41.81a1,1,0,0,0-.34.11l-.34.11c-.41.15-.84.27-1.26.4l-.28.09a.9.9,0,0,0-.23.08c-.32.09-.62.2-.94.28l-1.2.38h-.27l-.39.13h-.12c-.9.28-1.78.56-2.67.81l-1.52.45c-.7.19-1.38.41-2.09.6s-1.57.45-2.36.66l-.6.15h-.24a.9.9,0,0,1-.32.09l-2.34.64-2.37.62c-.45.1-.9.21-1.34.34a3.63,3.63,0,0,0-.45.1c-1.75.45-3.5.88-5.23,1.28-.94.24-1.88.45-2.79.67-.26.06-.52.1-.77.17H1802a4.51,4.51,0,0,1-.53.1h-.15l-.32.06-.38.09c-1.58.36-3.16.69-4.74,1l-2.65.56c-.4.08-.79.17-1.17.23-.94.19-1.86.36-2.77.53-1.09.24-2.18.45-3.29.64-2.3.43-4.63.86-7,1.26l-5.25.9-.6.08-.23.05c-1.07.19-2.11.36-3.16.51-3.31.53-6.61,1-9.94,1.49-1.75.26-3.5.49-5.25.73s-3.5.47-5.27.68l-5.27.64c-4.69.55-9.38,1-14.1,1.49-1.9.17-3.77.36-5.67.56a10.54,10.54,0,0,0-1.13.1c-1.58.15-3.16.3-4.74.47l-1.87.19c-1.71.18-3.4.32-5.1.5-2.07.19-4.12.38-6.19.55-3.09.28-6.19.51-9.28.7-1,.07-2.07.11-3.09.17s-2.2.11-3.29.15-2.2.09-3.28.11H1666c-14.27,0-28.52.08-42.84-1l-6.78-.54a5.19,5.19,0,0,1-1.11-.08c-.88-.09-1.79-.15-2.67-.24h-.23a14.1,14.1,0,0,1-1.71-.15c-2.62-.21-5.23-.45-7.85-.7q-6.78-.64-13.52-1.43c-4.51-.51-9-1.09-13.47-1.69-1.13-.15-2.24-.3-3.34-.47l-3.35-.47q-3.62-.54-7.24-1.13c-2.41-.38-4.82-.76-7.21-1.17s-4.8-.81-7.21-1.24h0q-7.17-1.28-14.31-2.68c-3.29-.64-6.55-1.31-9.81-2s-6.38-1.32-9.56-2c-.66-.13-1.32-.28-2-.43l-8-1.79-9.72-2.26c-3.25-.77-6.47-1.56-9.71-2.35s-6.44-1.6-9.66-2.41l-9.67-2.5c-3.22-.83-6.42-1.68-9.64-2.54q-5.4-1.44-10.77-3c-3.61-1-7.19-2-10.77-3-7.19-2-14.4-4-21.76-5.55-3.1,0-19.2-6.12-22.08-6.87q-9.82-2.56-19.54-5.35-9-.45-18-.56c-21.42-.17-42.81-1.19-64.3-.42-23.23.81-46.5,0-69.75,1.28-10.82.61-21.66,1.34-32.51,1.77-7,.32-14.17.19-21.12,1.21-10.73,1.56-21.7,1.84-32.43,1.9-27.54.21-55.1,1.3-82.68-.75-11.31-.83-22.66-1.68-33.84-3.09-25.25-3.18-50.21-7.62-75-12.86-14.83-3.16-29.67-6.25-44.56-9.11h-.07l-2-.39a1.06,1.06,0,0,0,.35.09l1.64.32-9.49,1.79-8.62,1.6c-5.34,1-10.69,1.9-16,2.75-1.28.22-2.58.43-3.88.62-2.17.36-4.35.68-6.53,1l-1.45.2c-.79.12-1.57.23-2.36.32l-2.48.34c-.62.08-1.26.17-1.88.23l-4.35.54h0c-2.24.23-4.46.49-6.7.7l-.74.06h-1.11c-.26,0-.54.07-.79.09l-3.39.3h-.71c-2.73.23-5.46.4-8.19.55h-.28a358.31,358.31,0,0,1-74.83-3.8c-3.35-.52-6.7-1.07-10-1.65s-6.68-1.15-10-1.75l-10-1.81-15-2.75c-2.56-.45-5.14-.92-7.7-1.39a6.61,6.61,0,0,1-.89-.15h-.15l-.56-.1c-1.17-.2-2.34-.41-3.52-.6l-4.07-.71c-1.86-.32-3.74-.61-5.59-.91-.64-.11-1.26-.19-1.88-.3l-.4-.07-1.31-.21c-.85-.13-1.68-.23-2.53-.38l-2.24-.32c-1.43-.22-2.86-.45-4.29-.64-2.88-.41-5.78-.79-8.68-1.18a4.91,4.91,0,0,1-.77-.1.76.76,0,0,1-.3,0h-.06l-2.63-.32c-1.64-.21-3.31-.4-5-.59h0l-3.26-.37-2.31-.25h-.47l-.49-.07h-.53c-2.37-.24-4.74-.47-7.08-.68-.45,0-.9-.11-1.37-.15h-.06c-.41-.05-.81-.09-1.2-.11H625.7c-.34,0-.66-.07-1-.09h-.28l-1-.08c-.41,0-.83-.07-1.24-.09-2.09-.17-4.2-.32-6.29-.43s-4.2-.25-6.32-.36l-3.43-.15h-.64c-1.81-.06-3.61-.13-5.42-.17-2.6-.06-5.2-.11-7.81-.13-17-.08-33.81,1.13-50.68,2.37-1.73.13-3.48.28-5.21.43-2.83.25-5.65.53-8.47.87l-.51.06c-1.77.22-3.56.45-5.35.71-2.65.34-5.29.75-7.92,1.19-2,.32-3.9.66-5.86,1s-3.94.43-5.94.8-3.65.74-5.46,1.17c-1,.21-2.07.45-3.09.7-2.11.5-4.23,1-6.32,1.54s-4.43,1.15-6.63,1.77l-3.14.9-1.7.51c-1.2.34-2.37.7-3.57,1.09-1.49.45-3,.91-4.48,1.41a462.3,462.3,0,0,1-66.15,16.12c-2.86.49-5.69,1-8.55,1.41l-1.3.19c-.73.11-1.45.24-2.18.34-1.68.28-3.37.54-5.06.79s-3.37.49-5,.71c-.79.13-1.56.23-2.35.34l-2.36.32c-2,.28-3.95.53-5.91.79s-4,.51-5.93.74c-1.41.2-2.82.37-4.23.52-.55.08-1.13.15-1.7.21l-5.93.68a8.73,8.73,0,0,0-1,.11c-5.73.64-11.54,1.21-17.3,1.79h0c-23.59,2.28-47.14,4.65-70.93,4.72-22.5.06-45.07.7-67.45-1.52l-5.57-.58-.55-.06c-.24,0-.47-.06-.71-.08-2.22-.24-4.41-.49-6.61-.75h-.3c-1.37-.15-2.73-.32-4.07-.49q-5.84-.73-11.63-1.56c-1.49-.22-3-.41-4.44-.64h-.15l-1.47-.22-1.71-.25-4.09-.64c-2-.32-4-.64-6-1-5.2-.86-10.41-1.8-15.59-2.78h-3.65c0-.25-.06-.47-.06-.7-.07-.73-.13-1.43-.19-2.14,0,.71.1,1.41.17,2.14-2.9-.56-5.76-1.15-8.66-1.75-6.49-1.32-12.93-2.67-19.42-4C87,338.21,74,335.57,61.05,333c-2.35-.45-4.68-.92-7-1.34-4.74-.92-9.5-1.82-14.23-2.69A579.78,579.78,0,0,0,.33,522.58v1.58c-.09,2.8-.15,5.57-.19,8.37S.07,538.18.07,541V779.75H1861.43V541C1861.43,537.64,1861.4,534.3,1861.33,531Zm-79.7-284.45H1776c-6.44.15-14.78-.49-23,1.19a30.68,30.68,0,0,0-8.4,2.76c-2.8,1.49-2.86,3.37-.17,5a17.64,17.64,0,0,0,4.09,1.57c7,2.07,14.15,2.82,21.46,3.52a142,142,0,0,0,19.78.3ZM1581,377.2l-4.2-.83c1.4.28,2.79.58,4.2.85,2.67.54,5.33,1.07,8,1.56-2.67-.51-5.3-1-8-1.58ZM1072.16,248.55c-.44-2.31-3.2-3.08-5.69-3.59-8.11-1.66-29.61-1.38-38-.94a61,61,0,0,0-25.62,3.93c-2.14.81-5.32,1.41-4.8,4.07.44,2.31,3.17,3.08,5.65,3.61a103.17,103.17,0,0,0,25.28,2.22c4.22-.28,8.64.81,12.61-1.18a63.71,63.71,0,0,0,25.72-4C1069.52,251.81,1072.72,251.23,1072.16,248.55ZM337.43,303.48c-4.2-.49-8.3-1.77-12.69-1.58-2.78.11-5.55,0-8.32,0-16.88.7-33.79,1.24-49.92,6.06-2.71.81-7,1-6.66,4.07.39,3.31,4.91,3.31,8,3.54,22,1.75,43.71.79,65.06-4.2a37.63,37.63,0,0,0,5-1.45c1.83-.68,3.9-1.43,3.81-3.45S339.41,303.71,337.43,303.48ZM197.57,189.33a16.76,16.76,0,0,0-3.56-2.26,62.86,62.86,0,0,0-14.68-4.95c-12.13-2.63-24.49-2.82-37.24-2.44-2.71-.12-5.44-.19-8.15-.19-2,0-4,0-6,.11-.84,0-1.65,0-2.46.08h0q-14.4,18.18-27.33,37.49c9.88.4,19.74.47,29.55,0a218.33,218.33,0,0,0,40-5.36c9.52-2.24,18.9-4.77,27-9.77C201.2,198.09,202.14,193.19,197.57,189.33Zm250.25-38.76c-3.71-2.09-8-2.54-12.22-3.12a80.72,80.72,0,0,0-35.69,3.35c-2.22.7-4.18,1.77-4.46,3.9-.32,2.5,1.92,3.72,4.18,4.7a17.64,17.64,0,0,0,4.27,1.21c5.23.86,10.41,1.88,15.57,1.3,7.38.52,14.28-.7,21.12-2.28a17.34,17.34,0,0,0,7.85-3.58C451.22,153.64,451.05,152.4,447.82,150.57Zm989.79-40a60.59,60.59,0,0,0-25.6-3.9c-8.36-.45-29.88-.72-38,.92-2.5.51-5.25,1.28-5.72,3.6-.53,2.69,2.67,3.25,4.85,4.08a63.71,63.71,0,0,0,25.72,4c4,2,8.39.92,12.61,1.19a103.68,103.68,0,0,0,25.28-2.24c2.47-.51,5.2-1.28,5.63-3.58C1442.94,111.93,1439.77,111.36,1437.61,110.52ZM697.8,114.64c.64-1.15,0-2.34-1.9-3.37a30.64,30.64,0,0,0-8.38-2.75c-8.26-1.71-16.6-1-23-1.2-7,0-12-.19-17,.05a80.86,80.86,0,0,0-21.37,3.77c-1.9.62-3.8,1.67-3.9,3.54a3.72,3.72,0,0,0,.14,1,2.62,2.62,0,0,0-.14.73c-.11,2,1.66,3,3.62,3.66l.64.2c1.41.38,2.82.74,4.25,1.08A64.9,64.9,0,0,0,642,123c9.54.4,19,1,28.59.08,6.76-.66,13.39-1.34,19.84-3.07.53-.15,1.06-.3,1.6-.47.76-.21,1.55-.45,2.3-.73a11,11,0,0,0,1.81-.83C697.88,117,698.44,115.77,697.8,114.64Z"/><path class="cls-1" d="M1837.33,374.64c-.79.28-1.6.56-2.39.81s-1.6.56-2.41.81a1,1,0,0,0-.34.11l-.34.11c-.41.15-.84.27-1.26.4l-.28.09a.9.9,0,0,0-.23.08c-.32.09-.62.2-.94.28s-.79.26-1.2.36c-.06,0-.08.05-.15.07h-.12l-.39.13c-1.57.49-3.16,1-4.75,1.41s-3.08.89-4.61,1.3h-.24a.9.9,0,0,1-.32.09l-2.34.64-2.37.62c-.45.1-.9.21-1.34.34a3.63,3.63,0,0,0-.45.1c-1.75.45-3.5.88-5.23,1.28-.94.24-1.88.45-2.79.67-.26.06-.52.1-.77.17H1802a4.51,4.51,0,0,1-.53.1h-.15l-.32.06-.38.09c-1.58.36-3.16.69-4.74,1l-2.65.56c-.4.08-.79.17-1.17.23-.94.19-1.86.36-2.77.53-1.09.24-2.18.45-3.29.64-2.3.43-4.63.86-7,1.26l-5.25.9-.6.08-.23.05c-1.07.19-2.11.36-3.16.51-3.31.53-6.61,1-9.94,1.49-1.75.26-3.5.49-5.25.73s-3.5.47-5.27.68l-5.27.64c-4.69.53-9.38,1-14.1,1.47-1.9.19-3.79.36-5.67.58a10.54,10.54,0,0,0-1.13.1c-1.58.15-3.16.3-4.74.47l-1.87.19c-1.71.18-3.4.32-5.1.5-2.07.19-4.12.38-6.19.55-3.09.28-6.19.51-9.28.7-1,.07-2.07.11-3.09.17s-2.2.11-3.29.15-2.2.09-3.28.11H1666c-14.27,0-28.52.08-42.84-1l-6.78-.54a5.19,5.19,0,0,1-1.11-.08c-.88-.09-1.79-.15-2.67-.24h-.23a14.1,14.1,0,0,1-1.71-.15c-2.62-.21-5.23-.45-7.85-.7q-6.78-.64-13.52-1.43c-4.51-.51-9-1.09-13.47-1.69-1.13-.15-2.24-.3-3.34-.47l-3.35-.49c-2.41-.36-4.82-.72-7.24-1.11s-4.82-.76-7.21-1.17-4.82-.81-7.21-1.24h0q-7.17-1.28-14.31-2.68c-3.29-.64-6.55-1.31-9.81-2s-6.38-1.32-9.56-2c-.66-.13-1.32-.28-2-.43l-8-1.79-9.72-2.26c-3.25-.77-6.47-1.56-9.71-2.35s-6.44-1.6-9.66-2.41l-9.67-2.5c-3.22-.83-6.42-1.68-9.64-2.54q-5.4-1.44-10.77-3c-3.61-1-7.19-2-10.77-3-7.19-2-14.4-4-21.76-5.55-3.1,0-19.2-6.12-22.08-6.87q-9.83-2.56-19.54-5.35c13.12.68,26.24,1.9,39.29,3.13a860.88,860.88,0,0,1,89.53,13.22c27.29,5.5,54.44,11.43,81.73,16.89,2.69.54,5.35,1.07,8,1.58a486.48,486.48,0,0,0,56.89,7.68c15.36,1.07,30.7,2.56,46.08,2.2,15.13-.32,30.23-1.2,45.33-2.13,16.92-1,33.6-3.1,50.31-5.21,1.72-.23,3.43-.47,5.14-.73,1.38-.19,2.75-.4,4.14-.61h0l4.11-.67c2.73-.46,5.46-1,8.17-1.49.81-.15,1.6-.3,2.41-.47,1.24-.23,2.48-.49,3.7-.74,1.45-.3,2.9-.62,4.35-.94,2.62-.56,5.22-1.18,7.83-1.8,1-.23,2-.46,2.92-.72,2-.49,4-1,6-1.51C1836.75,372.64,1837,373.64,1837.33,374.64Z"/><path class="cls-1" d="M896.26,323.64l-9.62,1.79L878,327c-5.34,1-10.69,1.9-16,2.75-1.28.22-2.58.43-3.88.62-2.17.36-4.35.68-6.53,1l-1.45.2c-.79.12-1.57.23-2.36.32l-2.48.34c-.62.08-1.26.17-1.88.23-1.45.19-2.9.39-4.35.56-2.24.23-4.46.49-6.7.7l-.74.06h-.39a4.37,4.37,0,0,1-.72.06c-.26,0-.54.07-.79.09l-3.39.3h-.71c-2.73.23-5.46.4-8.19.55h-.28a358.34,358.34,0,0,1-74.75-4.17c-3.35-.54-6.7-1.07-10-1.65s-6.68-1.15-10-1.75l-10-1.81-15-2.75c-2.56-.45-5.14-.92-7.7-1.39a6.61,6.61,0,0,1-.89-.15h-.15l-.56-.1-.7-.13c-1.67-.3-3.33-.6-5-.88-.83-.15-1.66-.27-2.51-.42-1.45-.26-2.93-.49-4.4-.73s-2.75-.45-4.14-.64c-1.94-.32-3.86-.62-5.8-.87-1.09-.2-2.17-.34-3.26-.49-1.92-.26-3.82-.54-5.74-.77-1-.15-2-.28-3-.41l-.74-.08a.76.76,0,0,1-.3,0h-.06l-2.63-.32c-1.64-.21-3.31-.4-5-.59h0l-3.26-.37-2.31-.25h-1.49a5.59,5.59,0,0,1-.7-.09c-2.59-.27-5.17-.53-7.75-.74h-.06c-.41-.05-.81-.09-1.2-.11a5,5,0,0,1-.55,0h-1.07a1.31,1.31,0,0,1-.28,0,.74.74,0,0,1-.21,0h-.28c-.34,0-.66-.07-1-.09h-.28l-1-.08c-.41,0-.83-.07-1.24-.09-2.09-.17-4.2-.32-6.29-.43s-4.2-.25-6.32-.36l-3.43-.15h-.64c-1.81-.06-3.61-.13-5.42-.17-2.6-.06-5.2-.11-7.81-.13-17-.08-33.81,1.13-50.68,2.37-1.73.13-3.48.28-5.21.43-2.83.25-5.65.53-8.47.87l-.51.06c-1.77.22-3.56.45-5.35.71-2.65.34-5.29.75-7.92,1.19-2,.3-3.92.66-5.86,1s-3.93.36-5.93.73-3.65.74-5.46,1.17c-1,.21-2.07.45-3.09.7-2.11.5-4.23,1-6.32,1.54s-4.43,1.15-6.63,1.77l-3.14.9-1.7.51c-1.2.34-2.37.7-3.57,1.09-1.49.45-3,.91-4.48,1.41a462.3,462.3,0,0,1-66.15,16.12c-2.86.49-5.69,1-8.55,1.41l-1.3.19c-.73.11-1.45.24-2.18.34-1.68.28-3.37.54-5.06.79s-3.37.49-5,.71c-.79.13-1.56.23-2.35.34l-2.36.32c-2,.28-3.95.53-5.91.79s-4,.51-5.93.74c-1.41.2-2.82.37-4.23.52-.55.08-1.13.15-1.7.21l-5.93.68a8.73,8.73,0,0,0-1,.11c-5.73.64-11.54,1.21-17.3,1.79h0c-23.59,2.28-47.14,4.65-70.93,4.72-22.5.06-45.07.7-67.45-1.52l-5.57-.58-.55-.06c-.24,0-.47-.06-.71-.08-2.22-.24-4.41-.49-6.61-.75h-.3c-1.37-.15-2.73-.32-4.07-.49q-5.84-.73-11.63-1.56c-1.49-.22-3-.41-4.44-.64h-.15l-1.47-.22-1.71-.25-4.09-.64c-2-.32-4-.64-6-1-5.2-.88-10.41-1.82-15.59-2.8,16.21,0,32.34-1.41,48.51-2.24,10.07-.49,20.18-1.11,30.21-1.75,9.53-.62,19.18-.53,28.65-2,6.44-1,13.1-.83,19.6-1.22,8.81-.51,17.56-1.55,26.41-1.77,8.3-.19,16.58-1.23,24.85-2,6-.56,12.06-1,18.07-1.43,18.84-1.45,37.61-3.44,56.43-5,19.09-1.56,38.08-3.73,57.13-5.44,12.8-1.15,25.49-3,38.25-4.44,17-1.92,34-3.71,51-5.57,14-1.51,28-3.07,42-4.6,5.74-.64,11.58-1.09,17.3-1.31,9.6-.34,19.2-1.1,28.69-1.83,16.45-1.22,32.87-.53,49.28-1.15,6.76-.28,13.59-1.81,20.35-1,17.66,2,35.43.15,53,1.31,21.61,1.42,43.24,2.51,64.83,4.48,23.06,2.09,45.8,5.39,68.37,9.38a.94.94,0,0,1,.37.07h.06a3.85,3.85,0,0,1,.49.08h.15l.34.07h.36q6.54,1.15,13,2.37a1.93,1.93,0,0,1,.53.11.49.49,0,0,1,.17,0,6.93,6.93,0,0,1,.79.17,3.27,3.27,0,0,1,.6.1c.74.13,1.51.28,2.26.43H894l2,.39a.14.14,0,0,0,.24.14Z"/><path class="cls-1" d="M365.44,189.56l-2.09.58c-3.18.87-6.38,1.73-9.6,2.54,3.22-.81,6.42-1.69,9.6-2.56C364.05,189.92,364.73,189.75,365.44,189.56Z"/><path class="cls-1" d="M415,180.07q-5.22.66-10.41,1.44C408,181,411.47,180.5,415,180.07Z"/><path class="cls-3" d="M1861.43,541V779.73H0V541c0-2.84,0-5.68.07-8.49s.1-5.57.19-8.37v-1.58A579.65,579.65,0,0,1,39.78,328.93h0c4.73.89,9.47,1.77,14.23,2.71,2.34.42,4.67.89,7,1.34q19.46,3.81,38.86,7.83c6.49,1.34,12.93,2.69,19.42,4,2.9.6,5.76,1.17,8.66,1.75h0c1.24.23,2.45.49,3.69.7h0c5.18,1,10.39,1.92,15.59,2.8l6,1,4.09.64L159,352l1.47.22h.15c1.47.23,3,.42,4.44.64q5.79.82,11.63,1.56c1.34.17,2.7.34,4.07.49h.3c2.2.28,4.41.53,6.61.75a2.16,2.16,0,0,1,.71.08l.55.06,5.57.58c22.38,2.22,45,1.58,67.45,1.52,23.79-.07,47.34-2.44,70.93-4.72h0q8.67-.83,17.3-1.79a7,7,0,0,0,1-.11c2.56-.27,5.09-.57,7.63-.89,1.41-.15,2.82-.32,4.23-.52,2-.23,3.94-.49,5.93-.74s3.94-.51,5.91-.79l2.36-.32c.79-.11,1.56-.21,2.35-.34,3.37-.47,6.74-1,10.09-1.5.73-.1,1.45-.23,2.18-.34l1.44-.15c2.86-.45,5.69-.92,8.55-1.41A462.3,462.3,0,0,0,468,328.11c1.5-.5,3-1,4.48-1.41,1.2-.39,2.37-.75,3.57-1.09l1.7-.51,3.14-.9c2.2-.62,4.41-1.19,6.63-1.77s4.21-1,6.32-1.54c1-.25,2-.49,3.09-.7,1.81-.43,3.63-.81,5.46-1.17s3.88-.79,5.83-1.13,3.9-.71,5.86-1c2.63-.44,5.27-.85,7.92-1.19,1.79-.26,3.58-.49,5.35-.71l.51-.06c2.82-.34,5.64-.62,8.47-.87,1.73-.15,3.48-.3,5.21-.43,16.87-1.24,33.7-2.45,50.68-2.37,2.61,0,5.21.07,7.81.13,1.81,0,3.61.11,5.42.17h.64l3.43.15c2.12.11,4.21.21,6.32.36s4.2.26,6.29.43a5.76,5.76,0,0,1,1.24.09l1,.08h.28c.34,0,.66.07,1,.09h2.39a10.1,10.1,0,0,1,1.2.11h.06c2.58.21,5.16.47,7.75.74a4.19,4.19,0,0,1,.7.09h1.49a10.76,10.76,0,0,1,1.26.13,8.27,8.27,0,0,1,1,.12l3.26.37h0a2.28,2.28,0,0,1,.64.06c1.43.17,2.88.34,4.31.53l2.63.32h.06a.76.76,0,0,0,.3,0l.74.08c1,.13,2,.26,3,.41,1.92.23,3.82.51,5.74.77,1.09.15,2.17.29,3.26.49s2.18.32,3.27.49c.85.15,1.68.25,2.53.38l1.31.21.4.07,2.43.36c1.47.24,3,.47,4.4.73.85.15,1.68.27,2.51.42,1.69.28,3.35.58,5,.88l.7.13.56.1h.15a6.61,6.61,0,0,0,.89.15c2.56.47,5.14.94,7.7,1.39l15,2.75c3.33.6,6.66,1.22,10,1.81s6.68,1.18,10,1.75,6.68,1.11,10,1.65a358.57,358.57,0,0,0,74.7,4.28,1.31,1.31,0,0,0,.28,0c2.73-.15,5.46-.32,8.19-.55h.71l3.39-.3a2.4,2.4,0,0,0,.79-.09,2.16,2.16,0,0,0,.36,0,2.16,2.16,0,0,0,.36,0h.39c2.47-.23,5-.51,7.44-.78l4.35-.54c1.45-.17,2.91-.36,4.36-.57.79-.09,1.57-.2,2.36-.32l1.45-.2c2.18-.32,4.36-.64,6.53-1,1.3-.19,2.6-.4,3.88-.62,5.36-.85,10.71-1.79,16-2.75l8.62-1.6,9.49-1.79H896c33.79-6.36,67.53-12.65,101.79-17,3.48-.44,117.44-8.64,121-8.76,15.77,0,99.22,10.17,114.49,12.82,31.64,5.5,62.57,13.16,93.33,21.35,14.62,3.88,29.08,8.19,43.61,12.27q9.72,2.77,19.54,5.35c2.88.75,19,6.83,22.08,6.87,7.36,1.6,14.57,3.54,21.76,5.55,3.58,1,7.16,2,10.77,3.05s7.17,2,10.77,3c3.22.86,6.42,1.71,9.64,2.54l9.67,2.5,9.66,2.41c3.22.81,6.46,1.58,9.71,2.35s6.48,1.53,9.72,2.26l8,1.79,2,.43c3.18.7,6.36,1.38,9.56,2s6.52,1.35,9.81,2q7.14,1.4,14.31,2.68h0c2.39.43,4.8.84,7.21,1.24s4.8.79,7.21,1.17,4.83.75,7.24,1.11l3.35.49c1.1.17,2.21.32,3.34.47,4.48.6,9,1.18,13.47,1.69s9,1,13.52,1.43c2.62.25,5.23.49,7.85.7.58.07,1.13.11,1.71.15h.23c.88.09,1.79.15,2.67.24.36,0,.75.06,1.11.08l6.78.54c14.32,1,28.57,1,42.84,1h20.13c1.08,0,2.19-.06,3.28-.11s2.2-.08,3.29-.15,2.07-.1,3.09-.17c3.09-.19,6.19-.42,9.28-.7,2.07-.17,4.12-.36,6.19-.55,1.7-.18,3.39-.32,5.1-.5l1.87-.19c1.58-.17,3.16-.32,4.74-.47.38,0,.74-.08,1.13-.1,1.88-.22,3.77-.39,5.67-.58,4.72-.45,9.41-.94,14.1-1.47l5.27-.64c1.77-.21,3.52-.45,5.27-.68s3.5-.47,5.25-.73c3.33-.47,6.63-1,9.94-1.49,1-.15,2.09-.32,3.16-.51l.23,0,.6-.08,5.25-.9c2.32-.4,4.65-.83,7-1.26,1.11-.19,2.2-.4,3.29-.64.91-.17,1.83-.34,2.77-.53.38-.06.77-.15,1.17-.23l2.65-.56c1.58-.32,3.16-.65,4.74-1l.38-.09.32-.06h.15a4.51,4.51,0,0,0,.53-.1h.11c.25-.07.51-.11.77-.17.91-.22,1.85-.43,2.79-.67,1.73-.4,3.48-.83,5.23-1.28a3.63,3.63,0,0,1,.45-.1c.44-.13.89-.24,1.34-.34l2.37-.62,2.34-.64a.9.9,0,0,0,.32-.09h.24l.6-.15c.79-.21,1.57-.43,2.36-.66.56-.15,1.11-.32,1.65-.49a3.15,3.15,0,0,0,.44-.11l1.52-.45c.89-.25,1.77-.53,2.67-.81h.12l.39-.13h.27l1.2-.38c.32-.08.62-.19.94-.28a.9.9,0,0,1,.23-.08l.28-.09c.42-.13.85-.25,1.26-.4l.34-.11a1,1,0,0,0,.34-.11c.81-.25,1.62-.53,2.41-.81s1.6-.53,2.39-.81c.62,2.09,1.24,4.21,1.83,6.32.37,1.26.73,2.54,1.07,3.79.64,2.31,1.26,4.61,1.88,6.92q3,11.42,5.59,23c.85,3.86,1.66,7.72,2.45,11.62.6,2.92,1.15,5.85,1.69,8.79s1,5.89,1.55,8.83q1,5.89,1.86,11.84c.57,4,1.13,7.94,1.62,11.93.06.55.13,1.06.19,1.62h0c2.09,17,3.46,34.15,4,51.56h0c.13,3.33.22,6.68.28,10S1861.43,537.64,1861.43,541Z"/><path class="cls-1" d="M1861.43,680.78V896.64H0V681.91q12.26-2.22,24.56-4.27c21.8-3.58,43.69-6.87,65.57-10.14,14.16-2.1,28.36-4,42.67-5.39,10.52-1,21.07-1.82,31.6-2.7,12.82-1.08,25.67-1.69,38.5-2,18.67-.54,37.37-.13,56.08.88,10.32.55,20.66,1.21,31,1.79,15.33.86,30.51,3.21,45.81,4.56,21.86,1.92,43.52,5,65.14,8.11,41.31,6,82.52,12.49,123.73,18.94,42.18,6.59,84.08,14.46,126.76,18.82,17.06,1.73,34.15,2.69,51.28,3.3a281.33,281.33,0,0,0,31-.87c11.31-.86,22.65-1.43,33.88-2.85a401.83,401.83,0,0,0,71-15.57c27.47-8.75,53.62-19.78,79.85-30.69,25.36-10.55,51.21-20.06,78.54-26.65,19.26-4.65,38.93-8,58.82-8.65,34.6-1.1,69.18-.49,103.53,4.57q48.23,7.13,95.34,18c24.86,5.71,49.56,11.89,74.19,18.27q50,13,100.22,25.22,25.5,6.24,51.27,11.47c25,5,50.27,9.46,75.84,12.35,18.5,2.07,37,4.14,55.73,4.21,15.4.07,30.77.26,46.22-.88s31.19-2.41,46.6-4.5a831.23,831.23,0,0,0,97.22-19.6C1822,692.47,1841.75,686.76,1861.43,680.78Z"/><path class="cls-4" d="M1835.25,552.88c-26.43-.39-47.61-2.8-68.11-8.77a50,50,0,0,1-18-9c-4.48-3.64-4.46-8.72.32-12.07a32.37,32.37,0,0,1,11.33-5,186.73,186.73,0,0,1,60-3.54c10.32,1,20.54,2.13,30.63,4a93.38,93.38,0,0,1,9.6,2.37c-.55-17.41-1.92-34.6-4-51.56h0c-.06-.56-.13-1.07-.19-1.62-2.2-.15-4.39-.28-6.55-.34-9.6-.37-19.18-1.11-28.69-1.84-16.45-1.21-32.87-.51-49.28-1.17-6.76-.26-13.59-1.82-20.35-1-17.66,2-35.43.17-53.06,1.33-21.6,1.43-43.24,2.49-64.82,4.45-45.68,4.19-90.09,13.08-134.42,22.47-24.77,5.22-49.73,9.68-75,12.86-11.2,1.41-22.53,2.24-33.84,3.09-27.58,2-55.16,1-82.7.77-10.71-.1-21.68-.36-32.41-1.92-7-1-14.12-.89-21.14-1.19-10.84-.45-21.67-1.2-32.51-1.79-23.23-1.28-46.53-.49-69.74-1.31-21.48-.72-42.87.28-64.31.45-19.12.17-38.27,1.9-57.3,3.69a863.24,863.24,0,0,0-89.54,12.89c-27.28,5.5-54.44,11.45-81.72,16.91-21.38,4.27-42.94,7.73-64.91,9.24-15.36,1.07-30.7,2.56-46.08,2.22-15.13-.34-30.23-1.22-45.33-2.13-16.92-1.07-33.6-3.12-50.33-5.25C628,537,604,531,580.46,523.76c-25.92-7.9-50.3-18.69-75.71-27.54a429.23,429.23,0,0,0-76.9-19.05c-12.39-1.88-24.94-3-37.48-4.14-17.77-1.67-34.73.06-51.67,3.82-13.33,2.94-25.3,8.42-37.14,14.08-12.26,5.86-24.06,12.41-36.6,17.83-19.89,8.55-41.16,14-63.13,17.47-31.48,5-63.31,5.8-95.14,4.8-11.54-.36-23.17-.79-34.73-1.94-11.24-1.13-22.59-1.79-33.88-2.88-11.77-1.13-23.53-2.43-35.3-3.43l-2.52-.2v1.58c-.09,2.8-.15,5.57-.19,8.37S0,538.18,0,541v88.7a134.78,134.78,0,0,1,17.56,2.41,49,49,0,0,1,15.68,6.1c7.89,4.73,8.3,12.24.87,17.53-5.29,3.76-11.62,6-18.19,7.49-5.27,1.2-10.56,2.3-15.92,3v33.19c8.19-1.47,16.36-2.92,24.58-4.26,21.8-3.59,43.69-6.89,65.57-10.16,14.15-2.09,28.35-4,42.65-5.39,10.54-1,21.07-1.82,31.61-2.69,12.82-1.09,25.69-1.69,38.51-2.05,18.66-.53,37.37-.13,56.08.88,10.3.55,20.65,1.21,31,1.79,15.31.85,30.5,3.22,45.8,4.56,21.86,1.92,43.51,5,65.12,8.11,41.33,6,82.54,12.48,123.73,18.94,42.2,6.59,84.1,14.47,126.78,18.82,17,1.73,34.16,2.69,51.26,3.3a281.33,281.33,0,0,0,31-.87c11.31-.88,22.66-1.43,33.88-2.86a400,400,0,0,0,71-15.55c27.46-8.77,53.61-19.8,79.85-30.7,25.34-10.56,51.2-20.07,78.53-26.64,19.26-4.65,38.93-8,58.83-8.66,34.58-1.09,69.18-.49,103.53,4.56q48.23,7.14,95.33,18c24.86,5.71,49.58,11.88,74.2,18.28q50,13,100.22,25.21,25.5,6.24,51.26,11.46c25.07,5,50.26,9.47,75.84,12.35,18.51,2.09,37,4.14,55.74,4.22,15.38.07,30.78.26,46.21-.89,15.61-1.15,31.21-2.39,46.61-4.48A833.26,833.26,0,0,0,1802,715.18c20-5.19,39.79-10.9,59.46-16.88V550.47C1851.23,552.07,1841.33,553.3,1835.25,552.88ZM1541.33,678.8a39.84,39.84,0,0,1-10.43,3.67,163.63,163.63,0,0,1-42.6,2.71,283.65,283.65,0,0,1-35.09-4.27c-6.89-1.38-13.51-3.54-18.69-7.8-4-3.35-3.88-5.25.43-8.26a19.51,19.51,0,0,1,6-2.64,90.78,90.78,0,0,1,25.15-3.8h15.77c15.51-.86,32.55,1.47,49.3,6a35.71,35.71,0,0,1,11.15,5.19C1546.56,672.49,1546.09,676.48,1541.33,678.8Zm-250.4-100.62c-13.89-1.48-27.28-3.91-39.76-9.39a30.07,30.07,0,0,1-8.81-5.84c-3.89-3.72-3.44-9.11,1.15-12.27a36.83,36.83,0,0,1,9.83-4.57c11.37-3.58,23.17-3.92,35-3.45a139.58,139.58,0,0,1,52.54,7.46c5.46,1.88,10.35,4.42,14.14,8.17,4.7,4.68,3.89,9.56-2.26,12.85a56,56,0,0,1-15.27,5.37,155.57,155.57,0,0,1-46.54,1.67ZM830.47,620.41a41.57,41.57,0,0,1-12.63,6.9c-15.15,5.58-31.17,8.17-47.57,9.89-10.11,1.07-20.16,1-30.25,1a142.94,142.94,0,0,1-42.28-6.34,22.92,22.92,0,0,1-8.17-4.41c-5.93-5-5.91-10.54.44-15.17a58.29,58.29,0,0,1,16.37-7.85c19.28-6.31,39.48-9.05,69.8-9.05,12.84-.64,28.37.39,43.34,5a34.16,34.16,0,0,1,11.08,5.31c5.39,4.2,6.73,8.9-.11,14.67ZM501,642.69c-9.37,3.35-19.44,4.75-29.42,5.41-10.26.69-20.69,1-30.91-1.06-3.46-.68-6.94-1.3-9.94-2.9-4.31-2.31-4.59-4.7-.94-7.6,3.37-2.71,7.63-4,12-5.1,11.24-2.66,22.72-3.81,31.38-3.32,11.09.19,19.2-.52,27.07,1.7,3.88,1.07,8.87,1.92,9.09,5.61s-4.35,5.83-8.31,7.26Z"/><path class="cls-4" d="M1856.86,467.72c-.49-4-1-8-1.62-11.93s-1.2-7.91-1.86-11.84c-.51-2.94-1-5.89-1.55-8.83s-1.09-5.87-1.69-8.79c-.79-3.9-1.6-7.76-2.45-11.62q-2.57-11.62-5.59-23c-.62-2.31-1.24-4.61-1.88-6.92-.34-1.25-.7-2.53-1.07-3.79-.59-2.11-1.21-4.23-1.83-6.32-.79.28-1.6.56-2.39.81s-1.6.56-2.41.81a1,1,0,0,0-.34.11l-.34.11c-.41.15-.84.27-1.26.4l-.28.09a.9.9,0,0,0-.23.08c-.32.09-.62.2-.94.28s-.79.26-1.2.36c-.06,0-.08,0-.15.07h-.12l-.39.13h-.12c-.9.28-1.78.56-2.67.81l-1.52.45c-.7.19-1.38.41-2.09.6s-1.57.45-2.36.66l-.6.15h-.24a.9.9,0,0,1-.32.09l-2.34.64-2.37.62c-.45.1-.9.21-1.34.34a3.63,3.63,0,0,0-.45.1c-1.75.45-3.5.88-5.23,1.28-.94.24-1.88.45-2.79.67-.26.06-.52.1-.77.17H1802a4.51,4.51,0,0,1-.53.1h-.15l-.32.06-.38.09c-1.58.36-3.16.69-4.74,1l-2.65.56c-.4.08-.79.17-1.17.23-.94.19-1.86.36-2.77.53-1.09.24-2.18.45-3.29.64-2.3.43-4.63.86-7,1.26l-5.25.9-.6.08-.23.05c-1.07.19-2.11.36-3.16.51-3.31.53-6.61,1-9.94,1.49-1.75.26-3.5.49-5.25.73s-3.5.47-5.27.68l-5.27.64c-4.69.53-9.38,1-14.1,1.47-1.9.19-3.79.36-5.67.58a10.54,10.54,0,0,0-1.13.1c-1.58.15-3.16.3-4.74.47l-1.87.19c-1.71.18-3.4.32-5.1.5-2.07.19-4.12.38-6.19.55-3.09.28-6.19.51-9.28.7-1,.07-2.07.11-3.09.17s-2.2.11-3.29.15-2.2.09-3.28.11H1666c-14.27,0-28.52.08-42.84-1l-6.78-.54a5.19,5.19,0,0,1-1.11-.08c-.88-.09-1.79-.15-2.67-.24h-.23a14.1,14.1,0,0,1-1.71-.15c-2.62-.21-5.23-.45-7.85-.7q-6.78-.64-13.52-1.43c-4.51-.51-9-1.09-13.47-1.69-1.13-.15-2.24-.3-3.34-.47l-3.35-.49c-2.41-.36-4.82-.72-7.24-1.11s-4.82-.76-7.21-1.17-4.8-.81-7.21-1.24h0q-7.17-1.28-14.31-2.68c-3.29-.64-6.55-1.31-9.81-2s-6.38-1.32-9.56-2c-.66-.13-1.32-.28-2-.43l-8-1.79-9.72-2.26c-3.25-.77-6.47-1.56-9.71-2.35s-6.44-1.6-9.66-2.41l-9.67-2.5c-3.22-.83-6.42-1.68-9.64-2.54q-5.4-1.44-10.77-3c-3.61-1-7.19-2-10.77-3-7.19-2-14.4-4-21.76-5.55-3.1,0-19.2-6.12-22.08-6.87q-9.83-2.56-19.54-5.35c-14.53-4.08-29-8.39-43.61-12.27-30.76-8.19-61.69-15.85-93.33-21.35-15.27-2.65-98.72-12.78-114.49-12.82-3.54.12-117.5,8.32-121,8.76-34.26,4.4-68,10.69-101.79,17h-.07l-2.75.51-6.74,1.28-8.62,1.6c-5.34,1-10.69,1.9-16,2.75-1.28.22-2.58.43-3.88.62-1.68.28-3.37.54-5,.79l-1.48.21-1.45.2c-.79.12-1.57.23-2.36.32l-2.48.34c-.62.08-1.26.17-1.88.23l-4.35.54h0c-2.24.23-4.46.49-6.7.7l-.74.06h-1.11c-.26,0-.54.07-.79.09l-3.39.3h-.71c-2.73.23-5.46.4-8.19.55h-.28a338.24,338.24,0,0,1-52.39-1.4c-7.44-.75-14.89-1.73-22.31-2.88-3.35-.52-6.7-1.07-10-1.65s-6.68-1.15-10-1.75l-10-1.81-15-2.75c-2.56-.45-5.14-.92-7.7-1.39a6.61,6.61,0,0,1-.89-.15h-.15l-.56-.1-.7-.13c-1.67-.3-3.33-.6-5-.88-.83-.15-1.66-.27-2.51-.42-1.45-.26-2.93-.49-4.4-.73l-2.43-.36-.4-.07-1.31-.21c-.85-.13-1.68-.23-2.53-.38-1.09-.17-2.18-.34-3.27-.49s-2.17-.34-3.26-.49c-1.92-.26-3.82-.54-5.74-.77q-1.47-.22-2.94-.39h0l-.74-.08a.76.76,0,0,1-.3,0h-.06l-2.63-.32c-1.43-.19-2.88-.36-4.31-.53-.21,0-.42-.06-.64-.06h0l-3.26-.37a8.27,8.27,0,0,0-1-.12,10.76,10.76,0,0,0-1.26-.13c-.23,0-.49-.07-.72-.09h-.77a5.59,5.59,0,0,1-.7-.09c-2.59-.27-5.17-.53-7.75-.74h-.06c-.41-.05-.81-.09-1.2-.11a5,5,0,0,1-.55,0h-1.07a1.31,1.31,0,0,1-.28,0,.74.74,0,0,1-.21,0H626c-.34,0-.66-.07-1-.09h-.28l-1-.08c-.41,0-.83-.07-1.24-.09-2.09-.17-4.2-.32-6.29-.43s-4.2-.25-6.32-.36l-3.43-.15h-.64c-1.81-.06-3.61-.13-5.42-.17-2.6-.06-5.2-.11-7.81-.13-6.35,0-12.67.13-19,.39-10.33.42-20.61,1.17-30.94,1.92l-.74.06c-1.73.13-3.48.28-5.21.43-2.83.25-5.65.53-8.47.87l-.51.06c-1.77.22-3.56.45-5.35.71-2.65.34-5.29.75-7.92,1.19-2,.32-3.9.66-5.86,1s-4.28,1-6.28,1.35-3.65.74-5.46,1.17c-1,.21-2.07.45-3.09.7-2.11.5-4.23,1-6.32,1.54s-4.43,1.15-6.63,1.77c-.19.07-.39.11-.58.17l-2.56.73-1.7.51c-1.2.34-2.37.7-3.57,1.09-1.49.45-3,.91-4.48,1.41a462.3,462.3,0,0,1-66.15,16.12c-2.86.49-5.69,1-8.55,1.41l-1.3.19c-.73.11-1.45.24-2.18.34-3.35.52-6.72,1-10.09,1.5-.79.13-1.56.23-2.35.34l-2.36.32c-2,.28-3.95.53-5.91.79s-4,.51-5.93.74c-1.41.2-2.82.37-4.23.52-.55.08-1.13.15-1.7.21l-5.93.68a8.73,8.73,0,0,0-1,.11c-5.73.64-11.54,1.21-17.3,1.79h0c-23.59,2.28-47.14,4.65-70.93,4.72-22.5.06-45.07.7-67.45-1.52l-5.57-.58-.55-.06c-.24,0-.47-.06-.71-.08-2.22-.24-4.41-.49-6.61-.75h-.3c-1.37-.15-2.73-.32-4.07-.49q-5.84-.73-11.63-1.56c-1.49-.22-3-.41-4.44-.64h-.15l-1.47-.22-1.71-.25-4.09-.64c-2-.32-4-.64-6-1-5.2-.88-10.41-1.82-15.59-2.8h0c-1.24-.21-2.45-.47-3.69-.7h0c-2.9-.58-5.76-1.15-8.66-1.75-6.49-1.32-12.93-2.67-19.42-4q-19.38-4-38.86-7.83c-2.35-.45-4.68-.92-7-1.34-4.76-.94-9.5-1.82-14.23-2.71h0A579.77,579.77,0,0,0,.33,522.58v1.58c.85.07,1.71.13,2.56.22,11.77,1,23.53,2.3,35.3,3.43,11.29,1.09,22.64,1.75,33.88,2.88,11.56,1.15,23.19,1.58,34.73,1.94,31.83,1,63.66.26,95.14-4.8,22-3.52,43.24-8.89,63.13-17.47,12.54-5.42,24.34-12,36.6-17.83,11.84-5.64,23.81-11.12,37.14-14.08,16.94-3.76,33.9-5.49,51.67-3.84,12.54,1.17,25.09,2.28,37.48,4.16a427.59,427.59,0,0,1,76.9,19.07c25.41,8.83,49.79,19.62,75.71,27.54,23.55,7.17,47.49,13.18,72.36,16.36,16.71,2.13,33.39,4.18,50.31,5.21,15.1.93,30.2,1.81,45.33,2.15,15.38.34,30.72-1.15,46.08-2.22,22-1.51,43.53-5,64.91-9.26,27.28-5.44,54.44-11.39,81.72-16.89a863.24,863.24,0,0,1,89.54-12.89c19-1.79,38.18-3.52,57.3-3.69,21.44-.17,42.83-1.17,64.31-.42,23.21.81,46.51,0,69.76,1.28,10.82.61,21.65,1.34,32.49,1.79,7,.3,14.19.17,21.14,1.19,10.75,1.56,21.7,1.84,32.41,1.9,27.54.21,55.12,1.3,82.7-.75,11.31-.83,22.64-1.68,33.84-3.09,25.25-3.18,50.21-7.61,75-12.86,44.33-9.39,88.74-18.28,134.42-22.44,21.58-2,43.22-3.05,64.82-4.48,17.63-1.16,35.4.74,53.06-1.31,6.76-.78,13.59.75,20.35,1,16.41.62,32.83-.07,49.28,1.15,9.51.73,19.09,1.49,28.69,1.84,2.22.08,4.48.19,6.74.36A10.56,10.56,0,0,1,1856.86,467.72ZM194.74,499.93c-8.07,5-17.45,7.53-27,9.77C144.87,515.07,121.43,516,97.9,515c-9.75-.41-19.6-1.58-28.86-4.76C65.54,509,62,508,59.12,505.75c-5.4-4.18-5.57-8.19-.15-12.35a48.22,48.22,0,0,1,15.68-7.47A207.85,207.85,0,0,1,142,477.51c12.75-.36,25.11-.17,37.22,2.43a64.89,64.89,0,0,1,14.72,5C202.33,488.94,202.52,495.11,194.74,499.93Zm253.7-46.06a17.28,17.28,0,0,1-7.85,3.61c-6.84,1.58-13.74,2.77-21.14,2.28-5.14.58-10.34-.47-15.53-1.3a18.28,18.28,0,0,1-4.29-1.22c-2.26-1-4.5-2.22-4.18-4.71.28-2.11,2.24-3.18,4.46-3.91a80.87,80.87,0,0,1,35.69-3.32c4.2.57,8.51,1,12.22,3.11C451.05,450.25,451.22,451.46,448.44,453.87Zm247.65-38a18.1,18.1,0,0,1-4.09,1.57c-7,2.07-14.15,2.82-21.46,3.55-9.6.91-19,.29-28.59-.11a69.54,69.54,0,0,1-15.49-2.69c-2.22-.6-4.39-1.6-4.28-3.86.12-1.86,2-2.92,3.9-3.54a76.63,76.63,0,0,1,13.78-3.15c2.52-.35,5-.56,7.59-.69,5-.21,10.09,0,17,0,6.42.13,14.78-.51,23,1.17a34.33,34.33,0,0,1,7.34,2.22c.36.17.72.34,1.06.54,2.87,1.5,2.91,3.38.24,5Zm746.32-3.4c-.43,2.31-3.16,3.1-5.63,3.61a102.68,102.68,0,0,1-25.28,2.22c-4.22-.28-8.64.81-12.61-1.18a63.71,63.71,0,0,1-25.72-4c-2.18-.83-5.38-1.38-4.83-4.09.45-2.31,3.2-3.08,5.7-3.59,8.09-1.66,29.61-1.36,38-.91a60.25,60.25,0,0,1,25.6,3.9c2.13.77,5.3,1.35,4.77,4Z"/><path class="cls-2" d="M367.79,188.94l-.47.13.57-.13Z"/><path class="cls-2" d="M1837.33,374.64c-.79.28-1.6.56-2.39.81s-1.6.56-2.41.81a1,1,0,0,0-.34.11l-.34.11c-.41.15-.84.27-1.26.4l-.28.09a.9.9,0,0,0-.23.08c-.32.09-.62.2-.94.28s-.79.26-1.2.36c-.06,0-.08.05-.15.07h-.12l-.39.13c-1.57.49-3.16,1-4.75,1.41s-3.08.89-4.61,1.3h-.24a.9.9,0,0,1-.32.09l-2.34.64-2.37.62c-.45.1-.9.21-1.34.34a3.63,3.63,0,0,0-.45.1c-1.75.45-3.5.88-5.23,1.28-.94.24-1.88.45-2.79.67-.26.06-.52.1-.77.17H1802a4.51,4.51,0,0,1-.53.1h-.15l-.32.06-.38.09c-1.58.36-3.16.69-4.74,1l-2.65.56c-.4.08-.79.17-1.17.23-.94.19-1.86.36-2.77.53-1.09.24-2.18.45-3.29.64-2.3.43-4.63.86-7,1.26l-5.25.9-.6.08-.23.05c-1.07.19-2.11.36-3.16.51-3.31.53-6.61,1-9.94,1.49-1.75.26-3.5.49-5.25.73s-3.5.47-5.27.68l-5.27.64c-4.69.53-9.38,1-14.1,1.47-1.9.19-3.79.36-5.67.58a10.54,10.54,0,0,0-1.13.1c-1.58.15-3.16.3-4.74.47l-1.87.19c-1.71.18-3.4.32-5.1.5-2.07.19-4.12.38-6.19.55-3.09.28-6.19.51-9.28.7-1,.07-2.07.11-3.09.17s-2.2.11-3.29.15-2.2.09-3.28.11H1666c-14.27,0-28.52.08-42.84-1l-6.78-.54a5.19,5.19,0,0,1-1.11-.08c-.88-.09-1.79-.15-2.67-.24h-.23a14.1,14.1,0,0,1-1.71-.15c-2.62-.21-5.23-.45-7.85-.7q-6.78-.64-13.52-1.43c-4.51-.51-9-1.09-13.47-1.69-1.13-.15-2.24-.3-3.34-.47l-3.35-.49c-2.41-.36-4.82-.72-7.24-1.11s-4.82-.76-7.21-1.17-4.82-.81-7.21-1.24h0q-7.17-1.28-14.31-2.68c-3.29-.64-6.55-1.31-9.81-2s-6.38-1.32-9.56-2c-.66-.13-1.32-.28-2-.43l-8-1.79-9.72-2.26c-3.25-.77-6.47-1.56-9.71-2.35s-6.44-1.6-9.66-2.41l-9.67-2.5c-3.22-.83-6.42-1.68-9.64-2.54q-5.4-1.44-10.77-3c-3.61-1-7.19-2-10.77-3-7.19-2-14.4-4-21.76-5.55-3.1,0-19.2-6.12-22.08-6.87q-9.83-2.56-19.54-5.35c13.12.68,26.24,1.9,39.29,3.13a860.88,860.88,0,0,1,89.53,13.22c27.29,5.5,54.44,11.43,81.73,16.89,2.69.54,5.35,1.07,8,1.58a486.48,486.48,0,0,0,56.89,7.68c15.36,1.07,30.7,2.56,46.08,2.2,15.13-.32,30.23-1.2,45.33-2.13,16.92-1,33.6-3.1,50.31-5.21,1.72-.23,3.43-.47,5.14-.73,1.38-.19,2.75-.4,4.14-.61h0l4.11-.67c2.73-.46,5.46-1,8.17-1.49.81-.15,1.6-.3,2.41-.47,1.24-.23,2.48-.49,3.7-.74,1.45-.3,2.9-.62,4.35-.94,2.62-.56,5.22-1.18,7.83-1.8,1-.23,2-.46,2.92-.72,2-.49,4-1,6-1.51C1836.75,372.64,1837,373.64,1837.33,374.64Z"/><path class="cls-2" d="M896.26,323.64l-9.62,1.79L878,327c-5.34,1-10.69,1.9-16,2.75-1.28.22-2.58.43-3.88.62-2.17.36-4.35.68-6.53,1l-1.45.2c-.79.12-1.57.23-2.36.32l-2.48.34c-.62.08-1.26.17-1.88.23-1.45.19-2.9.39-4.35.56-2.24.23-4.46.49-6.7.7l-.74.06h-.39a4.37,4.37,0,0,1-.72.06c-.26,0-.54.07-.79.09l-3.39.3h-.71c-2.73.23-5.46.4-8.19.55h-.28a358.34,358.34,0,0,1-74.75-4.17c-3.35-.54-6.7-1.07-10-1.65s-6.68-1.15-10-1.75l-10-1.81-15-2.75c-2.56-.45-5.14-.92-7.7-1.39a6.61,6.61,0,0,1-.89-.15h-.15l-.56-.1-.7-.13c-1.67-.3-3.33-.6-5-.88-.83-.15-1.66-.27-2.51-.42-1.45-.26-2.93-.49-4.4-.73s-2.75-.45-4.14-.64c-1.94-.32-3.86-.62-5.8-.87-1.09-.2-2.17-.34-3.26-.49-1.92-.26-3.82-.54-5.74-.77-1-.15-2-.28-3-.41l-.74-.08a.76.76,0,0,1-.3,0h-.06l-2.63-.32c-1.64-.21-3.31-.4-5-.59h0l-3.26-.37-2.31-.25h-1.49a5.59,5.59,0,0,1-.7-.09c-2.59-.27-5.17-.53-7.75-.74h-.06c-.41-.05-.81-.09-1.2-.11a5,5,0,0,1-.55,0h-1.07a1.31,1.31,0,0,1-.28,0,.74.74,0,0,1-.21,0h-.28c-.34,0-.66-.07-1-.09h-.28l-1-.08c-.41,0-.83-.07-1.24-.09-2.09-.17-4.2-.32-6.29-.43s-4.2-.25-6.32-.36l-3.43-.15h-.64c-1.81-.06-3.61-.13-5.42-.17-2.6-.06-5.2-.11-7.81-.13-17-.08-33.81,1.13-50.68,2.37-1.73.13-3.48.28-5.21.43-2.83.25-5.65.53-8.47.87l-.51.06c-1.77.22-3.56.45-5.35.71-2.65.34-5.29.75-7.92,1.19-2,.3-3.92.66-5.86,1s-3.93.36-5.93.73-3.65.74-5.46,1.17c-1,.21-2.07.45-3.09.7-2.11.5-4.23,1-6.32,1.54s-4.43,1.15-6.63,1.77l-3.14.9-1.7.51c-1.2.34-2.37.7-3.57,1.09-1.49.45-3,.91-4.48,1.41a462.3,462.3,0,0,1-66.15,16.12c-2.86.49-5.69,1-8.55,1.41l-1.3.19c-.73.11-1.45.24-2.18.34-1.68.28-3.37.54-5.06.79s-3.37.49-5,.71c-.79.13-1.56.23-2.35.34l-2.36.32c-2,.28-3.95.53-5.91.79s-4,.51-5.93.74c-1.41.2-2.82.37-4.23.52-.55.08-1.13.15-1.7.21l-5.93.68a8.73,8.73,0,0,0-1,.11c-5.73.64-11.54,1.21-17.3,1.79h0c-23.59,2.28-47.14,4.65-70.93,4.72-22.5.06-45.07.7-67.45-1.52l-5.57-.58-.55-.06c-.24,0-.47-.06-.71-.08-2.22-.24-4.41-.49-6.61-.75h-.3c-1.37-.15-2.73-.32-4.07-.49q-5.84-.73-11.63-1.56c-1.49-.22-3-.41-4.44-.64h-.15l-1.47-.22-1.71-.25-4.09-.64c-2-.32-4-.64-6-1-5.2-.88-10.41-1.82-15.59-2.8,16.21,0,32.34-1.41,48.51-2.24,10.07-.49,20.18-1.11,30.21-1.75,9.53-.62,19.18-.53,28.65-2,6.44-1,13.1-.83,19.6-1.22,8.81-.51,17.56-1.55,26.41-1.77,8.3-.19,16.58-1.23,24.85-2,6-.56,12.06-1,18.07-1.43,18.84-1.45,37.61-3.44,56.43-5,19.09-1.56,38.08-3.73,57.13-5.44,12.8-1.15,25.49-3,38.25-4.44,17-1.92,34-3.71,51-5.57,14-1.51,28-3.07,42-4.6,5.74-.64,11.58-1.09,17.3-1.31,9.6-.34,19.2-1.1,28.69-1.83,16.45-1.22,32.87-.53,49.28-1.15,6.76-.28,13.59-1.81,20.35-1,17.66,2,35.43.15,53,1.31,21.61,1.42,43.24,2.51,64.83,4.48,23.06,2.09,45.8,5.39,68.37,9.38a.94.94,0,0,1,.37.07h.06a3.85,3.85,0,0,1,.49.08h.15l.34.07h.36q6.54,1.15,13,2.37a1.93,1.93,0,0,1,.53.11.49.49,0,0,1,.17,0,6.93,6.93,0,0,1,.79.17,3.27,3.27,0,0,1,.6.1c.74.13,1.51.28,2.26.43H894l2,.39a.14.14,0,0,0,.24.14Z"/><path class="cls-2" d="M791.24,37.44c8.61.26,17.25.17,25.89-.32C808.49,37.64,799.85,37.64,791.24,37.44Zm95.4-9.81c-2.88.55-5.74,1.08-8.62,1.6l8.62-1.58,25.55-4.8q-12.8,2.37-25.55,4.79Zm216-26.52-1.56.13c1-.09,2.09-.15,3.07-.24-.52.05-1,.07-1.54.11Zm5.93-.43h0l-.68.07c.47,0,.92-.07,1.35-.09Zm6.72-.44h-.43l1.47-.11Zm3.77-.24h0c.75,0,1.62,0,2.65.07-1.06,0-1.91-.07-2.66-.07Zm114.49,12.82-.85-.13c.3.07.58.11.85.15q13.35,2.34,26.54,5.1-13.24-2.78-26.57-5.12ZM695.9,111.27a30.64,30.64,0,0,0-8.38-2.75c-8.26-1.71-16.6-1-23-1.2-7,0-12-.19-17,.05a80.86,80.86,0,0,0-21.37,3.77c-1.9.62-3.8,1.67-3.9,3.54a3.72,3.72,0,0,0,.14,1c.5-1.43,2.14-2.28,3.76-2.82a82.15,82.15,0,0,1,21.37-3.75c5-.24,10.12,0,17.07,0,6.4.12,14.74-.52,23,1.17A32,32,0,0,1,696,113a4.55,4.55,0,0,1,1.88,1.6C698.44,113.49,697.82,112.3,695.9,111.27Z"/><path class="cls-2" d="M1711.33,168q-6.61,1.16-13.31,2.22a358.42,358.42,0,0,1-74.68,4.28c-1.11-.06-2.22-.12-3.33-.21,4.67-.51,9.36-1,14.08-1.43,21.56-2,43.22-3,64.8-4.46C1703.07,168.17,1707.23,168.06,1711.33,168Z"/><path class="cls-2" d="M1726.56,168.12c-5.08,0-10.13-.13-15.19-.08,4.4-.77,8.77-1.54,13.16-2.35C1725.22,166.5,1725.9,167.31,1726.56,168.12Z"/><path class="cls-2" d="M365.44,189.56l-2.09.58c-3.18.87-6.38,1.73-9.6,2.54,3.22-.81,6.42-1.69,9.6-2.56C364.05,189.92,364.73,189.75,365.44,189.56Z"/><path class="cls-2" d="M415,180.07q-5.22.66-10.41,1.44C408,181,411.47,180.5,415,180.07Z"/><path class="cls-2" d="M1726.56,168.12c-5.08,0-10.13-.13-15.19-.08,4.4-.77,8.77-1.54,13.16-2.35C1725.22,166.5,1725.9,167.31,1726.56,168.12Z"/><path class="cls-2" d="M1437.61,110.52a60.59,60.59,0,0,0-25.6-3.9c-8.36-.45-29.88-.72-38,.92-2.5.51-5.25,1.28-5.72,3.6-.53,2.69,2.67,3.25,4.85,4.08a63.71,63.71,0,0,0,25.72,4c4,2,8.39.92,12.61,1.19a103.68,103.68,0,0,0,25.28-2.24c2.47-.51,5.2-1.28,5.63-3.58C1442.94,111.93,1439.77,111.36,1437.61,110.52ZM697.8,114.64a4.61,4.61,0,0,1-1.73,1.58,17.18,17.18,0,0,1-4.09,1.56c-.54.19-1.07.32-1.6.47l3.9.59a11,11,0,0,0,1.81-.83C697.88,117,698.44,115.77,697.8,114.64Zm-71.36,3.91c-1.83-.52-3.62-1.28-4.12-2.82a2.62,2.62,0,0,0-.14.73c-.11,2,1.66,3.05,3.62,3.66l4.89-.51C629.26,119.29,627.85,118.93,626.44,118.55Z"/><path class="cls-2" d="M39.82,328.91h0c4.73.87,9.49,1.77,14.23,2.69C49.33,330.64,44.55,329.8,39.82,328.91Zm21.25,4c13,2.54,25.92,5.18,38.86,7.83Q80.55,336.79,61.07,333ZM363.33,190.12c-3.18.87-6.38,1.75-9.6,2.56,3.22-.81,6.42-1.67,9.6-2.54l2.09-.58Zm4.44-1.18-.47.13.57-.13Zm526.7,134.42a1.06,1.06,0,0,1-.35-.09h-.25c-.75-.15-1.52-.3-2.26-.43-.47-.1-.92-.19-1.39-.27a6.93,6.93,0,0,1,.79.17l-1-.19a1.93,1.93,0,0,0-.53-.11q-6.47-1.21-13-2.37h-.36l-.34-.07-.64-.12h-.06a.94.94,0,0,0-.37-.07c-22.57-4-45.31-7.29-68.37-9.38-21.59-2-43.22-3.06-64.83-4.48-17.62-1.16-35.39.74-53-1.31-6.76-.78-13.59.75-20.35,1-16.41.62-32.83-.07-49.28,1.15-9.49.73-19.09,1.49-28.69,1.83-5.72.22-11.56.67-17.3,1.31-14,1.53-28,3.09-42,4.6-17,1.86-34,3.65-51,5.57-12.76,1.43-25.45,3.29-38.25,4.44-19,1.71-38,3.88-57.13,5.44-18.82,1.51-37.59,3.5-56.43,5-6,.47-12,.87-18.07,1.43-8.27.79-16.55,1.83-24.85,2-8.85.22-17.6,1.26-26.41,1.77-6.5.39-13.16.26-19.6,1.22-9.47,1.43-19.12,1.34-28.65,2-10,.64-20.14,1.26-30.21,1.75-16.17.83-32.3,2.22-48.51,2.24h0c-1.24-.21-2.45-.47-3.69-.7a2.84,2.84,0,0,0,.06.7h3.65c5.18,1,10.39,1.92,15.59,2.78l6,1,4.09.64,1.71.25,1.47.22h.15c1.47.23,3,.42,4.44.64q5.79.82,11.63,1.56c1.34.17,2.7.34,4.07.49h.3c2.2.26,4.39.51,6.61.75a2.16,2.16,0,0,1,.71.08l.55.06,5.57.58c22.38,2.22,45,1.58,67.45,1.52,23.79-.07,47.34-2.44,70.93-4.72h0c5.76-.58,11.57-1.15,17.3-1.79a7,7,0,0,0,1-.11l5.93-.68c.57-.06,1.15-.13,1.7-.21,1.41-.15,2.82-.32,4.23-.52,2-.23,3.94-.49,5.93-.74s3.94-.51,5.91-.79l2.36-.32c.79-.11,1.56-.21,2.35-.34,1.66-.22,3.35-.45,5-.71s3.38-.51,5.06-.79c.73-.1,1.45-.23,2.18-.34l1.31-.26c2.86-.45,5.69-.92,8.55-1.41A462.3,462.3,0,0,0,468,328.11c1.5-.5,3-1,4.48-1.41,1.2-.39,2.37-.75,3.57-1.09l1.7-.51,3.14-.9c2.2-.62,4.41-1.19,6.63-1.77s4.21-1,6.32-1.54c1-.25,2-.49,3.09-.7,1.81-.43,3.63-.81,5.46-1.17s3.88-.79,5.83-1.13,3.9-.71,5.86-1c2.63-.44,5.27-.85,7.92-1.19,1.79-.26,3.58-.49,5.35-.71l.51-.06c2.82-.34,5.64-.62,8.47-.87,1.73-.15,3.48-.3,5.21-.43,16.87-1.24,33.7-2.45,50.68-2.37,2.61,0,5.21.07,7.81.13,1.81,0,3.61.11,5.42.17h.64l3.43.15c2.12.11,4.21.21,6.32.36s4.2.26,6.29.43a5.76,5.76,0,0,1,1.24.09l1,.08h.28c.34,0,.66.07,1,.09h2.39l2.63.26c2.34.21,4.71.44,7.08.68h1.49l2.31.25,3.26.37h0c1.64.19,3.31.38,5,.59l2.63.32h.06a.76.76,0,0,0,.3,0c.25,0,.51.08.77.1,2.9.39,5.8.77,8.68,1.18,1.43.19,2.86.42,4.29.64l2.06.29c.91.14,1.81.26,2.71.41l1.31.21.4.07c.62.11,1.24.19,1.88.3,1.85.3,3.73.59,5.59.91l4.07.71,2.82.47.7.13.56.1h.15a6.61,6.61,0,0,0,.89.15c2.56.47,5.14.94,7.7,1.39l15,2.75c3.33.6,6.66,1.22,10,1.81s6.68,1.18,10,1.75,6.68,1.11,10,1.65a358.57,358.57,0,0,0,74.7,4.28,1.31,1.31,0,0,0,.28,0c2.73-.15,5.46-.32,8.19-.55h.71l3.39-.3a2.4,2.4,0,0,0,.79-.09,2.16,2.16,0,0,0,.36,0,2.16,2.16,0,0,0,.36,0h.39l.74-.06c2.24-.21,4.46-.47,6.7-.7h0q2.18-.25,4.35-.54c.62-.06,1.26-.15,1.88-.23l2.48-.34c.79-.09,1.57-.2,2.36-.32l1.45-.2c2.18-.32,4.36-.64,6.53-1,1.3-.19,2.6-.4,3.88-.62,5.36-.85,10.71-1.79,16-2.75l8.62-1.6,9.49-1.79Zm200.86-218.6c-3.94-.14-8-.25-12.16-.27h-8.7c-4,0-7.94.15-11.76.3h0c-34.68,1.43-60.62,7.19-60.62,14,0,6.6,24,12.16,56.76,13.87,3.57.17,7.21.3,11,.38,3.22.09,6.5.14,9.83.13,3.65,0,7.25,0,10.77-.15,3.76-.08,7.43-.23,11-.42,32.25-1.75,55.83-7.28,55.83-13.81C1157.22,111.91,1130.66,106.11,1095.33,104.76ZM1326.83,332c-30.76-8.19-61.69-15.85-93.33-21.35-15.27-2.65-98.72-12.78-114.49-12.82-3.54.12-117.5,8.32-121,8.76-34.26,4.4-68,10.69-101.79,17,14.89,2.86,29.73,6,44.56,9.11,24.77,5.24,49.73,9.68,75,12.86,11.18,1.41,22.53,2.26,33.84,3.09,27.58,2,55.14,1,82.68.75,10.73-.06,21.7-.34,32.43-1.9,7-1,14.12-.89,21.12-1.21,10.85-.43,21.69-1.16,32.51-1.77,23.25-1.28,46.52-.47,69.75-1.28,21.49-.77,42.88.25,64.3.42q9,.1,18,.56c-14.48-4-28.94-8.34-43.56-12.22Zm199-78.29c-52,0-94.2,8.53-94.2,19s42.17,19.05,94.2,19.05,94.23-8.51,94.23-19.05-42.19-19-94.24-19Zm173.1-85.29c-21.58,1.43-43.24,2.5-64.8,4.46-4.72.43-9.41.92-14.08,1.43,1.11.09,2.22.15,3.33.21a358.42,358.42,0,0,0,74.68-4.28q6.69-1.06,13.31-2.22C1707.23,168.06,1703.07,168.17,1698.93,168.44Zm25.6-2.75c-4.39.81-8.76,1.58-13.16,2.35,5.06,0,10.11,0,15.19.08C1725.9,167.31,1725.22,166.5,1724.53,165.69Zm111.89,206-6,1.51c-1,.26-1.94.49-2.92.72-2.61.62-5.21,1.24-7.83,1.8-1.45.32-2.9.64-4.35.94-1.22.25-2.46.51-3.7.74-.81.17-1.6.32-2.41.47-2.71.53-5.44,1-8.17,1.49l-4.11.67h0c-1.39.21-2.76.42-4.14.61-1.71.26-3.42.5-5.14.73-16.71,2.11-33.39,4.16-50.31,5.21-15.1.93-30.2,1.81-45.33,2.13-15.38.36-30.72-1.13-46.08-2.2a486.48,486.48,0,0,1-56.89-7.68c-2.69-.49-5.35-1-8-1.56-1.41-.27-2.8-.57-4.2-.85l4.2.83c-27.29-5.46-54.44-11.39-81.73-16.89a863.05,863.05,0,0,0-89.53-12.89c-13-1.23-26.17-2.45-39.29-3.13q9.72,2.78,19.54,5.35c2.88.75,19,6.83,22.08,6.87,7.36,1.6,14.57,3.54,21.76,5.55,3.58,1,7.16,2,10.77,3.05s7.17,2,10.77,3c3.22.86,6.42,1.71,9.64,2.54l9.67,2.5,9.66,2.41c3.24.79,6.46,1.58,9.71,2.35l9.72,2.26,8,1.79,2,.43c3.18.7,6.36,1.38,9.56,2s6.52,1.35,9.81,2q7.14,1.4,14.31,2.68h0c2.39.43,4.8.84,7.21,1.24s4.8.79,7.21,1.17,4.83.77,7.24,1.13l3.35.47c1.1.17,2.21.32,3.34.47,4.48.6,9,1.18,13.47,1.69s9,1,13.52,1.43c2.62.25,5.23.49,7.85.7.58.07,1.13.11,1.71.15h.23c.88.09,1.79.15,2.67.24.36,0,.75.06,1.11.08l6.78.54c14.32,1,28.57,1,42.84,1h20.16c1.08,0,2.19-.06,3.28-.11s2.2-.08,3.29-.15,2.07-.1,3.09-.17c3.09-.19,6.19-.42,9.28-.7,2.07-.17,4.12-.36,6.19-.55,1.7-.18,3.39-.32,5.1-.5l1.87-.19c1.58-.17,3.16-.32,4.74-.47.38,0,.74-.08,1.13-.1,1.9-.2,3.77-.39,5.67-.56,4.72-.45,9.41-.94,14.1-1.49l5.27-.64c1.77-.21,3.52-.45,5.27-.68s3.5-.47,5.25-.73c3.33-.47,6.63-1,9.94-1.49,1-.15,2.09-.32,3.16-.51l.23-.05.6-.08,5.25-.9c2.32-.4,4.65-.83,7-1.26,1.11-.19,2.2-.4,3.29-.64.91-.17,1.83-.34,2.77-.53.38-.06.77-.15,1.17-.23l2.65-.56c1.58-.32,3.16-.65,4.74-1l.38-.09.32-.06h.15a4.51,4.51,0,0,0,.53-.1h.11c.25-.07.51-.11.77-.17.91-.22,1.85-.43,2.79-.67,1.73-.4,3.48-.83,5.23-1.28a3.63,3.63,0,0,1,.45-.1c.44-.13.89-.24,1.34-.34l2.37-.62,2.34-.64a1.17,1.17,0,0,0,.32-.09h.24l.6-.15c.79-.21,1.57-.43,2.36-.66s1.39-.41,2.09-.6l1.52-.45c.89-.25,1.77-.53,2.67-.81h.12l.39-.13h.27l1.2-.38c.32-.08.62-.19.94-.28a.9.9,0,0,1,.23-.08l.28-.09c.42-.13.85-.25,1.26-.4l.34-.11a1,1,0,0,0,.34-.11c.81-.25,1.62-.53,2.41-.81s1.6-.53,2.39-.81a28.12,28.12,0,0,0-.84-3.47Zm5.68,20q3,11.42,5.59,23-2.57-11.6-5.59-23.05Z"/><path class="cls-2" d="M1861.06,502c-.55-16.75-1.92-33.35-4-49.71-.06-.51-.13-1-.19-1.56a542.26,542.26,0,0,0-19.54-89.7c-.3-.94-.58-1.92-.9-2.88a546.51,546.51,0,0,0-46.65-106.79c-2.65-4.63-5.33-9.24-8.13-13.8-4.41-7.28-9-14.47-13.78-21.51-.34-.51-.68-1-1-1.51-1.54-2.28-3.1-4.54-4.7-6.81s-3.16-4.5-4.78-6.76-3.13-4.31-4.71-6.44c-.43-.55-.83-1.11-1.26-1.66-1.28-1.73-2.58-3.46-3.9-5.17-1.67-2.19-3.37-4.37-5.08-6.52q-2.76-3.46-5.59-6.94c-3.35-4.09-6.78-8.17-10.26-12.18-.66-.81-1.32-1.58-2-2.34a573.18,573.18,0,0,0-63.1-61.85l-.32-.28a.66.66,0,0,0-.17-.12c-2.26-1.9-4.5-3.78-6.8-5.61l-2.82-2.31-2.84-2.26L1644.36,84h0a128,128,0,0,0-31.64-13.21l-5.35-.57-5.46-.58q-5.48-.54-11.12-1a5.46,5.46,0,0,1-.79-.09c-1.28-.11-2.53-.21-3.81-.3s-2.29-.19-3.44-.3c-.87-.08-1.73-.13-2.58-.19-1.32-.11-2.65-.21-4-.3-.62-.06-1.26-.08-1.88-.13-1.41-.12-2.79-.21-4.2-.32l-3.31-.21c-3.62-.23-7.31-.45-11-.66h-.92c-1-.07-2.09-.13-3.16-.17-3-.2-6-.32-8.94-.47-3.45-.15-7-.32-10.45-.45-1.88-.09-3.73-.13-5.61-.19-3.61-.15-7.23-.28-10.88-.37l-5.65-.17a1.13,1.13,0,0,0-.26,0l-5.27-.13c-4.09-.08-8.19-.17-12.29-.23-1.51,0-3,0-4.54-.09-5.93-.08-11.9-.15-17.83-.17h-4.65c-8.34,0-16.66,0-24.91.07l-6.13-1.67c-2.11-.55-4.2-1.13-6.31-1.68l-3.52-.9c-2.33-.6-4.63-1.15-7-1.68-1.79-.43-3.58-.84-5.41-1.22-3.1,0-19.2-5.89-22.08-6.59-21.19-5.31-42-11.54-63.15-17-30.76-7.89-61.69-15.28-93.33-20.57C1219.67,10.11,1150,1.87,1125.19.32c-1.3-.07-2.5-.15-3.54-.17h0c-1,0-1.9-.07-2.65-.07h-2.71l-1.47.11h-.68c-.37,0-.75.06-1.16.06h-.1c-.45,0-.92.06-1.41.1s-.9,0-1.37.07c-.25,0-.51.06-.76.06a.49.49,0,0,0-.17,0c-.43,0-.88.07-1.35.09l-3.6.25h-.11c-1,.09-2,.15-3.07.24l1.56-.13c-32.45,2.18-101.87,7-104.56,7.32-37.52,4.65-74.45,11.52-111.41,18.22-23,4.13-46,7.91-69.51,9.13a371.14,371.14,0,0,1-74.69-4c-26.84-4-53.25-9.62-80.19-13.27-23.19-3.12-46.49-5.38-70-5.48-17-.07-33.81,1.08-50.68,2.28a319.66,319.66,0,0,0-73.54,14A477.66,477.66,0,0,1,401.87,44.7C379.09,48.44,363.13,73.22,340,75.36c-23.59,2.19-32.47-12.61-54.76-8.68,0,0-27.8,4.69-27.8,4.71-17.23,3.2-31.44,6.23-36.09,9.36h0q-11,8.43-21.57,17.31c-.17.14-.32.25-.49.4-.43.36-.9.75-1.37,1.17-3,2.5-5.93,5.06-8.83,7.64-1.47,1.28-2.92,2.58-4.37,3.88-1.73,1.56-3.46,3.12-5.16,4.74-1.48,1.32-2.93,2.69-4.36,4s-3,2.8-4.41,4.2l-3.49,3.3-3.79,3.78-1.46,1.42Q142.8,152,125.51,173.13q-14.4,17.46-27.33,36.09-5.57,8-10.85,16.24a547.45,547.45,0,0,0-47.51,91.45A541.36,541.36,0,0,0,.33,503.56v1.51c-.19,5.42-.26,10.82-.26,16.26V541c0-2.84,0-5.68.07-8.49s.1-5.57.19-8.37v-1.58A579.65,579.65,0,0,1,39.84,328.93h0c4.73.89,9.47,1.77,14.23,2.71,2.34.42,4.67.89,7,1.34q19.46,3.81,38.86,7.83c6.49,1.34,12.93,2.69,19.42,4,2.9.6,5.76,1.17,8.66,1.75-.07-.73-.13-1.43-.17-2.14.06.71.12,1.41.19,2.14,1.24.23,2.45.49,3.69.7h0c16.21,0,32.34-1.41,48.51-2.24,10.07-.49,20.18-1.11,30.21-1.75,9.53-.62,19.18-.53,28.65-2,6.44-1,13.1-.83,19.6-1.22,8.81-.51,17.56-1.55,26.41-1.77,8.3-.19,16.58-1.23,24.85-2,6-.56,12.06-1,18.07-1.43,18.84-1.45,37.61-3.44,56.43-5,19.09-1.56,38.08-3.73,57.13-5.44,12.8-1.15,25.49-3,38.25-4.44,17-1.92,34-3.71,51-5.57,14-1.51,28-3.07,42-4.6,5.74-.64,11.58-1.09,17.3-1.31,9.6-.34,19.2-1.1,28.69-1.83,16.45-1.22,32.87-.53,49.28-1.15,6.76-.28,13.59-1.81,20.35-1,17.66,2.05,35.43.15,53,1.31,21.61,1.42,43.24,2.51,64.83,4.48,23.06,2.09,45.8,5.39,68.37,9.38a.94.94,0,0,1,.37.07h.06a3.85,3.85,0,0,1,.49.08c.36.06.73.11,1.09.19h-.24q6.54,1.16,13,2.37a1.93,1.93,0,0,1,.53.11h.17c.47.08.92.17,1.39.27.74.13,1.51.28,2.26.43H894l2,.39h.07c33.79-6.36,67.53-12.65,101.79-17,3.48-.44,117.44-8.64,121-8.76,15.77,0,99.22,10.17,114.49,12.82,31.64,5.5,62.57,13.16,93.33,21.35,14.62,3.88,29.08,8.19,43.61,12.27,13.12.68,26.24,1.9,39.29,3.13a858.45,858.45,0,0,1,89.73,12.91c27.29,5.5,54.44,11.43,81.73,16.89,2.69.54,5.35,1.07,8,1.58a486.48,486.48,0,0,0,56.89,7.68c15.36,1.07,30.7,2.56,46.08,2.2,15.13-.32,30.23-1.2,45.33-2.13,16.92-1,33.6-3.1,50.31-5.21,1.72-.23,3.43-.47,5.14-.73,1.38-.19,2.75-.4,4.14-.61h0l4.11-.67c2.73-.46,5.46-1,8.17-1.49.81-.15,1.6-.3,2.41-.47,1.24-.23,2.48-.49,3.7-.74,1.45-.3,2.9-.62,4.35-.94,2.62-.56,5.22-1.18,7.83-1.8,1-.23,2-.46,2.92-.72,2-.49,4-1,6-1.51q.48,1.5.9,3c.62,2.09,1.24,4.21,1.83,6.32.37,1.26.73,2.54,1.07,3.79.64,2.31,1.26,4.61,1.88,6.92q3,11.41,5.59,23c.85,3.86,1.66,7.72,2.45,11.62.6,2.92,1.15,5.85,1.69,8.79s1.06,5.87,1.55,8.83q1,5.89,1.86,11.84c.6,4,1.13,7.94,1.62,11.93.06.55.13,1.06.19,1.62h0c2.09,17,3.46,34.15,4,51.56h0c.13,3.33.22,6.68.28,10s.09,6.69.09,10.07v-19.6Q1861.43,511.64,1861.06,502ZM194.76,202.08c-8.09,5-17.47,7.53-27,9.77a218.33,218.33,0,0,1-40,5.36c-9.81.43-19.67.36-29.55,0q12.9-19.31,27.33-37.49h0c.81,0,1.62-.06,2.46-.08,2-.06,4-.11,5.95-.11,2.71,0,5.44.07,8.15.19,12.75-.38,25.11-.19,37.24,2.44a62.86,62.86,0,0,1,14.68,5,16.76,16.76,0,0,1,3.56,2.26C202.14,193.19,201.2,198.09,194.76,202.08Zm143.1,107.86a37.63,37.63,0,0,1-5,1.45c-21.35,5-43.11,6-65.06,4.2-3.05-.23-7.57-.23-8-3.54-.36-3,3.95-3.26,6.66-4.07,16.13-4.82,33-5.36,49.92-6.06,2.77,0,5.54.09,8.32,0,4.39-.19,8.49,1.09,12.69,1.58,2,.23,4.14.94,4.24,3S339.69,309.26,337.86,309.94Zm25.47-119.8c-3.18.87-6.38,1.73-9.6,2.54,3.22-.81,6.42-1.69,9.6-2.56.7-.2,1.38-.37,2.09-.56Zm4-1.07.47-.13h.1Zm81.12-33a17.34,17.34,0,0,1-7.85,3.58c-6.84,1.58-13.74,2.8-21.12,2.28-5.16.58-10.34-.44-15.57-1.3a17.64,17.64,0,0,1-4.27-1.21c-2.26-1-4.5-2.2-4.18-4.7.28-2.13,2.24-3.2,4.46-3.9a80.72,80.72,0,0,1,35.69-3.35c4.2.58,8.51,1,12.22,3.12,3.22,1.81,3.39,3,.61,5.46Zm247.65-38a11,11,0,0,1-1.81.83c-.75.28-1.54.52-2.3.73-.54.17-1.07.32-1.6.47-6.45,1.73-13.08,2.41-19.84,3.07-9.6.92-19,.32-28.59-.08a64.9,64.9,0,0,1-11.26-1.63c-1.43-.34-2.84-.7-4.25-1.08l-.64-.2c-2-.61-3.73-1.62-3.62-3.66a2.62,2.62,0,0,1,.14-.73,3.72,3.72,0,0,1-.14-1c.1-1.87,2-2.92,3.9-3.54a80.86,80.86,0,0,1,21.37-3.77c5-.24,10.09,0,17,0,6.42.15,14.76-.51,23,1.2a30.64,30.64,0,0,1,8.38,2.75c1.92,1,2.54,2.22,1.9,3.37.7,1,.14,2.2-1.65,3.26ZM791.25,37.5c8.61.23,17.25.15,25.89-.32-8.65.46-17.29.52-25.9.26Zm95.4-9.79L878,29.29c2.88-.52,5.74-1.05,8.62-1.6l25.55-4.78Zm180.68,224.93a63.71,63.71,0,0,1-25.72,4c-4,2-8.39.9-12.61,1.18a103.6,103.6,0,0,1-25.27-2.18c-2.48-.53-5.21-1.3-5.65-3.61-.52-2.66,2.66-3.26,4.8-4.07A61,61,0,0,1,1028.5,244c8.36-.44,29.86-.72,38,.94,2.49.51,5.25,1.28,5.69,3.59C1072.72,251.23,1069.52,251.81,1067.33,252.64Zm34-120c-3.54.19-7.21.34-11,.42-3.52.11-7.12.15-10.77.15q-5,0-9.83-.13c-3.76-.08-7.4-.21-11-.38C1026,131,1002,125.43,1002,118.83c0-6.84,25.94-12.6,60.62-14h0c3.82-.15,7.75-.26,11.76-.3h8.7c4.14,0,8.22.13,12.16.27,35.31,1.35,61.87,7.15,61.87,14.08.14,6.49-23.44,12-55.69,13.76Zm132.19-119.8a3.9,3.9,0,0,1-.85-.15l.85.13q13.35,2.34,26.54,5.12Q1246.85,15.19,1233.52,12.84Zm178,107.6c-4.22-.27-8.62.82-12.61-1.19a63.71,63.71,0,0,1-25.72-4c-2.18-.83-5.38-1.39-4.85-4.08.47-2.32,3.22-3.09,5.72-3.6,8.09-1.64,29.61-1.37,38-.92a60.59,60.59,0,0,1,25.6,3.9c2.16.84,5.33,1.41,4.8,4.1-.43,2.3-3.16,3.07-5.63,3.58a103.12,103.12,0,0,1-25.33,2.21Zm114.32,171.39c-52,0-94.2-8.51-94.2-19.05s42.17-19,94.2-19,94.23,8.53,94.23,19-42.2,19.05-94.25,19.05ZM1711.33,168q-6.61,1.16-13.31,2.22a358.42,358.42,0,0,1-74.68,4.28c-1.11-.06-2.22-.12-3.33-.21,4.67-.51,9.36-1,14.08-1.43,21.56-2,43.22-3,64.8-4.46,4.14-.27,8.3-.38,12.44-.4,4.4-.77,8.77-1.54,13.16-2.35.69.81,1.37,1.62,2,2.43C1721.48,168.08,1716.43,168,1711.33,168Zm58.6,92.47c-7.31-.7-14.5-1.45-21.46-3.52a17.64,17.64,0,0,1-4.09-1.57c-2.69-1.58-2.63-3.46.17-4.95a30.68,30.68,0,0,1,8.4-2.76c8.24-1.68,16.58-1,23-1.19h5.63l8.11,14.31a139.59,139.59,0,0,1-19.72-.32Z"/><path class="cls-1" d="M1442.41,114.64c-.43,2.3-3.16,3.07-5.63,3.58a103.68,103.68,0,0,1-25.28,2.24c-4.22-.27-8.62.82-12.61-1.19a63.71,63.71,0,0,1-25.72-4c-2.18-.83-5.38-1.39-4.85-4.08.47-2.32,3.22-3.09,5.72-3.6,8.09-1.64,29.61-1.37,38-.92a60.59,60.59,0,0,1,25.6,3.9C1439.77,111.36,1442.94,111.93,1442.41,114.64Z"/><path class="cls-1" d="M1067.33,252.64a63.71,63.71,0,0,1-25.72,4c-4,2-8.39.9-12.61,1.18a103.6,103.6,0,0,1-25.27-2.18c-2.48-.53-5.21-1.3-5.65-3.61-.52-2.66,2.66-3.26,4.8-4.07A61,61,0,0,1,1028.5,244c8.36-.44,29.86-.72,38,.94,2.49.51,5.25,1.28,5.69,3.59C1072.72,251.23,1069.52,251.81,1067.33,252.64Z"/><path class="cls-1" d="M1157.22,118.84c0,6.53-23.58,12.06-55.83,13.81-3.54.19-7.21.34-11,.42-3.52.11-7.12.15-10.77.15q-5,0-9.83-.13c-3.76-.08-7.4-.21-11-.38-32.74-1.71-56.76-7.27-56.76-13.87,0-6.84,25.94-12.6,60.62-14h0c3.82-.15,7.75-.26,11.76-.3h8.7c4.14,0,8.22.13,12.16.27C1130.66,106.11,1157.22,111.91,1157.22,118.84Z"/><ellipse class="cls-3" cx="1111.34" cy="406.68" rx="89.38" ry="16.81"/><path class="cls-1" d="M1620.05,272.78c0,10.54-42.18,19.05-94.23,19.05s-94.2-8.51-94.2-19.05,42.17-19,94.2-19S1620.05,262.26,1620.05,272.78Z"/><path class="cls-3" d="M412.61,845s11.6-83.62,173.08-52.68S773,840.94,883.58,815.23s230.47-53.08,310.52-11.66,334.2-108.29,315.53-2.81-50.25,278.47-46,381.14,67.25,170.18,30.75,329.11-258.33,128-300.33,91.42-334.93-30.94-372.26,1.4-258.46,63.29-282.87,12.66-130.59-2.85-126.31-101.26,54.56-256,33-334.73S408,972.35,412.46,944.22,412.61,845,412.61,845Z"/></svg>