<svg id="Layer_1" data-name="Layer 1" xmlns="http://www.w3.org/2000/svg" viewBox="0 0 512 887.74"><defs><style>.cls-1{fill:#141210;}.cls-2{fill:#333;}.cls-3{fill:#fff;}</style></defs><title>Panels</title><polygon class="cls-1" points="289.21 762.78 289.2 760.35 288.08 760.35 214.29 760.5 213.16 760.5 213.17 762.94 175.03 846 213.33 845.93 289.37 845.77 327.68 845.7 289.21 762.78"/><path class="cls-2" d="M131.32,749.59l15,22.11a49,49,0,0,1,8.46,27.37v4.26c26.1-2.36,61.89-3.88,101.35-4,37.55-.07,71.76,1.15,97.47,3.23v-3.93a48.9,48.9,0,0,1,8.34-27.4l14.82-22c-34.71-6-77.24-9.41-123.19-9.32C208,740,165.83,743.59,131.32,749.59Z"/><path class="cls-3" d="M386.33,386.7h.07c0-.73-.14-1.45-.2-2.17-.06-1-.11-2.05-.19-3.08h-.09a178.92,178.92,0,0,0-15.34-57.22L259,81.45c-2.65-5.75-10-5.74-12.58,0L135.88,324.7a178.71,178.71,0,0,0-15.16,57.87h-.08c-.06.88-.09,1.77-.14,2.65s-.17,1.78-.22,2.68l.08,0c0,1.65-.08,3.3-.07,4.95L121,740.59a4.83,4.83,0,0,0,4.86,4.77,4.89,4.89,0,0,1,4,2.12l1.43,2.1c34.52-6,76.69-9.56,122.24-9.65,45.95-.09,88.48,3.36,123.19,9.32l1.52-2.26a4.85,4.85,0,0,1,4-2.14,4.83,4.83,0,0,0,4.86-4.8l-.69-347.74C386.45,390.44,386.41,388.57,386.33,386.7Z"/><path class="cls-2" d="M386.57,450.56l-47.32.1a17.48,17.48,0,0,0-17.44,17.51L322,568a17.48,17.48,0,0,0,17.51,17.44l47.32-.09Z"/></svg>