<svg id="Layer_1" data-name="Layer 1" xmlns="http://www.w3.org/2000/svg" viewBox="0 0 176.51 244.84"><defs><style>.cls-1{fill:#e4e4e4;}.cls-2{fill:#fff;}.cls-3{fill:#333;}.cls-4{fill:#e4704c;}.cls-5{fill:#c8c8c8;}.cls-6{fill:#cacaca;}</style></defs><title>Panels</title><rect class="cls-1" x="56.71" y="81.16" width="63.78" height="67.76" rx="16.44" transform="translate(3.81 -2.84) rotate(1.88)"/><rect class="cls-2" x="65.29" y="148.44" width="15.72" height="39.45" rx="4.05" transform="translate(5.55 -2.3) rotate(1.88)"/><path class="cls-2" d="M69,183.49H78.2a3.28,3.28,0,0,1,3.28,3.28v22.83a4.05,4.05,0,0,1-4.05,4.05H69.81a4.05,4.05,0,0,1-4.05-4.05V186.76A3.28,3.28,0,0,1,69,183.49Z" transform="matrix(0.99, -0.14, 0.14, 0.99, -26.6, 12.01)"/><rect class="cls-2" x="95.3" y="149.42" width="15.72" height="39.45" rx="4.05" transform="translate(5.59 -3.29) rotate(1.88)"/><path class="cls-2" d="M97.54,185.75h9.17A3.28,3.28,0,0,1,110,189v22.83a4.05,4.05,0,0,1-4.05,4.05H98.31a4.05,4.05,0,0,1-4.05-4.05V189A3.28,3.28,0,0,1,97.54,185.75Z" transform="translate(6.63 -3.24) rotate(1.88)"/><path class="cls-2" d="M108.19,89.31,72.25,88.13a6.26,6.26,0,0,0-6.45,6l-.15,4.55-.39,12.06-1.33,40.34a6.27,6.27,0,0,0,6,6.45l35.94,1.18a6.28,6.28,0,0,0,6.45-6l1.29-39.39.41-12.57.16-5A6.25,6.25,0,0,0,108.19,89.31Z"/><path class="cls-2" d="M65.64,98.94C49.85,97.37,46.09,87.66,44.89,80.87L32.42,82c0,.64.09,1.3.13,2,1.41,20.31,21.09,25.63,32.7,27"/><path class="cls-2" d="M114.45,113.22c15.79,1.57,19.54,11.29,20.75,18.08l12.47-1.13c0-.64-.09-1.31-.13-2-1.42-20.31-21.09-25.64-32.7-27"/><path class="cls-3" d="M120.62,74.43a31.6,31.6,0,0,1-1.52,3.09l-1.91-.06A28.47,28.47,0,0,1,64.9,82.34a28.72,28.72,0,0,1-2.54-6.67l-1.73-.06c-.44-.92-.84-1.87-1.19-2.83l3,.1A28.49,28.49,0,0,0,98.56,93.35h0a28.54,28.54,0,0,0,18.72-18.68l1.94.07A3,3,0,0,0,120.62,74.43Z"/><path class="cls-2" d="M128,53.48l-.48,14.61A3.41,3.41,0,0,1,124,71.38l-2.25-.07a32.19,32.19,0,0,1-1.15,3.12,31.6,31.6,0,0,1-1.52,3.09A33,33,0,0,1,98.56,93.35h0A32.92,32.92,0,0,1,60.63,75.61c-.44-.92-.84-1.87-1.19-2.83a30.34,30.34,0,0,1-1.08-3.55l-3.58-.11a3.43,3.43,0,0,1-3.29-3.52L52,51a3.41,3.41,0,0,1,3.51-3.29l4.77.15h.12a32.93,32.93,0,0,1,60.79,2l3.57.11A3.43,3.43,0,0,1,128,53.48Z"/><circle class="cls-3" cx="91.01" cy="64.38" r="24.22"/><rect class="cls-3" x="120.7" y="53.31" width="5.43" height="5.66" rx="1.4" transform="translate(1.9 -4.01) rotate(1.88)"/><rect class="cls-3" x="120.4" y="62.61" width="5.43" height="5.66" rx="1.4" transform="translate(2.21 -4) rotate(1.88)"/><rect class="cls-3" x="53.7" y="51.11" width="5.43" height="5.66" rx="1.4" transform="matrix(1, 0.03, -0.03, 1, 1.8, -1.82)"/><rect class="cls-3" x="53.4" y="60.41" width="5.43" height="5.66" rx="1.4" transform="translate(2.1 -1.8) rotate(1.88)"/><rect class="cls-4" x="64.29" y="174.9" width="17.09" height="2.79" rx="0.72" transform="translate(5.81 -2.29) rotate(1.88)"/><rect class="cls-4" x="44.96" y="100.3" width="14.6" height="2.79" rx="0.72" transform="translate(-62.03 104.96) rotate(-64.44)"/><rect class="cls-4" x="94.39" y="174.49" width="17.09" height="2.79" rx="0.72" transform="matrix(1, 0.03, -0.03, 1, 5.81, -3.28)"/><rect class="cls-1" x="63.12" y="180.72" width="18.92" height="9.62" rx="2.48" transform="translate(6.11 -2.28) rotate(1.88)"/><rect class="cls-3" x="65.18" y="183.03" width="14.93" height="1.13" rx="0.29" transform="translate(6.05 -2.28) rotate(1.88)"/><rect class="cls-3" x="65.07" y="184.96" width="14.93" height="1.13" rx="0.29" transform="matrix(1, 0.03, -0.03, 1, 6.12, -2.28)"/><rect class="cls-3" x="65.05" y="186.9" width="14.93" height="1.13" rx="0.29" transform="translate(6.18 -2.27) rotate(1.88)"/><rect class="cls-1" x="93.13" y="181.7" width="18.92" height="9.62" rx="2.48" transform="translate(5.39 -2.86) rotate(1.64)"/><rect class="cls-3" x="95.17" y="184.01" width="14.93" height="1.13" rx="0.29" transform="translate(6.1 -3.26) rotate(1.88)"/><rect class="cls-3" x="95.07" y="185.95" width="14.93" height="1.13" rx="0.29" transform="translate(6.16 -3.26) rotate(1.88)"/><rect class="cls-3" x="95.04" y="187.88" width="14.93" height="1.13" rx="0.29" transform="translate(6.22 -3.25) rotate(1.88)"/><path class="cls-2" d="M34.19,68.33h7.68a4.09,4.09,0,0,1,4.09,4.09V83.5a0,0,0,0,1,0,0H30.1a0,0,0,0,1,0,0V72.41A4.09,4.09,0,0,1,34.19,68.33Z" transform="translate(-6.05 3.35) rotate(-4.67)"/><path class="cls-3" d="M78.15,125.83l-.64,0c-.26,0-.48.1-.49.24l0,.88-.11,3.29,0,.88c0,.14.21.26.47.27l.63,0c.26,0,.48-.1.49-.24l0-.88.1-3.29,0-.88C78.62,126,78.41,125.84,78.15,125.83Z"/><path class="cls-3" d="M65.2,98.12l-.64,0a.55.55,0,0,0-.5.59l-.06,2-.25,7.59-.07,2a.55.55,0,0,0,.46.61l.63,0a.55.55,0,0,0,.5-.58l.06-2,.25-7.6.07-2A.55.55,0,0,0,65.2,98.12Z"/><path class="cls-3" d="M115.19,100.3l-.64,0a.54.54,0,0,0-.49.58l-.07,2-.25,7.6-.07,2a.56.56,0,0,0,.46.62l.64,0a.55.55,0,0,0,.49-.59l.07-2,.25-7.59.06-2A.54.54,0,0,0,115.19,100.3Z"/><path class="cls-3" d="M80.07,128.75H80l-2-.06h-.1c-.08,0-.14.14-.15.31l0,.65c0,.17,0,.31.13.31h.1l2,.07H80c.08,0,.14-.13.15-.3l0-.65C80.2,128.9,80.14,128.76,80.07,128.75Z"/><path class="cls-3" d="M102.28,123.92v-.22l.14-4.22v-.22c0-.15,0-.28-.06-.29h-.12s-.07.13-.07.28v.23l-.14,4.21v.22c0,.16,0,.29.06.29h.12S102.28,124.08,102.28,123.92Z"/><path class="cls-3" d="M101.73,123.9v-.22l.14-4.21v-.23c0-.15,0-.28,0-.28h-.13s-.07.13-.07.28v.23l-.14,4.21v.22c0,.16,0,.29.05.29h.12S101.73,124.06,101.73,123.9Z"/><path class="cls-3" d="M102.82,123.94v-.22l.14-4.22v-.22c0-.16,0-.29,0-.29h-.12s-.07.12-.07.28v.22l-.14,4.22v.22c0,.16,0,.29.05.29h.13S102.82,124.09,102.82,123.94Z"/><path class="cls-3" d="M101.18,123.88v-.22l.14-4.21v-.22c0-.16,0-.29,0-.29h-.13s-.07.13-.07.29v.22l-.14,4.21v.23c0,.15,0,.28,0,.28h.13S101.18,124,101.18,123.88Z"/><path class="cls-3" d="M45.91,82.36l-.7,0L32,83.32l-.7,0c-.49,0-.88.2-.87.37l.05.65c0,.17.42.28.91.25l.7,0,13.21-.91.7,0c.49,0,.88-.2.87-.36l0-.65C46.82,82.44,46.4,82.33,45.91,82.36Z"/><path class="cls-3" d="M63.32,131H63l-7-.23h-.37a.42.42,0,0,0-.48.37l0,.82a.42.42,0,0,0,.46.39l.37,0,7,.23h.37a.44.44,0,0,0,.49-.37l0-.82A.44.44,0,0,0,63.32,131Z"/><path class="cls-3" d="M63.47,126.42H63.1l-7-.23h-.38a.43.43,0,0,0-.48.37l0,.82a.44.44,0,0,0,.46.4H56l7,.23h.37a.44.44,0,0,0,.49-.37l0-.82A.45.45,0,0,0,63.47,126.42Z"/><path class="cls-3" d="M63.62,121.8h-.37l-7-.23h-.38a.43.43,0,0,0-.48.37l0,.82a.44.44,0,0,0,.46.4h.37l7,.23h.37a.44.44,0,0,0,.49-.37l0-.82A.45.45,0,0,0,63.62,121.8Z"/><path class="cls-3" d="M108.07,153.1,106.2,153l-35.33-1.16L69,151.82c-1.31,0-2.4.06-2.4.23l0,.65a5,5,0,0,0,2.39.38l1.87.06,35.33,1.16,1.87.06a5,5,0,0,0,2.4-.22l0-.66A5.16,5.16,0,0,0,108.07,153.1Z"/><path class="cls-3" d="M95.37,109.71l-.19,5.64c-.07,2.3,1.14,4.22,2.71,4.27l1.93.06,3.74.13,2.14.07c1.57.05,2.91-1.79,3-4.1l.19-5.64c.07-2.31-1.14-4.22-2.71-4.28l-1.93-.06-3.74-.12-2.14-.07C96.78,105.56,95.44,107.39,95.37,109.71Z"/><path class="cls-5" d="M75.45,123.11l-.08,2.27c0,.93.41,1.7,1,1.72l.7,0,1.37,0,.78,0c.57,0,1.06-.72,1.1-1.65l.07-2.27c0-.93-.41-1.7-1-1.71l-.71,0-1.37,0-.78,0C76,121.44,75.48,122.18,75.45,123.11Z"/><path class="cls-5" d="M98.38,123.15l-.08,2.27a1.6,1.6,0,0,0,1.43,1.73l1,0,2,.06,1.12,0a1.6,1.6,0,0,0,1.54-1.64l.08-2.27a1.6,1.6,0,0,0-1.43-1.73l-1,0-2-.06-1.11,0A1.6,1.6,0,0,0,98.38,123.15Z"/><path class="cls-5" d="M74.33,107.76l-1.64-.05c-.67,0-1.22.34-1.24.82l0,.58,0,1.13,0,.64c0,.47.52.87,1.19.9l1.64,0c.67,0,1.23-.34,1.24-.82l0-.58,0-1.12,0-.65C75.53,108.19,75,107.79,74.33,107.76Z"/><path class="cls-4" d="M79.48,107.93l-1.64-.05c-.67,0-1.23.34-1.24.82l0,.58,0,1.12,0,.65c0,.47.52.87,1.19.9l1.64,0c.67,0,1.22-.34,1.24-.82l0-.58,0-1.13,0-.64C80.68,108.36,80.15,108,79.48,107.93Z"/><path class="cls-3" d="M84.62,108.1l-1.63,0c-.67,0-1.23.34-1.24.82l0,.58,0,1.12,0,.65c0,.47.52.87,1.19.89l1.63.06c.67,0,1.23-.35,1.24-.82l0-.58,0-1.13,0-.64C85.83,108.52,85.3,108.12,84.62,108.1Z"/><path class="cls-2" d="M134.32,128h15.85a0,0,0,0,1,0,0v11.09a4.09,4.09,0,0,1-4.09,4.09h-7.68a4.09,4.09,0,0,1-4.09-4.09V128A0,0,0,0,1,134.32,128Z" transform="translate(-18.4 22.4) rotate(-8.46)"/><path class="cls-3" d="M133.94,129.61l.69-.09,13.13-1.8.69-.09c.49-.07.87-.26.85-.43l-.09-.65c0-.16-.45-.24-.93-.18l-.7.1-13.12,1.79-.69.1c-.49.06-.87.26-.85.42l.09.65C133,129.6,133.45,129.68,133.94,129.61Z"/><path class="cls-3" d="M120.15,128.34l-1.68-.48c-.68-.19-1.3-.14-1.38.12l-.44,1.58L115,135.45l-.44,1.58c-.07.26.43.63,1.12.82l1.68.47c.68.19,1.3.14,1.37-.11l.45-1.58,1.66-5.9.44-1.58C121.34,128.9,120.84,128.53,120.15,128.34Z"/><path class="cls-6" d="M75.59,63.88c.2-6.18,2.86-11.5,6.65-14.27-6,1.33-10.64,7.08-10.87,14.13s4,13.09,9.92,14.81C77.69,75.54,75.39,70.06,75.59,63.88Z"/></svg>