<?xml version="1.0" encoding="utf-8"?>
<!-- Generator: Adobe Illustrator 24.1.3, SVG Export Plug-In . SVG Version: 6.00 Build 0)  -->
<svg version="1.1" id="Layer_1" xmlns="http://www.w3.org/2000/svg" xmlns:xlink="http://www.w3.org/1999/xlink" x="0px" y="0px"
	 viewBox="0 0 512 1198" style="enable-background:new 0 0 512 1198;" xml:space="preserve">
<style type="text/css">
	.st0{fill:#141210;}
	.st1{fill:#333333;}
	.st2{fill:#FFFFFF;}
	.st3{fill:#EF5A24;}
	.st4{fill:#F5911E;}
	.st5{fill:#D7DE21;}
</style>
<polygon class="st0" points="291.5,736.5 291.5,734.1 290.4,734.1 216.6,734.2 215.5,734.2 215.5,736.7 177.3,819.7 215.6,819.7 
	291.7,819.5 330,819.4 "/>
<path class="st1" d="M133.6,723.3l15,22.1c5.5,8.1,8.4,17.6,8.5,27.4v4.3c26.1-2.4,61.9-3.9,101.3-4c37.5-0.1,71.8,1.2,97.5,3.2
	v-3.9c0-9.8,2.9-19.3,8.3-27.4l14.8-22c-34.7-6-77.2-9.4-123.2-9.3C210.3,713.7,168.1,717.3,133.6,723.3z"/>
<path class="st2" d="M388.6,360.4L388.6,360.4c0.1-0.7-0.1-1.5-0.1-2.2c-0.1-1-0.1-2-0.2-3.1h-0.1c-1.9-19.8-7.1-39.1-15.3-57.2
	L261.3,55.2c-2.6-5.8-10-5.7-12.6,0L138.2,298.4c-8.3,18.3-13.4,37.9-15.2,57.9H123c-0.1,0.9-0.1,1.8-0.1,2.6s-0.2,1.8-0.2,2.7h0.1
	c0,1.6-0.1,3.3-0.1,5l0.7,347.7c0,2.7,2.2,4.8,4.9,4.8c1.6,0,3.1,0.8,4,2.1l1.4,2.1c34.5-6,76.7-9.6,122.2-9.7
	c46-0.1,88.5,3.4,123.2,9.3l1.5-2.3c0.9-1.3,2.4-2.1,4-2.1c2.7,0,4.8-2.1,4.9-4.8c0,0,0,0,0,0L388.7,366
	C388.8,364.2,388.7,362.3,388.6,360.4z"/>
<path class="st1" d="M388.9,424.3l-47.3,0.1c-9.7,0-17.5,7.9-17.4,17.5l0.2,99.8c0,9.7,7.9,17.5,17.5,17.4l47.3-0.1L388.9,424.3z"/>
<path class="st3" d="M332.1,955.7c-26.6,109.1-77.9,191.4-77.9,191.4S202.5,1065,175.5,956c-18.9-76,2.3-117.7,16.9-136.1l122.3-0.2
	C329.3,838,350.6,879.6,332.1,955.7z"/>
<path class="st4" d="M311.3,934.5c-19.5,93.4-57.3,163.8-57.3,163.8s-38-70.2-57.9-163.6c-13.4-62.8,0.7-98.3,11.3-114.8l92.2-0.2
	C310.3,836.2,324.5,871.6,311.3,934.5z"/>
<path class="st5" d="M289.7,902.2c-12.2,69.4-35.8,121.8-35.8,121.8s-23.8-52.3-36.3-121.6c-7.8-43.3-0.8-69.2,5.5-82.4l60.6-0.1
	C290.2,833,297.3,858.8,289.7,902.2z"/>
</svg>
