<svg id="Layer_1" data-name="Layer 1" xmlns="http://www.w3.org/2000/svg" viewBox="0 0 931.67 935.08"><defs><style>.cls-1{fill:#333;}.cls-2{fill:#fff;}.cls-3{fill:#c84331;}</style></defs><title>Panels</title><path class="cls-1" d="M364.27,292.93c21.06-.12,38.67,20.59,38.58,45.36s-17.7,45.14-38.9,45.1c-21,0-38.63-20.05-38.79-44.17C325,316.49,340.23,292.89,364.27,292.93Z"/><path class="cls-2" d="M464.71,441.82c-4,2.62.69,76.35.79,81.29.42,21.34,2.48,19.21-.43,40-1.13,8.09-45.38,4.56-52.44,4.5-43.61-.34-87.22-.5-130.82.23-7.88.14-9.4-3-10.63-10.66-6.12-38-8.32-76.25-8.27-114.78,1.52-42.14,4.95-84,14.75-124.79,2-8.35,4.17-16.63,6.26-24.95,8.37-26,17.84-51.26,33.52-72.68a113.74,113.74,0,0,1,15.31-16.8c18.63-17,44.21-16.12,62.68.25,16.81,14.9,27.7,35,36.81,56.65,10,23.78,16.28,49.07,21.86,74.63,6.3,35.33,9.47,71.08,10.61,107.11M364.27,294.72c-24,0-39.27,23.56-39.11,46.3.16,24.12,17.82,44.13,38.79,44.17,21.2,0,38.8-20.38,38.9-45.11S385.33,294.61,364.27,294.72Z"/><path class="cls-1" d="M465.31,442.4c18.46,35.54,35.46,72.09,45.46,112.06,6.4,25.57,3.84,52.33,2.18,78.65-.11,1.74-.49,4.33-1.48,4.95-2.11,1.32-3.36-1.32-4.45-2.93-6.16-9.15-12.13-18.48-18.32-27.61a94.87,94.87,0,0,0-19.79-20.75c-9.23-7.39-19.53-6-29.76-5.89-3.06,0-3.18,2.77-3.63,5.18-1.42,7.67-3.09,15.29-4.1,23-.72,5.49-2.9,7.38-7.56,7.15-5.66-.29-11.35.14-17,.26l-82.89.12c-4.05-.16-8.1-.43-12.16-.45-12.58-.06-12.58,0-15.6-14.46-.2-.92-.28-1.87-.53-2.76-1.68-5.83,0-15.51-4.46-17.06a31.35,31.35,0,0,0-23.89.85c-11.07,5.28-19.63,14.45-27.09,25-5.67,8-10.81,16.52-16.29,24.71-1.61,2.39-3,6.63-5.75,5.81-3.36-1-2.44-5.81-2.63-9-2.45-40.26-.88-79.61,16-116.54,10.65-23.25,19.6-47.56,31.93-69.79-.05,38.42,2.15,76.58,8.27,114.42C273,565,274.53,568.16,282.41,568c43.6-.73,87.21-.57,130.81-.23,7.06.06,22-3.47,28.88-5.31,16.32-4.37,25.67,10.15,25.25-11.11-.09-4.93-5.85-101.95-1.89-104.57"/><rect class="cls-1" x="519.54" y="167.1" width="21.3" height="233.23" rx="1.59" transform="translate(246.47 813.91) rotate(-90)"/><rect class="cls-1" x="537.66" y="134.97" width="7.83" height="210.44" rx="0.58" transform="translate(301.39 781.77) rotate(-90)"/><rect class="cls-1" x="582.1" y="433.73" width="21.3" height="98.45" rx="1.59" transform="translate(109.8 1075.7) rotate(-90)"/><rect class="cls-1" x="582.1" y="533.34" width="21.3" height="98.45" rx="1.59" transform="translate(10.18 1175.31) rotate(-90)"/><rect class="cls-1" x="582.1" y="334.11" width="21.3" height="98.45" rx="1.59" transform="translate(209.41 976.08) rotate(-90)"/><path class="cls-1" d="M626.91,290.78l7,7.81a6.66,6.66,0,0,1,0,8.67l-67.57,75.26a5.13,5.13,0,0,1-7.78,0l-7-7.81a6.66,6.66,0,0,1,0-8.67l67.56-75.26A5.12,5.12,0,0,1,626.91,290.78Z"/><path class="cls-1" d="M633.93,371.05l-7,7.81a5.12,5.12,0,0,1-7.78,0L551.57,303.6a6.66,6.66,0,0,1,0-8.67l7-7.81a5.13,5.13,0,0,1,7.78,0l67.57,75.26A6.66,6.66,0,0,1,633.93,371.05Z"/><path class="cls-1" d="M484.22,290.07l-1.51,1.72c-.46.52-1.91-.24-3.23-1.69l-41.43-45.83c-1.31-1.45-2-3.07-1.55-3.59L438,239c.46-.52,1.91.24,3.22,1.69l41.44,45.83C484,287.94,484.68,289.55,484.22,290.07Z"/><path class="cls-1" d="M509.79,290.92l-1.51,1.71c-.46.53-1.91-.23-3.22-1.69l-41.43-45.83c-1.32-1.45-2-3.07-1.55-3.59l1.51-1.71c.46-.53,1.91.23,3.22,1.68l41.43,45.84C509.56,288.78,510.25,290.4,509.79,290.92Z"/><path class="cls-1" d="M535.37,291.76l-1.51,1.72c-.46.52-1.91-.24-3.22-1.69L489.2,246c-1.31-1.45-2-3.06-1.55-3.59l1.51-1.71c.46-.52,1.91.24,3.23,1.69l41.43,45.83C535.13,289.62,535.83,291.24,535.37,291.76Z"/><path class="cls-1" d="M561,289.23,559.44,291c-.46.52-1.91-.24-3.23-1.69l-41.43-45.84c-1.31-1.45-2-3.06-1.55-3.59l1.51-1.71c.46-.52,1.91.24,3.22,1.69l41.44,45.83C560.71,287.09,561.41,288.71,561,289.23Z"/><path class="cls-1" d="M592.49,288.81,591,290.52c-.46.53-1.91-.23-3.22-1.68L546.32,243c-1.31-1.45-2-3.07-1.55-3.59l1.51-1.71c.46-.53,1.91.23,3.22,1.69l41.44,45.83C592.25,286.67,593,288.29,592.49,288.81Z"/><path class="cls-1" d="M613.1,290.5l-1.51,1.71c-.46.52-1.91-.24-3.22-1.69l-41.44-45.83c-1.31-1.45-2-3.07-1.55-3.59l1.51-1.72c.46-.52,1.91.24,3.23,1.69l41.43,45.84C612.86,288.36,613.56,290,613.1,290.5Z"/><path class="cls-1" d="M643.64,290.5l-1.51,1.71c-.46.52-1.91-.24-3.22-1.69l-41.44-45.83c-1.31-1.45-2-3.07-1.55-3.59l1.51-1.72c.46-.52,1.91.24,3.23,1.69l41.43,45.84C643.4,288.36,644.1,290,643.64,290.5Z"/><path class="cls-1" d="M626.91,384.63l7,7.81a6.66,6.66,0,0,1,0,8.67l-67.57,75.26a5.13,5.13,0,0,1-7.78,0l-7-7.81a6.66,6.66,0,0,1,0-8.67l67.56-75.26A5.12,5.12,0,0,1,626.91,384.63Z"/><path class="cls-1" d="M633.93,468.56l-7,7.81a5.13,5.13,0,0,1-7.78,0l-67.56-75.26a6.66,6.66,0,0,1,0-8.67l7-7.81a5.12,5.12,0,0,1,7.78,0l67.57,75.26A6.66,6.66,0,0,1,633.93,468.56Z"/><path class="cls-1" d="M626.91,486.4l7,7.81a6.66,6.66,0,0,1,0,8.67l-67.57,75.26a5.12,5.12,0,0,1-7.78,0l-7-7.81a6.66,6.66,0,0,1,0-8.67l67.56-75.26A5.13,5.13,0,0,1,626.91,486.4Z"/><path class="cls-1" d="M633.93,571l-7,7.81a5.13,5.13,0,0,1-7.78,0l-67.56-75.26a6.66,6.66,0,0,1,0-8.67l7-7.82a5.13,5.13,0,0,1,7.78,0l67.57,75.27A6.66,6.66,0,0,1,633.93,571Z"/><path class="cls-1" d="M626.91,587.87l7,7.82a6.64,6.64,0,0,1,0,8.66l-67.57,75.27a5.13,5.13,0,0,1-7.78,0l-7-7.82a6.66,6.66,0,0,1,0-8.67l67.56-75.26A5.13,5.13,0,0,1,626.91,587.87Z"/><path class="cls-1" d="M633.93,672.47l-7,7.81a5.12,5.12,0,0,1-7.78,0L551.57,605a6.66,6.66,0,0,1,0-8.67l7-7.81a5.12,5.12,0,0,1,7.78,0l67.57,75.26A6.66,6.66,0,0,1,633.93,672.47Z"/><path class="cls-3" d="M570.09,237.37H615.4a4.46,4.46,0,0,1,4.46,4.46v41.31a0,0,0,0,1,0,0H565.63a0,0,0,0,1,0,0V241.84A4.46,4.46,0,0,1,570.09,237.37Z"/><path class="cls-1" d="M439.47,289.91l-2.17,0c-.66,0-1.2-1.21-1.2-2.71l.12-47.47c0-1.5.55-2.74,1.21-2.75l2.16,0c.67,0,1.2,1.21,1.2,2.71l-.11,47.47C440.67,288.66,440.13,289.9,439.47,289.91Z"/><rect class="cls-1" x="627.47" y="211.96" width="19.33" height="478.71" rx="1.59"/><rect class="cls-1" x="538.51" y="185.14" width="19.33" height="505.54" rx="1.59"/><path class="cls-1" d="M576.66,684.93l-7.61,5.45a7.75,7.75,0,0,1-8.45,0l-73.36-52.52a3.51,3.51,0,0,1,0-6.06l7.61-5.45a7.79,7.79,0,0,1,8.45,0l73.36,52.53A3.49,3.49,0,0,1,576.66,684.93Z"/><path class="cls-1" d="M444.34,685.25l-7.62,5.45a7.75,7.75,0,0,1-8.45,0l-73.36-52.53a3.5,3.5,0,0,1,0-6l7.62-5.45a7.79,7.79,0,0,1,8.45,0l73.36,52.53A3.5,3.5,0,0,1,444.34,685.25Z"/><path class="cls-1" d="M312,683.65l-7.62,5.46a7.79,7.79,0,0,1-8.45,0l-73.35-52.53a3.49,3.49,0,0,1,0-6.05l7.61-5.46a7.79,7.79,0,0,1,8.45,0L312,677.6A3.5,3.5,0,0,1,312,683.65Z"/><path class="cls-1" d="M156.42,684.29l7.62,5.45a7.75,7.75,0,0,0,8.45,0l73.36-52.52a3.51,3.51,0,0,0,0-6.06l-7.62-5.45a7.79,7.79,0,0,0-8.45,0l-73.36,52.53A3.5,3.5,0,0,0,156.42,684.29Z"/><path class="cls-1" d="M421.08,684.61l7.61,5.45a7.75,7.75,0,0,0,8.45,0l73.36-52.52a3.51,3.51,0,0,0,0-6.06L502.88,626a7.79,7.79,0,0,0-8.45,0l-73.35,52.53A3.49,3.49,0,0,0,421.08,684.61Z"/><path class="cls-1" d="M288.75,684l7.62,5.45a7.74,7.74,0,0,0,8.44,0l73.36-52.52a3.49,3.49,0,0,0,0-6l-7.61-5.46a7.79,7.79,0,0,0-8.45,0l-73.36,52.53A3.5,3.5,0,0,0,288.75,684Z"/><path class="cls-1" d="M515,632.32h0c-8.23-6.76-21.13-11.73-29.5-11.73H247c-8.37,0-21.27,5-29.5,11.73h0c-2.09,1.71-2,3.14.25,3.14h297C517,635.46,517.06,634,515,632.32Z"/></svg>