<?xml version="1.0" encoding="utf-8"?>
<!-- Generator: Adobe Illustrator 24.1.3, SVG Export Plug-In . SVG Version: 6.00 Build 0)  -->
<svg version="1.1" id="Layer_1" xmlns="http://www.w3.org/2000/svg" xmlns:xlink="http://www.w3.org/1999/xlink" x="0px" y="0px"
	 viewBox="0 0 237.9 887.7" style="enable-background:new 0 0 237.9 887.7;" xml:space="preserve">
<style type="text/css">
	.st0{fill:#141210;}
	.st1{fill:#333333;}
	.st2{fill:#FFFFFF;}
	.st3{fill:#EF5A24;}
	.st4{fill:#F5911E;}
	.st5{fill:#D7DE21;}
</style>
<polygon class="st0" points="150.6,611.2 150.6,609 149.6,609 83.8,609.2 82.8,609.2 82.8,611.3 48.8,685.4 82.9,685.3 150.7,685.2 
	184.9,685.1 "/>
<path class="st1" d="M9.8,599.4l13.4,19.7c4.9,7.2,7.5,15.7,7.5,24.4v3.8c23.3-2.1,55.2-3.5,90.3-3.6c33.5-0.1,64,1,86.9,2.9v-3.5
	c0-8.7,2.6-17.2,7.4-24.4l13.2-19.6c-30.9-5.3-68.9-8.4-109.8-8.3C78.2,590.9,40.6,594.1,9.8,599.4z"/>
<path class="st2" d="M237.2,276L237.2,276c0.1-0.7-0.1-1.3-0.1-1.9c-0.1-0.9-0.1-1.8-0.2-2.7h-0.1c-1.7-17.6-6.3-34.9-13.7-51
	L123.7,3.8c-2.4-5.1-8.9-5.1-11.2,0L13.9,220.7C6.5,237,2,254.4,0.4,272.3H0.3c-0.1,0.8-0.1,1.6-0.1,2.4c0,0.8-0.2,1.6-0.2,2.4h0.1
	c0,1.5-0.1,2.9-0.1,4.4l0.6,310c0,2.4,2,4.3,4.3,4.3c1.4,0,2.8,0.7,3.6,1.9l1.3,1.9c30.8-5.3,68.4-8.5,109-8.6
	c41-0.1,78.9,3,109.8,8.3l1.4-2c0.8-1.2,2.1-1.9,3.6-1.9c2.4,0,4.3-1.9,4.3-4.3c0,0,0,0,0,0l-0.6-310
	C237.3,279.3,237.2,277.6,237.2,276z"/>
<path class="st1" d="M237.4,332.9l-42.2,0.1c-8.6,0-15.6,7-15.5,15.6l0.2,89c0,8.6,7,15.6,15.6,15.5l42.2-0.1L237.4,332.9z"/>
<path class="st3" d="M165.3,769.4c-16.4,67.4-48.2,118.3-48.2,118.3S85.2,837,68.5,769.6c-11.7-47,1.4-72.8,10.4-84.1l75.6-0.2
	C163.6,696.7,176.8,722.4,165.3,769.4z"/>
<path class="st4" d="M152.5,756.3c-12.1,57.7-35.4,101.2-35.4,101.2s-23.5-43.4-35.8-101.1c-8.3-38.8,0.4-60.8,7-70.9l57-0.1
	C151.8,695.6,160.6,717.4,152.5,756.3z"/>
<path class="st5" d="M139.1,736.3c-7.5,42.9-22.1,75.3-22.1,75.3s-14.7-32.3-22.4-75.2c-4.8-26.8-0.5-42.7,3.4-50.9l37.5-0.1
	C139.4,693.6,143.8,709.5,139.1,736.3z"/>
</svg>
